<?xml version="1.0" encoding="UTF-8" standalone="no"?>
<!-- Created with Inkscape (http://www.inkscape.org/) -->

<svg
   version="1.1"
   id="svg1"
   width="725"
   height="503"
   viewBox="0 0 725 503"
   sodipodi:docname="2.svg"
   inkscape:version="1.4 (86a8ad7, 2024-10-11)"
   xmlns:inkscape="http://www.inkscape.org/namespaces/inkscape"
   xmlns:sodipodi="http://sodipodi.sourceforge.net/DTD/sodipodi-0.dtd"
   xmlns="http://www.w3.org/2000/svg"
   xmlns:svg="http://www.w3.org/2000/svg">
  <defs
     id="defs1" />
  <sodipodi:namedview
     id="namedview1"
     pagecolor="#ffffff"
     bordercolor="#000000"
     borderopacity="0.25"
     inkscape:showpageshadow="2"
     inkscape:pageopacity="0.0"
     inkscape:pagecheckerboard="0"
     inkscape:deskcolor="#d1d1d1"
     inkscape:zoom="1.5805169"
     inkscape:cx="362.53962"
     inkscape:cy="254.03082"
     inkscape:window-width="1920"
     inkscape:window-height="1013"
     inkscape:window-x="2391"
     inkscape:window-y="605"
     inkscape:window-maximized="1"
     inkscape:current-layer="g1" />
  <g
     inkscape:groupmode="layer"
     inkscape:label="Image"
     id="g1">
    <path
       style="fill:#000000"
       d="m 421.90388,502.60396 c -1.48653,-1.36353 -32.79379,-2.40806 -34.81089,-1.16143 -0.60015,0.37091 -21.00408,0.43228 -45.34208,0.13639 -24.338,-0.2959 -57.88822,-0.55889 -74.55604,-0.58442 -21.96804,-0.0336 -30.84017,-0.38055 -32.25,-1.261 -1.52844,-0.95453 -2.36717,-0.95086 -3.91718,0.0171 -1.47019,0.91815 -2.58361,0.9532 -4.3735,0.13767 -1.69344,-0.77158 -2.98108,-0.78372 -4.36853,-0.0412 -1.59353,0.85283 -15.30167,1.6257 -20.53566,1.1578 -0.6875,-0.0615 -10.7138,-0.22515 -22.28068,-0.36376 -11.56687,-0.13862 -21.59132,-0.59852 -22.27655,-1.02202 -0.68524,-0.4235 -35.09643,-0.54295 -76.469328,-0.26543 C 23.345146,499.73858 5.1159807,499.57516 3.8812264,498.66485 1.2399436,496.71759 0.82714214,492.01786 1.9656439,476.856 2.5585386,468.9602 3.2372475,450.125 3.4738859,435 3.7105244,419.875 4.1772253,399.85 4.510999,390.5 c 0.3337738,-9.35 0.5883786,-18.0125 0.5657884,-19.25 -0.070614,-3.86829 -0.065687,-4.57727 0.3943858,-56.75 0.2473525,-28.05 0.6330713,-87.50927 0.857153,-132.13171 0.2240817,-44.62244 0.6386284,-81.52244 0.9212149,-82 C 7.5321276,99.890732 8.0642038,77.9 8.4319326,51.5 8.9893941,11.478702 9.3423643,3.2557474 10.555407,2.0305721 11.814906,0.75847684 24.196605,0.57026783 102.75514,0.62908269 152.66481,0.66644885 198.45,0.78203164 204.5,0.88593333 223.19021,1.2069159 293.35384,1.1829005 316,0.84776943 c 11.825,-0.17499327 27.125,-0.13566079 34,0.0874055 6.875,0.22306628 25.55,0.44140628 41.5,0.48520008 15.95,0.043794 29.5625,0.4436826 30.25,0.888642 0.6875,0.4449593 1.74125,0.5054093 2.34166,0.1343333 0.60041,-0.3710761 5.88791,-0.6229417 11.75,-0.5597014 62.93555,0.6789499 94.0206,0.5928879 96.3277,-0.2666927 1.68628,-0.62827795 3.36158,-0.64881127 4.54896,-0.055754 1.56101,0.7796684 22.74474,22.7347023 41.29171,42.7951563 2.46949,2.670997 7.18997,7.668301 10.48997,11.10512 3.3,3.436819 10.95,11.584818 17,18.106664 16.48833,17.774274 23.61415,25.353513 27.58136,29.336368 11.01755,11.06102 27.85518,31.04309 30.41538,36.09549 1.47091,2.90276 17.06826,21.08232 19.81961,23.10083 3.4256,2.51318 21.77096,30.98258 23.8996,37.0888 0.62164,1.78325 2.786,6.18259 4.80968,9.77632 2.02368,3.59373 4.89985,10.58405 6.39149,15.53405 1.49163,4.95 3.18471,10.35 3.7624,12 1.39294,3.97858 1.86682,35.39131 0.64868,43 -3.64339,22.75715 -3.67238,22.86343 -9.24136,33.87341 -3.02469,5.97989 -6.1941,11.64013 -7.04314,12.5783 -0.84903,0.93817 -1.5437,2.07786 -1.5437,2.53264 0,0.45478 -1.06322,2.22082 -2.3627,3.92453 -1.29949,1.70372 -3.55702,4.85759 -5.01674,7.00861 -2.79276,4.11536 -10.50117,13.00138 -19.47255,22.44738 -2.9436,3.09932 -5.74803,6.6557 -6.23207,7.90306 -0.48404,1.24737 -1.90064,2.67886 -3.14801,3.18111 -1.24736,0.50224 -14.86793,13.33914 -30.26793,28.52645 -15.4,15.1873 -36.04822,35.35581 -45.88494,44.81889 -9.83671,9.46309 -22.21171,21.48342 -27.5,26.71184 -5.28828,5.22842 -14.27345,13.77054 -19.96703,18.98248 l -10.35196,9.47626 -14.14804,0.65104 c -7.78142,0.35808 -14.46296,0.36596 -14.84788,0.0175 -0.79727,-0.7217 -40.39092,-0.53284 -58.00714,0.2767 -7.15545,0.32882 -11.94193,0.15784 -12.31128,-0.43979 -0.33237,-0.53777 -1.58922,-0.77946 -2.79302,-0.53707 -4.36233,0.87835 -10.39016,1.53262 -10.78483,1.1706 z M 93.305174,491.36897 c 1.693678,-0.94783 1.823734,-4.55253 2.222007,-61.58608 0.366815,-52.52885 0.227004,-60.74201 -1.052074,-61.80355 C 92.556903,366.38737 92.592951,365 94.552519,365 c 1.258804,0 1.515187,-1.18241 1.355194,-6.25 -0.20203,-6.39904 0.494054,-66.90454 1.538724,-133.75 0.32233,-20.625 0.784599,-59.775 1.027263,-87 0.242665,-27.225 0.675101,-67.3875 0.960968,-89.25 C 99.940683,10.051085 99.903705,9 98.03623,9 96.981222,9 95.872732,8.6030936 95.572919,8.1179858 94.638693,6.6063766 83.481511,5.9665291 55.741402,5.8337085 32.911183,5.7243966 28.727152,5.9322546 27.241402,7.2495561 26.283631,8.0987389 24.604811,8.9577179 23.510691,9.1583985 19.860959,9.8278227 19.825736,10.414636 18.598227,91 c -0.314168,20.625 -0.877117,47.625 -1.250997,60 -0.37388,12.375 -0.590015,25.36089 -0.480301,28.85753 0.110873,3.53355 -0.298752,6.95786 -0.922175,7.70904 -0.703811,0.84804 -0.837272,2.57748 -0.358259,4.64247 0.828171,3.5702 0.780468,32.59897 -0.08264,50.29096 -0.295152,6.05 -0.738258,30.575 -0.98468,54.5 -0.730719,70.94535 -1.648919,112.2787 -2.574797,115.90615 -0.478166,1.87339 -0.581228,3.87242 -0.229026,4.44229 0.352202,0.56988 0.711857,17.0737 0.799235,36.67516 0.08738,19.60146 0.461552,36.12877 0.831499,36.72736 0.445123,0.72022 6.962166,1.09449 19.26778,1.10653 10.227331,0.01 18.810291,0.23333 19.073242,0.49628 0.929573,0.92957 39.842638,0.009 41.618069,-0.9848 z m 180.977606,-0.12894 c 1.36195,-1.50494 1.61077,-5.45358 1.71712,-27.25 0.27457,-56.2716 1.84379,-197.84313 2.49385,-224.99003 0.26999,-11.275 0.7257,-41.875 1.01268,-68 0.45646,-41.55296 2.10941,-131.915616 2.79416,-152.75 L 282.53887,11 278.01943,10.853219 C 275.53374,10.772489 272.2625,10.664564 270.75,10.613384 269.2375,10.562205 268,10.205425 268,9.8205407 c 0,-0.8828076 -23.23516,0.161264 -24.24783,1.0895753 -0.4113,0.377044 -0.77034,5.839014 -0.79786,12.13771 -0.0533,12.197679 -1.5984,123.125424 -2.42297,173.952174 -0.46417,28.61206 -0.82495,57.70498 -2.03372,164 -0.27207,23.925 -0.7758,62.20832 -1.11938,85.07404 -0.34359,22.86573 -0.31751,42.54194 0.058,43.72491 0.65477,2.06299 1.3237,2.16322 16.37323,2.45325 8.62982,0.16631 16.40834,0.4026 17.28559,0.52509 0.87726,0.12249 2.31175,-0.56928 3.18777,-1.53726 z m 187.7957,-2.11105 c 0.0432,-1.99594 0.23084,-9.92898 0.41706,-17.62898 0.18623,-7.7 0.60618,-27.95 0.93324,-45 0.32705,-17.05 0.85979,-42.025 1.18386,-55.5 0.72407,-30.10736 0.95102,-45.25841 1.7526,-117 0.34721,-31.075 0.8476,-65.725 1.11199,-77 0.6171,-26.31621 1.87039,-104.804202 1.72055,-107.75 -0.0629,-1.2375 -0.087,-2.8125 -0.0534,-3.5 0.0336,-0.6875 0.24765,-12.596897 0.47572,-26.465327 l 0.41468,-25.215326 -2.95095,-1.525998 c -3.46432,-1.791469 -12.13673,-1.574262 -14.47029,0.362418 -0.85834,0.712359 -1.80833,2.712482 -2.11109,4.444716 -0.62968,3.602674 -1.35044,31.828353 -1.99559,78.149517 -0.24513,17.6 -0.679,43.025 -0.96414,56.5 -0.28515,13.475 -0.73442,39.125 -0.99839,57 -0.26396,17.875 -0.7151,44.2 -1.00253,58.5 -0.51391,25.56799 -0.88234,52.2058 -2.05393,148.5 -0.32455,26.675 -1.01709,51.79506 -1.53898,55.82236 -1.52807,11.79176 -1.26678,14.6464 1.65886,18.12332 2.535,3.01269 2.82791,3.09514 10.5,2.95571 L 462,492.75796 Z m 194.43003,-124.8036 c 0.81302,-1.94581 1.23606,-3.92966 0.94009,-4.40854 -0.29596,-0.47888 -0.0923,-2.56858 0.45258,-4.64377 0.58831,-2.24061 1.22484,-35.60843 1.56718,-82.15484 0.31706,-43.10997 0.84447,-78.81538 1.17201,-79.34535 0.32754,-0.52997 0.008,-2.06169 -0.71044,-3.40381 -1.01896,-1.90395 -1.05327,-3.14666 -0.15611,-5.65465 0.65358,-1.8271 0.98326,-6.66715 0.76386,-11.21442 -0.21229,-4.4 -0.42012,-11.90297 -0.46183,-16.67327 -0.0686,-7.84868 -0.32585,-8.97039 -2.70544,-11.79837 -3.97164,-4.72002 -5.51304,-3.70282 -6.01838,3.97164 -0.69623,10.57324 -1.91792,147.7466 -1.38046,155 0.0611,0.825 -0.13515,15.0851 -0.43619,31.68911 -0.54637,30.13602 -0.54352,30.19178 1.62161,31.7083 2.67751,1.87539 3.47584,1.41711 5.35152,-3.07203 z M 103.75621,366.25 c 0.2676,-0.81493 -0.64217,-1.25 -2.61386,-1.25 -3.051353,0 -4.666633,1.14238 -3.402587,2.40643 1.084445,1.08445 5.563317,0.22356 6.016447,-1.15643 z m 20.97296,-162.85417 c -0.3323,-0.33229 -1.1948,-0.36781 -1.91667,-0.0789 -0.79773,0.31922 -0.56078,0.55618 0.60417,0.60416 1.05416,0.0434 1.64479,-0.19293 1.3125,-0.52522 z M 363.5,185 c 0.33992,-0.55 0.14148,-1 -0.44098,-1 -0.58246,0 -1.05902,0.45 -1.05902,1 0,0.55 0.19844,1 0.44098,1 0.24254,0 0.7191,-0.45 1.05902,-1 z M 103,147 c 0,-0.55 -0.45,-1 -1,-1 -0.55,0 -1,0.45 -1,1 0,0.55 0.45,1 1,1 0.55,0 1,-0.45 1,-1 z m 535,-34 c 0,-0.55 -0.19844,-1 -0.44098,-1 -0.24254,0 -0.7191,0.45 -1.05902,1 -0.33992,0.55 -0.14148,1 0.44098,1 C 637.52344,114 638,113.55 638,113 Z M 267.72917,5.3958333 c -0.33229,-0.3322916 -1.1948,-0.3678179 -1.91667,-0.078947 -0.79773,0.3192263 -0.56078,0.5561827 0.60417,0.6041666 1.05416,0.043421 1.64479,-0.1929276 1.3125,-0.5252193 z M 535,3 c 0,-0.55 -0.45,-1 -1,-1 -0.55,0 -1,0.45 -1,1 0,0.55 0.45,1 1,1 0.55,0 1,-0.45 1,-1 z"
       id="path1" />
    <rect
       style="fill:#000000"
       id="rect1"
       width="122.74465"
       height="460.6088"
       x="102.49812"
       y="11.38868" />
    <rect
       style="fill:#000000"
       id="rect2"
       width="146.78741"
       height="461.24152"
       x="287.88049"
       y="15.81761" />
    <rect
       style="fill:#000000"
       id="rect3"
       width="91.109436"
       height="385.31699"
       x="486.54968"
       y="42.391193" />
    <rect
       style="fill:#000000"
       id="rect4"
       width="44.922012"
       height="137.92957"
       x="97.436478"
       y="348.62012" />
  </g>
</svg>
