<?xml version="1.0" encoding="UTF-8" standalone="no"?>
<!-- Created with Inkscape (http://www.inkscape.org/) -->

<svg
   version="1.1"
   id="svg1"
   width="735"
   height="517"
   viewBox="0 0 735 517"
   sodipodi:docname="3.svg"
   inkscape:version="1.4 (86a8ad7, 2024-10-11)"
   xmlns:inkscape="http://www.inkscape.org/namespaces/inkscape"
   xmlns:sodipodi="http://sodipodi.sourceforge.net/DTD/sodipodi-0.dtd"
   xmlns="http://www.w3.org/2000/svg"
   xmlns:svg="http://www.w3.org/2000/svg">
  <defs
     id="defs1" />
  <sodipodi:namedview
     id="namedview1"
     pagecolor="#ffffff"
     bordercolor="#000000"
     borderopacity="0.25"
     inkscape:showpageshadow="2"
     inkscape:pageopacity="0.0"
     inkscape:pagecheckerboard="0"
     inkscape:deskcolor="#d1d1d1"
     inkscape:zoom="1.5377176"
     inkscape:cx="367.42767"
     inkscape:cy="258.5"
     inkscape:window-width="1920"
     inkscape:window-height="1013"
     inkscape:window-x="2391"
     inkscape:window-y="605"
     inkscape:window-maximized="1"
     inkscape:current-layer="g1" />
  <g
     inkscape:groupmode="layer"
     inkscape:label="Image"
     id="g1">
    <path
       style="fill:#000000"
       d="m 476.6887,516.95662 c -0.22368,-0.22367 -44.90763,-0.65573 -99.29769,-0.96012 C 323.00095,515.6921 259.15,515.23693 235.5,514.98501 211.85,514.73308 163.475,514.33795 128,514.10694 52.099138,513.61266 5.7815464,512.73347 4.7874806,511.76814 4.3955949,511.38758 3.9991783,505.00685 3.9065547,497.58874 3.7218245,482.79392 3.5066059,481.46962 1.4172412,482.27139 0.53396749,482.61033 0,482.16947 0,481.10126 c 0,-1.1127 0.52621862,-1.51205 1.5,-1.13838 0.9690134,0.37185 1.5128799,-0.0328 1.5363848,-1.14301 0.020012,-0.94524 0.2656936,-86.54361 0.54596,-190.21861 0.2802664,-103.675 0.6595257,-190.300002 0.8427983,-192.500002 0.1832727,-2.2 0.6478539,-20.65 1.0324027,-41 0.3845489,-20.35 1.1540754,-38.478439 1.7100589,-40.285421 C 9.2549302,8.0318986 1.2630794,8.4984112 124.25802,7.9808548 199.91663,7.6624872 236.5111,7.845079 238.36573,8.5502069 c 1.93455,0.7355161 4.1005,0.6976774 7.43224,-0.1298398 C 248.90731,7.6480877 260.15364,7.3006963 279,7.3947792 c 17.20647,0.085896 30.39067,-0.2828098 33.27122,-0.9304551 3.39373,-0.7630233 5.14404,-0.7633203 6.06255,-0.00103 0.84766,0.7035004 11.75973,1.1197091 31.76115,1.2114352 16.7584,0.076854 33.51958,0.4553947 37.24706,0.8412022 3.72747,0.3858074 6.98744,0.3613333 7.24437,-0.054387 0.25693,-0.4157203 3.04261,-0.7171649 6.1904,-0.6698768 3.14779,0.047288 10.89825,-0.017046 17.22325,-0.1429644 6.325,-0.1259185 12.25234,0.071546 13.17186,0.4388088 0.91952,0.3672633 2.49452,0.2358486 3.5,-0.2920326 1.10123,-0.5781501 23.49279,-0.9682521 56.31329,-0.9810806 43.04455,-0.016825 55.01322,0.2541427 57,1.2904657 2.87584,1.5000593 12.86011,11.8567913 24.51485,25.4293813 4.4,5.124043 11.72739,13.64782 16.28309,18.941726 4.55569,5.293907 11.69993,13.675285 15.87608,18.625285 8.12718,9.63316 22.82918,25.863742 30.59083,33.771392 2.6125,2.66164 4.76241,5.37693 4.77758,6.03398 0.0152,0.65704 2.76967,4.11963 6.12111,7.69463 6.07068,6.47561 16.35726,18.10506 24.21677,27.37817 3.97365,4.68834 12.02389,13.54676 21.92113,24.12183 2.57374,2.75 4.68715,5.5625 4.69647,6.25 0.009,0.6875 0.70606,1.25 1.54832,1.25 0.84227,0 1.82826,0.7875 2.19111,1.75 0.58673,1.55641 5.9992,9.13874 9.48532,13.288 0.7107,0.84589 3.91598,5.50851 7.12284,10.36138 6.22953,9.42698 11.27895,21.64784 12.64359,30.60062 0.46109,3.025 1.52436,8.20136 2.36283,11.50303 1.39606,5.49731 2.31413,25.33849 1.4574,31.49697 -1.21146,8.70843 -7.67173,29.54782 -10.57222,34.10361 -1.26185,1.98198 -3.39488,6.63799 -4.74008,10.34668 -1.3452,3.70869 -4.19645,9.36468 -6.33613,12.56886 -2.13967,3.20419 -4.20939,7.09713 -4.59939,8.65099 -0.38999,1.55385 -2.42605,5.34055 -4.52457,8.41489 -2.09852,3.07433 -4.72709,7.35038 -5.84128,9.50233 -1.11418,2.15195 -5.99816,8.00593 -10.85329,13.00884 -13.73397,14.15202 -23.2887,24.47228 -29.82751,32.21732 -3.3,3.90876 -10.34871,11.73726 -15.66381,17.39666 -5.31509,5.6594 -11.77128,12.53982 -14.34708,15.28982 -2.5758,2.75 -8.51853,9.05 -13.20607,14 -4.68753,4.95 -9.70634,10.58114 -11.15291,12.51365 -2.71354,3.62507 -7.97404,9.34185 -23.82254,25.88881 -5.05583,5.27865 -10.73532,11.62254 -12.62111,14.09754 -1.88578,2.475 -5.35353,6.03741 -7.70611,7.91648 l -4.27742,3.41648 -32.10147,0.33891 c -17.65582,0.1864 -34.89252,0.50795 -38.30379,0.71454 -3.41128,0.2066 -6.38532,0.19262 -6.60899,-0.031 z M 526.5,506.3963 c 4.95,0.11375 11.26929,-0.0393 14.04287,-0.34019 l 5.04286,-0.54701 0.31012,-110.20392 c 0.83317,-296.076027 0.66646,-373.73757 -0.80424,-374.646915 -3.9161,-2.421362 -22.38272,-3.257406 -63.49939,-2.874825 -23.37677,0.217515 -42.71796,0.610221 -42.98042,0.87268 -0.45586,0.455865 -1.64484,138.03643 -1.48164,171.44514 0.043,8.8 0.0353,39.85 -0.0171,69 -0.0524,29.15 -0.0993,58.75795 -0.10416,65.79545 -0.008,12.24621 -0.11424,12.90082 -2.46343,15.25 -1.80819,1.80819 -3.53467,2.45455 -6.55638,2.45455 -3.6329,0 -4.66701,-0.58946 -9.04545,-5.1561 C 416.22463,334.60931 414,331.92198 414,331.47331 c 0,-0.44867 -2.83603,-4.54092 -6.3023,-9.0939 -3.46626,-4.55299 -8.52876,-11.6193 -11.25,-15.70292 -5.54783,-8.32535 -6.44217,-9.56036 -15.08486,-20.83085 -3.37545,-4.40174 -7.36173,-10.09271 -8.85841,-12.6466 -1.49668,-2.5539 -3.57245,-5.099 -4.61283,-5.6558 C 366.85122,266.98645 366,266.0138 366,265.3818 c 0,-0.632 -0.83204,-2.97867 -1.84898,-5.21482 -1.01694,-2.23615 -2.36164,-6.76716 -2.98823,-10.06893 -1.33386,-7.02872 -1.63069,-104.2458 -0.55468,-181.673483 l 0.69035,-49.676692 -3.39923,-0.624243 c -3.96597,-0.72832 -99.7701,0.01517 -100.53514,0.780201 -0.28361,0.283609 -0.46283,9.444051 -0.39828,20.356539 0.0646,10.912487 -0.41178,25.7502 -1.05854,32.972696 -1.14389,12.774268 -1.26616,13.230322 -4.49061,16.75 -3.54553,3.870157 -5.47694,4.455411 -7.33098,2.221424 -0.63757,-0.768221 -1.9534,-1.189082 -2.92406,-0.935248 -1.24506,0.32559 -3.14862,-1.299815 -6.46323,-5.51878 C 232.11427,81.4613 230,78.374753 230,77.891471 c 0,-0.483282 -1.8,-2.809021 -4,-5.168307 -2.2,-2.359287 -4,-4.661469 -4,-5.115961 0,-0.454493 -1.714,-3.004259 -3.8089,-5.666148 -2.09489,-2.661888 -4.12018,-5.514797 -4.50063,-6.339797 -0.38045,-0.825 -2.71498,-4.2 -5.18783,-7.5 -4.23956,-5.657657 -10.0684,-13.941277 -17.41556,-24.75 l -3.22877,-4.75 -44.17916,-0.204713 C 119.38062,18.283952 95.5625,18.131302 90.75,18.057322 L 82,17.922812 81.960409,30.012035 c -0.02178,6.649073 -0.227848,41.564223 -0.457938,77.589225 -0.230091,36.025 -0.659819,128.5 -0.954951,205.5 -0.295132,77 -0.5808,151.17076 -0.634816,164.82391 -0.05402,13.65315 0.174496,25.09662 0.507806,25.42993 0.33331,0.33331 21.00104,0.67775 45.92829,0.76543 24.92726,0.0877 45.866,0.49545 46.53054,0.90616 0.66455,0.41071 1.83017,0.23061 2.59028,-0.40022 0.7601,-0.63083 2.20289,-1.00707 3.20619,-0.83609 1.74326,0.29709 1.83104,-1.86287 1.97871,-48.68912 0.085,-26.95 0.18122,-53.5 0.21386,-59 0.0326,-5.5 0.10621,-54.03046 0.1635,-107.84547 0.0573,-53.815 0.2948,-98.365 0.5278,-99 0.23301,-0.63499 0.82986,-6.70949 1.32633,-13.49887 0.49647,-6.78939 1.35492,-12.79659 1.90767,-13.34934 1.74365,-1.74365 5.33357,0.25398 6.81103,3.79004 0.78217,1.872 1.79386,3.40364 2.2482,3.40364 0.45433,0 1.36611,1.0125 2.02617,2.25 2.2277,4.17656 3.61317,6.27864 5.44973,8.26852 C 204.2773,183.31442 212,193.776 212,194.57555 c 0,0.40352 1.0125,1.85843 2.25,3.23314 2.32855,2.58674 20.05721,25.55788 27.46488,35.58644 5.14058,6.95936 10.28512,15.70821 10.28512,17.49098 0,0.72333 0.45193,1.76708 1.00429,2.31944 0.95811,0.95811 1.57339,144.61021 0.62626,146.21521 -0.22086,0.37427 -0.56559,24.30012 -0.76606,53.16855 l -0.36449,52.48805 3,0.56115 c 1.65,0.30863 3.77793,0.0992 4.72873,-0.46532 1.19969,-0.71233 2.65202,-0.67796 4.74568,0.11231 1.65932,0.62632 3.23215,0.79055 3.49518,0.36496 0.26303,-0.42559 20.45131,-0.71562 44.86285,-0.64451 l 44.3846,0.12929 0.50312,-46.23136 c 0.56418,-51.84132 0.48836,-51.30262 7.22111,-51.30262 5.28272,0 6.33831,0.76787 11.51806,8.37859 2.6657,3.91677 10.24288,14.32141 16.83816,23.12141 11.69297,15.60176 14.50887,19.27154 21.83811,28.46027 1.95671,2.45315 4.94857,6.50315 6.64856,9 1.7,2.49685 5.16903,7.01473 7.70896,10.03973 4.92285,5.86301 10.00688,13.39417 10.00688,14.82357 0,0.47655 0.80176,1.59203 1.78169,2.47886 1.55451,1.40681 6.07574,1.63897 35.45917,1.82073 18.52261,0.11459 34.25835,0.57348 34.96831,1.01976 0.70996,0.44628 2.19083,0.50404 3.29083,0.12836 1.1,-0.37568 6.05,-0.58999 11,-0.47624 z M 643.57967,405.66024 c 1.47735,-2.23244 3.05158,-4.05898 3.49827,-4.05898 0.4467,0 2.90449,-2.5875 5.46176,-5.75 4.66225,-5.76567 9.34363,-11.01502 28.60366,-32.07398 5.69615,-6.22818 10.53517,-11.85318 10.75336,-12.5 0.2182,-0.64681 2.0182,-3.20102 4,-5.67602 1.98181,-2.475 4.72828,-6.075 6.10328,-8 l 2.5,-3.5 v -66 -66 l -2.29014,-4 c -3.00776,-5.2534 -5.92844,-9.17288 -10.21014,-13.70175 -1.92485,-2.03596 -5.52472,-6.20923 -7.99972,-9.27394 -4.03623,-4.99793 -8.97826,-10.27035 -30.48618,-32.52431 -3.45515,-3.575 -6.82658,-7.56204 -7.49206,-8.86009 -1.65219,-3.22267 -9.20358,-11.13991 -10.62515,-11.13991 -0.63418,0 -2.85765,-2.475 -4.94105,-5.5 -2.0834,-3.025 -4.1632,-5.5 -4.62178,-5.5 -0.45858,0 -1.15299,-0.1125 -1.54314,-0.25 -0.39015,-0.1375 -0.78779,71.05509 -0.88365,158.20576 l -0.1743,158.45577 8.83044,-9.14678 c 4.85673,-5.03074 10.03918,-10.97333 11.51654,-13.20577 z M 26.75,215.91193 c -0.9625,-0.25153 -2.5375,-0.25153 -3.5,0 -0.9625,0.25153 -0.175,0.45733 1.75,0.45733 1.925,0 2.7125,-0.2058 1.75,-0.45733 z m 8.519032,0.0334 c -0.677033,-0.27392 -2.027033,-0.2906 -3,-0.0371 -0.972968,0.25354 -0.419032,0.47766 1.230968,0.49804 1.65,0.0204 2.446064,-0.18707 1.769032,-0.46099 z m 334.999998,0 c -0.67703,-0.27392 -2.02703,-0.2906 -3,-0.0371 -0.97297,0.25354 -0.41903,0.47766 1.23097,0.49804 1.65,0.0204 2.44606,-0.18707 1.76903,-0.46099 z m 202.46014,0.0518 c -0.33229,-0.33229 -1.1948,-0.36782 -1.91667,-0.0789 -0.79773,0.31923 -0.56078,0.55619 0.60417,0.60417 1.05416,0.0434 1.64479,-0.19293 1.3125,-0.52522 z m 22,0 c -0.33229,-0.33229 -1.1948,-0.36782 -1.91667,-0.0789 -0.79773,0.31923 -0.56078,0.55619 0.60417,0.60417 1.05416,0.0434 1.64479,-0.19293 1.3125,-0.52522 z"
       id="path1" />
    <rect
       style="fill:#000000"
       id="rect1"
       width="48.773586"
       height="373.28052"
       x="12.355975"
       y="32.515724" />
    <rect
       style="fill:#000000"
       id="rect2"
       width="63.080502"
       height="299.14465"
       x="553.4176"
       y="96.896858" />
    <rect
       style="fill:#000000"
       id="rect3"
       width="46.822643"
       height="78.037735"
       x="366.12704"
       y="167.13081" />
    <rect
       style="fill:#000000"
       id="rect4"
       width="42.270439"
       height="183.38867"
       x="192.49309"
       y="246.46918" />
  </g>
</svg>
