<?xml version="1.0" encoding="UTF-8" standalone="no"?>
<!-- Created with Inkscape (http://www.inkscape.org/) -->

<svg
   version="1.1"
   id="svg1"
   width="721"
   height="514"
   viewBox="0 0 721 514"
   sodipodi:docname="4.svg"
   inkscape:version="1.4 (86a8ad7, 2024-10-11)"
   xmlns:inkscape="http://www.inkscape.org/namespaces/inkscape"
   xmlns:sodipodi="http://sodipodi.sourceforge.net/DTD/sodipodi-0.dtd"
   xmlns="http://www.w3.org/2000/svg"
   xmlns:svg="http://www.w3.org/2000/svg">
  <defs
     id="defs1" />
  <sodipodi:namedview
     id="namedview1"
     pagecolor="#ffffff"
     bordercolor="#000000"
     borderopacity="0.25"
     inkscape:showpageshadow="2"
     inkscape:pageopacity="0.0"
     inkscape:pagecheckerboard="0"
     inkscape:deskcolor="#d1d1d1"
     inkscape:zoom="1.5466926"
     inkscape:cx="360.76981"
     inkscape:cy="256.67673"
     inkscape:window-width="1920"
     inkscape:window-height="1013"
     inkscape:window-x="2391"
     inkscape:window-y="605"
     inkscape:window-maximized="1"
     inkscape:current-layer="g1" />
  <g
     inkscape:groupmode="layer"
     inkscape:label="Image"
     id="g1">
    <path
       id="path1"
       style="fill:#000000"
       d="M 229.10938,4.5136719 C 221.76875,4.5856169 215.975,4.7331948 213.5,4.9394531 c -4.95,0.4125165 -9.45,0.4165612 -10,0.00977 -0.75363,-0.5574066 -11,-0.5738289 -11,-0.017578 0,0.057742 -24.64151,0.1476406 -54.75977,0.1992188 C 106.30768,5.1846882 82.740572,5.6100831 82.419922,6.1289062 82.112679,6.6260359 81.331137,6.6870965 80.681641,6.265625 80.032145,5.8441535 68.026347,5.5 54.003906,5.5 42.01865,5.5 35.783919,5.4170752 32.335938,5.1503906 30.430821,5.1387132 28.525747,5.1229667 26.621094,5.0800781 24.090187,5.017977 21.559078,4.9389227 19.037109,4.7050781 18.65998,4.6661731 18.284128,4.621579 17.908203,4.5761719 17.689737,5.841357 16.959831,6 14.611328,6 12.747259,6 10.164392,6.854723 8.8730469,7.9003906 L 6.5253906,9.8027344 6.2578125,79.150391 C 6.1103527,117.29223 5.7577799,153.675 5.4746094,160 5.1914389,166.325 4.8194873,214.28258 4.6484375,266.57227 4.4773876,318.86197 4.0410071,362.1251 3.6777344,362.71289 3.3144617,363.30068 2.9634545,373.2806 2.8984375,384.89062 2.8015599,402.19004 2.5299357,406 1.390625,406 0.62600822,406 0,406.45 0,407 c 0,0.55 0.675,1 1.5,1 1.271066,0 1.5171285,2.63274 1.6113281,17.25 0.061141,9.4875 0.508901,27.375 0.9941407,39.75 0.4852397,12.375 1.0107462,27.45 1.1679687,33.5 0.1572224,6.05 0.6187375,11.53398 1.0253906,12.18555 0.8671037,1.38935 52.3072179,1.75973 53.1582029,0.38281 0.280209,-0.45339 15.253742,-0.71081 33.275391,-0.57227 19.448718,0.14951 33.249128,-0.13127 33.953128,-0.6914 0.75163,-0.59804 1.91926,-0.5527 3.18554,0.125 2.64352,1.41482 8.86276,1.3707 9.3418,-0.0664 0.2728,-0.81839 0.96392,-0.77108 2.4707,0.16992 1.62905,1.01736 4.22673,1.10052 11.74024,0.37305 5.63151,-0.54523 10.01808,-0.56395 10.53711,-0.0449 0.4891,0.4891 2.61126,0.55403 4.71484,0.14453 3.89784,-0.75878 21.20152,-0.96254 21.90625,-0.25781 0.21323,0.21322 3.20389,0.0563 6.64649,-0.34961 3.8545,-0.45448 6.72629,-0.35185 7.47265,0.26758 0.6666,0.55323 1.71583,0.69529 2.33203,0.31445 0.6162,-0.38083 8.07113,-0.63565 16.56641,-0.56445 9.57322,0.0802 16.22791,-0.28887 17.50195,-0.97071 1.13058,-0.60507 2.80704,-0.7668 3.72656,-0.36133 2.69138,1.18675 43.01108,1.54642 49.00977,0.4375 3.3371,-0.61689 5.90251,-0.6525 6.57813,-0.0918 1.6175,1.34241 46.4619,2.2559 107.58398,2.1914 29.425,-0.0311 53.95,-0.12032 54.5,-0.19921 0.55,-0.079 2.8,-0.0721 5,0.0156 2.2,0.0877 19.67962,0.0534 38.84375,-0.0762 l 34.84375,-0.23633 5.90625,-5.96094 C 550.34212,501.38532 553,498.3083 553,497.82617 c 0,-0.48214 2.72333,-3.90294 6.05078,-7.60156 16.22812,-18.03836 20.85306,-23.05127 25.69922,-27.85156 2.8875,-2.86016 5.25,-5.65121 5.25,-6.20117 0,-0.54998 4.0643,-5.2009 9.03125,-10.33594 4.96694,-5.13504 9.76679,-10.53841 10.66797,-12.00782 0.90117,-1.46939 2.57999,-3.17439 3.72851,-3.78906 1.14852,-0.61467 3.19543,-2.78719 4.54883,-4.82812 2.23527,-3.3708 10.50969,-12.63175 17.125,-19.16602 1.43082,-1.41329 3.35337,-4.02338 4.27149,-5.79883 0.91812,-1.77545 2.67238,-3.88924 3.89843,-4.69726 1.22605,-0.80801 4.02852,-3.83642 6.22852,-6.73047 2.2,-2.89405 6.61084,-7.97344 9.80273,-11.28906 9.55376,-9.92409 10.28261,-10.78164 14.58008,-17.16016 2.27168,-3.37174 5.95113,-8.09674 8.17774,-10.5 2.22662,-2.40326 5.81504,-8.03658 7.97461,-12.51953 2.15957,-4.48295 4.97539,-9.43295 6.25781,-11 1.28242,-1.56705 3.15623,-5.09961 4.16406,-7.84961 1.00783,-2.75 2.82278,-6.80214 4.03125,-9.00391 1.20847,-2.20177 2.52258,-5.7446 2.92188,-7.87304 0.3993,-2.12844 1.14205,-4.60131 1.65039,-5.4961 1.65081,-2.90584 4.08531,-10.50917 5,-15.61523 0.49148,-2.74362 1.34507,-6.11862 1.89648,-7.5 3.4677,-8.68737 4.74325,-30.80981 2.48047,-43.01172 -2.08638,-11.25066 -2.873,-13.90094 -6.23242,-21 -1.69177,-3.575 -3.39418,-7.85 -3.78516,-9.5 -0.39097,-1.65 -1.48491,-4.125 -2.42969,-5.5 -0.94479,-1.375 -2.63982,-4.60802 -3.76757,-7.18359 -1.12775,-2.57557 -4.67695,-7.58102 -7.88672,-11.12305 -3.20976,-3.54203 -8.31094,-9.50995 -11.33594,-13.26367 -3.025,-3.75371 -7.8625,-9.23004 -10.75,-12.16992 -2.8875,-2.93987 -5.25,-5.99067 -5.25,-6.7793 0,-0.78863 -1.14425,-2.18508 -2.54297,-3.10156 -1.39872,-0.91647 -3.08622,-2.66371 -3.75,-3.88282 -1.2212,-2.24288 -6.71577,-8.72698 -16.66015,-19.66211 -2.99941,-3.29824 -6.37442,-7.24148 -7.5,-8.76171 C 632.86346,103.09747 620.2142,90 619.09375,90 618.49171,90 618,89.567221 618,89.037109 618,88.506996 614.7375,84.749241 610.75,80.6875 606.7625,76.62576 602.6,72.104886 601.5,70.640625 600.4,69.176364 595.675,63.89911 591,58.914062 586.325,53.929015 579.8,46.71098 576.5,42.875 573.2,39.039021 567.2373,32.540119 563.25,28.431641 559.26269,24.323164 554.87038,19.169851 553.48828,16.980469 552.10619,14.791088 550.4687,13 549.84961,13 c -0.6191,0 -3.12536,-1.841867 -5.56836,-4.09375 -4.20844,-3.8792022 -4.68671,-4.0635885 -9.11133,-3.4960938 -3.77343,0.4839731 -17.78755,0.792991 -25.16992,0.5546876 -0.825,-0.026631 -9.375,0.2415264 -19,0.5957031 -22.89161,0.8423559 -25.23292,0.8485935 -28.29492,0.080078 -1.41995,-0.3563844 -2.82507,-0.2563337 -3.1211,0.2226562 -0.29867,0.4832661 -2.33675,0.3917448 -4.58007,-0.2070312 -2.98051,-0.795544 -4.86229,-0.7709079 -7.15821,0.095703 -2.13766,0.8068772 -3.70019,0.8611019 -4.98437,0.1738281 -2.05291,-1.0986819 -32.16504,-0.5895684 -35.125,0.59375 C 406.76682,7.9071141 405.36762,7.7198378 404.625,7.1035156 403.67861,6.318082 385.66143,5.8206148 344.38672,5.4394531 311.99885,5.1403591 271.325,4.7352162 254,4.5410156 c -8.6625,-0.0971 -17.55,-0.099289 -24.89062,-0.027344 z M 24.328125,13.845703 c 1.531481,-0.08716 3.122153,-0.03399 4.671875,0.1875 2.475,0.353731 35.325,0.548917 73,0.431641 41.80113,-0.13012 68.96176,0.154366 69.68555,0.730468 0.75233,0.598829 1.9231,0.550148 3.19922,-0.132812 1.74321,-0.932932 11.80867,-1.241035 31.61523,-0.96875 2.75,0.03781 14.675,0.09453 26.5,0.126953 11.825,0.03242 25.94581,0.252696 31.37891,0.490235 5.4331,0.237544 10.274,0.03654 10.75781,-0.447266 0.49215,-0.492148 4.06928,-0.528783 8.12109,-0.08398 3.98309,0.437255 7.86317,0.567426 8.62305,0.289062 1.75002,-0.641077 59.48725,-0.521408 84.61914,0.175781 28.72904,0.796978 107.35444,0.996036 112.73438,0.285157 2.60427,-0.344116 5.00064,-0.360677 5.32421,-0.03711 0.32357,0.323573 10.11847,0.443667 21.76563,0.267578 L 537.5,14.839844 l 7.75,8.505859 c 4.2625,4.678757 7.75,8.938922 7.75,9.466797 0,0.527875 -1.9125,1.229714 -4.25,1.558594 -3.34148,0.470138 -114.00136,1.012818 -122.25,0.599609 -1.1,-0.0551 -38.675,-0.05868 -83.5,-0.0098 -44.825,0.04891 -125.375,0.349189 -179,0.667968 -53.625,0.318778 -97.787556,0.282461 -98.138672,-0.08008 -0.351115,-0.362539 -12.276115,-0.746297 -26.5,-0.853516 L 13.5,34.5 13.800781,27.197266 c 0.165804,-4.0161 0.664679,-8.279715 1.107422,-9.476563 0.770165,-2.081956 4.825479,-3.613525 9.419922,-3.875 z M 12.496094,97.453125 c 0.542636,-0.289158 1.367504,-0.234354 2.783203,0 4.83311,0.800072 41.229697,1.5414 76.720703,1.5625 199.47209,0.118557 358.45581,0.103092 362.5,-0.03516 2.75,-0.09401 6.125,-0.165556 7.5,-0.160157 35.79336,0.141172 48.20774,0.03776 49.375,-0.410156 0.78297,-0.300452 1.71395,-0.07464 2.07031,0.501953 0.44552,0.720868 16.28529,0.871084 50.70508,0.480469 l 50.05664,-0.568359 2.89649,2.775391 c 1.59305,1.52624 2.89648,3.30443 2.89648,3.95117 0,0.64674 3.2625,4.28933 7.25,8.0957 7.02205,6.70307 21.56689,22.25649 25.58008,27.35352 1.08262,1.375 4.24115,4.9587 7.01953,7.96484 2.77838,3.00613 4.9139,5.60563 4.74414,5.77539 -0.38298,0.38298 -610.833564,0.86098 -633.59375,0.4961 -13.928037,-0.22329 -16.691561,-0.52122 -17.724609,-1.90625 -0.86469,-1.15932 -1.223963,-7.2403 -1.226563,-20.72461 -0.002,-10.49654 -0.293562,-21.65237 -0.648437,-24.78906 -0.35492,-3.13668 -0.352616,-6.87055 0.0059,-8.298832 0.286473,-1.1414 0.547208,-1.775295 1.089844,-2.064453 z M 680.72461,230.24609 c 21.96683,0.11104 28.58268,0.42 29.04297,0.97461 0.61095,0.73615 1.3941,7.38884 1.74219,14.8086 0.49834,10.62239 0.29902,14.73203 -0.93946,19.43164 -0.86386,3.27805 -1.57031,7.44055 -1.57031,9.25 0,1.95797 -0.50607,3.29473 -1.25,3.30273 -0.6875,0.008 -2.15,0.1551 -3.25,0.32813 -1.1,0.17302 -10.775,0.0424 -21.5,-0.29102 -10.725,-0.33339 -165.65589,-0.56979 -344.29102,-0.52539 -246.155134,0.0612 -325.024656,-0.20255 -325.757808,-1.08594 -0.53205,-0.64108 -1.018408,-6.28972 -1.080078,-12.55273 C 11.809425,257.62371 11.700056,247.55 11.628906,241.5 L 11.5,230.5 14,230.71094 c 1.375,0.11626 6.8875,0.19548 12.25,0.17578 5.3625,-0.0197 10.7625,-0.0148 12,0.01 7.200928,0.14341 13.900012,-0.0572 16.255859,-0.48437 1.483223,-0.26896 3.214161,-0.0661 3.845703,0.44922 0.692739,0.56518 23.56224,0.82795 57.648438,0.66211 60.59045,-0.29478 290.45214,-0.61973 291.73047,-0.41211 0.4234,0.0688 1.21953,0.0818 1.76953,0.0273 0.55,-0.0545 68.08641,-0.36016 150.08008,-0.67773 61.86105,-0.2396 99.1777,-0.32588 121.14453,-0.21485 z M 628.41797,353.9668 c 28.24569,-0.048 34.16008,0.18352 35.35937,1.38281 0.92412,0.92411 1.13307,1.97465 0.58204,2.93359 -0.86773,1.51002 -12.61886,14.47901 -24.10938,26.60938 -3.4375,3.62892 -6.25,7.15238 -6.25,7.82812 0,0.67574 -1.4625,2.01902 -3.25,2.98633 -3.00512,1.62623 -8.52436,1.77131 -73.25,1.91406 -38.5,0.0849 -141.1,0.47619 -228,0.8711 -189.9774,0.86334 -223.96882,0.95921 -263,0.74023 C 50,399.13986 30.5375,399.1977 23.25,399.35938 14.3415,399.55702 9.9511054,399.2998 9.8496094,398.57617 9.1767398,393.77893 8.9693166,389.76512 9.1738281,385.5 9.30569,382.75 9.4331033,375.1 9.4570312,368.5 9.4999279,356.66779 10.282831,353.82063 13.025391,355.51562 14.230739,356.26057 469.46809,355.8838 485,355.125 c 3.92835,-0.19192 118.29136,-1.1155 143.41797,-1.1582 z m -618.304689,111.94726 32.529297,0.27735 c 17.890925,0.15251 32.74575,0.62824 33.011719,1.05859 0.265969,0.43034 0.911276,0.51812 1.433594,0.19531 0.522317,-0.32281 7.579462,-0.54283 15.68164,-0.49023 8.102179,0.0526 117.564409,0.21882 243.249999,0.36914 125.68559,0.15032 229.07309,0.61485 229.75,1.0332 1.98938,1.22951 1.54263,2.08868 -4.83398,9.29102 -14.99961,16.94194 -22.58967,23.8203 -26.43555,23.95898 -1.65,0.0595 -7.05,0.38389 -12,0.7207 -7.99449,0.54396 -38.6366,0.958 -160.96875,2.17188 -20.42774,0.20271 -34.68169,-0.0452 -35.75781,-0.62109 -1.95854,-1.04818 -86.3567,-1.24877 -149.27344,-0.35547 -20.9,0.29674 -38.45,0.57895 -39,0.62695 -0.55,0.0479 -1.35326,0.0286 -1.78516,-0.043 -0.4319,-0.0715 -11.4569,-0.13949 -24.5,-0.15039 C 98.171741,503.94616 71.075,504.13928 51,504.38672 c -20.075,0.24746 -37.175,0.20939 -38,-0.084 -3.1871747,-1.13338 -3.6586829,-3.00554 -2.742188,-10.88085 0.492299,-4.23027 0.522742,-9.99335 0.06836,-12.80665 -0.4543823,-2.81331 -0.688142,-7.27181 -0.5195314,-9.9082 z" />
  </g>
</svg>
