<?xml version="1.0" encoding="UTF-8" standalone="no"?>
<!-- Created with Inkscape (http://www.inkscape.org/) -->

<svg
   version="1.1"
   id="svg1"
   width="734"
   height="528"
   viewBox="0 0 734 528"
   sodipodi:docname="2.svg"
   inkscape:version="1.4 (86a8ad7, 2024-10-11)"
   xmlns:inkscape="http://www.inkscape.org/namespaces/inkscape"
   xmlns:sodipodi="http://sodipodi.sourceforge.net/DTD/sodipodi-0.dtd"
   xmlns="http://www.w3.org/2000/svg"
   xmlns:svg="http://www.w3.org/2000/svg">
  <defs
     id="defs1" />
  <sodipodi:namedview
     id="namedview1"
     pagecolor="#ffffff"
     bordercolor="#000000"
     borderopacity="0.25"
     inkscape:showpageshadow="2"
     inkscape:pageopacity="0.0"
     inkscape:pagecheckerboard="0"
     inkscape:deskcolor="#d1d1d1"
     inkscape:zoom="1.5056818"
     inkscape:cx="367.27547"
     inkscape:cy="264.33208"
     inkscape:window-width="1920"
     inkscape:window-height="1013"
     inkscape:window-x="2391"
     inkscape:window-y="605"
     inkscape:window-maximized="1"
     inkscape:current-layer="g1" />
  <g
     inkscape:groupmode="layer"
     inkscape:label="Image"
     id="g1">
    <rect
       style="fill:#000000"
       id="rect1"
       width="397.82642"
       height="69.071701"
       x="21.916981"
       y="137.47925" />
    <path
       id="path1"
       style="fill:#000000"
       d="m 542,7.3476562 v 1.3847657 l -17.25,0.6992187 c -9.4875,0.3844272 -31.53141,0.5884654 -48.98633,0.453125 -17.45493,-0.1353407 -31.96389,-0.018533 -32.24219,0.2597654 -0.2783,0.2783 -3.54689,0.333027 -7.26367,0.121094 C 429.87165,9.9014829 374.24627,9.7729072 291.5,9.9316406 271.15,9.9706782 232.225,9.9887631 205,9.9707031 177.775,9.9526435 126.3217,9.9494825 90.660156,9.9648438 54.998612,9.9802046 24.709624,9.7143888 23.349609,9.3730469 20.240988,8.5928325 13.03715,11.716046 12.902344,13.902344 c -0.274417,4.450531 -0.334111,5.740511 -1.91211,6.109375 -0.07619,1.115694 -0.135898,2.232729 -0.189453,3.349609 0.09957,0.538473 0.18225,1.042188 0.261719,1.457031 0.105796,0.726111 0.189519,1.453627 0.265625,2.181641 h 0.808594 l -0.640625,23.25 c -0.598165,21.720646 -0.79362,32.29234 -0.75,40.75 0.0099,1.925 0.0011,8.9 -0.01953,15.5 -0.02067,6.6 0.106167,24.6 0.28125,40 0.229344,20.17277 -0.02392,29.03474 -0.90625,31.70117 -0.7980579,2.41177 -0.8981438,4.32771 -0.289062,5.5 0.862751,1.66053 0.876877,35.39251 0.033203,80.29883 -0.1808293,9.625 -0.1403551,24.925 0.091797,34 0.232152,9.075 0.126084,21.225 -0.2363281,27 C 8.4127907,345.53016 7.4850865,448.09961 8.5,457.80078 c 0.3050362,2.91572 0.2829969,5.74044 -0.048828,6.27734 -0.3318252,0.53691 -0.7382787,9.40185 -0.9042969,19.69922 -0.3058755,18.97209 0.1446837,22.07146 3.636719,24.95508 0.740848,0.61177 6.99765,1.24544 14.316406,1.45117 l 13,0.36719 v 0.74414 c 0.497427,0.0933 0.998702,0.16825 1.5,0.24414 v -0.65234 l 90.75,0.47461 c 71.39306,0.37395 259.71336,0.64446 292.75,0.41992 3.3,-0.0224 11.85,0.0318 19,0.12109 7.15,0.0893 27.175,0.1583 44.5,0.1543 17.325,-0.004 38.3214,0.25273 46.6582,0.57031 l 15.15821,0.57813 6.80468,-6.85352 c 3.74292,-3.76888 8.32693,-8.65156 10.1875,-10.85156 1.86057,-2.2 8.47556,-9.4 14.69922,-16 6.22366,-6.6 14.38813,-15.6 18.14453,-20 3.7564,-4.4 9.36151,-10.7 12.45508,-14 6.98614,-7.45231 22.88542,-25.34959 28.89258,-32.52344 2.475,-2.95568 6.32721,-7.19747 8.56055,-9.42578 2.23333,-2.22831 6.01419,-6.52578 8.40234,-9.55078 2.38815,-3.025 7.08594,-8.23129 10.43945,-11.57031 9.14897,-9.10941 25.85528,-27.26677 30.29883,-32.92969 3.22297,-4.1074 10.36215,-14.61492 17.03125,-25.06836 0.67779,-1.06239 2.16736,-3.95664 3.31055,-6.43164 1.1432,-2.475 3.17607,-6.58534 4.51758,-9.13477 1.34152,-2.54943 2.44136,-6.14943 2.44336,-8 0.002,-1.85057 1.62387,-8.09023 3.60351,-13.86523 3.10952,-9.07111 3.7078,-12.33714 4.38867,-24 1.22591,-20.99911 -0.72967,-38.56057 -5.4707,-49.125 -1.38865,-3.09432 -2.53914,-6.24377 -2.55664,-7 -0.0175,-0.75622 -0.6925,-2.24879 -1.5,-3.31641 C 722.66124,202.49097 722,200.94116 722,200.11328 c 0,-2.28875 -14.21388,-22.86187 -16.53711,-23.93555 -1.12033,-0.51776 -4.04533,-3.58091 -6.5,-6.80859 -2.45466,-3.22767 -7.73976,-9.28826 -11.74414,-13.4668 -4.00439,-4.17853 -8.27939,-8.90353 -9.5,-10.5 -1.22062,-1.59646 -5.96282,-6.72734 -10.53906,-11.40234 -4.57624,-4.675 -8.72705,-9.51275 -9.22461,-10.75 -0.49755,-1.23725 -2.1948,-3.03725 -3.77149,-4 -2.57418,-1.57183 -4.51764,-3.64454 -13.18359,-14.0625 -1.375,-1.65299 -5.29367,-5.950482 -8.70703,-9.550781 -3.41337,-3.600298 -9.23711,-10.054372 -12.94336,-14.341797 -8.27608,-9.573851 -25.1357,-27.956935 -35.82617,-39.064453 -4.38669,-4.557832 -8.40637,-9.060612 -8.9336,-10.007813 -0.52722,-0.947201 -3.91235,-4.736056 -7.52343,-8.417968 -3.61108,-3.681914 -7.63036,-8.08978 -8.93164,-9.796876 -1.30129,-1.707093 -3.66379,-3.364397 -5.25,-3.68164 C 550.90312,9.9298417 550.28902,9.6097477 550.0957,7.6875 548.60855,7.6221738 547.12384,7.5142366 545.63672,7.4453125 544.42531,7.391814 543.21263,7.3661086 542,7.3476562 Z m 11.98438,65.2070318 c 19.60559,0.05402 32.71493,0.176626 35.24218,0.378906 11.50225,0.920634 13.85994,1.897232 17.04297,7.066406 2.575,4.181764 7.70694,10.011947 17.20899,19.548828 3.86227,3.876442 8.72333,8.826442 10.80273,11.000002 2.07941,2.17357 5.10618,5.23302 6.72656,6.80078 1.62038,1.56775 3.54879,4.05908 4.28516,5.53516 l 1.33789,2.68359 -48.06445,-0.3418 C 548.08501,124.86794 476.90974,124.94753 242,125.625 c -78.375,0.22603 -147.9,0.37498 -154.5,0.33008 -6.6,-0.0449 -12.675,-0.0714 -13.5,-0.0586 -0.824999,0.0128 -11.625,0.22994 -24,0.48243 -21.083177,0.43017 -28.93216,0.0212 -31.625,-1.64649 -0.783889,-0.48546 -1.120109,-7.83642 -1.105469,-24.19531 l 0.02148,-23.498048 2.519531,-1.65039 c 2.09452,-1.372382 4.64304,-1.58634 15.103515,-1.269531 17.264944,0.52289 224.657508,0.168325 277.585938,-0.47461 65.39006,-0.794309 182.66757,-1.251898 241.48438,-1.089843 z M 23.25,145.31055 c 0.9625,-0.25152 2.5375,-0.25152 3.5,0 0.9625,0.25153 0.175,0.45703 -1.75,0.45703 -1.925,0 -2.7125,-0.2055 -1.75,-0.45703 z m 397.4043,88.10742 c 0.29988,0 0.5514,0.10567 0.68164,0.31641 0.44465,0.71944 265.00906,0.92447 267.16406,0.20703 2.12875,-0.7087 30.93361,1.29872 33.1543,2.31054 1.98138,0.90278 2.36766,1.86094 2.48828,6.15821 0.0786,2.79921 0.28226,9.58984 0.45312,15.08984 0.29174,9.39072 -0.0436,11.6971 -3.42578,23.5 -0.41528,1.44923 -2.17798,3.22714 -4.19336,4.23047 -3.14477,1.56558 -6.24475,1.67456 -32.47656,1.13672 -15.95,-0.32703 -30.83239,-0.9202 -33.07227,-1.31836 -2.23987,-0.39816 -5.16487,-0.31833 -6.5,0.17773 -1.33512,0.49607 -10.75273,0.85337 -20.92773,0.79297 -10.175,-0.0603 -25.475,-0.12367 -34,-0.13867 -8.525,-0.015 -21.35,-0.17573 -28.5,-0.35742 -14.61344,-0.37138 -17.35355,-0.41961 -19.5,-0.34961 -0.825,0.027 -39.075,0.0744 -85,0.10547 -45.925,0.0311 -93.85,0.0935 -106.5,0.13867 -12.65,0.0452 -23.69901,0.43367 -24.55273,0.86328 -0.85373,0.4296 -1.79504,0.53896 -2.0918,0.24219 -0.49027,-0.49027 -18.75402,-0.90657 -92.35547,-2.10156 -13.75,-0.22326 -25.45,-0.42342 -26,-0.44532 -0.55,-0.0219 -35.2,0.25968 -77,0.62696 C 34.165164,285.4324 24.621822,285.30215 20,283.125 l -3.5,-1.64844 0.400391,-15.98828 c 0.219834,-8.79374 0.44483,-19.36328 0.5,-23.48828 l 0.09961,-7.5 9.929688,-0.28906 c 5.46085,-0.1586 10.635851,0.0151 11.5,0.38476 3.029941,1.29605 8.286582,1.47002 9.671874,0.32032 1.064401,-0.88336 1.747349,-0.87285 2.855469,0.0469 0.800907,0.66469 1.958316,0.89897 2.572266,0.51953 0.61395,-0.37945 82.870333,-0.75554 182.792973,-0.83594 99.92264,-0.0804 182.20988,-0.49065 182.85937,-0.9121 0.32475,-0.21074 0.67278,-0.31641 0.97266,-0.31641 z M 30.441406,365 C 31.298865,365 32,365.45 32,366 c 0,0.55 -0.423865,1 -0.941406,1 -0.517541,0 -1.218675,-0.45 -1.558594,-1 -0.339919,-0.55 0.08395,-1 0.941406,-1 z M 576.5,391.57031 c 57.67728,0.0976 69.5,0.61119 69.5,3.01367 0,0.7426 -1.4625,2.8545 -3.25,4.69532 -1.7875,1.84082 -5.17426,5.53846 -7.52734,8.21679 -2.35307,2.67834 -6.40307,7.16736 -9,9.97461 -18.03391,19.49449 -24.38439,26.46563 -26.13672,28.69336 l -2.00196,2.54492 -21.29296,0.24414 c -30.51144,0.34995 -41.14053,0.35486 -89.29102,0.0391 -23.65,-0.1551 -65.39017,-0.1923 -92.75586,-0.082 -27.3657,0.11021 -50.2032,-0.0761 -50.75,-0.41407 -0.54681,-0.33794 -1.41644,-0.35367 -1.93164,-0.0351 -0.82986,0.51288 -46.1288,0.81229 -106.0625,0.70117 -30.25083,-0.0561 -35.45209,-0.16968 -47,-1.0332 -5.775,-0.4318 -11.44851,-0.44931 -12.60742,-0.0371 -3.36337,1.19623 -62.66321,0.92897 -64.13086,-0.28907 -0.87924,-0.72968 -1.64506,-0.72899 -2.52344,0 v -0.002 c -1.39633,1.15885 -84.628791,2.1653 -87.548827,1.0586 C 21.259779,448.50689 19.375,447.00802 18,445.5293 c -2.497374,-2.68576 -2.500448,-2.71128 -2.740234,-25.33985 l -0.240235,-22.65234 2.535157,-2.35156 c 2.514164,-2.33127 2.716333,-2.34833 24.240234,-2.15821 11.937611,0.10547 64.455078,0.17032 116.705078,0.14454 52.25,-0.0258 112.775,-0.005 134.5,0.0469 21.725,0.0517 41.975,0.0631 45,0.0254 3.025,-0.0377 15.85,-0.22045 28.5,-0.40625 12.65,-0.1858 43.7,-0.42356 69,-0.52734 54.15464,-0.22214 50.40324,-0.17913 58.13672,-0.66211 3.37519,-0.2108 9.36406,0.22679 13.30859,0.97265 5.79934,1.09658 7.78263,1.11712 10.36328,0.10547 2.43044,-0.95276 16.54432,-1.22845 59.19141,-1.15625 z m -243.27148,68.69922 c 0.64501,0.0951 1.35242,0.80812 1.5957,2.0625 C 335.0156,463.31879 334.50546,464 333.57422,464 332.64659,464 332,463.14435 332,461.91602 c 0,-1.21853 0.5835,-1.74157 1.22852,-1.64649 z" />
    <rect
       style="fill:#000000"
       id="rect2"
       width="497.44907"
       height="81.026413"
       x="19.924528"
       y="294.21887" />
    <rect
       style="fill:#000000"
       id="rect3"
       width="398.49057"
       height="33.207546"
       x="32.543396"
       y="461.5849" />
    <rect
       style="fill:#000000"
       id="rect4"
       width="298.20377"
       height="31.215094"
       x="146.1132"
       y="458.26416" />
  </g>
</svg>
