<?xml version="1.0" encoding="UTF-8" standalone="no"?>
<!-- Created with Inkscape (http://www.inkscape.org/) -->

<svg
   version="1.1"
   id="svg1"
   width="736"
   height="529"
   viewBox="0 0 736 529"
   sodipodi:docname="3.svg"
   inkscape:version="1.4 (86a8ad7, 2024-10-11)"
   xmlns:inkscape="http://www.inkscape.org/namespaces/inkscape"
   xmlns:sodipodi="http://sodipodi.sourceforge.net/DTD/sodipodi-0.dtd"
   xmlns="http://www.w3.org/2000/svg"
   xmlns:svg="http://www.w3.org/2000/svg">
  <defs
     id="defs1" />
  <sodipodi:namedview
     id="namedview1"
     pagecolor="#ffffff"
     bordercolor="#000000"
     borderopacity="0.25"
     inkscape:showpageshadow="2"
     inkscape:pageopacity="0.0"
     inkscape:pagecheckerboard="0"
     inkscape:deskcolor="#d1d1d1"
     inkscape:zoom="1.5028355"
     inkscape:cx="367.97107"
     inkscape:cy="264.8327"
     inkscape:window-width="1920"
     inkscape:window-height="1013"
     inkscape:window-x="2391"
     inkscape:window-y="605"
     inkscape:window-maximized="1"
     inkscape:current-layer="g1" />
  <g
     inkscape:groupmode="layer"
     inkscape:label="Image"
     id="g1">
    <path
       id="path1"
       style="fill:#000000"
       d="M 548.48633,8.6503906 548.51367,9 531.50781,9.1113281 C 522.15384,9.1730767 413.25,9.3683341 289.5,9.5449219 165.75,9.7215097 53.153305,9.8969302 39.285156,9.9335938 15.841812,9.9955715 14.001683,10.129014 13.083984,11.84375 c -1.29986,2.42881 -2.440621,90.59321 -2.18164,168.65625 0.11131,33.55 0.13922,61.45 0.0625,62 -0.07673,0.55 -0.145044,6.85 -0.152344,14 -0.0073,7.15 -0.07744,14.35 -0.15625,16 -0.242302,5.07317 -0.06432,32.23836 0.308594,47 0.194522,7.7 0.0036,40.1 -0.425782,72 -0.429344,31.9 -0.7606075,58.9 -0.7343745,60 0.026233,1.1 0.2627755,8.3 0.5253905,16 0.262614,7.7 0.521429,19.27148 0.574219,25.71484 0.09521,11.61988 0.12088,11.74397 3.199219,15.25 0.912163,1.0389 1.949045,1.92013 2.904296,2.56836 2.072916,-0.001 4.145839,-0.003 6.21875,-0.008 2.418121,-0.007 4.835896,-0.0156 7.253907,-0.041 2.412659,-0.0281 4.826257,-0.0723 7.238281,-0.13477 0.657926,-0.0136 1.316224,-0.0274 1.974609,-0.0312 1.975157,-0.0116 3.947433,0.0604 5.894532,0.45117 2.327249,0.4305 4.608049,1.05919 6.921875,1.55469 1.014304,0.28199 3.166083,0.91016 4.685546,1.85547 5.060429,-0.56924 88.369348,-1.78618 122.804688,-1.75977 0.825,6.3e-4 11.85,-0.0461 24.5,-0.10351 54.93715,-0.24937 69.44041,-0.25382 76.5,-0.0254 4.125,0.13349 24.15,0.0505 44.5,-0.1836 39.10166,-0.44987 62.68778,-0.60539 66,-0.43554 1.1,0.0564 5.15,-0.0138 9,-0.15626 3.85,-0.14242 9.10624,0.0663 11.67969,0.46485 2.57345,0.39856 5.26554,0.36301 5.98242,-0.0801 1.81298,-1.12048 4.81769,-1.24254 5.44922,-0.2207 0.28972,0.46877 1.04884,0.52948 1.6875,0.13476 0.63866,-0.39471 28.6208,-0.79392 62.18164,-0.88672 33.56083,-0.0928 62.37826,-0.22537 64.03906,-0.29687 4.3176,-0.18586 14.51527,-9.17233 24.98047,-22.01172 2.75,-3.37388 9.3296,-10.7435 14.62109,-16.37695 13.26886,-14.12636 17.01479,-18.37838 21.78125,-24.72852 4.03374,-5.37397 18.92975,-21.58718 34.34766,-37.38281 4.2625,-4.36693 7.75,-8.33874 7.75,-8.82617 0,-0.99771 15.69017,-19.91052 22.23242,-26.79883 2.34716,-2.47132 5.16758,-5.86924 6.26758,-7.55274 1.1,-1.68346 2.56959,-3.71261 3.26562,-4.50781 4.36159,-4.98294 6.13592,-7.23813 9.48633,-12.05273 6.12837,-8.8063 8.74805,-12.93183 8.74805,-13.78125 0,-0.44033 0.9,-1.61584 2,-2.61133 1.1,-0.99549 2,-2.62324 2,-3.61719 0,-1.82506 7.15114,-16.15761 12.66797,-25.38867 1.64564,-2.75357 3.3098,-6.35357 3.69726,-8 0.38746,-1.64643 2.22573,-6.59414 4.08594,-10.99414 4.95619,-11.723 6.71301,-23.08133 6.1875,-40.00586 -0.37475,-12.0694 -0.84033,-15.24965 -3.375,-23 -1.61776,-4.94669 -3.53068,-11.46914 -4.25,-14.49414 -0.71932,-3.025 -2.36596,-7.06725 -3.66015,-8.98242 C 723.05933,198.1024 722,196.00536 722,195.35742 c 0,-0.64793 -1.8,-3.45508 -4,-6.23828 -2.2,-2.78321 -4,-5.42722 -4,-5.875 0,-0.44777 -3.0375,-3.98428 -6.75,-7.85937 -3.7125,-3.87509 -8.325,-8.99611 -10.25,-11.38086 -1.925,-2.38474 -6.90991,-8.19886 -11.07812,-12.91993 C 681.75363,146.3629 677.4076,141.375 676.26367,140 c -1.14393,-1.375 -4.70344,-5.65 -7.9082,-9.5 -3.20477,-3.85 -10.89426,-11.97412 -17.08985,-18.05469 C 645.07006,106.36473 640,101.01725 640,100.5625 c 0,-0.45475 -3.08864,-4.030637 -6.86328,-7.945312 C 625.31174,84.501879 621.07251,79.832477 614.41992,72 611.8506,68.975 604.96838,61.380417 599.125,55.123047 c -5.84338,-6.25737 -10.9119,-12.10737 -11.26172,-13 C 587.51346,41.230417 581.85941,34.875 575.29688,28 568.73433,21.125 563.05609,14.672857 562.67969,13.662109 c -0.37641,-1.010748 -2.03289,-2.346417 -3.68164,-2.96875 -1.52691,-0.576342 -2.24526,-1.0488701 -2.61524,-2.0429684 h -1.71679 z M 26.898438,17.990234 c 2.631416,-0.03029 5.216286,0.44336 6.042968,1.439454 1.306158,1.57382 1.319719,7.754284 0.699219,305.570312 -0.222514,106.79788 -0.730517,174.65335 -1.320313,176.5 -0.924064,2.89325 -1.194863,3.00975 -7.638671,3.29492 -4.9213,0.21779 -6.705148,-0.0457 -6.773438,-1 C 17.857212,503.08229 17.601851,488.775 17.341797,472 16.865325,441.26479 16.81392,427.31324 17.052734,392.5 c 0.164534,-23.985 0.09834,-76.18839 -0.101562,-79.5 -0.083,-1.375 -0.291526,-11.05 -0.462891,-21.5 -0.171366,-10.45 -0.427266,-19.45 -0.568359,-20 -0.141092,-0.55 0.03987,-2.575 0.402344,-4.5 0.362478,-1.925 0.962166,-31.85 1.332031,-66.5 0.754086,-70.64466 0.750741,-64.88123 0.06836,-125.759766 C 17.434929,49.07102 17.601147,29.74695 18.111328,29.431641 18.600608,29.12925 19,27.139974 19,25.011719 c 0,-2.184444 0.685162,-4.55235 1.572266,-5.439453 1.017319,-1.01732 3.694753,-1.551739 6.326172,-1.582032 z M 521,18.166016 l 15.91602,0.08984 15.91601,0.08984 3.05078,3.076172 c 1.67783,1.692536 5.69473,6.003125 8.92774,9.578125 3.23301,3.575 9.2102,10.013233 13.2832,14.306641 4.07301,4.293409 8.25271,9.59887 9.28711,11.791015 1.03439,2.192146 3.05939,4.625182 4.5,5.40625 2.39886,1.300619 5.86703,4.691192 14.98633,14.654297 3.11734,3.405787 3.27103,3.892198 2.23633,7.027344 -0.73203,2.218074 -1.10857,15.479813 -1.10157,38.841793 0.006,19.51033 -0.0207,79.57266 -0.0586,133.47266 -0.0379,53.9 -0.026,117.37376 0.0254,141.05273 l 0.0937,43.05274 -3.28125,3.90234 c -1.8045,2.14598 -6.68246,7.74722 -10.83984,12.44727 -4.15739,4.70005 -9.10739,10.75743 -11,13.46094 -3.06182,4.37367 -12.99412,15.60317 -19.95899,22.5664 -1.38486,1.38454 -3.30195,3.74505 -4.25976,5.2461 -1.85456,2.9064 -7.03668,6.12542 -8.11914,5.04296 -0.35715,-0.35717 -6.93938,-0.53185 -14.62696,-0.38671 C 523.01749,503.12944 522.00073,503.01594 522,501.32422 521.99957,500.32066 521.76773,431.325 521.48633,348 520.98829,200.52608 520.70086,42.818643 520.90039,26.333984 Z m -96.57227,0.367187 c 18.33463,-0.180781 35.49609,-0.214385 37.39258,0.03711 l 4.67969,0.621094 -0.25,50.654297 c -0.13742,27.859997 -0.34129,78.021587 -0.45312,111.470707 -0.11186,33.44912 -0.56844,61.04198 -1.01563,61.31836 -0.44722,0.27638 -0.4683,1.03409 -0.0469,1.68359 0.42146,0.64949 0.87204,57.43164 1.00195,126.18164 0.1299,68.75 0.3549,126.8 0.5,129 l 0.26367,4 -16,0.2168 c -8.8,0.11911 -16.9,0.21961 -18,0.22461 -1.1,0.005 -6.25163,0.0483 -11.44922,0.0976 -5.19759,0.0493 -9.69759,0.17347 -10,0.27539 -0.30241,0.10191 -8.18339,-0.0395 -17.51172,-0.31445 l -16.96094,-0.5 -0.57617,-3 c -0.31779,-1.65 -0.51118,-5.925 -0.42968,-9.5 0.39796,-17.46701 0.44175,-230.68455 0.0684,-332.5 -0.23201,-63.25 -0.13386,-120.387849 0.21876,-126.972656 L 376.5,19.554688 380,19.376953 c 6.58559,-0.335128 26.09311,-0.662969 44.42773,-0.84375 z m -108.84765,0.679688 c 3.84526,0.12505 4.49721,0.545195 4.80664,1.351562 0.36562,0.952784 0.23161,7.177958 -0.29688,13.833985 -0.58565,7.376108 -0.87425,101.525632 -0.73828,241.101562 l 0.22461,229 h -44.39258 -44.39062 l -1.27735,-2.5 c -1.02653,-2.00816 -1.20666,-35.25643 -0.9121,-169 0.2017,-91.575 0.62791,-190.8 0.94726,-220.5 0.31936,-29.7 0.58389,-54.675 0.58789,-55.5 0.004,-0.825 -0.20443,-8.490731 -0.46484,-17.035156 -0.32565,-10.685034 -0.11523,-16.164 0.67578,-17.546875 1.0771,-1.88303 2.16564,-2.009653 17.15039,-2.001953 8.8,0.0045 28.65045,-0.349015 44.11133,-0.78711 13.08496,-0.370772 20.12348,-0.541066 23.96875,-0.416015 z m -139.62891,1.228515 -0.13672,4.529297 c -0.17049,5.590175 1.04417,42.091785 1.70508,51.228516 0.40939,5.65965 0.21279,6.850584 -1.26758,7.68164 -1.66585,0.935198 -1.66313,1.135351 0.0527,4.048829 1.60683,2.728195 1.72835,4.5749 1.10547,16.818362 -0.41456,8.14872 -1.14981,14.05756 -1.80469,14.50195 -0.80656,0.54732 -0.8069,0.95268 0.002,1.5 1.56772,1.06096 2.91172,27.25 1.39844,27.25 -0.61859,0 -0.83213,0.47424 -0.47461,1.05273 0.35753,0.57849 0.7701,3.38799 0.91602,6.24415 0.19535,3.82354 -0.15518,5.49974 -1.32813,6.35742 -1.44292,1.05509 -1.41553,1.35966 0.2793,3.23242 1.77372,1.95994 1.83654,3.67007 1.22265,32.83984 -0.78355,37.23117 -0.79655,39.3794 -0.61914,104.95508 0.10125,37.42532 -0.1815,52.78506 -1,54.31445 -0.77568,1.44936 -0.8169,2.52258 -0.1289,3.35157 1.59341,1.91994 1.4732,64.36063 -0.125,64.93945 -0.99845,0.36157 -0.99738,0.87599 0.002,2.56836 0.79463,1.34584 1.25,6.09846 1.25,13.04687 0,7.80701 -0.35718,11.07522 -1.25,11.4375 -0.95131,0.386 -0.90498,0.74797 0.19531,1.51368 1.15942,0.80687 1.50894,4.93147 1.76172,20.82617 0.38722,24.34851 -0.37004,27.50268 -6.99805,29.14843 -3.95344,0.98168 -78.938805,1.39531 -82.867183,0.45704 -1.486234,-0.35498 -1.687132,-3.17897 -1.912109,-27.0918 -0.138189,-14.6818 -0.115001,-52.34336 0.05078,-83.69336 0.165783,-31.35 0.29007,-58.125 0.27539,-59.5 -0.01468,-1.375 -0.03226,-44.575 -0.03906,-96 -0.0068,-51.425 -0.02436,-94.4 -0.03906,-95.5 -0.136109,-10.18662 0.10432,-98.70238 0.292969,-107.775391 0.134616,-6.476049 0.497167,-12.026462 0.804688,-12.333984 0.518805,-0.518805 24.527669,-1.101824 69.951169,-1.701172 z M 661.52734,135.4707 c 1.28765,0.0656 3.24747,1.74567 4.51172,4.14063 0.80323,1.52162 4.61094,5.96347 8.46094,9.86914 3.85,3.90567 9.78496,10.23275 13.18945,14.06055 3.40449,3.8278 8.35449,9.22022 11,11.98437 10.09441,10.54712 15.17172,17.22868 18.59961,24.47461 5.16623,10.92047 7.71094,17.881 7.71094,21.09766 0,1.55743 0.64593,4.76046 1.43555,7.11718 2.38748,7.12567 3.42387,25.43452 2.00781,35.48828 -0.68143,4.83808 -1.7165,10.37188 -2.29883,12.29688 -0.58233,1.925 -1.77978,6.38668 -2.66015,9.91406 -0.88038,3.52738 -2.24974,7.34016 -3.04297,8.47266 -0.79323,1.13249 -1.44141,2.71099 -1.44141,3.50781 0,0.79681 -0.61738,2.15903 -1.37109,3.02735 -2.01353,2.31968 -7.6369,12.53926 -11.87305,21.57812 -1.28882,2.75 -3.76383,6.94994 -5.5,9.33203 -1.73618,2.38209 -4.09808,6.20709 -5.25,8.5 -3.11552,6.20149 -10.42986,16.31095 -13.92969,19.25586 -1.6924,1.42406 -3.07617,2.89612 -3.07617,3.26953 0,0.37341 -3.50194,4.38246 -7.78125,8.91016 -4.27931,4.52769 -8.04265,8.23242 -8.36328,8.23242 -1.39963,0 -1.82783,-24.40957 -1.37109,-78 0.26953,-31.625 0.57032,-80.17358 0.66992,-107.88672 0.1723,-47.92301 0.2712,-50.41153 2.01367,-50.86719 1.00764,-0.26351 1.83203,-1.14905 1.83203,-1.96875 0,-0.90711 -0.58068,-1.26865 -1.48438,-0.92187 -1.64679,0.63195 -3.98824,-2.78305 -3.00195,-4.37891 0.22895,-0.37044 0.58446,-0.52771 1.01367,-0.50586 z M 54.298828,515 c -0.05116,0.0109 -0.06256,0.0101 -0.09375,0.0156 -0.0085,0.0176 -0.01304,0.0255 -0.02148,0.043 0.03925,-0.0115 0.07296,-0.0236 0.111328,-0.0351 3.69e-4,-0.002 0.0035,-0.0215 0.0039,-0.0234 z m -27.777344,5.09375 c -0.978322,0.0558 -1.956611,0.11738 -2.933593,0.19531 0.729827,0.0455 1.459702,0.0875 2.189453,0.13477 0.218072,0.0111 0.43617,0.0173 0.654297,0.0273 0.01718,-0.0401 0.03472,-0.0802 0.05273,-0.11914 0.01096,-0.0782 0.02054,-0.15453 0.03711,-0.23828 z m -4.726562,8.67969 c 0.166928,0.0719 0.324943,0.14761 0.476562,0.22656 h 1.699219 c -0.726063,-0.0664 -1.451057,-0.14315 -2.175781,-0.22656 z" />
  </g>
</svg>
