<?xml version="1.0" encoding="UTF-8" standalone="no"?>
<!-- Created with Inkscape (http://www.inkscape.org/) -->

<svg
   version="1.1"
   id="svg1"
   width="733"
   height="521"
   viewBox="0 0 733 521"
   sodipodi:docname="5.svg"
   inkscape:version="1.4 (86a8ad7, 2024-10-11)"
   xmlns:inkscape="http://www.inkscape.org/namespaces/inkscape"
   xmlns:sodipodi="http://sodipodi.sourceforge.net/DTD/sodipodi-0.dtd"
   xmlns="http://www.w3.org/2000/svg"
   xmlns:svg="http://www.w3.org/2000/svg">
  <defs
     id="defs1" />
  <sodipodi:namedview
     id="namedview1"
     pagecolor="#ffffff"
     bordercolor="#000000"
     borderopacity="0.25"
     inkscape:showpageshadow="2"
     inkscape:pageopacity="0.0"
     inkscape:pagecheckerboard="0"
     inkscape:deskcolor="#d1d1d1"
     inkscape:zoom="1.5259117"
     inkscape:cx="366.33836"
     inkscape:cy="260.17233"
     inkscape:window-width="1920"
     inkscape:window-height="1013"
     inkscape:window-x="2391"
     inkscape:window-y="605"
     inkscape:window-maximized="1"
     inkscape:current-layer="g1" />
  <g
     inkscape:groupmode="layer"
     inkscape:label="Image"
     id="g1">
    <path
       id="path1"
       style="fill:#000000"
       d="m 525.51562,7.7304688 c -0.84259,0.2487484 -1.67594,0.5289668 -2.48828,0.8671874 -0.48149,0.3383583 -1.13503,0.5637069 -2.27734,0.7714844 -0.008,0.0015 -0.46809,0.00434 -0.47852,0.00586 -4.2e-4,6.19e-5 -0.0191,-6.19e-5 -0.0195,0 -0.16041,0.0096 -0.31577,0.012977 -0.46679,0.00781 C 514.65311,10.005512 333.15853,11.646766 310.5,11.269531 c -10.04795,-0.167287 -50.9909,-0.152978 -84.5,0.0293 -1.375,0.0075 -11.66043,-0.278351 -22.85742,-0.634766 -11.19699,-0.35641 -20.75014,-0.40698 -21.22852,-0.111328 -0.47837,0.295656 -18.31795,0.435322 -39.64258,0.310547 C 94.216245,10.582089 89.360685,10.607116 85,11.148438 83.075,11.387397 80.490367,11.067143 79.255859,10.4375 77.840478,9.715604 73.318098,9.4378578 67.013672,9.6855469 61.189861,9.9143496 56.2025,9.6440834 55.068359,9.0371094 53.715637,8.3131504 52.924538,8.3149674 52.474609,9.0429688 52.056516,9.7194569 48.757095,9.8790646 43.164062,9.4941406 38.399358,9.1662236 31.59032,8.6931042 28.035156,8.4433594 20.009304,7.8795556 15.770482,8.6347008 13.128906,11.095703 c -0.409456,0.381466 -1.027135,0.550137 -1.544922,0.806641 0.112434,0.410836 0.198556,0.859076 0.248047,1.353515 0.289908,2.896278 0.578401,5.793309 0.808594,8.695313 0.08279,1.601633 0.267531,3.202289 0.300781,4.80664 0.0056,0.268507 0.07935,0.553475 -0.01563,0.804688 -0.297605,0.787242 -0.734743,1.514174 -1.11914,2.263672 L 11.554688,57.25 c -0.905474,99.12788 -1.6279095,157.82434 -2.2070318,179.25 -0.833686,30.84373 -0.82365,29.86186 -0.5078124,51 0.4501685,30.1286 -0.7885814,118.64328 -1.7421876,124.5 -0.652948,4.01018 -0.542743,6.35108 0.4082032,8.64453 1.3147643,3.17088 1.4185863,7.56654 1.3808594,58.42969 -0.017364,23.40962 -0.00664,23.45381 5.6132812,24.08789 l 2.458984,0.27734 c 0.564379,-0.22092 1.221306,-0.38529 1.982422,-0.46484 0.770318,-0.0805 1.539668,-0.16904 2.310547,-0.24414 0.02123,-0.001 0.864675,-0.071 1.509766,-0.082 0.387054,-0.007 0.702217,0.009 0.726562,0.0723 0.259068,0.67255 0.513777,1.24312 0.761719,1.7793 l 30.601562,0.21094 c 16.856792,0.1158 40.323438,0.49753 52.148438,0.84765 11.825,0.35012 54.575,0.84726 95,1.10547 40.425,0.25821 76.29098,0.49535 79.70312,0.52735 3.41218,0.0319 6.95691,-0.23093 7.87696,-0.58399 0.92005,-0.35305 2.18531,-0.21814 2.81054,0.30078 0.62528,0.51892 8.10552,0.9259 16.62305,0.9043 8.51753,-0.0216 21.78633,0.16942 29.48633,0.42383 8.58699,0.28371 14.49828,0.0751 15.28906,-0.54102 0.87054,-0.67824 4.0092,-0.58281 9.66406,0.29688 5.23204,0.8139 10.56506,1.02167 14.21094,0.55273 3.20974,-0.41283 6.51094,-0.7088 7.33594,-0.6582 7.18459,0.44061 55.77796,0.10182 60.27539,-0.41992 4.02313,-0.46672 6.23362,-0.28904 7.2832,0.58203 1.19899,0.99505 2.26733,0.99884 5.23438,0.0195 2.2818,-0.75306 8.77023,-1.18086 16.71875,-1.10156 22.03952,0.21984 66.75291,1.16581 71.35156,1.50976 5.77064,0.4316 10.19814,-1.55446 12.57422,-5.64258 1.06558,-1.83336 3.65532,-5.13398 5.75391,-7.33398 6.65954,-6.98132 15.19069,-16.80095 19.98437,-23 2.55186,-3.3 5.9194,-7.16384 7.48242,-8.58594 1.56302,-1.4221 5.3168,-5.39096 8.3418,-8.82031 3.025,-3.42935 6.80275,-7.4405 8.39453,-8.91406 6.36443,-5.89176 11.29808,-11.00376 15.10547,-15.65039 2.2,-2.68492 6.62931,-7.61457 9.8418,-10.95508 11.12333,-11.56655 13.42024,-14.08426 14.80468,-16.2168 0.76495,-1.17829 4.98337,-6.07815 9.37305,-10.88867 4.38969,-4.81052 8.65547,-9.71157 9.48047,-10.89258 0.825,-1.18101 4.92103,-5.60551 9.10156,-9.83203 4.18054,-4.22652 8.68054,-9.26963 10,-11.20703 1.31947,-1.93739 2.84844,-3.54451 3.39844,-3.57031 0.55,-0.0258 2.67232,-2.16737 4.7168,-4.75782 2.04448,-2.59044 6.43174,-7.63398 9.75,-11.20898 4.36295,-4.70052 6.20669,-7.53228 6.6582,-10.23047 0.3434,-2.05212 1.23977,-4.24274 1.99219,-4.86719 0.75242,-0.62445 1.86143,-2.9961 2.46484,-5.26953 1.18287,-4.45667 3.05679,-9.08274 5.92578,-14.63281 C 723.34289,301.48266 728,287.16299 728,284.5 c 0,-1.13038 0.68072,-3.02648 1.51172,-4.21289 3.64631,-5.20584 4.3134,-34.6497 1.17187,-51.71094 -2.44209,-13.26263 -9.1064,-30.24637 -14.44531,-36.81445 C 714.60958,189.75804 711,183.03117 711,182 c 0,-1.1027 -15.70193,-20.42052 -21.5,-26.45117 -4.11674,-4.28188 -18.55719,-20.10395 -31.12891,-34.10742 C 654.45003,117.07379 649.21562,111.025 646.74023,108 c -2.47539,-3.025 -5.56754,-6.45583 -6.87109,-7.625 C 638.5656,99.205826 632.1,92.50767 625.5,85.492188 618.9,78.476703 611.46935,70.659488 608.98633,68.119141 606.5033,65.578793 599.08278,57.425 592.49805,50 578.95728,34.73131 557.51069,12.562609 554.5,10.722656 553.31475,9.998303 547.00046,9.2963132 539,9 L 525.5,8.5 Z M 373.22266,15.359375 c 0.59976,0.0894 1.06032,0.290931 1.24023,0.582031 0.78027,1.262506 9.24209,1.317519 15.53711,0.101563 2.88679,-0.557616 4.94245,-0.501525 5.73438,0.154297 0.75711,0.627009 4.62385,0.798639 10,0.445312 14.50301,-0.95316 107.79449,-0.44574 108.83203,0.591797 1.00774,1.007744 -1.67906,4.087297 -10.26368,11.765625 -4.61189,4.125 -8.9287,8.065843 -9.59375,8.757812 C 494.04393,38.449782 489,42.92343 483.5,47.699219 478,52.475009 470.98844,58.884166 467.91992,61.941406 464.8514,64.998647 459.24501,70.2 455.45898,73.5 c -3.78603,3.3 -8.65835,7.704441 -10.82617,9.787109 -2.16782,2.082669 -4.52614,4.114043 -5.24023,4.513672 -0.7141,0.399629 -6.44644,5.670189 -12.74024,11.712891 -14.57699,13.995418 -29.97898,28.169838 -34.57617,31.822268 -1.96737,1.56305 -6.50117,5.61235 -10.07617,8.99804 -3.575,3.3857 -11.225,10.41395 -17,15.61914 -5.775,5.20521 -11.91119,10.83302 -13.63477,12.50586 -4.35419,4.22598 -5.02256,4.83212 -12.36523,11.20313 -3.575,3.10192 -11.9,10.69055 -18.5,16.86328 -13.84828,12.95177 -25.8128,23.32879 -29.71484,25.77344 -3.04698,1.90895 -3.84717,2.01101 -5.28516,0.66797 -0.55,-0.51368 -4.825,-4.16355 -9.5,-8.10938 -4.675,-3.94583 -12.775,-11.08871 -18,-15.87304 -5.225,-4.78438 -15.125,-13.77136 -22,-19.97266 -6.875,-6.2013 -16.325,-14.9291 -21,-19.39453 -4.675,-4.46543 -13.43645,-12.61976 -19.4707,-18.11914 C 189.49505,135.99866 181.16436,128.35 177.01758,124.5 c -4.14678,-3.85 -9.78532,-8.96807 -12.5293,-11.37305 -4.46881,-3.91671 -13.34248,-12.23167 -42.91406,-40.210934 -4.99036,-4.721647 -11.74838,-11.021647 -15.01758,-14 -3.2692,-2.978354 -7.544201,-7.013945 -9.499999,-8.966797 C 95.100842,47.996367 89.193003,42.545957 83.929688,37.835938 72.657297,27.748548 65,20.106959 65,18.947266 c 0,-0.45605 0.347666,-1.042752 0.771484,-1.304688 0.423817,-0.261933 11.561317,-0.596892 24.75,-0.74414 13.188686,-0.147249 25.843066,-0.612286 28.123046,-1.033204 2.27997,-0.420919 7.45497,-0.336276 11.5,0.1875 8.81173,1.141001 6.95609,1.077914 20.17383,0.681641 5.94963,-0.178372 10.96898,-0.0792 11.1543,0.220703 0.41969,0.679207 78.2207,0.351646 79.33007,-0.333984 0.44381,-0.274286 2.47275,-0.123046 4.50782,0.335937 2.20709,0.497781 3.93588,0.454554 4.2832,-0.107422 0.64769,-1.047982 18.46291,-0.550149 20.26953,0.566407 0.62473,0.386108 1.62017,0.404182 2.21094,0.03906 0.59077,-0.365113 22.52827,-0.839104 48.75,-1.052734 26.22173,-0.213629 48.86994,-0.644161 50.33008,-0.955078 0.73007,-0.155458 1.4686,-0.177297 2.06836,-0.08789 z M 0.36914062,21.314453 c 0.139676,0.475438 0.40275094,0.806729 0.67578128,1.126953 0.7337002,-0.04809 1.4522058,-0.325947 2.1621093,-0.623047 C 1.9906601,21.580441 1.0831761,21.43433 0.36914062,21.314453 Z M 51.058594,30 c 0.582459,0 0.781325,0.45 0.441406,1 -0.339919,0.55 -0.816053,1 -1.058594,1 C 50.198865,32 50,31.55 50,31 c 0,-0.55 0.476135,-1 1.058594,-1 z M 575.47461,44.849609 c 1.19969,0.14553 2.51233,0.969977 3.52539,2.423829 0.825,1.183965 2.57347,3.069155 3.88477,4.189453 1.31131,1.120299 4.46053,3.949609 6.99804,6.287109 2.53752,2.3375 4.95156,4.25 5.36524,4.25 0.41368,0 0.75195,0.67259 0.75195,1.494141 0,0.82155 1.88134,2.857106 4.18164,4.523437 2.3003,1.666331 6.18098,5.381238 8.62305,8.25586 2.44206,2.874617 5.17322,5.64277 6.06836,6.15039 0.89513,0.50762 2.16083,1.668092 2.81445,2.580078 0.65363,0.911986 5.60363,6.176256 11,11.699219 5.39638,5.522965 12.5125,13.302025 15.8125,17.285155 4.85512,5.86018 20.25373,23.2448 27.5,31.04688 0.825,0.88828 4.875,5.37882 9,9.97851 4.125,4.59969 9.68018,10.52976 12.3457,13.17774 2.66551,2.64798 6.0058,6.49942 7.42188,8.56054 7.46042,10.85873 8.9561,13.20882 11.91797,18.73438 7.02518,13.10588 7.39632,14.20722 10.33007,30.51367 0.44529,2.475 1.48474,6.525 2.3086,9 2.25837,6.78449 0.81982,35.32489 -2.15039,42.66016 -1.07797,2.66217 -2.47873,7.36977 -3.11133,10.46289 -0.63261,3.09312 -2.02938,7.35222 -3.10547,9.46289 -1.07608,2.11068 -1.95703,4.63885 -1.95703,5.61914 0,0.98028 -2.025,6.08813 -4.5,11.34961 -2.475,5.26149 -4.5,9.75892 -4.5,9.99609 0,0.23718 -1.575,2.4957 -3.5,5.01758 -1.925,2.52189 -3.5,5.39619 -3.5,6.38672 0,2.1036 -1.68296,3.67514 -4.5,4.20508 -1.33316,0.25079 -2,1.1684 -2,2.75195 0,1.3066 -0.71381,2.64926 -1.58594,2.98242 -1.95161,0.74552 -7.91406,7.47484 -7.91406,8.93164 0,0.58371 -0.79174,1.6485 -1.75977,2.36719 -0.96804,0.71868 -3.04298,2.88164 -4.61132,4.80664 -4.72682,5.80175 -14.70381,16.84965 -22.12891,24.50586 -3.85,3.96983 -11.95,12.77011 -18,19.55469 -6.05,6.78459 -12.44972,13.82458 -14.22266,15.64453 -1.77293,1.81994 -5.06841,5.80455 -7.32226,8.85547 -2.25385,3.05092 -5.19063,6.04418 -6.52539,6.65234 -1.33475,0.60815 -3.75389,3.17262 -5.37696,5.69727 -1.62308,2.52466 -5.89906,7.2556 -9.50195,10.51367 -3.60289,3.25806 -6.55078,6.4366 -6.55078,7.0625 0,0.6259 -4.31691,5.49763 -9.59375,10.82617 -5.27685,5.32853 -9.88935,9.68559 -10.25,9.68359 -0.36066,-0.002 -3.85082,-3.03963 -7.75586,-6.75 C 547.44511,462.88679 539.80275,455.83177 530.97266,448 c -4.65082,-4.125 -10.07547,-9.075 -12.05469,-11 -1.97921,-1.925 -5.80726,-5.47292 -8.50781,-7.88477 -2.70055,-2.41186 -9.64158,-8.93686 -15.42383,-14.5 C 489.20407,409.05208 481.77907,402.25 478.48633,399.5 475.19358,396.75 469.125,391.30989 465,387.41016 441.31527,365.01891 434.15891,358.35109 422.16211,347.5 414.86525,340.9 406.49936,333.475 403.57227,331 393.51315,322.49452 384.63718,314.4819 374.07812,304.37305 368.2598,298.80279 361.25,292.32051 358.5,289.96875 c -2.75,-2.35176 -7.025,-6.21102 -9.5,-8.57617 -2.475,-2.36516 -6.90775,-6.49049 -9.85156,-9.16797 l -5.35352,-4.86914 5.8125,-5.42774 c 15.51485,-14.48907 23.77799,-22.30007 33.88281,-32.02734 10.14102,-9.76214 16.94232,-15.94636 25.52735,-23.20898 9.39834,-7.95065 34.30181,-30.81161 60.66601,-55.69141 6.11956,-5.775 15.73096,-14.775 21.35743,-20 12.04645,-11.18689 15.71478,-14.64434 27.59179,-26 9.62538,-9.202862 17.76063,-16.743254 32.36719,-30 5.15102,-4.675 11.64684,-10.624247 14.43359,-13.220703 2.78675,-2.596456 7.59378,-6.646456 10.68164,-9 3.08787,-2.353544 6.0157,-5.179297 6.50782,-6.279297 0.5648,-1.262449 1.65186,-1.79592 2.85156,-1.650391 z M 18.488281,66.119141 c 1.114432,0.08714 3.000259,1.56544 6.076172,4.46875 C 27.829453,73.669677 33.2,78.714956 36.5,81.798828 39.8,84.882699 46.806459,91.477172 52.070312,96.453125 57.334167,101.42908 69.471404,112.7 79.041016,121.5 c 9.569611,8.8 18.890522,17.4625 20.71289,19.25 1.822374,1.7875 3.446964,3.25 3.611324,3.25 0.16436,0 2.96199,2.61721 6.2168,5.81641 3.25481,3.1992 8.39297,7.99638 11.41797,10.66015 3.025,2.66376 11.125,10.1161 18,16.56055 6.875,6.44444 14.96123,13.90974 17.96875,16.58984 14.03143,12.50386 50.20155,45.83928 56.91406,52.45313 1.43977,1.41861 6.86372,6.36861 12.05469,11 15.12506,13.49459 14.07512,11.38797 8.42773,16.88867 -2.67569,2.6062 -7.34023,6.8913 -10.36523,9.52344 -3.025,2.63214 -9.34545,8.43552 -14.04492,12.89648 -4.69948,4.46097 -11.15699,10.36133 -14.34961,13.11133 -3.19263,2.75 -9.02218,7.99799 -12.95508,11.66211 -3.9329,3.66412 -8.73541,7.93912 -10.67383,9.5 -1.93841,1.56088 -6.51677,5.68454 -10.17383,9.16406 -3.65706,3.47952 -9.04704,8.21773 -11.97656,10.5293 -2.92953,2.31158 -10.34118,9.03811 -16.4707,14.94726 -6.12952,5.90914 -12.42952,11.71871 -14,12.91016 -1.57048,1.19144 -4.89715,3.99325 -7.39258,6.22656 -2.49543,2.23331 -8.11643,7.21055 -12.490234,11.06055 -4.373805,3.85 -11.557122,10.34184 -15.96289,14.42578 C 79.103999,414.00972 74.6,418.13976 73.5,419.10352 c -1.1,0.96377 -4.961455,4.50156 -8.580078,7.86132 -3.618623,3.35976 -7.668623,6.85072 -9,7.75782 C 54.588545,435.62976 50.8,438.9327 47.5,442.0625 40.940198,448.28397 34.566643,453.80333 25.056641,461.5 c -7.365682,5.96122 -7.73252,6.12656 -8.425782,3.80469 -1.205016,-4.03584 -2.617327,-29.91627 -2.554687,-46.80469 0.03672,-9.9 -0.0057,-22.5 -0.09375,-28 -0.08801,-5.5 -0.17218,-10.9 -0.1875,-12 -0.01533,-1.1 -0.01462,-15.05 0.002,-31 0.01641,-15.95 0.02227,-30.35 0.01367,-32 -0.0086,-1.65 0.25748,-14.7 0.591797,-29 0.334316,-14.3 0.840261,-50.075 1.123047,-79.5 0.282786,-29.425 0.741553,-71.725 1.019531,-94 0.277977,-22.275 0.501394,-41.625 0.496094,-43 -0.01027,-2.663588 0.332833,-3.968004 1.447265,-3.880859 z M 285.20703,311.82617 c 0.38901,0.0205 0.70117,0.2246 1.0293,0.55274 0.81642,0.81641 3.68372,3.35562 6.37305,5.64257 2.68932,2.28695 7.59062,6.70616 10.89062,9.82032 3.3,3.11415 9.32638,8.58621 13.39258,12.16015 4.0662,3.57395 8.1162,7.20028 9,8.0586 1.75283,1.70228 10.92248,10.1489 27.07226,24.93945 5.70517,5.225 12.68303,11.75 15.50586,14.5 17.01686,16.57777 65.40654,61.19994 74.80469,68.98047 3.97357,3.28964 10.82461,9.43943 15.22461,13.66601 4.4,4.22658 13.0625,12.07165 19.25,17.43164 6.1875,5.36003 11.25,10.08318 11.25,10.4961 0,1.00417 -5.5289,1.79728 -16.84961,2.41797 -5.14198,0.28192 -9.66241,0.705 -10.04492,0.9414 -0.89301,0.55192 -13.18009,0.787 -34.55274,0.66016 -10.14279,-0.0602 -17.34869,0.30182 -17.94921,0.90234 -1.27309,1.27307 -7.29399,1.31394 -8.07227,0.0547 -0.34037,-0.55073 -10.75204,-1.00182 -24.80859,-1.07422 C 363.40029,501.90792 348,501.72614 342.5,501.57227 c -19.77967,-0.55338 -98.61052,-0.6213 -99.47656,-0.0859 -0.48694,0.30095 -1.19596,0.0429 -1.57617,-0.57227 -0.46501,-0.7524 -5.31702,-1.06384 -14.82032,-0.95312 -15.51744,0.18079 -122.10599,-1.01984 -132.826169,-1.4961 -10.283165,-0.45684 -13.36834,-1.96452 -8.550781,-4.17773 1.2375,-0.56851 6.3,-4.80289 11.25,-9.41016 4.95,-4.60727 11.25,-10.37776 14,-12.82422 11.37831,-10.12241 24.17074,-21.83406 28.45703,-26.05273 7.37359,-7.25726 29.84491,-28.08461 38.94922,-36.09961 4.62324,-4.07008 12.19287,-11.00039 16.82227,-15.40039 4.6294,-4.4 9.08185,-8.37273 9.89453,-8.82812 0.81268,-0.4554 7.41805,-6.57197 14.67773,-13.59376 7.25968,-7.02174 15.89922,-15.17006 19.19922,-18.10546 7.89058,-7.01879 29.00895,-26.58158 38.61914,-35.77539 5.06217,-4.84285 6.92087,-6.43268 8.08789,-6.3711 z" />
  </g>
</svg>
