<?xml version="1.0" encoding="UTF-8" standalone="no"?>
<!-- Created with Inkscape (http://www.inkscape.org/) -->

<svg
   version="1.1"
   id="svg1"
   width="1954"
   height="1512"
   viewBox="0 0 1954 1512"
   sodipodi:docname="matrix.svg"
   inkscape:version="1.4 (86a8ad7, 2024-10-11)"
   xmlns:inkscape="http://www.inkscape.org/namespaces/inkscape"
   xmlns:sodipodi="http://sodipodi.sourceforge.net/DTD/sodipodi-0.dtd"
   xmlns="http://www.w3.org/2000/svg"
   xmlns:svg="http://www.w3.org/2000/svg">
  <defs
     id="defs1" />
  <sodipodi:namedview
     id="namedview1"
     pagecolor="#ffffff"
     bordercolor="#000000"
     borderopacity="0.25"
     inkscape:showpageshadow="2"
     inkscape:pageopacity="0.0"
     inkscape:pagecheckerboard="0"
     inkscape:deskcolor="#d1d1d1"
     inkscape:zoom="0.52579365"
     inkscape:cx="977.56981"
     inkscape:cy="756"
     inkscape:window-width="1920"
     inkscape:window-height="1013"
     inkscape:window-x="2391"
     inkscape:window-y="605"
     inkscape:window-maximized="1"
     inkscape:current-layer="g1" />
  <g
     inkscape:groupmode="layer"
     inkscape:label="Image"
     id="g1">
    <path
       id="path1"
       style="fill:#000000"
       d="m 1912.4297,12.65625 c -0.043,0.862424 -0.06,1.631725 -0.096,2.558594 h 0.7305 c -0.3131,-0.824657 -0.532,-1.674876 -0.6036,-2.550782 -0.01,-0.0025 -0.021,-0.0053 -0.031,-0.0078 z M 661.26367,32.541016 c -0.51113,0.05095 -0.97555,0.306029 -1.44336,0.769531 -1.03434,1.024814 -9.85548,1.352453 -40.82031,1.513672 -21.725,0.113111 -40.85,0.218395 -42.5,0.234375 -1.65,0.01598 -17.625,-0.164911 -35.5,-0.402344 -17.875,-0.237433 -34.97902,-0.03312 -38.00781,0.455078 -3.30794,0.533195 -6.80188,0.517701 -8.75,-0.04102 -1.8773,-0.538406 -4.50486,-0.568013 -6.24024,-0.07031 -1.78884,0.513034 -5.58565,0.431264 -9.41406,-0.203125 -4.56015,-0.755638 -8.5262,-0.749995 -13.71094,0.01953 -4.12296,0.611935 -7.74747,0.706693 -8.33593,0.21875 C 454.90908,33.681985 304.34129,33.310858 229,34.474609 c -23.925,0.369555 -49.85929,0.601855 -57.63086,0.515625 -10.22259,-0.113429 -14.71635,0.208236 -16.25,1.166016 -1.59782,0.997856 -2.5589,1.050423 -3.90625,0.208984 -1.25643,-0.784651 -17.86234,-1.128943 -55.882812,-1.158203 -40.859807,-0.03144 -54.572648,-0.341296 -56.052734,-1.265625 -3.305896,-2.064566 -9.053871,-0.356994 -11.322266,3.363282 -1.071711,1.757654 -1.949072,3.883122 -1.951172,4.722656 -0.0021,0.858251 -0.843966,1.141329 -2.302734,1.205078 0.172636,3.580367 0.280535,7.164471 0.373047,10.748047 C 24.248666,54.080034 26,54.03083 26,54.150391 c 0,0.274491 -1.081074,0.353452 -1.908203,0.478515 0.04167,1.637576 0.08203,3.275721 0.125,4.91211 -0.0096,1.724009 0.03551,3.454084 0.0918,5.185546 0.134991,0.05092 1.050883,0.04605 1.083984,0.09961 0.28091,0.454552 0.285316,1.692052 0.0098,2.75 -0.0987,0.378923 -0.741566,0.431184 -0.976563,0.671875 0.05859,1.823385 0.100754,3.645712 0.08203,5.464844 0.07829,0.124119 0.57125,0.131562 0.580079,0.287109 0.184235,3.245985 0.03791,17.615768 -0.710938,69.5 -0.674538,46.73209 -0.839409,75.53378 -0.580078,101.5 0.03571,3.575 0.01485,34.175 -0.04687,68 -0.06172,33.825 -6.28e-4,77.025 0.136719,96 0.299441,41.36834 0.412045,134.68948 0.21289,177 -0.07896,16.775 -0.03048,55.7 0.107422,86.5 0.137856,30.8 0.142162,84.575 0.0098,119.5 -0.132426,34.925 -0.178023,64.4 -0.101563,65.5 0.353118,5.07984 0.215922,79.06542 -0.162109,87.5 -0.234203,5.225 -0.339772,11.3 -0.236328,13.5 0.10344,2.2 0.137074,24.925 0.07617,50.5 -0.06086,25.575 -0.08695,50.775 -0.05859,56 0.02835,5.225 0.02711,35.15 -0.002,66.5 -0.02901,31.35 0.01457,61.725 0.0957,67.5 0.08116,5.775 0.113812,11.4 0.07227,12.5 -0.04155,1.1 0.15265,56.5234 0.43164,123.1641 0.329709,78.7559 0.860481,121.8269 1.517578,123.0547 0.623053,1.1641 0.659584,2.4446 0.0957,3.3359 -1.390222,2.1974 -1.155815,13.5275 0.304688,14.7305 0.788524,0.6495 9.371971,0.9633 23.25,0.8515 12.1,-0.097 23.575,0.1228 25.5,0.4883 h 0.0039 c 1.925,0.3654 4.85,0.4232 6.5,0.1289 1.65,-0.2942 13.124996,-0.5845 25.500004,-0.6445 12.375,-0.06 23.0625,-0.4731 23.75,-0.918 0.6875,-0.445 1.75644,-0.4955 2.375,-0.1133 1.19587,0.7391 16.3551,1.7635 23.875,1.6133 28.85121,-0.5764 289.84003,-1.566 306.5,-1.1621 1.1,0.027 10.55,-0.2407 21,-0.5938 10.96767,-0.3706 21.95928,-0.2253 26,0.3438 4.66497,0.6568 7.41697,0.6496 8.25,-0.019 0.85025,-0.6835 1.70872,-0.6231 2.68554,0.1875 0.99497,0.8258 2.00561,0.888 3.28907,0.2011 1.01884,-0.5453 8.58564,-1.0368 16.81445,-1.0918 22.03714,-0.1472 31.37391,-0.7393 33.00586,-2.0937 1.07361,-0.8913 1.80665,-0.9154 2.79687,-0.094 1.33389,1.107 46.39174,2.3854 68.15821,1.9336 5.5,-0.1141 11.8,-0.1141 14,0 4.7232,0.2446 45.87403,0.2251 49.5,-0.023 1.375,-0.094 9.025,0.1973 17,0.6484 19.15561,1.0835 61.01526,1.3554 61.60547,0.4004 0.25602,-0.4142 1.60586,-0.2328 3,0.4024 1.73578,0.7909 3.37992,0.8491 5.21484,0.1855 2.452,-0.8868 23.40589,-1.0302 80.67969,-0.5527 11,0.092 20.9,0.1326 22,0.092 1.1,-0.038 11.225,-0.064 22.5,-0.049 34.76162,0.046 64.56351,-0.5188 65.74023,-1.246 0.61724,-0.3815 1.41461,-0.2193 1.77344,0.3613 0.43424,0.7026 9.40427,1.0146 26.82032,0.9316 14.3917,-0.069 26.841,-0.075 27.666,-0.014 0.825,0.061 39.3,-0.1378 85.5,-0.4415 46.2,-0.3037 84.9,-0.4948 86,-0.4238 8.7333,0.5622 15.4629,0.2018 16.791,-0.9004 1.1418,-0.9476 1.713,-0.9777 2.2461,-0.1152 0.4404,0.7126 2.1042,0.942 4.3379,0.5976 2.2332,-0.3442 4.2884,-0.06 5.3535,0.7383 1.178,0.8827 3.155,1.0785 6.2071,0.6153 2.4635,-0.3735 4.9623,-0.3803 5.5527,-0.016 0.5904,0.365 3.4227,0.4011 6.293,0.08 4.9441,-0.5532 29.6049,-0.5906 38.2187,-0.059 2.2,0.1359 4.7922,-0.087 5.7617,-0.4961 0.9983,-0.4209 2.388,-0.2252 3.2032,0.4512 0.8795,0.7299 2.3322,0.8971 3.7363,0.4297 2.6588,-0.8885 16.6494,-0.8857 17.5351,0 0.8465,0.8465 4.7862,0.7393 5.6797,-0.1543 1.1582,-1.1536 57.8706,-1.1489 59.334,0.01 0.8333,0.6596 1.6911,0.6238 2.5723,-0.1075 1.4977,-1.2429 16.2578,-1.6259 47.1777,-1.2246 7.15,0.093 18.175,-0.037 24.5,-0.289 6.325,-0.2522 26.8,-0.4401 45.5,-0.416 18.7,0.024 39.1045,-0.034 45.3438,-0.1309 7.0487,-0.1092 11.8469,0.2412 12.6718,0.9258 0.9758,0.8098 1.8801,0.7583 3.4102,-0.1973 1.5431,-0.9637 2.53,-1.0172 3.8144,-0.207 1.2824,0.8089 2.567,0.7426 4.9473,-0.252 2.0075,-0.8387 4.0793,-1.0396 5.5137,-0.5351 1.2638,0.445 6.5738,0.6718 11.7988,0.5039 15.9562,-0.5132 33.0844,-0.5294 41.5,-0.039 4.4,0.2563 8.4799,0.084 9.0664,-0.3809 0.5894,-0.4674 2.7304,-0.3856 4.7852,0.1817 2.0448,0.5646 4.488,0.7912 5.4316,0.5059 2.0071,-0.607 -2.9909,-0.5952 67.2168,-0.1348 35.645,0.2337 57.6209,-0.01 61.4277,-0.6778 4.4684,-0.7844 6.4076,-0.7397 7.8829,0.1817 1.163,0.7263 2.2081,0.8423 2.5742,0.2871 0.3388,-0.5137 2.1902,-0.7518 4.1152,-0.5293 8.2268,0.9506 56.002,1.0861 56.5742,0.1602 0.381,-0.6163 1.1081,-0.5577 1.9707,0.1582 0.752,0.6241 1.9204,0.7923 2.5957,0.375 1.3692,-0.8463 11.8755,-1.1983 12.3594,-0.4141 0.3069,0.497 10.3259,0.4677 22.2422,-0.066 3.4336,-0.154 6.5277,0 6.875,0.3496 0.8806,0.8807 17.6963,-0.218 18.7129,-1.2227 0.4567,-0.4513 6.6442,-0.585 13.75,-0.2968 l 12.9199,0.5234 v -2.5273 c 0,-3.2905 -1.7868,-3.7291 -15.25,-3.7461 l -10.75,-0.014 -0.1191,-3.75 c -0.065,-2.0625 -0.044,-4.1508 0.047,-4.6406 0.2176,-1.1725 1.0947,-118.9654 1.1993,-161.1094 0.1325,-53.5383 0.1415,-193.1604 0.014,-204 -0.3044,-25.7186 -0.1451,-44.4619 0.5196,-61 0.6359,-15.8185 0.9053,-78.62471 0.4199,-98 -0.2015,-8.03803 -0.4059,-39.01112 -0.2774,-42 0.099,-2.30254 1.5996,-266.19356 1.5606,-274.5 -0.014,-3.025 -0.09,-8.65 -0.168,-12.5 -0.078,-3.85 -0.085,-12.85 -0.016,-20 0.1252,-12.99067 0.028,-30.26725 -0.2871,-51 -0.3221,-21.1841 -0.328,-47.12228 -0.014,-61 0.1766,-7.7 0.2528,-15.125 0.1758,-16.5 -0.1731,-3.06278 -0.1942,-30.91669 -0.025,-33 0.5721,-7.07605 0.9543,-102.62641 1.1445,-285.5 0.037,-35.2578 -0.417,-74.261425 -1.0175,-87.5 -0.6217,-13.704803 -0.7792,-14.552935 -2.875,-15.472656 -0.6717,-0.294753 -1.0864,-0.68563 -1.3946,-1.330078 -0.612,-0.0034 -1.1346,0.0049 -1.5136,0.03711 h -18.5332 c -0.3262,0 -0.6325,-0.02003 -0.9473,-0.03125 -0.5122,0.141776 -0.9873,0.261074 -1.9805,0.638672 -1.4524,0.552224 -3.1824,0.611103 -3.9531,0.134765 -0.754,-0.465994 -2.0334,-0.477804 -2.8418,-0.02539 -0.8084,0.452413 -2.7507,0.375874 -4.3164,-0.169922 -2.0508,-0.714916 -3.2593,-0.647489 -4.3242,0.236328 -1.1529,0.9568 -2.1113,0.963882 -4.3535,0.03516 -1.8697,-0.774459 -6.5019,-1.032279 -13.25,-0.738281 -16.5303,0.720189 -37.8692,0.809135 -38.9161,0.162109 -0.5284,-0.326607 -1.414,-0.313526 -1.9687,0.0293 -0.5547,0.34282 -12.5922,0.542753 -26.75,0.445313 -25.6346,-0.176423 -151.099,-0.07368 -363.2422,0.296875 -61.325,0.10712 -113.975,0.13539 -117,0.0625 -10.7451,-0.25891 -19.5937,-0.340931 -26.5,-0.244141 -3.85,0.05395 -11.95,0.06461 -18,0.02344 -6.05,-0.0412 -11.9,-0.03749 -13,0.0078 -2.1325,0.08784 -103.2573,1.066353 -110,1.064453 -11.7992,-0.0033 -48.3191,-1.223523 -50.2695,-1.679687 -1.2488,-0.292067 -3.0488,-0.141866 -4,0.333984 -0.9512,0.475851 -4.8805,0.569654 -8.7305,0.207032 -4.2179,-0.397279 -7.6702,-0.255443 -8.6875,0.359374 -1.2087,0.730526 -2.4629,0.607942 -4.4141,-0.43164 -1.6471,-0.877545 -2.8576,-1.055539 -3.0605,-0.451172 -0.1999,0.595374 -3.4734,0.850914 -8.0879,0.630859 -6.8181,-0.325133 -16.8438,-0.359209 -19.75,-0.06641 -0.55,0.05541 -8.7707,-0.106592 -18.2676,-0.359375 -10.2968,-0.274076 -17.5032,-0.07722 -17.8515,0.486328 -0.3213,0.519772 -1.3256,0.632471 -2.2325,0.25 C 1008.6876,34.825283 872.25711,34.014119 790,34.132812 c -16.775,0.02421 -37.7,-0.08233 -46.5,-0.236328 -20.98401,-0.367214 -27.32751,-0.376028 -43.5,-0.06055 -23.23004,0.453159 -35.09518,0.183905 -37.01172,-0.841797 -0.65564,-0.350888 -1.21348,-0.504073 -1.72461,-0.453125 z M 539.05859,37 c 0.58246,0 0.78133,0.45 0.44141,1 -0.33992,0.55 -0.81605,1 -1.05859,1 C 538.19887,39 538,38.55 538,38 c 0,-0.55 0.47613,-1 1.05859,-1 z m 1368.75391,0.316406 c 0.7219,-0.288868 1.5837,-0.252215 1.916,0.08008 0.3323,0.332292 -0.2584,0.568811 -1.3125,0.525391 -1.165,-0.04798 -1.4012,-0.286243 -0.6035,-0.605469 z M 1080.0586,38 c 0.5825,0 0.7813,0.45 0.4414,1 -0.3399,0.55 -0.8161,1 -1.0586,1 -0.2426,0 -0.4414,-0.45 -0.4414,-1 0,-0.55 0.4762,-1 1.0586,-1 z m -861.2461,0.316406 c 0.72187,-0.288868 1.58372,-0.252215 1.91602,0.08008 0.33229,0.332292 -0.25834,0.568811 -1.3125,0.525391 -1.16495,-0.04798 -1.40125,-0.286243 -0.60352,-0.605469 z m 121.625,1.582032 c 0.38691,0.626035 13.49476,1.033599 35.33789,1.099609 19.09818,0.05771 45.07461,0.358859 57.72461,0.667969 12.65,0.309108 30.425,0.476661 39.5,0.373046 9.075,-0.103614 17.5125,-0.174469 18.75,-0.15625 1.2375,0.01822 3.0375,0.02628 4,0.01758 0.9625,-0.0087 7.375,0.104228 14.25,0.25 14.16289,0.300299 14.20819,0.29861 45.5,-0.654297 26.50387,-0.807103 24.91524,-0.78475 50.5,-0.69336 10.725,0.03831 30.44286,0.09112 43.81836,0.117188 13.37549,0.02604 24.65285,0.253885 25.06055,0.505859 0.4077,0.251973 2.59575,-0.01283 4.86132,-0.58789 3.22236,-0.817923 5.16855,-0.708767 8.93946,0.503906 3.57386,1.149306 7.53563,1.43331 15.32031,1.09375 10.86338,-0.473849 20.02776,-0.61245 23.5,-0.355469 1.1,0.08141 21.8,0.04613 46,-0.07813 24.2,-0.12426 50.975,-0.137354 59.5,-0.0293 8.525,0.108044 15.95,0.105643 16.5,-0.0059 0.55,-0.11146 1.225,-0.119827 1.5,-0.01758 2.69583,1.002363 8.43462,0.784119 13.625,-0.517578 3.47541,-0.871605 6.80471,-1.284915 7.39844,-0.917969 1.60639,0.992803 45.7944,1.465711 50.74804,0.542969 2.34934,-0.437627 4.51299,-0.404099 4.8086,0.07422 0.79075,1.279461 10.91131,1.057228 13.90039,-0.304687 1.96907,-0.897166 2.84892,-0.897166 3.74609,0 1.63798,1.63799 42.89438,1.652484 44.53125,0.01563 0.8559,-0.855907 1.50906,-0.866343 2.50586,-0.03906 0.75306,0.624981 4.63497,1.079637 8.79293,1.029297 4.0943,-0.04957 25.2184,-0.05538 46.9434,-0.01367 21.725,0.04175 41.975,0.06282 45,0.04687 33.172,-0.174821 85.1686,0.600183 85.5859,1.275391 0.7016,1.135108 5.1427,1.106684 5.8496,-0.03711 0.6694,-1.083011 21.4523,-1.095853 22.1211,-0.01367 0.2591,0.419311 1.927,0.33625 3.7071,-0.185547 1.7801,-0.521797 7.2863,-0.914074 12.2363,-0.871094 26.5923,0.230903 31.1653,0.231896 39.5,0.01172 4.675,-0.123502 12.1,-0.22185 16.5,-0.21875 4.4,0.0031 10.025,-0.01954 12.5,-0.05078 23.2378,-0.29328 94.5356,0.09444 101.9473,0.554687 6.1554,0.382242 9.9014,0.209763 10.7519,-0.496094 0.718,-0.59583 2.5898,-0.825404 4.1582,-0.511718 1.5685,0.313685 3.3482,0.0737 3.9551,-0.533204 0.7589,-0.758906 1.5057,-0.784382 2.3945,-0.08008 0.7108,0.563234 3.0624,0.871725 5.2246,0.685547 2.1622,-0.186178 4.4838,0.120301 5.1602,0.681641 0.6763,0.561341 1.4514,0.661863 1.7227,0.222656 0.2714,-0.439207 15.0497,-0.725485 32.8398,-0.634766 17.7902,0.09072 32.7957,-0.161087 33.3457,-0.560546 1.2354,-0.897226 6.3936,-0.697659 8.7441,0.33789 0.9589,0.422471 4.5589,0.473368 8,0.113282 3.4411,-0.360088 10.5309,-0.627351 15.7559,-0.59375 46.6064,0.299672 80.3268,0.16445 84.4082,-0.337891 2.6999,-0.33231 5.3999,-0.218484 6,0.253906 1.7094,1.345749 43.2242,1.390148 45.7305,0.04883 1.5969,-0.854657 2.6794,-0.824874 4.4433,0.119141 1.8119,0.96971 10.9859,1.099401 41.125,0.582031 21.336,-0.366257 39.243,-0.625882 39.793,-0.576172 10.8012,0.976154 16.8004,0.946006 18.0508,-0.0918 1.1348,-0.941773 1.789,-0.92267 3.0137,0.09375 1.2554,1.04188 16.2808,1.271846 76.0097,1.16211 73.535,-0.1351 74.4869,-0.110435 77.9414,1.927734 1.9234,1.134865 3.76,3.107322 4.0801,4.382813 1.1503,4.582933 -1.0957,22.815068 -3.0059,24.40039 -1.6922,1.404412 -7.8832,2.060626 -24.0898,2.550781 -11.1022,0.335777 -31.8201,0.537548 -38,0.371094 -0.55,-0.01482 -4.6,-0.02674 -9,-0.02734 -4.4,-6.09e-4 -10.025,-0.03904 -12.5,-0.08594 -2.475,-0.0469 -10.35,0.0054 -17.5,0.117187 -7.15,0.111822 -29.875,0.130262 -50.5,0.04102 -47.8568,-0.207088 -46.0651,-0.204977 -311,-0.30664 -122.925,-0.04717 -224.0321,-0.430091 -224.6816,-0.851563 -0.6495,-0.421444 -1.395,-0.418087 -1.6582,0.0078 -0.2632,0.42591 -21.5581,0.685121 -47.3204,0.576171 C 1160.5775,75.209464 1074.925,75.148494 996,75.183594 c -78.925,0.03509 -164.2,0.01811 -189.5,-0.03906 -25.3,-0.05717 -76.15,-0.07805 -113,-0.04492 -36.85,0.03313 -68.35,0.04789 -70,0.0332 -11.79001,-0.104978 -32.10769,0.04869 -64,0.482422 -41.58627,0.565575 -250.80931,1.045674 -257,0.589844 -2.2,-0.16199 -16.375,-0.07341 -31.5,0.197266 -15.125,0.270672 -46.85,0.481347 -70.5,0.466797 -23.65,-0.01455 -58.75,-0.03701 -78,-0.04883 -19.25,-0.01182 -42.875,0.157569 -52.5,0.375 -18.594411,0.420052 -28.234721,-0.170316 -31.511719,-1.929687 -4.640305,-2.49131 -5.198565,-4.212508 -5.820312,-17.947266 l -0.595703,-13.183593 5.21289,-0.625 C 40.152928,43.165798 56.45,43.121335 73.5,43.410156 c 17.05,0.288821 32.35,0.491053 34,0.451172 27.83715,-0.672842 50.17774,-0.542767 51.18945,0.296875 0.67218,0.557864 1.68416,0.729362 2.24805,0.380859 0.56389,-0.348503 11.49721,-0.837164 24.29492,-1.085937 12.7977,-0.248774 36.31758,-0.702938 52.26758,-1.009766 15.95,-0.306828 44.87448,-0.713698 64.27734,-0.902343 24.6157,-0.23933 35.69707,-0.689322 36.66211,-1.490235 0.89178,-0.74011 1.60145,-0.794044 1.99805,-0.152343 z m 48.39844,14.412109 c -0.28089,-0.100933 -0.60196,0.05508 -1.00196,0.455078 -0.605,0.605 -0.79965,1.880045 -0.43359,2.833984 0.48405,1.261407 0.96563,1.434766 1.76563,0.634766 0.605,-0.605 0.79965,-1.880045 0.43359,-2.833984 -0.24203,-0.630704 -0.48279,-0.988911 -0.76367,-1.089844 z M 1274.9414,78 c 0.5175,0 1.2187,0.45 1.5586,1 0.3399,0.55 -0.084,1 -0.9414,1 -0.8574,0 -1.5586,-0.45 -1.5586,-1 0,-0.55 0.4238,-1 0.9414,-1 z m -680.1289,1.316406 c 0.72187,-0.288868 1.58373,-0.252215 1.91602,0.08008 0.33229,0.332292 -0.25834,0.568811 -1.3125,0.525391 -1.16495,-0.04798 -1.40125,-0.286243 -0.60352,-0.605469 z m 91,0 c 0.72187,-0.288868 1.58373,-0.252215 1.91602,0.08008 0.33229,0.332292 -0.25834,0.568811 -1.3125,0.525391 -1.16495,-0.04798 -1.40125,-0.286243 -0.60352,-0.605469 z m 577,0 c 0.7219,-0.288868 1.5837,-0.252215 1.916,0.08008 0.3323,0.332292 -0.2584,0.568811 -1.3125,0.525391 -1.165,-0.04798 -1.4012,-0.286243 -0.6035,-0.605469 z M 599.75,79.337891 c 0.6875,-0.277412 1.8125,-0.277412 2.5,0 0.6875,0.277413 0.125,0.503906 -1.25,0.503906 -1.375,0 -1.9375,-0.226493 -1.25,-0.503906 z M 646,79.5 c 0.55,0.339919 1,0.816053 1,1.058594 C 647,80.801135 646.55,81 646,81 c -0.55,0 -1,-0.476135 -1,-1.058594 0,-0.582459 0.45,-0.781325 1,-0.441406 z M 406.94141,80 c 0.51754,0 1.21867,0.45 1.55859,1 0.33992,0.55 -0.084,1 -0.94141,1 C 406.70113,82 406,81.55 406,81 c 0,-0.55 0.42387,-1 0.94141,-1 z M 912,80 c 0.55,0 1,0.45 1,1 0,0.55 -0.45,1 -1,1 -0.55,0 -1,-0.45 -1,-1 0,-0.55 0.45,-1 1,-1 z m -6.41211,0.253906 c 0.25023,0.250223 0.068,1.500549 -0.4043,2.777344 l -0.85742,2.320312 -0.57031,-2.173828 c -0.51957,-1.986869 0.7472,-4.008661 1.83203,-2.923828 z m 611.22461,0.0625 c 0.7219,-0.288868 1.5837,-0.252215 1.916,0.08008 0.3323,0.332292 -0.2584,0.568811 -1.3125,0.525391 -1.165,-0.04798 -1.4012,-0.286243 -0.6035,-0.605469 z M 395,80.5 c 0.55,0.339919 1,0.816053 1,1.058594 C 396,81.801135 395.55,82 395,82 c -0.55,0 -1,-0.476135 -1,-1.058594 0,-0.582459 0.45,-0.781325 1,-0.441406 z M 379.05859,81 c 0.58246,0 0.78133,0.45 0.44141,1 -0.33992,0.55 -0.81605,1 -1.05859,1 C 378.19887,83 378,82.55 378,82 c 0,-0.55 0.47613,-1 1.05859,-1 z m 1517.00001,0 c 0.5825,0 0.7813,0.45 0.4414,1 -0.3399,0.55 -0.8161,1 -1.0586,1 -0.2426,0 -0.4414,-0.45 -0.4414,-1 0,-0.55 0.4762,-1 1.0586,-1 z m 5.4414,0 c 1.4907,0 2.3519,0.430599 2,1 -0.3399,0.55 -1.2399,1 -2,1 -0.7601,0 -1.6601,-0.45 -2,-1 -0.3519,-0.569401 0.5093,-1 2,-1 z M 224.26953,81.306641 c 0.97297,-0.253547 2.32297,-0.236815 3,0.03711 0.67703,0.273923 -0.11953,0.481318 -1.76953,0.460938 -1.65,-0.02038 -2.20344,-0.244502 -1.23047,-0.498047 z m 24.54297,0.0098 c 0.72187,-0.288868 1.58372,-0.252215 1.91602,0.08008 0.33229,0.332292 -0.25834,0.568811 -1.3125,0.525391 -1.16495,-0.04798 -1.40125,-0.286243 -0.60352,-0.605469 z m 85,0 c 0.72187,-0.288868 1.58373,-0.252215 1.91602,0.08008 0.33229,0.332292 -0.25834,0.568811 -1.3125,0.525391 -1.16495,-0.04798 -1.40125,-0.286243 -0.60352,-0.605469 z m 1513,0 c 0.7219,-0.288868 1.5837,-0.252215 1.916,0.08008 0.3323,0.332292 -0.2584,0.568811 -1.3125,0.525391 -1.165,-0.04798 -1.4012,-0.286243 -0.6035,-0.605469 z m 29,0 c 0.7219,-0.288868 1.5837,-0.252215 1.916,0.08008 0.3323,0.332292 -0.2584,0.568811 -1.3125,0.525391 -1.165,-0.04798 -1.4012,-0.286243 -0.6035,-0.605469 z m -803.543,0.990235 c 0.973,-0.253547 2.323,-0.236815 3,0.03711 0.6771,0.273923 -0.1195,0.481318 -1.7695,0.460938 -1.65,-0.02038 -2.2034,-0.244502 -1.2305,-0.498047 z M 1259.5,83 c 0.8899,0 1.3399,0.45 1,1 -0.3399,0.55 -0.7899,1 -1,1 -0.2101,0 -0.6601,-0.45 -1,-1 -0.3399,-0.55 0.1101,-1 1,-1 z m 191.4141,0.552734 c 0.521,-0.321975 1.2112,-0.159638 1.5332,0.361328 0.322,0.520967 0.1596,1.211228 -0.3614,1.533204 -0.521,0.321975 -1.2112,0.159638 -1.5332,-0.361328 -0.322,-0.520968 -0.1596,-1.211228 0.3614,-1.533204 z m 357.3359,1.757813 c 0.9625,-0.251527 2.5375,-0.251527 3.5,0 0.9625,0.251528 0.175,0.457031 -1.75,0.457031 -1.925,0 -2.7125,-0.205503 -1.75,-0.457031 z m 81.5625,8.005859 c 0.7219,-0.288868 1.5837,-0.252215 1.916,0.08008 0.3323,0.332292 -0.2584,0.568811 -1.3125,0.525391 -1.165,-0.04798 -1.4012,-0.286243 -0.6035,-0.605469 z M 1493.5,100 c 0.825,0 1.5,0.675 1.5,1.5 0,0.825 -0.675,1.5 -1.5,1.5 -0.825,0 -1.5,-0.675 -1.5,-1.5 0,-0.825 0.675,-1.5 1.5,-1.5 z m 132.6953,5.10938 c 0.5154,0.18152 0.8047,0.98617 0.8047,2.39062 0,1.51005 -0.571,2.5 -1.4414,2.5 -2.1099,0 -2.9118,-1.86787 -1.5215,-3.54297 0.902,-1.08678 1.6428,-1.52919 2.1582,-1.34765 z m 162.7891,16.40039 c 0.559,-0.34546 1.0156,0.0742 1.0156,0.93164 0,1.75653 -0.5998,2.01399 -1.457,0.62695 -0.3164,-0.512 -0.1176,-1.21313 0.4414,-1.55859 z m -599.6563,6.48828 c 3.4707,0.0479 5.9233,0.30289 9.2227,0.78906 2.7222,0.40111 8.0992,0.49559 11.9492,0.21094 6.5523,-0.48426 27.1966,-0.48322 133.5,0.01 27.1027,0.12563 42.9529,0.56646 43.75,1.2168 0.8574,0.69947 1.6808,0.66321 2.6211,-0.11719 1.4157,-1.17487 39.4082,-1.27284 40.1309,-0.10351 0.195,0.31552 2.0737,0.42923 4.1757,0.2539 2.1019,-0.17537 12.8223,-0.22989 23.8223,-0.12109 11,0.1088 31.475,0.1238 45.5,0.0332 14.025,-0.0906 27.075,-0.0718 29,0.041 5.1574,0.30218 13.873,0.23088 19,-0.1543 4.3358,-0.32575 118.236,-0.39896 285.4375,-0.18359 52.4417,0.0675 80.2875,0.45148 80.9512,1.11523 0.5565,0.55648 2.0193,1.01172 3.2519,1.01172 1.2325,0 2.5817,0.55079 2.9981,1.22461 0.4165,0.67382 0.8533,16.53632 0.9707,35.25 0.1174,18.71368 0.5388,34.84428 0.9355,35.84375 0.3996,1.00671 0.2154,2.32167 -0.4121,2.94922 -0.7151,0.71507 -1.1328,5.46156 -1.1328,12.87304 0,8.14326 -0.3729,11.97257 -1.2168,12.49415 -1.7029,1.05244 -10.5801,1.24697 -84.1348,1.8457 -35.6685,0.29034 -65.1435,0.65268 -65.5,0.80664 -0.3565,0.15397 -14.1484,-0.0636 -30.6484,-0.48438 -16.5,-0.42078 -49.8,-0.53837 -74,-0.26171 -53.9162,0.61639 -199.0185,0.43247 -225,-0.28516 -10.45,-0.28864 -25.075,-0.48334 -32.5,-0.43164 -7.425,0.0515 -14.4,0.0548 -15.5,0.008 -1.1,-0.0472 -137.45,-0.21331 -303,-0.37109 -165.55,-0.15778 -302.93849,-0.61448 -305.30664,-1.01367 -2.83658,-0.47816 -5.10195,-0.29913 -6.64258,0.52539 -1.76039,0.94213 -3.1693,0.98508 -5.69531,0.16992 -1.89975,-0.61307 -6.17561,-0.8305 -9.85547,-0.5 -3.575,0.32108 -7.625,0.54906 -9,0.50586 -4.5852,-0.14398 -21.08625,-0.0465 -72,0.42578 -61.74981,0.57285 -63.95983,0.56873 -65.0918,-0.13086 -0.49918,-0.30851 -1.4707,-0.20855 -2.1582,0.22266 -0.6875,0.43121 -88.55,0.85375 -195.25,0.93945 -106.7,0.0857 -236.525,0.43402 -288.5,0.77344 -54.861888,0.35828 -95.362849,0.24169 -96.556641,-0.27735 -1.621777,-0.70511 -2.290129,-2.40664 -3.164062,-8.05273 -0.609453,-3.9374 -0.757017,-8.3815 -0.328125,-9.87695 0.428888,-1.49548 0.415058,-5.40855 -0.03125,-8.69532 -0.896311,-6.60075 -1.365688,-30.34935 -1.085938,-54.92968 0.09985,-8.77376 -0.111842,-17.50768 -0.46875,-19.41016 -0.532969,-2.84099 -0.377055,-3.35591 0.871094,-2.87695 0.835833,0.32074 2.010588,0.0949 2.609375,-0.50391 0.712422,-0.71242 8.789525,-1.13053 23.371094,-1.20703 C 71.472531,129.48415 81.95,129.18941 82.5,128.89258 c 0.55,-0.29684 8.65,-0.20064 18,0.21289 9.35,0.41354 42.425,0.69766 73.5,0.63086 31.075,-0.0668 77.2,-0.028 102.5,0.0859 61.61969,0.27749 61.04108,0.27576 132.5,0.0137 34.375,-0.12606 71.725,-0.17573 83,-0.11133 18.41475,0.10519 64.59848,-0.2942 99.5,-0.85938 7.15,-0.1158 29.2,-0.13272 49,-0.0391 19.8,0.0937 49.05,0.21273 65,0.26563 15.95,0.0529 31.925,0.15867 35.5,0.23437 3.575,0.0756 9.875,0.0359 14,-0.0879 4.125,-0.12376 32.20259,0.0207 62.39453,0.32031 30.19195,0.2997 55.60686,0.27124 56.47656,-0.0625 1.93354,-0.74202 18.75079,-0.89697 69.62891,-0.64453 21.45,0.1064 39.45,0.13814 40,0.0723 0.55,-0.0659 2.575,-0.0865 4.5,-0.0469 5.45009,0.1121 97.0178,0.23759 131.1895,0.17969 16.8793,-0.0286 30.9292,-0.43849 31.2207,-0.91016 0.2945,-0.47636 2.8754,-0.47183 5.8086,0.01 2.904,0.47661 10.9062,0.60709 17.7812,0.29102 7.3686,-0.33876 11.8575,-0.49718 15.3281,-0.44922 z M 952,283.5 c 0.55,0.33992 1,0.81605 1,1.05859 0,0.24254 -0.45,0.44141 -1,0.44141 -0.55,0 -1,-0.47613 -1,-1.05859 0,-0.58246 0.45,-0.78133 1,-0.44141 z m -40.61719,4.25586 c 1.36129,0.86602 32.67455,1.32642 34.01172,0.5 1.22238,-0.75547 6.82228,-1.03877 8.0293,-0.40625 0.70792,0.37097 361.90047,1.4427 453.57617,1.3457 9.075,-0.01 46.2,0.0209 82.5,0.0684 64.0661,0.0838 112.4795,-0.07 113.5,-0.35937 0.275,-0.078 0.95,0.0239 1.5,0.22656 0.55,0.20263 72.5179,0.36914 159.9277,0.36914 h 158.9258 l 0.8809,3 c 0.4842,1.65 0.9705,12.45 1.082,24 0.1114,11.55 0.543,21.53215 0.959,22.18164 0.416,0.6495 0.346,1.43372 -0.1563,1.74414 -0.5023,0.31042 -0.9196,4.50522 -0.9296,9.32031 -0.087,43.53901 -0.011,42.16492 -2.5235,44.67774 -2.2291,2.22904 -3.0478,2.34432 -18.25,2.54492 -22.1047,0.29168 -34.9154,1.41242 -35.9883,3.14844 -0.7468,1.20832 -1.8042,1.10784 -3.2187,-0.30664 -0.8738,-0.87378 -11.7568,-1.23904 -40.9492,-1.375 -53.7231,-0.25021 -132.0652,-1.43625 -135.7598,-2.05469 -2.2851,-0.38249 -2.6425,-0.25327 -1.5,0.54297 1.0637,0.74129 -5.6265,1.09299 -23,1.20703 -42.4049,0.27836 -169.981,-0.1094 -234.5,-0.71289 -69.6493,-0.65149 -297.4867,-0.89249 -347.5,-0.36719 -75.5127,0.79315 -141.51298,0.76772 -142.50391,-0.0547 -0.64866,-0.53834 -1.51421,-0.64405 -1.92187,-0.23632 -0.40766,0.40772 -20.61647,0.82217 -44.9082,0.92187 -24.29174,0.0997 -74.99102,0.42702 -112.66602,0.72852 -72.3364,0.57886 -158.06806,0.55684 -174,-0.0449 -5.225,-0.19736 -10.175,-0.37909 -11,-0.40429 -0.825,-0.0257 -8.25,-0.024 -16.5,0.002 -8.25,0.0261 -17.475,0.0497 -20.5,0.0547 -3.025,0.005 -28,-0.10887 -55.5,-0.25391 -27.5,-0.145 -64.85,-0.17996 -83,-0.0781 -18.15,0.10179 -61.8,0.17621 -97,0.16601 -35.2,-0.0102 -76.15,0.0225 -91,0.0723 -14.85,0.0499 -37.575,0.0328 -50.5,-0.0371 -12.925,-0.0699 -24.175,-0.0782 -25,-0.0195 -0.825,0.0587 -27.58907,0.35992 -59.476562,0.66992 -54.44746,0.52931 -58.206011,0.4544 -61.738282,-1.23633 L 31.023438,395.5 30.996094,378 c -0.01473,-9.625 -0.438205,-18.14994 -0.941406,-18.94531 -0.503203,-0.79536 -0.542427,-2.14536 -0.08594,-3 0.45649,-0.85463 1.028178,-15.84516 1.269531,-33.31055 0.241352,-17.46538 0.706332,-32.02274 1.033203,-32.34961 0.575971,-0.57597 3.33049,-0.9571 12.728516,-1.76367 2.475,-0.21242 5.0625,0.0632 5.75,0.61328 0.835981,0.66888 1.664019,0.66024 2.5,-0.0293 1.110348,-0.91586 24.42447,-1.88447 32.25,-1.33984 1.65,0.11484 18.12569,0.40576 36.61328,0.64648 18.48759,0.24072 34.35676,0.7223 35.26367,1.07032 0.90692,0.34801 2.2979,0.0925 3.0918,-0.56641 0.7939,-0.65889 1.91448,-0.90661 2.49023,-0.55078 1.41098,0.87201 236.58053,0.84282 393.25977,-0.0488 96.97661,-0.55191 127.05565,-0.44242 128.14648,0.46289 1.60316,1.3305 68.71415,0.99129 71.89844,-0.36328 1.01369,-0.43122 2.38838,-0.22913 3.23633,0.47461 0.85531,0.70984 2.21384,0.90512 3.23633,0.46484 1.31612,-0.56671 23.83271,-0.8056 28.15429,-0.29882 0.33494,0.0393 1.05938,-0.01 1.60938,-0.10938 0.55,-0.0995 24.175,-0.20222 52.5,-0.22852 28.325,-0.0263 54.59752,-0.43922 58.38281,-0.91601 3.78529,-0.47678 7.38529,-0.54732 8,-0.15625 z M 801,372.5 c -0.55,-0.33992 -1,0.084 -1,0.94141 0,0.85746 0.45,1.55859 1,1.55859 0.55,0 1,-0.42387 1,-0.94141 0,-0.51754 -0.45,-1.21867 -1,-1.55859 z m -63.82422,26.5293 c 0.52894,-0.0968 0.89568,0.25827 0.5957,1.1582 -0.2177,0.65312 -0.93048,1.36615 -1.58398,1.58398 -0.73075,0.24358 -0.95576,-0.21359 -0.58203,-1.1875 0.34876,-0.90885 1.04138,-1.4579 1.57031,-1.55468 z M 182.94141,419 c 0.51754,0 1.21867,0.45 1.55859,1 0.33992,0.55 -0.0839,1 -0.94141,1 C 182.70113,421 182,420.55 182,420 c 0,-0.55 0.42387,-1 0.94141,-1 z m 8.5,1 c 1.95746,0 3.55859,0.45 3.55859,1 0,0.55 -1.32387,1 -2.94141,1 -1.61754,0 -3.21867,-0.45 -3.55859,-1 -0.3678,-0.59512 0.82338,-1 2.94141,-1 z M 179.5,421 c 0.825,0 1.5,0.45 1.5,1 0,0.55 -0.675,1 -1.5,1 -0.825,0 -1.5,-0.45 -1.5,-1 0,-0.55 0.675,-1 1.5,-1 z m 1559,6 c 0.825,0 1.5,0.45 1.5,1 0,0.55 -0.675,1 -1.5,1 -0.825,0 -1.5,-0.45 -1.5,-1 0,-0.55 0.675,-1 1.5,-1 z m -219.0996,0.40039 c 1.6477,-0.63227 4.5996,1.11521 4.5996,2.72266 0,1.4411 -3.659,0.99266 -4.9902,-0.61133 -1.0007,-1.20582 -0.9264,-1.60596 0.3906,-2.11133 z M 61.8125,443.31641 c 0.721875,-0.28891 1.583724,-0.25225 1.916016,0.0801 0.332291,0.33229 -0.258334,0.56879 -1.3125,0.5254 -1.164943,-0.048 -1.401249,-0.28625 -0.603516,-0.60547 z m -15.226562,4.65234 c 6.49978,-0.16571 16.791303,0.0326 34.410156,0.50195 27.230496,0.72542 43.274876,0.9218 46.999996,0.57813 1.4074,-0.12984 85.16769,0.76857 138.5,1.48437 13.2,0.17716 30.525,0.57713 38.5,0.89063 7.975,0.31345 15.175,0.27929 16,-0.0762 0.825,-0.35542 9.825,-0.4722 20,-0.25977 20.6505,0.43112 40.40703,0.48028 65,0.16016 40.88723,-0.53222 615.69091,0.65901 617.26171,1.27929 0.9695,0.38282 2.3195,0.25938 3,-0.27539 0.7322,-0.57539 3.8949,-0.68375 7.7481,-0.26562 4.9536,0.5376 21.9257,0.55544 25.9902,0.0273 0.275,-0.0357 15.125,0.0135 33,0.11133 17.875,0.0978 33.625,0.12196 35,0.0527 1.375,-0.0692 86.4765,-0.25716 189.1152,-0.41796 147.1587,-0.23054 186.9333,-0.55648 188.1172,-1.53907 1.2134,-1.007 1.7448,-0.95311 2.7676,0.2793 1.0837,1.30577 5.3072,1.50903 29.3828,1.4082 15.4644,-0.0648 28.7922,-0.073 29.6172,-0.0176 0.825,0.0554 17.25,-0.29096 36.5,-0.76953 53.3653,-1.3267 312.2234,-1.37515 313.0371,-0.0586 0.365,0.59048 1.2658,0.84426 2,0.5625 0.7343,-0.28176 2.4497,0.36354 3.8125,1.43555 l 2.4785,1.94922 0.01,51.3164 c 0,28.22414 -0.3011,51.81365 -0.6758,52.41992 -0.3747,0.60627 -4.9515,1.51791 -10.1699,2.02539 -7.6455,0.74352 -378.8816,1.6171 -472.9883,1.11329 -12.375,-0.0662 -23.175,-0.0572 -24,0.0195 -0.825,0.0767 -28.9153,0.34528 -62.4219,0.59765 -43.5562,0.32806 -61.2997,0.14408 -62.25,-0.64453 -0.9423,-0.78207 -1.7017,-0.79204 -2.6113,-0.0371 -1.084,0.89963 -38.6668,1.62602 -75.2168,1.45508 -3.3,-0.0154 -18.375,-0.0998 -33.5,-0.1875 -66.0357,-0.38275 -81.8627,-0.32943 -146,0.48828 -25.575,0.32606 -47.625,0.60218 -49,0.61328 -1.375,0.011 -38.16287,-0.30675 -81.75,-0.70703 -59.18794,-0.54356 -79.59993,-0.43696 -80.63477,0.42188 -1.046,0.86807 -2.5005,0.85041 -5.93554,-0.0684 -3.52931,-0.94391 -5.13623,-0.94843 -7.16211,-0.0254 h -0.004 c -3.04435,1.3871 -3.59684,1.42694 -5.24023,0.38281 -0.67185,-0.42687 -8.54685,-0.88501 -17.5,-1.01758 -21.513,-0.31854 -170.44833,-1.23126 -178.77735,-1.0957 -3.575,0.0582 -8.3,0.13472 -10.5,0.16992 -2.2,0.0352 -5.35,-0.0585 -7,-0.20703 -2.65799,-0.23927 -11.86118,-0.26288 -49,-0.12891 -17.66961,0.0637 -316.7972,0.80483 -322.5,0.79883 -3.025,-0.003 -10.45,-0.0134 -16.5,-0.0234 -22.44921,-0.0353 -139.433216,0.18536 -151.394528,0.28516 -10.959158,0.0914 -12.638389,-0.12179 -14.5,-1.83594 -1.157991,-1.06628 -2.961949,-2.09665 -4.007812,-2.28906 -1.837045,-0.33796 -1.90943,-2.17137 -2.154297,-54.0293 l -0.253906,-53.67969 3.740234,-1.49609 c 2.451901,-0.98106 5.160376,-1.51007 11.660157,-1.67578 z m 992.263662,15.65234 c -0.4244,0.32109 -0.6482,0.89465 -0.3066,1.44727 0.3164,0.51199 0.9981,0.93164 1.5156,0.93164 1.0751,0 1.2535,-1.35585 0.3027,-2.30664 -0.4617,-0.4617 -1.0873,-0.39332 -1.5117,-0.0723 z M 58.917969,565 C 60.648271,565 63,566.21425 63,567.10742 c 0,0.93336 -0.369267,0.95595 -3.25,0.20313 C 57.946201,566.83917 57.283855,565 58.917969,565 Z M 190,578 c 0.55,0 1,0.45 1,1 0,0.55 -0.45,1 -1,1 -0.55,0 -1,-0.45 -1,-1 0,-0.55 0.45,-1 1,-1 z m -141,1 c 0.55,0 1,0.45 1,1 0,0.55 -0.45,1 -1,1 -0.55,0 -1,-0.45 -1,-1 0,-0.55 0.45,-1 1,-1 z m 1780.9414,9 c 0.5824,0 1.0586,0.45 1.0586,1 0,0.55 -0.1988,1 -0.4414,1 -0.2425,0 -0.7187,-0.45 -1.0586,-1 -0.3399,-0.55 -0.1411,-1 0.4414,-1 z m -382.0762,1 c 1.114,0 3.6042,4.86462 2.8672,5.60156 -0.3324,0.33238 -0.1946,1.68352 0.3067,3.00196 1.0055,2.64464 -0.1265,3.19993 -1.9766,0.9707 C 1447.6823,596.91123 1446.6929,589 1447.8652,589 Z m -1271.30661,5 c 0.24254,0 0.44141,0.45 0.44141,1 0,0.55 -0.47613,1 -1.05859,1 -0.58246,0 -0.78133,-0.45 -0.44141,-1 0.33992,-0.55 0.81605,-1 1.05859,-1 z M 171.5,595 c 0.825,0 1.5,0.45 1.5,1 0,0.55 -0.675,1 -1.5,1 -0.825,0 -1.5,-0.45 -1.5,-1 0,-0.55 0.675,-1 1.5,-1 z m 1415,7 c 0.825,0 1.5,0.42387 1.5,0.94141 0,1.26098 -1.5624,2.16416 -2.3613,1.36523 C 1584.5125,603.18045 1584.9536,602 1586.5,602 Z M 35.082031,615.27344 c 3.735724,-0.14446 10.800317,0.006 24.167969,0.33594 15.5375,0.3834 80.12803,0.81147 143.53516,0.95117 77.66466,0.17112 115.69257,0.5914 116.5332,1.28906 0.77416,0.6425 1.80504,0.68997 2.71484,0.125 1.25702,-0.78058 206.57962,-1.64274 213.9668,-0.89844 3.36942,0.33948 20.09263,0.28581 49.5,-0.1582 2.75,-0.0415 5.9,-0.0109 7,0.0664 8.44203,0.59304 62.12425,0.97997 63.39258,0.45703 1.59981,-0.6596 19.52568,-0.61531 36.5332,0.0898 4.90892,0.20354 9.32727,0.12187 9.81836,-0.18164 1.2479,-0.77124 29.99664,-0.57865 32.06445,0.21484 0.93061,0.35711 2.47891,0.30398 3.44141,-0.11718 0.9625,-0.42121 2.2,-0.61748 2.75,-0.4375 0.55,0.17998 101.575,0.38513 224.5,0.45703 122.925,0.0719 227.775,0.25977 233,0.41601 5.225,0.15625 15.8,0.27844 23.5,0.27344 43.8315,-0.0299 64.0573,0.38444 64.7344,1.32422 0.4531,0.62885 0.74,0.49667 0.75,-0.34375 0.012,-1.0981 1.847,-1.23886 9.4453,-0.73047 6.2171,0.41598 9.6526,0.2684 10.084,-0.42969 0.3599,-0.58235 1.5235,-0.78248 2.5859,-0.44531 1.0623,0.33718 3.4909,0.0996 5.3965,-0.5293 1.9057,-0.62891 4.0362,-0.77654 4.7344,-0.32812 0.6983,0.44841 5.5445,0.86774 10.7695,0.93164 18.3805,0.22469 26.0006,0.76095 26.0156,1.83398 0.01,0.69256 0.2701,0.71375 0.75,0.0606 0.4041,-0.55 2.3094,-1 4.2344,-1 1.925,0 5.297,-0.29724 7.4922,-0.66016 2.1953,-0.36294 4.4145,-0.39694 4.9336,-0.0762 1.7106,1.05727 23.0215,0.13153 23.7402,-1.03125 0.4867,-0.78751 1.1178,-0.7422 2.2051,0.16016 1.2162,1.00939 32.2987,1.23213 153.8262,1.09961 270.4581,-0.29494 352.5136,0.0582 363.5195,1.56445 9.2452,1.26525 8.662,-2.44844 8.5254,54.21289 l -0.1192,49.71094 -3.7519,3.00976 -3.752,3.00977 -123.0605,-0.32031 C 1726.876,729.00387 1656.2,728.67958 1637.5,728.45898 c -80.3264,-0.94759 -157.164,-1.1194 -159.2148,-0.35742 -1.218,0.45259 -2.4385,0.45775 -2.7129,0.0137 -0.5541,-0.89651 -90.1988,-0.33719 -114.5723,0.71485 -8.525,0.36795 -18.6578,0.35387 -22.5176,-0.0312 -3.8598,-0.38517 -9.2037,-0.38517 -11.875,0 -2.6712,0.38515 -12.9987,0.37021 -22.9492,-0.0332 -9.9505,-0.40338 -18.4654,-0.35678 -18.9238,0.10157 -0.4583,0.45834 -2.8752,0.36563 -5.3692,-0.20508 -3.0111,-0.68902 -5.0932,-0.70494 -6.1992,-0.0469 -0.916,0.54507 -3.3342,0.70292 -5.373,0.35157 -2.0389,-0.3513 -4.2077,-0.32785 -4.8203,0.0508 -0.6126,0.3786 -2.9945,0.32397 -5.293,-0.1211 -2.2986,-0.44508 -12.528,-0.82951 -22.7305,-0.85351 -11.2962,-0.0265 -18.9473,0.35356 -19.5664,0.97265 -0.5591,0.55917 -1.3615,0.67166 -1.7832,0.25 -0.4218,-0.42166 -78.242,-0.85499 -172.9336,-0.96484 -191.58331,-0.22223 -175.926,-0.18 -180.666,-0.48437 -4.14483,-0.26611 -14.92154,-0.28012 -24,-0.0293 -5.74076,0.1586 -434.91953,-0.21697 -658,-0.57617 -45.375,-0.0731 -84.75,0.0736 -87.5,0.32617 -7.806243,0.71685 -43.401716,0.6875 -49.3125,-0.041 -3.654277,-0.45042 -5.493459,-1.17711 -5.894531,-2.32617 -0.320655,-0.91866 -1.474542,-2.38963 -2.564453,-3.26953 -1.768288,-1.42757 -1.972262,-2.77347 -1.888672,-12.5 0.09793,-11.3958 0.09204,-65.0122 -0.0098,-81.40039 -0.03245,-5.225 -0.0085,-10.30825 0.05469,-11.29492 0.05438,-0.84888 0.461541,-1.28719 4.197265,-1.43164 z M 1312,619 c -0.55,0 -1,0.45 -1,1 0,0.55 0.45,1 1,1 0.55,0 1,-0.45 1,-1 0,-0.55 -0.45,-1 -1,-1 z m 3.2695,0.30664 c -0.9729,0.25354 -0.4195,0.47765 1.2305,0.49805 1.65,0.0204 2.4466,-0.18701 1.7695,-0.46094 -0.677,-0.27397 -2.027,-0.29066 -3,-0.0371 z m -255.4414,131.30078 c 1.3429,-0.83 8.1982,0.5416 7.5938,1.51953 -0.7212,1.16704 -7.151,1.1192 -7.8789,-0.0586 -0.3164,-0.512 -0.188,-1.16857 0.2851,-1.46094 z M 590,751 c 0.55,0 1,0.45 1,1 0,0.55 -0.45,1 -1,1 -0.55,0 -1,-0.45 -1,-1 0,-0.55 0.45,-1 1,-1 z m 465,0 c 0.55,0 1,0.45 1,1 0,0.55 -0.45,1 -1,1 -0.55,0 -1,-0.45 -1,-1 0,-0.55 0.45,-1 1,-1 z m -912.07617,26.7832 c 58.39126,0.045 123.20663,0.43174 149.57617,1.12305 13.75,0.3605 25.32434,0.51086 25.7207,0.33398 0.6675,-0.29788 89.2793,-0.41613 89.2793,-0.11914 0,0.0734 47.475,0.24851 105.5,0.38868 117.29868,0.28338 181.69369,0.95859 184.08398,1.93164 2.12075,0.86332 26.12483,0.16593 27.69532,-0.80469 0.68131,-0.42106 2.02289,-0.52813 2.98047,-0.23828 2.04093,0.61777 5.22563,0.69132 31.24023,0.73242 10.725,0.0169 24,0.0666 29.5,0.10937 5.5,0.0428 11.8,-0.022 14,-0.14453 2.2,-0.1225 15.7882,0.0587 30.19531,0.4043 16.44935,0.39459 26.87554,0.26382 28.02539,-0.35156 1.04844,-0.56111 2.48217,-0.61459 3.35352,-0.12696 0.83698,0.4684 24.89883,1.0748 53.47266,1.34766 28.57381,0.27286 56.42369,0.76551 61.88867,1.0957 5.91249,0.35722 11.13611,0.18271 12.89843,-0.43164 1.96039,-0.68335 3.36595,-0.69692 4.15625,-0.041 0.65669,0.545 1.50003,0.68356 1.875,0.30859 0.37496,-0.37493 32.50867,-0.58272 71.40817,-0.46094 147.8794,0.46298 303.7853,1.07955 305.2266,1.20704 1.4135,0.125 67.211,0.1502 71.5,0.0273 1.1,-0.0315 7.4,0.0245 14,0.12305 6.6,0.0986 13.8,0.13484 16,0.0801 2.2,-0.0544 8.5,-0.0835 14,-0.0625 5.5,0.0212 11.125,0.02 12.5,-0.004 41.7705,-0.72362 69.7362,-0.69298 70.75,0.0801 0.7972,0.60789 1.7028,0.5915 2.5,-0.0449 0.743,-0.59316 11.5938,-1.07462 26.75,-1.18945 14.025,-0.10625 26.625,-0.20676 28,-0.22266 10.7047,-0.12338 57.3737,1.28009 58.1309,1.74805 0.5258,0.32497 1.4987,0.1956 2.1621,-0.28711 0.6634,-0.48271 6.4382,-0.6338 12.832,-0.33594 6.3938,0.29782 15.3938,0.28842 20,-0.0215 4.6062,-0.30989 8.8364,-0.22672 9.4004,0.18555 0.5641,0.41227 42.4141,0.63974 93,0.50586 50.586,-0.13387 92.9298,0.0863 94.0976,0.49023 1.1678,0.40388 2.4238,1.93274 2.7911,3.39648 0.6119,2.43796 0.783,81.06571 0.1914,87.98438 -0.1411,1.65 -0.3357,4.14662 -0.4317,5.54688 l -0.1738,2.54492 -40.5215,-0.40039 c -30.0616,-0.29716 -40.8861,-0.0976 -41.9355,0.77343 -0.9966,0.82705 -1.9783,0.87164 -3.3223,0.15235 -2.1677,-1.16011 -79.5557,-0.78084 -82.5019,0.40429 -0.9795,0.39401 -3.1911,0.4349 -4.9161,0.0898 -1.725,-0.34501 -24.5808,-0.64236 -50.789,-0.66016 -26.2082,-0.0178 -49.4198,0.24883 -51.5821,0.59375 -2.1623,0.34489 -4.1764,0.37995 -4.4765,0.0781 -0.3002,-0.30179 -6.1274,-0.66066 -12.9473,-0.79883 l -12.3984,-0.25195 -3.1621,-3.53516 c -1.7393,-1.94502 -5.3138,-6.23711 -7.9414,-9.53711 -2.6276,-3.3 -6.3542,-7.57537 -8.2813,-9.5 -1.9272,-1.92463 -4.5369,-4.85464 -5.8008,-6.51172 -4.9892,-6.54115 -12.0741,-13.29131 -14.9238,-14.21875 -1.65,-0.53699 -10.875,-0.86844 -20.5,-0.73633 -43.7741,0.60081 -97.5548,1.72248 -98.0996,2.04492 -0.33,0.19529 -9.6004,0.41228 -20.5996,0.48438 -10.9991,0.072 -20.6129,0.51152 -21.3653,0.97656 -0.7928,0.48998 -1.904,0.40196 -2.6425,-0.21094 -0.706,-0.58595 -2.7276,-0.77916 -4.5332,-0.43164 -6.3579,1.22365 -9.7509,1.42466 -10.2559,0.60743 -0.2815,-0.45536 -1.7477,-0.67527 -3.2578,-0.49024 -1.5101,0.18504 -14.4461,0.41117 -28.7461,0.50195 -14.3,0.0908 -26.45,0.48976 -27,0.88868 -0.55,0.39895 -5.95,0.41045 -12,0.0254 -6.05,-0.38513 -13.025,-0.37097 -15.5,0.0312 -2.475,0.40226 -21.0794,0.68741 -41.3438,0.63281 -20.2641,-0.0546 -37.0165,0.17779 -37.2265,0.51758 -0.21,0.33979 -1.6304,0.40746 -3.1563,0.15039 -1.5259,-0.25703 -5.6984,-0.39379 -9.2734,-0.30469 -3.575,0.0891 -34.625,0.36751 -69,0.61914 -49.7895,0.36448 -83.4831,1.26903 -86.8008,2.32813 -0.1656,0.0528 -0.9531,1.65517 -1.75,3.5625 -0.9583,2.29336 -1.4509,7.11964 -1.4609,14.25 -0.01,5.93017 -0.2878,12.46172 -0.627,14.51367 l -0.6172,3.73047 -46.6211,-0.48047 c -25.64218,-0.26409 -51.348,-0.86685 -57.123,-1.33985 -5.775,-0.47297 -60,-0.70611 -120.5,-0.51757 -403.74271,1.25815 -657.59698,1.33302 -659.42188,0.19336 -1.33068,-0.83104 -2.32148,-0.88256 -3.24609,-0.16797 -0.805,0.62215 -4.02298,0.78486 -8.13867,0.41211 -3.74326,-0.33903 -6.9664,-0.45351 -7.16406,-0.25586 -0.65184,0.65185 -109.839891,0.28908 -118.7793,-0.39453 -5.25693,-0.40201 -8.804319,-1.11558 -8.886719,-1.78907 -0.215385,-1.76054 -0.752364,-51.67479 -0.833984,-77.54882 -0.04223,-13.38798 0.328354,-23.83031 0.865234,-24.36719 0.670451,-0.67045 52.638035,-0.96692 111.029299,-0.92188 z M 1383.0586,779 c 0.5825,0 0.7813,0.45 0.4414,1 -0.3399,0.55 -0.8161,1 -1.0586,1 -0.2426,0 -0.4414,-0.45 -0.4414,-1 0,-0.55 0.4762,-1 1.0586,-1 z M 1546,847.49414 h 0 0 c 17.9364,-0.50741 27.1625,0.59483 30.5606,3.65039 1.1354,1.02102 2.4118,1.85547 2.8359,1.85547 1.1306,0 11.4433,11.07935 13.0332,14.00195 0.7485,1.37588 4.5564,5.54395 8.4629,9.26172 3.9066,3.71777 7.1035,7.21907 7.1035,7.78125 0,1.53731 6.1208,7.28527 9.2422,8.67969 1.6567,0.74005 3.4329,2.81832 4.4863,5.25 1.1083,2.55806 2.398,4.02539 3.5391,4.02539 0.9875,0 2.0837,0.7875 2.4375,1.75 0.3537,0.9625 1.2397,2.109 1.9687,2.54883 0.729,0.43983 1.3262,1.42954 1.3262,2.19922 0,0.76968 1.4659,2.51796 3.2578,3.88476 1.792,1.36681 5.5045,5.29046 8.25,8.71875 2.7456,3.4283 6.4547,7.59091 8.2422,9.25 1.7875,1.65908 3.25,3.53767 3.25,4.17578 0,1.25458 7.9216,9.47266 9.1309,9.47266 0.4044,0 1.0028,0.84829 1.332,1.88672 0.3293,1.03734 3.9606,5.24765 8.0683,9.35547 4.108,4.10783 7.4688,7.80751 7.4688,8.2207 0,1.5362 6.2196,8.53906 7.584,8.53906 0.7788,0 1.416,0.42095 1.416,0.9375 0,0.51655 1.6875,2.96477 3.75,5.43946 3.4784,4.17357 8.3893,10.80671 10.75,14.51953 0.55,0.86501 1.7932,2.17164 2.7637,2.90429 0.9705,0.73265 2.455,2.98985 3.2968,5.01567 0.8418,2.0257 3.714,5.9336 6.3829,8.6836 2.6689,2.75 5.791,6.8814 6.9394,9.1816 1.1485,2.3001 2.5457,4.4638 3.1035,4.8086 0.5579,0.3447 1.0137,1.4484 1.0137,2.4531 0,1.0047 0.6725,3.116 1.4941,4.6914 0.8217,1.5754 1.5,3.8496 1.5,5.0547 0,1.205 0.3973,2.4333 0.875,2.7285 0.4778,0.2953 1.1547,2.3236 1.5039,4.5078 0.3493,2.1842 1.5888,5.5902 2.7559,7.5684 1.9752,3.3477 2.0715,4.4382 1.3965,15.748 -0.3989,6.683 -1.1726,13.2988 -1.7207,14.7032 -0.548,1.4044 -1.6484,5.0164 -2.4453,8.0254 -0.7969,3.0089 -2.0614,6.1589 -2.8106,7 -0.7492,0.841 -1.8565,3.381 -2.459,5.6445 -1.0946,4.1127 -4.2106,8.7605 -10.3378,15.4199 -1.7891,1.9445 -3.911,4.7953 -4.7168,6.3359 -0.8059,1.5405 -3.1684,4.1502 -5.25,5.7989 -2.1441,1.6981 -3.7852,3.8737 -3.7852,5.0195 0,1.1499 -3.0202,5.1378 -7,9.2422 -3.85,3.9705 -7,7.7464 -7,8.3906 0,0.6443 -1.4858,2.8597 -3.3027,4.9238 -1.8169,2.0641 -4.6294,5.5898 -6.25,7.834 -2.5458,3.5256 -12.2467,14.7982 -17.6973,20.5664 -0.9625,1.0186 -1.7498,2.1911 -1.7598,2.6036 -0.012,0.8899 -5.4816,8.0763 -10.5722,13.8906 -1.9942,2.2778 -4.141,5.0588 -4.7715,6.1797 -1.9368,3.4432 -12.7404,17.3972 -17.5723,22.6972 -2.5162,2.76 -6.1492,6.9714 -8.0742,9.3594 -1.925,2.3879 -4.85,5.774 -6.5,7.5234 -4.6894,4.972 -12.8752,14.5649 -17.5781,20.5997 -2.3574,3.025 -4.5678,5.725 -4.9121,6 -0.3443,0.275 -1.3816,1.6038 -2.3047,2.9531 -0.9232,1.3493 -4.7215,5.622 -8.4414,9.4961 l -6.7637,7.0449 -15.5,0.7109 c -8.525,0.3917 -17.6257,0.9304 -20.2246,1.1973 -2.5989,0.2668 -4.9896,0.061 -5.3106,-0.459 -0.8235,-1.3324 -6.8328,-1.1769 -8.2226,0.2129 -0.8768,0.8764 -1.5205,0.8574 -2.6524,-0.082 -0.8219,-0.6823 -2.4102,-0.9496 -3.5312,-0.5938 -1.1211,0.3558 -6.431,0.6333 -11.7988,0.6153 -5.3678,-0.018 -12.6848,-0.033 -16.2598,-0.043 -3.575,-0.01 -9.7874,0.4954 -13.8047,1.1133 -5.4667,0.8404 -7.5915,0.8357 -8.4492,-0.021 -1.4144,-1.4144 -5.99,-1.5022 -7.3516,-0.1406 -0.6448,0.6448 -2.6984,0.6892 -5.7187,0.125 -2.5919,-0.4843 -4.9049,-0.5698 -5.1387,-0.1914 -0.2339,0.3784 -4.3871,0.519 -9.2305,0.3125 -4.8434,-0.2083 -9.9316,-0.301 -11.3066,-0.209 -3.2102,0.2147 -6.0754,0.2121 -19.5,-0.018 -6.05,-0.1033 -13.25,0.074 -16,0.3945 -4.1901,0.4877 -24.6621,0.8057 -52,0.8067 -7.5679,2e-4 -20.5095,0.049 -31.5,0.1211 -8.5329,0.056 -28.195,-0.073 -31,-0.2032 -0.825,-0.038 -7.2648,0.037 -14.3105,0.166 -7.0458,0.1293 -13.0086,0.036 -13.252,-0.207 -0.4461,-0.446 -116.6362,-1.4278 -132.4375,-1.1191 -4.675,0.091 -16.6216,-0.1383 -26.5488,-0.5098 l -18.0508,-0.6758 -2.2031,-3.2148 -2.2032,-3.2149 0.098,-65.9355 c 0.053,-36.2637 -0.045,-70.8836 -0.2148,-76.9336 -0.1744,-6.05 -0.2479,-13.25 -0.1739,-16 0.074,-2.75 0.067,-9.05 -0.014,-14 -0.1357,-8.2841 -0.1293,-19.3758 0.057,-88 0.039,-13.2 0.044,-35.025 0.012,-48.5 -0.1368,-57.27446 0.889,-122.0433 1.9512,-123.10547 0.6303,-0.63033 6.4258,-1.18682 13.9375,-1.33789 7.0717,-0.14221 13.6097,-0.58508 14.5293,-0.98437 0.9195,-0.39929 2.6362,-0.2106 3.8144,0.41992 1.6013,0.85705 2.4873,0.85982 3.5118,0.01 0.9712,-0.80604 3.5737,-0.88134 8.9316,-0.25781 4.1585,0.48395 8.0999,0.5472 8.7578,0.14063 1.7371,-1.07364 59.7211,-0.843 60.3906,0.24023 0.3084,0.49907 0.987,0.64344 1.5098,0.32031 1.5609,-0.9647 15.2935,-1.84641 25.4121,-1.63086 2.75,0.0586 7.7,0.0588 11,0 3.3,-0.0588 10.5,0.0967 16,0.34375 5.5,0.24709 13.9989,0.0968 18.8867,-0.33398 5.8099,-0.51198 10.4236,-0.39789 13.3223,0.33203 3.3837,0.85202 5.3287,0.82035 8.2168,-0.13281 2.7401,-0.90431 4.3357,-0.95512 5.7773,-0.1836 1.4192,0.75951 2.3057,0.75295 3.086,-0.0273 0.7931,-0.79305 2.7831,-0.76406 7.2226,0.10938 4.0393,0.79465 6.532,0.87232 7.3125,0.2246 1.355,-1.1246 20.1234,-1.03333 21.2598,0.10352 0.9745,0.97483 8.8575,0.97483 9.832,0 0.4123,-0.4125 6.9011,-0.82888 14.418,-0.92578 7.5168,-0.0969 20.493,-0.37055 28.8379,-0.60742 8.3449,-0.23686 15.6413,-0.14236 16.2129,0.21093 0.5716,0.35329 5.2176,0.30531 10.3261,-0.10742 8.8729,-0.71685 37.6808,-1.59251 68.7891,-2.09179 7.975,-0.128 14.95,-0.52278 15.5,-0.87696 0.55,-0.35419 3.4255,-0.25889 6.3887,0.21289 3.2957,0.52473 6.0854,0.48435 7.1875,-0.10547 1.1673,-0.62475 2.0181,-0.61713 2.414,0.0234 0.4517,0.73097 5.0098,0.77904 5.0098,0.0527 0,-0.21196 20.9419,-1.07242 37.4961,-1.54102 z M 380.8125,888.31641 c 0.72187,-0.28891 1.58373,-0.25225 1.91602,0.0801 0.33229,0.33229 -0.25834,0.56879 -1.3125,0.5254 -1.16495,-0.048 -1.40125,-0.28625 -0.60352,-0.60547 z M 207,889 c 0.55,0 1,0.45 1,1 0,0.55 -0.45,1 -1,1 -0.55,0 -1,-0.45 -1,-1 0,-0.55 0.45,-1 1,-1 z m 416.96875,3.5293 c 0.55113,0.12734 1.03125,0.50155 1.03125,1.02929 0,0.24254 -0.70113,0.44141 -1.55859,0.44141 -0.8575,0 -1.2771,-0.45666 -0.93164,-1.01562 0.2854,-0.46181 0.90785,-0.58243 1.45898,-0.45508 z M 837.58398,906 c 0.87084,0 1.40521,0.53437 1.1875,1.1875 C 838.15341,909.04172 836,909.34991 836,907.58398 836,906.71315 836.71315,906 837.58398,906 Z M 86.929688,937.74805 c 37.156352,-0.0466 93.406102,0.12626 170.570312,0.51757 83.05,0.42117 198.925,0.97719 257.5,1.23438 58.575,0.2572 127.39096,0.65356 152.92383,0.88281 32.44906,0.29134 46.94797,0.09 48.16797,-0.67187 1.17707,-0.7351 2.17843,-0.76404 3.07617,-0.0879 2.00607,1.51092 13.70597,1.72705 15.44336,0.28515 1.11611,-0.92628 1.75404,-0.94322 2.63086,-0.0664 1.678,1.67804 40.89872,1.61689 42.58203,-0.0664 0.96661,-0.96658 1.65297,-0.95834 3.25,0.0391 2.37859,1.48545 57.56209,1.58316 58.47656,0.10352 0.29783,-0.48191 1.43411,-0.32468 2.52539,0.35156 1.61211,0.99897 2.15313,0.96141 2.87891,-0.20508 0.7375,-1.18533 1.16474,-1.20923 2.45703,-0.13672 1.04748,0.86933 2.78983,1.06993 5.26562,0.60547 2.03476,-0.38173 35.5752,-0.86368 74.53516,-1.07031 38.95996,-0.20662 71.24021,-0.62549 71.73241,-0.92969 0.961,-0.59395 49.1742,0.2773 52.5371,0.94922 1.1098,0.22175 3.5926,0.65323 5.5176,0.95899 l 3.5,0.55468 -0.1445,48.0625 c -0.079,26.43421 -0.4514,48.37131 -0.8282,48.74801 -0.6463,0.6463 -1013.749103,1.0349 -1023.697222,0.3926 -2.584629,-0.1669 -5.222762,-0.9675 -5.90625,-1.791 -1.491719,-1.7974 -2.469815,-96.95264 -1.005859,-97.85742 0.791467,-0.48915 18.855361,-0.7561 56.011719,-0.80273 z M 1791,939.00781 c 0.825,0.0762 30.188,0.24096 65.25,0.36524 49.501,0.17546 64.0288,0.50562 65,1.47851 1.59,1.59272 1.6075,1.96023 2.1699,43.14844 0.5347,39.1528 -0.2085,54.2183 -2.8047,56.8105 -1.5618,1.5595 -8.4979,1.6895 -90.6992,1.6895 -54.8796,0 -89.3748,-0.3635 -89.9629,-0.9492 -0.5246,-0.5225 -0.9528,-1.6475 -0.9531,-2.5 -5e-4,-1.5836 -2.9946,-10.1583 -5.4297,-15.5508 -4.5991,-10.1845 -5.7909,-12.5173 -6.6699,-13.0605 -0.5399,-0.3337 -2.0324,-2.2572 -3.3164,-4.2735 -1.2839,-2.0162 -3.6278,-5.1064 -5.209,-6.86717 -1.5813,-1.76083 -4.9,-5.73977 -7.375,-8.8418 -5.713,-7.16031 -13.623,-16.22549 -16.9785,-19.45703 -1.4277,-1.375 -6.2234,-6.99946 -10.6563,-12.5 -4.433,-5.50053 -8.804,-10.61874 -9.7129,-11.37305 C 1672.7434,946.37264 1672,945.19031 1672,944.5 c 0,-3.53968 2.1924,-3.72183 47.2383,-3.91797 29.3479,-0.12778 44.9356,-0.55557 46.2617,-1.26953 1.3148,-0.70787 4.0556,-0.79072 8,-0.24219 3.3,0.45891 8.25,0.60115 11,0.31641 2.75,-0.28477 5.675,-0.45511 6.5,-0.37891 z M 68,1043 c 0.55,0 1,0.675 1,1.5 0,0.825 -0.45,1.5 -1,1.5 -0.55,0 -1,-0.675 -1,-1.5 0,-0.825 0.45,-1.5 1,-1.5 z m 453.61133,9.0957 c 0.97686,-0.31 2.29594,-0.2232 3.66211,0.3535 1.52549,0.6439 2.46363,1.4817 2.08398,1.8613 -1.00728,1.0073 -7.35742,0.8455 -7.35742,-0.1875 0,-1.0103 0.63447,-1.7172 1.61133,-2.0273 z m -409.14063,35.9238 c 2.28213,0.04 4.6578,0.3794 5.0293,0.9805 0.35916,0.5811 -0.62919,1 -2.35938,1 -1.63746,0 -3.6001,0.2393 -4.36132,0.5312 -1.44189,0.5535 -2.7793,-0.2631 -2.7793,-1.6972 0,-0.5946 2.18858,-0.8545 4.4707,-0.8145 z m 13.79883,1.2871 c 0.97297,-0.2536 2.32297,-0.2366 3,0.037 0.67703,0.2737 -0.11953,0.4809 -1.76953,0.4609 -1.65,-0.02 -2.20344,-0.2445 -1.23047,-0.4981 z M 432.05859,1100 c 0.58246,0 0.78133,0.45 0.44141,1 -0.33992,0.55 -0.81605,1 -1.05859,1 -0.24254,0 -0.44141,-0.45 -0.44141,-1 0,-0.55 0.47613,-1 1.05859,-1 z m -185.24609,0.3164 c 0.72187,-0.2888 1.58372,-0.2521 1.91602,0.08 0.33229,0.3323 -0.25834,0.5684 -1.3125,0.5254 -1.16495,-0.048 -1.40125,-0.2863 -0.60352,-0.6055 z M 651.44141,1102 c 0.79254,0 1.71867,0.45 2.05859,1 0.33992,0.55 -0.30895,1 -1.44141,1 -1.13246,0 -2.05859,-0.45 -2.05859,-1 0,-0.55 0.64887,-1 1.44141,-1 z M 693,1102 c 2.49071,0 3.87381,0.3952 3.5,1 -0.33992,0.55 -1.91492,1 -3.5,1 -1.58508,0 -3.16008,-0.45 -3.5,-1 -0.37381,-0.6048 1.00929,-1 3.5,-1 z m 25.11719,0 c 2.23286,0 3.74515,0.4145 3.42187,0.9375 -0.31852,0.5154 -2.36352,0.9109 -4.54492,0.8809 -2.18139,-0.03 -3.72178,-0.4503 -3.42187,-0.9356 0.29991,-0.4853 2.34492,-0.8828 4.54492,-0.8828 z m 7.4414,0 c 0.85748,0 1.28133,0.45 0.94141,1 -0.33992,0.55 -1.04105,1 -1.55859,1 -0.51754,0 -0.94141,-0.45 -0.94141,-1 0,-0.55 0.70113,-1 1.55859,-1 z m 11.94141,0 c 0.825,0 1.5,0.45 1.5,1 0,0.55 -0.675,1 -1.5,1 -0.825,0 -1.5,-0.45 -1.5,-1 0,-0.55 0.675,-1 1.5,-1 z m -73.40234,0.2656 c 3.5252,-0.1048 6.90234,0.083 6.90234,0.6582 0,0.6754 -2.85689,1.0762 -7.66602,1.0762 -4.21666,0 -7.37933,-0.2886 -7.02734,-0.6406 0.59252,-0.5925 4.26581,-0.989 7.79102,-1.0938 z m 65.71484,0.051 c 0.72187,-0.2888 1.58373,-0.2521 1.91602,0.08 0.33229,0.3323 -0.25834,0.5684 -1.3125,0.5254 -1.16495,-0.048 -1.40125,-0.2863 -0.60352,-0.6055 z m -170.86133,0.078 c 1.77185,-0.2185 4.13671,-0.1115 6.50977,0.3946 2.51821,0.5375 6.81932,0.8019 9.55859,0.5879 3.9416,-0.3078 4.98047,-0.075 4.98047,1.1171 0,1.1303 1.0604,1.4658 4.25,1.3457 3.6841,-0.1388 3.81726,-0.2129 1,-0.5625 -1.7875,-0.2218 -3.25,-0.8266 -3.25,-1.3418 0,-0.5469 7.80072,-0.9582 18.75,-0.9902 10.3125,-0.03 25.4266,-0.2752 33.58789,-0.5469 9.36658,-0.3118 14.62107,-0.14 14.24609,0.4668 -0.33389,0.5402 -6.82397,0.9695 -14.81836,0.9825 -9.14945,0.014 -14.34984,0.403 -14.57812,1.0878 -0.23894,0.7168 4.32746,1.0962 13.97852,1.1622 7.88333,0.054 16.80898,0.1356 19.83398,0.1796 3.025,0.044 25.4125,4e-4 49.75,-0.1 36.38237,-0.1468 44.25,-0.4179 44.25,-1.5273 0,-1.1278 21.38909,-1.2782 130.25,-0.916 77.85099,0.259 132.5574,0.06 135.9863,-0.4961 3.1552,-0.5117 5.9659,-0.704 6.2442,-0.4258 0.2783,0.2783 9.1264,0.6944 19.664,0.9238 25.0346,0.5451 23.8733,-0.182 23.3086,14.5899 -1.0943,28.6209 -1.7775,56.5047 -1.7285,70.4472 l 0.053,15.2735 -4.3535,2.5508 -4.3535,2.5507 -289.61718,-0.3242 c -159.28991,-0.1785 -289.70989,-0.4152 -289.82226,-0.5273 -0.11237,-0.1122 -60.71346,-0.4708 -134.66797,-0.7969 -73.95451,-0.3261 -135.81289,-0.627 -137.46289,-0.668 -5.02804,-0.1253 -36.14489,0.027 -72.5,0.3555 -45.191005,0.4087 -84.317818,0.092 -90.248047,-0.7305 -4.207885,-0.5836 -4.835342,-0.9986 -5.521484,-3.6465 -0.425767,-1.6431 -0.907596,-23.7593 -1.070313,-49.1484 -0.243559,-38.0033 -0.05062,-46.4894 1.083985,-48.0137 1.265981,-1.7007 6.351569,-2.5074 17.755859,-2.8144 0.825,-0.022 20.175,0.2929 43,0.6992 22.825,0.4062 114.4,0.819 203.5,0.918 89.1,0.099 164.1375,0.5458 166.75,0.9941 4.05736,0.6962 4.75,0.5779 4.75,-0.8144 0,-1.0924 0.86567,-1.6309 2.62305,-1.6309 2.2445,0 2.43822,0.2212 1.34765,1.5352 -1.11735,1.3465 -0.73296,1.501 3.12696,1.2539 2.42097,-0.1551 4.64123,-0.6023 4.93359,-0.9922 0.88712,-1.1833 18.34906,-1.6901 19.71875,-0.5723 0.86063,0.7022 1.69681,0.6486 2.68555,-0.1719 1.02051,-0.847 1.99261,-0.8935 3.35937,-0.1621 1.05783,0.5662 3.56214,0.7624 5.56446,0.4375 2.94073,-0.4772 3.64062,-0.2764 3.64062,1.041 0,0.8969 0.72804,1.6309 1.61719,1.6309 1.0454,0 1.45672,-0.6184 1.16406,-1.75 -0.39063,-1.5104 0.42799,-1.7926 5.97852,-2.0586 4.33727,-0.2079 6.21649,0.036 5.77539,0.75 -0.35971,0.582 -1.97621,1.0586 -3.59375,1.0586 -1.61754,0 -2.94141,0.45 -2.94141,1 0,1.7366 6.8152,1.1541 7.83594,-0.6699 1.26767,-2.2652 11.63434,-2.7172 13.75195,-0.5996 1.22001,1.22 1.7359,1.2455 3.05078,0.1543 2.40507,-1.9961 6.36133,-2.2575 6.36133,-0.42 0,1.2185 1.28596,1.5279 6.25,1.504 4.97317,-0.024 5.86865,-0.2503 4.38672,-1.1114 -1.02433,-0.5955 -3.38683,-0.8355 -5.25,-0.5332 -1.86318,0.3024 -3.38672,0.1377 -3.38672,-0.3672 0,-0.7988 1.17933,-1.3439 2.95117,-1.5625 z M 674,1102.5 c 0.55,0.3399 1,0.8161 1,1.0586 0,0.2426 -0.45,0.4414 -1,0.4414 -0.55,0 -1,-0.4762 -1,-1.0586 0,-0.5825 0.45,-0.7813 1,-0.4414 z m 4,0.5 c 0.55,0 1,0.45 1,1 0,0.55 -0.45,1 -1,1 -0.55,0 -1,-0.45 -1,-1 0,-0.55 0.45,-1 1,-1 z m -213.1875,0.3164 c 0.72187,-0.2888 1.58373,-0.2521 1.91602,0.08 0.33229,0.3323 -0.25834,0.5684 -1.3125,0.5254 -1.16495,-0.048 -1.40125,-0.2863 -0.60352,-0.6055 z m 244,0 c 0.72187,-0.2888 1.58373,-0.2521 1.91602,0.08 0.33229,0.3323 -0.25834,0.5684 -1.3125,0.5254 -1.16495,-0.048 -1.40125,-0.2863 -0.60352,-0.6055 z m -101.13477,1.4102 c -6.39221,-0.7113 -9.13213,-0.6707 -9.94921,0.1464 -0.83693,0.8369 1.43777,1.0889 8.82226,0.9805 L 616.5,1105.707 Z m 1302.61917,0.084 c 6.8268,-0.1424 8.0699,0.1111 10,2.0411 2.1932,2.1932 2.2015,2.3733 2.0351,36.4257 -0.092,18.8222 -0.1878,40.8602 -0.2148,48.9727 -0.042,12.671 -0.2683,14.75 -1.6074,14.75 -0.8573,0 -1.987,1.125 -2.5098,2.5 l -0.9512,2.5 -19.7734,0.2031 c -39.5102,0.4041 -44.3498,0.3923 -44.8633,-0.1211 -0.2872,-0.2897 -43.3594,-0.419 -95.7168,-0.291 -69.0888,0.1688 -95.9495,-0.076 -97.9453,-0.8984 -3.8397,-1.5815 -3.4559,-3.8035 1.75,-10.127 2.475,-3.0064 4.5,-5.7978 4.5,-6.2031 0,-0.4053 2.7,-3.7284 6,-7.3848 3.3,-3.6564 6,-7.0183 6,-7.4707 0,-0.6788 5.2434,-7.9484 7,-9.705 1.5184,-1.5184 6.8606,-8.8474 7.9766,-10.9434 0.7156,-1.344 2.8765,-4.1466 4.8027,-6.2285 1.9262,-2.0818 4.1945,-4.8075 5.0391,-6.0567 0.8447,-1.2492 2.917,-3.9138 4.6074,-5.9199 1.6903,-2.0061 4.6492,-5.6061 6.5742,-8 1.925,-2.3939 5.525,-6.3594 8,-8.8125 2.475,-2.4531 6.0861,-7.1766 8.0254,-10.498 4.6571,-7.9758 6.9903,-9.0767 15.8672,-7.4903 5.2941,0.9482 7.5837,0.9495 10.4316,0.01 2.7691,-0.9139 19.2091,-1.0631 68.2051,-0.6172 35.5065,0.3231 64.8752,0.6686 65.2637,0.7676 0.3886,0.099 3.632,-0.14 7.207,-0.5293 3.575,-0.3893 10.0092,-0.7801 14.2969,-0.8691 z M 935.05859,1220 c 0.51754,0 0.94141,0.675 0.94141,1.5 0,1.5464 -1.18045,1.9875 -2.30664,0.8613 -0.79893,-0.7989 0.10425,-2.3613 1.36523,-2.3613 z m -640.11718,1 c 0.51754,0 1.21867,0.45 1.55859,1 0.33992,0.55 -0.084,1 -0.94141,1 -0.85746,0 -1.55859,-0.45 -1.55859,-1 0,-0.55 0.42387,-1 0.94141,-1 z M 500,1232 c 0.55,0 1,0.45 1,1 0,0.55 -0.45,1 -1,1 -0.55,0 -1,-0.45 -1,-1 0,-0.55 0.45,-1 1,-1 z m -416,34.7754 c 13.475,-0.04 30.575,-0.041 38,0 62.87558,0.3438 88.72047,0.4464 90,0.3594 7.42212,-0.5064 191.05569,0.7121 192.79883,1.2793 1.26389,0.4112 2.83889,0.3148 3.5,-0.2129 0.6611,-0.5276 2.77617,-0.8294 4.70117,-0.6719 3.58886,0.2936 46.50272,0.5286 51,0.2793 1.375,-0.076 5.425,-0.021 9,0.125 3.575,0.1454 26.21145,-0.042 50.30273,-0.416 33.04877,-0.5132 44.15169,-0.3904 45.22461,0.5 0.98542,0.8179 3.34849,0.9521 7.69727,0.4355 9.31621,-1.1061 32.93763,-1.1535 35.5332,-0.07 1.51917,0.6338 2.99233,0.5553 4.5,-0.2402 1.51731,-0.8005 4.98828,-0.9785 10.74219,-0.5508 8.18795,0.6088 11.02419,0.6872 17.5,0.4785 1.65,-0.053 16.79929,0.1773 33.66602,0.5117 19.32358,0.3832 31.31385,0.2457 32.41601,-0.3711 1.03461,-0.579 2.94278,-0.6378 4.66992,-0.1425 1.91264,0.5486 3.60086,0.422 4.89453,-0.3672 1.63008,-0.9944 2.20065,-0.9023 3.26368,0.5293 0.70839,0.9539 1.55656,1.4668 1.88476,1.1386 0.3282,-0.3282 10.95167,-0.5577 23.60742,-0.5097 12.65575,0.048 23.24623,-0.2942 23.53516,-0.7617 0.28893,-0.4679 2.48739,-0.4833 4.88477,-0.035 2.39738,0.4482 6.56721,0.4906 9.26757,0.096 3.3981,-0.4974 5.75911,-0.3027 7.66602,0.6348 2.08374,1.0244 3.54598,1.0998 6,0.3066 3.84425,-1.2425 -1.33401,-1.2025 144.99414,-1.1445 63.6625,0.025 115.7889,0.3839 115.8359,0.7949 0.047,0.411 0.16,7.0666 0.25,14.791 0.1862,15.9475 1.3317,19.4039 6.4102,19.3399 8.7369,-0.1104 68.4241,1.201 77.2539,1.6972 5.775,0.3246 11.4,0.551 12.5,0.502 1.1,-0.049 6.5,-0.056 12,-0.016 26.6938,0.1961 233.1487,-0.6333 238.25,-0.9571 1.2375,-0.078 3.4875,-0.1008 5,-0.047 1.5125,0.053 8.9492,-0.1 16.5273,-0.3417 7.9053,-0.2525 14.023,-0.046 14.3516,0.4863 0.3151,0.5098 1.1965,0.6891 1.959,0.3965 3.2419,-1.244 18.1778,-1.795 18.8574,-0.6954 0.3816,0.6176 1.2236,0.7863 1.8731,0.375 0.6495,-0.4109 24.8066,-0.7556 53.6816,-0.7656 45.0389,-0.016 52.8007,-0.2327 54.6152,-1.5195 1.1633,-0.825 4.8969,-4.65 8.2969,-8.5 3.4,-3.85 8.1742,-9.25 10.6094,-12 2.4352,-2.75 5.2266,-6.0058 6.2031,-7.2363 3.6151,-4.5551 10.7813,-5.0187 70.7754,-4.5723 30.25,0.225 55.675,0.3551 56.5,0.2891 4.6263,-0.368 61.7518,-0.2555 73.5,0.1445 8.5595,0.2915 13.8562,0.2708 30.6523,-0.1172 5.8588,-0.1354 11.0625,0.01 11.5625,0.3164 0.5,0.3086 10.1065,0.3425 21.3477,0.074 11.2411,-0.2683 21.3375,-0.4059 22.4375,-0.3047 2.9356,0.2702 15.7228,0.1476 25.7617,-0.248 8.0734,-0.3182 8.8034,-0.1885 9.2852,1.6543 0.2876,1.1 1.0407,3.7241 1.6738,5.8301 0.8404,2.7954 0.862,4.9554 0.076,8 -0.5969,2.3131 -0.7765,6.397 -0.4024,9.1699 0.3709,2.75 0.4986,6.575 0.2832,8.5 -0.4559,4.0738 -0.5618,8.8734 -0.3203,14.5 0.3995,9.3065 -1.066,42.0227 -1.957,43.6875 -0.5335,0.9969 -1.5609,1.8125 -2.2813,1.8125 -0.7204,0 -2.1177,0.893 -3.1054,1.9844 -1.4816,1.6371 -3.0388,1.9747 -8.9043,1.9277 -3.91,-0.031 -45.8885,0.024 -93.2852,0.1211 -47.3967,0.098 -86.6147,-0.095 -87.1523,-0.4277 -0.5377,-0.3323 -3.6086,-0.2523 -6.8242,0.1777 -3.2157,0.4301 -9.3761,0.5396 -13.6895,0.2441 -4.3134,-0.2956 -8.0437,-0.2114 -8.2891,0.1856 -0.5801,0.9386 -46.507,0.4717 -48.0293,-0.4883 -0.638,-0.4024 -10.313,-0.6906 -21.5,-0.6406 -11.1869,0.049 -21.4648,0.082 -22.8398,0.072 -35.6948,-0.2438 -153.6881,0.3447 -159,0.793 -0.825,0.07 -40.65,-0.1096 -88.5,-0.3984 -89.0878,-0.5378 -151.9008,-0.6904 -193.5,-0.4707 -12.925,0.068 -29.575,-0.047 -37,-0.2559 -7.7489,-0.2178 -14.2184,0.037 -15.1875,0.5996 -1.155,0.67 -2.4388,0.5791 -4.0645,-0.291 -2.2499,-1.2041 -63.4343,-0.9876 -151.748,0.5371 -11.825,0.2042 -36.575,0.3712 -55,0.3711 -18.425,0 -39.125,0.02 -46,0.045 -6.875,0.025 -13.625,-0.024 -15,-0.1093 -1.375,-0.085 -12.625,-0.1148 -25,-0.067 -12.375,0.049 -91.8,0.2837 -176.5,0.5235 -84.7,0.2397 -154.45,0.5039 -155,0.5879 -0.55,0.088 -19,0.086 -41,0 -22,-0.086 -120.775,0.1136 -219.5,0.4433 -170.464285,0.5694 -179.751691,0.5115 -184.5,-1.1797 l -5,-1.7812 -0.677734,-13.5781 c -0.372664,-7.4651 -0.59766,-28.7905 -0.5,-47.3907 0.151925,-28.9341 0.394365,-33.9277 1.677734,-34.5781 1.602332,-0.8122 18.829736,-3.1481 23,-3.1191 1.375,0.01 13.525,-0.017 27,-0.059 z M 1311.9414,1300 c 0.5175,0 1.2187,0.45 1.5586,1 0.3399,0.55 -0.084,1 -0.9414,1 -0.8574,0 -1.5586,-0.45 -1.5586,-1 0,-0.55 0.4238,-1 0.9414,-1 z m -490.97265,96.5293 c 0.55113,0.1273 1.03125,0.5015 1.03125,1.0293 0,0.2426 -0.70113,0.4414 -1.55859,0.4414 -0.8575,0 -1.2771,-0.4566 -0.93164,-1.0156 0.2854,-0.4618 0.90785,-0.5824 1.45898,-0.4551 z m 872.88285,0.8203 c 0.2776,0.1224 0.5262,0.4726 0.748,1.0508 0.3661,0.9539 0.216,2.1844 -0.334,2.7344 -0.6667,0.6667 -1.2223,0.4219 -1.666,-0.7344 -0.3661,-0.9539 -0.216,-2.1844 0.334,-2.7344 0.3333,-0.3333 0.6404,-0.4388 0.918,-0.3164 z M 1803.7559,1415 c 1.467,0 4.1468,2.7035 4.2129,4.25 0.017,0.4125 -0.3063,0.6816 -0.7188,0.5996 -0.4125,-0.082 -1.9397,-0.3313 -3.3926,-0.5547 -2.0444,-0.3143 -2.5262,-0.8472 -2.1328,-2.3515 0.2796,-1.0692 1.1936,-1.9434 2.0313,-1.9434 z m -516.5411,6.2949 c 6.4427,0.1647 12.0599,0.6478 12.4844,1.0723 1.0153,1.0153 -21.3939,0.4515 -22.9785,-0.5781 -0.6713,-0.4365 4.0514,-0.6589 10.4941,-0.4942 z m -1026.41988,0.037 c 1.09136,0 2.59084,0.224 4.76758,0.6758 4.25486,0.8834 56.21636,1.1178 208.79883,0.9453 111.72432,-0.1262 213.93476,-0.237 227.13476,-0.248 13.2,-0.011 30.3,-0.1305 38,-0.2656 24.39318,-0.428 43.8451,-0.3522 44.69922,0.1757 0.45423,0.2807 18.25867,0.5078 39.56446,0.5078 76.85396,-0.01 91.16128,-0.1986 91.79296,-1.2207 0.41531,-0.6721 1.02706,-0.6698 1.84571,0.01 1.23524,1.0252 163.26806,0.7588 206.59766,-0.3398 25.8675,-0.6558 67.8598,-0.4287 70.5,0.3808 0.55,0.1687 8.65,0.4036 18,0.5235 9.35,0.1198 24.83,0.5743 34.3984,1.0097 12.9645,0.59 17.2157,0.5019 16.6895,-0.3496 -1.0693,-1.7301 1.5271,-1.3699 2.8144,0.3906 0.9534,1.3038 4.4299,1.5223 23.1094,1.4493 12.0934,-0.047 22.8883,-0.033 23.9883,0.031 1.1,0.064 42.1984,0.1995 91.3301,0.3008 84.0454,0.1734 89.4072,0.082 90.6113,-1.5645 1.6767,-2.2928 4.7427,-2.311 4.3535,-0.025 -0.2478,1.4552 0.6766,1.7702 5.9024,2.0156 5.2182,0.2451 6.501,-0.037 8.1367,-1.793 1.794,-1.9256 2.6192,-2.0317 10.8047,-1.3848 4.874,0.3853 9.6488,0.6689 10.6113,0.6309 0.9625,-0.038 1.75,0.3514 1.75,0.8672 0,0.5159 0.45,0.9375 1,0.9375 0.55,0 0.8875,-0.5501 0.75,-1.2246 -0.1375,-0.6744 0.7613,-1.3818 1.9961,-1.5703 1.698,-0.2592 2.098,0.04 1.6426,1.2265 -0.5064,1.3197 0.369,1.5684 5.5058,1.5684 4.7618,0 6.1055,-0.3304 6.1055,-1.5 0,-0.8333 0.8889,-1.5 2,-1.5 2.4566,0 2.6828,1.944 0.25,2.1484 -0.9625,0.081 0.8567,0.4256 4.043,0.7656 3.1862,0.3394 21.6362,0.4958 41,0.3477 63.5884,-0.4863 79.1057,-0.4386 87.207,0.2695 14.2479,1.2452 55.2964,1.6093 55.9844,0.4961 0.3487,-0.5643 0.1586,-1.0273 -0.4239,-1.0273 -0.5824,0 -1.0605,-0.3779 -1.0605,-0.8399 0,-0.4618 2.5875,-0.7024 5.75,-0.5351 3.1625,0.1673 6.5375,0.3198 7.5,0.3398 0.9625,0.02 1.75,0.7595 1.75,1.6446 0,1.3966 1.0243,1.5236 7.75,0.9589 4.2625,-0.3579 27.775,-0.8467 52.25,-1.0859 24.475,-0.2392 45.4,-0.5039 46.5,-0.5879 1.1,-0.084 9.875,-0.07 19.5,0.031 9.625,0.1012 20.0481,-0.1253 23.1621,-0.502 4.8481,-0.5866 6.092,-0.3773 8.6543,1.4473 1.6458,1.1719 3.6809,2.1308 4.5215,2.1308 0.8405,0 1.743,0.7875 2.0058,1.75 0.6639,2.4196 0.6694,34.0599 0.01,35.7793 -0.4524,1.179 -9.2993,1.3139 -57.1914,0.8653 -31.1615,-0.2919 -58.4582,-0.4962 -60.6582,-0.4532 -66.4707,1.2965 -87.6413,1.2932 -91.3281,-0.014 -2.3943,-0.8483 -3.9811,-0.8816 -5.6543,-0.1192 -2.43,1.1072 -67.8348,0.7294 -69.666,-0.4023 -0.5162,-0.3191 -1.5461,-0.076 -2.2871,0.5391 -0.8259,0.6854 -5.1611,1.0526 -11.2051,0.9492 -5.4224,-0.093 -11.6594,-0.067 -13.8594,0.059 -4.0135,0.2318 -13.6762,0.2303 -19.75,0 -1.7875,-0.068 -18.325,-0.039 -36.75,0.062 -18.425,0.1015 -34.4,0.1512 -35.5,0.1132 -1.1,-0.038 -14.375,0.2034 -29.5,0.5352 -28.0864,0.6158 -192.9453,1.0086 -234.5,0.5586 -12.65,-0.1374 -23.9,-0.2328 -25,-0.2148 -4.2526,0.072 -107.7049,0.7775 -113,0.7675 -11.215,-0.015 -21.7703,0.03 -30.5,0.1309 -5.775,0.066 -11.7832,-0.127 -13.3516,-0.4297 -1.5685,-0.3028 -3.3685,-0.1506 -4,0.3379 -0.6316,0.4886 -4.2984,0.6071 -8.1484,0.2637 -7.7978,-0.6955 -48.3241,-0.5842 -49.043,0.1347 -0.252,0.252 -3.2721,0.051 -6.709,-0.4453 -3.437,-0.4963 -9.398,-0.6499 -13.248,-0.3437 -5.76225,0.4583 -26.04921,0.6025 -42.5,0.3027 -1.925,-0.035 -10.7,0.2789 -19.5,0.6992 -8.8,0.4203 -16.45,0.7732 -17,0.7832 -0.55,0.01 -5.95,-0.3207 -12,-0.7324 -6.05,-0.4117 -94.025,-0.6807 -195.5,-0.5977 -101.475,0.083 -186.075,0.055 -188,-0.062 -1.925,-0.1175 -11.15,-0.063 -20.5,0.1211 -9.35,0.1843 -21.275,0.3122 -26.5,0.2832 -5.225,-0.03 -16.25,-0.072 -24.5,-0.094 -30.74367,-0.081 -38.46458,-0.1312 -57.5,-0.3809 -10.92475,-0.1433 -20.23345,0.1582 -21.16797,0.6875 -1.05944,0.5997 -2.48635,0.581 -3.91015,-0.055 -1.32613,-0.5917 -4.49761,-0.6951 -7.76368,-0.2519 -3.03665,0.4119 -6.2269,0.3989 -7.08984,-0.029 -1.95019,-0.9684 -45.31322,-0.6832 -46.91797,0.3086 -0.64262,0.3976 -2.17758,0.3934 -3.41016,-0.01 -2.34407,-0.7663 -75.65985,-0.714 -166.74023,0.1172 -66.208757,0.6041 -60.4355,0.6113 -67.197266,-0.1 -3.133153,-0.3296 -6.200587,-0.2871 -6.816406,0.094 -1.451261,0.901 -15.513264,0.9054 -16.96289,0.01 h -0.0039 c -0.610564,-0.3773 -1.69972,-0.1973 -2.419922,0.4004 -1.688327,1.4012 -6.603515,-2.9204 -6.603515,-5.8066 0,-1.0938 -0.422536,-2.2509 -0.939453,-2.5703 -0.555929,-0.3436 -0.33888,-2.019 0.53125,-4.1016 0.809067,-1.9363 1.387846,-4.5144 1.285156,-5.7285 -0.10269,-1.2141 -0.11679,-7.4838 -0.03125,-13.9336 0.15345,-11.5705 0.19083,-11.7507 2.861328,-13.5 2.520958,-1.6515 7.922784,-1.792 78.749995,-2.0625 41.82386,-0.1597 82.56797,-0.33 90.54297,-0.377 7.975,-0.047 23.17419,0.24 33.77539,0.6407 14.29731,0.5403 19.64388,0.4243 20.70118,-0.4532 0.54774,-0.4561 1.2309,-0.684 2.32226,-0.6855 z m 1066.85938,0.5332 c 1.6186,0.9408 1.4826,1.0764 -1.1035,1.1036 -2.1513,0.022 -2.6525,-0.2675 -1.8477,-1.0723 0.791,-0.7906 1.628,-0.8008 2.9512,-0.031 z m 19.8691,0.074 c 2.9411,0.8779 2.9311,0.8896 -0.9726,0.9746 -2.5629,0.056 -3.6086,-0.2567 -2.9766,-0.8887 0.6023,-0.6024 2.1088,-0.635 3.9492,-0.086 z m 6.5352,0.061 c 0.5825,0 0.7813,0.45 0.4414,1 -0.3399,0.55 -0.8161,1 -1.0586,1 -0.2426,0 -0.4414,-0.45 -0.4414,-1 0,-0.55 0.4762,-1 1.0586,-1 z m 117.3828,0 c 0.8574,0 1.5586,0.45 1.5586,1 0,0.55 -0.4238,1 -0.9414,1 -0.5175,0 -1.2187,-0.45 -1.5586,-1 -0.3399,-0.55 0.084,-1 0.9414,-1 z m 7,0 c 1.4074,0 2.5586,0.1719 2.5586,0.3828 0,0.8877 -4.0463,1.3524 -4.5586,0.5234 -0.308,-0.4982 0.5925,-0.9062 2,-0.9062 z m 25.0586,0 c 0.825,0 1.5,0.45 1.5,1 0,0.55 -0.675,1 -1.5,1 -0.825,0 -1.5,-0.45 -1.5,-1 0,-0.55 0.675,-1 1.5,-1 z m 6,0 c 1.4907,0 2.3519,0.4306 2,1 -0.3399,0.55 -1.2399,1 -2,1 -0.7601,0 -1.6601,-0.45 -2,-1 -0.3519,-0.5694 0.5093,-1 2,-1 z m 38.0586,0 c 0.858,0 1.2813,0.45 0.9414,1 -0.3399,0.55 -1.0411,1 -1.5586,1 -0.5176,0 -0.9414,-0.45 -0.9414,-1 0,-0.55 0.7012,-1 1.5586,-1 z m 4.3828,0 c 0.5824,0 1.0586,0.45 1.0586,1 0,0.55 -0.1988,1 -0.4414,1 -0.2425,0 -0.7187,-0.45 -1.0586,-1 -0.3399,-0.55 -0.1411,-1 0.4414,-1 z m 9.5,0 c 1.4074,0 2.5586,0.45 2.5586,1 0,0.55 -0.8738,1 -1.9414,1 -1.0675,0 -2.2187,-0.45 -2.5586,-1 -0.3505,-0.5672 0.49,-1 1.9414,-1 z m 8.5,0 c 1.6824,0 3.0586,0.1719 3.0586,0.3828 0,0.8486 -5.0841,1.288 -5.582,0.4824 -0.2943,-0.4762 0.8409,-0.8652 2.5234,-0.8652 z m 5.5586,0 c 0.8899,0 1.3399,0.45 1,1 -0.3399,0.55 -0.7899,1 -1,1 -0.2101,0 -0.6601,-0.45 -1,-1 -0.3399,-0.55 0.1101,-1 1,-1 z m 97.5586,0 c 0.5176,0 0.9414,0.45 0.9414,1 0,0.55 -0.7012,1 -1.5586,1 -0.858,0 -1.2813,-0.45 -0.9414,-1 0.3399,-0.55 1.0411,-1 1.5586,-1 z m -205.4453,0.2793 c 0.3962,0.3962 -1.455,0.7207 -4.1133,0.7207 -2.6583,0 -4.6451,-0.1825 -4.416,-0.4062 0.7921,-0.7735 7.8115,-1.0323 8.5293,-0.3145 z m -129.8008,0.037 c 0.7219,-0.2888 1.5837,-0.2521 1.916,0.08 0.3323,0.3323 -0.2584,0.5684 -1.3125,0.5254 -1.165,-0.048 -1.4012,-0.2863 -0.6035,-0.6055 z m 146,0 c 0.7219,-0.2888 1.5837,-0.2521 1.916,0.08 0.3323,0.3323 -0.2584,0.5684 -1.3125,0.5254 -1.165,-0.048 -1.4012,-0.2863 -0.6035,-0.6055 z m 224.0898,0.1973 c 3.3256,-0.1421 7.0351,-0.051 9.0977,0.3633 3.9007,0.783 3.1134,0.9186 -5.916,1.0136 -5.7291,0.06 -10.2168,-0.09 -9.9727,-0.334 0.5246,-0.5245 3.4655,-0.9009 6.791,-1.0429 z m 30.8477,0.8242 c 0.6875,-0.2774 1.8125,-0.2774 2.5,0 0.6875,0.2774 0.125,0.5039 -1.25,0.5039 -1.375,0 -1.9375,-0.2265 -1.25,-0.5039 z M 1859,1469.5 c 0.55,0.3399 1,0.8161 1,1.0586 0,0.2426 -0.45,0.4414 -1,0.4414 -0.55,0 -1,-0.4762 -1,-1.0586 0,-0.5825 0.45,-0.7813 1,-0.4414 z" />
    <rect
       style="fill:#000000"
       id="rect4"
       width="1842.9283"
       height="36.135849"
       x="51.350945"
       y="407.00378" />
    <rect
       style="fill:#000000"
       id="rect5"
       width="1852.4377"
       height="30.430189"
       x="55.154716"
       y="85.584908" />
    <rect
       style="fill:#000000"
       id="rect6"
       width="990.883"
       height="34.233963"
       x="36.135849"
       y="1047.9396" />
    <rect
       style="fill:#000000"
       id="rect7"
       width="968.06036"
       height="34.233963"
       x="55.154716"
       y="1219.1094" />
    <rect
       style="fill:#000000"
       id="rect8"
       width="597.19244"
       height="34.233963"
       x="1308.4982"
       y="1376.9661" />
    <rect
       style="fill:#000000"
       id="rect9"
       width="806.40002"
       height="38.037735"
       x="1065.0566"
       y="568.66412" />
    <rect
       style="fill:#000000"
       id="rect10"
       width="924.31696"
       height="34.233963"
       x="882.47546"
       y="736.03021" />
    <rect
       style="fill:#000000"
       id="rect11"
       width="376.57358"
       height="43.743397"
       x="658.05286"
       y="890.08301" />
    <rect
       style="fill:#000000"
       id="rect12"
       width="576.27173"
       height="55.154716"
       x="39.939621"
       y="1042.234" />
    <rect
       style="fill:#000000"
       id="rect13"
       width="193.99245"
       height="36.135849"
       x="1719.3057"
       y="1384.5736" />
  </g>
</svg>
