<?xml version="1.0" encoding="UTF-8" standalone="no"?>
<!-- Created with Inkscape (http://www.inkscape.org/) -->

<svg
   version="1.1"
   id="svg1"
   width="735"
   height="521"
   viewBox="0 0 735 521"
   sodipodi:docname="2.svg"
   inkscape:version="1.4 (86a8ad7, 2024-10-11)"
   xmlns:inkscape="http://www.inkscape.org/namespaces/inkscape"
   xmlns:sodipodi="http://sodipodi.sourceforge.net/DTD/sodipodi-0.dtd"
   xmlns="http://www.w3.org/2000/svg"
   xmlns:svg="http://www.w3.org/2000/svg">
  <defs
     id="defs1" />
  <sodipodi:namedview
     id="namedview1"
     pagecolor="#ffffff"
     bordercolor="#000000"
     borderopacity="0.25"
     inkscape:showpageshadow="2"
     inkscape:pageopacity="0.0"
     inkscape:pagecheckerboard="0"
     inkscape:deskcolor="#d1d1d1"
     inkscape:zoom="1.5259117"
     inkscape:cx="367.64906"
     inkscape:cy="260.5"
     inkscape:window-width="1920"
     inkscape:window-height="1013"
     inkscape:window-x="2391"
     inkscape:window-y="605"
     inkscape:window-maximized="1"
     inkscape:current-layer="g1" />
  <g
     inkscape:groupmode="layer"
     inkscape:label="Image"
     id="g1">
    <path
       style="fill:#000000"
       d="M 25,520.20932 7.5,519.91863 4,517.03041 0.5,514.1422 0.82224232,464.8211 C 0.99947559,437.69449 1.1769927,414.15 1.2167248,412.5 1.309189,408.66014 1.2468291,359.11914 1.1191715,335 1.0653173,324.825 1.104118,308.175 1.2053952,298 2.0071253,217.45273 2.0917897,151.21165 1.3991998,146.36823 1.0742449,144.09576 1.1889889,142.00124 1.6541864,141.71373 2.1193839,141.42623 2.3827751,130.68552 2.2395003,117.8455 1.7383398,72.932427 2.3473504,28.061376 3.5616204,20.433528 3.9060165,18.270088 4.4830412,14.479846 4.8438976,12.01077 5.927702,4.5950869 6.47822,4.4936248 51,3.5040602 82.103494,2.8127375 93.130791,2.3051017 95.26796,1.466208 c 0.972379,-0.3816834 3.134914,-0.1277591 4.80564,0.5642762 1.86019,0.7705194 3.3961,0.8998114 3.96237,0.3335498 1.23947,-1.2394725 53.12536,-0.6027031 54.39563,0.6675702 1.33067,1.3306615 6.29404,1.2213442 7.14614,-0.1573923 0.44739,-0.7238927 2.58995,-0.9302918 6.00174,-0.5781645 3.5975,0.3712947 5.43271,0.170305 5.6996,-0.6242118 0.28993,-0.86309169 1.08645,-0.80278324 3.02319,0.2289003 1.81081,0.964597 3.02937,1.0865523 3.91364,0.3916807 C 184.92216,1.7374362 187.075,1.4548084 189,1.6643548 c 2.97169,0.3234844 11.22109,0.3012415 36.66503,-0.09886 2.29077,-0.036022 4.48998,-0.3896992 4.88713,-0.78594948 0.39714,-0.39625024 1.89788,0.11497637 3.33496,1.13605918 2.26142,1.6067944 2.79242,1.6635437 3.94767,0.4218966 1.00999,-1.0855327 2.46997,-1.2487944 6,-0.6709488 2.56586,0.4200177 5.79021,0.71355 7.16521,0.652294 18.1387,-0.8080763 50.84794,-0.3738953 51.50153,0.6836289 0.989,1.6002326 2.22368,1.1563145 2.78822,-1.0024749 0.66406,-2.53937428 2.89291,-2.56063655 5.16565,-0.049278 1.53923,1.7008289 2.03947,1.7796726 3.90499,0.6154725 1.71853,-1.0724703 11.8209,-1.3035547 51.3328,-1.1742008 27.05625,0.088577 49.51973,0.4875957 49.91885,0.8867092 0.39911,0.3991135 1.43718,0.092846 2.30681,-0.6805952 C 419.17343,0.48230141 420.63598,0.39328057 425,1.1671 c 3.025,0.5363867 12.925,1.0578717 22,1.1588555 9.075,0.1009838 17.08221,0.5576958 17.7938,1.0149156 0.74873,0.4810789 1.89056,0.3360498 2.71026,-0.3442424 0.97966,-0.8130404 2.7393,-0.9109774 5.7062,-0.3175906 4.67758,0.9355301 57.64906,0.7063337 61.92519,-0.2679373 1.44949,-0.3302523 5.12745,-0.083121 8.17323,0.549181 4.41952,0.9174884 6.05812,1.8318368 8.11455,4.5279571 C 552.84045,9.3463134 554,11.356228 554,11.954717 c 0,0.598488 1.05063,1.566859 2.33473,2.151934 1.2841,0.585076 3.06176,2.262928 3.95035,3.728561 C 561.94658,20.575674 575.62593,35 576.56335,35 c 1.07288,0 5.1989,4.623359 7.36254,8.25 1.23048,2.0625 2.8452,3.75 3.58828,3.75 0.74308,0 1.67017,1.0125 2.06021,2.25 0.39003,1.2375 9.19866,10.672393 19.57474,20.966428 10.37607,10.294036 20.02075,20.419036 21.43262,22.5 1.41187,2.080965 6.02106,7.435272 10.24265,11.898462 4.22158,4.46319 8.62607,9.18819 9.78775,10.5 1.16168,1.31181 4.53668,4.71177 7.5,7.55548 2.96332,2.8437 6.51286,6.62006 7.88786,8.39191 1.375,1.77186 7,7.8943 12.5,13.60544 10.77211,11.18563 19.92286,21.72914 23.73765,27.35055 1.31057,1.93122 3.48073,4.67732 4.8226,6.10244 1.34186,1.42512 3.56475,4.5261 4.93975,6.89108 1.375,2.36497 4.21301,6.98446 6.3067,10.26554 2.09368,3.28108 4.42016,7.59844 5.16995,9.59413 0.74979,1.9957 2.57348,6.75327 4.05264,10.57239 3.09174,7.98272 2.96163,7.38902 4.9433,22.55615 1.92873,14.76203 2.3164,34.61101 0.7074,36.22001 -0.64899,0.64899 -1.18276,3.00249 -1.18615,5.22999 -0.003,2.2275 -0.67839,5.33894 -1.5,6.91431 -0.82161,1.57537 -1.49384,3.92121 -1.49384,5.21298 0,5.18063 -11.79256,31.71876 -16.75,37.69442 -1.7875,2.15463 -3.25,4.36797 -3.25,4.91853 0,0.55056 -1.0125,2.41869 -2.25,4.15139 -1.2375,1.73271 -2.925,4.35011 -3.75,5.81646 -0.825,1.46634 -4.96034,6.41814 -9.18964,11.004 -4.2293,4.58585 -8.58874,9.49822 -9.68765,10.91638 -1.09891,1.41815 -6.75107,7.41871 -12.56036,13.33457 C 665.75306,385.3289 661,390.73367 661,391.42364 c 0,0.68997 -2.1375,3.25333 -4.75,5.69636 -2.6125,2.44302 -8.575,8.68968 -13.25,13.88146 -4.675,5.19178 -10.18641,11.1922 -12.24757,13.33428 -2.06116,2.14208 -5.16343,5.53034 -6.89393,7.52947 -1.7305,1.99914 -8.59409,9.4449 -15.25243,16.54615 -6.65834,7.10126 -13.45607,14.35392 -15.10607,16.11705 -1.65,1.76312 -5.475,6.20009 -8.5,9.85993 -3.025,3.65985 -9.325,10.60436 -14,15.43225 -4.675,4.82788 -9.46634,9.8808 -10.64743,11.22869 -1.18109,1.3479 -5.23109,5.47189 -9,9.16444 l -6.85257,6.71372 -23,0.58789 c -54.78839,1.40044 -64.29128,1.69933 -69.34695,2.18117 -2.94082,0.28028 -5.77197,0.0846 -6.29144,-0.43489 -0.54915,-0.54915 -8.30515,-0.79422 -18.52944,-0.5855 -11.70022,0.23886 -18.02323,-0.005 -18.89464,-0.72795 -0.94979,-0.78826 -1.94554,-0.74479 -3.62361,0.15819 -1.64106,0.88306 -10.01981,1.32147 -28.81392,1.50767 -23.86969,0.23648 -72.31887,0.19447 -87.32492,-0.0757 -3.2037,-0.0577 -6.04276,0.2476 -6.30902,0.67841 -0.58696,0.94973 -5.76994,1.04608 -6.69161,0.1244 -0.36239,-0.36238 -6.39989,-0.58303 -13.41667,-0.49032 -7.01678,0.0927 -14.38514,-0.22484 -16.37413,-0.70566 -1.98899,-0.48082 -4.28065,-0.50246 -5.09257,-0.0481 -0.81191,0.45437 -9.53456,0.75815 -19.38364,0.67506 -9.84909,-0.0831 -26.90744,-0.17831 -37.90744,-0.21159 -11,-0.0333 -20.5532,-0.41882 -21.22933,-0.85675 -0.67614,-0.43794 -2.04071,-0.36202 -3.03238,0.16871 -1.05273,0.5634 -16.35442,0.99215 -36.77067,1.03029 -19.23219,0.0359 -45.09262,0.18501 -57.46762,0.33129 -12.375,0.14627 -30.375,0.13514 -40,-0.0247 z m 238,-10.31573 c 15.125,0.007 32.225,0.0343 38,0.0597 5.775,0.0254 11.4,0.0183 12.5,-0.0158 1.1,-0.0341 9.65,0.0368 19,0.15767 9.35,0.12084 25.325,0.16817 35.5,0.10518 10.175,-0.063 21.2,-0.10198 24.5,-0.0867 3.3,0.0153 25.8,-0.33114 50,-0.76991 24.2,-0.43877 53.45,-0.67836 65,-0.53242 11.55,0.14594 23.81615,-0.0131 27.25812,-0.35344 l 6.25811,-0.61878 13.44363,-13.66953 c 7.394,-7.51825 15.31134,-15.60926 17.59409,-17.98003 3.92607,-4.07745 34.16649,-37.76497 40.49675,-45.11298 C 619.70609,422.77074 633.51038,408 634.11733,408 c 0.36646,0 3.82301,-3.7125 7.68122,-8.25 7.02755,-8.26484 14.46636,-16.35176 24.72056,-26.87435 3.01449,-3.09338 5.48089,-6.10507 5.48089,-6.69262 0,-0.58755 2.91746,-4.08799 6.48325,-7.77876 9.31613,-9.64263 15.82267,-17.15112 17.29869,-19.96253 C 696.487,337.09878 697.46918,336 697.96455,336 c 0.49537,0 1.1957,-0.92955 1.55629,-2.06566 0.36059,-1.13612 2.63092,-4.95089 5.04518,-8.47728 2.41426,-3.52638 5.77432,-9.00933 7.46682,-12.18433 1.69249,-3.175 3.50248,-6.20023 4.02221,-6.72273 0.51972,-0.5225 0.94495,-2.28707 0.94495,-3.92126 0,-1.63419 0.71497,-3.76129 1.58882,-4.72689 1.6242,-1.79471 2.80123,-5.55057 4.51333,-14.40185 0.53194,-2.75 1.51406,-6.08634 2.1825,-7.41409 1.48102,-2.94181 1.4225,-24.72933 -0.0996,-37.08591 -1.29009,-10.47305 -4.85378,-26.17724 -6.11753,-26.95828 -0.51441,-0.31793 -2.21287,-3.71987 -3.77436,-7.55988 -1.56148,-3.84001 -4.97207,-9.85178 -7.57908,-13.35949 -2.60702,-3.50771 -5.01559,-7.55771 -5.35239,-9 -0.3368,-1.44229 -2.08205,-4.19735 -3.87833,-6.12235 -1.79628,-1.925 -3.56289,-4.48948 -3.9258,-5.69885 -0.36292,-1.20936 -1.47534,-2.45767 -2.47206,-2.77402 C 689.67723,166.76278 677.1552,154.43998 674,149.72939 c -1.375,-2.05282 -3.175,-3.96165 -4,-4.24183 -0.825,-0.28019 -2.625,-1.89592 -4,-3.59051 -1.375,-1.69459 -5.3125,-5.8055 -8.75,-9.13535 -3.4375,-3.32985 -6.25,-6.38551 -6.25,-6.79034 0,-0.40484 -1.6875,-2.48449 -3.75,-4.62144 -2.0625,-2.13696 -5.81913,-6.1274 -8.34807,-8.86765 -2.52895,-2.74025 -6.6281,-6.84565 -9.10925,-9.12312 -2.48114,-2.27747 -7.17551,-7.227466 -10.43193,-10.999999 -3.25643,-3.772533 -9.73227,-10.452514 -14.39076,-14.844401 -4.65849,-4.391888 -11.91324,-11.591888 -16.12165,-16 -17.14198,-17.9554 -25.54576,-27.074238 -25.93619,-28.143012 -0.22668,-0.620545 -2.11858,-2.278273 -4.20421,-3.683842 -2.08563,-1.405569 -5.78362,-5.120319 -8.21775,-8.255 -6.11461,-7.874411 -7.38602,-8.596048 -14.75131,-8.372672 -3.43139,0.104068 -16.0943,-0.09064 -28.13981,-0.432692 -12.60946,-0.358062 -22.3672,-0.238261 -23,0.282384 -0.66111,0.543947 -5.08389,0.386703 -11.09907,-0.394607 -5.5,-0.714393 -10.45,-0.946885 -11,-0.516649 -0.69942,0.547118 -12,0.580986 -12,0.03597 0,-0.203426 -163.55338,-0.517029 -226,-0.433342 -7.15,0.0096 -26.95,-0.0087 -44,-0.04052 -43.6381,-0.08157 -74.65596,0.220987 -84,0.819362 -4.4,0.281768 -12.275,0.788375 -17.5,1.125795 -13.905764,0.898006 -44.78808,1.039337 -45.618646,0.208772 -1.098767,-1.098768 -5.181473,-0.847119 -5.930957,0.365571 -0.421316,0.681705 -3.032015,0.893161 -7.076157,0.57314 l -6.40852,-0.507118 -1.388803,3.323872 C 11.059351,21.102201 10.68529,29.875423 10.656995,62.5 c -0.01002,11.55 -0.02973,26.282542 -0.0438,32.738983 -0.02246,10.302777 0.20169,11.905177 1.8321,13.097357 1.285644,0.94009 1.503105,1.57752 0.706196,2.07003 -0.633319,0.39142 -1.48899,0.50295 -1.90149,0.24786 -0.4125,-0.25509 -0.782068,14.00586 -0.821262,31.69099 -0.5187438,234.06878 -1.1627,362.4153 -1.8237211,363.48486 -0.4988959,0.80723 -0.1305101,1.95263 0.9614221,2.98929 1.64051,1.55748 9.98315,1.65792 113.851891,1.37067 C 185.06325,510.01957 247.875,509.88616 263,509.89359 Z M 18.078947,171.41667 c 0.04798,-1.16495 0.284941,-1.4019 0.604167,-0.60417 0.288871,0.72187 0.253344,1.58437 -0.07895,1.91667 -0.332292,0.33229 -0.568641,-0.25834 -0.52522,-1.3125 z"
       id="path1" />
  </g>
</svg>
