<?xml version="1.0" encoding="UTF-8" standalone="no"?>
<!-- Created with Inkscape (http://www.inkscape.org/) -->

<svg
   version="1.1"
   id="svg1"
   width="731"
   height="505"
   viewBox="0 0 731 505"
   sodipodi:docname="6.svg"
   inkscape:version="1.4 (86a8ad7, 2024-10-11)"
   xmlns:inkscape="http://www.inkscape.org/namespaces/inkscape"
   xmlns:sodipodi="http://sodipodi.sourceforge.net/DTD/sodipodi-0.dtd"
   xmlns="http://www.w3.org/2000/svg"
   xmlns:svg="http://www.w3.org/2000/svg">
  <defs
     id="defs1" />
  <sodipodi:namedview
     id="namedview1"
     pagecolor="#ffffff"
     bordercolor="#000000"
     borderopacity="0.25"
     inkscape:showpageshadow="2"
     inkscape:pageopacity="0.0"
     inkscape:pagecheckerboard="0"
     inkscape:deskcolor="#d1d1d1"
     inkscape:zoom="1.5742574"
     inkscape:cx="365.25157"
     inkscape:cy="252.5"
     inkscape:window-width="1920"
     inkscape:window-height="1013"
     inkscape:window-x="2391"
     inkscape:window-y="605"
     inkscape:window-maximized="1"
     inkscape:current-layer="g1" />
  <g
     inkscape:groupmode="layer"
     inkscape:label="Image"
     id="g1">
    <path
       style="fill:#000000"
       d="m 34.582595,504.24926 c -0.383001,-0.383 -5.860585,-0.55372 -12.172409,-0.37938 C 8.5657307,504.25229 7.10804,503.57744 4.0345097,495.36269 1.9836476,489.88127 1.9158605,488.38778 2.2742609,456.58086 4.7788515,234.30621 4.9442411,216.94166 5.4800437,120 5.7247544,75.725 6.1403541,35.45 6.4035986,30.5 6.6668431,25.55 6.9087244,18.703158 6.9411125,15.284796 6.992617,9.8488236 7.376125,8.6412098 10,5.6527812 11.65,3.773535 13,1.7328767 13,1.117985 c 0,-1.84132022 3.428459,-1.26281449 4.713832,0.7953949 1.119081,1.791933 2.312065,1.8887395 18.795306,1.525174 C 46.189347,3.2250406 54.545856,2.7806763 55.079158,2.4510776 55.61246,2.1214789 57.275318,2.0923328 58.774399,2.3863084 60.27348,2.680284 71.625,3.183971 84,3.505613 c 12.375,0.3216419 24.29506,0.9913279 26.48902,1.488191 3.08122,0.6978014 4.16587,0.5873531 4.76618,-0.4853323 0.63186,-1.129073 4.46676,-1.3291801 20.51098,-1.0702719 10.8536,0.1751464 20.52705,0.6485462 21.49655,1.0519997 0.96951,0.4034535 2.32852,0.2639982 3.02002,-0.3099007 C 161.11593,3.4888242 163.88778,3.4280057 168.5,4 c 4.52636,0.5613452 7.38872,0.5073185 8.18618,-0.154513 0.67441,-0.5597167 1.59791,-0.7879463 2.0522,-0.5071768 1.12164,0.6932136 13.21822,0.7526398 34.58324,0.1698953 9.80189,-0.2673529 19.59203,-0.088312 21.75587,0.3978694 2.16383,0.4861811 4.14881,0.5367858 4.41106,0.1124551 0.59672,-0.965511 19.3788,-0.5754357 21.77941,0.4523253 0.97411,0.4170388 3.1295,0.1929373 4.8002,-0.4990881 2.42134,-1.0029527 3.50061,-1.0053298 5.35704,-0.011799 1.80294,0.964907 2.82018,0.9790784 4.53164,0.063132 1.55835,-0.8340027 5.41315,-0.9732539 13.11806,-0.4738782 7.19678,0.4664425 11.34346,0.3484625 12.18092,-0.3465679 0.89457,-0.7424326 3.08847,-0.6742097 7.42586,0.2309197 3.49576,0.7294974 6.7314,0.9200176 7.48725,0.4408625 1.73656,-1.1008661 25.55491,-1.1302851 26.23344,-0.032402 0.63078,1.020618 9.38088,0.7901472 11.9114,-0.313737 1.02005,-0.4449736 2.892,-0.2999404 4.27769,0.3314227 1.81061,0.8249678 2.93618,0.8277102 4.245,0.010343 1.2906,-0.8059962 3.95488,-0.82182 9.67504,-0.057463 4.34169,0.5801584 8.30671,0.799752 8.81116,0.4879859 0.50445,-0.3117662 4.57571,-0.664643 9.04726,-0.7841708 C 398.7755,3.2917272 464.03543,3.0118599 472,3.166344 c 2.475,0.048006 6.3,0.038034 8.5,-0.02216 2.2,-0.060194 9.4,-0.00476 16,0.123186 C 503.1,3.3953163 513.9,3.05 520.5,2.5 c 7.5923,-0.6326917 13.39912,-0.6544328 15.80913,-0.05919 2.42741,0.5995415 5.14827,0.5833716 7.50088,-0.044577 5.87181,-1.56727437 10.86909,0.035942 16.75274,5.3745797 C 563.42935,10.371865 568.57849,14.975 572.00529,18 c 3.4268,3.025 7.18998,6.625 8.36263,8 1.17264,1.375 7.19458,7.697834 13.38208,14.050743 6.1875,6.352909 11.25,12.004087 11.25,12.558173 0,0.554086 1.79245,2.331251 3.98321,3.949257 2.19077,1.618005 4.23185,3.616827 4.53574,4.441827 0.30388,0.825 3.23643,4.406301 6.51678,7.958446 3.28035,3.552145 5.96427,6.775715 5.96427,7.163489 0,0.387774 1.75321,1.994367 3.89601,3.570206 2.14281,1.575838 5.69709,5.102268 7.89839,7.83651 2.20131,2.734242 7.6481,8.788328 12.10399,13.453519 4.45588,4.6652 8.10161,8.86081 8.10161,9.32357 0,0.9087 1.42812,2.49145 17.31903,19.19426 13.52731,14.21846 15.88347,17.1103 18.1284,22.25 1.02097,2.3375 2.13487,4.25 2.47533,4.25 0.34046,0 1.73461,2.12408 3.09813,4.72017 1.36351,2.59609 3.24417,5.58186 4.17925,6.63504 0.93508,1.05318 2.37658,3.34036 3.20333,5.08261 0.82675,1.74225 2.42419,4.00123 3.54986,5.01994 1.12567,1.01872 2.04667,2.57141 2.04667,3.45043 0,0.87901 1.575,3.81348 3.5,6.52103 1.925,2.70755 3.5,5.90793 3.5,7.11194 0,1.20402 0.82258,3.26231 1.82796,4.57398 3.668,4.78547 7.18652,15.81327 8.1952,25.68553 1.14073,11.16463 0.52142,38.03659 -0.99545,43.19273 -0.56524,1.92137 -1.02771,4.81679 -1.02771,6.43427 0,1.61749 -0.86191,4.77046 -1.91536,7.00661 -1.05346,2.23614 -2.90762,6.54072 -4.12036,9.56572 -1.21274,3.025 -3.27583,7.79485 -4.58464,10.59967 -1.3088,2.80482 -2.37964,5.78722 -2.37964,6.62756 0,0.84033 -0.70019,2.10898 -1.55597,2.81922 -1.65197,1.37102 -7.32031,12.20363 -7.78097,14.87003 -0.15047,0.87093 -2.04872,3.43223 -4.21832,5.69176 -3.54603,3.69301 -18.07871,19.36211 -21.17688,22.83287 -0.67768,0.75917 -1.57768,1.533 -2,1.7196 -0.42232,0.18661 -3.01786,3.26113 -5.76786,6.83227 -4.2318,5.49539 -10.29269,12.11783 -24.71701,27.00702 -1.33206,1.375 -3.93662,4.525 -5.78791,7 -1.85128,2.475 -6.54501,7.93119 -10.43052,12.12487 -3.88551,4.19368 -9.08956,10.26868 -11.56456,13.5 -4.17713,5.4536 -10.17872,12.06091 -19.86974,21.87513 -2.17238,2.2 -4.24728,5.01744 -4.61089,6.26097 -0.36361,1.24353 -1.97922,2.94259 -3.59024,3.77568 -1.61102,0.83309 -2.92913,1.85627 -2.92913,2.27373 0,1.08927 -4.47878,6.35001 -12.25,14.38875 -3.7125,3.84031 -6.75,7.28692 -6.75,7.65914 0,0.37223 -3.15,3.94121 -7,7.93108 -3.85,3.98986 -7,7.65003 -7,8.1337 0,1.42831 -6.92407,5.08921 -9.82447,5.19441 -4.57436,0.16591 -38.652,0.77695 -61.17553,1.09692 -11.825,0.16799 -31.4,0.64011 -43.5,1.04917 -34.81819,1.17707 -66.52536,1.50443 -67.02747,0.69201 -0.25344,-0.41008 -2.36123,-0.3186 -4.68398,0.20329 -2.32275,0.52188 -5.36289,0.62582 -6.75587,0.23098 -1.39297,-0.39485 -2.98268,-0.53855 -3.53268,-0.31934 -1.12299,0.44757 -6.905,0.53056 -65.11066,0.93448 -22.61087,0.15691 -41.61407,-0.0258 -42.22934,-0.40608 -0.61526,-0.38026 -1.92267,-0.26109 -2.90535,0.26482 -1.05887,0.5667 -12.77861,0.81155 -28.77066,0.60108 -45.49066,-0.59867 -47.75985,-0.59968 -55.1755,-0.0244 -3.95533,0.30684 -7.42798,0.17528 -7.71699,-0.29235 -0.54649,-0.88425 -119.056793,-0.59655 -120.495334,0.29252 -0.449463,0.27778 -1.13057,0.19169 -1.513571,-0.19131 z m 14.970966,-8.20282 c 0.524458,-0.52446 6.126958,-0.90705 12.45,-0.8502 6.323041,0.0568 20.721439,0.0679 31.996439,0.0245 11.275,-0.0434 26.60147,-0.0981 34.05882,-0.12171 7.45735,-0.0236 17.31679,0.16489 21.90987,0.41881 5.32297,0.29427 8.83697,0.0584 9.69118,-0.65054 0.9019,-0.74851 1.74889,-0.7855 2.59013,-0.11313 1.59925,1.27822 28.85251,1.33169 30.43608,0.0597 0.75093,-0.60318 1.85156,-0.60349 3,-8.4e-4 1.05458,0.55339 9.34899,0.75386 19.81392,0.47888 25.41409,-0.66778 25.45872,-0.66862 31,-0.58362 2.75,0.0422 16.025,0.0954 29.5,0.11822 13.475,0.0228 28.1,0.0936 32.5,0.15731 4.4,0.0637 14.75,-0.13029 23,-0.43107 12.36623,-0.45083 48.90699,-0.90137 54.5,-0.67196 10.8383,0.44455 107.54616,-1.48805 108.68538,-2.17196 0.44804,-0.26897 2.96815,-0.15741 5.60024,0.24792 2.63209,0.40532 5.03284,0.33695 5.33499,-0.15195 0.30216,-0.48889 8.05022,-0.77488 17.21792,-0.63553 9.1677,0.13935 17.11695,-0.008 17.66501,-0.32663 0.54805,-0.319 2.6217,-0.87281 4.60809,-1.2307 2.63097,-0.47401 5.41415,-2.41808 10.25,-7.15969 3.65111,-3.57995 6.63837,-6.95008 6.63837,-7.48917 0,-1.1656 13.63729,-16.5046 23.5,-26.43242 3.85,-3.87541 8.6384,-9.06772 10.64089,-11.53845 2.0025,-2.47074 5.53179,-6.51725 7.84287,-8.99225 2.31109,-2.475 4.83262,-5.71018 5.6034,-7.1893 0.77078,-1.47911 2.23471,-3.27911 3.25317,-4 2.17203,-1.5374 11.71997,-12.65084 14.78401,-17.20802 1.16838,-1.73776 6.68088,-7.84533 12.25,-13.5724 C 645.44345,380.30322 650,375.34232 650,375.00607 c 0,-0.33626 1.74766,-2.38768 3.88368,-4.55872 2.13602,-2.17104 6.39112,-7.09735 9.45578,-10.94735 5.8919,-7.40174 13.12235,-15.52187 23.41054,-26.2911 3.4375,-3.59823 6.25,-6.92729 6.25,-7.39791 0,-0.47062 1.8,-2.80845 4,-5.19516 2.2,-2.38672 4,-5.02157 4,-5.85522 0,-0.83364 0.675,-2.07592 1.5,-2.76061 0.825,-0.68469 1.5,-1.81027 1.5,-2.50129 0,-0.69102 1.575,-3.87195 3.5,-7.06873 1.925,-3.19678 3.51001,-6.5138 3.52224,-7.37115 0.0122,-0.85736 0.90222,-2.68383 1.97776,-4.05883 1.07554,-1.375 1.96553,-3.596 1.97776,-4.93555 0.0122,-1.33955 0.88523,-3.36455 1.93999,-4.5 3.19038,-3.43444 5.01303,-29.97247 3.57582,-52.06445 -0.35781,-5.5 -1.02703,-10.9 -1.48716,-12 -0.46013,-1.1 -1.64189,-4.475 -2.62614,-7.5 -0.98425,-3.025 -2.37246,-6.21043 -3.08491,-7.07874 C 712.58291,202.05295 712,200.67855 712,199.86704 c 0,-0.81151 -1.4625,-3.644 -3.25,-6.29442 C 704.44844,187.19447 700.79367,180.87051 697.00507,173.25 695.29609,169.8125 693.54305,167 693.10943,167 692.09355,167 690,162.41724 690,160.19349 c 0,-0.94182 -0.88584,-2.26562 -1.96854,-2.94177 -1.0827,-0.67616 -2.71879,-2.68019 -3.63576,-4.45342 -0.91697,-1.77322 -2.84362,-4.13795 -4.28146,-5.25496 C 675.79186,144.18542 657,124.85285 657,123.76403 c 0,-0.55654 -1.96401,-2.74068 -4.36447,-4.85364 -2.40045,-2.11297 -4.93005,-5.2072 -5.62132,-6.87607 C 646.32294,110.36544 645.14733,109 644.40173,109 c -0.74559,0 -2.13107,-1.2375 -3.07885,-2.75 -2.585,-4.12527 -7.19557,-9.230406 -35.82288,-39.665522 -7.15,-7.60152 -13.675,-14.82058 -14.5,-16.042354 -0.825,-1.221774 -3.1875,-3.690185 -5.25,-5.485358 C 583.6875,43.261593 582,41.460226 582,41.053728 582,39.752117 555.84716,14.086267 553.88688,13.464098 552.8491,13.134717 552,12.449625 552,11.941671 c 0,-0.737664 -42.56297,-1.412002 -51.5,-0.815931 -6.6627,0.44438 -84.3991,0.273906 -91,-0.199561 -4.4,-0.315602 -8.45,-0.323656 -9,-0.0179 -0.55,0.305758 -4.15,0.689336 -8,0.852394 -13.01923,0.551402 -100.98257,0.596479 -118.5,0.06073 -0.825,-0.02523 -2.625,5.9e-4 -4,0.05738 -1.375,0.05679 -19.97498,-0.0052 -41.3333,-0.137763 C 207.30839,11.608459 189.60855,11.725 189.33372,12 188.49881,12.835437 184.08014,12.804728 171,11.872583 c -6.875,-0.489941 -14.75,-0.522369 -17.5,-0.07206 -2.83569,0.464338 -13.22438,0.33514 -24,-0.298474 -10.55381,-0.620571 -19.51447,-0.737975 -20.15732,-0.264105 -0.63652,0.469209 -18.861521,0.669988 -40.499997,0.446175 -21.638475,-0.223813 -42.514336,-0.186218 -46.3908,0.08355 L 15.403766,12.25814 14.200805,27.37907 C 13.539177,35.695582 12.767804,63.2 12.486643,88.5 c -0.28116,25.3 -0.789504,72.1 -1.129653,104 -0.340149,31.9 -0.734853,61.375 -0.87712,65.5 -0.142267,4.125 -0.213057,15.375 -0.157312,25 0.05575,9.625 -0.06616,27.4 -0.270892,39.5 -0.2047366,12.1 -0.3229803,23.575 -0.2627643,25.5 0.3648523,11.66366 0.090089,38.25985 -0.5010497,48.5 -0.5925174,10.26404 -0.6919038,31.92916 -0.3257049,71 0.046395,4.95 0.059831,11.25 0.029858,14 -0.090723,8.32367 2.4852914,11.63721 9.5079954,12.23017 2.2,0.18576 5.297632,0.77002 6.883626,1.29835 1.585994,0.52833 5.910611,0.67928 9.61026,0.33543 4.546448,-0.42255 6.953111,-0.25873 7.425391,0.50544 0.849779,1.37497 5.813187,1.49815 7.134284,0.17705 z M 508,496 c 0,-0.55 -0.45,-1 -1,-1 -0.55,0 -1,0.45 -1,1 0,0.55 0.45,1 1,1 0.55,0 1,-0.45 1,-1 z M 695.60417,327.27083 c -1.01652,-1.01651 -1.85525,0.51389 -1.02122,1.86338 0.63003,1.01942 0.86558,1.02021 1.2043,0.004 0.2316,-0.69479 0.14921,-1.53513 -0.18308,-1.86742 z M 671.52381,131.38095 c -0.89048,-0.89047 -1.92209,-1.31601 -2.29247,-0.94562 -0.37038,0.37038 -0.0115,1.09206 0.79762,1.60373 2.36246,1.49407 3.25436,1.10141 1.49485,-0.65811 z"
       id="path1" />
  </g>
</svg>
