<?xml version="1.0" encoding="UTF-8" standalone="no"?>
<!-- Created with Inkscape (http://www.inkscape.org/) -->

<svg
   version="1.1"
   id="svg1"
   width="726"
   height="516"
   viewBox="0 0 726 516"
   sodipodi:docname="2.svg"
   inkscape:version="1.4 (86a8ad7, 2024-10-11)"
   xmlns:inkscape="http://www.inkscape.org/namespaces/inkscape"
   xmlns:sodipodi="http://sodipodi.sourceforge.net/DTD/sodipodi-0.dtd"
   xmlns="http://www.w3.org/2000/svg"
   xmlns:svg="http://www.w3.org/2000/svg">
  <defs
     id="defs1" />
  <sodipodi:namedview
     id="namedview1"
     pagecolor="#ffffff"
     bordercolor="#000000"
     borderopacity="0.25"
     inkscape:showpageshadow="2"
     inkscape:pageopacity="0.0"
     inkscape:pagecheckerboard="0"
     inkscape:deskcolor="#d1d1d1"
     inkscape:zoom="1.5406977"
     inkscape:cx="362.82264"
     inkscape:cy="258.32453"
     inkscape:window-width="1920"
     inkscape:window-height="1013"
     inkscape:window-x="2391"
     inkscape:window-y="605"
     inkscape:window-maximized="1"
     inkscape:current-layer="g1" />
  <g
     inkscape:groupmode="layer"
     inkscape:label="Image"
     id="g1">
    <path
       id="path1"
       style="fill:#000000"
       d="m 333.41797,0.27929688 c -0.72092,0.034845 -1.33641,0.19067952 -1.68164,0.45898437 C 331.04955,1.2720411 327.83119,1.432572 324.5,1.0996094 315.96175,0.24618567 91.694791,3.0242102 79,4.140625 78.175,4.2131778 73.9,4.2588104 69.5,4.2421875 65.1,4.2255645 55.65,4.35768 48.5,4.5351562 30.89951,4.972033 19.44336,5.0086399 13.763672,4.6464844 9.8257284,4.3953882 8.6445803,4.7501868 6.7636719,6.7519531 4.5714172,9.0850713 4.4879935,9.8816242 4.1445312,32.330078 3.9495562,45.073512 3.8332025,57.3 3.8847656,59.5 c 0.051563,2.2 0.080103,6.475 0.0625,9.5 -0.048636,8.358031 -0.023661,10.838225 0.1308594,12.75 0.5677908,7.024896 -1.0919331,97.69042 -1.8535156,101.25 -0.5408603,2.52794 -0.8963747,21.8103 -0.8105469,44 0.087015,22.49661 -0.2473973,40.45611 -0.77734375,41.7207 -0.58174112,1.38818 -0.57117754,2.69998 0.0292969,3.5 0.52824998,0.70378 0.85645868,5.1043 0.72851558,9.7793 -0.5285848,19.31433 -0.47851753,8.84781 -0.70507808,143.58398 -0.12633965,75.13455 -0.0559892,78.31666 1.83984378,84.25 L 2.8222656,510.75 c 0.7277618,-0.34384 1.6303903,-0.57493 2.7636719,-0.58984 2.8219248,-0.0372 5.6375415,0.002 8.4531245,0.19922 3.668783,0.33172 7.340053,0.61785 11.019532,0.79687 1.442216,0.0241 2.881082,0.0887 4.318359,0.17578 2.491781,-0.0784 4.984305,-0.19283 7.466797,-0.42969 2.623442,-0.2619 5.231408,-0.68294 7.871094,-0.74414 2.151278,10e-6 4.3038,-5e-5 6.455078,0 2.140523,6e-5 4.281352,0.002 6.421875,0.002 2.129564,0 4.25911,-0.001 6.388672,0.002 1.915772,0.003 3.830383,0.006 5.746093,0.0234 1.923148,0.0202 3.847774,0.0491 5.769532,0.1289 2.485393,0.11645 4.966743,0.29293 7.441406,0.55469 3.215835,0.34065 6.432228,0.66006 9.664062,0.81055 2.932893,0.1069 5.862376,0.2713 8.792968,0.42578 1.89219,9e-4 3.78365,-1.8e-4 5.67578,0.0156 0.18106,0.004 0.29386,0.006 0.43555,0.01 0.0119,-0.003 0.0153,0.003 0.0254,0.002 0.99618,0.0243 1.04065,0.23143 0.875,1.18946 4.75849,-0.2589 13.39313,-0.3421 29.84375,-0.35938 19.3875,-0.0204 52.35,-0.0901 73.25,-0.15625 20.9,-0.0661 68.29987,-0.0144 105.33398,0.11719 37.03412,0.13157 67.52535,0.0489 67.75782,-0.1836 0.23246,-0.23247 10.88259,-0.1829 23.66601,0.10938 29.96864,0.68521 54.92851,0.63083 98.125,-0.21289 30.31471,-0.59211 35.26163,-0.90456 37.77735,-2.39063 2.43512,-1.43846 13.85311,-13.39928 38.82617,-40.67578 2.48272,-2.71172 6.87617,-7.16667 9.76367,-9.89843 2.8875,-2.73177 5.25567,-5.46184 5.26367,-6.06836 0.0154,-1.22453 9.45123,-12.03516 21.09766,-24.17188 4.18602,-4.36224 9.13602,-9.70688 11,-11.87695 1.86398,-2.17007 4.51367,-5.14836 5.88867,-6.61914 1.375,-1.47079 4.075,-4.608 6,-6.97071 1.925,-2.36271 5.975,-7.12441 9,-10.58203 10.28707,-11.75828 17.82206,-20.86911 22.64648,-27.38281 2.64785,-3.575 8.0062,-9.65 11.90821,-13.5 6.89659,-6.80465 14.93563,-17.86936 18.89062,-26 1.07015,-2.2 2.92459,-5.125 4.1211,-6.5 1.1965,-1.375 2.49101,-3.85 2.875,-5.5 0.38398,-1.65 1.5364,-4.8 2.5625,-7 C 717.29632,300.44088 723,279.2304 723,274.04492 c 0,-1.60965 0.39539,-3.17187 0.87891,-3.4707 1.47948,-0.91437 2.24891,-22.39972 1.23828,-34.57422 -0.68877,-8.29728 -1.53336,-12.60275 -3.03516,-15.46094 C 720.93721,218.36027 720,215.81381 720,214.88086 c 0,-0.93294 -1.09464,-3.87581 -2.43164,-6.53906 -1.33699,-2.66326 -3.54117,-7.3168 -4.89844,-10.3418 -2.91986,-6.50756 -7.99445,-17.03505 -10.67383,-22.14258 -1.0507,-2.00289 -3.47894,-4.93307 -5.39648,-6.51367 -1.91754,-1.5806 -5.81761,-5.79287 -8.66602,-9.35937 -2.8484,-3.56652 -6.92384,-8.26061 -9.05664,-10.43165 C 676.74415,147.38169 675,145.30268 675,144.93359 c 0,-0.36909 -1.9125,-2.66171 -4.25,-5.0957 -4.48093,-4.6659 -13.47993,-14.98658 -17.83789,-20.45703 -1.42377,-1.78723 -10.71213,-11.49093 -20.64063,-21.564454 C 622.34298,87.742878 611.5821,76.382423 608.35938,72.572266 605.13665,68.762109 599.575,62.533342 596,58.730469 c -3.575,-3.802874 -6.725,-7.462444 -7,-8.132813 -0.275,-0.67037 -1.94575,-2.766603 -3.71289,-4.658203 -11.65031,-12.470792 -15.92967,-17.338519 -16.95899,-19.292969 -0.64423,-1.223259 -2.33173,-2.844485 -3.75,-3.603515 -1.41825,-0.759031 -2.57811,-1.86833 -2.57812,-2.462891 -10e-6,-0.594561 -3.03751,-4.280685 -6.75,-8.193359 l -6.75,-7.1152346 -8,-0.1601563 c -4.4,-0.08841 -11.15,-0.3693923 -15,-0.625 -3.85,-0.2556077 -29.67003,-0.7028866 -57.37695,-0.9941406 -27.70693,-0.291254 -50.79726,-0.7909425 -51.3125,-1.109375 -0.51523,-0.3184325 -1.75261,0.1598769 -2.75,1.0625 -1.58053,1.4303631 -1.88623,1.4487809 -2.38672,0.1445313 -0.49374,-1.2866829 -5.45345,-1.507037 -35.375,-1.578125 C 357.1592,1.9662463 340.825,1.7903164 340,1.6210938 c -0.825,-0.1692226 -2.74402,-0.65374549 -4.26367,-1.07617192 -0.7711,-0.21434806 -1.59744,-0.30047005 -2.31836,-0.265625 z M 283.50781,8.2265625 c 0.30426,0.0386 0.49208,0.1803437 0.49219,0.4160156 3.7e-4,0.8343018 48.00285,1.4751569 139.5,1.8613279 39.94171,0.168577 98.28286,1.141068 115,1.917969 6.61335,0.307344 9.49132,1.196217 9.51562,2.935547 C 548.03718,16.900344 553.48836,23 554.8457,23 c 0.59572,0 1.56986,0.90924 2.16407,2.019531 0.59421,1.11029 6.12251,7.139128 12.28515,13.398438 6.16264,6.25931 13.45508,14.341166 16.20508,17.958984 2.75,3.617818 5.4766,6.587029 6.05859,6.599609 0.582,0.01258 2.382,1.813001 4,4 1.61801,2.187001 3.27408,3.987 3.67969,4 0.4056,0.013 1.8567,1.798744 3.22656,3.96875 1.36987,2.170007 8.73164,10.382507 16.35743,18.25 13.3456,13.768618 21.3328,22.395028 31.39648,33.906248 2.5955,2.96883 6.758,7.58818 9.25,10.26563 2.492,2.67745 4.53125,5.05893 4.53125,5.29101 0,0.23208 1.6875,2.09781 3.75,4.14649 2.0625,2.04867 6.45,7.0643 9.75,11.14648 3.3,4.08218 8.5875,10.08247 11.75,13.33399 3.1625,3.25152 5.75005,6.20636 5.74805,6.56445 -0.002,0.35809 0.99622,2.53949 2.21875,4.84766 1.22252,2.30817 2.0124,4.39258 1.7539,4.63281 -0.25849,0.24023 -2.9457,0.12302 -5.9707,-0.25977 -9.30877,-1.17797 -676.999882,-0.0145 -677,1.17969 -7.8e-5,0.79119 -0.424377,0.79897 -3.25,0.0606 -1.535185,-0.40118 -1.777011,-2.01418 -1.972656,-13.13477 C 10.654683,168.2036 10.450486,159.8 10.324219,156.5 9.4297049,133.12194 10.22536,15.440656 11.285156,14.380859 11.632554,14.033462 16.323719,13.627999 21.708984,13.478516 27.094248,13.329032 38.925,12.933382 48,12.599609 c 9.075,-0.333773 30.9,-0.873744 48.5,-1.199218 17.6,-0.325474 34.025,-0.747837 36.5,-0.9375 2.475,-0.189663 36.70783,-0.5798538 76.07227,-0.8671879 39.36443,-0.2873341 72.32693,-0.8118019 73.25,-1.1660156 0.46153,-0.1771068 0.88128,-0.2417247 1.18554,-0.203125 z M 689.11328,317.39258 c 0.47887,0.0585 0.96383,0.25504 1.35547,0.58008 0.83687,0.69454 2.76212,0.88758 4.89063,0.48828 1.93101,-0.36226 3.95903,-0.38213 4.50781,-0.043 1.73778,1.07402 -10.84274,21.60662 -17.33594,28.29297 -5.97167,6.14932 -10.97329,11.70064 -21.88086,24.28906 -3.09766,3.575 -6.57139,7.47948 -7.7207,8.67773 -1.14931,1.19824 -3.97275,4.57324 -6.27344,7.5 -2.30069,2.92675 -5.52728,6.68636 -7.16992,8.35352 -1.64265,1.66716 -6.54125,7.06716 -10.88672,12 -7.396,8.39571 -22.30771,24.59647 -34.34961,37.32031 -2.8875,3.05102 -5.25,5.88621 -5.25,6.30078 0,0.41457 -1.9125,2.6919 -4.25,5.06055 -6.63152,6.7199 -28.96943,30.59842 -31.75,33.93945 -5.5221,6.63516 -9.70368,10.61864 -11.86523,11.30469 -1.25192,0.39734 -9.87962,0.70224 -19.17383,0.67774 -9.29421,-0.0245 -17.12492,0.31991 -17.40039,0.76562 -0.27547,0.44571 -2.83602,0.44161 -5.69141,-0.01 -2.85539,-0.45136 -8.38246,-0.57597 -12.28125,-0.27539 -8.57782,0.66132 -227.00295,0.49738 -234.08789,-0.17578 -2.75,-0.26124 -8.375,-0.36875 -12.5,-0.23828 -4.125,0.13069 -11.55,0.134 -16.5,0.008 -4.95,-0.12619 -9.675,0.0829 -10.5,0.46485 -0.825,0.38189 -16.35,0.75538 -34.5,0.83008 -18.15,0.0747 -34.95027,0.32988 -37.33398,0.5664 -2.38372,0.23648 -4.56132,0.20469 -4.83985,-0.0703 -0.27853,-0.275 -11.60325,-0.50191 -25.16601,-0.50391 C 97.597405,503.49441 81.325,503.38982 75,503.26172 c -6.325,-0.1281 -14.875,-0.0289 -19,0.22266 -4.351352,0.26529 -8.836204,-0.0232 -10.683594,-0.68946 -2.471937,-0.89152 -3.525446,-0.86735 -4.707031,0.11328 -0.868659,0.72092 -2.078,0.91708 -2.816406,0.45703 C 37.081376,502.92189 30.2,502.5458 22.5,502.5293 L 8.5,502.5 8.1660156,472.5 C 7.6237999,423.79947 7.8260517,353.84044 8.5507812,339.14844 8.9210802,331.64162 9.2199969,324.4875 9.2167969,323.25 l -0.00586,-2.25 18.6445315,-0.006 C 38.109786,320.99122 51.225,320.77576 57,320.51562 c 16.956149,-0.76378 373.87555,-0.97386 374.62891,-0.2207 0.37765,0.37765 1.29145,0.18428 2.03125,-0.42969 0.97241,-0.80703 36.18688,-1.15485 127.09375,-1.25781 69.1608,-0.0783 126.32747,-0.51067 127.03906,-0.96094 0.36708,-0.23227 0.84144,-0.31245 1.32031,-0.2539 z" />
  </g>
</svg>
