<?xml version="1.0" encoding="UTF-8" standalone="no"?>
<!-- Created with Inkscape (http://www.inkscape.org/) -->

<svg
   version="1.1"
   id="svg1"
   width="720"
   height="512"
   viewBox="0 0 720 512"
   sodipodi:docname="3.svg"
   inkscape:version="1.4 (86a8ad7, 2024-10-11)"
   xmlns:inkscape="http://www.inkscape.org/namespaces/inkscape"
   xmlns:sodipodi="http://sodipodi.sourceforge.net/DTD/sodipodi-0.dtd"
   xmlns="http://www.w3.org/2000/svg"
   xmlns:svg="http://www.w3.org/2000/svg">
  <defs
     id="defs1" />
  <sodipodi:namedview
     id="namedview1"
     pagecolor="#ffffff"
     bordercolor="#000000"
     borderopacity="0.25"
     inkscape:showpageshadow="2"
     inkscape:pageopacity="0.0"
     inkscape:pagecheckerboard="0"
     inkscape:deskcolor="#d1d1d1"
     inkscape:zoom="1.5527344"
     inkscape:cx="360.01006"
     inkscape:cy="262.44025"
     inkscape:window-width="1920"
     inkscape:window-height="1013"
     inkscape:window-x="2391"
     inkscape:window-y="605"
     inkscape:window-maximized="1"
     inkscape:current-layer="g1" />
  <g
     inkscape:groupmode="layer"
     inkscape:label="Image"
     id="g1">
    <path
       style="fill:#000000"
       d="M 93.638374,510.5 C 93.14613,509.21723 89.099755,509 65.698051,509 c -15.050595,0 -27.654001,-0.28928 -28.00757,-0.64285 -0.774861,-0.77486 -22.387449,-0.66247 -23.658415,0.12303 -0.491628,0.30384 -1.176521,0.0951 -1.521985,-0.46387 C 12.164618,507.45734 10.538069,507 8.8955285,507 7.0846117,507 4.9735391,506.06445 3.5323001,504.62321 L 1.1555092,502.24642 1.4786298,346.87321 C 1.6563461,261.41794 1.8057266,185.425 1.8105864,178 c 0.00527,-8.05252 -0.419072,-14.01815 -1.05161104,-14.78409 -0.75059164,-0.90889 -0.72566438,-1.93156 0.0853109,-3.5 C 1.65687,158.14436 2.1324112,138.01711 2.4796321,90.5 2.7489054,53.65 2.9545093,20.535557 2.9365295,16.912348 2.9117684,11.922584 3.3131825,9.984971 4.591449,8.924104 7.3391212,6.6437387 14.023562,5.4245304 21.5,5.8400694 36.638314,6.681454 48.730269,6.1902037 50.792382,4.6500311 c 0.852075,-0.6364072 1.686774,-0.5708747 2.45,0.1923505 1.243194,1.2431942 5.015268,1.5666346 6.062102,0.5198011 0.812051,-0.8120513 21.253232,-0.7535633 22.577047,0.064599 0.544699,0.3366425 2.931686,0.094579 5.304415,-0.5379181 C 89.558676,4.2563665 94.875,3.5814555 99,3.3890617 c 32.07321,-1.4959238 37.10701,-1.5451377 38.51508,-0.37655 0.91848,0.7622766 2.48249,0.9335857 4.22193,0.4624383 C 143.25666,3.0633384 146.3,2.811049 148.5,2.9143068 c 5.90325,0.2770712 11.87241,0.2454928 45.5,-0.240707 57.41314,-0.8300999 134.31217,-0.3138154 140.3686,0.9424064 1.60212,0.3323099 3.9357,0.023912 5.28558,-0.6985234 1.91125,-1.0228698 3.1067,-1.0441227 5.71328,-0.101572 2.4848,0.8985179 17.67775,1.040541 61.71441,0.5769044 86.52344,-0.9109552 123.9772,-0.974547 125.20989,-0.2125906 1.19478,0.7385158 4.76083,-0.8095685 5.94293,-2.5799286 0.51586,-0.77258065 0.73925,-0.74196636 0.75,0.1027867 0.008,0.6616955 1.63163,1.9700784 3.60714,2.9075176 1.97551,0.9374392 3.85507,2.421052 4.17681,3.2969173 0.32174,0.8758653 2.88458,3.8424824 5.6952,6.5924824 2.81062,2.75 6.29248,6.606909 7.73748,8.570909 2.41909,3.287959 9.0894,10.041896 14.54868,14.731074 1.2375,1.062934 2.25,2.235547 2.25,2.605805 0,1.70258 4.56376,6.592212 6.15287,6.592212 0.97722,0 2.30264,1.0125 2.94537,2.25 0.64274,1.2375 4.18396,5.625 7.8694,9.75 3.68543,4.125 8.29039,9.525 10.23323,12 1.94284,2.475 7.75494,8.80202 12.91578,14.060044 13.06843,13.314522 36.11064,38.324746 45.38335,49.259506 1.65,1.94575 7.69689,8.54784 13.43754,14.67131 5.74064,6.12347 11.79944,12.90558 13.464,15.07136 C 691.06609,165.228 692.7817,167 693.214,167 c 0.4323,0 0.786,0.47187 0.786,1.0486 0,0.57673 1.85407,3.83923 4.12015,7.25 C 705.16846,185.90728 711,198.33812 711,202.75401 c 0,1.57505 0.66069,3.73724 1.4682,4.80486 0.8075,1.06762 1.4825,2.85909 1.5,3.98103 0.0175,1.12195 0.77658,4.72195 1.68687,8 0.9103,3.27806 1.57082,7.69655 1.46784,9.81889 -0.10298,2.12233 0.3206,4.47068 0.94128,5.21855 1.48599,1.79051 1.39134,28.10668 -0.11517,32.02133 -0.6141,1.59573 -1.53986,5.60133 -2.05725,8.90133 -0.5174,3.3 -1.55435,7.35 -2.30435,9 -0.75,1.65 -1.92813,4.8 -2.61808,7 -2.66975,8.51294 -23.11989,46.5 -25.03304,46.5 -0.51497,0 -0.93824,0.5625 -0.9406,1.25 -0.002,0.6875 -1.87298,3.71492 -4.15691,6.7276 -2.28393,3.01267 -5.00305,7.40017 -6.04249,9.75 -1.03944,2.34982 -2.30093,4.2724 -2.80331,4.2724 -0.50238,0 -3.74382,3.4955 -7.2032,7.76778 -3.45939,4.27228 -7.08078,8.65978 -8.04756,9.75 -0.96677,1.09022 -5.35427,6.00958 -9.75,10.93192 -4.39572,4.92233 -7.99223,9.5045 -7.99223,10.18261 0,0.6781 -0.97582,1.54263 -2.16848,1.92116 -2.58293,0.81979 -10.12936,8.19928 -15.26489,14.92718 -2.02659,2.65498 -4.89564,6.04927 -6.37567,7.54288 -3.68171,3.7155 -11.59441,12.82925 -14.30511,16.47647 -1.22632,1.65 -6.16273,7.05 -10.96979,12 -7.92718,8.1629 -13.02106,13.8101 -21.28731,23.59964 -9.28382,10.99462 -12.76079,14.92243 -18.37875,20.76181 -3.4375,3.57299 -6.25,6.85428 -6.25,7.29176 0,2.26256 -6.95934,4.15029 -16.47743,4.46952 -25.77643,0.86453 -144.54188,1.10756 -148.83727,0.30457 -3.59246,-0.67158 -5.68123,-0.53801 -8.22816,0.52616 -1.9473,0.81363 -3.65602,1.03376 -3.97818,0.5125 -0.3106,-0.50256 -2.23293,-0.92936 -4.27184,-0.94845 -19.78918,-0.18525 -30.41195,0.26344 -36.48573,1.5411 -4.66524,0.98136 -9.01122,1.25475 -12.66231,0.79654 -5.72527,-0.71853 -60.5942,-1.06015 -78.8072,-0.49067 -5.63647,0.17624 -10.50053,0.72883 -10.80902,1.22798 -0.75079,1.2148 -9.18639,1.16677 -9.60953,-0.0547 C 213.65,510.50851 209,509.87433 203.5,509.62845 c -5.5,-0.24588 -10.225,-0.5193 -10.5,-0.60759 -0.275,-0.0883 -4.55,-0.1074 -9.5,-0.0424 -4.95,0.065 -9.45,0.0724 -10,0.0165 -3.1797,-0.32299 -43.65628,-0.13925 -46.93847,0.21307 -2.16615,0.23253 -4.11615,0.95584 -4.33333,1.60738 -0.55903,1.67708 -2.90431,1.47102 -3.58983,-0.3154 C 117.78728,508.28207 97,508.28207 97,510.5 c 0,0.825 -0.626855,1.5 -1.393011,1.5 -0.766156,0 -1.652033,-0.675 -1.968615,-1.5 z M 208,500.29251 c 7.975,-0.2266 14.79717,-0.72262 15.16039,-1.10226 C 223.5236,498.81061 224.07852,445.175 224.39354,380 225.31284,189.80709 225.9929,83.908978 226.52675,47.816731 226.91069,21.859459 226.7438,13.959696 225.79918,13.375886 221.86334,10.943406 193.92208,10.966602 70,13.505227 34.99746,14.222277 12.498144,15.213448 11.576888,16.078964 11.069177,16.555957 10.569407,23.820823 10.46629,32.223112 10.363172,40.6254 9.9669601,62.575 9.5858189,81 8.8237833,117.83807 7.9737995,211.95066 7.9646535,260.5 c -0.013866,73.60354 0.8881356,179.14164 1.5449233,180.76273 0.3983941,0.98333 0.1665096,2.42264 -0.5244339,3.25517 -0.8518113,1.02637 -1.0234606,3.13031 -0.5496582,6.73727 0.3789226,2.88466 0.8394407,12.21983 1.0233734,20.74483 0.1839327,8.525 0.3570939,16.175 0.3848027,17 0.027709,0.825 -0.038279,3.525 -0.1466406,6 L 9.5,499.5 36,499.63988 c 14.575,0.0769 27.625,0.19324 29,0.25846 3.23892,0.15363 36.59965,0.34469 85.16649,0.48776 21.26657,0.0626 39.01806,0.46539 39.44777,0.895 0.4297,0.4296 1.47978,0.47562 2.33351,0.10226 0.85372,-0.37337 8.07723,-0.86425 16.05223,-1.09085 z m 250.84161,-0.69462 c 0.49657,-0.3069 10.97285,-0.79755 23.28062,-1.09034 53.61599,-1.27548 55.21678,-1.36195 56.15204,-3.03315 C 539.56445,493.16896 555.24938,476 556.06535,476 c 0.38272,0 4.01208,-3.92608 8.06525,-8.72462 8.36692,-9.90558 16.0849,-18.27728 30.09196,-32.64078 5.34741,-5.48348 9.84741,-10.29716 10,-10.69706 0.15259,-0.3999 3.87744,-4.57519 8.27744,-9.27843 4.4,-4.70324 11.90835,-12.73946 16.68522,-17.85828 4.77687,-5.11882 9.95187,-11.18819 11.5,-13.48748 1.54813,-2.2993 5.7772,-7.24792 9.39794,-10.99694 C 660.9441,361.07065 671,348.93003 671,347.06323 c 0,-0.96429 0.9,-2.56774 2,-3.56323 1.1,-0.99549 2,-2.54721 2,-3.44827 0,-0.90106 2.26844,-4.31882 5.04098,-7.59501 2.77254,-3.2762 5.32227,-7.07263 5.66608,-8.43653 0.34381,-1.36389 2.12537,-5.03961 3.95903,-8.16826 1.83365,-3.12865 3.33391,-5.89548 3.33391,-6.1485 0,-0.25302 2.025,-4.12097 4.5,-8.59544 2.475,-4.47446 4.5,-8.65629 4.5,-9.29295 0,-0.63666 0.73306,-1.96758 1.62903,-2.95762 1.6916,-1.8692 2.28101,-3.95503 4.90479,-17.35742 0.86139,-4.4 1.97668,-9.35 2.47844,-11 0.55534,-1.82621 0.54512,-4.56506 -0.0261,-7 -0.51613,-2.2 -0.95381,-7.375 -0.97263,-11.5 -0.0568,-12.45165 -5.25015,-37.79216 -8.1071,-39.55785 -0.49852,-0.3081 -0.9064,-1.3491 -0.9064,-2.31334 0,-2.18906 -3.5593,-9.64832 -6.5032,-13.62881 -1.22031,-1.65 -3.42779,-5.475 -4.9055,-8.5 -2.63689,-5.39791 -5.89346,-10.38458 -8.6833,-13.29644 -12.90274,-13.46704 -26.48954,-28.14295 -26.7788,-28.92536 -0.20393,-0.55163 -2.90393,-3.61693 -6,-6.81177 -12.5431,-12.94327 -21.61925,-23.05888 -22.27156,-24.82223 -0.37965,-1.0263 -1.40293,-2.13947 -2.27396,-2.47372 C 622.71266,101.33624 622,100.44969 622,99.700364 622,98.951042 620.875,97.735878 619.5,97 618.125,96.264122 617,95.272905 617,94.797295 c 0,-0.47561 -1.575,-1.794018 -3.5,-2.929796 -1.925,-1.135778 -3.5,-2.501393 -3.5,-3.0347 0,-0.533307 -1.9125,-2.869531 -4.25,-5.191609 -2.3375,-2.322078 -6.18619,-6.453787 -8.55265,-9.181575 C 588.80362,64.784242 579.40118,54.487515 572,46.865672 559.68195,34.180368 547.77597,21.714691 543.19494,16.706494 540.0988,13.321637 538.13126,12 536.18834,12 c -1.48585,0 -4.23854,-0.440806 -6.1171,-0.979568 -2.1352,-0.612368 -3.83999,-0.627317 -4.54781,-0.03988 -0.65567,0.544156 -14.99968,0.941237 -34.07784,0.943367 -18.12008,0.002 -33.84559,0.06632 -34.94559,0.142879 -1.1,0.07656 -11.45,-0.09466 -23,-0.380498 -31.38125,-0.77661 -92.44498,0.64095 -95.34405,2.213359 -2.33891,1.268585 -2.34262,1.302436 -1.69182,15.435856 0.64355,13.976189 0.86802,393.207163 0.26322,444.710663 l -0.31172,26.54619 60.76156,-0.21824 c 33.41886,-0.12004 61.16785,-0.46934 61.66442,-0.77624 z"
       id="path1" />
  </g>
</svg>
