<?xml version="1.0" encoding="UTF-8" standalone="no"?>
<!-- Created with Inkscape (http://www.inkscape.org/) -->

<svg
   version="1.1"
   id="svg1"
   width="718"
   height="510"
   viewBox="0 0 718 510"
   sodipodi:docname="5.svg"
   inkscape:version="1.4 (86a8ad7, 2024-10-11)"
   xmlns:inkscape="http://www.inkscape.org/namespaces/inkscape"
   xmlns:sodipodi="http://sodipodi.sourceforge.net/DTD/sodipodi-0.dtd"
   xmlns="http://www.w3.org/2000/svg"
   xmlns:svg="http://www.w3.org/2000/svg">
  <defs
     id="defs1" />
  <sodipodi:namedview
     id="namedview1"
     pagecolor="#ffffff"
     bordercolor="#000000"
     borderopacity="0.25"
     inkscape:showpageshadow="2"
     inkscape:pageopacity="0.0"
     inkscape:pagecheckerboard="0"
     inkscape:deskcolor="#d1d1d1"
     inkscape:zoom="1.5588235"
     inkscape:cx="359.24528"
     inkscape:cy="255"
     inkscape:window-width="1920"
     inkscape:window-height="1013"
     inkscape:window-x="2391"
     inkscape:window-y="605"
     inkscape:window-maximized="1"
     inkscape:current-layer="g1" />
  <g
     inkscape:groupmode="layer"
     inkscape:label="Image"
     id="g1">
    <path
       style="fill:#000000"
       d="M 7.4921485,508.71196 C 4.35078,504.9344 3.2149256,501.73055 2.6308691,495 2.2729144,490.875 1.7369976,484.64826 1.439943,481.1628 c -0.3298006,-3.86967 -0.1197944,-6.84363 0.5393476,-7.63785 0.7181321,-0.86529 0.7853607,-2.76076 0.2008491,-5.6628 C 1.6969108,465.46297 1.5358375,436.95 1.8221991,404.5 2.3558055,344.03264 2.3565532,331.46363 1.8279399,308 1.6606617,300.575 1.7744338,264.94432 2.0807669,228.82071 2.5082639,178.40914 2.9284316,162.79116 3.888262,161.63464 4.788254,160.55021 4.8492263,159.58679 4.1057798,158.19765 3.5119792,157.08812 3.0032354,147.81343 2.9092233,136.38373 2.8192717,125.44768 2.690398,109.75 2.6228374,101.5 2.5552768,93.25 2.6397469,84.025 2.8105486,81 3.2560791,73.109392 1.8673263,43.686678 0.99334774,42.5 -0.15660623,40.938606 -0.16173495,23.217992 0.98756154,22.507687 1.5444027,22.163541 2,20.805673 2,19.490204 2,18.174735 2.4741551,14.938793 3.0536779,12.299221 4.9465545,3.6776747 3.5903504,3.9518476 46.760768,3.4633094 67.517346,3.2284175 97.1,2.8127319 112.5,2.5395636 217.11725,0.68384193 362.43534,0.09973421 377.78174,1.4732607 c 6.88841,0.6165238 9.88595,0.5073625 11.625,-0.4233471 1.77762,-0.95135323 2.85484,-0.980289 4.46254,-0.11987055 2.4638,1.31858415 36.06116,1.34901375 38.18795,0.0345873 0.73425,-0.45379373 2.0373,-0.44922244 2.89566,0.0101584 C 436.38966,1.7437226 512.73185,3.3468491 523,2.8237093 c 12.91067,-0.6577704 20.9007,0.097751 23.73776,2.2445956 2.09064,1.5820146 7.26581,7.0252651 15.07809,15.8591581 3.12628,3.535105 8.04665,8.783528 10.93415,11.663161 2.8875,2.879633 5.25,5.552434 5.25,5.939557 0,0.387124 1.81384,2.464128 4.03075,4.615566 2.21691,2.151438 4.29816,5.248779 4.625,6.882979 C 587.053,52.015024 587.85209,53 589.06627,53 c 1.04165,0 3.65391,2.441195 6.125,5.723896 2.3698,3.148142 8.02123,9.589923 12.55873,14.315067 4.5375,4.725144 8.25,8.918384 8.25,9.31831 0,0.829893 1.37113,2.555937 5.11154,6.434634 1.43634,1.489451 5.39944,5.858093 8.80689,9.708093 3.40744,3.85 6.79276,7.675 7.52292,8.5 0.73016,0.825 3.83268,4.56802 6.89448,8.31783 3.0618,3.74981 6.7138,7.71997 8.11554,8.82258 1.40175,1.10261 2.54863,2.38386 2.54863,2.84722 0,0.99954 2.91764,4.5587 8.75,10.6739 2.3375,2.45085 4.25,5.08145 4.25,5.84576 0,0.76432 1.0125,2.49164 2.25,3.83849 4.55419,4.95663 6.75035,7.68777 6.76411,8.41183 0.008,0.40831 2.48275,3.19554 5.5,6.19383 3.01724,2.99829 5.48589,6.04764 5.48589,6.77632 0,0.72868 2.01752,3.34239 4.48338,5.80825 2.46586,2.46586 4.7441,5.71652 5.06275,7.22369 0.31865,1.50716 0.80822,3.8653 1.08794,5.2403 0.27972,1.375 1.55687,3.625 2.83812,5 2.62539,2.81749 9.44352,20.15219 11.79969,30 0.85535,3.575 2.26375,8.975 3.12978,12 3.85337,13.4596 0.56621,47.58035 -6.59921,68.5 -1.13032,3.3 -2.39632,6.45 -2.81332,7 -0.417,0.55 -1.08369,2.575 -1.48153,4.5 -0.39784,1.925 -1.5748,4.90312 -2.61547,6.61803 -1.04067,1.71492 -1.89213,3.79732 -1.89213,4.62756 0,0.83024 -0.675,2.06972 -1.5,2.75441 -0.825,0.68469 -1.5,1.98087 -1.5,2.8804 0,2.16173 -4.54848,10.69249 -8.13829,15.2635 -1.57394,2.00415 -2.86171,3.96974 -2.86171,4.36799 0,0.39824 -1.2375,2.18339 -2.75,3.96699 -1.5125,1.7836 -4.325,5.18252 -6.25,7.55314 -1.925,2.37062 -4.66379,5.47072 -6.08619,6.8891 -1.42241,1.41838 -4.00926,4.60388 -5.74856,7.07888 -1.7393,2.475 -8.38251,9.9 -14.76268,16.5 -26.44279,27.35386 -36.48828,37.83138 -47.40257,49.44125 -6.325,6.7281 -16.225,17.08909 -22,23.02443 -5.775,5.93533 -13.2,13.85825 -16.5,17.60649 C 557.73153,491.39582 550.98189,498 549.73236,498 c -0.54448,0 -2.66954,1.5174 -4.72235,3.37199 -3.50712,3.16847 -4.08783,3.34813 -9.6212,2.9766 -6.54449,-0.43943 -7.41649,-0.42451 -29.38881,0.50278 -8.525,0.35978 -15.9914,0.3193 -16.59201,-0.0899 -0.6006,-0.40924 -1.34837,-0.48772 -1.6617,-0.17439 -0.31332,0.31333 -1.84692,0.71913 -3.40799,0.90178 -12.79697,1.49731 -259.29492,3.28076 -274.8383,1.9885 -16.15323,-1.34297 -192.838573,0.0545 -193.333333,1.52917 -0.470781,1.40318 -7.4600776,1.16586 -8.6745185,-0.29453 z M 329.72623,498.71056 c 7.82443,-0.18133 14.5275,-0.63096 14.89572,-0.99918 0.36822,-0.36822 0.6263,-19.91642 0.57351,-43.44044 -0.29332,-130.70771 -0.2448,-139.6216 0.76548,-140.63188 0.57148,-0.57148 1.03906,-2.31318 1.03906,-3.87044 0,-1.55727 0.5625,-3.00928 1.25,-3.22671 1.94575,-0.61535 192.7226,-2.30533 333.74985,-2.95649 l 18.49985,-0.0854 0.55492,-4 c 0.30521,-2.2 1.03526,-4.9 1.62234,-6 0.58707,-1.1 1.39203,-4.25 1.78881,-7 0.39677,-2.75 1.24179,-5.6314 1.87782,-6.40311 0.79237,-0.96142 1.15641,-7.88705 1.15641,-22 0,-17.16026 -0.30704,-21.598 -1.84018,-26.59689 -4.54496,-14.81905 -6.1098,-19.16565 -9.79645,-27.21127 l -2.84612,-6.21127 -59.12645,0.41918 c -184.82908,1.31039 -279.64931,0.62475 -283.98274,-2.05346 -0.61167,-0.37804 -1.7614,-2.24126 -2.55495,-4.1405 -1.21988,-2.91957 -1.43667,-16.61452 -1.40302,-88.62792 0.0219,-46.846118 0.18044,-86.638378 0.35234,-88.427245 0.17189,-1.788866 0.0138,-3.735765 -0.35121,-4.326442 C 345.54267,10.260022 339.17678,9.6795965 329.39374,9.4114028 320.65218,9.1717605 308.69016,8.7914272 302.81146,8.5662176 293.86929,8.2236482 292.21205,8.3890218 292.66845,9.5783728 292.96849,10.360268 292.71583,11 292.10699,11 291.49814,11 291,10.600781 291,10.112847 291,9.1527137 283.24281,8.3474895 264.67629,7.3803509 254.38571,6.8443099 252.41372,7.0007933 249.46799,8.587172 l -3.38459,1.822723 -0.005,83.045053 c -0.005,89.152832 -0.45771,99.688072 -4.44395,103.401542 -2.07193,1.93015 -4.02104,2.00435 -66.13485,2.51777 -35.2,0.29096 -87.078857,0.55078 -115.286349,0.57738 L 8.927303,200 l 0.1616345,53.44806 0.1616346,53.44806 2.8964399,0.63617 c 1.593043,0.34989 4.65704,0.33871 6.808883,-0.0248 5.404468,-0.91308 136.010315,-1.37114 136.561715,-0.47895 0.24483,0.39614 2.44875,0.34593 4.8976,-0.11156 2.44885,-0.4575 20.36728,-0.931 39.81874,-1.05223 33.14762,-0.20659 35.61407,-0.0995 39.31617,1.70744 L 243.5,309.5 244.28972,328 c 0.70766,16.57741 0.48096,54.89158 -0.8328,140.75 -0.40742,26.6261 -0.32951,28.25 1.35541,28.25 0.98322,0 2.21517,0.41537 2.73767,0.92305 0.5225,0.50768 2.3,1.07018 3.95,1.25 3.33327,0.36327 56.04063,0.0516 78.22623,-0.46249 z M 369,342.12244 c 0,-0.48265 -0.675,-1.43775 -1.5,-2.12244 -1.2532,-1.04007 -1.5,-0.89568 -1.5,0.87756 0,1.21995 0.63782,2.12244 1.5,2.12244 0.825,0 1.5,-0.3949 1.5,-0.87756 z M 592,51.993725 C 592,51.447176 593.2,51 594.66667,51 c 2.93556,0 2.4394,1.208209 -0.69244,1.686162 C 592.8884,52.851871 592,52.540274 592,51.993725 Z"
       id="path1" />
    <rect
       style="fill:#000000"
       id="rect1"
       width="196.30188"
       height="91.094337"
       x="358.60376"
       y="323.32074" />
  </g>
</svg>
