<?xml version="1.0" encoding="UTF-8" standalone="no"?>
<!-- Created with Inkscape (http://www.inkscape.org/) -->

<svg
   version="1.1"
   id="svg1"
   width="1912"
   height="1465"
   viewBox="0 0 1912 1465"
   sodipodi:docname="matrix.svg"
   inkscape:version="1.4 (86a8ad7, 2024-10-11)"
   xmlns:inkscape="http://www.inkscape.org/namespaces/inkscape"
   xmlns:sodipodi="http://sodipodi.sourceforge.net/DTD/sodipodi-0.dtd"
   xmlns="http://www.w3.org/2000/svg"
   xmlns:svg="http://www.w3.org/2000/svg">
  <defs
     id="defs1" />
  <sodipodi:namedview
     id="namedview1"
     pagecolor="#ffffff"
     bordercolor="#000000"
     borderopacity="0.25"
     inkscape:showpageshadow="2"
     inkscape:pageopacity="0.0"
     inkscape:pagecheckerboard="0"
     inkscape:deskcolor="#d1d1d1"
     inkscape:zoom="0.54266212"
     inkscape:cx="956.39623"
     inkscape:cy="732.5"
     inkscape:window-width="1920"
     inkscape:window-height="1013"
     inkscape:window-x="2391"
     inkscape:window-y="605"
     inkscape:window-maximized="1"
     inkscape:current-layer="g1" />
  <g
     inkscape:groupmode="layer"
     inkscape:label="Image"
     id="g1">
    <path
       style="fill:#000000"
       d="M 13.797717,1458.7799 13.5,1452.5598 l -4.5181262,0.2813 c -3.7115546,0.2312 -4.9282677,-0.1551 -6.8155927,-2.1641 l -2.29746653,-2.4455 0.59410155,-237.3658 C 1.108635,952.87696 1.6876463,829.31809 2.5640102,762.5 3.5674656,685.99186 3.8406518,657.77464 3.7161133,643.5 3.5366286,622.92742 4.0614402,593.84765 5.5118204,544 6.0149053,526.70964 6.0670462,516.51247 5.8723062,473.5 5.8175231,461.4 5.8017204,434.4 5.837189,413.5 5.8726576,392.6 5.6889153,367.11779 5.4288728,356.87287 5.0991881,343.88426 5.3121966,337.37612 6.1325579,335.37287 6.9165015,333.45856 7.3796581,323.32438 7.5206727,305 7.6370666,289.875 7.8458204,277.275 7.98457,277 c 0.1387497,-0.275 0.1712829,-0.9206 0.072296,-1.43467 -0.098987,-0.51406 -0.1142222,-19.18906 -0.033856,-41.5 C 8.1033756,211.7544 8.1725321,191.925 8.1766908,190 8.1963853,180.88375 8.0820835,171.26229 7.9272132,169 7.5434848,163.39464 7.5900167,155.91267 8.3812149,96 8.8351662,61.625 9.1357228,31.163617 9.0491183,28.308038 8.8495402,21.727415 10.445675,15.754734 13.28425,12.460321 15.406564,9.9971924 15.647592,9.9491111 19,11.32012 c 2.851576,1.166187 8.316865,1.332754 29.5,0.899078 14.3,-0.292759 31.4,-0.563627 38,-0.601928 14.22628,-0.08256 215,1.256513 215,1.433954 0,0.06719 12.81884,0.195649 28.48632,0.285469 26.25963,0.150542 28.51266,0.300099 28.82333,1.913307 0.46247,2.401549 4.80799,2.320151 5.44138,-0.101925 0.43657,-1.669446 1.48721,-1.829139 10.66262,-1.620677 5.59808,0.127187 10.36303,0.415952 10.58878,0.641701 0.29216,0.292159 102.62599,0.114896 130.49757,-0.226049 0.825,-0.01009 5.47767,-0.0029 10.33927,0.01595 9.37036,0.03636 12.45782,-0.448745 16.59408,-2.607262 3.35088,-1.7486645 5.1281,-1.697419 7.87573,0.227093 1.73049,1.212081 4.51159,1.536302 11.97251,1.395757 5.34512,-0.100689 18.49341,-0.150264 29.21841,-0.110166 23.14215,0.08652 30.69075,-0.362873 32.59141,-1.940282 1.08163,-0.897675 1.77167,-0.867699 2.97279,0.129143 1.13683,0.943488 6.94269,1.377422 21.25,1.588241 40.90327,0.602711 151.56676,0.498365 199.1858,-0.187814 27.225,-0.392306 54.225,-0.67038 60,-0.617942 23.59562,0.214251 86.63809,1.051662 88.5,1.17557 1.1,0.0732 24.5,0.06746 52,-0.01276 61.1904,-0.178508 142.4676,-0.184789 156,-0.01206 27.2262,0.347527 64.3889,-0.183723 67.5,-0.964928 1.925,-0.483366 25.6326,-0.865945 52.6836,-0.850175 27.051,0.01577 49.5993,-0.228208 50.1073,-0.542174 0.508,-0.313966 3.5754,-0.107667 6.8164,0.458443 13.0079,2.272108 19.2936,2.749177 28.9886,2.200155 5.8503,-0.331296 11.3646,-0.148663 13.0289,0.431514 1.9765,0.689033 3.6715,0.668666 5.3804,-0.06465 1.4952,-0.641626 12.1109,-1.147957 26.4948,-1.263708 80.1788,-0.645217 124.5186,-1.284462 125.3647,-1.807378 0.5321,-0.328856 2.1451,-0.150181 3.5845,0.397056 1.8055,0.686464 3.1678,0.650976 4.3934,-0.114451 1.2807,-0.799781 3.1554,-0.813445 6.7169,-0.04895 2.8322,0.60793 9.2079,0.80888 14.9405,0.470899 5.5,-0.324266 11.125,-0.501534 12.5,-0.393928 2.8385,0.222133 98.0422,0.504033 108,0.319789 3.575,-0.06615 9.875,-0.08034 14,-0.03155 4.125,0.04879 19.5375,0.0277 34.25,-0.04688 L 1806,11 V 5.5 c 0,-4.83333333 0.2424,-5.5 2,-5.5 1.7576,0 2,0.66666667 2,5.5 0,3.025 0.45,5.5 1,5.5 0.55,0 1,-2.475 1,-5.5 0,-4.83333333 0.2424,-5.5 2,-5.5 1.7526,0 2,0.66666667 2,5.3887091 0,5.2974059 0.055,5.3982489 3.25,5.9517559 1.7875,0.309676 13.2625,0.569182 25.5,0.57668 l 22.25,0.01363 0,-5.9653883 C 1867,1.3294876 1867.3343,0 1868.5,0 c 1.1656,0 1.5,1.3292468 1.5,5.9632214 v 5.9632216 l 11.5,-0.04141 11.5,-0.04141 V 5.9218095 C 1893,0.27187937 1893.1148,0 1895.5,0 c 2.3889,0 2.5,0.26666667 2.5,6 0,4.666667 0.3333,6 1.5,6 0.9855,0 1.5,-0.986111 1.5,-2.875 0,-5.7243608 1.1646,-9.125 3.125,-9.125 1.625,0 1.875,0.8 1.875,6 0,3.3333333 0.4444,6 1,6 0.5556,0 1,-2.6666667 1,-6 0,-5.39848696 0.2073,-6 2.0673,-6 l 2.0674,0 -0.4032,327.75 c -0.3804,309.24007 -0.9726,411.12834 -2.437,419.25 -0.3471,1.925 -0.5035,3.95 -0.3474,4.5 0.156,0.55 0.1611,20.575 0.011,44.5 -0.1498,23.925 -0.3263,72.075 -0.3922,107 -0.073,38.77303 -0.4948,64.0841 -1.0826,65 -0.5295,0.825 -1.067,10.725 -1.1944,22 -0.1274,11.275 -0.4755,34 -0.7735,50.5 -0.4703,26.0391 -0.7457,59.8766 -0.5249,64.5 0.039,0.825 -0.1355,22.425 -0.3886,48 -0.3866,39.0559 -0.4372,61.5279 -0.2683,119 0.022,7.3896 -1.2182,71.0326 -1.8216,93.5 -0.2658,9.9 -0.6323,32.4 -0.8143,50 -0.2796,27.0378 -0.5853,32.5606 -1.9716,35.6153 l -1.6407,3.6154 -11.2929,-0.2832 c -6.211,-0.1558 -13.6102,-0.7359 -16.4426,-1.2893 -7.7176,-1.5076 -18.8782,-1.6215 -27.8502,-0.2842 -5.5498,0.8273 -39.0867,1.3842 -109.5,1.8184 -55.825,0.3442 -103.075,0.6087 -105,0.5877 -1.925,-0.021 -45.125,-0.2817 -96,-0.5793 -50.875,-0.2976 -92.5,-0.6119 -92.5,-0.6986 0,-0.087 -10.6625,-0.2717 -23.6945,-0.4114 -16.8135,-0.1801 -24.1204,-0.6073 -25.161,-1.4709 -1.1103,-0.9214 -1.6416,-0.9336 -2.1877,-0.05 -0.5319,0.8608 -5.213,0.9826 -17.839,0.4644 -9.4148,-0.3864 -17.5678,-0.6557 -18.1178,-0.5985 -0.55,0.057 -4.45,0.2077 -8.6668,0.3342 -4.2167,0.1266 -7.9755,0.5389 -8.3528,0.9163 -0.3773,0.3773 -1.8082,0.2595 -3.1796,-0.2619 -1.3715,-0.5215 -7.2877,-0.7214 -13.1472,-0.4444 -29.0509,1.3734 -199.9537,2.9116 -258.6536,2.328 -7.15,-0.071 -24.925,-0.012 -39.5,0.131 -43.45548,0.4267 -61.48561,0.4518 -81.23539,0.1132 -13.88409,-0.2381 -19.12402,0 -20.23623,0.9243 -0.99488,0.8257 -2.76966,1.0044 -5.26461,0.5301 -5.72577,-1.0885 -61.51404,-2.1738 -63.53444,-1.2359 -0.97386,0.452 -2.32386,0.4686 -3,0.037 -0.67613,-0.4318 -19.10077,-0.8116 -40.94364,-0.8439 -21.84288,-0.032 -39.98925,-0.3337 -40.32528,-0.6698 -0.33602,-0.336 -1.81458,-0.3053 -3.28568,0.068 -1.4711,0.3736 -8.52473,0.5509 -15.67473,0.3941 -73.20834,-1.6058 -181.21676,-2.0311 -190.19578,-0.749 -2.30769,0.3296 -6.05453,0.099 -8.32633,-0.5131 -3.02176,-0.8136 -4.48881,-0.8149 -5.46519,-0 -0.92007,0.7635 -1.53567,0.7824 -1.9818,0.061 -0.86973,-1.4073 -18.53633,-0.6526 -21.46933,0.917 -1.74531,0.9341 -2.88683,0.9338 -5.14446,-0 -1.59579,-0.661 -4.14247,-0.9011 -5.65927,-0.5335 -3.60678,0.8742 -56.50325,1.6651 -95.75784,1.4319 -17.05,-0.1013 -32.35,-0.085 -34,0.036 -5.13999,0.3766 -6.85526,0.3563 -11.6691,-0.1382 -2.56801,-0.2638 -5.16256,-0.1747 -5.76568,0.1981 -0.60312,0.3727 -3.36112,0.3872 -6.12888,0.032 -2.76777,-0.355 -5.25801,-0.2803 -5.53388,0.166 -0.54362,0.8796 -5.27958,0.8315 -6.90246,-0.07 -1.00325,-0.5574 -17.75288,-0.7857 -105,-1.4311 -98.44418,-0.7283 -134.39619,-0.8411 -135.18459,-0.4241 -0.44847,0.2372 -3.51541,0.2746 -6.81541,0.083 -9.700292,-0.563 -30.52133,-0.4204 -31.551109,0.2161 C 64.427001,1453.8541 64,1456.5665 64,1459.559 c 0,4.8545 -0.225544,5.441 -2.09255,5.441 -1.911794,0 -2.06296,-0.4763 -1.75,-5.5134 0.264127,-4.2512 -8.61e-4,-5.6114 -1.15745,-5.9413 -1.917157,-0.5468 -12.314167,-0.7972 -27.25,-0.6562 L 20,1453 v 6 c 0,5.9784 -0.0106,6 -2.952283,6 -2.921378,0 -2.955399,-0.065 -3.25,-6.2201 z m 1636.107783,-9.6341 c -1.478,-0.5079 -2.2287,0.5222 -1.3806,1.8944 0.5376,0.87 0.943,0.8225 1.5681,-0.1834 0.4951,-0.797 0.4177,-1.5029 -0.1875,-1.711 z M 343,1450 c 0,-0.55 -0.47656,-1 -1.05902,-1 -0.58246,0 -0.7809,0.45 -0.44098,1 0.33992,0.55 0.81648,1 1.05902,1 0.24254,0 0.44098,-0.45 0.44098,-1 z m 410.55,-2.858 c 0.5225,-0.4719 4.1,-0.5605 7.95,-0.1968 3.85,0.3636 12.175,0.5097 18.5,0.3246 20.92634,-0.6123 60.83246,-0.4914 61.93124,0.1877 0.59423,0.3673 2.62317,0.1099 4.50876,-0.572 2.74049,-0.9909 3.73286,-0.9869 4.94618,0.02 0.98592,0.8183 2.32317,0.971 3.81583,0.4359 1.2639,-0.4531 16.92299,-0.9062 34.79799,-1.0067 17.875,-0.1006 35.65,-0.249 39.5,-0.3298 3.85,-0.081 18.25,0.1039 32,0.4106 28.29313,0.631 84.0392,0.5171 123,-0.2513 3.3,-0.065 40.425,0.026 82.5,0.2028 42.075,0.1766 77.2602,-0.06 78.1893,-0.5257 1.0247,-0.5136 1.9473,-0.4292 2.3452,0.2145 0.4,0.6472 1.887,0.779 3.8107,0.338 1.7351,-0.3979 3.88,-0.6819 4.7664,-0.6312 1.4626,0.084 1.6166,-4.8456 1.6655,-53.2938 0.03,-29.3624 0.2355,-53.7422 0.4575,-54.1775 0.2221,-0.4352 0.5303,-12.3243 0.6849,-26.4202 0.2168,-19.7566 -0.01,-25.8071 -0.9766,-26.4064 -1.6078,-0.9937 -7.9854,-1.129 -61.4429,-1.3035 -24.2,-0.079 -44.9,-0.1923 -46,-0.2516 -1.1,-0.059 -19.55,-0.2697 -41,-0.4674 -57.5311,-0.5301 -73.2649,-0.8737 -74.0076,-1.6165 -2.1777,-2.1777 -2.95,-19.7718 -2.7796,-63.3257 0.3618,-92.4456 0.2863,-99.9295 -1.021,-101.2368 -1.0735,-1.0734 -35.28027,-1.3697 -186.96738,-1.6194 -102.10945,-0.1681 -186.21955,0.044 -186.91134,0.4717 -0.99339,0.614 -1.31164,21.0206 -1.51399,97.0809 -0.49454,185.8949 -1.00005,220.1063 -3.34507,226.3871 -1.0497,2.8114 0.1659,4.4735 3.64948,4.9897 8.47155,1.2553 25.00255,1.7813 51.8965,1.6513 40.4294,-0.1954 38.67664,-0.2302 40.43857,0.8009 1.9892,1.1641 3.41178,1.2001 4.61143,0.1166 z M 302,1445.7484 c 1.375,0.096 4.525,0.1 7,0.01 2.475,-0.092 11.25,-0.1 19.5,-0.017 8.25,0.083 32.1,0.1212 53,0.085 20.9,-0.036 42.725,0.069 48.5,0.2329 30.60032,0.8681 95.44409,-0.1677 96.82308,-1.5467 0.18881,-0.1888 0.56493,-51.5683 0.83582,-114.1767 0.81331,-187.9761 0.83073,-212.1772 0.15323,-212.8547 -0.57274,-0.5727 -304.78449,-1.0347 -307.31213,-0.4667 -0.55,0.1236 -1.225,0.1331 -1.5,0.021 -0.275,-0.1121 -41.45,-0.3571 -91.5,-0.5446 -50.05,-0.1874 -91,-0.4073 -91,-0.4886 0,-0.081 -6.6375,-0.3698 -14.75,-0.6411 -13.7304171,-0.4591 -14.7605461,-0.3676 -14.9025674,1.324 -0.6080653,7.2426 -0.9470735,35.8731 -1.3950483,117.8172 -0.5667929,103.6784 -0.6840041,128.7693 -0.6189681,132.5 0.02397,1.375 -0.1306095,9.25 -0.34351,17.5 -0.7288361,28.2428 -0.5709461,55.5328 0.330613,57.1438 0.8129991,1.4527 7.3633808,1.6274 66.8089478,1.7813 36.249163,0.094 66.423973,0.4899 67.055133,0.88 0.63116,0.3901 2.33962,0.256 3.79658,-0.2979 3.49204,-1.3277 9.83966,-1.2864 11.19893,0.073 0.71217,0.7122 2.22806,0.7788 4.45,0.1956 4.61858,-1.2122 70.72117,-0.644 72.24544,0.621 0.78504,0.6515 2.71239,0.6423 5.65755,-0.027 2.4568,-0.5583 6.7169,-0.7641 9.4669,-0.4572 2.75,0.3069 10.4,0.5615 17,0.5658 25.13838,0.016 30.00955,0.1852 30.32031,1.0511 0.17617,0.4909 1.75117,0.5892 3.5,0.2184 1.74883,-0.3708 4.30469,-0.5955 5.67969,-0.4993 z m 1150.5,-0.163 c 62.3803,-0.4246 88.0288,-0.4779 146,-0.3032 18.15,0.055 51.225,-0.034 73.5,-0.1969 22.275,-0.1629 41.4,-0.2765 42.5,-0.2524 14.5449,0.3192 109.9393,-0.6632 115.5,-1.1895 11.6147,-1.0993 35.385,-1.5461 36.5,-0.6861 0.55,0.4242 6.6791,1.0614 13.6202,1.4159 9.5763,0.4891 12.8681,0.341 13.6484,-0.6143 0.9073,-1.1109 2.4339,-48.1095 2.2495,-69.2589 -0.034,-3.85 -0.2122,-21.4 -0.397,-39 -0.1848,-17.6 0.043,-34.25 0.5056,-37 1.3865,-8.2377 2.6373,-178.0693 1.3211,-179.3855 -0.285,-0.285 -28.2898,-0.3183 -62.233,-0.074 -33.9431,0.2443 -66.6648,0.3688 -72.7148,0.2767 -43.8025,-0.6666 -76.9902,-0.3465 -77.3545,0.7462 -0.3702,1.1107 -8.2745,10.5402 -19.2266,22.9366 -9.8607,11.1611 -19.3916,22.7102 -31.6602,38.3642 -1.7828,2.2747 -5.0834,6.1608 -7.3348,8.6358 -2.2514,2.475 -8.8498,10.125 -14.6632,17 -5.8133,6.875 -12.7852,14.9371 -15.4931,17.9159 -2.7079,2.9787 -9.4317,10.9662 -14.9417,17.75 -5.5101,6.7837 -10.4391,12.3341 -10.9535,12.3341 -0.5143,0 -1.2315,0.7723 -1.5938,1.7163 -0.3622,0.944 -2.4856,3.5743 -4.7186,5.8451 -5.3197,5.4098 -18.2028,19.5678 -19.8275,21.7897 -1.4376,1.9661 -8.2814,3.1878 -9.2329,1.6482 -0.3912,-0.6329 -1.257,-0.6643 -2.3395,-0.085 -1.0003,0.5354 -4.4229,0.5778 -8.1893,0.1016 -3.5589,-0.4499 -11.1958,-0.6727 -16.9708,-0.4951 -5.775,0.1777 -23.1,0.2861 -38.5,0.241 -15.4,-0.045 -42.2855,-0.1224 -59.7455,-0.1719 l -31.7455,-0.09 -0.5841,67.9644 c -0.3212,37.3805 -0.9586,68.6644 -1.4165,69.5198 -1.1949,2.2329 -1.5803,20.8529 -0.4537,21.9234 1.3643,1.2964 4.1981,1.6657 10.4453,1.3612 3.025,-0.1475 32.95,-0.455 66.5,-0.6834 z m 97,-177.7765 c 3.85,-4.0199 8.3428,-9.285 9.984,-11.7003 1.6412,-2.4153 5.6912,-7.1538 9,-10.5301 3.3088,-3.3762 6.691,-7.2494 7.516,-8.607 0.825,-1.3576 4.2383,-5.169 7.5851,-8.4699 3.3469,-3.3009 6.9116,-7.3516 7.9216,-9.0016 1.7095,-2.7928 2.9083,-4.2418 9.4933,-11.4746 2.5222,-2.7703 11.8019,-13.3215 15.5,-17.6237 2.2752,-2.6469 8.5321,-10.2181 20.992,-25.4017 4.7391,-5.775 9.5688,-11.625 10.7327,-13 1.1639,-1.375 4.131,-4.975 6.5936,-8 2.4626,-3.025 4.7556,-5.725 5.0956,-6 0.9146,-0.7396 5.3617,-6.3823 7.0861,-8.991 4.2169,-6.3795 7.9028,-10.6101 25.7099,-29.509 3.6276,-3.85 7.4397,-8.8939 8.4713,-11.2086 1.0317,-2.3147 2.2993,-4.4703 2.8169,-4.7902 0.9853,-0.609 5.2415,-13.5448 5.5938,-17.0012 2.4105,-23.6492 2.1708,-28.1778 -2.0376,-38.5 -0.7848,-1.925 -1.6991,-5.5767 -2.0317,-8.115 -0.3325,-2.5382 -1.2469,-5.4632 -2.0318,-6.5 -0.785,-1.0367 -1.4415,-2.4905 -1.459,-3.2306 -0.017,-0.7401 -1.0443,-2.7497 -2.2818,-4.4658 -1.2375,-1.7161 -2.7,-4.1012 -3.25,-5.3002 -1.5389,-3.35481 -7.308,-9.98813 -22.6408,-26.03227 -2.5525,-2.67087 -5.3279,-6.20613 -6.1676,-7.85613 -0.8397,-1.65 -3.3638,-4.77883 -5.6092,-6.95295 -2.2453,-2.17412 -4.0824,-4.45995 -4.0824,-5.07961 0,-0.61967 -3.6289,-4.91584 -8.0641,-9.54705 -18.2204,-19.02532 -36.4821,-38.80143 -40.2171,-43.55225 -1.2203,-1.55221 -7.1688,-7.9665 -13.2188,-14.25396 -6.05,-6.28747 -13.1372,-13.72281 -15.7493,-16.52297 -2.6122,-2.80017 -5.1938,-5.54121 -5.7371,-6.09121 -0.5432,-0.55 -4.3253,-4.375 -8.4047,-8.5 -4.0793,-4.125 -9.1867,-9.75 -11.3497,-12.5 -6.0065,-7.63644 -11.8771,-12.52944 -15.0281,-12.52535 -1.5021,0.002 -3.6311,-0.0243 -4.7311,-0.0583 -1.1,-0.034 -23.375,-0.0455 -49.5,-0.0254 -26.125,0.0201 -48.4,0.0136 -49.5,-0.0145 -8.4079,-0.21415 -366.0493,1.34376 -366.4649,1.59635 -0.2943,0.17889 -3.4601,0.13177 -7.0351,-0.10472 -9.323,-0.61672 -11.1116,-0.59579 -14.75,0.17258 l -3.25,0.68635 -0.1039,25.6365 c -0.083,20.53146 -0.638,79.8332 -0.9165,97.97092 -0.031,2.01607 -0.045,10.64058 -0.032,19.16558 0.026,16.85339 -0.8191,82.398 -1.3733,106.5 -1.8784,81.699 -2.7467,187.3088 -1.5583,189.5294 0.9422,1.7605 2.8333,1.871 33.2417,1.9432 17.7334,0.042 52.4926,0.2419 77.2426,0.4441 24.75,0.2022 48.825,0.3428 53.5,0.3124 4.675,-0.03 9.625,-0.024 11,0.014 1.375,0.038 12.625,0 25,-0.075 52.435,-0.3365 297.1665,1.1642 297.8285,1.8262 0.8699,0.8699 3.8154,-1.5276 10.6715,-8.6863 z M 478.88095,978.64824 c 27.70952,-0.31724 50.53841,-0.73426 50.73087,-0.92672 0.32262,-0.32263 1.27442,-101.42118 1.98385,-210.72152 0.16243,-25.025 0.62505,-94.55 1.02806,-154.5 0.84812,-126.16391 0.85048,-139.35913 0.025,-140.18459 -0.79039,-0.79039 -128.3291,-0.631 -129.61217,0.16198 -0.53564,0.33105 -3.8005,0.36636 -7.25524,0.0785 -3.45474,-0.28789 -48.07234,-0.76224 -99.15023,-1.05411 -51.07789,-0.29186 -93.2851,-0.7879 -93.79381,-1.10229 -0.5087,-0.3144 -1.4677,-0.13862 -2.1311,0.39061 -0.71078,0.56702 -3.46521,0.65384 -6.7062,0.21138 -3.025,-0.41297 -5.83788,-0.55545 -6.25084,-0.31661 -0.41297,0.23883 -39.90047,0.44151 -87.750003,0.45039 L 13,471.15137 l -0.0249,12.17432 c -0.01369,6.69587 -0.06818,16.89931 -0.121088,22.67431 -0.0529,5.775 -0.01329,15.9 0.08803,22.5 0.101321,6.6 -0.297806,21.225 -0.886948,32.5 -0.924448,17.69209 -1.521533,52.88367 -1.323401,78 0.03254,4.125 -0.08739,12.9 -0.266512,19.5 -0.179122,6.6 -0.291572,12.9 -0.249889,14 0.04168,1.1 0.01524,4.025 -0.05876,6.5 -0.1754597,5.86819 -1.1879178,100.36137 -1.1277137,105.25 0.0254,2.0625 0.090448,6.7875 0.1445508,10.5 0.084547,5.80156 0.2079786,35.45614 0.2278861,54.75 0.0034,3.3 -0.3472717,30.075 -0.7792813,59.5 -0.4320096,29.425 -0.7968016,55.975 -0.8106488,59 -0.047919,10.46819 -0.7952886,9.59171 7.9386749,9.31016 21.091323,-0.67989 399.06113,1.16743 399.84765,1.95425 0.12952,0.12957 3.08554,0.17372 6.56893,0.0981 3.48338,-0.0756 29.00485,-0.39705 56.71437,-0.71428 z m 554.98885,-0.40495 c 0.537,-1.00347 0.9607,-18.04757 0.988,-39.75 0.048,-38.13452 0.724,-102.99329 1.0734,-102.99329 0.1028,0 0.3181,-1.72257 0.4785,-3.82794 0.1906,-2.50137 1.1804,-4.71667 2.8561,-6.39241 l 2.5645,-2.56447 36.8348,0.26024 c 35.6724,0.25202 56.162,0.2542 61.3349,0.007 1.375,-0.0658 15.7292,-0.10337 31.8982,-0.0834 16.1691,0.0199 29.807,-0.21633 30.3065,-0.52506 0.4995,-0.30873 11.1203,-0.43564 23.6018,-0.28203 23.8656,0.29371 28.5597,0.23996 34.0899,-0.39038 l 3.3963,-0.38713 -0.3053,-8.90698 c -0.1679,-4.89883 -0.2527,-9.80697 -0.1885,-10.90697 0.064,-1.1 0.2851,-24.5 0.4909,-52 0.7164,-95.76184 1.8386,-189.8988 2.2722,-190.60024 0.5611,-0.90791 0.9107,-85.76144 0.3556,-86.3123 -1.0203,-1.0125 -152.9129,-1.83386 -328.4176,-1.77591 -105.05,0.0347 -191.9,0.12266 -193,0.19551 -1.1,0.0728 -19.92409,0.0971 -41.83132,0.0539 -21.90722,-0.0432 -40.20669,0.15347 -40.66547,0.43702 -0.45878,0.28354 -0.87752,37.74998 -0.93051,83.25876 -0.053,45.50877 -0.38689,131.56822 -0.74199,191.24322 -0.35509,59.675 -0.68727,135.95 -0.73817,169.5 l -0.0925,61 21,0.25497 c 11.55,0.14024 67.8,0.46727 125,0.72673 57.2,0.25947 104.45,0.49504 105,0.52348 0.55,0.0284 25.075,0.04 54.5,0.0258 44.4836,-0.0216 59.6967,0.39314 67.2148,1.83221 0.3932,0.0752 1.1379,-0.6537 1.655,-1.61989 z M 1801,977.33453 c 14.575,-0.37026 42.475,-0.7095 62,-0.75387 l 35.5,-0.0807 0.7434,-7.5 c 0.9267,-9.34865 2.5318,-131.63648 1.8245,-139 -0.3489,-3.63191 0.756,-66.02799 1.2231,-69.07079 0.217,-1.41393 0.026,-5.63599 -0.4254,-9.38235 -0.451,-3.74636 -0.501,-7.3145 -0.111,-7.92921 0.39,-0.61471 0.7551,-11.91765 0.8112,-25.11765 0.139,-32.69001 1.9781,-130.96168 3.0786,-164.5 0.6618,-20.17171 0.5236,-79.57012 -0.1909,-82.02186 -0.3541,-1.21524 -2.1067,-1.50074 -8.6985,-1.41704 -4.5402,0.0576 -8.48,0.2043 -8.755,0.32589 -0.275,0.12159 -44.825,0.22726 -99,0.23481 -54.175,0.008 -105.2145,0.41222 -113.4211,0.89925 -8.2066,0.48703 -15.4066,0.56903 -16,0.18223 -0.5934,-0.3868 -26.0539,-0.70376 -56.5789,-0.70434 -30.525,-5.9e-4 -72.6,-0.0565 -93.5,-0.12433 -95.2966,-0.30911 -121.5164,0.0387 -122.5437,1.62539 -0.5753,0.88856 -0.9636,13.93271 -0.9525,32 0.04,65.57942 -1.7252,228.44063 -3.3216,306.39907 -0.1662,8.1196 -0.01,8.9506 1.8178,9.4874 1.1,0.32358 23.6,0.59931 50,0.61272 26.4,0.0134 48.5314,0.36392 49.1809,0.77891 0.6495,0.41499 1.4559,0.30964 1.7919,-0.2341 0.387,-0.62613 12.0169,-0.89581 31.7176,-0.73549 l 31.1066,0.25314 1.6015,2.42729 c 0.8808,1.335 2.614,3.52434 3.8515,4.86519 1.2375,1.34085 2.25,2.82221 2.25,3.29189 0,0.46969 0.6226,0.85398 1.3836,0.85398 1.2888,0 2.7423,1.49086 12.4456,12.76516 2.0189,2.34585 7.2185,7.97085 11.5545,12.5 4.336,4.52916 9.0414,9.80984 10.4564,11.73484 1.4149,1.925 5.0673,5.82864 8.1163,8.67477 7.9361,7.40803 11.0412,10.69925 11.0425,11.70423 6e-4,0.48346 2.3636,3.19947 5.2511,6.03558 2.8875,2.83611 7.95,8.27764 11.25,12.09229 3.3,3.81464 11.4,12.75573 18,19.86908 6.6,7.11335 16.0514,17.56982 21.0031,23.2366 4.9518,5.66678 11.53,12.55537 14.6184,15.30797 3.0883,2.7526 6.3791,6.61461 7.3128,8.58225 l 1.6976,3.57751 42.1841,-0.53627 c 23.2012,-0.29495 54.109,-0.83921 68.684,-1.20948 z M 1092.25,828.33772 c -0.6875,-0.27741 -1.8125,-0.27741 -2.5,0 -0.6875,0.27741 -0.125,0.50439 1.25,0.50439 1.375,0 1.9375,-0.22698 1.25,-0.50439 z M 222,338.96821 c 62.425,0.0552 114.625,0.13276 116,0.17239 1.375,0.0396 22.3,0.0695 46.5,0.0664 24.2,-0.003 45.125,-3e-4 46.5,0.006 12.16196,0.0577 103.43842,-1.31834 103.68317,-1.56309 0.17517,-0.17517 0.57675,-42.80562 0.89239,-94.73433 0.64489,-106.09752 1.22039,-170.206344 1.78326,-198.651499 0.26857,-13.572341 0.0458,-19.513537 -0.75655,-20.179454 -1.04656,-0.868571 -11.98212,-1.421391 -19.10227,-0.965669 -6.80414,0.435496 -22.56019,-0.40758 -23.07125,-1.234497 -0.31081,-0.502892 -1.4204,-0.424362 -2.55063,0.180518 -1.32047,0.706695 -3.43968,0.763693 -6.23422,0.167675 -2.32854,-0.496629 -5.1135,-0.558828 -6.18881,-0.138218 -2.29787,0.898823 -11.86859,1.158485 -12.68297,0.3441 -0.30867,-0.308668 -8.37117,-0.537449 -17.91667,-0.508402 -36.67161,0.111592 -56.99343,-0.02618 -74.21242,-0.503116 -12.0368,-0.333399 -18.28198,-0.141875 -19.16097,0.58762 -0.81955,0.680171 -1.52602,0.722999 -1.90161,0.11528 -0.37217,-0.60218 -12.65786,-0.832042 -32.56757,-0.609332 -19.27083,0.215565 -32.20054,-0.01546 -32.55044,-0.581609 -0.84653,-1.369718 -4.21983,-1.148945 -4.74845,0.310773 -0.35727,0.986526 -0.88642,0.994335 -2.51044,0.03705 -1.42692,-0.841097 -4.91588,-1.033721 -11.38066,-0.628319 C 264.6953,20.980277 258.925,21.241739 257,21.239756 c -1.925,-0.002 -18.575,-0.01674 -37,-0.03279 -18.425,-0.01606 -56.9,-0.06123 -85.5,-0.100393 -28.6,-0.03916 -52.675,-0.0518 -53.5,-0.02809 -0.825,0.02371 -5.1,0.06683 -9.5,0.0958 -4.799139,0.03161 -8.307684,0.507417 -8.769003,1.189202 -0.543919,0.803861 -1.134825,0.660882 -2.018841,-0.488487 -1.334846,-1.735526 -6.504367,-2.225644 -8.289272,-0.785899 -0.592414,0.477855 -5.317414,0.633368 -10.5,0.345585 C 36.740298,21.146904 31.4875,20.923334 30.25,20.937865 c -3.471607,0.04077 -6.487417,0.0047 -9.524381,-0.114018 -1.52591,-0.05963 -2.954694,0.07189 -3.175078,0.292278 C 17.007425,21.659242 15.655294,70.442278 15.752139,86 c 0.30329,48.7218 0.288779,91.27319 -0.03257,95.5 -0.209071,2.75 -0.06072,6.158 0.329674,7.57332 0.390391,1.41533 0.346249,6.59033 -0.09809,11.5 C 15.506809,205.483 14.85423,229.525 14.500977,254 c -0.645641,44.73296 -0.649295,51.52401 -0.03712,69 0.183029,5.225 0.378403,11.075 0.434165,13 l 0.101386,3.5 46.750297,-0.31606 C 87.462366,339.01011 159.575,338.91304 222,338.96821 Z M 290,181.5 c 0,-0.825 0.40186,-1.5 0.89301,-1.5 0.49116,0 1.15203,0.675 1.46862,1.5 0.35062,0.91371 0.002,1.5 -0.89301,1.5 C 290.66088,183 290,182.325 290,181.5 Z M 328.46026,57.75 c -0.37083,-0.9625 -0.37083,-2.5375 0,-3.5 0.64213,-1.666667 0.72102,-1.666667 1.65668,0 0.64325,1.145814 0.64325,2.354186 0,3.5 -0.93566,1.666667 -1.01455,1.666667 -1.65668,0 z M 1616.5,337.31537 c 15.4,-0.0261 86.4566,-0.0868 157.9035,-0.13494 92.7812,-0.0625 130.2169,-0.40082 131,-1.18396 0.6031,-0.60306 1.1696,-2.76147 1.2589,-4.79647 0.089,-2.035 0.4484,-5.5 0.7979,-7.7 0.6011,-3.78326 1.8724,-45.15657 1.5518,-50.5 -0.2803,-4.67152 -0.3489,-17.43502 -0.2901,-54 0.032,-20.075 0.057,-41.45 0.055,-47.5 -0,-6.05 0.1428,-17.525 0.3214,-25.5 0.1786,-7.975 0.2537,-30.925 0.1669,-51 -0.087,-20.075 -0.07,-44.825 0.038,-55 l 0.1961,-18.5 -12,-0.185651 c -6.6,-0.102108 -25.275,-0.400389 -41.5,-0.662848 -16.225,-0.262458 -34.675,-0.557252 -41,-0.655097 -6.325,-0.09784 -12.2541,0.123253 -13.1757,0.491328 -0.9216,0.368075 -5.4216,0.443026 -10,0.166557 -8.3971,-0.507066 -48.7683,-0.66477 -111.3243,-0.434871 -32.1613,0.118195 -77.3922,0.07641 -102.25,-0.09447 -6.1875,-0.04253 -12.0375,-0.05343 -13,-0.02422 -3.0915,0.09383 -119.5828,0.171295 -124.25,0.08262 -19.18,-0.364416 -39.2942,-0.11959 -40.281,0.490294 -0.6546,0.404582 -2.5888,0.615107 -4.2982,0.467833 -6.2074,-0.534796 -6.0269,-2.572033 -6.1902,69.858518 -0.173,76.74632 -1.095,193.47457 -1.7557,222.28675 -0.2545,11.09698 -0.2249,20.92572 0.066,21.84165 0.4857,1.5306 6.0007,1.6748 68.1746,1.78251 37.2053,0.0645 67.7526,0.22337 67.8829,0.35314 0.1303,0.12977 14.5615,0.20509 32.0693,0.16736 17.5078,-0.0377 44.4324,-0.0899 59.8324,-0.11604 z M 898,336.10548 c 6.875,-0.0113 92.67465,0.0729 190.6659,0.18702 97.9912,0.11413 178.4042,-0.0305 178.6955,-0.32135 0.2913,-0.29087 0.759,-23.46587 1.0393,-51.5 0.2804,-28.03413 0.827,-80.62973 1.2146,-116.87911 0.5337,-49.90176 0.4232,-65.73384 -0.4552,-65.19099 -0.6381,0.39434 -1.1601,0.24043 -1.1601,-0.34203 0,-0.58246 0.4224,-1.05902 0.9387,-1.05902 1.6456,0 2.0562,-7.68326 2.3117,-43.255276 l 0.2496,-34.755276 -3.2786,-1.081711 c -2.0672,-0.682036 -7.24,-0.84497 -14,-0.440977 -12.2556,0.732421 -33.8681,0.859322 -34.977,0.205372 -1.2996,-0.766381 -50.9185,-2.01442 -72.7444,-1.829702 -38.8907,0.329141 -162.96789,0.412722 -166.5,0.112157 -1.925,-0.163808 -5.3,-0.180405 -7.5,-0.03688 -2.2,0.143523 -16.15,0.23753 -31,0.208905 -55.32264,-0.106643 -66.26363,-0.125121 -77,-0.130041 -6.05,-0.0028 -37.775,0.245689 -70.5,0.552138 -32.725,0.306449 -67.95061,0.489139 -78.27914,0.405977 -13.31438,-0.107204 -19.19912,0.197344 -20.22235,1.046548 -0.94716,0.78608 -5.49123,1.184868 -13.22085,1.160263 -14.61566,-0.04652 -18.87315,0.735657 -18.52551,3.403482 0.40197,3.084706 0.37155,42.144054 -0.14055,180.460963 l -0.47956,129.52593 111.18398,-0.21295 C 835.46721,336.22179 891.125,336.11674 898,336.10548 Z M 643.6771,176.39908 c 0.7485,-1.95055 -1.21844,-3.33178 -3.7878,-2.65988 -1.87705,0.49086 -2.49864,2.31812 -1.22263,3.59413 1.25415,1.25416 4.39542,0.66843 5.01043,-0.93425 z M 1290.7292,71.395833 c -0.3323,-0.332291 -1.1948,-0.367818 -1.9167,-0.07895 -0.7977,0.319226 -0.5608,0.556183 0.6042,0.604167 1.0541,0.04342 1.6448,-0.192928 1.3125,-0.52522 z M 1299,68 c 0,-0.55 -0.7875,-0.993109 -1.75,-0.984687 -1.4955,0.01309 -1.5319,0.156261 -0.25,0.984687 1.8872,1.21961 2,1.21961 2,0 z m 19.7292,0.395833 c -0.3323,-0.332291 -1.1948,-0.367818 -1.9167,-0.07895 -0.7977,0.319226 -0.5608,0.556183 0.6042,0.604167 1.0541,0.04342 1.6448,-0.192928 1.3125,-0.52522 z M 633.49292,66.011454 c 0.35034,-0.56686 -0.0511,-0.734507 -0.94098,-0.393011 C 630.81952,66.283234 630.50255,67 631.94098,67 c 0.51754,0 1.21592,-0.444846 1.55194,-0.988546 z M 637,66.559017 c 0,-0.242541 -0.45,-0.719098 -1,-1.059017 -0.55,-0.339919 -1,-0.141476 -1,0.440983 C 635,66.523442 635.45,67 636,67 c 0.55,0 1,-0.198442 1,-0.440983 z M 605,61 c 0,-0.55 -0.45,-1 -1,-1 -0.55,0 -1,0.45 -1,1 0,0.55 0.45,1 1,1 0.55,0 1,-0.45 1,-1 z M 1883.1579,2 c 0,-1.375 0.227,-1.9375 0.5044,-1.25 0.2774,0.6875 0.2774,1.8125 0,2.5 -0.2774,0.6875 -0.5044,0.125 -0.5044,-1.25 z"
       id="path1" />
    <rect
       style="fill:#000000"
       id="rect1"
       width="90.295601"
       height="234.03145"
       x="554.67297"
       y="49.754719" />
  </g>
</svg>
