<?xml version="1.0" encoding="UTF-8" standalone="no"?>
<!-- Created with Inkscape (http://www.inkscape.org/) -->

<svg
   version="1.1"
   id="svg1"
   width="735"
   height="510"
   viewBox="0 0 735 510"
   sodipodi:docname="2.svg"
   inkscape:version="1.4 (86a8ad7, 2024-10-11)"
   xmlns:inkscape="http://www.inkscape.org/namespaces/inkscape"
   xmlns:sodipodi="http://sodipodi.sourceforge.net/DTD/sodipodi-0.dtd"
   xmlns="http://www.w3.org/2000/svg"
   xmlns:svg="http://www.w3.org/2000/svg">
  <defs
     id="defs1" />
  <sodipodi:namedview
     id="namedview1"
     pagecolor="#ffffff"
     bordercolor="#000000"
     borderopacity="0.25"
     inkscape:showpageshadow="2"
     inkscape:pageopacity="0.0"
     inkscape:pagecheckerboard="0"
     inkscape:deskcolor="#d1d1d1"
     inkscape:zoom="1.1022547"
     inkscape:cx="443.63613"
     inkscape:cy="312.08758"
     inkscape:window-width="1920"
     inkscape:window-height="1013"
     inkscape:window-x="2391"
     inkscape:window-y="605"
     inkscape:window-maximized="1"
     inkscape:current-layer="g1" />
  <g
     inkscape:groupmode="layer"
     inkscape:label="Image"
     id="g1">
    <path
       id="path1"
       style="fill:#000000"
       d="M 28.679688,-0.5 28.277344,2.75 27.873047,6 19.6875,6.0214844 C 10.013968,6.0477589 7.3582696,7.5058321 5.9785156,13.548828 4.7340069,18.999482 3.6817337,148.79528 3.9375,265.5 c 0.1169202,53.35 0.1649328,98.125 0.1054688,99.5 -0.059464,1.375 -0.0761,19.6 -0.037109,40.5 0.075213,40.31655 -0.2375516,45.73244 -2.5839844,44.83203 C 0.42662744,449.95012 0,450.53489 0,452.27734 c 0,1.64935 0.6754082,2.66533 2,3.01172 2.579662,0.6746 2.579662,2.74728 0,3.42188 -1.71410803,0.44825 -2,1.36389 -2,6.40625 0,5.39426 0.18705395,5.89467 2.25,6.01953 l 2.25,0.13476 -2.25,0.4336 C 0.05377877,472.12809 0,472.45032 0,485.18555 c 0,12.5638 0.07397171,13.02812 2.0039062,12.52343 1.5089576,-0.3946 2.1555631,0.0767 2.6152344,1.90821 0.3725798,1.48448 2.3956934,3.47879 5.1914063,5.11719 l 4.5820311,2.68554 119.960942,0.28125 c 65.97935,0.15502 120.19679,0.51515 120.48242,0.80078 0.28563,0.28563 1.452,0.21209 2.59179,-0.16406 1.13978,-0.37615 42.34727,-0.80256 91.57227,-0.94727 49.225,-0.14471 90.175,-0.26839 91,-0.27539 0.825,-0.007 13.2,-0.0801 27.5,-0.16406 14.3,-0.084 30.95,-0.26754 37,-0.4082 6.05,-0.14066 18.65,-0.31367 28,-0.38477 14.45692,-0.10986 17.38812,-0.39411 19.5918,-1.89453 5.61789,-3.82503 30.86801,-30.85922 40.21875,-43.06055 1.54568,-2.01688 3.68318,-4.48071 4.75,-5.4746 1.06681,-0.99389 1.93945,-2.16714 1.93945,-2.60743 0,-0.44029 1.12568,-1.31239 2.50195,-1.93945 1.37626,-0.62707 3.3201,-2.48613 4.32032,-4.13086 1.00022,-1.64472 4.71202,-6.07825 8.24804,-9.85156 C 617.60633,433.42592 623.425,427.03672 627,423 c 3.575,-4.03672 9.2,-10.16936 12.5,-13.62695 3.3,-3.45759 10.05,-10.61265 15,-15.90039 4.95,-5.28774 11.86161,-12.58202 15.35938,-16.20899 3.49776,-3.62696 6.80412,-7.87052 7.34765,-9.42969 0.55845,-1.60195 1.72272,-2.83398 2.67578,-2.83398 0.92761,0 2.42242,-1.2375 3.32227,-2.75 0.89985,-1.5125 4.3711,-5.60795 7.71484,-9.10156 3.34374,-3.49362 6.08008,-7.11487 6.08008,-8.04688 0,-0.93202 0.6685,-2.57407 1.48438,-3.64844 C 704.72865,333.23053 708,328.37239 708,327.32227 c 0,-0.67788 1.125,-2.89179 2.5,-4.91797 1.375,-2.02617 2.5,-4.30442 2.5,-5.06446 0,-0.76004 1.0742,-3.06061 2.38672,-5.11132 1.31252,-2.05071 3.18969,-5.97852 4.17187,-8.72852 0.98219,-2.75 2.16205,-5.50044 2.6211,-6.11133 1.43078,-1.90401 6.87069,-18.61499 7.93945,-24.38867 0.55996,-3.025 1.33129,-8.65 1.71484,-12.5 0.38354,-3.85 1.20033,-7.86227 1.81446,-8.91602 0.61413,-1.05374 0.96266,-3.52874 0.77344,-5.5 -0.18924,-1.97125 -0.85886,-9.20898 -1.48633,-16.08398 -0.62747,-6.875 -1.71354,-15.02035 -2.41407,-18.09961 -1.63471,-7.18554 -6.06124,-17.13593 -10.24023,-23.01953 C 718.47666,186.34017 717,183.78501 717,183.20312 c 0,-0.58189 -1.14743,-1.96057 -2.55078,-3.06445 -1.40335,-1.10387 -2.61973,-2.37371 -2.70313,-2.82226 -0.18183,-0.97754 -5.48885,-7.01312 -8.11914,-9.23438 -1.02995,-0.86979 -2.37995,-2.21731 -3,-2.99414 -0.62005,-0.77682 -5.50787,-5.95182 -10.86328,-11.5 C 684.40827,148.03972 678.70086,141.7 677.08203,139.5 c -1.61883,-2.2 -6.42319,-7.15 -10.67773,-11 -8.55103,-7.73795 -15.17265,-14.30318 -21.5293,-21.34961 -2.30716,-2.55752 -8.51046,-9.177927 -13.78516,-14.710937 -9.06683,-9.510832 -18.51,-19.812019 -28.26172,-30.830078 C 600.44748,58.919577 596.925,55.082814 595,53.082031 590.04415,47.931076 580.33896,37.836463 578.25781,35.669922 c -0.96639,-1.006033 -3.39788,-3.530144 -5.40234,-5.609375 -2.00447,-2.07923 -4.25447,-4.916895 -5,-6.306641 C 566.05631,20.400114 554.03508,7.1300567 551.5,5.6992188 550.10876,4.913979 534.88987,4.4976197 501.5,4.3300781 475.1,4.1976098 452.825,4.0404649 452,3.9824219 451.175,3.924379 445.775,4.1483251 440,4.4785156 434.225,4.808706 418.7,5.2174062 405.5,5.3867188 392.3,5.5560314 380.825,5.719368 380,5.75 c -0.825,0.03063 -6.45,0.046509 -12.5,0.037109 -6.05,-0.0094 -19.1,0.016004 -29,0.054687 -9.9,0.038684 -26.55,0.044286 -37,0.013672 C 275.34719,5.7788538 210.05633,5.717094 207,5.765625 c -1.375,0.021833 -17.42711,0.089024 -35.67188,0.1503906 -23.6519,0.079554 -32.73676,-0.1112055 -36.20703,-1.4355468 -1.85647,-0.00576 -3.71196,-0.010645 -5.56836,-0.035156 -0.0443,-6.567e-4 -0.0885,-0.00128 -0.13281,-0.00195 C 129.17249,4.7493097 128.89031,5 128.5,5 c -0.41864,0 -0.73328,-0.2477127 -0.98633,-0.5976562 -0.82708,-0.018303 -1.65368,-0.043441 -2.48047,-0.072266 -0.045,0.05172 -0.0486,0.1801767 -0.10156,0.2128907 -0.4846,0.2994968 -5.72998,0.6042793 -11.65625,0.6777343 C 107.34912,5.2941579 101.9668,5.755331 101.31445,6.2460938 100.60164,6.7823465 99.304831,6.6989862 98.064453,6.0351562 96.865104,5.3932843 95.266928,5.2740953 94.25,5.7519531 92.162638,6.7328113 78.010949,6.6257332 69.25,5.5625 63.52867,4.8681565 63,4.6009942 63,2.4023438 63,2.2709486 62.934949,2.256932 62.929688,2.1386719 62.432212,2.1901774 61.935023,2.2484029 61.441406,2.2851562 60.354749,2.4257121 59.27647,2.6140429 58.201172,2.8183594 L 58.5,5.2597656 43.75,5.7089844 29,6.1582031 28.839844,2.828125 Z M 484.85938,14.919922 c 5.30229,0.09506 21.73793,0.288089 36.52343,0.429687 l 26.88281,0.257813 2.41602,2.945312 c 2.60175,3.173191 11.10079,12.760079 15.56836,17.560547 1.5125,1.625204 2.75,3.299344 2.75,3.71875 0,0.419405 5.85,6.812658 13,14.207031 7.15,7.394373 13,13.789851 13,14.212891 0,0.42304 5.0625,5.935279 11.25,12.25 15.19944,15.51196 17.75,18.291303 17.75,19.341797 0,0.49398 1.5729,1.96894 3.49414,3.27734 3.91646,2.66717 4.31378,3.68539 1.75586,4.49414 -0.9625,0.30431 -4.84536,1.86533 -8.62891,3.46875 C 616.83754,112.6874 612.28074,114 610.49414,114 c -1.78661,0 -3.80945,0.675 -4.49414,1.5 -0.68469,0.825 -2.0923,1.5 -3.12695,1.5 -1.03465,0 -3.55896,0.9 -5.61133,2 -2.05236,1.1 -4.56851,2 -5.5918,2 -1.02328,0 -3.05576,0.61792 -4.51562,1.37305 C 582.03953,125.01873 576.91733,127 575.19141,127 c -0.95784,0 -4.4308,1.33601 -7.7168,2.96875 -3.286,1.63274 -6.89789,2.9827 -8.02539,3 -1.1275,0.0173 -2.4775,0.45793 -3,0.97852 -0.5225,0.52059 -7.02422,1.90399 -14.44922,3.07617 -7.425,1.17219 -14.4,2.51212 -15.5,2.97656 -1.1,0.46443 -3.35,1.1398 -5,1.5 -1.65,0.3602 -4.35,1.25182 -6,1.98242 -1.65,0.73059 -5.40973,1.58069 -8.35547,1.88867 -2.94573,0.30798 -5.87073,0.96753 -6.5,1.4668 -1.38163,1.0962 -12.06654,3.99104 -19.64453,5.32227 -3.025,0.5314 -6.4,1.35653 -7.5,1.83203 -1.1,0.4755 -3.8,1.13218 -6,1.46093 -2.2,0.32877 -6.925,1.44775 -10.5,2.48633 -3.575,1.03859 -11.675,2.42582 -18,3.08203 -6.325,0.65622 -13.3,1.64438 -15.5,2.19532 -3.82749,0.9585 -8.66025,1.56061 -29.27344,3.64648 -5.52113,0.55869 -10.29886,1.60973 -11.80664,2.59766 -1.84306,1.20762 -4.35526,1.5934 -9.22656,1.41797 -3.68157,-0.13258 -12.72581,0.30636 -20.09766,0.97656 -10.3221,0.93843 -14.60859,0.949 -18.64843,0.0449 -3.96752,-0.8879 -7.10712,-0.89672 -12.88672,-0.0371 -4.20293,0.62511 -8.18653,1.05613 -8.85157,0.95703 -1.44145,-0.21467 -47.70185,-1.44309 -88.20898,-2.34179 -29.45256,-0.65343 -39.10012,-1.33007 -57,-3.9961 -5.5,-0.81918 -11.43637,-1.48833 -13.19141,-1.48633 -1.75504,0.002 -3.46867,-0.44609 -3.80859,-0.99609 -0.33992,-0.55 -2.72855,-1.02062 -5.30859,-1.04492 -4.79531,-0.0451 -13.52495,-1.95465 -14.81055,-3.24024 C 129.98755,159.32152 128.12864,159 126.25,159 c -1.87865,0 -6.5305,-1.36798 -10.33789,-3.03906 -4.02451,-1.76636 -10.37457,-3.51438 -15.16797,-4.17774 -4.534799,-0.62758 -8.992632,-1.77188 -9.908202,-2.54101 -0.915571,-0.76912 -4.740571,-2.22385 -8.5,-3.23242 -7.461027,-2.00163 -12.206063,-3.55973 -16.835938,-5.53321 -1.65,-0.70331 -5.25,-1.84012 -8,-2.52539 -2.75,-0.68527 -5.426719,-1.62873 -5.949219,-2.09765 C 51.028281,135.38461 48.881089,135 46.779297,135 c -2.352226,0 -5.255726,-0.93171 -7.550781,-2.42383 -2.581336,-1.67825 -5.882315,-2.6376 -10.728516,-3.11523 -3.85,-0.37945 -9.122874,-1.58658 -11.716797,-2.6836 l -4.714844,-1.99414 0.513672,-26.142575 c 0.282991,-14.377762 0.664752,-29.705385 0.847657,-34.0625 0.182902,-4.357115 0.01399,-9.082115 -0.375,-10.5 -0.388991,-1.417885 -0.441179,-3.647311 -0.115235,-4.955078 0.325941,-1.307767 0.284569,-5.807767 -0.0918,-10 -0.842483,-9.384172 -0.034,-17.794124 1.896485,-19.724609 0.983832,-0.983833 2.512624,-1.25384 4.740234,-0.835938 1.952395,0.366272 3.560896,0.174626 3.960937,-0.472656 C 23.86136,17.416666 28.087021,17 34.5,17 40.210081,17 45.100001,16.647159 45.367188,16.214844 45.781524,15.544434 107.99897,15.508709 227,16.113281 c 49.26354,0.250278 116.15088,0.175726 125,-0.140625 4.675,-0.167127 10.75,-0.266523 13.5,-0.220703 2.75,0.04582 23.675,0.07787 46.5,0.07227 22.825,-0.0056 45.98257,-2.61e-4 51.46094,0.01172 5.47836,0.01198 10.36504,-0.227688 10.85937,-0.533204 0.49434,-0.30552 5.23676,-0.477872 10.53907,-0.382812 z M 642.44727,120 c 0.72347,0 2.58757,1.6875 4.14257,3.75 1.555,2.0625 3.24822,3.92275 3.76368,4.13281 2.13118,0.8685 7.64648,7.42004 7.64648,9.08399 0,1.28984 -1.25127,2.11077 -4.44141,2.91406 -2.44236,0.61499 -4.71849,1.56884 -5.05859,2.11914 -0.34011,0.5503 -1.2544,1 -2.03125,1 -0.77686,0 -4.01126,1.19214 -7.18945,2.64844 -3.17818,1.45625 -6.6793,2.81819 -7.7793,3.02734 -3.23346,0.61481 -14.59463,4.36685 -20,6.60547 -2.75,1.1389 -7.025,2.4045 -9.5,2.81055 -2.475,0.40605 -7.2,1.69523 -10.5,2.86523 -3.3,1.17 -8.025,2.57294 -10.5,3.11914 -2.475,0.5462 -6.75,2.07874 -9.5,3.4043 -2.75,1.32556 -7.25,2.90881 -10,3.51953 -2.75,0.61071 -5.99669,1.76016 -7.21484,2.55469 C 553.06701,174.34921 551.25092,175 550.25,175 c -1.00091,0 -4.38007,0.9 -7.50977,2 -3.12969,1.1 -7.24059,2 -9.13476,2 -1.89417,0 -4.71832,0.62266 -6.27539,1.38281 -4.4022,2.14911 -12.81968,4.61719 -15.7461,4.61719 -1.45635,0 -4.21128,0.6532 -6.12109,1.45117 -1.9098,0.79797 -6.28177,1.73336 -9.7168,2.08008 -3.43502,0.34673 -10.20164,1.75893 -15.03711,3.13672 -4.83547,1.37778 -10.23547,2.63657 -12,2.79883 -9.6612,0.88841 -15.81552,1.89469 -16.29101,2.66406 -0.29516,0.47756 -2.06303,0.86914 -3.92969,0.86914 -1.86667,0 -4.42803,0.45917 -5.6914,1.02148 -1.26338,0.5623 -6.79688,1.64283 -12.29688,2.4004 -5.5,0.75756 -10.9,1.59129 -12,1.85351 -1.1,0.26222 -5.6,0.80332 -10,1.20117 -4.4,0.39785 -8.58586,1.20195 -9.30078,1.78711 -0.71491,0.58517 -6.56491,1.64129 -13,2.34766 -6.43508,0.70637 -13.94922,1.73159 -16.69922,2.27734 -2.75,0.54574 -7.33637,1.01994 -10.19141,1.05274 -2.85504,0.0328 -5.42878,0.44561 -5.7207,0.91797 -0.29193,0.47235 -3.80752,0.98837 -7.81055,1.14648 -9.46226,0.37368 -10.35311,0.37142 -16.27734,-0.0234 -2.75,-0.18329 -16.025,0.0229 -29.5,0.45899 -13.475,0.43608 -24.725,0.85298 -25,0.92578 -1.30711,0.34606 -12.32629,-0.41526 -19.5,-1.34766 -4.4,-0.57189 -15.425,-1.24828 -24.5,-1.50195 -22.49247,-0.62873 -34.65151,-1.20554 -40,-1.89844 -2.475,-0.32064 -7.425,-0.77842 -11,-1.01758 -3.575,-0.23916 -7.85,-0.9012 -9.5,-1.4707 -1.65,-0.56949 -8.4,-1.74432 -15,-2.61133 -13.01286,-1.70944 -25.6659,-4.43065 -32,-6.88281 -2.2,-0.8517 -4.9,-1.57502 -6,-1.60742 -2.20978,-0.0651 -7.89376,-1.97593 -11,-3.69727 -1.1,-0.60957 -4.57951,-1.63852 -7.732422,-2.28711 -3.15291,-0.64859 -5.991544,-1.59833 -6.308594,-2.11133 -0.31705,-0.513 -1.337537,-0.93645 -2.267578,-0.93945 -0.930041,-0.003 -2.925984,-0.65003 -4.435547,-1.4375 -1.509563,-0.78747 -4.859808,-1.74929 -7.443359,-2.13672 -2.583551,-0.38742 -9.22202,-2.59455 -14.753906,-4.9043 -5.531886,-2.30973 -11.308631,-4.50664 -12.835938,-4.88281 -1.527308,-0.37617 -4.902308,-1.97507 -7.5,-3.55273 -2.597693,-1.57766 -6.282506,-3.19848 -8.189453,-3.60156 -1.906947,-0.40309 -4.156947,-1.07179 -5,-1.48633 C 29.19015,165.57766 26.475,164.26828 24,163.08203 c -2.475,-1.18624 -5.4,-2.66133 -6.5,-3.27734 -1.1,-0.61602 -2.675,-1.43656 -3.5,-1.82227 -1.084221,-0.5069 -1.5,-2.33369 -1.5,-6.5918 V 145.5 l 4.705078,-0.30273 c 2.795756,-0.18003 5.635762,0.268 7,1.10351 1.262579,0.77326 4.994922,1.96121 8.294922,2.64063 3.3,0.67942 6.9,1.728 8,2.33007 1.1,0.60207 3.8,1.41724 6,1.8125 2.2,0.39525 6.925,1.68992 10.5,2.87696 10.061163,3.34071 12.846925,4.15625 15.263672,4.46289 1.229969,0.15606 3.361328,0.73227 4.736328,1.28125 5.912073,2.36044 15.837121,5.29001 20,5.9043 2.475,0.36522 5.4,1.15719 6.5,1.75976 2.15729,1.18174 15.41233,4.60459 19.5,5.03516 1.375,0.14484 3.76614,0.78827 5.31445,1.42968 1.5483,0.64142 4.49238,1.16602 6.54102,1.16602 2.04864,0 6.40554,0.70619 9.68359,1.57031 8.29328,2.1861 21.31435,4.20386 31.96094,4.95313 4.95,0.34837 9.675,0.8819 10.5,1.18554 0.825,0.30363 4.875,0.70083 9,0.88086 4.125,0.18003 10.89479,0.86215 15.04297,1.51563 5.68657,0.89581 8.0685,0.90538 9.68359,0.041 2.39283,-1.2806 11.89429,-1.57024 12.62696,-0.38476 0.25906,0.41917 5.08787,0.65515 10.73242,0.52344 6.04838,-0.14114 10.78164,0.18939 11.52539,0.80664 0.69409,0.57605 2.75392,0.76936 4.57617,0.42773 1.82225,-0.34164 12.0875,-0.51294 22.8125,-0.37891 10.725,0.13406 21.1875,0.2044 23.25,0.1543 8.63956,-0.21005 14.14523,-0.23032 30.75,-0.10547 9.71146,0.073 20.17036,-0.38243 23.5,-1.02343 3.3,-0.6353 8.925,-1.3843 12.5,-1.66602 6.84377,-0.53929 8.78046,-0.77654 21.23438,-2.5957 4.25414,-0.6214 8.43949,-0.85981 9.30078,-0.5293 1.43359,0.55012 13.92546,-0.96158 17.46484,-2.11328 0.825,-0.26845 2.85,-0.62486 4.5,-0.79297 6.50002,-0.66228 11.36897,-1.39523 20,-3.01367 4.95,-0.92819 11.025,-2.0544 13.5,-2.50196 2.475,-0.44754 7.425,-1.50255 11,-2.34374 3.575,-0.84122 10.325,-2.33601 15,-3.32227 4.675,-0.98627 8.95,-2.08361 9.5,-2.43945 0.55,-0.35584 3.5939,-0.971 6.76367,-1.36524 3.16976,-0.39425 5.98166,-1.07167 6.25,-1.50586 0.26835,-0.43419 2.85139,-1.1066 5.73828,-1.49414 2.88688,-0.38755 6.73716,-1.31712 8.55664,-2.0664 1.81949,-0.74928 5.54113,-1.65929 8.27149,-2.02149 2.73036,-0.36219 5.20684,-1.04788 5.50195,-1.52539 0.29512,-0.4775 2.42152,-0.88103 4.72656,-0.89453 2.30504,-0.0134 6.21641,-0.49508 8.69141,-1.07031 2.475,-0.57524 5.72582,-1.20391 7.22461,-1.39844 1.4988,-0.19454 4.8738,-1.46514 7.5,-2.82227 C 570.3727,146.24808 575.59828,144 576.93164,144 c 1.18252,0 12.38881,-4.39333 15.19531,-5.95703 0.89479,-0.49856 3.36979,-1.22446 5.5,-1.61328 2.13021,-0.38882 5.06745,-1.54455 6.52735,-2.56836 1.4599,-1.0238 3.15361,-1.86133 3.76367,-1.86133 0.61006,0 1.89066,-0.43907 2.8457,-0.97461 0.95504,-0.53553 3.98633,-1.62833 6.73633,-2.42969 6.48986,-1.89116 10.67952,-3.35908 17.81641,-6.24414 C 638.51517,121.05848 641.72381,120 642.44727,120 Z M 37.292969,134.375 c 0.18125,-0.0799 0.432031,-0.045 0.707031,0.125 0.55,0.33992 1,0.81605 1,1.05859 C 39,135.80113 38.55,136 38,136 c -0.55,0 -1,-0.47613 -1,-1.05859 0,-0.29123 0.111719,-0.48648 0.292969,-0.56641 z m -23.376953,0.74805 c 0.347396,0.0143 0.646354,0.10729 0.8125,0.27343 0.332291,0.33229 -0.258334,0.56879 -1.3125,0.5254 -1.164943,-0.048 -1.401249,-0.28625 -0.603516,-0.60547 0.360937,-0.14446 0.75612,-0.20767 1.103516,-0.19336 z m 655.431644,17.91992 c 5.40548,0.005 10.00127,3.17278 16.18359,10.09961 2.18312,2.44602 5.33419,5.40187 7.00391,6.56836 1.66972,1.16649 3.6592,3.28367 4.41992,4.70508 0.76071,1.42141 1.84296,2.58398 2.4043,2.58398 1.92335,0 10.84346,10.49709 13.80664,16.24805 1.62916,3.16187 4.05998,7.05509 5.40234,8.65039 1.96434,2.33449 2.55765,4.43151 3.04492,10.75 0.33298,4.31782 1.23142,9.78 1.9961,12.13672 3.02524,9.32372 0.34065,47.34761 -4.00391,56.71484 -1.27546,2.75 -2.92917,6.8 -3.67578,9 -0.74661,2.2 -3.37094,7.825 -5.83203,12.5 -2.46109,4.675 -6.00693,11.63378 -7.87891,15.46484 -1.87199,3.83106 -4.7112,8.30557 -6.31055,9.94141 -1.59934,1.63585 -2.91101,3.45011 -2.91601,4.0332 -0.014,1.76313 -11.1812,16.74057 -16.22852,21.76563 -6.63201,6.60275 -7.77152,7.07155 -11.86328,4.89258 -3.49747,-1.8625 -15.47165,-6.22928 -33.90039,-12.36524 -11.10465,-3.69736 -20.53324,-7.08164 -25.5,-9.15234 -4.99005,-2.08041 -9.71449,-3.67609 -15.5,-5.23438 -7.20231,-1.93991 -16.98301,-5.41215 -19.5,-6.92187 -1.1,-0.6598 -4.475,-1.75748 -7.5,-2.44141 -3.025,-0.68393 -5.95,-1.55873 -6.5,-1.94336 -0.55,-0.38463 -5.275,-2.18264 -10.5,-3.99414 -5.225,-1.81149 -10.85,-3.89686 -12.5,-4.63476 C 528.72059,310.27278 504.82201,304 501.45898,304 c -1.68288,0 -3.49548,-0.43689 -4.02929,-0.9707 -0.53381,-0.53381 -5.23748,-1.85548 -10.45117,-2.9375 -5.21369,-1.08201 -11.27852,-2.40726 -13.47852,-2.94532 -2.2,-0.53806 -7.825,-1.50827 -12.5,-2.15429 -4.675,-0.64603 -10.975,-1.80995 -14,-2.58789 -3.025,-0.77794 -9.45385,-2.07971 -14.28516,-2.89258 -4.83132,-0.81286 -9.63856,-1.93486 -10.68359,-2.49414 C 420.98622,286.4583 418.89055,286 417.375,286 c -2.81219,0 -13.66361,-1.83518 -16.375,-2.76953 -0.825,-0.28432 -2.72661,-0.41985 -4.22656,-0.30078 -1.49996,0.11906 -4.19996,-0.24554 -6,-0.81055 -5.61417,-1.76224 -23.6942,-3.99509 -37.6211,-4.64648 -7.34098,-0.34335 -14.31598,-0.90798 -15.5,-1.25391 -1.18403,-0.34593 -5.30234,-0.70031 -9.15234,-0.78711 -3.85,-0.0869 -7.225,-0.27756 -7.5,-0.42383 -2.25405,-1.19889 -34.35926,-3.12211 -42.34961,-2.53711 -4.48226,0.32816 -16.87397,0.79233 -27.53711,1.03125 -10.66314,0.23892 -20.78814,0.87029 -22.5,1.4043 -2.48306,0.77455 -16.23496,0.80276 -24.61328,0.0508 -0.825,-0.074 -4.4307,0.33826 -8.01172,0.91602 -3.58102,0.57776 -10.33102,1.52469 -15,2.10351 -15.58594,1.9322 -17.47781,2.24135 -19.17187,3.13477 C 160.89007,281.59986 158.1037,282 155.625,282 c -2.4787,0 -4.78931,0.45666 -5.13477,1.01562 -0.34546,0.55898 -1.04735,0.75933 -1.55859,0.44336 -0.51124,-0.31596 -3.66654,0.12544 -7.01172,0.98243 -3.34517,0.85699 -7.14328,1.55859 -8.4414,1.55859 -1.29812,0 -2.58077,0.35604 -2.84961,0.79102 -0.26884,0.43499 -2.20747,0.90271 -4.3086,1.03906 -4.98884,0.32373 -11.07828,1.96818 -11.83789,3.19726 -0.33069,0.53506 -2.04016,0.97266 -3.79883,0.97266 -1.75867,0 -4.76808,0.47722 -6.68945,1.06055 -1.92137,0.58333 -4.39414,1.19112 -5.49414,1.35156 -6.968323,1.01638 -11.129597,1.91431 -12,2.58789 -0.55,0.42563 -3.025,1.09314 -5.5,1.48242 -6.543628,1.02919 -20.221925,4.43958 -22.207031,5.53711 -0.938479,0.51887 -3.638479,1.2298 -6,1.58008 -2.361521,0.35029 -5.289664,1.25752 -6.507813,2.01758 -1.218149,0.76005 -3.243149,1.38472 -4.5,1.38672 -1.256851,0.002 -4.499365,1.1273 -7.205078,2.5 C 31.874365,312.8766 28.987675,314 28.164062,314 c -0.823612,0 -4.411782,1.60129 -7.972656,3.55859 -4.42271,2.43103 -6.799602,3.23361 -7.5,2.53321 -0.918388,-0.91839 -1.135885,-75.62268 -0.36914,-126.5918 l 0.224609,-15 3.474609,0.34766 c 1.910249,0.19089 4.232221,0.75339 5.160157,1.25 0.927936,0.49662 2.642733,0.90234 3.810547,0.90234 1.167812,0 4.138702,1.125 6.601562,2.5 2.46286,1.375 5.248422,2.51375 6.191406,2.53125 0.942984,0.0175 2.588628,0.6925 3.65625,1.5 1.067621,0.80751 2.777381,1.46875 3.798828,1.46875 1.021447,0 3.695126,0.88838 5.94336,1.97461 2.248235,1.08623 4.477928,1.7351 4.953125,1.44141 C 56.611916,192.12234 57,192.32765 57,192.87305 c 0,0.54539 1.0125,1.27641 2.25,1.62304 1.2375,0.34663 3.15,1.03071 4.25,1.52149 C 73.585397,200.5173 83.198135,204 85.535156,204 c 1.135264,0 2.493125,0.40441 3.015625,0.89844 1.0036,0.9489 15.328159,3.87351 21.734379,4.4375 2.08153,0.18327 4.30825,0.85707 4.94922,1.49804 0.64097,0.64098 2.57662,1.16602 4.30078,1.16602 1.72417,0 5.79549,0.86827 9.04882,1.92969 3.25334,1.06141 11.54102,2.69849 18.41602,3.63672 6.875,0.93823 13.85,2.25391 15.5,2.92382 3.136,1.27325 29.01225,3.92896 30.33203,3.11329 0.41756,-0.25807 5.57068,0.16296 11.45313,0.93554 5.88245,0.77258 11.28284,1.1795 12,0.9043 0.71716,-0.27519 3.25981,0.18975 5.65039,1.0332 3.15413,1.11284 4.70352,1.23733 5.64843,0.45313 1.74188,-1.44563 35.21727,-0.33888 37.10352,1.22656 1.01916,0.84583 1.78957,0.72251 3.14258,-0.50195 1.45974,-1.32105 2.43039,-1.42755 5.23047,-0.57422 5.07951,1.54804 44.54006,1.49634 46.41601,-0.0606 1.05734,-0.87752 3.98567,-1.04947 10.25196,-0.60547 4.82459,0.34185 9.22148,0.64237 9.77148,0.66797 0.92547,0.0431 20.41778,-2.1118 32,-3.53711 2.75,-0.33842 7.7,-0.82714 11,-1.08594 3.3,-0.2588 7.125,-0.64619 8.5,-0.86132 1.375,-0.21514 5.875,-0.69968 10,-1.07618 4.125,-0.3765 8.625,-1.09923 10,-1.60546 4.38986,-1.61619 18.19128,-4.00158 28.18555,-4.87305 5.32709,-0.46451 11.17709,-1.30085 13,-1.85742 1.82291,-0.55658 5.78945,-1.30217 8.81445,-1.65625 3.025,-0.35408 7.42844,-1.29225 9.78516,-2.08594 2.35672,-0.79369 6.40672,-1.45711 9,-1.47461 2.59328,-0.0175 5.58863,-0.6925 6.65625,-1.5 1.14765,-0.86804 4.13879,-1.46875 7.3164,-1.46875 2.95604,0 6.30566,-0.49945 7.44531,-1.10938 1.13967,-0.60994 3.46256,-1.32785 5.16211,-1.5957 1.69955,-0.26786 4.82937,-1.37453 6.95508,-2.45898 2.12571,-1.08446 7.08702,-2.58229 11.02344,-3.33008 12.0282,-2.28498 24.85271,-5.42576 26.03516,-6.375 0.61654,-0.49494 2.69609,-1.21276 4.62109,-1.5957 4.51857,-0.89886 16.20449,-4.64763 17.5,-5.61328 0.55,-0.40997 3.925,-1.30207 7.5,-1.98438 3.575,-0.68231 8.42844,-1.84841 10.78516,-2.58984 C 593.14188,176.60623 595.8541,176 596.8125,176 c 0.9584,0 2.62997,-0.61856 3.71484,-1.375 1.08488,-0.75644 3.77266,-1.59586 5.97266,-1.86523 2.2,-0.26936 5.35,-0.98205 7,-1.58399 4.93529,-1.80047 12.76854,-4.25192 16.5,-5.16406 1.925,-0.47056 5.525,-1.54481 8,-2.38672 2.475,-0.84192 6.525,-2.08389 9,-2.75977 2.475,-0.67588 7.52584,-2.72192 11.22461,-4.54687 4.34419,-2.1434 7.87976,-3.27866 11.12305,-3.27539 z M 304.75977,288.9375 c 4.99505,0.19316 7.20914,0.62256 8.07812,1.34375 0.81248,0.6743 6.98943,1.46396 14.53711,1.85937 7.2183,0.37816 17.85,1.15849 23.625,1.73243 5.775,0.57393 13.65,1.25638 17.5,1.51757 3.85,0.26121 9.475,0.93999 12.5,1.50782 3.025,0.56783 9.55,1.79073 14.5,2.71875 4.95,0.92802 10.125,1.83788 11.5,2.02148 3.83116,0.51155 6.35177,1.02878 8,1.64063 1.91401,0.71052 17.77164,3.75354 18.75781,3.59961 0.40829,-0.0637 0.96719,-0.025 1.24219,0.0859 0.275,0.11097 1.4,0.3427 2.5,0.51563 1.1,0.17294 4.25,0.84919 7,1.50195 2.75,0.65276 6.8,1.42451 9,1.71485 2.2,0.29034 4.48331,0.91725 5.07422,1.39257 0.59091,0.47531 4.41591,1.16112 8.5,1.52539 4.08409,0.36428 9.67578,1.4569 12.42578,2.42774 2.75,0.97084 7.43274,2.05795 10.40625,2.41601 2.97351,0.35805 6.66193,1.30081 8.19531,2.09375 1.53338,0.79295 4.50064,1.60814 6.59375,1.8125 5.3294,0.52032 15.1232,3.3883 19.44141,5.69336 1.99989,1.06753 4.78429,1.94141 6.18945,1.94141 1.40515,0 2.85899,0.48997 3.22852,1.08789 0.36953,0.59761 1.52246,0.86378 2.5625,0.5918 1.04005,-0.27198 3.66658,0.36305 5.83789,1.41211 2.17131,1.04907 4.43533,1.9082 5.03125,1.9082 0.59592,0 2.10399,0.66889 3.35156,1.48633 1.24757,0.81744 4.92095,2.39855 8.16211,3.51367 3.24116,1.11512 6.81785,2.60747 7.94727,3.31641 1.12942,0.70894 5.42773,2.35319 9.55273,3.65429 12.73153,4.01578 18.17718,6.04009 20.35352,7.56446 1.15045,0.80581 2.87275,1.46484 3.82812,1.46484 0.95536,0 2.83333,1.18144 4.17188,2.625 1.90855,2.05829 3.5054,2.67581 7.40429,2.86328 2.73445,0.13147 6.27067,0.90013 7.85742,1.70899 1.58676,0.80886 5.20019,2.67061 8.03125,4.13671 2.83106,1.4661 6.58656,2.66602 8.34375,2.66602 1.75719,0 4.33791,0.9 5.73633,2 1.46518,1.15251 4.07496,2.00567 6.15821,2.01367 4.47728,0.0169 8.11523,0.94404 8.11523,2.06836 0,1.05638 -6.91304,8.78708 -11,12.30078 -0.825,0.70928 -1.95,1.52356 -2.5,1.81055 -1.07159,0.55914 -14.09446,-3.17557 -21.5,-6.16602 -2.475,-0.99943 -7.2,-2.3868 -10.5,-3.08398 -3.3,-0.69717 -6.71551,-1.87413 -7.58984,-2.61524 -0.87432,-0.7411 -6.04932,-2.74329 -11.5,-4.44921 -5.45067,-1.70591 -12.24422,-4.17659 -15.09766,-5.49024 -2.85345,-1.31364 -5.77845,-2.383 -6.5,-2.375 -1.7637,0.0195 -14.80428,-3.96413 -17.3125,-5.28906 -5.94024,-3.13782 -24.62638,-7.64976 -35,-8.45117 -3.3,-0.25493 -6.45,-0.82369 -7,-1.26367 -0.55,-0.43999 -4.825,-1.5401 -9.5,-2.44532 -4.675,-0.90522 -9.625,-2.12632 -11,-2.71289 -1.375,-0.58657 -6.55,-2.10978 -11.5,-3.38476 -17.76844,-4.57665 -21.42068,-5.62231 -26,-7.44336 -4.46505,-1.77562 -10.39399,-3.12293 -17.5,-3.97656 -4.125,-0.49554 -10.65,-1.62183 -14.5,-2.50391 -3.85,-0.88208 -7.675,-1.63744 -8.5,-1.67774 -0.825,-0.0403 -3.975,-0.65682 -7,-1.36914 -3.025,-0.71232 -9.06621,-1.59115 -13.42383,-1.95312 -4.35762,-0.36196 -8.85762,-1.15774 -10,-1.76953 -1.14238,-0.61179 -5.45117,-1.45069 -9.57617,-1.86328 -4.125,-0.41259 -10.2,-1.28129 -13.5,-1.93164 -3.3,-0.65036 -7.125,-1.27441 -8.5,-1.38477 -1.375,-0.11035 -3.175,-0.47536 -4,-0.8125 -0.825,-0.33714 -5.775,-0.88216 -11,-1.21094 -5.225,-0.32878 -15.575,-1.04107 -23,-1.58398 -15.24873,-1.11497 -54.47117,-1.43105 -56.05664,-0.45117 -0.57181,0.3534 -7.62126,0.84957 -15.66406,1.10156 -8.0428,0.25198 -15.10029,0.75278 -15.6836,1.11328 -1.31916,0.81529 -2.10033,0.94994 -12.5957,2.16797 -4.675,0.54254 -13.675,1.95357 -20,3.13672 -6.325,1.18316 -14.47459,2.52102 -18.11133,2.97265 -3.63674,0.45163 -8.36174,1.27088 -10.5,1.82032 -2.13826,0.54943 -5.78482,1.00471 -8.10351,1.01172 -2.31868,0.007 -5.69368,0.67591 -7.5,1.48437 -1.80631,0.80846 -6.58623,1.71348 -10.6211,2.01172 -4.03488,0.29825 -7.85988,0.95409 -8.5,1.45703 -0.64013,0.50294 -3.14582,1.21771 -5.56836,1.58789 -2.42254,0.37019 -4.89754,0.98093 -5.5,1.35742 -0.60246,0.37649 -1.9957,0.82403 -3.0957,0.99414 -4.2889,0.66327 -9.44492,2.3488 -10.01758,3.27539 -0.33069,0.53506 -1.94694,0.97266 -3.5918,0.97266 -1.644846,0 -4.204261,0.62547 -5.689448,1.39062 C 93.715985,341.15578 88.9,342.34495 84.5,343.0332 c -4.4,0.68826 -8.471541,1.61895 -9.048828,2.06641 -0.577288,0.44746 -3.052288,1.11055 -5.5,1.47461 -2.447713,0.36407 -5.447867,1.28291 -6.666016,2.04297 -1.218149,0.76005 -3.018149,1.38567 -4,1.38867 -0.981851,0.003 -2.993298,0.63648 -4.46875,1.40625 -1.475452,0.76977 -4.175452,1.70183 -6,2.07031 -1.824548,0.36847 -5.262643,1.5526 -7.640625,2.63281 -2.377982,1.08021 -5.752982,2.23288 -7.5,2.56055 -1.747018,0.32767 -5.425781,1.63887 -8.175781,2.91406 -2.75,1.2752 -7.025,2.4505 -9.5,2.61328 L 11.5,364.5 11.220703,351.88477 c -0.269258,-12.18092 -0.200274,-12.66732 2,-14.08985 1.253382,-0.81035 3.682856,-1.7488 5.398438,-2.08398 1.715581,-0.33518 5.332035,-1.91285 8.037109,-3.50782 4.596675,-2.7103 23.166418,-9.09443 36.84375,-12.66601 3.3,-0.86174 8.025,-2.20067 10.5,-2.97656 2.475,-0.7759 6.642455,-1.72216 9.261719,-2.10157 2.619263,-0.37941 5.00985,-1.08767 5.310547,-1.57421 C 88.872962,312.39824 90.750248,312 92.744141,312 c 1.993892,0 5.4533,-0.85596 7.689449,-1.90234 2.23614,-1.04637 6.54141,-2.163 9.56641,-2.48047 3.025,-0.31747 7.44904,-0.78101 9.83008,-1.03125 2.38105,-0.25023 6.20605,-1.42263 8.5,-2.60547 2.34271,-1.20797 8.33387,-2.73978 13.66992,-3.49414 20.79909,-2.94038 25.54058,-3.74323 26.5,-4.48438 0.55,-0.42487 8.2,-1.13107 17,-1.57031 8.8,-0.43925 17.575,-0.94402 19.5,-1.12109 1.925,-0.17707 11.375,-0.71615 21,-1.19922 9.625,-0.48308 18.92348,-1.33891 20.66211,-1.90039 1.73862,-0.56148 9.16362,-1.04683 16.5,-1.07813 7.33637,-0.0313 14.91289,-0.0851 16.83789,-0.12109 11.98967,-0.22394 19.76471,-0.26738 24.75977,-0.0742 z m -47.68165,38.3457 c 0.54375,-0.0711 1.12861,-0.037 1.62305,0.11914 0.9889,0.31226 11.69883,0.78418 23.79883,1.04883 28.03185,0.61311 42.96302,1.4637 47.94141,2.72852 2.16775,0.55074 7.79275,1.20036 12.5,1.44531 4.70725,0.24494 11.03359,0.89453 14.05859,1.44336 3.025,0.54882 7.975,1.25491 11,1.56836 3.025,0.31345 6.05957,1.02583 6.74414,1.58398 0.68457,0.55818 2.14762,0.77852 3.25,0.49024 1.10238,-0.28828 2.26306,-0.1028 2.58008,0.41015 0.31702,0.51295 1.10592,0.83403 1.75195,0.71485 1.86479,-0.34403 18.96528,2.199 21.17383,3.14844 1.1,0.47288 2.675,0.86599 3.5,0.875 0.825,0.009 3.3,0.50967 5.5,1.11132 2.2,0.60165 6.73206,1.25159 10.07227,1.44336 3.3402,0.19178 6.9402,0.83664 8,1.4336 1.05979,0.59696 5.07773,1.73031 8.92773,2.51953 3.85,0.78922 8.35,1.88486 10,2.43359 8.65512,2.87841 13.47731,4.19922 15.32617,4.19922 1.13122,0 2.29458,0.386 2.58594,0.85742 0.29136,0.47143 3.35499,1.43889 6.80859,2.15039 3.4536,0.71151 7.44476,1.87531 8.86914,2.58594 1.42438,0.71062 5.69938,1.82522 9.5,2.47656 3.80062,0.65135 8.03516,1.74838 9.41016,2.43946 1.375,0.69108 5.875,1.58155 10,1.97656 4.125,0.39501 8.9861,1.4084 10.80273,2.2539 1.81663,0.84551 4.06663,1.60917 5,1.69727 3.4709,0.32766 24.52411,6.6288 25.64649,7.67578 0.5225,0.48741 1.963,0.88672 3.20117,0.88672 3.82424,0 13.56639,2.88582 15.42773,4.57031 0.97176,0.87942 3.60108,1.84568 5.84376,2.14649 2.24269,0.3008 4.07812,0.86461 4.07812,1.2539 0,0.95095 4.66817,3.0293 6.80469,3.0293 0.941,0 3.73886,1.07933 6.21679,2.39844 5.47771,2.91601 16.44567,6.60156 19.64649,6.60156 1.28616,0 4.01794,0.9 6.07031,2 2.05236,1.1 4.75046,2 5.9961,2 1.24564,0 2.26562,0.5694 2.26562,1.26562 0,0.69623 -7.2,8.57942 -16,17.51758 -8.8,8.93817 -16,16.76151 -16,17.38477 0,0.62325 -1.9125,3.00686 -4.25,5.29883 -2.3375,2.29198 -6.5,6.78384 -9.25,9.98047 -2.75,3.19662 -5.69487,6.54038 -6.54492,7.43164 -0.85004,0.89126 -2.05861,2.81691 -2.68555,4.27734 -0.62693,1.46042 -2.45934,3.43314 -4.07031,4.38477 -1.61097,0.95162 -3.65376,2.9058 -4.54102,4.34375 -3.18808,5.1668 -16.16728,17.77859 -19.1582,18.61523 -1.65,0.46155 -12.675,0.97351 -24.5,1.13867 -11.825,0.16516 -38.375,0.58718 -59,0.9375 -20.625,0.35031 -42,0.59512 -47.5,0.54492 -40.99344,-0.37413 -93.6467,-0.27933 -101.73242,0.1836 -5.35335,0.30649 -9.94091,0.22487 -10.19336,-0.1836 -0.25244,-0.40842 -2.39643,-0.60288 -4.76563,-0.43164 -2.3692,0.17123 -15.55859,0.43117 -29.30859,0.57813 -13.75,0.14696 -25.45973,0.56023 -26.02148,0.91797 -0.56174,0.35774 -1.7821,0.22402 -2.7129,-0.29688 -0.93077,-0.52089 -9.47104,-0.91194 -18.97851,-0.86914 C 189.07217,498.16676 41.481229,497.94014 27.261719,497.7207 12.003102,497.48521 11.966937,497.47187 11.300781,492 c -0.167395,-1.375 -0.321087,-6.775 -0.341797,-12 -0.02071,-5.225 -0.103797,-13.55 -0.185546,-18.5 -0.08175,-4.95 -0.132572,-10.35 -0.113282,-12 0.586168,-50.12639 0.576786,-61.30834 -0.05469,-62.33008 -0.9900015,-1.60186 4.774398,-7.00975 8.261719,-7.75 1.448304,-0.30743 3.666308,-0.97634 4.929687,-1.48828 1.263379,-0.51193 3.288379,-0.93355 4.5,-0.93555 1.211621,-0.002 5.314704,-1.56911 9.117187,-3.48437 3.802485,-1.91527 8.527485,-3.75344 10.5,-4.08399 1.972517,-0.33054 8.825996,-2.36117 15.230469,-4.51367 C 69.549004,362.76156 75.935369,361 77.335938,361 c 1.400568,0 2.824143,-0.45 3.164062,-1 0.339919,-0.55 1.662304,-1 2.9375,-1 1.275196,0 2.877811,-0.675 3.5625,-1.5 0.718121,-0.86528 2.898983,-1.5 5.154297,-1.5 2.150321,0 5.582118,-0.74138 7.626953,-1.64844 2.04483,-0.90707 4.16875,-1.71657 4.71875,-1.79687 0.55,-0.0803 3.5939,-0.51492 6.76367,-0.9668 3.16976,-0.45188 6.00841,-1.21937 6.3086,-1.70508 0.30019,-0.48572 1.87549,-0.88281 3.5,-0.88281 1.6245,0 6.20891,-0.93407 10.18945,-2.07617 7.04097,-2.02019 11.1443,-2.72399 28.68945,-4.92188 4.6479,-0.58224 10.40134,-1.72192 12.78516,-2.53125 2.38382,-0.80932 6.23055,-1.48806 8.54883,-1.50976 2.31828,-0.0217 8.26484,-0.93021 13.21484,-2.01953 11.24294,-2.47418 12.40698,-2.66948 21,-3.51368 3.85,-0.37823 7.50571,-1.08666 8.12305,-1.57421 0.61734,-0.48756 7.81734,-1.15891 16,-1.49219 8.18266,-0.33328 15.41702,-1.03837 16.07812,-1.56641 0.33056,-0.26402 0.83321,-0.44061 1.37695,-0.51172 z" />
  </g>
</svg>
