<?xml version="1.0" encoding="UTF-8" standalone="no"?>
<!-- Created with Inkscape (http://www.inkscape.org/) -->

<svg
   version="1.1"
   id="svg1"
   width="727"
   height="512"
   viewBox="0 0 727 512"
   sodipodi:docname="3.svg"
   inkscape:version="1.4 (86a8ad7, 2024-10-11)"
   xmlns:inkscape="http://www.inkscape.org/namespaces/inkscape"
   xmlns:sodipodi="http://sodipodi.sourceforge.net/DTD/sodipodi-0.dtd"
   xmlns="http://www.w3.org/2000/svg"
   xmlns:svg="http://www.w3.org/2000/svg">
  <defs
     id="defs1" />
  <sodipodi:namedview
     id="namedview1"
     pagecolor="#ffffff"
     bordercolor="#000000"
     borderopacity="0.25"
     inkscape:showpageshadow="2"
     inkscape:pageopacity="0.0"
     inkscape:pagecheckerboard="0"
     inkscape:deskcolor="#d1d1d1"
     inkscape:zoom="1.097949"
     inkscape:cx="341.54592"
     inkscape:cy="250.9224"
     inkscape:window-width="1920"
     inkscape:window-height="1013"
     inkscape:window-x="2391"
     inkscape:window-y="605"
     inkscape:window-maximized="1"
     inkscape:current-layer="g1" />
  <g
     inkscape:groupmode="layer"
     inkscape:label="Image"
     id="g1">
    <path
       style="fill:#000000"
       d="m 7.1578947,510 c 0,-1.375 0.2269737,-1.9375 0.504386,-1.25 0.2774123,0.6875 0.2774123,1.8125 0,2.5 -0.2774123,0.6875 -0.504386,0.125 -0.504386,-1.25 z M 308.34469,507.94469 c -0.68583,-0.68583 -14.18378,-0.97063 -39.94031,-0.84272 -21.39741,0.10626 -42.72938,0.13019 -47.40438,0.0532 -4.675,-0.077 -22.9,-0.13107 -40.5,-0.1201 -17.6,0.011 -40.325,-0.0723 -50.5,-0.18508 -10.175,-0.11275 -42.575,-0.0975 -72,0.0339 L 4.5,507.12268 2.6531209,502.5666 C 0.91945027,498.2898 0.79991383,493.55083 0.70300914,425.25526 0.64623123,385.23987 0.70412721,341.25 0.83166687,327.5 0.95920654,313.75 0.98610072,291.925 0.89143172,279 0.71191715,254.49118 1.4448491,210.11696 2.6504993,172.5 3.0383129,160.4 3.3347461,149.6 3.3092397,148.5 3.0022171,135.2592 3.1738444,95.212228 3.5556646,91 4.2270669,83.593112 3.3658033,78.922398 1.4632224,79.652487 0.3455896,80.081362 0,79.362065 0,76.606989 0,74.067443 0.44390623,73 1.5,73 2.5,73 3,72 3,70 3,68 2.5,67 1.5,67 0.34848485,67 0,65.722222 0,61.5 0,57.277778 0.34848485,56 1.5,56 2.325,56 3.0251267,55.4375 3.0558371,54.75 3.2121366,51.250989 3.2596447,43.17678 3.1380275,40.781385 3.0376795,38.804912 2.5905219,38.219901 1.5,38.638374 0.35841162,39.076442 0,38.446026 0,36 0,33.553974 0.35841162,32.923558 1.5,33.361626 2.325,33.678209 3,33.534349 3,33.041939 3,32.549529 2.2125,31.940853 1.25,31.689326 -0.41666667,31.25378 -0.41666667,31.226479 1.25,31.116001 2.8398618,31.010615 3.1322949,30.513048 2.934423,28.25 2.8983556,27.8375 2.2233556,27.632227 1.434423,27.793837 0.64549035,27.955447 0,27.617947 0,27.043837 0,26.469727 0.62251589,26 1.3833686,26 2.1442214,26 3.0380768,24.9875 3.369714,23.75 4.473866,19.62987 4.0856127,18 2,18 0.66666667,18 0,17.333333 0,16 0,14.870672 0.66666667,14 1.5313848,14 2.3736464,14 3.3158273,13.2125 3.62512,12.25 5.3427431,6.9048624 6.3818136,5.0137851 7.8575461,4.5471114 11.373422,3.4352793 124.65532,3.9845643 170,5.333313 c 29.69106,0.8831416 47.51581,0.888348 68,0.019862 21.69345,-0.9197565 20.01834,-0.9156565 40.61731,-0.099414 9.41453,0.373054 17.43062,0.3649811 17.81354,-0.01794 0.38292,-0.3829207 15.63013,-0.8376417 33.88268,-1.0104911 C 348.56609,4.0524803 364.625,3.8599471 366,3.7974783 c 1.375,-0.062469 11.59868,-0.00736 22.71929,0.1224697 11.1206,0.1298273 20.62271,-0.01328 21.11578,-0.3180158 0.49307,-0.3047359 8.49439,-0.5135918 17.78071,-0.4641243 20.95641,0.1116332 23.27173,0.1060709 26.38422,-0.063385 1.375,-0.07486 23.09518,-0.074944 48.26706,-1.849e-4 l 45.76706,0.1359247 8.73294,9.5926263 C 561.57018,18.078733 567.525,24.465588 570,26.9958 c 6.80403,6.955815 13.30837,14.279781 15.13037,17.036986 0.8967,1.356968 4.8342,5.676853 8.75,9.599744 3.9158,3.922892 7.11963,7.609875 7.11963,8.193296 0,0.583421 0.7875,1.65563 1.75,2.382687 0.9625,0.727056 2.2,2.048084 2.75,2.935618 1.42017,2.291723 24.56771,27.835807 33.5,36.968369 9.26526,9.47299 24.65739,26.09127 29.18015,31.50466 1.8566,2.22222 5.16309,5.85217 7.34775,8.06657 2.18465,2.2144 5.7721,6.37563 7.9721,9.24717 2.2,2.87155 4.47509,5.74931 5.05577,6.39504 0.58067,0.64573 3.86583,4.28194 7.30035,8.08046 7.70042,8.51652 11.50955,14.23754 18.03928,27.0936 7.35973,14.49023 10.8302,27.69876 12.1962,46.41852 0.81256,11.13547 0.81569,15.57419 0.0115,16.37836 -0.60671,0.60671 -1.10312,2.77581 -1.10312,4.82021 0,2.04441 -0.9,5.81671 -2,8.38291 -1.1,2.5662 -2,6.44643 -2,8.62274 0,2.17632 -0.85147,5.62651 -1.89215,7.6671 -1.04068,2.04059 -3.11177,7.76016 -4.60241,12.71016 -1.49065,4.95 -4.01418,11.60096 -5.60785,14.77991 -1.59368,3.17895 -2.89759,6.38635 -2.89759,7.12755 0,0.74121 -0.64607,1.88384 -1.43572,2.53919 -0.78965,0.65535 -1.70942,2.43768 -2.04394,3.96073 -0.33452,1.52305 -2.37572,5.42946 -4.53601,8.6809 -2.16028,3.25145 -3.94051,6.44118 -3.95606,7.08829 -0.0156,0.64711 -6.44077,7.75975 -14.27827,15.80586 -7.8375,8.04611 -15.73112,16.29165 -17.54137,18.32343 -9.4032,10.55386 -23.77005,25.74262 -24.67566,26.08731 C 635.83222,404.54051 626,414.78592 626,415.9108 c 0,0.57279 -5.625,6.78602 -12.5,13.80718 -6.875,7.02116 -12.50215,12.99441 -12.50478,13.27388 -0.003,0.27948 -1.46513,2.10694 -3.25,4.06102 -1.78487,1.95408 -4.58051,5.32908 -6.21254,7.5 C 589.90065,456.7238 586.6894,460.3 584.39657,462.5 574.58288,471.91636 551,497.25993 551,498.38995 c 0,0.67811 -0.95316,2.25602 -2.11812,3.50647 -1.9961,2.14255 -2.84587,2.26885 -14.75,2.19228 -29.55833,-0.19014 -133.55276,0.87394 -155.63188,1.59244 -13.2,0.42956 -33.10569,0.66219 -44.23487,0.51697 -16.75897,-0.21869 -20.63422,-0.002 -22.55969,1.25924 -1.60363,1.05074 -2.64617,1.20192 -3.36075,0.48734 z M 100,497.34406 c 19.525,-0.291 35.88931,-0.89926 36.36512,-1.35169 0.48196,-0.45827 0.0473,-2.96402 -0.98133,-5.65749 -1.01555,-2.65919 -1.79182,-5.05988 -1.72505,-5.33488 0.0668,-0.275 -0.72912,-1.69447 -1.76866,-3.15437 C 130.85054,480.38573 130,478.49978 130,477.65465 c 0,-0.84514 -0.39188,-1.77881 -0.87084,-2.07482 -0.47896,-0.29602 -1.1577,-2.01008 -1.50832,-3.80902 -0.89165,-4.57497 -5.47953,-19.66375 -7.07569,-23.27081 -3.33947,-7.54665 -7.60912,-23.8585 -8.50692,-32.5 -0.54285,-5.225 -1.88493,-13.775 -2.9824,-19 -1.09747,-5.225 -2.009,-10.81457 -2.02562,-12.42126 -0.0166,-1.60669 -0.77495,-3.74419 -1.6852,-4.75 -1.79654,-1.98515 -7.800629,-2.51858 -8.87015,-0.78806 -0.353746,0.57237 -1.505303,0.76705 -2.559017,0.43261 C 92.844862,379.13337 92,379.33593 92,379.93261 c 0,0.58707 -1.2375,1.0817 -2.75,1.09919 -1.5125,0.0175 -3.603795,0.67808 -4.647322,1.46797 -1.043527,0.78989 -2.300739,1.18684 -2.793805,0.88211 -0.493065,-0.30473 -1.439271,-0.10932 -2.102678,0.43426 -0.663407,0.54357 -3.231195,1.52035 -5.706195,2.17061 -2.475,0.65027 -7.65,2.68084 -11.5,4.51239 -3.85,1.83154 -8.575,3.6477 -10.5,4.03591 -4.169244,0.84079 -9,3.17981 -9,4.35774 0,1.74689 -17.541101,12.02347 -20.627555,12.0848 -0.620156,0.0123 -1.685075,0.69418 -2.366489,1.51523 -0.681413,0.82106 -2.874013,1.94594 -4.872444,2.49974 -6.8171279,1.88915 -6.3616839,-0.918 -6.7118659,41.36899 -0.2417325,29.19094 -0.027651,38.77135 0.8794203,39.35504 2.1248916,1.36736 25.7751526,2.80672 40.6989336,2.47695 7.975,-0.17622 30.475,-0.55849 50,-0.84948 z m 124.92676,0.37813 c 1.44715,0.90376 10.47053,1.07503 36.25,0.68808 18.87778,-0.28336 37.24824,-0.6762 40.82324,-0.87298 3.575,-0.19678 22.91392,-0.4297 42.97537,-0.51761 20.06145,-0.0879 37.67798,-0.40035 39.14784,-0.69432 2.38493,-0.47699 2.74451,-1.11108 3.34202,-5.8934 0.36826,-2.94739 1.98108,-7.73783 3.58405,-10.64543 1.60297,-2.90759 2.92264,-6.08899 2.9326,-7.06977 0.01,-0.98079 1.08867,-3.90579 2.39712,-6.5 1.30845,-2.59422 2.71409,-6.72446 3.12364,-9.1783 0.40955,-2.45385 1.07868,-5.15385 1.48695,-6 1.47404,-3.05494 3.22063,-8.65496 4.53441,-14.53846 1.83889,-8.23515 3.44489,-14.43656 4.66151,-18 1.46682,-4.29627 4.22011,-23.42771 3.47834,-24.16949 -0.80919,-0.80918 -6.8486,3.22769 -13.16385,8.79898 C 394.83655,408.12578 384.62107,415 382.85978,415 c -0.64405,0 -2.56347,1.05365 -4.26539,2.34145 -2.59656,1.96475 -6.84591,3.73359 -9.79439,4.07702 -0.385,0.0448 -1.2625,0.64403 -1.95,1.33153 -0.6875,0.6875 -1.7225,1.25277 -2.3,1.25616 -0.5775,0.003 -2.4,0.7185 -4.05,1.58913 -2.4796,1.30838 -10.50157,3.52719 -17.5,4.84035 -0.825,0.1548 -2.625,0.73778 -4,1.29551 -1.375,0.55772 -4.075,1.34834 -6,1.75692 -1.925,0.40858 -3.98967,1.13557 -4.58816,1.61553 -0.59849,0.47996 -4.64849,1.3505 -9,1.93453 -4.35151,0.58402 -10.03709,1.52781 -12.63462,2.0973 -2.59752,0.56949 -5.97252,0.78461 -7.5,0.47804 -1.52747,-0.30656 -7.05222,-0.84919 -12.27722,-1.20582 -5.225,-0.35664 -9.78918,-1.10513 -10.14261,-1.6633 -0.43001,-0.67911 -1.71964,-0.63942 -3.89804,0.11998 -2.01909,0.70385 -3.67926,0.78308 -4.37146,0.20861 -0.61382,-0.50942 -4.0347,-1.39814 -7.60196,-1.97494 -15.56998,-2.51751 -19.66323,-3.35079 -22.48593,-4.57755 -1.65,-0.7171 -5.55272,-1.82705 -8.67272,-2.46655 -3.12,-0.63951 -6.2126,-1.81325 -6.87245,-2.60832 C 222.29499,424.65051 220.54622,424 219.06868,424 c -1.47753,0 -3.55993,-0.66069 -4.62755,-1.4682 -1.06762,-0.8075 -2.61613,-1.49777 -3.44113,-1.53393 -0.825,-0.0361 -3.3,-0.93519 -5.5,-1.99787 -2.2,-1.06268 -4.80162,-1.94741 -5.78138,-1.96607 -0.97977,-0.0187 -2.03599,-0.69742 -2.34718,-1.50835 C 196.76242,413.9385 182.50759,405 180.58559,405 c -0.63863,0 -2.71914,-1.33171 -4.62336,-2.95936 C 174.058,400.41299 171.825,399.06131 171,399.0369 c -0.825,-0.0244 -3.075,-1.03865 -5,-2.25388 -6.61217,-4.17417 -7.50525,-4.69953 -9.65286,-5.6784 -1.18407,-0.53969 -2.44813,-1.45901 -2.80902,-2.04294 C 153.17724,388.47776 152.39657,388 151.8033,388 c -1.48202,0 -0.29125,9.5048 2.10248,16.78219 2.13348,6.4862 4.95605,17.25138 5.69428,21.71781 0.8912,5.39188 2.58637,11.87167 5.01451,19.16797 1.31198,3.94239 2.38543,7.82479 2.38543,8.62756 0,0.80277 0.62793,1.98071 1.39539,2.61765 0.76747,0.63694 1.68424,2.69776 2.03728,4.57959 0.58452,3.1158 2.25315,7.50041 6.1493,16.15836 0.77992,1.73312 1.41803,3.47638 1.41803,3.8739 0,0.39753 1.6875,3.30433 3.75,6.45955 2.0625,3.15523 4.22478,6.5485 4.80506,7.5406 0.93113,1.59195 2.4581,1.78777 13,1.66712 6.56972,-0.0752 13.74494,0.21224 15.94494,0.63873 2.43229,0.47152 4.68587,0.36635 5.75,-0.26835 1.24618,-0.74327 2.30471,-0.69735 3.67676,0.15951 z m 312.84339,-3.159 C 538.0799,494.25343 539.55338,494 541.04455,494 c 2.10725,0 4.00417,-1.50365 8.51541,-6.75 6.6644,-7.75037 11.74047,-13.14855 31.06169,-33.03271 9.3462,-9.6185 13.87835,-15.0047 13.87835,-16.49359 0,-1.66357 -1.29923,-2.86723 -5.24817,-4.8621 -2.8865,-1.45817 -6.75752,-3.93605 -8.60227,-5.5064 -1.84476,-1.57036 -4.81371,-3.64652 -6.59767,-4.61369 -1.78397,-0.96718 -3.47793,-2.65468 -3.76436,-3.75 -0.29328,-1.1215 -1.36454,-1.99151 -2.4522,-1.99151 -1.06227,0 -4.49729,-1.66576 -7.63337,-3.70169 C 553.73251,409.09837 549.62451,406.67671 546,404.92629 541.78232,402.8894 537.23193,401 536.54401,401 c -0.35956,0 -2.76655,-0.92457 -5.34887,-2.0546 -9.7013,-4.24531 -13.99374,-5.73032 -22.76554,-7.87593 -3.88872,-0.95119 -7.53466,-2.01637 -8.10209,-2.36706 -2.7562,-1.70342 -38.6939,-3.0787 -41.51663,-1.58878 -1.05734,0.5581 -1.91596,2.66721 -2.29563,5.63897 -1.36368,10.674 -4.56737,27.63597 -9.25718,49.01218 -0.27328,1.24563 -0.89314,2.50968 -1.37747,2.80901 -0.48433,0.29934 -0.90035,2.20519 -0.92449,4.23523 -0.0241,2.03004 -0.65045,5.26598 -1.39179,7.19098 -0.74134,1.925 -2.30643,6.2 -3.47797,9.5 -1.17154,3.3 -2.79524,7.19443 -3.60821,8.65429 -0.81298,1.45986 -1.47814,3.29262 -1.47814,4.07279 0,0.78017 -1.35,4.20541 -3,7.61164 -2.95988,6.11032 -3.53038,8.29757 -2.44685,9.38109 0.72521,0.72521 107.48293,0.0774 108.217,-0.65662 z M 610.09648,422.75 c 1.79549,-2.3375 5.2083,-6.09093 7.58403,-8.34096 2.37572,-2.25003 4.31949,-4.61915 4.31949,-5.2647 0,-0.64556 -1.4625,-2.03489 -3.25,-3.0874 -1.7875,-1.05252 -3.925,-2.55045 -4.75,-3.32874 -0.825,-0.77829 -3.975,-2.70534 -7,-4.28234 -3.025,-1.57699 -7.075,-4.4782 -9,-6.44713 -1.925,-1.96893 -5.86227,-4.65092 -8.74949,-5.96 -2.88723,-1.30907 -5.99447,-3.20332 -6.90499,-4.20943 C 581.435,380.82318 580.07583,380 579.32514,380 c -0.75069,0 -3.22326,-1.2375 -5.4946,-2.75 -5.83791,-3.88749 -5.44985,-3.67587 -14.98287,-8.17055 C 554.08889,366.83575 549.6569,365 548.9988,365 c -0.6581,0 -2.61455,-0.65489 -4.34767,-1.45531 -3.76547,-1.73904 -9.97983,-4.03295 -18.15113,-6.70013 -3.3,-1.07715 -6.78139,-2.38283 -7.73643,-2.90151 C 517.80853,353.42437 515.86645,353 514.44783,353 c -1.41862,0 -3.56223,-0.53704 -4.76357,-1.19341 -1.20134,-0.65638 -4.98974,-1.31179 -8.41865,-1.45646 -3.42891,-0.14468 -7.24769,-0.80535 -8.48616,-1.46816 -1.23847,-0.66281 -4.508,-1.11932 -7.26561,-1.01445 -2.75761,0.10486 -7.15972,-0.2159 -9.78246,-0.7128 -2.71475,-0.51434 -5.00138,-0.52687 -5.30902,-0.0291 -0.29722,0.4809 -1.40526,0.87437 -2.46232,0.87437 -1.27784,0 -2.13228,0.92161 -2.54957,2.75 -0.3452,1.5125 -1.22974,5 -1.96565,7.75 -1.23786,4.62576 -1.80914,9.15143 -1.55078,12.28535 0.0814,0.98734 2.36652,1.1754 9.85596,0.81113 14.24227,-0.69272 30.18904,1.27402 38.34009,4.72852 1.87545,0.79484 6.10991,2.46208 9.40991,3.70497 3.3,1.2429 7.88781,3.09461 10.19514,4.11492 2.30732,1.02031 4.74689,1.85511 5.42126,1.85511 0.67436,0 1.93655,0.60791 2.80486,1.35091 0.86831,0.743 4.27874,2.41653 7.57874,3.71895 3.3,1.30242 7.07319,3.16951 8.38486,4.14909 1.31167,0.97958 2.81041,1.78105 3.33053,1.78105 0.52012,0 3.27194,1.50564 6.11514,3.34588 2.84321,1.84023 6.83879,4.34069 8.87907,5.55659 2.04027,1.21589 5.85703,3.98524 8.48167,6.15412 2.62464,2.16887 5.26438,3.94341 5.86609,3.94341 0.6017,0 2.15089,1.125 3.44264,2.5 1.29175,1.375 2.84969,2.5 3.46209,2.5 0.6124,0 2.67146,1.33171 4.57568,2.95936 5.00947,4.28187 8.07706,3.97422 12.05871,-1.20936 z M 314.5,424.89871 c 4.95,-0.60262 9.45,-1.46149 10,-1.90862 0.55,-0.44712 3.25,-1.22314 6,-1.72449 5.06823,-0.92398 13.5,-5.46973 13.5,-7.27814 0,-0.54311 1.64502,-0.98746 3.65561,-0.98746 2.28559,0 4.8153,-0.87751 6.75,-2.34145 1.70191,-1.2878 4.44439,-2.6642 6.09439,-3.05867 3.64354,-0.87108 11.28894,-4.44936 12.01434,-5.62308 0.28898,-0.46758 1.75397,-1.50374 3.25554,-2.30257 10.6111,-5.64506 9.81786,-5.12985 19.18206,-12.45884 C 398.43239,384.49138 410.88846,378 412.63501,378 c 1.51473,0 2.03332,-1.74904 2.89143,-9.75179 0.36869,-3.43849 1.07607,-6.50255 1.57196,-6.80902 0.49588,-0.30647 0.9016,-2.33067 0.9016,-4.49821 0,-4.70994 -1.3279,-5.02124 -6.76987,-1.58707 -2.05157,1.29465 -4.85513,2.67563 -6.23013,3.06885 -1.375,0.39322 -4.573,1.80194 -7.10667,3.13049 -2.53366,1.32855 -5.45866,2.57375 -6.5,2.7671 -2.07365,0.38504 -17.83855,7.72785 -28.89333,13.45763 -3.85,1.99549 -8.8,4.50944 -11,5.58656 -2.2,1.07711 -4.9,2.7115 -6,3.63196 -7.38477,6.17947 -42.18483,12.55262 -62.5,11.44602 -19.38059,-1.0557 -40.46764,-4.83207 -44,-7.87973 -0.825,-0.71179 -2.85,-1.61467 -4.5,-2.00639 -1.65,-0.39172 -3.675,-1.28507 -4.5,-1.98522 -0.825,-0.70015 -4.2,-2.33138 -7.5,-3.62495 -3.3,-1.29357 -6.71043,-2.93566 -7.57874,-3.64909 C 214.05295,378.58371 212.58435,378 211.65769,378 c -0.92666,0 -2.46622,-0.38915 -3.42126,-0.86478 C 196.49133,371.28593 193.70338,370 192.7669,370 c -0.60318,0 -6.53499,-2.6479 -13.18179,-5.88423 -6.64681,-3.23633 -13.21011,-6.2164 -14.58511,-6.62239 -1.375,-0.40599 -2.95,-1.08112 -3.5,-1.5003 -0.55,-0.41917 -2.5684,-1.09811 -4.48533,-1.50875 -1.91694,-0.41064 -4.47842,-1.39731 -5.69219,-2.1926 -1.21376,-0.79529 -3.24537,-1.29878 -4.51466,-1.11886 -2.50377,0.35491 -2.57288,1.0637 -1.22747,12.58857 0.71239,6.1024 2.16711,7.50087 10.26969,9.87261 2.94252,0.86132 6.1024,2.30851 7.02195,3.21599 C 165.08733,379.0363 183.32403,390 184.74525,390 c 0.61154,0 1.70654,0.58529 2.43332,1.30064 1.17341,1.15494 11.15046,8.12234 16.37369,11.43444 1.07126,0.6793 3.43634,1.90474 5.25575,2.72321 1.8194,0.81847 4.58887,2.40019 6.15437,3.51492 1.5655,1.11473 3.64495,2.02679 4.62099,2.02679 1.88727,0 6.97778,1.51169 11.91663,3.53878 1.65,0.67723 5.25,1.55016 8,1.93986 2.75,0.38969 5.45,1.05944 6,1.48832 0.87511,0.6824 5.85372,1.63839 31.5,6.04858 3.025,0.52019 6.4,1.1273 7.5,1.34913 4.21157,0.84932 21.38728,0.58255 30,-0.46596 z M 14.785188,398.5 c 2.023495,-1.375 4.387195,-2.5 5.252667,-2.5 0.865472,0 3.047878,-1.0877 4.849791,-2.41711 1.801913,-1.32941 5.826839,-3.42662 8.94428,-4.66048 3.117441,-1.23385 6.378507,-2.84616 7.246815,-3.58289 C 41.947048,384.60278 42.945249,384 43.296966,384 c 0.351716,0 4.217097,-1.74829 8.589734,-3.88509 4.372638,-2.13679 11.924436,-5.14068 16.781775,-6.6753 C 73.525814,371.90498 78.175,370.32447 79,369.92735 c 4.591189,-2.21 10.187607,-3.97828 15.5,-4.89748 3.3,-0.571 6.51657,-1.7345 7.14793,-2.58557 1.28943,-1.73813 0.78036,-8.74526 -0.88472,-12.17773 -1.285715,-2.65042 -4.51817,-3.91161 -6.063873,-2.36591 -0.604635,0.60464 -4.496837,1.12202 -8.649337,1.14975 -4.1525,0.0277 -11.375,0.88281 -16.05,1.9002 -4.675,1.01738 -8.786512,1.67465 -9.136693,1.4606 -0.350181,-0.21405 -1.192782,0.28086 -1.872445,1.0998 C 58.311199,354.32995 57.06993,355 56.232487,355 c -0.837443,0 -4.719843,1.52258 -8.627555,3.38351 -3.907713,1.86092 -8.229932,3.72161 -9.604932,4.13484 -2.563303,0.77037 -6.38455,2.58515 -20.700491,9.83104 -7.5253747,3.80891 -8.2473946,4.43875 -8.7702227,7.65061 -0.6942258,4.2648 -0.059209,18.33355 0.8973773,19.88134 0.9432094,1.52614 1.1632524,1.46942 5.3585244,-1.38134 z M 635.9272,394.27216 c 1.69004,-2.05032 3.0728,-4.54828 3.0728,-5.55103 0,-1.12328 1.28748,-2.36113 3.35374,-3.22447 1.84456,-0.7707 4.12194,-2.5737 5.06086,-4.00666 0.93891,-1.43296 5.12002,-6.06692 9.29136,-10.29769 4.17134,-4.23077 8.99754,-9.49231 10.72488,-11.69231 1.72734,-2.2 5.82455,-6.71198 9.10489,-10.02662 C 685.05593,340.86411 691,334.03442 691,332.85406 c 0,-0.55964 1.575,-3.70486 3.5,-6.98937 1.925,-3.28451 3.5,-6.55492 3.5,-7.26756 0,-0.71265 1.51355,-4.17604 3.36344,-7.69643 1.84989,-3.52038 4.58993,-10.2257 6.08897,-14.9007 1.49904,-4.675 3.36049,-9.91801 4.13656,-11.65113 0.77606,-1.73312 1.41103,-4.28476 1.41103,-5.67032 0,-1.38556 1.36187,-6.37765 3.02637,-11.09355 3.00367,-8.51002 3.01917,-8.66256 2.0665,-20.32968 -2.00671,-24.57568 -7.2481,-44.17776 -15.04263,-56.2573 -6.09198,-9.44103 -8.68758,-12.67133 -20.55024,-25.57532 -4.92575,-5.35815 -11.2041,-12.60364 -15.53036,-17.9227 -2.2367,-2.75 -7.75739,-8.86168 -12.26819,-13.5815 -4.5108,-4.71983 -10.90025,-11.58233 -14.19878,-15.25 -3.29853,-3.66768 -6.29346,-6.6685 -6.65539,-6.6685 -0.60455,0 -4.40137,2.8734 -12.48453,9.44818 -1.72548,1.4035 -3.86298,2.55182 -4.75,2.55182 -0.88701,0 -1.61275,0.47045 -1.61275,1.04545 0,1.74045 -10.44767,10.92472 -16.44293,14.45455 -12.18301,7.17299 -24.75315,15.00826 -25.17636,15.69302 -0.27431,0.44384 -1.32075,0.80698 -2.32542,0.80698 -1.00467,0 -3.0591,0.63939 -4.56541,1.42087 -1.5063,0.78148 -3.28564,1.211 -3.95409,0.95449 -0.66845,-0.25651 -1.78988,0.22587 -2.49206,1.07195 -0.70219,0.84609 -3.13679,2.03232 -5.41022,2.63608 -2.27343,0.60376 -7.13394,2.40699 -10.80112,4.00718 -3.66719,1.60019 -7.59413,2.90943 -8.72653,2.90943 -1.70133,0 -15.7728,4.74414 -23.60586,7.95861 -2.09566,0.86 -10.8754,2.87787 -16,3.67731 -1.65,0.25741 -5.46164,1.16101 -8.47031,2.00802 -3.00867,0.84701 -8.40867,1.61113 -12,1.69804 L 468.5,184.5 468.84516,196 c 0.18984,6.325 0.5778,13.3 0.86213,15.5 1.30388,10.08866 1.21111,68.15482 -0.14219,89 -0.78555,12.1 -1.68064,23.50857 -1.98908,25.35239 -0.99446,5.94469 -0.24286,6.31055 13.51673,6.57966 12.80696,0.25048 25.06767,1.7218 27.19337,3.26328 0.66764,0.48414 2.56388,1.00795 4.21388,1.16403 1.65,0.15608 4.81573,1.14487 7.03495,2.19731 2.21922,1.05244 6.47841,2.37692 9.46486,2.94329 2.98645,0.56637 5.87323,1.47308 6.41505,2.0149 0.54183,0.54183 1.60023,0.98514 2.35202,0.98514 0.75178,0 5.72428,2.0583 11.05,4.574 14.25949,6.73572 14.18312,6.69483 14.18312,7.59498 0,0.45706 0.7875,0.83539 1.75,0.84073 0.9625,0.005 3.72583,1.58033 6.14073,3.5 2.4149,1.91966 5.20084,3.49029 6.19098,3.49029 0.99014,0 2.07837,0.45 2.41829,1 0.33992,0.55 1.44234,1 2.44983,1 1.00748,0 4.01842,1.54544 6.69098,3.43431 2.67255,1.88886 7.26929,4.68653 10.21497,6.21703 2.94568,1.53051 7.22807,4.37257 9.51643,6.3157 4.48654,3.80968 6.43039,5.11734 11.20229,7.53598 1.69098,0.85707 4.61598,2.87622 6.5,4.487 4.51936,3.86392 6.17547,3.74325 9.8527,-0.71786 z M 318.63029,381.4635 c 5.42834,-0.91857 10.31971,-2.02486 10.86971,-2.45843 0.55,-0.43357 3.7,-1.33871 7,-2.01143 5.48333,-1.11779 12.73007,-4.44614 16.5,-7.57826 C 358.45515,364.88314 393.91814,347 397.45059,347 c 0.76051,0 1.53274,-0.40664 1.71608,-0.90364 0.3355,-0.90952 17.16057,-9.09636 18.69426,-9.09636 1.66403,0 4.08934,-11.59545 4.67141,-22.33419 0.15401,-2.8412 0.73545,-12.59081 1.2921,-21.66581 3.01111,-49.08965 3.31867,-62.54783 1.88534,-82.5 -2.31113,-32.1713 -2.84056,-34.77961 -7.4397,-36.65282 -1.52354,-0.62053 -4.18809,-1.74 -5.92121,-2.48771 -1.73312,-0.74771 -3.75812,-1.37899 -4.5,-1.40284 -1.51588,-0.0487 -5.33176,-2.29197 -15.57154,-9.15398 -3.85527,-2.58354 -8.23569,-5.00508 -9.73428,-5.3812 -1.49859,-0.37612 -4.59633,-1.7347 -6.88388,-3.01906 -2.28754,-1.28436 -5.56674,-2.9794 -7.28709,-3.76676 -1.72036,-0.78736 -3.41035,-1.88854 -3.75555,-2.44707 -0.58788,-0.95121 -4.36133,-2.92296 -12.61653,-6.59254 -3.83734,-1.70576 -7.21221,-3.71659 -8.01571,-4.77595 -0.28364,-0.37396 -3.62073,-1.22064 -7.41575,-1.88152 -3.79502,-0.66087 -8.34771,-2.05574 -10.11709,-3.0997 -5.97676,-3.52637 -20.02741,-5.03125 -36.38584,-3.89706 -8.01109,0.55544 -16.75543,1.68998 -19.43188,2.52121 -2.67644,0.83123 -5.28366,1.25336 -5.7938,0.93807 -0.51015,-0.31529 -1.47033,-0.16557 -2.13373,0.33271 -0.66341,0.49828 -3.2312,1.52951 -5.7062,2.29162 -8.08289,2.48891 -14.45271,5.67502 -19.01691,9.51206 -2.4657,2.07287 -6.84559,4.85792 -9.73309,6.189 -2.8875,1.33109 -5.25,2.74014 -5.25,3.13124 0,0.3911 -1.35023,1.50869 -3.00051,2.48353 -1.65028,0.97485 -4.46278,3.11496 -6.25,4.75581 C 209.85145,161.67583 202.70824,166 200.69437,166 c -0.79721,0 -1.98134,0.64085 -2.63138,1.42411 -1.41222,1.70162 -16.42518,9.19727 -20.27197,10.12136 -1.48994,0.35791 -3.25412,1.3076 -3.9204,2.11042 -0.66627,0.80281 -2.59723,2.1207 -4.29101,2.92864 -1.69379,0.80794 -4.20461,2.1253 -5.57961,2.92748 -1.375,0.80218 -4.90699,1.46514 -7.84887,1.47325 -6.35374,0.0175 -11.72578,2.30185 -12.53834,5.33164 -0.32201,1.2007 -0.59163,4.01295 -0.59914,6.24944 -0.008,2.23649 -0.45476,6.51149 -0.99389,9.5 -0.53913,2.98851 -1.21809,9.70866 -1.5088,14.93366 -0.29071,5.225 -0.69756,11.75 -0.9041,14.5 -0.5397,7.18578 -0.72894,58.49346 -0.21879,59.3189 0.23545,0.38096 0.72231,8.34006 1.08191,17.68688 0.35959,9.34682 0.86323,17.72483 1.11918,18.6178 0.47335,1.65143 5.08624,2.84459 11.07793,2.86541 1.74191,0.006 5.34191,0.98465 8,2.17465 2.6581,1.18999 5.21778,2.07421 5.68817,1.96491 0.47039,-0.1093 1.37039,0.20502 2,0.69848 0.62961,0.49346 2.49474,1.21424 4.14474,1.60175 2.43264,0.5713 18.88797,8.39654 28,13.31524 2.72031,1.46843 15.87511,7.57514 21.96346,10.19586 2.72991,1.17508 5.65491,2.73255 6.5,3.46105 0.8451,0.7285 2.99712,1.59968 4.78226,1.93595 1.78515,0.33628 4.45786,1.41054 5.93936,2.38726 2.65715,1.75181 6.83478,3.03447 19.03901,5.84557 15.26838,3.51688 44.79778,4.45038 59.9062,1.89379 z M 18.954015,355.61297 c 4.099708,-2.53713 7.924708,-4.61505 8.5,-4.6176 1.15264,-0.005 9.533798,-3.43332 16.545985,-6.76795 16.439584,-7.81781 19.729351,-8.94856 29.794615,-10.24095 5.662039,-0.72701 10.526096,-1.69637 10.809017,-2.15415 C 84.886553,331.37454 87.989919,331 91.5,331 c 3.510081,0 6.56384,-0.3375 6.78613,-0.75 0.22229,-0.4125 -0.197881,-7.275 -0.933715,-15.25 -1.793318,-19.43606 -2.965241,-91.95321 -1.564937,-96.83636 1.092333,-3.8092 3.045708,-17.52571 3.892518,-27.33309 0.561544,-6.50358 -0.220563,-7.34018 -7.804752,-8.34861 C 89.46886,182.16198 85.925,181.49966 84,181.01013 c -1.925,-0.48953 -6.425,-1.43493 -10,-2.10088 -3.575,-0.66596 -7.64055,-1.77939 -9.034555,-2.47431 -1.394005,-0.69491 -4.319005,-1.58573 -6.5,-1.9796 C 56.28445,174.06147 54.05,173.39877 53.5,172.98267 c -0.55,-0.4161 -3.025,-1.08616 -5.5,-1.48904 -6.982757,-1.13663 -14.188022,-4.15911 -17.817466,-7.47409 -1.818284,-1.66075 -4.065697,-3.02122 -4.994252,-3.02328 -0.928555,-0.002 -3.136946,-0.88703 -4.907536,-1.9666 -3.19832,-1.9501 -9.62834,-3.0154 -10.8467063,-1.79703 -1.3999014,1.3999 -2.0962542,13.69907 -1.1724768,20.70861 0.6722173,5.10072 0.6505849,7.96979 -0.068776,9.12167 -0.6921282,1.10827 -0.712577,2.0173 -0.060058,2.66982 0.6107684,0.61077 0.9114494,10.51392 0.7857217,25.87833 -0.4108353,50.20565 -0.4769104,143.91229 -0.102037,144.70711 0.5190822,1.10058 1.4672748,0.66049 10.1376018,-4.7052 z M 155.17266,171.99807 c 4.43514,-0.81545 11.55965,-3.24211 26.32734,-8.9673 5.96072,-2.31087 13.33432,-6.12622 14.45927,-7.4817 0.70709,-0.85199 1.92516,-1.54907 2.70682,-1.54907 0.78166,0 2.63446,-1.125 4.11734,-2.5 1.48287,-1.375 3.03363,-2.5 3.44612,-2.5 0.69332,0 9.99822,-6.01712 17.42618,-11.26883 1.73566,-1.22715 5.33566,-3.47323 8,-4.9913 2.66435,-1.51808 6.64427,-3.86106 8.84427,-5.20663 2.2,-1.34557 4.71776,-2.46601 5.59501,-2.48987 0.87726,-0.0238 2.4095,-0.94337 3.40499,-2.04337 0.99549,-1.1 2.75273,-2.00168 3.90499,-2.00374 1.15225,-0.002 3.67001,-0.9865 5.59501,-2.18765 3.57527,-2.23087 8.00147,-3.15152 23,-4.784 4.675,-0.50884 10.18533,-1.22152 12.24517,-1.58373 2.05984,-0.36221 4.53484,-0.32317 5.5,0.0867 0.96516,0.40993 5.65022,0.73023 10.41126,0.71179 11.37306,-0.044 31.29771,5.02959 44.34357,11.2917 9.7106,4.66117 16.22125,7.46888 17.31918,7.46888 1.29006,0 10.03514,4.95527 10.7304,6.08022 0.31265,0.50588 1.33606,0.91978 2.27425,0.91978 0.93818,0 3.38499,0.9 5.43735,2 2.05237,1.1 4.3531,2 5.11275,2 0.75965,0 1.94138,0.675 2.62607,1.5 0.68469,0.825 2.02004,1.5 2.96746,1.5 0.94741,0 2.53542,0.89819 3.52891,1.99599 1.90684,2.10703 11.78221,7.00401 14.12447,7.00401 0.75854,0 1.35584,-0.7875 1.32734,-1.75 -0.11883,-4.013 -4.65407,-19.26753 -6.25388,-21.03531 -0.95235,-1.05233 -4.98567,-3.12319 -8.96292,-4.60191 -7.67125,-2.85211 -16.63359,-6.99847 -20.67073,-9.56314 -1.34165,-0.8523 -4.49165,-2.0774 -7,-2.72244 -8.96598,-2.30564 -16.30173,-5.33252 -20.89467,-8.62154 -2.56629,-1.83773 -6.69098,-3.92232 -9.16598,-4.63243 -2.475,-0.7101 -6.975,-2.126417 -10,-3.147368 -3.025,-1.020951 -7.29625,-2.167414 -9.49166,-2.547695 -2.19541,-0.380281 -5.89135,-1.701494 -8.21319,-2.936029 -3.4674,-1.843635 -7.05455,-2.455677 -20.08047,-3.426144 -14.00584,-1.043473 -16.96058,-0.981956 -25.28681,0.526466 -5.18533,0.9394 -9.91266,2.092249 -10.50517,2.561887 -0.59252,0.469639 -4.26979,1.306664 -8.17172,1.860057 -8.07355,1.145036 -16.00639,3.585895 -18.32972,5.639876 -0.86831,0.76765 -2.06653,1.39572 -2.66272,1.39572 -1.20833,0 -10.38763,5.81598 -14.25854,9.03417 -1.375,1.14315 -5.425,3.91048 -9,6.14962 -3.575,2.23915 -7.71928,4.91381 -9.20951,5.94369 -1.49023,1.02989 -3.3682,1.87252 -4.17327,1.87252 -0.80507,0 -2.7358,1.02259 -4.29049,2.27243 -8.10176,6.51307 -25.45455,16.65926 -33.82673,19.77851 -3.11937,1.16219 -9.95213,4.17544 -10.43521,4.60193 -0.23937,0.21132 -0.93335,4.64894 -1.54217,9.86136 -1.0469,8.96298 -0.52764,13.22494 1.4615,11.99559 0.47366,-0.29274 3.2585,-0.97303 6.18854,-1.51175 z M 495,165.75267 c 1.925,-0.85021 6.11484,-1.80739 9.31075,-2.12707 3.19591,-0.31967 7.69591,-1.0933 10,-1.71917 2.30409,-0.62587 4.63925,-1.21999 5.18925,-1.32028 0.55,-0.10028 1.9,-0.6615 3,-1.24714 1.1,-0.58565 4.00267,-1.37124 6.45039,-1.74577 2.44771,-0.37453 5.00011,-1.13719 5.67199,-1.69481 C 536.19687,154.59172 546.00637,151 548.00069,151 c 0.84091,0 3.20976,-0.90087 5.26412,-2.00194 2.05435,-1.10107 3.73519,-1.68607 3.73519,-1.3 0,0.38607 0.54,0.16194 1.2,-0.49806 0.66,-0.66 2.04214,-1.2 3.07143,-1.2 1.02928,0 2.53454,-0.66311 3.345,-1.47357 0.81047,-0.81047 3.24209,-1.94979 5.40361,-2.53183 5.63776,-1.51809 18.71639,-8.65446 23.97955,-13.08447 2.47523,-2.08339 6.43607,-5.0854 8.80187,-6.67112 C 611.81763,116.19578 625,103.62416 625,101.06897 c 0,-0.94668 -1.5902,-3.036977 -3.53377,-4.645103 -1.94358,-1.608127 -4.40748,-4.393287 -5.47535,-6.189245 -2.67732,-4.502758 -6.39523,-5.830276 -9.00881,-3.216689 C 605.89193,88.10807 605,89.45 605,90 c 0,0.55 -0.675,1 -1.5,1 -0.825,0 -1.5,0.590809 -1.5,1.312909 0,2.0668 -5.07184,6.374414 -10,8.493201 -2.475,1.06409 -5.34358,2.87793 -6.37462,4.03075 -1.03105,1.15282 -5.1802,3.70752 -9.22035,5.6771 -4.04015,1.96959 -7.57982,3.95983 -7.86593,4.42277 -0.28611,0.46294 -1.72361,1.14375 -3.19443,1.5129 -1.47083,0.36915 -3.83758,1.5704 -5.25945,2.66944 -7.84128,6.06096 -14.89604,9.60829 -20.10358,10.10867 -4.03464,0.38768 -5.75886,1.05718 -6.81356,2.64564 -0.77661,1.16964 -1.93699,2.12662 -2.57861,2.12662 -0.64162,0 -2.89491,0.88115 -5.00731,1.95811 -2.11241,1.07697 -5.92005,2.268 -8.46145,2.64675 -2.54139,0.37875 -5.58069,1.31494 -6.75399,2.08042 -3.90546,2.54798 -19.07276,3.72381 -33.0676,2.56353 -15.3322,-1.27116 -15.81744,-1.06859 -14.90152,6.22092 0.79272,6.309 2.8826,15.6793 3.81953,17.12546 1.12729,1.73997 24.48367,1.05629 28.78287,-0.84252 z m -394.3736,0.64937 c 1.77192,-0.47553 2.32536,-1.80397 3.31985,-7.96882 0.6564,-4.06898 0.91046,-7.85604 0.56459,-8.41569 -0.34588,-0.55964 -2.28982,-1.02334 -4.31986,-1.03043 -2.030038,-0.007 -6.612444,-0.92853 -10.183123,-2.04764 -3.570678,-1.1191 -7.461262,-1.79149 -8.645741,-1.49421 -1.304895,0.32751 -2.35817,0.007 -2.672701,-0.81224 -0.285506,-0.74401 -2.728247,-1.64581 -5.428313,-2.00399 -2.700066,-0.35817 -5.775886,-1.30692 -6.835156,-2.10832 C 65.366676,139.7193 63.825,139.04652 63,139.02564 c -0.825,-0.0209 -2.707188,-0.66778 -4.18264,-1.43755 -1.475452,-0.76977 -4.175452,-1.71117 -6,-2.092 -1.824548,-0.38083 -4.22396,-1.26423 -5.332027,-1.96311 -1.108067,-0.69888 -3.560743,-1.61027 -5.450392,-2.02531 -1.889648,-0.41503 -4.62274,-1.93655 -6.073537,-3.38114 -1.579827,-1.57307 -4.78369,-3.12621 -7.988005,-3.87235 -2.942607,-0.6852 -5.602915,-1.64116 -5.911796,-2.12436 -0.308882,-0.48321 -2.015812,-1.19402 -3.79318,-1.5796 -2.114152,-0.45863 -3.674835,-1.62587 -4.513474,-3.37563 C 13.049905,115.70357 11.825173,114.5 11.033323,114.5 c -1.1381842,0 -1.5168331,2.19917 -1.8078719,10.5 -0.2034925,5.80389 0.094285,11.71505 0.6657999,13.21672 0.709963,1.86546 2.916799,3.66719 7.04283,5.75 3.304887,1.66831 6.584218,3.03739 7.287402,3.04242 0.703184,0.005 3.528517,1.11596 6.278517,2.46873 2.75,1.35277 5.675,2.47643 6.5,2.49702 0.825,0.0206 2.671325,0.64864 4.102945,1.39567 1.43162,0.74704 4.80662,1.68638 7.5,2.08743 2.69338,0.40105 5.347055,1.06825 5.897055,1.48266 3.152439,2.37529 28.302572,8.41611 39,9.36743 2.2,0.19564 4.225,0.42522 4.5,0.51016 0.275,0.0849 1.456881,-0.10234 2.6264,-0.4162 z M 158.5,131.98897 c 1.65,-0.79577 3.35986,-2.01883 3.79969,-2.71791 0.43983,-0.69908 1.25882,-1.27106 1.81997,-1.27106 0.56115,0 4.25129,-1.95673 8.20031,-4.34828 3.94902,-2.39155 8.83153,-4.88957 10.85004,-5.55115 2.0185,-0.66158 4.20873,-1.852 4.86717,-2.64537 0.65844,-0.79338 3.66898,-2.90786 6.69008,-4.69885 8.5676,-5.07911 11.46461,-6.89636 19.38953,-12.162802 4.06076,-2.698549 10.44144,-6.373154 14.17928,-8.165789 3.73784,-1.792635 7.33784,-3.663241 8,-4.156904 2.89274,-2.156631 15.82534,-6.253085 22.70393,-7.191564 4.125,-0.562794 10.2,-1.741747 13.5,-2.619895 9.40943,-2.503903 21.56355,-2.832275 33.5,-0.90508 5.775,0.9324 12.975,2.045021 16,2.472491 5.51989,0.780028 12.66074,2.888919 18.78393,5.547414 C 342.59009,84.3584 344.91528,85 345.95102,85 c 2.20836,0 8.9427,2.754038 18.04898,7.381202 5.76745,2.930608 10.44706,4.684096 13.5,5.058554 0.55,0.06746 2.74246,0.896112 4.87212,1.841449 2.12967,0.945335 4.03899,1.718795 4.24293,1.718795 0.20394,0 5.14676,2.29222 10.98406,5.09382 11.53786,5.53757 13.4839,5.50286 11.0697,-0.19744 -0.79114,-1.86801 -1.96004,-5.42138 -2.59756,-7.89638 -0.63752,-2.475 -2.43394,-9.515818 -3.99206,-15.646263 -1.55811,-6.130445 -3.19926,-11.738991 -3.64699,-12.463434 -0.81601,-1.320335 -2.21595,-7.771254 -2.90587,-13.390303 -0.2026,-1.65 -1.05915,-4.8 -1.90345,-7 -0.8443,-2.2 -1.55485,-5.018606 -1.57899,-6.263569 -0.0241,-1.244963 -0.45493,-3.044963 -0.95732,-4 -1.8138,-3.448044 -7.08692,-18.882138 -7.10188,-20.786767 -0.0309,-3.938424 -1.54954,-4.719672 -10.63751,-5.472469 -4.87081,-0.403472 -11.32904,-0.537154 -14.3516,-0.297072 -10.10767,0.802852 -58.9626,1.509897 -115.09028,1.665627 -44.20972,0.122662 -55.91855,0.422758 -57.17616,1.46542 -0.86981,0.721143 -2.37206,3.871143 -3.33833,7 -0.96627,3.128856 -2.36396,6.644412 -3.10597,7.812347 -0.74201,1.167934 -1.6215,4.542934 -1.95441,7.5 -0.33292,2.957065 -0.98302,5.860016 -1.44467,6.451 -0.46166,0.590984 -0.97295,3.122137 -1.1362,5.624784 -0.16326,2.502647 -0.82045,5.181193 -1.46043,5.952324 C 172.46197,58.353208 168,72.890049 168,76.641213 c 0,1.862259 -0.41404,4.167319 -0.92009,5.122356 -1.72007,3.246203 -4.86953,12.711008 -7.06651,21.236431 -1.20474,4.675 -2.8067,10.3 -3.55991,12.5 -0.75321,2.2 -1.57531,5.8 -1.82689,8 -0.25157,2.2 -0.54876,4.45 -0.66042,5 -0.43969,2.16572 0.075,5.64661 0.78382,5.30125 0.4125,-0.20099 2.1,-1.01651 3.75,-1.81228 z M 109.39566,130.75 c 0.23857,-1.2375 0.8916,-4.725 1.45117,-7.75 1.19056,-6.43604 5.48122,-24.736307 7.15101,-30.5 0.63735,-2.2 1.7376,-6.7 2.445,-10 0.70739,-3.3 2.66356,-10.275 4.34704,-15.5 1.68347,-5.225 3.37666,-11.06023 3.76265,-12.967177 0.38598,-1.906947 1.03424,-4.156947 1.44058,-5 0.73667,-1.528392 1.83164,-4.506609 4.79167,-13.032823 1.42657,-4.109189 4.2515,-10.863039 6.37292,-15.236431 0.46327,-0.955037 0.8423,-2.612213 0.8423,-3.682612 0,-3.695933 -3.48541,-4.016478 -50.5,-4.644364 -22.55,-0.301159 -41.9,-0.546804 -43,-0.54588 -24.604663,0.02068 -36.573231,0.41876 -37.076565,1.233171 -0.897214,1.451724 -2.6260915,81.406426 -1.8186491,84.106356 0.2845955,0.951632 2.6069341,2.65452 5.1607531,3.7842 2.553819,1.12967 6.927851,3.7788 9.720071,5.88694 C 30.223714,111.2337 39.725492,116 42.623985,116 c 1.062051,0 2.874084,0.66056 4.026739,1.46791 1.152655,0.80735 4.065283,1.77572 6.472507,2.15194 2.407223,0.37622 5.945105,1.51566 7.86196,2.53209 1.916855,1.01643 4.242887,1.84806 5.16896,1.84806 0.926074,0 2.957738,0.652 4.514809,1.44889 3.678142,1.88242 6.354227,2.83494 8.83104,3.14333 1.1,0.13695 5.825,1.12271 10.5,2.19057 4.675,1.06785 10.85393,2.00357 13.73095,2.07938 4.68198,0.12337 5.27647,-0.0983 5.66471,-2.11217 z m 407.47672,-6.31628 c 8.13455,-2.56788 13.7063,-4.69323 17.12762,-6.53336 4.99316,-2.68552 24.83756,-12.14489 34.11224,-16.26052 1.98673,-0.88161 4.17933,-2.286236 4.87244,-3.121386 C 573.6778,97.683304 574.69342,97 575.24163,97 c 1.26771,0 12.61156,-6.80137 15.25837,-9.148376 1.1,-0.975403 4.1375,-3.644631 6.75,-5.931616 6.48148,-5.673897 6.28018,-7.26746 -2,-15.832173 -9.17259,-9.487798 -22.56955,-24.772609 -23.55366,-26.872765 -0.44202,-0.943289 -2.57952,-2.981754 -4.75,-4.529924 C 564.77585,33.136976 563,31.265037 563,30.525281 c 0,-0.739755 -2.09446,-3.298071 -4.65436,-5.685145 -5.50178,-5.13035 -7.22589,-6.920767 -9.65527,-10.026613 -1.61913,-2.069985 -2.49205,-2.278026 -8.29245,-1.976316 -3.71229,0.193095 -7.04237,-0.127162 -7.79209,-0.749374 -1.21258,-1.006357 -52.61054,-0.68438 -70.10583,0.43917 -3.3,0.211927 -12.4125,0.405048 -20.25,0.429159 -13.36751,0.04112 -14.25,0.162678 -14.25,1.962798 0,1.055429 0.61997,3.192929 1.37772,4.75 2.89908,5.957243 4.49845,10.082142 6.71987,17.33104 1.26411,4.125 2.88151,8.625 3.59423,10 0.71272,1.375 1.29863,3.309847 1.30202,4.29966 0.003,0.989813 0.61858,3.014813 1.36708,4.5 0.74851,1.485187 1.66825,4.703013 2.04386,7.150726 0.37562,2.447712 1.13096,4.990218 1.67854,5.650013 0.54759,0.659795 1.44436,3.986108 1.99283,7.391805 0.54847,3.405698 1.64916,8.063192 2.44598,10.349987 0.79682,2.286795 1.45531,5.717764 1.46332,7.624376 0.008,1.906612 0.64906,5.281612 1.42457,7.500003 0.77551,2.21839 2.18066,7.96034 3.12255,12.75989 0.94189,4.79956 2.21988,9.36494 2.83998,10.1453 0.76315,0.96038 4.35349,1.63601 11.11154,2.09096 5.49125,0.36967 10.21625,0.92107 10.5,1.22533 0.28375,0.30425 6.53348,0.30929 13.88829,0.0112 10.7343,-0.43508 15.07441,-1.07929 22,-3.26553 z"
       id="path1" />
  </g>
</svg>
