<?xml version="1.0" encoding="UTF-8" standalone="no"?>
<!-- Created with Inkscape (http://www.inkscape.org/) -->

<svg
   version="1.1"
   id="svg1"
   width="725"
   height="499"
   viewBox="0 0 725 499"
   sodipodi:docname="6.svg"
   inkscape:version="1.4 (86a8ad7, 2024-10-11)"
   xmlns:inkscape="http://www.inkscape.org/namespaces/inkscape"
   xmlns:sodipodi="http://sodipodi.sourceforge.net/DTD/sodipodi-0.dtd"
   xmlns="http://www.w3.org/2000/svg"
   xmlns:svg="http://www.w3.org/2000/svg">
  <defs
     id="defs1" />
  <sodipodi:namedview
     id="namedview1"
     pagecolor="#ffffff"
     bordercolor="#000000"
     borderopacity="0.25"
     inkscape:showpageshadow="2"
     inkscape:pageopacity="0.0"
     inkscape:pagecheckerboard="0"
     inkscape:deskcolor="#d1d1d1"
     inkscape:zoom="1.1265529"
     inkscape:cx="371.93105"
     inkscape:cy="239.22534"
     inkscape:window-width="1920"
     inkscape:window-height="1013"
     inkscape:window-x="2391"
     inkscape:window-y="605"
     inkscape:window-maximized="1"
     inkscape:current-layer="g1" />
  <g
     inkscape:groupmode="layer"
     inkscape:label="Image"
     id="g1">
    <path
       style="fill:#000000"
       d="M 60.622887,496.28955 C 60.345694,496.01236 52.329647,495.8233 42.80945,495.86941 25.670288,495.95243 3.1434706,494.47087 1.8076638,493.17279 1.4268788,492.80275 1.1458933,490.025 1.1832515,487 1.2206097,483.975 1.3359335,412.875 1.4395267,329 1.5431198,245.125 1.7665735,169.975 1.9360903,162 2.2112389,149.05551 2.294608,136.32589 2.1816861,124.5 2.160679,122.3 2.1039579,95.897584 2.0556393,65.827965 1.9875846,23.476182 1.6897314,11.042842 0.73389365,10.654096 -0.15766238,10.291493 -0.19058814,9.9230561 0.61521875,9.326131 1.2285891,8.8717589 2.0594518,7.4464199 2.4615805,6.1587109 3.5941697,2.5318978 9.1646392,0.67920183 16.436429,1.5107821 19.771393,1.8921587 30.15,2.4134 39.5,2.6690962 59.440623,3.214416 56.773096,3.1859965 79.362376,3.0937857 89.186683,3.0536822 97.643895,3.279915 98.156181,3.5965251 98.668467,3.9131352 99.65542,3.700939 100.34941,3.1249779 101.44243,2.2178495 136.31496,1.4349866 141,2.2124017 c 0.825,0.1368969 4.52473,-0.11434 8.22162,-0.5583041 3.6969,-0.4439642 7.21458,-0.5025459 7.81708,-0.1301815 0.6025,0.3723644 4.77777,0.5895032 9.27837,0.4825306 4.50061,-0.1069725 15.34009,-0.3744698 24.08774,-0.5944384 8.74764,-0.2199686 16.39764,-0.011192 17,0.463949 0.60235,0.4751406 3.79519,0.6141031 7.09519,0.3088055 3.3,-0.3052975 11.85,-0.4805811 19,-0.3895191 16.27013,0.2072154 107.23873,0.472702 111,0.3239471 2.20597,-0.087244 158.45139,-1.29618787 164.5,-1.2728132 3.575,0.0138155 8.075,0.2332687 10,0.4876739 1.925,0.2544051 7.47397,0.089943 12.33105,-0.36547092 7.64043,-0.71639005 9.42681,-0.57264879 13.25,1.06615942 C 547.01147,3.0765419 549,4.5806534 549,5.3772101 c 0,0.7965566 2.5875,4.0837269 5.75,7.3048229 3.1625,3.221096 7.30534,7.872859 9.2063,10.337252 1.90097,2.464393 6.89207,8.080715 11.09133,12.480715 4.19926,4.4 11.61501,12.5 16.47943,18 4.86442,5.5 9.84815,11.125 11.07496,12.5 1.22681,1.375 4.82662,5.425 7.99959,9 3.17296,3.575 6.69813,7.425623 7.83371,8.556939 1.13557,1.131316 5.74964,6.531316 10.25347,12 4.50384,5.468681 10.68422,12.643061 13.73419,15.943061 3.04997,3.3 5.55251,6.30288 5.56121,6.67308 0.009,0.37019 1.25331,2.01469 2.76581,3.65445 9.6476,10.45931 11.52749,12.68738 12.49347,14.80748 0.59266,1.30074 1.61369,2.36499 2.26896,2.36499 1.4168,0 23.92717,24.22636 27.70207,29.81384 0.85977,1.2726 4.00301,4.8726 6.98498,8 8.78383,9.2122 15.48237,20.40661 19.55882,32.68616 2.80543,8.45084 5.55228,26.22987 4.95567,32.07561 -0.65309,6.39914 -3.23105,16.13758 -4.75945,17.97919 -0.66044,0.79578 -1.78417,4.48399 -2.49718,8.19603 -2.0035,10.43049 -3.97566,17.37379 -6.1776,21.74917 -5.68941,11.3052 -17.33837,33.60763 -19.84809,38 -4.54515,7.95468 -13.12872,18.56246 -19.35305,23.91698 -4.99678,4.2985 -16.9594,17.83569 -19.42349,21.98007 C 650.54589,376.9446 641.99012,386 640.74754,386 c -1.38355,0 -8.59277,8.06018 -11.22199,12.54661 -1.35989,2.32049 -3.10914,4.46336 -3.88721,4.76193 -0.77807,0.29857 -4.54855,4.29493 -8.37885,8.88078 -3.8303,4.58586 -9.39312,10.82408 -12.36183,13.86272 -2.96871,3.03865 -7.85015,8.43252 -10.84764,11.98638 -5.61435,6.65646 -6.6991,7.82467 -22.32188,24.03935 -5.07548,5.26778 -10.75525,11.34278 -12.62173,13.5 -1.86647,2.15723 -6.49921,7.22741 -10.29497,11.26708 l -6.90139,7.34485 -18.70503,0.34604 c -10.28776,0.19032 -42.10502,0.61824 -70.70502,0.95093 -28.6,0.33269 -52.96341,0.84575 -54.14091,1.14014 -1.17749,0.29438 -2.37819,0.15131 -2.6682,-0.31794 -0.29039,-0.46987 -5.61238,-0.44787 -11.84553,0.049 -6.83456,0.54477 -12.31398,0.53859 -13.8318,-0.0156 -1.38246,-0.50477 -3.86356,-0.61651 -5.51356,-0.2483 -4.75566,1.06123 -13.32236,1.00252 -14.00126,-0.096 -0.59051,-0.95546 -3.72863,-0.75891 -9.75449,0.61093 -1.51566,0.34455 -3.31566,0.16883 -4,-0.3905 -0.78416,-0.64092 -6.79082,-0.82939 -16.24425,-0.50969 -8.25,0.27901 -22.425,0.44192 -31.5,0.36203 -55.12833,-0.48533 -63.62472,-0.67117 -64.7938,-1.41724 -0.72996,-0.46584 -1.85822,-0.35725 -2.5889,0.24916 -0.76769,0.63713 -5.7384,1.03249 -12.20619,0.97086 -12.90881,-0.12301 -70.80725,-0.11016 -74.41111,0.0165 -13.07286,0.4595 -73.989921,0.78673 -74.377113,0.39953 z M 207.5,489.01823 c 0.55,-0.40649 4.15,-0.39121 8,0.034 15.58291,1.72088 132.17643,0.56381 157,-1.55806 13.51276,-1.15504 14.38216,-1.42872 15.39869,-4.8474 0.51463,-1.7307 2.28108,-6.97173 3.92546,-11.64673 1.64439,-4.675 3.30861,-10.075 3.69828,-12 0.38968,-1.925 1.27128,-4.625 1.95913,-6 0.68784,-1.375 1.9395,-5.2 2.78147,-8.5 0.84196,-3.3 2.29445,-8.475 3.22776,-11.5 0.93331,-3.025 2.55105,-9.55 3.59498,-14.5 1.04392,-4.95 2.34235,-11.025 2.8854,-13.5 0.54304,-2.475 1.24693,-6.975 1.56419,-10 0.31726,-3.025 1.19077,-7.75 1.94112,-10.5 0.75035,-2.75 1.63055,-10.02057 1.95599,-16.15681 0.32544,-6.13625 1.21619,-12.66125 1.97945,-14.5 0.76325,-1.83876 1.54531,-6.02898 1.73791,-9.31161 0.32492,-5.53814 0.16994,-6.05597 -2.14983,-7.18288 -1.375,-0.66795 -5.0025,-1.45117 -8.06111,-1.74048 -3.05861,-0.28931 -6.20861,-0.74754 -7,-1.01827 -0.79139,-0.27074 -3.68889,-0.72775 -6.43889,-1.01558 -2.75,-0.28784 -7.7,-1.00374 -11,-1.59091 -3.3,-0.58717 -8.7,-1.524 -12,-2.08184 -3.3,-0.55784 -6.14974,-1.43814 -6.33276,-1.95622 -0.18302,-0.51808 -1.38052,-0.67899 -2.66112,-0.35758 -2.0102,0.50453 -32.4528,-2.33431 -33.32356,-3.1075 -0.17459,-0.15502 -1.87733,0.14884 -3.78385,0.67526 -2.56443,0.70807 -4.1977,0.59231 -6.27679,-0.44487 -1.5457,-0.7711 -5.46796,-1.49441 -8.71614,-1.60736 -5.40495,-0.18795 -14.33751,-1.29973 -21.90578,-2.72649 -4.78593,-0.90223 -36.75299,-0.95065 -51.5,-0.078 -7.425,0.43937 -16.425,0.95404 -20,1.14372 -6.06084,0.32156 -17.6842,1.58441 -31.25303,3.39557 -3.16416,0.42235 -6.29166,1.30655 -6.95,1.96489 -0.65833,0.65833 -2.19193,1.19697 -3.40799,1.19697 -1.21605,0 -4.61355,0.85789 -7.55,1.90641 -6.03726,2.15575 -14.93078,4.21619 -19.36379,4.48617 -5.0386,0.30687 -8.93716,2.79143 -9.29745,5.92528 -0.17724,1.5417 0.14143,3.36179 0.70815,4.04465 0.56673,0.68286 0.78783,2.1692 0.49134,3.30297 -0.29649,1.13378 0.20672,5.0352 1.11825,8.66983 0.91154,3.63463 1.39473,7.03332 1.07377,7.55264 -0.32096,0.51932 -0.0561,2.21948 0.58856,3.77813 0.64467,1.55866 1.48617,5.53392 1.86999,8.83392 1.35975,11.69057 3.15742,22.01385 4.01345,23.04748 0.47712,0.57612 1.29951,3.50112 1.82753,6.5 2.10235,11.94028 4.85839,23.58187 6.14403,25.95252 0.74568,1.375 1.6942,4.3 2.10782,6.5 1.51801,8.07413 3.72757,15.48868 6.27174,21.04588 1.4342,3.13269 2.60763,6.52025 2.60763,7.52791 0,2.38751 1.94369,6.90338 4.05717,9.42621 0.92151,1.1 2.47177,4.1375 3.44501,6.75 1.06977,2.87161 2.40785,4.78341 3.38368,4.83448 6.60281,0.34557 14.58375,1.05179 14.84563,1.31368 0.65804,0.65804 11.81319,0.32611 12.76851,-0.37993 z M 389,487.8 c 0,-1.61542 -0.29571,-1.90429 -1.11287,-1.08713 -0.61207,0.61207 -0.81052,1.60207 -0.44098,2.2 C 388.48054,490.58655 389,490.21451 389,487.8 Z m -362.5,-0.0547 c 2.2,-0.0173 18.175,0.0838 35.5,0.22476 17.325,0.14091 39.825,0.0928 50,-0.10694 l 18.5,-0.36315 0.30969,-2.68024 c 0.17033,-1.47413 -0.79481,-5.52413 -2.14476,-9 -4.35485,-11.21292 -8.27106,-23.68093 -9.52346,-30.31976 -0.51878,-2.75 -1.41352,-6.35 -1.9883,-8 -0.57478,-1.65 -1.56229,-5.7 -2.19447,-9 -0.63218,-3.3 -1.60645,-7.125 -2.16504,-8.5 -0.55859,-1.375 -1.60712,-5.65 -2.33006,-9.5 -0.72294,-3.85 -2.50408,-13.3 -3.95808,-21 -1.45401,-7.7 -3.03077,-16.7 -3.50393,-20 -0.47316,-3.3 -1.52007,-8.475 -2.32647,-11.5 -0.806398,-3.025 -1.761965,-7.3191 -2.123482,-9.54245 -0.709574,-4.36392 -3.797365,-7.31425 -5.879999,-5.61824 -0.644401,0.52478 -3.196639,1.53579 -5.671639,2.2467 -2.475,0.71091 -5.573186,2.10738 -6.884859,3.10328 C 78.803469,349.18518 76.242527,350 74.424158,350 c -1.818368,0 -3.602307,0.47923 -3.964308,1.06496 -0.362002,0.58573 -1.85133,0.93982 -3.309618,0.78685 -1.458289,-0.15296 -3.104591,0.002 -3.658449,0.34425 -0.553858,0.3423 -2.696058,0.93924 -4.760444,1.32652 -2.064386,0.38728 -3.98787,1.08348 -4.274409,1.54711 -0.286539,0.46363 -1.181569,0.58947 -1.988955,0.27965 C 51.660589,355.03951 51,355.28417 51,355.89301 51,356.50186 50.506967,357 49.90437,357 c -0.602596,0 -2.337469,0.88427 -3.855273,1.96504 -1.517804,1.08077 -4.616275,2.26193 -6.885492,2.62479 -2.269216,0.36286 -4.62956,1.26669 -5.245209,2.0085 -0.615649,0.74181 -2.749283,1.65452 -4.741409,2.02825 -1.992125,0.37372 -5.659408,1.70041 -8.149517,2.94819 -2.490108,1.24778 -6.420969,2.85755 -8.735246,3.57726 l -4.2077753,1.30857 -0.045369,25.5197 c -0.024953,14.03584 -0.319002,39.06155 -0.6534424,55.61269 l -0.6080734,30.093 3.361218,2.02359 c 2.514163,1.51364 4.495256,1.90309 7.861218,1.5454 2.475,-0.26301 6.3,-0.49235 8.5,-0.50965 z m 462.06258,-2.05406 c 43.80635,-0.19254 49.32371,-0.39319 51.5,-1.87287 3.4022,-2.3132 22.59412,-21.0558 23.05738,-22.51757 0.20902,-0.65954 5.33004,-6.31778 11.38004,-12.57387 6.05,-6.25608 15.05,-15.80829 20,-21.22712 4.95,-5.41883 11.90072,-12.81059 15.44604,-16.42613 3.54533,-3.61554 8.14042,-8.76915 10.21132,-11.45246 2.07089,-2.68331 4.68267,-5.52133 5.80395,-6.3067 4.03007,-2.82278 0.97009,-10.18501 -4.27324,-10.28128 -1.70399,-0.0313 -9.6914,-3.30862 -16.01911,-6.57285 C 604.11189,375.65719 602.07452,375 601.14147,375 c -0.93305,0 -2.63567,-0.65785 -3.7836,-1.46189 -1.14792,-0.80404 -3.59215,-1.72703 -5.43161,-2.0511 -1.83947,-0.32407 -3.81288,-0.96426 -4.38537,-1.42264 -0.57249,-0.45838 -2.60112,-1.16761 -4.50807,-1.57605 -3.32889,-0.71301 -4.062,-0.98295 -8.53282,-3.14183 -1.1,-0.53117 -3.75754,-1.07025 -5.90565,-1.19794 -2.14811,-0.12769 -6.42621,-1.08128 -9.50689,-2.11909 C 551.36448,359.42778 533.22232,355 530.28529,355 c -1.32923,0 -3.39969,-0.53853 -4.60103,-1.19673 -1.95754,-1.07252 -13.3641,-2.53238 -24.18426,-3.0952 -2.2,-0.11444 -4.45,-0.49192 -5,-0.83884 -0.55,-0.34692 -5.83771,-0.95274 -11.75048,-1.34626 -5.91276,-0.39352 -10.95756,-1.05058 -11.21067,-1.46012 -0.25312,-0.40954 -3.51422,-0.24369 -7.24689,0.36857 l -6.78669,1.11318 -1.19525,8.9777 c -1.74714,13.12295 -3.79908,23.69175 -5.04957,26.00845 -0.60287,1.11691 -1.4209,5.39191 -1.81783,9.5 -0.39692,4.10809 -1.33389,8.35688 -2.08215,9.44176 -0.74826,1.08487 -1.36047,3.86808 -1.36047,6.1849 0,2.31681 -0.41193,5.29584 -0.91539,6.62005 -0.50347,1.32421 -1.15576,4.39101 -1.44954,6.8151 -0.29378,2.42409 -1.62429,7.33244 -2.95669,10.90744 -1.3324,3.575 -2.74789,9.17072 -3.14552,12.43493 -0.39764,3.26422 -1.16417,7.08922 -1.7034,8.5 -0.53924,1.41079 -1.42206,4.94268 -1.96183,7.84865 -0.53977,2.90596 -2.23241,8.08096 -3.76142,11.5 -3.60878,8.06962 -4.52889,11.83716 -3.10569,12.71674 0.61407,0.37952 3.22767,0.51376 5.80799,0.29831 2.58032,-0.21544 26.76965,-0.48876 53.75407,-0.60736 z M 642.29545,374.72005 C 649.13291,367.64871 655,360.52574 655,359.29604 c 0,-0.77468 -2.1375,-2.33869 -4.75,-3.47558 -2.6125,-1.13689 -6.63781,-2.91159 -8.94514,-3.94377 -2.30732,-1.03218 -5.00732,-1.87946 -6,-1.88285 -0.99267,-0.003 -3.0938,-0.67839 -4.66917,-1.5 C 629.06032,347.67223 626.33383,347 624.57682,347 c -1.75701,0 -4.06807,-0.66069 -5.13569,-1.4682 -1.06762,-0.8075 -2.65889,-1.4825 -3.53614,-1.5 -0.87726,-0.0175 -2.35619,-0.87289 -3.28651,-1.90088 -0.93269,-1.03062 -3.73079,-2.1486 -6.23744,-2.49217 -2.50027,-0.3427 -5.74635,-1.25781 -7.2135,-2.03357 -1.46714,-0.77577 -4.91754,-2.11006 -7.66754,-2.96508 -5.45472,-1.69598 -13.83541,-4.51717 -17,-5.72271 -1.1,-0.41904 -3.98208,-1.03832 -6.40462,-1.37618 -2.42254,-0.33786 -4.89754,-0.92448 -5.5,-1.3036 -0.60246,-0.37913 -2.44538,-0.72995 -4.09538,-0.77961 -1.65,-0.0497 -3.9,-0.56078 -5,-1.13581 -2.48466,-1.29889 -6.99971,-2.46489 -11.1984,-2.89198 -4.756,-0.48377 -11.1337,-2.34952 -11.81839,-3.45738 C 530.15252,317.43777 527.8006,317 525.25671,317 c -2.54389,0 -6.45484,-0.86368 -8.69099,-1.91929 -2.23614,-1.0556 -6.09072,-2.15943 -8.56572,-2.45293 -2.475,-0.29351 -7.2,-1.02068 -10.5,-1.61593 -3.3,-0.59526 -8.52555,-1.18492 -11.61234,-1.31038 -3.08679,-0.12545 -6.283,-0.78469 -7.1027,-1.46497 -0.81969,-0.68029 -2.79413,-1.38474 -4.38765,-1.56545 -1.59352,-0.18071 -3.65852,-0.66869 -4.5889,-1.08438 -3.47411,-1.55226 -5.27757,-0.23952 -6.08109,4.42644 -1.32477,7.69287 -2.02031,20.98287 -1.10272,21.07022 0.48147,0.0458 1.7754,0.20042 2.8754,0.34352 1.1,0.1431 4.9069,0.61074 8.45978,1.0392 3.55287,0.42846 7.15287,1.14687 8,1.59647 0.84712,0.44959 6.48238,1.32621 12.52279,1.94803 6.04041,0.62183 11.58698,1.63221 12.3257,2.24529 0.73873,0.61309 3.38003,1.2347 5.86958,1.38135 2.48954,0.14665 5.49297,0.89485 6.67429,1.66265 1.18132,0.76781 5.83125,1.6449 10.33318,1.94909 4.50192,0.3042 8.77692,0.93213 9.5,1.39542 0.72307,0.46329 2.21468,0.90593 3.31468,0.98365 5.77714,0.40817 11.05757,1.61446 14.33344,3.27441 2.01661,1.02185 5.69156,2.18772 8.16656,2.59082 2.475,0.40309 4.95,1.07526 5.5,1.49369 0.55,0.41844 3.06198,1.0588 5.58218,1.42304 2.52019,0.36424 6.12019,1.48601 8,2.49282 1.8798,1.00681 4.99102,2.17563 6.91381,2.59738 1.9228,0.42174 4.8478,1.33632 6.5,2.03238 2.80111,1.18009 6.74523,2.76067 14.00401,5.61199 1.65,0.64814 3.3241,1.11023 3.72022,1.02688 0.39612,-0.0834 2.37142,0.96898 4.38955,2.33852 2.01813,1.36954 4.39403,2.49244 5.27978,2.49533 0.88575,0.003 2.96045,0.87001 4.61045,1.92691 4.27257,2.73677 10.03649,2.64122 12.79545,-0.21212 z M 20.736241,355.39357 C 22.806308,354.52061 26.075,353.01186 28,352.04079 c 1.925,-0.97107 5.8625,-2.36257 8.75,-3.09223 2.8875,-0.72966 5.25,-1.6331 5.25,-2.00765 0,-0.37454 2.1375,-1.26845 4.75,-1.98647 2.6125,-0.71801 7.522785,-2.5765 10.911745,-4.12996 C 61.050704,339.27102 64.333817,338 64.957551,338 c 0.623733,0 3.247368,-1.125 5.830298,-2.5 2.582931,-1.375 5.177795,-2.5 5.766365,-2.5 0.58857,0 2.84215,-0.84129 5.007957,-1.86953 2.165806,-1.02824 5.593219,-2.1676 7.616473,-2.53192 2.023254,-0.36432 4.570029,-1.43554 5.6595,-2.38048 2.960064,-2.56737 1.582999,-11.5989 -2.27443,-14.91692 -2.559756,-2.20181 -3.287981,-2.31991 -10.408022,-1.6879 C 77.945061,309.987 74.275,310.58997 74,310.95317 c -0.275,0.36321 -2.075,1.24274 -4,1.95452 -1.925,0.71179 -4.4,1.65257 -5.5,2.09063 -1.1,0.43806 -4.7,1.32 -8,1.95987 -5.735376,1.11208 -19.644957,4.94725 -26,7.16875 -1.65,0.57678 -4.465924,1.41256 -6.257609,1.85728 -1.791685,0.44473 -6.404185,2.28491 -10.25,4.08931 L 7,333.35425 v 7.27365 c 0,4.00051 0.497978,9.59565 1.1066177,12.43364 l 1.1066177,5.15998 3.8796236,-0.62038 c 2.133793,-0.34121 5.573315,-1.33461 7.643382,-2.20757 z M 670.2969,342.75 c 1.39385,-1.7875 4.81113,-5.725 7.59397,-8.75 2.78284,-3.025 5.07082,-5.84212 5.08442,-6.26026 0.0136,-0.41814 1.59971,-3.00102 3.52471,-5.73974 1.925,-2.73872 3.5,-5.32774 3.5,-5.75337 0,-0.42564 3.2801,-7.29275 7.28912,-15.26026 7.26139,-14.43127 12.02402,-26.33329 13.19961,-32.98637 0.34015,-1.925 1.22847,-5.075 1.97404,-7 4.58706,-11.84326 6.07302,-25.99639 3.77971,-36 -1.62803,-7.10159 -4.18054,-16.0084 -5.11023,-17.83181 -0.4678,-0.91751 -1.13498,-3.16719 -1.48262,-4.9993 -0.34764,-1.83211 -1.53602,-4.4803 -2.64085,-5.88486 C 705.90395,194.87947 705,192.99922 705,192.10569 c 0,-0.89353 -0.9,-2.18666 -2,-2.87362 -1.1,-0.68696 -2,-1.58871 -2,-2.00388 0,-0.41518 -3.19575,-4.12387 -7.10167,-8.24153 -3.90591,-4.11766 -7.87307,-8.70699 -8.8159,-10.19851 C 682.72462,165.05821 674.291,156 673.17605,156 c -0.50065,0 -2.13125,-1.84501 -3.62354,-4.10002 -2.99122,-4.52004 -1.70953,-4.35589 -15.05251,-1.92775 -6.27179,1.14134 -15.92963,4.59286 -18.5,6.61153 -0.825,0.64793 -4.65,1.70988 -8.5,2.35989 -3.85,0.65002 -7.99667,1.82861 -9.21482,2.6191 -1.21815,0.79049 -2.83307,1.43725 -3.58872,1.43725 -1.36139,0 -15.4221,4.04223 -21.19646,6.09364 -3.46055,1.2294 -14.05632,3.88227 -17,4.2563 -4.99068,0.63413 -14.18322,3.12337 -15.97251,4.32518 C 559.44262,178.4038 557.40524,179 556,179 c -1.40524,0 -3.44262,0.61097 -4.52749,1.35771 -2.56925,1.76846 -9.60098,4.12173 -11.30294,3.7827 -0.73174,-0.14576 -2.40341,0.43801 -3.71482,1.29728 C 535.14334,186.29696 532.6788,187 530.978,187 c -3.66425,0 -11.7594,1.74629 -14.21443,3.06633 -0.95504,0.51352 -2.30504,0.93644 -3,0.93983 -0.69496,0.003 -2.61357,0.72527 -4.26357,1.60418 -7.07934,3.77096 -19.97359,7.54549 -25.30098,7.40635 -4.17643,-0.10907 -14.62258,1.76354 -17.72627,3.17768 -1.2995,0.59209 -2.62719,1.7657 -2.95041,2.60802 -0.32323,0.84232 -0.0949,8.99386 0.50748,18.11455 0.60234,9.12068 1.17955,27.15806 1.28267,40.08306 l 0.18751,23.5 6.5,1.05555 c 3.575,0.58055 7.175,1.30387 8,1.60737 0.825,0.3035 3.975,1.24577 7,2.09392 17.65701,4.95069 21.8919,6.07884 25.52727,6.8003 2.215,0.43958 6.04,1.54697 8.5,2.46087 2.46,0.9139 7.08422,2.06823 10.27605,2.56517 3.19182,0.49694 6.56682,1.3121 7.5,1.81148 0.93317,0.49937 3.94668,1.23241 6.69668,1.62897 2.75,0.39656 5.71554,1.3456 6.59008,2.10896 0.87454,0.76336 4.47166,1.62793 7.99359,1.92126 3.52193,0.29333 6.8339,0.96372 7.35992,1.48974 0.52603,0.52603 1.84696,0.95641 2.93541,0.95641 1.98934,0 7.3996,1.53006 11.121,3.14511 1.1,0.47738 4.025,1.27122 6.5,1.76408 5.61358,1.11785 15.70724,4.77234 18.41017,6.66555 1.11916,0.78389 3.75264,1.42526 5.85217,1.42526 2.09954,0 5.66478,0.9425 7.92277,2.09443 2.25798,1.15194 8.42755,3.58987 13.71016,5.41762 18.67859,6.46269 24.63787,8.62731 27.60473,10.02705 4.46618,2.10708 6.00237,1.79466 8.7969,-1.7891 z M 145.5,322 c 1.65,-1.09275 3.95754,-1.98979 5.12788,-1.99341 1.17033,-0.004 3.87033,-0.74124 6,-1.63916 8.34704,-3.51928 28.56645,-7.32254 39.0631,-7.34776 4.50504,-0.0108 8.47213,-0.47456 8.81574,-1.03055 0.34362,-0.55598 1.83267,-1.0044 3.30902,-0.9965 1.47634,0.008 6.50926,-0.39005 11.18426,-0.88435 9.8586,-1.04236 47.13526,-2.48327 61,-2.35792 9.54907,0.0863 25.34472,1.47816 30,2.64342 1.375,0.34418 8.81105,1.05943 16.52456,1.58944 7.71351,0.53001 15.36351,1.40297 17,1.93991 1.63649,0.53694 8.15044,1.19627 14.47544,1.46517 15.01553,0.63837 33.46366,2.35724 38.5,3.58716 2.2,0.53726 5.8225,0.98757 8.05,1.00069 2.2275,0.0131 4.4775,0.41701 5,0.89752 0.5225,0.48051 2.83486,1.10898 5.13858,1.3966 6.1668,0.76993 7.34428,-1.02621 8.01203,-12.22163 0.46808,-7.84788 0.29417,-9.39692 -1.24608,-11.09888 -1.23179,-1.3611 -2.43951,-1.76525 -3.87231,-1.29581 -2.75127,0.90142 -8.39816,0.51494 -10.73289,-0.73458 C 404.8679,293.85894 396.4812,292.45614 381,290.5957 c -8.14761,-0.97914 -12.48543,-1.81066 -13.5,-2.58785 -0.94357,-0.7228 -19.15325,-2.10175 -26.2904,-1.99087 -1.80972,0.0281 -3.78961,-0.25741 -4.39975,-0.6345 C 334.9045,284.20491 329,284.0346 329,285.15721 c 0,0.65882 -1.4228,0.85086 -3.75,0.50617 -6.43801,-0.95358 -35.36788,-1.28167 -35.90831,-0.40724 -0.28257,0.45722 -5.98755,0.81888 -12.67773,0.80369 -6.69018,-0.0152 -19.13896,0.21047 -27.66396,0.50147 -8.525,0.291 -19.775,0.49241 -25,0.44759 -10.28549,-0.0882 -30.17125,1.44927 -39,3.01536 -3.025,0.53659 -7.525,1.34272 -10,1.79139 -2.475,0.44867 -5.55331,1.38637 -6.84068,2.08378 -1.28737,0.6974 -8.71237,1.79301 -16.5,2.43467 l -14.15932,1.16667 0.0914,11.24564 c 0.0762,9.3729 0.39342,11.57936 1.90499,13.24962 2.2249,2.45849 2.29735,2.45853 6.0036,0.004 z M 16.635693,315.50616 c 1.575369,-0.82161 3.666767,-1.49661 4.647551,-1.5 C 22.264028,314.00277 25.286568,312.875 28,311.5 c 2.713432,-1.375 6.046915,-2.5 7.407739,-2.5 1.360825,0 2.752342,-0.45 3.092261,-1 0.339919,-0.55 1.572027,-1 2.738019,-1 2.17955,0 6.615584,-1.25126 12.761981,-3.59974 1.925,-0.73553 5.3,-1.63457 7.5,-1.99787 2.2,-0.3633 5.125,-1.23717 6.5,-1.94192 1.375,-0.70476 4.3,-2.01847 6.5,-2.91937 2.2,-0.90089 4.721362,-2.0287 5.603026,-2.50623 0.881664,-0.47753 3.726576,-1.18669 6.322026,-1.5759 3.848512,-0.57712 4.906048,-1.192 5.732999,-3.33331 0.852404,-2.20723 1.128985,-30.08084 0.601569,-60.62566 -0.05698,-3.3 0.402491,-8.925 1.02105,-12.5 2.44174,-14.11221 2.087075,-19 -1.378666,-19 -0.824239,0 -3.361402,-0.9 -5.63814,-2 -2.276737,-1.1 -5.153442,-2 -6.392676,-2 -1.239235,0 -2.53229,-0.45165 -2.873456,-1.00367 -0.341167,-0.55202 -1.726459,-0.72604 -3.078429,-0.38672 -2.434286,0.61097 -4.698719,-0.0512 -13.419303,-3.9238 -2.475,-1.0991 -6.75,-2.21915 -9.5,-2.48899 -2.75,-0.26985 -5.9,-1.06446 -7,-1.7658 -1.1,-0.70134 -4.25,-1.59942 -7,-1.99572 -2.75,-0.39631 -6.568336,-1.55638 -8.485191,-2.57793 C 27.097954,177.83582 24.762012,177 23.823826,177 22.88564,177 21.839919,176.55 21.5,176 c -0.339919,-0.55 -1.534545,-1 -2.654725,-1 -1.12018,0 -3.293462,-0.74239 -4.829516,-1.64976 -5.0416694,-2.97819 -6.0124749,-1.55337 -6.0424883,8.86838 -0.2492097,86.53453 -0.092341,130.83086 0.4695887,132.60135 0.8243357,2.59725 4.0159886,2.86457 8.1928336,0.68619 z M 157.56319,278.60522 c 1.24685,0.31294 5.75468,-0.20696 10.0174,-1.15532 5.66741,-1.26088 8.20893,-1.43793 9.45657,-0.65877 0.9384,0.58604 2.10143,0.6857 2.58451,0.22145 0.48308,-0.46424 3.80333,-1.11563 7.37833,-1.44753 8.54702,-0.79351 14.09459,-1.42089 22,-2.48801 17.75176,-2.39624 127.60744,-3.56482 143,-1.52116 5.225,0.69372 16.025,1.58318 24,1.97656 7.975,0.39338 14.95,1.0531 15.5,1.46602 0.55,0.41293 5.275,1.0192 10.5,1.34726 5.225,0.32807 12.46951,0.89064 16.09891,1.25016 l 6.59891,0.65368 0.55682,-3.4313 c 0.82382,-5.07663 -0.36895,-60.94633 -1.35713,-63.56826 -1.29677,-3.44071 -2.78068,-3.31697 -26.67132,2.22391 -6.20059,1.43808 -11.682,2.36242 -12.1809,2.05408 -0.4989,-0.30834 -1.20752,-0.0745 -1.5747,0.5196 -0.39467,0.63859 -3.42571,0.99075 -7.41395,0.8614 -3.71048,-0.12034 -7.20108,0.0623 -7.75689,0.40575 -0.55581,0.34351 -5.46313,0.9241 -10.90515,1.29019 -5.44203,0.36609 -10.43027,1.08758 -11.08497,1.60331 -0.65471,0.51572 -2.00471,0.80358 -3,0.63968 -0.9953,-0.1639 -2.41504,0.0813 -3.15498,0.54499 -0.79599,0.49875 -2.35249,0.30399 -3.81171,-0.47697 -1.95083,-1.04405 -2.87194,-1.06667 -4.40665,-0.10822 -5.30835,3.31512 -84.41036,3.30073 -88.62567,-0.0161 -0.65416,-0.51473 -5.93748,-1.06984 -11.74071,-1.23358 -6.87458,-0.19396 -11.10555,-0.75767 -12.14182,-1.6177 -1.20524,-1.00026 -2.02523,-1.04849 -3.38527,-0.19914 -1.38057,0.86219 -2.29367,0.77142 -3.95652,-0.39329 -1.52678,-1.06939 -5.48401,-1.62279 -13.47238,-1.88405 -13.77739,-0.45058 -26.35395,-1.94869 -33.65372,-4.00882 -3.00311,-0.84753 -9.5102,-2.15989 -14.4602,-2.91636 -4.95,-0.75647 -9.96443,-1.67704 -11.14318,-2.04572 -1.80294,-0.56392 -2.32903,-0.10719 -3.31392,2.87706 -0.64391,1.95106 -1.13578,7.27848 -1.09305,11.83869 0.0427,4.56022 0.0279,10.54131 -0.0331,13.29131 -0.23508,10.61173 1.40589,43.267 2.20367,43.85305 2.06796,1.51913 9.04037,2.00706 13.27764,0.92917 2.69395,-0.68529 5.91824,-0.98995 7.1651,-0.677 z M 316,206.36386 c 20.54391,-1.1627 18.39603,-0.98739 42,-3.42797 5.775,-0.59712 12.3,-1.53967 14.5,-2.09456 2.2,-0.55488 6.475,-1.38907 9.5,-1.85374 13.0528,-2.00506 30.80712,-6.3062 34.5,-8.35793 l 4,-2.22237 -0.20322,-5.80777 c -0.11434,-3.26785 -0.88976,-6.85557 -1.77305,-8.20365 C 416.92514,171.95611 413.6187,171.18991 412.5,173 c -0.33992,0.55 -1.61033,1 -2.82313,1 -1.21281,0 -4.67375,0.96345 -7.69099,2.141 -4.96208,1.93657 -7.72971,2.16706 -28.98588,2.41392 -12.925,0.15011 -31.375,0.57708 -41,0.94883 -9.625,0.37175 -22.225,0.76758 -28,0.87962 -5.775,0.11205 -11.29303,0.57189 -12.26228,1.02188 -0.96926,0.44998 -3.89426,0.45183 -6.5,0.004 -5.49073,-0.94344 -10.06701,-1.17769 -27.18176,-1.39133 -6.84422,-0.0854 -13.32535,-0.62701 -14.4025,-1.20348 -2.63462,-1.41001 -39.95748,-5.00659 -69.15346,-6.66391 -8.25,-0.46832 -16.125,-1.19468 -17.5,-1.61414 -1.375,-0.41946 -5.47269,-0.98389 -9.10599,-1.25428 -7.37731,-0.54903 -7.30276,-0.61754 -8.94155,8.21779 -0.40806,2.2 -1.0505,4.95025 -1.42765,6.11166 -0.48601,1.49667 -0.007,2.80724 1.64473,4.5 2.10013,2.15229 3.80822,2.65289 10.33046,3.02757 1.1,0.0632 5.0067,0.9676 8.68155,2.00979 3.67485,1.0422 9.07485,2.10677 12,2.36574 9.44938,0.83654 15.29521,1.72949 16.31845,2.49264 0.55,0.4102 3.67072,1.06912 6.93493,1.46427 3.26422,0.39515 7.07986,1.15375 8.47921,1.68578 1.7252,0.65592 2.65827,0.62532 2.8984,-0.0951 0.46964,-1.40892 3.18746,-1.3709 3.18746,0.0446 0,0.60884 0.71688,0.8319 1.59306,0.49567 0.87618,-0.33622 4.58868,-0.1209 8.25,0.47848 3.66132,0.59939 11.15694,1.4745 16.65694,1.94469 5.5,0.47019 12.25,1.0782 15,1.35113 2.75,0.27293 9.24667,0.75893 14.43704,1.08001 5.19037,0.32107 9.58907,0.7358 9.77489,0.92162 0.45498,0.45499 27.99661,-0.20589 42.28807,-1.01473 z m 159.28213,-19.5548 c 0.98017,-0.5026 5.48017,-1.55751 10,-2.34425 4.51983,-0.78673 9.11787,-1.84199 10.21787,-2.34501 1.1,-0.50303 4.7,-1.46086 8,-2.12852 3.3,-0.66766 6.45,-1.5468 7,-1.95364 0.55,-0.40685 4.3518,-1.27577 8.44844,-1.93093 4.09664,-0.65516 7.92164,-1.57023 8.5,-2.03349 1.21505,-0.97324 9.78601,-3.16075 13.75321,-3.51014 1.4859,-0.13086 3.2859,-0.66677 4,-1.1909 1.44505,-1.06064 14.0599,-5.14146 26.29835,-8.50734 4.4,-1.21011 9.66957,-3.02475 11.71016,-4.03252 2.04059,-1.00778 4.6263,-1.83232 5.74602,-1.83232 1.11972,0 4.62515,-0.85872 7.78984,-1.90826 3.16469,-1.04954 7.75665,-2.19428 10.20437,-2.54386 2.44771,-0.34958 4.98322,-1.07782 5.63446,-1.6183 1.03359,-0.8578 9.07686,-3.46392 13.41515,-4.34667 0.825,-0.16787 2.175,-0.53964 3,-0.82615 0.825,-0.28652 3.525,-1.07237 6,-1.74635 2.475,-0.67397 7.3125,-2.57003 10.75,-4.21347 5.10527,-2.44078 6.25,-3.42846 6.25,-5.3925 C 652,131.082 651.66153,130 651.24785,130 c -1.37107,0 -9.75734,-8.42349 -13.21998,-13.27866 -1.87444,-2.62826 -4.3944,-5.02621 -5.59991,-5.32878 -2.08551,-0.52343 -7.76955,1.5222 -15.42796,5.55237 -1.925,1.01301 -5.371,2.14736 -7.65777,2.52077 -2.28677,0.37341 -4.98677,1.30708 -6,2.07481 -1.01323,0.76774 -2.52081,1.41019 -3.35019,1.42769 -0.82937,0.0175 -3.62126,1.1568 -6.20419,2.5318 -2.58293,1.375 -5.59029,2.5 -6.68303,2.5 -1.09273,0 -2.24883,0.424 -2.56911,0.94222 -0.32028,0.51822 -2.70934,1.24957 -5.30902,1.62521 -2.59968,0.37565 -5.85169,1.23573 -7.22669,1.91131 -3.80287,1.86846 -18.75301,6.27946 -25.5,7.52371 -3.3,0.60858 -6.9,1.47596 -8,1.92751 -6.40964,2.6312 -7.78453,3.07004 -9.61848,3.07004 -1.11341,0 -2.63745,0.61308 -3.38677,1.36239 -0.74931,0.74931 -3.66038,1.66723 -6.46903,2.03981 -2.80866,0.37258 -6.55094,1.48337 -8.31618,2.46842 -1.76525,0.98506 -6.35954,2.62484 -10.20954,3.64398 -3.85,1.01913 -7.9,2.39784 -9,3.06379 -1.1,0.66595 -4.97185,1.70999 -8.60411,2.32008 -3.63226,0.61009 -8.03197,1.82157 -9.77714,2.69218 -1.74516,0.8706 -5.29831,1.8927 -7.89589,2.27134 l -4.72286,0.68843 0.11855,10.39208 c 0.14008,12.28032 0.85238,13.34663 8.27038,12.38077 2.53609,-0.33021 5.41303,-1.0116 6.3932,-1.51421 z M 56,180 c 0,-0.55 -0.45,-1 -1,-1 -0.55,0 -1,0.45 -1,1 0,0.55 0.45,1 1,1 0.55,0 1,-0.45 1,-1 z m 42.398842,0.16368 c 0.284281,-0.45998 0.826299,-5.62234 1.204483,-11.47192 0.672395,-10.40022 0.634665,-10.67847 -1.704893,-12.57292 -1.315876,-1.06553 -3.833345,-2.17115 -5.594376,-2.45692 -1.761031,-0.28578 -4.79622,-1.27616 -6.744864,-2.20086 -1.948645,-0.92469 -4.246009,-1.41148 -5.105254,-1.08176 -0.859245,0.32973 -3.67539,-0.46529 -6.258101,-1.76669 -2.58271,-1.3014 -6.153177,-2.68125 -7.934369,-3.06634 -1.781193,-0.38508 -3.495251,-1.11552 -3.809017,-1.62321 C 62.138684,143.41538 60.400674,143 58.590206,143 54.121574,143 48.300835,141.06505 38.66896,136.37772 37.111889,135.61997 34.394538,135 32.630402,135 c -1.764135,0 -4.990167,-0.91328 -7.16896,-2.02951 -4.847784,-2.4836 -15.6732883,-5.11811 -16.7407727,-4.07405 -0.4286319,0.41922 -0.6536319,6.99474 -0.5,14.61226 L 8.5,157.35875 l 2.762568,0.7375 c 2.638645,0.70442 10.186651,3.94154 14.063786,6.03155 1.004495,0.54148 4.154495,1.23782 7,1.54741 2.845505,0.3096 6.075452,1.12217 7.17766,1.80572 1.102207,0.68355 3.577207,1.48718 5.5,1.78584 6.439509,1.00023 21.241468,4.69265 22.375006,5.58156 0.616539,0.48348 1.79598,0.9179 2.62098,0.96538 2.431707,0.13995 13.289437,2.8559 16,4.00223 3.015248,1.27519 11.675532,1.51808 12.398842,0.34774 z M 262.37524,164 c 1.3787,0 2.77965,0.4416 3.11322,0.98133 0.96134,1.55548 61.30197,0.56189 64.83563,-1.0676 2.23474,-1.03051 3.23082,-1.04828 4.77304,-0.0851 1.31811,0.82318 2.53033,0.90598 3.74516,0.25582 1.50115,-0.80339 6.61697,-0.73233 14.15771,0.19666 0.825,0.10163 4.54125,-0.38385 8.25834,-1.07886 4.86374,-0.9094 7.31666,-0.96484 8.75,-0.19774 1.38149,0.73936 2.58424,0.74877 3.92592,0.0307 1.06384,-0.56935 4.32634,-1.04592 7.25,-1.05904 2.92366,-0.0131 7.11574,-0.49502 9.31574,-1.07089 2.2,-0.57587 4.77833,-1.15597 5.72963,-1.28911 0.95129,-0.13313 2.03879,-0.55123 2.41667,-0.9291 0.37787,-0.37787 2.38274,-0.68704 4.45527,-0.68704 2.07253,0 5.03503,-0.52217 6.58333,-1.16037 1.54831,-0.6382 3.36481,-1.07141 4.03668,-0.96269 1.89557,0.30675 2.60736,-4.36632 1.93977,-12.73487 -0.79339,-9.94544 -1.18808,-12.56729 -2.11851,-14.07275 -0.42135,-0.68176 -1.34901,-3.78876 -2.06146,-6.90444 C 407.76334,105.90531 406.05435,98.720894 404.06805,91 400.48787,77.083616 399.21711,71.721228 398.4991,67.5 398.12489,65.3 396.9268,60.575 395.83667,57 393.38906,48.973182 391.53334,42.66216 391.426,42 c -0.78977,-4.871872 -2.18306,-9.342949 -4.10211,-13.1637 -1.30352,-2.595252 -2.84607,-7.332614 -3.42788,-10.52747 -0.58181,-3.194857 -1.43641,-6.20132 -1.89912,-6.681031 C 381.06867,10.665478 362.42072,9.9866914 337,9.9899093 327.925,9.991058 319.84009,9.5695395 319.03354,9.0532014 318.07668,8.4406423 317.07383,8.5237612 316.14769,9.2923885 315.09863,10.163031 301.00103,10.474237 262.11415,10.485186 233.17637,10.493334 206.575,10.341209 203,10.147132 199.425,9.9530541 192.07687,10.135765 186.67082,10.553156 175.52816,11.41346 174.65097,12.037254 173.38648,20 c -0.39303,2.475 -1.94335,7.484407 -3.44517,11.132015 -1.50181,3.647608 -3.05718,8.147608 -3.45638,10 -0.39919,1.852392 -1.36478,4.618278 -2.14575,6.146413 -0.78097,1.528135 -1.68372,5.578135 -2.00612,9 -0.32239,3.421865 -0.9661,6.954969 -1.43045,7.851342 -2.15622,4.162282 -5.74344,17.179668 -6.85353,24.87023 -0.6748,4.675 -1.63355,8.99206 -2.13053,9.593466 -1.1951,1.446194 -2.7911,11.440994 -3.89731,24.406534 -0.49272,5.775 -1.34703,12.075 -1.89848,14 -3.32612,11.61092 -3.4098,12.11287 -2.21916,13.3125 1.35398,1.36421 12.13956,3.03352 33.5964,5.19982 8.25,0.83293 21.075,2.25016 28.5,3.1494 7.425,0.89924 19.125,2.21905 26,2.93291 14.59934,1.51591 22.71093,2.78297 23.61701,3.68905 0.35528,0.35527 1.4572,0.21179 2.44873,-0.31886 0.99153,-0.53065 2.9308,-0.96482 4.3095,-0.96482 z M 470,148.00002 c 2.475,-0.44538 6.75,-1.5748 9.5,-2.5098 2.75,-0.93501 6.35,-2.14809 8,-2.69573 1.65,-0.54765 7.05,-1.63918 12,-2.42563 4.95,-0.78645 10.19443,-2.09118 11.65429,-2.89939 1.45986,-0.80821 3.48486,-1.47224 4.5,-1.47563 1.01514,-0.003 3.13465,-0.67839 4.71002,-1.5 1.57537,-0.82161 3.61772,-1.49384 4.53856,-1.49384 0.92083,0 3.33952,-0.849 5.37485,-1.88668 2.03534,-1.03767 5.28458,-2.18383 7.22054,-2.54702 4.68891,-0.87964 18.19283,-5.19183 22.17254,-7.08032 1.74985,-0.83036 5.44675,-1.93933 8.21533,-2.46439 2.76859,-0.52505 5.83931,-1.38519 6.82383,-1.91143 0.98452,-0.52623 4.49004,-1.62322 7.79004,-2.43774 11.83618,-2.92148 15.01821,-4.04175 16.21058,-5.70713 0.66582,-0.92994 2.82682,-1.95309 4.80223,-2.27366 C 608.40557,105.89765 621,99.990764 621,98.490009 621,97.087435 605.11647,79 603.88479,79 603.43329,79 602.487,77.913134 601.78194,76.584743 600.4437,74.063413 586.89134,59.204168 571.5,43.382641 566.55,38.29429 560.925,32.293317 559,30.047145 c -1.925,-2.246172 -6.97487,-7.816313 -11.22194,-12.378092 -7.48554,-8.0402201 -7.85292,-8.2887248 -12,-8.1171222 C 533.42513,9.649293 531.275,9.8487894 531,9.9952562 c -0.275,0.1464668 -16.025,0.3848688 -35,0.5297818 -18.975,0.144913 -37.2,0.3797 -40.5,0.521749 -3.3,0.142048 -11.27747,-0.09831 -17.72771,-0.534141 -10.7137,-0.7238982 -11.78629,-0.6397312 -12.40533,0.973453 -0.66445,1.731526 0.45542,6.050584 3.11502,12.013901 0.73589,1.65 2.24412,5.025 3.35162,7.5 2.21179,4.942828 3.29637,8.72588 5.73386,20 0.89184,4.125 2.05268,8.662869 2.57965,10.084153 0.52698,1.421285 1.84699,6.596285 2.93336,11.5 1.08637,4.903716 2.60332,11.390847 3.37099,14.415847 2.42747,9.565396 3.69583,14.40962 4.58202,17.5 0.47315,1.65 1.35352,7.725 1.95638,13.5 0.60286,5.775 1.4913,11.85 1.97431,13.5 0.48301,1.65 1.1654,5.7 1.51643,9 1.02146,9.6029 1.1615,9.83796 5.37298,9.01894 2.00553,-0.39001 5.67142,-1.07353 8.14642,-1.51892 z M 102.94742,136.25 c 0.57278,-2.0625 1.04394,-4.46552 1.047,-5.34004 0.007,-1.87351 3.4065,-15.30593 4.78636,-18.90996 0.52645,-1.375 1.2875,-6.1 1.69124,-10.5 0.40374,-4.4 1.36506,-9.866878 2.13626,-12.148617 0.7712,-2.28174 1.68807,-6.33174 2.03747,-9 0.34941,-2.668261 1.2393,-6.051552 1.97755,-7.518426 0.73824,-1.466874 1.99718,-6.191874 2.79763,-10.5 2.34609,-12.626902 4.45651,-21.475705 5.41297,-22.696081 0.49006,-0.625282 1.65774,-3.836876 2.59485,-7.136876 0.93711,-3.3 2.799,-8.091321 4.13754,-10.64738 2.62355,-5.009904 3.20175,-9.835836 1.18371,-9.879937 -13.0404,-0.284979 -51.950595,0.03326 -52.592769,0.430143 -0.479867,0.296574 -2.399054,0.08019 -4.264859,-0.480852 C 70.809034,10.393427 10.981044,10.412637 10.035153,11.943121 9.6297584,12.599063 9.050745,24.142685 8.748457,37.595614 8.3790386,54.036086 7.8156353,62.51722 7.0300272,63.463819 6.1587719,64.513618 6.1465431,65.405301 6.9819922,66.966352 7.7260047,68.356552 8.043079,76.19389 7.925201,90.280274 L 7.7476298,111.5 l 2.3761852,1.23526 c 1.306902,0.67939 3.165316,1.24189 4.129809,1.25 0.964494,0.008 3.43283,0.91474 5.485191,2.01474 2.052362,1.1 5.243764,2 7.092005,2 1.848242,0 4.582353,0.87008 6.075804,1.93351 1.493451,1.06343 3.92967,2.23828 5.413819,2.61078 1.48415,0.3725 2.94576,1.07742 3.248022,1.56649 0.302263,0.48907 1.817911,0.88922 3.368107,0.88922 1.550196,0 3.326496,0.61205 3.947333,1.36011 0.620837,0.74807 2.19819,1.15569 3.505228,0.90583 1.307038,-0.24985 2.680738,0.0381 3.052667,0.63989 0.371929,0.60179 2.92926,1.09417 5.682958,1.09417 2.753699,0 5.989641,0.54086 7.190983,1.20191 1.201343,0.66105 2.634259,1.28328 3.184259,1.38273 0.55,0.0994 4.375,1.31736 8.5,2.70647 4.125,1.3891 9.19247,2.84289 11.261045,3.23063 2.068575,0.38774 4.007633,1.10397 4.309017,1.59162 0.301385,0.48765 1.850263,0.88664 3.441951,0.88664 2.492347,0 3.038507,-0.52044 3.935407,-3.75 z"
       id="path1" />
  </g>
</svg>
