<?xml version="1.0" encoding="UTF-8" standalone="no"?>
<!-- Created with Inkscape (http://www.inkscape.org/) -->

<svg
   version="1.1"
   id="svg1"
   width="738"
   height="541"
   viewBox="0 0 738 541"
   sodipodi:docname="2.svg"
   inkscape:version="1.4 (86a8ad7, 2024-10-11)"
   xmlns:inkscape="http://www.inkscape.org/namespaces/inkscape"
   xmlns:sodipodi="http://sodipodi.sourceforge.net/DTD/sodipodi-0.dtd"
   xmlns="http://www.w3.org/2000/svg"
   xmlns:svg="http://www.w3.org/2000/svg">
  <defs
     id="defs1" />
  <sodipodi:namedview
     id="namedview1"
     pagecolor="#ffffff"
     bordercolor="#000000"
     borderopacity="0.25"
     inkscape:showpageshadow="2"
     inkscape:pageopacity="0.0"
     inkscape:pagecheckerboard="0"
     inkscape:deskcolor="#d1d1d1"
     inkscape:lockguides="false"
     inkscape:zoom="1.4695009"
     inkscape:cx="368.8327"
     inkscape:cy="270.15975"
     inkscape:window-width="1920"
     inkscape:window-height="1013"
     inkscape:window-x="2391"
     inkscape:window-y="605"
     inkscape:window-maximized="1"
     inkscape:current-layer="g1" />
  <g
     inkscape:groupmode="layer"
     inkscape:label="Image"
     id="g1">
    <path
       id="path1"
       style="fill:#000000"
       d="m 411.05273,10.292969 c -0.44596,-0.03059 -0.87084,0.142263 -1.31835,0.513672 -1.26779,1.05216 -12.60392,1.226316 -113.73438,1.753906 -25.025,0.130554 -46.175,0.315116 -47,0.410156 -0.825,0.09504 -8.7,0.1231 -17.5,0.0625 -8.8,-0.0606 -16.7875,-0.103818 -17.75,-0.0957 -0.9625,0.0081 -2.5375,-0.02045 -3.5,-0.06445 -1.59187,-0.07277 -10.82063,0.04169 -15.75,0.195312 -1.1,0.03428 -41.1111,0.03763 -88.91406,0.0098 -63.082315,-0.037 -87.287605,0.259955 -88.27344,1.078125 -0.444625,0.369006 -1.476705,0.603738 -3.048828,0.701172 -0.0398,1.380031 -0.06637,2.768561 -0.205078,4.142578 0.376266,-0.117365 1.032128,-0.16518 1.146484,-0.347656 0.387775,-0.618764 0.63706,34.868874 0.554688,78.861328 C 15.677395,141.50604 15.942655,210.35 16.347656,250.5 c 0.405003,40.15 0.65298,77.725 0.550782,83.5 -0.312931,17.68254 -0.318687,21.34926 -0.03516,25.5 0.150287,2.2 0.02747,14.35 -0.273437,27 -1.033517,43.44923 -1.049466,56.08339 -0.113282,93 0.391408,15.43439 0.474636,27.35442 0.525391,37.35352 0.454765,-0.1375 1.062076,-0.19438 1.867188,-0.26563 0.501071,-0.0235 1.002607,-0.0377 1.503906,-0.043 1.503896,-0.0158 3.008502,0.0396 4.511719,0.0996 0.72679,0.0453 3.466469,0.072 3.697265,0.78711 0.23301,0.72196 0.43456,1.38671 0.589844,2.00195 l 0.125,-1.47656 16.101563,0.0215 c 8.855777,0.0122 16.776562,-0.0243 17.601562,-0.0801 0.825,-0.0559 4.272799,0.13473 7.662109,0.42383 4.294461,0.36619 6.719417,0.1205 7.998047,-0.81446 1.20016,-0.87757 2.234203,-1.01026 2.990235,-0.38281 0.919334,0.76298 20.305499,1.47405 28.599609,1.04883 1.74003,-0.0892 7.06743,0.39687 8.5,0.77539 0.4125,0.10896 4.125,0.0996 8.25,-0.0195 4.125,-0.11876 8.2875,-0.1755 9.25,-0.125 4.58003,0.24048 15.79179,0.0618 31.75,-0.50781 21.07704,-0.75235 30.15894,-0.53833 31.44141,0.74414 1.25902,1.25897 5.2718,1.23193 6.05859,-0.041 0.83375,-1.34903 10.11913,-1.27315 12.69141,0.10352 1.50503,0.80546 2.72159,0.80116 4.50976,-0.0137 1.34664,-0.61358 2.94939,-0.80471 3.5625,-0.42578 1.77234,1.09536 11.11391,1.18772 12.44727,0.12305 0.78535,-0.62709 2.36775,-0.58814 4.5,0.11328 2.23005,0.73359 5.15413,0.77822 9.08203,0.13672 6.4596,-1.05496 130.2955,-0.51545 133.15039,0.58008 1.02,0.39141 2.09354,0.13212 2.55664,-0.61719 0.43898,-0.71028 1.50399,-1.02069 2.36719,-0.68945 1.45787,0.55944 22.73021,0.88717 32.36719,0.49804 2.32924,-0.094 4.43056,0.0224 4.66796,0.25977 0.37935,0.37935 73.31632,0.35246 74.59766,-0.0273 1.62601,-0.48223 46.58339,-0.0219 49.39648,0.50586 4.32566,0.81149 10.18079,-1.82833 12.04688,-5.43165 0.74488,-1.43834 2.8617,-4.00652 4.70508,-5.70703 1.84339,-1.70052 8.97656,-9.33122 15.85156,-16.95703 6.875,-7.62582 15.03959,-16.45547 18.14453,-19.62109 3.10494,-3.16562 6.56352,-7.24117 7.68555,-9.05664 1.12202,-1.81547 3.08243,-4.24015 4.35547,-5.38867 1.27304,-1.14851 3.88945,-4.05891 5.81445,-6.4668 1.925,-2.40789 5.36051,-6.18726 7.63477,-8.39844 2.27427,-2.21118 8.70063,-9.19453 14.28125,-15.51953 5.58061,-6.325 11.37011,-12.83573 12.86523,-14.46875 1.49512,-1.63301 3.9558,-4.52663 5.46875,-6.42969 3.25602,-4.09559 10.2237,-12.07422 17.45898,-19.99414 3.91343,-4.28374 5.07169,-6.23434 4.65235,-7.83789 -0.44919,-1.71774 -0.1911,-2.03834 1.32226,-1.64258 1.22308,0.31984 2.74231,-0.49352 4.34766,-2.32812 1.35759,-1.55146 4.38125,-5.01745 6.71875,-7.70117 2.3375,-2.68372 4.25,-5.49905 4.25,-6.25586 0,-0.75682 1.9125,-3.28259 4.25,-5.61328 7.78934,-7.76662 13.5799,-14.91823 14.24219,-17.5879 0.36036,-1.45253 1.46188,-3.54062 2.44726,-4.64062 0.98538,-1.1 2.07694,-3.51879 2.42578,-5.375 0.62532,-3.32736 4.4856,-13.07446 7.25196,-18.31055 0.78015,-1.47665 1.81115,-4.62665 2.29101,-7 0.47987,-2.37336 2.063,-8.31355 3.51758,-13.20117 2.4682,-8.29369 2.63793,-10.12846 2.54883,-27.5 -0.0974,-18.9879 -1.88603,-31.24304 -5.33594,-36.5625 -0.73163,-1.12811 -2.29271,-4.63561 -3.46875,-7.79492 -2.94334,-7.90698 -6.28756,-12.9223 -14.57617,-21.85742 C 701.48017,180.76185 693,171.1702 693,170.47461 c 0,-0.37984 -2.21871,-3.00391 -4.92969,-5.83203 -2.71098,-2.82812 -5.96133,-6.49258 -7.22265,-8.14258 -1.26132,-1.65 -3.11071,-3.60119 -4.11133,-4.33594 -1.00062,-0.73474 -2.91335,-3.06815 -4.25,-5.18554 -3.01017,-4.76843 -6.94246,-9.22856 -21.10547,-23.9336 C 645.26502,116.69503 638.89259,109.925 637.2207,108 c -1.67189,-1.925 -5.78109,-6.35795 -9.13086,-9.851562 C 624.74007,94.654819 622,91.351534 622,90.808594 c 0,-0.542939 -1.9125,-2.898791 -4.25,-5.236328 -2.3375,-2.337536 -6.66567,-6.911205 -9.61719,-10.16211 C 598.40923,64.700279 594.6095,60.599197 584.75,50.173828 579.3875,44.503558 575,39.546437 575,39.158203 c 0,-0.388235 -2.7,-3.499535 -6,-6.914062 -3.3,-3.414528 -6,-6.666681 -6,-7.226563 C 563,24.457697 560.3,21.3 557,18 c -1.78246,-1.782462 -3.09602,-2.87606 -4.33594,-3.830078 -0.86727,-0.07368 -1.7353,-0.138674 -2.60547,-0.171875 -3.1953,-0.18575 -6.3835,-0.454497 -9.5664,-0.792969 -2.93444,-0.272279 -5.87199,-0.328521 -8.81836,-0.27539 h -7.21485 c -1.88192,0 -3.23789,-0.531495 -4.06836,-1.296876 -4.3688,0.122097 -7.95954,0.331808 -13.89062,0.267579 -16.61407,-0.179919 -32.76698,-0.140625 -72.75586,0.177734 -14.45145,0.115051 -20.15668,-0.174651 -21.25,-1.082031 -0.52837,-0.438506 -0.99544,-0.672536 -1.44141,-0.703125 z m -54.91796,7.93164 c 0.44215,-0.0438 0.97216,0.04644 1.51367,0.279297 2.73354,1.17546 34.63767,1.478205 36.02344,0.341797 0.76566,-0.62789 1.89179,-0.510321 3.25,0.337891 1.70886,1.067207 2.45825,1.060648 4.21289,-0.03516 1.51105,-0.943665 2.33178,-1.01218 2.8125,-0.234376 0.56775,0.918647 32.29498,1.592377 45.05273,0.957032 1.375,-0.06848 24.00647,-0.179988 50.29297,-0.248047 L 547.08789,19.5 551.92188,25 c 2.65935,3.025 5.74121,6.336663 6.84765,7.359375 5.06155,4.678558 10.18619,9.882318 15.51953,15.759766 3.18413,3.508988 8.79581,9.69095 12.47071,13.736328 3.67489,4.045378 7.59497,8.575567 8.71093,10.068359 1.11597,1.492792 4.1668,4.871993 6.7793,7.507813 2.6125,2.63582 4.75,5.165717 4.75,5.623047 0,0.457329 4.54723,5.469991 10.10547,11.138671 5.55824,5.668681 12.37687,13.006641 15.15234,16.306641 2.77547,3.3 7.34074,8.32197 10.14453,11.16016 2.80379,2.83819 6.96183,7.33819 9.24024,10 2.27841,2.66181 7.45341,8.63653 11.5,13.27734 4.04659,4.64081 8.25742,9.56148 9.35742,10.93555 1.1,1.37406 3.6875,4.19784 5.75,6.27343 2.0625,2.0756 3.75,4.01547 3.75,4.3125 0,0.29704 0.7875,1.36117 1.75,2.36329 4.65713,4.84883 11.66754,12.93598 13.12305,15.13867 0.89454,1.35375 3.87695,4.83536 6.62695,7.73633 2.75,2.90098 6.125,6.63648 7.5,8.30078 1.375,1.66431 4.1568,4.84345 6.18164,7.06445 2.02485,2.22099 3.98669,5.42619 4.35938,7.12305 0.37269,1.69685 2.17249,6.06109 4,9.69922 1.82751,3.63812 3.61429,8.86523 3.9707,11.61523 0.3564,2.75 1.26746,7.025 2.02539,9.5 1.08077,3.52926 1.17512,6.76506 0.43164,15 -0.52139,5.775 -0.95108,11.5909 -0.95508,12.92383 -0.004,1.33294 -0.6492,5.15794 -1.43359,8.5 -0.78438,3.34207 -1.64193,7.67035 -1.90625,9.61914 -0.26433,1.94879 -1.83706,6.44879 -3.49414,10 -1.65708,3.55121 -3.94841,9.53473 -5.0918,13.29687 -3.72595,12.25961 -9.34536,22.63413 -15.87109,29.29883 -3.30622,3.37663 -6.34623,7.20163 -6.75586,8.5 -0.40964,1.29838 -3.90591,5.73633 -7.76758,9.86133 -3.86167,4.125 -7.89067,8.9625 -8.95508,10.75 -1.0644,1.7875 -2.49697,3.25 -3.18359,3.25 -0.68663,0 -1.6558,0.85289 -2.15235,1.89453 -0.87811,1.84206 -8.11063,10.12367 -21.43164,24.53906 -3.59148,3.88653 -7.62186,8.64141 -8.95508,10.56641 -3.55061,5.12662 -6.79755,8.74841 -13.41601,14.96094 -3.2456,3.04652 -6.27184,5.98906 -6.72461,6.53906 -0.45278,0.55 -3.19797,3.86036 -6.09961,7.35547 -2.90163,3.4951 -5.67683,7.0951 -6.16797,8 -0.49114,0.90489 -3.0766,3.44453 -5.74414,5.64453 -2.66754,2.2 -5.10125,4.76485 -5.4082,5.69922 -0.30696,0.93436 -1.36039,1.95414 -2.3418,2.26562 -0.98141,0.31149 -3.67575,2.89155 -5.98828,5.73438 -2.31254,2.84282 -5.08809,5.786 -6.16602,6.54101 -1.07792,0.755 -1.95898,1.85088 -1.95898,2.43555 0,0.58466 -4.71872,5.81062 -10.48633,11.61328 -5.76761,5.80265 -10.74194,11.35284 -11.05273,12.33203 -1.2679,3.99481 -6.42324,5.76997 -16.99414,5.85157 -29.15594,0.22501 -114.99153,1.11554 -149.4668,1.55078 -21.725,0.27431 -50.975,0.41159 -65,0.30468 -24.87675,-0.18948 -29.37045,-0.19199 -49,-0.0117 -7.28921,0.0669 -77.7471,0.24832 -92,0.23632 -1.375,-10e-4 -9.925,-0.0154 -19,-0.0312 -9.075,-0.016 -31.27542,0.0848 -49.33398,0.22461 -18.05856,0.13979 -32.954167,0.1341 -33.101567,-0.0137 -0.147399,-0.14763 -14.797472,-0.47378 -32.556641,-0.72461 -17.759168,-0.25084 -32.398538,-0.58088 -32.53125,-0.73242 -0.617239,-0.70482 -1.826572,-55.25437 -1.580078,-71.27539 0.152319,-9.9 0.25351,-19.35 0.22461,-21 -0.02888,-1.65 -0.02636,-10.425 0.0059,-19.5 0.13707,-38.84661 0.0372,-200.54013 -0.175781,-284.60938 C 21.727583,26.215772 21.780275,23.219725 23.609375,21.390625 25.36232,19.63768 26.623924,19.548139 41,20.171875 c 8.525,0.369875 15.95,0.728509 16.5,0.796875 3.422413,0.425411 29.203423,-1.394352 30.132812,-2.126953 0.720012,-0.567556 1.340998,-0.351887 1.703126,0.591797 0.492778,1.284171 5.281373,1.435358 35.367182,1.117187 19.13827,-0.202396 34.90938,-0.446679 35.04688,-0.542969 0.73465,-0.514458 7.34809,-0.24175 7.91602,0.326172 0.88273,0.882735 5.81097,0.855051 6.70312,-0.03711 0.72912,-0.729121 14.36249,-0.580174 15.57617,0.169922 0.37921,0.234366 2.62027,-0.239579 4.98047,-1.052735 2.43497,-0.838916 4.78581,-1.116405 5.4336,-0.640624 1.22703,0.901308 57.47453,1.023932 59.14062,0.128906 0.84542,-0.454158 8,-0.365176 8,0.09961 0,0.08606 19.575,0.299516 43.5,0.474609 29.46302,0.215622 43.70881,-0.01778 44.14844,-0.724609 0.18989,-0.305311 0.54418,-0.483543 0.98633,-0.527344 z M 6.4765625,18.615234 c -0.02051,0.003 -0.00787,0.29209 0.076172,0.333985 0.00782,0.0039 0.015612,0.0078 0.023437,0.01172 -0.035133,-0.138913 -0.064094,-0.254557 -0.087891,-0.328126 -0.00413,-0.01276 -0.00879,-0.01801 -0.011719,-0.01758 z m 0.7382813,0.576172 -0.035156,0.0098 c 0.00217,0.02337 0.00216,0.0262 0.00391,0.04492 0.014694,0.0011 0.01259,7.92e-4 0.027344,0.002 9.92e-4,-0.01689 0.0032,-0.04602 0.00391,-0.05664 z M 16.9375,540.33398 16.923828,541 h 0.373047 c -0.140541,-0.19306 -0.25897,-0.41624 -0.359375,-0.66602 z" />
  </g>
</svg>
