<?xml version="1.0" encoding="UTF-8" standalone="no"?>
<!-- Created with Inkscape (http://www.inkscape.org/) -->

<svg
   version="1.1"
   id="svg1"
   width="748"
   height="544"
   viewBox="0 0 748 544"
   sodipodi:docname="5.svg"
   inkscape:version="1.4 (86a8ad7, 2024-10-11)"
   xmlns:inkscape="http://www.inkscape.org/namespaces/inkscape"
   xmlns:sodipodi="http://sodipodi.sourceforge.net/DTD/sodipodi-0.dtd"
   xmlns="http://www.w3.org/2000/svg"
   xmlns:svg="http://www.w3.org/2000/svg">
  <defs
     id="defs1" />
  <sodipodi:namedview
     id="namedview1"
     pagecolor="#ffffff"
     bordercolor="#000000"
     borderopacity="0.25"
     inkscape:showpageshadow="2"
     inkscape:pageopacity="0.0"
     inkscape:pagecheckerboard="0"
     inkscape:deskcolor="#d1d1d1"
     inkscape:zoom="1.4613971"
     inkscape:cx="374.29937"
     inkscape:cy="271.65786"
     inkscape:window-width="1920"
     inkscape:window-height="1013"
     inkscape:window-x="2391"
     inkscape:window-y="605"
     inkscape:window-maximized="1"
     inkscape:current-layer="g1" />
  <g
     inkscape:groupmode="layer"
     inkscape:label="Image"
     id="g1">
    <path
       id="path1"
       style="fill:#000000"
       d="m 313,8.5 c -0.55,0.3399187 -1,1.0410528 -1,1.558594 C 312,10.576135 312.45,11 313,11 c 0.55,0 1,-0.701135 1,-1.5585938 C 314,8.5839474 313.55,8.1600813 313,8.5 Z m -184.19531,3.744141 c -0.53168,-0.03258 -1.08714,0.03436 -1.53711,0.207031 -1.82184,0.699104 -86.959034,0.76048 -97.400392,0.07031 -9.791579,-0.647216 -9.888093,-0.464068 -10.447266,19.626954 -1.129925,40.59807 -1.17659,58.26852 -0.15625,59.902343 0.578455,0.926255 0.735052,2.509993 0.347656,3.519531 C 19.223932,96.579851 18.700496,162.00231 18.447266,240.95312 18.194037,319.90395 17.84585,407.9 17.673828,436.5 c -0.172023,28.6 0.07492,57.85 0.548828,65 0.430149,6.48974 0.528758,9.41156 0.697266,13.07617 h 5.091797 c 2.512189,0.0948 5.01981,0.26955 7.507812,0.63086 1.852979,0.36233 3.660285,0.94997 5.433594,1.59961 3.076289,-0.10357 6.686079,-0.1492 8.046875,-0.0996 6.0075,0.21906 120.84311,0.51609 143.5,0.37109 13.75,-0.088 28.74279,0.11426 33.31641,0.44922 5.76823,0.42245 8.75374,0.24317 9.74804,-0.58203 1.1099,-0.9211 2.11123,-0.90808 4.43555,0.0547 2.0252,0.83887 3.40729,0.91778 4.25,0.24414 0.68701,-0.54884 2.825,-0.79527 4.75,-0.54687 1.925,0.24841 15.2,0.38202 29.5,0.29492 14.3,-0.0871 26.675,-0.14997 27.5,-0.13867 2.19373,0.0301 57.14312,1.14473 59.5,1.20703 7.3266,0.19354 13.05894,-0.27965 14.12695,-1.16602 0.75176,-0.62391 1.96402,-0.69073 3.0586,-0.16992 2.0658,0.98294 136.95234,0.96956 137.93554,-0.0137 0.35261,-0.35261 1.36959,-0.25377 2.25977,0.21875 2.43138,1.2906 43.3894,0.53199 45.97461,-0.85157 1.17979,-0.6314 2.82348,-2.18513 3.6543,-3.45312 0.83082,-1.26799 4.88082,-5.69777 9,-9.84375 4.11918,-4.14597 7.49023,-7.86375 7.49023,-8.25977 0,-0.39602 1.2375,-1.93837 2.75,-3.42773 1.5125,-1.48937 5.9,-6.25102 9.75,-10.58203 9.50188,-10.68902 9.79548,-11.0036 28.09961,-30.16211 20.65664,-21.62084 29.85818,-31.54686 35.38672,-38.16797 2.81924,-3.37639 5.47657,-5.52463 7.27734,-5.88476 2.52459,-0.50494 2.76716,-0.88136 2.20703,-3.43165 C 670.05799,400.98618 670.24264,400 671.00977,400 c 1.0268,0 6.88398,-5.80126 22.21093,-22 C 698.21619,372.72037 704,365.31678 704,364.20117 c 0,-0.42992 4.1625,-5.30376 9.25,-10.83008 10.86109,-11.79791 16.1237,-18.16285 16.57812,-20.05273 0.18016,-0.74914 2.09264,-4.38242 4.25,-8.07422 2.15738,-3.69181 3.92188,-7.28606 3.92188,-7.98828 0,-0.70222 0.91591,-3.22633 2.03516,-5.60742 1.11924,-2.3811 2.4167,-6.53787 2.88281,-9.23828 0.46612,-2.70041 1.64735,-7.83516 2.625,-11.41016 1.36577,-4.99419 1.79809,-10.5541 1.86719,-24 0.0895,-17.40515 0.0708,-17.55149 -3.26563,-27 -1.84505,-5.225 -3.69598,-9.95 -4.11523,-10.5 -0.41924,-0.55 -1.77826,-4.15 -3.01953,-8 -1.24128,-3.85 -2.65089,-7.42672 -3.13282,-7.94922 C 733.39502,213.02828 733,211.96841 733,211.19531 c 0,-1.91685 -1.90705,-4.23019 -21.39648,-25.9375 C 708.52153,181.82509 706,178.59482 706,178.07812 c 0,-0.51668 -4.6125,-5.64949 -10.25,-11.40624 -5.6375,-5.75677 -12.5,-13.29715 -15.25,-16.75586 -2.75,-3.45871 -7.025,-8.38366 -9.5,-10.94532 C 663.49928,131.20736 649.71319,116.05143 641.00977,106 636.4855,100.775 629.79587,93.322672 626.14258,89.439453 614.07137,76.608518 609.49182,71.605534 600.57227,61.5 595.71775,56 587.54262,47 582.4043,41.5 577.26599,36 571.40396,29.25 569.37891,26.5 563.7712,18.884759 559.81124,15 557.65625,15 c -0.50217,0 -0.84698,-0.08484 -1.10742,-0.289062 -0.52308,-0.08166 -1.04528,-0.164284 -1.56836,-0.238282 -2.7983,-0.207579 -5.55245,-0.689025 -8.30664,-1.205078 -0.24786,-0.05178 -0.48931,-0.11249 -0.72656,-0.175781 -5.83964,0.308288 -17.4965,0.34929 -43.39258,0.220703 C 475.57416,13.178529 447.875,12.986579 441,12.886719 c -6.875,-0.09986 -37.25,0.110102 -67.5,0.466797 -30.25,0.356696 -61.75,0.617065 -70,0.578125 -8.25,-0.03894 -16.35,-0.01051 -18,0.0625 -4.78356,0.211678 -16.14619,0.03942 -27.5,-0.416016 -18.72505,-0.751121 -28.16318,-0.789295 -47.5,-0.1875 -16.95092,0.527542 -66.39618,0.672385 -75.5,0.220703 -1.925,-0.09551 -4.08499,-0.536393 -4.79883,-0.980469 -0.35691,-0.222038 -0.86481,-0.354139 -1.39648,-0.386718 z M 37.9375,15.1875 c 0.75,-0.25 1.125,0.125 0.875,0.875 -0.240625,0.721875 -1.028125,1.509375 -1.75,1.75 -0.75,0.25 -1.125,-0.125 -0.875,-0.875 0.240625,-0.721875 1.028125,-1.509375 1.75,-1.75 z m 44.208984,2.054688 c 0.4932,0.01086 0.846756,0.396237 1.408204,1.164062 0.730725,0.999328 2.573866,1.661434 4.583984,1.646484 1.848752,-0.0137 4.486328,-0.01653 5.861328,-0.0059 1.375,0.01071 10.15,-0.0165 19.5,-0.06055 9.35,-0.04405 17,-0.03599 17,0.01758 0,0.681374 10.33416,0.422867 11.24609,-0.28125 0.80935,-0.624916 2.91372,-0.530455 6,0.267578 3.06028,0.791308 10.63117,1.138551 21.25391,0.97461 9.075,-0.14005 17.625,-0.222061 19,-0.181641 1.375,0.04042 12.43318,0.11053 24.57422,0.15625 16.99389,0.06401 22.50484,0.397874 23.94531,1.451172 1.83665,1.34299 6.58555,0.586358 8.80859,-1.404297 0.45501,-0.407428 2.34425,-0.398831 4.19922,0.01953 1.85497,0.418364 3.58246,0.552305 3.83789,0.296875 0.25543,-0.255429 1.40173,0.03843 2.54883,0.652344 1.46304,0.782996 2.66501,0.806175 4.02539,0.07813 1.34796,-0.721406 2.13772,-0.71714 2.5918,0.01758 0.43555,0.704726 1.44384,0.540177 3.02539,-0.496093 2.8493,-1.866936 6.75143,-2.003899 9.43164,-0.330079 1.50538,0.940133 2.23642,0.951087 3.14063,0.04687 0.71711,-0.717117 1.80149,-0.851072 2.77343,-0.341796 0.87824,0.460181 4.07266,0.678743 7.09766,0.484374 4.47487,-0.287525 84.45942,-0.572694 91.5,-0.326171 1.1,0.03852 9.2,-0.02526 18,-0.142579 8.8,-0.117319 43.52031,-0.101144 77.15625,0.03711 33.63594,0.138254 61.53594,0.0257 62,-0.25 1.17861,-0.700228 15.49361,-0.126849 17.45898,0.699219 0.888,0.373237 2.10617,1.760932 2.70899,3.083984 1.04454,2.292518 5.3112,7.020621 22.17578,24.582031 4.125,4.295442 9.525,10.14164 12,12.990235 2.475,2.848596 5.175,5.911945 6,6.808593 0.825,0.896648 2.05754,2.870719 2.73828,4.386719 0.68074,1.516 2.27958,3.153879 3.55469,3.638672 1.2751,0.484794 7.08931,6.438806 12.91992,13.230469 5.8306,6.791664 12.21731,13.897576 14.19336,15.792966 1.97605,1.89539 3.59375,3.7584 3.59375,4.13867 0,0.38028 2.1941,3.10341 4.87695,6.05274 2.68285,2.94933 8.68874,9.63828 13.34571,14.86328 4.65698,5.225 11.68787,12.87383 15.62304,16.99805 3.93518,4.12422 7.1543,7.7725 7.1543,8.10547 0,0.67143 2.19348,3.15767 11.62109,13.17578 3.50859,3.72835 6.37891,7.21585 6.37891,7.75 0,0.53415 0.66595,0.9707 1.48047,0.9707 0.81452,0 1.76691,1.13561 2.11523,2.52344 0.34832,1.38783 1.37337,3.07533 2.27735,3.75 0.90399,0.67467 3.66409,3.68626 6.13476,6.69336 2.47067,3.0071 6.45014,7.5071 8.84375,10 2.39361,2.4929 7.00611,8.51705 10.25,13.38672 4.58257,6.87925 5.89844,9.69288 5.89844,12.61523 0,2.22517 0.80187,4.7813 1.96484,6.25977 2.93112,3.72631 5.08307,10.97788 5.65821,19.06836 0.2816,3.96125 1.17445,9.81372 1.98437,13.0039 1.13949,4.48834 1.24462,7.08956 0.46289,11.5 -0.55564,3.13482 -1.19607,7.27422 -1.42383,9.19922 -0.57618,4.8697 -3.69716,16.30137 -4.76367,17.44922 -0.48547,0.5225 -0.87519,1.6475 -0.86719,2.5 0.008,0.8525 -1.63289,4.92578 -3.64648,9.05078 -2.01359,4.125 -4.15844,8.5833 -4.76562,9.90625 -0.60718,1.32295 -3.00297,4.47295 -5.32422,7 -6.75938,7.35865 -16.53995,19.02568 -19.64844,23.43945 -1.57797,2.24056 -4.05297,5.24984 -5.5,6.6875 -5.72675,5.68966 -18.72445,20.42074 -20.29883,23.00586 -0.9174,1.50636 -2.05055,2.90125 -2.51758,3.09961 -0.46703,0.19837 -2.55023,2.70003 -4.6289,5.5586 -2.07867,2.85856 -4.65803,5.47736 -5.73243,5.81835 -1.07438,0.34101 -1.95312,0.96069 -1.95312,1.37696 0,0.41627 -1.79168,2.52248 -3.98242,4.68164 -2.19075,2.15917 -3.991,4.40589 -4,4.99219 -0.009,0.5863 -1.48008,2.41175 -3.26758,4.05664 -3.56704,3.28245 -13.84838,14.18361 -26.25,27.83398 -4.4,4.84305 -9.575,10.48484 -11.5,12.53711 -6.36032,6.78082 -18.60996,20.40653 -24.09766,26.80274 -2.97094,3.46278 -8.88984,9.83218 -13.15234,14.15429 -4.2625,4.32212 -7.75,8.33474 -7.75,8.91797 0,2.7486 -4.97165,3.24639 -35.7832,3.58008 -17.44454,0.18902 -31.9418,0.4423 -32.2168,0.56445 -0.275,0.1221 -0.92568,0.13986 -1.44531,0.0391 -0.51964,-0.10085 -35.84464,-0.0954 -78.5,0.0117 -42.65537,0.10714 -79.12969,0.17936 -81.05469,0.16016 -59.94152,-0.59785 -205.80871,-0.60095 -206.62891,-0.004 -0.6206,0.45181 -2.31207,0.37268 -3.75976,-0.17773 -1.44768,-0.55041 -4.08939,-0.75217 -5.8711,-0.44727 -5.06051,0.86601 -20.33847,0.98956 -30.24023,0.24414 -11.822971,-0.89006 -58.024389,-1.25249 -59.298828,-0.46484 -0.545824,0.33734 -2.005801,-0.20623 -3.244141,-1.20898 l -2.251953,-1.82227 0.03516,-70.92187 c 0.01938,-39.00682 0.0343,-80.82188 0.0332,-92.92188 -0.0011,-12.1 0.138476,-23.8 0.310546,-26 0.172066,-2.2 0.24526,-9.85 0.16211,-17 -0.179459,-15.43056 -0.169166,-40.09838 0.07227,-174.20117 0.121635,-67.563986 0.52246,-101.540039 1.207032,-102.224611 0.613555,-0.613555 11.0512,-1.253272 25.988281,-1.591797 20.457632,-0.46364 25.402942,-0.852591 27.392578,-2.15625 1.115518,-0.730916 1.747035,-1.094841 2.240234,-1.083984 z" />
  </g>
</svg>
