<?xml version="1.0" encoding="UTF-8" standalone="no"?>
<!-- Created with Inkscape (http://www.inkscape.org/) -->

<svg
   version="1.1"
   id="svg1"
   width="743"
   height="542"
   viewBox="0 0 743 542"
   sodipodi:docname="6.svg"
   inkscape:version="1.4 (86a8ad7, 2024-10-11)"
   xmlns:inkscape="http://www.inkscape.org/namespaces/inkscape"
   xmlns:sodipodi="http://sodipodi.sourceforge.net/DTD/sodipodi-0.dtd"
   xmlns="http://www.w3.org/2000/svg"
   xmlns:svg="http://www.w3.org/2000/svg">
  <defs
     id="defs1" />
  <sodipodi:namedview
     id="namedview1"
     pagecolor="#ffffff"
     bordercolor="#000000"
     borderopacity="0.25"
     inkscape:showpageshadow="2"
     inkscape:pageopacity="0.0"
     inkscape:pagecheckerboard="0"
     inkscape:deskcolor="#d1d1d1"
     inkscape:zoom="1.4667897"
     inkscape:cx="371.55975"
     inkscape:cy="270.65912"
     inkscape:window-width="1920"
     inkscape:window-height="1013"
     inkscape:window-x="2391"
     inkscape:window-y="605"
     inkscape:window-maximized="1"
     inkscape:current-layer="g1" />
  <g
     inkscape:groupmode="layer"
     inkscape:label="Image"
     id="g1">
    <path
       id="path1"
       style="fill:#000000"
       d="m 538.16016,12.207031 c -0.94767,-0.05665 -2.13163,-0.01284 -3.32422,0.146485 -2.38519,0.318653 -8.16094,0.534038 -12.83594,0.480468 -7.12143,-0.08161 -80.33265,0.187754 -85,0.3125 -0.825,0.02205 -26.025,-0.0062 -56,-0.0625 -29.975,-0.05625 -114.575,0.129115 -188,0.41211 -73.425,0.282995 -142.204129,0.529849 -152.841797,0.548828 l -19.339844,0.03516 -1.660156,4.064453 -0.445312,1.089844 c -0.119919,0.783201 -0.427252,1.654579 -0.96875,2.585937 -0.492702,0.84743 -0.917816,1.717464 -1.242188,2.636719 l 0.765625,0.04297 -0.002,1.445312 c 1.285753,1.0167 0.996423,2.120606 -0.002,2.917969 L 17.251953,44 c -0.0088,10.725 -0.035,28.95 -0.05859,40.5 -0.02359,11.55 -0.0132,22.35 0.02344,24 0.04897,2.20479 -0.0088,69.73518 -0.07813,91 -0.0036,1.1 -0.01845,41.6 -0.0332,90 -0.02424,79.57066 -0.01534,92.44044 0.07227,98.25 0.01451,0.9625 -0.06024,14.8 -0.166015,30.75 -0.234507,35.36249 -0.188057,36.7892 1.292969,39.18555 0.330787,0.53523 0.04684,2.96313 -0.632813,5.39453 -0.679648,2.43139 -1.100219,7.11992 -0.933594,10.41992 0.166625,3.3 0.29001,11.78537 0.273438,18.85742 -0.02989,12.75751 -0.0037,12.90908 3.412109,19.3418 1.359757,2.56073 2.219106,4.66829 2.658203,6.10742 0.733282,-0.0627 1.467071,-0.11604 2.201172,-0.16211 0.093,-0.004 0.182614,-0.003 0.273438,-0.004 C 25.830947,517.2151 26.202139,517 26.800781,517 c 0.99,0 2.320345,-0.52156 2.957031,-1.1582 0.876827,-0.87682 1.532117,-0.84719 2.701172,0.12304 1.51727,1.25922 38.774561,2.50489 57.541016,1.92383 4.125,-0.12771 20.1,-0.11775 35.5,0.0215 38.91742,0.3518 46.44337,0.30979 58.85156,-0.33594 5.96885,-0.31062 11.36885,-0.23908 12,0.16016 1.76136,1.11414 11.71011,1.30339 13.66016,0.25976 2.26856,-1.2141 7.36807,-1.3753 18.98828,-0.59961 16.01789,1.06925 55.65357,0.55606 57.76367,-0.74805 0.68016,-0.42038 1.23619,-0.39994 1.23633,0.0449 3.1e-4,0.92666 24.90089,0.72161 29.63477,-0.24414 1.72434,-0.35178 4.02757,-0.16322 5.11718,0.41992 1.42207,0.76107 2.87007,0.72397 5.13477,-0.13086 2.38426,-0.9 3.60458,-0.91068 4.99414,-0.043 1.01132,0.63157 5.48641,1.14844 9.94336,1.14844 4.45696,0 9.04107,0.29825 10.1875,0.66211 1.14642,0.36386 2.626,0.23044 3.28711,-0.29688 0.70025,-0.55855 3.49707,-0.6548 6.70117,-0.22851 6.76103,0.89953 193.60391,1.37642 198.19922,0.50586 2.46575,-0.46714 4.1862,-1.86816 6.80078,-5.53907 1.925,-2.70273 4.25666,-5.16792 5.18164,-5.47656 0.92498,-0.30865 2.84634,-2.54807 4.26953,-4.97656 1.42318,-2.42848 3.19235,-4.76927 3.93164,-5.20313 0.73928,-0.43386 3.21902,-3.03906 5.50977,-5.78906 7.02625,-8.43488 11.34448,-13.25016 17.85742,-19.91211 3.4375,-3.51615 6.25,-6.86249 6.25,-7.43555 0,-0.57307 2.13785,-3.2047 4.75195,-5.84765 10.98991,-11.11122 23.93358,-25.13376 27.37696,-29.66016 4.96525,-6.52691 13.35838,-16.14608 18.88476,-21.64453 2.48758,-2.475 7.51531,-8.1 11.17188,-12.5 3.65656,-4.4 7.96483,-9.13456 9.57422,-10.52148 1.6094,-1.38692 3.51827,-3.62784 4.24218,-4.98047 0.72391,-1.35263 2.30165,-3.23441 3.50586,-4.18164 1.20421,-0.94724 4.84391,-4.98813 8.08985,-8.97852 3.24594,-3.9904 7.86647,-9.29905 10.26757,-11.79687 2.4011,-2.49783 5.53527,-6.34102 6.96485,-8.54102 1.42959,-2.2 4.12667,-5.74377 5.99414,-7.875 C 724.96514,334.04061 730,324.34422 730,321.87891 c 0,-0.58507 0.9,-2.20705 2,-3.60547 1.1,-1.39842 2.01887,-3.49488 2.04297,-4.65821 0.0241,-1.16333 0.72331,-3.91523 1.55273,-6.11523 3.34527,-8.87322 5.08029,-16.3271 4.17578,-17.94336 -0.60637,-1.08354 -0.30232,-3.19954 0.91016,-6.3418 1.51389,-3.92339 1.80746,-7.56879 1.75586,-21.71484 -0.0594,-16.28388 -0.21618,-17.58052 -3.7168,-30.79102 l -3.65429,-13.79101 -8.22071,-10.61524 c -4.52121,-5.83842 -9.37351,-11.82337 -10.7832,-13.29882 -1.40968,-1.47544 -5.4875,-5.96771 -9.0625,-9.98243 -3.575,-4.01472 -6.95,-7.79903 -7.5,-8.41015 -1.80426,-2.00477 -14.93238,-17.9775 -20.01953,-24.35742 -2.73931,-3.43544 -5.31556,-6.248 -5.72461,-6.25 -0.40905,-0.002 -2.11678,-1.91641 -3.79492,-4.25391 -2.60432,-3.62757 -12.04856,-14.17019 -23.46094,-26.1875 -1.65,-1.73746 -6.15,-6.73569 -10,-11.10938 C 632.65,98.079453 627.56637,92.475 625.20312,90 599.48591,63.066489 590.58678,53.488072 576.89453,38 574.22027,34.975 568.19974,28.169063 563.51562,22.875 L 555,13.248047 v -0.976563 h -0.76758 -5.06054 c -0.0807,0 -0.15753,-0.0039 -0.23633,-0.0059 l -0.0254,0.533203 -3.97657,0.378906 c -2.18703,0.208567 -4.37866,-0.02124 -4.86914,-0.511718 -0.24523,-0.24524 -0.95662,-0.402338 -1.90429,-0.458985 z m -265.72461,6.367188 c 0.40626,0.01853 0.84519,0.244847 1.36914,0.679687 1.07968,0.896057 9.05622,1.128348 31.07422,0.908203 33.82785,-0.338226 37.60849,-0.294272 70.62109,0.824219 0.55,0.01863 10.675,-0.250383 22.5,-0.597656 25.71996,-0.755337 22,-0.723385 46.10938,-0.376953 10.78478,0.154968 20.03013,0.02128 20.54492,-0.296875 0.51479,-0.31816 4.22902,-0.165784 8.25586,0.339844 4.02684,0.505628 7.76711,0.644448 8.31054,0.308593 0.54342,-0.335855 16.68029,-0.718559 35.85938,-0.851562 31.35631,-0.21745 34.9224,-0.07944 35.38672,1.373047 0.284,0.888412 2.43335,3.679411 4.77539,6.203125 2.34205,2.523714 8.08281,8.777854 12.75781,13.896484 14.10126,15.439388 24.23704,26.12683 29.25,30.84375 2.6125,2.458218 4.75,4.918768 4.75,5.466797 0,0.548029 2.5875,3.518023 5.75,6.601562 3.1625,3.083538 9.35,9.654115 13.75,14.59961 8.55928,9.620426 19.63855,21.558936 23.14258,24.937496 1.17872,1.13651 4.72058,4.99141 7.86914,8.56641 3.14856,3.575 7.72494,8.75 10.16992,11.5 2.44499,2.75 8.12812,9.275 12.63086,14.5 4.50273,5.225 10.1,11.40417 12.4375,13.73242 2.3375,2.32824 4.25,4.52843 4.25,4.88867 0,0.36025 1.6875,2.54673 3.75,4.85743 2.0625,2.31071 5.55,6.41051 7.75,9.11132 2.2,2.7008 6.62487,7.48906 9.83203,10.64063 3.20717,3.15157 6.82257,7.20157 8.03516,9 2.74211,4.06688 6.09303,13.36978 7.66015,21.26953 0.65464,3.3 1.70219,6.6325 2.33008,7.40625 0.76914,0.9478 1.12339,7.47327 1.08399,20 -0.0497,15.79404 -0.32609,19.09896 -1.83203,21.95117 -0.97507,1.84674 -1.52547,4.3384 -1.22461,5.53711 0.30085,1.1987 -0.1401,4.63802 -0.97852,7.64258 -0.83843,3.00456 -2.12788,8.16289 -2.86719,11.46289 -1.6188,7.22575 -12.57852,28.46709 -16.95117,32.85547 -3.07952,3.0906 -11.18628,12.66125 -17.08789,20.17187 -5.6913,7.24297 -11.74537,13.98966 -17.47461,19.47266 -3.16085,3.025 -7.18352,7.64075 -8.93945,10.25781 -1.75593,2.61706 -4.18565,5.76706 -5.39844,7 -1.21279,1.23294 -3.9425,4.37969 -6.06641,6.99219 -2.1239,2.6125 -4.70844,4.75 -5.74218,4.75 -1.12782,0 -1.87891,0.70508 -1.87891,1.76172 0,0.96851 -1.60373,3.55601 -3.56445,5.75 -1.96072,2.19399 -5.38306,6.23828 -7.60352,8.98828 -2.22047,2.75 -7.30635,8.6 -11.30273,13 -3.99639,4.4 -9.63183,10.7 -12.52344,14 -8.79814,10.04073 -12.13573,13.5 -13.02344,13.5 -0.46656,0 -1.11049,0.7875 -1.43164,1.75 -0.32114,0.9625 -3.7255,5.02966 -7.5664,9.03711 -3.84093,4.00746 -6.98438,7.9596 -6.98438,8.7832 0,0.82359 -1.575,2.42672 -3.5,3.5625 -1.925,1.13578 -3.5,2.477 -3.5,2.98047 0,0.50348 -2.7,3.45056 -6,6.54883 -3.3,3.09827 -6,6.17139 -6,6.83008 0,2.77146 -3.79713,4.46206 -12.04102,5.36133 -8.47319,0.92428 -127.15615,0.4525 -134.12109,-0.53321 -2.01394,-0.28502 -4.40872,-0.10108 -5.32227,0.41016 -0.91354,0.51125 -3.62058,0.63301 -6.01562,0.26953 -2.39504,-0.36348 -4.95025,-0.39186 -5.67773,-0.0645 -0.72748,0.32753 -5.37227,0.36334 -10.32227,0.0801 -4.95,-0.28332 -77.625,-0.48315 -161.5,-0.44335 -83.875,0.0398 -153.452833,-0.26296 -154.617188,-0.67383 -1.164349,-0.4109 -3.751851,-0.37851 -5.75,0.0723 -1.998147,0.45064 -5.289276,0.44497 -7.314453,-0.0117 -2.025178,-0.45675 -5.577543,-0.47748 -7.892578,-0.0449 -2.410519,0.45033 -4.930545,0.38346 -5.898437,-0.1582 -0.929552,-0.52021 -5.233089,-0.94727 -9.564453,-0.94727 -4.751384,0 -8.244835,-0.45758 -8.804688,-1.15429 -1.73757,-2.16231 -2.18438,-7.14126 -2.753906,-30.6543 -0.313065,-12.925 -0.719138,-25.975 -0.902344,-29 -0.183206,-3.025 -0.32379,-16.75 -0.3125,-30.5 0.01129,-13.75 -0.02113,-29.275 -0.07227,-34.5 -0.05114,-5.225 -0.161874,-30.875 -0.246094,-57 -0.08422,-26.125 -0.494072,-52.225 -0.910156,-58 -0.416092,-5.775 -0.403255,-10.95 0.0293,-11.5 0.432541,-0.55 0.44526,-5.95 0.02734,-12 -0.417905,-6.05 -0.339217,-15.05 0.175781,-20 0.52336,-5.03038 0.625479,-18.26245 0.230469,-30 -0.388699,-11.55 -0.654404,-21.9 -0.589844,-23 0.06456,-1.1 0.332469,-19.325 0.59375,-40.5 0.261281,-21.175 0.533589,-39.625 0.605469,-41 0.409956,-7.842567 0.169099,-32.246854 -0.492187,-49.921875 -0.298362,-7.974713 -0.108389,-13.892879 0.466796,-14.585937 1.340217,-1.614866 9.202448,-2.070414 24.673829,-1.429688 4.817748,0.19952 7.69743,-0.132304 8.75,-1.005859 1.261571,-1.04701 1.865194,-1.054812 3.082031,-0.04492 1.145376,0.950578 5.33908,1.105124 17.25,0.640625 C 88.418886,21.314625 100.225,21.10567 106,21.1875 c 24.01164,0.340252 116.68075,-0.06586 131.36133,-0.576172 8.7239,-0.303251 16.3739,-0.95099 17,-1.439453 0.62611,-0.488464 2.48867,-0.707944 4.13867,-0.488281 1.65,0.219663 4.95075,0.655973 7.33594,0.970703 2.56941,0.339039 4.78222,0.127936 5.42773,-0.517578 0.39301,-0.393007 0.76561,-0.581035 1.17188,-0.5625 z M 5.3632812,22.982422 c -0.07505,0.118985 -0.146722,0.278746 -0.2128906,0.482422 0.015158,0.0022 0.039468,0.0037 0.054687,0.0059 0.052751,-0.162684 0.1053698,-0.325398 0.1582031,-0.488281 z M 290.90039,511.43945 c 0.12197,0.24309 -0.0745,0.8493 -0.50781,1.97852 -0.7497,1.95369 -2.39258,2.08399 -2.39258,0.18945 0,-0.76616 0.675,-1.65216 1.5,-1.96875 0.83846,-0.32174 1.27842,-0.44231 1.40039,-0.19922 z M 22.783203,541.97852 c 0.0019,1.1e-4 0.002,0.0215 0.0039,0.0215 0.0026,0 0.0052,-0.0213 0.0078,-0.0215 -0.0039,-3e-5 -0.0078,3e-5 -0.01172,0 z" />
  </g>
</svg>
