<?xml version="1.0" encoding="UTF-8" standalone="no"?>
<!-- Created with Inkscape (http://www.inkscape.org/) -->

<svg
   version="1.1"
   id="svg1"
   width="747"
   height="540"
   viewBox="0 0 747 540"
   sodipodi:docname="1.svg"
   inkscape:version="1.4 (86a8ad7, 2024-10-11)"
   xmlns:inkscape="http://www.inkscape.org/namespaces/inkscape"
   xmlns:sodipodi="http://sodipodi.sourceforge.net/DTD/sodipodi-0.dtd"
   xmlns="http://www.w3.org/2000/svg"
   xmlns:svg="http://www.w3.org/2000/svg">
  <defs
     id="defs1" />
  <sodipodi:namedview
     id="namedview1"
     pagecolor="#ffffff"
     bordercolor="#000000"
     borderopacity="0.25"
     inkscape:showpageshadow="2"
     inkscape:pageopacity="0.0"
     inkscape:pagecheckerboard="0"
     inkscape:deskcolor="#d1d1d1"
     showguides="true"
     inkscape:zoom="1.0410183"
     inkscape:cx="301.62774"
     inkscape:cy="318.4382"
     inkscape:window-width="1920"
     inkscape:window-height="1013"
     inkscape:window-x="2391"
     inkscape:window-y="605"
     inkscape:window-maximized="1"
     inkscape:current-layer="g1" />
  <g
     inkscape:groupmode="layer"
     inkscape:label="Image"
     id="g1">
    <path
       style="fill:#000000"
       d="m 188.74014,518.78293 c -0.68208,-0.4526 -5.29014,-0.8265 -10.24014,-0.83088 -75.47391,-0.0668 -155.489867,-0.74823 -157.260967,-1.33927 -4.827176,-1.6109 -5.006874,-3.32582 -4.622344,-44.11278 0.19704,-20.9 0.254118,-41.15 0.126838,-45 -0.407392,-12.32299 -0.187883,-93.93748 0.361751,-134.5 0.145326,-10.725 0.202876,-25.575 0.127887,-33 C 16.98882,235.80603 17.157645,31.653383 17.426673,26 17.570624,22.975 17.216511,19.033072 16.639755,17.240161 15.792944,14.607755 15.895507,13.675922 17.17262,12.398808 18.55063,11.020799 22.469401,10.841292 47.627067,11.003783 63.50718,11.106352 127.575,11.348069 190,11.540932 c 62.425,0.192863 114.85,0.385143 116.5,0.427289 19.4002,0.495546 65.24595,-0.372177 66.32622,-1.255357 0.88424,-0.7229241 1.55075,-0.7470318 2,-0.07234 0.37058,0.556556 3.59878,0.993579 7.17378,0.971161 3.575,-0.02242 8.075,-0.0052 10,0.03816 1.925,0.0434 14.525,0.06036 28,0.03768 13.475,-0.02268 28.1,0.09328 32.5,0.257687 4.4,0.164409 21.725,0.28536 38.5,0.26878 16.775,-0.01658 34.1,0.112557 38.5,0.286969 4.4,0.174413 12.275,0.290536 17.5,0.258051 5.225,-0.03248 10.48584,-0.04081 11.69076,-0.01851 C 560.8576,12.780608 571,20.533882 571,22.15019 571,23.243765 583.64427,37.719465 591.83239,46 c 3.5351,3.575 8.05649,8.525 10.04753,11 1.99105,2.475 4.18258,4.859861 4.87008,5.29969 0.6875,0.43983 1.25,1.226288 1.25,1.747685 0,1.933383 7.32384,11.044677 15.78232,19.634147 14.28835,14.509623 23.09767,24.089368 34.71768,37.753978 6.05,7.11452 13.7,15.68762 17,19.05132 7.76828,7.91824 20.04708,21.21088 24.5,26.52293 4.32622,5.16091 18.24203,20.19154 23.10607,24.95715 1.98334,1.94321 5.08923,6.2331 6.90197,9.5331 1.81274,3.3 4.07579,6.9 5.02899,8 0.95321,1.1 2.06305,3.125 2.46632,4.5 0.40326,1.375 1.2906,3.175 1.97186,4 0.68125,0.825 1.72547,3.3 2.32049,5.5 0.59501,2.2 2.03311,6.7 3.19578,10 1.92651,5.46802 2.0871,7.74684 1.81123,25.70205 -0.21635,14.08099 -0.65934,20.05809 -1.55271,20.95 -0.6875,0.68637 -1.25,2.64295 -1.25,4.34795 0,1.705 -0.40106,3.5275 -0.89125,4.05 -0.49019,0.5225 -1.11874,3.65 -1.39678,6.95 -1.43362,17.0154 -8.06785,33.2892 -17.8095,43.68679 -3.24636,3.46495 -5.90247,6.57514 -5.90247,6.91154 0,0.33641 -3.04039,3.7144 -6.75643,7.50666 -3.71604,3.79225 -9.32674,9.82001 -12.46823,13.39501 -3.14148,3.575 -6.62609,7.44736 -7.74357,8.60524 -1.11747,1.15788 -2.03177,2.50757 -2.03177,2.9993 0,0.49173 -1.34012,2.24437 -2.97805,3.89476 -16.73411,16.86139 -32.36396,33.38564 -35.5799,37.61592 -2.16813,2.85197 -5.40455,6.66255 -7.19205,8.46794 -1.7875,1.8054 -3.25,3.76275 -3.25,4.34969 0,0.58693 -0.3375,1.06766 -0.75,1.06827 -0.91063,0.001 -4.27628,3.39233 -11.9093,11.99888 -3.17061,3.575 -6.34434,6.6455 -7.05272,6.82332 -0.70839,0.17783 -1.28798,1.00789 -1.28798,1.84458 0,0.83669 -1.9125,3.58995 -4.25,6.11836 -2.3375,2.52841 -6.77985,7.32335 -9.87189,10.65542 -13.86358,14.93983 -16.43525,17.81983 -17.31232,19.388 -0.81626,1.45943 -13.42171,16.41829 -16.82392,19.9649 -0.68303,0.71202 -3.19289,2.84613 -5.57747,4.74247 -4.33068,3.44398 -4.34484,3.44723 -12.5,2.87309 -4.49042,-0.31614 -15.3644,-0.55437 -24.1644,-0.52939 -45.37429,0.12878 -54.46133,-0.009 -57.47353,-0.87316 -2.11728,-0.60723 -3.94663,-0.5855 -5.15504,0.0612 -2.6809,1.43477 -74.70376,0.31524 -76.51672,-1.18939 -0.8992,-0.74627 -1.77501,-0.79421 -2.60471,-0.14258 -1.72661,1.35605 -7.56577,2.37027 -8.15523,1.4165 -0.47017,-0.76075 -15.34131,-1.68306 -20.84477,-1.29279 -4.0009,0.28371 -10.73946,0.37315 -23.75,0.31524 -6.325,-0.0282 -13.075,0.14703 -15,0.38931 -1.925,0.24228 -5.22898,0.41857 -7.34217,0.39175 -2.1132,-0.0268 -4.49477,0.49286 -5.29238,1.15482 -1.09845,0.91163 -1.73101,0.92277 -2.60783,0.0459 -1.38015,-1.38015 -6.40078,-1.54401 -7.20961,-0.23531 -0.33028,0.53442 -5.71743,0.67531 -12.80901,0.335 -6.73145,-0.32303 -14.714,-0.53156 -17.739,-0.4634 -3.025,0.0682 -8.425,0.11222 -12,0.0979 -3.575,-0.0143 -7.0625,0.0292 -7.75,0.0966 -1.78714,0.17535 -5.54506,0.19992 -25.25,0.16503 -9.625,-0.017 -20.54194,0.30277 -24.25986,0.71069 -3.71792,0.40792 -7.31792,0.37135 -8,-0.0813 z m 331.95178,-5.51958 c -0.85174,-0.85175 -2.03911,-1.16681 -2.74745,-0.72903 -0.93875,0.58018 -0.80231,1.09646 0.55136,2.08629 2.35177,1.71966 4.15719,0.60384 2.19609,-1.35726 z M 90.568169,508.8897 c 0.479292,-0.77551 7.001022,-1.00166 21.628691,-0.75 18.0607,0.31072 21.06108,0.14857 21.80425,-1.17839 1.05538,-1.88439 1.5761,-43.21834 0.56508,-44.85422 -0.52009,-0.84151 -6.68748,-1.14005 -21.89511,-1.05984 -11.64409,0.0614 -21.913062,-0.17977 -22.819929,-0.53597 -0.906868,-0.35619 -1.993563,-0.0899 -2.41488,0.59183 -0.841861,1.36217 -0.617341,45.26145 0.242953,47.50334 0.64334,1.67652 1.948755,1.80451 2.888945,0.28325 z m 401.750041,0.0389 c 2.57384,-0.71472 4.21451,-0.73136 5.03421,-0.0511 0.77767,0.64541 2.64523,0.68685 5.18092,0.11496 2.35096,-0.53023 4.33292,-0.52622 4.86898,0.01 0.53876,0.53876 1.67261,0.49276 2.80606,-0.11384 2.02674,-1.08468 33.97364,-0.51206 35.84163,0.64243 0.57068,0.3527 1.64984,0.13315 2.39814,-0.48788 0.78076,-0.64797 2.50587,-0.84169 4.04821,-0.45459 7.59164,1.90538 9.21432,1.25499 16.55857,-6.6369 3.81395,-4.09835 6.93684,-7.82214 6.93976,-8.27511 0.003,-0.45296 1.56762,-2.47796 3.47711,-4.5 3.09622,-3.2787 7.25353,-7.85215 17.40694,-19.14929 1.71669,-1.91007 3.12126,-4.00096 3.12126,-4.64641 0,-0.64545 1.65532,-2.62693 3.67848,-4.4033 2.02317,-1.77636 5.95697,-5.98548 8.74178,-9.35359 6.13412,-7.41896 5.47938,-6.66331 14.07974,-16.24985 3.85,-4.29147 9.8125,-10.65115 13.25,-14.13263 3.4375,-3.48147 6.25,-6.62194 6.25,-6.97882 0,-0.35687 2.5875,-3.16624 5.75,-6.24303 3.1625,-3.0768 9.8,-10.02608 14.75,-15.44285 4.95,-5.41677 9.82747,-10.57497 10.83882,-11.46267 1.01134,-0.88769 3.19966,-3.56892 4.86291,-5.95828 1.66326,-2.38936 6.74367,-8.23936 11.28982,-13 4.54615,-4.76064 13.06832,-14.28071 18.93817,-21.15571 5.86985,-6.875 11.97134,-14.00153 13.55885,-15.83673 3.85547,-4.457 6.93143,-13.5679 8.54782,-25.31839 0.73049,-5.31032 1.76348,-10.48532 2.29554,-11.5 0.53207,-1.01468 1.50854,-5.44488 2.16995,-9.84488 0.66141,-4.4 1.48359,-8.45 1.82708,-9 1.07451,-1.72055 0.78675,-13.57848 -0.58146,-23.96034 -1.21858,-9.24648 -4.77903,-18.92047 -10.1358,-27.53966 -0.51273,-0.825 -1.60324,-3.03065 -2.42336,-4.90145 -2.16772,-4.94486 -12.99946,-18.34635 -21.93834,-27.14302 -4.2625,-4.1947 -7.75,-7.90523 -7.75,-8.24563 0,-0.3404 -2.475,-3.19475 -5.5,-6.34299 -3.025,-3.14825 -5.5,-5.98693 -5.5,-6.30819 0,-0.32125 -5.66701,-6.42839 -12.59334,-13.57141 -6.92634,-7.14302 -14.01384,-14.73979 -15.75,-16.8817 -1.73617,-2.14192 -5.52423,-6.64192 -8.41792,-10 -2.89369,-3.35809 -8.42859,-9.81811 -12.29977,-14.35561 -4.41302,-5.17259 -7.77522,-8.25 -9.0135,-8.25 -1.20842,0 -2.35991,-1.01246 -2.96673,-2.608525 -0.54547,-1.434689 -4.13433,-6.019031 -7.97525,-10.187428 C 614.14257,85.035651 611,81.206394 611,80.694587 611,79.614231 607.80078,75.799451 596.99927,64 592.71966,59.325 587.51204,53.25 585.42677,50.5 583.3415,47.75 577.89241,41.781153 573.31768,37.235896 568.74296,32.690639 565,28.411385 565,27.726443 565,27.041501 564.1134,25.9274 563.02977,25.250664 561.35723,24.206148 560.9,24.318339 560.00365,25.993178 559.08022,27.718616 549.66932,33 547.51818,33 c -0.43386,0 -1.83145,1.125 -3.10576,2.5 -1.27431,1.375 -3.16386,2.5 -4.199,2.5 -1.03514,0 -4.01238,2.25 -6.61608,5 -2.6037,2.75 -5.14141,5 -5.63935,5 -0.49795,0 -2.93036,2.025 -5.40536,4.5 -2.475,2.475 -4.93152,4.5 -5.45893,4.5 -0.52741,0 -1.25944,0.946853 -1.62675,2.104117 -0.3673,1.157264 -3.43512,5.712175 -6.81738,10.122025 -3.38226,4.409849 -6.7991,8.975496 -7.59297,10.145883 C 495.95139,86.898532 494,90.28608 494,91.622062 c 0,1.645113 -4.31762,9.632238 -6.96146,12.877938 -1.96114,2.40759 -3.48931,6.94922 -5.0472,15 -0.63858,3.3 -2.17128,7.575 -3.406,9.5 -2.86257,4.46292 -4.6552,9.65436 -3.95962,11.46702 0.29773,0.77587 -0.5881,4.02569 -1.96851,7.22182 -1.3804,3.19614 -2.80656,7.59561 -3.16925,9.7766 -0.36268,2.181 -1.25911,5.12511 -1.99206,6.54248 -0.73294,1.41737 -1.82739,5.48292 -2.43209,9.03455 -0.60471,3.55164 -1.75806,8.70753 -2.563,11.45753 -0.80495,2.75 -1.71641,9.5 -2.02548,15 -0.30907,5.5 -0.75536,13.50549 -0.99177,17.78998 -0.2364,4.28449 -1.0734,9.95712 -1.85998,12.60584 -0.78659,2.64872 -1.95884,10.84323 -2.605,18.21002 -0.64617,7.36679 -1.56298,14.36923 -2.03737,15.56097 -0.47439,1.19175 -1.37369,6.81216 -1.99844,12.48981 -0.62476,5.67764 -1.49172,10.77758 -1.92658,11.33318 -0.43486,0.55561 -0.68586,3.22008 -0.55777,5.92104 0.14903,3.14244 -0.74769,8.00379 -2.49019,13.5 -1.4977,4.72404 -3.63587,12.41416 -4.7515,17.08916 -1.11564,4.675 -3.18953,11.02529 -4.60865,14.11176 -1.41913,3.08647 -2.87782,7.58647 -3.24154,10 -0.36372,2.41353 -1.4657,5.73824 -2.44885,7.38824 -0.98315,1.65 -2.76775,5.925 -3.96579,9.5 -1.19803,3.575 -2.76693,7.625 -3.48644,9 -0.71951,1.375 -1.85311,4.525 -2.51911,7 -1.22295,4.54473 -6.66077,16.23077 -13.9598,30 -2.18665,4.125 -3.98716,8.07016 -4.00114,8.76702 -0.0275,1.37246 -7.4554,14.16616 -12.13224,20.89646 -1.59124,2.28991 -2.89317,4.43635 -2.89317,4.76987 0,2.02727 -19.7476,28.74151 -22.37019,30.26203 -0.76328,0.44254 -2.22975,2.19868 -3.2588,3.90254 -2.09374,3.4667 -11.2665,12.13512 -15.8925,15.01867 -5.60067,3.49111 -12.37261,8.87328 -12.96043,10.30063 -0.321,0.77947 -0.10284,1.89802 0.4848,2.48566 0.73176,0.73176 21.41343,1.12997 65.63033,1.26367 35.50904,0.10736 64.81799,0.45131 65.131,0.76433 1.0066,1.0066 23.60363,0.59467 27.554,-0.50229 z M 30,507.9121 c 0,-0.7234 1.403864,-0.85071 4.190123,-0.37998 2.304567,0.38936 7.499486,0.76641 11.544264,0.8379 6.609565,0.11682 7.394376,-0.0725 7.751528,-1.87002 0.907938,-4.56956 1.483161,-14.9046 1.633801,-29.35452 0.179244,-17.19374 0.126785,-17.32546 -6.541656,-16.42596 -4.411985,0.59514 -5.592046,0.60316 -15.913579,0.10824 -4.197582,-0.20127 -7.192328,0.10239 -7.760097,0.78687 -1.085228,1.3083 -0.652145,44.36645 0.464413,46.17308 C 26.300081,509.29456 30,509.39394 30,507.9121 Z m 171,0.22805 c 0.825,0.006 4.12906,0.0895 7.34236,0.18544 l 5.84236,0.17441 0.3953,-22.19861 c 0.28721,-16.12872 0.0783,-22.39451 -0.76393,-22.91505 -0.63758,-0.39405 -10.96257,-0.83293 -22.94442,-0.9753 -21.01498,-0.2497 -21.80761,-0.18823 -22.41922,1.73877 -0.34871,1.0987 -0.13808,3.20195 0.46806,4.67391 0.6985,1.69623 1.0064,9.19258 0.84079,20.47073 -0.2509,17.08648 -0.18173,17.81241 1.7387,18.24567 2.62508,0.59224 14.43932,1.00812 22,0.77443 3.3,-0.10199 6.675,-0.18048 7.5,-0.1744 z m 75,-0.37091 16.5,0.0185 0.12009,-14.64386 c 0.0661,-8.05412 0.15972,-15.76886 0.20817,-17.14386 0.0484,-1.375 -0.006,-4.75 -0.12009,-7.5 l -0.20817,-5 -23.5,-0.26773 -23.5,-0.26773 0.29469,20.76773 c 0.1753,12.35316 0.73584,21.65248 1.38346,22.95134 0.98192,1.96935 1.63987,2.12884 6.7053,1.62539 3.0891,-0.30703 13.04155,-0.54992 22.11655,-0.53976 z m 58.24191,-24.98518 c 4.96857,-4.0511 17.23856,-18.63693 16.39092,-19.48456 -0.83043,-0.83044 -24.27003,-0.64176 -25.64239,0.20641 -1.25742,0.77712 -0.91043,14.46277 0.5738,22.63152 0.61886,3.40598 0.77096,3.53323 2.39052,2 0.95129,-0.90059 3.78051,-3.3096 6.28715,-5.35337 z M 121,447.55902 c 0,-0.24254 -0.45,-0.7191 -1,-1.05902 -0.55,-0.33992 -1,-0.14148 -1,0.44098 0,0.58246 0.45,1.05902 1,1.05902 0.55,0 1,-0.19844 1,-0.44098 z M 266,424.5519 c 6.875,-0.071 14.79057,0.14066 17.59016,0.47042 2.79959,0.32975 6.06729,0.16354 7.26156,-0.36936 2.13534,-0.95282 2.16928,-1.31911 2.04405,-22.06093 -0.07,-11.60062 0.17962,-22.67171 0.55479,-24.60244 0.37517,-1.93072 0.25618,-4.63072 -0.26441,-6 l -0.94654,-2.48959 -23.86981,0.0434 -23.8698,0.0434 0.17432,2.4566 c 0.0959,1.35114 0.25081,13.25661 0.34429,26.45661 0.18652,26.33661 0.48188,27.70593 5.75917,26.69995 C 252.275,424.91454 259.125,424.62292 266,424.5519 Z m 83.25,0.23767 c 10.3125,0.13205 18.77336,-0.10409 18.80191,-0.52474 0.0285,-0.42066 0.29185,-12.08537 0.58509,-25.92158 0.56068,-26.45429 0.12183,-30.03626 -3.53768,-28.87477 -0.97837,0.31052 -9.83847,0.60198 -19.68909,0.64768 -9.85063,0.0457 -18.69773,0.29359 -19.66023,0.55086 -1.60868,0.42998 -1.75,2.52682 -1.75,25.96611 0,27.20723 0.42881,30.06105 4.3109,28.68967 1.20401,-0.42532 10.6266,-0.66527 20.9391,-0.53323 z M 53.879915,423.23913 c 1.098607,-1.07965 1.404396,-6.79742 1.5,-28.04762 L 55.5,368.5 40,368.6717 24.5,368.8434 24.233928,395.9217 23.967856,423 h 11.457055 c 6.30138,0 11.675574,0.35357 11.942653,0.78571 0.788469,1.27577 5.019336,0.92068 6.512351,-0.54658 z m 80.729365,0.58405 c 0.8075,-1.30656 1.47367,-50.29215 0.72194,-53.08634 -0.50312,-1.87009 1.80065,-1.75786 -39.268601,-1.91295 -10.053002,-0.038 -11.018085,0.7147 -10.104119,7.88013 0.336456,2.63779 0.743046,14.02098 0.903535,25.29598 0.160488,11.275 0.60555,20.82587 0.989027,21.22415 0.383476,0.39828 8.111364,0.86023 17.173088,1.02656 9.06172,0.16633 19.26179,0.40297 22.66683,0.52586 3.89264,0.14048 6.46099,-0.21345 6.9183,-0.95339 z M 214.64603,414 c 0.11916,-8.5676 0.23496,-20.18756 0.29896,-30 0.005,-0.825 0.29591,-3.79689 0.64562,-6.60419 0.80352,-6.45037 -0.71078,-9.83959 -3.90151,-8.73209 -1.20401,0.4179 -11.4141,0.77703 -22.6891,0.79805 l -20.5,0.0382 -0.18765,26.47266 c -0.11342,16.00007 0.19765,26.93692 0.78631,27.64622 0.69878,0.84197 7.25052,1.13225 23.18766,1.02734 L 214.5,424.5 Z M 403.8,377.8 c 1.761,-1.761 1.49348,-6.75015 -0.40092,-7.4771 -1.93824,-0.74377 -3.36302,1.26069 -3.38377,4.76043 -0.0228,3.84897 1.53452,4.96684 3.78469,2.71667 z M 216,340 c 0,-0.55 -0.45,-1 -1,-1 -0.55,0 -1,0.45 -1,1 0,0.55 0.45,1 1,1 0.55,0 1,-0.45 1,-1 z m 41.53176,-7.05139 c 0.77793,-1.25872 27.68784,-1.11127 28.50848,0.15622 0.29713,0.45892 1.87213,0.47861 3.5,0.0438 l 2.95976,-0.79064 0.30922,-17.42898 c 0.39015,-21.99042 -0.35071,-31.17349 -2.6259,-32.5484 -1.00582,-0.60782 -4.50068,-0.75792 -8.68332,-0.37294 -3.92623,0.36137 -7.97499,0.21704 -9.22039,-0.32869 -1.56979,-0.68789 -2.66857,-0.60102 -3.75,0.29648 -0.98166,0.81471 -1.97739,0.93669 -2.77961,0.3405 -1.36412,-1.01379 -18.15841,-0.24806 -19.28111,0.8791 -1.0204,1.02446 -1.40876,44.83294 -0.42049,47.43229 0.46412,1.22071 1.88059,2.41766 3.14772,2.6599 4.39826,0.8408 7.68935,0.70712 8.33564,-0.3386 z M 134.94541,307.35868 c -0.0561,-18.64975 -0.39379,-25.59007 -1.26099,-25.91343 -0.65143,-0.24291 -11.23259,-0.57124 -23.51368,-0.72961 -20.489528,-0.26423 -22.40711,-0.1425 -23.27408,1.47745 -1.018928,1.90389 -0.610575,46.84275 0.441116,48.54443 0.351904,0.56939 5.638349,1.03186 12.246568,1.07137 6.395056,0.0382 11.768236,0.20936 11.940386,0.38031 0.17216,0.17094 5.52946,0.38515 11.90513,0.47603 l 11.59212,0.16523 z m 79.68685,1.89622 c 0.1723,-20.40752 -0.007,-23.48666 -1.468,-25.22389 -1.54946,-1.84229 -2.94039,-1.97702 -20.16426,-1.9531 -10.175,0.0141 -19.7375,0.0205 -21.25,0.0142 -2.50301,-0.0105 -2.75245,0.32164 -2.77729,3.6982 -0.21502,29.23496 -0.0594,43.36125 0.49702,45.11438 0.66778,2.10399 0.98063,2.12954 22.82168,1.8643 L 214.43602,332.5 Z m 153.42704,21.6834 c 1.29915,-2.05319 1.21164,-47.65282 -0.093,-48.45913 -1.93767,-1.19754 -10.44968,-1.48894 -19.4663,-0.66639 -4.95,0.45157 -12.05871,0.55392 -15.79712,0.22746 -9.6399,-0.84183 -10.36108,0.10167 -8.95096,11.71027 0.58456,4.81222 0.71574,9.37163 0.29153,10.13203 -0.42421,0.76039 -0.37341,3.15342 0.11291,5.31783 0.54074,2.40669 0.50198,5.36558 -0.0998,7.61746 -1.22503,4.58411 -1.18351,7.64701 0.1677,12.37039 l 1.05508,3.68822 20.93494,-0.24993 c 16.92231,-0.20201 21.10937,-0.5256 21.84502,-1.68821 z M 419,330.24668 c 0,-0.87406 0.65283,-2.31057 1.45074,-3.19224 0.7979,-0.88168 1.88456,-4.06711 2.41479,-7.07874 2.27199,-12.9046 4.52122,-22.67982 5.86184,-25.4757 0.79116,-1.65 1.28867,-4.8 1.10556,-7 l -0.33293,-4 -13.18768,-0.8809 c -7.25322,-0.4845 -13.93363,-0.59466 -14.84535,-0.2448 -1.77478,0.68105 -1.93689,9.03571 -0.71713,36.95726 0.60064,13.74898 0.25228,13.34875 11.17274,12.83638 C 417.58421,331.90231 419,331.51797 419,330.24668 Z m -364.437926,0.52458 c 1.026335,-1.02634 2.026462,-9.48642 1.398551,-11.83036 -0.842878,-3.1464 -0.401687,-29.61782 0.543434,-32.60598 0.930768,-2.94278 -3.174669,-5.57612 -8.771979,-5.62657 -7.124457,-0.0642 -21.351141,0.93818 -22.385162,1.57724 -0.583273,0.36049 -0.911193,7.36152 -0.814351,17.38624 0.08917,9.23051 -0.131836,19.62285 -0.491123,23.0941 -0.759728,7.34011 -0.313916,7.96767 5.978175,8.41532 6.066023,0.43156 24.000503,0.13196 24.542455,-0.40999 z M 197,268.55902 c 0,-0.24254 -0.45,-0.7191 -1,-1.05902 -0.55,-0.33992 -1,-0.14148 -1,0.44098 0,0.58246 0.45,1.05902 1,1.05902 0.55,0 1,-0.19844 1,-0.44098 z M 319.15,257.5 c 0,-0.5225 -0.48375,-1.11125 -1.075,-1.30833 -0.59125,-0.19709 -1.075,0.39166 -1.075,1.30833 0,0.91667 0.48375,1.50542 1.075,1.30833 0.59125,-0.19708 1.075,-0.78583 1.075,-1.30833 z M 214.13972,243.71365 c 0.96591,-1.72487 0.70392,-17.11337 -0.36116,-21.21365 -0.28574,-1.1 -0.26951,-2.4293 0.0361,-2.954 0.94815,-1.6281 1.04575,-24.93839 0.11172,-26.68363 -0.77537,-1.44879 -3.42614,-1.66126 -21.65493,-1.73568 -11.42428,-0.0466 -21.44641,0.12574 -22.27141,0.38308 -1.28241,0.40001 -1.5,4.20486 -1.5,26.22906 0,14.16864 0.29473,26.2115 0.65496,26.7619 0.40364,0.61673 8.96814,1.00045 22.31969,1 19.76059,-6.7e-4 21.75265,-0.15774 22.66507,-1.78708 z m 41.03928,0.74041 c 2.57345,-0.36292 5.22906,-0.3199 5.90135,0.0956 1.98701,1.22804 28.85495,1.24835 29.77219,0.0225 0.44124,-0.58969 0.88968,-11.94276 0.99654,-25.22905 0.16212,-20.15751 -0.0503,-24.40143 -1.2828,-25.63398 -1.17896,-1.17895 -5.06872,-1.50949 -19.27168,-1.63767 -9.78703,-0.0883 -18.76519,-0.4038 -19.95146,-0.70106 -1.18627,-0.29725 -3.12443,-0.0226 -4.30702,0.61027 -2.11443,1.13161 -2.14706,1.53835 -1.96325,24.47034 0.10281,12.82579 -0.14061,23.84958 -0.54093,24.49731 -0.98911,1.60041 2.41785,5.19142 4.38584,4.62278 0.87022,-0.25145 3.68777,-0.75411 6.26122,-1.11704 z M 101,243.82002 c 0.825,0.0212 8.35712,0.2758 16.73805,0.56583 13.77301,0.47662 15.32749,0.36021 16.16831,-1.21088 0.51164,-0.956 0.90422,-12.82101 0.8724,-26.36668 l -0.0579,-24.62849 -2.61045,-0.50204 c -1.43575,-0.27612 -9.23274,-0.24884 -17.32663,0.0606 -8.49856,0.32494 -15.258591,0.16888 -16,-0.36936 -1.611057,-1.16959 -9.589898,-0.96295 -10.83341,0.28056 -1.019844,1.01984 -1.524805,50.61203 -0.531708,52.21889 0.358751,0.58048 3.007124,0.77008 6.348411,0.4545 3.153082,-0.2978 6.407877,-0.52413 7.232877,-0.50295 z M 369.14712,219 c -0.18964,-14.025 -0.56281,-25.725 -0.82928,-26 -0.80677,-0.83261 -41.72689,-1.02182 -43.026,-0.19895 -0.88468,0.56037 -1.2444,7.36812 -1.3435,25.42632 -0.0744,13.56357 0.11328,25.06332 0.41715,25.55499 0.30387,0.49168 10.58163,0.85428 22.83946,0.8058 L 369.49191,244.5 Z M 428,243.9384 c 0.825,-0.011 2.91422,0.26741 4.64272,0.61859 l 3.14272,0.63852 0.79375,-5.34776 c 0.43657,-2.94126 0.69406,-5.73262 0.5722,-6.20301 -0.12186,-0.47039 0.24593,-1.41855 0.8173,-2.10701 0.57138,-0.68847 1.25328,-5.2536 1.51533,-10.14474 0.26206,-4.89115 0.92332,-11.36799 1.46947,-14.39299 2.28847,-12.67528 2.30726,-12.96271 0.88275,-13.50934 -0.75911,-0.2913 -7.44531,-0.71479 -14.85822,-0.9411 -7.41291,-0.2263 -16.0503,-0.61948 -19.1942,-0.87372 -3.89826,-0.31525 -6.05197,-0.0577 -6.77199,0.80991 -1.20166,1.44791 -0.75467,49.50329 0.47902,51.49944 0.54211,0.87716 3.97145,1.03283 12.87405,0.58439 6.67431,-0.3362 12.8101,-0.62023 13.6351,-0.63118 z M 55.480692,218.68729 c -0.01062,-13.85301 -0.375692,-25.92118 -0.811274,-26.81816 -0.595955,-1.22723 -1.581175,-1.4726 -3.980692,-0.99139 -1.753799,0.35171 -8.031053,0.6356 -13.949453,0.63087 -9.16453,-0.007 -10.839288,0.23834 -11.290346,1.65619 -0.746051,2.34513 -0.79478,48.46658 -0.05248,49.66766 0.356042,0.57608 6.756909,0.99913 15.357025,1.01497 L 55.5,243.87458 Z M 313.21078,217.25 c 0.80607,-4.81066 0.33214,-9.56903 -0.9972,-10.01214 -0.9734,-0.32447 -1.24226,1.176 -1.10496,6.16667 0.18586,6.75593 1.27933,8.7562 2.10216,3.84547 z M 66.729167,200.39583 c -0.332292,-0.33229 -1.194792,-0.36781 -1.916667,-0.0789 -0.797733,0.31922 -0.560776,0.55618 0.604167,0.60416 1.054166,0.0434 1.644791,-0.19293 1.3125,-0.52522 z M 442,189 c 0,-0.55 -0.19844,-1 -0.44098,-1 -0.24254,0 -0.7191,0.45 -1.05902,1 -0.33992,0.55 -0.14148,1 0.44098,1 0.58246,0 1.05902,-0.45 1.05902,-1 z m -269.5,-8 c 0.33992,-0.55 0.14148,-1 -0.44098,-1 -0.58246,0 -1.05902,0.45 -1.05902,1 0,0.55 0.19844,1 0.44098,1 0.24254,0 0.7191,-0.45 1.05902,-1 z m 245,-12 c 0.33992,-0.55 -0.11008,-1 -1,-1 -0.88992,0 -1.33992,0.45 -1,1 0.33992,0.55 0.78992,1 1,1 0.21008,0 0.66008,-0.45 1,-1 z M 190.10215,154.54002 c 4.06882,0.29673 11.19464,0.18411 15.83517,-0.25026 l 8.43732,-0.78976 -0.25736,-25.85073 c -0.14155,-14.21791 -0.48731,-26.44998 -0.76836,-27.18238 -0.73469,-1.914585 -42.55192,-2.132141 -44.13089,-0.2296 -0.71527,0.86184 -0.95233,8.44531 -0.71203,22.77735 0.19812,11.81695 0.39032,23.62286 0.42711,26.23536 L 169,154 h 4.94098 c 2.71754,0 5.23261,0.47185 5.58903,1.04856 0.45195,0.73126 1.03027,0.73134 1.91117,2.5e-4 0.76891,-0.63813 4.15765,-0.83721 8.66097,-0.50879 z M 96,153.98095 c 0,-0.61073 1.094722,-0.7443 2.732121,-0.33334 1.502669,0.37715 3.190169,0.63565 3.749999,0.57445 0.55983,-0.0612 7.53217,-0.16557 15.49408,-0.23195 13.52645,-0.11276 17.81537,-0.9003 16.49936,-3.02966 -0.27633,-0.44711 -0.51627,-11.96148 -0.5332,-25.58749 -0.0193,-15.53199 -0.41624,-25.23903 -1.06403,-26.019558 -0.75551,-0.910339 -1.74576,-0.974105 -3.68391,-0.237222 -2.82655,1.07465 -22.65784,1.33348 -24.30225,0.317177 -0.53892,-0.333069 -4.63392,-0.644589 -9.100014,-0.692268 -7.712376,-0.08234 -8.165752,0.03498 -9.027917,2.336111 -0.499263,1.33254 -0.591972,6.0228 -0.206019,10.4228 0.9721,11.08229 1.134687,24.74547 0.373711,31.40529 C 86.172789,149.54906 87.192992,153 89.916232,153 c 1.081154,0 2.243849,0.45 2.583768,1 0.808656,1.30843 3.5,1.29378 3.5,-0.019 z m 156,-0.19718 c 20.91236,1.01596 39.0212,0.99094 39.66751,-0.0548 0.41403,-0.66992 0.6871,-7.29549 0.60682,-14.7235 -0.26241,-24.28146 -0.24136,-28.44312 0.16849,-33.31613 0.26107,-3.10399 -0.0118,-4.9618 -0.76911,-5.23669 -0.64554,-0.23432 -10.96516,-0.585881 -22.93248,-0.781241 -17.19544,-0.280705 -21.98967,-0.07699 -22.85972,0.971361 -1.25367,1.51058 -0.69729,49.58552 0.6095,52.6647 0.50767,1.19625 1.31523,1.57007 2.38803,1.10545 0.89153,-0.38611 2.29596,-0.66923 3.12096,-0.62915 z m 98.15507,0.0113 c 16.10792,0.0145 16.92705,-0.08 17.99568,-2.07674 1.36303,-2.54684 1.27043,-49.69714 -0.10029,-51.06786 -0.49673,-0.49673 -10.22523,-0.975206 -21.61889,-1.063284 -15.7856,-0.12203 -21.02361,0.14772 -22.00934,1.133454 -1.0218,1.0218 -1.16966,6.59727 -0.70373,26.53648 0.64815,27.73675 0.79144,28.31919 6.671,27.11467 1.58922,-0.32558 10.48373,-0.58511 19.76557,-0.57672 z M 45.459382,152.72899 56.418765,152.5 56.299223,126.63984 c -0.06575,-14.22309 -0.53211,-26.27273 -1.036361,-26.776978 -0.50425,-0.50425 -7.848331,-0.792178 -16.320179,-0.63984 L 23.539322,99.5 l 0.171377,25.75009 c 0.09426,14.16255 0.460781,26.21835 0.814496,26.79068 0.353715,0.57232 1.392748,0.80755 2.308962,0.52274 0.916214,-0.28482 2.278157,-0.13328 3.026541,0.33675 0.748384,0.47003 2.098384,0.6753 3,0.45616 0.901616,-0.21915 6.571024,-0.50149 12.598684,-0.62743 z m 399.478978,-0.15472 c 0.54473,-0.65635 1.00992,-4.09157 1.03377,-7.63382 0.0238,-3.54225 0.15238,-14.98218 0.28562,-25.42208 L 446.5,100.53674 442.87258,99.945714 c -1.99508,-0.325065 -7.17008,-0.210329 -11.5,0.254966 -4.32992,0.4653 -11.47258,0.62736 -15.87258,0.36013 -11.26425,-0.684128 -12.8058,-0.655007 -13.71998,0.25917 -0.44458,0.44458 -0.84983,12.1983 -0.90056,26.1194 -0.0739,20.28775 0.17695,25.48482 1.26415,26.18652 2.15205,1.38898 41.60626,0.88041 42.79475,-0.55163 z M 652,119 c 0,-0.55 -0.47656,-1 -1.05902,-1 -0.58246,0 -0.7809,0.45 -0.44098,1 0.33992,0.55 0.81648,1 1.05902,1 C 651.80156,120 652,119.55 652,119 Z M 199.22245,66.620791 c 15.41419,0.383251 15.11307,0.676202 14.41575,-14.024493 -0.28949,-6.102964 -0.81876,-12.956132 -1.17615,-15.229263 -0.40762,-2.592642 -0.24212,-4.384925 0.44408,-4.809017 1.33881,-0.827432 1.42469,-9.48649 0.11462,-11.558018 -0.72888,-1.152547 -3.21542,-1.526345 -10.73468,-1.613734 -5.38234,-0.06255 -14.85084,-0.262782 -21.04112,-0.444951 -7.44679,-0.219146 -11.63714,0.05087 -12.38429,0.798023 -1.63218,1.632183 -1.61364,43.907681 0.02,45.541297 0.65715,0.657148 3.38988,1.200339 6.07273,1.20709 2.68284,0.0068 5.1634,0.297304 5.51234,0.645673 0.34893,0.348368 2.0744,0.309968 3.83436,-0.08534 1.75997,-0.395303 8.47504,-0.587575 14.92239,-0.427272 z m -89.67959,-0.981976 c 3.82643,0.473652 10.91937,0.714921 15.7621,0.536153 L 134.10993,65.849936 133.80496,42.674968 133.5,19.5 111,19.448285 c -12.375,-0.02844 -22.955195,0.09103 -23.511545,0.265485 -0.64294,0.201613 -1.004986,8.419436 -0.993543,22.551715 l 0.018,22.234515 5.493542,0.307284 c 3.021449,0.169005 5.888792,0.699254 6.371873,1.17833 0.499215,0.495075 1.596794,0.422358 2.54286,-0.168469 1.09247,-0.682256 4.05555,-0.743545 8.62167,-0.17833 z M 268,66.072852 c 6.325,0.03276 13.975,0.142272 17,0.243357 L 290.5,66.5 290.76843,43.25 291.03686,20 287.76843,19.817603 C 285.97079,19.717284 279.55,19.564882 273.5,19.478932 c -6.05,-0.08595 -15.05,-0.326914 -20,-0.535475 l -9,-0.3792 -0.18053,22.287341 c -0.17164,21.189535 -0.0806,22.387296 1.84874,24.316608 1.63504,1.635042 2.83573,1.914242 6.18053,1.437174 C 254.63193,66.279727 261.675,66.04009 268,66.072852 Z m 71.33702,-0.245465 c 2.03488,0.561859 3.88504,0.622327 4.18513,0.136782 0.29582,-0.478653 5.68659,-0.60071 11.97949,-0.271238 7.93255,0.415317 11.86463,0.247983 12.82084,-0.545603 2.07604,-1.72296 2.19732,-40.829735 0.13517,-43.583103 -1.3506,-1.803296 -2.89332,-1.94047 -22.54215,-2.004371 -11.60079,-0.03773 -21.51137,0.190382 -22.02353,0.506911 -0.54333,0.335801 -0.81889,9.917431 -0.66158,23.004371 L 323.5,65.5 l 4,0.532973 c 2.2,0.293136 4.94269,0.140209 6.09488,-0.339835 1.24266,-0.517743 3.57861,-0.463129 5.74214,0.134249 z m 107.93633,-4.90528 C 447.82487,54.839784 447.23135,25.26843 446.48212,21.5 446.10161,19.586176 445.36094,19.507988 429.29224,19.685392 420.05651,19.787358 411.825,19.907372 411,19.95209 c -0.825,0.04472 -2.8756,-0.189528 -4.55688,-0.520547 -1.98133,-0.390093 -3.44965,-0.128598 -4.17319,0.743207 -1.79123,2.158306 -2.15098,43.028999 -0.39749,45.158504 C 403.07667,66.795712 405.90934,67 424.98356,67 h 21.73866 z m 44.28482,1.988549 C 493.17618,60.661518 495.625,57.52124 497,55.932263 c 1.375,-1.588978 4.25337,-4.923773 6.39638,-7.410657 C 505.53939,46.034723 507.95458,44 508.76348,44 c 0.80889,0 4.59712,-3.138826 8.41827,-6.97517 5.91199,-5.935477 7.00225,-7.572605 7.31445,-10.983294 0.21681,-2.368652 -0.11393,-4.305278 -0.80858,-4.734596 -1.87835,-1.160885 -37.28116,-1.411973 -40.24421,-0.285424 -1.95098,0.74176 -2.46965,1.462649 -1.97312,2.742382 0.37049,0.954856 0.64176,9.160106 0.60283,18.23389 -0.0833,19.409522 0.3886,22.840718 3.30297,24.017692 3.11935,1.259759 2.99864,1.320385 6.18208,-3.104824 z M 42.336407,64.901481 C 49.763442,65.277036 54.472195,65.127474 54.976464,64.5 55.418472,63.95 55.717089,53.40832 55.640057,41.074046 L 55.5,18.648091 l -7,0.352937 c -3.85,0.194115 -10.9375,0.382475 -15.75,0.418577 -7.049075,0.05288 -8.771743,0.358661 -8.861851,1.573017 -0.06152,0.829058 -0.265712,10.494934 -0.453766,21.479725 -0.290671,16.978962 -0.109246,20.229444 1.210497,21.687743 1.093554,1.208364 2.188305,1.482996 3.703766,0.929135 1.183245,-0.432444 7.477737,-0.516929 13.987761,-0.187744 z M 283.44721,14.91459 c -0.32197,-0.520968 -1.01165,-0.683779 -1.53262,-0.361804 -0.52097,0.321976 -0.68378,1.011657 -0.3618,1.532624 0.32197,0.520968 1.01165,0.683779 1.53262,0.361804 0.52097,-0.321976 0.68378,-1.011657 0.3618,-1.532624 z M 558.25218,6.5 c 0.0111,-2.2 0.21589,-2.9822534 0.45508,-1.7383408 0.23919,1.2439125 0.23011,3.0439125 -0.0202,4 C 558.43679,9.7177466 558.24108,8.7 558.25218,6.5 Z"
       id="path1" />
    <rect
       style="fill:#000000"
       id="rect1"
       width="19.211958"
       height="14.408968"
       x="390.96335"
       y="363.10602" />
    <rect
       style="fill:#000000"
       id="rect2"
       width="19.211958"
       height="89.335602"
       x="301.62775"
       y="188.27719" />
    <rect
       style="fill:#000000"
       id="rect3"
       width="24.975546"
       height="18.25136"
       x="184.4348"
       y="254.55844" />
    <rect
       style="fill:#000000"
       id="rect4"
       width="1.9211957"
       height="23.05435"
       x="398.64813"
       y="365.98779" />
    <rect
       style="fill:#000000"
       id="rect5"
       width="24.014948"
       height="27.857338"
       x="381.35736"
       y="354.46063" />
    <rect
       style="fill:#000000"
       id="rect6"
       width="39.384514"
       height="25.936144"
       x="403.45111"
       y="156.57745" />
    <rect
       style="fill:#000000"
       id="rect7"
       width="18.25136"
       height="13.448371"
       x="161.38045"
       y="168.10463" />
    <rect
       style="fill:#000000"
       id="rect8"
       width="7.684783"
       height="29.778534"
       x="63.39946"
       y="186.35599" />
    <rect
       style="fill:#000000"
       id="rect9"
       width="31.69973"
       height="12.487773"
       x="196.92256"
       y="337.16986" />
    <rect
       style="fill:#000000"
       id="rect10"
       width="32.660328"
       height="12.487773"
       x="101.82338"
       y="438.99323" />
  </g>
</svg>
