<?xml version="1.0" encoding="UTF-8" standalone="no"?>
<!-- Created with Inkscape (http://www.inkscape.org/) -->

<svg
   version="1.1"
   id="svg1"
   width="744"
   height="540"
   viewBox="0 0 744 540"
   sodipodi:docname="3.svg"
   inkscape:version="1.4 (86a8ad7, 2024-10-11)"
   xmlns:inkscape="http://www.inkscape.org/namespaces/inkscape"
   xmlns:sodipodi="http://sodipodi.sourceforge.net/DTD/sodipodi-0.dtd"
   xmlns="http://www.w3.org/2000/svg"
   xmlns:svg="http://www.w3.org/2000/svg">
  <defs
     id="defs1" />
  <sodipodi:namedview
     id="namedview1"
     pagecolor="#ffffff"
     bordercolor="#000000"
     borderopacity="0.25"
     inkscape:showpageshadow="2"
     inkscape:pageopacity="0.0"
     inkscape:pagecheckerboard="0"
     inkscape:deskcolor="#d1d1d1"
     inkscape:zoom="1.4722222"
     inkscape:cx="372.22642"
     inkscape:cy="269.66038"
     inkscape:window-width="1920"
     inkscape:window-height="1013"
     inkscape:window-x="2391"
     inkscape:window-y="605"
     inkscape:window-maximized="1"
     inkscape:current-layer="g1" />
  <g
     inkscape:groupmode="layer"
     inkscape:label="Image"
     id="g1">
    <rect
       style="fill:#000000"
       id="rect1"
       width="24.452829"
       height="11.54717"
       x="203.77359"
       y="163.01888" />
    <path
       id="path1"
       style="fill:#000000"
       d="m 554.48242,0 c -1.39608,0 -1.60534,0.93288676 -1.32031,5.8710938 L 553.5,11.740234 545,12.287109 c -4.675,0.301004 -30.74653,0.367677 -57.9375,0.146485 -44.27734,-0.360197 -49.62359,-0.235732 -51.20703,1.197265 -1.62238,1.46823 -1.90591,1.461302 -3.44531,-0.07813 -1.51716,-1.517161 -5.65621,-1.674173 -43.29297,-1.652343 -22.88895,0.01327 -42.51719,-0.01304 -43.61719,-0.05859 -1.1,-0.04554 -14.825,0.248495 -30.5,0.654297 -15.675,0.405801 -29.175,0.738434 -30,0.740234 -0.825,0.0018 -12.525,-0.05527 -26,-0.126953 -13.475,-0.07168 -25.175,-0.112332 -26,-0.0918 -0.825,0.02055 -29.175,-0.127966 -63,-0.330078 -33.825,-0.202113 -63.46215,0.02366 -65.86133,0.501953 -2.98592,0.595263 -4.797002,0.509706 -5.738279,-0.271484 -0.756313,-0.627684 -2.167215,-0.829327 -3.136719,-0.447266 -1.812881,0.71442 -38.75579,0.92494 -61.654297,0.351563 L 20.716797,12.5 18.609375,15.326172 c -2.059436,2.761444 -2.100475,3.562979 -1.753906,34.5 C 17.05062,67.246252 17.149945,117.725 17.078125,162 c -0.13584,83.74144 0.159458,228.30422 0.591797,290.5 0.142358,20.47948 -0.154057,37.22259 -0.6875,38.83594 -1.22832,3.71493 0.575105,16.78499 2.896484,20.99218 0.96247,1.74438 2.785583,3.62188 4.052735,4.17188 0.127157,0.0552 0.185334,0.12901 0.296875,0.18555 1.67098,0.2924 3.337986,0.60769 5.019531,0.84765 2.410601,0.37437 4.825637,0.72976 7.230469,1.14258 L 36.5,518.02539 92,518.10547 c 30.525,0.0444 56.625,0.0727 58,0.0625 1.375,-0.0102 5.2,0.013 8.5,0.0508 3.3,0.0379 7.35,0.015 9,-0.0508 1.65,-0.0657 5.925,-0.0559 9.5,0.0215 12.62107,0.2733 29.55825,-0.4211 34.27148,-1.40429 3.32214,-0.69297 5.16528,-0.66724 6.07032,0.084 0.75339,0.62526 6.10409,1.10201 12.72851,1.13281 6.28593,0.0293 13.90469,0.10914 16.92969,0.17774 3.025,0.0686 14.275,0.0563 25,-0.0254 10.725,-0.0817 20.175,-0.12727 21,-0.10157 1.47532,0.046 99.7323,-0.10076 132,-0.19726 56.66457,-0.16937 85.71343,-0.5887 87.18945,-1.25781 0.9291,-0.42118 2.44118,-0.34393 3.35938,0.16992 1.01207,0.56636 3.49686,0.58172 6.31055,0.041 5.70969,-1.09715 26.39235,-0.27953 29.06054,1.14844 2.86197,1.53168 6.64493,1.27225 8.16602,-0.56055 0.73224,-0.88229 2.38123,-2.00444 3.66406,-2.49218 1.28284,-0.48773 3.10125,-2.23716 4.04102,-3.88868 0.93977,-1.65149 2.21829,-3.00676 2.84179,-3.00976 0.6235,-0.003 2.84726,-1.91836 4.94141,-4.25586 2.09414,-2.3375 7.50988,-7.625 12.0332,-11.75 7.49329,-6.83344 21.62812,-22.63513 30.41406,-34 1.91337,-2.475 6.29102,-7.54673 9.72852,-11.26953 3.4375,-3.72281 6.25,-7.4493 6.25,-8.28125 0,-0.83195 0.65348,-1.76345 1.45312,-2.07031 0.79967,-0.30685 2.36,-2.09287 3.4668,-3.96875 1.1068,-1.87589 2.59084,-3.41774 3.29688,-3.42774 0.70605,-0.01 2.1832,-1.30357 3.2832,-2.875 1.1,-1.57142 5.00344,-6.17585 8.67383,-10.23242 3.67039,-4.05657 8.17039,-9.25575 10,-11.55469 1.82961,-2.29894 6.92617,-8.17534 11.32617,-13.05859 4.4,-4.88325 9.35,-10.56213 11,-12.61914 6.58895,-8.21429 11.67359,-14.31638 14.75781,-17.70899 1.78289,-1.96117 4.36719,-5.04777 5.74219,-6.85937 5.54518,-7.30595 9.3462,-11.85795 14.67383,-17.57422 3.07564,-3.3 6.8821,-7.39697 8.45898,-9.10547 1.57688,-1.7085 2.86719,-3.74768 2.86719,-4.5293 0,-0.78163 0.65718,-2.35834 1.46094,-3.50585 4.56749,-6.52101 8.51485,-25.51509 8.53125,-41.05079 0.004,-3.95504 0.45781,-7.46867 1.00781,-7.80859 1.65725,-1.02424 1.24981,-23.96641 -0.5,-28.1543 -0.825,-1.97451 -1.5,-4.87832 -1.5,-6.45312 0,-1.57479 -1.28542,-5.45837 -2.85742,-8.62891 C 733.69328,218.28987 731,212.35241 731,211.51367 731,209.56413 720.31726,193.63234 715.64258,188.60938 712.77155,185.52443 710.57598,183 710.76367,183 c 0.18769,0 -1.98568,-3.33234 -4.83008,-7.40625 -5.18123,-7.42083 -8.42026,-11.22555 -12.98828,-15.24609 C 691.60087,159.16435 686.225,153.59529 681,147.9707 c -5.225,-5.6246 -12.3125,-12.93408 -15.75,-16.24414 -3.4375,-3.31006 -6.25,-6.55492 -6.25,-7.21094 0,-0.65603 -2.1375,-3.21816 -4.75,-5.6914 -9.48366,-8.97812 -18.98321,-19.400091 -20.68555,-22.695314 -0.95758,-1.85359 -5.99521,-7.700262 -11.19531,-12.99414 -5.20009,-5.293878 -9.69295,-10.575195 -9.98437,-11.736328 -0.29143,-1.161136 -2.18436,-3.054163 -4.20704,-4.205079 C 606.15506,66.042442 602.7,62.997972 600.5,60.425781 595.15319,54.174408 585.62609,44.019423 571.58594,29.605469 565.21336,23.063225 560,17.126177 560,16.412109 c 0,-0.714068 -0.97927,-1.984193 -2.17578,-2.822265 -1.88157,-1.317878 -2.14264,-2.338868 -1.92969,-7.5566409 C 556.10074,0.98055975 555.87232,0 554.48242,0 Z M 435.86133,20.302734 c 2.86815,-0.07524 4.84569,0.209493 5.26367,0.871094 0.46066,0.72917 0.81712,6.805202 0.79102,13.501953 -0.0261,6.696751 0.26355,16.423136 0.64453,21.613281 0.55003,7.493021 0.40972,9.619547 -0.6836,10.324219 -1.4214,0.916127 -39.50414,1.27719 -40.7832,0.386719 -0.395,-0.275 -0.79818,-10.497987 -0.89648,-22.71875 -0.16259,-20.20856 -0.021,-22.303768 1.5625,-23.138672 2.00049,-1.054738 15.86817,-0.812868 18.50195,0.322266 0.96925,0.417737 3.21925,0.473163 5,0.125 3.97303,-0.776787 7.73146,-1.211872 10.59961,-1.28711 z m 89.06445,0.646485 -0.1289,23.068359 c -0.0857,15.337939 -0.492,23.305598 -1.2129,23.775391 -1.10215,0.718242 -22.73143,0.939128 -41.32421,0.421875 C 472.19051,67.934716 472.01056,67.887745 471.375,65.355469 471.01953,63.939142 471.07317,59.34262 471.49609,55.140625 471.91894,50.93863 472.11142,44.575 471.92383,41 c -0.1876,-3.575 -0.35981,-9.419631 -0.38281,-12.988281 l -0.041,-6.488281 26.71289,-0.28711 z m -188.23047,0.08594 c 24.26834,-0.07182 28.69418,0.02232 29.29102,0.619141 0.28214,0.282134 0.59847,4.638014 0.70117,9.679687 0.10271,5.041673 0.32771,15.016016 0.5,22.166016 l 0.3125,13 -25.25,0.134766 c -13.8875,0.0743 -25.31277,-0.150702 -25.38867,-0.5 -0.076,-0.349298 -0.24774,-9.688182 -0.38281,-20.753907 -0.2208,-18.090135 -0.0802,-20.107446 1.38867,-20 1.13571,0.08308 1.54044,-0.554252 1.32812,-2.08789 -0.30484,-2.20191 -0.27195,-2.205223 17.5,-2.257813 z M 209,21.050781 l 0.11914,10.22461 c 0.0652,5.623773 0.0199,10.674609 -0.0996,11.224609 -0.1198,0.55 -0.16993,6.258097 -0.11133,12.685547 0.0766,8.398175 -0.24662,11.909595 -1.15039,12.478515 -1.40539,0.884689 -4.78708,0.958669 -25.90625,0.560547 -10.65763,-0.200909 -14.94869,-0.638404 -15.74804,-1.601562 -1.45832,-1.757169 -1.61562,-41.51134 -0.16993,-42.957031 0.56883,-0.568831 6.51257,-1.118278 13.29688,-1.230469 6.74793,-0.111591 16.20703,-0.469803 21.01953,-0.794922 z m 55.4375,0.175781 c 10.74669,-0.0052 21.54693,0.378414 21.76562,1.15625 0.17262,0.613991 0.30869,10.912816 0.30469,22.884766 l -0.008,21.767578 -20.07422,0.470703 c -15.54231,0.36542 -20.47637,0.177291 -21.85937,-0.833984 -1.77588,-1.298551 -1.93717,-5.839969 -1.57618,-44.267578 0.007,-0.777947 10.70058,-1.172493 21.44727,-1.177735 z m -134.91602,0.164063 c 1.89064,-0.398609 2.28122,5.13717 2.14063,24.109375 L 131.5,67.5 h -23.8457 c -13.115028,0 -23.987768,-0.231594 -24.162112,-0.513672 -0.174352,-0.282078 0.05205,-6.550988 0.503906,-13.93164 0.451857,-7.38066 0.611953,-16.599065 0.355468,-20.486329 -0.256484,-3.887263 -0.05157,-7.671813 0.455079,-8.408203 0.720087,-1.046601 5.480253,-1.337084 21.806639,-1.333984 11.48726,0.0022 21.38932,-0.413761 22.00391,-0.923828 0.33412,-0.277302 0.6342,-0.454775 0.90429,-0.511719 z m -80.537105,1.636719 c 1.555611,-0.0135 3.109848,0.316204 3.53125,0.998047 1.13495,1.836388 1.930771,41.4451 0.867187,43.166015 -0.590454,0.955377 -4.656428,0.896993 -8.93164,-0.126953 -1.676499,-0.401536 -6.239179,-0.608472 -10.140625,-0.460937 l -7.09375,0.267578 0.386719,-21.597656 c 0.213169,-11.879095 0.605155,-21.81414 0.86914,-22.078126 0.263984,-0.263981 1.18332,0.105247 2.044922,0.820313 1.186563,0.98476 1.847785,1.019403 2.72461,0.142578 1.464257,-1.464261 9.000686,-1.514948 10.445312,-0.07031 0.782843,0.782843 1.273989,0.782843 1.757812,0 0.425948,-0.689194 1.983452,-1.04705 3.539063,-1.060547 z M 558.60742,28 c 0.78627,0 20.85554,21.216178 22.86133,24.167969 C 583.92622,55.784464 590.10575,61 591.93359,61 592.52029,61 593,61.9 593,63 c 0,1.1 0.1125,2.319031 0.25,2.708984 0.1375,0.389952 -1.325,1.046404 -3.25,1.458985 -8.65769,1.855586 -29.90982,1.596784 -31.13086,-0.378907 C 558.34501,65.941001 557.82982,47.419574 557.93555,33.25 557.95716,30.353737 558.25817,28 558.60742,28 Z M 244.7832,101.45117 c 0.81031,0.0763 1.83332,0.37849 3.09375,0.88281 3.3587,1.34385 7.15173,1.57112 21.54688,1.28907 13.26003,-0.25981 17.58523,-0.0431 17.94726,0.90039 0.97585,2.54301 -0.55699,49.96956 -1.6582,51.30859 -0.82904,1.00809 -4.27693,1.2802 -14.1543,1.11524 -7.18236,-0.11995 -15.53359,0.0644 -18.55859,0.41015 -3.025,0.34578 -6.5125,0.19662 -7.75,-0.33203 -2.57904,-1.10173 -2.48681,-0.12739 -2.125,-22.52539 0.32513,-20.12786 0.28656,-22.10161 -0.53516,-27 -0.75042,-4.47344 -0.23755,-6.27761 2.19336,-6.04883 z M 515,102.0625 c 1.925,0.0751 4.85,0.20421 6.5,0.28711 l 3,0.15039 -0.29688,25.99805 c -0.16366,14.29867 -0.67166,26.37088 -1.1289,26.82812 -1.1374,1.13726 -8.40545,2.03051 -9.2832,1.14063 -0.39034,-0.39574 -9.93766,-0.67309 -21.21485,-0.61719 l -20.5039,0.10156 -0.0176,-26.01367 c -0.0138,-19.73827 0.27818,-26.11074 1.21289,-26.41211 1.39071,-0.44838 36.34183,-1.67332 41.73242,-1.46289 z m -92.63867,0.32227 c 9.78046,0.002 19.60123,0.17382 20.36719,0.51367 0.12581,0.0558 0.22379,11.78364 0.21679,26.0625 -0.009,18.82792 -0.33543,26.16163 -1.18945,26.68945 -2.50557,1.54852 -39.48334,1.00726 -41.10156,-0.60156 -0.46484,-0.46214 -0.75242,-4.5982 -0.63868,-9.19336 0.11382,-4.59516 0.29055,-15.93653 0.39063,-25.20117 0.15641,-14.4795 0.41241,-16.97336 1.82813,-17.76563 0.60667,-0.33938 10.34649,-0.50629 20.12695,-0.5039 z m -79.97656,0.51171 c 18.76052,-0.15604 23.98296,0.0796 24.62304,1.11524 1.30552,2.11238 0.68746,50.6934 -0.66211,52.04297 -0.64971,0.64971 -2.08787,0.84481 -3.32812,0.45117 -1.20111,-0.38121 -5.8598,-0.68026 -10.35156,-0.66406 -4.49176,0.0162 -13.63254,0.27211 -20.31446,0.56836 -9.07381,0.4023 -12.41342,0.22061 -13.1914,-0.7168 -1.00386,-1.20953 -1.9809,-51.2066 -1.01954,-52.16797 0.23782,-0.23782 11.14799,-0.51999 24.24415,-0.62891 z M 88.626953,103.4375 c 3.200153,-0.14859 9.008211,-0.031 19.677737,0.25 12.75717,0.33591 23.47055,1.03269 23.80664,1.54688 0.68271,1.04451 0.38266,50.6056 -0.31055,51.29882 -0.63245,0.63244 -5.86537,0.67468 -17.30078,0.14258 -5.5,-0.25592 -10.45,-0.18265 -11,0.16211 -1.4069,0.8819 -16.351438,0.81875 -17.957031,-0.0762 -1.043127,-0.58132 -1.339092,-6.02255 -1.388672,-25.5 -0.03467,-13.61855 0.164948,-25.53138 0.445312,-26.47266 0.234484,-0.78724 0.827191,-1.20297 4.027344,-1.35156 z m 476.787107,0.31641 c 2.85791,-0.0882 6.50378,0.007 10.08594,0.31054 1.1,0.0932 7.54745,0.0776 14.32812,-0.0351 6.78073,-0.11279 12.63073,0.0972 13,0.46679 0.36929,0.36955 0.67188,12.11432 0.67188,26.09961 0,28.35305 0.22284,27.52683 -6.89844,25.56055 -1.90679,-0.5265 -3.74991,-0.6739 -4.0957,-0.32813 -1.12383,1.12383 -30.70862,0.74441 -32.29297,-0.41406 -1.25121,-0.91484 -1.45959,-4.92674 -1.32227,-25.47656 0.0987,-14.77112 0.55975,-24.78826 1.16797,-25.39648 0.42728,-0.42728 2.49756,-0.69891 5.35547,-0.78711 z m -377.16211,0.0332 c 20.19605,-0.29999 20.75098,-0.25354 20.83008,1.70312 0.0447,1.10558 0.21524,3.35977 0.37891,5.00977 0.31774,3.2036 0.54595,15.35632 0.36718,19.5 -0.0593,1.375 0.0503,7.45224 0.24219,13.50586 0.19189,6.05362 -0.002,11.57348 -0.42969,12.26562 -0.58815,0.95167 -6.00189,1.2418 -22.20898,1.1875 -19.39705,-0.065 -21.44202,-0.2332 -21.54102,-1.76562 -0.40924,-6.33381 0.40486,-49.82968 0.94336,-50.39453 0.36807,-0.38608 10.00655,-0.84222 21.41797,-1.01172 z m -147.906247,0.81836 c 9.260019,-0.18507 13.686636,0.0757 13.753906,0.81055 0.05456,0.5959 0.104329,12.03596 0.111329,25.42187 0.0089,16.91318 -0.335967,24.68558 -1.128907,25.47852 -1.23608,1.23608 -12.423552,2.00809 -13.5,0.93164 -0.361662,-0.36165 -3.586623,-0.54825 -7.167969,-0.41602 l -6.511718,0.24024 0.214844,-5.28516 c 0.500481,-12.28731 0.194391,-39.40871 -0.47461,-42.07422 -1.09478,-4.36195 0.216569,-4.81789 14.703125,-5.10742 z M 634.68164,110 c 0.65044,2e-5 1.44354,0.7875 1.76172,1.75 0.31817,0.9625 2.90512,4.225 5.74805,7.25 2.84294,3.025 7.62429,8.37179 10.625,11.88086 6.51958,7.62408 17.02571,18.22417 19.44531,19.61914 0.95399,0.55 2.01667,2.4625 2.36133,4.25 0.71863,3.72706 0.78226,3.71283 -8.12305,1.7793 -4.17081,-0.90557 -6.39174,-0.98571 -7.2832,-0.26563 -0.8949,0.72287 -2.50419,0.6312 -5.32813,-0.30078 -3.2243,-1.06412 -4.94874,-1.09356 -8.48242,-0.14844 -4.98417,1.33306 -11.35849,1.57423 -11.49805,0.43555 -0.0506,-0.4125 -0.1631,-10.98748 -0.25,-23.5 -0.11765,-16.9311 0.14331,-22.75002 1.02344,-22.75 z M 218,165.5 c 0.55,0.33992 1,1.26605 1,2.05859 0,0.79254 -0.45,1.44141 -1,1.44141 -0.55,0 -1,-0.92613 -1,-2.05859 0,-1.13246 0.45,-1.78133 1,-1.44141 z m 204.00977,26.62109 c 13.5559,-0.0646 19.09801,0.24424 19.62304,1.09375 0.40241,0.65111 0.72093,12.90645 0.70703,27.23438 l -0.0254,26.05078 -20.6582,0.26953 -20.65625,0.27149 -0.21094,-2.27149 c -0.26785,-2.88144 -0.49064,-13.03414 -0.72461,-33.125 C 399.90863,198.25936 400.133,195.51051 401.5,194 c 1.44086,-1.59215 3.70018,-1.79881 20.50977,-1.87891 z m -55.65625,0.36524 c 0.47239,0.12128 0.74135,1.0028 0.84179,2.70508 0.10739,1.81996 0.29851,4.88359 0.42383,6.80859 0.12532,1.925 0.3481,12.725 0.49609,24 l 0.26954,20.5 -23.44336,0.18359 c -13.01305,0.10196 -24.17954,-0.23092 -25.09961,-0.74804 -1.45936,-0.82024 -1.67196,-3.58654 -1.78321,-23.14453 -0.0695,-12.21695 -0.33967,-23.13025 -0.60156,-24.25196 -1.12596,-4.82262 -0.11985,-5.03358 24.31836,-5.11328 12.56648,-0.041 23.38349,-0.40463 24.03711,-0.80859 0.20379,-0.12595 0.38355,-0.17129 0.54102,-0.13086 z m -240.3711,0.91406 c 1.24328,-0.0491 2.2482,0.16621 2.55469,0.66211 0.319,0.51616 1.41865,0.9375 2.44336,0.9375 1.76557,0 1.86693,1.29578 1.92773,24.75 0.0353,13.6125 -0.33152,25.37363 -0.81445,26.13477 -0.70193,1.10631 -5.4322,1.4072 -23.58203,1.5 -12.487151,0.0639 -22.885505,-0.18057 -23.109376,-0.54297 -0.22387,-0.3624 -0.518293,-12.0624 -0.654297,-26 L 84.5,195.5 l 18,-0.25781 c 9.9,-0.14175 18.675,-0.55626 19.5,-0.92188 1.25843,-0.55771 2.73914,-0.87081 3.98242,-0.91992 z m 372.90235,0.0254 c 13.25075,0.12041 24.37107,0.49607 24.71093,0.83594 1.06801,1.068 1.78228,50.31654 0.75391,51.98047 -0.42235,0.68338 -13.90544,0.55149 -33.34961,-0.32617 -0.825,-0.0372 -5.21894,0.14024 -9.76367,0.39257 -4.54474,0.25232 -8.51743,0.0457 -8.82813,-0.45703 -0.31069,-0.50272 -0.50378,-4.61225 -0.42968,-9.13281 0.25899,-15.7986 0.0736,-26.26949 -0.58204,-32.83594 -0.58228,-5.8317 -0.42074,-6.85855 1.36719,-8.64648 1.93928,-1.93928 3.09312,-2.01981 26.1211,-1.81055 z m -292.125,0.0527 c 0.62311,-0.0743 1.22432,-0.0393 1.65234,0.125 1.36294,0.52301 1.52715,3.91172 1.32227,27.24804 L 209.5,247.5 l -8.5,-0.084 c -4.675,-0.0461 -9.4,-0.14847 -10.5,-0.22657 -1.1,-0.0781 -6.51973,0.0988 -12.04297,0.39258 -8.86982,0.47176 -10.21439,0.32372 -11.51758,-1.27344 -1.21551,-1.48972 -1.44862,-5.86055 -1.32812,-24.80859 0.0804,-12.65 0.20078,-23.99175 0.26758,-25.20508 L 166,194.08789 l 18.54688,0.4668 c 11.46897,0.28852 19.26422,0.0817 20.42773,-0.54102 0.5174,-0.2769 1.16204,-0.4609 1.78516,-0.53515 z M 287.5,193.5 l -0.35156,15.50977 c -0.20621,9.10184 0.18317,19.59123 0.9414,25.38671 1.25066,9.55928 1.22554,9.93025 -0.76367,11.54102 -1.74697,1.4146 -5.03766,1.68705 -21.9414,1.81836 -11.66666,0.0906 -20.60067,-0.25807 -21.61719,-0.8418 -1.59496,-0.91591 -1.68973,-3.03328 -1.20117,-26.66797 0.29191,-14.12114 0.68998,-25.83646 0.88671,-26.0332 0.19677,-0.19674 10.18883,-0.43756 22.20313,-0.53516 z m 293.06055,0.25977 c 10.1612,-0.12051 20.66833,-0.10319 22.51757,0.1582 0.46281,0.0654 0.79155,15.12285 0.81055,37.08203 10e-4,1.375 0.0477,5.27311 0.10352,8.66211 0.0666,4.05022 -0.34265,6.44634 -1.19531,6.99414 -0.71349,0.45837 -10.64917,0.85391 -22.08008,0.87891 l -20.78321,0.0469 -0.57226,-2.27734 c -0.31429,-1.25223 -0.5405,-3.29588 -0.50195,-4.54102 0.0382,-1.24514 0.0535,-12.00449 0.0332,-23.91015 -0.0278,-16.36603 0.27172,-21.83687 1.22461,-22.42579 0.46739,-0.28885 10.28216,-0.54745 20.44336,-0.66796 z M 634,194.23828 l 22.75,0.13086 22.75,0.13086 0.54688,15 c 0.30128,8.25 0.19502,16.32491 -0.23633,17.94531 -0.54337,2.04119 -0.32674,3.64309 0.70312,5.21485 1.75236,2.67444 2.0163,12.89392 0.35938,13.91796 -0.62003,0.3832 -10.71465,0.81104 -22.43164,0.95118 -15.98337,0.19116 -21.75828,-0.0618 -23.12305,-1.01758 -1.67397,-1.17232 -1.80463,-3.01861 -1.64453,-23.14258 0.0957,-12.02772 0.2082,-23.50291 0.25,-25.5 z M 40.582031,195.21875 53.5,195.5 l 0.220703,25.5 0.21875,25.5 -2.357422,1.10352 c -1.296667,0.60653 -2.991238,0.74782 -3.765625,0.31445 -0.774387,-0.43337 -5.811205,-0.91973 -11.193359,-1.08008 -5.382154,-0.16035 -10.013799,-0.66157 -10.292969,-1.11328 -0.941906,-1.52403 -0.57075,-48.88433 0.390625,-49.8457 0.522076,-0.52208 6.69832,-0.81604 13.861328,-0.66016 z M 247,196 c -0.55,0 -1,0.45 -1,1 0,0.55 0.45,1 1,1 0.55,0 1,-0.45 1,-1 0,-0.55 -0.45,-1 -1,-1 z m 466.02734,2.48242 c 1.11637,-0.68995 5.97266,6.08136 5.97266,8.32813 0,1.06936 0.675,2.50476 1.5,3.18945 0.825,0.68469 1.5,1.84351 1.5,2.57617 0,0.73266 1.125,2.45703 2.5,3.83203 1.375,1.375 2.5,3.6288 2.5,5.00782 0,1.37901 1.5425,5.78644 3.42773,9.79492 3.92476,8.34505 5.62299,16.70988 3.43555,16.91992 -0.74995,0.072 -5.7554,0.1845 -11.12305,0.25 -7.90017,0.0964 -9.83454,-0.16662 -10.1582,-1.38086 -0.73218,-2.74688 -0.31649,-48.04676 0.44531,-48.51758 z m -347.94336,84.60547 c 2.29048,0.10764 2.9628,0.43077 2.9961,1.01367 0.044,0.76959 0.0906,11.64683 0.10351,24.17188 0.0167,16.19086 -0.32025,23.18761 -1.16797,24.20898 -0.98156,1.18268 -5.16818,1.39895 -23.6875,1.22656 -13.52917,-0.12595 -22.81419,-0.60753 -23.29882,-1.20898 -1.16851,-1.45019 -1.87927,-40.39174 -0.8086,-44.30469 1.10193,-4.02722 3.80791,-5.20005 9.20118,-3.98828 2.20701,0.49589 4.98447,0.6574 6.17187,0.35938 1.1874,-0.29802 9.19013,-0.83943 17.7832,-1.20313 6.50852,-0.27547 10.41655,-0.38303 12.70703,-0.27539 z m 36.18164,0.13672 20.61719,0.19727 20.61719,0.19726 v 24.31055 24.31054 l -2.31445,0.87891 c -2.99919,1.14048 -4.92235,1.11711 -5.65625,-0.0703 -0.35291,-0.57103 -6.43658,-0.74254 -15.21289,-0.42969 -8.04363,0.28672 -15.72046,0.24454 -17.06055,-0.0918 l -2.4375,-0.61132 0.2207,-17.70704 c 0.12044,-9.73954 0.44513,-20.69681 0.72266,-24.34765 z m 238.95899,0.51758 c 0.74678,-0.0347 1.42348,0.0696 1.93945,0.3457 1.20998,0.64756 8.49177,0.99924 18.66016,0.90234 9.17181,-0.0874 17.46328,-0.12046 18.42578,-0.0742 1.61436,0.0775 1.75,1.89527 1.75,23.46093 0,18.23845 -0.29188,23.6207 -1.33008,24.48243 -0.89053,0.73905 -7.58909,1.02827 -20.25,0.87304 -21.98659,-0.26957 -24.38401,-0.46733 -24.97851,-2.05469 -0.74924,-2.00055 -1.13948,-43.54863 -0.41993,-44.71289 1.08775,-1.76001 3.96279,-3.11858 6.20313,-3.22265 z m -167.72461,0.0566 24.95508,0.14844 c 15.97578,0.0949 25.4162,0.53063 26.23828,1.21289 0.97647,0.8104 1.27359,6.32241 1.24219,23.00781 -0.0227,12.06806 -0.26755,22.53303 -0.54493,23.25586 -0.39782,1.03682 -5.86319,1.32075 -25.88867,1.34375 l -25.38281,0.0293 -0.60156,-5.14844 c -0.33078,-2.83166 -0.47122,-13.85706 -0.31055,-24.5 z m -194.46875,0.0391 c 4.64549,-0.0721 9.16187,0.0213 9.48633,0.3457 0.75147,0.75147 0.88394,47.74846 0.13672,48.4961 -0.45139,0.45166 -10.42345,0.89397 -22.16211,0.98437 -17.18429,0.13234 -21.44514,-0.10054 -21.86524,-1.19531 -0.80841,-2.10668 -0.91395,-24.52514 -0.13476,-28.62305 0.38209,-2.0095 0.21794,-6.7081 -0.36328,-10.4414 -0.6954,-4.46678 -0.71891,-7.19323 -0.0703,-7.97461 0.69756,-0.8405 4.19921,-1.04857 11.98633,-0.71094 6.05064,0.26235 11.77871,0.1597 12.72852,-0.22852 0.83792,-0.34248 5.61232,-0.58027 10.25781,-0.65234 z m 303.87695,0.22656 c 23.81013,-0.12777 23.48294,-0.23753 22.41016,7.53516 -0.37202,2.69544 -0.64106,6.02539 -0.59766,7.40039 0.55239,17.51071 0.41202,32.26619 -0.31445,32.98633 -1.09535,1.08581 -39.74319,1.8109 -42.4707,0.79687 -1.82757,-0.67946 -1.92227,-1.88412 -1.85157,-23.49218 0.043,-13.13741 0.48501,-23.27066 1.04493,-23.94532 0.67841,-0.81743 7.23727,-1.20325 21.77929,-1.28125 z m -456.85351,0.33985 c 5.45837,-0.0816 7.16221,0.13654 7.46289,0.62304 0.34961,0.56569 0.80877,11.70959 1.02148,24.76368 l 0.38672,23.73437 -19.71289,0.23828 c -10.84232,0.13091 -21.322766,0.49007 -23.291015,0.79688 -2.362686,0.36829 -3.957959,0.10094 -4.693359,-0.78516 -1.159227,-1.39679 -2.257958,-46.07697 -1.160157,-47.17578 0.312199,-0.31248 4.812199,-0.76787 10,-1.01172 15.315681,-0.71991 24.527951,-1.10201 29.986331,-1.18359 z m 62.96679,0.0117 c 17.55806,0.0704 21.2091,0.33291 22.00391,1.58398 0.52412,0.825 0.7092,2.16247 0.41016,2.97266 -0.78098,2.11589 -0.71189,36.08131 0.0801,39.23632 0.36529,1.45543 0.22202,3.4391 -0.32031,4.40821 -0.84213,1.5048 -2.54722,1.77066 -11.67383,1.82226 -5.87762,0.0332 -10.83386,-0.0863 -11.01367,-0.26562 -0.17982,-0.17931 -4.63546,-0.35116 -9.90234,-0.38086 -6.70311,-0.0378 -9.90929,-0.45373 -10.68359,-1.38672 -1.47456,-1.77673 -2.36067,-45.17202 -0.95704,-46.86328 0.73347,-0.88378 6.70182,-1.18845 22.05664,-1.12695 z m 529.41211,1.07421 c 1.85802,-0.11281 4.40885,0.13453 7.90235,0.30079 l 8.83594,0.42187 -0.70704,6.14258 c -0.38857,3.37912 -1.55227,8.29878 -2.58593,10.93164 -1.03365,2.63286 -1.87891,5.87955 -1.87891,7.21484 0,1.39953 -0.84216,2.87881 -1.98828,3.49219 -1.09351,0.58523 -2.29308,2.28854 -2.66602,3.78516 -0.37293,1.49663 -2.71466,5.0832 -5.20312,7.9707 -4.27433,4.95975 -6.01524,6.21482 -6.24219,4.5 -0.0546,-0.4125 -0.1671,-10.36573 -0.25,-22.11914 -0.13207,-18.72222 -0.79085,-22.30217 4.7832,-22.64063 z m -678.232418,0.73243 c 13.250149,-0.24917 14.78732,-0.10117 15.580078,1.5 0.483749,0.97705 0.565747,6.22974 0.183594,11.67187 -0.719009,10.23919 -0.528858,28.84594 0.308594,30.28516 0.262346,0.45087 0.163975,1.68303 -0.21875,2.73633 -0.614135,1.69016 -3.319637,2.98504 -4.263672,2.04101 -0.190433,-0.19043 -5.631782,-0.47559 -12.091797,-0.63281 l -11.746094,-0.28516 -0.927734,-3.51953 C 25.515458,328.08395 24.963445,317.5 24.798828,306.5 L 24.5,286.5 Z m 433.035158,84.92773 25.63281,0.51563 c 14.0974,0.28311 25.84319,0.72206 26.10156,0.97656 0.25838,0.2545 0.53589,3.92685 0.61719,8.16015 0.0813,4.23329 0.29724,15.19291 0.48047,24.35352 0.23131,11.56472 -0.019,17.07943 -0.82031,18.04492 -0.93544,1.12716 -5.32,1.33529 -23.14453,1.09766 -13.86023,-0.18477 -22.21709,0.0767 -22.60547,0.70508 -0.90556,1.46522 -1.8652,1.23406 -4.29883,-1.03321 -2.13369,-1.98783 -2.17656,-2.5557 -2.07031,-27.42578 z m 186.02734,0.1582 c 0.70935,-0.10815 1.4893,-0.0859 2.18945,0.0899 1.36316,0.34213 5.53024,0.88602 9.26172,1.20898 3.73148,0.32295 7.10371,0.78254 7.49219,1.02149 1.41701,0.87158 -0.74671,3.97479 -8.02344,11.50781 -4.08817,4.23216 -8.16477,8.75696 -9.05859,10.05469 -0.89382,1.29773 -2.75,3.51685 -4.125,4.93164 -1.375,1.4148 -3.625,4.07391 -5,5.9082 -1.375,1.83429 -4.53961,5.39042 -7.0332,7.90234 -2.49359,2.51191 -5.0714,5.80391 -5.72852,7.31641 -1.09919,2.53002 -3.14621,3.76793 -3.30664,2 -1.34613,-14.83428 -1.32289,-13.93039 -0.86914,-34.50391 0.17898,-8.11508 0.62809,-15.24514 0.99805,-15.84375 0.79818,-1.29148 10.86727,-1.57923 16.20117,-0.46289 2.54825,0.53333 4.23622,0.39251 5.23633,-0.4375 0.41697,-0.34608 1.05627,-0.58521 1.76562,-0.69336 z m -371.88867,0.006 c 2.36184,0.34713 2.72038,6.87983 2.16797,29.125 -0.32705,13.17007 -0.75478,24.10634 -0.95117,24.30274 -0.80737,0.80737 -43.52169,1.17885 -44.01368,0.38281 -0.29389,-0.47552 -0.47363,-12.21252 -0.39843,-26.08203 0.14976,-27.6351 0.3843,-28.76755 5.64258,-27.29297 3.35096,0.93971 34.05968,0.74178 36.41406,-0.23438 0.42229,-0.17507 0.80126,-0.25076 1.13867,-0.20117 z M 420,371.34961 c 15.82004,-0.12274 19.80964,0.12244 21.14062,1.30469 1.43116,1.27123 1.65671,4.64244 1.76758,26.40234 0.0699,13.71922 -0.2184,24.94903 -0.64062,24.95703 -17.27782,0.31823 -39.35544,0.40564 -40.61914,0.16016 -1.53138,-0.29748 -1.65684,-2.6524 -1.41406,-26.5 L 400.5,371.5 Z m 180.62695,0.004 c 0.97856,0.0427 1.75383,0.182 2.08789,0.40625 1.36773,0.91813 2.20865,47.04967 0.92774,50.89843 -0.70767,2.12634 -1.02656,2.15617 -21.76367,2.00196 -14.67336,-0.10912 -21.34079,-0.51071 -22.01758,-1.32618 -1.18629,-1.42941 -1.45456,-48.56611 -0.28711,-50.45507 0.23941,-0.38737 7.88771,-0.72054 16.99609,-0.74024 9.10838,-0.0197 18.44481,-0.29645 20.7461,-0.61523 1.15064,-0.15939 2.33198,-0.21267 3.31054,-0.16992 z M 341,371.38086 c 19.50311,-0.10828 26.80977,0.59705 27.06445,2.61328 0.0351,0.27824 0.23444,11.63326 0.44336,25.23242 0.253,16.46848 0.0319,24.94024 -0.66211,25.36914 -1.31048,0.80993 -45.70134,1.11254 -46.98242,0.32032 -0.54426,-0.33657 -1.03109,-11.76522 -1.15234,-27 L 319.5,371.5 Z m -174.76172,0.58984 21.8457,0.11328 c 19.88917,0.10251 21.89338,0.26975 22.4004,1.86719 0.78809,2.48319 0.34795,48.703 -0.47657,50.03711 -0.71893,1.16319 -16.78646,1.73947 -34.22265,1.22656 l -9.7168,-0.28711 -0.2832,-24.21289 c -0.15647,-13.31781 -0.11928,-25.23488 0.084,-26.48046 z m -55.91992,0.22071 c 11.0843,-0.0267 21.8394,0.25608 22.2207,0.87304 0.54498,0.88178 1.1034,14.28852 1.59961,38.43555 0.0904,4.4 -0.16648,9.46979 -0.57031,11.26562 l -0.73438,3.26563 -23.43554,-0.14258 c -13.424443,-0.081 -23.685901,-0.54415 -24.019534,-1.08398 -0.32035,-0.51833 -0.498829,-7.09835 -0.396484,-14.62305 0.102344,-7.52471 0.211567,-15.93164 0.242187,-18.68164 0.03062,-2.75 -0.289207,-7.8019 -0.710937,-11.22656 -0.734575,-5.9651 -0.667328,-6.26351 1.609375,-7.09766 1.697598,-0.62197 13.111006,-0.95764 24.195313,-0.98437 z M 25.5,372.5 28,372.71289 c 1.375,0.11694 7.784275,0.24893 14.242188,0.29297 11.247872,0.0767 11.763685,0.17262 12.28125,2.28711 C 54.820596,376.50699 54.936321,388.075 54.78125,401 L 54.5,424.5 H 44.029297 c -9.373588,0 -10.836538,-0.24951 -13.982422,-2.37891 -4.361259,-2.95206 -6.091674,-5.17432 -5.542969,-7.12109 0.396582,-1.40705 0.523299,-4.97477 0.511719,-14.5 -0.0027,-2.2 0.105441,-9.4 0.240234,-16 z m 147.55273,78.63477 C 173.90347,451.24286 175,452.1737 175,453.05859 175,453.57613 174.57613,454 174.05859,454 c -1.17986,0 -2.44092,-1.9497 -1.72461,-2.66602 0.17908,-0.17907 0.43518,-0.23524 0.71875,-0.19921 z m 347.92188,10.48437 c 1.74134,0.12893 2.57423,0.51162 3.35742,1.20898 1.42011,1.26451 1.68366,2.42441 1.16602,5.15235 -0.3674,1.93615 -1.01818,11.61953 -1.44532,21.51953 -0.42714,9.9 -0.83816,18.1125 -0.91406,18.25 -0.0759,0.1375 -7.45117,0.25764 -16.38867,0.26562 -8.9375,0.008 -16.84341,0.39188 -17.56836,0.85157 -0.72496,0.45966 -3.57169,0.42463 -6.32617,-0.0762 v 0.002 c -3.38008,-0.61435 -5.42748,-0.563 -6.29883,0.16015 -2.33572,1.93847 -3.36138,-1.12507 -3.33008,-9.95312 0.0166,-4.675 -0.0755,-14.42691 -0.20508,-21.67188 -0.12955,-7.24495 0.0872,-13.69372 0.48047,-14.33007 0.47669,-0.77131 3.66739,-1.06389 9.57227,-0.87696 4.87172,0.15422 9.10081,0.0379 9.39844,-0.25976 0.29763,-0.29762 2.52669,-0.24129 4.95312,0.12695 2.42643,0.36821 9.06,0.34136 14.74219,-0.0605 4.41527,-0.31249 7.0653,-0.43752 8.80664,-0.30859 z m 41.36328,0 c 1.13753,-0.0698 2.65268,0.17054 4.66211,0.50977 3.025,0.51068 7.75,0.84536 10.5,0.74218 2.75,-0.1032 8.74238,-0.11644 13.31641,-0.0293 l 8.3164,0.1582 -0.3164,2.71094 c -0.21189,1.81506 -1.04236,2.8887 -2.51563,3.25 -2.11939,0.51977 -7.15955,5.84022 -10.45703,11.03906 -0.87212,1.375 -3.83495,4.3 -6.58203,6.5 -2.74708,2.2 -6.26615,5.6875 -7.82031,7.75 -1.55416,2.0625 -3.4251,3.75 -4.15821,3.75 -0.73311,0 -1.76043,1.125 -2.2832,2.5 -0.96725,2.54405 -3.36865,3.32924 -4.51367,1.47656 -0.34753,-0.5624 -0.51846,-3.17349 -0.37891,-5.80273 0.13955,-2.62925 0.007,-5.2057 -0.29492,-5.72656 -0.30236,-0.52086 -0.63576,-6.83211 -0.74023,-14.02539 -0.16821,-11.58196 -0.14696,-14.59332 3.26562,-14.80274 z m -537.273437,0.51563 13.71875,0.19921 c 7.544636,0.10909 14.22877,0.52265 14.853516,0.91993 1.227476,0.78057 1.130248,43.69709 -0.103516,45.69336 -0.764527,1.23703 -0.540571,1.24666 -11.814453,-0.50782 -6.063172,-0.94357 -9.582428,-1.06091 -11.371094,-0.38086 -4.851775,1.84464 -5.084992,0.78654 -5.1875,-23.50781 z m 414.535157,0.34375 c 2.67262,0.23327 2.93778,0.77628 3.34375,1.8496 0.45185,1.19471 0.64189,2.47996 0.42187,2.85547 -0.22002,0.37551 -0.61486,9.34968 -0.87695,19.94336 -0.26209,10.59368 -0.86126,19.64642 -1.33203,20.11719 -1.24422,1.24422 -39.20275,1.48715 -39.97656,0.25586 -0.95694,-1.52266 -1.43866,-44.48558 -0.5,-44.59375 0.45115,-0.052 9.95981,-0.24361 21.13086,-0.42383 10.03612,-0.16191 15.11643,-0.23668 17.78906,-0.004 z m -95.20313,0.0449 c 11.86766,-0.0925 23.63542,0.15095 23.875,0.81836 0.72389,2.01649 0.1972,43.10395 -0.56836,44.33593 -0.52775,0.84928 -7.14112,1.17045 -23.72265,1.15235 -27.01982,-0.0294 -24.22954,1.9541 -23.67188,-16.83008 0.2041,-6.875 0.0321,-15.875 -0.38086,-20 -0.41248,-4.125 -0.41394,-7.85107 -0.006,-8.28125 0.64082,-0.67426 12.60695,-1.10282 24.4746,-1.19531 z M 281.5,462.65234 c 6.65104,-0.12633 7.94022,0.10059 7.64648,1.34766 -0.19428,0.825 -0.31392,2.4 -0.26562,3.5 0.0484,1.1 0.16065,3.575 0.24805,5.5 0.35641,7.84768 -1.06395,33.33543 -1.9043,34.17578 -0.90143,0.90143 -37.61385,1.82655 -42.08203,1.06055 -2.2875,-0.39215 -2.34201,-0.61862 -1.76953,-7.57031 0.762,-9.25238 0.76062,-7.09508 0.006,-23.41602 L 242.7207,463 l 15.38868,-0.0977 c 8.46442,-0.0539 18.99062,-0.1664 23.39062,-0.25 z m -95.69531,0.13672 c 10.83237,-0.15943 20.98144,-0.14255 22.55273,0.0371 l 2.85547,0.32813 -0.44531,21.75781 c -0.24562,11.96767 -0.74113,22.23443 -1.09961,22.81445 -0.4275,0.69167 -6.68033,0.96137 -18.17383,0.78321 -9.63772,-0.14939 -17.76892,0.12487 -18.06836,0.60937 -0.29943,0.48449 -0.85433,0.81287 -1.23437,0.73047 -0.38004,-0.0824 -1.89147,-0.33395 -3.35743,-0.55859 -1.46595,-0.22463 -2.81595,-0.94415 -3,-1.59961 -0.184,-0.65545 -0.19687,-10.96175 -0.0293,-22.90235 l 0.30469,-21.70898 z m -69.53907,0.1875 c 11.43131,-0.14188 16.17975,0.14962 17.27735,1.06055 1.3022,1.08073 1.42525,4.20459 0.87695,22.35937 -0.35055,11.60703 -0.78642,21.35542 -0.96875,21.66211 -0.18233,0.30668 -5.93568,0.38315 -12.78515,0.17188 -8.21174,-0.25329 -12.68044,-0.0165 -13.11914,0.69336 -0.81951,1.326 -3.22436,1.40754 -4.00977,0.13672 -0.31908,-0.51628 -4.225523,-0.94508 -8.681641,-0.95508 -4.456118,-0.01 -8.34792,-0.26393 -8.648438,-0.56445 -0.610048,-0.61005 -0.630933,-43.44917 -0.02148,-44.0586 0.212696,-0.2127 3.519328,-0.37061 7.349609,-0.34961 3.83028,0.021 14.059694,-0.0486 22.730464,-0.15625 z" />
    <rect
       style="fill:#000000"
       id="rect2"
       width="28.528301"
       height="21.735849"
       x="159.62263"
       y="437.43396" />
  </g>
</svg>
