<?xml version="1.0" encoding="UTF-8" standalone="no"?>
<!-- Created with Inkscape (http://www.inkscape.org/) -->

<svg
   version="1.1"
   id="svg1"
   width="754"
   height="547"
   viewBox="0 0 754 547"
   sodipodi:docname="4.svg"
   inkscape:version="1.4 (86a8ad7, 2024-10-11)"
   xmlns:inkscape="http://www.inkscape.org/namespaces/inkscape"
   xmlns:sodipodi="http://sodipodi.sourceforge.net/DTD/sodipodi-0.dtd"
   xmlns="http://www.w3.org/2000/svg"
   xmlns:svg="http://www.w3.org/2000/svg">
  <defs
     id="defs1" />
  <sodipodi:namedview
     id="namedview1"
     pagecolor="#ffffff"
     bordercolor="#000000"
     borderopacity="0.25"
     inkscape:showpageshadow="2"
     inkscape:pageopacity="0.0"
     inkscape:pagecheckerboard="0"
     inkscape:deskcolor="#d1d1d1"
     inkscape:zoom="1.4533821"
     inkscape:cx="377.05157"
     inkscape:cy="273.15597"
     inkscape:window-width="1920"
     inkscape:window-height="1013"
     inkscape:window-x="2391"
     inkscape:window-y="605"
     inkscape:window-maximized="1"
     inkscape:current-layer="g1" />
  <g
     inkscape:groupmode="layer"
     inkscape:label="Image"
     id="g1">
    <path
       id="path1"
       style="fill:#000000"
       d="m 563.12109,0.06835937 c 0.16921,0.0527231 0.34056,0.11051275 0.51563,0.17773438 0.10431,0.0400537 0.19719,0.0767649 0.29492,0.11523437 -0.19392,-0.14568868 -0.4794,-0.26250675 -0.81055,-0.29296875 z m -1.29882,2.07421873 c -0.0316,0.00179 -0.13842,0.041379 -0.16602,0.076172 -0.033,0.041593 -0.0636,0.08466 -0.0957,0.1269531 0.0897,-0.060693 0.17717,-0.123324 0.26172,-0.1914062 0.0115,-0.00929 0.0105,-0.012316 0,-0.011719 z m -2.47852,9.5546879 C 559.10085,12.448959 558.68496,13 557.99023,13 c -0.87418,0 -2.01851,0.392346 -2.54101,0.873047 -0.5393,0.496167 -4.19156,0.503129 -8.44922,0.01563 -4.125,-0.472325 -18.525,-0.613524 -32,-0.314453 -13.475,0.299071 -61.85,0.729828 -107.5,0.957031 -45.65,0.227204 -125.525,0.64544 -177.5,0.929688 -51.975,0.284245 -99.9,0.462754 -106.5,0.396484 -14.47019,-0.145285 -13.79917,-0.162171 -20,0.515625 -2.75,0.300595 -6.671255,0.100499 -8.714844,-0.443359 -5.061136,-1.346917 -43.137559,-1.040495 -51.259765,0.412109 -1.635705,0.292535 -3.565911,0.03928 -4.291016,-0.5625 C 38.376054,15.066944 37.573641,15.025968 36.9375,15.662109 36.400092,16.199517 32.675684,16.463563 28.660156,16.25 18.460949,15.707561 18.496678,15.64461 18.517578,34.402344 18.526827,42.705573 18.657029,54.225 18.808594,60 c 0.151566,5.775 0.170541,102.3 0.04102,214.5 -0.129537,112.2 0.09276,212.1 0.494141,222 0.813024,20.0529 1.390265,21.85689 7.710938,24.06055 1.146045,0.39956 1.99193,0.86899 2.583984,1.30664 1.284532,-0.0623 2.57113,-0.10229 3.855469,-0.14258 1.428124,-0.0497 2.854663,-0.0899 4.28125,-0.0977 1.426586,-0.008 2.854296,0.0185 4.28125,0.0996 0.318458,0.0363 0.660847,0.0732 1.007812,0.11328 L 43.75,521.82227 c 3.7125,-0.0982 9.675,-0.112 13.25,-0.0293 3.575,0.0828 12.575,0.13011 20,0.10351 7.425,-0.0266 19.8,0.0207 27.5,0.10547 20.6083,0.22704 23.77942,0.22976 49.5,0.0586 12.925,-0.086 25.6315,0.0573 28.23633,0.31836 2.60483,0.26108 4.93167,0.15818 5.17187,-0.23047 0.55122,-0.8919 16.51046,-0.61976 18.78125,0.32031 0.9291,0.38463 2.44118,0.27752 3.35938,-0.23633 0.98761,-0.55266 3.52431,-0.58794 6.21094,-0.0859 2.49779,0.46661 5.0357,0.48317 5.64062,0.0352 0.60493,-0.44808 6.72461,-0.51133 13.59961,-0.13867 6.875,0.37269 14.3,0.55066 16.5,0.39453 4.71582,-0.3347 33.5475,-0.58398 35,-0.30273 0.55,0.10649 26.2,0.32399 57,0.48437 30.8,0.16038 65.45,0.38865 77,0.50781 47.75304,0.49267 136.75245,0.0585 142,-0.69336 7.24494,-1.03808 10.30514,-2.48838 13.15234,-6.23437 1.5462,-2.03429 4.62002,-5.55374 6.83008,-7.82031 11.18764,-11.47369 16.54313,-17.41693 20.58008,-22.83789 2.44076,-3.27753 6.58121,-8.27646 9.20117,-11.10743 2.61996,-2.83096 5.99496,-6.82362 7.5,-8.87304 1.50504,-2.04941 4.64883,-5.73926 6.98633,-8.20117 2.3375,-2.46196 4.25,-4.83571 4.25,-5.27344 0,-0.43773 1.94725,-2.54899 4.32812,-4.69141 2.3809,-2.14242 7.73947,-7.94453 11.90626,-12.89453 4.16678,-4.95 9.30291,-10.8 11.41406,-13 2.11115,-2.2 4.60924,-5.10617 5.55078,-6.45703 0.94153,-1.35086 6.11871,-6.9851 11.50586,-12.52149 10.03807,-10.31615 21.43124,-22.77178 29.74609,-32.52148 2.57982,-3.025 5.48219,-6.4 6.45117,-7.5 6.85238,-7.77896 16.27816,-19.33541 19.9043,-24.4043 5.26812,-7.36417 11.76238,-20.44844 13.32617,-26.84961 0.63759,-2.60988 1.85577,-6.09609 2.70703,-7.74609 0.85127,-1.65 1.89492,-5.25 2.32032,-8 0.42541,-2.75 1.45645,-9.05 2.29101,-14 1.64573,-9.76119 1.8695,-30.89205 0.35742,-33.80469 -0.51508,-0.99217 -1.03433,-2.79217 -1.15429,-4 -0.25681,-2.58577 -3.2301,-11.85551 -5.24219,-16.3457 -0.77663,-1.7332 -1.41211,-4.02659 -1.41211,-5.0957 0,-1.06911 -1.9125,-4.78374 -4.25,-8.25391 -2.3375,-3.47016 -5.07867,-7.5892 -6.0918,-9.1543 -1.01313,-1.56511 -2.21247,-2.8457 -2.66601,-2.8457 -0.45354,0 -4.23373,-4.23603 -8.39844,-9.41406 -4.16471,-5.17803 -10.54644,-12.49053 -14.18359,-16.25 -3.63716,-3.75947 -8.25526,-8.8479 -10.26172,-11.30664 C 697.14197,162.57049 692.35,157.38613 688.5,153.50781 681.84036,146.7992 676.57609,141.04564 667.90625,131 c -2.13604,-2.475 -7.60229,-8.775 -12.14844,-14 -4.54616,-5.225 -10.96292,-12.65 -14.25781,-16.5 -3.2949,-3.85 -6.44341,-7.496154 -6.99609,-8.103516 C 633.95122,91.789122 631.025,88.463052 628,85.005859 c -3.025,-3.457192 -6.175,-7.050668 -7,-7.984375 -0.825,-0.933707 -1.9917,-2.557637 -2.59375,-3.609375 -0.60205,-1.051738 -3.07705,-3.423862 -5.5,-5.271484 -2.42295,-1.847622 -5.23195,-4.997622 -6.24219,-7 -1.01024,-2.002378 -4.16024,-5.914836 -7,-8.695313 C 596.8243,49.664839 592.475,44.585755 590,41.160156 c -3.90874,-5.410015 -8.79086,-10.666032 -23.07617,-24.84375 -1.72665,-1.713643 -2.46944,-2.651602 -2.7461,-4.164062 -0.87535,-0.05483 -1.74927,-0.176755 -2.60742,-0.320313 -0.21241,-0.03593 -0.42228,-0.08266 -0.6289,-0.134765 z m -105.58789,7.720703 c 0.27779,0.06558 0.53042,0.235612 0.69141,0.496093 0.32198,0.520967 0.15964,1.211228 -0.36133,1.533204 -0.52097,0.321975 -1.21124,0.159638 -1.53321,-0.361328 -0.32198,-0.520967 -0.15964,-1.211228 0.36133,-1.533204 0.26049,-0.160987 0.56401,-0.200342 0.8418,-0.134765 z M 125.0625,22.134766 c 0.3592,0.03826 0.6458,0.378221 1.01562,1.039062 0.79569,1.421801 9.30109,1.564261 85.15235,1.431641 64.72824,-0.113173 85.27449,0.142982 88.60351,1.101562 3.77051,1.085706 4.81068,1.017059 8,-0.527343 3.35634,-1.625282 7.12895,-1.75334 44.66602,-1.523438 22.55,0.138112 43.925,0.249763 47.5,0.25 9.03639,6e-4 8.53009,-0.01458 18.18945,0.570312 5.32266,0.3223 8.93041,0.136556 9.31055,-0.478515 0.41161,-0.665994 1.29358,-0.643017 2.61914,0.06641 1.38682,0.742206 12.77186,0.844031 37.18945,0.332031 19.35484,-0.405841 36.54141,-0.696031 38.19141,-0.644531 1.65,0.0515 15.23482,0.239905 30.18945,0.419922 L 562.88086,24.5 566.64258,29 c 2.06904,2.475 6.59341,7.425 10.05469,11 3.46127,3.575 9.55876,10.30171 13.54882,14.949219 3.99006,4.647509 8.49141,9.745827 10.00391,11.328125 1.5125,1.582299 2.75,3.139804 2.75,3.460937 0,0.321132 1.24503,1.747815 2.76562,3.171875 3.45822,3.238667 13.26611,14.751304 15.41211,18.089844 0.88384,1.375 5.07536,6.1 9.31446,10.5 4.23909,4.4 8.84708,9.6875 10.24023,11.75 1.39315,2.0625 2.90815,3.75 3.36524,3.75 0.45708,0 1.97585,1.6875 3.37695,3.75 1.40109,2.0625 8.28087,9.60948 15.28711,16.77148 13.90283,14.21191 24.23828,25.5512 24.23828,26.5918 0,0.7257 8.36034,10.00723 17,18.87305 5.35759,5.49784 9.75421,10.42349 23.37305,26.18555 3.64534,4.21898 6.62695,8.36829 6.62695,9.2207 0,0.85242 1.3399,3.4745 2.97852,5.82812 1.63863,2.35358 3.64878,6.9793 4.46679,10.2793 0.81802,3.3 2.17813,8.46139 3.02149,11.46875 1.72204,6.14069 1.98519,23.4799 0.47851,31.53125 -0.51462,2.75 -1.39227,7.925 -1.95117,11.5 -0.5589,3.575 -1.66373,8.525 -2.45508,11 -0.79136,2.475 -1.96739,6.62842 -2.61328,9.23047 -0.64589,2.60205 -1.79433,5.24526 -2.55078,5.87305 -0.75645,0.6278 -1.38629,1.64938 -1.40039,2.26953 -0.0366,1.61054 -6.31752,11.25874 -9.87305,15.16601 -1.65562,1.8194 -3.67788,4.80517 -4.49414,6.63477 -0.81626,1.8296 -6.89691,8.95117 -13.51172,15.82617 -6.61482,6.875 -12.80141,13.92781 -13.74804,15.67383 -0.94663,1.74603 -2.76289,3.64882 -4.03516,4.22851 -1.27226,0.57968 -2.3125,1.67034 -2.3125,2.42188 0,0.75155 -0.9606,2.22374 -2.13477,3.27148 -1.83939,1.64133 -8.31381,9.08373 -24.62695,28.31055 -2.05608,2.42331 -5.76328,6.51021 -8.23828,9.08203 -9.32961,9.69454 -18.11978,19.58832 -19.28906,21.71289 -0.66647,1.21097 -3.79844,5.31107 -6.96094,9.11133 -3.1625,3.80025 -5.75,7.84267 -5.75,8.98242 0,1.49207 -0.73726,2.16084 -2.63477,2.38867 -1.8781,0.2255 -3.81763,1.95273 -6.75,6.01172 -5.65884,7.83301 -22.7332,27.55952 -30.55859,35.30469 -2.22278,2.2 -4.04483,4.50862 -4.04883,5.13086 -0.0101,1.60441 -6.14046,7.40559 -7.16015,6.77539 -0.46568,-0.28781 -1.33953,-0.21964 -1.94141,0.15234 -0.89892,0.55556 -75.68971,1.9083 -89.40625,1.61719 -33.39657,-0.70884 -93.65504,-0.73507 -94.08398,-0.041 -0.30514,0.49373 -1.04705,0.59359 -1.6504,0.2207 -0.60334,-0.37288 -32.86049,-0.82731 -71.68164,-1.00977 -38.82116,-0.18246 -74.56162,-0.44871 -79.42382,-0.58984 -6.71914,-0.19502 -9.02711,0.0786 -9.61914,1.13672 -0.64108,1.14576 -0.85848,1.15502 -1.22657,0.0508 -0.60136,-1.80406 -80.14443,-2.74443 -82.27929,-0.97266 -0.79159,0.65696 -1.59492,0.74165 -1.92774,0.20313 -0.45548,-0.73701 -40.631172,-0.97455 -42.60742,-0.25195 -0.664527,0.24297 -23.414727,-0.046 -33.5,-0.42579 -4.4,-0.16571 -10.834983,0.0263 -14.298828,0.42774 -3.463844,0.40142 -6.527479,0.35727 -6.808594,-0.0977 C 37.111464,513.37136 34.910081,513 32.5,513 c -2.410081,0 -4.660572,-0.45155 -5.001953,-1.00391 -0.56119,-0.90803 -2.085359,-84.67184 -1.9375,-106.49609 0.03354,-4.95 0.09499,-34.65 0.136719,-66 0.04173,-31.35 0.106841,-59.925 0.144531,-63.5 0.05125,-4.86144 0.06747,-104.37 0.01953,-121 -0.004,-1.375 -0.01708,-17.35 -0.0293,-35.5 -0.01222,-18.15 -0.158401,-46.5 -0.324219,-63 -0.191064,-19.012476 0.06623,-30.449646 0.701172,-31.228516 0.731438,-0.897238 1.532583,-0.94544 2.970704,-0.175781 1.194997,0.639544 3.61172,0.753886 6.144531,0.291016 2.296325,-0.419648 4.625781,-0.6386 5.175781,-0.488281 1.236615,0.337973 30.675582,0.188412 59.73047,-0.302735 16.09866,-0.272134 22.20503,-0.71294 23.37695,-1.685547 0.66363,-0.550762 1.09588,-0.81365 1.45508,-0.77539 z M 624.88281,87 c 0.55,0 1.27727,0.45 1.61719,1 0.33992,0.55 0.16719,1 -0.38281,1 -0.55,0 -1.27727,-0.45 -1.61719,-1 -0.33992,-0.55 -0.16719,-1 0.38281,-1 z M 32.511719,543.375 c -0.0094,0.0213 -0.02249,0.0409 -0.03125,0.0625 -0.02089,0.0515 -0.03994,0.21816 -0.02734,0.16406 0.02525,-0.10836 0.03661,-0.13823 0.05859,-0.22656 z m -3.701172,3.50391 -0.0078,0.12109 h 0.216797 c -0.07041,-0.0388 -0.13947,-0.0803 -0.208984,-0.12109 z" />
  </g>
</svg>
