<?xml version="1.0" encoding="UTF-8" standalone="no"?>
<!-- Created with Inkscape (http://www.inkscape.org/) -->

<svg
   version="1.1"
   id="svg1"
   width="739"
   height="527"
   viewBox="0 0 739 527"
   sodipodi:docname="3.svg"
   inkscape:version="1.4 (86a8ad7, 2024-10-11)"
   xmlns:inkscape="http://www.inkscape.org/namespaces/inkscape"
   xmlns:sodipodi="http://sodipodi.sourceforge.net/DTD/sodipodi-0.dtd"
   xmlns="http://www.w3.org/2000/svg"
   xmlns:svg="http://www.w3.org/2000/svg">
  <defs
     id="defs1" />
  <sodipodi:namedview
     id="namedview1"
     pagecolor="#ffffff"
     bordercolor="#000000"
     borderopacity="0.25"
     inkscape:showpageshadow="2"
     inkscape:pageopacity="0.0"
     inkscape:pagecheckerboard="0"
     inkscape:deskcolor="#d1d1d1"
     inkscape:zoom="1.5085389"
     inkscape:cx="369.23145"
     inkscape:cy="263.5"
     inkscape:window-width="1920"
     inkscape:window-height="1013"
     inkscape:window-x="2391"
     inkscape:window-y="605"
     inkscape:window-maximized="1"
     inkscape:current-layer="g1" />
  <g
     inkscape:groupmode="layer"
     inkscape:label="Image"
     id="g1">
    <path
       style="fill:#000000"
       d="m 9,525.56739 c 0,-0.78794 -0.8636184,-1.70672 -1.919152,-2.04173 -1.282096,-0.40692 -2.139489,-1.91328 -2.5829244,-4.53795 -0.3650748,-2.16086 -1.5745912,-5.08675 -2.687814,-6.50199 -2.00613382,-2.55038 -2.01966477,-3.35798 -1.52934099,-91.27943 C 0.55285398,372.41783 1.0691653,312.925 1.4281271,289 1.7870889,265.075 2.2824835,220.975 2.529004,191 2.7755246,161.025 3.24501,128.85 3.5723049,119.5 4.1826958,102.06266 4.4249426,72.566161 4.0527498,61 3.9377082,57.425 4.1663928,52.562415 4.5609377,50.194255 5.0388067,47.325963 4.847671,45.083888 3.9884101,43.478344 3.0537519,41.731919 2.9969159,40.708642 3.7820283,39.76264 4.4294907,38.982495 4.9623474,32.340091 5.1061115,23.257086 5.2384322,14.897078 5.6219586,7.6116839 5.9583924,7.0673225 7.4506217,4.6528447 14.048378,3.0786185 22.385523,3.1478052 c 4.747635,0.039399 8.872686,0.4609681 9.166779,0.9368206 0.474419,0.7676259 7.96121,0.3500003 11.156359,-0.6223201 C 45.297213,2.6745794 96.835454,2.0754603 102.5,2.7672464 c 3.3,0.4030145 10.1938,0.3361564 15.31955,-0.1485735 5.8243,-0.550789 12.01256,-0.5066298 16.5,0.1177435 3.94925,0.5494889 7.62311,0.742034 8.16415,0.4278781 2.0201,-1.1729907 42.95553,-1.0931343 45.32801,0.088425 1.69513,0.84422 2.78292,0.8570226 4.07837,0.048 1.20979,-0.7555288 8.9917,-0.9653327 24.68829,-0.6656079 31.87402,0.6086314 82.23229,0.5999408 83.22625,-0.014363 1.66657,-1.0299927 46.31764,0.1015144 47.41775,1.2016174 0.75819,0.7581962 1.66712,0.7719619 3.02397,0.045798 1.06697,-0.5710249 2.95622,-0.7831569 4.19834,-0.4714045 1.24212,0.3117525 2.58089,0.2443316 2.97505,-0.1498241 1.15948,-1.1594803 62.62553,-1.7194256 100.08027,-0.9117144 12.84714,0.2770484 19.00195,0.809511 21.5,1.8600003 3.11463,1.3097752 3.89231,1.297477 7.06309,-0.1116957 2.85901,-1.2706145 6.61349,-1.5260852 19,-1.2928392 8.4903,0.1598779 15.99941,0.2536279 16.68691,0.2083333 2.26839,-0.1494485 5.59709,-0.1047545 19.8963,0.2671456 15.3351,0.3988419 17.60963,1.0996236 21.08977,6.4977614 0.97016,1.5048396 3.33893,4.3213256 5.26393,6.2588566 6.70762,6.751282 16,17.019176 16,17.679674 0,0.36587 2.3625,2.833186 5.25,5.482925 5.93812,5.449164 5.67568,5.187495 13.35364,13.314617 C 609.81823,60.136632 618,69.88372 618,70.841941 618,72.090691 625.54988,80 626.74188,80 c 0.61706,0 2.08322,1.35 3.25812,3 1.1749,1.65 2.67083,3 3.32428,3 1.40276,0 9.70645,8.66748 14.67572,15.31867 4.43806,5.94018 3.21967,4.59172 36.72014,40.64021 2.32107,2.49762 6.37905,7.24112 9.01771,10.54112 2.63867,3.3 7.21298,8.46786 10.16512,11.48413 2.95215,3.01628 6.43732,7.17878 7.74483,9.25 1.30751,2.07123 2.77286,3.76587 3.25634,3.76587 0.48347,0 1.1654,1.14092 1.51538,2.53537 0.34999,1.39445 1.70025,2.93987 3.00059,3.43426 1.56231,0.59399 2.9703,2.53237 4.15097,5.71463 0.98269,2.64866 2.54374,5.94074 3.46901,7.31574 0.92526,1.375 2.2588,4.3 2.96341,6.5 0.70462,2.2 2.40832,6.475 3.78602,9.5 2.94348,6.46298 4.13527,12.89359 4.86515,26.25115 0.57315,10.48934 -0.91001,24.89666 -3.09453,30.06012 -0.74199,1.7538 -2.08928,6.56373 -2.99399,10.68873 -1.89121,8.623 -4.91465,16.73271 -10.99813,29.5 -2.35861,4.95 -5.76793,12.2625 -7.57625,16.25 -1.80831,3.9875 -3.67851,7.25 -4.15599,7.25 -0.47747,0 -1.64836,1.6875 -2.60196,3.75 -0.9536,2.0625 -2.30155,4.11279 -2.99545,4.5562 -0.6939,0.44341 -2.42979,3.11144 -3.85754,5.92896 -1.42774,2.81752 -3.11,5.68822 -3.73836,6.37934 -0.62836,0.69113 -2.90767,3.19809 -5.06514,5.57104 -5.43347,5.97614 -25.3446,27.10359 -35.57733,37.75063 -4.675,4.86429 -9.85,10.39055 -11.5,12.28057 -1.65,1.89002 -8.2257,9.02695 -14.61266,15.85983 -13.20446,14.12636 -26.18522,28.7672 -30.07695,33.92343 -1.45292,1.925 -8.14045,9.125 -14.86118,16 -6.72072,6.875 -14.52118,15.22294 -17.33435,18.55098 -5.39103,6.37769 -21.64387,22.2708 -24.45904,23.91767 -1.01769,0.59535 -29.59654,1.04979 -74.15582,1.17919 -39.875,0.1158 -81.02314,0.45143 -91.4403,0.74586 -10.41717,0.29442 -19.41717,0.18436 -20,-0.24458 -0.58284,-0.42894 -6.0097,-0.39166 -12.0597,0.0829 -13.83031,1.08474 -4.44123,1.05127 -81.5,0.29059 -36.575,-0.36104 -68.3,-0.56446 -70.5,-0.45205 -13.57672,0.69375 -47.18507,0.54994 -48.1265,-0.20594 -0.61957,-0.49746 -6.01957,-0.68023 -12,-0.40615 -12.84777,0.58881 -30.84174,0.6461 -80.600209,0.25665 l -36.726709,-0.28746 -0.975868,2.79938 c -0.536728,1.53965 -1.672209,3.06658 -2.523292,3.39318 C 11.69634,523.94677 11,524.84083 11,525.60699 11,526.37314 10.55,527 10,527 9.45,527 9,526.35532 9,525.56739 Z m 316.11107,-16.93103 c 1.11914,0.49937 6.34588,0.58546 11.70547,0.1928 5.3259,-0.3902 16.20846,-0.48453 24.18346,-0.20962 7.975,0.2749 15.625,0.47213 17,0.43829 39.13798,-0.96336 54.19267,-1.20128 72,-1.13791 11.825,0.0421 36.33107,0.13009 54.45793,0.19557 l 32.95792,0.11905 2.54208,-2.34855 c 1.39814,-1.29171 3.92059,-3.48198 5.60544,-4.86727 1.68485,-1.3853 5.79157,-5.66872 9.12604,-9.51872 3.33447,-3.85 9.15595,-10.1723 12.93663,-14.04955 3.78068,-3.87724 10.40166,-10.94718 14.71329,-15.71096 4.31163,-4.76378 8.67611,-8.927 9.69884,-9.25161 1.02274,-0.3246 2.15071,-1.57967 2.5066,-2.78903 0.35588,-1.20937 3.7539,-5.2147 7.55115,-8.90074 3.79724,-3.68603 6.90408,-7.1358 6.90408,-7.66614 0,-0.53035 1.84153,-2.9145 4.09228,-5.29812 2.25076,-2.38362 5.73826,-6.35885 7.75,-8.83385 2.01175,-2.475 5.90772,-6.75513 8.65772,-9.51139 2.75,-2.75627 6.82094,-7.03127 9.04653,-9.5 2.22559,-2.46874 5.15059,-5.45027 6.5,-6.62563 2.18977,-1.90733 4.95526,-4.97907 15.45347,-17.16476 1.65,-1.91522 4.27697,-4.65582 5.8377,-6.09022 1.56074,-1.4344 4.17234,-4.52411 5.80356,-6.86602 1.63123,-2.34192 5.4166,-6.0685 8.41195,-8.28129 3.26169,-2.40955 6.02741,-5.41455 6.89542,-7.49198 0.79712,-1.90779 1.81995,-3.46871 2.27294,-3.46871 0.45299,0 1.68797,-1.6875 2.74439,-3.75 1.05642,-2.0625 3.62062,-6.02455 5.69822,-8.80455 2.0776,-2.78 5.19171,-7.73 6.92023,-11 1.72853,-3.27 3.76666,-6.65588 4.52918,-7.52419 0.76253,-0.86831 1.38641,-1.92384 1.38641,-2.34563 0,-0.42179 0.82143,-1.96136 1.8254,-3.42126 1.00398,-1.4599 2.42809,-4.22937 3.1647,-6.15437 0.73661,-1.925 1.94018,-4.21043 2.67459,-5.07874 0.73442,-0.86831 1.33531,-2.78853 1.33531,-4.26715 0,-1.47863 1.28609,-6.6182 2.85797,-11.42126 5.23021,-15.98146 5.65642,-18.75517 5.41388,-35.23285 -0.27079,-18.39663 -2.28025,-30.84313 -6.53861,-40.5 -3.09408,-7.01657 -7.69624,-13.84359 -10.99663,-16.31285 -0.96986,-0.72562 -2.69166,-3.13887 -3.82621,-5.36277 -1.13455,-2.2239 -3.49102,-5.51417 -5.23661,-7.31171 -1.74558,-1.79753 -5.64879,-6.06687 -8.67379,-9.48742 -3.025,-3.42054 -9.48996,-10.41775 -14.36658,-15.54935 -4.87662,-5.13159 -9.70751,-10.71296 -10.7353,-12.40304 -1.0278,-1.69007 -2.2417,-3.07286 -2.69757,-3.07286 -0.45586,0 -2.31758,-1.98693 -4.13716,-4.41539 -1.81957,-2.42847 -4.11459,-4.62624 -5.10004,-4.88394 -0.98545,-0.2577 -2.90764,-2.20828 -4.27152,-4.33461 -1.36388,-2.12633 -4.44,-5.64237 -6.83581,-7.8134 -2.39581,-2.17104 -5.62068,-5.69214 -7.16637,-7.82465 C 635.26792,102.38686 629.61502,96.222848 624.18286,91 623.32479,90.175 621.47013,88.247168 620.06137,86.715929 618.65262,85.184689 613.675,79.943003 609,75.067737 604.325,70.192472 598.025,63.425636 595,60.030325 591.975,56.635014 581.58711,45.9017 571.91581,36.178516 562.2445,26.455332 553.81462,17.531323 553.18274,16.347384 c -1.02426,-1.919138 -2.26244,-2.218972 -11.41581,-2.764415 -8.508,-0.506987 -73.40084,-1.786166 -77.51693,-1.528029 -1.50751,0.09454 -7.75654,0.103791 -9.5,0.01406 -0.6875,-0.03538 -42.875,0.216107 -93.75,0.558868 -50.875,0.342761 -94.3,0.628706 -96.5,0.635433 -2.2,0.0067 -22.45,0.02964 -45,0.05091 -22.55,0.02128 -65.075,0.07178 -94.5,0.112235 C 95.575,13.466901 71.108389,13.3275 70.629754,13.116667 69.747809,12.72818 60.628481,12.69347 59.25,13.073352 c -0.4125,0.113677 -10.274998,0.256177 -21.916661,0.316667 -11.641664,0.06049 -21.450704,0.394022 -21.797868,0.741182 -0.347164,0.347161 -0.840279,3.047161 -1.095812,6 -0.440584,5.09121 -1.671537,88.976939 -1.34443,91.618799 0.504703,4.0762 -0.651476,103.14608 -1.228304,105.25 -0.163733,0.5972 -0.491772,33.46329 -1.312514,131.5 -1.3130954,156.84786 -1.3137965,157.53018 -0.162618,158.25476 1.853374,1.16654 7.92754,1.22511 9.295718,0.0896 0.801531,-0.66521 2.328096,-0.75382 4.049503,-0.23506 2.225281,0.67062 16.904091,1.18741 35.262986,1.2415 1.375,0.004 12.85,0.15177 25.5,0.32827 25.8524,0.36071 89.70262,0.37223 114,0.0206 8.8,-0.12736 27.33222,-0.2269 41.18271,-0.22118 13.85049,0.006 25.92145,-0.2731 26.82435,-0.61957 0.90291,-0.34648 3.35523,-0.0644 5.44961,0.62678 2.73211,0.90168 9.0547,1.12696 22.37851,0.79737 10.21379,-0.25266 19.08544,-0.14115 19.71477,0.2478 0.62933,0.38895 2.92059,0.25629 5.09168,-0.29479 2.40479,-0.6104 4.73764,-0.64937 5.96944,-0.0997 z M 10,112 c 0,-0.55 -0.4765576,-1 -1.059017,-1 -0.5824593,0 -0.7809017,0.45 -0.440983,1 0.3399187,0.55 0.8164763,1 1.059017,1 C 9.8015576,113 10,112.55 10,112 Z"
       id="path1" />
  </g>
</svg>
