<?xml version="1.0" encoding="UTF-8" standalone="no"?>
<!-- Created with Inkscape (http://www.inkscape.org/) -->

<svg
   version="1.1"
   id="svg1"
   width="745"
   height="508"
   viewBox="0 0 745 508"
   sodipodi:docname="4.svg"
   inkscape:version="1.4 (86a8ad7, 2024-10-11)"
   xmlns:inkscape="http://www.inkscape.org/namespaces/inkscape"
   xmlns:sodipodi="http://sodipodi.sourceforge.net/DTD/sodipodi-0.dtd"
   xmlns="http://www.w3.org/2000/svg"
   xmlns:svg="http://www.w3.org/2000/svg">
  <defs
     id="defs1" />
  <sodipodi:namedview
     id="namedview1"
     pagecolor="#ffffff"
     bordercolor="#000000"
     borderopacity="0.25"
     inkscape:showpageshadow="2"
     inkscape:pageopacity="0.0"
     inkscape:pagecheckerboard="0"
     inkscape:deskcolor="#d1d1d1"
     inkscape:zoom="1.5649606"
     inkscape:cx="372.53333"
     inkscape:cy="254"
     inkscape:window-width="1920"
     inkscape:window-height="1013"
     inkscape:window-x="2391"
     inkscape:window-y="605"
     inkscape:window-maximized="1"
     inkscape:current-layer="g1" />
  <g
     inkscape:groupmode="layer"
     inkscape:label="Image"
     id="g1">
    <path
       style="fill:#000000"
       d="M 164.58448,507.25074 C 164.18699,506.8539 143.14446,506.02187 136,506.1205 c -27.69671,0.38235 -117.00402,0.11079 -119,-0.36185 -1.375,-0.32559 -3.255363,-0.62948 -4.178585,-0.67532 -1.775382,-0.0881 -10.8335963,-8.23189 -10.804086,-9.71338 0.00953,-0.47847 0.4454849,-4.93219 0.9687864,-9.89715 C 3.8724659,477.06333 4.3115121,444.54134 5.4967449,299.5 6.2102446,212.18639 6.9728073,148.71856 7.5933534,125 7.9027296,113.175 8.321774,93.15 8.524563,80.5 9.2506755,35.205038 10.210876,10.5144 11.298457,9.1719916 13.182172,6.8469102 22.117338,2.8294215 23.85123,3.5279303 25.885646,4.3475067 66.989747,4.2194157 76.25,3.3646422 80.997535,2.926418 83,2.3349186 83,1.3707896 83,0.61685531 83.9,0 85,0 86.111111,0 87,0.66666667 87,1.5 87,2.6111111 88.166667,3 91.5,3 94.833333,3 96,2.6111111 96,1.5 96,0.675 96.45,0 97,0 c 0.55,0 1,0.675 1,1.5 0,1.7495749 0.346631,1.8014106 13.5,2.0188102 5.5,0.090904 13.12589,0.4430997 16.94643,0.7826563 3.96001,0.3519524 7.44322,0.2050776 8.10197,-0.3416314 0.74171,-0.6155642 2.25753,-0.5748471 4.23269,0.1136957 2.19675,0.7657942 3.65543,0.7632162 5.09835,-0.00901 1.95261,-1.0450039 49.56294,-0.6275932 54.80927,0.4805255 1.2038,0.2542622 2.46786,0.010643 2.80902,-0.5413754 0.77215,-1.2493673 5.5071,-1.2863226 7.44839,-0.058133 0.87633,0.5544238 2.12702,0.5505009 3.17425,-0.00996 2.16938,-1.1610196 2.72273,-1.1700011 35.37963,-0.5742575 14.85,0.2709011 28.6527,0.8036583 30.67267,1.1839047 2.01996,0.3802465 5.86406,0.1656502 8.54243,-0.4768808 5.19841,-1.2470808 114.64449,-2.3738481 115.8292,-1.1924827 0.34425,0.3432743 30.17511,0.6909111 66.2908,0.7725263 36.1157,0.081615 67.9149,0.3358477 70.6649,0.5649611 2.75,0.2291135 6.16082,0.103241 7.5796,-0.2797166 C 551.90178,3.1718751 558,5.2351231 558,6.9517261 558,7.5282767 558.64699,8 559.43777,8 c 0.79077,0 4.27827,2.902857 7.75,6.450792 7.69968,7.868694 7.48592,7.653302 17.12955,17.261007 14.11159,14.059027 28.10369,28.598909 38.72953,40.245778 5.74923,6.301668 12.25315,13.35937 14.45315,15.683784 2.2,2.324413 6.7,7.377864 10,11.229891 3.3,3.852028 6.54667,7.031828 7.21482,7.066218 0.66815,0.0344 1.73967,1.07503 2.38117,2.31253 1.34966,2.60359 4.5978,6.17692 18.40401,20.2465 18.50632,18.85936 38.5,40.82311 38.5,42.29358 0,0.51699 1.79893,3.58822 3.99762,6.82495 2.19869,3.23673 3.99869,6.39237 4,7.01253 0.001,0.62015 0.67738,1.68775 1.50238,2.37244 0.825,0.68469 1.5,2.08598 1.5,3.11397 0,1.028 0.90962,2.4354 2.02137,3.12756 2.13772,1.33091 11.97863,20.5632 11.97863,23.41009 0,0.91993 0.64671,3.96215 1.43713,6.76049 3.54254,12.5417 3.99559,29.56591 1.06681,40.08789 -0.76545,2.75 -1.66682,7.43287 -2.00303,10.40638 -0.3362,2.97351 -1.18326,6.57351 -1.88235,8 -0.69908,1.42649 -2.51453,6.86862 -4.03434,12.09362 -3.73789,12.85064 -6.72311,20.35306 -10.94225,27.5 -6.85201,11.60683 -11.62511,17.51383 -16.90402,20.91975 -2.88087,1.85872 -5.91295,4.3778 -6.73795,5.59795 -5.11058,7.55841 -8.29881,11.40961 -17.36403,20.97481 -5.57478,5.88226 -11.93597,12.87487 -14.13597,15.53912 -2.2,2.66426 -6.19605,7.12206 -8.88011,9.90624 -2.68406,2.78417 -9.64059,10.46213 -15.45896,17.06213 -5.81837,6.6 -14.07026,15.50505 -18.33752,19.78899 -4.26726,4.28394 -10.47613,11.11462 -13.79749,15.17929 -3.32135,4.06466 -7.43666,8.43461 -9.14512,9.71101 -4.67342,3.49152 -11.02131,9.84065 -14.32206,14.32488 -8.68786,11.80286 -26.40518,30.76317 -31.05874,33.23772 -1.98536,1.05572 -5.85212,1.63924 -11.43287,1.72529 -5.57413,0.086 -8.56863,0.53731 -8.83333,1.33143 -0.5265,1.5795 -2.95238,1.54565 -3.4838,-0.0486 -0.61474,-1.84422 -24.5995,-1.75616 -26.45365,0.0971 -0.81191,0.81154 -2.03329,1.04665 -3.07205,0.59137 C 500.59296,506.2852 491,505.98459 491,507.05544 491,507.57495 488.75,508 486,508 c -2.75,0 -5,-0.45 -5,-1 0,-0.57778 -3.16667,-1 -7.5,-1 -4.446,0 -7.5,0.41659 -7.5,1.02305 0,0.56268 -1.06159,0.32747 -2.3591,-0.52268 -2.35936,-1.54592 -5.6409,-1.1468 -5.6409,0.68607 0,0.58055 -1.30979,0.67762 -3.25,0.24085 -1.7875,-0.40239 -14.725,-0.8809 -28.75,-1.06335 -14.025,-0.18246 -27.075,-0.41071 -29,-0.50723 -1.925,-0.0965 -14.075,0.12492 -27,0.49208 -20.89835,0.59368 -80.09156,0.92705 -163.5,0.92082 -15.4,-0.001 -31.07482,0.0502 -34.83293,0.11415 -3.75811,0.0639 -6.94527,0.004 -7.08259,-0.13302 z m 59.8721,-9.18048 c 0.33779,-0.54655 14.72153,-0.8938 34.89971,-0.84253 18.8788,0.048 34.73428,-0.15918 35.2344,-0.46034 0.50012,-0.30116 3.00859,-0.22416 5.57439,0.1711 2.56579,0.39527 10.66579,0.54296 18,0.32822 19.58136,-0.57334 52.91496,-0.66962 86.33492,-0.24937 8.25,0.10375 15.9,0.16134 17,0.12798 1.91112,-0.058 48.75338,0.0645 55,0.14381 12.65668,0.16063 62.25968,-1.48085 67.33488,-2.22828 3.48418,-0.51312 7.00574,-0.67551 7.82568,-0.36086 0.93582,0.35911 2.60653,-0.7815 4.48792,-3.06396 1.64842,-1.99982 3.42753,-3.63603 3.95359,-3.63603 1.28394,0 12.32355,-11.40959 17.81577,-18.41285 2.42982,-3.09831 5.47919,-5.89968 6.77638,-6.22525 1.29719,-0.32558 2.84267,-1.49657 3.43438,-2.6022 1.18167,-2.20795 6.01487,-8.65746 11.54879,-15.41088 1.95994,-2.39185 4.1705,-4.34882 4.91234,-4.34882 0.74185,0 2.91659,-2.45084 4.83277,-5.4463 1.91618,-2.99547 4.55612,-6.14881 5.86655,-7.00744 1.31042,-0.85862 3.75437,-3.47028 5.43099,-5.80369 1.67662,-2.33342 4.22749,-5.42069 5.6686,-6.86062 1.44111,-1.43993 4.00614,-4.36493 5.70008,-6.5 1.69394,-2.13507 7.87946,-8.89791 13.74559,-15.02853 5.86613,-6.13061 13.59069,-14.3907 17.16569,-18.35574 3.575,-3.96505 9.26685,-10.19909 12.64856,-13.85343 3.3817,-3.65434 9.38526,-10.35675 13.34123,-14.89425 3.95598,-4.5375 7.58056,-8.25 8.05463,-8.25 0.89641,0 11.33345,-11.94666 13.95558,-15.97412 0.825,-1.26716 3.1875,-4.59176 5.25,-7.38799 2.0625,-2.79624 3.75,-5.65748 3.75,-6.35831 0,-0.70083 1.3036,-4.08794 2.8969,-7.52691 1.59329,-3.43897 3.18806,-8.33809 3.54392,-10.88694 0.35586,-2.54885 1.54713,-7.04885 2.64728,-10 1.10014,-2.95115 2.18734,-6.49073 2.41601,-7.86573 0.22867,-1.375 1.05542,-4.3 1.83724,-6.5 2.37779,-6.691 2.75003,-14.94098 1.11935,-24.80828 -2.52499,-15.27889 -6.4918,-31.47264 -8.02023,-32.74112 C 725.64821,208.29308 725,206.66372 725,205.32981 c 0,-1.33392 -1.04488,-3.41632 -2.32195,-4.62756 C 719.15484,197.36066 708,176.96073 708,173.85908 708,172.83659 707.59592,172 707.10203,172 c -1.32238,0 -11.35241,-9.97707 -22.61944,-22.5 -8.59448,-9.55248 -15.41031,-16.49445 -22.98259,-23.40792 -2.26529,-2.06821 -14.91784,-15.47562 -18.08501,-19.16397 -1.14675,-1.33546 -4.07175,-4.27351 -6.5,-6.529 C 632.45747,96.258712 625.54543,88.969366 610,72.014913 605.325,66.916174 600.38619,61.789471 599.02486,60.622239 595.21934,57.359296 591.36952,53.393915 580.5,41.54131 567.36854,27.222188 557.09926,17.141114 554,15.526973 c -1.65121,-0.859977 -7.59271,-1.389691 -17.5,-1.560212 -8.25,-0.141996 -18.375,-0.318959 -22.5,-0.39325 -4.125,-0.07429 -8.29323,-0.509067 -9.26273,-0.966169 -0.96951,-0.457101 -2.31951,-0.434293 -3,0.05069 -1.3084,0.932469 -147.55338,0.6909 -161.0375,-0.266003 -4.43776,-0.314927 -8.31741,-0.136519 -9,0.41387 -0.73984,0.596563 -23.38285,0.991977 -59.06716,1.031487 -31.82707,0.03524 -58.10198,0.298658 -58.3887,0.585376 -0.28672,0.286718 -5.52139,0.196391 -11.63261,-0.200726 -11.37537,-0.739191 -16.94406,-0.717022 -86.1113,0.342805 -22,0.337099 -52.6,0.783834 -68,0.992743 l -28,0.379836 -0.622881,7.781292 c -0.342584,4.279711 -0.661939,17.132405 -0.709677,28.561542 -0.04774,11.429137 -0.436616,21.329137 -0.864172,22 C 17.875714,74.951112 17.460865,97.775 17.381382,125 c -0.07948,27.225 -0.472898,64.35 -0.874255,82.5 -0.618823,27.98413 -0.755321,44.57386 -0.423735,51.5 0.09362,1.95564 -1.025395,62.47027 -1.571798,85 -0.356648,14.70563 -0.987826,61.28919 -1.838195,135.66632 -0.09537,8.34148 0.126631,15.46651 0.493335,15.8334 0.504203,0.50447 141.093606,1.92487 150.083266,1.51632 9.1969,-0.41797 57.84032,0.74095 58.49295,1.39358 0.86844,0.86844 2.0592,0.71953 2.71363,-0.33936 z M 635.5,415 c 0.33992,-0.55 -0.0835,-1 -0.94098,-1 -0.85746,0 -1.55902,0.45 -1.55902,1 0,0.55 0.42344,1 0.94098,1 0.51754,0 1.2191,-0.45 1.55902,-1 z M 718,324 c 0,-0.55 -0.45,-1 -1,-1 -0.55,0 -1,0.45 -1,1 0,0.55 0.45,1 1,1 0.55,0 1,-0.45 1,-1 z"
       id="path1" />
  </g>
</svg>
