<?xml version="1.0" encoding="UTF-8" standalone="no"?>
<!-- Created with Inkscape (http://www.inkscape.org/) -->

<svg
   version="1.1"
   id="svg1"
   width="748"
   height="540"
   viewBox="0 0 748 540"
   sodipodi:docname="2.svg"
   inkscape:version="1.4 (86a8ad7, 2024-10-11)"
   xmlns:inkscape="http://www.inkscape.org/namespaces/inkscape"
   xmlns:sodipodi="http://sodipodi.sourceforge.net/DTD/sodipodi-0.dtd"
   xmlns="http://www.w3.org/2000/svg"
   xmlns:svg="http://www.w3.org/2000/svg">
  <defs
     id="defs1" />
  <sodipodi:namedview
     id="namedview1"
     pagecolor="#ffffff"
     bordercolor="#000000"
     borderopacity="0.25"
     inkscape:showpageshadow="2"
     inkscape:pageopacity="0.0"
     inkscape:pagecheckerboard="0"
     inkscape:deskcolor="#d1d1d1"
     inkscape:zoom="1.0410183"
     inkscape:cx="422.66307"
     inkscape:cy="267.04621"
     inkscape:window-width="1920"
     inkscape:window-height="1013"
     inkscape:window-x="2391"
     inkscape:window-y="605"
     inkscape:window-maximized="1"
     inkscape:current-layer="g1" />
  <g
     inkscape:groupmode="layer"
     inkscape:label="Image"
     id="g1">
    <rect
       style="fill:#000000"
       id="rect1"
       width="136.52831"
       height="177.96227"
       x="64.528305"
       y="286.64151" />
    <path
       id="path1"
       style="fill:#000000"
       d="M 535.55469,1.6171875 C 535.4053,1.4689453 535.29883,2.73125 535.29883,5 c 0,3.025 0.18885,4.2625 0.41797,2.75 0.22913,-1.5125 0.22913,-3.9875 0,-5.5 -0.0573,-0.378125 -0.11232,-0.5833984 -0.16211,-0.6328125 z m 7,0 C 542.4053,1.4689453 542.29883,2.73125 542.29883,5 c 0,3.025 0.18885,4.2625 0.41797,2.75 0.22913,-1.5125 0.22913,-3.9875 0,-5.5 -0.0573,-0.378125 -0.11232,-0.5833984 -0.16211,-0.6328125 z M 420.39258,11.722656 C 353.20435,11.75503 277.85566,11.973702 241.5,12.357422 172.64945,13.084113 146.06699,13.15918 145.20898,12.628906 144.00058,11.88207 122.38078,11.665489 68,11.855469 c -18.110453,0.06327 -49.471287,1.309702 -50.148438,1.992187 -0.543455,0.547737 -1.222606,14.76514 -2.261718,47.365235 -0.100146,3.141867 -0.494425,6.025676 -0.876953,6.408203 -0.382528,0.382528 -0.206425,1.282552 0.390625,2.001953 1.155778,1.392627 1.466932,108.630593 0.371093,127.876953 -0.784859,13.7846 -1.488265,40.74644 -1.251953,48 0.483064,14.82755 0.199101,99.86688 -0.423828,127 -0.917427,39.96073 -0.911701,39.57358 -0.86914,74 0.0204,16.5 0.0014,33.97487 -0.04102,38.83398 -0.04239,4.85911 0.209698,12.73411 0.558594,17.5 0.553794,7.56476 0.9525,8.95177 3.148437,10.91602 2.059816,1.84249 3.688161,2.25 8.988281,2.25 h 6.472657 l -0.0098,0.16602 c 2.096215,-0.0936 4.189198,-0.23402 6.283203,-0.21094 0.754394,0.008 1.508548,0.0388 2.263672,0.0996 0.95093,0.16525 2.044731,0.43152 2.980469,0.92187 3.874845,-0.17331 9.125761,-0.34704 19.759765,-0.25195 57.136186,0.51089 144.314196,-0.42922 146.367186,-1.57813 0.83386,-0.46663 3.5169,-0.47448 5.96289,-0.0176 4.98231,0.93079 11.20349,0.71594 13.06446,-0.45118 0.67614,-0.42404 2.02614,-0.36355 3,0.13282 1.89584,0.9663 8.6741,0.83086 12.04882,-0.24024 1.12951,-0.35849 2.34774,-0.17509 2.70704,0.40625 0.35928,0.58135 1.1564,0.74612 1.76953,0.36719 1.75628,-1.08544 24.6767,-1.26393 25.33593,-0.19727 0.35114,0.56816 1.18811,0.45317 2.08008,-0.2871 1.07968,-0.89608 1.96194,-0.94628 3.18946,-0.17969 1.08487,0.67753 5.22747,0.83052 11.49218,0.42578 5.38799,-0.34809 10.32588,-0.28749 10.97266,0.13476 1.12225,0.73265 34.54906,0.50918 120.17578,-0.80468 35.47718,-0.54436 55,-1.04577 55,-1.41407 0,-0.64368 7.69192,-0.51931 8.09375,0.13086 0.56736,0.91802 4.75062,1.17124 5.58398,0.33789 0.28082,-0.28082 17.11524,-0.56922 37.41016,-0.64062 l 36.90039,-0.13086 4.50586,-3.37305 c 6.51707,-4.8792 10.63439,-8.86537 16.82031,-16.28515 3.00813,-3.60813 5.9791,-7.01055 6.60157,-7.56055 0.62247,-0.55 2.14482,-2.31372 3.38476,-3.91992 1.23995,-1.60621 5.33347,-6.33121 9.0957,-10.5 3.76223,-4.1688 8.52648,-9.49258 10.5879,-11.83008 2.06141,-2.3375 4.39794,-4.25 5.1914,-4.25 0.79341,0 1.17254,-0.43752 0.8418,-0.97266 -0.33073,-0.53514 2.90367,-5.05682 7.18945,-10.04882 4.28577,-4.992 10.04297,-11.7254 12.79297,-14.96094 7.45496,-8.77119 13.74776,-15.99462 16.01953,-18.38867 1.11113,-1.17094 4.4837,-5.05391 7.49414,-8.62891 3.01045,-3.575 5.73216,-6.725 6.04688,-7 0.31472,-0.275 1.96708,-2.55 3.67187,-5.05664 1.70478,-2.50663 3.88217,-5.20663 4.83985,-6 1.46453,-1.21324 12.2129,-13.76907 17.41992,-20.34961 0.82974,-1.0486 4.99531,-5.91709 9.25781,-10.81836 4.2625,-4.90127 7.75,-9.2932 7.75,-9.75977 0,-0.46654 2.3625,-4.27305 5.25,-8.45898 15.34987,-22.25229 17.92931,-27.16816 20.75391,-39.55664 0.68971,-3.025 1.63581,-5.98555 2.10351,-6.57812 1.52125,-1.92742 4.0009,-14.66048 5.13281,-26.36329 1.20371,-12.44519 -0.0591,-28.79518 -2.66992,-34.55859 -0.74745,-1.65 -1.90844,-4.35 -2.58008,-6 -0.67164,-1.65 -1.62303,-3.675 -2.11328,-4.5 -0.49025,-0.825 -1.27987,-2.4 -1.7539,-3.5 -1.87073,-4.34115 -5.42633,-13.20519 -6.81446,-16.98828 -0.80499,-2.19383 -1.91438,-4.26798 -2.46679,-4.60938 -0.55241,-0.34141 -2.20628,-2.67018 -3.67383,-5.17382 -3.0537,-5.20962 -9.9597,-13.34704 -22.16797,-26.11914 -4.675,-4.89092 -9.95645,-10.5152 -11.73633,-12.5 -1.77988,-1.98483 -4.25488,-4.71819 -5.5,-6.07227 -1.24512,-1.35408 -4.45056,-4.95408 -7.12305,-8 C 673.46072,128.13342 659.65211,113.64366 639.05859,92.5 632.09462,85.35 623.20626,75.9 619.30664,71.5 615.40703,67.1 610.59409,61.75663 608.60938,59.625 606.62464,57.493369 605,55.549383 605,55.304688 c 0,-1.171273 -8.61721,-10.470034 -11.58789,-12.503907 -1.88088,-1.287748 -3.6241,-3.492366 -3.95703,-5.005859 -0.32723,-1.487568 -1.40178,-2.960211 -2.38867,-3.273438 -0.98689,-0.313227 -3.64644,-2.766531 -5.91016,-5.451172 -6.98972,-8.289388 -14.57634,-14.191928 -18.33984,-14.267578 -1.82386,-0.03666 -3.84565,-0.483201 -4.49219,-0.99414 -0.64654,-0.510939 -4.24654,-1.231512 -8,-1.59961 -3.71589,-0.364412 -62.74341,-0.518701 -129.93164,-0.486328 z M 1.7753906,14.400391 c -1.8755353,0.391816 -2.01305461,0.965651 -0.1992187,1.439453 0.086273,-0.531032 0.1630197,-1.025138 0.1992187,-1.439453 z M 511.5,17.962891 c 7.79601,0.106073 7.77614,0.06242 6.03516,12.611328 C 516.70149,36.58323 515.54999,45.1 514.97656,49.5 c -0.57343,4.4 -1.66246,10.025 -2.41992,12.5 -0.75746,2.475 -1.65876,7.425 -2.00195,11 -0.3432,3.575 -1.28388,10.775 -2.0918,16 -2.30391,14.89998 -4.43911,29.53941 -6.05078,41.5 -1.77558,13.17709 -2.71962,19.74195 -4.74805,33 -0.84147,5.5 -1.74514,11.575 -2.00781,13.5 -0.26267,1.925 -1.38812,9.125 -2.50195,16 -1.11383,6.875 -2.50075,15.65 -3.08203,19.5 -4.05083,26.82959 -5.46057,36.98513 -6.10547,44 -0.93046,10.12099 -3.60619,30.16508 -5.07227,38 -1.6865,9.01285 -5.85682,36.94066 -6.83984,45.80273 -0.82053,7.3972 -2.23233,16.80015 -5.58399,37.19727 -2.29779,13.98361 -5.50759,35.52493 -6.03515,40.5 -0.26245,2.475 -0.89797,6.525 -1.41211,9 -0.51414,2.475 -1.17225,6.75 -1.46289,9.5 -1.27763,12.08852 -3.49234,27.37857 -4.59766,31.75 -1.11968,4.42821 -2.23432,5.78521 -3.28711,4 -0.53865,-0.91338 -2.2089,-11.61513 -3.69922,-23.69922 -0.60698,-4.92167 -1.39487,-9.41758 -1.75,-9.99219 -0.35512,-0.57461 -1.19927,-5.099 -1.87695,-10.05273 -0.67769,-4.95372 -1.44475,-10.13086 -1.70313,-11.50586 -0.25838,-1.375 -0.74967,-4.75 -1.09179,-7.5 -0.55704,-4.47767 -1.44629,-10.24059 -5.63477,-36.5 -1.51535,-9.50035 -2.92049,-19.62873 -3.25976,-23.5 -0.14461,-1.65 -0.78574,-3.95395 -1.42578,-5.11914 -0.64011,-1.16518 -0.96679,-2.3164 -0.72461,-2.55859 0.50557,-0.50556 -1.85306,-19.23804 -3.40821,-27.06641 -0.9669,-4.86718 -2.12133,-11.72728 -5.67968,-33.75586 -0.75518,-4.675 -2.07139,-13.9 -2.92579,-20.5 -0.8544,-6.6 -1.9697,-14.025 -2.47851,-16.5 -1.97417,-9.60296 -4.97363,-26.88556 -6.07422,-35 -0.63408,-4.675 -1.98389,-12.55 -3,-17.5 -2.31451,-11.27519 -5.33405,-29.08376 -7.81445,-46.0918 -1.00344,-6.88052 -1.49812,-9.87007 -4.77539,-28.9082 -0.85211,-4.95 -1.75404,-10.575 -2.00586,-12.5 -0.62574,-4.783413 -3.24054,-20.928675 -3.88672,-24 -0.28928,-1.375 -0.97096,-6.325 -1.51563,-11 -0.54468,-4.675 -1.39112,-9.85 -1.88086,-11.5 -0.48974,-1.65 -1.425,-7.5 -2.07812,-13 -0.65312,-5.5 -1.8183,-12.219316 -2.58789,-14.931641 -2.04188,-7.196415 -1.81315,-9.421968 1.10156,-10.75 1.88722,-0.859873 3.13962,-0.847587 5.11133,0.05078 1.72593,0.786387 3.01404,0.857054 3.79492,0.208984 0.93608,-0.77688 89.19952,-1.5764 123.09375,-1.115234 z m -188.88086,0.324218 c 0.23647,0.236469 -0.40944,1.467179 -1.43555,2.734375 -1.02974,1.271672 -2.137,1.861447 -2.47265,1.31836 -0.61321,-0.992196 3.10894,-4.852 3.9082,-4.052735 z m -30.66602,0.128907 c 8.98778,0.136069 11.64384,0.479817 12.4668,1.101562 1.77211,1.338832 1.82564,1.895458 0.69336,7.216797 -1.1743,5.518849 -1.91035,10.308924 -3.95898,25.765625 -0.51028,3.85 -1.2193,8.125 -1.57618,9.5 -0.35685,1.375 -1.29038,7.225 -2.07421,13 -2.28509,16.835861 -6.25449,44.40549 -8.49414,59 -2.28908,14.91658 -5.66958,36.56506 -6.5586,42 -0.31488,1.925 -1.27113,8 -2.125,13.5 -0.85386,5.5 -1.7022,10.9 -1.88476,12 -0.18256,1.1 -0.80929,6.05 -1.39258,11 -0.58329,4.95 -1.47693,11.25 -1.98633,14 -0.50939,2.75 -1.65939,10.175 -2.55469,16.5 -0.8953,6.325 -1.84977,12.625 -2.12304,14 -0.27327,1.375 -1.32445,8.8 -2.33594,16.5 -2.00345,15.25133 -4.22731,30.67469 -6.5586,45.5 -3.57739,22.7496 -7.43508,48.6199 -8.12695,54.5 -0.55732,4.73656 -3.32927,25.05634 -3.84375,28.17383 -0.19735,1.19583 -0.8799,6.59583 -1.51562,12 -0.63572,5.40418 -1.79682,12.3315 -2.58008,15.39258 -0.78326,3.06109 -1.44766,7.78609 -1.47656,10.5 -0.0289,2.71392 -0.73215,8.30859 -1.5625,12.43359 -0.83036,4.125 -2.1181,12 -2.86133,17.5 -0.74323,5.5 -1.39,10.1125 -1.4375,10.25 -0.0475,0.1375 -0.54993,0.25 -1.11719,0.25 -1.39173,0 -1.70036,-1.26789 -2.40039,-9.8457 -0.3297,-4.03994 -1.13176,-8.31494 -1.78125,-9.5 -0.64949,-1.18507 -1.48114,-5.9793 -1.84961,-10.6543 -0.7161,-9.08552 -2.81939,-21.17666 -3.82617,-22 -0.33627,-0.275 -0.62508,-2.975 -0.64258,-6 -0.0361,-6.22079 -2.08644,-22.71982 -3.47852,-28 -0.50751,-1.925 -1.20007,-6.5626 -1.54101,-10.30664 -0.54628,-5.99884 -0.90763,-6.91767 -3.03516,-7.72656 -2.92966,-1.11385 -3.13953,-2.96408 -0.41797,-3.67578 1.79369,-0.46906 1.93221,-1.09064 1.37696,-6.15625 -0.3397,-3.09905 -1.0512,-7.65977 -1.58008,-10.13477 -0.52887,-2.475 -1.54691,-9 -2.26367,-14.5 -0.71676,-5.5 -1.7883,-12.7 -2.38086,-16 -0.59255,-3.3 -1.30349,-8.475 -1.58008,-11.5 -1.68498,-18.42861 -5.40354,-44.14731 -6.93945,-48 -0.32889,-0.825 -1.06253,-5.325 -1.63086,-10 -0.56833,-4.675 -1.50134,-10.975 -2.07422,-14 -1.94961,-10.29463 -3.01722,-17.48462 -4.44922,-30 -0.78663,-6.875 -2.11374,-15.29204 -2.95117,-18.70508 -0.83744,-3.41303 -1.52339,-7.46303 -1.52539,-9 -0.002,-1.53696 -0.93319,-8.19492 -2.06836,-14.79492 -3.16023,-18.37388 -3.93766,-23.368 -4.90235,-31.5 -0.48934,-4.125 -1.38705,-9.75 -1.99609,-12.5 -0.60905,-2.75 -1.73911,-10.4 -2.51172,-17 -0.77261,-6.6 -1.63818,-13.125 -1.92187,-14.5 -0.28368,-1.375 -0.96589,-6.028848 -1.51758,-10.341797 -0.55169,-4.312949 -1.29518,-8.763323 -1.65235,-9.888672 -0.35718,-1.125349 -0.7648,-3.671501 -0.90429,-5.658203 C 174.14297,62.692552 171.94114,46.982926 171.00391,43 169.86248,38.149326 168,25.467621 168,22.548828 c 0,-2.820056 1.95777,-3.6731 8.17969,-3.5625 2.37659,0.04225 31.77031,-0.146025 65.32031,-0.419922 26.14596,-0.213451 41.46535,-0.28646 50.45312,-0.15039 z M 34.335938,18.669922 c 0.292408,0.29241 13.853255,0.597497 30.134765,0.679687 24.687664,0.124632 29.751615,0.392387 30.5,1.603516 0.49356,0.79874 0.661795,1.830878 0.375,2.294922 -0.511413,0.827484 -1.63547,7.274794 -4.753906,27.251953 -1.568201,10.046134 -2.176396,13.870357 -5.71875,36 -1.05648,6.6 -2.338303,15.15 -2.849609,19 -0.511308,3.85 -1.434808,9.25 -2.052735,12 -0.617926,2.75 -1.887845,10.85 -2.822265,18 -0.934422,7.15 -1.981306,13.45 -2.326172,14 -0.344867,0.55 -0.902133,3.7 -1.238282,7 -0.336149,3.3 -1.316981,9.825 -2.179687,14.5 -2.039788,11.05361 -5.050152,30.07724 -7.4375,47 -1.047469,7.425 -2.830691,18.675 -3.962891,25 -2.391858,13.36204 -3.541933,20.59143 -4.929687,31 -0.549979,4.125 -1.691334,11.775 -2.53711,17 -0.845775,5.225 -1.712811,11.075 -1.925781,13 -0.212971,1.925 -0.676538,4.20047 -1.03125,5.05664 -0.354713,0.85617 -1.274565,6.25617 -2.042969,12 -0.768404,5.74383 -2.362402,16.06836 -3.542968,22.94336 -2.954597,17.20605 -2.838434,16.44085 -4.021485,26.5 -0.582167,4.95 -1.503928,9.80614 -2.048828,10.79102 -0.544903,0.98487 -0.772974,2.14396 -0.505859,2.57617 0.267116,0.4322 -0.193466,3.67605 -1.023438,7.20898 -0.829972,3.53292 -1.644715,9.12383 -1.810547,12.42383 -0.165832,3.3 -0.791594,8.475 -1.390625,11.5 -2.532779,12.79009 -7.689743,45.7445 -8.841797,56.5 -0.294561,2.75 -0.91211,5.39672 -1.373046,5.88086 -1.326688,1.39347 -1.883777,-4.71396 -1.904297,-20.88086 -0.01658,-13.05947 -0.239197,-44.79503 -1.185547,-169 -0.113146,-14.85 0.120069,-28.0125 0.519531,-29.25 0.467281,-1.44759 0.317929,-2.25 -0.419922,-2.25 -0.712512,0 -0.947376,-1.04148 -0.61914,-2.75 0.290577,-1.5125 0.816945,-33.35 1.169921,-70.75 0.35298,-37.4 0.836037,-73.85 1.072266,-81 0.236229,-7.15 0.415218,-27.175 0.398438,-44.5 -0.01678,-17.325 0.344519,-32.85 0.802734,-34.5 0.718652,-2.587822 1.324158,-3.013916 4.408203,-3.103516 1.966393,-0.05713 4.252756,-0.364167 5.080078,-0.68164 0.827321,-0.317473 1.742747,-0.337336 2.035157,-0.04492 z M 595.69531,56.046875 c 0.75452,6.06e-4 1.86979,1.13141 3.30469,3.453125 1.18972,1.925 2.79512,3.5 3.56836,3.5 0.77325,0 2.54284,1.8 3.93164,4 1.3888,2.2 3.1436,4 3.89844,4 0.75485,0 2.17109,1.2375 3.14844,2.75 0.97733,1.5125 7.89181,8.869108 15.36523,16.347656 7.47342,7.478548 17.41289,17.783414 22.08789,22.900394 4.675,5.11698 11.65127,12.49787 15.50391,16.40234 5.93998,6.0199 12.63735,13.31335 26.46875,28.82617 1.35998,1.5253 2.95121,2.77344 3.53515,2.77344 0.58394,0 1.91242,1.4625 2.95313,3.25 1.04072,1.7875 4.62317,5.95 7.96094,9.25 8.27877,8.18509 16.06155,18.39855 17.60351,23.10156 0.70306,2.14437 1.85213,4.79844 2.55469,5.89844 1.49849,2.34617 6.98582,16.03183 9.02148,22.5 0.77893,2.475 2.1521,6.69133 3.05078,9.36914 2.67177,7.96111 2.33863,29.76388 -0.6289,41.13086 -1.29228,4.95 -2.95234,9.70983 -3.6875,10.57812 -0.73516,0.86832 -1.33308,2.44331 -1.33008,3.5 0.005,1.99343 -2.30588,9.70616 -4.4707,14.92188 -3.56177,8.58142 -5.07591,11.4592 -9.48828,18.02734 -2.64774,3.94132 -5.13302,8.16668 -5.52149,9.39063 -0.57839,1.82236 -8.31782,12.23889 -10.46289,14.08203 -0.32005,0.275 -1.89007,2.525 -3.49023,5 -1.60017,2.475 -6.09556,7.68727 -9.99024,11.58203 -3.89469,3.89477 -8.88203,9.22923 -11.08203,11.85547 -2.2,2.62624 -8.725,9.81097 -14.5,15.9668 -5.775,6.15583 -11.625,12.67784 -13,14.49218 -2.984,3.93744 -4,3.27806 -4,-2.59765 0,-2.40268 -0.69799,-5.43481 -1.55078,-6.73633 -0.86386,-1.31842 -1.97598,-6.50643 -2.51172,-11.71484 -0.52888,-5.14162 -1.63146,-11.96914 -2.44922,-15.17383 -0.81777,-3.20468 -1.73119,-8.37968 -2.03125,-11.5 -0.94371,-9.81364 -2.37903,-18.83518 -3.4375,-21.61914 C 635.45827,334.07845 635,330.64353 635,327.92188 c 0,-2.72166 -0.43495,-5.73051 -0.9668,-6.68555 -0.53185,-0.95504 -1.6304,-7.36133 -2.4414,-14.23633 -0.81099,-6.875 -1.94965,-14.975 -2.5293,-18 -0.57964,-3.025 -1.25034,-7.75 -1.49023,-10.5 -0.2399,-2.75 -1.13415,-8.825 -1.98829,-13.5 -0.85415,-4.675 -1.97444,-11.875 -2.49023,-16 -0.51578,-4.125 -2.05803,-14.475 -3.42578,-23 -3.15075,-19.63821 -5.43276,-34.44373 -6.78125,-43.98438 -0.58181,-4.11635 -1.31214,-7.89536 -1.62305,-8.39843 -0.31091,-0.50307 -0.69928,-2.31008 -0.86328,-4.01563 -0.164,-1.70555 -1.01479,-7.82656 -1.88867,-13.60156 -0.87388,-5.775 -2.25301,-16.125 -3.06641,-23 -0.8134,-6.875 -1.95315,-14.525 -2.5332,-17 -0.58005,-2.475 -1.68836,-9.675 -2.46289,-16 -0.77454,-6.325 -1.89994,-13.75 -2.5,-16.5 -0.60005,-2.75 -1.25315,-6.575 -1.45117,-8.5 -0.19802,-1.925 -0.81246,-6.349802 -1.36524,-9.833984 -0.94914,-5.982537 -0.69502,-9.12015 0.5625,-9.119141 z M 357,186 c 0.55,0 1,0.45 1,1 0,0.55 -0.45,1 -1,1 -0.55,0 -1,-0.45 -1,-1 0,-0.55 0.45,-1 1,-1 z m 6.5,105 c 1.375,0 2.50039,0.3375 2.5,0.75 -3.8e-4,0.4125 -1.12538,0.81523 -2.5,0.89453 -1.37461,0.0793 -2.5,-0.25818 -2.5,-0.75 C 361,291.40272 362.125,291 363.5,291 Z m -12.94141,32 c 0.24254,0 0.44141,0.45 0.44141,1 0,0.55 -0.47613,1 -1.05859,1 -0.58246,0 -0.78133,-0.45 -0.44141,-1 0.33992,-0.55 0.81605,-1 1.05859,-1 z m -216.26562,7.375 c 0.18125,-0.0799 0.43203,-0.045 0.70703,0.125 0.55,0.33992 1,0.81605 1,1.05859 0,0.24254 -0.45,0.44141 -1,0.44141 -0.55,0 -1,-0.47613 -1,-1.05859 0,-0.29123 0.11172,-0.48648 0.29297,-0.56641 z m 384.74609,31.20117 c 0.51717,0.12105 0.96094,0.64421 0.96094,1.48242 0,0.51754 -0.66101,0.94141 -1.46875,0.94141 -0.89221,0 -1.24283,-0.58648 -0.89453,-1.49414 0.29514,-0.76913 0.88517,-1.05074 1.40234,-0.92969 z M 509.94141,367 c 0.58246,0 1.05859,0.45 1.05859,1 0,0.55 -0.19887,1 -0.44141,1 -0.24254,0 -0.71867,-0.45 -1.05859,-1 -0.33992,-0.55 -0.14105,-1 0.44141,-1 z m 5.61718,0 c 0.85748,0 1.28133,0.45 0.94141,1 -0.33992,0.55 -1.04105,1 -1.55859,1 C 514.42387,369 514,368.55 514,368 c 0,-0.55 0.70113,-1 1.55859,-1 z m -294.07031,6.48047 c -0.60273,0.40566 -0.62605,1.03049 0.16406,1.83203 -0.0642,-0.61056 -0.1229,-1.22097 -0.16406,-1.83203 z m 193.80469,0.89453 c 0.18125,-0.0799 0.43203,-0.045 0.70703,0.125 0.55,0.33992 1,0.81605 1,1.05859 0,0.24254 -0.45,0.44141 -1,0.44141 -0.55,0 -1,-0.47613 -1,-1.05859 0,-0.29123 0.11172,-0.48648 0.29297,-0.56641 z m -29.80664,10.80664 c 0.31173,0.0939 0.51367,0.29701 0.51367,0.62891 0,0.52619 -0.92524,1.19827 -2.05664,1.49414 -1.30858,0.3422 -1.91604,0.1123 -1.66797,-0.63281 0.35915,-1.07876 2.27573,-1.77181 3.21094,-1.49024 z M 83,405 c 0.55,0 1,0.45 1,1 0,0.55 -0.45,1 -1,1 -0.55,0 -1,-0.45 -1,-1 0,-0.55 0.45,-1 1,-1 z m 115,5.5 c 0.55,-0.33992 1,0.0578 1,0.88281 0,0.825 -0.45,1.77727 -1,2.11719 -0.55,0.33992 -1,-0.0578 -1,-0.88281 0,-0.825 0.45,-1.77727 1,-2.11719 z m 80.25781,27.78516 c 0.65434,0.25025 1.36032,1.16893 1.5625,2.54296 C 279.99606,442.02256 279.73291,443 279.23633,443 277.80827,443 277,441.82546 277,439.75 c 0,-1.29673 0.60347,-1.71509 1.25781,-1.46484 z m 41.55469,3.94336 c 0.65312,-0.21771 1.1875,0.31666 1.1875,1.1875 0,0.87083 -0.71315,1.58398 -1.58398,1.58398 -1.76593,0 -1.45774,-2.15341 0.39648,-2.77148 z m -193.73828,2.96289 c 0.59125,0.19708 1.07617,0.78609 1.07617,1.30859 0,0.5225 -0.48492,1.11151 -1.07617,1.30859 C 125.48297,448.00568 125,447.41667 125,446.5 c 0,-0.91667 0.48297,-1.50568 1.07422,-1.30859 z M 282.29297,477.375 c 0.18125,-0.0799 0.43203,-0.045 0.70703,0.125 0.55,0.33992 1,0.81605 1,1.05859 0,0.24254 -0.45,0.44141 -1,0.44141 -0.55,0 -1,-0.47613 -1,-1.05859 0,-0.29123 0.11172,-0.48648 0.29297,-0.56641 z M 387.5,481 c 0.825,0 1.5,0.45 1.5,1 0,0.55 -0.675,1 -1.5,1 -0.825,0 -1.5,-0.45 -1.5,-1 0,-0.55 0.675,-1 1.5,-1 z M 20.279297,517.37891 c -0.06732,0.0673 -0.09265,0.39935 -0.128906,0.66406 0.145675,-0.10504 0.303254,-0.20443 0.46875,-0.30078 -0.128203,-0.26507 -0.251619,-0.45151 -0.339844,-0.36328 z m -0.855469,16.18359 c 0.04685,0.181 0.102982,0.18455 0.164063,0.0527 -0.05525,-0.0166 -0.109394,-0.0352 -0.164063,-0.0527 z" />
    <rect
       style="fill:#000000"
       id="rect2"
       width="85.584908"
       height="322.64151"
       x="303.62265"
       y="163.69812" />
    <rect
       style="fill:#000000"
       id="rect3"
       width="146.71698"
       height="118.18868"
       x="272.37735"
       y="387.84906" />
    <rect
       style="fill:#000000"
       id="rect4"
       width="87.622643"
       height="99.169815"
       x="495.84906"
       y="326.03775" />
    <rect
       style="fill:#000000"
       id="rect5"
       width="26.490566"
       height="22.415094"
       x="315.1698"
       y="18.339622" />
    <rect
       style="fill:#000000"
       id="rect6"
       width="51.622643"
       height="25.132076"
       x="369.50943"
       y="361.35849" />
  </g>
</svg>
