<?xml version="1.0" encoding="UTF-8" standalone="no"?>
<!-- Created with Inkscape (http://www.inkscape.org/) -->

<svg
   version="1.1"
   id="svg1"
   width="746"
   height="541"
   viewBox="0 0 746 541"
   sodipodi:docname="4.svg"
   inkscape:version="1.4 (86a8ad7, 2024-10-11)"
   xmlns:inkscape="http://www.inkscape.org/namespaces/inkscape"
   xmlns:sodipodi="http://sodipodi.sourceforge.net/DTD/sodipodi-0.dtd"
   xmlns="http://www.w3.org/2000/svg"
   xmlns:svg="http://www.w3.org/2000/svg">
  <defs
     id="defs1" />
  <sodipodi:namedview
     id="namedview1"
     pagecolor="#ffffff"
     bordercolor="#000000"
     borderopacity="0.25"
     inkscape:showpageshadow="2"
     inkscape:pageopacity="0.0"
     inkscape:pagecheckerboard="0"
     inkscape:deskcolor="#d1d1d1"
     inkscape:zoom="1.4695009"
     inkscape:cx="372.91572"
     inkscape:cy="270.15975"
     inkscape:window-width="1920"
     inkscape:window-height="1013"
     inkscape:window-x="2391"
     inkscape:window-y="605"
     inkscape:window-maximized="1"
     inkscape:current-layer="g1" />
  <g
     inkscape:groupmode="layer"
     inkscape:label="Image"
     id="g1">
    <rect
       style="fill:#000000"
       id="rect1"
       width="217.08051"
       height="86.423897"
       x="42.191196"
       y="219.80252" />
    <path
       id="path1"
       style="fill:#000000"
       d="m 562.63867,1.1503906 c -0.12926,-0.00811 -0.25401,0.1283542 -0.40625,0.546875 0.31472,-0.057735 0.72308,-0.1333694 1.04883,-0.1972656 -0.28072,-0.089557 -0.46743,-0.3386272 -0.64258,-0.3496094 z m -0.66601,2.0390625 c 0.15286,0.092839 0.3099,0.1730336 0.4707,0.2460938 -0.15188,-0.085938 -0.31131,-0.1641997 -0.4707,-0.2460938 z m -7.72071,10.0039059 -3.60937,0.238282 C 539.51573,14.165099 474.60347,15.153805 441,15.101562 c -13.475,-0.02095 -36.425,0.400779 -51,0.935547 -14.575,0.534769 -36.175,0.94462 -48,0.91211 -11.825,-0.03252 -22.175,-0.01281 -23,0.04297 -0.825,0.05578 -9.375,0.263704 -19,0.46289 -9.625,0.199187 -19.075,0.445786 -21,0.548828 -1.925,0.103042 -12.5,0.205873 -23.5,0.226563 -11,0.02068 -21.575,0.04022 -23.5,0.04492 -1.925,0.0047 -5.075,-0.04238 -7,-0.105469 -1.925,-0.06309 -27.575,0.04905 -57,0.25 -29.43794,0.201036 -53.98335,-0.02569 -54.57422,-0.503906 -0.60965,-0.493406 -3.53002,-0.468379 -6.75586,0.05664 -3.12511,0.508577 -21.763384,0.735509 -41.41992,0.503906 -21.888739,-0.257902 -37.166816,-0.03691 -39.421875,0.570313 -2.025089,0.5453 -4.798551,2.318588 -6.164063,3.941406 l -2.484374,2.951172 -0.103516,67.148438 C 17.01889,130.01957 16.654857,160.74458 16.267578,161.36719 15.8803,161.98981 15.437304,198.95 15.283203,243.5 c -0.171287,49.51799 -0.751192,88.19033 -1.494141,99.5 -0.668409,10.175 -1.03572,23 -0.814453,28.5 0.345229,8.58131 0.482573,34.97974 0.201172,38.75 -0.109254,1.46381 0.22605,6.02855 1.302735,17.75 0.429427,4.675 0.834019,25.74819 0.90039,46.83008 0.113641,36.09692 0.23005,38.41051 1.976563,39.6875 0.773479,0.56554 1.172116,1.20615 1.349609,2.66406 1.394877,-0.26653 2.815837,-0.38522 4.232422,-0.48437 1.289754,-0.0723 2.580326,-0.14271 3.871094,-0.13477 0.430256,0.003 0.860809,0.0145 1.291015,0.0371 0.101667,0.0122 0.202078,0.0286 0.302735,0.0449 0.01432,-0.0302 0.05138,-0.43028 0.06445,-0.44336 0.368493,-0.36849 71.698683,-0.70309 158.513673,-0.74219 124.23894,-0.0559 158.16502,-0.33424 159.34375,-1.3125 1.14291,-0.94854 1.67129,-0.9641 2.22851,-0.0625 0.90116,1.4581 18.18312,0.37973 20.15625,-1.25781 0.85695,-0.71122 1.71069,-0.73854 2.54102,-0.082 1.84017,1.45474 19.75,1.54136 19.75,0.0957 0,-0.65929 0.82885,-0.39946 1.94141,0.60743 1.76873,1.60069 2.21118,1.62274 4.95898,0.25195 2.61164,-1.30288 3.17564,-1.31231 4.20313,-0.0742 1.00224,1.20763 6.93534,1.36252 38.15234,0.99219 24.24548,-0.28762 37.33266,-0.80532 38.03125,-1.50391 0.75348,-0.75349 1.44945,-0.7483 2.37695,0.0215 0.89935,0.74639 8.1461,0.92817 23.07422,0.57617 22.26874,-0.52508 51.36568,-0.91049 52.26172,-0.69141 5.59583,1.36821 8.26689,0.87251 12.04492,-2.23828 2.19169,-1.80462 4.93798,-5.15517 6.10352,-7.44531 1.67985,-3.30068 2.81834,-4.2944 5.48633,-4.79492 2.76285,-0.51831 3.36523,-1.08312 3.36523,-3.1504 0,-1.73498 2.72178,-5.63806 8.75,-12.54882 4.8125,-5.51706 10.1,-11.66978 11.75,-13.67188 1.65,-2.0021 8.96035,-9.72096 16.24609,-17.1543 7.28574,-7.43333 13.248,-13.93662 13.25,-14.45117 0.005,-1.34233 4.14694,-5.56445 5.45899,-5.56445 0.60835,0 3.96848,-3.4875 7.4668,-7.75 3.49828,-4.2625 8.75864,-10.225 11.68945,-13.25 12.56632,-12.97017 19.95763,-21.28448 20.93164,-23.54492 0.57384,-1.33175 2.48965,-3.83571 4.25586,-5.5625 1.7662,-1.7268 4.34744,-5.22089 5.73633,-7.76563 1.73789,-3.18419 4.69727,-6.17344 9.49414,-9.58789 3.83357,-2.72877 6.9707,-5.33883 6.9707,-5.79883 0,-1.58794 5.29869,-5.74047 7.39648,-5.79687 1.38935,-0.0374 3.63197,-2.14654 6.60352,-6.21094 8.03123,-10.9849 17,-26.74223 17,-29.86719 0,-0.79314 0.9,-3.20764 2,-5.36523 1.1,-2.15759 2,-4.70524 2,-5.66211 0,-0.95687 0.71983,-4.34973 1.59961,-7.53906 2.54462,-9.22473 3.54277,-19.33988 4.07617,-41.29883 0.53148,-21.88026 -0.40108,-31.33981 -3.79297,-38.4375 -1.035,-2.16584 -1.88281,-4.46178 -1.88281,-5.10156 0,-0.63978 -1.06904,-3.17273 -2.375,-5.62891 -1.30597,-2.45618 -2.70366,-5.5016 -3.10547,-6.76758 -0.40181,-1.26598 -2.04913,-4.16133 -3.66211,-6.43359 -1.61297,-2.27225 -4.1352,-5.93086 -5.60547,-8.13086 -2.64765,-3.96174 -7.98707,-10.27368 -15.22461,-18 -2.06083,-2.2 -8.17201,-8.95 -13.58203,-15 C 684.41933,140.05132 661.41473,117 660.01953,117 659.45916,117 659,116.48438 659,115.85352 c 0,-0.63085 -1.66426,-3.21835 -3.69727,-5.75 C 650.64686,104.30571 632.38293,86 631.25391,86 630.47188,86 626.03101,80.378872 620.19141,72 618.8498,70.075 612.96907,63.775 607.125,58 601.28092,52.225 592.45363,43 587.50781,37.5 575.28057,23.902701 565.34119,14 563.91992,14 c -0.25494,0 -0.42551,-0.236264 -0.55469,-0.607422 -1.34591,0.14646 -2.68945,0.328563 -4.00585,0.648438 -2.38971,0.580673 -4.15033,0.0901 -5.10743,-0.847657 z m -12.27929,6.91211 c 0.66682,-0.01661 1.3708,0.173786 2.21484,0.566406 1.27144,0.591435 5.8452,1.141819 10.16406,1.224609 l 7.85352,0.150391 10.95312,10.226563 c 6.02377,5.624375 14.55079,14.819212 18.94922,20.43164 4.39843,5.612427 9.16736,11.055752 10.59766,12.097656 1.54248,1.12362 2.30215,2.37555 1.86914,3.076172 -0.47765,0.772864 -3.15081,1.083594 -7.73438,0.900391 -3.85295,-0.154001 -7.13887,-0.412534 -7.30078,-0.574219 -0.57655,-0.575749 -5.23885,-1.084033 -20.03906,-2.189453 -8.25,-0.616189 -15.675,-1.350746 -16.5,-1.632813 -0.825,-0.282064 -10.05,-1.186922 -20.5,-2.009765 -10.45,-0.822844 -20.35,-1.654792 -22,-1.847656 -9.58127,-1.119928 -39.13385,-3.471482 -45.5,-3.621094 -3.025,-0.07109 -5.95,-0.411034 -6.5,-0.755859 -0.55,-0.344826 -2.8,-0.687566 -5,-0.759766 C 441.10108,54.981736 422.45543,53.780931 421.74805,53.34375 420.86451,52.797689 401.85503,51.170702 388,50.455078 c -4.675,-0.241468 -14.125,-0.903192 -21,-1.470703 -6.875,-0.567512 -19.925,-1.536217 -29,-2.152344 -9.075,-0.616127 -18.075,-1.229758 -20,-1.363281 -1.925,-0.133523 -4.625,-0.526247 -6,-0.875 -1.375,-0.348753 -8.575,-1.046184 -16,-1.548828 -7.425,-0.502645 -20.925,-1.57622 -30,-2.386719 -9.075,-0.810499 -21.85683,-1.757962 -28.4043,-2.103515 -6.54748,-0.345554 -12.25469,-0.843553 -12.68164,-1.107422 -0.42695,-0.263869 -4.74512,-0.693397 -9.5957,-0.955078 C 194.92048,35.391751 187.33208,34.877439 184.5,34.404297 179.10532,33.503035 147.719,31.054237 138.16406,30.789062 133.02907,30.646553 128.61545,30.18627 128.35547,29.765625 128.0955,29.344981 126.10895,29 123.94141,29 121.77387,29 120,28.58269 120,28.072266 c 0,-1.776956 15.44565,-2.497271 44.5,-2.074219 5.5,0.08008 17.47933,0.05131 26.62109,-0.06445 9.14175,-0.115759 17.01675,0.0059 17.5,0.271484 1.27921,0.702933 16.70862,0.326817 17.94532,-0.4375 1.30278,-0.805166 25.98325,-0.162953 27.40039,0.712891 0.56783,0.350938 1.0332,0.255313 1.0332,-0.212891 0,-0.468205 9.1125,-0.921379 20.25,-1.005859 11.1375,-0.08448 21.60484,-0.437416 23.25977,-0.785157 1.69921,-0.357043 4.79376,-0.0185 7.10937,0.779297 3.49858,1.20536 4.23037,1.210021 4.99024,0.02344 0.70476,-1.100608 4.33273,-1.37673 17.39062,-1.318359 9.075,0.04057 20.1,0.08741 24.5,0.103515 4.4,0.01611 14.3,-0.209376 22,-0.501953 7.7,-0.292577 27.95,-0.74456 45,-1.003906 17.05,-0.259345 31.225,-0.543793 31.5,-0.632813 0.275,-0.08902 0.85083,-0.105594 1.2793,-0.03516 1.16141,0.190974 42.05871,0.264966 43.2207,0.07813 0.55,-0.08841 10.35949,-0.128864 21.79883,-0.08789 14.36569,0.05146 21.38242,-0.290435 22.6875,-1.105468 0.68988,-0.43084 1.3195,-0.653308 1.98633,-0.669922 z M 125,47.5 c 0.55,-0.339919 1,0.08395 1,0.941406 C 126,49.298865 125.55,50 125,50 c -0.55,0 -1,-0.423865 -1,-0.941406 0,-0.517541 0.45,-1.218675 1,-1.558594 z M 458.58398,70 c 0.87084,0 1.40521,0.534375 1.1875,1.1875 C 459.15341,73.041723 457,73.349911 457,71.583984 457,70.713151 457.71315,70 458.58398,70 Z m 173.0918,28.298828 c 0.87708,-0.128547 1.88817,0.745645 3.95508,3.136722 1.85307,2.14368 3.36914,4.38787 3.36914,4.98633 0,0.59841 1.93139,2.63442 4.29297,4.52539 2.36158,1.89098 5.62719,5.3421 7.25586,7.66796 3.80744,5.43733 16.33269,18.36113 20.68555,21.34375 1.85023,1.26781 4.24172,3.55135 5.31445,5.07422 1.74109,2.47173 21.73945,25.32863 29.5,33.7168 1.65376,1.7875 3.34781,3.25 3.76367,3.25 0.41586,0 1.60969,1.4625 2.65234,3.25 1.04266,1.7875 4.06392,5.76047 6.71485,8.82812 2.65093,3.06768 4.82031,5.93247 4.82031,6.36719 0,0.43473 1.31188,2.28628 2.91602,4.11328 1.88223,2.14375 3.3391,5.34953 4.10546,9.04102 0.65312,3.14608 2.0795,7.78603 3.16993,10.31055 1.98375,4.59267 2.84199,8.47788 4.77539,21.58984 0.56769,3.85 0.69563,8.125 0.2832,9.5 l -0.75,2.5 -9.5,-0.65625 c -5.225,-0.36054 -12.425,-1.13177 -16,-1.71484 -3.575,-0.58307 -11.225,-1.34482 -17,-1.69336 -5.775,-0.34854 -10.77863,-0.80536 -11.11914,-1.01367 -0.3405,-0.20832 -4.07628,-0.46711 -8.30078,-0.57618 -4.2245,-0.10906 -7.86429,-0.49636 -8.08985,-0.86132 -0.22556,-0.36496 -2.56674,-0.74476 -5.20117,-0.84376 -8.55173,-0.32149 -16.65314,-1.04201 -23.28906,-2.06835 -3.575,-0.55292 -14.375,-1.50389 -24,-2.11329 -28.28088,-1.79059 -31.39267,-2.03017 -43,-3.32031 -3.025,-0.33623 -10.9,-0.88366 -17.5,-1.21679 -15.02202,-0.75828 -18.61423,-1.06421 -20.5,-1.74415 -0.825,-0.29746 -8.475,-1.03904 -17,-1.64843 -8.525,-0.60939 -19.1,-1.53344 -23.5,-2.05274 -6.84316,-0.80764 -28.01454,-2.51586 -43.5,-3.50976 -2.475,-0.15885 -5.175,-0.51666 -6,-0.79492 -0.825,-0.27827 -8.25,-1.00525 -16.5,-1.61719 -8.25,-0.61195 -16.8,-1.29385 -19,-1.51367 -11.88393,-1.18741 -20.90659,-1.9059 -50,-3.98438 -12.1,-0.86444 -25.6,-2.00845 -30,-2.54102 -4.4,-0.53254 -14.975,-1.43529 -23.5,-2.00781 -24.25654,-1.629 -31.19634,-2.13525 -35.5,-2.59179 -2.2,-0.23339 -10.68947,-0.85373 -18.86523,-1.37696 -8.17576,-0.52324 -16.72576,-1.1932 -19,-1.48828 -5.06297,-0.65692 -11.53457,-1.19932 -36.63477,-3.07422 -10.725,-0.80112 -24.675,-1.90823 -31,-2.45898 -6.325,-0.55075 -18.025,-1.43751 -26,-1.9707 -7.975,-0.53325 -19.9,-1.40603 -26.5,-1.94141 -6.6,-0.53538 -16.275,-1.24289 -21.5,-1.57227 -5.225,-0.32937 -12.278487,-0.81263 -15.673828,-1.07226 -4.64677,-0.35533 -6.54473,-0.0998 -7.677734,1.0332 -1.699973,1.69997 -3.087093,2.02584 -2.146485,0.50391 1.167534,-1.88911 -4.022299,-2.73177 -20.898437,-3.39649 -9.293222,-0.36604 -17.608059,-1.06474 -18.476563,-1.55078 C 23.820766,197.76018 23.700751,164.20512 26,163.5625 c 5.033943,-1.40693 14.031399,-2.72319 24.5,-3.58398 27.02596,-2.22224 50.74232,-4.96585 52.0332,-6.01954 0.56844,-0.46398 1.67284,-0.44901 2.45313,0.0332 0.7803,0.48225 1.89054,0.58165 2.46679,0.22265 1.07914,-0.67228 22.11393,-2.87499 54.54688,-5.71289 10.175,-0.89032 19.18311,-1.98126 20.01758,-2.42383 0.83447,-0.44253 4.18476,-0.8662 7.44531,-0.9414 10.2653,-0.23665 31.32296,-2.34496 38.03711,-3.8086 3.88691,-0.84728 7.1288,-1.16295 19.25,-1.87695 6.7375,-0.39688 12.25095,-0.99792 12.25195,-1.33594 10e-4,-0.33801 3.26398,-0.68538 7.25,-0.77148 3.98602,-0.0861 15.34805,-1.13338 25.24805,-2.32813 15.71189,-1.89614 34.67362,-3.92969 49.5,-5.30859 2.475,-0.23018 12.825,-1.41411 23,-2.63086 29.43623,-3.52006 43.13086,-4.9809 48.5,-5.17187 2.75,-0.0978 5.45,-0.50556 6,-0.90625 0.55,-0.4007 5.05,-1.02053 10,-1.37696 4.95,-0.35642 12.375,-1.04815 16.5,-1.53711 6.09952,-0.723 29.62579,-3.16765 52.5,-5.45507 2.2,-0.22001 5.35,-0.67872 7,-1.01953 1.65,-0.34082 8.175,-1.06099 14.5,-1.60157 6.325,-0.54058 17.575,-1.6558 25,-2.47656 7.425,-0.82076 15.78815,-1.50082 18.58398,-1.51172 2.79584,-0.0109 5.37118,-0.30673 5.72266,-0.6582 0.35147,-0.35147 4.13833,-0.76746 8.41602,-0.92383 4.2777,-0.15636 8.45234,-0.36896 9.27734,-0.47266 10.6427,-1.33785 18.70652,-2.1451 29.91797,-2.99609 7.49657,-0.56902 14.08066,-1.554354 14.89062,-2.226562 0.29693,-0.246426 0.57483,-0.400511 0.86719,-0.44336 z M 140.5,245 c 0.825,0 1.5,0.675 1.5,1.5 0,0.825 -0.675,1.5 -1.5,1.5 -0.825,0 -1.5,-0.675 -1.5,-1.5 0,-0.825 0.675,-1.5 1.5,-1.5 z m 50,7 c 0.93333,0 1.5,0.94444 1.5,2.5 0,2.42787 -0.97438,3.19359 -2.33398,1.83398 C 188.40804,255.07601 189.0001,252 190.5,252 Z m 127.5,4 c 0.55,0 1,0.42387 1,0.94141 0,0.51754 -0.45,1.21867 -1,1.55859 -0.55,0.33992 -1,-0.084 -1,-0.94141 C 317,256.70113 317.45,256 318,256 Z m -164.70703,17.375 c 0.18125,-0.0799 0.43203,-0.045 0.70703,0.125 0.55,0.33992 1,0.81605 1,1.05859 0,0.24254 -0.45,0.44141 -1,0.44141 -0.55,0 -1,-0.47613 -1,-1.05859 0,-0.29123 0.11172,-0.48648 0.29297,-0.56641 z M 737.5,275.5 l 0.30859,4.82812 c 0.16938,2.65524 -0.1342,5.35956 -0.67382,6.00977 -0.53963,0.65022 -1.2955,4.10232 -1.67969,7.67188 -0.3842,3.56955 -1.54312,7.89251 -2.57617,9.60742 -1.03306,1.71492 -1.87891,3.80733 -1.87891,4.64843 0,1.62782 -4.75902,11.2429 -8.03516,16.23438 -2.24038,3.4134 -4.96484,9.03683 -4.96484,10.24805 0,0.44704 -3.19168,3.72507 -7.0918,7.2832 -3.90013,3.55813 -12.64727,11.98125 -19.43945,18.71875 -6.79218,6.7375 -12.77113,12.25 -13.28711,12.25 -0.51597,0 -1.49819,1.35 -2.18164,3 -0.68345,1.65 -1.61737,3 -2.07422,3 -0.45685,0 -2.19729,1.98802 -3.86914,4.41797 -1.67186,2.42996 -8.33177,9.76295 -14.79883,16.29492 -6.46707,6.53196 -13.10781,13.61707 -14.75781,15.74609 -1.65,2.12901 -3.99258,4.92298 -5.20508,6.20704 -2.29245,2.42775 -7.08362,3.14489 -8.89648,1.33203 -0.55109,-0.55109 -9.07976,-1.48414 -18.95117,-2.07422 -9.8714,-0.59007 -19.97227,-1.24222 -22.44727,-1.44922 -2.475,-0.20701 -13.05,-0.84316 -23.5,-1.41211 -10.45,-0.56894 -22.6,-1.48626 -27,-2.03906 -4.4,-0.55281 -14.975,-1.4786 -23.5,-2.0586 -8.525,-0.58 -17.975,-1.27836 -21,-1.55078 -3.025,-0.27242 -14.725,-1.12197 -26,-1.88867 -11.275,-0.76671 -22.075,-1.65176 -24,-1.9668 -1.925,-0.31505 -10.475,-0.81879 -19,-1.11914 -8.525,-0.30034 -17.75,-0.99711 -20.5,-1.54883 -2.75,-0.55169 -8.50206,-1.18528 -12.7832,-1.4082 -4.28113,-0.22291 -8.11966,-0.61403 -8.5293,-0.86719 -0.40963,-0.25317 -7.70757,-0.75738 -16.2168,-1.12109 -16.75008,-0.71595 -31.19867,-1.78642 -32.9707,-2.44336 -1.32343,-0.49062 -7.93046,-0.91535 -23.5,-1.50781 -9.35,-0.3558 -23.3,-1.26107 -31,-2.01172 -12.71562,-1.23962 -32.04622,-2.50359 -45.00781,-2.94336 -2.75381,-0.0934 -5.57541,-0.52097 -6.27149,-0.95117 -0.69608,-0.43016 -3.41763,-0.66885 -6.04687,-0.5293 -2.62925,0.13955 -5.21258,-0.0145 -5.74219,-0.3418 -0.52961,-0.32731 -6.13104,-0.68909 -12.44726,-0.80468 -6.31625,-0.1156 -15.75938,-0.81129 -20.98438,-1.54688 -11.65912,-1.64139 -39.72335,-3.38145 -43.35352,-2.6875 -1.46238,0.27955 -3.3305,-0.0484 -4.15234,-0.73047 -1.10567,-0.91763 -1.84292,-0.95109 -2.83594,-0.12695 -0.7381,0.61257 -1.63703,0.81805 -1.99804,0.45703 C 125.899,385.56502 111.13257,384.18369 96,383.45703 c -5.775,-0.27732 -12.525,-0.94851 -15,-1.49023 -2.475,-0.54173 -13.05,-1.41222 -23.5,-1.9336 -10.45,-0.52137 -20.35,-1.37152 -22,-1.89062 -6.061173,-1.90689 -10.273295,-4.10931 -10.878906,-5.6875 C 24.279387,371.5646 24,365.97496 24,360.0332 c 0,-10.37062 0.09752,-10.86805 2.457031,-12.41406 1.597642,-1.04681 6.585218,-1.96887 14.25,-2.63476 C 47.192669,344.42092 56.1,343.52716 60.5,342.99805 c 4.4,-0.52911 13.85,-1.4199 21,-1.98047 25.72585,-2.01692 28.80118,-2.32817 39,-3.92969 3.3,-0.5182 9.6,-1.24207 14,-1.60937 4.4,-0.36729 9.35,-0.85551 11,-1.08399 1.65,-0.22847 5.7,-0.56858 9,-0.75586 3.3,-0.18729 10.95,-0.86686 17,-1.51172 6.05,-0.64486 13.025,-1.34314 15.5,-1.55078 2.475,-0.20764 4.5,-0.46452 4.5,-0.57226 0,-0.10773 3.15,-0.32832 7,-0.48829 3.85,-0.15996 7.675,-0.56166 8.5,-0.89453 0.825,-0.33286 8.025,-1.28922 16,-2.125 15.55834,-1.63052 17.45703,-1.80633 32,-2.96484 5.225,-0.41623 9.87012,-0.97829 10.32227,-1.24805 0.45216,-0.26975 3.60216,-0.6314 7,-0.80273 8.78083,-0.44277 36.00642,-3.0993 44.77148,-4.36914 7.49469,-1.08579 32.145,-3.43464 34.90625,-3.32617 0.825,0.0324 5.1,-0.56419 9.5,-1.32618 4.4,-0.76198 12.68621,-1.65051 18.41406,-1.9746 5.72786,-0.3241 11.16789,-0.99291 12.08985,-1.48633 0.92196,-0.49342 2.53575,-0.85835 3.58593,-0.81055 3.65522,0.16617 30.93398,-2.33905 34.41016,-3.16016 1.925,-0.4547 4.175,-0.81568 5,-0.80078 2.27801,0.0411 16.40116,-1.19293 26.5,-2.3164 19.38466,-2.1565 37.36176,-3.93047 45,-4.43946 4.4,-0.29321 10.7,-0.94663 14,-1.45312 3.3,-0.5065 11.85,-1.403 19,-1.99219 11.41649,-0.94077 29.58019,-2.70291 62.5,-6.0625 5.225,-0.53323 14.75715,-1.373 21.18164,-1.86523 6.4245,-0.49222 12.18517,-1.20623 12.80274,-1.58789 0.61752,-0.38166 4.58539,-0.88369 8.81835,-1.11524 4.23296,-0.23156 9.04727,-0.5748 10.69727,-0.76172 1.65,-0.18692 9.0429,-0.68474 16.42969,-1.10742 7.38679,-0.42268 14.81179,-1.17246 16.5,-1.66601 1.68821,-0.49357 7.34531,-1.14581 12.57031,-1.44922 5.225,-0.3034 12.875,-0.97409 17,-1.49024 4.125,-0.51615 10.2,-1.04716 13.5,-1.17969 z M 520,434 c 0.55,0 1,0.42387 1,0.94141 0,0.51754 -0.45,1.21867 -1,1.55859 -0.55,0.33992 -1,-0.084 -1,-0.94141 C 519,434.70113 519.45,434 520,434 Z m -361.5,19 c 0.825,0 1.5,0.45 1.5,1 0,0.55 -0.675,1 -1.5,1 -0.825,0 -1.5,-0.45 -1.5,-1 0,-0.55 0.675,-1 1.5,-1 z m 435.51367,9.2207 c 1.64132,0.11686 1.98633,0.4905 1.98633,1.18946 0,1.69581 -5.33143,8.0676 -10.91602,13.04492 -1.8792,1.67485 -4.13357,4.22327 -5.00976,5.66406 -0.8762,1.44079 -6.23684,6.78696 -11.91211,11.88086 l -10.31836,9.26172 -14.67187,0.45898 c -30.56698,0.95653 -45.79704,1.27832 -83.17188,1.75782 -21.175,0.27167 -43,0.77365 -48.5,1.11523 -5.5,0.34155 -20.35,0.47637 -33,0.29883 -12.65,-0.17755 -25.475,-0.29103 -28.5,-0.25196 -5.50317,0.0711 -40.40342,0.16275 -47,0.12305 -1.925,-0.0116 -16.55,0.11228 -32.5,0.27735 -15.95,0.16507 -37.1,0.28191 -47,0.25781 -28.13998,-0.0686 -75.7359,0.54581 -78.5,1.01367 -1.375,0.23273 -3.29417,0.75871 -4.26367,1.16797 -0.98441,0.41555 -2.37291,0.23576 -3.14649,-0.40625 -1.4498,-1.20323 -15.00657,-0.99145 -16.25195,0.2539 -1.12072,1.12073 -2.36709,0.7579 -2.99219,-0.87109 -0.8956,-2.33388 -0.17258,-2.58736 8.31446,-2.91211 4.31139,-0.16497 8.06484,-0.4187 8.33984,-0.5625 0.275,-0.1438 2.3,-0.36493 4.5,-0.49219 17.78015,-1.02851 25.21387,-1.63226 26.5,-2.15039 0.825,-0.33236 3.75,-0.7464 6.5,-0.92187 2.75,-0.17546 6.8,-0.54192 9,-0.8125 2.2,-0.27058 10.94575,-0.9747 19.43555,-1.56641 20.64711,-1.43901 22.59827,-1.63382 23.77539,-2.36133 0.55548,-0.3433 3.66131,-0.83044 6.90039,-1.08398 18.65979,-1.46065 23.05371,-1.94999 24.57812,-2.73242 1.02511,-0.52615 1.93619,-0.46602 2.31836,0.15234 0.34638,0.56046 1.16105,0.67342 1.81055,0.25195 1.27869,-0.82974 24.31522,-3.38878 56.68164,-6.29687 6.875,-0.61771 13.175,-1.36742 14,-1.66602 0.825,-0.29859 5.325,-0.73125 10,-0.96289 4.675,-0.23164 9.4,-0.54385 10.5,-0.69336 2.10597,-0.28625 13.55324,-1.43003 22,-2.19726 2.75,-0.24978 9.275,-0.89326 14.5,-1.42969 5.225,-0.53642 13.0389,-1.21535 17.36523,-1.50976 4.32634,-0.29441 8.31599,-0.81289 8.86524,-1.15235 0.54925,-0.33945 5.15426,-0.71465 10.23242,-0.83398 5.07815,-0.11932 9.63851,-0.45987 10.13477,-0.75586 0.49626,-0.29598 7.40036,-0.84092 15.34179,-1.21094 7.94144,-0.37002 14.86214,-0.93527 15.38086,-1.25586 0.51873,-0.32059 4.14766,-0.69992 8.0625,-0.84375 3.91484,-0.14383 10.49219,-0.73228 14.61719,-1.30664 6.96186,-0.96936 27.60533,-3.18351 34.5,-3.70117 1.65,-0.12388 10.17489,-0.75193 18.94336,-1.39649 8.76847,-0.64455 16.41847,-1.48381 17,-1.86328 0.58153,-0.37947 3.98164,-0.73009 7.55664,-0.77929 3.575,-0.0492 11.7875,-0.42482 18.25,-0.83594 5.18471,-0.32983 8.12235,-0.47037 9.76367,-0.35352 z M 588,464 c -0.55,0 -1,0.45 -1,1 0,0.55 0.45,1 1,1 0.55,0 1,-0.45 1,-1 0,-0.55 -0.45,-1 -1,-1 z M 138.77148,495.26953 C 139.4165,495.17445 140,495.69749 140,496.91602 140,498.14435 139.35341,499 138.42578,499 c -0.93124,0 -1.44138,-0.68121 -1.25,-1.66797 0.24328,-1.25438 0.95069,-1.96741 1.5957,-2.0625 z M 264.94141,510 c 0.58246,0 1.05859,0.45 1.05859,1 0,0.55 -0.19887,1 -0.44141,1 -0.24254,0 -0.71867,-0.45 -1.05859,-1 -0.33992,-0.55 -0.14105,-1 0.44141,-1 z" />
    <rect
       style="fill:#000000"
       id="rect2"
       width="48.315723"
       height="23.81761"
       x="289.21384"
       y="248.38365" />
    <rect
       style="fill:#000000"
       id="rect3"
       width="162.64026"
       height="63.286793"
       x="65.3283"
       y="415.78741" />
    <rect
       style="fill:#000000"
       id="rect4"
       width="49.676731"
       height="10.88805"
       x="104.11698"
       y="487.92075" />
    <rect
       style="fill:#000000"
       id="rect5"
       width="46.954716"
       height="17.012579"
       x="497.44778"
       y="432.79999" />
    <rect
       style="fill:#000000"
       id="rect6"
       width="20.415094"
       height="13.610063"
       x="445.04904"
       y="68.73082" />
    <rect
       style="fill:#000000"
       id="rect7"
       width="30.622641"
       height="24.498114"
       x="100.71446"
       y="40.830189" />
  </g>
</svg>
