<?xml version="1.0" encoding="UTF-8" standalone="no"?>
<!-- Created with Inkscape (http://www.inkscape.org/) -->

<svg
   version="1.1"
   id="svg1"
   width="726"
   height="512"
   viewBox="0 0 726 512"
   sodipodi:docname="1.png"
   inkscape:version="1.4 (86a8ad7, 2024-10-11)"
   xmlns:inkscape="http://www.inkscape.org/namespaces/inkscape"
   xmlns:sodipodi="http://sodipodi.sourceforge.net/DTD/sodipodi-0.dtd"
   xmlns="http://www.w3.org/2000/svg"
   xmlns:svg="http://www.w3.org/2000/svg">
  <defs
     id="defs1" />
  <sodipodi:namedview
     id="namedview1"
     pagecolor="#ffffff"
     bordercolor="#000000"
     borderopacity="0.25"
     inkscape:showpageshadow="2"
     inkscape:pageopacity="0.0"
     inkscape:pagecheckerboard="0"
     inkscape:deskcolor="#d1d1d1"
     inkscape:zoom="1.097949"
     inkscape:cx="315.13303"
     inkscape:cy="240.90372"
     inkscape:window-width="1920"
     inkscape:window-height="1013"
     inkscape:window-x="2391"
     inkscape:window-y="605"
     inkscape:window-maximized="1"
     inkscape:current-layer="g1" />
  <g
     inkscape:groupmode="layer"
     inkscape:label="Image"
     id="g1">
    <path
       style="fill:#000000"
       d="m 377,511.5 c 0,-0.275 0.225,-0.5 0.5,-0.5 0.275,0 0.5,0.225 0.5,0.5 0,0.275 -0.225,0.5 -0.5,0.5 -0.275,0 -0.5,-0.225 -0.5,-0.5 z m 157.51273,-0.47941 c -0.48665,-0.78741 -4.54275,-1.17022 -12.36842,-1.16731 -6.40437,0.002 -22.66931,-0.18316 -36.14431,-0.41234 -27.9094,-0.47465 -25.99417,-0.47062 -79.5,-0.16753 -22,0.12463 -43.6,0.0427 -48,-0.18214 -4.4,-0.2248 -25.775,-0.089 -47.5,0.30187 -41.78082,0.75164 -82.05471,0.8062 -111,0.15037 -32.84387,-0.74417 -65.87215,-0.42579 -67.54775,0.65113 -0.57626,0.37037 -1.58866,0.33909 -2.24979,-0.0695 -0.66112,-0.4086 -4.46464,-0.38539 -8.45225,0.0516 -3.98762,0.43696 -11.30021,0.57528 -16.25021,0.30737 -4.95,-0.26791 -14.418456,-0.68946 -21.041014,-0.93678 -6.622558,-0.24732 -12.815789,-0.74698 -13.762735,-1.11036 -0.946947,-0.36337 -2.412125,-0.0877 -3.255953,0.61262 -1.102388,0.9149 -5.672722,1.24467 -16.237265,1.1716 C 5.8021276,509.90714 7.524519,510.14682 4.5273885,503.72598 2.6655261,499.73726 2.5429648,496.9481 2.3443851,454.04676 2.2286696,429.04748 2.0948812,401.59748 2.0470775,393.04676 1.9992739,384.49604 1.9859629,376.6 2.0174976,375.5 2.0490324,374.4 1.8289637,369 1.5284563,363.5 0.35000504,341.93155 0.28999262,333.92195 1.1950373,319 c 0.7523991,-12.4052 1.6531179,-42.2159 1.8581986,-61.5 0.017547,-1.65 0.066375,-3.9 0.1085065,-5 C 3.5081287,243.45625 2.8499475,201.15648 1.3723512,137.5 0.63256053,105.629 0.61747026,106.79236 1.9690332,91.5 2.5523518,84.9 2.7661584,75.45 2.444159,70.5 2.1221596,65.55 1.6888211,51.036633 1.4811847,38.248073 1.084304,13.803752 1.5282618,10.47482 5.6674462,6.8581968 10.186339,2.909802 12.162331,2.5703867 31.981668,2.3382128 44.561089,2.190851 51.587928,1.7362149 51.815001,1.0549973 52.262734,-0.28820343 62,-0.340783 62,1 c 0,0.55 1.125,1 2.5,1 1.375,0 2.5,-0.45 2.5,-1 0,-0.55 1.35,-1 3,-1 1.65,0 3,0.45 3,1 0,0.55 1.575,1 3.5,1 1.925,0 3.5,-0.45 3.5,-1 0,-0.55 0.675,-1 1.5,-1 0.825,0 1.5,0.45 1.5,1 0,0.6060606 4.333333,1 11,1 6.66667,0 11,-0.3939394 11,-1 0,-0.55 1.35,-1 3,-1 1.65,0 3,0.45 3,1 0,0.55 0.47656,1 1.05902,1 0.58246,0 0.7809,-0.45 0.44098,-1 -0.3678,-0.59511769 0.82295,-1 2.94098,-1 C 117.39844,0 119,0.45 119,1 c 0,1.4434602 3.72478,1.2326239 4.41667,-0.25 0.46666,-1 0.7,-1 1.16666,0 0.75888,1.6261718 8.07446,1.6261718 8.83334,0 0.46666,-1 0.7,-1 1.16666,0 C 135.27671,2.235817 138,2.4350818 138,1 c 0,-0.55 1.8,-1 4,-1 2.2,0 4,0.45 4,1 0,1.4514828 4.74075,1.2294427 5.33772,-0.25 0.40351,-1 0.52017,-1 0.58333,0 0.0853,1.3497756 3.27871,1.7169024 4.48053,0.5150899 1.1114,-1.11140122 11.94138,-1.32819592 12.60629,-0.2523529 0.6099,0.986831 31.28608,1.5416589 32.82007,0.5936035 0.48802,-0.3016161 2.37885,-0.1206254 4.20184,0.4022014 2.19979,0.6308903 3.73562,0.6011234 4.56657,-0.088508 0.76265,-0.6329422 2.74746,-0.7412523 5.07785,-0.2770961 2.10419,0.4191031 4.2758,0.6172719 4.8258,0.4403751 0.55,-0.1768969 2.8,-0.4316503 5,-0.5661187 2.2,-0.1344684 7.70394,-0.58820713 12.23099,-1.0083083 6.70821,-0.62250972 8.67209,-0.47480104 10.61524,0.7984036 1.70818,1.119245 2.69069,1.2557872 3.46495,0.4815342 1.75513,-1.75513578 11.63137,-2.0485803 15.4366,-0.458655 2.6018,1.0871031 4.69648,1.2044696 8.8315,0.4948361 C 279.06068,1.3133513 293.875,0.98014966 309,1.0845569 c 15.125,0.1044073 28.85,0.1717762 30.5,0.1497087 25.00246,-0.3343893 37.65885,-0.25412776 38.46472,0.2439271 0.54267,0.3353942 27.88512,0.8074759 60.76098,1.0490704 32.87587,0.2415946 62.2493,0.6773679 65.2743,0.9683851 3.025,0.2910173 12.25,0.120325 20.5,-0.3793161 16.33,-0.9889865 16.74826,-0.9012559 22.04903,4.6248428 1.45549,1.5173538 3.99098,4.8963251 5.63443,7.5088251 1.64345,2.6125 3.28699,4.753224 3.65231,4.757164 0.94209,0.01016 12.32139,11.335153 21.16423,21.063221 4.125,4.537941 13.04153,14.141034 19.81452,21.340208 6.77298,7.199174 12.62298,13.422799 13,13.830278 0.37701,0.407479 8.44798,8.41041 17.93548,17.784292 9.4875,9.373887 17.25,17.385147 17.25,17.802817 0,0.41767 7.6139,8.22977 16.91978,17.36023 9.30588,9.13047 17.6101,17.93578 18.45383,19.56738 0.84373,1.63159 4.18244,5.26086 7.41935,8.06505 3.49191,3.02509 7.27241,7.57544 9.29617,11.18921 1.87598,3.34988 4.10286,7.30557 4.94862,8.79042 1.85926,3.26418 6.23779,10.20698 9.99563,15.84952 1.52003,2.28238 3.08927,5.65738 3.48719,7.5 0.39793,1.84262 1.64307,5.15021 2.76698,7.35021 1.95536,3.82751 2.36879,5.22581 4.59325,15.53533 1.62356,7.52456 3.33883,32.98906 2.30979,34.2907 -0.51046,0.64568 -1.16524,6.58861 -1.45507,13.20651 -0.29946,6.83788 -1.13784,13.5295 -1.94197,15.5 -0.77826,1.9071 -2.00119,6.16746 -2.71763,9.46746 -1.63129,7.51388 -4.88716,17.91229 -6.69105,21.36948 -0.7549,1.44679 -1.37738,3.08052 -1.38328,3.63052 -0.006,0.55 -2.43211,5.95766 -5.39157,12.01702 -4.0423,8.27641 -6.59097,12.13164 -10.24543,15.4977 -2.67553,2.46438 -7.88236,8.53172 -11.57075,13.48298 -10.19245,13.68225 -13.23088,17.4538 -19.51692,24.22597 -3.17731,3.42302 -7.12692,7.88129 -8.77692,9.90727 -1.65,2.02598 -4.2651,4.85032 -5.81133,6.27633 -3.41254,3.1472 -13.55062,13.60428 -23.68867,24.43403 -4.125,4.40645 -10.3125,10.76682 -13.75,14.13417 -3.4375,3.36736 -6.26044,6.55043 -6.2732,7.0735 -0.0238,0.97562 -3.14134,4.68686 -12.27109,14.60797 -2.86314,3.11132 -5.70106,6.26132 -6.30649,7 -0.60542,0.73868 -2.40542,2.54015 -4,4.00327 -4.27579,3.92329 -9.44378,9.62775 -14.35015,15.83979 -2.3892,3.025 -6.66952,7.75 -9.51183,10.5 -2.84231,2.75 -5.6183,5.80888 -6.16888,6.79751 -0.58602,1.05228 -3.46106,2.42895 -6.9347,3.32057 -9.58658,2.46071 -11.15303,2.645 -11.92093,1.40251 z M 36.5,499.66394 c 13.09203,0.56489 60.466789,0.69826 60.995262,0.17171 1.173249,-1.16899 -1.333582,-4.5427 -4.969424,-6.6879 C 90.586627,492.00358 89,490.37727 89,489.53373 c 0,-0.84355 -0.5625,-1.54562 -1.25,-1.56014 -0.6875,-0.0145 -5.436967,-4.06453 -10.55437,-9 C 72.078226,474.03811 67.566013,470 67.168491,470 c -0.397523,0 -2.285556,-1.4071 -4.19563,-3.12689 -4.315223,-3.88533 -29.229795,-27.25306 -33.597698,-31.51176 -1.770525,-1.72626 -4.069793,-3.75126 -5.109484,-4.5 -1.039691,-0.74874 -2.959423,-2.82385 -4.266072,-4.61135 -1.306648,-1.7875 -2.857852,-3.25 -3.447119,-3.25 -0.589267,0 -1.644359,-0.91746 -2.344648,-2.0388 -0.700289,-1.12134 -1.65414,-1.80341 -2.119668,-1.51569 -0.863896,0.53391 -2.7730024,22.02115 -2.3593241,26.55449 0.7295221,7.99455 0.7799111,24.52077 0.094032,30.84023 -0.4709388,4.33907 -0.4122987,8.05843 0.1434219,9.0968 0.6021119,1.12506 0.5743419,2.12233 -0.077243,2.77391 -0.5595328,0.55953 -0.8759709,2.98045 -0.7031959,5.37981 0.4448784,6.17811 2.6272485,7.08605 14.8141365,6.16316 5.225,-0.39568 10.85,-0.66117 12.5,-0.58997 z m 154.94102,0.4315 c 0.33047,-0.53471 25.39826,-0.64387 61.30901,-0.26698 62.28557,0.65371 80.19353,0.56131 81.17366,-0.41881 0.30776,-0.30777 -1.47884,-2.43834 -3.97023,-4.73461 -2.49139,-2.29627 -9.26449,-8.54291 -15.05132,-13.88142 -5.78683,-5.33851 -11.63833,-10.58487 -13.00332,-11.65857 -1.365,-1.07371 -6.14596,-5.70584 -10.62437,-10.29362 C 286.79605,454.25364 279.67689,447.575 275.45411,444 c -7.4668,-6.32139 -29.94542,-27.60539 -43.56526,-41.25 -3.70575,-3.7125 -7.0686,-6.75 -7.47298,-6.75 -0.40438,0 -2.35088,-1.56712 -4.32555,-3.48249 -1.97468,-1.91536 -9.89032,-9.42424 -17.59032,-16.6864 -7.7,-7.26215 -14.86009,-14.29579 -15.9113,-15.63031 -1.05122,-1.33451 -3.12217,-3.16313 -4.60211,-4.06359 C 179.02898,354.33766 164.32733,341.18603 153.88677,331 150.22244,327.425 142.40483,320 136.5143,314.5 126.12019,304.795 121.56648,300.3896 119.5,298.03984 c -1.759,-2.00012 -14.81881,-14.10649 -20.261455,-18.78226 -2.8938,-2.48605 -9.4188,-8.59748 -14.5,-13.58095 C 79.657345,260.69316 68.975,250.53006 61,243.09197 53.025,235.65388 43.125,226.35168 39,222.42042 24.77022,208.85897 13.496048,199.01371 12.188265,199.00687 c -0.991726,-0.005 -1.266614,2.00579 -1.126781,8.24313 0.101724,4.5375 0.105929,24.9 0.0093,45.25 -0.09659,20.35 -0.152033,47.80068 -0.123218,61.00151 L 11,337.50301 l 7.64916,7.4985 c 7.818427,7.66442 25.247268,24.59743 32.057658,31.14565 C 52.793068,378.1531 55.625,380.95193 57,382.36678 67.988614,393.6739 96.917916,421 97.899807,421 c 1.368942,0 3.900093,2.17 14.871973,12.75 4.1352,3.9875 7.73131,7.25 7.99137,7.25 0.88902,0 12.33506,10.41898 36.07975,32.84228 3.11141,2.93826 8.1321,6.9771 11.1571,8.97521 5.24412,3.4639 16,13.65776 16,15.16396 0,0.81867 3.91777,2.8501 5.69098,2.95087 0.65504,0.0372 1.44256,-0.33937 1.75004,-0.83688 z M 526.5,499.27939 c 9.23926,-0.76052 11.38655,-0.73438 15.21745,0.18523 2.89791,0.69565 3.34483,0.49079 4.5,-2.06283 C 547.40125,494.78488 555.38093,486 556.57417,486 557.28401,486 567,475.65924 567,474.90375 567,474.09057 553.20272,461 552.34564,461 c -0.37282,0 -1.39061,-0.6988 -2.26175,-1.55289 C 524.91199,434.76784 512.58699,423 511.91113,423 c -0.46319,0 -2.13508,-1.2375 -3.7153,-2.75 -5.10456,-4.88581 -11.62641,-10.68954 -14.43185,-12.84276 -2.41072,-1.85027 -10.89469,-9.87681 -50.90173,-48.15724 -5.31697,-5.0875 -10.1083,-9.25 -10.6474,-9.25 -0.53911,0 -7.44549,-6.36776 -15.34752,-14.15057 C 408.9653,328.06661 399.35,318.98691 395.5,315.67233 c -3.85,-3.31459 -7.45,-6.56954 -8,-7.23322 -0.55,-0.66369 -5.5,-5.20399 -11,-10.08958 -5.5,-4.88558 -14.95,-13.74582 -21,-19.68941 -6.05,-5.9436 -12.28602,-11.7861 -13.85782,-12.98333 -1.5718,-1.19723 -4.3693,-3.63929 -6.21667,-5.42679 -1.84736,-1.7875 -4.03301,-3.25 -4.85699,-3.25 -0.82399,0 -2.03135,-1.0125 -2.68304,-2.25 -0.65169,-1.2375 -1.54029,-2.48473 -1.97468,-2.77162 -0.43439,-0.2869 -4.76554,-4.37807 -9.62478,-9.0915 -4.85924,-4.71343 -9.28219,-8.7537 -9.82878,-8.97837 -0.54659,-0.22468 -2.0311,-1.74868 -3.2989,-3.38666 -1.26781,-1.63798 -3.36257,-3.67184 -4.65503,-4.51968 -1.29246,-0.84784 -9.58256,-8.46399 -18.42246,-16.92478 -8.83989,-8.4608 -17.0869,-16.07052 -18.32669,-16.9105 -1.23979,-0.83998 -5.20892,-4.28515 -8.82029,-7.65593 -3.61138,-3.37078 -8.33638,-7.44896 -10.5,-9.06263 -2.16363,-1.61366 -6.6973,-5.63717 -10.07482,-8.94113 -12.54238,-12.26921 -18.01098,-17.31671 -23.85905,-22.02186 -5.90669,-4.75231 -11.06483,-9.55089 -31.14664,-28.97555 -5.58065,-5.39803 -10.98065,-10.24486 -12,-10.77073 C 164.33401,104.21319 161.25,101.46927 158.5,98.641468 154.33935,94.3631 144.62544,85.567083 139.56976,81.5 c -0.68369,-0.55 -1.78241,-2.0125 -2.4416,-3.25 -0.65919,-1.2375 -1.69853,-2.25 -2.30964,-2.25 -0.61111,0 -3.2163,-1.9125 -5.7893,-4.25 -2.57301,-2.3375 -5.99467,-5.390585 -7.60371,-6.784633 -1.60903,-1.394049 -4.13761,-3.869049 -5.61906,-5.5 C 111.58529,54.81823 99.403171,43.957988 95.257736,41.146382 91.016806,38.270007 85.907594,33.735054 75.228254,23.368153 L 67.881468,16.236306 39.338504,15.868153 10.79554,15.5 10.752277,26 c -0.02379,5.775 0.308318,19.95 0.738026,31.5 0.429709,11.55 0.723989,29.24631 0.653955,39.325133 l -0.127333,18.325137 3.631416,3.42486 c 1.99728,1.88368 3.94003,3.42487 4.317224,3.42487 1.118564,0 4.563196,4.28941 5.822153,7.25 0.643172,1.5125 1.56942,2.75 2.058328,2.75 0.488907,0 4.886055,4.07085 9.771438,9.04632 4.885384,4.97548 10.39825,9.99508 12.250813,11.15467 1.852563,1.1596 6.352563,5.01806 10,8.57437 3.647437,3.55631 7.756703,7.19769 9.131703,8.09195 1.375,0.89427 3.4,2.7231 4.5,4.06406 3.469378,4.22938 9.903357,10.2022 12.5,11.60405 1.375,0.74233 7.163875,5.87554 12.864167,11.40713 C 104.56446,201.47415 109.35368,206 109.50688,206 c 0.15321,0 3.76913,3.37913 8.0354,7.50918 4.26626,4.13005 10.50204,9.94386 13.85728,12.91957 3.35524,2.97571 12.85044,12.01236 21.10044,20.08144 8.25,8.06908 16.125,15.25877 17.5,15.97709 1.375,0.71832 3.99633,3.16825 5.82518,5.44429 1.82885,2.27604 4.97885,5.20283 7,6.50396 2.02115,1.30114 8.62482,7.18545 14.67482,13.07625 6.05,5.8908 13.475,12.78104 16.5,15.31166 3.025,2.53061 7.23862,6.32091 9.36359,8.42288 2.12497,2.10197 5.35957,4.44682 7.188,5.21079 1.82842,0.76396 4.58981,3.11956 6.13641,5.23467 2.77861,3.79999 7.64419,8.54365 20.312,19.80305 3.575,3.17753 10.56765,9.6536 15.53923,14.39125 4.97158,4.73766 13.7311,12.88892 19.46561,18.11392 5.73451,5.225 12.91686,11.975 15.96077,15 3.04392,3.025 10.00894,9.55 15.47783,14.5 5.46889,4.95 11.99389,11.09601 14.5,13.6578 2.50611,2.56179 7.86487,7.45979 11.90836,10.88444 4.0435,3.42464 9.4435,8.36229 12,10.97253 2.55651,2.61025 10.2732,9.48346 17.1482,15.27381 6.875,5.79035 13.85,11.88786 15.5,13.55003 1.65,1.66217 4.575,4.10401 6.5,5.42631 1.925,1.3223 5.53916,4.39113 8.03147,6.81963 2.49231,2.4285 5.86731,5.54926 7.5,6.93502 1.63269,1.38577 4.82882,4.58158 7.10252,7.1018 4.00451,4.43871 9.58069,6.95831 10.85094,4.90301 0.82274,-1.33121 79.53445,-0.405 80.89131,0.95186 0.58711,0.58711 1.75514,0.80014 2.59562,0.47341 0.84047,-0.32673 4.67814,-0.85335 8.52814,-1.17026 z M 155,99.940983 c 0,-0.582459 0.45,-0.780902 1,-0.440983 0.55,0.339919 1,0.81648 1,1.05902 0,0.24254 -0.45,0.44098 -1,0.44098 -0.55,0 -1,-0.47656 -1,-1.059017 z M 614.1598,425.75 c 1.26279,-1.7875 4.24951,-5.275 6.63714,-7.75 2.38763,-2.475 4.98014,-5.70561 5.76114,-7.17913 0.78099,-1.47352 2.21242,-2.95715 3.18095,-3.29694 0.96853,-0.3398 3.24716,-2.50919 5.06362,-4.82087 1.81646,-2.31168 8.3537,-9.37806 14.52721,-15.70306 6.17351,-6.325 13.01153,-13.75 15.19561,-16.5 2.18408,-2.75 4.5154,-5.675 5.18071,-6.5 C 675.0869,357.32781 677,354.5312 677,353.33774 c 0,-0.76298 1.125,-1.81497 2.5,-2.33774 1.375,-0.52277 2.5,-1.36654 2.5,-1.87503 0,-0.5085 -3.02496,-3.78214 -6.72214,-7.27475 C 671.58069,338.3576 665.55792,332.4625 661.89393,328.75 658.22994,325.0375 654.5049,322 653.61607,322 652.72723,322 652,321.39095 652,320.64656 c 0,-1.24776 -12.21907,-13.1464 -28,-27.26574 -3.575,-3.19858 -7.88427,-7.18028 -9.57616,-8.84821 C 605.0059,275.24801 598.34598,269 597.86722,269 c -0.29886,0 -8.03653,-7.3125 -17.19481,-16.25 C 566.10685,238.53558 556.50692,229.45895 545.5,219.49489 534.99999,209.9897 522.63262,198.45729 516.01445,192 c -4.22777,-4.125 -9.84134,-9.26333 -12.4746,-11.41851 -2.63325,-2.15518 -7.37262,-6.43018 -10.53191,-9.5 -3.1593,-3.06982 -6.44066,-6.12636 -7.29192,-6.79232 -0.85125,-0.66595 -2.1481,-2.01965 -2.88188,-3.00821 -0.73378,-0.98857 -4.65616,-4.49369 -8.71641,-7.78918 -8.76479,-7.1139 -10.97906,-9.15074 -13.62743,-12.53543 -1.09467,-1.39901 -4.4653,-4.47377 -7.4903,-6.83279 -3.025,-2.35903 -11.87442,-10.43938 -19.66538,-17.95635 -7.79097,-7.51696 -18.59097,-17.79723 -24,-22.845032 C 403.92558,88.274375 394.325,79.205971 388,73.170168 381.675,67.134366 374.48783,60.676279 372.02852,58.818864 c -2.45932,-1.857415 -5.60932,-4.979522 -7,-6.938014 C 363.63783,49.922357 358,44.348659 352.5,39.494855 347,34.64105 341.54723,29.73156 340.38274,28.584878 339.21825,27.438195 337.21096,25.825 335.9221,25 333.26806,23.301143 329.22816,19.28683 327,16.134409 c -1.43623,-2.031993 -2.31791,-2.125831 -20.73983,-2.207348 -11.24669,-0.04977 -19.48877,-0.487922 -19.83903,-1.054657 -0.37441,-0.605813 -1.11159,-0.544273 -1.96506,0.164044 -0.96531,0.801141 -10.54332,1.075503 -32.66097,0.935575 C 234.5828,13.863129 218.925,13.885574 217,14.021902 c -1.925,0.136327 -4.4,0.173142 -5.5,0.08181 -7.99464,-0.66378 -52.5,-0.751643 -52.5,-0.103645 0,0.447532 2.3625,2.758969 5.25,5.136526 6.76548,5.570668 11.99367,10.37218 22.71741,20.863406 4.77862,4.675 11.49974,10.975 14.93584,14 3.43609,3.025 6.6626,5.95 7.17002,6.5 0.50742,0.55 3.67845,4.0375 7.04673,7.75 3.36828,3.7125 6.69724,6.75 7.39769,6.75 0.70044,0 5.62955,4.153341 10.95358,9.229647 5.32403,5.076305 10.69839,9.913805 11.94301,10.75 1.24462,0.836194 7.60948,6.807853 14.14413,13.270353 6.53464,6.4625 12.20214,11.75 12.59443,11.75 0.39229,0 2.34436,1.99055 4.33794,4.42344 1.99357,2.43289 5.96119,6.19896 8.81694,8.36905 2.85576,2.17008 7.52053,6.14204 10.36616,8.82656 22.10967,20.85788 28.77863,27.00263 30.18931,27.81631 0.89191,0.51444 5.70123,5.01444 10.68738,10 10.07123,10.07002 22.82872,21.69463 29.35965,26.75246 2.35227,1.8217 6.62875,5.56218 9.50329,8.31218 2.87454,2.75 9.01995,8.51951 13.65646,12.82114 16.79601,15.58285 28.19943,26.34497 36.74532,34.67886 4.79392,4.675 12.49297,11.875 17.10901,16 9.39937,8.3995 16.04448,15.12187 16.06323,16.25 0.007,0.4125 0.612,0.75 1.34477,0.75 0.73276,0 4.70662,3.2625 8.8308,7.25 4.12417,3.9875 10.99649,10.4 15.2718,14.25 4.27532,3.85 11.03391,10.15 15.01909,14 3.98518,3.85 9.841,9.25 13.01292,12 3.17192,2.75 7.72533,6.90565 10.11869,9.23477 2.39336,2.32912 7.4032,6.76707 11.13298,9.86211 3.72978,3.09504 9.38094,8.16439 12.55814,11.26523 3.17719,3.10084 8.57719,8.24705 12,11.43602 3.4228,3.18898 8.76786,8.21874 11.8779,11.17725 3.11004,2.95851 7.4306,6.50024 9.60125,7.87051 2.17065,1.37027 9.30107,7.70163 15.84538,14.06969 6.54431,6.36806 12.65561,11.57967 13.58066,11.58135 0.92504,0.002 2.7151,-1.45943 3.97789,-3.24693 z M 341.8125,176.31689 c 0.72187,-0.28887 1.58438,-0.25335 1.91667,0.0789 0.33229,0.33229 -0.25834,0.56864 -1.3125,0.52522 -1.16495,-0.048 -1.4019,-0.28494 -0.60417,-0.60416 z M 712.47432,291.04966 C 713.31344,289.42697 714,285.58752 714,282.51754 c 0,-3.06998 0.70123,-7.25482 1.55829,-9.29966 1.84419,-4.4 2.09713,-32.39031 0.39038,-43.1991 -2.35223,-14.89655 -3.25042,-19.57113 -3.94254,-20.51878 -0.40169,-0.55 -1.04788,-2.35 -1.43597,-4 -0.38808,-1.65 -1.44579,-4.125 -2.35046,-5.5 -0.90468,-1.375 -2.38029,-3.85 -3.27915,-5.5 -0.89886,-1.65 -2.2657,-4.13133 -3.03742,-5.51407 -1.51077,-2.70695 -5.95182,-9.16761 -6.86431,-9.98593 -0.30665,-0.275 -1.85571,-2.525 -3.44235,-5 -1.58665,-2.475 -8.10744,-9.72566 -14.49065,-16.11258 C 670.72262,151.5005 659.65,140.0724 652.5,132.49163 c -7.15,-7.58076 -16.7125,-17.54479 -21.25,-22.14228 -4.5375,-4.59749 -8.25,-8.77019 -8.25,-9.27265 0,-0.50247 -1.6078,-1.907255 -3.57289,-3.121746 -1.96508,-1.214491 -3.97895,-3.276193 -4.47525,-4.58156 C 614.45557,92.068027 613.36336,91 612.52475,91 611.68614,91 611,90.594047 611,90.097882 611,89.601717 606.5,84.673685 601,79.1467 595.5,73.619716 591,68.625669 591,68.048819 c 0,-0.576851 -0.5625,-1.07803 -1.25,-1.113732 -0.6875,-0.0357 -4.175,-3.514116 -7.75,-7.729808 C 573.6377,49.344333 555.38241,30.380442 546.18493,22 c -2.11267,-1.925 -4.33749,-4.4 -4.94405,-5.5 -1.0693,-1.939205 -2.19163,-2.003105 -36.92185,-2.102145 -19.70047,-0.05618 -36.62798,-0.450055 -37.61669,-0.875277 -0.98871,-0.425222 -3.68871,-0.42983 -6,-0.01024 -4.4528,0.80836 -8.75804,0.97107 -17.70234,0.669035 -3.025,-0.10215 -8.17857,-0.01281 -11.45238,0.198532 -3.368,0.217423 -6.73287,-0.10316 -7.75,-0.738369 -1.34105,-0.837495 -2.28256,-0.819777 -3.70694,0.06976 -1.07713,0.672679 -3.41894,0.947415 -5.37287,0.630335 -1.90495,-0.309131 -3.70857,-0.165595 -4.00805,0.318969 -0.58333,0.943841 8.32416,10.752002 11.12689,12.251976 2.04826,1.096197 21.66856,19.65635 36.29876,34.337422 5.89201,5.9125 11.09268,10.75 11.55705,10.75 0.46437,0 1.51103,1.083816 2.32592,2.408479 0.81489,1.324664 4.85662,5.178208 8.98162,8.563431 4.125,3.385224 14.475,12.821411 23,20.9693 8.525,8.1479 18.875,17.86191 23,21.5867 8.69167,7.84839 21.59778,19.80589 27.82786,25.78249 2.38032,2.28347 5.36799,4.83528 6.63926,5.67068 1.27128,0.83541 7.46145,6.46892 13.75593,12.51892 12.29859,11.8209 25.21433,23.50336 27.41771,24.79969 0.74758,0.43983 1.35924,1.21943 1.35924,1.73244 0,0.51301 2.01508,3.0358 4.47795,5.60619 4.08045,4.2586 4.3247,4.7855 2.75157,5.9358 -2.22988,1.63053 -1.30525,2.47628 3.16103,2.89138 3.45209,0.32083 9.64172,4.54778 16.77327,11.45462 1.46511,1.41893 3.8068,3.47988 5.20376,4.57988 1.39697,1.1 2.57313,2.45 2.61371,3 0.0406,0.55 1.65813,2.125 3.59457,3.5 1.93644,1.375 7.21155,6.12442 11.72247,10.55428 4.51092,4.42985 10.85894,10.27985 14.10672,13 3.24777,2.72014 11.65789,10.57072 18.68915,17.44572 12.72223,12.43949 21.42363,20 23.01803,20 0.46003,0 1.52297,-1.32765 2.36209,-2.95034 z M 74.666667,184.33333 C 74.3,183.96667 73.7,183.96667 73.333333,184.33333 72.966667,184.7 73.266667,185 74,185 c 0.733333,0 1.033333,-0.3 0.666667,-0.66667 z M 58,1.5 C 58,1.225 57.775,1 57.5,1 57.225,1 57,1.225 57,1.5 57,1.775 57.225,2 57.5,2 57.775,2 58,1.775 58,1.5 Z m 51,0 C 109,1.225 108.775,1 108.5,1 108.225,1 108,1.225 108,1.5 c 0,0.275 0.225,0.5 0.5,0.5 0.275,0 0.5,-0.225 0.5,-0.5 z m 519.8125,89.816886 c 0.72187,-0.288871 1.58438,-0.253344 1.91667,0.07895 0.33229,0.332292 -0.25834,0.568641 -1.3125,0.52522 -1.16495,-0.04798 -1.4019,-0.284941 -0.60417,-0.604167 z"
       id="path1" />
  </g>
</svg>
