<?xml version="1.0" encoding="UTF-8" standalone="no"?>
<!-- Created with Inkscape (http://www.inkscape.org/) -->

<svg
   version="1.1"
   id="svg1"
   width="726"
   height="509"
   viewBox="0 0 726 509"
   sodipodi:docname="3.svg"
   inkscape:version="1.4 (86a8ad7, 2024-10-11)"
   xmlns:inkscape="http://www.inkscape.org/namespaces/inkscape"
   xmlns:sodipodi="http://sodipodi.sourceforge.net/DTD/sodipodi-0.dtd"
   xmlns="http://www.w3.org/2000/svg"
   xmlns:svg="http://www.w3.org/2000/svg">
  <defs
     id="defs1" />
  <sodipodi:namedview
     id="namedview1"
     pagecolor="#ffffff"
     bordercolor="#000000"
     borderopacity="0.25"
     inkscape:showpageshadow="2"
     inkscape:pageopacity="0.0"
     inkscape:pagecheckerboard="0"
     inkscape:deskcolor="#d1d1d1"
     inkscape:zoom="1.5618861"
     inkscape:cx="363.02264"
     inkscape:cy="254.5"
     inkscape:window-width="1920"
     inkscape:window-height="1013"
     inkscape:window-x="2391"
     inkscape:window-y="605"
     inkscape:window-maximized="1"
     inkscape:current-layer="g1" />
  <g
     inkscape:groupmode="layer"
     inkscape:label="Image"
     id="g1">
    <path
       style="fill:#000000"
       d="m 190.70468,508.40426 c -0.44025,-0.36945 -15.37453,-1.62056 -18.20468,-1.52508 -12.31461,0.41547 -41.64505,0.35347 -59.99558,-0.12681 -12.516548,-0.32759 -22.233232,-0.19116 -22.547034,0.31658 -0.3208,0.51907 -3.041338,0.47642 -6.504418,-0.10197 -4.20576,-0.70243 -7.38946,-0.6573 -10.847285,0.15375 -3.592838,0.84272 -6.650877,0.86079 -11.5,0.0679 C 57.472557,506.59465 48.65,506.31939 41.5,506.57699 34.35,506.83458 23.10589,507.14764 16.513088,507.27267 4.5261761,507.5 4.5261761,507.5 3.2026933,504.73784 2.1171138,502.47219 1.8513681,457.80296 1.7243198,256.23784 1.5694291,10.5 1.5694291,10.5 3.7015522,6.5 4.87422,4.3 6.7081221,1.9730161 7.7768904,1.3289247 9.1942759,0.47473957 18.890646,0.26090889 43.610053,0.53870841 101.09137,1.1846901 109.44301,1.1792612 111.18926,0.4947795 c 0.9291,-0.36417803 2.41934,-0.25357031 3.31166,0.24579494 0.93298,0.52212526 4.03955,0.55781226 7.31073,0.0839826 6.98594,-1.01190974 41.0738,-0.81891741 41.72592,0.23623605 0.25945,0.4197967 1.93214,0.4658477 3.71708,0.1023355 C 169.03959,0.79961635 174.1,0.62274706 178.5,0.77008569 c 4.4,0.14733864 12.05,0.27805071 17,0.29047131 4.95,0.012421 10.8,0.072636 13,0.1338126 5.80097,0.16131 6.56025,0.1410187 22.6628,-0.60565038 9.96785,-0.46220525 14.87295,-0.33989141 15.3191,0.38199802 0.36096,0.58404856 1.12846,0.77009366 1.70555,0.41343336 1.71609,-1.06060285 29.20777,-1.29730321 30.4573,-0.262234 1.2287,1.0178121 44.25945,0.5224431 55.14344,-0.63481002 3.6484,-0.38791987 6.79692,-0.26170641 7.5,0.30064965 C 341.96607,1.3299446 351.5325,1.8276466 363,1.9173311 c 11.275,0.088179 49.525,0.3785194 85,0.6452009 95.50655,0.7179654 97,0.7722358 97,3.5248877 0,0.4803932 4.23867,4.9991663 9.41927,10.0417183 5.18059,5.042552 10.42634,11.126358 11.65721,13.519569 C 567.30736,32.041918 568.8745,34 569.55902,34 c 0.68452,0 2.07627,1.300974 3.09278,2.891053 3.0695,4.801477 8.52553,11.191159 14.5982,17.096304 3.1625,3.075255 5.75,6.103163 5.75,6.728684 0,0.625521 0.6104,1.282807 1.35643,1.460635 0.74604,0.177828 3.27329,2.573324 5.61611,5.323324 2.34282,2.75 9.94493,10.999708 16.89357,18.332685 6.94864,7.332977 12.79086,13.766396 12.98272,14.296485 0.57399,1.58593 5.32788,6.20555 10.65117,10.35035 7.78849,6.06424 28.22584,27.05915 31.95398,32.82574 1.84714,2.85711 5.4568,7.21974 8.02147,9.69474 7.3191,7.06321 15.06393,17.03933 17.42484,22.44495 1.18785,2.71972 3.27066,6.40146 4.62848,8.18166 1.35783,1.7802 2.91825,4.27997 3.46761,5.55506 0.54937,1.27508 1.41907,2.99333 1.93268,3.81833 6.55125,10.52308 8.85614,16.6322 13.15633,34.87088 1.0855,4.60399 2.42834,9.22052 2.9841,10.25896 0.55576,1.03845 0.98882,3.57155 0.96235,5.62912 -0.0265,2.05757 -0.0541,10.34656 -0.0613,18.41997 -0.01,10.66649 -0.41739,15.6463 -1.49186,18.21789 C 722.6654,282.34324 722,285.3596 722,287.09985 c 0,1.74024 -0.85883,4.5672 -1.90852,6.28212 -1.04969,1.71491 -2.41408,5.01957 -3.03199,7.34368 -2.19077,8.24006 -13.42068,26.7427 -21.20499,34.9378 -3.21998,3.38989 -5.8545,7.07687 -5.8545,8.19329 0,1.11642 -0.9205,2.6746 -2.04556,3.46262 -1.12506,0.78802 -3.36515,3.51354 -4.97798,6.0567 C 681.36363,355.91923 679.58414,358 679.02202,358 678.45991,358 678,358.52428 678,359.16507 c 0,1.06463 -4.26009,6.01995 -16.49327,19.18493 -2.4787,2.6675 -4.51806,5.1425 -4.53191,5.5 -0.0303,0.7833 -11.08483,12.32205 -16.26855,16.98124 -2.03845,1.83219 -3.70627,3.74469 -3.70627,4.25 0,0.50532 -0.675,0.91876 -1.5,0.91876 -0.825,0 -1.50335,0.5625 -1.50745,1.25 -0.004,0.6875 -4.50075,5.975 -9.99255,11.75 -5.4918,5.775 -9.98845,11.04014 -9.99255,11.70031 -0.004,0.66017 -0.60252,1.56017 -1.32982,2 -0.72731,0.43983 -4.39867,4.39969 -8.15858,8.79969 -6.10675,7.14636 -11.65803,13.1469 -23.76905,25.69267 -2.0625,2.13654 -3.75,4.2869 -3.75,4.77859 0,0.49168 -0.9,1.17961 -2,1.52874 -1.1,0.34913 -2,1.07267 -2,1.60788 0,2.4459 -9.56823,13.89212 -11.61283,13.89212 -0.67128,0 -1.37688,0.46912 -1.568,1.04249 -0.19112,0.57337 -3.93778,4.63542 -8.32591,9.02678 -5.83093,5.83522 -9.05705,8.27757 -11.98583,9.07392 -4.51991,1.22898 -65.44556,0.28349 -66.78777,-1.03647 -0.42919,-0.42207 -3.53018,-0.39134 -6.89109,0.0683 -3.89408,0.53255 -6.55186,0.4696 -7.32679,-0.17353 -1.26418,-1.04918 -22.60915,-0.67119 -24.39413,0.43199 -0.5332,0.32953 -1.24287,0.15676 -1.57705,-0.38395 -0.80674,-1.30534 -73.35156,-1.21571 -75.79811,0.0936 -1.42831,0.76441 -165.13791,2.0079 -166.02781,1.2611 z M 6,497.5 C 6,497.225 5.775,497 5.5,497 5.225,497 5,497.225 5,497.5 c 0,0.275 0.225,0.5 0.5,0.5 0.275,0 0.5,-0.225 0.5,-0.5 z m 312.77799,-0.94733 c 2.49852,-0.24467 5.11855,-1.03162 5.82227,-1.74876 0.914,-0.93143 1.44372,-7.16 1.85437,-21.80391 0.88101,-31.41737 1.00998,-132.43922 0.17081,-133.79703 -0.82363,-1.33267 -7.22388,-1.66173 -7.99678,-0.41114 -0.71118,1.15071 -31.29231,1.45854 -33.38961,0.3361 -1.13158,-0.6056 -4.76973,-0.55212 -10.07319,0.14807 -6.28651,0.82999 -9.73291,0.80048 -14.19688,-0.12153 -4.55835,-0.94152 -6.32621,-0.94833 -7.79662,-0.03 -1.42325,0.88882 -2.98212,0.9133 -6.19696,0.0973 -3.85544,-0.97861 -25.07278,-0.8832 -52.9754,0.23822 -4.125,0.16579 -9.88486,-0.13142 -12.79968,-0.66047 -3.85869,-0.70035 -5.68812,-0.63952 -6.72829,0.22374 -1.21769,1.01059 -1.40953,12.61696 -1.29941,78.61546 0.0867,51.96539 0.46831,77.63941 1.16036,78.06712 0.56714,0.35052 15.65644,0.79231 33.53178,0.98177 17.87533,0.18946 32.66667,0.51054 32.86964,0.71351 0.49597,0.49597 72.2845,-0.28443 78.04359,-0.8484 z m 204.73492,-1.73812 C 541.5,494.61338 541.5,494.61338 544,491.89461 c 1.375,-1.49533 6.8875,-7.13149 12.25,-12.5248 5.3625,-5.39332 9.75,-10.15888 9.75,-10.59014 0,-0.43126 2.89246,-3.82061 6.42769,-7.53189 3.53522,-3.71128 10.39772,-11.00913 15.25,-16.21745 4.85227,-5.20831 10.84731,-11.57689 13.32231,-14.15238 6.95071,-7.23293 9.45565,-10.1389 11.35555,-13.17349 0.96263,-1.53754 2.85143,-3.29727 4.19734,-3.91051 1.34591,-0.61324 2.44711,-1.69223 2.44711,-2.39776 0,-0.70553 0.79443,-1.8708 1.7654,-2.58949 0.97096,-0.71868 2.2889,-2.495 2.92874,-3.94737 0.63984,-1.45236 3.22042,-4.36016 5.73461,-6.46176 2.51419,-2.1016 4.57125,-4.2593 4.57125,-4.79488 0,-0.53558 0.93094,-1.96472 2.06875,-3.17587 1.97594,-2.1033 2.06423,-3.24724 1.96795,-25.5006 -0.0644,-14.88004 -0.48606,-23.76274 -1.16704,-24.58327 -0.72547,-0.87414 -3.83137,-1.26656 -9.71795,-1.22784 -4.75844,0.0313 -10.87652,-0.45326 -13.59573,-1.07681 -2.95531,-0.67769 -7.17888,-0.84187 -10.5,-0.40815 -3.05579,0.39906 -14.33098,0.83057 -25.05598,0.9589 -10.725,0.12834 -20.85,0.32652 -22.5,0.44041 -1.65,0.1139 -6.375,-0.37261 -10.5,-1.08112 -6.07717,-1.04382 -11.66441,-1.05249 -29.45134,-0.0457 -12.07324,0.68338 -22.68959,1.6376 -23.59189,2.1205 -1.44765,0.77476 -1.72404,4.79336 -2.35059,34.17743 -0.39053,18.31468 -0.70255,33.74943 -0.69339,34.29943 0.72979,43.8234 1.2379,58.91306 2.03387,60.40033 0.54063,1.01019 0.78158,2.03809 0.53544,2.28423 -0.24614,0.24614 -0.6654,4.40647 -0.9317,9.24517 -0.64919,11.79594 0.57592,14.31883 7.19689,14.82077 2.61399,0.19817 5.43352,0.22641 6.26562,0.0628 0.83211,-0.16364 9.60711,-0.38806 19.5,-0.49871 z M 93,398 c 0,-0.55 -0.45,-1 -1,-1 -0.55,0 -1,0.45 -1,1 0,0.55 0.45,1 1,1 0.55,0 1,-0.45 1,-1 z m -15,-3.5 c 0,-0.275 -0.225,-0.5 -0.5,-0.5 -0.275,0 -0.5,0.225 -0.5,0.5 0,0.275 0.225,0.5 0.5,0.5 0.275,0 0.5,-0.225 0.5,-0.5 z M 390,350 c 0,-0.55 -0.47656,-1 -1.05902,-1 -0.58246,0 -0.7809,0.45 -0.44098,1 0.33992,0.55 0.81648,1 1.05902,1 0.24254,0 0.44098,-0.45 0.44098,-1 z m 6,-5.60699 C 396,344.17686 395.325,344 394.5,344 c -0.825,0 -1.5,0.43588 -1.5,0.96862 0,0.53273 0.675,0.70959 1.5,0.39301 0.825,-0.31659 1.5,-0.75246 1.5,-0.96862 z m 55.78377,-18.45145 c 20.08769,0.0352 26.38783,-0.24719 26.72519,-1.19777 0.24278,-0.68409 0.60148,-39.50421 0.79712,-86.26695 l 0.3557,-85.02317 -54.08089,0.14713 c -81.02532,0.22043 -79.34957,0.1683 -82.59723,2.5694 -2.71791,2.00944 -2.75765,2.19865 -2.97882,14.18321 -0.12328,6.68062 -0.40933,17.32159 -0.63565,23.64659 -0.22633,6.325 -0.32009,13.975 -0.20835,17 0.24776,6.70781 0.23709,46.45729 -0.0154,57.5 -0.10062,4.4 -0.14976,9.8 -0.10919,12 0.0406,2.2 -0.0152,12.65156 -0.12385,23.22568 -0.1546,15.04066 0.10076,19.5852 1.17307,20.87725 1.16303,1.40138 2.81311,1.56753 10.89262,1.09681 5.23707,-0.30511 15.37195,-0.24921 22.52195,0.12422 7.15,0.37343 21.775,0.5423 32.5,0.37527 10.725,-0.16703 31.3277,-0.28298 45.78377,-0.25767 z m 243.71669,-2.45806 c 1.09975,-1.10908 2.77268,-3.13408 3.71763,-4.5 0.94495,-1.36593 3.74179,-5.38748 6.21519,-8.9368 2.47341,-3.54931 4.78632,-7.82431 5.13979,-9.5 0.35347,-1.67568 1.44699,-4.3967 2.43004,-6.0467 0.98305,-1.65 2.10989,-5.475 2.5041,-8.5 0.3942,-3.025 1.18957,-6.08434 1.76748,-6.79853 0.63855,-0.78913 1.07058,-8.04647 1.10131,-18.5 0.0458,-15.56405 -0.2125,-18.24857 -2.71305,-28.20147 -3.14239,-12.50763 -6.6632,-22.31917 -9.92635,-27.66208 -7.28674,-11.93091 -10.81516,-17.94495 -13.36581,-22.78143 -2.60373,-4.93711 -17.7285,-22.12082 -24.44394,-27.77149 -3.95842,-3.3308 -13.6569,-3.3544 -14.37654,-0.035 -0.9429,4.3492 -3.53482,52.96605 -2.88026,54.02515 0.97021,1.56984 1.03534,6.71439 0.13578,10.72485 -1.0664,4.75427 -1.0868,96.73532 -0.0223,100.5 0.68371,2.41796 1.46604,3.0608 4.03238,3.31336 1.75124,0.17235 3.18408,0.70096 3.18408,1.17469 0,0.47374 5.4469,0.86713 12.10422,0.8742 6.65733,0.007 12.27623,0.18486 12.48645,0.39508 0.21021,0.21022 2.75102,0.35082 5.64623,0.31244 3.88643,-0.0515 5.78731,-0.59749 7.26356,-2.08627 z M 88,323.92154 c 5.225,-0.10018 15.00414,0.072 21.73142,0.38274 7.1686,0.33106 12.47049,0.17804 12.80901,-0.3697 0.72992,-1.18103 8.15739,-1.23254 8.88107,-0.0616 0.63796,1.03224 26.34804,0.80727 28.6877,-0.25102 1.44744,-0.65472 1.63902,-6.62867 1.90573,-59.42493 0.52,-102.93638 0.50071,-109.01469 -0.34867,-109.86368 -0.45856,-0.45835 -8.78356,-0.73996 -18.5,-0.62581 -9.71644,0.11415 -42.96012,0.26348 -73.874847,0.33184 -65.0277424,0.14379 -57.852851,-1.47916 -57.2975,12.96061 0.801891,20.85007 -0.04571,59.65676 -1.349058,61.76562 -0.368645,0.59648 -0.148387,2.2299 0.489463,3.62983 0.892302,1.95839 0.877017,2.88597 -0.06629,4.02258 -0.748544,0.90194 -0.895973,2.067 -0.378559,2.99157 0.4661,0.83288 0.578112,5.17987 0.248916,9.65999 -0.329197,4.48012 -0.375688,12.03473 -0.103314,16.78804 0.272374,4.7533 0.338573,13.14237 0.147108,18.64237 -0.423765,12.17301 -0.267006,20.68086 0.55736,30.25 l 0.624576,7.25 13.167941,0.1876 c 7.242368,0.10318 14.742941,0.317 16.667941,0.47515 1.925,0.15815 9.890706,0.42694 17.701568,0.5973 7.810862,0.17036 14.528312,0.6365 14.927665,1.03585 0.399354,0.39935 1.433649,0.51948 2.298432,0.26694 C 77.792449,324.3103 82.775,324.02172 88,323.92154 Z M 123,254.5 c 0,-0.275 0.225,-0.5 0.5,-0.5 0.275,0 0.5,0.225 0.5,0.5 0,0.275 -0.225,0.5 -0.5,0.5 -0.275,0 -0.5,-0.225 -0.5,-0.5 z m 495,47 c 0,-0.275 -0.225,-0.5 -0.5,-0.5 -0.275,0 -0.5,0.225 -0.5,0.5 0,0.275 0.225,0.5 0.5,0.5 0.275,0 0.5,-0.225 0.5,-0.5 z M 496,221.16667 c 0,-1.30208 -1.18877,-2.16804 -2.15579,-1.57039 C 492.80999,220.23547 493.70176,222 495.05902,222 495.57656,222 496,221.625 496,221.16667 Z M 328.66567,137.06694 c 1.0708,-1.52879 1.32315,-3.17315 0.82625,-5.38398 -0.39347,-1.75063 -0.64231,-7.90796 -0.55297,-13.68296 0.0893,-5.775 0.14587,-11.7375 0.12563,-13.25 -0.0591,-4.41413 -0.0264,-6.143495 0.54303,-28.75 0.29786,-11.825 0.55266,-22.85 0.56622,-24.5 0.28733,-34.968511 -0.59502,-39.388351 -7.90913,-39.618421 -2.07059,-0.06513 -4.03322,-0.08813 -4.3614,-0.0511 -13.01828,1.46876 -46.89602,1.973729 -94.4033,1.40714 -30.09278,-0.358897 -42.38583,0.433956 -45.09641,2.90854 -2.81691,2.571656 -3.59356,16.092324 -4.15614,72.35384 -0.23648,23.65 -0.46604,44.50077 -0.51014,46.33503 -0.0441,1.83427 0.40417,3.63427 0.99613,4 0.59196,0.36574 35.12201,0.61276 76.73344,0.54895 75.65714,-0.11603 75.65714,-0.11603 77.19879,-2.31704 z M 181,113.5 c 0,-0.275 0.225,-0.5 0.5,-0.5 0.275,0 0.5,0.225 0.5,0.5 0,0.275 -0.225,0.5 -0.5,0.5 -0.275,0 -0.5,-0.225 -0.5,-0.5 z m 5,0 c 0,-0.275 0.225,-0.5 0.5,-0.5 0.275,0 0.5,0.225 0.5,0.5 0,0.275 -0.225,0.5 -0.5,0.5 -0.275,0 -0.5,-0.225 -0.5,-0.5 z m 3.33333,-0.16667 c 0.36667,-0.36666 0.96667,-0.36666 1.33334,0 C 191.03333,113.7 190.73333,114 190,114 c -0.73333,0 -1.03333,-0.3 -0.66667,-0.66667 z M 532,137.41729 c 26.58402,-0.49772 31.72715,-0.52266 59.5,-0.28847 8.25,0.0696 22.34704,-0.21061 31.32677,-0.6226 15.72404,-0.72143 16.36546,-0.83401 17.37499,-3.0497 1.77295,-3.8912 -1.3041,-10.16751 -8.45074,-17.23716 -5.37258,-5.31469 -21.40003,-22.03733 -34.25102,-35.736661 -4.95,-5.276767 -11.7,-12.394571 -15,-15.817343 -3.3,-3.422772 -8.11093,-8.685202 -10.69096,-11.694289 -4.70452,-5.486882 -8.00228,-9.081585 -21.02251,-22.915458 -3.8536,-4.094414 -7.46907,-8.459515 -8.03437,-9.700224 -1.32702,-2.912488 -5.65414,-4.392407 -9.98617,-3.415375 -1.88081,0.424191 -11.55289,0.593321 -21.49351,0.375844 l -18.07386,-0.395412 -0.7492,5.289779 C 492.03735,25.119599 491.54131,50 491.3471,77.5 c -0.19422,27.5 -0.49713,51.575 -0.67314,53.5 -0.53157,5.81359 2.41267,8.18902 9.27577,7.48378 3.05265,-0.31369 17.47527,-0.79361 32.05027,-1.06649 z m -34,-5.00062 c 0,-0.87084 0.53437,-1.40521 1.1875,-1.1875 C 501.04172,131.84724 501.34926,134 499.58333,134 498.7125,134 498,133.2875 498,132.41667 Z M 625,133.5 c 0,-0.275 0.225,-0.5 0.5,-0.5 0.275,0 0.5,0.225 0.5,0.5 0,0.275 -0.225,0.5 -0.5,0.5 -0.275,0 -0.5,-0.225 -0.5,-0.5 z m -211,-27 c 0,-0.825 0.675,-1.5 1.5,-1.5 0.825,0 1.5,-0.675 1.5,-1.5 0,-2.08132 -2.63023,-1.887 -3.38401,0.25 -0.3395,0.9625 -0.87949,2.3125 -1.19997,3 -0.32048,0.6875 -0.0952,1.25 0.50065,1.25 C 413.5125,108 414,107.325 414,106.5 Z m 20,-0.25945 c 0,-1.11685 -3.682,-3.22522 -4.39219,-2.51503 C 428.14217,105.19116 429.18742,107 431.5,107 c 1.375,0 2.5,-0.34175 2.5,-0.75945 z m -14.33333,-2.90722 C 419.3,102.96667 419,103.26667 419,104 c 0,0.73333 0.3,1.03333 0.66667,0.66667 0.36666,-0.36667 0.36666,-0.96667 0,-1.33334 z M 85,59.5 C 85,59.225 84.775,59 84.5,59 84.225,59 84,59.225 84,59.5 84,59.775 84.225,60 84.5,60 84.775,60 85,59.775 85,59.5 Z M 46,42 c 0,-0.55 -0.45,-1 -1,-1 -0.55,0 -1,0.45 -1,1 0,0.55 0.45,1 1,1 0.55,0 1,-0.45 1,-1 z M 442.66667,14.333333 c -0.36667,-0.366666 -0.96667,-0.366666 -1.33334,0 C 440.96667,14.7 441.26667,15 442,15 c 0.73333,0 1.03333,-0.3 0.66667,-0.666667 z"
       id="path1" />
    <rect
       style="fill:#000000"
       id="rect1"
       width="61.464149"
       height="35.213837"
       x="41.616352"
       y="39.695599" />
    <rect
       style="fill:#000000"
       id="rect2"
       width="54.421383"
       height="42.896854"
       x="396.95596"
       y="82.592453" />
    <rect
       style="fill:#000000"
       id="rect3"
       width="9.6037731"
       height="9.6037731"
       x="439.21259"
       y="15.366037" />
    <rect
       style="fill:#000000"
       id="rect4"
       width="10.884276"
       height="14.085535"
       x="492.99371"
       y="216.40503" />
    <rect
       style="fill:#000000"
       id="rect5"
       width="19.207546"
       height="17.286793"
       x="610.15973"
       y="297.07672" />
    <rect
       style="fill:#000000"
       id="rect6"
       width="28.811321"
       height="17.286793"
       x="375.82767"
       y="343.81509" />
    <rect
       style="fill:#000000"
       id="rect7"
       width="38.415092"
       height="35.213837"
       x="60.183647"
       y="382.87045" />
  </g>
</svg>
