<?xml version="1.0" encoding="UTF-8" standalone="no"?>
<!-- Created with Inkscape (http://www.inkscape.org/) -->

<svg
   version="1.1"
   id="svg1"
   width="728"
   height="519"
   viewBox="0 0 728 519"
   sodipodi:docname="1.svg"
   inkscape:version="1.4 (86a8ad7, 2024-10-11)"
   xmlns:inkscape="http://www.inkscape.org/namespaces/inkscape"
   xmlns:sodipodi="http://sodipodi.sourceforge.net/DTD/sodipodi-0.dtd"
   xmlns="http://www.w3.org/2000/svg"
   xmlns:svg="http://www.w3.org/2000/svg">
  <defs
     id="defs1" />
  <sodipodi:namedview
     id="namedview1"
     pagecolor="#ffffff"
     bordercolor="#000000"
     borderopacity="0.25"
     inkscape:showpageshadow="2"
     inkscape:pageopacity="0.0"
     inkscape:pagecheckerboard="0"
     inkscape:deskcolor="#d1d1d1"
     inkscape:zoom="1.5317919"
     inkscape:cx="364.27925"
     inkscape:cy="259.17358"
     inkscape:window-width="1920"
     inkscape:window-height="1013"
     inkscape:window-x="2391"
     inkscape:window-y="605"
     inkscape:window-maximized="1"
     inkscape:current-layer="g1" />
  <g
     inkscape:groupmode="layer"
     inkscape:label="Image"
     id="g1">
    <path
       id="path1"
       style="fill:#000000"
       d="m 10.992188,5.8730469 c -5.4e-5,0.018012 -0.0038,0.028909 -0.0039,0.046875 0.02361,-0.012914 0.04231,-0.028397 0.06641,-0.041016 -0.02083,-0.00202 -0.04167,-0.00384 -0.0625,-0.00586 z M 529.77539,9.4492188 c -0.28986,-0.084738 -0.60059,-0.057629 -0.86133,0.1035156 -0.52147,0.3222888 -17.02862,0.4845646 -36.68164,0.359375 C 472.5794,9.7869157 451.1,9.7288731 444.5,9.7832031 437.9,9.8375331 416.3,9.829196 396.5,9.765625 359.12308,9.6456207 285.32565,9.6934603 236,9.8691406 c -15.675,0.055829 -32.55,-0.047454 -37.5,-0.2304687 -4.95,-0.1830149 -10.08505,0.064261 -11.41211,0.5507811 -1.4082,0.516271 -2.78643,0.512394 -3.30859,-0.0098 -0.8537,-0.8536972 -15.16712,-0.8193693 -99.392581,0.240234 -14.274048,0.179575 -23.47513,0.190043 -29.330078,0.04297 -1.115154,0.777529 -3.930024,0.974711 -4.720703,1.060547 C 46.513148,11.746963 42.69079,11.80536 38.861328,11.75 H 23.212891 14.105469 c -1.571585,0 -2.753901,-0.390651 -3.560547,-0.974609 C 10.261624,12.1073 9.8540399,13.191969 9.3085938,13.970703 7.7768803,16.15753 7.591896,21.636728 7.3613281,71.943359 7.2212796,102.49995 6.7986215,146.625 6.4199219,170 5.5892567,221.27229 5.5915786,214.89484 6.3984375,224.5 6.917555,230.67977 7.50934,384.44279 7.0585938,396 c -0.053627,1.375 0.047955,25.9 0.2246093,54.5 0.2339826,37.88124 0.6439402,52.5904 1.5136719,54.17578 0.6566396,1.19694 3.283192,3.58577 5.835937,5.3086 4.036191,2.72399 5.438022,3.11478 10.753907,2.99804 7.306109,-0.16044 137.038271,1.13159 137.287111,1.36719 0.23039,0.21813 265.63394,-0.28855 332.68555,-0.63477 l 52.86132,-0.27148 2.63868,-3.35938 c 1.45181,-1.84715 7.14579,-7.90867 12.65234,-13.4707 5.50655,-5.56202 11.12023,-11.68828 12.47461,-13.61328 1.35439,-1.925 3.82422,-4.90158 5.48828,-6.61523 1.66406,-1.71364 3.80584,-4.18864 4.75977,-5.5 1.99345,-2.74041 6.35136,-8.29515 9.26562,-11.81055 1.1,-1.3269 5.375,-5.84566 9.5,-10.04102 4.125,-4.19535 9.43516,-10.2054 11.80078,-13.35547 2.36562,-3.15006 6.19062,-7.63522 8.5,-9.96679 2.30938,-2.33157 12.29206,-13.68232 22.1836,-25.22461 9.89153,-11.54228 21.14153,-24.62579 25,-29.07422 3.85846,-4.44843 8.59062,-10.22328 10.51562,-12.83203 1.925,-2.60876 4.175,-5.53392 5,-6.5 0.825,-0.96609 1.95,-2.43898 2.5,-3.27539 0.55,-0.8364 3.24183,-4.8321 5.98242,-8.87891 2.74059,-4.04681 5.66559,-8.59883 6.5,-10.11523 0.83441,-1.51641 3.61209,-6.2727 6.17188,-10.57032 2.5598,-4.29761 5.15399,-9.59785 5.76562,-11.77734 0.61162,-2.1795 1.77964,-4.83668 2.5957,-5.9043 0.81609,-1.06762 1.48438,-2.8134 1.48438,-3.88086 0,-1.06746 0.93876,-3.46022 2.08594,-5.3164 1.14718,-1.85617 2.88976,-7.30845 3.87304,-12.11719 2.10605,-10.29975 3.47966,-32.85369 2.05469,-33.73437 -0.52972,-0.32738 -0.94814,-3.61399 -0.93164,-7.30274 0.0351,-7.85644 -1.26069,-15.11274 -3.69531,-20.70703 -0.95743,-2.2 -1.84912,-4.58654 -1.98242,-5.30273 -0.1333,-0.71619 -0.95477,-2.38789 -1.82422,-3.71485 -0.86946,-1.32695 -1.59212,-2.99041 -1.60742,-3.69726 -0.0153,-0.70685 -1.3653,-3.05241 -3,-5.21289 C 712.33796,198.41179 711,196.27017 711,195.8125 c 0,-1.05946 -6.53138,-10.52277 -9.5332,-13.8125 -1.25466,-1.375 -2.93419,-4.075 -3.73242,-6 -0.79824,-1.925 -4.10138,-6.00636 -7.3418,-9.07031 -3.24043,-3.06395 -8.40682,-8.46395 -11.48047,-12 -3.07366,-3.53605 -9.26116,-10.56176 -13.75,-15.61133 C 660.67326,134.26878 657,129.86449 657,129.5293 c 0,-1.1398 -4.49182,-7.01371 -6.5,-8.5 -3.13163,-2.31778 -8.49109,-8.41005 -8.49609,-9.65821 -0.003,-0.62077 -1.34003,-1.68117 -2.97266,-2.35742 -1.71254,-0.70936 -4.04781,-3.07268 -5.51953,-5.58398 -1.40304,-2.39411 -3.1314,-4.706768 -3.8418,-5.140628 -0.7104,-0.43386 -4.8387,-4.839062 -9.17383,-9.789062 -4.33513,-4.95 -11.97913,-13.05 -16.98632,-18 -5.00719,-4.95 -10.96916,-11.533505 -13.25,-14.630859 -2.28084,-3.097354 -6.19271,-7.372354 -8.69141,-9.5 -6.3023,-5.366417 -28.19862,-29.630841 -28.99024,-32.125 -0.84175,-2.652115 -4.30498,-3.487352 -13.74609,-3.3125 -4.44888,0.0824 -7.9406,-0.298932 -8.31836,-0.910157 -0.17905,-0.2897116 -0.44842,-0.4875274 -0.73828,-0.5722652 z M 188.91602,16.123047 c 0.34739,0.01431 0.64635,0.107292 0.8125,0.273437 0.33229,0.332292 -0.25834,0.568811 -1.3125,0.525391 -1.16495,-0.04798 -1.40125,-0.286243 -0.60352,-0.605469 0.36094,-0.144434 0.75612,-0.207669 1.10352,-0.193359 z M 34.160156,19.175781 c 1.642161,0.129288 2.660578,0.667002 3.916016,1.683594 l 2.296875,1.861328 0.216797,98.144527 0.216797,98.14454 -2.154297,0.44921 c -1.184106,0.24625 -5.937064,0.64102 -10.5625,0.87891 -7.73381,0.39776 -8.593723,0.25004 -10.697266,-1.85351 l -2.287109,-2.28907 0.140625,-97.63476 c 0.148407,-102.713238 0.07332,-101.047448 4.439453,-98.740238 1.08532,0.57352 3.822815,0.625239 6.814453,0.128907 3.751483,-0.622395 6.017996,-0.902726 7.660156,-0.773438 z m 424.875004,0.0078 c 21.60585,-0.08561 44.08839,0.04204 48.29687,0.457031 5.72074,0.564114 5.81827,0.624572 5.13672,3.216797 -0.85704,3.259652 -0.7486,139.831938 0.13672,172.255858 0.48086,17.6113 0.34526,23.8001 -0.53125,24.3418 -1.6174,0.99962 -7.51411,1.08251 -54.70117,0.7832 l -41.12696,-0.25976 -0.53125,-5.74024 C 415.42258,211.08176 415.20683,181.05 415.23633,147.5 c 0.0295,-33.55 -0.0527,-75.796837 -0.1836,-93.882812 -0.17698,-24.444391 0.0645,-33.072077 0.94336,-33.615235 0.70296,-0.434453 21.43321,-0.73275 43.03907,-0.818359 z m -306.16407,0.533203 c 19.59759,-0.08946 40.87989,-0.03537 47.92383,0.234375 0.99012,0.03792 1.27387,2.819365 1.20117,11.798828 -0.0523,6.4625 -0.0705,51.098272 -0.041,99.18945 0.0397,64.87833 -0.24419,87.62096 -1.09766,88.14844 -0.63263,0.39099 -14.69683,0.75489 -31.2539,0.80859 -16.55707,0.0537 -38.44391,0.37359 -48.63868,0.71094 -15.00099,0.4964 -18.73484,0.35486 -19.57617,-0.74609 C 100.69322,218.95128 100.24953,189.86585 100.04688,132 99.78304,56.664017 99.755745,26.972433 99.949219,22.275391 c 0.03515,-0.853303 2.205871,-1.204573 7.158201,-1.158203 3.90952,0.0366 7.48828,-0.312412 7.95117,-0.775391 0.30324,-0.303286 18.21491,-0.535537 37.8125,-0.625 z m 186.36719,0.0293 c 7.78027,0.05785 13.02067,0.1888 13.22656,0.412109 0.6423,0.696666 1.25994,25.724418 0.6543,26.517578 -0.3459,0.453002 -0.22851,38.927204 0.26172,85.498049 0.49022,46.57084 0.61968,85.38334 0.28711,86.25 -0.53742,1.40049 -5.38494,1.57617 -43.57813,1.57617 -28.43923,0 -43.18755,-0.34873 -43.60937,-1.03125 -0.35056,-0.56722 -0.71419,-45.17045 -0.80859,-99.11914 L 265.5,21.759766 268,20.75 c 1.69868,-0.686162 47.89748,-1.177445 71.23828,-1.003906 z M 515.29297,28.375 c 0.18125,-0.07993 0.43203,-0.04496 0.70703,0.125 0.55,0.339919 1,0.816053 1,1.058594 C 517,29.801135 516.55,30 516,30 c -0.55,0 -1,-0.476135 -1,-1.058594 0,-0.291229 0.11172,-0.486478 0.29297,-0.566406 z m 61.96289,24.919922 c 1.28512,0.43926 3.26773,2.576273 5.34766,5.871094 1.28282,2.032115 4.03535,5.467759 6.11523,7.634765 10.84946,11.303945 28.52513,30.305797 32.27734,34.699219 2.34864,2.75 9.54466,10.625 15.99024,17.5 10.78572,11.50429 18.29161,19.79003 23.47265,25.91211 1.12292,1.32687 5.47508,6.05187 9.67188,10.5 10.69863,11.33934 13.32376,14.5617 20.86914,25.60742 1.925,2.81802 4.95586,6.92646 6.73633,9.13086 1.78046,2.2044 4.39303,6.30858 5.80469,9.11914 1.41166,2.81055 4.14892,7.26307 6.08203,9.89649 2.44994,3.33748 3.41739,5.62793 3.19531,7.56054 L 712.5,219.5 h -68.25 c -37.53744,0 -68.25477,-0.225 -68.25977,-0.5 -0.46449,-23.38675 -0.26214,-165.060092 0.23633,-165.558594 0.25089,-0.250897 0.60093,-0.292904 1.0293,-0.146484 z M 638.29297,112.375 c 0.18125,-0.0799 0.43203,-0.045 0.70703,0.125 0.55,0.33992 1,0.81605 1,1.05859 0,0.24254 -0.45,0.44141 -1,0.44141 -0.55,0 -1,-0.47613 -1,-1.05859 0,-0.29123 0.11172,-0.48648 0.29297,-0.56641 z m 61.88281,176.51562 c 12.94952,0.0458 15.2087,0.16182 15.42578,0.37891 0.73251,0.73251 -15.35449,31.85065 -17.49804,33.84766 -1.10212,1.02679 -2.94849,3.78316 -4.10352,6.125 -4.87599,9.88613 -6.82034,12.72696 -14.06836,20.54297 -2.98688,3.22095 -6.52842,7.3991 -7.86914,9.28515 -1.34071,1.88606 -3.31954,4.06306 -4.39648,4.83789 -1.07695,0.77483 -2.68016,2.31064 -3.5625,3.41211 -2.3661,2.95372 -11.77829,13.56862 -16.22852,18.30078 -2.13109,2.26608 -3.875,4.57289 -3.875,5.12696 0,0.55407 -0.74829,1.62405 -1.66211,2.3789 -0.91383,0.75484 -5.90946,6.32305 -11.10156,12.37305 -5.1921,6.05 -11.53132,13.25942 -14.08789,16.02148 -2.55658,2.76205 -7.34844,8.10694 -10.64844,11.87696 -3.3,3.77002 -7.83968,8.93559 -10.08789,11.47851 -2.2482,2.54293 -5.9405,7.09805 -8.20508,10.12305 -7.21221,9.63396 -9.84628,12.39475 -10.625,11.13477 -0.39716,-0.64263 -0.97624,-40.76185 -1.28711,-89.15235 L 575.73047,289 l 44.88476,-0.0664 c 42.97211,-0.0642 66.61104,-0.0888 79.56055,-0.043 z m -234.89648,0.97266 c 23.03234,-0.1337 45.93667,0.0207 46.50586,0.58984 1.17603,1.17602 1.34517,210.43462 0.17187,212.62696 -1.06711,1.99391 -1.77502,2.02163 -42.46094,1.74609 -22.75687,-0.15413 -41.70381,0.0476 -42.10351,0.44727 -1.57017,1.57017 -6.13315,0.63004 -8.33789,-1.7168 l -2.29492,-2.44141 -0.37891,-104.52343 c -0.37511,-103.73571 -0.36227,-104.53215 1.625,-105.59571 1.08144,-0.57877 24.2411,-0.99911 47.27344,-1.13281 z M 354,289.9043 l 0.0957,2.79687 c 0.83454,24.21209 1.46736,212.06964 0.7168,212.82031 -0.37816,0.37821 -4.65316,0.58851 -9.5,0.46875 -4.84684,-0.11977 -11.9625,-0.27139 -15.8125,-0.33789 -3.85,-0.0664 -7.69901,0.22354 -8.55273,0.64454 -0.85373,0.42104 -1.89027,0.42613 -2.30469,0.0117 -0.41443,-0.41442 -6.01737,-0.84758 -12.44922,-0.96289 -6.43185,-0.1153 -13.26836,-0.28826 -15.19336,-0.38476 -1.925,-0.0965 -7.89185,0.025 -13.25977,0.27148 -7.78871,0.35763 -10.00822,0.1512 -10.98632,-1.02734 -0.94415,-1.1376 -1.15158,-14.48166 -0.90625,-58.0918 0.17516,-31.13759 0.39247,-78.80374 0.48437,-105.92578 L 266.5,290.875 l 43.75,-0.48633 z m -334.324219,0.57812 c 6.649651,-0.006 19.979791,1.032 20.556641,1.90625 0.403333,0.61128 0.720735,47.77592 0.703125,104.81055 -0.0297,96.20495 -0.156007,103.83401 -1.734375,105.56836 -1.602844,1.76125 -2.27555,1.79542 -11.632813,0.5664 -5.589696,-0.73416 -10.282726,-1.8588 -10.734375,-2.57031 C 16.392597,500.06832 15.983961,490.05 15.925781,478.5 c -0.0864,-17.15115 -0.0445,-185.50358 0.04687,-187.61719 0.01205,-0.27873 1.486575,-0.3983 3.703125,-0.40039 z M 155,291.38281 201.5,291.5 201.65234,337 c 0.0841,25.025 0.2822,72.60328 0.43946,105.72852 0.15727,33.12525 0.0281,60.48559 -0.28711,60.80078 -0.31519,0.31519 -4.24203,0.61953 -8.72657,0.67773 -4.48452,0.0582 -8.36451,0.44889 -8.62304,0.86719 -0.25852,0.41831 -2.11394,0.30616 -4.1211,-0.24805 -2.00716,-0.5542 -5.04117,-0.70463 -6.74218,-0.33594 -2.70561,0.58643 -31.43589,1.3223 -31.94727,0.81836 -0.10673,-0.10518 -7.38344,-0.27737 -16.16992,-0.38281 -20.37248,-0.24446 -21.77278,-0.46728 -23.72461,-3.77148 -1.34814,-2.28222 -1.3838,-3.11749 -0.25391,-5.80469 0.93694,-2.22834 1.20336,-6.72471 0.92188,-15.49414 -0.2181,-6.79511 -0.65931,-51.78891 -0.98242,-99.98633 l -0.58789,-87.63281 3.82617,-0.48438 c 2.1045,-0.2669 24.75117,-0.43344 50.32617,-0.36914 z m 461.91602,137.74024 c 0.34739,0.0143 0.64635,0.10729 0.8125,0.27343 0.33229,0.33229 -0.25834,0.5688 -1.3125,0.5254 -1.16495,-0.048 -1.40125,-0.28625 -0.60352,-0.60547 0.36093,-0.14446 0.75612,-0.20767 1.10352,-0.19336 z" />
  </g>
</svg>
