<?xml version="1.0" encoding="UTF-8" standalone="no"?>
<!-- Created with Inkscape (http://www.inkscape.org/) -->

<svg
   version="1.1"
   id="svg1"
   width="737"
   height="517"
   viewBox="0 0 737 517"
   sodipodi:docname="5.svg"
   inkscape:version="1.4 (86a8ad7, 2024-10-11)"
   xmlns:inkscape="http://www.inkscape.org/namespaces/inkscape"
   xmlns:sodipodi="http://sodipodi.sourceforge.net/DTD/sodipodi-0.dtd"
   xmlns="http://www.w3.org/2000/svg"
   xmlns:svg="http://www.w3.org/2000/svg">
  <defs
     id="defs1" />
  <sodipodi:namedview
     id="namedview1"
     pagecolor="#ffffff"
     bordercolor="#000000"
     borderopacity="0.25"
     inkscape:showpageshadow="2"
     inkscape:pageopacity="0.0"
     inkscape:pagecheckerboard="0"
     inkscape:deskcolor="#d1d1d1"
     inkscape:zoom="1.5377176"
     inkscape:cx="368.7283"
     inkscape:cy="258.17484"
     inkscape:window-width="1920"
     inkscape:window-height="1013"
     inkscape:window-x="2391"
     inkscape:window-y="605"
     inkscape:window-maximized="1"
     inkscape:current-layer="g1" />
  <g
     inkscape:groupmode="layer"
     inkscape:label="Image"
     id="g1">
    <path
       id="path1"
       style="fill:#000000"
       d="M 17.710938,5.609375 C 17.466728,6.4797636 17.063311,7 16.212891,7 15.229615,7 12.938728,8.2400619 11.123047,9.7558594 8.1576867,12.231452 7.7271531,13.274316 6.8945312,20.005859 6.3847197,24.127561 5.7475167,64.85 5.4785156,110.5 c -0.2690011,45.65 -0.7181906,103.025 -1,127.5 -0.2818094,24.475 -0.4785497,44.95 -0.4355468,45.5 0.043003,0.55 0.2987617,50.7795 0.5683593,111.62109 l 0.4238281,95.5293 c 0.4980331,0.79444 0.8183594,1.9041 0.8183594,3.33203 v 5.25 5.89063 c -0.055626,1.23061 0.033726,2.45333 0.1464844,3.67578 1.9617515,0.37787 4.069544,0.82234 4.5,1.15039 3.405684,2.59541 13.216917,3.08891 70.722656,3.55273 33.152464,0.26741 64.446504,0.13659 69.542964,-0.29101 5.1671,-0.43352 9.65391,-0.39097 10.14258,0.0976 0.5018,0.5018 1.71308,0.42893 2.83203,-0.16992 1.3638,-0.72987 2.27222,-0.72581 3.00977,0.0117 0.68899,0.68899 1.6484,0.72523 2.75586,0.10547 0.93428,-0.52285 3.38158,-0.64158 5.4375,-0.26563 2.05591,0.37595 66.47118,0.61435 143.14648,0.53125 C 486.45606,513.3391 505,513.5403 505,515.55078 c 0,0.95401 1.06129,1.44922 3.10742,1.44922 2.28845,0 2.96225,-0.37854 2.55664,-1.43555 -0.68217,-1.77769 3.86147,-2.3148 24.79883,-2.93164 l 14.96484,-0.4414 11.69922,-12.34571 c 6.43477,-6.79037 12.07479,-12.64391 12.53516,-13.00781 5.4876,-4.33766 34.7269,-33.30537 43.43164,-43.0293 2.97362,-3.32178 14.00563,-14.72926 24.51563,-25.34961 C 662.18736,398.67536 671,389.01405 671,387.33398 c 0,-0.52313 5.16061,-6.325 11.46875,-12.89257 6.30814,-6.56757 11.4831,-12.48992 11.5,-13.16016 0.0169,-0.67026 0.63717,-0.987 1.37695,-0.70313 0.75366,0.2892 2.45653,-0.93357 3.875,-2.78124 1.39234,-1.81365 4.05087,-4.89959 5.90625,-6.85938 3.00459,-3.17367 5.65895,-7.51373 7.30274,-11.9375 0.30655,-0.825 0.94338,-2.175 1.41406,-3 0.47068,-0.825 1.62212,-2.85 2.56055,-4.5 7.82728,-13.76228 12.36999,-26.10314 18.76953,-51 1.50911,-5.8711 2.18263,-27.16076 0.88476,-27.96289 C 735.47634,252.17726 735,250.73239 735,249.32617 c 0,-5.033 -8.48379,-29.64099 -13.8418,-40.15039 -7.74081,-15.18312 -12.43429,-22.97617 -14.6875,-24.38086 -0.62145,-0.38742 -2.8501,-3.53742 -4.95117,-7 -2.10106,-3.46259 -8.13983,-10.85281 -13.41992,-16.42383 C 677.52902,150.21808 674.32362,146.64716 666.2168,137 c -3.00419,-3.575 -6.97666,-8.075 -8.82618,-10 -1.8495,-1.925 -5.28153,-5.57287 -7.62695,-8.10742 -2.34541,-2.53455 -8.40861,-9.05955 -13.47461,-14.5 C 631.22307,98.952123 623.8634,90.9 619.93359,86.5 616.00378,82.1 610.47372,75.998309 607.64453,72.941406 604.81533,69.884504 601.375,66.039179 600,64.394531 598.625,62.749883 592.55,56.239796 586.5,49.929688 574.99342,37.928401 570.44945,32.954926 560.5,21.464844 549.91329,9.2388209 549.26273,8.6966703 545.95898,9.3574219 543.74932,9.799353 543,9.5757283 543,8.4746094 543,6.6515763 572.2845,6.8660423 280.03906,6.5449219 L 39.580078,6.28125 39.574219,5.8515625 C 38.51562,5.8514254 37.457019,5.8508172 36.398438,5.8496094 35.601498,5.8485894 34.804669,5.84524 34.007812,5.84375 33.628977,6.4667805 32.75083,6.6449501 30.75,6.8105469 28.186731,7.0226936 27.416828,6.9850026 27.160156,5.8144531 26.334561,5.8090073 25.509175,5.805789 24.683594,5.796875 24.421619,6.5683098 23.988486,7 23.111328,7 22.310785,7 21.776557,6.5201712 21.34375,5.7363281 20.943425,5.7275725 20.542846,5.725801 20.142578,5.7148438 19.333095,5.686549 18.521664,5.6535649 17.710938,5.609375 Z M 245.68555,16.423828 c 0.53358,-0.03098 1.11166,0.02462 1.60351,0.177734 0.9837,0.306236 17.10708,0.558188 35.83008,0.558594 31.31219,6.79e-4 34.18413,0.14311 35.82227,1.78125 1.69977,1.69977 1.76723,12.737985 1.47265,242.169924 -0.16975,132.21379 -0.33233,240.84869 -0.36133,241.41015 -0.0535,1.03765 -18.46334,1.57376 -51.55273,1.50196 -6.6,-0.0143 -14.55228,0.0983 -17.67188,0.25 -10.27582,0.49974 -9.84189,1.50581 -9.3496,-21.66406 0.23498,-11.05974 0.71539,-120.23467 1.06836,-242.60938 0.48048,-166.586515 0.93184,-222.68173 1.79687,-223.226562 0.31772,-0.20012 0.80822,-0.318633 1.3418,-0.34961 z m 155.75586,0.226563 c 0.45583,0.05198 0.914,0.22933 1.26367,0.519531 0.8095,0.671819 3.54663,0.792092 7.5332,0.332031 5.34993,-0.617396 120.81862,-0.777086 121.42774,-0.167969 0.11891,0.118908 0.44667,51.505102 0.72656,114.191406 0.27989,62.6863 0.82365,171.61859 1.20898,242.07227 0.5978,109.29875 0.49429,128.23005 -0.70117,129 -0.78587,0.50615 -30.47016,1.02154 -67.60351,1.17382 -64.83147,0.26587 -66.2247,0.23027 -67.25,-1.68554 -0.63539,-1.18728 -0.8531,-6.01139 -0.55274,-12.27149 0.27221,-5.67333 0.70952,-114.22991 0.97266,-241.23828 0.37831,-182.591927 0.73948,-231.085724 1.72265,-231.693358 0.34194,-0.21133 0.79612,-0.284404 1.25196,-0.232421 z m -293.10157,0.511718 c 6.9312,0.349747 6.72122,2.456382 6.25586,11.146485 C 114.325,33.363714 113.82737,119.175 113.48828,219 c -0.96815,285.01319 -0.9405,281.89173 -2.57226,283.43555 -1.71584,1.62338 -8.12918,2.31544 -17.031254,1.83593 -5.332745,-0.28724 -7.035742,-0.80422 -8.779297,-2.66015 -2.92513,-3.11366 -3.970686,-11.64215 -1.828125,-14.91211 1.004801,-1.53353 1.232835,-2.86105 0.65039,-3.78125 -0.493678,-0.77995 -0.903709,-6.19976 -0.912109,-12.04492 C 83.003751,462.63239 83.336892,459.96529 84.5,459 c 1.916118,-1.59023 1.923641,-3 0.01563,-3 -1.297191,0 -1.433252,-5.7157 -1.072266,-45.25 0.227247,-24.8875 0.437967,-46.15 0.466797,-47.25 0.02883,-1.1 -0.198008,-11.75674 -0.501953,-23.68164 -0.389999,-15.30108 -0.215497,-22.30966 0.589844,-23.81445 0.642252,-1.20006 0.774999,-2.65084 0.304687,-3.31836 C 83.843115,312.0332 83.526346,300.25 83.597656,286.5 c 0.141736,-27.32789 0.147598,-27.97052 0.298828,-31.25 0.05707,-1.2375 0.143347,-3.2625 0.191407,-4.5 0.04806,-1.2375 -0.116287,-11.7 -0.365235,-23.25 -0.248947,-11.55 -0.06331,-21.76033 0.414063,-22.68945 0.531962,-1.03538 0.465657,-1.93876 -0.173828,-2.33399 -0.573861,-0.35466 -0.806058,-1.39432 -0.515625,-2.31054 C 84.18597,197.83568 84.977955,138.11117 85.082031,77 85.13027,48.675 85.477475,23.7 85.851562,21.5 l 0.679688,-4 12.242188,-0.28125 c 4.152222,-0.09525 7.256002,-0.173224 9.566402,-0.05664 z m 470.51368,36.429688 c 0.42558,-0.263023 3.21884,2.218921 6.20898,5.517578 10.05171,11.08886 22.37055,24.189948 31.80664,33.824219 5.15355,5.261793 10.49287,11.240206 11.86328,13.285156 1.37042,2.04494 3.30175,3.97446 4.29297,4.28906 0.99121,0.3146 3.30386,2.67508 5.13867,5.24414 1.83481,2.56905 6.94333,8.29463 11.35156,12.72461 4.40828,4.42998 9.12517,9.62265 10.48243,11.53906 1.35726,1.91642 4.04988,5.08092 5.98437,7.03321 1.93449,1.95229 8.24258,8.69272 14.01758,14.97851 5.775,6.28579 11.46994,12.42912 12.6543,13.65039 5.61843,5.79357 11.5928,14.05259 14.36132,19.85352 1.67761,3.51513 3.4937,6.66611 4.03711,7.00195 0.90317,0.55819 3.28399,5.33745 10.19532,20.4668 1.38187,3.025 3.27651,8.875 4.20898,13 0.93247,4.125 2.31026,9.525 3.0625,12 1.34821,4.43579 1.55838,23.1547 0.30859,27.5 -0.31637,1.1 -0.90266,4.7 -1.30273,8 -0.40006,3.3 -1.16458,6.81869 -1.69922,7.82031 -0.53464,1.00162 -1.63218,4.35149 -2.4375,7.44336 -0.80533,3.09187 -1.83551,6.09818 -2.28906,6.67969 -0.45354,0.58152 -1.14609,2.39657 -1.53906,4.03516 -0.39296,1.6386 -3.15957,7.0386 -6.14844,12 -9.39373,15.59323 -12.39238,20.14695 -15.55078,23.61328 -4.80047,5.26851 -7.45713,8.49531 -9.80664,11.9082 -1.32522,1.925 -4.46757,5.80838 -6.98242,8.62891 -2.51484,2.82053 -7.49727,8.57162 -11.07227,12.78125 -3.575,4.20963 -10.87411,12.24769 -16.2207,17.86132 -5.3466,5.61362 -10.45833,11.56058 -11.35938,13.2168 -0.90105,1.65621 -3.89381,4.81172 -6.65039,7.01172 C 628.73965,422.11049 618,432.48903 618,433.67188 c 0,0.91892 -8.5006,9.67987 -22.96289,23.66601 -3.32011,3.2108 -6.03711,6.20445 -6.03711,6.65234 0,0.44789 -1.4625,1.39215 -3.25,2.09766 -1.7875,0.70552 -3.51966,1.43925 -3.84961,1.63086 -0.32996,0.19161 -1.08119,-0.23204 -1.66992,-0.94141 -1.26385,-1.52285 -2.63314,-412.409174 -1.37695,-413.185543 z M 72.984375,432.50977 C 73.543347,432.16431 74,432.58395 74,433.44141 c 0,1.75653 -0.599791,2.01399 -1.457031,0.62695 -0.316431,-0.512 -0.117565,-1.21313 0.441406,-1.55859 z M 580.9375,469.1875 c 0.75,-0.25 1.125,0.125 0.875,0.875 -0.24063,0.72187 -1.02813,1.50937 -1.75,1.75 -0.75,0.25 -1.125,-0.125 -0.875,-0.875 0.24063,-0.72188 1.02813,-1.50937 1.75,-1.75 z" />
    <rect
       style="fill:#000000"
       id="rect1"
       width="44.871696"
       height="89.743393"
       x="32.515724"
       y="372.63019" />
  </g>
</svg>
