<?xml version="1.0" encoding="UTF-8" standalone="no"?>
<!-- Created with Inkscape (http://www.inkscape.org/) -->

<svg
   version="1.1"
   id="svg1"
   width="738"
   height="514"
   viewBox="0 0 738 514"
   sodipodi:docname="6.svg"
   inkscape:version="1.4 (86a8ad7, 2024-10-11)"
   xmlns:inkscape="http://www.inkscape.org/namespaces/inkscape"
   xmlns:sodipodi="http://sodipodi.sourceforge.net/DTD/sodipodi-0.dtd"
   xmlns="http://www.w3.org/2000/svg"
   xmlns:svg="http://www.w3.org/2000/svg">
  <defs
     id="defs1" />
  <sodipodi:namedview
     id="namedview1"
     pagecolor="#ffffff"
     bordercolor="#000000"
     borderopacity="0.25"
     inkscape:showpageshadow="2"
     inkscape:pageopacity="0.0"
     inkscape:pagecheckerboard="0"
     inkscape:deskcolor="#d1d1d1"
     inkscape:zoom="1.5466926"
     inkscape:cx="369.17484"
     inkscape:cy="269.28428"
     inkscape:window-width="1920"
     inkscape:window-height="1013"
     inkscape:window-x="2391"
     inkscape:window-y="605"
     inkscape:window-maximized="1"
     inkscape:current-layer="g1" />
  <g
     inkscape:groupmode="layer"
     inkscape:label="Image"
     id="g1">
    <path
       style="fill:#000000"
       d="M 551.81955,511.75 551.5,509.5 481,509.29251 c -38.775,-0.11413 -88.725,-0.47946 -111,-0.81186 -22.275,-0.33241 -112.35801,-0.68903 -200.18447,-0.79251 L 10.131064,507.5 7.2608133,504.75 C 5.6821753,503.2375 3.4026858,502 2.1952811,502 0.49423272,502 0,501.41092 0,499.38342 c 0,-2.25179 0.34853433,-2.54995 2.5,-2.13867 l 2.5,0.47791 -0.0068,-18.61133 C 4.9894657,468.8751 5.0278206,443.625 5.0784367,423 5.1290529,402.375 5.1109099,358.05 5.038119,324.5 4.6690945,154.41318 4.6710428,152.80714 5.3337713,80.78948 5.9002642,19.229588 6.2871645,12.666417 9.507177,9.9940436 10.414916,9.2406868 11,7.0394109 11,4.3775553 V 0 h 20 20 v 3 3 h 25 25 l 0.11831,-3.25 0.11832,-3.25 0.64151,3 c 0.59717,2.7926711 0.95182,3 5.13168,3 4.155,0 4.5138,-0.2052784 4.8066,-2.75 C 112.23747,-0.90933237 114,-0.78610969 114,2.9026596 V 5.8053191 L 139.75,5.379831 C 153.9125,5.1458125 224.9,4.72419 297.5,4.4428921 370.1,4.1615942 451.45615,3.7950131 478.29144,3.6282673 c 26.8353,-0.1667457 48.96304,-0.025526 49.17277,0.3138224 0.20973,0.339348 4.80358,0.4787939 10.20856,0.3098798 C 551.53994,3.8185985 554.85955,5.000094 562.25182,13 c 3.30346,3.575 6.72569,7.625 7.60496,9 0.87926,1.375 7.45868,8.969423 14.62094,16.876496 7.16225,7.907073 14.39655,16.071411 16.07622,18.142973 1.67967,2.071562 4.60467,5.3094 6.5,7.195194 1.89533,1.885795 4.5463,4.746457 5.89103,6.357028 1.34474,1.61057 5.61974,6.316401 9.5,10.457403 3.88027,4.141002 9.75503,10.483842 13.05503,14.095199 3.3,3.611358 9.375,10.137097 13.5,14.501647 16.36869,17.31926 29.00795,31.18546 34.06705,37.37406 2.92251,3.575 8.52114,9.875 12.44139,14 3.92025,4.125 8.6526,9.75 10.51633,12.5 1.86373,2.75 4.39452,5.79965 5.62398,6.777 1.22945,0.97736 3.70527,4.35236 5.50182,7.5 3.6468,6.38941 6.04463,10.02701 10.09943,15.32121 1.5125,1.97481 2.75,4.47224 2.75,5.54984 0,1.07759 1.06529,4.18512 2.3673,6.90561 2.09824,4.38414 4.32848,17.27727 4.57466,26.44634 0.40594,15.11923 -1.86351,33.3703 -4.92529,39.60953 -1.10917,2.26024 -2.02322,4.73524 -2.03122,5.5 -0.0177,1.6922 -2.54067,9.23388 -4.53014,13.5416 -0.80042,1.73312 -1.45531,3.57677 -1.45531,4.09699 0,0.52022 -0.9,1.98357 -2,3.25188 -1.1,1.26831 -2,2.97092 -2,3.78358 0,0.81266 -1.56161,3.6512 -3.47024,6.30788 -1.90863,2.65667 -4.09652,6.31042 -4.86198,8.11943 -0.76546,1.80901 -2.35386,4.14635 -3.52976,5.1941 -1.17591,1.04774 -2.13802,2.42285 -2.13802,3.0558 0,0.63295 -1.80427,3.82571 -4.00949,7.09502 -2.20522,3.2693 -5.09451,7.56618 -6.42065,9.54862 -1.32613,1.98243 -7.51902,9.18243 -13.76197,16 -6.24295,6.81756 -13.23878,14.69025 -15.54629,17.49486 -2.30751,2.80461 -5.89785,6.8607 -7.97854,9.01354 -4.96732,5.13958 -26.6311,29.78549 -50.44338,57.38717 -6.40564,7.425 -13.04005,15.04355 -14.74314,16.93011 -1.7031,1.88656 -3.09654,3.822 -3.09654,4.30098 0,0.47898 -1.52013,2.31043 -3.37807,4.06989 -2.83428,2.68405 -14.21613,15.38444 -22.06436,24.62042 -3.45489,4.06581 -5.11485,5.50882 -8.33013,7.24144 -2.35343,1.26819 -2.95625,2.15819 -2.53998,3.75 0.30019,1.14794 0.0746,2.08716 -0.50128,2.08716 -0.57589,0 -1.19088,-1.0125 -1.36663,-2.25 z M 50.5,318.03935 c 1.65,0.10684 43.05,0.15121 92,0.0986 106.93017,-0.11489 275.20489,-0.042 440.54149,0.19086 111.41118,0.1569 121.74641,0.0338 124,-1.47712 2.45412,-1.64534 5.21234,-6.57324 10.5516,-18.85171 1.55458,-3.575 3.36237,-7.175 4.01732,-8 1.19239,-1.50199 3.37353,-8.41749 3.38401,-10.72935 0.007,-1.52594 -170.05105,-1.08463 -494.99442,1.28454 -51.425,0.37494 -99.575,0.83314 -107,1.01823 -7.425,0.18509 -33.975,0.59682 -59,0.91495 -25.025,0.31814 -46.076993,0.77984 -46.782207,1.026 -0.947071,0.33059 -1.275241,3.52371 -1.255556,12.2166 0.01466,6.47297 0.08312,12.66903 0.152129,13.76903 0.06901,1.1 0.136511,3.2293 0.149997,4.73178 0.02112,2.35319 0.524212,2.81496 3.630078,3.3319 1.983057,0.33006 3.942197,0.67575 4.353643,0.76821 0.411447,0.0925 5.811447,0.0208 12,-0.15934 C 42.436638,317.99246 48.85,317.93252 50.5,318.03935 Z M 350,139.47918 c 23.00967,-0.50438 233.61973,-0.48597 275.25,0.0241 30.14317,0.3693 37.75,0.20592 37.75,-0.81076 C 663,137.37496 651.16806,125 649.90836,125 c -0.39095,0 -1.59292,-1.4625 -2.67105,-3.25 -1.07813,-1.7875 -4.34309,-5.95 -7.25546,-9.25 -5.31467,-6.02204 -20.7404,-22.96685 -24.48185,-26.892748 -4.4197,-4.637587 -29.24711,-32.614791 -32.81535,-36.978551 -2.09844,-2.56628 -4.13272,-4.46981 -4.52064,-4.230067 -0.38791,0.239743 -75.621,0.704563 -167.18465,1.032934 C 319.41571,45.759939 224.475,46.308711 200,46.651062 93.866354,48.135633 20.015006,48.257343 18.440091,46.95028 17.507274,46.176111 16.556531,46.043469 15.991353,46.608647 15.121572,47.478428 14.886404,63.674194 14.966164,117.21247 L 15,139.92495 l 9.25,0.40756 C 34.201964,140.771 325.93052,140.00679 350,139.47918 Z M 80.194949,2.5 c 0.02038,-1.65 0.244498,-2.20393565 0.498042,-1.2309681 0.253543,0.9729675 0.236869,2.3229675 -0.03705,3 C 80.382014,4.9460644 80.174569,4.15 80.194949,2.5 Z"
       id="path1" />
  </g>
</svg>
