<?xml version="1.0" encoding="UTF-8" standalone="no"?>
<!-- Created with Inkscape (http://www.inkscape.org/) -->

<svg
   version="1.1"
   id="svg1"
   width="1926"
   height="1470"
   viewBox="0 0 1926 1470"
   sodipodi:docname="matrix.svg"
   inkscape:version="1.4 (86a8ad7, 2024-10-11)"
   xmlns:inkscape="http://www.inkscape.org/namespaces/inkscape"
   xmlns:sodipodi="http://sodipodi.sourceforge.net/DTD/sodipodi-0.dtd"
   xmlns="http://www.w3.org/2000/svg"
   xmlns:svg="http://www.w3.org/2000/svg">
  <defs
     id="defs1" />
  <sodipodi:namedview
     id="namedview1"
     pagecolor="#ffffff"
     bordercolor="#000000"
     borderopacity="0.25"
     inkscape:showpageshadow="2"
     inkscape:pageopacity="0.0"
     inkscape:pagecheckerboard="0"
     inkscape:deskcolor="#d1d1d1"
     inkscape:zoom="0.54081633"
     inkscape:cx="963.35849"
     inkscape:cy="735.92453"
     inkscape:window-width="1920"
     inkscape:window-height="1013"
     inkscape:window-x="2391"
     inkscape:window-y="605"
     inkscape:window-maximized="1"
     inkscape:current-layer="g1" />
  <g
     inkscape:groupmode="layer"
     inkscape:label="Image"
     id="g1">
    <path
       id="path1"
       style="fill:#000000"
       d="m 663.79883,11.574219 c -1.2639,0.406713 -17.8641,0.823855 -36.88867,0.925781 -19.02458,0.101925 -35.11208,0.50613 -35.75,0.900391 -0.63793,0.39426 -1.58256,0.457022 -2.09766,0.138671 -2.82619,-1.746681 -29.95816,-2.20054 -33.03711,-0.552734 -1.04759,0.560651 -2.13778,0.640582 -2.42383,0.177734 -0.28606,-0.462853 -12.12572,-0.683828 -26.31054,-0.490234 -14.18483,0.19359 -28.94102,0.23872 -32.79102,0.09961 -3.85,-0.139111 -17.8,-0.173342 -31,-0.07617 -159.99001,1.177675 -218.91159,1.207196 -220.23438,0.109375 -1.00951,-0.837822 -1.91857,-0.88288 -3.09765,-0.152344 -1.4308,0.886497 -34.46437,1.211905 -37.66797,0.371094 -0.55,-0.144348 -1.225,-0.160207 -1.5,-0.03516 -0.39714,0.180589 -104.726269,1.016314 -108.5,0.869141 -2.245482,-0.08757 -3.631201,-0.268312 -6.683594,-0.441406 -1.971495,0.809335 -4.393114,1.316621 -7.267578,1.375 C 72.439979,14.917037 66.348998,14.322451 60.259766,13.919922 56.497897,13.663231 52.732485,13.487727 48.964844,13.355469 48.594278,13.651097 48.323606,14 47.5,14 c -0.955059,0 -1.334224,-0.294991 -1.699219,-0.746094 -1.175561,-0.0337 -2.3516,-0.06676 -3.527343,-0.09375 -6.079359,0.05637 -12.126358,-0.279591 -18.175782,-0.845703 -0.132669,-0.01242 -0.254209,-0.0327 -0.384765,-0.04687 C 23.467381,13.503133 23.030476,14 22.123047,14 c -2.675384,0 -4.15372,2.202287 -4.3125,6.425781 -0.07564,2.012013 -0.529872,3.900676 -1.009766,4.197266 -0.479894,0.296591 -0.926014,8.491231 -0.990234,18.208984 C 15.479678,92.902242 14.445003,183.46038 14.025391,199 c -0.141091,5.225 -0.226483,25.475 -0.189453,45 0.172656,91.04061 -0.853198,387.70668 -1.492188,431.5 -0.393226,26.95 -0.564342,53.5 -0.378906,59 0.571166,16.94068 0.477405,35.90388 -0.310547,62.5 -0.415512,14.025 -0.731605,28.425 -0.703125,32 0.308277,38.69612 0.06063,179.6827 -0.322266,183.5 -0.275837,2.75 -0.468041,22.325 -0.425781,43.5 0.196721,98.5698 0.4953,234.1842 0.59375,269.5 0.122149,43.8148 0.133028,85.7583 0.02344,98.5 -0.237752,27.6427 0.157232,30.2811 4.806641,32.0488 1.464544,0.5568 4.509759,1.0193 6.767578,1.0293 2.257819,0.01 63.139075,0.1172 135.291019,0.2383 72.15195,0.1211 131.54957,0.5847 131.99414,1.0293 0.44458,0.4446 2.61097,0.5566 4.81445,0.2481 3.9406,-0.5518 390.53286,-1.8858 432.50586,-1.4922 28.03528,0.2631 19.08459,0.26 97,0.045 37.675,-0.1041 68.95,-0.1838 69.5,-0.1738 0.55,0.01 51.4,-0.021 113,-0.067 61.6,-0.045 141.25,-0.037 177,0.02 98.1558,0.1549 151.3605,0.089 350,-0.4395 100.1,-0.2663 184.925,-0.4804 188.5,-0.4804 9.4376,0.01 25.2195,-0.1018 25.9082,-0.1778 0.3253,-0.036 1.0418,0.048 1.5918,0.1856 1.0862,0.2718 98.0053,0.065 137.2148,-0.293 27.8853,-0.2545 27.3893,-0.096 28.1133,-8.9551 0.3584,-4.3857 1.0646,-266.5572 1.0157,-377.2656 -0.02,-45.1088 0.1048,-995.392445 0.1328,-1010.080078 0.021,-10.831745 0.2042,-12.077213 1.7734,-12.070313 0.9625,0.0042 3.2125,-0.07382 5,-0.171875 L 1926,47 V 35.5 24 h -5.5 c -5.1691,0 -5.5,-0.148034 -5.5,-2.449219 0,-4.488839 -3.8069,-7.264247 -11.0176,-8.033203 -13.1527,-1.402622 -50.2026,-1.755375 -116.9824,-1.115234 -26.0565,0.249774 -145.5447,0.711613 -147.5,0.570312 -0.55,-0.03974 -15.85,0.01721 -34,0.126953 -18.15,0.109741 -34.8,0.191541 -37,0.181641 -2.2,-0.0099 -12.325,-0.05423 -22.5,-0.09961 -10.175,-0.04539 -21.875,0.02335 -26,0.154297 -4.125,0.130947 -8.0331,-0.145951 -8.6855,-0.617188 -0.6802,-0.491383 -2.0397,-0.402375 -3.1856,0.210938 -2.6195,1.401908 -25.7935,1.420665 -26.6582,0.02148 -0.4472,-0.723537 -1.0645,-0.704241 -1.9883,0.0625 -0.9251,0.767712 -7.1558,0.960369 -20.1601,0.623047 -10.3522,-0.268527 -19.4973,-0.546538 -20.3223,-0.617188 -0.825,-0.07065 -67.2,0.137046 -147.5,0.460938 -80.3,0.323892 -147.575,0.594009 -149.5,0.599609 -1.925,0.0056 -32.3,-0.195147 -67.5,-0.445312 -69.0079,-0.490437 -129.86836,-0.651257 -260,-0.691407 -90.0615,-0.02778 -123.16594,-0.372657 -125.5,-1.30664 -0.825,-0.330127 -5.775,-0.22801 -11,0.226562 -5.68566,0.49465 -9.98178,0.453262 -10.70117,-0.101562 -0.66111,-0.509871 -2.23611,-0.594214 -3.5,-0.1875 z M 1292.8086,22 c 0.5878,3.48e-4 0.8525,202.52896 0.3769,288 -0.079,15.125 -0.1228,28.175 -0.088,29 0.035,0.825 0.061,9.825 0.061,20 0,10.175 -2e-4,20.975 0.01,24 0.01,3.025 -0.012,44.65 -0.039,92.5 -0.027,47.85 0.1374,103.425 0.3652,123.5 0.7191,63.36354 0.7923,220.72745 0.1036,221.8418 -0.9486,1.53473 -36.3025,1.44765 -37.2539,-0.0918 -0.3894,-0.62994 -0.5965,-10.16864 -0.461,-21.19727 0.8806,-71.64837 0.1753,-746.100665 -0.7969,-762.05273 -0.4022,-6.6 -0.4496,-12.339525 -0.1054,-12.753906 0.3441,-0.41438 8.5829,-0.783696 18.3086,-0.822266 9.7256,-0.03857 17.9408,-0.488498 18.2558,-0.998047 0.3149,-0.50955 0.8837,-0.926006 1.2637,-0.925781 z M 28.539062,22.300781 c 1.928875,-0.08451 4.890346,0.01654 9.306641,0.28125 C 44.255802,22.966256 50.175,23.217961 51,23.142578 c 4.09199,-0.373897 128.62786,0.307197 130,0.710938 0.275,0.08092 0.3567,154.383774 0.18164,342.896484 -0.17506,188.51252 -0.4001,508.5369 -0.5,711.1641 L 180.5,1446.3262 118,1446.291 c -34.375,-0.019 -69.566343,-0.087 -78.203125,-0.1504 -8.636783,-0.063 -16.286783,0.1 -17,0.3614 -0.713218,0.2619 -1.971875,0.048 -2.796875,-0.4766 -1.30463,-0.829 -1.462888,-6.9155 -1.210938,-46.7383 0.324868,-51.348 0.239961,-92.1256 -0.279296,-134.2871 -0.294912,-23.9455 -0.112772,-28.8698 1.136718,-30.8164 1.079793,-1.6823 1.192869,-2.6725 0.41211,-3.6133 -0.719748,-0.8672 -1.074574,-12.3358 -1.074219,-34.6836 0.0011,-71.7009 0.192466,-262.89516 0.291016,-290.3867 0.05718,-15.95 0.0034,-30.575 -0.119141,-32.5 -0.122512,-1.925 6.36e-4,-11.6 0.273438,-21.5 0.272802,-9.9 0.521371,-21.15 0.550781,-25 0.02941,-3.85 0.08301,-8.125 0.11914,-9.5 0.179729,-6.83924 0.278072,-59.59096 0.125,-67 -0.142862,-6.91485 0.252105,-82.13975 0.677735,-129 0.219258,-24.13938 0.242272,-50.56606 0.05664,-66.5 -0.108928,-9.35 -0.19104,-20.15 -0.18164,-24 0.0403,-16.58163 0.09355,-29.50655 0.152344,-36.5 0.03468,-4.125 0.270267,-46.875 0.523437,-95 0.253171,-48.125 0.744303,-100.1 1.089844,-115.5 0.345542,-15.4 0.796063,-39.7 1.001953,-54 0.20589,-14.3 0.438718,-27.8 0.517578,-30 0.07886,-2.2 0.104924,-26.5 0.05859,-54 -0.04633,-27.5 -0.02289,-51.125 0.05078,-52.5 0.07367,-1.375 0.08856,-4.3 0.0332,-6.5 -0.348681,-13.855577 0.582212,-62.34822 1.216797,-63.375 0.291066,-0.470955 1.188313,-0.73971 3.117187,-0.824219 z m 369.220708,0.13086 81.87109,0.335937 81.86914,0.333984 -0.37695,4.699219 c -1.0454,13.019191 -1.15692,64.881084 -1.23243,571.699219 -0.0447,300.3 -0.11183,558.15 -0.14843,573 -0.0365,14.85 -0.0636,28.35 -0.0606,30 0.003,1.65 0.0866,57.225 0.18555,123.5 l 0.17969,120.5 -82.63282,0.2559 c -78.47877,0.2429 -82.59476,0.1675 -81.87304,-1.5 0.81574,-1.8848 1.40539,-47.3703 1.33789,-103.2559 -0.0229,-18.975 0.0184,-35.5125 0.0918,-36.75 0.0734,-1.2375 0.18078,-3.9375 0.23828,-6 0.0575,-2.0625 -0.0227,-94.2 -0.17773,-204.75 -0.155,-110.55 -0.18811,-217.2 -0.0723,-237 0.14889,-25.44764 0.29981,-306.22201 0.17579,-327.5 -0.1189,-20.39669 -0.0974,-71.2431 0.11328,-266.80078 0.15318,-142.1786 -0.11186,-234.662652 -0.67188,-235.222658 -0.56384,-0.563815 -0.51247,-1.820478 0.13086,-3.232421 z m 273.61718,0.158203 57.87696,0.08984 -0.20703,103.910152 C 728.93317,183.74045 728.66782,254.575 728.45703,284 c -0.2108,29.425 -0.6729,208.525 -1.02734,398 -0.35445,189.475 -0.66355,347.65 -0.68555,351.5 -0.022,3.85 -0.0109,17.35 0.0234,30 0.0345,12.65 0.0507,23.9 0.0371,25 -0.0137,1.1 0.002,63.65 0.0351,139 0.0336,75.35 -0.0651,155.225 -0.2207,177.5 l -0.2832,40.5 -2.83203,1.3828 c -3.08638,1.5075 -31.46702,2.3529 -37.04493,1.1035 -1.67251,-0.3752 -5.39059,-0.38 -8.26171,-0.012 -2.87113,0.3687 -5.34516,0.5455 -5.49805,0.3926 -0.1529,-0.1529 -10.15983,-0.5843 -22.23828,-0.957 -12.07846,-0.3727 -23.31094,-0.7518 -24.96094,-0.8438 -1.65,-0.092 -4.68299,0.133 -6.74023,0.4981 -5.13135,0.9108 -5.83804,-0.3214 -5.25782,-9.1583 1.0373,-15.7981 1.54262,-56.8003 1.38672,-112.4062 -0.0894,-31.9 -0.22533,-82.525 -0.30273,-112.5 -0.0774,-29.975 0.11339,-65.3 0.42383,-78.5 0.31043,-13.2 0.39006,-24.3662 0.17773,-24.8145 -0.35728,-0.7543 -0.49751,-108.1806 -0.44531,-339.6855 0.0116,-51.425 0.0424,-95.75 0.0684,-98.5 0.0259,-2.75 0.0525,-5.9 0.0605,-7 0.24806,-33.91129 -0.63587,-638.623311 -0.93554,-640 -0.4316,-1.982778 0.063,-1.999186 57.4414,-1.910156 z m 439.83005,0.0098 c 0.9271,-0.07679 1.1251,7.212505 0.8457,31.400391 -0.2905,25.154628 -0.2219,558.81527 0.078,607 0.043,6.875 0.037,45.86135 -0.012,86.63672 -0.07,58.87163 -0.3485,74.21441 -1.3535,74.51172 -0.6961,0.20592 -5.9906,0.10902 -11.7656,-0.21485 -5.775,-0.32391 -17.7,-0.43188 -26.5,-0.24023 -8.8,0.19165 -16.5657,-0.0262 -17.2559,-0.48438 -1.3517,-0.89734 -1.7421,-205.68127 -0.7753,-406.20898 1.6851,-349.422455 1.6895,-385.167644 0.051,-386.978516 -0.8626,-0.952962 -1.2847,-2.472249 -0.9375,-3.376953 0.5628,-1.466682 3.6502,-1.661151 28.5254,-1.794922 15.3411,-0.0825 28.4352,-0.195 29.0996,-0.25 z M 317.73828,22.75 c 37.22971,-0.184808 50.35362,0.04944 50.68164,0.904297 0.24351,0.634463 0.24945,10.084463 0.0137,21 C 368.06794,61.599859 367.90379,179.2118 368.06055,312 c 0.0553,46.86093 -0.0105,191.2246 -0.16797,368 -0.0684,76.725 -0.0935,140.85 -0.0566,142.5 0.0369,1.65 0.26138,142.84268 0.5,313.7617 0.23862,170.9191 0.0996,310.9692 -0.31055,311.2227 -0.41016,0.2532 -0.94773,0.2593 -1.19336,0.014 -0.24563,-0.2456 -38.9381,-0.611 -85.98242,-0.8144 -47.04432,-0.2033 -86.00144,-0.6589 -86.57227,-1.0117 -1.02819,-0.6355 -0.99827,-7.1004 0.16016,-34.6719 0.73891,-17.5866 0.66175,8.0843 1.11328,-373 0.16739,-141.28298 0.32074,-208.24977 0.49024,-215.25 0.16605,-6.85896 0.18375,-13.61234 0.0469,-17.75 -0.0819,-2.475 -0.13699,-5.625 -0.12109,-7 0.0159,-1.375 -0.008,-9.25 -0.0547,-17.5 -0.0469,-8.25 -0.0567,-20.4 -0.0215,-27 0.0355,-6.6 0.0314,-12.9 -0.008,-14 -0.0594,-1.66825 1.20516,-663.881234 1.28516,-673 0.0145,-1.65 -0.007,-5.25 -0.0469,-8 -0.0396,-2.75 -0.0183,-5.9 0.0469,-7 0.0652,-1.1 -0.20146,-7.9625 -0.59375,-15.25 L 195.85938,23 h 35.82031 c 19.70093,-3.38e-4 58.42716,-0.112838 86.05859,-0.25 z m 510.91406,0.0918 41.92383,0.04297 c 23.05808,0.02363 42.28543,0.05808 42.72656,0.07813 0.44113,0.02005 0.5563,16.349609 0.25782,36.287109 -0.60831,40.631857 -1.66428,419.31524 -1.48633,532.75 0.0634,40.425 0.053,89.25 -0.0215,108.5 -0.0745,19.25 -0.30933,194.75 -0.52343,390 -0.21409,195.25 -0.42069,355.3574 -0.45899,355.7949 -0.0383,0.4375 -11.29321,0.7323 -25.00976,0.6543 -13.71655,-0.078 -25.35264,0.1146 -25.85938,0.4278 -0.50674,0.3132 -1.24816,0.2433 -1.64648,-0.1543 -0.39833,-0.3975 -7.54778,-0.7227 -15.88867,-0.7227 -14.58028,0 -15.15748,-0.077 -14.92188,-2 0.75692,-6.1777 1.1805,-39.92 1.1582,-92.5 -0.14288,-337.0184 -0.16398,-1236.82505 -0.0293,-1258.5 0.0444,-7.15 0.0984,-16.375 0.12109,-20.5 0.0227,-4.125 -0.0449,-17.098905 -0.15039,-28.830078 z m 848.51176,0.181641 c 1.3274,-0.273776 2.6924,-0.06474 3.2285,0.802734 0.2806,0.453927 0.7307,50.29143 1.0019,110.749998 1.3816,308.05654 1.622,371.4143 1.42,376.92383 -0.2106,5.74288 -0.1903,9.17351 0.1093,18 0.075,2.2 0.114,4.7875 0.086,5.75 -0.1186,4.10769 -0.1615,6.94947 -0.1485,10 0.012,2.75135 0.08,30.22909 0.08,33.25 4e-4,0.55 0.2229,66.25 0.4941,146 0.6162,181.22692 0.6412,228.24562 0.127,231.83789 -0.2235,1.56107 -0.5538,2.98638 -0.7344,3.16602 -0.6507,0.64723 -5.6137,-4.25473 -6.1836,-6.10743 -0.7167,-2.32969 -2.514,-454.32602 -2.58,-648.89648 -0.01,-25.85 -0.061,-48.8 -0.1172,-51 -0.5665,-22.30123 -0.3812,-226.798615 0.207,-228.388672 0.3916,-1.058826 1.6823,-1.814115 3.0098,-2.08789 z m -204.3868,0.111328 c 3.5789,-0.03187 7.2615,0.365575 8.3985,1.21875 1.497,1.123368 1.5835,2.637922 0.8183,14.203125 -0.7453,11.265284 -0.6623,275.283519 0.209,664.126949 0.1444,64.4509 -0,117.45115 -0.3301,117.77735 -1.1579,1.15793 -16.7679,1.51933 -17.457,0.40429 -0.3676,-0.59482 -0.5618,-17.11959 -0.4316,-36.72265 0.1307,-19.60306 0.1946,-85.14258 0.1426,-145.64258 -0.3869,-447.22906 -0.1506,-612.766176 0.875,-614.001953 0.7218,-0.869729 4.1965,-1.331409 7.7753,-1.363281 z M 982.5,38 c 0.825,0 1.50616,0.3375 1.51367,0.75 0.008,0.4125 0.28555,1.7625 0.61719,3 0.42913,1.601323 0.16911,2.25 -0.89844,2.25 -0.825,0 -1.76993,-1.0125 -2.10156,-2.25 C 980.74407,38.44097 980.84577,38 982.5,38 Z m 409.0586,10 c 0.2426,0 0.4414,0.45 0.4414,1 0,0.55 -0.4762,1 -1.0586,1 -0.5825,0 -0.7813,-0.45 -0.4414,-1 0.3399,-0.55 0.8161,-1 1.0586,-1 z m 273.8828,0 c 1.4074,0 2.5586,0.171959 2.5586,0.382812 0,0.887735 -4.0463,1.352414 -4.5586,0.523438 -0.308,-0.498366 0.5925,-0.90625 2,-0.90625 z m -19.6289,0.316406 c 0.7219,-0.288868 1.5837,-0.252213 1.916,0.08008 0.3323,0.332292 -0.2584,0.568811 -1.3125,0.525391 -1.165,-0.04798 -1.4012,-0.286243 -0.6035,-0.605469 z m 39.2031,0.19336 c 0.559,0.345464 0.7578,1.046597 0.4414,1.558593 -0.8572,1.387044 -1.457,1.129573 -1.457,-0.626953 0,-0.857462 0.4566,-1.277103 1.0156,-0.93164 z m -239.3242,0.505859 c 0.655,-0.0084 1.4687,0.434375 1.8086,0.984375 0.7673,1.241525 0.4211,1.241525 -1.5,0 -0.9013,-0.58246 -1.0242,-0.975175 -0.3086,-0.984375 z m -16.8789,0.300781 c 0.7219,-0.288868 1.5837,-0.252213 1.916,0.08008 0.3323,0.332292 -0.2584,0.568811 -1.3125,0.525391 -1.165,-0.04798 -1.4012,-0.286243 -0.6035,-0.605469 z M 1424.6621,49.75 c 0.2774,0.6875 0.2774,1.8125 0,2.5 -0.2774,0.6875 -0.5039,0.125 -0.5039,-1.25 0,-1.375 0.2265,-1.9375 0.5039,-1.25 z M 1203.9414,50 c 0.5824,0 1.0586,0.45 1.0586,1 0,0.55 -0.1988,1 -0.4414,1 -0.2425,0 -0.7187,-0.45 -1.0586,-1 -0.3399,-0.55 -0.1411,-1 0.4414,-1 z M 1239,50 c 0.55,0 1,0.45 1,1 0,0.55 -0.45,1 -1,1 -0.55,0 -1,-0.45 -1,-1 0,-0.55 0.45,-1 1,-1 z m 58,0 c 0.55,0 1,0.648865 1,1.441406 0,0.792541 -0.45,1.718675 -1,2.058594 -0.55,0.339919 -1,-0.308947 -1,-1.441406 C 1296,50.926135 1296.45,50 1297,50 Z m 188.5,0 c 0.8899,0 1.3399,0.45 1,1 -0.3399,0.55 -0.7899,1 -1,1 -0.2101,0 -0.6601,-0.45 -1,-1 -0.3399,-0.55 0.1101,-1 1,-1 z m 25.25,0.07031 C 1511.9875,50.031656 1513,50.45 1513,51 c 0,0.55 -0.1125,0.968345 -0.25,0.929688 -0.1375,-0.03866 -1.15,-0.457002 -2.25,-0.929688 -1.9084,-0.820049 -1.8969,-0.862628 0.25,-0.929688 z m 24.25,0.640626 c 1.1,0.287656 2,0.695397 2,0.90625 C 1537,51.82804 1536.1,52 1535,52 c -1.1,0 -2,-0.407741 -2,-0.90625 0,-0.49851 0.9,-0.670468 2,-0.382812 z M 1316.5,51 c 0.8899,0 1.3399,0.45 1,1 -0.3399,0.55 -0.7899,1 -1,1 -0.2101,0 -0.6601,-0.45 -1,-1 -0.3399,-0.55 0.1101,-1 1,-1 z m 40.0586,0 c 0.2426,0 0.4414,0.45 0.4414,1 0,0.55 -0.4762,1 -1.0586,1 -0.5825,0 -0.7813,-0.45 -0.4414,-1 0.3399,-0.55 0.8161,-1 1.0586,-1 z m 4,0 c 0.2426,0 0.4414,0.45 0.4414,1 0,0.55 -0.4762,1 -1.0586,1 -0.5825,0 -0.7813,-0.45 -0.4414,-1 0.3399,-0.55 0.8161,-1 1.0586,-1 z m 4.5,0 c 0.5825,0 0.7813,0.45 0.4414,1 -0.3399,0.55 -0.8161,1 -1.0586,1 -0.2426,0 -0.4414,-0.45 -0.4414,-1 0,-0.55 0.4762,-1 1.0586,-1 z M 331.94336,51.117188 C 331.40672,51.446386 331,52.535717 331,54.214844 c 0,2.976495 0.12107,3.091831 1.63672,1.576172 0.90021,-0.900209 1.3642,-2.345243 1.03125,-3.212891 -0.52157,-1.359176 -1.18797,-1.790136 -1.72461,-1.460937 z M 1313,51.5 c 0.55,0.339919 1,0.816053 1,1.058594 0,0.242541 -0.45,0.441406 -1,0.441406 -0.55,0 -1,-0.476135 -1,-1.058594 0,-0.582459 0.45,-0.781325 1,-0.441406 z m 12,0 c 0.55,0.339919 1,0.816053 1,1.058594 0,0.242541 -0.45,0.441406 -1,0.441406 -0.55,0 -1,-0.476135 -1,-1.058594 0,-0.582459 0.45,-0.781325 1,-0.441406 z m 47.9688,0.0293 c 0.5511,0.127346 1.0312,0.501559 1.0312,1.029297 0,0.242541 -0.7012,0.441406 -1.5586,0.441406 -0.8575,0 -1.2771,-0.456653 -0.9316,-1.015625 0.2854,-0.461791 0.9078,-0.582424 1.459,-0.455078 z M 1330.9414,52 c 0.5824,0 1.0586,0.45 1.0586,1 0,0.55 -0.1988,1 -0.4414,1 -0.2425,0 -0.7187,-0.45 -1.0586,-1 -0.3399,-0.55 -0.1411,-1 0.4414,-1 z M 1385,52 c 0.55,0 1,0.45 1,1 0,0.55 -0.45,1 -1,1 -0.55,0 -1,-0.45 -1,-1 0,-0.55 0.45,-1 1,-1 z m 4.5,0 c 0.8899,0 1.3399,0.45 1,1 -0.3399,0.55 -0.7899,1 -1,1 -0.2101,0 -0.6601,-0.45 -1,-1 -0.3399,-0.55 0.1101,-1 1,-1 z m 27.0586,0 c 0.2426,0 0.4414,0.45 0.4414,1 0,0.55 -0.4762,1 -1.0586,1 -0.5825,0 -0.7813,-0.45 -0.4414,-1 0.3399,-0.55 0.8161,-1 1.0586,-1 z m -67.2891,0.306641 c 0.973,-0.253547 2.323,-0.236814 3,0.03711 0.6771,0.273923 -0.1195,0.481318 -1.7695,0.460938 -1.65,-0.02038 -2.2034,-0.244503 -1.2305,-0.498047 z m -560.457,0.0098 c 0.72187,-0.288868 1.58373,-0.252213 1.91602,0.08008 0.33229,0.332292 -0.25834,0.568811 -1.3125,0.525391 -1.16495,-0.04798 -1.40125,-0.286243 -0.60352,-0.605469 z M 918,53.5 c 0.55,0.339919 1,0.816053 1,1.058594 C 919,54.801135 918.55,55 918,55 c -0.55,0 -1,-0.476135 -1,-1.058594 0,-0.582459 0.45,-0.781325 1,-0.441406 z m 329.5586,0.5 c 0.2426,0 0.4414,0.45 0.4414,1 0,0.55 -0.4762,1 -1.0586,1 -0.5825,0 -0.7813,-0.45 -0.4414,-1 0.3399,-0.55 0.8161,-1 1.0586,-1 z M 1921.5,54 c -2.475,0 -4.5,0.45 -4.5,1 0,0.55 2.025,1 4.5,1 2.475,0 4.5,-0.45 4.5,-1 0,-0.55 -2.025,-1 -4.5,-1 z m -732.334,1 c 0.5236,0 0.6739,0.45 0.334,1 -0.3399,0.55 0.1101,1 1,1 0.8899,0 1.3399,0.45 1,1 -0.6577,1.06413 -1.2823,1.132915 -3.1934,0.355469 C 1186.9671,57.81054 1187.6869,55 1189.166,55 Z m 24.2754,0 c 0.8574,0 1.5586,0.45 1.5586,1 0,0.55 -0.4238,1 -0.9414,1 -0.5175,0 -1.2187,-0.45 -1.5586,-1 -0.3399,-0.55 0.084,-1 0.9414,-1 z m -233.17187,0.306641 c 0.97297,-0.253547 2.32297,-0.236814 3,0.03711 0.67703,0.273923 -0.11953,0.481318 -1.76953,0.460938 -1.65,-0.02038 -2.20344,-0.244503 -1.23047,-0.498047 z m 257.54297,0.0098 c 0.7219,-0.288868 1.5837,-0.252213 1.916,0.08008 0.3323,0.332292 -0.2584,0.568811 -1.3125,0.525391 -1.165,-0.04798 -1.4012,-0.286243 -0.6035,-0.605469 z M 1005,55.5 c 0.55,0.339919 1,0.816053 1,1.058594 0,0.242541 -0.45,0.441406 -1,0.441406 -0.55,0 -1,-0.476135 -1,-1.058594 0,-0.582459 0.45,-0.781325 1,-0.441406 z m 605.8125,0.816406 c 0.7219,-0.288868 1.5837,-0.252213 1.916,0.08008 0.3323,0.332292 -0.2584,0.568811 -1.3125,0.525391 -1.165,-0.04798 -1.4012,-0.286243 -0.6035,-0.605469 z m 56,0 c 0.7219,-0.288868 1.5837,-0.252213 1.916,0.08008 0.3323,0.332292 -0.2584,0.568811 -1.3125,0.525391 -1.165,-0.04798 -1.4012,-0.286243 -0.6035,-0.605469 z M 1124,57 c 0.55,0 1,0.45 1,1 0,0.55 -0.45,1 -1,1 -0.55,0 -1,-0.45 -1,-1 0,-0.55 0.45,-1 1,-1 z m 5.4414,0 c 1.4074,0 2.5586,0.421683 2.5586,0.9375 0,1.109046 -3.9347,0.976413 -4.6348,-0.15625 C 1127.0996,57.351442 1128.0339,57 1129.4414,57 Z m 32.25,0.01563 c 2.1811,0.01189 2.4733,0.231689 1.3086,0.984375 -1.9213,1.241631 -2.7326,1.241631 -3.5,0 -0.3567,-0.577101 0.5703,-0.993175 2.1914,-0.984375 z m -21.9258,0.01563 c 2.2468,-0.438899 5.6012,-0.416654 10.2344,0.0332 5.8964,0.57251 6.0821,0.654223 2,0.888672 -2.475,0.14215 -5.7284,0.178718 -7.2305,0.08008 C 1140.9357,57.781443 1138,58.880914 1138,60.568359 1138,61.356295 1137.518,62 1136.9297,62 c -0.5882,0 -0.9257,-1.006233 -0.75,-2.236328 0.1991,-1.393818 1.3391,-2.293523 3.5859,-2.732422 z m 33.6485,0.183594 c 3.1596,-0.02839 5.355,0.349553 5.0351,0.867187 -0.7121,1.152178 -7.4919,1.17785 -9.2949,0.03516 -0.8377,-0.530931 0.7694,-0.870984 4.2598,-0.902344 z m 232.3984,0.101562 c 0.7219,-0.288868 1.5837,-0.252213 1.916,0.08008 0.3323,0.332292 -0.2584,0.568811 -1.3125,0.525391 -1.165,-0.04798 -1.4012,-0.286243 -0.6035,-0.605469 z M 1052.6836,57.8125 c 0.2888,0.721875 0.2522,1.583724 -0.08,1.916016 -0.3323,0.332291 -0.5684,-0.258334 -0.5254,-1.3125 0.048,-1.164943 0.2863,-1.401249 0.6055,-0.603516 z M 763,59 c 0.55,0 1,0.45 1,1 0,0.55 -0.45,1 -1,1 -0.55,0 -1,-0.45 -1,-1 0,-0.55 0.45,-1 1,-1 z m 544.9414,0 c 0.5824,0 1.0586,0.45 1.0586,1 0,0.55 -0.1988,1 -0.4414,1 -0.2425,0 -0.7187,-0.45 -1.0586,-1 -0.3399,-0.55 -0.1411,-1 0.4414,-1 z M 766,59.5 c 0.55,0.339919 1,0.816053 1,1.058594 C 767,60.801135 766.55,61 766,61 c -0.55,0 -1,-0.476135 -1,-1.058594 0,-0.582459 0.45,-0.781325 1,-0.441406 z M 564.55859,60 C 564.80113,60 565,60.45 565,61 c 0,0.55 -0.47613,1 -1.05859,1 -0.58246,0 -0.78133,-0.45 -0.44141,-1 0.33992,-0.55 0.81605,-1 1.05859,-1 z m 25.38282,1 C 590.52387,61 591,61.45 591,62 c 0,0.55 -0.19887,1 -0.44141,1 -0.24254,0 -0.71867,-0.45 -1.05859,-1 -0.33992,-0.55 -0.14105,-1 0.44141,-1 z m -218.24805,0.113281 c 0.49731,0 1.4304,0.295327 2.80664,0.886719 1.92824,0.828591 1.92095,0.861923 -0.19141,0.929688 C 373.10355,62.968344 371.83992,62.55 371.5,62 c -0.3655,-0.591392 -0.30396,-0.886719 0.19336,-0.886719 z M 918.05859,62 c 0.58246,0 0.78133,0.45 0.44141,1 -0.33992,0.55 -0.81605,1 -1.05859,1 C 917.19887,64 917,63.55 917,63 c 0,-0.55 0.47613,-1 1.05859,-1 z m -126,2 c 0.58246,0 0.78133,0.45 0.44141,1 -0.33992,0.55 -0.81605,1 -1.05859,1 C 791.19887,66 791,65.55 791,65 c 0,-0.55 0.47613,-1 1.05859,-1 z M 602.5,98 c 0.825,0 1.5,0.45 1.5,1 0,0.55 -0.675,1 -1.5,1 -0.825,0 -1.5,-0.45 -1.5,-1 0,-0.55 0.675,-1 1.5,-1 z m 133.09766,5.34766 c 0.26569,0.16797 0.40234,0.51766 0.40234,1.04492 0,1.76415 -2.51524,2.20079 -3.5,0.60742 -0.33992,-0.55 -0.4031,-1 -0.14062,-1 0.26246,0 1.18861,-0.27357 2.05859,-0.60742 0.51899,-0.19916 0.91399,-0.2129 1.17969,-0.0449 z M 1776.084,138 c 1.1638,0 1.9086,0.52417 1.6875,1.1875 -0.4871,1.46134 -2.1575,2.09249 -3.084,1.16602 -1.3041,-1.3041 -0.6808,-2.35352 1.3965,-2.35352 z m -53.5742,4.74414 c 0.5509,-0.0413 1.0978,0.45194 1.3007,1.50586 0.2108,1.0946 -0.2805,1.75 -1.3105,1.75 -0.9607,0 -1.5129,-0.64675 -1.3242,-1.55273 0.2261,-1.08606 0.783,-1.66187 1.334,-1.70313 z m -213.8262,5.06836 c 0.2888,0.72187 0.2522,1.58372 -0.08,1.91602 -0.3323,0.33229 -0.5684,-0.25834 -0.5254,-1.3125 0.048,-1.16495 0.2863,-1.40125 0.6055,-0.60352 z M 1693,161 c 0.55,0 1,0.45 1,1 0,0.55 -0.45,1 -1,1 -0.55,0 -1,-0.45 -1,-1 0,-0.55 0.45,-1 1,-1 z M 295,178 c -0.55,0 -1,0.675 -1,1.5 0,0.825 0.45,1.5 1,1.5 0.55,0 1,-0.675 1,-1.5 0,-0.825 -0.45,-1.5 -1,-1.5 z m 1213.0371,0.58594 c 0.6052,0.34704 0.9629,1.02606 0.9629,1.97265 0,0.87038 -0.99,1.44141 -2.5,1.44141 -2.7965,0 -3.446,-2.4234 -0.9102,-3.39648 0.989,-0.3795 1.8421,-0.36463 2.4473,-0.0176 z M 1322.5,230.84961 c 0.5225,0 1.1116,0.48492 1.3086,1.07617 0.1971,0.59125 -0.3919,1.07422 -1.3086,1.07422 -0.9167,0 -1.5057,-0.48297 -1.3086,-1.07422 0.197,-0.59125 0.7861,-1.07617 1.3086,-1.07617 z M 795,294 c 0.55,0 1,0.45 1,1 0,0.55 -0.45,1 -1,1 -0.55,0 -1,-0.45 -1,-1 0,-0.55 0.45,-1 1,-1 z m -19.44141,3 c 0.24254,0 0.44141,0.45 0.44141,1 0,0.55 -0.47613,1 -1.05859,1 -0.58246,0 -0.78133,-0.45 -0.44141,-1 0.33992,-0.55 0.81605,-1 1.05859,-1 z M 792,307.5 c 0.55,0.33992 1,0.81605 1,1.05859 0,0.24254 -0.45,0.44141 -1,0.44141 -0.55,0 -1,-0.47613 -1,-1.05859 0,-0.58246 0.45,-0.78133 1,-0.44141 z m 806,10 c 0.55,0.33992 1,1.04105 1,1.55859 0,0.51754 -0.45,0.94141 -1,0.94141 -0.55,0 -1,-0.70113 -1,-1.55859 0,-0.85748 0.45,-1.28133 1,-0.94141 z m 157.6621,131.56445 c 0.7524,0.42035 1.3379,1.20919 1.3379,2.13477 0,0.44 -1.125,0.80078 -2.5,0.80078 -2.7492,0 -3.2243,-1.15346 -1.1758,-2.85352 0.6666,-0.55319 1.5855,-0.50237 2.3379,-0.082 z M 1812.9414,474 c 0.5824,0 1.0586,0.45 1.0586,1 0,0.55 -0.1988,1 -0.4414,1 -0.2425,0 -0.7187,-0.45 -1.0586,-1 -0.3399,-0.55 -0.1411,-1 0.4414,-1 z m 6.0586,1 c 0.55,0 1,0.45 1,1 0,0.55 -0.45,1 -1,1 -0.55,0 -1,-0.45 -1,-1 0,-0.55 0.45,-1 1,-1 z m -857.44141,60 c 2.73984,0 3.35657,2.43432 0.85938,3.39258 -1.91495,0.73484 -1.62769,0.76037 -3.29688,-0.29688 -1.941,-1.22941 -0.47113,-3.0957 2.4375,-3.0957 z M 1565,544 c 0.55,0 1,0.45 1,1 0,0.55 -0.45,1 -1,1 -0.55,0 -1,-0.45 -1,-1 0,-0.55 0.45,-1 1,-1 z m 270.1914,41.01562 c 2.7877,-0.0252 2.9206,1.61219 0.2305,2.8379 -3.0883,1.4071 -3.1416,1.40831 -3.9903,0.0352 -0.7887,-1.27619 1.2713,-2.85054 3.7598,-2.87305 z m -281.1445,250.94532 c 3.2658,0.0364 4.5326,1.12308 16,13.72265 6.8494,7.52564 13.4822,15.06314 14.7402,16.75 1.258,1.68686 8.5033,9.81641 16.1016,18.06641 7.5983,8.25 16.0716,17.7 18.8281,21 2.7566,3.3 6.0862,7.14021 7.3984,8.5332 2.7877,2.95948 33.1674,37.24454 46.7539,52.76368 5.1535,5.88651 11.8321,13.96562 14.8399,17.95312 3.0077,3.9875 5.8354,7.25 6.2851,7.25 0.4497,0 2.4316,2.1375 4.4043,4.75 1.9726,2.6125 5.6171,7.225 8.0977,10.25 2.4805,3.025 5.0149,7.075 5.6328,9 0.618,1.925 1.6903,4.175 2.3828,5 1.2877,1.5341 1.7604,3.8765 3.4278,17 2.2036,17.3443 -0.045,35.4354 -5.4786,44.0801 -4.937,7.8555 -46.0242,58.2428 -49.7363,60.9941 -0.4265,0.3161 -2.9015,3.3141 -5.5,6.6602 -10.1175,13.0286 -24.9123,31.1585 -32.1465,39.3945 -11.0898,12.6254 -27.0985,31.292 -30.334,35.3711 -7.1738,9.0445 -12.2279,15.1597 -13.2246,16 -0.6523,0.55 -4.6974,5.275 -8.9902,10.5 -4.2927,5.225 -8.308,9.95 -8.9219,10.5 -0.8397,0.7524 -8.8073,10.9627 -9.0625,11.6133 -0.1369,0.3491 -349.2989,0.6234 -350.5449,0.2754 -0.825,-0.2304 -35.475,-0.5248 -77,-0.6543 l -75.5,-0.2344 0.2617,-62.5 c 0.1439,-34.375 0.3745,-131.882 0.5137,-216.68164 0.1392,-84.79971 0.5328,-154.45865 0.873,-154.79883 0.3401,-0.34018 16.7577,-0.55903 36.4844,-0.48633 19.7268,0.0726 36.9922,0.11179 38.3672,0.0879 1.375,-0.0239 67.975,-0.29033 148,-0.59179 80.025,-0.30147 160.35,-0.71843 178.5,-0.92774 30.1367,-0.34754 89.9615,-0.73642 98.5469,-0.64062 z M 568,888 c 0.55,0 1,0.45 1,1 0,0.55 -0.45,1 -1,1 -0.55,0 -1,-0.45 -1,-1 0,-0.55 0.45,-1 1,-1 z m 359.98438,30.50977 c 0.55896,-0.34546 1.01562,0.0742 1.01562,0.93164 0,1.75653 -0.5998,2.01399 -1.45703,0.62695 -0.31644,-0.512 -0.11757,-1.21313 0.44141,-1.55859 z M 372.68359,943.8125 c 0.28891,0.72187 0.25222,1.58373 -0.0801,1.91602 -0.33229,0.33229 -0.5688,-0.25834 -0.5254,-1.3125 0.048,-1.16495 0.28625,-1.40125 0.60547,-0.60352 z M 1885.9395,1081.502 c 0.6049,0.3106 1.0605,0.8814 1.0605,1.5566 0,1.2167 -2.7063,1.2244 -3.457,0.01 -0.3164,-0.512 -0.1176,-1.2132 0.4414,-1.5586 0.5967,-0.3688 1.3502,-0.3185 1.9551,-0.01 z M 1682.043,1140 c 0.4761,0 0.8984,11.8125 0.9394,26.25 0.041,14.4375 0.2624,46.275 0.4922,70.75 0.23,24.475 0.3734,58.225 0.3184,75 -0.051,16.775 -0.078,32.075 -0.051,34 1.1394,81.4782 1.0868,97.5877 -0.3223,99.75 -0.8064,1.2375 -1.7934,2.1988 -2.1933,2.1348 -3.823,-0.6101 -4.2266,-1.153 -4.2696,-5.709 -1.2747,-136.8647 -1.1791,-288.2037 0.1836,-289.8457 0.8545,-1.0296 0.8657,-2.0206 0.043,-3.8262 -0.9469,-2.0782 -0.7351,-2.8841 1.4414,-5.4707 1.4037,-1.6682 2.942,-3.0332 3.418,-3.0332 z M 373,1225 c 0.55,0 1,0.45 1,1 0,0.55 -0.45,1 -1,1 -0.55,0 -1,-0.45 -1,-1 0,-0.55 0.45,-1 1,-1 z m 883,61.957 19.75,0.2715 19.75,0.2715 0.018,44 c 0.01,24.2 -0.2154,60.384 -0.5,80.4082 l -0.5176,36.4082 -8,0.092 c -4.4,0.051 -13.197,-0.034 -19.5508,-0.1875 l -11.5527,-0.2812 0.3398,-77.2188 c 0.1876,-42.471 0.3238,-78.6931 0.3028,-80.4922 z m -144.3477,0.3614 c 0.7697,0.7698 1.9811,140.6091 1.3789,159.1816 -0.021,0.6368 -11.0462,1.1145 -30.3535,1.3164 -26.1997,0.2739 -30.4936,0.1111 -31.5859,-1.2051 -0.6949,-0.8378 -1.0027,-1.9464 -0.6836,-2.4629 1.0322,-1.67 1.4908,-29.3142 1.5488,-93.3437 0.031,-34.4824 0.4118,-62.9135 0.8457,-63.1817 1.2336,-0.7624 58.0974,-1.0567 58.8496,-0.3046 z m 352.8477,0.2168 7.75,0.066 c 4.2629,0.037 7.9963,0.3107 8.2949,0.6093 0.5266,0.5266 0.7167,158.8555 0.1914,159.3848 -0.144,0.144 -3.9386,0.4695 -8.4336,0.7227 -9.4669,0.5332 -9.7251,0.3051 -8.6484,-7.6954 0.3792,-2.8174 0.7246,-38.4151 0.7676,-79.1054 z m -119.0625,16.1113 c 0.815,0.1302 1.5625,0.4866 1.5625,0.9609 0,0.2161 -0.9262,0.3926 -2.0586,0.3926 -1.1325,0 -1.7938,-0.431 -1.4687,-0.957 0.2668,-0.4317 1.1498,-0.5267 1.9648,-0.3965 z M 992.55859,1351 c 0.24254,0 0.44141,0.45 0.44141,1 0,0.55 -0.47613,1 -1.05859,1 -0.58246,0 -0.78133,-0.45 -0.44141,-1 0.33992,-0.55 0.81605,-1 1.05859,-1 z m -7.98632,7.3848 c 0.89927,-0.2305 2.02431,-0.1493 2.92968,0.3574 1.31192,0.7342 1.37143,1.0995 0.31055,1.9043 -1.52949,1.1602 -4.8125,0.6469 -4.8125,-0.752 0,-0.7387 0.673,-1.2793 1.57227,-1.5097 z M 960.05859,1461 c -0.58246,0 -1.05859,0.45 -1.05859,1 0,0.55 0.19887,1 0.44141,1 0.24254,0 0.71867,-0.45 1.05859,-1 0.33992,-0.55 0.14105,-1 -0.44141,-1 z" />
    <rect
       style="fill:#000000"
       id="rect1"
       width="168.26414"
       height="332.8302"
       x="1693.7358"
       y="36.981133" />
    <rect
       style="fill:#000000"
       id="rect2"
       width="168.26414"
       height="312.49057"
       x="1691.8868"
       y="404.94339" />
    <rect
       style="fill:#000000"
       id="rect3"
       width="120.18868"
       height="310.64151"
       x="1775.0944"
       y="902.3396" />
    <rect
       style="fill:#000000"
       id="rect4"
       width="177.50943"
       height="624.98114"
       x="1490.3396"
       y="33.28302" />
    <rect
       style="fill:#000000"
       id="rect5"
       width="153.47169"
       height="600.94342"
       x="1296.1887"
       y="22.188679" />
    <rect
       style="fill:#000000"
       id="rect6"
       width="136.83018"
       height="257.01886"
       x="1113.1321"
       y="31.433962" />
    <rect
       style="fill:#000000"
       id="rect7"
       width="109.09434"
       height="1370.151"
       x="915.28302"
       y="25.886793" />
    <rect
       style="fill:#000000"
       id="rect8"
       width="98"
       height="92.452827"
       x="1312.8302"
       y="1301.7358" />
    <rect
       style="fill:#000000"
       id="rect9"
       width="77.660378"
       height="974.45282"
       x="732.22644"
       y="25.886793" />
    <rect
       style="fill:#000000"
       id="rect10"
       width="38.830189"
       height="325.43396"
       x="563.96228"
       y="33.28302" />
    <rect
       style="fill:#000000"
       id="rect11"
       width="22.188679"
       height="133.13208"
       x="369.81131"
       y="24.037735" />
  </g>
</svg>
