<?xml version="1.0" encoding="UTF-8" standalone="no"?>
<!-- Created with Inkscape (http://www.inkscape.org/) -->

<svg
   version="1.1"
   id="svg1"
   width="736"
   height="516"
   viewBox="0 0 736 516"
   sodipodi:docname="3.svg"
   inkscape:version="1.4 (86a8ad7, 2024-10-11)"
   xmlns:inkscape="http://www.inkscape.org/namespaces/inkscape"
   xmlns:sodipodi="http://sodipodi.sourceforge.net/DTD/sodipodi-0.dtd"
   xmlns="http://www.w3.org/2000/svg"
   xmlns:svg="http://www.w3.org/2000/svg">
  <defs
     id="defs1" />
  <sodipodi:namedview
     id="namedview1"
     pagecolor="#ffffff"
     bordercolor="#000000"
     borderopacity="0.25"
     inkscape:showpageshadow="2"
     inkscape:pageopacity="0.0"
     inkscape:pagecheckerboard="0"
     inkscape:deskcolor="#d1d1d1"
     inkscape:zoom="1.5406977"
     inkscape:cx="368.01509"
     inkscape:cy="258"
     inkscape:window-width="1920"
     inkscape:window-height="1013"
     inkscape:window-x="2391"
     inkscape:window-y="605"
     inkscape:window-maximized="1"
     inkscape:current-layer="g1" />
  <g
     inkscape:groupmode="layer"
     inkscape:label="Image"
     id="g1">
    <path
       style="fill:#000000"
       d="M 58,513.87171 C 56.075,513.37566 43.925,512.75755 31,512.49814 16.065025,512.19838 6.6984362,511.60549 5.3007362,510.87141 3.8665342,510.11816 2.783314,508.2246 2.186887,505.42814 1.3135731,501.33344 1.6393286,327.74855 2.6277613,270.5 2.87466,256.2 3.2691397,232.125 3.5043829,217 c 0.2352432,-15.125 0.4794114,-29.75 0.5425959,-32.5 0.063185,-2.75 0.093687,-11.02666 0.067784,-18.39259 -0.025904,-7.36592 0.3552445,-18.84092 0.8469955,-25.5 C 5.4535091,133.94834 5.91746,119.5 5.9927601,108.5 6.1528175,85.118447 6.6030024,66.11553 7.5563201,42.5 7.9337632,33.15 8.2164161,24.6 8.1844376,23.5 8.152459,22.4 8.3683885,18.59699 8.6642809,15.048866 9.1324008,9.4355173 9.6327493,8.1672507 12.51708,5.2829204 L 15.831892,1.9681079 38.165946,1.8280748 C 50.449676,1.7510566 63.2,1.673316 66.5,1.6553179 c 3.3,-0.017998 22.2,0.059263 42,0.1716923 19.8,0.1124289 40.05,0.1204725 45,0.017875 4.95,-0.1025978 23.175,-0.1255485 40.5,-0.051002 17.325,0.074547 34.65,-0.1027533 38.5,-0.3940006 3.85,-0.2912472 7.9,-0.48440773 9,-0.42924548 1.1,0.0551623 9.2,0.27904198 18,0.49751048 8.8,0.2184685 17.9125,0.6439001 20.25,0.9454035 2.43471,0.3140425 4.25,0.1372812 4.25,-0.4138383 0,-0.5847072 3.82408,-0.764408 9.75,-0.4581716 5.3625,0.2771202 38.775,0.7194006 74.25,0.9828454 35.475,0.2634448 75.75,0.7825436 89.5,1.1535528 13.75,0.3710092 27.025,0.6389948 29.5,0.5955236 12.35502,-0.2170052 32.23434,-0.1110384 47.43867,0.2528719 l 16.93866,0.4054212 6.36648,6.2841219 c 3.50157,3.456267 7.34183,7.859122 8.53392,9.784122 1.19209,1.925 2.92681,4.175 3.85493,5 0.92812,0.825 4.99367,5.325 9.03455,10 4.04089,4.675 8.46885,9.665135 9.83993,11.089189 4.7307,4.913498 17.80192,19.423948 21.64191,24.024819 5.98989,7.176772 22.72492,25.037383 37.45291,39.971962 7.36892,7.47228 15.06866,15.57228 17.11052,18 12.2453,14.5593 19.06251,22.24602 21.03752,23.72073 0.9625,0.71869 1.75,1.71401 1.75,2.21182 0,0.49781 1.76201,2.83479 3.91558,5.19329 15.64459,17.13331 24.35632,27.31633 25.3321,29.61034 0.62647,1.47282 1.66846,3.35285 2.31553,4.17785 1.56327,1.99312 8.15212,17.70254 9.01754,21.5 0.37603,1.65 1.78782,6.375 3.13731,10.5 3.36357,10.28148 4.4931,19.3044 3.1922,25.5 -1.81678,8.65256 -8.27364,30.43797 -10.37345,35 -0.75947,1.65 -2.59597,6.15 -4.08111,10 -1.48515,3.85 -3.46533,8.125 -4.40041,9.5 -0.93508,1.375 -2.46749,4.075 -3.40536,6 -0.93787,1.925 -2.14305,4.175 -2.67817,5 -0.53513,0.825 -1.42161,2.625 -1.96997,4 -0.98541,2.47091 -1.56478,3.59541 -3.8642,7.5 -0.64779,1.1 -1.89609,3.575 -2.774,5.5 -0.87791,1.925 -2.68321,4.58821 -4.01178,5.91824 -1.32856,1.33004 -3.54264,4.66219 -4.92017,7.40479 -2.17222,4.3248 -8.69447,13.11419 -12.00428,16.17697 -0.59436,0.55 -2.60136,3.025 -4.45999,5.5 -1.85863,2.475 -4.97414,6.1398 -6.92335,8.14401 -1.94921,2.0042 -5.34402,5.9788 -7.54402,8.83244 -3.86923,5.0188 -20.59818,23.12532 -25.31462,27.39917 -1.27304,1.15358 -3.27412,3.64993 -4.44684,5.54744 -1.17273,1.8975 -4.18115,5.58987 -6.68539,8.20525 -2.50423,2.61538 -6.12815,6.58908 -8.05315,8.83046 -1.925,2.24137 -5.075,5.78026 -7,7.86418 -1.925,2.08393 -4.3586,4.88878 -5.40799,6.233 -4.24023,5.43153 -23.36878,26.60858 -30.61897,33.898 -1.93984,1.95033 -4.71411,5.12105 -6.16507,7.04605 -3.44636,4.57235 -5.77504,6.77424 -14.80797,14.00171 -10.74495,8.59731 -11.92581,9.01733 -25.68916,9.13755 -14.39054,0.1257 -31.58977,-0.004 -44.31084,-0.33436 -5.225,-0.13566 -15.125,-0.10074 -22,0.0776 -6.875,0.17834 -31.175,0.31649 -54,0.30699 -22.825,-0.01 -49.825,0.0225 -60,0.0711 -10.175,0.0486 -22.325,0.0792 -27,0.068 -4.675,-0.0112 -31.225,-0.0693 -59,-0.12922 -27.775,-0.0599 -83.125,-0.24172 -123,-0.4041 -39.875,-0.16238 -73.4,-0.009 -74.5,0.34158 -1.1,0.35024 -3.575,0.23095 -5.5,-0.2651 z M 208.5,503.7203 c 163.52286,0.60267 329.3572,0.045 334.7401,-1.12575 3.87522,-0.8428 9.57561,-6.42777 20.50987,-20.09455 2.6402,-3.3 7.60154,-8.656 11.0252,-11.90222 3.42365,-3.24622 6.22483,-6.35554 6.22483,-6.90959 0,-0.55405 2.3625,-3.54839 5.25,-6.65408 2.8875,-3.1057 8.85,-9.65058 13.25,-14.54417 4.4,-4.8936 11.15,-12.30268 15,-16.46462 3.85,-4.16195 9.7,-10.68114 13,-14.48709 3.3,-3.80595 8.53592,-9.69223 11.63537,-13.08063 3.09946,-3.3884 6.20267,-7.22072 6.89603,-8.51628 0.69336,-1.29555 3.72398,-4.60688 6.7347,-7.35852 3.01073,-2.75163 6.56532,-6.73165 7.89909,-8.84447 1.33376,-2.11282 6.11723,-7.98079 10.62992,-13.03991 7.86238,-8.81443 12.07334,-14.55407 18.33214,-24.98711 C 698.55025,320.83721 701,316.2795 701,314.55254 c 0,-0.76223 0.3719,-1.53587 0.82645,-1.71921 0.45455,-0.18333 2.42874,-3.48333 4.38709,-7.33333 1.95835,-3.85 4.36229,-8.575 5.3421,-10.5 0.9798,-1.925 2.14766,-4.175 2.59525,-5 2.6423,-4.87036 4.70723,-9.9409 5.29411,-13 0.36931,-1.925 1.05177,-4.4 1.51658,-5.5 0.46481,-1.1 1.66803,-5.15 2.67382,-9 2.14345,-8.20474 2.09758,-27.14775 -0.0761,-31.43615 -0.71476,-1.41012 -1.62595,-4.80391 -2.02487,-7.54176 -0.92465,-6.34607 -5.19279,-17.18944 -8.20646,-20.84882 C 712.04757,201.11858 711,199.43981 711,198.94269 c 0,-1.5309 -6.62794,-11.30113 -9.43692,-13.91094 -1.46115,-1.35755 -4.53035,-4.95755 -6.82046,-8 -3.61684,-4.80506 -7.92828,-9.83069 -17.18505,-20.03175 -1.24772,-1.375 -7.12006,-8.125 -13.04965,-15 -11.83744,-13.7248 -14.72671,-16.9454 -16.69528,-18.60986 -0.72195,-0.61042 -2.66453,-2.63542 -4.31684,-4.5 C 638.44903,113.19503 612.77024,85.722739 609.01399,82 605.98023,78.993297 601.53107,74.078393 590.15263,61.164194 588.86158,59.698887 586.12947,56.7 584.08127,54.5 576.68302,46.553415 569.44543,38.394477 566.76734,34.982008 c -1.50296,-1.915104 -4.99046,-5.94966 -7.75,-8.965679 C 556.2578,23.00031 554,20.048818 554,19.457458 554,18.866099 553.37161,17.522883 552.60358,16.472535 550.03439,12.958959 535.55874,12.199392 459,11.560966 c -22.825,-0.190339 -41.725,-0.443655 -42,-0.562924 -0.58263,-0.252692 -34.37783,0.0066 -78.5,0.602338 -17.05,0.230201 -31.9,0.401742 -33,0.381204 -12.84236,-0.239789 -24.41162,-0.882096 -26.13714,-1.451091 -1.22375,-0.403535 -2.4243,-0.240105 -2.80902,0.382389 C 275.71027,12.277807 267.33458,12.350383 266.5,11 c -0.81329,-1.3159306 -6.81146,-1.2885383 -8.13716,0.03716 -0.71621,0.716214 -1.91149,0.70474 -3.86262,-0.03708 -1.8051,-0.686297 -10.34196,-0.943986 -23.63924,-0.713559 -11.91883,0.206539 -21.2082,-0.03375 -21.73672,-0.5622605 -0.50761,-0.5076161 -1.86738,-0.6231832 -3.0217,-0.256816 C 203.97564,10.142508 177.99589,10.577035 80.5,11.568224 c -55.614049,0.565399 -56.056824,0.568327 -60.852704,0.402492 -1.568987,-0.05425 -3.038436,0.08709 -3.265443,0.314098 -0.227007,0.227007 -0.635105,8.048728 -0.906884,17.381603 -0.27178,9.332875 -0.709473,19.638425 -0.972652,22.901223 -0.784325,9.723767 -2.08464,85.548 -3.0085,175.43236 -1.13454,110.38182 -1.5578118,161.33499 -1.449584,174.5 0.0633,7.7 0.08816,21.2 0.05525,30 -0.1855855,49.61944 0.02683,68.02631 0.793883,68.79337 0.848125,0.84812 39.933405,1.58656 107.297024,2.02717 19.07971,0.1248 35.00902,0.54554 35.39846,0.93497 0.38944,0.38944 1.87876,0.3877 3.30961,-0.004 1.43085,-0.39157 24.65154,-0.63067 51.60154,-0.53135 z M 492,449.35311 c -1.375,-0.87651 -4.47623,-4.57704 -6.89162,-8.22339 -3.94366,-5.95347 -4.44198,-7.37532 -4.88533,-13.93932 -1.44915,-21.45508 10.19941,-38.71648 24.75545,-36.68382 2.48683,0.34726 5.48349,1.16285 6.65926,1.81241 2.20357,1.21737 9.36224,9.31258 9.36224,10.58706 0,0.39426 0.8122,1.58918 1.8049,2.65539 0.99269,1.06621 3.01379,4.41356 4.49133,7.43856 2.42993,4.97485 2.59842,6.02515 1.7647,11 -2.10772,12.57689 -6.18805,19.88485 -13.41766,24.03134 -4.53067,2.59854 -6.09613,2.94784 -13.14327,2.93267 -5.58324,-0.012 -8.75524,-0.49867 -10.5,-1.6109 z M 74.5,448.99703 c -12.118395,-2.12735 -16.304299,-6.47833 -20.021814,-20.81138 -1.619228,-6.24301 -1.708296,-8.1867 -0.715252,-15.60862 0.623861,-4.66268 1.821318,-9.80617 2.661017,-11.42997 2.135986,-4.13054 7.61137,-9.5032 13.852313,-13.59242 3.836548,-2.5138 12.011572,-1.39214 18.128978,2.4874 2.535649,1.60806 5.67761,3.19163 6.982137,3.51905 3.826731,0.96045 8.397881,6.47197 9.512311,11.46917 0.9908,4.44285 0.8823,7.4574 -0.55677,15.46974 -0.39514,2.2 -0.6164,4.39011 -0.49171,4.86691 0.41057,1.56985 -2.05226,7.8399 -4.524629,11.51911 -2.943821,4.3808 -5.421453,6.46029 -11.326581,9.5065 -5.702266,2.94156 -8.502496,3.4818 -13.5,2.60451 z m 277,-3.38032 c -6.47932,-3.0631 -10.19268,-7.11082 -13.12325,-14.30491 -2.72934,-6.70008 -3.11655,-14.89999 -0.9284,-19.66067 0.79659,-1.73312 2.40743,-6.17879 3.57965,-9.87926 2.26384,-7.14651 5.29307,-10.6257 11.51494,-13.22537 6.0658,-2.53445 13.81663,-2.31733 16.18909,0.4535 0.94185,1.1 2.31149,2 3.04364,2 3.01698,0 8.51161,5.74469 11.47764,12 2.77258,5.84734 3.0832,7.46313 3.09355,16.09205 0.0132,11.03951 -1.20126,13.83774 -9.55685,22.01932 -4.16604,4.07928 -5.59685,4.82383 -11.11762,5.78523 -8.36451,1.45661 -8.38851,1.45444 -14.17239,-1.27989 z m -139.95001,0.56053 c -1.88762,-0.43483 -4.14772,-2.29973 -6.27577,-5.1784 -1.82916,-2.47436 -3.98916,-5.37787 -4.79999,-6.45223 C 199.6634,433.47224 199,431.57547 199,430.33156 c 0,-1.24392 -0.68755,-4.2868 -1.52789,-6.76197 -1.37053,-4.03679 -1.37053,-4.87694 0,-8.15707 0.84034,-2.01122 1.52789,-5.81395 1.52789,-8.45051 0,-4.26332 0.47026,-5.29436 4.25,-9.31814 2.3375,-2.48842 5.99938,-5.90128 8.1375,-7.58413 3.57395,-2.81295 4.51008,-3.05974 11.6062,-3.05974 7.30059,0 7.97024,0.19207 12.3625,3.54581 2.55409,1.95019 4.6438,3.99396 4.6438,4.5417 0,0.54774 1.33826,3.85826 2.97392,7.3567 3.94956,8.4476 5.06744,13.90057 4.52766,22.0858 -0.40214,6.09809 -0.83429,7.24765 -4.22477,11.23827 -2.07725,2.44494 -5.73319,5.85977 -8.12432,7.58853 -3.9513,2.85673 -5.0905,3.15945 -12.5,3.32159 -4.48387,0.0981 -9.47999,-0.1274 -11.1025,-0.50116 z M 65.16039,287.25097 C 60.329281,285.58458 54,279.87833 54,277.18917 c 0,-0.95929 -0.702754,-2.74748 -1.561675,-3.97376 -1.711157,-2.44302 -3.310926,-14.38689 -2.774634,-20.71541 0.339838,-4.01027 5.952265,-16.5 7.414494,-16.5 0.428427,0 1.373601,-0.5924 2.100386,-1.31644 0.726786,-0.72403 3.301446,-2.74903 5.721467,-4.5 C 68.52766,227.55887 70.230991,227 74.602985,227 c 6.117473,0 9.161117,1.14027 15.316715,5.73823 5.528094,4.12924 6.524604,5.562 9.719897,13.97508 2.268163,5.97198 2.506173,7.74705 1.982663,14.78669 -0.40459,5.44046 -1.07922,8.35521 -2.108596,9.11024 C 98.681149,271.22088 98,272.47765 98,273.40308 c 0,2.36472 -8.708754,11.40769 -13.185546,13.69158 -4.496388,2.29388 -13.254975,2.36354 -19.654064,0.15631 z m 574.30968,-0.59272 c -6.13384,-2.34478 -15.4801,-9.10586 -16.11592,-11.65825 -0.34252,-1.375 -1.27069,-3.24729 -2.06259,-4.16066 -1.75458,-2.02368 -3.20966,-11.82845 -2.17178,-14.63411 0.41389,-1.11885 1.19468,-5.22487 1.73508,-9.12449 0.83614,-6.03372 1.58975,-7.85283 5.05749,-12.20813 5.68885,-7.14489 9.95154,-9.30349 18.32522,-9.27975 6.19492,0.0176 7.19892,0.33675 12.4658,3.96312 3.15053,2.16921 6.41863,5.28653 7.26244,6.92738 0.8438,1.64085 2.08971,3.44085 2.76869,4 1.7293,1.42413 5.2268,16.26698 4.86419,20.64292 C 671.03361,267.94559 663.82552,280 660.31291,280 659.59081,280 659,280.41153 659,280.91451 c 0,1.50427 -8.42279,5.7423 -12.60611,6.34293 -2.14164,0.30748 -5.25736,0.0379 -6.92382,-0.59919 z m -424.36546,-0.7432 C 207.71773,282.96025 199,273.46472 199,268.37358 c 0,-0.86066 -0.956,-2.90742 -2.12445,-4.54836 -1.76987,-2.48555 -1.93678,-3.39543 -1,-5.45142 0.61845,-1.35735 1.13849,-4.58423 1.15566,-7.17085 0.0213,-3.20747 0.81462,-5.9749 2.49488,-8.70295 1.35501,-2.2 2.46597,-4.59252 2.46879,-5.31672 0.003,-0.7242 1.14386,-2.80969 2.53565,-4.63442 1.91104,-2.5055 4.21492,-3.8593 9.41108,-5.53008 6.69606,-2.15308 7.03619,-2.16715 12.68537,-0.52489 4.80672,1.39735 6.84234,2.76199 11.83892,7.93654 7.02574,7.276 10.03665,14.07299 9.22286,20.82017 -2.10334,17.43893 -6.08632,23.73376 -19.37302,30.61772 -2.61588,1.35531 -9.87555,1.38099 -13.21113,0.0467 z m 141.91626,-1.65371 c -6.31814,-2.48074 -13.44932,-10.22589 -16.10503,-17.4916 -2.33656,-6.39256 -2.41152,-11.12393 -0.32113,-20.26974 2.04359,-8.9411 4.08445,-13.03366 8.21155,-16.46681 5.12951,-4.267 16.97036,-6.82167 18.69374,-4.03319 0.33992,0.55 1.3206,1 2.17928,1 2.16875,0 10.23964,5.24034 10.28421,6.67742 0.0201,0.64758 1.16151,2.06234 2.53651,3.14392 1.375,1.08158 2.5,2.42726 2.5,2.99042 0,0.56315 1.22878,3.42339 2.73063,6.35608 2.20759,4.3108 2.71233,6.59255 2.63511,11.91224 -0.0895,6.16772 -0.38277,6.97485 -4.67947,12.87978 -5.55687,7.63677 -8.91722,9.8313 -18.68627,12.2034 -8.13985,1.9765 -7.82902,1.9423 -9.97913,1.09808 z m 136.6741,-1.88509 c -5.3132,-2.92612 -13.38456,-12.09465 -14.28336,-16.22494 -0.31733,-1.45822 -0.91189,-3.77631 -1.32125,-5.15131 -0.40936,-1.375 -0.41701,-3.625 -0.017,-5 0.4,-1.375 0.77214,-4.03545 0.82696,-5.91211 0.34968,-11.96973 8.35769,-22.88325 18.44798,-25.14135 4.27234,-0.95611 6.20564,-0.98796 7.90374,-0.13022 12.92731,6.52987 17.93658,11.83517 19.74384,20.91063 0.63229,3.17518 1.62571,7.42055 2.20759,9.43415 3.25406,11.26065 -10.38933,28.33434 -23.51629,29.42889 -4.24557,0.35401 -6.05942,-0.0478 -9.99221,-2.21374 z M 355.1785,126.51054 c -3.85742,-1.71196 -11.46493,-9.22997 -13.68593,-13.52491 -2.58104,-4.99118 -3.9612,-18.526641 -2.38286,-23.369138 4.9161,-15.083043 9.48476,-19.533753 20.76261,-20.226585 8.57461,-0.526764 11.47183,0.656774 18.87269,7.70965 4.6075,4.390854 6.21723,6.798484 8.07327,12.07492 2.08578,5.929551 2.21847,7.31077 1.32309,13.772013 -1.03487,7.46775 -2.01767,9.56516 -7.30235,15.58407 -6.25838,7.1279 -18.79552,11.02673 -25.66052,7.97998 z M 218.5,125 c -0.33992,-0.55 -1.55495,-1 -2.70006,-1 -3.1091,0 -10.08797,-7.79256 -13.50162,-15.07581 -3.87707,-8.27199 -4.90191,-17.509283 -2.82656,-25.477077 0.82751,-3.177017 2.40989,-6.619836 3.5164,-7.650709 C 204.09467,74.765531 205,73.48962 205,72.961045 205,72.43247 205.8449,72 206.87756,72 c 1.03265,0 2.48878,-0.736483 3.23583,-1.636629 2.24657,-2.706947 9.57431,-5.298288 15.66226,-5.538714 6.64976,-0.262613 13.50288,2.482211 14.08963,5.643206 0.20091,1.082324 1.38528,3.332324 2.63195,5 4.26416,5.70421 5.60473,9.597416 6.19762,17.998759 0.46475,6.585538 0.22628,9.285198 -1.12172,12.698498 -2.16087,5.47161 -10.63059,14.25712 -16.78989,17.4159 C 225.95712,126.05609 219.60613,126.78976 218.5,125 Z M 495,124.07935 c -10.11867,-1.99673 -16.76122,-10.88284 -17.7322,-23.72139 -0.48882,-6.463327 -0.22261,-8.218184 2.14182,-14.119306 6.16911,-15.396773 8.32057,-17.272362 19.91498,-17.361348 6.1069,-0.04687 6.96674,0.243397 13.65599,4.610021 3.9263,2.563023 7.35988,5.414384 7.63018,6.336357 0.2703,0.921974 1.15655,2.973103 1.96945,4.558064 2.69911,5.262669 2.91426,13.622344 0.53462,20.773142 -1.71765,5.16157 -3.2752,7.53624 -7.87789,12.01088 -7.51858,7.30939 -11.44076,8.64933 -20.23695,6.91358 z M 71.5,122.30857 C 63.179212,120.56509 55.394284,108.60726 54.30154,95.891332 53.922338,91.478673 54.110173,89.049943 54.866812,88.582315 55.490065,88.197123 56,86.740455 56,85.345275 c 0,-1.39518 0.671917,-3.731122 1.49315,-5.190983 0.821232,-1.459861 1.927589,-3.872052 2.458571,-5.360426 1.075587,-3.014935 6.804418,-6.080313 14.822167,-7.931031 7.609241,-1.756424 15.375852,0.877829 21.404981,7.260067 2.573378,2.724094 4.973001,6.292059 5.332491,7.92881 0.35949,1.636752 1.96424,5.43197 3.56612,8.433817 2.86406,5.367131 2.8898,5.555217 1.54754,11.308961 -0.75073,3.21809 -1.86333,6.78228 -2.47245,7.92042 -1.51774,2.83593 -7.151994,7.45294 -8.528461,6.98869 -0.61826,-0.20853 -1.574109,0.22353 -2.124109,0.96012 -2.583168,3.45955 -15.072435,6.0964 -22,4.64485 z"
       id="path1" />
  </g>
</svg>
