<?xml version="1.0" encoding="UTF-8" standalone="no"?>
<!-- Created with Inkscape (http://www.inkscape.org/) -->

<svg
   version="1.1"
   id="svg1"
   width="746"
   height="518"
   viewBox="0 0 746 518"
   sodipodi:docname="4.svg"
   inkscape:version="1.4 (86a8ad7, 2024-10-11)"
   xmlns:inkscape="http://www.inkscape.org/namespaces/inkscape"
   xmlns:sodipodi="http://sodipodi.sourceforge.net/DTD/sodipodi-0.dtd"
   xmlns="http://www.w3.org/2000/svg"
   xmlns:svg="http://www.w3.org/2000/svg">
  <defs
     id="defs1" />
  <sodipodi:namedview
     id="namedview1"
     pagecolor="#ffffff"
     bordercolor="#000000"
     borderopacity="0.25"
     inkscape:showpageshadow="2"
     inkscape:pageopacity="0.0"
     inkscape:pagecheckerboard="0"
     inkscape:deskcolor="#d1d1d1"
     inkscape:zoom="1.534749"
     inkscape:cx="372.69937"
     inkscape:cy="259"
     inkscape:window-width="1920"
     inkscape:window-height="1013"
     inkscape:window-x="2391"
     inkscape:window-y="605"
     inkscape:window-maximized="1"
     inkscape:current-layer="g1" />
  <g
     inkscape:groupmode="layer"
     inkscape:label="Image"
     id="g1">
    <path
       style="fill:#000000"
       d="m 239.47141,517.1379 c -0.7686,-0.76881 -11.10873,-0.94319 -99.47141,-1.67754 -37.675,-0.3131 -69.332798,-0.81447 -70.350663,-1.11415 -1.017865,-0.29969 -2.336139,-0.0594 -2.929499,0.53395 -0.701961,0.70196 -4.596818,0.89577 -11.149337,0.55479 C 50.031725,515.14673 38.525,514.79755 30,514.65899 16.746842,514.44359 13.827765,514.10302 9.8625391,512.30955 2.1887284,508.83868 2.5138784,512.78342 2.7989714,426.61402 2.93706,384.87674 3.2180713,350.45174 3.4234409,350.11402 3.6288106,349.77631 4.0701676,322.5 4.4042343,289.5 6.4932251,83.143929 7.4637758,18.071768 8.5436846,11.963773 9.6545942,5.6804376 11.98069,3.7013501 18.837784,3.2053526 23.353242,2.8787339 25.009092,2.3505552 25.333112,1.1334899 25.709396,-0.27988549 25.783629,-0.26418562 25.883999,1.25 25.976023,2.6382804 26.923649,3 30.468615,3 34.029875,3 34.820354,2.6954239 34.361626,1.5 34.045044,0.675 34.284167,0 34.893011,0 35.501855,0 36,0.675 36,1.5 36,2.325 36.675,3 37.5,3 38.325,3 39,2.325 39,1.5 39,0.45238095 40.055556,0 42.5,0 44.944444,0 46,0.45238095 46,1.5 c 0,1.2318801 1.832152,1.5106967 10.25,1.5598429 10.322348,0.060265 19.604465,0.2352126 67.25,1.267513 14.3,0.3098275 26.675,0.5681062 27.5,0.5739526 0.825,0.00585 2.85,0.094458 4.5,0.196915 1.65,0.1024568 6.15,0.177386 10,0.1665092 3.85,-0.010877 26.71952,-0.081657 50.82117,-0.1572887 24.10164,-0.075632 44.23914,0.1208104 44.75,0.4365387 0.51085,0.3157282 1.39016,0.2889352 1.954,-0.05954 1.22741,-0.7585796 84.74838,-1.7987353 107.47483,-1.3384728 16.25207,0.3291417 85.36667,0.1565544 106.68531,-0.2664057 7.67328,-0.1522374 12.16202,0.1638085 13.07379,0.9205065 0.96769,0.8031135 1.70596,0.8348656 2.43606,0.1047716 0.68762,-0.6876185 10.28324,-0.9838651 27.9262,-0.8621684 33.52638,0.2312565 29.88618,0.3800135 36.63878,-1.4972466 2.18708,-0.6080206 3.53661,-0.1972136 6.5,1.978653 C 568.18625,7.7739476 579,18.832865 579,20.109458 579,20.599256 579.60277,21 580.33948,21 c 0.73672,0 1.82288,1.06092 2.41368,2.3576 0.59081,1.296681 4.55228,5.459181 8.80326,9.25 4.25099,3.79082 8.33832,7.5674 9.08297,8.3924 0.74465,0.825 4.39292,4.709934 8.10726,8.633186 3.71434,3.923253 7.65335,8.423253 8.75335,10 2.15423,3.087882 9.47968,10.946279 38.56137,41.366814 10.25298,10.725 20.62108,21.73344 23.04021,24.46321 2.41913,2.72976 7.54842,8.18928 11.39842,12.13226 3.85,3.94297 7.69925,8.00953 8.55389,9.03679 0.85464,1.02726 3.94084,4.56774 6.85822,7.86774 2.91738,3.3 5.59313,6.675 5.94611,7.5 0.35298,0.825 4.56897,6.73863 9.36887,13.14139 7.90463,10.54429 12.11656,18.53118 14.4277,27.35861 0.288,1.1 1.16077,3.35 1.9395,5 3.41893,7.24417 7.90455,28.7202 7.72806,37 -0.17927,8.41028 -4.99741,30.0814 -7.92702,35.65429 -0.76743,1.45986 -1.39533,3.99226 -1.39533,5.62756 0,1.63529 -0.675,3.53346 -1.5,4.21815 -0.825,0.68469 -1.5,2.5459 -1.5,4.13601 0,1.59012 -0.40011,3.67252 -0.88913,4.62756 -0.48903,0.95504 -1.5655,3.31143 -2.39218,5.23643 -4.47858,10.4289 -5.93139,13.64217 -6.7819,15 -0.51675,0.825 -1.99916,3.75 -3.29424,6.5 -2.94158,6.24622 -11.98077,17.81787 -21.14255,27.06591 -10.77966,10.88116 -23.96662,25.38838 -24.29653,26.72906 -0.16309,0.66277 -1.85151,2.33003 -3.75205,3.70503 -1.90054,1.375 -4.86371,4.65651 -6.58483,7.29225 -1.72111,2.63573 -4.33729,5.41692 -5.81372,6.18041 -1.47643,0.76349 -3.94701,3.21009 -5.49018,5.43688 -1.54317,2.22679 -4.82578,5.70397 -7.29468,7.72705 -2.46891,2.02308 -5.28566,4.98846 -6.25945,6.58973 -0.97379,1.60128 -5.76159,7.01022 -10.63955,12.01988 -4.87795,5.00966 -12.07122,12.88158 -15.98503,17.49315 -3.91382,4.61156 -8.06847,9.05179 -9.23258,9.86716 -1.1641,0.81537 -3.54369,3.55676 -5.28796,6.09198 -3.56749,5.18516 -4.34195,6.12343 -11.36344,13.76699 -2.75,2.99364 -7.475,8.18854 -10.5,11.54422 -7.45137,8.26593 -8.40692,9.21162 -11.40474,11.28698 -1.42739,0.98818 -2.59526,2.60524 -2.59526,3.59347 0,1.72694 -7.32527,8.63136 -11.5259,10.86372 -1.89738,1.00833 -11.26431,1.35359 -75.9741,2.80038 -31.09477,0.69522 -140.19859,1.77396 -145,1.43366 -4.99703,-0.35417 -14.57938,-0.24892 -29.76484,0.32695 -6.86057,0.26016 -12.00924,0.0507 -12.35115,-0.50253 -0.32247,-0.52177 -1.32829,-0.65052 -2.23516,-0.2861 -2.16219,0.86886 -44.84887,1.44047 -45.67744,0.61167 z m 21.82054,-10.27205 c 14.18557,-0.0634 26.06917,0.16194 26.40799,0.50076 0.33882,0.33882 1.14801,0.17454 1.7982,-0.36507 0.7732,-0.6417 4.83645,-0.63485 11.74554,0.0198 9.61228,0.91077 74.92621,0.66641 106.25632,-0.39753 6.6,-0.22413 12.40823,-0.1609 12.90718,0.14051 1.73961,1.05087 13.0142,1.13086 14.25495,0.10114 0.68764,-0.5707 1.67334,-0.77615 2.19043,-0.45657 1.20132,0.74245 15.84311,0.74715 43.64744,0.014 12.1,-0.31905 29.19112,-0.72656 37.98026,-0.90558 22.08565,-0.44984 30.3359,-1.32095 32.36388,-3.41716 0.91072,-0.94137 3.23086,-3.64458 5.15586,-6.00715 8.53393,-10.47374 15.26926,-17.98235 16.58248,-18.48628 0.78272,-0.30035 2.73336,-2.61212 4.33475,-5.13726 1.6014,-2.52514 9.36264,-11.37946 17.2472,-19.67626 7.88456,-8.29681 15.24263,-16.25693 16.35127,-17.68915 C 611.62433,433.67182 616.69207,428.225 621.77734,423 632.79661,411.67795 636,408.24835 636,407.77298 c 0,-0.43668 9.89621,-11.45001 16,-17.80614 2.475,-2.57732 6.075,-6.45954 8,-8.62716 1.925,-2.16761 7.82772,-8.64329 13.11715,-14.3904 5.28943,-5.7471 12.21587,-13.37428 15.39207,-16.94928 3.17621,-3.575 6.80521,-7.50217 8.06445,-8.72705 1.25924,-1.22487 3.53902,-3.92487 5.06618,-6 1.52716,-2.07512 4.47797,-5.37044 6.55735,-7.32292 3.93671,-3.69647 8.99823,-12.97877 10.28656,-18.86448 0.41106,-1.87795 1.85897,-5.47795 3.21758,-8 1.3586,-2.52205 2.68508,-5.70659 2.94772,-7.07675 0.26264,-1.37016 1.08682,-3.17016 1.8315,-4 0.74468,-0.82984 2.13929,-4.6588 3.09912,-8.5088 0.95984,-3.85 2.57207,-8.82958 3.58274,-11.06572 1.01067,-2.23615 1.84245,-5.38615 1.8484,-7 0.006,-1.61386 0.62396,-4.95928 1.37334,-7.43428 2.06893,-6.83308 1.14617,-21.76167 -1.90703,-30.85218 C 733.11471,221.09137 732,216.97861 732,216.00836 c 0,-1.72203 -1.67337,-6.2607 -4.68537,-12.70809 -0.82214,-1.75985 -1.23422,-3.62136 -0.91573,-4.13669 0.31849,-0.51533 -0.16242,-1.55045 -1.0687,-2.30027 -0.90628,-0.74982 -3.78911,-4.73831 -6.4063,-8.86331 -2.61719,-4.125 -5.51057,-8.32734 -6.42974,-9.33853 -0.91917,-1.01119 -2.42083,-3.48619 -3.33704,-5.5 -0.9162,-2.01381 -4.13886,-6.29214 -7.16147,-9.5074 -3.02261,-3.21526 -5.94565,-6.64707 -6.49565,-7.62625 -0.55,-0.97919 -2.575,-3.07352 -4.5,-4.65408 -1.925,-1.58056 -3.62436,-3.13433 -3.77636,-3.45282 -0.152,-0.31849 -4.7645,-5.17839 -10.25,-10.79978 C 671.48814,131.49976 667,126.47284 667,125.95022 667,125.4276 666.56625,125 666.03612,125 c -1.36335,0 -8.98096,-8.24222 -9.01112,-9.75 -0.0137,-0.6875 -0.45679,-1.25 -0.98453,-1.25 C 654.68347,114 650,108.77432 650,107.26022 650,106.5671 649.55,106 649,106 c -0.55,0 -1.86594,-0.86594 -2.92431,-1.92431 -1.05836,-1.05836 -2.85836,-2.4242 -4,-3.03518 C 640.93406,100.42953 640,99.182858 640,98.270134 640,97.35741 636.0625,92.728916 631.25,87.984593 626.4375,83.24027 621.52637,78.265377 620.33638,76.929275 619.1464,75.593174 617.69747,74.05 617.11656,73.5 616.53564,72.95 612.85571,68.7875 608.93893,64.25 605.02216,59.7125 601.18358,56 600.40876,56 599.63394,56 599,55.609746 599,55.13277 599,54.283356 590.87766,45.438613 580.97077,35.5 c -2.74123,-2.75 -4.98106,-5.486459 -4.97741,-6.08102 0.004,-0.594561 -1.14684,-1.698345 -2.55665,-2.452853 -1.40981,-0.754507 -3.26006,-2.518048 -4.11166,-3.918979 -3.56498,-5.864617 -6.18491,-6.933804 -18.05789,-7.36939 -6.05847,-0.222268 -11.42013,-0.654264 -11.91481,-0.959991 -0.49467,-0.305727 -15.51382,-0.685044 -33.37588,-0.842927 -24.80281,-0.219233 -33.83558,0.03563 -38.22851,1.078636 -4.18198,0.99292 -6.3826,1.078391 -8.06217,0.31313 -1.4747,-0.671918 -8.97797,-0.886031 -20.74796,-0.592064 -18.02707,0.450244 -33.74674,0.732362 -70.74308,1.269614 -16.57261,0.240664 -18.49708,0.09222 -20.33198,-1.568352 -1.94223,-1.757687 -2.0685,-1.759564 -3.02801,-0.04503 -0.92303,1.649363 -2.86079,1.774227 -24.80146,1.598139 -13.09011,-0.105056 -24.19015,-0.01954 -24.66675,0.190036 C 294.88995,16.328529 284.15,16.275 271.5,16 258.85,15.725 246.025,15.814305 243,16.198456 c -3.025,0.384151 -5.85718,0.341967 -6.29374,-0.09374 -0.43656,-0.435708 -3.13656,-0.394318 -6,0.09198 -2.86344,0.486296 -7.68126,0.649239 -10.70626,0.362096 -3.025,-0.287143 -12.925,-0.527995 -22,-0.535226 -9.075,-0.0072 -18.525,-0.07169 -21,-0.143242 -2.475,-0.07155 -11.7,-0.186395 -20.5,-0.255207 -14.26012,-0.111509 -16.00139,-0.307738 -16.01275,-1.804535 -0.0212,-2.791859 -1.52441,-3.394489 -2.18321,-0.87524 l -0.61663,2.357999 -28.0937,-0.782414 C 94.142168,14.090596 80.15,13.772083 78.5,13.813117 61.360422,14.239361 24.349538,13.722251 23.072292,13.03869 18.323456,10.49719 14.737826,21.41058 15.199725,37 c 0.12222,4.125 0.136642,9.75 0.03205,12.5 -0.104592,2.75 -0.106966,22.325 -0.0053,43.5 0.101691,21.175 0.03185,45.925 -0.155201,55 -0.18705,9.075 -0.300264,26.175 -0.251585,38 0.04868,11.825 -0.07391,29.6 -0.272412,39.5 -0.212392,10.59252 0.0659,19.50484 0.676231,21.65672 0.737165,2.59906 0.711217,4.5917 -0.08971,6.88924 -0.763614,2.19051 -1.288569,22.44823 -1.628509,62.84328 -0.509832,60.58317 -1.07026,90.22916 -2.06263,109.11076 -0.303519,5.775 -0.18979,15 0.252732,20.5 0.442522,5.5 0.546324,18.325 0.230671,28.5 -0.315653,10.175 -0.315653,20.75 0,23.5 l 0.573914,5 8.5,0.63532 c 8.265294,0.61777 128.86645,2.11708 162.02051,2.01423 9.08628,-0.0282 17.03101,0.26413 17.65495,0.6496 0.62394,0.38547 8.71471,0.58411 17.97949,0.44142 9.26478,-0.14269 28.45143,-0.31131 42.637,-0.37472 z m 35.00728,-217.97187 c -1.76042,-0.50911 -3.47448,-1.36852 -3.80902,-1.90982 C 292.15568,286.44287 291.1644,286 290.28737,286 c -2.48517,0 -9.56622,-8.06002 -10.98175,-12.5 -1.97059,-6.18099 -1.62345,-18.64313 0.73566,-26.41 1.64938,-5.43022 3.0413,-7.72242 7.25,-11.93918 8.66775,-8.68436 11.91852,-9.50022 25.16308,-6.31531 6.2102,1.49336 7.24585,2.09992 9.6784,5.6684 1.49823,2.19785 3.01214,5.57109 3.36425,7.49609 0.3521,1.925 1.56447,4.21854 2.69415,5.09674 2.98433,2.32002 3.77692,14.29301 1.33633,20.18677 -5.4719,13.21403 -7.29922,15.46437 -15.9989,19.70256 -6.41143,3.12344 -11.19466,3.65311 -17.22936,1.90791 z M 633.60417,81.270833 c -1.01652,-1.016515 -1.85525,0.513892 -1.02122,1.863382 0.63003,1.019417 0.86558,1.020206 1.2043,0.004 0.2316,-0.694785 0.14921,-1.535121 -0.18308,-1.867413 z M 594.5,42 c 0.33992,-0.55 0.14148,-1 -0.44098,-1 C 593.47656,41 593,41.45 593,42 c 0,0.55 0.19844,1 0.44098,1 0.24254,0 0.7191,-0.45 1.05902,-1 z"
       id="path1" />
  </g>
</svg>
