<?xml version="1.0" encoding="UTF-8" standalone="no"?>
<!-- Created with Inkscape (http://www.inkscape.org/) -->

<svg
   version="1.1"
   id="svg1"
   width="1921"
   height="1447"
   viewBox="0 0 1921 1447"
   sodipodi:docname="matrix.svg"
   inkscape:version="1.4 (86a8ad7, 2024-10-11)"
   xmlns:inkscape="http://www.inkscape.org/namespaces/inkscape"
   xmlns:sodipodi="http://sodipodi.sourceforge.net/DTD/sodipodi-0.dtd"
   xmlns="http://www.w3.org/2000/svg"
   xmlns:svg="http://www.w3.org/2000/svg">
  <defs
     id="defs1" />
  <sodipodi:namedview
     id="namedview1"
     pagecolor="#ffffff"
     bordercolor="#000000"
     borderopacity="0.25"
     inkscape:showpageshadow="2"
     inkscape:pageopacity="0.0"
     inkscape:pagecheckerboard="0"
     inkscape:deskcolor="#d1d1d1"
     inkscape:zoom="0.54941258"
     inkscape:cx="961.02642"
     inkscape:cy="723.5"
     inkscape:window-width="1920"
     inkscape:window-height="1013"
     inkscape:window-x="2391"
     inkscape:window-y="605"
     inkscape:window-maximized="1"
     inkscape:current-layer="g1" />
  <g
     inkscape:groupmode="layer"
     inkscape:label="Image"
     id="g1">
    <path
       style="fill:#000000"
       d="m 5.443769,1444.5545 c -1.4987597,-2.2874 -1.7545013,-6.5801 -2.0977455,-35.2115 -0.214995,-17.9336 -0.6368969,-33.0046 -0.93756,-33.4911 -0.3006631,-0.4865 -0.9655659,-0.6256 -1.4775618,-0.3092 C 0.41890576,1375.8591 0,1375.679 0,1375.1424 c 0,-0.5367 0.5625,-1.1629 1.25,-1.3917 1.7138996,-0.5703 2.528966,-26.5748 1.3242777,-42.2507 -0.2113361,-2.75 -0.4270042,-5.8141 -0.4792626,-6.809 C 2.0427568,1323.696 1.55,1323.1601 1,1323.5 c -0.55,0.3399 -1,-0.046 -1,-0.8576 0,-0.8117 0.51428571,-1.6472 1.1428571,-1.8567 0.6500232,-0.2167 1.1428572,-2.496 1.1428572,-5.2857 0,-2.7897 -0.492834,-5.069 -1.1428572,-5.2857 -1.61973352,-0.5399 -1.41862503,-2.8945 0.3036726,-3.5554 1.8266212,-0.7009 1.5961202,-12.8114 -0.2555903,-13.4286 -1.54584529,-0.5153 -1.55476668,-7.9424 -0.010159,-8.4572 1.4989389,-0.4997 1.8627885,-15.747 1.7127356,-71.7731 -0.062604,-23.375 -0.082804,-44.3 -0.044888,-46.5 0.1028159,-5.9657 0.1018468,-88.3737 -0.00118,-100.5 -0.049066,-5.775 0.2683774,-19.5 0.7054298,-30.5 0.6223625,-15.664 0.753908,-72.21891 0.1930562,-83 C 3.6887085,951.4 3.9809073,940.375 4.3952632,928 4.809619,915.625 5.3524685,877.375 5.6015952,843 5.850722,808.625 6.0635119,779.825 6.0744617,779 6.1062752,776.60305 5.8771061,682.75588 5.777766,657.5 5.5606419,602.29912 7.2782484,366.28461 8.521401,280.5 9.2859302,227.74313 9.284036,222.89604 8.4968752,217.74092 7.9962178,214.4621 8.1571387,212.51559 9.0142368,211.48285 9.8601526,210.46358 10.037487,208.4663 9.5683541,205.24193 9.1888919,202.63387 8.9303447,199.6 8.9938047,198.5 9.2434813,194.17217 10.088097,151.29142 9.9884955,148 9.4655276,130.71805 9.9564789,116.14493 11.085155,115.44737 c 0.452577,-0.27971 1.856063,-0.24932 3.118856,0.0675 L 16.5,116.09099 16.247334,158.7955 c -0.25292,42.74738 -0.627469,81.91601 -1.7232,180.2045 -1.707132,153.13203 -2.772879,296.81302 -2.381001,321 0.144421,8.91373 0.18077,82.55298 0.05405,109.5 -0.11037,23.4706 -0.134097,64.01171 -0.03892,66.5 0.03156,0.825 -0.312101,28.95 -0.763685,62.5 -0.451584,33.55 -0.612604,66.4 -0.357821,73 0.473777,12.27296 0.41312,27.09824 -0.194346,47.5 -0.188328,6.325 -0.272774,15.775 -0.187658,21 0.08512,5.225 -0.03527,53.15 -0.267516,106.5 -0.4381357,100.6441 -0.4298875,215.5252 0.01827,254.5 0.142296,12.375 -0.103152,25.425 -0.5454412,29 -0.7499806,6.0621 -0.6472504,6.6401 1.5247332,8.5789 2.134008,1.9049 3.240454,2.0402 13.222045,1.6167 10.834702,-0.4597 27.984828,-0.5852 50.89315,-0.3724 79.20218,0.7356 106.86975,0.7166 198.5,-0.1367 42.075,-0.3918 81.225,-0.6178 87,-0.5022 22.46687,0.4496 64.42927,0.1822 83.5,-0.532 11,-0.412 23.6,-0.6523 28,-0.534 16.68295,0.4486 30.70333,0.3604 31.04718,-0.1953 0.19636,-0.3174 3.41608,-0.2066 7.15492,0.246 3.73885,0.4527 15.5729,0.5773 26.2979,0.277 10.725,-0.3004 26.475,-0.4158 35,-0.2566 8.525,0.1593 21.575,0.233 29,0.1638 34.88918,-0.325 88.75594,-0.4969 91,-0.2904 1.375,0.1266 6.1,-0.05 10.5,-0.3934 4.4,-0.3429 19.025,-0.5965 32.5,-0.5634 13.475,0.033 26.3,0.048 28.5,0.032 2.2,-0.015 8.95,0.045 15,0.134 19.96006,0.2936 132.50193,-0.2666 159,-0.7915 45.46876,-0.9006 164.5976,-1.9931 172.5,-1.582 9.3477,0.4864 188.0912,-0.8371 189.0011,-1.3995 0.524,-0.3238 2.7924,-0.093 5.0409,0.512 3.0066,0.8096 4.9995,0.8001 7.5328,-0.036 2.5255,-0.8335 4.7986,-0.8465 8.5185,-0.049 2.7906,0.5985 5.4238,0.8718 5.8516,0.6074 0.5699,-0.3522 81.4034,-0.64 98.5551,-0.3508 1.1,0.019 47.45,-0.3173 103,-0.7464 55.55,-0.429 102.8,-0.6617 105,-0.5171 2.2,0.1446 6.025,0.237 8.5,0.2053 2.475,-0.032 62.8734,-0.2087 134.2187,-0.3933 71.3452,-0.1846 130.0017,-0.6188 130.3477,-0.9648 0.346,-0.346 0.7562,-7.2976 0.9114,-15.448 0.1553,-8.1504 0.3985,-19.9939 0.5405,-26.3189 0.142,-6.325 0.2187,-20.725 0.1705,-32 -0.048,-11.275 -0.084,-30.625 -0.079,-43 0,-12.375 -0.091,-23.85 -0.213,-25.5 -0.122,-1.65 0.079,-27.075 0.4465,-56.5 0.3675,-29.425 0.8885,-92.875 1.1576,-141 0.2691,-48.125 0.7803,-140.15 1.1359,-204.5 0.3556,-64.35 0.8027,-132.975 0.9934,-152.5 0.3138,-32.1202 0.3456,-45.60519 0.1462,-62 -0.1701,-13.99204 0.059,-166.80518 0.2657,-177 0.2843,-14.0374 0.3118,-111.96164 0.044,-154.5 -0.1545,-24.48845 0.44,-75.59893 0.9422,-81 0.051,-0.55 -0.1771,-20.35 -0.5072,-44 -0.33,-23.65 -0.6099,-65.95 -0.6218,-94 -0.012,-28.05 -0.025,-56.85 -0.029,-64 -0,-7.15 0.02,-15.475 0.053,-18.5 0.212,-19.208557 -0.016,-25.493387 -0.9575,-26.435228 -1.1108,-1.110722 -75.4717,-1.870971 -113.7704,-1.163162 -6.7681,0.125083 -12.5329,-0.140326 -12.8107,-0.589798 -0.2778,-0.449471 -1.2653,-0.434722 -2.1944,0.03278 -0.9291,0.467499 -36.7893,0.644435 -79.6893,0.393193 -87.6885,-0.513546 -92.8135,-0.487292 -104,0.532741 -9.5363,0.869566 -28.4397,0.758386 -37.5,-0.220556 -3.575,-0.386271 -15.275,-0.887256 -26,-1.1133 -10.725,-0.226045 -20.625,-0.452935 -22,-0.504202 -1.375,-0.05127 -5.2,0.158683 -8.5,0.466554 -3.3,0.307872 -7.35,0.519547 -9,0.470389 -1.65,-0.04916 -11.55,-0.152384 -22,-0.229393 -10.45,-0.07701 -19.5822,-0.516255 -20.2938,-0.976105 -0.7252,-0.468647 -1.8239,-0.400961 -2.5,0.154013 -0.787,0.646043 -35.4349,0.819003 -99.7062,0.497729 -102.0934,-0.510337 -108.8366,-0.495586 -118,0.258131 -3.025,0.248816 -6.4,0.44578 -7.5,0.437697 -1.9536,-0.01436 -37.5791,0.16314 -58.5,0.29146 -5.775,0.03542 -15.675,-0.0168 -22,-0.116052 -6.325,-0.09925 -12.175,-0.17068 -13,-0.158734 -1.8955,0.02745 -93.4178,0.137169 -101.5,0.121683 -3.3,-0.0063 -12.3,-0.05089 -20,-0.09904 -7.7,-0.04815 -22.325,0.205789 -32.5,0.564308 -10.175,0.358519 -20.075,0.591922 -22,0.518672 -6.0371,-0.229723 -206.95102,-0.296148 -239.63419,-0.07923 -17.1238,0.113653 -31.6363,-0.103684 -32.25,-0.482971 -0.61369,-0.379286 -1.50538,-0.448843 -1.98152,-0.15457 -1.40315,0.867191 -26.58061,1.043219 -27.95237,0.195428 -0.69042,-0.426707 -3.01006,-0.479369 -5.15474,-0.117026 -2.14469,0.362342 -13.49068,0.651095 -25.21331,0.641672 -11.72263,-0.0094 -39.53887,-0.02548 -61.81387,-0.03567 -22.275,-0.0102 -47.925,-0.02283 -57,-0.02806 -9.075,-0.0052 -21.45,-0.09956 -27.5,-0.209606 -6.05,-0.110048 -22.7,0.02527 -37,0.300699 -14.3,0.275433 -26.7968,0.105302 -27.77067,-0.378069 -0.97386,-0.483371 -2.25418,-0.580026 -2.84515,-0.214789 -0.59096,0.365237 -4.74416,0.846105 -9.22933,1.068596 C 386.749,14.280381 299.52346,14.90509 220.5,14.923283 c -17.05,0.0039 -33.78795,0.06452 -37.19545,0.13466 -3.40749,0.07014 -6.65169,-0.154451 -7.20932,-0.499087 -0.55763,-0.344636 -1.86618,-0.09434 -2.90789,0.55622 -1.40446,0.8771 -2.70163,0.901293 -5.01857,0.0936 -1.71851,-0.599075 -3.31971,-0.773466 -3.55823,-0.387534 -0.23852,0.385931 -4.41097,0.416751 -9.27211,0.06849 -6.8593,-0.491415 -9.58755,-0.290374 -12.18387,0.897812 -2.95929,1.354295 -3.65185,1.36081 -6,0.05644 -2.19849,-1.221237 -8.32417,-1.459852 -35.65456,-1.38886 -18.15,0.04715 -33.524738,0.417272 -34.166084,0.822503 -0.641346,0.405231 -2.366006,0.280575 -3.832577,-0.277015 -1.646336,-0.625936 -10.15325,-0.821228 -22.235433,-0.510457 -13.844225,0.356093 -19.970497,0.170079 -20.941589,-0.635856 -3.013127,-2.500673 -2.940156,-3.784814 -3.408871,59.989021 -0.209575,28.514893 -0.425779,32.409363 -1.826579,32.902003 -0.873877,0.30733 -2.415565,1.2706 -3.425974,2.1406 -1.7802037,1.53282 -1.8234589,0.0317 -1.396495,-48.463604 C 10.794276,0.46475429 9.9703483,4.3415168 21.943059,5.4809583 26.099376,5.8765146 31.3,6.1838671 33.5,6.1639638 91.83731,5.6361887 186.30899,5.6909267 186.65619,6.2527043 c 0.25585,0.4139874 1.28697,0.3128991 2.29137,-0.2246406 2.03357,-1.0883331 2.04087,-1.0884162 66.89681,-0.7615989 25.4894,0.1284444 46.52785,-0.062524 46.7521,-0.4243735 0.35874,-0.5788523 14.67378,-0.4850235 72.62215,0.4760064 l 14.71863,0.2440973 0.61083,-2.7810975 C 391.23338,-0.33903647 393,-1.0061179 393,1.8552466 c 0,1.6892881 1.27471,1.9143532 14.25,2.5159968 7.8375,0.3634126 20.55,0.591249 28.25,0.506303 18.07395,-0.1993908 42.89248,0.1090471 47.98477,0.5963417 2.19163,0.2097221 4.56745,-0.1022672 5.27962,-0.6933096 0.82788,-0.6870826 2.09557,-0.7511305 3.51522,-0.1776005 1.22122,0.4933621 4.47039,0.8121185 7.22039,0.7083475 2.75,-0.1037711 6.35,-0.1332166 8,-0.065435 5.68238,0.2334323 11.13619,0.1613388 54.5,-0.7204306 23.925,-0.4864964 44.625,-0.8514287 46,-0.8109607 1.375,0.040468 79.45,0.1248417 173.5,0.1874971 94.05,0.062655 172.125,0.1581835 173.5,0.2122846 9.9007,0.3895559 77.0948,0.2691404 106.5,-0.1908539 15.4091,-0.241049 34.964,-0.2632481 68.5,-0.077763 34.7224,0.1920473 212.564,-0.5719483 214,-0.9193299 1.4764,-0.3571317 83.301,0.1416572 83.8993,0.5114357 0.3911,0.2417123 2.2613,0.1043769 4.1559,-0.3051897 3.3293,-0.7196935 13.6819,-0.7344156 47.4448,-0.067469 17.9481,0.3545436 37.7083,0.3148372 89.5,-0.1798416 19.525,-0.1864896 41.35,-0.2262102 48.5,-0.088268 13.7649,0.2655614 45.6299,1.0306453 49,1.176499 1.1,0.047607 3.4108,-0.1954456 5.1352,-0.540116 1.7243,-0.3446705 4.0595,-0.1319667 5.1893,0.4726751 1.4326,0.7667287 2.2514,0.7801762 2.7061,0.044446 0.5479,-0.886498 24.3281,-1.4131086 38.9694,-0.8629735 7.178,0.2697073 41.5088,0.1903174 86.5,-0.2000309 26.675,-0.2314349 62,-0.067357 78.5,0.3646175 27.6193,0.7230822 30.215,0.9426294 32.7095,2.7666448 C 1917.6997,7.1084436 1919.3872,8 1919.9595,8 c 0.5723,0 1.0405,1.575 1.0405,3.5 0,2.444444 -0.4524,3.5 -1.5,3.5 -0.825,0 -1.5,0.675 -1.5,1.5 0,0.825 0.675,1.5 1.5,1.5 2.3768,0 2.1394,11.686248 -0.25,12.310674 -1.6667,0.435546 -1.6667,0.462847 0,0.573325 2.2298,0.147805 2.5794,7.116001 0.357,7.116001 -1.7942,0 -2.6685,2.282469 -1.5608,4.074716 0.4736,0.766342 0.575,5.000534 0.2252,9.409316 -0.8368,10.549394 -0.6351,132.795048 0.243,147.264088 0.3792,6.24782 1.0834,11.00045 1.5841,10.69098 0.4958,-0.30642 0.9015,0.84598 0.9015,2.5609 0,1.82405 -0.415,2.86155 -1,2.5 -0.55,-0.33992 -1,0.0835 -1,0.94098 0,0.85746 0.45,1.55902 1,1.55902 0.55,0 1,0.47656 1,1.05902 0,0.58246 -0.45,0.7809 -1,0.44098 -0.5694,-0.35191 -1,0.50929 -1,2 0,1.49071 0.4306,2.35191 1,2 0.55,-0.33992 1,-0.17898 1,0.35765 0,0.53663 -0.4727,1.13324 -1.0504,1.3258 -1.6271,0.5424 -1.821,37.01765 -0.1996,37.56288 0.6875,0.23118 1.25,1.30939 1.25,2.39602 0,1.08663 -0.45,1.69757 -1,1.35765 -0.55,-0.33992 -1.0176,0.19602 -1.0391,1.19098 -0.4508,20.85708 -1.4215,440.68341 -1.0978,474.80902 0.1096,11.55 -0.1108,59.7 -0.4897,107 -0.808,100.85638 -0.7866,96.25917 -0.5397,115.75 0.1063,8.3875 -0.039,33.25 -0.3223,55.25 -0.2836,22 -0.482,44.275 -0.441,49.5 0.1249,15.9196 0.085,24.0836 -0.6197,125.5 -0.7727,111.2704 -0.7227,101.0072 -0.5329,109.5 0.1913,8.5592 -0.8701,74.5164 -1.4966,93 -0.2703,7.975 -0.5882,20.0385 -0.7064,26.8079 -0.2059,11.7974 -0.3171,12.385 -2.6825,14.1685 -3.4827,2.626 -6.3585,3.0144 -22.9073,3.0939 -8.0437,0.039 -15.4431,0.3928 -16.443,0.7869 -0.9998,0.3942 -5.2748,0.2415 -9.5,-0.3393 -4.7471,-0.6525 -17.9972,-0.8433 -34.682,-0.4993 -14.85,0.3061 -27.3602,0.3866 -27.8003,0.1788 -0.6913,-0.3262 -6.713,-0.3177 -24.1997,0.034 -2.2,0.044 -11.875,-0.03 -21.5,-0.1639 -9.625,-0.1344 -21.1,-0.2544 -25.5,-0.2666 -62.4856,-0.1736 -84.6444,-0.075 -115.8548,0.5142 -20.2701,0.3828 -37.1451,0.8638 -37.5,1.0689 -0.3549,0.2051 -5.2527,0.01 -10.884,-0.439 -5.6314,-0.4466 -21.1564,-0.8877 -34.5,-0.9802 -20.6561,-0.1433 -180.2776,0.6655 -221.7612,1.1236 -7.425,0.082 -48.825,0.1262 -92,0.098 -131.9977,-0.086 -144.0958,-0.02 -146.9586,0.8012 -1.5218,0.4365 -4.6286,0.4531 -6.9041,0.037 -2.2755,-0.4161 -4.1394,-0.4795 -4.142,-0.1408 -0.01,1.1195 -22.7805,1.2723 -23.4695,0.1575 -0.3987,-0.6452 -1.2956,-0.7122 -2.3365,-0.1744 -0.9291,0.4801 -2.5893,0.6813 -3.6893,0.4471 -1.1,-0.2342 -4.475,-0.3153 -7.5,-0.1802 -3.025,0.1351 -7.3,0.2116 -9.5,0.1702 -14.10492,-0.266 -58.59451,-0.062 -72,0.3303 -20.54425,0.6012 -64.80497,1.4706 -70,1.3751 -2.2,-0.041 -14.125,-0.2174 -26.5,-0.3933 -12.375,-0.1758 -25.23387,-0.4616 -28.57527,-0.6351 -3.34139,-0.1735 -6.60058,0.01 -7.24262,0.406 -0.64205,0.3968 -5.10818,0.6634 -9.92474,0.5925 -4.81655,-0.071 -10.10737,-0.085 -11.75737,-0.032 -1.65,0.053 -9.525,0.086 -17.5,0.074 -7.975,-0.013 -25.22721,-0.021 -38.33824,-0.018 -13.11104,0 -24.21482,-0.2275 -24.67507,-0.5119 -0.46025,-0.2845 -2.02888,0.026 -3.48585,0.6898 -1.92228,0.8758 -3.12285,0.911 -4.37612,0.1284 -0.9499,-0.5933 -3.05406,-0.9134 -4.6759,-0.7115 -4.72056,0.5877 -80.47755,0.5018 -81.43893,-0.092 -0.47943,-0.2963 -1.16823,-0.059 -1.53066,0.5275 -0.62359,1.009 -7.00339,1.2496 -19.47923,0.7346 -3.025,-0.1249 -25.75,-0.058 -50.5,0.1495 -24.75,0.2071 -154.42861,0.5712 -288.17469,0.8092 L 7.1506147,1447.1595 Z M 54.5,11 c 0.339919,-0.55 -0.110081,-1 -1,-1 -0.889919,0 -1.339919,0.45 -1,1 0.339919,0.55 0.789919,1 1,1 0.210081,0 0.660081,-0.45 1,-1 z m 23,0 C 77.160081,10.45 76.458524,10 75.940983,10 75.423442,10 75,10.45 75,11 c 0,0.55 0.701558,1 1.559017,1 0.857459,0 1.280902,-0.45 0.940983,-1 z m 209.22917,0.395833 c -0.33229,-0.332291 -1.1948,-0.367818 -1.91667,-0.07895 -0.79773,0.319226 -0.56078,0.556183 0.60417,0.604167 1.05416,0.04342 1.64479,-0.192928 1.3125,-0.52522 z M 189,10 c 0,-0.55 -0.42344,-1 -0.94098,-1 -0.51754,0 -1.2191,0.45 -1.55902,1 -0.33992,0.55 0.0835,1 0.94098,1 C 188.29844,11 189,10.55 189,10 Z M 387,9.5 C 387,8.675 386.325,8 385.5,8 384.675,8 384,8.675 384,9.5 c 0,0.825 0.675,1.5 1.5,1.5 0.825,0 1.5,-0.675 1.5,-1.5 z M 300.5,9 c -0.33992,-0.55 -1.06803,-1 -1.61803,-1 -0.55,0 -0.72189,0.45 -0.38197,1 0.33992,0.55 1.06803,1 1.61803,1 0.55,0 0.72189,-0.45 0.38197,-1 z m 6.22917,0.3958333 c -0.33229,-0.3322916 -1.1948,-0.3678179 -1.91667,-0.078947 -0.79773,0.3192263 -0.56078,0.5561827 0.60417,0.6041666 1.05416,0.043421 1.64479,-0.1929276 1.3125,-0.5252193 z m 30,0 c -0.33229,-0.3322916 -1.1948,-0.3678179 -1.91667,-0.078947 -0.79773,0.3192263 -0.56078,0.5561827 0.60417,0.6041666 1.05416,0.043421 1.64479,-0.1929276 1.3125,-0.5252193 z M 406,9 c 0,-0.55 -0.64844,-1 -1.44098,-1 -0.79254,0 -1.7191,0.45 -2.05902,1 -0.33992,0.55 0.30852,1 1.44098,1 C 405.07344,10 406,9.55 406,9 Z m 24.25,0.3377193 c -0.6875,-0.2774123 -1.8125,-0.2774123 -2.5,0 -0.6875,0.2774123 -0.125,0.504386 1.25,0.504386 1.375,0 1.9375,-0.2269737 1.25,-0.504386 z M 439,9 c 0,-0.55 -0.45,-1 -1,-1 -0.55,0 -1,0.45 -1,1 0,0.55 0.45,1 1,1 0.55,0 1,-0.45 1,-1 z m 10.26903,0.3440633 c -0.67703,-0.2739231 -2.02703,-0.2905974 -3,-0.037054 -0.97297,0.2535434 -0.41903,0.4776623 1.23097,0.498042 1.65,0.02038 2.44606,-0.1870649 1.76903,-0.460988 z M 553.5,9 C 553.83992,8.45 553.41648,8 552.55902,8 551.70156,8 551,8.45 551,9 c 0,0.55 0.42344,1 0.94098,1 0.51754,0 1.2191,-0.45 1.55902,-1 z M 564,9 c 0,-0.55 -0.47656,-1 -1.05902,-1 -0.58246,0 -0.7809,0.45 -0.44098,1 0.33992,0.55 0.81648,1 1.05902,1 C 563.80156,10 564,9.55 564,9 Z m 40,0.559017 C 604,9.3164763 603.55,8.8399187 603,8.5 602.45,8.1600813 602,8.3585237 602,8.940983 602,9.5234424 602.45,10 603,10 c 0.55,0 1,-0.1984424 1,-0.440983 z m 4,0 C 608,8.5035422 606.08089,8.0601055 605.51008,8.9836881 605.16462,9.5426596 605.58352,10 606.44098,10 607.29844,10 608,9.8015576 608,9.559017 Z m 58,-1.1660058 c 0,-1.054521 -0.5438,-1.3983117 -1.58179,-1 -0.86998,0.3338438 -3.00748,0.6708462 -4.75,0.7488941 C 656.70219,8.2747543 656.75528,8.3295174 660.5,9 c 2.2,0.3939042 4.3375,0.7800468 4.75,0.8580947 C 665.6625,9.9361426 666,9.276855 666,8.3930112 Z M 678,8.25 C 678,6.8732033 676.98941,6.6830977 674.58179,7.6069888 672.20331,8.519697 672.67881,9.5 675.5,9.5 676.875,9.5 678,8.9375 678,8.25 Z M 690.2,7.8 C 689.55833,7.1583333 688.70137,6.9653012 688.29563,7.3710397 687.88989,7.7767781 688.20686,8.5098103 689,9 c 1.86759,1.154235 2.71091,0.3109128 1.2,-1.2 z M 695,9 c 0,-0.55 -0.19844,-1 -0.44098,-1 -0.24254,0 -0.7191,0.45 -1.05902,1 -0.33992,0.55 -0.14148,1 0.44098,1 C 694.52344,10 695,9.55 695,9 Z m 16.5,0 C 711.16008,8.45 710.45852,8 709.94098,8 709.42344,8 709,8.45 709,9 c 0,0.55 0.70156,1 1.55902,1 0.85746,0 1.2809,-0.45 0.94098,-1 z m 66.92933,0.1143492 c 0.30105,-0.4871079 -0.57239,-1.0997056 -1.94098,-1.3613281 -2.79936,-0.5351309 -3.45486,0.8477541 -0.73835,1.5576534 0.9625,0.2515275 1.83594,0.5095234 1.94098,0.5733241 0.10504,0.063801 0.4373,-0.2825415 0.73835,-0.7696494 z M 795,9 c 0,-0.55 -0.70156,-1 -1.55902,-1 -0.85746,0 -1.2809,0.45 -0.94098,1 0.33992,0.55 1.04148,1 1.55902,1 C 794.57656,10 795,9.55 795,9 Z m 68,-0.5 c 0.69443,-0.8367404 0.80272,-1.5 0.24489,-1.5 -0.55,0 -1.5602,0.675 -2.24489,1.5 -0.69443,0.8367404 -0.80272,1.5 -0.24489,1.5 0.55,0 1.5602,-0.675 2.24489,-1.5 z M 927,9 c 0,-0.55 -0.675,-1 -1.5,-1 -0.825,0 -1.5,0.45 -1.5,1 0,0.55 0.675,1 1.5,1 0.825,0 1.5,-0.45 1.5,-1 z m 11,0 c 0,-0.55 -0.47656,-1 -1.05902,-1 -0.58246,0 -0.7809,0.45 -0.44098,1 0.33992,0.55 0.81648,1 1.05902,1 C 937.80156,10 938,9.55 938,9 Z m 20,0 c 0,-0.55 -0.19844,-1 -0.44098,-1 -0.24254,0 -0.7191,0.45 -1.05902,1 -0.33992,0.55 -0.14148,1 0.44098,1 C 957.52344,10 958,9.55 958,9 Z M 393,8 c 0,-0.55 -0.45,-1 -1,-1 -0.55,0 -1,0.45 -1,1 0,0.55 0.45,1 1,1 0.55,0 1,-0.45 1,-1 z m 151.72917,0.3958333 c -0.33229,-0.3322916 -1.1948,-0.3678179 -1.91667,-0.078947 -0.79773,0.3192263 -0.56078,0.5561827 0.60417,0.6041666 1.05416,0.043421 1.64479,-0.1929276 1.3125,-0.5252193 z M 571,8.559017 C 571,7.5035422 569.08089,7.0601055 568.51008,7.9836881 568.16462,8.5426596 568.58352,9 569.44098,9 570.29844,9 571,8.8015576 571,8.559017 Z M 765,8 c 0,-0.55 -0.47656,-1 -1.05902,-1 -0.58246,0 -0.7809,0.45 -0.44098,1 0.33992,0.55 0.81648,1 1.05902,1 C 764.80156,9 765,8.55 765,8 Z m 20,0 c 0,-1.2529224 -1.06124,-1.2529224 -3,0 -1.21296,0.7838742 -1.06944,0.9723047 0.75,0.9846872 C 783.9875,8.9931093 785,8.55 785,8 Z m 18,0.559017 C 803,8.3164763 802.55,7.8399187 802,7.5 801.45,7.1600813 801,7.3585237 801,7.940983 801,8.5234424 801.45,9 802,9 c 0.55,0 1,-0.1984424 1,-0.440983 z m 8.72917,-0.1631837 c -0.33229,-0.3322916 -1.1948,-0.3678179 -1.91667,-0.078947 -0.79773,0.3192263 -0.56078,0.5561827 0.60417,0.6041666 1.05416,0.043421 1.64479,-0.1929276 1.3125,-0.5252193 z M 1183,7 c 0,-0.55 -0.1984,-1 -0.441,-1 -0.2425,0 -0.7191,0.45 -1.059,1 -0.3399,0.55 -0.1415,1 0.441,1 0.5824,0 1.059,-0.45 1.059,-1 z M 536,1389.4081 c -10.78268,-4.6633 -20.30078,-21.5559 -16.90079,-29.9954 0.64539,-1.602 1.34344,-5.3098 1.55121,-8.2396 0.6187,-8.7243 3.58872,-12.978 13.02765,-18.6586 6.48025,-3.9 11.18675,-3.4457 19.2091,1.8542 3.63706,2.4028 8.63783,6.7794 11.11283,9.7258 l 4.5,5.357 0.19015,10.5242 c 0.1291,7.1456 -0.22141,11.1664 -1.09182,12.5243 -0.70507,1.1 -1.57794,3.2025 -1.93969,4.6723 -0.36176,1.4698 -3.02044,4.6842 -5.90819,7.1431 -7.62684,6.4944 -16.23916,8.3411 -23.75045,5.0927 z m 841.0785,-3.9162 c -1.8818,-2.0258 -4.3294,-4.0191 -5.4391,-4.4296 -2.2466,-0.8311 -6.0215,-9.8055 -8.1912,-19.4741 -1.2208,-5.4398 -1.1519,-6.4718 0.8625,-12.9254 1.8998,-6.086 3.0986,-7.9338 9.0651,-13.9726 l 6.8757,-6.9592 6.8719,0.5761 c 3.7795,0.3169 7.873,1.2774 9.0967,2.1345 1.2237,0.8571 2.8689,1.5584 3.656,1.5584 1.5756,0 8.0852,6.6591 10.0056,10.2352 0.6688,1.2457 1.8246,3.3898 2.5683,4.7648 0.7437,1.375 1.6503,5.65 2.0147,9.5 0.6433,6.7958 0.5471,7.2178 -3.2975,14.4655 -2.8623,5.396 -4.6975,7.7113 -6.6204,8.3522 -1.4633,0.4878 -3.7394,1.9658 -5.0582,3.2846 -1.3187,1.3187 -2.9452,2.3977 -3.6144,2.3977 -0.6692,0 -1.9932,0.7027 -2.9423,1.5616 -0.949,0.8589 -4.1345,1.7983 -7.0787,2.0876 -5.1585,0.5068 -5.4776,0.392 -8.7747,-3.1573 z m -556.91373,1.8469 c -2.22449,-0.4765 -3.21248,-1.1765 -10.71922,-7.5949 -5.34373,-4.5689 -6.58425,-8.4235 -6.37286,-19.8018 0.10234,-5.5092 -0.0971,-10.2999 -0.4433,-10.646 -1.31333,-1.3134 -0.53907,-3.0162 1.87061,-4.1141 1.375,-0.6265 2.5,-1.7892 2.5,-2.5838 0,-2.342 4.69431,-7.2369 9.18489,-9.5776 4.10758,-2.1409 4.27817,-2.1483 11.24299,-0.4824 11.50629,2.7522 16.08955,5.4025 19.04584,11.0137 2.67849,5.0839 4.52628,13.1978 4.52628,19.8755 0,8.2422 -6.22092,18.5409 -13.34705,22.0958 -3.10172,1.5474 -13.63535,2.641 -17.48818,1.8156 z m 841.27583,-0.435 c -0.255,-0.4125 -1.8162,-1.047 -3.4694,-1.4101 -1.8806,-0.4131 -3.5472,-1.7068 -4.4516,-3.4558 -0.7951,-1.5375 -2.1576,-3.0687 -3.0278,-3.4027 -0.8701,-0.3339 -2.2689,-2.0759 -3.1084,-3.8711 -0.8394,-1.7953 -2.4013,-4.8391 -3.4707,-6.7641 -1.4945,-2.6901 -1.8554,-4.9009 -1.5595,-9.554 0.2118,-3.3297 0.8414,-6.9297 1.3992,-8 1.7375,-3.3337 3.0678,-6.8348 3.6977,-9.7314 0.3332,-1.5319 1.6057,-3.2309 2.8278,-3.7755 1.2222,-0.5446 3.7511,-2.1037 5.62,-3.4646 4.7138,-3.4328 13.225,-2.9472 18.1021,1.0328 0.825,0.6732 2.7084,1.5108 4.1854,1.8612 2.5305,0.6004 8.3329,6.7175 10.5588,11.1315 1.6951,3.3613 2.4808,14.9507 1.3087,19.3035 -1.7541,6.5142 -6.9271,13.0511 -13.0529,16.4945 -5.3152,2.9877 -14.6102,5.1417 -15.5594,3.6058 z M 391.5,1386 c -0.33992,-0.55 -1.49018,-1 -2.55614,-1 -1.06595,0 -3.62689,-1.5101 -5.69098,-3.3557 -2.06408,-1.8456 -4.76393,-3.8857 -5.99965,-4.5334 -1.66767,-0.8742 -2.21731,-2.0069 -2.13248,-4.3944 0.0629,-1.7691 -0.6295,-5.8112 -1.53858,-8.9825 -1.37954,-4.8124 -1.45313,-6.4661 -0.445,-10 0.66433,-2.3287 1.80524,-4.9444 2.53535,-5.8127 0.73012,-0.8683 1.32748,-2.4672 1.32748,-3.553 0,-3.2292 5.51913,-9.6939 10.49587,-12.2941 5.24191,-2.7387 5.94019,-2.6187 18.50413,3.1809 9.42851,4.3523 12.02355,7.4024 14.63242,17.1988 2.11743,7.9509 1.71522,12.531 -1.70076,19.3669 -3.23958,6.483 -5.22108,8.3052 -13.64842,12.551 -5.27802,2.6591 -12.61077,3.5253 -13.78324,1.6282 z m 281,-0.7777 c -4.661,-2.975 -11.49043,-10.9244 -12.1292,-14.1183 -0.31721,-1.5861 -1.88041,-4.3111 -3.47378,-6.0556 -3.18162,-3.4834 -3.65132,-6.5265 -1.48481,-9.6196 0.77672,-1.1089 2.20369,-4.436 3.17106,-7.3936 1.87015,-5.7176 5.91516,-10.4343 13.2619,-15.4638 3.88818,-2.6619 4.57482,-2.8213 7.53736,-1.75 1.7927,0.6482 4.40834,1.1786 5.81251,1.1786 3.25696,0 11.37374,4.514 15.46944,8.603 3.90896,3.9026 8.07445,12.5063 8.78224,18.1396 0.72961,5.807 -1.85245,11.8623 -7.73679,18.1439 -2.63454,2.8124 -5.01526,5.1135 -5.2905,5.1135 -0.27523,0 -1.75697,0.929 -3.29276,2.0645 -4.16958,3.0827 -16.52446,3.7762 -20.62667,1.1578 z m 282.32173,-2.5077 c -4.79924,-3.2977 -8.89837,-8.407 -10.23511,-12.7572 -1.89268,-6.1596 -3.35718,-20.2045 -2.44952,-23.4917 1.14336,-4.141 10.69517,-14.1345 14.39795,-15.0639 4.02117,-1.0092 14.05295,0.1962 16.62493,1.9977 1.25677,0.8803 3.27538,1.6005 4.4858,1.6005 3.67362,0 7.93286,4.5253 10.35492,11.0019 1.83828,4.9155 2.17147,7.4137 1.78724,13.4007 -0.66024,10.2881 -3.89193,15.3625 -13.82367,21.7061 -9.53328,6.089 -14.11216,6.4368 -21.14254,1.6059 z m 841.81397,1.7792 c -1.5754,-0.8216 -3.5037,-1.4938 -4.2852,-1.4938 -4.355,0 -10.5853,-7.6779 -13.3891,-16.5 -1.7618,-5.5434 -1.6084,-16.9489 0.2958,-22 2.9125,-7.7256 11.7438,-17.5 15.8114,-17.5 0.9239,0 3.4501,-0.6246 5.6137,-1.3879 3.3146,-1.1695 4.3182,-1.175 6.3757,-0.035 1.3431,0.7439 3.6807,1.3685 5.1946,1.388 4.7083,0.061 15.9727,13.8162 17.5525,21.4344 1.2233,5.8986 -0.1531,16.3761 -2.8471,21.6726 -1.8541,3.6452 -8.8873,10.0603 -13.1119,11.9596 -1.2904,0.5801 -3.4711,1.7037 -4.8461,2.497 -3.2392,1.8688 -8.7445,1.8535 -12.3643,-0.034 z M 106,1383.4598 c -1.925,-0.8636 -4.7817,-2.7828 -6.348233,-4.265 -2.72145,-2.5748 -12.118849,-20.607 -11.827343,-22.6948 2.238051,-16.0292 8.475815,-25.9498 20.094086,-31.9579 3.25333,-1.6823 3.66699,-1.6815 9.28297,0.019 7.39324,2.2385 16.03052,10.2161 20.50501,18.939 5.44385,10.6126 4.04557,20.3949 -4.43114,31 -6.31975,7.9066 -19.77232,12.3257 -27.27535,8.9598 z m 146.02206,-1.7098 c -4.06511,-2.4514 -6.3722,-4.8472 -9.38869,-9.75 -3.9419,-6.4068 -3.9967,-6.6284 -3.82381,-15.4622 0.0965,-4.9292 0.68443,-10.5542 1.30657,-12.5 1.36316,-4.2634 8.03932,-13.2544 11.54984,-15.5546 3.58465,-2.3487 15.45532,-2.2847 19.12489,0.1033 11.75891,7.6519 17.47339,16.5146 18.05334,27.9993 0.29204,5.7831 -0.0433,7.8842 -1.81181,11.3507 -2.65046,5.1953 -10.32723,13.0611 -12.75607,13.0701 -0.97698,0 -3.12632,0.9006 -4.77632,1.9934 -4.6949,3.1093 -10.99625,2.6586 -17.47794,-1.25 z m 986.26984,2.3475 c -5.6098,-0.5399 -6.6218,-1.0069 -10.5,-4.8454 -7.8818,-7.801 -10.4953,-21.1487 -6.9025,-35.2521 1.8031,-7.0782 3.1828,-8.9911 9.3972,-13.0291 4.7512,-3.0873 7.092,-3.9064 12.8024,-4.4798 7.0078,-0.7038 12.911,0.5484 12.911,2.7386 0,0.543 1.9778,2.8509 4.3951,5.1287 7.8998,7.4442 10.5211,23.0906 5.9827,35.7114 -2.0177,5.611 -8.2254,11.5233 -14.3477,13.6651 -3.7192,1.3011 -3.9293,1.3067 -13.7382,0.3626 z m 277.0133,-2.5652 c -4.8313,-2.101 -12.3052,-9.4102 -12.3052,-12.0339 0,-1.2358 -0.651,-4.0921 -1.4467,-6.3472 -1.663,-4.7135 -2.0164,-13.8283 -0.7619,-19.6512 0.9412,-4.3689 3.1707,-8.5 4.5873,-8.5 0.4937,0 2.8504,-1.8 5.2371,-4 2.3867,-2.2 5.223,-4 6.3028,-4 1.0799,0 2.2415,-0.45 2.5814,-1 0.3399,-0.55 1.6951,-1 3.0115,-1 3.3223,0 17.351,7.5554 19.793,10.66 1.1052,1.405 2.8386,3.327 3.852,4.2712 1.2448,1.1597 2.2162,4.3588 2.9943,9.8606 1.0548,7.4588 0.9707,8.6952 -0.9996,14.6971 -1.1831,3.6042 -2.1512,7.1489 -2.1512,7.8771 0,1.9253 -2.6958,4.037 -9.6237,7.5388 -6.8951,3.4851 -15.3058,4.1348 -21.0711,1.6275 z m -420.1154,-2.5046 c -1.8206,-1.1393 -3.9513,-3.6059 -4.7348,-5.4812 -0.7836,-1.8754 -1.8512,-3.6734 -2.3726,-3.9956 -0.5213,-0.3222 -1.4584,-3.0451 -2.0824,-6.0509 -0.624,-3.0058 -1.5543,-5.7245 -2.0673,-6.0416 -1.445,-0.8931 -1.0739,-9.4575 0.6265,-14.4584 3.051,-8.9727 5.5859,-12.798 10.2263,-15.4322 2.2341,-1.2682 13.5643,-2.5227 17.3604,-1.9222 4.9847,0.7885 16.8541,11.9172 16.8541,15.8022 0,1.4584 0.6793,3.9651 1.5095,5.5706 1.2249,2.3687 1.3395,4.4395 0.6075,10.9816 -1.083,9.6807 -3.2749,13.4261 -10.9876,18.7752 -4.9723,3.4486 -5.9733,3.747 -13.5,4.0244 -6.8238,0.2515 -8.661,-0.033 -11.4396,-1.7719 z m -45.1303,-103.9139 c -2.0836,-1.3991 -2.8437,-11.1299 -2.9772,-38.1138 -0.064,-12.925 -0.3833,-38.125 -0.7095,-56 -0.3262,-17.875 -0.5375,-36.325 -0.4696,-41 0.068,-4.675 0.078,-11.65 0.023,-15.5 -0.449,-31.2623 -0.094,-148.21418 0.5683,-187 0.8553,-50.11794 0.9296,-87.37181 0.2159,-108.39486 -0.6033,-17.77467 -3.3866,-16.42715 32.1161,-15.54905 33.7768,0.8354 82.8174,0.78203 84.2311,-0.0917 0.5452,-0.33693 2.2177,-0.35752 3.7168,-0.0457 3.4095,0.70909 17.0995,0.78369 52.2256,0.28459 18.6689,-0.26526 28.062,-0.0425 29.25,0.69355 1.2841,0.79562 2.2814,0.75244 3.746,-0.1622 1.4495,-0.90525 3.1514,-0.98686 6.2169,-0.29811 2.8449,0.63922 4.6356,0.60421 5.493,-0.1074 0.7699,-0.63896 2.757,-0.7663 5.0331,-0.32255 2.0686,0.40328 12.986,0.60794 24.261,0.4548 11.275,-0.15314 65.95,-0.18715 121.5,-0.0756 55.55,0.11156 101.45,0.12771 102,0.0359 0.55,-0.0918 11.2523,-0.30587 23.7829,-0.47565 l 22.783,-0.30869 7.0297,6.68136 c 3.8663,3.67474 9.1832,9.39729 11.8153,12.71677 2.6321,3.31947 8.5664,9.93428 13.1873,14.69956 4.621,4.76528 13.1268,13.67439 18.9018,19.79802 5.775,6.12364 12.7643,13.47385 15.5319,16.33381 2.7675,2.85995 7.6994,8.50156 10.9598,12.53691 6.1942,7.6664 8.1032,8.14287 4.5252,1.12947 -3.1644,-6.20283 -3.681,-15.29911 -1.2514,-22.03319 3.5588,-9.86353 4.4994,-11.61341 7.1351,-13.27504 1.4297,-0.9013 4.2692,-3.07249 6.31,-4.82486 7.0894,-6.08729 17.7413,-5.03801 24.4214,2.40568 2.0702,2.30682 4.9172,4.90961 6.3267,5.78398 3.5091,2.17688 8.895,18.44652 7.1722,21.66559 -0.622,1.16224 -1.1326,3.60525 -1.1346,5.42891 -0,4.22833 -2.4206,8.15396 -9.0087,14.639 -6.311,6.21221 -10.5759,7.62507 -20.7376,6.86982 -3.9875,-0.29637 -7.25,-0.31925 -7.25,-0.0509 0,0.2684 2.3867,2.82119 5.3037,5.67289 2.917,2.85169 7.9346,8.33489 11.1503,12.18489 8.7857,10.51894 15.809,18.66625 18.046,20.93436 1.1,1.11527 5.7138,6.53629 10.2529,12.0467 4.5391,5.51042 9.2728,11.14394 10.5192,12.51894 2.6834,2.96011 8.7279,12.31588 8.7279,13.50909 0,0.81158 4.1965,11.97951 6.0088,15.99091 1.8978,4.2006 4.168,20.3741 4.0634,28.9487 -0.085,6.9338 -0.548,9.6926 -2.0584,12.2524 -1.072,1.817 -1.695,3.9662 -1.3842,4.7759 0.3107,0.8097 -0.3789,2.9993 -1.5324,4.8656 -1.1534,1.8664 -2.0991,4.2404 -2.1015,5.2754 -0,1.0351 -1.3504,3.907 -2.9957,6.382 -1.6453,2.475 -2.9934,4.9543 -2.9957,5.5095 -0,0.5552 -0.882,1.5575 -1.9548,2.2275 -1.0727,0.6699 -2.2365,2.7427 -2.586,4.6061 -0.3496,1.8634 -2.5172,5.586 -4.817,8.2725 -2.2997,2.6864 -5.5203,6.8663 -7.1569,9.2887 -1.6365,2.4224 -4.2851,5.7974 -5.8858,7.5 -1.6006,1.7026 -3.6288,4.237 -4.507,5.632 -0.8782,1.3949 -2.3922,3.4199 -3.3644,4.5 -13.026,14.4712 -21.2958,25.022 -26.3087,33.5656 -1.3489,2.2989 -8.2922,8.8981 -9.362,8.8981 -0.4378,0 -2.055,1.9125 -3.5939,4.25 -1.5389,2.3375 -3.6297,4.8422 -4.6463,5.5661 -1.0166,0.7238 -2.7091,2.9738 -3.7611,5 -1.7409,3.3527 -9.3913,12.4859 -21.5142,25.6839 -2.5259,2.75 -5.4174,6.2623 -6.4255,7.8051 -1.0081,1.5428 -2.7977,3.4808 -3.9768,4.3067 -1.1791,0.8259 -2.1439,1.9574 -2.1439,2.5144 0,1.0125 -7.7501,10.1157 -15.7347,18.482 -2.3291,2.4404 -6.1541,6.9878 -8.5,10.1053 -2.3459,3.1175 -5.1653,6.5953 -6.2653,7.7284 -1.1,1.1332 -4.8592,5.3011 -8.3539,9.2622 -8.6591,9.815 -9.6932,10.3759 -19.977,10.8353 -4.768,0.213 -9.5691,0.3382 -10.6691,0.2783 -5.5785,-0.3041 -21.0916,-0.1115 -50.5,0.6271 -17.875,0.449 -49.375,0.9317 -70,1.0727 -20.625,0.141 -38.625,0.3263 -40,0.4117 -1.375,0.085 -14.65,0.068 -29.5,-0.039 -14.85,-0.1069 -45,0.1287 -67,0.5237 -34.2186,0.6142 -78.2894,0.8846 -85,0.5213 -3.633,-0.1966 -98.5721,1.0686 -121,1.6125 -13.4528,0.3263 -22.5597,0.1578 -23.4405,-0.4337 z m 53.4405,-7.9004 c 12.1,0.045 24.25,0.119 27,0.1638 2.75,0.045 21.425,-0.3007 41.5,-0.7676 20.075,-0.4669 37.4,-0.8501 38.5,-0.8514 1.1,-0 11.45,0.046 23,0.1061 11.55,0.06 23.475,-0.072 26.5,-0.2914 6.716,-0.4882 6.9965,-0.494 17.25,-0.355 4.5375,0.061 17.025,-0.1966 27.75,-0.5735 10.725,-0.3769 50.1,-0.8939 87.5,-1.149 37.4,-0.255 71.6,-0.7013 76,-0.9918 4.4,-0.2904 17.8055,-0.7321 29.79,-0.9815 11.9845,-0.2494 22.222,-0.7205 22.75,-1.0468 0.528,-0.3263 1.346,-0.3548 1.8177,-0.063 0.4718,0.2915 7.1472,0.5958 14.8344,0.6761 13.3303,0.1392 14.1578,0.03 17.8923,-2.3578 5.1464,-3.2907 8.1731,-6.6582 14.1383,-15.7304 2.7122,-4.125 7.3717,-10.0272 10.3543,-13.1161 2.9827,-3.0888 10.148,-11.1297 15.923,-17.8686 5.775,-6.7389 12.0651,-13.8866 13.978,-15.8839 1.9129,-1.9973 4.7155,-5.5439 6.228,-7.8814 1.5125,-2.3375 3.1795,-4.25 3.7046,-4.25 0.525,0 1.2174,-0.7875 1.5386,-1.75 0.3211,-0.9625 2.8465,-4.225 5.612,-7.25 2.7654,-3.025 6.2102,-7.075 7.655,-9 1.4448,-1.925 4.3497,-5.1694 6.4554,-7.2099 2.1056,-2.0404 3.8284,-4.6279 3.8284,-5.75 0,-1.122 0.5908,-2.0401 1.3129,-2.0401 1.5729,0 5.9356,-4.515 7.73,-8 0.708,-1.375 3.1255,-4.6886 5.3722,-7.3635 6.1463,-7.3178 10.1921,-12.2262 20.0849,-24.3668 4.95,-6.0747 10.1877,-11.7666 11.6394,-12.6485 1.4516,-0.882 2.9483,-2.845 3.3258,-4.3624 0.3775,-1.5173 3.0542,-5.9099 5.9482,-9.7613 2.8939,-3.8514 7.2793,-11.0514 9.7453,-16 2.466,-4.9486 4.9904,-9.8975 5.6098,-10.9975 2.6719,-4.7447 5.4731,-17.0704 5.5376,-24.3665 0.074,-8.3245 -1.7608,-22.8696 -3.4851,-27.6335 -3.2386,-8.94751 -7.6124,-17.38316 -10.5237,-20.2966 -1.8118,-1.81313 -3.9814,-4.62563 -4.8214,-6.25 -0.84,-1.62437 -2.0463,-2.9534 -2.6806,-2.9534 -1.3588,0 -4.9466,-3.83118 -16.6223,-17.75 -4.729,-5.6375 -8.9525,-10.25 -9.3856,-10.25 -0.4331,0 -0.7874,-0.58672 -0.7874,-1.30383 0,-0.71711 -1.627,-2.85461 -3.6156,-4.75 -1.9886,-1.89539 -7.1354,-7.72117 -11.4372,-12.94617 -10.1769,-12.36073 -16.8104,-19.6283 -31.4472,-34.4534 -6.6,-6.68489 -16.5,-16.93659 -22,-22.78155 -5.5,-5.84495 -14.6566,-15.52165 -20.348,-21.50376 -5.6914,-5.98212 -11.0831,-12.08813 -11.9816,-13.56893 -0.8985,-1.4808 -2.1953,-2.69236 -2.8817,-2.69236 -0.6864,0 -2.1508,-1.76947 -3.2541,-3.93215 -1.1033,-2.16268 -2.575,-4.30018 -3.2703,-4.75 -1.7058,-1.10345 -12.0746,-1.28076 -83.2643,-1.42381 -40.6843,-0.0818 -61.4304,-0.47006 -62.2924,-1.16593 -0.9061,-0.73148 -1.6384,-0.69732 -2.45,0.11427 -0.6367,0.63669 -3.0026,1.15762 -5.2576,1.15762 -2.255,0 -4.6209,-0.52093 -5.2576,-1.15762 -0.8532,-0.85319 -1.5107,-0.86464 -2.5,-0.0436 -1.3693,1.13641 -10.7262,0.94726 -12.6734,-0.25619 -0.588,-0.36337 -1.4427,-0.42969 -1.8995,-0.14739 -0.6419,0.39668 -82.4113,1.96504 -91.6695,1.75826 -1.1,-0.0246 -16.175,-0.24509 -33.5,-0.49003 -17.325,-0.24495 -31.5,-0.52471 -31.5,-0.62168 0,-0.37567 -12.5869,-0.16605 -25,0.41636 -7.15,0.33547 -13.9,0.60308 -15,0.59471 -5.9661,-0.0454 -47.2287,0.029 -48.5,0.0876 -0.825,0.038 -20.2298,-0.20617 -43.1219,-0.54253 -35.2461,-0.51789 -41.8022,-0.39432 -42.7989,0.80672 -0.8773,1.05707 -1.3393,28.24783 -1.8139,106.75684 -0.3502,57.9362 -0.6198,108.26354 -0.5992,111.83854 0.5409,93.8045 1.3952,188.7397 1.7665,196.2982 0.2647,5.389 0.062,10.9015 -0.4509,12.25 -0.5802,1.5261 -0.5733,3.3957 0.018,4.9518 0.5808,1.5276 0.5961,3.4321 0.039,4.8965 -0.9753,2.5654 0.2207,4.9453 2.9607,5.8913 0.825,0.2848 6.45,0.3661 12.5,0.1805 6.05,-0.1855 20.9,-0.3002 33,-0.2549 z M 1658,1149.559 c 0,-0.2425 -0.45,-0.7191 -1,-1.059 -0.55,-0.3399 -1,-0.1415 -1,0.441 0,0.5824 0.45,1.059 1,1.059 0.55,0 1,-0.1984 1,-0.441 z m -1401.80811,84.4948 c -4.91005,-1.2244 -12.61867,-8.1226 -13.02555,-11.6561 -0.18352,-1.5938 -0.91413,-3.5727 -1.62358,-4.3977 -4.02981,-4.6862 -4.91014,-16.4457 -1.70011,-22.7102 1.18654,-2.3156 2.15735,-4.7664 2.15735,-5.4462 0,-2.5333 5.37032,-8.8551 10.55684,-12.4272 5.167,-3.5586 5.60317,-3.6734 12.15127,-3.1978 6.66074,0.4838 17.29189,4.1262 17.29189,5.9244 0,0.4932 1.05464,2.5753 2.34365,4.6269 3.51892,5.6007 6.65453,14.7749 6.67084,19.5176 0.0214,6.2242 -3.97031,17.6226 -6.85806,19.5832 -1.31981,0.8961 -3.42739,2.5788 -4.68352,3.7393 -6.26299,5.7863 -15.57832,8.3646 -23.28102,6.4438 z m 698.19149,-2.5099 c -4.27533,-2.8032 -5.74892,-4.6345 -8.9622,-11.1377 -2.94929,-5.9689 -3.88745,-9.1188 -4.02525,-13.5151 -0.0988,-3.1527 -0.46157,-6.1883 -0.8061,-6.7457 -1.05387,-1.7052 5.06387,-12.4646 9.84453,-17.3138 5.71959,-5.8015 10.01377,-7.8316 16.56604,-7.8316 4.22948,0 6.29411,0.6765 11.07945,3.6302 6.4965,4.0098 9.2796,7.1907 13.38591,15.299 2.24744,4.4377 2.62358,6.1725 2.05986,9.5 -0.3793,2.2389 -1.0088,6.3865 -1.39888,9.2168 -0.7185,5.2133 -0.99423,5.7255 -6.91598,12.8482 -4.00799,4.8209 -6.69226,6.4234 -10.83832,6.4704 -1.72015,0.019 -3.68775,0.7104 -4.37244,1.5354 -2.2977,2.7686 -9.85438,1.822 -15.61662,-1.9561 z m 705.48062,0.7508 c -2.5499,-0.3923 -12.864,-9.5737 -12.864,-11.4512 0,-0.5085 -0.9606,-2.2238 -2.1347,-3.8118 -1.1741,-1.588 -1.8977,-3.505 -1.608,-4.2599 0.2897,-0.7549 -0.084,-2.4749 -0.8298,-3.8222 -1.7379,-3.1381 -1.7671,-10.2122 -0.066,-15.9033 1.2874,-4.3061 7.7681,-12.8973 12.3884,-16.423 4.5965,-3.5074 21.275,-1.5897 28.0345,3.2235 4.3079,3.0675 7.9315,10.9615 9.287,20.2319 1.8739,12.8154 -0.9506,19.7704 -10.8077,26.6131 -8.4782,5.8854 -12.5817,6.9598 -21.4001,5.6029 z M 674.5,1230.8045 c -1.1,-0.624 -4.77854,-3.9236 -8.17453,-7.3324 -6.82751,-6.8533 -8.59198,-11.0206 -8.66792,-20.4721 -0.048,-5.9762 2.66246,-13.3384 6.10958,-16.5946 1.10937,-1.048 2.18192,-2.7932 2.38344,-3.8783 0.46526,-2.5053 7.1044,-6.2784 12.48016,-7.0927 6.25983,-0.9482 14.6789,1.1858 19.25373,4.8803 7.8534,6.3421 11.48638,23.5987 7.37998,35.0548 -2.46674,6.8817 -10.48045,14.0822 -17.30049,15.5448 -6.40805,1.3743 -10.91279,1.3376 -13.46395,-0.1098 z m -273.0594,-0.9006 c -0.3726,-0.6029 -2.08665,-0.8798 -3.80902,-0.6154 -3.26185,0.5008 -9.63158,-1.5321 -9.63158,-3.074 0,-0.4881 -2.4846,-2.1446 -5.52134,-3.681 -6.60771,-3.3432 -7.18494,-4.0956 -4.99692,-6.5133 1.35035,-1.4921 1.45438,-2.271 0.5332,-3.9923 -0.62946,-1.1761 -1.22783,-6.2761 -1.32971,-11.3332 -0.18882,-9.3728 -0.15611,-9.4923 4.81477,-17.5836 3.83351,-6.24 9.43866,-10.6571 14.38851,-11.3387 1.86369,-0.2567 5.98418,0.075 9.15666,0.737 12.04314,2.5132 20.78583,14.1768 21.73709,28.9995 0.46544,7.2525 -0.87724,13.4911 -2.90358,13.4911 -0.48327,0 -0.87868,0.8534 -0.87868,1.8964 0,2.6557 -5.73949,7.3998 -13.34174,11.0281 -7.28091,3.4748 -7.29181,3.4775 -8.21766,1.9794 z m 137.38463,0.1507 c -2.02112,-0.3934 -5.29928,-2.1416 -7.28479,-3.885 -1.98552,-1.7433 -4.15687,-3.1879 -4.82524,-3.2102 -0.66836,-0.022 -2.77619,-3.2849 -4.68406,-7.25 -2.97554,-6.1841 -3.46059,-8.2049 -3.41069,-14.2094 0.0411,-4.9395 0.70543,-8.461 2.25705,-11.9635 2.65141,-5.9849 4.08041,-7.6582 10.80378,-12.6507 l 5.18127,-3.8473 9.53192,0.9018 c 8.00675,0.7575 10.09783,1.3334 13.06872,3.5994 1.94525,1.4837 3.53681,3.2114 3.53681,3.8392 0,0.6278 1.04349,2.2669 2.31886,3.6423 6.42842,6.9328 6.06019,20.6762 -0.91539,34.1655 -1.80331,3.4872 -11.09814,9.5018 -16.67126,10.7878 -2.32772,0.5371 -4.45721,0.9359 -4.73221,0.8861 -0.275,-0.05 -2.15365,-0.4125 -4.17477,-0.806 z m 282.26536,-0.1862 c -7.7298,-1.283 -14.87378,-7.4869 -17.48673,-15.1858 -1.91851,-5.6527 -2.04553,-7.0047 -1.75532,-18.6826 0.14536,-5.8491 0.53899,-6.9984 3.93065,-11.4764 5.49934,-7.2609 9.33316,-9.5248 16.11869,-9.518 8.83351,0.01 12.65874,1.543 18.41667,7.3868 3.93866,3.9973 5.72644,6.852 7.43545,11.8726 2.31131,6.7899 3.0056,16.15 1.27717,17.2182 -0.53505,0.3307 -1.43295,2.31 -1.99533,4.3986 -1.22695,4.5565 -8.85157,11.4377 -15.12664,13.6516 -2.28616,0.8067 -4.43758,1.414 -4.78093,1.3497 -0.34335,-0.064 -3.05851,-0.5209 -6.03368,-1.0147 z m -712.50136,-2.2566 c -7.13909,-2.6737 -13.563333,-9.3307 -13.618328,-14.1118 -0.01898,-1.65 -0.695197,-3.8735 -1.502705,-4.9411 -2.169265,-2.8681 -1.866412,-12.4746 0.589714,-18.7058 4.001866,-10.1528 9.648459,-14.1981 21.738079,-15.5732 5.93573,-0.6751 15.65938,3.982 20.1487,9.6503 6.53655,8.253 8.71386,18.8561 5.46753,26.6256 -1.71732,4.1102 -13.0508,16.5622 -14.82658,16.2899 -0.5971,-0.091 -2.21064,0.2984 -3.58564,0.8665 -5.17492,2.1382 -8.49517,2.1151 -14.41077,-0.1004 z m 1683.26737,-0.1233 c -3.7444,-1.9503 -5.4383,-3.7973 -8.75,-9.5413 -2.2586,-3.9176 -4.1066,-8.1818 -4.1066,-9.476 0,-1.2943 -0.45,-2.6313 -1,-2.9712 -1.4462,-0.8938 -1.2081,-8.2688 0.4357,-13.5 2.2894,-7.2854 5.3225,-12.2474 8.8047,-14.4042 1.7928,-1.1104 3.5313,-2.4062 3.8633,-2.8797 0.8816,-1.257 7.692,-2.6648 13.0242,-2.6922 5.0262,-0.026 10.4705,1.8799 15.0572,5.2711 3.4361,2.5404 8.7074,12.415 9.3828,17.5765 0.2611,1.9957 0.7413,5.0913 1.0671,6.8792 0.3723,2.0438 -0.01,4.5132 -1.0214,6.6511 -0.8875,1.8703 -1.6136,4.0837 -1.6136,4.9187 0,2.4816 -9.4235,12.0371 -14.2461,14.4456 -6.199,3.0959 -14.6352,2.9838 -20.8973,-0.2776 z M 955.68106,1070.4389 c -5.1394,-2.665 -7.07237,-4.263 -7.84783,-6.4874 -0.56588,-1.6233 -1.42571,-2.9515 -1.91073,-2.9515 -0.48502,0 -1.81347,-1.8261 -2.95212,-4.0581 -1.6484,-3.2311 -2.09387,-6.0785 -2.18611,-13.9737 -0.11086,-9.4883 0.0206,-10.1352 3.04994,-15.0084 1.74118,-2.801 3.16579,-5.4932 3.16579,-5.9828 0,-2.3892 7.81586,-9.0464 12.12804,-10.3301 4.28287,-1.275 5.17785,-1.1983 12,1.0285 4.05458,1.3234 8.59589,2.5898 10.0918,2.8141 1.49591,0.2243 3.73054,0.9488 4.96585,1.6099 l 2.24601,1.202 -2.16043,1.4345 -2.16042,1.4344 2.82793,3.9039 c 3.19964,4.417 5.67476,17.3348 4.57204,23.8618 -1.69188,10.0141 -8.80406,18.0539 -19.64583,22.2081 -8.15517,3.1247 -8.85733,3.0941 -16.18393,-0.7052 z M 822.5,1070.7677 c -6.29239,-2.2536 -13.95375,-10.7865 -15.1772,-16.9037 -0.31962,-1.5981 -0.973,-3.1478 -1.45196,-3.4438 -1.16708,-0.7213 -1.11993,-14.1482 0.0522,-14.8727 0.50769,-0.3137 1.21293,-1.8902 1.5672,-3.5032 0.35428,-1.613 2.16272,-4.9215 4.01876,-7.3523 2.95778,-3.8737 4.17921,-4.6217 9.88832,-6.0558 8.89538,-2.2345 10.51919,-2.0993 17.23751,1.4347 7.19847,3.7867 10.87687,7.9182 12.84874,14.4317 2.63805,8.7139 2.22674,15.279 -1.34938,21.538 -3.47783,6.0871 -9.10332,12.0203 -13.63917,14.3854 -3.40552,1.7757 -9.57069,1.9262 -13.99504,0.3417 z m -142,-1.8169 c -3.96812,-2.5171 -11.06903,-10.3855 -14.23531,-15.7738 -4.82084,-8.204 -1.64147,-20.6627 7.63849,-29.9323 5.34968,-5.3436 7.24044,-6.1985 15.16764,-6.8576 7.07133,-0.588 7.57369,-0.4881 10.42918,2.0737 7.77505,6.9755 9.59794,9.1168 12.48768,14.6693 3.07335,5.9052 3.09368,6.044 2.14699,14.6594 -0.85707,7.7998 -1.25756,8.9565 -3.87933,11.2041 -1.60798,1.3785 -3.19278,3.2513 -3.52178,4.1618 -0.329,0.9104 -2.62222,3.0479 -5.09604,4.75 -3.99108,2.7459 -5.26628,3.0864 -11.3177,3.0215 -4.88969,-0.052 -7.66887,-0.6117 -9.81982,-1.9761 z m -573.20708,-2.9982 c -8.892345,-5.6538 -12.602336,-13.0536 -12.52763,-24.9871 0.05951,-9.5068 2.415712,-13.6709 10.20702,-18.039 11.98743,-6.7206 12.10145,-6.7582 18.26445,-6.0154 11.31802,1.364 18.12921,9.3424 19.36452,22.6827 0.77514,8.3708 -0.34523,12.5462 -4.90464,18.2787 -5.82784,7.3272 -11.42895,10.8172 -18.28889,11.3956 -5.75108,0.4849 -6.42951,0.2992 -12.11483,-3.3155 z m 429.87978,2.4259 c -3.80668,-1.9486 -11.9856,-11.5176 -12.58772,-14.7272 -0.22198,-1.1832 -0.91709,-4.4013 -1.54471,-7.1513 -3.04833,-13.3568 -3.05808,-12.4368 0.19758,-18.6477 4.34464,-8.2883 12.91848,-15.5412 19.37226,-16.3876 4.4682,-0.5859 5.687,-0.236 14.13327,4.0575 9.31181,4.7335 15.25662,9.951 15.25662,13.3902 0,1.0135 0.7322,2.4504 1.6271,3.1931 3.2352,2.685 0.23342,20.2756 -4.06932,23.8466 -0.85678,0.711 -1.55778,1.8661 -1.55778,2.5668 0,1.5021 -6.55837,7.4811 -8.20606,7.4811 -0.62505,0 -1.95682,0.7424 -2.95949,1.6498 -2.7425,2.482 -15.32564,2.9483 -19.66175,0.7287 z m 1258.0041,-0.062 c -5.0313,-2.4793 -11.7783,-9.5361 -14.8124,-15.4923 -2.2962,-4.5077 -2.6909,-6.4752 -2.5723,-12.8246 0.1776,-9.5117 2.447,-15.7203 8.2079,-22.455 4.0936,-4.7855 5.1322,-5.416 11.5,-6.981 12.4779,-3.0667 15.1232,-3.0941 19.2934,-0.1997 7.5937,5.2703 10.237,8.2915 12.2396,13.9893 2.8025,7.9737 3.7456,20.1091 1.7411,22.4047 -0.8364,0.958 -1.8054,3.3347 -2.1534,5.2817 -0.6464,3.6174 -7.4438,11.1442 -14.2751,15.807 -3.9619,2.7042 -14.1289,2.9534 -19.1688,0.4699 z M 398,1068.3512 c -7.08911,-1.0676 -9.90153,-2.525 -13.61313,-7.0546 -4.56232,-5.5677 -8.33216,-13.3137 -8.59856,-17.6678 -0.91566,-14.9656 6.47064,-26.8825 18.34842,-29.6029 6.53268,-1.4962 11.65328,-0.8099 14.8877,1.9953 1.25488,1.0883 2.65757,1.9788 3.11711,1.9788 0.45954,0 2.843,2.7589 5.29659,6.1308 5.0777,6.9783 8.30283,17.7901 6.62393,22.206 -0.5139,1.3516 -0.68406,2.7079 -0.37812,3.0138 1.97708,1.9771 -6.53205,13.3625 -11.68394,15.6333 -1.375,0.6061 -3.625,1.751 -5,2.5443 -2.46202,1.4204 -4.06148,1.5667 -9,0.823 z m -137.14894,-1.4915 c -4.70368,-1.0138 -10.9711,-4.2924 -13.62883,-7.1295 -2.74558,-2.9309 -7.73175,-14.1715 -8.534,-19.2387 -0.66951,-4.2288 1.01199,-12.3285 3.41126,-16.4318 2.2701,-3.8824 9.67193,-10.8574 13.39824,-12.6256 4.47246,-2.1224 16.57951,-0.8681 19.00227,1.9685 0.55,0.644 2.46929,2.2023 4.26509,3.463 1.7958,1.2606 3.98594,3.7191 4.86697,5.4632 0.88104,1.7442 2.38717,4.0712 3.34697,5.1712 2.47818,2.8402 4.33314,11.0482 3.04202,13.4607 -0.56158,1.0493 -1.02105,3.2783 -1.02105,4.9533 0,11.5821 -16.07965,23.547 -28.14894,20.9457 z M 109.41671,915.15446 C 105.05806,913.11843 97.399451,903.60395 96.413307,899 c -0.294519,-1.375 -1.174686,-3.96034 -1.955926,-5.74519 -0.951647,-2.17417 -1.207911,-4.79575 -0.776482,-7.94337 0.940999,-6.86534 6.319341,-19.25477 10.656131,-24.54726 3.50051,-4.27191 4.2679,-4.69065 10.70377,-5.84081 6.22949,-1.11327 7.34672,-1.05237 11.01148,0.6002 3.90165,1.75941 13.94772,11.56866 13.94772,13.61894 0,0.53974 1.21309,3.54097 2.69575,6.66942 3.72742,7.86492 3.50981,14.18579 -0.79252,23.02108 C 138.1626,906.51476 136.28592,909 134.22582,909 c -0.80531,0 -4.13219,1.62072 -7.39308,3.6016 -7.29633,4.43229 -11.93654,5.11246 -17.41603,2.55286 z m 149.09508,-1.13538 c -0.33343,-0.5395 -3.5123,-2.42721 -7.06416,-4.19491 -5.24579,-2.61074 -6.83236,-3.98747 -8.45278,-7.33481 C 241.89768,900.22291 241,897.70063 241,896.88428 c 0,-0.81636 -0.43043,-1.91471 -0.95652,-2.4408 -0.98779,-0.98779 -1.48131,-14.4016 -0.66017,-17.94348 0.25502,-1.1 0.4981,-2.75675 0.54018,-3.68167 0.0761,-1.67219 5.62158,-7.33526 13.92112,-14.21628 3.83615,-3.18049 4.99346,-3.60205 9.88868,-3.60205 5.26245,0 5.89815,0.28968 12.5146,5.70281 3.83379,3.13654 7.23238,6.39904 7.55242,7.25 0.32004,0.85095 2.33415,3.77349 4.47579,6.49452 3.40533,4.32658 3.83597,5.45582 3.43224,9 C 290.73546,891.98769 283.90827,906 280.72004,906 c -0.51223,0 -2.26831,1.125 -3.90241,2.5 -1.63409,1.375 -3.65308,2.5 -4.48663,2.5 -0.83355,0 -2.65971,0.9 -4.05813,2 -2.65044,2.08483 -8.71133,2.71761 -9.76108,1.01908 z M 537.5,912.90018 c -5.03894,-2.68438 -8.5,-5.82104 -8.5,-7.70329 0,-0.79997 -1.575,-3.19783 -3.5,-5.32857 -3.26359,-3.6124 -4.19171,-6.61842 -3.66441,-11.86832 0.0829,-0.825 0.2011,-5.1 0.26274,-9.5 0.1248,-8.90779 0.9906,-11.15145 6.57326,-17.03421 C 532.47503,857.4579 540,852.19373 540,853.54089 c 0,0.3872 0.73875,0.0909 1.64166,-0.65846 2.57628,-2.13812 13.24887,-1.46958 17.60918,1.10306 4.45177,2.62661 10.55278,9.93949 11.90511,14.26987 4.45182,14.25546 4.11758,23.52656 -1.14377,31.72567 -3.77965,5.89007 -6.29065,8.17348 -12.51218,11.37811 -7.13367,3.67447 -14.87552,4.27099 -20,1.54104 z m 140.51888,1.07649 c -3.01027,-0.70789 -7.99906,-5.15373 -8.01391,-7.14172 -0.003,-0.36578 -0.95695,-1.73382 -2.12048,-3.04009 -3.77946,-4.24314 -5.88279,-11.5953 -5.88368,-20.5663 -7.1e-4,-7.2496 0.32271,-8.76031 2.61795,-12.22866 1.44032,-2.17646 6.19125,-6.65465 10.55763,-9.95153 8.58625,-6.48312 7.92892,-6.33829 20.3678,-4.48783 3.07143,0.45692 10.502,7.25522 13.5964,12.43946 3.76744,6.31184 5.26718,22.15204 2.47479,26.13873 -0.88846,1.26845 -1.61538,3.06791 -1.61538,3.99879 0,2.11177 -7.86382,9.14276 -14.5,12.96435 -5.23742,3.01608 -10.31301,3.56043 -17.48112,1.8748 z m 142.27496,-2.60931 C 808.91028,904.68569 803.7274,890.28963 807.92089,877 c 2.41126,-7.64153 4.19139,-10.47064 9.49474,-15.08964 3.64809,-3.17735 4.43381,-3.42405 11.5,-3.61077 9.27204,-0.245 13.55876,1.00205 15.65749,4.5549 0.87987,1.4895 2.85241,3.4271 4.38343,4.30579 2.71908,1.56054 7.06456,9.33052 8.42172,15.05853 1.44145,6.08375 -3.78331,19.98356 -9.55174,25.4112 -4.93645,4.64481 -7.24365,5.50964 -15.67262,5.87469 -6.68518,0.28953 -8.18627,0.019 -11.86007,-2.13734 z m -424.96617,0.67055 c -3.05615,-0.72594 -11.83389,-6.53309 -14.21896,-9.40693 -0.63592,-0.76622 -1.87979,-4.03415 -2.76416,-7.26206 -4.48013,-16.35219 0.52281,-31.73766 12.15061,-37.36658 4.57195,-2.21324 7.53671,-2.53455 12.00484,-1.30103 4.33856,1.19775 13.5,6.16225 13.5,7.31554 0,0.54073 0.5625,1.01564 1.25,1.05535 2.00372,0.11573 6.87331,6.61769 8.00494,10.68832 2.64339,9.50866 -0.0198,18.77792 -7.92693,27.58947 -4.56395,5.086 -7.75993,7.13288 -12.32801,7.89553 -1.925,0.32138 -4.175,0.80069 -5,1.06513 -0.825,0.26444 -2.92755,0.14171 -4.67233,-0.27274 z M 382,876 c 0,-0.55 -0.45,-1 -1,-1 -0.55,0 -1,0.45 -1,1 0,0.55 0.45,1 1,1 0.55,0 1,-0.45 1,-1 z m 577.20719,33.80892 c -2.36105,-1.7756 -6.11036,-6.10625 -8.33181,-9.62367 -3.7604,-5.95416 -4.04687,-6.92262 -4.15312,-14.04027 -0.18325,-12.27584 5.25529,-21.54063 15.6219,-26.61253 4.89522,-2.39501 5.44558,-2.46299 9.1816,-1.13406 2.18583,0.77751 5.8942,1.92625 8.24082,2.55275 5.32449,1.42152 10.88754,6.1976 11.74011,10.0793 0.35595,1.62065 1.06256,3.20334 1.57025,3.51711 0.50768,0.31377 0.92306,1.64237 0.92306,2.95245 0,1.31008 0.45,2.66008 1,3 1.34505,0.83129 1.27651,11.11482 -0.0911,13.67025 -0.60012,1.12132 -1.16262,3.31199 -1.25,4.86815 -0.16443,2.92798 -2.22019,4.80716 -11.65889,10.6574 -3.60981,2.23741 -5.88473,2.84379 -11.5,3.06533 -6.53833,0.25795 -7.28313,0.0632 -11.29281,-2.95221 z M 1798.5,908.01979 c -4.6622,-3.05687 -11.5476,-11.07024 -13.6212,-15.8527 -3.4483,-7.95256 -2.2867,-18.99116 2.8712,-27.28512 1.2375,-1.98992 2.25,-4.06473 2.25,-4.61068 0,-0.54595 2.7532,-2.46008 6.1182,-4.25361 5.7108,-3.04383 6.6264,-3.23128 13.75,-2.81521 8.4009,0.49068 12.8828,2.62634 18.7586,8.93849 5.7494,6.17641 7.2197,19.70408 3.3997,31.27888 -0.9959,3.01754 -8.8484,10.83713 -14.886,14.82357 -3.8298,2.52864 -14.6407,2.39895 -18.6405,-0.22362 z M 111.71926,757.32462 c -4.61938,-2.43071 -10.52767,-8.68326 -11.19511,-11.84741 -0.576489,-2.73302 -2.412834,-7.37383 -4.635017,-11.71364 -1.264411,-2.46933 -1.100009,-10.31221 0.317523,-15.14755 1.645727,-5.61374 7.094774,-13.98698 11.039774,-16.96421 7.18215,-5.42024 14.44848,-5.40858 24.3842,0.0391 5.55355,3.04498 6.37863,3.93322 8.76521,9.43622 1.56764,3.61468 3.09761,9.77993 3.77795,15.22384 1.12469,8.99949 1.10033,9.23074 -1.49089,14.14902 -3.36407,6.38521 -5.09115,8.31796 -10.94843,12.25229 -3.77531,2.53588 -15.12362,6.66514 -16.87881,6.14163 -0.19562,-0.0583 -1.60699,-0.76453 -3.1364,-1.5693 z m 848.712,-0.6507 c -6.49792,-2.48573 -12.16503,-9.46449 -14.75815,-18.17392 -0.81878,-2.75 -2.25535,-6.79312 -3.19239,-8.98472 -2.12718,-4.97516 -1.51523,-11.34424 1.69741,-17.66647 2.35475,-4.63397 11.40605,-13.28254 15.63697,-14.94121 3.12596,-1.22548 9.42815,-1.14581 12.8698,0.1627 1.54831,0.58866 2.93232,1.02955 3.07558,0.97974 0.81982,-0.28503 6.23952,3.16072 6.23952,3.96699 0,0.53111 1.57512,3.02918 3.50026,5.55125 1.92514,2.52207 3.79228,5.78847 4.14919,7.25865 0.35692,1.47019 1.2568,3.5607 1.99975,4.64558 0.82529,1.20513 1.3508,4.76089 1.3508,9.13999 0,6.90283 -0.16313,7.38908 -4.41807,13.16901 -2.42994,3.30084 -5.62281,6.83784 -7.09527,7.86001 -1.47245,1.02216 -3.5073,2.61896 -4.52189,3.54844 -1.87587,1.71852 -10.03717,4.8725 -12.24972,4.73396 -0.66828,-0.0418 -2.59598,-0.60434 -4.28379,-1.25 z M 262,755.10809 c -3.72278,-0.6468 -10.13886,-3.88814 -13.588,-6.86451 -2.99639,-2.58569 -9.49887,-11.29179 -9.02138,-12.07863 0.22194,-0.36572 0.0494,-4.25695 -0.38345,-8.64718 -0.69428,-7.04199 -0.56437,-8.26524 1.10292,-10.38486 1.03945,-1.32145 1.88991,-2.96827 1.88991,-3.65962 0,-2.86802 9.47143,-11.68555 16.18229,-15.06509 6.42621,-3.23619 7.16584,-3.3919 11.10132,-2.3371 4.33892,1.16294 14.49362,8.96402 15.40414,11.83383 0.27834,0.87729 1.63761,3.77309 3.02059,6.43512 1.98726,3.82518 2.54357,6.44838 2.65308,12.51035 0.13587,7.52023 0.0449,7.82071 -4.65074,15.35905 -3.86157,6.19936 -5.82226,8.27975 -10.12172,10.73965 -5.32045,3.04405 -6.97857,3.30749 -13.58896,2.15899 z m 136,-1.67403 c -4.6218,-2.65236 -10.2709,-8.00978 -13.1155,-12.43831 -2.73317,-4.25506 -2.89108,-14.48628 -0.33245,-21.54037 4.0372,-11.13052 7.40366,-15.81914 15.17199,-21.1307 2.98258,-2.03933 12.04979,-2.30274 13.23738,-0.38456 0.49039,0.79207 2.35575,2.14207 4.14526,3 3.54831,1.70115 12.72751,12.56739 12.82978,15.18776 0.0349,0.89533 0.73854,3.24337 1.56354,5.21788 1.91248,4.5772 1.98554,14.00639 0.12051,15.55422 -0.75871,0.62968 -1.64382,2.37228 -1.96691,3.87245 -0.66354,3.08103 -7.34407,10.83554 -10.94371,12.70306 -1.30747,0.67832 -5.48956,1.52754 -9.29355,1.88717 -6.26401,0.59218 -7.34077,0.41028 -11.41634,-1.9286 z m 842.4852,0.45243 c -7.3213,-3.88277 -12.0189,-8.43125 -13.4762,-13.04848 -0.7531,-2.38591 -1.6878,-4.78801 -2.0772,-5.33801 -1.5639,-2.20924 -2.1217,-11.62879 -0.8764,-14.79981 C 1229.2945,707.35934 1234.3956,700 1238.4036,700 c 1.208,0 2.6239,-0.41129 3.1464,-0.91399 2.7651,-2.6603 13.3459,-0.34422 17.5278,3.83676 3.6563,3.6554 9.0104,8.07723 9.7803,8.07723 1.2929,0 3.4065,7.63163 3.8636,13.95067 1.0627,14.6886 -7.1842,26.47204 -20.9145,29.88338 -6.2291,1.54763 -6.6898,1.50907 -11.322,-0.94756 z M 1388,755.32134 c -1.925,-0.21625 -4.7232,-0.87567 -6.2181,-1.46538 -2.7725,-1.09362 -9.7819,-8.81417 -9.7819,-10.77426 0,-0.59493 -0.4087,-1.0817 -0.9082,-1.0817 -1.5013,0 -5.0948,-12.05684 -5.0502,-16.94417 0.076,-8.32048 4.7586,-17.28318 12.7855,-24.47174 4.3246,-3.87285 17.1644,-7.02495 18.6729,-4.58409 0.3399,0.55 1.4703,1 2.5119,1 1.0416,0 3.3555,1.81877 5.1419,4.04172 1.7864,2.22294 4.3652,4.58544 5.7306,5.25 2.9848,1.45267 6.9429,12.59045 7.0483,19.83344 0.093,6.37259 -5.5038,18.41224 -10.2846,22.12484 -1.9477,1.5125 -4.0335,2.75 -4.6352,2.75 -0.6016,0 -2.3132,0.87878 -3.8034,1.95284 -3.1325,2.25769 -6.2785,2.92243 -11.2095,2.3685 z M 677.94747,753.648 c -6.28307,-2.82581 -12.93094,-10.63229 -12.94235,-15.198 -0.003,-1.1275 -0.54599,-2.59087 -1.20704,-3.25192 -1.70665,-1.70665 -1.60591,-15.74287 0.15213,-21.19808 1.70114,-5.27864 4.83125,-9.71309 11.04979,-15.65431 3.84263,-3.67127 5.12138,-4.30272 8.75362,-4.32251 2.38426,-0.013 5.89357,0.85578 7.9852,1.97682 2.05236,1.1 4.4533,2 5.33543,2 1.85362,0 9.80696,8.45566 13.01135,13.83312 3.08958,5.18479 3.78615,15.59886 1.35328,20.23225 -0.9919,1.88905 -1.86881,4.1895 -1.9487,5.11212 -0.19383,2.23844 -6.66715,10.75245 -8.205,10.79159 -0.66815,0.017 -1.71687,0.96902 -2.33049,2.11558 -0.61362,1.14656 -2.54195,2.65819 -4.28518,3.35917 -3.9865,1.60303 -13.35732,1.71745 -16.72204,0.20417 z M 1102.5,752.63375 c -3.9171,-1.83287 -9.991,-8.21251 -12.4951,-13.12406 -3.1883,-6.25375 -4.2231,-14.22011 -2.9299,-22.55535 0.619,-3.98932 1.5383,-7.74854 2.0429,-8.35382 0.5045,-0.60529 2.2553,-3.00341 3.8905,-5.32916 1.6353,-2.32575 4.1023,-4.51203 5.4824,-4.85841 1.3801,-0.34637 2.5092,-1.2035 2.5092,-1.90473 0,-2.69951 10.8559,-3.43788 15,-1.02023 1.375,0.80218 3.85,2.11176 5.5,2.91017 4.8787,2.36074 10.095,8.63242 10.7925,12.97587 0.3421,2.13071 1.2812,4.60571 2.0868,5.5 2.2527,2.50047 2.9912,6.92403 1.8306,10.96487 -0.5784,2.0136 -1.5276,5.48145 -2.1095,7.70632 -1.4038,5.36759 -7.1898,11.95968 -13.1468,14.9783 -6.0701,3.07594 -14.363,4.02427 -18.4536,2.11023 z M 1515.2116,750.75 c -4.1312,-3.35275 -6.1505,-6.64195 -9.3534,-15.23588 -3.5044,-9.40303 -1.5591,-23.0146 4.4934,-31.4408 3.6542,-5.08727 5.7591,-6.36018 13.3261,-8.05881 4.3163,-0.96891 6.1464,-0.88709 11,0.49176 3.2023,0.90973 6.9334,1.96142 8.2914,2.33709 1.358,0.37567 3.158,1.98931 4,3.58586 0.842,1.59656 2.2947,3.70438 3.2282,4.68405 2.4796,2.60238 4.1788,9.46876 4.1788,16.88673 0,9.3987 -1.724,14.32442 -6.5606,18.74382 -2.2609,2.0659 -5.0568,4.70289 -6.2131,5.85998 -3.1778,3.1799 -9.9605,5.3962 -16.5145,5.3962 -5.1363,0 -6.3732,-0.40703 -9.8763,-3.25 z m 286.2884,1.51718 c -12.114,-6.14043 -20.0299,-24.16307 -16.5984,-37.79079 2.9133,-11.56972 15.3833,-22.45157 23.8978,-20.85424 5.3785,1.00901 14.6931,5.95433 16.5484,8.78588 0.899,1.37207 2.7433,3.52906 4.0984,4.79332 5.3551,4.99595 6.7896,22.08474 2.4512,29.1994 -1.0395,1.70459 -1.8916,3.79847 -1.8937,4.65308 -0.01,3.1075 -6.2717,7.81134 -12.0078,9.01665 -3.0227,0.63517 -6.2063,1.77916 -7.0746,2.54219 -1.9879,1.74685 -5.5513,1.61618 -9.4213,-0.34549 z M 546.12025,751.92043 c -2.40886,-0.47324 -5.55106,-1.62792 -6.98268,-2.56594 -2.93015,-1.91992 -8.91342,-8.04287 -10.10569,-10.34163 -1.02589,-1.97798 -2.41152,-14.5472 -2.09189,-18.97578 0.33606,-4.6562 3.52981,-11.20685 7.66486,-15.72128 1.86733,-2.03865 3.39515,-4.01742 3.39515,-4.39728 0,-0.37985 1.64925,-1.47326 3.66499,-2.42979 6.78589,-3.22011 19.1528,-0.25334 22.74375,5.45614 0.49981,0.79467 1.87615,2.36967 3.05853,3.5 9.28051,8.8719 9.20012,29.92344 -0.14779,38.70326 -7.94214,7.45948 -11.6584,8.64668 -21.19923,6.7723 z m 1110.79305,-1.25366 c -8.5957,-4.0606 -11.4317,-7.52947 -12.4809,-15.26618 -0.3542,-2.61193 -1.2714,-6.52716 -2.0382,-8.7005 -0.7668,-2.17335 -1.3942,-5.69377 -1.3942,-7.82315 0,-5.04421 5.2076,-16.03243 9.1839,-19.37825 3.8577,-3.24598 10.1523,-6.49869 12.5763,-6.49869 1.0119,0 2.3535,-0.51374 2.9814,-1.14164 0.8556,-0.85551 2.0087,-0.7302 4.6012,0.5 1.9027,0.9029 4.1439,1.64164 4.9805,1.64164 0.8366,0 3.3448,2.13357 5.5738,4.74127 2.9831,3.4899 4.207,5.93126 4.6373,9.25 0.3215,2.4798 1.4572,6.35692 2.5239,8.61583 2.9374,6.22105 4.1364,13.84777 2.6959,17.14979 -2.1381,4.90117 -8.8301,13.32104 -11.5619,14.54709 -1.4657,0.65781 -3.4585,1.98352 -4.4286,2.94602 -2.5458,2.526 -11.9168,2.21982 -17.8504,-0.58323 z M 814.25,749.07187 c -1.7875,-1.12336 -3.25,-2.43438 -3.25,-2.91337 0,-0.47899 -1.575,-2.93361 -3.5,-5.45471 -2.11566,-2.77079 -3.5,-5.71501 -3.5,-7.4438 0,-1.57299 -0.50288,-3.36287 -1.11751,-3.9775 -1.57857,-1.57857 -0.5733,-13.95903 1.4845,-18.28249 0.91622,-1.925 3.12097,-5.57522 4.89944,-8.1116 1.77846,-2.53637 3.68357,-5.36746 4.23357,-6.2913 0.76688,-1.28815 2.98148,-1.79964 9.5,-2.19416 7.89204,-0.47764 8.88403,-0.31376 13.86918,2.29131 3.70797,1.93766 5.90717,3.88864 7.10803,6.30575 0.95637,1.925 2.73482,5.44488 3.9521,7.82196 1.21728,2.37708 2.43962,5.30208 2.71631,6.5 1.0331,4.47279 0.17772,14.28897 -1.59418,18.29465 -2.2598,5.10866 -8.70293,12.38339 -10.9678,12.38339 -0.926,0 -2.19334,0.5097 -2.81631,1.13267 -0.62297,0.62297 -4.87547,1.3237 -9.45,1.55718 -7.10934,0.36284 -8.78935,0.12785 -11.56733,-1.61798 z m 989.185,-142.48494 c -4.2695,-1.85938 -11.9589,-11.18465 -14.1199,-17.12402 -2.2474,-6.17663 -2.3406,-22.58463 -0.1503,-26.46291 5.2796,-9.34837 8.2245,-12.94306 13.0725,-15.95671 5.0382,-3.13197 5.5969,-3.25031 13.4077,-2.84035 8.1092,0.42563 8.1775,0.45214 13.5005,5.23799 7.733,6.95263 10.3578,13.38805 10.1303,24.83694 -0.1424,7.16453 -0.5514,9.25702 -2.2251,11.38486 -1.1279,1.43384 -2.0507,3.47772 -2.0507,4.54195 0,2.17211 -4.553,9.14812 -8.1558,12.49603 -2.5342,2.35496 -12.3032,5.32454 -17.3043,5.26015 -1.6719,-0.0215 -4.4191,-0.6398 -6.1049,-1.37393 z M 823.47251,604.6492 c -1.08488,-0.74295 -3.20432,-1.65009 -4.70986,-2.01588 -1.50554,-0.36579 -3.50001,-1.89543 -4.43214,-3.3992 -0.93214,-1.50376 -2.79265,-3.94096 -4.13447,-5.41599 -2.86908,-3.1539 -4.45825,-9.28886 -4.26004,-16.44578 0.21589,-7.79503 9.70654,-25.8193 16.08745,-30.55267 3.74281,-2.77641 9.28323,-3.37656 13.35114,-1.44622 1.88522,0.8946 4.04293,1.62654 4.79492,1.62654 1.34254,0 10.82755,8.43298 14.21863,12.64157 2.54474,3.15821 3.87019,17.77606 2.01572,22.23055 -0.77212,1.85467 -1.40386,4.13873 -1.40386,5.07569 0,0.93696 -1.125,2.76044 -2.5,4.05219 -1.375,1.29175 -2.5,2.88718 -2.5,3.54541 0,0.65823 -1.57193,2.26729 -3.49317,3.57569 -1.92124,1.30839 -3.49624,2.72301 -3.5,3.1436 -0.004,0.42058 -1.46933,1.6564 -3.25683,2.74626 -3.84882,2.34667 -13.24478,2.71509 -16.27749,0.63824 z m 27.06861,-29.71573 c 0.92034,-1.48915 -0.14673,-2.29879 -2.06137,-1.56407 -0.88358,0.33906 -1.32643,1.06965 -0.98412,1.62354 0.81058,1.31154 2.21511,1.28411 3.04549,-0.0595 z m -588.31754,28.6343 c -2.35203,-0.7548 -5.35029,-2.076 -6.6628,-2.93599 -3.49254,-2.2884 -11.51063,-10.92084 -11.5376,-12.42162 C 244.01043,587.50075 243.1,585.15618 242,583 c -2.79516,-5.47897 -2.54593,-7.79525 1.91076,-17.75781 3.3157,-7.41199 4.72317,-9.37485 9.25,-12.90011 8.75999,-6.82182 14.82935,-7.49598 24.14624,-2.6821 2.83877,1.46675 8.693,9.59943 8.693,12.07629 0,0.73959 0.98653,2.67907 2.1923,4.30996 1.77319,2.39836 2.26,4.63691 2.54646,11.7095 0.38689,9.55233 -0.68197,13.04021 -4.51563,14.73533 -1.23276,0.54508 -2.49884,1.80226 -2.81352,2.79374 -0.75438,2.37683 -10.10109,8.53234 -13.90961,9.16052 -1.65,0.27215 -4.92439,-0.12275 -7.27642,-0.87755 z M 1389.5,602.83922 c -2.2,-0.45685 -4.9539,-1.05144 -6.1198,-1.3213 -1.1658,-0.26985 -4.4283,-3.48111 -7.25,-7.13613 -4.5825,-5.93599 -5.1302,-7.17224 -5.1302,-11.57938 0,-2.71364 -0.4353,-5.74731 -0.9674,-6.7415 -0.6957,-1.29986 -0.2513,-4.02006 1.5821,-9.68425 4.7445,-14.6584 7.4482,-18.01262 17.1731,-21.30484 5.0299,-1.70278 5.404,-1.69712 10.9599,0.16569 6.9095,2.3166 9.6083,4.64518 13.0533,11.26249 8.9729,17.23565 9.367,27.33418 1.4261,36.54418 -1.2501,1.44987 -2.8371,3.4078 -3.5268,4.35094 -0.6896,0.94315 -2.8168,2.10802 -4.7271,2.5886 -1.9102,0.48059 -5.4982,1.50657 -7.9732,2.27997 -3.092,0.96619 -5.7516,1.14627 -8.5,0.57553 z M 113.13298,599.22353 c -9.25608,-3.88524 -13.02804,-8.83962 -15.247785,-20.02762 -1.667132,-8.4027 -1.659211,-8.72488 0.346299,-14.08509 1.128851,-3.01712 3.057786,-6.41384 4.286516,-7.54825 1.22873,-1.13441 3.99594,-3.68489 6.14937,-5.66774 5.79464,-5.33562 14.07733,-5.98398 24.72564,-1.9355 3.2711,1.24366 10.41071,8.39424 11.65863,11.67652 1.50741,3.96478 0.40804,19.26565 -1.79598,24.99611 -3.05111,7.93292 -6.59658,11.92226 -12.23473,13.7664 -6.70977,2.19465 -10.44503,1.94933 -17.88796,-1.17483 z M 539,600.87818 c -3.86678,-1.53906 -12,-6.97674 -12,-8.02292 0,-0.51493 -0.89111,-2.15552 -1.98024,-3.64575 -2.43515,-3.33194 -3.19072,-10.41127 -2.06664,-19.36345 0.67469,-5.37326 1.64764,-7.96028 4.69888,-12.49409 4.93116,-7.32719 9.20141,-9.60028 18.16532,-9.66957 5.55712,-0.043 7.48711,0.41736 11.45874,2.73303 2.62684,1.53158 5.4509,4.08967 6.27568,5.68463 0.82479,1.59497 1.89404,2.89994 2.37612,2.89994 0.81705,0 2.90666,4.58649 3.6448,8 0.1784,0.825 1.06381,4.15246 1.96757,7.39436 1.18918,4.26569 1.36306,6.47616 0.62929,8 -0.55766,1.1581 -1.28918,3.36974 -1.62561,4.91475 C 569.87042,590.40208 562.48013,599 560.49508,599 c -0.6876,0 -1.81039,0.675 -2.49508,1.5 -1.45736,1.75602 -14.86765,2.02293 -19,0.37818 z m 142.28598,0.21394 c -2.3177,-0.39436 -5.05314,-1.47641 -6.07874,-2.40457 C 674.18164,597.7594 673.06091,597 672.71671,597 c -0.86938,0 -5.45867,-4.67464 -7.18142,-7.31497 -0.78412,-1.20177 -1.90813,-5.21729 -2.49781,-8.92339 -1.66465,-10.46223 0.53229,-17.91601 7.52436,-25.52871 1.88573,-2.05311 3.43075,-4.05887 3.43338,-4.45725 0.007,-1.12295 5.10335,-3.43574 9.20621,-4.17823 5.26185,-0.95224 13.45643,1.88365 18.04857,6.24605 2.0625,1.95932 3.75,3.93072 3.75,4.38089 0,0.45017 1.09876,2.49634 2.44169,4.54705 3.78755,5.78373 5.11873,12.47519 3.49126,17.54962 -3.04567,9.49637 -7.36649,15.44988 -13.68599,18.8574 -5.79225,3.12323 -10.10369,3.91028 -15.96098,2.91366 z M 1243.5,600.58597 c -9.2527,-3.62525 -14.9055,-9.91595 -18.5008,-20.58844 -1.7012,-5.04987 -2.0097,-7.59894 -1.4761,-12.19647 0.371,-3.19677 1.2567,-6.14728 1.9681,-6.55668 0.7115,-0.40941 1.9978,-2.44087 2.8585,-4.51436 2.5392,-6.11698 9.3739,-13.45906 14.2694,-15.32866 3.7794,-1.44336 4.9997,-1.49374 9.122,-0.37662 12.2363,3.31599 19.5807,10.67051 24.091,24.12417 2.3978,7.15217 1.8276,11.91987 -2.4711,20.66237 -4.0641,8.26557 -7.4728,11.02982 -17.5845,14.26012 -6.7333,2.15101 -7.9677,2.20276 -12.2765,0.51457 z m 415.7475,-0.23484 c -4.0161,-1.97977 -11.8747,-8.80791 -13.4695,-11.70326 -2.0048,-3.63973 -3.4338,-15.70922 -2.5631,-21.64787 2.154,-14.69115 9.6852,-22.92804 22.5795,-24.69541 3.6716,-0.50324 5.3795,-0.11271 9.9387,2.27255 3.0278,1.58412 5.7585,3.56481 6.0682,4.40154 0.3097,0.83672 2.2165,3.54632 4.2373,6.02132 4.6124,5.64917 6.291,11.80262 5.8112,21.30359 -0.3433,6.79901 -0.6707,7.76863 -3.8625,11.44028 -1.918,2.20641 -5.0623,5.85867 -6.9873,8.11614 -1.925,2.25746 -4.8047,4.56247 -6.3992,5.12224 -4.2748,1.50064 -11.6433,1.19776 -15.3533,-0.63112 z M 1649,573 c 0,-0.55 -0.45,-1 -1,-1 -0.55,0 -1,0.45 -1,1 0,0.55 0.45,1 1,1 0.55,0 1,-0.45 1,-1 z M 396.48073,597.70148 c -8.14631,-4.33279 -12.52899,-7.44149 -15.32454,-10.86993 -2.03093,-2.49071 -2.33218,-3.90611 -2.25667,-10.60298 0.13607,-12.06843 1.77702,-16.05221 10.02895,-24.34764 l 5.35057,-5.37877 7.7655,-0.35265 7.76551,-0.35265 7.09498,6.75216 c 4.94537,4.70643 7.09497,7.47902 7.09497,9.15123 0,1.31949 0.71668,3.78498 1.59262,5.47886 1.26341,2.44317 1.45001,4.69088 0.9027,10.87373 -0.66822,7.54883 -0.85723,7.99679 -6.01023,14.244 -7.94364,9.63044 -13.64549,10.91423 -24.00436,5.40464 z m 566.12321,0.4709 c -2.69283,-1.57389 -7.08991,-5.51904 -9.77128,-8.767 -4.79652,-5.81005 -4.87258,-6.01031 -4.71192,-12.40538 0.40246,-16.01961 7.85372,-28.95973 18.1948,-31.59776 5.37996,-1.37244 13.17029,-0.72671 14.7909,1.22601 0.62615,0.75446 1.73823,1.37175 2.47129,1.37175 0.73306,0 3.71546,2.3625 6.62755,5.25 6.8304,6.77271 9.41548,14.34272 8.38302,24.54837 -0.86007,8.50162 -3.62447,12.83266 -11.55149,18.09793 -5.039,3.347 -7.06311,4.06984 -12.7628,4.55778 -6.19695,0.53052 -7.19109,0.33615 -11.67007,-2.2817 z m 553.48326,-0.67836 C 1505.2231,591.54276 1501,584.25055 1501,571.44222 c 0,-9.72362 1.2604,-12.43271 10,-21.49379 9.0785,-9.41242 14.693,-11.20566 23.014,-7.35047 6.4844,3.00426 11.7093,7.89438 12.5611,11.75632 0.3463,1.56986 1.3955,4.71986 2.3316,7 2.0459,4.98351 2.046,15.55644 2e-4,20.64572 -2.0234,5.03376 -3.756,7.08081 -9.5489,11.28237 -9.9906,7.24602 -15.8091,8.29909 -23.2708,4.21165 z M 1103,595.82209 c -6.201,-2.28846 -14.9075,-9.81799 -14.9684,-12.94497 -0.017,-0.89259 -0.9855,-3.77931 -2.1514,-6.41494 -2.6611,-6.01599 -2.1379,-11.78866 1.8992,-20.95203 2.5454,-5.77735 3.5652,-6.95796 8.7998,-10.18674 4.9357,-3.04439 6.8359,-3.65152 11.4208,-3.64896 8.8747,0.005 11.635,1.04349 15.5848,5.86375 1.9741,2.40915 5.2198,5.18611 7.2125,6.17103 2.8581,1.41261 3.9699,2.81003 5.2649,6.61743 1.5313,4.5021 1.5261,5.24179 -0.079,11 -0.9461,3.39534 -2.0351,6.91532 -2.4201,7.82219 -0.385,0.90687 -0.2193,1.94592 0.3682,2.30902 1.602,0.99005 1.2858,2.54213 -0.5178,2.54213 -0.8724,0 -3.9265,2.475 -6.7871,5.5 -5.1098,5.40353 -5.3001,5.5 -10.8489,5.5 -3.1063,0 -6.6896,0.39256 -7.9629,0.87235 -1.3473,0.50767 -3.3602,0.48665 -4.8151,-0.0503 z M 670,543.55902 C 670,542.70156 670.45,542 671,542 c 0.55,0 1,0.42344 1,0.94098 0,0.51754 -0.45,1.2191 -1,1.55902 -0.55,0.33992 -1,-0.0835 -1,-0.94098 z m 713.75,-105.62711 c -2.0625,-1.08883 -3.75,-2.34671 -3.75,-2.79528 0,-0.44858 -1.086,-1.3104 -2.4133,-1.91516 -1.3273,-0.60475 -2.7278,-2.13949 -3.1123,-3.41051 -0.3845,-1.27103 -1.7847,-3.47226 -3.1116,-4.89164 -3.0443,-3.25645 -4.6331,-12.06761 -3.7722,-20.91932 0.7612,-7.82583 4.835,-15.71367 10.205,-19.75902 2.0011,-1.50754 4.4408,-3.52848 5.4214,-4.49098 2.8747,-2.82154 12.3955,-2.3741 18.6619,0.87704 7.6251,3.95601 13.1211,9.42664 13.1211,13.06042 0,1.64707 0.6267,5.07688 1.3926,7.62179 1.7135,5.69364 0.4843,19.36519 -2.1124,23.49429 C 1411.7685,428.79756 1403.7923,436 1401.881,436 c -0.9144,0 -3.6242,0.89012 -6.0218,1.97804 -5.4215,2.46006 -7.376,2.45262 -12.1092,-0.0461 z m 135.75,-1.7713 c -6.2993,-3.29421 -7.3201,-4.26579 -10.198,-9.70674 -2.4961,-4.71897 -3.3304,-7.75612 -3.8009,-13.83627 -0.3315,-4.28458 -0.1886,-8.31382 0.3177,-8.95387 0.5063,-0.64005 1.4894,-2.96373 2.1847,-5.16373 1.532,-4.84776 5.3098,-10.21238 9.9256,-14.09488 2.9431,-2.47553 4.4443,-2.93561 10.5913,-3.24602 5.7907,-0.29241 7.951,0.0407 11.2811,1.73961 2.2653,1.15571 4.7155,2.10129 5.4447,2.10129 2.212,0 7.7302,8.12398 9.4985,13.98392 1.9394,6.42672 2.2685,18.63629 0.596,22.10897 -0.6376,1.32391 -1.4428,3.08211 -1.7892,3.90711 -2.3693,5.64205 -5.1416,8.25078 -13.0515,12.28158 -7.2186,3.67851 -12.3455,3.40483 -21,-1.12097 z M 264,437.5 c -0.68469,-0.825 -2.08979,-1.5 -3.12244,-1.5 -1.03266,0 -2.66506,-0.69143 -3.62756,-1.53652 -0.9625,-0.84508 -3.23223,-2.70169 -5.04385,-4.12579 -5.48697,-4.31327 -7.42141,-9.40613 -7.90692,-20.81678 L 243.87285,399.5 249.58311,392 c 4.51254,-5.92688 6.91329,-8.09738 11.4458,-10.34807 5.53662,-2.7493 5.93341,-2.80379 11.44064,-1.57133 8.5941,1.92327 14.66741,7.48519 19.08762,17.48036 2.49436,5.64035 2.67991,7.74313 1.51999,17.22575 -0.99794,8.15846 -1.20519,8.64385 -5.8015,13.587 -2.62163,2.81946 -5.33113,5.27179 -6.02113,5.44961 -0.68999,0.17783 -1.25453,0.72878 -1.25453,1.22432 0,3.29175 -13.57639,5.37263 -16,2.45236 z m 280.68096,0.53335 c -5.16945,-1.64546 -13.5915,-8.86483 -15.78467,-13.5306 -1.13981,-2.42484 -1.78121,-4.87994 -1.42532,-5.45578 0.35589,-0.57583 0.34021,-1.54347 -0.0348,-2.1503 -0.37504,-0.60683 -0.6053,-5.89433 -0.51168,-11.75 0.25008,-15.6423 2.89059,-20.43568 14.51284,-26.34549 6.91284,-3.51512 12.99118,-3.47665 17.42694,0.11029 1.44967,1.17226 3.81367,2.59499 5.25334,3.16162 4.22582,1.66321 9.09936,9.41329 10.45466,16.62539 0.96004,5.10878 0.92069,7.90352 -0.2024,14.37532 -1.46786,8.45853 -2.78974,11.30317 -7.79994,16.78524 -6.54268,7.15889 -15.07207,10.34415 -21.88894,8.17431 z M 825.6371,435.7502 c -6.6483,-3.22228 -16.10013,-13.45142 -18.51506,-20.03771 -2.13561,-5.82452 -2.86269,-15.13671 -1.25921,-16.12771 0.47455,-0.29329 1.42807,-2.55212 2.11893,-5.01962 1.95835,-6.99454 9.01837,-12.95058 17.30299,-14.5973 6.08978,-1.21045 6.66884,-1.15966 9.95853,0.87348 1.92103,1.18726 4.19295,2.15866 5.0487,2.15866 0.85574,0 2.60263,1.35741 3.88196,3.01646 1.27933,1.65905 3.32891,4.30004 4.55461,5.86886 2.29452,2.93684 5.17417,11.7425 6.01001,18.37797 0.30989,2.46014 -0.0822,4.6122 -1.13226,6.21482 -0.88346,1.34834 -1.6063,3.35728 -1.6063,4.46432 0,2.66117 -10.19639,12.94775 -14.00492,14.12879 -8.23418,2.55344 -8.46443,2.56609 -12.35798,0.67898 z m 979.8629,0.47608 c -5.307,-1.74783 -15.4975,-11.85875 -17.5997,-17.46221 -4.0418,-10.77384 -4.1161,-11.3518 -2.3128,-17.99384 2.8593,-10.5321 10.2955,-20.13854 18.1304,-23.42177 4.4853,-1.87959 14.6552,-1.72044 18.5818,0.29079 7.4442,3.81305 12.0731,11.38143 13.7781,22.52796 0.617,4.03303 1.7518,8.04322 2.522,8.91153 2.3071,2.60131 1.6474,4.41962 -3.5998,9.92126 -2.75,2.88335 -5,5.68093 -5,6.21685 0,2.09649 -4.1375,6.62051 -7.525,8.22798 -6.9596,3.30253 -12.591,4.22528 -16.975,2.78145 z m -6,-42.72628 c 0,-2.82119 -0.9803,-3.29669 -1.893,-0.91821 -0.9239,2.40762 -0.7338,3.41821 0.643,3.41821 0.6875,0 1.25,-1.125 1.25,-2.5 z m -1399,43.06232 c -0.55,-0.21306 -2.18321,-0.64669 -3.62936,-0.96362 C 393.53936,434.86862 384,426.36822 384,424.12984 c 0,-0.92666 -0.62014,-2.57246 -1.37809,-3.65733 -3.47945,-4.98025 -4.49874,-10.75358 -3.44635,-19.52041 0.64897,-5.40616 1.611,-9.05396 2.66952,-10.12219 0.91021,-0.91855 3.00492,-3.54896 4.65492,-5.84535 3.99878,-5.56531 6.95519,-6.9181 15.50291,-7.0938 5.97197,-0.12276 7.62269,0.21122 9.83666,1.99018 1.46324,1.17574 4.34793,3.26415 6.41043,4.64093 2.0625,1.37677 3.75,3.09413 3.75,3.81636 0,0.72223 1.09135,2.33841 2.42522,3.59152 4.036,3.79162 6.3616,17.91937 3.91582,23.78813 -0.73757,1.76984 -1.34104,4.39675 -1.34104,5.83759 0,1.84489 -1.40489,3.91301 -4.75,6.99242 -2.6125,2.40498 -5.37539,4.39057 -6.13976,4.4124 -0.76436,0.0218 -1.93443,0.78459 -2.60014,1.69501 -1.13856,1.55707 -10.40659,2.91558 -13.0101,1.90702 z m 285.35237,-2.55993 c -2.55619,-1.03871 -5.74949,-2.92667 -7.09621,-4.19547 -1.34672,-1.26881 -3.93202,-3.64319 -5.7451,-5.2764 -8.79559,-7.923 -9.06323,-24.08017 -0.60985,-36.81573 3.1413,-4.73256 7.62446,-8.1487 10.76546,-8.20322 0.36666,-0.006 1.00416,-0.34907 1.41666,-0.76157 0.4125,-0.4125 2.8369,-0.75 5.38756,-0.75 3.43494,0 5.86426,0.77796 9.36806,3 2.60178,1.65 5.00366,3 5.33752,3 1.45006,0 6.31953,6.1664 6.87858,8.71062 0.3371,1.53416 1.46542,5.43554 2.50738,8.66974 1.04196,3.2342 1.61981,6.32477 1.28411,6.86795 -0.70885,1.14693 -2.21403,7.01106 -2.83219,11.0341 -0.53522,3.48325 -9.7688,12.31848 -13.69439,13.1036 C 697.206,432.7088 696,433.60219 696,434.475 c 0,2.09084 -4.33609,1.88889 -10.14763,-0.47261 z M 111.74204,433.0421 c -0.84523,-1.20673 -3.04546,-2.94737 -4.88941,-3.86808 -3.17335,-1.5845 -5.07468,-4.4284 -8.667368,-12.96417 -2.044653,-4.85782 -1.971137,-17.43899 0.11881,-20.33241 0.944488,-1.30759 2.907788,-4.16742 4.362898,-6.35518 3.12639,-4.70053 4.84111,-6.52226 6.13916,-6.52226 0.52194,0 1.54129,-0.71369 2.26522,-1.58597 0.72393,-0.87229 3.14705,-2.44656 5.38471,-3.49838 3.27824,-1.54096 4.74589,-1.71952 7.5562,-0.91932 7.11218,2.02508 13.89177,5.55131 14.90733,7.75367 0.57064,1.2375 1.47612,2.25 2.01218,2.25 0.53605,0 1.98035,2.1375 3.20956,4.75 1.85363,3.93962 2.24547,6.54887 2.29679,15.29398 0.0528,8.99622 -0.2317,10.95959 -1.93812,13.37529 -1.1,1.55723 -2.71619,3.9038 -3.59152,5.21461 -0.87534,1.31082 -3.75058,3.8134 -6.38942,5.56129 -4.18623,2.77285 -5.84598,3.23301 -13.01906,3.6095 -7.58518,0.39812 -8.34006,0.26176 -9.75796,-1.76257 z M 1667,434.27616 c -1.375,-0.24832 -3.4,-1.25732 -4.5,-2.24223 -1.1,-0.9849 -3.2015,-2.40796 -4.67,-3.16233 -3.1969,-1.64232 -8.7199,-8.37158 -9.2641,-11.28754 -3.049,-16.33733 -2.8316,-18.27001 3.0172,-26.81673 1.7813,-2.60297 3.3913,-5.07797 3.5778,-5.5 0.1865,-0.42203 2.3641,-2.09774 4.8391,-3.7238 3.9525,-2.59673 5.4126,-2.96176 12,-3 5.7454,-0.0333 8.3035,0.42437 10.9346,1.95647 3.6044,2.09886 7.0654,5.08483 7.0654,6.09563 0,0.3276 0.9696,1.95727 2.1546,3.6215 1.4475,2.0328 2.6126,6.13051 3.5499,12.48556 1.3628,9.23953 1.3423,9.56835 -0.8826,14.1285 -1.2529,2.56785 -2.1745,5.14927 -2.048,5.73651 0.3594,1.66803 -6.4816,9.13999 -9.9541,10.87232 -2.9591,1.4762 -10.1662,1.85712 -15.8198,0.83614 z m -555.5,-2.27806 c -1.1,-0.4766 -3.6554,-1.13551 -5.6787,-1.46426 -2.897,-0.4707 -4.7101,-1.81286 -8.5319,-6.31578 -8.8397,-10.41496 -9.3938,-12.81937 -6.4389,-27.94173 1.4838,-7.59409 0.8942,-6.8563 13.6495,-17.07923 0.55,-0.4408 3.1132,-1.39217 5.6961,-2.11415 4.3253,-1.20904 4.9663,-1.14569 8.118,0.80218 1.8821,1.16318 4.1405,2.11487 5.0188,2.11487 0.8782,0 2.1283,1.0125 2.7779,2.25 0.6496,1.2375 1.7158,2.56808 2.3693,2.95684 0.6534,0.38877 2.4934,2.59049 4.0889,4.89271 2.7343,3.94561 2.9006,4.76599 2.8979,14.29316 -0,13.68143 -2.3079,19.09175 -10.7192,25.172 -4.8394,3.49825 -9.0183,4.26585 -13.2477,2.43339 z m -143.31947,-2.51656 c -2.9257,-0.71351 -6.11114,-2.01375 -7.07874,-2.88942 C 960.13419,425.71645 958.81545,425 958.17126,425 957.52707,425 957,424.3625 957,423.58333 c 0,-0.77916 -0.42224,-1.56666 -0.9383,-1.75 -0.51607,-0.18333 -2.76231,-4.30745 -4.99164,-9.1647 -3.12112,-6.8003 -3.82527,-9.25751 -3.06169,-10.68426 0.54539,-1.01909 0.99163,-2.95833 0.99163,-4.30942 0,-5.29314 6.76487,-16.74866 11.56212,-19.5791 1.89084,-1.11562 3.43788,-2.45868 3.43788,-2.98457 0,-1.72348 6.99035,-3.33981 11.51176,-2.66179 2.39898,0.35975 5.98522,1.75579 7.96942,3.1023 1.9842,1.34652 4.25701,2.44821 5.05068,2.44821 1.64349,0 6.06498,6.54549 7.03664,10.41691 0.35658,1.4207 1.11364,2.58309 1.68236,2.58309 0.66596,0 0.81254,2.11929 0.41179,5.95346 -0.36764,3.51743 -0.22134,6.20125 0.35755,6.55902 1.59417,0.98525 1.11079,4.76984 -1.0202,7.98752 -1.09275,1.65 -1.98979,3.95761 -1.99341,5.12803 -0.004,1.17041 -0.8381,2.74541 -1.8544,3.5 -1.01629,0.75458 -4.66579,3.50947 -8.11,6.12197 -6.77297,5.13742 -8.0462,5.38144 -16.86166,3.23154 z M 1251.5,430.54246 c -0.55,-0.16481 -3.025,-0.87321 -5.5,-1.57423 -2.475,-0.70102 -5.1924,-1.99315 -6.0386,-2.87141 -0.8462,-0.87825 -2.8712,-2.35184 -4.5,-3.27463 -4.9262,-2.791 -7.9666,-10.00572 -7.9318,-18.82219 0.027,-6.91602 0.3115,-7.92825 3.6507,-13 3.9391,-5.98307 8.8892,-11.02253 12.8154,-13.04667 1.3726,-0.70767 4.9726,-1.28084 8,-1.27372 4.4856,0.0105 6.3431,0.58251 10.0366,3.09057 4.6066,3.12815 9.695,9.9474 12.6036,16.89097 1.9968,4.76699 1.3589,16.48128 -1.1693,21.47235 -3.8269,7.55482 -15.7287,14.27815 -21.9666,12.40896 z M 1036,421 c 0,-1.28889 0.5064,-1.99786 1.25,-1.75 0.6875,0.22917 1.25,1.01667 1.25,1.75 0,0.73333 -0.5625,1.52083 -1.25,1.75 -0.7436,0.24786 -1.25,-0.46111 -1.25,-1.75 z M 50.5,337 c 0.339919,-0.55 1.041476,-1 1.559017,-1 C 52.576558,336 53,336.45 53,337 c 0,0.55 -0.701558,1 -1.559017,1 -0.857459,0 -1.280902,-0.45 -0.940983,-1 z m 62.78976,-57.96486 C 109.59242,276.78075 101,265.45429 101,262.83486 c 0,-0.97073 -0.72008,-3.8859 -1.600171,-6.47816 -1.484991,-4.37394 -1.473172,-5.18623 0.164197,-11.28495 2.187434,-8.14754 4.908824,-12.58179 10.554424,-17.19744 4.26544,-3.48728 11.23373,-5.59645 16.38155,-4.95838 6.02234,0.74646 14.44957,8.80018 16.04523,15.33407 0.36937,1.5125 1.00057,2.75 1.40266,2.75 2.8336,0 4.01977,13.47911 1.74567,19.83683 -1.73723,4.85678 -8.22984,12.10956 -14.6929,16.41317 -6.62347,4.41042 -12.44321,4.99701 -17.7109,1.78514 z M 545,280.10809 c -6.83458,-1.18744 -11.74575,-4.32912 -14.44962,-9.24342 C 529.14767,268.31524 528,265.34688 528,264.26831 c 0,-1.07857 -0.78163,-3.49267 -1.73696,-5.36467 -2.51605,-4.93027 -2.11077,-17.26575 0.6918,-21.05642 C 528.07968,236.32579 529,234.61276 529,234.04049 529,233.46822 529.41294,233 529.91764,233 c 0.50471,0 1.74221,-1.66688 2.75,-3.70418 1.20772,-2.44143 2.77126,-3.94637 4.58656,-4.41464 1.51481,-0.39075 4.19451,-1.9224 5.95489,-3.40366 5.27847,-4.44154 10.34467,-3.04053 23.54091,6.51 2.3375,1.69173 4.25,3.67592 4.25,4.40931 0,0.7334 0.82622,2.40664 1.83605,3.71831 2.90663,3.77545 4.5359,13.48952 3.16742,18.88486 -0.62776,2.475 -1.40181,5.625 -1.72011,7 -1.69885,7.33879 -10.8496,16.31232 -18.25374,17.90023 -5.41271,1.16082 -5.53182,1.16306 -11.02962,0.20786 z m 16,-34.04907 c 0,-0.51754 -0.45,-1.2191 -1,-1.55902 -0.55,-0.33992 -1,0.0835 -1,0.94098 0,0.85746 0.45,1.55902 1,1.55902 0.55,0 1,-0.42344 1,-0.94098 z m 119.76875,30.93182 c -7.42561,-4.6632 -11.11686,-11.70709 -13.43969,-25.64654 -0.36268,-2.1765 0.34641,-5.12429 2.28522,-9.5 8.01531,-18.08974 17.62189,-24.15905 29.10787,-18.38996 6.32827,3.1785 11.01816,8.71127 15.5492,18.34375 2.93408,6.23751 3.36425,8.08228 3.01013,12.90863 -0.43264,5.8964 -2.78176,11.63247 -5.92507,14.4678 -1.02103,0.92098 -4.92913,3.73348 -8.68467,6.25 -5.93669,3.97805 -7.50354,4.573 -12,4.55648 -3.98568,-0.0146 -6.25678,-0.70039 -9.90299,-2.99016 z M 264,277.84 c -9.61834,-3.94214 -14.825,-9.15357 -18.10173,-18.11833 -2.54027,-6.94987 -2.54146,-18.73752 -0.002,-24.22167 1.96693,-4.24848 3.06405,-5.46164 9.95684,-11.00984 5.32399,-4.28545 7.30139,-4.82016 16.00636,-4.32828 6.13566,0.34669 7.3604,0.79022 12.04524,4.36203 3.26392,2.48847 6.34392,6.03387 8.23219,9.47609 2.6057,4.75006 3.03073,6.59082 3.11716,13.5 0.0782,6.25454 -0.38481,9.09091 -2.12233,13 -2.58037,5.80534 -11.18945,15.0999 -15.84915,17.11111 -3.71796,1.60473 -9.67476,1.70739 -13.28212,0.22889 z m 136.5,0.44407 c -1.1,-0.26301 -2.4275,-0.88452 -2.95,-1.38113 C 397.0275,276.40632 395.85974,276 394.95499,276 c -0.90476,0 -2.43204,-0.86965 -3.39396,-1.93256 -0.96192,-1.06291 -2.36142,-1.69753 -3.11001,-1.41027 -1.34116,0.51465 -6.62748,-6.89372 -9.24362,-12.95422 -2.36572,-5.48041 -1.13316,-20.42132 1.99535,-24.18735 0.46403,-0.55858 2.4244,-3.09658 4.3564,-5.64001 4.56854,-6.01439 11.37846,-8.43654 20.8636,-7.42077 7.42314,0.79495 9.80597,2.81216 16.51178,13.97819 3.93364,6.55001 4.12909,7.24055 3.5381,12.5 -1.28054,11.39587 -3.18494,15.91856 -9.1258,21.67255 -3.0375,2.94195 -6.94565,5.76042 -8.68478,6.26327 -1.73913,0.50285 -3.83705,1.13458 -4.66205,1.40386 -0.825,0.26927 -2.4,0.27439 -3.5,0.0114 z M 389.54112,268.06653 C 389.17858,267.47994 388.40342,267 387.81854,267 c -0.6631,0 -0.58723,0.57378 0.20152,1.52417 1.37154,1.6526 2.59733,1.2838 1.52106,-0.45764 z m 854.14198,8.50357 c -9.6294,-2.58861 -15.9123,-12.96691 -17.4101,-28.75835 -1.0535,-11.10607 6.2338,-22.41694 18.5928,-28.85884 7.532,-3.9259 15.9211,-1.28331 24.52,7.72392 9.5596,10.01351 11.1829,21.93904 4.8081,35.32317 -2.9369,6.16623 -3.0686,6.29234 -12.4571,11.93513 -7.3308,4.40609 -10.0105,4.79719 -18.0537,2.63497 z m 281.3078,0.39513 c -10.6287,-2.52572 -15.5647,-7.9642 -20.6144,-22.7131 -2.789,-8.14591 2.4821,-25.99184 9.4685,-32.05699 5.5028,-4.7771 9.6312,-6.19514 18.0362,-6.19514 h 7.9609 l 4.329,4.32991 c 2.3809,2.38145 6.0944,7.21895 8.2523,10.75 3.6547,5.98039 3.9411,7.00224 4.1816,14.92009 0.2854,9.40037 -0.6368,11.7971 -8.7362,22.70429 -3.0897,4.16082 -4.6169,5.34215 -7.6167,5.89188 -2.0636,0.37818 -4.6397,1.29875 -5.7246,2.04571 -2.1788,1.50016 -4.2839,1.57154 -9.5366,0.32335 z M 1112,275.64209 c -7.1912,-1.86319 -18,-9.16656 -18,-12.16235 0,-0.72219 -0.4706,-1.46993 -1.0457,-1.66164 -1.3258,-0.44192 -3.8574,-12.49394 -3.3227,-15.8181 1.1444,-7.11536 10.1445,-22.0706 16.1396,-26.81878 3.0167,-2.38928 5.0241,-3.18122 8.0637,-3.18122 2.2259,0 4.2937,0.39899 4.595,0.88664 0.3014,0.48765 2.1289,1.1832 4.061,1.54568 3.5075,0.658 9.6965,6.21522 12.1393,10.90011 5.3305,10.22276 5.5677,11.29231 4.4782,20.19885 -1.5854,12.96122 -2.8009,16.00687 -8.3952,21.03667 -2.7112,2.43763 -5.7543,4.43205 -6.7623,4.43205 -1.0081,0 -2.111,0.45 -2.4509,1 -0.7737,1.25184 -3.7146,1.14104 -9.5,-0.35791 z m 2,-6.08307 c 0,-0.24254 -0.45,-0.7191 -1,-1.05902 -0.55,-0.33992 -1,-0.14148 -1,0.44098 0,0.58246 0.45,1.05902 1,1.05902 0.55,0 1,-0.19844 1,-0.44098 z m 547.9725,5.74894 c -1.3599,-0.93062 -2.6975,-1.9648 -2.9725,-2.29818 -0.275,-0.33337 -2.0134,-1.66385 -3.8631,-2.95662 -3.6386,-2.54299 -5.6965,-6.54148 -7.6567,-14.87716 -1.0892,-4.63161 -1.0205,-6.06218 0.5285,-11 5.5457,-17.67834 13.1893,-25.41475 25.2722,-25.57891 5.4966,-0.0747 6.0159,0.13448 9.713,3.91201 2.1482,2.19499 4.9929,5.04193 6.3215,6.32653 7.5618,7.3114 10.1513,23.09909 5.1802,31.58171 -4.0365,6.88766 -11.7144,14.27218 -16.1076,15.49198 -5.8817,1.63308 -13.5615,1.35174 -16.4155,-0.60136 z m -840.52456,-0.26002 c -0.52363,-0.52363 -2.97613,-1.99578 -5.45,-3.27143 -3.8328,-1.97639 -5.05007,-3.42528 -8.23169,-9.79794 -2.05356,-4.11321 -3.74106,-8.95527 -3.75,-10.76012 -0.0376,-7.59003 7.27632,-23.21492 10.86975,-23.22133 0.8877,-0.002 2.514,-1.35992 3.614,-3.01854 3.5515,-5.35507 12.47975,-5.8716 21.19967,-1.22647 3.58108,1.90766 4.81628,3.49933 8.38603,10.80613 4.91918,10.06889 5.46584,14.75418 2.61792,22.43727 -2.32674,6.27703 -5.98082,10.54142 -13.30713,15.52967 -4.12748,2.81028 -6.0495,3.47482 -10.05,3.47482 -2.72057,0 -5.37492,-0.42843 -5.89855,-0.95206 z M 1382.5,272.8094 c -4.7469,-2.49472 -10.7085,-8.39976 -13.1298,-13.00521 -2.9828,-5.67354 -1.7823,-21.83204 2.2515,-30.30419 1.4202,-2.98299 2.8094,-4.04753 13.3597,-10.23808 6.4799,-3.80214 8.5299,-3.97195 14.4359,-1.1958 3.9083,1.83715 6.9485,4.68247 14.1872,13.27805 1.1574,1.37442 2.644,5.24169 3.3035,8.59394 1.5288,7.77076 -0.4342,16.41329 -5.0526,22.24443 -3.4835,4.39831 -12.4042,10.81746 -15.033,10.81746 -0.9374,0 -1.9825,0.45 -2.3224,1 -1.0461,1.69255 -7.7866,1.02378 -12,-1.1906 z m 420.7272,-0.74276 C 1796.7521,267.35031 1791,261.23113 1791,259.05902 c 0,-1.06754 -0.3963,-2.18589 -0.8806,-2.48523 -1.5259,-0.94308 -1.8273,-5.07738 -1.0733,-14.72439 0.9283,-11.87819 4.187,-18.77292 10.8783,-23.01641 2.4569,-1.55815 5.3086,-2.83299 6.3371,-2.83299 1.0285,0 2.7267,-0.45848 3.7737,-1.01884 1.3632,-0.72957 3.766,-0.55106 8.4627,0.62872 5.996,1.50614 7.0192,2.17299 11.9208,7.76884 5.8229,6.64755 8.5527,12.04493 8.5843,16.97285 0.011,1.73164 0.059,4.49843 0.1063,6.14843 0.412,14.37436 -11.3937,27.42917 -25.5987,28.30725 -5.4425,0.33642 -6.4145,0.0774 -10.2834,-2.74061 z m -837.34109,-1.39107 c -15.72172,-8.06259 -20.15278,-19.4659 -14.95462,-38.48566 1.81475,-6.64008 9.07442,-13.52624 16.50246,-15.65342 3.26368,-0.93462 6.86368,-1.46899 8,-1.18748 11.27623,2.79355 11.04244,2.6143 17.95768,13.76819 3.64418,5.87787 3.8975,6.78902 3.98387,14.32989 0.0774,6.7605 -0.30061,8.77512 -2.35551,12.55291 -3.23216,5.9421 -6.49886,9.46631 -11.9964,12.94208 -6.57965,4.15991 -11.44616,4.65217 -17.13748,1.73349 z m 399.09379,-36.19974 c -0.6957,-0.83829 -0.9952,-1.79388 -0.6655,-2.12353 1.024,-1.02406 3.6856,0.50424 3.6856,2.11632 0,1.95861 -1.3978,1.96195 -3.0201,0.007 z M 351,129 c 0,-0.55 0.45,-1 1,-1 0.55,0 1,0.45 1,1 0,0.55 -0.45,1 -1,1 -0.55,0 -1,-0.45 -1,-1 z m 894,-5.1043 c -4.5754,-2.73856 -10,-7.94173 -10,-9.59187 0,-0.71711 -0.3817,-1.30383 -0.8481,-1.30383 -0.4665,0 -1.6454,-1.9125 -2.6197,-4.25 -0.9744,-2.3375 -2.169,-5.15 -2.6547,-6.25 -1.9923,-4.512466 0.7797,-19.934018 3.9335,-21.883163 0.5582,-0.345025 1.3174,-2.417472 1.6871,-4.605438 C 1235.2726,71.426908 1241.0957,66 1245.2403,66 c 1.3488,0 3.7969,-0.670714 5.4402,-1.490475 2.5182,-1.256285 3.8197,-1.295566 8.2831,-0.25 4.4655,1.046066 5.9928,2.055544 9.7453,6.44122 5.8745,6.865754 9.2416,16.306856 9.27,25.992551 0.018,6.017054 -0.2983,7.417024 -1.9323,8.561534 -1.0744,0.75253 -2.522,3.49386 -3.2168,6.09184 -1.9993,7.47486 -8.727,12.0141 -20.8298,14.05398 -2.5548,0.4306 -4.4452,0.0242 -7,-1.50495 z m 416.7147,-0.25952 c -9.2532,-3.15321 -12.9646,-6.91632 -15.2483,-15.46096 -2.5268,-9.45436 -2.9806,-16.737698 -1.2124,-19.456712 0.7935,-1.220179 2.0045,-3.931981 2.691,-6.026226 1.7686,-5.395235 9.4034,-12.406137 15.4865,-14.220994 6.3448,-1.892947 11.9836,-1.881015 13.5685,0.02871 0.6847,0.825 1.7806,1.5 2.4354,1.5 3.3089,0 10.6356,12.313204 12.4977,21.003709 0.5916,2.76097 0.6155,6.050099 0.062,8.5 -1.3804,6.107591 -6.7645,15.244131 -10.7702,18.276761 -1.9758,1.49574 -4.8941,3.95703 -6.4853,5.46953 -3.4876,3.31502 -4.3543,3.34072 -13.0246,0.38618 z m -276.3204,-0.48987 c -2.2582,-0.90547 -4.7332,-2.15374 -5.5,-2.77392 -0.7669,-0.62019 -2.4237,-1.44337 -3.6818,-1.82929 -4.5285,-1.38911 -11.024,-14.55402 -11.7372,-23.788869 C 1364.1107,90.033726 1367.042,81 1368.9384,81 c 0.4646,0 1.1519,-1.2375 1.5273,-2.75 0.8007,-3.22609 4.2839,-7.25 6.2758,-7.25 0.766,0 2.8961,-1.59398 4.7335,-3.542179 2.4913,-2.641512 3.9362,-3.418886 5.6829,-3.05729 12.643,2.617465 15.0322,3.80302 18.5738,9.21673 0.6774,1.035506 2.4383,3.682739 3.9132,5.882739 1.4748,2.2 3.0294,5.8 3.4547,8 1.0365,5.362779 -0.697,17.39694 -2.953,20.5 -0.9996,1.375 -2.1371,3.78499 -2.5276,5.35553 -0.3996,1.60706 -1.5646,3.07899 -2.6645,3.36663 -1.075,0.28111 -1.9545,1.02537 -1.9545,1.65392 0,1.46391 -2.8551,3.23504 -8.2373,5.10992 -4.9494,1.7241 -4.1492,1.75312 -9.3684,-0.33969 z m 131.0782,0.50289 c -1.0849,-0.74295 -3.0975,-1.64552 -4.4725,-2.00572 -6.052,-1.5854 -12.2045,-11.92051 -13.5084,-22.691798 -0.564,-4.6589 -0.2539,-6.576478 1.9345,-11.962127 1.4334,-3.527595 3.6725,-7.555851 4.9759,-8.951682 1.3033,-1.39583 3.0794,-3.945841 3.9469,-5.666692 1.7956,-3.562288 2.9871,-4.171213 10.6511,-5.443425 7.4897,-1.243281 13.8774,0.867058 17.8654,5.902271 1.6064,2.028215 4.8189,8.130595 7.1389,13.560844 3.7684,8.820097 4.1479,10.419069 3.5583,14.991159 -1.1293,8.757 -2.376,11.97798 -6.416,16.57685 -3.1553,3.59178 -4.9426,4.69039 -9.2774,5.70261 -7.1106,1.6604 -13.9617,1.65526 -16.3967,-0.0123 z m 284.9536,-0.65275 c -1.6907,-1.08343 -3.6792,-3.10084 -4.419,-4.48316 -0.7398,-1.38231 -1.833,-2.51329 -2.4293,-2.51329 -2.2378,0 -6.725,-6.10487 -8.2387,-11.20875 -2.2398,-7.552498 -1.7936,-12.437912 2.1411,-23.446726 C 1793.2936,67.877178 1799.4171,62 1808.6357,62 c 3.2165,0 4.2869,0.356432 9.6143,3.201663 1.2375,0.660915 3.801,2.007528 5.6967,2.992473 4.3065,2.23754 9.0533,7.344669 9.0533,9.740464 0,0.99614 0.8961,3.83696 1.9913,6.312932 1.7708,4.003171 1.882,5.364579 1.0037,12.291949 -0.8892,7.013159 -1.4618,8.429659 -5.7414,14.201439 -6.4895,8.75242 -8.95,10.96764 -14.1505,12.73963 -6.017,2.0502 -10.9776,1.88658 -14.677,-0.4841 z m -1400.407,-1.73667 c -3.92238,-0.72632 -12.33337,-6.80808 -14.44379,-10.44392 -1.05858,-1.82372 -2.23329,-3.54086 -2.61046,-3.81586 -3.28292,-2.39357 -6.68162,-21.820946 -4.0969,-23.41839 C 380.49058,83.196806 381,82.065727 381,81.068101 381,77.902318 384.9472,70.18669 387.65739,68.05486 389.20705,66.835892 391.7515,66 393.91235,66 c 2.00345,0 4.6294,-0.691156 5.83544,-1.535902 3.55072,-2.487017 10.13615,-2.066917 16.04677,1.023658 8.10115,4.235977 12.77793,12.522585 13.54593,24.001526 0.4525,6.763313 0.32101,7.264439 -4.06708,15.499998 -6.26702,11.76195 -5.53599,11.17719 -20.27341,16.21694 -0.825,0.28213 -2.61641,0.30623 -3.9809,0.0536 z M 683,119.69753 c -4.68815,-2.86216 -5.71803,-3.9848 -11.46957,-12.5025 l -4.93264,-7.304974 -0.009,-9.195028 c -0.0114,-11.868677 2.06737,-16.563632 10.42607,-23.548 5.0672,-4.234043 6.8399,-5.109936 11.52722,-5.695577 4.17982,-0.522234 6.66631,-0.261603 10.13224,1.06205 4.36514,1.66706 5.7307,2.693989 9.4229,7.086214 0.87859,1.045157 2.36748,2.350285 3.30866,2.900285 1.13945,0.66586 2.11365,3.398997 2.91554,8.179623 0.66236,3.948793 1.53596,7.511293 1.94134,7.916667 1.74749,1.747494 0.59221,8.952466 -2.41492,15.06083 -3.16925,6.43765 -6.66235,10.16431 -12.95031,13.81619 -8.50474,4.93934 -12.61396,5.45001 -17.89773,2.22422 z m -566.34954,0.54591 c -0.33486,-0.54181 -1.95061,-1.25347 -3.59055,-1.58146 -2.75194,-0.55039 -5.82824,-3.22915 -14.920739,-12.99258 -3.316085,-3.56078 -3.35376,-3.70575 -2.829833,-10.889111 0.823194,-11.286504 2.052192,-15.225299 7.096652,-22.743945 5.06912,-7.555385 5.39282,-7.857383 10.59401,-9.883717 5.13287,-1.999717 9.88875,-2.530927 12.34138,-1.378478 1.18724,0.557864 4.28332,1.769228 6.88018,2.691921 5.0576,1.797021 9.191,5.908485 11.514,11.452893 1.90933,4.557103 3.41329,24.910617 2.03769,27.576707 -3.37175,6.53487 -8.59057,11.8184 -14.4964,14.67615 -6.65292,3.21925 -13.62964,4.6844 -14.62639,3.07162 z M 265,120.30145 c -0.825,-0.25295 -2.175,-0.72289 -3,-1.04431 -0.825,-0.32142 -1.725,-0.6259 -2,-0.67662 -0.275,-0.0507 -2.13942,-1.10907 -4.14315,-2.35189 -4.87549,-3.02403 -8.40416,-7.88149 -9.15514,-12.60266 -0.33892,-2.13071 -1.23808,-4.605714 -1.99813,-5.499998 -3.56807,-4.198261 -1.16346,-16.460598 5.0907,-25.960034 4.41475,-6.705574 10.05996,-10.388777 16.79406,-10.957246 4.37926,-0.369682 6.0515,0.07627 12,3.200151 C 285.96102,68.280642 290,71.235217 290,72.756655 c 0,0.514838 0.74301,2.425464 1.65113,4.245835 0.90812,1.820371 2.19391,6.198113 2.8573,9.728315 1.35719,7.222114 0.45831,11.315449 -3.96278,18.045775 -4.00469,6.09644 -5.74754,7.75641 -12.04565,11.47282 -5.97443,3.52541 -10.64521,4.92735 -13.5,4.05205 z m 282.6053,-0.35982 c -7.13616,-1.19147 -12.98498,-4.60054 -14.29781,-8.33369 -0.60114,-1.70937 -2.23259,-6.31408 -3.62545,-10.2327 -2.33291,-6.563304 -2.42363,-7.43013 -1.15115,-10.999996 0.75973,-2.131384 1.40108,-4.810594 1.42522,-5.953799 0.062,-2.936308 5.49916,-10.799327 10.32232,-14.927772 4.58549,-3.925014 6.66043,-4.187451 16.46913,-2.083011 6.23602,1.337928 9.25244,2.921957 9.25244,4.858791 0,0.56351 1.6575,3.04732 3.68333,5.519579 4.87496,5.949249 6.4053,12.010605 5.26552,20.85556 -0.48588,3.770478 -0.89814,7.191608 -0.91613,7.602528 -0.0581,1.32662 -7.2266,8.75288 -8.44908,8.75288 -0.651,0 -1.70918,0.52554 -2.35152,1.16788 -1.01782,1.01782 -3.46518,2.09846 -9.23212,4.07649 -0.825,0.28297 -3.70261,0.14674 -6.3947,-0.30274 z m 277.17578,-0.84611 c -2.58153,-0.41339 -5.25763,-2.05204 -8.75,-5.35787 C 813.26399,111.11836 811,108.44793 811,107.80338 c 0,-0.64456 -0.99787,-3.22651 -2.21749,-5.73766 -5.66287,-11.659578 -0.62114,-26.361472 12.00395,-35.004062 3.54025,-2.4235 7.36428,-2.455085 17.70534,-0.146237 9.47836,2.116232 16.37499,13.676645 15.0977,25.307393 -1.53907,14.014576 -1.49078,13.888726 -7.63851,19.904286 -4.64388,4.54403 -6.65536,5.80476 -10.12321,6.34491 -2.38028,0.37075 -5.00278,0.7967 -5.82778,0.94656 -0.825,0.14986 -3.17351,0.004 -5.21892,-0.32305 z m 143.54622,-1.13974 c -6.31977,-1.24965 -11.9131,-5.48839 -15.48846,-11.73746 -2.93241,-5.12531 -3.15339,-6.18126 -3.1631,-15.114301 -0.01,-9.230826 0.13491,-9.866788 3.73032,-16.366301 2.5065,-4.531077 4.78887,-7.299805 6.91735,-8.391395 1.74712,-0.896012 4.24978,-2.465485 5.56145,-3.487718 C 970.64217,59.151067 988,61.943152 988,66.415924 c 0,0.83254 0.85126,1.969287 1.89168,2.526106 1.04043,0.556818 3.29043,3.490834 5,6.520035 C 997.60011,80.26114 998,81.930239 998,88.435928 c 0,6.684054 -0.39266,8.217943 -3.74818,14.641772 -2.0615,3.94655 -4.424,7.43334 -5.25,7.74843 -0.826,0.31509 -2.37123,1.38037 -3.43384,2.36729 -2.71546,2.52202 -9.30028,5.82757 -11.34877,5.69701 -0.94557,-0.0603 -3.59693,-0.48085 -5.89191,-0.93465 z M 1106.5,116.46824 c -3.8798,-1.04981 -6.1202,-2.55115 -10,-6.70095 -6.7724,-7.24374 -8.7942,-13.688727 -7.3268,-23.355537 1.1414,-7.519223 3.9341,-14.61115 7.1585,-18.178822 2.8685,-3.173743 13.3741,-8.234239 17.078,-8.226342 3.1502,0.0067 6.4443,1.758778 10.7065,5.694607 1.3111,1.210657 3.8463,3.388159 5.6338,4.838893 2.6757,2.171567 3.25,3.337641 3.25,6.598465 0,2.178421 0.7201,5.353218 1.6001,7.055104 1.3543,2.618785 1.4361,4.197694 0.5324,10.273677 -0.5873,3.948636 -1.6623,8.325265 -2.3889,9.725835 -1.7223,3.31958 -10.316,10.73024 -14.443,12.45461 -3.8616,1.61344 -5.2525,1.59228 -11.8006,-0.17954 z"
       id="path1" />
  </g>
</svg>
