<?xml version="1.0" encoding="UTF-8" standalone="no"?>
<!-- Created with Inkscape (http://www.inkscape.org/) -->

<svg
   version="1.1"
   id="svg1"
   width="721"
   height="515"
   viewBox="0 0 721 515"
   sodipodi:docname="1.svg"
   inkscape:version="1.4 (86a8ad7, 2024-10-11)"
   xmlns:inkscape="http://www.inkscape.org/namespaces/inkscape"
   xmlns:sodipodi="http://sodipodi.sourceforge.net/DTD/sodipodi-0.dtd"
   xmlns="http://www.w3.org/2000/svg"
   xmlns:svg="http://www.w3.org/2000/svg">
  <defs
     id="defs1" />
  <sodipodi:namedview
     id="namedview1"
     pagecolor="#ffffff"
     bordercolor="#000000"
     borderopacity="0.25"
     inkscape:showpageshadow="2"
     inkscape:pageopacity="0.0"
     inkscape:pagecheckerboard="0"
     inkscape:deskcolor="#d1d1d1"
     inkscape:zoom="1.5436893"
     inkscape:cx="360.8239"
     inkscape:cy="257.8239"
     inkscape:window-width="1920"
     inkscape:window-height="1013"
     inkscape:window-x="2391"
     inkscape:window-y="605"
     inkscape:window-maximized="1"
     inkscape:current-layer="g1" />
  <g
     inkscape:groupmode="layer"
     inkscape:label="Image"
     id="g1">
    <path
       id="path1"
       style="fill:#000000"
       d="M 533.95508,0.3203125 C 533.38637,0.55360408 533,0.90297796 533,1.390625 533,3.4396125 529.759,3.5657541 495,2.8671875 477.675,2.5189994 445.05,2.4999146 422.5,2.8261719 399.95,3.1524293 378.125,3.364571 374,3.296875 360.65701,3.0779017 314.99416,2.8791254 296.5,2.9589844 286.6,3.0017331 250.15,2.9395053 215.5,2.8222656 180.85,2.705026 137.32924,2.9924628 118.78711,3.4589844 92.958444,4.1088358 84.736324,4.0261653 83.626953,3.1054688 82.788375,2.4095102 81.937032,2.2935965 81.605469,2.8300781 81.290579,3.3395802 77.7622,3.5744058 73.765625,3.3535156 59.096252,2.5427411 54.053554,2.5061204 32,3.0527344 8.6313868,3.6319432 5,4.2915047 5,7.953125 5,9.0243204 4.8318135,9.8784169 4.5898438,10.626953 c 0.03256,0.561973 -0.0071,1.18874 -0.1445313,1.884766 C 4.0465218,14.531477 3.81338,16.577473 3.6152344,18.625 c -0.2455493,1.812284 -0.5498239,3.614871 -0.7460938,5.433594 -0.082474,0.915559 -0.044923,0.460571 -0.1113281,1.363281 -0.076351,1.037907 -0.3342941,1.827127 -0.6875,2.455078 0.051454,0.203988 0.087232,0.3631 0.2421875,1.091797 0.347457,1.633957 0.1712558,2.932527 -0.3007812,3.849609 0.1905599,1.873441 0.2883308,3.75315 0.5195312,5.623047 0.2511825,1.793524 0.4263175,3.593172 0.5371094,5.400391 0.1376556,2.245417 -0.5871726,3.70849 -1.5800782,4.441406 0.3637379,1.653404 0.596993,3.333738 0.9609376,4.988281 l 0.2304687,1 C 3.3757652,57.312548 2.23744,59.216768 0.72070312,59.650391 0.97692039,61.146555 1.3252565,62 1.8789062,62 c 1.8147153,0 1.867034,1.419855 1.515625,41.25 -0.8804894,99.79827 -1.4247846,139.99125 -1.9082031,140.77344 -0.2852132,0.46149 -0.1280818,1.07977 0.3496094,1.375 0.4776911,0.29523 0.7436159,4.26309 0.5917969,8.81836 C 2.2759154,258.77208 2.1615251,274.65 2.1738281,289.5 2.1861309,304.35 2.0993848,323.025 1.9804688,331 0.99810214,396.88148 0.92720946,415.93709 1.4609375,469.3457 l 0.3476563,34.84571 2.5957031,2.70898 c 0.3600333,0.37579 0.5945179,0.86982 0.9003906,1.31445 1.1801116,-0.3157 2.4815089,-0.47457 2.9980469,-0.52929 1.9891156,-0.25107 3.9864026,-0.47126 5.9921876,-0.47266 0.286541,-2e-4 0.572401,0.004 0.859375,0.0137 1.223306,0.0396 2.208826,0.31104 2.964844,0.71875 0.153514,-0.4358 0.917797,-0.3227 2.130859,0.45899 2.967972,1.91251 7.674697,0.94829 8.728516,-1.78711 0.780364,-2.02559 0.864351,-1.9942 1.921875,0.70508 l 1.105468,2.82226 25.246094,-0.73633 C 71.137945,509.00274 83.175,508.68979 84,508.71289 c 0.825,0.0231 5.325,0.0858 10,0.13867 4.675,0.0529 9.2875,0.14107 10.25,0.19727 1.95366,0.114 7.68774,0.16015 12.25,0.0976 15.48171,-0.21069 80.84649,0.88386 83.75,1.40235 2.0625,0.3683 3.75106,0.28321 3.75195,-0.18945 8.8e-4,-0.4727 17.21338,-1.0046 38.25,-1.18165 37.47983,-0.31542 62.35586,-0.81627 84.16797,-1.69726 7.23015,-0.29203 11.37904,-0.0623 12.27539,0.68164 0.9637,0.7998 5.88688,0.90351 17.08008,0.35937 8.64891,-0.42045 16.28711,-0.6648 16.97461,-0.54296 2.28259,0.40451 15.15218,0.47887 43.75,0.2539 4.4,-0.0346 26.225,-0.31604 48.5,-0.62695 47.83847,-0.66775 57.77252,-0.66248 60.64062,0.0351 1.17751,0.28664 2.44114,0.034 2.8086,-0.56054 0.36746,-0.59457 2.02406,-1.08008 3.68164,-1.08008 2.49857,0 4.79673,-1.79614 13.44141,-10.50391 C 551.30724,489.72007 556,484.33326 556,483.52734 c 0,-0.80592 0.5625,-1.25718 1.25,-1.0039 0.6875,0.25328 3.05,-1.79222 5.25,-4.54492 2.2,-2.75271 6.5875,-7.70157 9.75,-10.99805 3.1625,-3.29648 5.75,-6.36191 5.75,-6.8125 0,-0.45059 2.91834,-3.93588 6.48633,-7.74414 3.56799,-3.80827 6.493,-7.26133 6.5,-7.67383 0.007,-0.4125 0.80117,-1.55962 1.76367,-2.54883 0.9625,-0.98921 4.45,-4.91954 7.75,-8.73437 3.3,-3.81483 8.29319,-9.28417 11.0957,-12.1543 2.80252,-2.87012 6.31684,-6.82094 7.81055,-8.7793 1.49372,-1.95837 7.75053,-8.68764 13.9043,-14.95312 10.81156,-11.00784 23.50289,-24.38439 26.77539,-28.2207 0.87275,-1.02313 3.68525,-3.65259 6.25,-5.84376 2.98559,-2.55061 4.66406,-4.79173 4.66406,-6.23046 0,-1.52383 0.75634,-2.43654 2.34766,-2.83594 1.29068,-0.32394 4.05042,-2.62951 6.13476,-5.12305 2.08434,-2.49354 7.10432,-8.07755 11.1543,-12.4082 5.79049,-6.1918 7.36328,-8.51973 7.36328,-10.89649 0,-1.66235 0.3375,-3.02434 0.75,-3.02734 1.4187,-0.012 11.56836,-19.33322 12.83203,-24.42773 0.40019,-1.61334 1.32974,-4.08834 2.06641,-5.5 0.73668,-1.41166 1.3427,-3.77778 1.3457,-5.25782 0.003,-1.48004 0.40239,-2.93503 0.88672,-3.23437 5.13499,-3.1736 6.33481,-67.34837 1.38086,-73.85938 -0.50797,-0.66764 -2.19569,-4.81484 -3.75,-9.21484 -1.55431,-4.4 -3.65439,-9.1944 -4.66797,-10.6543 C 707.83018,189.3858 707,187.79021 707,187.30078 c 0,-0.86802 -2.71242,-3.98031 -13.41211,-15.39062 -2.88261,-3.07406 -6.5278,-7.34906 -8.10156,-9.5 -3.7801,-5.16646 -6.81302,-8.49105 -21.57617,-23.65821 C 657.08507,131.74007 648.8,122.99024 645.5,119.30859 642.2,115.62693 636.575,109.64008 633,106.00586 621.58928,94.406106 603.82598,75.28229 602.13477,72.775391 600.22829,69.949382 598.18231,67.657572 588,56.945312 c -8.29603,-8.727805 -8.09033,-8.495897 -16.37695,-18.412109 -3.23223,-3.867865 -11.78223,-13.473102 -19,-21.34375 -5.07775,-5.537055 -8.74104,-9.8117838 -11.02539,-12.6542968 h -3.03321 c -3.85969,10e-8 -5.39572,-2.3461658 -4.60937,-4.2148437 z M 439.69336,11.763672 c 37.81574,0.03894 73.10323,0.218222 76.02539,0.507812 4.2792,0.424074 11.22706,1.099074 15.4375,1.5 l 7.6543,0.728516 6.28711,7 c 3.4574,3.85 8.85174,9.557942 11.98828,12.683594 3.13655,3.125652 5.86298,6.125822 6.05859,6.667968 0.33127,0.91809 8.82895,10.887148 13.35547,15.667969 1.1,1.1618 3.7937,4.33326 5.98633,7.046875 2.19262,2.713616 6.69262,7.705484 10,11.09375 3.30737,3.388266 9.57588,10.250766 13.92969,15.25 C 610.76982,94.90939 614.66817,99 615.08008,99 c 0.41191,0 2.61961,2.3625 4.9043,5.25 4.16407,5.26292 9.61696,11.19054 28.28906,30.75 5.51301,5.775 11.15598,11.7375 12.54101,13.25 1.38502,1.5125 2.8613,2.75 3.2793,2.75 0.41801,0 0.9042,0.61989 1.08203,1.37695 0.47809,2.03535 14.69084,17.87263 31.82422,35.46289 7.08601,7.27496 7.68584,8.25022 10.86133,17.67969 3.42552,10.1719 7.36949,29.25409 6.38281,30.87891 -0.90521,1.49067 -1.04057,8.60885 -0.17383,9.14453 1.01647,0.62821 0.2667,15.14551 -1.16015,22.45703 -1.21134,6.20714 -3.85126,15.74217 -4.98438,18 -0.41403,0.825 -1.95471,4.96298 -3.42187,9.19531 -1.46717,4.23234 -3.30574,8.22554 -4.08594,8.87305 -0.7802,0.64751 -1.41797,1.7576 -1.41797,2.46875 0,0.71116 -1.57491,4.14491 -3.5,7.62891 -1.92509,3.484 -3.80832,7.00898 -4.18359,7.83398 -1.33097,2.92607 -4.86091,7.41237 -8.16993,10.38086 -1.84496,1.65511 -3.65919,3.83211 -4.03125,4.83789 -0.6418,1.73493 -12.44833,14.93577 -23.86523,26.68359 -2.8875,2.9712 -5.25,5.47631 -5.25,5.56641 0,0.18709 -10.96337,11.99051 -13.99414,15.06641 C 634.90294,385.6545 634,387.117 634,387.78516 634,388.45332 633.61567,389 633.14648,389 c -1.84701,0 -30.9689,30.53295 -34.21875,35.87695 -1.0668,1.75421 -2.56991,3.43232 -3.34179,3.72852 -0.77189,0.2962 -3.41508,3.09397 -5.87305,6.2168 -2.45797,3.12283 -8.32963,9.72026 -13.04687,14.66015 -4.71723,4.93989 -9.15884,10.11489 -9.8711,11.5 -0.71226,1.38511 -2.35867,3.37848 -3.6582,4.42969 -1.29954,1.05122 -3.13214,3.17478 -4.07227,4.7207 -0.94014,1.54593 -7.06937,8.45942 -13.62109,15.36328 -9.59578,10.11153 -12.68886,12.76113 -15.9043,13.62696 -2.87465,0.77402 -4.48416,0.76799 -5.75195,-0.0234 C 521.01238,497.36644 516,497.70384 516,499.62305 c 0,1.32706 -0.27214,1.39665 -1.49609,0.38086 -1.16974,-0.97079 -10.93839,-1.09225 -44.75,-0.55274 -87.08032,1.3895 -163.10956,1.84438 -179.73047,1.07422 -5.03701,-0.2334 -8.99033,0.0319 -9.74024,0.6543 -0.70197,0.58258 -2.75826,0.76609 -4.63476,0.41406 -3.06259,-0.57455 -46.12162,-0.64407 -194.14844,-0.3125 -28.05,0.0628 -51.225,0.38834 -51.5,0.72266 -0.275,0.33431 -2.3,0.29334 -4.5,-0.0918 -2.2,-0.38514 -6.170593,-0.99164 -8.824219,-1.3457 C 8.0601234,499.41688 7.8602696,499.09155 8.0625,486.5 8.159668,480.45 7.9252476,474.74967 7.5429688,473.83203 c -0.3822785,-0.91763 -0.3690521,-5.19263 0.027344,-9.5 0.3963933,-4.30736 0.64851,-22.63068 0.5625,-40.7168 -0.1105657,-23.24963 0.1768954,-33.2841 0.9785156,-34.25 0.8490838,-1.02308 0.8279598,-1.73475 -0.085937,-2.83593 -0.7988131,-0.96251 -1.0089701,-3.1214 -0.6074218,-6.25 0.4653817,-3.62595 2.0532252,-212.86607 1.6621092,-219.0293 -0.04363,-0.6875 -0.1156621,-1.8125 -0.1601561,-2.5 -0.044494,-0.6875 0.1698001,-4.76813 0.4765621,-9.06836 0.306763,-4.30024 0.837909,-33.7529 1.181641,-65.449218 0.343733,-31.696317 0.916939,-60.565172 1.273437,-64.154297 L 13.5,13.552734 18,12.685547 c 2.475,-0.476732 13.725,-0.738925 25,-0.582031 11.275,0.156896 36.475,0.163564 56,0.01367 59.12089,-0.453838 64.38583,-0.468044 67.5,-0.183594 2.60303,0.237765 171.23661,0.39158 182,0.166015 13.03449,-0.27316 53.37761,-0.374873 91.19336,-0.335937 z M 483.19336,68 c -3.80308,0 -4.60237,4.829208 -4.4043,26.621094 0.2036,22.401066 0.3216,22.011946 -6.28906,20.716796 -1.65,-0.32326 -9.075,-0.54955 -16.5,-0.50195 -7.425,0.0476 -17.81455,0.10038 -23.08789,0.11718 -8.18409,0.0261 -9.84433,0.31448 -11.33789,1.96485 -2.91192,3.21762 -1.80565,5.40371 3.92578,7.75976 1.1,0.45218 13.475,0.82227 27.5,0.82227 20.75721,0 25.448,0.24958 25.2207,1.33789 -0.15343,0.73534 -0.25405,5.23534 -0.22265,10 0.0316,4.76466 0.0329,9.56211 0.004,10.66211 -0.40432,14.90137 -0.21602,16.64286 2.06446,19.07031 3.01989,3.21453 3.76557,3.07623 5.47851,-1.02343 1.23824,-2.96352 2.13485,-12.94718 1.44141,-16.04688 -0.12299,-0.55 -0.17057,-5.78446 -0.10547,-11.63281 0.11256,-10.10698 0.23052,-10.66802 2.36914,-11.32422 3.16034,-0.96969 15.74891,-2.23391 15.75391,-1.58203 0.009,1.03105 7.45056,0.92157 8.09375,-0.11914 0.44194,-0.71507 1.3805,-0.65611 2.95312,0.18554 3.25816,1.74371 19.7623,0.45139 22.17969,-1.73632 2.40919,-2.18029 2.22426,-3.92614 -0.72656,-6.87696 l -2.4961,-2.49609 -23.7539,0.29101 L 487.5,114.5 l 0.0664,-5 c 0.0361,-2.75 0.15328,-7.25 0.26171,-10 1.03238,-26.177084 0.2499,-31.5 -4.63476,-31.5 z m -275.20508,2.181641 c -2.62283,0.512267 -3.05764,5.157968 -2.98633,23.072265 0.0425,10.585084 0.0586,20.033594 0.0371,20.996094 -0.0323,1.44647 -0.97791,1.75 -5.45508,1.75 -3.44228,0 -5.57052,0.45563 -5.83789,1.25 -0.32261,0.95853 -0.74979,0.97794 -1.83398,0.084 -0.77761,-0.64128 -4.1008,-1.29133 -7.38281,-1.44336 -5.6014,-0.25946 -6.00097,-0.12559 -6.54102,2.16211 -0.31732,1.34417 -1.45235,2.60372 -2.53125,2.8086 -1.87249,0.35559 -1.88219,0.28757 -0.20703,-1.57422 0.9625,-1.06973 1.75,-2.24605 1.75,-2.61523 1e-5,-0.36925 -4.12769,-0.67188 -9.17188,-0.67188 -7.13059,0 -9.57814,0.36755 -11,1.6543 -2.39277,2.16546 -2.32971,5.55124 0.13086,7.08789 2.78058,1.73655 33.34693,1.78027 44.54102,0.0645 1.95346,-0.29949 2.0019,0.27512 2.0625,24.69336 0.0342,13.75 0.39069,26.28154 0.79297,27.84766 0.64156,2.49765 1.06258,2.76452 3.43164,2.16992 5.22393,-1.31112 5.16884,-1.01416 5.06836,-27.36914 -0.0517,-13.55649 -0.0399,-25.20378 0.0254,-25.88282 0.0864,-0.89794 1.68692,-1.07554 5.86914,-0.64843 7.76989,0.79346 37.32288,0.72943 43.92773,-0.0957 L 268,124.85547 v -3.89258 c 0,-5.96639 -1.2847,-6.28429 -24.45703,-6.06055 -19.50891,0.18839 -28.21419,1.20204 -27.01367,3.14454 1.14891,1.85895 -0.73786,0.91921 -2.60352,-1.29688 -1.75906,-2.08947 -1.8551,-3.60555 -1.3457,-21.25 0.59222,-20.512922 0.0261,-24.817545 -3.33008,-25.310547 -0.46892,-0.06888 -0.88703,-0.08107 -1.26172,-0.0078 z M 73.148438,197.21875 c -0.272639,-0.0898 -0.555868,-0.0641 -0.876954,0.0586 -0.428113,0.16364 -0.923013,0.50109 -1.548828,0.97266 -1.73708,1.30894 -2.491135,10.89446 -3.08789,39.25 l -0.251954,12 -23.941406,0.56445 c -13.167793,0.30994 -24.053906,0.64745 -24.191406,0.75 -0.1375,0.10255 -0.25,0.8224 -0.25,1.60157 0,0.77916 -0.485925,1.57928 -1.080078,1.77734 -1.88335,0.62778 1.211134,5.80163 3.86914,6.46875 1.345623,0.33773 10.380539,0.69856 20.078126,0.80273 9.697586,0.10416 19.506791,0.26839 21.796874,0.36328 L 67.828125,262 67.306641,284.5 c -0.286355,12.37518 -0.26185,23.17518 0.05469,24 0.701292,1.82754 6.198003,2.01579 7.302734,0.25 1.19426,-1.90888 1.587481,-18.28673 0.875,-36.48242 l -0.441406,-11.23047 19.201172,0.57227 c 27.233332,0.81114 25.681692,0.93758 28.330082,-2.29883 2.79863,-3.42001 2.8065,-3.50232 0.59961,-6.04688 -1.65229,-1.90512 -3.0458,-2.05888 -20.75,-2.28125 -10.438347,-0.1311 -20.663388,-0.44466 -22.722661,-0.69726 l -3.74414,-0.45899 -0.09961,-15.66211 c -0.141496,-22.12172 -0.08229,-23.40888 1.197266,-25.83594 0.932875,-1.76945 0.733508,-3.01976 -1.072266,-6.75 -1.349712,-2.7881 -2.070764,-4.0901 -2.888671,-4.35937 z m 630.767582,2.9043 c -0.3474,-0.0143 -0.74259,0.0489 -1.10352,0.19336 -0.79773,0.31922 -0.56143,0.55745 0.60352,0.60547 1.05416,0.0434 1.64479,-0.19311 1.3125,-0.5254 -0.16615,-0.16612 -0.46511,-0.25913 -0.8125,-0.27343 z m -363.50196,0.4414 c -0.4686,0.0346 -0.85981,0.26891 -1.22265,0.70703 -0.58033,0.70075 -1.32988,11.65159 -1.7461,25.47852 l -0.73047,24.25 -9.60742,0.15039 c -5.28398,0.0826 -14.31866,0.1951 -20.07617,0.25 l -10.4668,0.0996 -1,2.81836 c -0.75404,2.12756 -0.62993,3.47524 0.50782,5.5 1.69796,3.02173 -0.10412,2.88288 26.17773,2 15.21091,-0.51097 15.35162,-0.47812 14.91602,3.28711 -0.0385,0.33251 -0.13846,5.95751 -0.22266,12.5 -0.0842,6.54249 -0.61791,12.46673 -1.1875,13.16601 -1.2295,1.50945 -0.23552,13.14925 1.25,14.63477 0.54658,0.54658 0.99414,1.80297 0.99414,2.79297 0,2.06739 2.26399,2.39753 3.78125,0.55078 1.25971,-1.53332 2.33549,-14.64453 2.72461,-33.20898 0.29067,-13.86821 0.30935,-13.95861 2.64453,-14.06446 1.29274,-0.0586 7.63711,-0.18948 14.09961,-0.29101 11.45658,-0.17999 11.74978,-0.24174 11.77148,-2.43555 l 0.0234,-2.25 1.89063,2.46094 c 1.93784,2.52165 5.22801,2.90803 12.31445,1.44726 2.48099,-0.51142 2.75,-0.9844 2.75,-4.82812 0,-4.07043 -0.17525,-4.31691 -3.92578,-5.55469 -2.1591,-0.71257 -4.7466,-0.95334 -5.75,-0.53516 -1.00339,0.41817 -8.62997,0.86632 -16.94922,0.99805 -8.31925,0.13172 -15.54182,0.4972 -16.04883,0.81055 -2.71501,1.67796 -3.09903,-1.11401 -2.3164,-16.79883 0.84147,-16.86395 0.79283,-20.03137 -0.32227,-21.14648 -0.37787,-0.37787 -0.6875,-3.0704 -0.6875,-5.98438 0,-4.17684 -0.4006,-5.51297 -1.89453,-6.3125 -0.67556,-0.36154 -1.22281,-0.52674 -1.69141,-0.49219 z m 281.67383,0.58008 c -0.52222,-0.0725 -0.97914,0.31898 -1.77734,1.11719 -1.28155,1.28155 -1.81879,4.08925 -2.19141,11.4668 -0.58018,11.48717 -0.64187,24.22615 -0.14453,29.57226 0.6272,6.74199 -0.71337,7.24907 -18.14453,6.87305 -16.92243,-0.36505 -24.18316,0.32183 -26.35547,2.49414 -1.64265,1.64265 -1.88232,4.14147 -0.5918,6.17773 1.00055,1.57874 16.49725,2.61893 33.77539,2.26758 l 11.15821,-0.22656 0.34179,6.30664 c 0.18794,3.4689 0.0978,12.15664 -0.20117,19.30664 -0.29892,7.15 -0.13224,14.6875 0.37109,16.75 0.93215,3.81971 2.65674,4.67771 5.62696,2.79883 2.01826,-1.2767 2.9154,-12.42628 2.39648,-29.77149 l -0.42383,-14.2207 2.6875,-0.67578 c 1.47827,-0.37099 8.58084,-0.33721 15.78516,0.0742 16.53668,0.94476 19.3713,0.82771 23.21094,-0.96485 4.70245,-2.19537 5.94614,-4.07533 3.98828,-6.0332 C 670.71999,253.57757 670,252.43845 670,251.92773 670,251.41702 669.325,251 668.5,251 c -0.825,0 -1.5,-0.39399 -1.5,-0.875 0,-0.48101 -6.4125,-0.90305 -14.25,-0.93945 -10.684,-0.0496 -14.79484,0.2869 -16.42578,1.34765 -1.66215,1.08104 -2.27985,1.12675 -2.61914,0.19141 -0.34868,-0.96119 -0.89817,-0.95622 -2.56055,0.0254 -1.16439,0.6875 -3.00243,1.25 -4.08398,1.25 -1.79481,0 -1.9052,-0.45823 -1.26367,-5.25 0.38657,-2.8875 0.70312,-13.44988 0.70312,-23.47266 0,-17.55561 -0.0824,-18.30598 -2.24609,-20.46875 -1.05626,-1.05577 -1.6438,-1.59153 -2.16602,-1.66406 z M 480.90234,346.20117 c -2.65961,0.31158 -5.14616,3.67497 -4.48046,7.34571 0.25837,1.42486 0.54853,11.44688 0.64453,22.27148 l 0.17578,19.68164 -22.7461,0.26953 c -12.5099,0.148 -23.25208,-0.13133 -23.87109,-0.61914 -2.00523,-1.58024 -7.09065,2.14031 -7.41406,5.42383 -0.51078,5.18574 1.52112,5.63081 27.21875,5.97851 12.68863,0.17169 23.63281,0.34396 24.32031,0.38086 0.92325,0.0496 1.25,3.05749 1.25,11.50782 0,6.56921 0.42622,11.70472 1.00195,12.06054 0.67028,0.41425 0.67028,1.23977 0,2.49219 -1.1103,2.07461 -1.39184,18.28394 -0.33593,19.33984 1.62078,1.62078 5.33398,-0.0384 5.33398,-2.38281 0,-1.0087 0.45,-2.11125 1,-2.45117 0.61101,-0.37763 1,-8.15738 1,-20 0,-13.90897 0.33522,-19.58951 1.18945,-20.11719 0.6547,-0.40462 10.72039,-0.80693 22.36719,-0.89453 20.05623,-0.15077 21.36906,-0.27929 24.81055,-2.40625 C 534.87098,402.5346 536,401.1091 536,399.49609 c 0,-3.32226 -4.7522,-4.68454 -12.5,-3.58398 -3.41326,0.4848 -6.72545,0.47242 -7.68359,-0.0293 -2.39032,-1.25166 -6.20647,-1.09236 -7.61719,0.31836 -0.93421,0.93421 -1.99921,0.91025 -4.80274,-0.10351 -2.32607,-0.84112 -5.46659,-1.06844 -8.85937,-0.64454 -2.89052,0.36093 -6.43094,0.36048 -7.86719,0 -2.55211,-0.64053 -2.60055,-0.80656 -2.13476,-7.30468 1.28327,-17.90223 0.74071,-39.67489 -1.02539,-41.14063 -0.81494,-0.67633 -1.72089,-0.9105 -2.60743,-0.80664 z m -275.02929,1.81445 c -3.75982,-0.0354 -4.1499,2.30399 -4.0918,24.56446 0.0407,15.58911 -0.26773,21.65356 -1.11328,21.93554 -2.36527,0.78907 -40.19458,1.19328 -42.76172,0.45704 -2.08495,-0.59796 -3.21888,-0.23852 -5.28125,1.67382 -3.05023,2.82833 -3.34571,5.40012 -0.875,7.60547 2.42483,2.16439 3.13662,2.19878 26.5,1.30078 14.81142,-0.56929 21.13303,-0.47996 22.08789,0.3125 1.06586,0.88459 1.24312,5.24319 0.86914,21.44336 -0.33227,14.39294 -0.12838,20.96898 0.69727,22.51172 1.64207,3.06823 5.86376,2.92029 7.06836,-0.24804 1.12712,-2.96454 1.55485,-28.9223 0.60546,-36.73047 -0.47461,-3.90349 -0.32409,-5.88045 0.48243,-6.37891 0.64288,-0.39732 8.80057,-0.63572 18.1289,-0.53125 11.21554,0.12562 17.41333,-0.18664 18.29688,-0.91992 0.92233,-0.76542 1.53703,-0.78396 1.98437,-0.0606 0.68262,1.10451 13.49615,1.43369 17.19532,0.44141 2.30965,-0.61955 3.78354,-4.40205 2.85546,-7.32617 -0.92632,-2.9186 -5.25325,-4.24057 -11.43164,-3.49414 C 250.84376,395.32729 249,396.36366 249,399.12305 249,400.33394 248.28986,401 247,401 c -2.42224,0 -2.48014,-0.37728 -0.38086,-2.47656 0.89047,-0.89048 1.36408,-1.87422 1.05274,-2.18555 -0.95152,-0.95148 -11.59785,-1.58853 -22.84766,-1.36719 -5.87203,0.11553 -11.5074,-0.0525 -12.52344,-0.375 -1.7151,-0.54435 -1.86197,-2.17532 -2.04883,-22.76758 -0.2079,-22.91205 -0.36685,-23.77469 -4.3789,-23.8125 z" />
  </g>
</svg>
