<?xml version="1.0" encoding="UTF-8" standalone="no"?>
<!-- Created with Inkscape (http://www.inkscape.org/) -->

<svg
   version="1.1"
   id="svg1"
   width="724"
   height="506"
   viewBox="0 0 724 506"
   sodipodi:docname="2.svg"
   inkscape:version="1.4 (86a8ad7, 2024-10-11)"
   xmlns:inkscape="http://www.inkscape.org/namespaces/inkscape"
   xmlns:sodipodi="http://sodipodi.sourceforge.net/DTD/sodipodi-0.dtd"
   xmlns="http://www.w3.org/2000/svg"
   xmlns:svg="http://www.w3.org/2000/svg">
  <defs
     id="defs1" />
  <sodipodi:namedview
     id="namedview1"
     pagecolor="#ffffff"
     bordercolor="#000000"
     borderopacity="0.25"
     inkscape:showpageshadow="2"
     inkscape:pageopacity="0.0"
     inkscape:pagecheckerboard="0"
     inkscape:deskcolor="#d1d1d1"
     inkscape:zoom="1.5711462"
     inkscape:cx="362.15597"
     inkscape:cy="253"
     inkscape:window-width="1920"
     inkscape:window-height="1013"
     inkscape:window-x="2391"
     inkscape:window-y="605"
     inkscape:window-maximized="1"
     inkscape:current-layer="g1" />
  <g
     inkscape:groupmode="layer"
     inkscape:label="Image"
     id="g1">
    <path
       style="fill:#000000"
       d="m 333.612,504.27878 c -0.56847,-0.56876 -83.2654,-1.32122 -137.612,-1.25212 -33.275,0.0423 -66.575,-0.0173 -74,-0.13248 -7.425,-0.11517 -15.1682,-0.15022 -17.20712,-0.0779 -2.03891,0.0723 -3.97872,-0.30796 -4.31069,-0.84509 -0.3379,-0.54673 -1.347144,-0.62574 -2.292878,-0.17948 -1.460859,0.68931 -12.088894,0.75456 -49.689312,0.30504 -4.4,-0.0526 -12.469472,0.13554 -17.93216,0.41808 -7.352964,0.38032 -10.133725,0.18758 -10.70836,-0.7422 -0.618172,-1.00022 -1.028985,-1.00313 -2.017839,-0.0143 -1.570452,1.57045 -5.080049,1.60323 -6.621435,0.0618 -0.906391,-0.9064 -1.7317457,-0.8844 -3.5615962,0.0949 -2.8013549,1.49924 -6.1955948,-0.0365 -7.01621671,-3.1746 C -0.03280786,496.15854 0.77387452,324.28605 1.6361958,287 2.0241542,270.225 2.4046864,243 2.4818228,226.5 2.5589591,210 2.9349699,179.85 3.3174022,159.5 3.6998346,139.15 4.2372333,96.71058 4.5116216,65.190178 4.9350565,16.548036 5.2404624,7.4356771 6.5309349,4.9401785 7.3671689,3.3230803 8.8273042,1.9081314 9.7756801,1.7958476 10.724056,1.6835638 49.75,1.5710638 96.5,1.5458476 143.25,1.5206314 211.875,1.4414522 249,1.3698939 c 37.125,-0.071558 71.1,-0.038295 75.5,0.073919 8.45038,0.2155118 55.37868,0.3922921 81.5,0.307013 8.525,-0.027832 40.65427,0.1031994 71.39838,0.2911805 l 55.89838,0.3417838 2.79909,2.5581048 C 537.63535,6.3488529 539.55967,9.075 540.37212,11 c 0.81245,1.925 4.03976,5.975 7.1718,9 8.95426,8.648237 27.74604,28.577205 30.64547,32.5 2.97225,4.021298 10.49371,12.132009 14.99228,16.166798 2.96382,2.658261 6.72291,6.556471 8.35354,8.66269 3.08702,3.987364 13.68597,14.893888 19.08703,19.640908 1.71724,1.509286 5.26744,5.395884 7.88933,8.636884 6.96945,8.6151 12.39232,14.39272 13.50903,14.39272 0.53867,0 0.9794,0.67119 0.9794,1.49153 0,0.82034 0.9,2.05358 2,2.74054 1.1,0.68696 2,1.72275 2,2.30175 0,1.27628 9.58734,10.46618 10.91882,10.46618 0.51975,0 1.9759,1.4625 3.23591,3.25 1.26,1.7875 3.09064,4.12235 4.06809,5.18856 0.97745,1.06621 1.77718,2.31485 1.77718,2.77475 0,0.45991 1.08078,1.2471 2.40173,1.74933 1.32096,0.50223 3.66129,2.62859 5.20075,4.72525 1.53945,2.09666 6.19617,7.4462 10.34826,11.88787 12.45121,13.31959 17.2798,19.22329 19.16319,23.42997 0.98356,2.19685 2.26029,3.99427 2.83718,3.99427 0.57689,0 1.04889,0.60526 1.04889,1.34501 0,0.73976 0.9,2.1595 2,3.15499 1.1,0.99549 2,2.21907 2,2.71906 0,0.5 1.125,3.3686 2.5,6.37465 1.375,3.00606 2.5,6.10067 2.5,6.87691 0,0.77624 0.39899,1.65793 0.88664,1.95932 0.48765,0.30138 1.16508,2.01544 1.5054,3.80901 0.34033,1.79358 1.3435,4.61105 2.22927,6.26105 4.13358,7.69993 1.96848,44.18221 -3.45035,58.13915 -1.03799,2.67347 -2.17335,7.39164 -2.52303,10.48483 -0.34968,3.09319 -1.31074,6.91819 -2.13569,8.5 -0.82496,1.58181 -1.50269,3.55328 -1.50608,4.38104 -0.008,2.01528 -8.62017,19.11944 -13.09113,26.00033 -1.96745,3.02794 -5.20347,6.6197 -7.19116,7.98168 -1.98768,1.36198 -4.06489,3.466 -4.61602,4.6756 -0.55113,1.2096 -2.37586,3.21497 -4.05495,4.45638 -1.6791,1.24141 -3.0529,2.61731 -3.0529,3.05756 0,0.44025 -4.275,4.93064 -9.5,9.97865 -5.225,5.04801 -9.5,9.72087 -9.5,10.38413 0,0.66326 -1.93272,2.98745 -4.29494,5.16486 -2.36221,2.17742 -5.32287,5.27223 -6.57924,6.87736 -1.25638,1.60514 -4.45347,4.71843 -7.10466,6.91843 -2.65119,2.2 -7.28282,7.26484 -10.2925,11.25519 -3.00967,3.99036 -6.76293,8.26536 -8.34056,9.5 -1.57764,1.23465 -4.22285,3.80721 -5.87826,5.7168 -1.65541,1.90959 -6.15984,6.79001 -10.00984,10.84537 -3.85,4.05535 -7.15,7.78046 -7.33333,8.27801 -0.18334,0.49754 -0.79226,0.90463 -1.35317,0.90463 -1.49898,0 -14.3805,13.26844 -16.1389,16.62365 -0.82908,1.58199 -4.13254,5.41479 -7.34101,8.51732 C 564.6631,476.42612 557,484.53832 557,485.60761 c 0,0.60139 -2.25,2.49212 -5,4.20161 -2.75,1.70949 -5.01497,3.68926 -5.03327,4.39948 -0.0466,1.8095 -3.52738,5.7913 -5.06257,5.7913 -0.70139,0 -2.27724,0.94131 -3.50188,2.0918 -2.22656,2.09175 -2.22942,2.09181 -103.3979,2.25 -55.6442,0.087 -101.27077,0.0587 -101.39238,-0.063 z m 23.75087,-9.30208 c 1.12175,-1.04319 -0.0878,-2.9767 -1.86209,-2.9767 -0.75966,0 -3.9028,-1.30829 -6.98476,-2.90731 -4.90741,-2.54612 -6.064,-2.7837 -9.30979,-1.91235 C 334.43424,488.46141 327,492.11385 327,493.17726 c 0,0.4525 -0.1125,1.16024 -0.25,1.57274 -0.64845,1.94536 28.5324,2.16146 30.61287,0.2267 z m 50.99406,0.81303 c 13.21675,-0.14854 14.46838,-0.61404 13.11515,-4.87769 -0.73886,-2.32793 -10.35948,-6.03764 -17.32912,-6.68211 -4.30837,-0.39838 -6.46169,0.004 -11,2.05307 -11.34166,5.122 -13.00033,5.717 -15.9371,5.717 -2.91393,0 -5.07308,2.346 -3.21566,3.49394 0.49657,0.3069 4.52449,0.46889 8.95094,0.35997 4.42645,-0.10891 8.35546,0.10935 8.73114,0.48503 0.37568,0.37568 1.45652,0.43757 2.40187,0.13753 0.94535,-0.30005 7.3726,-0.60908 14.28278,-0.68674 z m 66.39231,-4.03052 c -1.03053,-0.40744 -2.55283,-1.41994 -3.38289,-2.25 -0.83006,-0.83007 -2.26456,-1.56494 -3.18778,-1.63305 -0.92321,-0.0681 -3.88746,-0.2745 -6.58721,-0.45864 -2.69976,-0.18414 -5.37726,-0.80342 -5.95,-1.37616 -0.57275,-0.57275 -2.86386,-1.03921 -5.09136,-1.03658 -3.21984,0.004 -4.81867,0.71077 -7.8,3.44901 -2.0625,1.89434 -3.75,4.32763 -3.75,5.40732 0,1.87368 0.80411,1.96667 17.6575,2.04182 9.71163,0.0433 17.92204,0.34328 18.24536,0.6666 0.32332,0.32331 0.8426,-0.46006 1.15396,-1.74084 0.4094,-1.6841 0.0475,-2.53374 -1.30758,-3.06948 z M 83,494.21623 c 9.075,-0.189 16.8825,-0.71997 17.35,-1.17993 1.31991,-1.29864 -3.21841,-5.20544 -7.235979,-6.22907 C 91.126309,486.30078 87.7,485.42333 85.5,484.85734 79.955682,483.43095 72.570123,484.42988 70.053445,486.94656 68.92405,488.07595 66.947232,489 65.660515,489 c -2.848889,0 -5.176145,4.08437 -3.361329,5.89919 0.629488,0.62948 1.832189,0.81066 2.672669,0.4026 C 65.812335,494.89374 73.925,494.40524 83,494.21623 Z m 159.20196,0.16486 c 6.76392,0.30043 14.99804,0.67509 18.29804,0.83258 5.48836,0.26191 6.02619,0.10251 6.30719,-1.86931 0.25802,-1.81069 -1.04023,-2.81081 -8.11313,-6.25 C 254.06289,484.84246 249.40216,483 248.33688,483 c -1.06529,0 -2.45062,-0.51374 -3.07852,-1.14164 -0.85551,-0.85551 -2.00866,-0.7302 -4.60113,0.5 -1.90272,0.9029 -4.51648,1.64853 -5.80836,1.65695 -2.72684,0.0178 -3.36341,0.42945 -7.1885,4.64887 -2.4357,2.68679 -2.67471,3.44051 -1.68026,5.29866 0.90938,1.69919 1.4574,1.91894 2.54159,1.01915 0.95754,-0.79469 5.1608,-0.97931 13.68026,-0.6009 z M 312.2,494.15465 c 1.07325,-1.11069 0.86394,-1.63397 -1.2,-3 -1.375,-0.91006 -3.53295,-2.66715 -4.79545,-3.90465 -2.87476,-2.81783 -5.80452,-2.8275 -14.67634,-0.0484 -9.79018,3.06673 -14.85158,6.14174 -13.05928,7.93404 0.25792,0.25791 7.66041,0.44541 16.45,0.41667 12.02284,-0.0393 16.30305,-0.38549 17.28107,-1.39762 z m 214.66085,0.511 c 1.23221,-1.4873 -1.40548,-4.86238 -5.42074,-6.93616 -4.79339,-2.47566 -15.40952,-3.7516 -18.94011,-2.27639 -13.37284,5.58765 -16.31429,7.42033 -15.08975,9.40168 0.88734,1.43575 38.25281,1.25662 39.4506,-0.18913 z m -364.42038,-0.77442 c 0.33572,-0.33482 -1.76355,-2.43255 -4.66504,-4.66163 -4.01058,-3.08114 -6.83388,-4.34819 -11.77543,-5.28463 -3.575,-0.67747 -6.95,-1.54647 -7.5,-1.93111 -3.45321,-2.41499 -19.5,4.94457 -19.5,8.94331 0,3.40449 0.85633,3.54283 21.92968,3.54283 11.49521,0 21.17507,-0.27395 21.51079,-0.60877 z M 208,492.45832 c 0,-1.74957 -1.01672,-2.32004 -6.74307,-3.78347 C 193.72546,486.75011 181,489.52052 181,493.08492 c 0,0.90351 15.76245,1.64097 22.75,1.06439 2.71159,-0.22375 4.25,-0.83585 4.25,-1.69099 z m -188.5,0.5909 c 23.795593,0.61869 28.549433,0.44221 28.261883,-1.04922 -0.640008,-3.31951 -23.532601,-8.2783 -30.335239,-6.57094 -2.069858,0.5195 -2.304889,0.92992 -1.448672,2.52978 1.67731,3.13408 1.251122,4.55846 -0.806713,2.69615 -2.310162,-2.09067 -4.777639,-2.12313 -5.5642702,-0.0732 -1.1474823,2.99029 -0.6645297,3.66511 2.1430112,2.99439 1.5125,-0.36133 5,-0.59847 7.75,-0.52696 z m 304.4313,-7.17665 c 2.62184,-4.31128 3.55951,-13.64387 2.02221,-20.12694 C 325.26937,462.86054 324.38775,460.275 323.99434,460 322.42758,458.90479 320,452.93184 320,450.1721 c 0,-3.60725 -2.66916,-6.30723 -4.0609,-4.1078 -0.49966,0.78964 -0.91537,2.23903 -0.92379,3.22088 -0.008,0.98185 -0.79862,2.98067 -1.75599,4.44181 -1.30454,1.99096 -1.82664,5.3021 -2.08372,13.21481 l -0.34302,10.5582 3.54164,3.82976 c 1.9479,2.10637 3.81589,4.69387 4.15109,5.75 0.90572,2.85365 3.25556,2.32891 5.40599,-1.20719 z M 376,485.93782 c 9.20528,-2.42476 10.8897,-3.09188 15.47446,-6.1287 4.128,-2.73427 5.55156,-3.11245 11.85835,-3.15023 3.94195,-0.0236 7.81176,0.15597 8.59956,0.39908 1.97906,0.61073 3.69694,-8.77744 2.08352,-11.38633 -0.85951,-1.38982 -0.81995,-2.20281 0.16494,-3.38953 0.71261,-0.85864 1.81172,-3.41088 2.44245,-5.67164 0.63074,-2.26076 2.14201,-6.58547 3.35837,-9.61047 4.10174,-10.20066 5.05161,-18.71471 2.64063,-23.66896 -6.01017,-12.35015 -7.98406,-20.43923 -7.07011,-28.97362 0.53704,-5.01479 0.39223,-6.38247 -0.68567,-6.47602 -0.75158,-0.0652 -5.68749,-0.0237 -10.96871,0.0923 -7.91618,0.17389 -10.40866,-0.15646 -14.19513,-1.8814 C 387.17655,384.94154 384.63504,384 384.05486,384 383.47469,384 383,383.59703 383,383.1045 c 0,-0.49252 -1.79416,-1.78317 -3.98701,-2.86811 -3.33767,-1.65135 -4.17193,-1.7498 -5.12245,-0.6045 -0.62448,0.75246 -1.8324,1.36811 -2.68424,1.36811 -0.85185,0 -2.25925,0.60988 -3.12756,1.35528 -0.86831,0.7454 -4.05374,2.15211 -7.07874,3.12601 -3.025,0.97391 -6.53581,2.16501 -7.80181,2.64689 -1.26599,0.48188 -5.40427,0.58781 -9.19616,0.23539 -7.88964,-0.73326 -7.47584,-1.23663 -8.3327,10.13643 -0.24862,3.3 -1.23978,7.575 -2.20257,9.5 -4.29891,8.59525 -5.21316,10.65751 -5.79563,13.0731 -0.34124,1.41521 -1.8124,4.32957 -3.26925,6.47635 -2.39945,3.53579 -2.59265,4.50471 -2.05222,10.29206 0.32813,3.51384 1.10177,6.99751 1.71921,7.74148 6.5523,7.89503 11.64759,24.34126 9.04685,29.20079 -0.61365,1.14661 -1.11572,3.06678 -1.11572,4.26706 0,1.88905 0.36955,2.0853 2.75,1.4604 6.58318,-1.72816 20.33959,0.28899 23.7496,3.4825 3.61766,3.38797 7.42245,4.84774 10.31379,3.95705 1.47764,-0.45519 4.71161,-1.36103 7.18661,-2.01297 z m -6.21775,-39.89446 c -1.3907,-1.09393 -3.28988,-3.59334 -4.22039,-5.55424 -2.18041,-4.59487 -0.96455,-8.63695 4.31976,-14.3609 4.55763,-4.93679 7.61877,-5.30793 11.36767,-1.37822 4.42791,4.64146 4.92956,7.33207 2.63424,14.12887 -2.31454,6.85374 -3.03032,7.61695 -7.97813,8.5069 -2.75617,0.49574 -4.18437,0.18263 -6.12315,-1.34241 z m -255.34043,38.78585 c 2.58004,-4.36767 2.7386,-21.51427 0.25154,-27.20133 C 113.76201,455.49821 113,452.20582 113,450.31145 c 0,-3.16543 -0.22206,-3.41868 -2.74269,-3.12787 -3.19288,0.36836 -3.57987,2.04373 -5.15475,22.31642 -0.86725,11.16373 -0.79309,12.22649 1.06417,15.25 2.62806,4.27833 5.7768,4.30847 8.27509,0.0792 z m 110.04974,-2.15207 c 1.90098,-8.39334 2.44698,-15.98917 1.46448,-20.37329 C 223.75739,452.49304 216,439.41442 216,445.51841 c 0,0.83512 -1.2375,3.87262 -2.75,6.75 -2.29743,4.37063 -2.72972,6.38358 -2.62678,12.23159 0.0692,3.9345 0.83563,8.69571 1.75,10.87212 0.89473,2.12967 1.62678,4.65649 1.62678,5.61515 0,0.95865 0.90397,2.89223 2.00883,4.29682 1.91508,2.43463 2.14838,2.48419 4.99923,1.062 1.64473,-0.82049 3.2123,-2.47152 3.4835,-3.66895 z m 55.60416,2.57286 c 2.89726,-2.45216 10.8488,-5.29089 19.40428,-6.92742 3.74257,-0.71589 5.74076,-2.25278 5.09999,-3.92261 -0.27007,-0.70377 -0.0628,-5.41896 0.46065,-10.47819 0.71825,-6.94235 1.68601,-10.64368 3.94552,-15.0901 1.64661,-3.24032 2.99384,-6.35273 2.99384,-6.91645 0,-0.56373 0.97915,-3.13777 2.17589,-5.72009 2.45453,-5.29641 2.68211,-13.54906 0.44467,-16.12515 -2.53588,-2.91969 -4.85536,-11.93889 -4.21188,-16.37769 0.65749,-4.53546 0.67111,-5.08018 0.32346,-12.9423 -0.24771,-5.60201 -0.5785,-5.84533 -5.23214,-3.84853 -6.62213,2.84144 -20.25468,0.19992 -25.84449,-5.00778 C 278.53756,380.85216 277.25773,380 276.81144,380 276.36515,380 276,379.325 276,378.5 c 0,-2.25595 -5.58285,-1.93365 -7.22957,0.41738 -0.73864,1.05455 -4.25166,2.90748 -7.80671,4.11761 -5.71803,1.9464 -7.75075,2.12909 -17.61983,1.58358 l -11.1561,-0.61666 1.09506,3.56803 c 0.8104,2.64054 0.786,4.72358 -0.0939,8.0134 -0.65392,2.44495 -1.18895,5.50939 -1.18895,6.80986 0,2.67446 -5.16512,11.71706 -9.14189,16.00474 -4.2989,4.635 -4.82128,15.77243 -0.86649,18.47403 1.10461,0.75459 2.00838,2.03361 2.00838,2.84227 0,0.80867 0.9,2.61447 2,4.01289 1.1,1.39842 2,3.1018 2,3.78528 0,0.68349 0.63589,1.77044 1.41308,2.41545 0.7772,0.64502 1.71302,3.51262 2.07962,6.37245 0.36659,2.85983 1.17514,6.67336 1.79678,8.47452 0.82013,2.37628 0.83296,4.06245 0.0467,6.14541 -1.46949,3.89311 -0.28849,5.54321 3.30742,4.62115 6.5834,-1.6881 12.23417,-1.74039 14.52703,-0.13441 1.25089,0.87616 3.04302,1.59302 3.98251,1.59302 1.88016,0 6.62065,2.78179 13.11924,7.69856 5.23055,3.95738 7.66498,4.07092 11.82331,0.55144 z M 263.5,444.35888 c -3.18256,-1.7418 -4.90963,-3.89818 -5.09292,-6.35888 -0.0615,-0.825 -0.42637,-2.49001 -0.81093,-3.70002 -0.8032,-2.52725 0.97982,-6.48289 4.75544,-10.54998 3.75211,-4.04178 7.33378,-3.66083 12.35884,1.31449 4.86262,4.81449 5.72361,7.48167 4.03916,12.51246 -2.22628,6.649 -9.54517,9.90392 -15.24959,6.78193 z m 274.83836,42.18446 c 2.46367,-1.86689 3.29483,-6.26314 3.22224,-17.04334 -0.0507,-7.52828 -0.42853,-9.59164 -2.3106,-12.61803 -1.2375,-1.98992 -2.25,-4.36655 -2.25,-5.28139 0,-1.58685 -2.59045,-3.34347 -3.53607,-2.39785 -0.24739,0.2474 -0.90967,2.87468 -1.47173,5.8384 -0.56206,2.96373 -1.46524,5.83191 -2.00706,6.37373 -0.54183,0.54183 -0.98514,5.06761 -0.98514,10.0573 0,8.65249 0.14214,9.2446 3.0728,12.8 3.42437,4.15435 3.66521,4.24165 6.26556,2.27118 z m -46.58514,-4.14963 c 8.24897,-4.38673 9.05585,-4.60811 16.92796,-4.64431 5.1133,-0.0235 8.82998,0.42993 9.74443,1.18887 0.81307,0.67478 2.28265,1.07198 3.26572,0.88266 1.57591,-0.30349 1.80529,-1.64445 1.93856,-11.33258 0.0922,-6.70181 0.71523,-12.54874 1.59712,-14.98835 2.22645,-6.15909 1.59111,-21.99111 -1.16377,-29 -2.17658,-5.53761 -2.97825,-9.91922 -3.60895,-19.72529 -0.40551,-6.30476 -1.18386,-11.13531 -1.88847,-11.72009 -0.79443,-0.65931 -2.41203,-0.65976 -4.79674,-0.001 -4.16587,1.15026 -11.82075,-0.21235 -15.76908,-2.80699 -1.375,-0.90357 -4.94115,-2.95015 -7.92478,-4.54794 -2.98363,-1.5978 -6.05327,-3.53357 -6.82143,-4.30173 -2.2991,-2.29911 -6.80886,-1.72465 -8.66183,1.10335 -0.90094,1.375 -2.51682,2.5 -3.59084,2.5 -1.07403,0 -3.42616,0.89832 -5.22695,1.99626 -3.55017,2.16454 -8.00071,2.4845 -14.27417,1.02621 -2.2,-0.5114 -5.0125,-0.67688 -6.25,-0.36774 -2.1358,0.53356 -2.25,1.0438 -2.25,10.05255 0,5.61151 -0.54026,10.77839 -1.32184,12.64159 -4.52781,10.79386 -7.55886,21.61389 -6.62547,23.65113 3.71202,8.10192 4.94731,11.33982 4.94731,12.96773 0,1.05283 0.39944,2.1611 0.88764,2.46283 1.9347,1.19571 5.32552,16.94574 4.90371,22.77726 -0.26468,3.6591 -0.0272,5.82358 0.64484,5.87743 0.5851,0.0469 3.38089,0.0164 6.21287,-0.0678 2.83199,-0.0842 5.44605,0.32744 5.80902,0.91474 0.36298,0.58731 2.5459,1.07278 4.85094,1.07884 7.25281,0.019 11.92244,1.15808 12.41128,3.02741 0.45278,1.73145 3.62718,3.76602 6.07539,3.8939 0.71262,0.0372 5.19351,-2.00515 9.95753,-4.53861 z M 479.5,445.65221 c -6.37772,-2.44949 -7.96096,-5.3314 -6.90258,-12.56447 0.51995,-3.55339 1.55234,-5.43321 4.57905,-8.33774 2.16905,-2.0815 4.89011,-3.734 6.11564,-3.71404 4.69538,0.0765 10.70789,7.8458 10.70789,13.83664 0,1.81787 -1.27855,4.65246 -3.29253,7.29966 -3.56536,4.68634 -6.05425,5.45915 -11.20747,3.47995 z m -411.650739,35.0612 c 4.652008,-3.41179 6.17502,-3.96951 11.684398,-4.27877 3.484325,-0.19559 8.727157,0.26982 11.650739,1.03424 2.923581,0.76443 5.643968,1.07078 6.045304,0.68079 0.401336,-0.38999 0.963099,-4.74571 1.248363,-9.67937 0.285263,-4.93367 0.761469,-10.3203 1.058234,-11.9703 0.677361,-3.76611 4.112511,-13.92338 6.211031,-18.3652 1.2993,-2.75013 1.36203,-3.73004 0.34326,-5.36135 -1.53368,-2.45582 -6.00514,-15.66882 -7.368432,-21.77345 -0.924864,-4.14142 -1.075162,-11.59868 -0.463554,-23 0.265961,-4.95793 0.952833,-4.67906 -7.758604,-3.1499 -5.10672,0.8964 -14.267225,-0.59721 -17.5,-2.85336 -2.952366,-2.06045 -11.339229,-5.94385 -15.2837,-7.07686 -2.280394,-0.65503 -3.365223,-0.2924 -6,2.00563 -1.768965,1.54288 -5.9163,4.10332 -9.2163,5.68986 -4.814976,2.3149 -7.353031,2.88463 -12.850651,2.88463 h -6.850652 l -1.293602,4 c -0.711481,2.2 -1.842014,7.03682 -2.512295,10.74849 -0.698843,3.86983 -2.90066,10.03741 -5.16176,14.45875 -4.357085,8.51983 -4.3850694,10.23111 -0.270172,16.52132 C 14.902391,433.27927 16,435.2076 16,435.51374 c 0,0.30615 0.787259,1.75814 1.749465,3.22665 2.974941,4.54033 4.241604,9.4059 4.883723,18.75961 0.553007,8.05563 0.385341,9.44379 -1.597887,13.22937 -1.218648,2.32615 -2.0474,4.73433 -1.84167,5.35152 0.2231,0.6693 3.588896,1.24169 8.340211,1.41835 7.999296,0.29742 14.767265,2.12784 19.449789,5.26025 2.579832,1.7258 11.332757,3.19252 14.016369,2.34872 0.825,-0.2594 3.907168,-2.23706 6.849261,-4.3948 z M 52.845164,440.95789 C 50.058369,438.02836 49,436.05091 49,433.77362 c 0,-4.61499 3.66776,-11.40517 7.409804,-13.71788 2.797195,-1.72876 3.646492,-1.84222 5.896292,-0.7877 2.306702,1.08118 5.678161,6.26449 6.980555,10.73196 0.684534,2.34809 -2.398596,9.17684 -5.521608,12.22968 -3.870131,3.78317 -6.390441,3.48964 -10.919879,-1.27179 z M 435.81432,483.1798 c 2.08056,-2.27076 2.63247,-3.97547 2.83288,-8.75 0.2629,-6.26311 -2.67423,-19.11815 -5.31494,-23.26213 -0.81744,-1.28278 -1.61198,-3.53278 -1.76564,-5 -0.1935,-1.84762 -0.93833,-2.7659 -2.423,-2.98722 -1.8004,-0.26839 -2.14362,0.17829 -2.14362,2.78984 0,1.71016 -0.84792,4.77896 -1.88426,6.81955 -2.70161,5.31954 -4.52583,14.75676 -4.19264,21.68972 0.30909,6.43148 1.31019,7.78479 7.54121,10.19436 4.31282,1.6678 4.48501,1.63279 7.35001,-1.49412 z m -250.8784,-0.62181 C 185.88278,481.7011 187.4319,481 188.3784,481 c 0.94651,0 2.94163,-0.63125 4.4336,-1.40278 2.29608,-1.18735 3.31495,-1.19574 6.63422,-0.0546 2.15684,0.74149 4.34539,1.0862 4.86344,0.76603 0.55069,-0.34034 0.64062,-2.91363 0.21653,-6.19538 -1.35853,-10.51275 -1.39838,-12.61229 -0.31526,-16.61324 1.21784,-4.49857 5.65011,-14.29608 6.78454,-14.9972 1.9102,-1.18057 1.97782,-8.58636 0.11634,-12.74217 -1.04964,-2.34335 -2.36578,-6.51063 -2.92475,-9.26063 -0.55897,-2.75 -1.7808,-7.025 -2.71518,-9.5 -0.96533,-2.55699 -1.83012,-8.17013 -2.00285,-13 -0.1672,-4.675 -0.34112,-8.8375 -0.38651,-9.25 -0.0454,-0.4125 -4.11866,-0.75 -9.05173,-0.75 -10.1646,0 -14.23431,-1.52245 -21.94054,-8.2078 -3.27548,-2.84157 -4.94739,-3.6556 -6.5,-3.16475 -2.78061,0.87907 -6.59025,3.40954 -6.59025,4.37743 0,0.84711 -7.72121,4.69032 -12.5,6.22185 -1.65,0.5288 -7.05,1.25661 -12,1.61736 l -9,0.65591 0.34808,6.27935 c 0.19145,3.45365 -0.0884,6.82865 -0.6219,7.5 -0.53349,0.67136 -1.28851,4.57082 -1.67783,8.66546 -0.38932,4.09465 -1.34696,8.35728 -2.1281,9.47251 -0.78114,1.11523 -1.42025,2.76477 -1.42025,3.66564 0,0.90087 -1.125,3.29573 -2.5,5.3219 -3.20737,4.72632 -3.20737,9.2478 0,13.59514 1.375,1.86371 2.5,4.33613 2.5,5.49428 0,1.15815 0.53328,2.639 1.18508,3.2908 0.71768,0.71768 1.35891,5.72654 1.62583,12.7 0.42667,11.14684 0.51274,11.51492 2.69248,11.51492 1.23845,0 2.85926,-0.73204 3.60181,-1.62676 1.11808,-1.3472 2.72868,-1.53246 9.37244,-1.07806 9.75127,0.66694 16.45663,2.90454 22.47853,7.50116 l 4.54253,3.46739 8.85783,-0.57387 c 5.95187,-0.38561 9.42261,-1.085 10.57939,-2.13187 z m -21.35609,-36.42883 c -0.29602,-0.47896 -1.89732,-1.14266 -3.55845,-1.47488 -3.4814,-0.69628 -7.0118,-5.64613 -7.01764,-9.83918 -0.0115,-8.24483 7.17725,-14.63611 14.9796,-13.31791 2.61905,0.44248 3.88613,1.32446 4.74552,3.30324 6.07358,13.98456 6.079,13.52706 -0.22544,19.06243 -3.41988,3.00269 -7.78355,4.11092 -8.92359,2.2663 z M 550.98826,480.75 c 0.58691,-0.6875 3.05293,-3.85723 5.48005,-7.04386 2.42711,-3.18662 6.80216,-7.90855 9.72231,-10.49319 2.92016,-2.58463 5.72113,-5.3774 6.22438,-6.20614 0.50324,-0.82875 2.41574,-2.93909 4.25,-4.68966 4.06994,-3.88425 4.12474,-5.79812 0.29436,-10.27938 -3.58634,-4.19574 -3.65784,-5.73797 -0.54804,-11.82101 4.35376,-8.51636 9.37207,-11.59254 12.58868,-7.71676 0.68469,0.825 1.75229,1.50351 2.37244,1.5078 1.1939,0.008 3.62756,4.49751 3.62756,6.69156 0,2.32518 2.90999,1.37253 4.42725,-1.44936 0.81324,-1.5125 3.30819,-4.69115 5.54434,-7.06367 2.23616,-2.37252 4.78409,-5.41002 5.66208,-6.75 C 611.51166,414.09635 612.80151,413 613.5,413 c 0.69849,0 1.96702,-1.0125 2.81896,-2.25 0.85194,-1.2375 3.63852,-4.47857 6.1924,-7.20238 2.55389,-2.72382 4.64776,-5.64882 4.65306,-6.5 0.01,-1.57863 -2.416,-8.63253 -3.2584,-9.47494 -0.25557,-0.25556 -4.19068,-0.57515 -8.74469,-0.71018 -4.55401,-0.13504 -8.50487,-0.60935 -8.77969,-1.05401 C 606.10682,385.36382 605.07738,385 604.09399,385 c -0.98338,0 -2.82568,-0.9 -4.09399,-2 -1.26831,-1.1 -3.06742,-2 -3.99802,-2 -0.9306,0 -2.5481,-0.94597 -3.59444,-2.10216 -2.69186,-2.97448 -8.81181,-2.11789 -15.06506,2.10861 -4.58841,3.10124 -5.42966,3.29905 -16.03402,3.77016 l -11.19154,0.4972 0.0778,5.61309 c 0.0428,3.08721 -0.25955,7.1881 -0.67185,9.1131 -0.91643,4.27877 -7.73632,18.57075 -10.49802,22 -2.23647,2.77706 -3.63045,10.45093 -2.62567,14.4543 0.35838,1.42787 2.18315,4.29138 4.05507,6.36337 1.87191,2.07198 3.72254,5.09813 4.1125,6.72478 0.38997,1.62665 1.02716,3.40755 1.41598,3.95755 2.18399,3.08936 3.1979,10.90057 2.52252,19.43373 -0.71242,9.00126 -0.12017,10.86561 2.48302,7.81627 z M 10.670737,478.22466 c 0.643906,-0.4096 2.331158,-3.05506 3.749448,-5.87882 2.211144,-4.40229 2.509995,-6.0605 2.096624,-11.63339 -0.592724,-7.99086 -5.158747,-22.99659 -6.8299876,-22.446 C 9.0340697,438.4815 8.275,441.09703 8,444.07873 c -0.6884463,7.46451 -0.058007,34.92479 0.8013783,34.90596 0.3842419,-0.008 1.2254537,-0.35044 1.8693587,-0.76003 z M 113.68289,423.75 c 1.48415,-2.31632 3.28688,-8.23071 3.30205,-10.83333 0.008,-1.42084 0.28845,-2.85673 0.6226,-3.19088 0.47783,-0.47783 1.21463,-9.02056 1.4857,-17.22579 0.0906,-2.74352 -0.89847,-6.70523 -1.93215,-7.73891 -0.6386,-0.6386 -1.17606,-1.63359 -1.19436,-2.21109 -0.0183,-0.5775 -0.90572,-2.09682 -1.97204,-3.37626 -2.41982,-2.90345 -4.79507,-2.28759 -8.02465,2.08065 -2.20483,2.9822 -2.37412,4.04938 -2.17211,13.69248 0.1205,5.75201 0.63622,11.82956 1.14606,13.50566 0.50983,1.67611 1.44802,5.03994 2.08487,7.47517 1.2277,4.69457 3.65348,9.0723 5.02713,9.0723 0.45429,0 1.18639,-0.5625 1.6269,-1.25 z m 319.0232,-4.29838 c 0.77871,-2.72339 2.06562,-6.97662 2.85982,-9.45162 2.18627,-6.81324 1.87944,-22.42206 -0.5458,-27.76524 -1.06479,-2.34588 -2.64732,-4.53821 -3.51674,-4.87184 -2.20519,-0.84621 -8.03664,6.06584 -9.52565,11.29081 -1.90325,6.67851 -0.25397,17.36661 3.91366,25.36237 1.15974,2.22502 2.10862,5.30663 2.10862,6.84803 0,6.10495 2.79661,5.26557 4.70609,-1.41251 z M 536.2049,414.75 c 3.81592,-7.37531 7.68257,-20.54665 7.74842,-26.39424 0.0364,-3.23141 -0.59236,-4.82834 -2.85453,-7.25 -1.59567,-1.70817 -3.566,-3.10576 -4.37853,-3.10576 -0.81252,0 -3.60129,2.48614 -6.19726,5.52476 -5.46724,6.39947 -6.51874,10.73542 -4.25137,17.53097 0.81556,2.44435 1.80452,7.10422 2.19768,10.35527 0.69039,5.70885 2.21058,9.589 3.75684,9.589 0.40978,0 2.20022,-2.8125 3.97875,-6.25 z m -211.65143,0.5 c 0.32536,-1.5125 1.23688,-4.325 2.02559,-6.25 3.30728,-8.07205 4.29001,-20.62051 2.1145,-27 -1.03563,-3.03688 -1.62907,-3.50443 -4.4849,-3.53347 -1.81023,-0.0184 -3.61939,0.20659 -4.02035,0.5 -1.57401,1.1518 -3.51314,6.75609 -3.81767,11.03347 -0.41681,5.85426 1.21572,20.21409 2.7944,24.57987 1.54287,4.26673 4.5347,4.6388 5.38843,0.67013 z M 218.8,415.8 c 0.66,-0.66 1.2,-1.94931 1.2,-2.86514 0,-0.91583 0.94939,-2.87209 2.10975,-4.34726 1.16037,-1.47516 2.77249,-5.58757 3.58251,-9.13868 1.32828,-5.82324 1.30931,-7.10826 -0.19344,-13.10031 -2.78305,-11.09713 -4.52814,-12.39774 -10.14092,-7.55797 -4.39347,3.78839 -6.2619,8.85387 -5.85891,15.88397 0.35915,6.26535 2.42602,20.34518 3.16719,21.57539 0.70947,1.1776 4.80681,0.87701 6.13382,-0.45 z M 12.006161,406.05887 c 0.0034,-1.95738 0.708837,-4.9065 1.567664,-6.5536 2.277187,-4.3673 2.34758,-15.12584 0.129258,-19.75527 -0.988305,-2.0625 -1.964,-3.75 -2.168213,-3.75 -0.204212,0 -1.083099,-0.27314 -1.9530825,-0.60699 C 8.1746457,374.85304 8,376.82203 8,393.22634 c 0,10.14218 0.3251483,18.76547 0.7225517,19.16288 1.2586975,1.2587 3.2772083,-2.63272 3.2836093,-6.33035 z M 637,388.50745 c 0,-0.7822 1.57499,-2.67887 3.49997,-4.21482 6.99183,-5.57879 2.12907,-10.75358 -5.13,-5.45917 -5.41415,3.94881 -5.65584,14.99545 -0.26496,12.11034 C 636.14725,390.38601 637,389.28965 637,388.50745 Z m -121.5,-3.60247 c 4.00326,-1.08474 11.5,-7.27069 11.5,-9.48924 0,-0.6481 -1.6875,-2.46889 -3.75,-4.0462 -5.33792,-4.0822 -15.89546,-4.54419 -25.25,-1.10491 -5.98708,2.20121 -6.48401,2.609 -6.29734,5.16772 0.22454,3.07784 2.73095,5.47831 5.79734,5.5523 1.1,0.0265 3.8,1.12343 6,2.43754 4.60766,2.75226 6.4671,2.98202 12,1.48279 z m -47.7943,-5.45897 C 474.78905,376.09505 477.07796,371 471.5,371 c -1.31008,0 -2.65252,-0.43777 -2.98321,-0.97283 -0.33068,-0.53505 -2.49473,-1.45383 -4.80901,-2.04173 -2.31428,-0.5879 -5.10778,-1.46257 -6.20778,-1.94371 -4.14963,-1.81504 -6.67287,-1.79547 -12.99362,0.1008 -8.18538,2.45568 -8.64702,4.64459 -2.12866,10.09327 3.75864,3.14183 5.42029,3.78991 11.75,4.58272 4.05476,0.50787 7.55386,0.98147 7.77579,1.05244 0.22193,0.071 2.83292,-1.02025 5.80219,-2.42495 z M 151.75337,378.00507 C 154.56189,376.64814 156,375.30313 156,374.03336 156,371.85058 152.4534,369 149.73766,369 c -0.99954,0 -3.57663,-0.89752 -5.72687,-1.9945 -3.06136,-1.56178 -4.47796,-1.77838 -6.52956,-0.99836 -1.44102,0.54787 -3.60652,0.74853 -4.81224,0.44592 -2.93546,-0.73676 -9.32271,2.0314 -10.72255,4.64702 -0.95371,1.78202 -0.69185,2.56206 1.71393,5.10555 1.5618,1.65119 3.73963,3.40834 4.83963,3.90477 3.42518,1.54579 18.52627,0.17856 23.25337,-2.10533 z M 305.5,379.63972 c 3.90486,-0.73055 11.22047,-4.4689 11.82424,-6.0423 0.95611,-2.49157 -0.2974,-4.5557 -3.18454,-5.24394 -1.45184,-0.34609 -3.12428,-1.00764 -3.71655,-1.47011 -0.59226,-0.46247 -5.54226,-0.69549 -11,-0.51784 -12.50207,0.40696 -19.92315,2.88987 -19.92315,6.66578 0,1.35778 0.51264,2.37281 1.1392,2.25562 0.62656,-0.11718 3.77656,1.1471 7,2.80953 5.85323,3.01869 8.67251,3.26229 17.8608,1.54326 z m 52.25,0.23976 c 1.7875,-0.0119 3.25,-0.41319 3.25,-0.89172 0,-0.47853 1.9125,-1.24657 4.25,-1.70674 3.31141,-0.65191 4.32057,-1.32744 4.56955,-3.05885 0.24074,-1.67408 -0.1833,-2.22217 -1.71921,-2.22217 -1.12131,0 -3.81343,-0.92502 -5.98249,-2.05559 -2.16906,-1.13058 -4.99541,-2.09962 -6.28079,-2.15343 -1.28538,-0.0538 -5.17554,-0.97622 -8.6448,-2.04978 l -6.30773,-1.95194 -4.69227,2.40954 c -5.60701,2.87928 -6.36568,5.46495 -3.03129,10.33117 2.08042,3.03617 2.88627,3.42502 7.82908,3.77778 3.03047,0.21628 7.30995,0.21326 9.50995,-0.007 2.2,-0.21996 5.4625,-0.40967 7.25,-0.42158 z m 62.90968,-3.52925 c 4.88112,-3.2399 5.41248,-3.92659 4.83104,-6.24321 -0.35931,-1.43161 -0.72921,-2.62014 -0.822,-2.64119 -0.0928,-0.021 -2.41872,-0.81169 -5.16872,-1.75699 -7.62489,-2.62103 -15.72054,-2.25551 -22.15009,1.00007 -2.94245,1.4899 -5.34991,3.0649 -5.34991,3.5 0,0.4351 -0.81,0.79109 -1.8,0.79109 -4.58408,0 -5.6897,5.45274 -1.45,7.15113 5.25329,2.10443 8.79879,2.54673 17.58767,2.19404 8.21323,-0.32959 9.22519,-0.61186 14.32201,-3.99494 z M 208.25,376.54621 c 2.0625,-1.89434 3.75,-4.28725 3.75,-5.3176 0,-2.28921 -7.15471,-7.18082 -10.85586,-7.42205 -6.06118,-0.39505 -11.09463,0.28678 -12.50128,1.69344 -0.825,0.825 -2.26744,1.5 -3.20541,1.5 -2.2507,0 -9.70069,2.13241 -10.81423,3.09536 -1.44734,1.2516 0.24235,5.90424 2.14583,5.90867 0.95202,0.002 3.98095,0.85939 6.73095,1.90482 3.2798,1.24684 7.75232,1.93189 13,1.99119 7.7787,0.0879 8.10373,-0.005 11.75,-3.35383 z m 417.25796,-0.16167 c 6.77911,-3.55176 6.95264,-3.79621 5.01885,-7.06988 -3.20151,-5.41971 -12.00522,-9.00712 -18.31428,-7.46285 -2.04189,0.49979 -7.08753,1.48504 -11.21253,2.18945 -11.71057,1.99975 -13.13329,4.37963 -4.75,7.94566 2.8875,1.22826 5.92877,2.83002 6.75837,3.55946 1.56307,1.37435 9.25313,3.1467 14.49959,3.34178 1.65437,0.0615 5.25437,-1.06512 8,-2.50362 z M 45.75,374.31749 c 5.82193,-2.73102 6.66139,-4.86295 2.5,-6.34909 -1.5125,-0.54016 -3.944431,-1.65402 -5.404292,-2.47525 C 40.949589,364.4265 37.124932,364 29.455951,364 c -9.051514,0 -10.943843,0.2745 -12.063905,1.75 -0.730642,0.9625 -1.342751,2.5146 -1.360243,3.44911 -0.03719,1.98665 5.598682,6.55165 9.653174,7.81898 4.348147,1.35913 14.252314,0.0261 20.065023,-2.7006 z m 50.099709,2.25344 c 1.84234,-0.30845 4.992341,-1.84771 7.000001,-3.42059 2.00766,-1.57287 4.23139,-3.04384 4.94162,-3.26883 0.82977,-0.26285 0.0226,-1.63876 -2.25828,-3.84948 -3.3766,-3.27272 -3.92694,-3.44897 -11.291327,-3.61603 C 86.936694,362.25029 77.777048,364.06682 75.55,366.12292 75.0275,366.60531 73.820324,367 72.867388,367 c -1.843826,0 -3.415058,3.30483 -2.372919,4.99105 0.342961,0.55492 1.541499,1.00895 2.663419,1.00895 1.12192,0 3.457862,0.65156 5.190983,1.44791 4.475029,2.05623 9.814837,3.37591 12.151129,3.00304 1.1,-0.17556 3.507369,-0.57157 5.349709,-0.88002 z M 571.5,375.91142 c 2.75,-0.5496 5.84394,-1.63289 6.87543,-2.40731 2.15025,-1.61436 1.57119,-4.28081 -1.10275,-5.07791 -0.97497,-0.29063 -3.04665,-1.18043 -4.60372,-1.97731 -6.11745,-3.13083 -16.9193,-1.4468 -24.82284,3.86991 -8.57696,5.76971 5.78141,9.16454 23.65388,5.59262 z m -305.91579,-0.98131 c 2.69627,-2.23771 1.28415,-5.31036 -3.08421,-6.71098 -2.2,-0.70538 -5.575,-2.05575 -7.5,-3.00082 -5.08725,-2.49756 -20.13486,-2.39644 -25.30142,0.17003 -2.85753,1.41947 -3.72658,2.41267 -3.5,4 0.31063,2.17619 5.35243,5.20584 11.21224,6.73751 4.66609,1.21964 26.37312,0.29835 28.17339,-1.19574 z m 389.40522,-4.41738 c 0.67888,-0.81799 0.96706,-2.18373 0.64041,-3.03497 -0.53549,-1.39547 -0.89076,-1.39419 -3.61187,0.0129 -1.65989,0.85836 -3.01797,1.92409 -3.01797,2.3683 0,2.45985 4.1175,2.90926 5.98943,0.65372 z M 494.5,366.00669 c 3.3,-1.17602 7.89975,-3.04259 10.22168,-4.14795 3.40787,-1.62232 5.28736,-1.87658 9.75,-1.31901 l 5.52832,0.69072 0.10132,-2.86523 c 0.0557,-1.57587 0.0226,-4.31224 -0.0737,-6.08081 -0.22016,-4.04624 1.91255,-18.4475 2.92993,-19.78441 0.41854,-0.55 1.05623,-2.55337 1.41708,-4.45193 0.36086,-1.89855 1.64959,-4.50944 2.86385,-5.80196 3.16868,-3.37291 3.21945,-15.75979 0.0912,-22.24611 -5.63967,-11.69363 -6.21573,-13.62637 -6.70611,-22.5 l -0.49738,-9 -3.81311,0.3365 c -4.20384,0.37099 -16.67128,-1.32254 -22.61512,-3.07194 -2.09111,-0.61545 -5.01611,-2.50176 -6.5,-4.19179 -2.88672,-3.28772 -6.93005,-3.72918 -8.5234,-0.9306 -1.0471,1.83912 -11.65519,6.57925 -13.30613,5.94573 -0.68159,-0.26155 -1.41004,0.0368 -1.61879,0.66309 -0.76289,2.28866 -14.79939,0.73588 -17.93666,-1.98424 -2.99158,-2.5938 -3.88272,-0.5544 -3.74113,8.56168 0.14245,9.17112 -1.76494,19.38894 -5.10679,27.35695 -3.05368,7.28093 -2.58923,12.32496 1.94689,21.14351 6.0884,11.83627 7.19131,17.61579 5.72311,29.99023 l -0.80908,6.81913 6.92817,-0.68269 c 6.18802,-0.60975 7.92682,-0.34255 16.27614,2.50114 5.14139,1.75111 10.62379,4.25735 12.18312,5.56944 3.32446,2.79736 6.25913,2.69763 15.28656,-0.51945 z m -18.30383,-44.3043 c -4.84897,-5.00286 -4.46843,-9.08238 1.4027,-15.03763 5.30698,-5.38303 8.25771,-5.9099 13.46081,-2.40352 3.57723,2.41069 4.68092,4.93373 4.84064,11.06568 0.0775,2.97459 -0.55135,4.47796 -2.8234,6.75 -2.50644,2.50644 -3.69001,2.92308 -8.30383,2.92308 -4.77371,0 -5.74134,-0.37203 -8.57692,-3.29761 z m 64.93534,43.05188 c 0.97838,-1.82812 1.74191,-6.21089 1.96063,-11.25427 0.11058,-2.54991 -3.19192,-14.96949 -4.36033,-16.39769 -0.72096,-0.88127 -2.07328,-3.28981 -3.00515,-5.35231 -0.93187,-2.0625 -2.06696,-3.75 -2.52242,-3.75 -0.45547,0 -1.73974,1.2375 -2.85394,2.75 -2.2475,3.05094 -3.45755,10.33572 -3.85503,23.20813 -0.25335,8.20485 -0.17375,8.5398 2.65819,11.18522 4.69745,4.38808 9.50497,4.23192 11.97805,-0.38908 z M 169.5,366.11564 c 6.77434,-2.4646 12.45926,-4.87915 15.66525,-6.65351 1.46589,-0.81129 5.40533,-1.76147 8.75431,-2.11151 8.33018,-0.87068 9.09432,-1.61719 9.05962,-8.85062 -0.0521,-10.85161 0.0854,-12.96644 1.04016,-16 0.51929,-1.65 1.93167,-6.15 3.13862,-10 1.20694,-3.85 2.79015,-7.88763 3.51824,-8.97251 1.90531,-2.83897 1.62881,-12.17924 -0.56492,-19.08332 -4.1438,-13.04132 -6.23702,-21.92894 -6.08526,-25.83747 0.31334,-8.07009 0.41212,-7.89136 -3.27602,-5.92754 -5.02165,2.67386 -20.85704,2.38249 -26.41799,-0.4861 -5.96001,-3.07443 -13.11116,-8.03052 -13.56897,-9.40394 -0.2243,-0.6729 -2.30852,0.59426 -4.88758,2.97156 -2.47309,2.27961 -5.59429,4.654 -6.93599,5.27642 -1.34171,0.62242 -4.85231,2.35656 -7.80134,3.85365 -5.44437,2.76387 -9.53837,2.90018 -16.97252,0.56509 l -2.3344,-0.73324 0.50436,8.8887 c 0.27739,4.88878 0.10687,10.6887 -0.37894,12.8887 -0.48582,2.2 -1.56576,7.26736 -2.39988,11.26081 -0.83411,3.99344 -2.20061,8.5836 -3.03666,10.20034 -2.09576,4.05275 -1.93887,9.62007 0.33518,11.89412 1.02039,1.02039 2.14607,3.01393 2.5015,4.43007 0.35543,1.41614 1.21331,3.16877 1.90639,3.89473 1.46968,1.53937 3.32154,5.54135 5.41891,11.71049 1.08588,3.19399 1.30494,6.25997 0.80381,11.25 L 126.79702,358 h 8.04247 c 4.42336,0 8.30289,0.42137 8.62118,0.93637 0.31829,0.515 1.35735,0.94084 2.30902,0.9463 3.76796,0.0216 7.89539,1.53466 11.23031,4.1168 3.12415,2.41894 5.52409,3.75226 7,3.88894 0.275,0.0255 2.75,-0.77228 5.5,-1.77277 z m -12.48399,-41.43523 c -3.89913,-1.90617 -4.57638,-2.71305 -5.19237,-6.18625 -1.28371,-7.23811 -0.94228,-9.0304 2.42636,-12.73682 6.86312,-7.55129 15.89461,-4.6993 17.31105,5.46652 0.65166,4.67693 0.60494,4.77815 -4.70143,10.18625 L 161.5,326.8725 Z m 123.87472,39.80988 c 2.4149,-1.91966 5.46686,-3.49029 6.78212,-3.49029 1.31526,0 4.00689,-0.675 5.98139,-1.5 1.97451,-0.825 6.23505,-1.5 9.46788,-1.5 H 309 v -10.05188 c 0,-7.87234 0.40868,-10.85375 1.88479,-13.75 1.03663,-2.03397 3.45288,-7.07434 5.36944,-11.20082 3.88044,-8.35484 3.92219,-7.64407 -1.38035,-23.4973 -5.26208,-15.73228 -7.14715,-24.86074 -6.55651,-31.75 0.27114,-3.1625 0.29481,-5.75 0.0526,-5.75 -0.2422,0 -1.43702,0.6383 -2.65517,1.41845 -1.21815,0.78015 -5.36482,1.67367 -9.21482,1.98561 -8.46917,0.6862 -14.57953,-1.05507 -21.05944,-6.0013 C 272.98873,257.53124 270.47043,256 269.84434,256 c -0.6261,0 -3.02486,1.54585 -5.33058,3.43522 -4.41932,3.62129 -14.5414,7.58625 -19.23221,7.53351 -1.52985,-0.0172 -5.02256,-1.12869 -7.76158,-2.46997 -3.20651,-1.57021 -5.32439,-2.09434 -5.94698,-1.47175 -0.53181,0.53181 -1.27408,3.3308 -1.64948,6.21996 -0.72741,5.59833 -3.48803,16.27285 -4.6894,18.13254 -0.95854,1.48382 -4.26622,14.14164 -4.91901,18.82406 -0.42148,3.02329 0.14506,4.79231 3.08429,9.63081 1.98034,3.25998 3.60061,6.78075 3.60061,7.82392 0,1.04318 0.61505,2.78432 1.36678,3.86919 2.21588,3.19791 2.92112,14.22601 1.27723,19.97251 -1.8787,6.56728 -2.66932,11.14136 -2.03534,11.77534 0.2813,0.28129 1.94692,-0.22808 3.70139,-1.13195 2.39061,-1.23159 5.9463,-1.64339 14.18994,-1.64339 10.04387,0 11.4998,0.24535 16.75,2.82262 3.1625,1.55244 5.75,3.19583 5.75,3.65196 0,0.71409 6.58338,4.78653 8,4.94875 0.275,0.0315 2.47583,-1.51337 4.89073,-3.43304 z m -17.23779,-39.53831 c -5.56397,-3.40446 -8.07061,-10.32407 -5.53075,-15.26772 C 260.7478,304.57369 264.22792,302 268.51278,302 c 5.10138,0 8.23666,2.93864 9.59758,8.99564 0.78756,3.50517 0.61636,4.71047 -1.05263,7.41096 -4.12024,6.66668 -9.17375,9.13425 -13.40479,6.54538 z m 127.12561,37.99524 c 9.368,-5.6182 16.521,-7.5063 24.35531,-6.42881 5.67595,0.78064 6.35224,-0.58934 2.71769,-5.50533 -1.73484,-2.3465 -2.12636,-4.20204 -2.03372,-9.63859 0.18995,-11.1466 3.68886,-23.74345 7.9465,-28.60915 1.96815,-2.24924 1.12469,-9.74651 -1.71305,-15.22678 C 420.92307,295.35977 420,292.79882 420,291.84758 c 0,-0.95125 -0.3731,-1.96013 -0.82911,-2.24196 -1.0332,-0.63856 -2.92286,-9.2213 -3.72474,-16.91759 -0.61735,-5.92522 -2.40334,-8.13084 -4.71337,-5.82081 -1.60374,1.60374 -12.73962,1.34382 -15.73278,-0.36722 -1.375,-0.78602 -3.51881,-1.44508 -4.76402,-1.46456 -2.81878,-0.0441 -9.04451,-3.97703 -9.76124,-6.16636 -0.29366,-0.897 -1.90047,-1.90423 -3.5707,-2.23827 -2.42119,-0.48424 -4.18891,0.14308 -8.72041,3.09465 -9.78104,6.37084 -10.20295,6.51174 -20.68363,6.90772 -9.65809,0.36489 -9.99296,0.45455 -9.79421,2.62231 0.11318,1.23448 -0.47203,7.41951 -1.30046,13.74451 -1.5071,11.5065 -4.43424,20.79623 -7.0265,22.29969 -1.56841,0.90964 -1.95202,10.22803 -0.45905,11.15073 1.61904,1.00063 5.57479,8.83518 8.10358,16.04958 1.88409,5.37511 2.45542,9.04103 2.46125,15.79272 0.007,7.99663 0.18903,8.82862 2.0115,9.18932 18.75892,3.71274 28.08259,6.39495 30.14276,8.67141 1.15546,1.27676 3.06635,1.84655 6.19279,1.84655 3.65402,0 6.13838,-0.96957 12.94689,-5.05278 z M 375,324.35806 c -2.78036,-0.75984 -6,-6.75371 -6,-11.16994 0,-2.30347 0.39873,-4.18812 0.88606,-4.18812 0.48733,0 1.60617,-1.51752 2.4863,-3.37226 2.66042,-5.60642 9.41948,-5.75206 14.47856,-0.31196 6.77829,7.28878 -2.18112,21.68494 -11.85092,19.04228 z m 269.85795,37.8224 c 0.46964,-0.92425 1.37497,-3.81703 2.01185,-6.4284 1.00096,-4.10419 0.87732,-5.66343 -0.91188,-11.5 -1.13841,-3.71363 -2.49465,-7.53345 -3.01388,-8.48849 -0.51922,-0.95504 -0.94404,-2.49809 -0.94404,-3.429 0,-2.94256 -2.22778,-7.99573 -4.01794,-9.1137 -1.52635,-0.95322 -1.79391,-0.48372 -2.33721,4.10134 -0.33745,2.84778 -1.29559,7.78725 -2.1292,10.97658 -2.26733,8.67469 -2.02992,19.80223 0.48435,22.70121 1.1,1.26831 2,2.82217 2,3.45301 0,2.83835 2.29175,3.47543 5.15863,1.43404 1.56499,-1.11438 3.22969,-2.78234 3.69932,-3.70659 z M 68,362.95214 c 1.375,-1.03568 5.821915,-3.51908 9.882032,-5.51868 6.86297,-3.37999 7.914531,-3.61094 14.955144,-3.28454 l 7.573114,0.35108 0.25989,-8.76331 c 0.28642,-9.65748 1.38972,-14.948 4.53305,-21.73669 1.14599,-2.475 2.10872,-6.525 2.13941,-9 0.0586,-4.72801 -2.77683,-12.96101 -6.09513,-17.6977 -3.619059,-5.16602 -5.847851,-19.99288 -4.3197,-28.73649 1.002967,-5.73867 0.705623,-8.14992 -0.732183,-5.93749 -0.925659,1.42435 -13.62899,2.40038 -18.816718,1.44574 -2.2666,-0.4171 -6.31144,-2.23662 -8.988533,-4.04336 C 60.519838,254.71893 56.850758,254.8374 47,260.72135 c -3.760046,2.24591 -6.062126,2.77757 -14,3.23327 l -9.5,0.54538 -0.109155,5.64677 c -0.286541,14.82332 -3.3129,25.48059 -9.580648,33.73809 -3.091883,4.07343 -1.822737,12.24132 3.344911,21.52697 4.036957,7.25394 6.236226,20.79684 3.776671,23.25639 -0.587522,0.58752 -0.925022,2.81502 -0.75,4.95 0.267597,3.26425 0.636388,3.8218 2.318221,3.50476 1.1,-0.20737 6.05,-0.43237 11,-0.5 8.08702,-0.11051 9.557932,0.16734 14.5,2.73892 3.025,1.57404 6.175,3.44551 7,4.15882 3.248034,2.80831 8.841496,2.56367 13,-0.56858 z M 55.317521,321.60665 c -3.59541,-1.1097 -4.283993,-2.75341 -4.303866,-10.27374 -0.01999,-7.5628 2.880514,-13.65796 7.118328,-14.95858 4.907693,-1.50621 8.03583,-0.0589 10.796902,4.99549 3.111488,5.69585 2.42448,10.62704 -2.14282,15.38068 -4.627798,4.81661 -7.565863,6.06068 -11.468544,4.85615 z M 323.5,365 c 0.33992,-0.55 1.60398,-1.00307 2.80902,-1.00683 1.39901,-0.004 3.09464,-1.33494 4.69098,-3.68104 2.22992,-3.27727 2.49486,-4.66544 2.45244,-12.84952 -0.045,-8.68321 -0.23775,-9.49461 -3.59374,-15.12833 -1.95041,-3.27416 -3.8581,-7.19577 -4.23933,-8.71469 -0.98953,-3.94261 -2.50802,-2.87096 -4.68292,3.3049 -1.03946,2.95164 -2.50699,6.08862 -3.26119,6.97106 -2.30051,2.69172 -2.80577,5.25414 -2.77313,14.06382 0.0256,6.90492 0.40496,8.96472 2.06461,11.20951 1.11829,1.51257 2.03326,3.12836 2.03326,3.59063 0,1.03856 2.13432,3.24049 3.14098,3.24049 0.40754,0 1.0191,-0.45 1.35902,-1 z M 13.913409,357.35144 c 0.508548,-1.84181 0.915844,-7.15167 0.905103,-11.79969 C 14.794095,334.98682 12.65633,328 9.448181,328 c -1.3811632,0 -1.4995211,0.78279 -1.5119949,10 -0.027166,20.07388 0.075223,24.20944 0.6212573,25.09295 0.9981762,1.61508 4.3028636,-1.92749 5.3559656,-5.74151 z m 104.457851,2.89752 c 2.77083,-5.3582 3.01714,-13.2173 0.61976,-19.77554 -1.20097,-3.28538 -2.63324,-7.91653 -3.1828,-10.29145 -0.54956,-2.37492 -1.63697,-4.56276 -2.41645,-4.86187 -1.86998,-0.71759 -4.41485,1.45617 -3.74584,3.19959 0.28988,0.75541 -0.18687,3.82926 -1.05944,6.8308 -3.70767,12.75394 0.2061,26.88741 7.63783,27.58183 0.39838,0.0372 1.3645,-1.17029 2.14694,-2.68336 z m 475.52768,-0.91577 c 2.41942,-1.28326 5.9365,-2.33319 7.81574,-2.33319 1.87924,0 4.34874,-0.49876 5.48778,-1.10835 1.13904,-0.6096 5.49696,-1.24255 9.68426,-1.40656 l 7.61328,-0.2982 0.72343,-7.09658 c 0.39789,-3.90311 1.36597,-9.68266 2.15129,-12.84344 0.78532,-3.16078 1.7141,-7.41536 2.06395,-9.45463 0.34986,-2.03927 1.29151,-4.96427 2.09256,-6.5 2.12649,-4.07682 1.86337,-12.13278 -0.52418,-16.04867 -1.09201,-1.79103 -2.27676,-5.16603 -2.63278,-7.5 -0.35602,-2.33396 -1.01042,-4.709 -1.45421,-5.27786 -1.04904,-1.34466 -2.90281,-12.81652 -2.91251,-18.02369 l -0.008,-4.05797 -8.78459,0.41999 c -7.21215,0.34482 -9.02406,0.13145 -10.12244,-1.19202 C 604.33742,265.70164 602.25949,265 600.31892,265 c -2.26666,0 -4.69258,-0.9812 -7.12756,-2.88285 -5.57559,-4.35438 -8.15672,-4.58828 -12.81651,-1.16143 -2.17664,1.60072 -6.02568,3.43117 -8.55342,4.06766 -4.71583,1.18746 -16.04983,0.95647 -18.94249,-0.38605 -3.77573,-1.75236 -5.40187,3.14026 -6.30355,18.96571 -0.19125,3.35668 -0.80994,6.96671 -1.37488,8.0223 -0.56493,1.05559 -1.47685,4.15922 -2.02649,6.89695 -0.54965,2.73774 -2.16925,8.29986 -3.59912,12.36026 -2.08767,5.92833 -2.35879,7.67292 -1.37638,8.85665 1.29575,1.56128 3.25397,4.76903 4.43248,7.2608 0.39019,0.825 1.53284,2.57319 2.53922,3.88486 1.00638,1.31167 1.82978,3.47875 1.82978,4.81574 0,1.33699 0.48258,3.3326 1.07241,4.43469 0.58982,1.1021 1.10146,5.46001 1.13697,9.68426 0.0355,4.22425 0.44729,8.70742 0.91507,9.96261 0.82787,2.22142 0.93499,2.23846 4.02517,0.64047 4.3219,-2.23494 13.83705,-2.9924 18.0069,-1.43346 1.83891,0.6875 4.90917,1.82615 6.8228,2.53033 4.2943,1.58023 9.16355,0.8667 14.91962,-2.18631 z m -9.71087,-32.04704 c -3.09883,-0.59175 -6.17973,-5.89348 -6.18433,-10.64225 -0.003,-2.80316 0.83837,-4.91934 3.08029,-7.75 2.67382,-3.37597 3.62244,-3.8939 7.13192,-3.8939 3.34612,0 4.63181,0.61913 7.41597,3.5712 3.87895,4.11288 4.41702,8.43904 1.64942,13.26132 -2.90205,5.05653 -6.75931,6.66316 -13.09327,5.45363 z m -363.23662,28.20199 c 1.87796,-3.82121 2.53135,-6.97663 2.79298,-13.48814 0.31471,-7.83257 0.0815,-9.08891 -2.9696,-16 -3.45259,-7.82044 -5.0357,-9.22874 -5.62065,-5 -0.1902,1.375 -0.79045,3.04159 -1.33388,3.70354 -0.54344,0.66194 -1.67643,3.36194 -2.51776,6 -4.31851,13.54106 -0.98556,31.10012 5.69746,30.01605 0.825,-0.13383 2.60315,-2.48798 3.95145,-5.23145 z M 437.20749,357 c 2.4359,-4.39309 1.94248,-14.98173 -1.04847,-22.5 -1.09402,-2.75 -3.01016,-7.5875 -4.25809,-10.75 C 429.60731,317.93749 427,316.09011 427,320.27749 c 0,1.25263 -0.78224,3.39013 -1.73832,4.75 -1.39379,1.98246 -1.74064,4.65269 -1.75,13.47251 -0.0106,10.00533 0.20657,11.31648 2.40193,14.5 6.19755,8.98713 8.14594,9.67721 11.29388,4 z m 227.61943,0.19189 c 23.59718,-24.7892 30.57571,-32.64665 32.68187,-36.79804 1.36556,-2.69162 2.48472,-5.3612 2.48702,-5.93241 0.004,-1.07474 2.05003,-5.19933 5.82369,-11.74186 1.19927,-2.07923 2.19519,-5.45423 2.21315,-7.5 0.018,-2.04577 0.90326,-6.19458 1.96735,-9.21958 1.06409,-3.025 1.9494,-6.30924 1.96735,-7.29831 0.018,-0.98906 0.93265,-3.66109 2.03265,-5.93783 1.1,-2.27673 2,-5.1249 2,-6.32924 0,-2.64358 -2.1965,-4.68018 -4.21304,-3.90636 -0.80659,0.30952 -2.04373,-0.13272 -2.74919,-0.98275 -0.70546,-0.85003 -1.79006,-1.54828 -2.41021,-1.55167 -0.62016,-0.003 -2.3506,-0.6442 -3.84543,-1.42403 -1.49484,-0.77983 -5.17937,-1.72541 -8.18787,-2.1013 -4.64923,-0.58088 -6.26705,-0.30573 -10.78212,1.83378 -8.09152,3.83424 -20.58092,6.57668 -23.0373,5.05856 -0.60709,-0.37521 -2.38426,-0.78293 -3.94926,-0.90604 -3.39534,-0.26709 -3.50981,0.10704 -4.17549,13.64649 -0.39781,8.0913 -0.97425,10.68627 -3.66521,16.5 -7.9928,17.26817 -8.39694,18.61411 -6.9331,23.08989 0.68514,2.09485 2.30377,5.37577 3.59696,7.29094 1.29319,1.91518 2.35126,3.9106 2.35126,4.43428 0,0.52368 0.99572,3.00672 2.21271,5.51787 1.66709,3.4399 2.31224,6.90824 2.61637,14.06572 0.22202,5.225 0.81714,10.2875 1.32248,11.25 1.51675,2.88887 7.4809,2.29772 10.67536,-1.05811 z M 678.98625,322.7182 C 676.47164,320.69456 674,316.21699 674,313.68522 674,309.14817 681.29535,301 685.35753,301 c 2.70819,0 7.12213,4.71701 8.43587,9.01508 1.11391,3.64432 1.07922,4.46819 -0.25,5.93697 -0.84887,0.93799 -1.5434,2.38775 -1.5434,3.2217 0,4.07252 -9.2328,6.58718 -13.01375,3.54445 z M 327.51616,297.94428 c 0.26189,-1.34435 0.72591,-4.01928 1.03116,-5.94428 0.30524,-1.925 1.27619,-6.77101 2.15765,-10.76891 1.84927,-8.38734 1.02593,-12.58455 -3.90954,-19.93007 -3.48633,-5.18874 -4.14261,-5.60331 -7.65053,-4.83285 -2.34328,0.51467 -3.08566,1.50258 -4.49939,5.98745 -1.457,4.62213 -1.53094,6.39409 -0.53026,12.70773 0.63955,4.03516 1.96906,8.91165 2.95446,10.83665 0.9854,1.925 2.04914,5.075 2.36387,7 0.31473,1.925 1.50328,5.02658 2.64122,6.89239 1.80615,2.96143 2.25295,3.20843 3.5171,1.94428 0.79646,-0.79645 1.66238,-2.54803 1.92426,-3.89239 z M 113.81354,298.75 c 3.36714,-6.57934 3.13763,-35.9365 -0.31075,-39.74692 -3.50508,-3.87307 -8.11523,-1.34783 -10.42114,5.70826 -2.49139,7.62366 0.8388,25.68954 6.18238,33.53866 2.27171,3.3369 3.05367,3.42284 4.54951,0.5 z M 12.147293,296.42523 c 0.384286,-1.60887 1.448183,-4.95023 2.364216,-7.42523 0.916032,-2.475 1.908185,-8.55 2.204783,-13.5 0.474386,-7.91714 0.270011,-9.57151 -1.698638,-13.75 -2.146156,-4.55525 -4.630443,-6.14051 -5.4849342,-3.5 -0.832984,2.57405 -1.4769118,28.50072 -0.8700346,35.03048 0.658795,7.08837 2.2085918,8.48702 3.4846078,3.14475 z M 538.53941,291.75 c 2.20659,-9.49848 2.55285,-27.84171 0.59462,-31.5 -1.63068,-3.04636 -2.98733,-2.83444 -7.31776,1.14309 -4.33639,3.98299 -5.35569,7.92748 -4.47783,17.3283 0.38927,4.16854 1.50834,8.09961 3.13354,11.00739 1.39041,2.48772 2.52802,5.27645 2.52802,6.19717 0,1.63906 1.79988,4.07405 3.01143,4.07405 0.33628,0 1.47387,-3.7125 2.52798,-8.25 z M 640,297.84684 c 0,-1.18423 1.29484,-4.89673 2.87742,-8.25 3.88097,-8.22323 4.89695,-22.13784 2.02795,-27.77413 -2.46275,-4.83817 -5.31308,-5.72364 -8.58546,-2.6671 -3.75537,3.50767 -5.32076,7.20423 -5.31236,12.54473 0.0114,7.25842 1.8478,17.09689 4.03687,21.62774 1.07557,2.22617 1.95558,4.63806 1.95558,5.35975 0,0.72169 0.675,1.31217 1.5,1.31217 0.8689,0 1.5,-0.90591 1.5,-2.15316 z m -206.77362,-5.27382 c 0.44754,-2.15402 1.19729,-4.40164 1.66612,-4.99471 1.25853,-1.59205 0.5244,-19.29518 -1.03997,-25.07831 -1.23927,-4.58132 -1.6253,-5.02629 -4.61004,-5.31392 C 425.7518,256.84969 423,258.74175 423,261.47823 c 0,0.8916 -0.56375,2.83624 -1.25278,4.32143 -2.15722,4.64984 -1.01094,10.36861 4.37425,21.82305 1.58319,3.3675 2.87853,6.88799 2.87853,7.82333 0,3.44877 3.39199,1.14296 4.22638,-2.87302 z M 219.181,286.75 c 2.9259,-5.26088 5.819,-16.28879 5.819,-22.1809 0,-3.59076 0.52243,-6.7003 1.25,-7.44008 1.00287,-1.01971 0.78327,-1.65236 -1.11078,-3.2 C 222.76834,251.99175 216,251.22346 216,252.89159 c 0,0.49038 -1.07562,1.16156 -2.39027,1.49151 -2.20943,0.55454 -2.42502,1.18692 -2.84959,8.35841 -0.37513,6.3363 -0.004,9.22495 2.02475,15.75849 1.36625,4.4 2.63444,8.5625 2.81821,9.25 0.52007,1.9456 2.20095,1.47581 3.5779,-1 z M 465.5,259.47116 c 2.2,-0.79257 4.75718,-1.44782 5.68261,-1.4561 1.73525,-0.0155 3.36496,-3.32006 2.4041,-4.87476 -0.29831,-0.48268 -2.34617,-1.16603 -4.55079,-1.51857 -3.66895,-0.58669 -8.63314,-2.37399 -13.40382,-4.82592 -1.24038,-0.6375 -2.23142,-0.59649 -2.95,0.12209 -0.59515,0.59515 -2.28585,1.0821 -3.7571,1.0821 -8.20178,0 -11.93883,2.95088 -7.88955,6.22979 2.16059,1.74954 16.14167,6.67375 18.96455,6.67941 0.825,0.002 3.3,-0.64546 5.5,-1.43804 z m 60.47519,-2.66433 c 2.19993,-2.36876 4.00549,-4.81423 4.01234,-5.43439 0.0535,-4.84343 -20.1305,-8.40599 -28.2036,-4.97804 -1.80616,0.76692 -4.63393,1.98578 -6.28393,2.70857 -1.65,0.72278 -3.66899,1.33361 -4.48665,1.35739 -2.79573,0.0813 -2.31717,3.46848 0.66389,4.69889 5.47345,2.25912 18.89076,5.34439 24.56041,5.64758 5.62435,0.30077 5.81664,0.22177 9.73754,-4 z m -393.44562,2.14532 c 0.35619,-0.57632 1.39524,-0.94331 2.30902,-0.81554 2.48731,0.34778 8.45598,-1.18741 10.16141,-2.61359 0.825,-0.68992 2.7559,-1.55303 4.2909,-1.91803 1.64684,-0.39159 2.51627,-1.10798 2.12095,-1.74762 -1.33088,-2.1534 -9.95112,-5.13854 -17.17955,-5.94918 -6.71357,-0.75289 -7.69121,-0.62763 -10.78558,1.38193 -1.87155,1.21544 -3.66923,2.88488 -3.99485,3.70988 -0.6965,1.76466 5.06337,7 7.70134,7 0.95082,0 2.00687,0.45 2.34679,1 0.80259,1.29861 2.21116,1.27636 3.02957,-0.0478 z m 224.94247,-1.94074 c 3.28463,-1.13052 6.40617,-2.48962 6.93676,-3.02021 1.05111,-1.05111 -2.94063,-5.9912 -4.84107,-5.9912 -0.596,0 -3.15523,-1.10279 -5.68716,-2.45064 -2.59377,-1.38077 -6.51941,-2.5182 -8.99204,-2.60539 C 337.22488,242.67375 329,245.864 329,249.1068 c 0,0.39849 1.80991,2.44999 4.02203,4.55887 6.57422,6.26742 13.29094,7.18654 24.45001,3.34574 z m 51.78273,0.92495 c 5.24575,-1.01201 12.75593,-5.2603 12.72634,-7.1989 C 421.97072,250.05685 419.72922,248.15 417,246.5 c -2.72922,-1.65 -4.97072,-3.26457 -4.98111,-3.58794 -0.0326,-1.01541 -11.38383,-0.27605 -14.33399,0.93364 -1.5483,0.63486 -3.43425,1.1543 -4.19098,1.1543 -0.75674,0 -1.67296,0.48068 -2.03605,1.06817 -0.3631,0.5875 -1.27524,0.83215 -2.027,0.54368 -0.75175,-0.28848 -1.63279,-0.0942 -1.95786,0.43182 C 387.14793,247.56965 385.81008,248 384.5,248 c -1.31008,0 -2.63498,0.40939 -2.94423,0.90976 -0.81892,1.32504 0.45426,4.09024 1.88326,4.09024 0.67378,0 4.33813,1.5285 8.14301,3.39666 7.12945,3.50049 7.39097,3.52328 17.67273,1.5397 z m 220.21043,-2.03995 c 2.08797,-1.83326 3.5348,-4.02854 3.5348,-5.36336 0,-1.959 -0.81549,-2.43282 -6.12709,-3.56002 -5.62597,-1.19391 -6.70966,-1.12064 -13.25,0.8959 -3.9176,1.20789 -7.67239,2.31849 -8.34397,2.46801 -0.67158,0.14951 -1.53408,0.58486 -1.91666,0.96745 -0.38259,0.38259 -1.52061,0.69561 -2.52895,0.69561 -2.41794,0 -2.35252,2.65177 0.0978,3.96313 2.67183,1.42991 11.35885,2.7803 18.7841,2.91997 5.60842,0.10549 6.56031,-0.1861 9.75,-2.98669 z m -372.65058,0.19902 c 2.57696,-1.04751 5.47288,-2.15838 6.43538,-2.46861 0.9625,-0.31023 1.75,-1.43003 1.75,-2.48845 0,-2.04774 -1.79712,-3.11699 -5.33179,-3.1723 C 258.4757,247.94741 255.7,247.06268 253.5,246 c -2.2,-1.06268 -4.51106,-1.94741 -5.13569,-1.96607 -0.62463,-0.0187 -2.28744,-0.63146 -3.69512,-1.36178 -1.88046,-0.97559 -4.30915,-1.1172 -9.15511,-0.5338 -7.87798,0.94842 -8.51408,1.27518 -8.51408,4.37354 0,2.72431 6.15017,8.20768 11.31684,10.08988 5.04302,1.83715 13.28782,1.61147 18.49778,-0.50634 z M 306.11833,255.75 c 7.94377,-6.0905 8.15099,-6.32608 7.4651,-8.48715 -0.94955,-2.99175 -7.36056,-4.1421 -17.69262,-3.17464 -8.10544,0.75897 -17.92317,3.54415 -20.07372,5.6947 -1.50343,1.50343 -0.34378,2.82943 4.45556,5.0947 6.11697,2.88718 6.46162,2.95679 15.06919,3.04344 6.6692,0.0671 8.28068,-0.25751 10.77649,-2.17105 z m 267.91944,0.70449 c 0.70546,-0.85003 1.85266,-1.32678 2.54933,-1.05944 1.57323,0.60371 3.54732,-1.61501 2.6057,-2.92859 -1.38906,-1.93775 -9.85262,-5.50535 -16.1928,-6.82565 -9.02352,-1.8791 -17.23663,-1.08228 -20.08389,1.94849 -2.61532,2.78388 -1.71595,4.49445 3.36705,6.40403 1.76926,0.66468 4.11684,1.5899 5.21684,2.05604 3.30114,1.39891 5.63472,1.71307 13.62756,1.83463 5.76555,0.0877 7.94067,-0.26128 8.91021,-1.42951 z M 41.918573,255.59811 c 0.639905,-0.77103 2.270005,-1.67961 3.622445,-2.01905 3.410553,-0.85599 3.080646,-2.14034 -1.291018,-5.02598 C 38.009386,244.43378 24,240.58386 24,242.98818 24,243.54468 22.450094,244 20.555764,244 c -2.148419,0 -4.446367,0.862 -6.107862,2.29115 l -2.663625,2.29116 4.455953,3.65132 c 3.658419,2.99779 5.422797,3.71799 9.857862,4.02386 12.145389,0.83761 14.665253,0.73259 15.820481,-0.65938 z m 56.817074,-1.26163 C 102.17361,252.59703 104,251.04382 104,249.85953 c 0,-3.76392 -12.815559,-9.34641 -18.02588,-7.85211 -1.656114,0.47497 -3.340293,0.94651 -3.742618,1.04788 -2.444455,0.61588 -5.859994,2.25604 -8.266479,3.96961 C 72.439453,248.11121 70.473226,249 69.59563,249 c -2.241915,0 -2.089581,3.98826 0.15437,4.04159 0.9625,0.0229 4,0.88375 6.75,1.91306 7.600755,2.84493 15.8439,2.61576 22.235647,-0.61817 z M 197.5,255.84035 c 1.65,-0.63762 4.20686,-2.26738 5.68191,-3.62168 l 2.68191,-2.46238 -3.02259,-2.54334 c -3.40384,-2.86414 -15.80776,-5.55088 -19.29565,-4.17951 -1.12507,0.44235 -5.08308,1.62267 -8.79558,2.62293 -5.84303,1.57429 -6.75,2.12687 -6.75,4.11253 0,1.26163 0.5625,2.45826 1.25,2.65917 0.6875,0.20092 3.89472,1.19929 7.12716,2.21862 7.06101,2.22663 16.99682,2.78811 21.12284,1.19366 z M 671.0066,253.927 c 1.92137,-0.59015 5.7434,-1.37765 8.4934,-1.75 4.07541,-0.55181 5,-1.04064 5,-2.64348 0,-1.43957 -1.33973,-2.47599 -5,-3.86802 -2.75,-1.04585 -5.675,-2.21683 -6.5,-2.60218 -2.93967,-1.37308 -16.81225,0.75398 -19.69678,3.02007 -2.09309,1.64433 -3.26621,3.11842 -3.28791,4.13143 -0.0263,1.2264 4.03082,2.95246 8.85637,3.76786 6.75234,1.14099 8.26143,1.13407 12.13492,-0.0557 z M 716,252.58179 c 0,-0.78002 0.23493,-2.03043 0.52207,-2.7787 0.28713,-0.74826 -0.071,-2.17158 -0.79592,-3.16293 -1.26373,-1.72825 -1.47044,-1.72974 -5.02207,-0.0361 -2.63777,1.25787 -3.70408,2.40873 -3.70408,3.99781 0,2.54511 1.14727,3.20737 5.75,3.31917 2.17603,0.0529 3.25,-0.3897 3.25,-1.33926 z m -120,-5.63157 c 3.025,-1.12682 6.94712,-2.71541 8.71582,-3.53019 7.33929,-3.38097 15.83797,-5.53963 19.55948,-4.9681 4.5678,0.7015 5.85367,-1.26871 3.46783,-5.3134 -1.72645,-2.92684 -2.46461,-22.5746 -0.8848,-23.55097 0.48182,-0.29778 1.88014,-3.8143 3.10739,-7.81449 1.22724,-4.00019 3.19099,-9.74807 4.36387,-12.77307 2.29476,-5.9184 2.30025,-7.5929 0.0332,-10.13058 C 632.18637,176.4331 629,169.83022 629,167.75644 c 0,-1.00137 -0.68965,-3.47125 -1.53256,-5.48862 -0.84292,-2.01737 -1.74886,-7.25886 -2.01322,-11.64776 -0.49275,-8.18068 -1.01055,-9.95597 -2.29683,-7.87472 -1.1656,1.88598 -11.49358,2.76122 -13.22027,1.12035 -0.79042,-0.75113 -2.33712,-1.48457 -3.43712,-1.62986 -3.42407,-0.45227 -9.5,-2.52241 -9.5,-3.23676 0,-0.37445 -2.45902,-1.23111 -5.46449,-1.90371 -4.71897,-1.05606 -5.94101,-0.99677 -8.95733,0.43456 -1.92106,0.91161 -4.53304,2.69767 -5.8044,3.96902 -1.27135,1.27136 -4.55306,3.51245 -7.29267,4.98021 -4.51626,2.4196 -5.82101,2.64015 -13.98111,2.36329 -4.95,-0.16795 -9.51193,0.0191 -10.13762,0.41566 -0.65455,0.41486 -1.15371,3.51067 -1.17552,7.29057 -0.0208,3.61326 -0.7711,9.13045 -1.66723,12.26044 -0.89612,3.12999 -2.02271,7.04089 -2.50352,8.69089 -0.48081,1.65 -0.89571,5.80871 -0.92201,9.24157 -0.0424,5.53336 0.28997,6.62626 2.92905,9.63201 1.63727,1.86475 2.97685,4.02854 2.97685,4.80844 0,0.77989 0.5593,1.97728 1.24289,2.66087 1.82247,1.82247 4.57096,20.72843 3.98436,27.40711 -0.5721,6.51361 -1.51856,5.9424 10.27275,6.19984 6.74061,0.14717 17.38106,3.09303 19.19261,5.31357 1.86831,2.29013 7.64991,6.13342 9.30739,6.18705 0.825,0.0267 3.975,-0.87341 7,-2.00024 z m -13,-42.67911 c -2.4757,-0.94241 -2.96865,-2.46474 -2.98469,-9.21736 -0.0127,-5.35101 0.43255,-7.09252 2.62069,-10.25 2.33471,-3.36899 3.10964,-3.80375 6.77996,-3.80375 3.45031,0 4.70352,0.59325 7.48697,3.54425 3.10036,3.28697 3.30715,3.91763 2.84878,8.68797 -0.4148,4.31688 -1.0752,5.67613 -4.10829,8.45575 -2.81406,2.57889 -4.44739,3.29455 -7.37873,3.23308 -2.07058,-0.0434 -4.43969,-0.33589 -5.26469,-0.64994 z m -96.55887,42.19709 c 1.06762,-0.80751 2.61362,-1.4682 3.43555,-1.4682 0.82193,0 2.42342,-0.84903 3.55887,-1.88673 3.01496,-2.75542 12.68034,-5.20581 20.63308,-5.23095 3.81225,-0.012 6.96039,-0.328 6.99587,-0.70211 0.0355,-0.37412 0.15802,-6.58566 0.27234,-13.80344 0.13363,-8.43686 0.6357,-13.63876 1.40595,-14.56685 2.14164,-2.58052 6.24308,-16.19381 6.25024,-20.74547 0.005,-2.89597 -0.63055,-5.15212 -1.82974,-6.5 -2.26139,-2.54179 -7.17468,-16.08292 -7.16811,-19.75543 0.003,-1.48004 -0.47441,-2.98717 -1.06014,-3.34917 -0.58573,-0.362 -0.98805,-1.85106 -0.89404,-3.30902 0.094,-1.45796 0.12324,-4.73726 0.065,-7.28733 -0.10135,-4.4346 -0.24749,-4.65812 -3.35596,-5.1329 -1.7875,-0.27301 -3.76221,-0.0857 -4.38824,0.41619 -2.51118,2.01335 -19.25336,-2.03635 -23.62454,-5.71445 -4.58435,-3.85747 -9.57487,-3.05388 -17.28448,2.78321 -8.7401,6.61728 -11.77401,7.89637 -19.2869,8.13128 -8.64761,0.2704 -9.26979,0.69282 -7.96749,5.40936 1.77128,6.41504 0.42419,16.81148 -3.59482,27.74381 -2.02194,5.5 -4.06859,10.71526 -4.54812,11.58948 -0.49827,0.90839 -0.49247,2.19388 0.0135,3 0.48696,0.77578 0.65094,2.16462 0.36439,3.0863 -0.28655,0.92168 0.0962,2.04668 0.85064,2.5 1.86321,1.1196 7.27954,12.78136 8.51072,18.32422 0.60875,2.74061 0.66868,6.84585 0.15328,10.5 -0.66197,4.69341 -0.52567,6.48997 0.62593,8.25 1.55343,2.37416 3.39601,2.86433 4.97609,1.32375 0.96561,-0.94146 28.15162,5.06193 31.3288,6.91823 2.21493,1.2941 3.29311,1.19257 5.56233,-0.52378 z m -12.68797,-39.54653 c -2.98965,-1.74144 -6.01835,-9.69455 -5.25052,-13.78744 0.9473,-5.04954 2.15137,-6.95246 5.81118,-9.184 5.57221,-3.39762 14.09804,-1.78622 16.74807,3.16542 2.59365,4.84626 -1.51354,14.89265 -7.52987,18.41845 -4.51769,2.64754 -7.0089,3.00103 -9.77886,1.38757 z M 65.526229,244.95756 c 0.354345,-0.57334 4.580867,-2.98712 9.392273,-5.36394 10.317314,-5.09674 18.077806,-6.51877 22.627599,-4.14626 5.582529,2.91103 6.191079,2.33926 5.308939,-4.98816 -0.43309,-3.59744 -1.03696,-6.94454 -1.34193,-7.43799 -0.30497,-0.49345 0.35482,-4.17855 1.4662,-8.1891 C 104.09069,210.82156 105,205.93365 105,203.9701 c 0,-1.96356 0.534,-4.1041 1.18666,-4.75676 1.46917,-1.46917 1.47178,-13.54172 0.004,-16.54626 -0.58243,-1.1919 -2.04784,-5.09208 -3.25646,-8.66708 -1.20862,-3.575 -3.126258,-8.3 -4.261414,-10.5 -1.870514,-3.62516 -2.234994,-6.35221 -2.647553,-19.80902 -0.01364,-0.44496 -0.481731,-0.52662 -1.040199,-0.18146 -0.558468,0.34515 -5.122966,0.60808 -10.143329,0.58429 -6.730229,-0.0319 -9.570653,-0.44391 -10.813345,-1.56853 C 73.100954,141.68637 71.365452,141 70.171259,141 c -1.194192,0 -3.176738,-1.00548 -4.405657,-2.2344 -1.820461,-1.82046 -3.366742,-2.23729 -8.346702,-2.25 -5.821572,-0.0149 -6.369313,0.20296 -11.515602,4.57938 C 38.407444,147.46947 37.104157,148 28.940741,148 H 21.75 l 0.72774,3.25 c 1.999821,8.93096 2.233673,11.26945 1.413087,14.13066 -0.489955,1.70838 -0.906096,4.23411 -0.924758,5.61274 C 22.947406,172.37203 22.062675,175.3 21,177.5 c -1.062675,2.2 -1.947406,4.5074 -1.966069,5.12756 -0.01866,0.62015 -0.634939,1.62634 -1.369504,2.23598 -0.734565,0.60963 -2.370184,3.12004 -3.634709,5.57868 -2.201938,4.28127 -2.230027,4.61589 -0.664427,7.91515 C 14.264381,200.25206 15,202.30286 15,202.9147 c 0,1.17026 2.07262,5.23214 3.105088,6.0853 2.129272,1.75947 3.110451,9.02171 2.47177,18.29492 l -0.686466,9.96701 2.304804,-0.69475 c 6.355385,-1.91573 10.828227,-1.79078 16.527983,0.46171 3.177251,1.25563 6.204321,2.66279 6.726821,3.12703 0.5225,0.46425 1.672574,0.84408 2.55572,0.84408 0.883147,0 3.130572,1.125 4.99428,2.5 3.55926,2.62594 11.250982,3.52095 12.526229,1.45756 z M 53.424314,202.75 C 50.154315,198.92656 49,196.17835 49,192.21652 c 0,-3.09575 0.714054,-4.50788 3.806245,-7.52732 3.286872,-3.20955 4.242042,-3.62954 7,-3.07795 C 61.56281,181.96256 63,182.86875 63,183.625 c 0,0.75625 0.5625,1.37501 1.25,1.37503 1.564805,4e-5 6.75,6.39442 6.75,8.3241 0,0.78704 -0.675,1.99118 -1.5,2.67587 -0.825,0.68469 -1.5,1.88524 -1.5,2.6679 0,0.78265 -1.104545,2.52755 -2.454545,3.87755 -3.30083,3.30083 -9.385229,3.40351 -12.121141,0.20455 z m 648.690826,41.47455 c 1.31167,-0.97649 4.52236,-2.80806 7.13486,-4.07015 l 4.75,-2.29471 -0.022,-5.17984 c -0.0262,-6.1558 -6.63446,-25.62082 -9.86598,-29.06061 C 702.95041,202.38276 702,200.41793 702,199.25294 c 0,-1.23673 -0.82854,-2.38113 -1.99105,-2.7501 C 697.66454,195.75875 696,196.57558 696,198.47012 696,200.63731 690.09233,205 687.15767,205 c -3.96055,0 -9.52871,-3.33856 -10.1875,-6.10823 -0.3129,-1.31547 -0.26756,-4.3898 0.10077,-6.83184 0.72045,-4.77669 4.46751,-9.05993 7.92581,-9.05993 3.33915,0 3.1428,-1.81177 -0.56315,-5.19612 -1.98981,-1.81713 -5.48889,-5.26873 -7.77572,-7.67022 -2.28683,-2.40148 -6.74538,-6.86659 -9.90788,-9.92245 -3.1625,-3.05586 -5.75,-6.06524 -5.75,-6.6875 0,-0.62226 -1.54373,-2.62762 -3.43052,-4.45637 l -3.43052,-3.32499 -0.52833,3.37883 c -0.29058,1.85835 -1.02157,6.48261 -1.62441,10.27614 -0.60284,3.79352 -1.93045,8.51852 -2.95025,10.5 -1.0198,1.98147 -2.44252,4.88015 -3.1616,6.44151 -1.58333,3.43794 -1.59115,13.34439 -0.0118,14.92377 0.62557,0.62557 1.1374,1.88671 1.1374,2.80254 0,0.91583 0.9,2.80931 2,4.20773 1.1,1.39842 2,3.61911 2,4.93486 0,1.31575 0.43489,2.82716 0.96641,3.35868 1.47448,1.47448 3.65396,13.09242 3.92707,20.93359 0.1341,3.85 0.61461,7.37919 1.06781,7.84264 0.45319,0.46345 1.84297,0.2973 3.08838,-0.36922 2.63643,-1.41098 10.59546,-0.71387 18.67877,1.63601 3.65005,1.0611 6.46956,2.76088 9.03825,5.44884 3.14771,3.29387 4.3788,3.90941 7.84845,3.92419 2.40372,0.0102 5.10697,-0.72084 6.5,-1.75791 z m -544.54703,-0.33476 c 0.4027,-0.65157 2.08629,-0.883 4.07542,-0.56021 2.81724,0.45717 3.65789,0.14003 4.98084,-1.87905 1.16644,-1.78021 2.01281,-2.19333 3.16851,-1.54656 1.0592,0.59276 2.41909,0.29397 4.14203,-0.91007 4.18274,-2.92301 18.65769,-3.95832 26.41603,-1.88939 2.11802,0.56482 4.07901,0.79887 4.35776,0.52012 0.27875,-0.27875 0.44241,-5.37083 0.36369,-11.31573 -0.11855,-8.95207 0.28212,-12.18319 2.33237,-18.8089 5.09598,-16.46845 4.99646,-15.769 3.07755,-21.62965 -0.9671,-2.95369 -2.82126,-7.39177 -4.12034,-9.86239 C 205.06289,173.53733 204,171.01897 204,170.41159 c 0,-0.60737 -0.65162,-2.41095 -1.44804,-4.00795 -0.79642,-1.597 -1.55729,-6.33116 -1.69082,-10.52035 l -0.24277,-7.6167 -3.05918,0.83407 c -7.03524,1.91811 -21.20742,0.43265 -24.52611,-2.57072 C 172.10327,145.68847 170.86886,145 170.28995,145 c -0.57892,0 -2.25388,-1.575 -3.72215,-3.5 -3.98746,-5.22782 -5.29158,-4.97897 -17.03145,3.25 -4.11258,2.88269 -5.39458,3.25 -11.34308,3.25 -3.68856,0 -8.10574,-0.4013 -9.81595,-0.89179 -1.71021,-0.49048 -3.55223,-0.60298 -4.09337,-0.25 -0.54114,0.35299 -1.28011,4.95275 -1.64215,10.22169 -0.479,6.97114 -1.29813,10.91972 -3.00803,14.5 -1.29237,2.70606 -3.13645,7.31757 -4.09795,10.24781 -1.65119,5.03213 -1.65383,5.58694 -0.0477,10 2.71258,7.45299 4.36565,10.80607 5.99339,12.15697 0.83515,0.69312 1.51845,1.86625 1.51845,2.60697 0,0.74072 1.0125,3.27312 2.25,5.62756 1.94396,3.69852 2.24146,5.74299 2.18719,15.03079 l -0.0628,10.75 h 4.84493 c 2.66471,0 6.46043,0.675 8.43493,1.5 1.97451,0.825 4.54755,1.51886 5.71788,1.54192 1.17034,0.023 3.70288,0.90419 5.62788,1.95808 4.14072,2.26695 4.66518,2.35076 5.56811,0.88979 z m 0.64996,-42.98085 c -5.46625,-5.34427 -5.27592,-10.86841 0.59121,-17.15894 4.94664,-5.30362 14.44895,-2.93897 17.7681,4.4216 1.64602,3.65023 1.64084,4.02619 -0.11146,8.0784 -2.5328,5.85715 -5.04439,7.70103 -10.52608,7.72776 -3.7645,0.0184 -5.11181,-0.51709 -7.72177,-3.06882 z m 120.6602,40.87463 c 3.09195,-1.76903 5.62173,-3.0874 5.62173,-2.9297 0,0.1577 1.29991,-0.2075 2.88869,-0.81155 1.58878,-0.60405 3.11044,-0.87652 3.38148,-0.60548 0.27104,0.27103 1.4027,0.006 2.5148,-0.58935 2.61612,-1.40011 10.86368,-1.80383 12.41699,-0.60782 0.66108,0.50902 1.95998,0.77582 2.88646,0.59291 1.43008,-0.28235 1.71144,-1.8429 1.86295,-10.33258 0.21031,-11.78442 2.1652,-25.0937 4.14425,-28.21482 1.94481,-3.06712 1.92153,-16.6111 -0.0313,-18.23183 -0.78965,-0.65535 -1.73171,-2.62295 -2.09347,-4.37245 -0.36177,-1.74949 -1.96569,-5.9946 -3.56428,-9.43357 C 306.70465,161.51055 306,158.52434 306,153.92994 c 0,-5.30111 -0.22034,-6.0013 -1.75,-5.56109 -0.9625,0.277 -3.58116,1.02918 -5.81924,1.67152 -3.31408,0.95116 -5.22889,0.8708 -10.31821,-0.43302 -3.43694,-0.88051 -6.92542,-2.27736 -7.75219,-3.10413 C 279.53359,145.67645 278.4502,145 277.95282,145 c -0.49737,0 -2.30154,-1.53545 -4.00926,-3.4121 -1.70772,-1.87666 -4.41869,-3.95628 -6.02438,-4.62138 -2.73903,-1.13454 -3.24382,-0.93873 -8.1693,3.16885 -9.80979,8.18084 -17.73802,11.06637 -24.94112,9.0775 -4.32919,-1.19535 -6.2997,-0.19822 -5.51771,2.79209 0.31781,1.21533 0.17959,3.25717 -0.30717,4.53743 -0.48675,1.28026 -0.96925,4.49447 -1.07221,7.14268 -0.10296,2.64821 -1.02521,6.78463 -2.04944,9.19205 -1.02423,2.40741 -1.8652,5.10741 -1.86882,6 -0.004,0.89258 -0.90066,2.97288 -1.99341,4.62288 -3.06385,4.62625 -2.57908,9.2471 1.50971,14.39073 1.91966,2.4149 3.49029,5.29505 3.49029,6.40033 0,1.10528 1.19109,4.44409 2.64686,7.41959 2.48149,5.07197 2.60788,6.00348 2.02289,14.90911 l -0.62398,9.49913 7.11699,-0.42542 c 8.15788,-0.48764 15.67141,1.49354 28.83724,7.60388 4.80994,2.23231 5.48005,2.14691 11.87827,-1.51378 z M 268.38386,201.55794 C 268.05505,200.70108 266.95,200 265.92819,200 c -1.0218,0 -2.32366,-0.87042 -2.89301,-1.93426 C 261.71171,195.5928 261.68652,187.31178 263,186.5 c 0.55,-0.33992 1,-1.66138 1,-2.93657 0,-4.08655 2.31886,-5.01643 7.93155,-3.18061 2.71934,0.88945 5.61655,1.61718 6.43825,1.61718 2.01524,0 5.6302,5.24299 5.6302,8.16581 0,1.29638 -1.46575,4.60192 -3.25722,7.34563 -2.96691,4.54393 -3.6362,5.01601 -7.50915,5.2965 -3.12964,0.22667 -4.40973,-0.10327 -4.84977,-1.25 z m 115.6329,40.83539 c 1.91578,-0.92735 4.15824,-2.23697 4.98324,-2.91027 0.825,-0.67329 3.81064,-1.51604 6.63476,-1.87277 2.82412,-0.35673 6.57816,-1.36866 8.3423,-2.24873 2.90129,-1.44736 6.60343,-1.51471 12.01288,-0.21856 1.25205,0.3 1.49155,-1.43128 1.5,-10.843 0.007,-7.61472 0.4102,-11.60013 1.26006,-12.45 0.6875,-0.6875 1.25,-2.44931 1.25,-3.91514 0,-1.46583 0.8348,-3.73833 1.85512,-5.05 1.87146,-2.40588 3.70021,-9.14048 3.2183,-11.85181 -0.1434,-0.80682 -1.34359,-2.75385 -2.66708,-4.32672 C 421.08285,185.13345 420,183.07108 420,182.12327 c 0,-0.9478 -0.518,-2.24127 -1.15112,-2.87439 -0.63311,-0.63311 -1.49356,-3.08561 -1.9121,-5.45 -0.41854,-2.36438 -1.51729,-6.32388 -2.44166,-8.79888 -1.12785,-3.01982 -1.4902,-5.98018 -1.10161,-9 1.36229,-10.5867 2.20881,-9.49137 -7.39351,-9.56656 -9.67919,-0.0758 -12.34307,-0.73991 -16.32673,-4.07027 C 388.11858,141.06343 385.90401,140 384.75202,140 c -1.152,0 -2.91612,-0.74352 -3.92027,-1.65227 -2.26266,-2.04768 -7.45268,-2.00076 -9.761,0.0882 -0.95053,0.86022 -2.07803,1.56403 -2.50557,1.56403 -0.42754,0 -1.63139,1.08575 -2.67523,2.41277 -1.21681,1.54693 -3.42161,2.66408 -6.14392,3.11307 -2.33532,0.38516 -4.81159,1.15705 -5.50283,1.71532 -0.73229,0.59141 -4.61011,0.8209 -9.2917,0.54989 -4.41919,-0.25582 -8.27644,-0.0743 -8.57166,0.40337 -0.29522,0.47767 -0.94547,5.18853 -1.44502,10.46857 -0.49954,5.28004 -1.27037,10.10338 -1.71296,10.71854 -0.44259,0.61516 -1.40241,2.91847 -2.13292,5.11847 -0.73052,2.2 -2.23029,4.98852 -3.33283,6.19671 -1.24489,1.36419 -2.12055,3.93094 -2.31053,6.7727 -0.25585,3.82717 0.0608,4.81629 1.93509,6.04436 2.65765,1.74136 6.61933,8.448 6.61933,11.20572 0,1.07095 0.3084,2.25558 0.68534,2.63251 1.08681,1.08681 3.20208,7.76854 3.87862,12.25176 0.45834,3.03735 0.0757,5.29689 -1.47235,8.69514 -1.15038,2.52525 -2.09161,5.78984 -2.09161,7.25464 0,2.36021 0.29219,2.58994 2.56769,2.01883 1.41222,-0.35445 5.79972,-0.64477 9.75,-0.64517 5.7303,-5.8e-4 8.17685,0.51212 12.10179,2.53604 2.70571,1.39522 5.46311,2.53676 6.12755,2.53676 0.66445,0 1.81284,0.72869 2.55199,1.61931 1.67848,2.02244 10.63147,1.33288 15.91774,-1.22598 z M 370.75,205.54056 c -1.5125,-1.82328 -2.75,-4.2365 -2.75,-5.36271 0,-1.12621 -0.41086,-3.12829 -0.91302,-4.44908 -1.37695,-3.62165 1.82381,-10.03496 5.8381,-11.69774 4.1722,-1.72818 9.61732,-0.16187 13.49015,3.88049 2.37152,2.47534 2.72454,3.49553 2.17043,6.27232 -0.82759,4.14727 -10.35307,14.8462 -13.12685,14.74396 -1.07735,-0.0397 -3.19631,-1.56397 -4.70881,-3.38724 z m 64.57584,36.22743 c 1.71368,-2.29747 2.03312,-4.20612 2.00839,-12 -0.0279,-8.79792 -0.89148,-12.424 -4.23154,-17.76799 -0.51564,-0.825 -1.47652,-2.95585 -2.1353,-4.73522 -0.92681,-2.50331 -1.5512,-3.03744 -2.75995,-2.36099 -0.85919,0.48082 -1.65064,1.71167 -1.75877,2.73522 -0.26303,2.48957 -1.10349,6.11218 -2.40382,10.36099 -0.61166,1.99862 -0.76589,5.43034 -0.35954,8 0.39139,2.475 0.60496,4.88954 0.47461,5.36564 -0.371,1.355 3.01087,9.93654 4.69804,11.92138 1.97577,2.32436 3.94631,1.86156 6.46788,-1.51903 z M 645,243.46482 c 0,-0.84435 0.72673,-2.64432 1.61496,-3.99992 3.28121,-5.00777 1.27162,-27.97412 -3.05949,-34.9649 -0.6815,-1.1 -1.56678,-3.32885 -1.96728,-4.95299 -0.71324,-2.89239 -0.80201,-2.81029 -4.32481,4 -3.04381,5.8843 -3.66659,8.21067 -4.05186,15.13553 -0.38385,6.89935 -0.12249,8.86992 1.66662,12.56573 1.16702,2.41075 2.12186,4.90044 2.12186,5.53266 0,1.42249 5.87416,8.21907 7.10359,8.21907 0.49303,0 0.89641,-0.69083 0.89641,-1.53518 z m -526.56085,-2.86145 c 1.76341,-2.37065 2.05,-4.16568 1.98565,-12.43695 -0.0614,-7.88659 -0.47792,-10.44609 -2.2624,-13.90089 -1.20296,-2.32895 -2.53239,-5.89588 -2.95429,-7.92649 -1.03111,-4.96279 -2.62518,-5.20794 -4.00568,-0.61605 -2.81266,9.35558 -3.19309,22.16085 -0.89375,30.08341 2.5472,8.77661 4.37018,9.85217 8.13047,4.79697 z M 12.848687,240.25 c 1.565263,-2.98047 2.521216,-10.43469 2.276315,-17.75 -0.288119,-8.60626 -0.734982,-10.2209 -3.192727,-11.53625 -1.835761,-0.98246 -1.9416616,-0.59531 -2.1202017,7.75107 -0.2945652,13.77031 -0.5496328,18.1034 -1.2237682,20.78937 C 8.0780841,241.53707 8.3298696,242 9.9457642,242 c 1.0911278,0 2.3974428,-0.7875 2.9029228,-1.75 z m 209.928933,-1.24685 c 1.97163,-2.49842 2.2891,-4.10471 2.363,-11.95605 0.0544,-5.77674 -0.35682,-9.60268 -1.1325,-10.53732 -0.66984,-0.8071 -1.98486,-4.51448 -2.92227,-8.23862 -1.3315,-5.28976 -2.14044,-6.83541 -3.69752,-7.06482 -1.6955,-0.2498 -2.15759,0.5715 -3.09447,5.5 -0.60573,3.18651 -1.63396,7.81866 -2.28494,10.29366 -1.75087,6.6567 -0.55153,15.99175 2.69083,20.94404 3.11827,4.76276 4.96417,5.00478 8.07787,1.05911 z m 103.58863,0.67375 c 0.32068,-1.27771 1.76216,-4.0606 3.20327,-6.18421 2.4415,-3.59775 2.57688,-4.37643 1.98486,-11.41643 C 330.8003,213.10927 325.02141,200 321.82262,200 320.82018,200 320,200.19244 320,200.42764 c 0,3.23078 -2.35225,16.63696 -3.22086,18.35663 -0.90314,1.78805 -0.77038,4.2843 0.61113,11.49103 0.9707,5.06372 2.2351,9.7733 2.80977,10.46573 1.79474,2.16253 5.51762,1.52006 6.16621,-1.06413 z m 216.23692,-7.20827 c 0.71971,-2.73274 1.32842,-6.44533 1.3527,-8.25018 0.0434,-3.22563 -3.03882,-14.04833 -4.97098,-17.45488 C 538.4432,205.80853 538,204.52951 538,203.9213 c 0,-1.44369 -3.98596,-6.50327 -4.84057,-6.14437 -0.36269,0.15231 -0.74373,1.37366 -0.84676,2.7141 -0.10303,1.34045 -1.10697,4.51618 -2.23097,7.05718 -2.88298,6.51746 -3.17351,20.32303 -0.55015,26.14284 2.29028,5.08089 4.8624,6.50362 8.86575,4.90394 2.3137,-0.92452 3.16089,-2.15856 4.20587,-6.12636 z M 14.713345,177.82226 c 2.924939,-10.67819 3.239367,-12.426 3.262798,-18.13688 0.02792,-6.80417 -3.284017,-15.6854 -5.849287,-15.68535 -1.450599,3e-5 -1.617097,2.13978 -1.536778,19.75 0.04954,10.86248 0.162042,20.17747 0.25,20.69997 0.349475,2.07602 2.494612,-1.59464 3.873267,-6.62774 z M 431.94101,181.75 c 2.86765,-7.184 4.10945,-13.63986 4.13757,-21.51029 0.0172,-4.80684 -0.13275,-9.52984 -0.33317,-10.49555 C 435.29235,147.56113 429.036,141 427.40743,141 c -2.07121,0 -7.40249,6.943 -7.51339,9.7848 -0.19552,5.00998 0.29056,8.69398 1.54575,11.7152 0.6855,1.65 1.57387,4.8 1.97416,7 0.89397,4.91328 5.2819,14.5 6.63678,14.5 0.54568,0 1.39631,-1.0125 1.89028,-2.25 z m -213.80878,-6.3314 c 0.34773,-2.15523 1.10283,-5.2686 1.67801,-6.9186 3.97756,-11.41037 4.313,-14.08693 2.55697,-20.40301 -2.92242,-10.51139 -7.21247,-12.79335 -12.06632,-6.4183 -2.62385,3.44617 -2.80075,4.29299 -2.79873,13.3974 0.002,7.49961 0.3699,10.14171 1.61274,11.57131 0.88581,1.01893 1.88961,3.3327 2.23066,5.14172 0.71096,3.77116 3.67663,8.28519 5.15444,7.84557 0.55,-0.16361 1.2845,-2.06085 1.63223,-4.21609 z m 105.84261,1.11172 c 0.67085,-0.80833 2.19818,-5.42083 3.39407,-10.25 3.45108,-13.936 1.72771,-24.66288 -4.60399,-28.65681 -2.59503,-1.6369 -6.57784,1.16514 -8.80154,6.19219 -2.30527,5.21144 -2.59794,14.14895 -0.59041,18.03001 2.46552,4.76647 4.62703,10.19324 4.62703,11.61679 0,1.50773 2.63681,4.5375 3.94898,4.5375 0.44337,0 1.35501,-0.66136 2.02586,-1.46968 z M 536.52544,169.25 c 1.73523,-16.42193 0.85202,-25.53454 -2.96216,-30.56228 -1.2858,-1.69491 -1.6384,-1.53299 -5.44406,2.5 -3.72818,3.95088 -4.07131,4.7716 -4.09422,9.79295 -0.0147,3.22761 0.84384,7.74964 2.08848,11 6.81871,17.80697 9.12812,19.41934 10.41196,7.26933 z M 113,170.14098 c 0,-0.95754 0.39512,-2.16848 0.87803,-2.69098 C 114.99357,166.24303 117,152.4615 117,146.0062 117,138.91833 115.41399,136 111.56199,136 c -8.89346,0 -12.094493,11.63773 -6.44672,23.43783 1.0366,2.16581 1.88473,4.58769 1.88473,5.38197 0,0.79427 0.93843,2.96255 2.08541,4.8184 2.11921,3.42895 3.91459,3.65954 3.91459,0.50278 z m 532.76367,-15.41429 c 0.31583,-5.73445 0.0172,-10.41053 -0.86208,-13.5 -0.73991,-2.59968 -1.22434,-5.29521 -1.07653,-5.99007 0.44856,-2.1086 -2.68166,-2.5606 -5.39964,-0.77971 -6.381,4.18099 -6.73922,5.0416 -6.0022,14.42029 0.37269,4.74254 1.20103,10.1978 1.84074,12.1228 1.23507,3.71651 4.44492,9.02007 6.18786,10.22407 1.99723,1.37966 4.80806,-7.35011 5.31185,-16.49738 z M 194,142.28158 c 1.375,-0.63484 4.1334,-1.41814 6.12977,-1.74067 2.7316,-0.44132 4.27813,-1.52201 6.25,-4.36742 1.44113,-2.07954 2.62023,-4.31292 2.62023,-4.96305 0,-0.65014 -1.78928,-2.36615 -3.97617,-3.81337 -4.75864,-3.14911 -7.9379,-2.90979 -22.03187,1.6585 -4.99624,1.61944 -9.70085,2.94443 -10.45469,2.94443 -0.75383,0 -1.56486,0.5625 -1.80228,1.25 -0.71355,2.06623 1.45929,5.75 3.3916,5.75 0.99306,0 3.28332,0.63142 5.08948,1.40315 3.32143,1.41918 10.86371,3.45552 11.78393,3.18154 0.275,-0.0819 1.625,-0.66828 3,-1.30311 z m 59.31219,-4.84564 c 5.7106,-4.48305 6.49169,-6.09711 3.62829,-7.49759 -7.69867,-3.76537 -22.20386,-4.4846 -28.44048,-1.41019 -3.41809,1.68498 -4.04364,2.49201 -4.29997,5.54743 -0.27631,3.29358 -2.5e-4,3.70395 3.5,5.20288 5.0285,2.15338 6.69693,2.46832 13.79997,2.6049 5.68112,0.10924 6.3089,-0.12712 11.81219,-4.44743 z m 53.86007,1.27153 c 7.66032,-5.82796 6.17155,-11.41711 -3.62515,-13.60951 -5.12737,-1.14746 -5.74275,-1.064 -11.20372,1.51945 -3.17809,1.50348 -8.24914,3.49808 -11.26898,4.43243 -6.06303,1.87594 -7.3957,3.41409 -3.87946,4.47765 1.26778,0.38346 3.43005,1.73681 4.80505,3.00745 2.71982,2.51339 5.25698,3.08667 14.67226,3.31523 5.55274,0.13479 6.60664,-0.18065 10.5,-3.1427 z M 99.683114,138.8125 c -0.319226,-0.79773 -0.556183,-0.56078 -0.604167,0.60417 -0.04342,1.05416 0.192928,1.64479 0.52522,1.3125 0.332291,-0.3323 0.367818,-1.1948 0.07895,-1.91667 z m 359.130246,-0.19207 c 2.37235,-0.90984 5.74735,-2.65914 7.5,-3.88734 5.06841,-3.55177 5.92282,-5.40078 2.93664,-6.35515 -0.9625,-0.30761 -2.65,-0.92093 -3.75,-1.36293 C 462.62401,125.85939 450.91935,124 446.52086,124 c -4.3362,0 -11.235,3.52397 -12.07403,6.16753 -0.76186,2.40041 1.69679,5.75301 6.30579,8.59856 4.34529,2.68274 10.82203,2.6305 18.06074,-0.14566 z m 109.92788,-0.86535 c 4.61581,-1.43746 7.44911,-2.88633 7.81455,-3.99613 0.85575,-2.59881 -0.0771,-3.42679 -4.69229,-4.16479 -2.29946,-0.36769 -5.34693,-1.25847 -6.77216,-1.97949 -11.28814,-5.71067 -16.88128,-6.60271 -21.40588,-3.41399 -1.752,1.23473 -4.08546,3.0761 -5.18546,4.09192 -1.98417,1.83235 -1.96438,1.87784 2.5,5.74768 2.47653,2.14672 6.07381,4.19646 8,4.55844 1.925,0.36175 4.175,1.05488 5,1.54027 1.85856,1.0935 5.42912,0.51608 14.74124,-2.38391 z M 35.44113,138.4682 C 36.508751,137.66069 38.239284,137 39.286759,137 41.382807,137 47,133.36598 47,132.00996 c 0,-1.62767 -12.283786,-7.01034 -15.909722,-6.97154 -2.76852,0.0296 -4.690111,1.00797 -8.39547,4.27439 -3.221251,2.83966 -4.607288,4.75169 -4.204812,5.80052 1.51455,3.94686 13.129278,6.24557 16.951134,3.35487 z m 107.92706,-0.13055 C 152.08119,136.73592 156,134.73409 156,131.88499 c 0,-1.37899 -0.7382,-1.89684 -2.75,-1.92912 -3.97042,-0.0637 -11.6954,-2.2507 -13.63447,-3.85999 C 136.20049,123.26165 120,126.63616 120,130.18173 c 0,1.94644 5.30209,7.81827 7.05967,7.81827 1.00226,0 2.03088,0.3375 2.28582,0.75 0.77548,1.25475 5.74982,1.10848 14.0227,-0.41235 z m 216.06621,0.0187 c 3.33608,-0.90402 6.7406,-2.27549 7.5656,-3.04771 1.3237,-1.239 1.21439,-1.62056 -0.92999,-3.24638 -2.24261,-1.70029 -4.67675,-2.23586 -17.05025,-3.75146 -2.46414,-0.30182 -7.52664,-0.004 -11.25,0.66105 -6.71789,1.20055 -6.76976,1.23465 -6.76976,4.45003 0,4.21927 2.42533,5.45699 11.5,5.86879 3.85,0.17471 7.87048,0.40579 8.9344,0.51351 1.06391,0.10772 4.66391,-0.5438 8,-1.44783 z m 53.15155,0.52927 c 4.38703,-0.22323 12.99114,-4.34111 13.87316,-6.63961 0.77424,-2.01763 -1.0081,-3.97466 -5.89221,-6.46975 -5.55607,-2.83835 -17.56976,-2.75324 -24.1812,0.17131 C 393.83374,127.07639 390.90297,128 389.87288,128 388.8428,128 388,128.1882 388,128.41821 c 0,0.23002 -0.27196,1.12692 -0.60435,1.99312 -0.76208,1.98595 10.52769,7.5867 15.29533,7.58788 1.75504,4.3e-4 3.47364,0.45813 3.8191,1.0171 0.34546,0.55897 0.9732,0.80304 1.39496,0.54238 0.42177,-0.26067 2.52818,-0.56357 4.68091,-0.67311 z M 96.34347,134.61164 c 6.41998,-2.83922 7.05239,-3.64872 5.50452,-7.04591 -2.549423,-5.59538 -11.630162,-5.59659 -23.536065,-0.003 C 75.458484,128.90317 72.701085,130 72.18437,130 c -0.516714,0 -1.528145,0.7093 -2.247623,1.57622 -1.857281,2.23788 0.280916,3.3712 6.563253,3.47875 2.75,0.0471 5.9,0.47234 7,0.94503 3.464525,1.48876 7.26732,1.07768 12.84347,-1.38836 z m 426.35866,-1.05173 c 3.76235,-4.374 3.03173,-7.10934 -2.70213,-10.11635 -4.31205,-2.26137 -13.24634,-2.28064 -17.5,-0.0377 -1.65,0.87002 -3.41507,1.58463 -3.92239,1.58802 -1.36306,0.009 -8.52178,3.41409 -8.55181,4.0676 -0.0754,1.64016 4.41594,4.94332 6.76316,4.974 1.49107,0.0195 3.83604,0.6899 5.21104,1.4898 1.79576,1.04467 4.74008,1.34897 10.45213,1.08023 7.14494,-0.33615 8.18538,-0.6453 10.25,-3.04556 z M 624.5,133.88094 c 4.69579,-1.30063 9.5,-4.481 9.5,-6.28897 0,-1.36555 -5.14382,-3.18049 -11.29154,-3.9841 -4.04974,-0.52936 -17.5315,1.69187 -20.76183,3.42069 C 599.24304,128.47548 599.46767,131 602.3,131 c 1.265,0 2.84204,0.54204 3.50454,1.20454 1.0652,1.0652 6.89478,2.28492 12.69546,2.65627 1.1,0.0704 3.8,-0.37052 6,-0.97987 z m -450.17552,-8.26809 c 4.03312,-1.86293 9.14915,-3.64118 11.36896,-3.95167 2.21981,-0.31049 5.63674,-1.32785 7.59317,-2.26081 2.97818,-1.4202 4.42435,-1.5242 8.88527,-0.63898 2.93046,0.58152 5.53008,0.85863 5.77693,0.61582 0.24684,-0.24282 -0.0907,-2.45849 -0.75,-4.9237 C 206.53946,111.98829 206,108.7947 206,107.35663 c 0,-2.38042 3.63607,-13.670786 5.81535,-18.057257 4.46156,-8.980271 4.88585,-19.784602 1.15058,-29.299373 -2.78275,-7.088455 -3.89577,-11.857618 -4.78425,-20.5 -0.3958,-3.85 -1.03019,-7.489752 -1.40976,-8.088337 -0.37957,-0.598585 -3.29603,-1.113156 -6.48102,-1.143489 -3.185,-0.03033 -7.77793,-0.590496 -10.20652,-1.244804 C 186.21374,27.980547 175.86612,21.737474 171.56065,17.847379 168.0967,14.71761 167.01358,14 165.75365,14 164.127,14 157.36503,17.383972 155.13058,19.316223 150.65746,23.184388 140.43103,25.146294 131,23.945597 L 127.5,23.5 l -0.78826,7.240392 c -0.46204,4.24403 -2.05057,10.244706 -3.8385,14.5 C 121.1956,49.233176 119.39463,54.525 118.87108,57 c -0.52355,2.475 -1.38372,5.281394 -1.91149,6.236431 C 116.43181,64.191468 116,67.987465 116,71.67198 c 0,5.094097 0.44137,7.193733 1.84221,8.763569 2.61185,2.92693 6.88736,13.959261 8.25045,21.289061 0.87865,4.7248 0.87694,7.33905 -0.007,10.84988 -1.40059,5.56224 -0.25206,7.81951 3.29291,6.47172 2.8327,-1.077 11.22163,-0.26719 15.12153,1.45971 1.65,0.73064 4.64169,1.63219 6.64821,2.00345 2.00651,0.37126 5.15651,1.96524 7,3.54218 4.37835,3.7453 7.28911,3.66636 16.17627,-0.4387 z M 165,85.328495 c -1.94555,-0.57005 -6.89721,-7.070756 -7.63992,-10.02995 -0.90757,-3.616056 0.45515,-7.242525 3.90586,-10.394258 3.68536,-3.366064 4.8709,-3.52724 8.81361,-1.198224 3.85821,2.279098 6.25722,7.508133 5.57239,12.145917 -1.4707,9.959873 -1.57939,10.157575 -5.51544,10.032019 -2.00007,-0.0638 -4.3115,-0.313778 -5.1365,-0.555504 z M 386.57319,123.9171 c 11.54271,-5.70781 22.17105,-8.18314 28.80879,-6.70953 4.55399,1.011 5.1602,0.67403 3.69904,-2.05618 C 418.48646,114.04044 418,108.74635 418,103.38674 418,94.664472 418.52828,91.338625 421,84.5 424.40685,75.074107 425.00289,66.860606 422.61825,62.20034 421.85828,60.715153 420.90507,57.475 420.5,55 c -0.40507,-2.475 -1.43266,-5.85 -2.28353,-7.5 -0.85086,-1.65 -2.05377,-7.05 -2.67313,-12 -1.2563,-10.040587 -0.77189,-9.663584 -9.54334,-7.427286 -4.00679,1.021539 -5.37682,0.85785 -12.5,-1.493478 C 381.76207,22.7046 380,21.899872 380,20.413863 380,18.772911 376.88783,17 374.00731,17 c -1.24416,0 -3.82084,1.864297 -6.21954,4.5 -3.50265,3.848727 -4.65398,4.5 -7.95514,4.5 -2.12287,0 -4.69405,0.521019 -5.71373,1.157821 -1.0869,0.678779 -2.63283,0.828205 -3.73643,0.361155 -1.98596,-0.840463 -2.90279,-1.077963 -8.13247,-2.106677 L 339,24.773001 v 5.631883 c 0,5.881644 -3.02447,18.80796 -5.53785,23.668305 C 332.65797,55.628309 332,57.563501 332,58.373615 c 0,0.810114 -1.125,2.809921 -2.5,4.444016 -2.20856,2.624722 -2.5,3.899246 -2.5,10.932923 0,7.484205 0.20047,8.225429 3.34173,12.355644 C 332.17969,88.522789 334.15459,91.4 334.7304,92.5 336.89172,96.62885 339,107.40863 339,114.33077 V 121.5 l 10.25,0.0264 c 11.30112,0.0291 16.71852,1.24056 21.84896,4.88582 1.87057,1.32906 3.80474,2.45502 4.29816,2.50212 0.49341,0.0471 5.52265,-2.20166 11.17607,-4.99726 z M 372,83.554271 C 365.85866,80.199491 363.42474,72.946902 366.46634,67.065087 367.87825,64.334755 375.55915,59 378.07833,59 c 0.6722,0 3.17957,2.072205 5.57193,4.604899 3.64082,3.854399 4.34974,5.256936 4.34974,8.605644 0,3.777539 -0.54504,4.816353 -6.0545,11.539457 -1.34176,1.637332 -6.78599,1.530188 -9.9455,-0.195729 z M 14.043645,126.97664 c 2.400118,-1.2845 6.508088,-5.36286 8.567171,-8.50542 1.429255,-2.18132 1.42894,-2.68516 -0.0035,-5.55649 -0.866385,-1.73671 -1.362858,-3.50131 -1.103273,-3.92132 0.639144,-1.03416 -1.466148,-7.12002 -3.133802,-9.059027 -0.740586,-0.86109 -1.633114,-2.99859 -1.983396,-4.75 C 15.910427,92.802134 15.213872,92 13.62163,92 c -2.084739,0 -2.132574,0.369002 -2.333392,18 -0.112762,9.9 0.03084,18 0.319112,18 0.288273,0 1.384606,-0.46051 2.436295,-1.02336 z m 53.340335,-1.18308 c 2.263811,-0.66354 6.14102,-2.36844 8.61602,-3.78867 5.918239,-3.39607 11.268888,-4.95955 18,-5.25967 l 5.5,-0.24522 0.08149,-7 c 0.103959,-8.92976 1.200837,-15.074465 2.950067,-16.526196 0.75638,-0.627732 2.16149,-3.691138 3.12248,-6.807568 2.04306,-6.625494 2.55493,-26.957272 0.73667,-29.260859 -0.6101,-0.772957 -1.39354,-2.903803 -1.74096,-4.735212 -0.34743,-1.83141 -1.25517,-4.75641 -2.01722,-6.5 C 98.751382,36.789908 97,31.409545 97,28.366647 97,24.275127 95.423937,24.040238 88.505369,27.10065 85.33759,28.501909 82.742334,28.998467 80.710409,28.592082 76.158183,27.681637 67.837431,23.357771 64.141538,19.982094 60.129171,16.317363 54.335113,15.867235 51.5,19 c -0.995486,1.1 -2.208452,2 -2.69548,2 -0.487028,0 -2.177759,0.955404 -3.75718,2.123121 -2.57127,1.901022 -3.874653,2.079254 -12.459507,1.703782 L 23,24.407564 l 0,6.681383 c 0,3.674761 -0.641343,8.870559 -1.425206,11.546218 -2.740296,9.3538 -6.544408,25.881841 -6.4134,27.864835 0.07267,1.1 -0.197738,4.055683 -0.600911,6.568185 -0.616319,3.840797 -0.401206,4.955402 1.350966,7 7.079836,8.261419 13.192601,20.418105 13.650317,27.146905 0.424061,6.23405 0.849539,6.78442 5.247251,6.78748 2.44214,0.002 5.653438,1.18593 9.491063,3.5 3.190044,1.92359 6.790044,3.50432 8,3.51274 1.209956,0.008 2.87492,0.45153 3.69992,0.98469 2.044464,1.32123 6.444204,1.24145 11.38398,-0.20644 z M 58.591957,83.5 c -0.900935,-1.375 -2.250935,-2.5 -3,-2.5 -1.804245,0 -4.111515,-3.686191 -4.932433,-7.880263 -0.489425,-2.500472 -0.135543,-4.231489 1.359659,-6.650776 C 54.370373,62.664656 55.725331,62 61.129536,62 c 7.54552,0 12.085953,8.310939 9.211865,16.861663 C 68.264539,85.040555 67.344004,86 63.492565,86 61.116,86 59.785186,85.321097 58.591957,83.5 Z m 228.593913,38.57106 c 10.11827,-4.58575 13.77415,-5.28839 19.12967,-3.67661 5.50134,1.65566 6.37767,0.94494 6.03499,-4.89445 -0.25712,-4.38139 1.00983,-10.97125 3.75945,-19.554176 0.97864,-3.054797 2.52986,-9.656459 3.44716,-14.67036 1.53565,-8.393674 1.54003,-9.298643 0.0553,-11.41833 -0.88687,-1.266181 -1.62237,-3.664519 -1.63445,-5.32964 -0.0121,-1.665122 -0.87162,-4.898753 -1.91008,-7.185847 -3.24599,-7.148927 -4.26178,-14.581992 -3.60297,-26.364951 l 0.61431,-10.987069 -3.57007,2.005186 C 307.5457,21.097666 304.91785,22 303.66958,22 c -1.24827,0 -2.81803,0.548453 -3.48836,1.218784 -0.82253,0.822528 -4.33331,1.147157 -10.79828,0.998479 l -9.57949,-0.220304 -4.54252,-3.99848 C 270.16058,15.508968 268.1305,15.093325 265.5,18 c -0.99549,1.1 -2.34821,2 -3.00605,2 -0.65784,0 -3.39434,1.16883 -6.08111,2.5974 -4.3219,2.297977 -5.80886,2.557352 -12.89894,2.25 L 235.5,24.5 l -0.53338,4.63652 c -0.29335,2.550086 -1.02549,5.250086 -1.62698,6 -0.60148,0.749914 -1.6272,4.51348 -2.27937,8.36348 -0.65217,3.85 -1.83253,7.996668 -2.62302,9.214817 C 227.64676,53.932966 227,55.565366 227,56.342372 c 0,0.777006 -0.675,1.972939 -1.5,2.657628 -0.85335,0.708215 -1.5,2.888446 -1.5,5.057345 0,2.096851 -0.45554,5.010606 -1.0123,6.475011 -1.38601,3.645481 0.1985,9.057366 4.54128,15.510715 1.91989,2.852931 3.77332,6.372848 4.11875,7.822038 0.34542,1.44919 1.04236,3.162768 1.54875,3.807951 2.12509,2.70756 1.50153,10.7185 -1.2843,16.49958 -1.50347,3.11994 -2.47376,5.93244 -2.15621,6.25 0.97828,0.97828 8.30576,0.63915 12.34628,-0.57142 2.82953,-0.84775 4.18741,-0.85571 5.18188,-0.0304 0.74117,0.61512 4.01795,1.42191 7.28173,1.79287 3.26378,0.37095 7.0733,1.47024 8.46562,2.44286 4.97355,3.47437 13.68797,2.75804 24.15439,-1.98551 z M 265.45611,86.358138 C 262.11124,82.748968 260,77.707979 260,73.330649 c 0,-2.703741 0.92453,-4.362903 4.38978,-7.877876 C 266.80416,63.003748 269.44685,61 270.26242,61 c 1.97085,0 8.9637,7.685706 10.59732,11.647308 1.47219,3.570148 0.45236,6.233778 -4.60304,12.022335 -4.08273,4.67483 -7.53305,5.214231 -10.80059,1.688495 z m 62.67127,38.201272 c 3.93578,-2.67443 5.15413,-6.49051 4.24925,-13.30941 -1.08613,-8.18474 -5.8332,-22.25 -7.50945,-22.25 -0.45599,0 -1.09766,1.2375 -1.42592,2.75 -0.32827,1.5125 -1.0038,3.65 -1.50118,4.75 -1.79648,3.9731 -2.89166,11.15802 -2.91563,19.12803 -0.022,7.31199 0.20144,8.2856 2.22555,9.69755 2.92581,2.04094 2.71116,2.06485 6.87738,-0.76617 z m 270.69231,-2.68715 c 3.47584,-1.68641 6.58932,-2.79659 6.91885,-2.46705 0.32954,0.32953 1.42654,-0.14962 2.43778,-1.06478 1.05343,-0.95334 3.31334,-1.60849 5.29187,-1.53411 1.89928,0.0714 3.72248,-0.30581 4.05154,-0.83825 C 617.8488,115.43563 619.18992,115 620.5,115 c 2.73469,0 4.58373,-2.15415 2.42705,-2.82754 -0.78488,-0.24506 -3.22705,-2.48502 -5.42705,-4.9777 -2.2,-2.49267 -7.68578,-8.393716 -12.19062,-13.113442 -4.50484,-4.719725 -9.15,-9.818818 -10.32258,-11.331318 -2.6399,-3.405188 -5.55823,-3.504476 -8.5369,-0.290444 -5.81205,6.271309 -12.4018,3.051497 -12.43262,-6.074697 -0.0122,-3.620444 0.56714,-5.858113 1.98272,-7.65773 1.1,-1.398423 2,-3.107174 2,-3.797225 0,-0.69005 -3.2625,-4.46016 -7.25,-8.378022 C 566.7625,52.634021 559.45056,45.057086 554.50124,39.714249 549.55192,34.371412 545.16442,30 544.75124,30 544.33806,30 544,32.234274 544,34.965053 c 0,2.730779 -0.63116,6.893279 -1.40257,9.25 -0.77142,2.356721 -2.42278,7.590873 -3.6697,11.63145 -1.24692,4.040577 -2.93667,7.603434 -3.75501,7.917459 C 533.38672,64.449317 529,59.698637 529,57.079095 c 0,-0.995158 -0.90607,-2.961263 -2.0135,-4.369124 -2.09944,-2.669005 -6.00491,-20.361704 -6.31879,-28.625556 -0.0922,-2.428572 -0.69003,-4.59018 -1.32843,-4.803573 -0.63839,-0.213393 -2.56641,0.98612 -4.28448,2.665585 C 513.33674,23.625892 511.45504,25 510.87325,25 c -0.58178,0 -2.20196,0.9 -3.60038,2 -5.66005,4.452193 -22.27613,1.332131 -29.26865,-5.495879 C 476.03052,19.576854 474.07751,18 473.66419,18 c -0.41331,0 -1.96934,1.156215 -3.45783,2.569366 C 463.13242,27.285231 453.24795,29.672854 445.65424,26.5 443.67974,25.675 441.59978,25 441.03212,25 440.41035,25 440,28.118429 440,32.84345 c 0,5.018074 -0.66663,9.791002 -1.85061,13.25 -1.01784,2.973602 -2.15475,7.048833 -2.52647,9.056067 -0.37171,2.007234 -1.33894,4.199835 -2.14938,4.872445 -2.75282,2.284633 -1.83173,8.985273 1.99176,14.489475 3.95923,5.699606 4.58297,6.917611 7.41967,14.488563 1.67035,4.458063 1.96686,7.015545 1.56516,13.5 -0.27258,4.4 -0.69164,8.90374 -0.93125,10.00831 -0.71917,3.31523 0.65172,4.15738 7.83216,4.81135 3.76808,0.34318 8.26808,1.06647 10,1.60732 10.89254,3.40155 14.21979,4.07302 20.18249,4.07302 4.88945,0 7.36273,-0.49651 9.3121,-1.86942 8.99562,-6.33542 19.46555,-8.56981 26.46079,-5.64702 1.99614,0.83404 3.77365,1.51644 3.95003,1.51644 0.17637,0 0.32597,-4.8375 0.33243,-10.75 0.0122,-11.168594 1.41871,-17.289971 5.4841,-23.868034 C 528.13284,80.667047 529,78.241336 529,76.991497 c 0,-1.249839 0.97976,-4.234224 2.17726,-6.631966 2.8727,-5.752027 5.4553,-5.773314 6.35704,-0.0524 0.74595,4.732533 2.32642,9.415183 4.83932,14.338093 1.44451,2.829875 2.62638,5.777375 2.62638,6.55 0,0.772625 0.53211,1.936879 1.18246,2.58723 0.76805,0.768055 1.14558,4.693192 1.07722,11.200003 L 547.15445,115 h 4.29705 c 4.72727,0 9.23915,1.38616 17.48565,5.37201 2.99044,1.4454 6.14044,2.64394 7,2.66343 0.85957,0.0195 2.68785,0.70242 4.06285,1.51763 3.57271,2.11818 11.15459,1.03816 18.81969,-2.68081 z M 478,84.33343 c -2.49708,-0.723434 -4.99118,-4.98991 -5.62646,-9.624785 -0.54227,-3.956317 -0.27615,-4.749974 2.74739,-8.193598 C 478.07055,63.155621 483.25025,60 485.81487,60 c 1.04919,0 5.66093,3.882853 5.74159,4.834119 0.031,0.366235 0.44932,2.240881 0.92949,4.165881 1.16333,4.663777 0.72798,7.853259 -1.58828,11.636325 C 488.50125,84.550314 483.59902,85.955533 478,84.33343 Z M 114.74732,122.47617 C 118.19924,120.75412 121,114.96883 121,109.56053 c 0,-7.50032 -6.01636,-24.367034 -8.51149,-23.861753 -0.53987,0.109327 -1.33606,1.909327 -1.7693,4 -0.43325,2.090673 -1.6887,5.664659 -2.78989,7.942193 -3.23291,6.68643 -2.51249,17.76767 1.55912,23.98172 1.84513,2.81604 1.45255,2.75233 5.25888,0.85348 z M 221.20622,121.25 c 6.11451,-7.05738 8.31331,-15.81384 5.38187,-21.43264 -0.76977,-1.475452 -1.69035,-4.00644 -2.04571,-5.624418 -0.35537,-1.617978 -1.67172,-3.905273 -2.92522,-5.082878 -2.16856,-2.037253 -2.35412,-2.05547 -3.8258,-0.375582 -0.85069,0.971035 -1.87031,4.009589 -2.26582,6.752343 -0.39551,2.742755 -1.39256,6.289125 -2.21566,7.880825 -1.54646,2.99052 -1.51837,3.23986 1.78929,15.88235 1.09169,4.17263 3.53222,4.97188 6.10705,2 z m 213.36826,-0.0153 c 1.93372,-1.3222 4.66514,-16.85698 3.91847,-22.285985 -0.68634,-4.990227 -5.77578,-16.863609 -7.7611,-18.106185 C 428.89564,79.693265 427,81.129055 427,83.669091 c 0,1.350313 -0.71212,4.632299 -1.58249,7.293302 -1.78912,5.469906 -1.51868,16.579307 0.58515,24.037607 0.69814,2.475 1.41902,5.0625 1.60196,5.75 0.35891,1.34884 5.21242,1.68635 6.96986,0.48469 z m 104.31347,-3.75473 c 2.18959,-3.2151 2.3465,-4.23347 1.88889,-12.25925 C 540.2528,96.02989 535.83494,82 533.46488,82 c -1.76214,0 -5.49255,15.636985 -5.48696,23 0.004,4.6508 0.64353,7.85134 2.24959,11.25 2.77272,5.86746 5.26144,6.22091 8.66044,1.22996 z M 222.5027,51.583333 C 223.35669,48.7875 224.46408,45.15 224.96355,43.5 c 3.54686,-11.716945 3.72872,-25.972579 0.37856,-29.674467 -2.31957,-2.5631 -2.91724,-2.366952 -7.38742,2.424467 -6.74728,7.232163 -7.31146,13.938522 -2.39069,28.417972 1.3398,3.942384 2.436,8.254884 2.436,9.583333 0,4.414468 2.85631,2.722025 4.5027,-2.667972 z m 209.02006,-1.507066 c 0.30151,-1.966947 0.98223,-6.013819 1.51272,-8.993048 1.63722,-9.194695 1.19939,-16.787697 -1.27963,-22.191439 -1.60008,-3.487851 -2.81982,-4.890704 -4.25,-4.888032 -4.38928,0.0082 -8.37724,18.486378 -5.0232,23.274941 0.83454,1.191478 1.5333,3.303696 1.55279,4.693817 0.0195,1.390122 0.67854,3.652494 1.46456,5.027494 0.78602,1.375 1.44508,3.8875 1.46456,5.583333 0.0195,1.695834 0.36059,3.408482 0.75799,3.805885 1.11388,1.11388 3.19058,-2.335967 3.80021,-6.312951 z m -105.63759,5.015864 c 2.63327,-1.667679 6.21545,-18.603611 5.90139,-27.900737 -0.26653,-7.889862 -0.47482,-8.62325 -2.97932,-10.489687 -2.56641,-1.912577 -2.81484,-1.926744 -5.29463,-0.301923 -1.43104,0.937647 -3.0791,2.918779 -3.66237,4.402515 -1.29018,3.281968 -0.51614,25.055236 0.98826,27.799392 0.57238,1.04407 1.30145,3.135809 1.62015,4.648309 0.61605,2.923695 1.21245,3.244325 3.42652,1.842131 z M 115.27838,49.217833 C 115.55114,47.723025 116.7611,44.025 117.96717,41 c 2.99085,-7.501444 2.94842,-17.782479 -0.0937,-22.704733 -2.05304,-3.321881 -2.37854,-3.470119 -6.25775,-2.849808 -4.38951,0.70191 -5.40862,1.819848 -7.34248,8.054541 -1.61101,5.193862 -0.81901,9.436486 3.33862,17.884357 1.86348,3.786396 3.38814,7.873896 3.38814,9.083333 0,4.683555 3.37563,3.697421 4.27838,-1.249857 z M 537.02546,41 c 2.70061,-13.651292 2.23728,-18.638648 -2.113,-22.744606 C 533.31061,16.7435 532,14.942534 532,14.253247 532,13.563961 531.325,13 530.5,13 c -0.825,0 -1.8375,-0.1125 -2.25,-0.25 -1.90039,-0.633463 -1.91713,10.161154 -0.0299,19.25 1.08495,5.225 2.2108,10.85 2.50189,12.5 1.40249,7.949982 4.36356,6.305838 6.30343,-3.5 z M 15.494949,42.770853 C 15.909328,39.871884 16.304982,33.9 16.374182,29.5 c 0.119581,-7.603407 0.0131,-8.015995 -2.147831,-8.32265 -2.241984,-0.318157 -2.271348,-0.185626 -2.10837,9.516083 0.0909,5.411303 -0.148384,10.826997 -0.53175,12.034877 -0.748165,2.35726 0.977474,6.659369 2.334709,5.820552 0.451327,-0.278936 1.159631,-2.879039 1.574009,-5.778009 z M 197.5,23 c 0.33992,-0.55 1.82898,-1.002965 3.30902,-1.006589 1.48004,-0.0036 3.90621,-0.808009 5.39149,-1.787522 C 208.87858,18.439751 214,11.743396 214,10.0079 214,9.5065518 208.04848,9.18195 200.6249,9.278409 191.03678,9.402993 186.81493,9.0912964 185.71392,8.1775415 184.67889,7.3185374 183.96673,7.2448084 183.53001,7.9514417 183.17359,8.5281488 180.40053,9 177.36766,9 c -4.71287,0 -5.46555,0.2543424 -5.1788,1.75 0.18452,0.9625 1.75811,2.211616 3.49686,2.775813 1.73874,0.564198 3.98326,1.693074 4.98782,2.508615 1.00455,0.81554 3.62646,2.307182 5.82646,3.314759 2.2,1.007576 5.125,2.425058 6.5,3.149959 3.16525,1.668724 3.73877,1.732556 4.5,0.500854 z m -106,-4.348554 c 1.65,-0.901518 3.801623,-1.641897 4.781385,-1.645285 0.979761,-0.0034 2.040406,-0.681161 2.356989,-1.506161 0.316582,-0.825 1.427456,-1.5 2.468616,-1.5 1.91884,0 2.63164,-2.425466 1.00775,-3.429086 C 101.62785,10.269998 93.722841,9.9279381 84.548056,9.8107804 71.383386,9.6426738 67.689373,9.8845712 67.025834,10.958199 65.820305,12.908787 66.897087,15 69.106989,15 70.148145,15 71,15.443521 71,15.985602 c 0,0.542081 2.032649,1.497429 4.516998,2.122995 2.484349,0.625566 4.73203,1.485323 4.994847,1.910569 0.781864,1.265082 7.758968,0.396627 10.988155,-1.36772 z m 369.05525,0.726909 C 464.37793,17.98601 469.95767,13.469143 469.97865,11.75 469.99816,10.151123 468.53194,10 453,10 437.78131,10 436,10.17512 436,11.671259 436,13.686174 438.82692,17 440.54578,17 c 0.6797,0 3.19745,0.89499 5.59502,1.988868 4.27592,1.950871 9.72354,2.098069 14.41445,0.389487 z m 44.20832,0.751675 c 0.95504,-0.478483 3.87393,-1.822634 6.48643,-2.987003 6.82654,-3.042531 6.21587,-4.738878 -2,-5.555649 -3.7125,-0.369074 -8.28326,-0.91539 -10.15724,-1.214036 -1.87399,-0.298646 -4.38385,-0.02033 -5.57748,0.618483 -1.53087,0.819292 -3.68661,0.885867 -7.31725,0.225977 -2.83085,-0.514524 -5.38348,-0.699016 -5.67252,-0.409983 -1.23367,1.233675 -0.39253,5.306129 1.22449,5.928472 9.00628,3.466239 19.71644,5.045633 23.01357,3.393739 z M 362.77353,17.121205 C 363.99809,16.46584 365,15.547949 365,15.081448 c 0,-0.466502 0.9,-1.083541 2,-1.371197 1.1,-0.287656 2,-1.240141 2,-2.116631 0,-2.3582308 -30.09007,-2.3949398 -32.04525,-0.03909 -2.35603,2.838837 2.00376,5.791468 10.31128,6.983234 7.41197,1.063295 11.58635,0.68198 15.5075,-1.416554 z m 52.11075,-0.812792 c 7.3506,-5.065815 5.76168,-5.773943 -13.64709,-6.082027 -13.44947,-0.21349 -17.23028,0.0063 -17.20577,1 0.0907,3.676076 14.31073,9.018486 22.12319,8.311598 2.93817,-0.265852 6.15732,-1.456786 8.72967,-3.229571 z M 42.5,15.995371 c 1.1,-0.467021 3.35,-1.257033 5,-1.755583 1.974567,-0.596618 3,-1.561593 3,-2.823121 0,-1.802311 -0.887304,-1.9175428 -14.871686,-1.9313456 -11.936436,-0.011781 -14.979268,0.2656753 -15.416759,1.4057576 -0.737786,1.92264 3.392094,5.105336 6.649229,5.124234 1.451569,0.0084 3.314216,0.444156 4.139216,0.968298 1.583515,1.006046 8.127225,0.443719 11.5,-0.98824 z M 151,14.192042 c 3.025,-1.480623 5.62309,-2.740134 5.77354,-2.798914 0.15044,-0.05878 0.0337,-0.733779 -0.25947,-1.4999999 -0.43204,-1.1292361 -3.60935,-1.3362891 -16.77353,-1.093066 -8.9323,0.1650342 -16.64897,0.7084625 -17.14816,1.2076179 -1.54968,1.549579 1.29562,3.819127 6.74138,5.377246 10.39964,2.975499 13.49857,2.80488 21.66624,-1.192884 z m 104.30852,1.460824 c 2.4279,-1.290923 5.37671,-2.598794 6.55292,-2.90638 C 263.03765,12.4389 264,11.498725 264,10.657207 c 0,-1.3145861 -2.14547,-1.5037826 -15.23653,-1.3436193 -13.21262,0.1616507 -15.27831,0.4035104 -15.55106,1.8207883 -0.19572,1.017019 0.74353,2.067498 2.48653,2.781011 1.54058,0.630649 3.92606,1.801045 5.30106,2.600882 3.67727,2.139065 9.29974,1.799795 14.30852,-0.863403 z m 47.24669,-0.994701 c 3.81964,-1.28801 7.06846,-2.97551 7.21961,-3.75 0.22597,-1.1579028 -2.73807,-1.4563445 -16.67795,-1.6792593 -11.1944,-0.1790114 -17.17631,0.090621 -17.61091,0.7938053 -0.95186,1.540146 1.40287,3.971359 3.88648,4.012724 1.17016,0.01949 3.25256,0.678544 4.62756,1.464565 3.70434,2.117592 10.72329,1.799148 18.55521,-0.841835 z M 38.729167,5.3958333 C 38.396875,5.0635417 37.534375,5.0280154 36.8125,5.316886 c -0.797733,0.3192263 -0.560776,0.5561827 0.604167,0.6041666 1.054166,0.043421 1.644791,-0.1929276 1.3125,-0.5252193 z"
       id="path1" />
  </g>
</svg>
