<?xml version="1.0" encoding="UTF-8" standalone="no"?>
<!-- Created with Inkscape (http://www.inkscape.org/) -->

<svg
   version="1.1"
   id="svg1"
   width="728"
   height="509"
   viewBox="0 0 728 509"
   sodipodi:docname="3.svg"
   inkscape:version="1.4 (86a8ad7, 2024-10-11)"
   xmlns:inkscape="http://www.inkscape.org/namespaces/inkscape"
   xmlns:sodipodi="http://sodipodi.sourceforge.net/DTD/sodipodi-0.dtd"
   xmlns="http://www.w3.org/2000/svg"
   xmlns:svg="http://www.w3.org/2000/svg">
  <defs
     id="defs1" />
  <sodipodi:namedview
     id="namedview1"
     pagecolor="#ffffff"
     bordercolor="#000000"
     borderopacity="0.25"
     inkscape:showpageshadow="2"
     inkscape:pageopacity="0.0"
     inkscape:pagecheckerboard="0"
     inkscape:deskcolor="#d1d1d1"
     inkscape:zoom="1.5618861"
     inkscape:cx="364.30314"
     inkscape:cy="254.5"
     inkscape:window-width="1920"
     inkscape:window-height="1013"
     inkscape:window-x="2391"
     inkscape:window-y="605"
     inkscape:window-maximized="1"
     inkscape:current-layer="g1" />
  <g
     inkscape:groupmode="layer"
     inkscape:label="Image"
     id="g1">
    <path
       style="fill:#000000"
       d="m 537.21057,507.46196 c -1.20669,-1.36816 -4.29679,-1.8383 -10.21057,-1.55348 -1.375,0.0662 -4.87614,-0.27105 -7.78032,-0.74949 -2.92148,-0.48129 -5.5165,-0.48774 -5.80902,-0.0144 -0.77934,1.261 -12.82465,1.04146 -14.12353,-0.25742 -0.62299,-0.62299 -1.68672,-0.7582 -2.41651,-0.30717 -0.717,0.44313 -7.61871,0.94734 -15.33713,1.12046 -7.71842,0.17312 -21.23349,0.4801 -30.03349,0.68217 -8.8,0.20208 -16.7609,0.6866 -17.69089,1.07672 -0.92998,0.39011 -4.75498,0.41625 -8.5,0.0581 -3.74501,-0.35817 -7.70911,-0.64239 -8.80911,-0.63159 -26.07432,0.25602 -28.72286,0.17414 -30.05216,-0.92908 -1.13304,-0.94034 -1.79224,-0.91578 -3.03181,0.11298 -1.23524,1.02515 -8.33549,1.30554 -32.25,1.27352 -16.86632,-0.0226 -39.44103,0.003 -50.16603,0.0579 -38.18645,0.19371 -144.74084,-0.46073 -159,-0.97656 -7.975,-0.2885 -14.95,-0.46754 -15.5,-0.39787 -0.55,0.0697 -4.49993,0.25461 -8.77763,0.41097 -4.27769,0.15637 -8.06618,0.57285 -8.41885,0.92552 -0.35267,0.35267 -1.35274,0.003 -2.22237,-0.77625 -1.3114,-1.17565 -2.19663,-1.20448 -5.18885,-0.16894 -2.426189,0.83964 -5.654101,1.00725 -9.856259,0.51177 -3.436703,-0.40522 -9.284788,-0.51582 -12.995745,-0.24577 -3.710957,0.27004 -8.470755,0.0151 -10.57733,-0.56656 -2.106575,-0.58166 -4.310022,-0.72247 -4.896551,-0.31293 -1.366432,0.95411 -14.888423,0.7326 -16.511447,-0.27049 -0.676078,-0.41784 -1.730023,-0.25891 -2.3421,0.35316 -1.30311,1.30311 -7.355259,1.50051 -8.118962,0.26481 -0.599458,-0.96994 -6.764904,-0.78233 -8.446622,0.25703 -0.615893,0.38065 -5.738487,0.40805 -11.383544,0.0609 C 6.0346954,505.81007 3,504.56988 3,500.84501 3,499.83026 2.325,499 1.5,499 0.22586274,499 0,496.45633 0,482.10699 c 0,-14.09352 0.24857841,-16.9884 1.5,-17.46862 2.0637654,-0.79194 2.0637654,-8.4848 0,-9.27674 C -0.15983548,454.72469 -0.58681929,451 1,451 c 0.55,0 1,-0.9 1,-2 0,-1.1 -0.45,-2 -1,-2 -0.63414634,0 -1,-7.5 -1,-20.5 0,-13 0.36585366,-20.5 1,-20.5 0.55,0 1,-2.025 1,-4.5 0,-2.475 -0.45,-4.5 -1,-4.5 -0.55,0 -1,-2.475 -1,-5.5 0,-3.20587 0.44192728,-5.5 1.0594857,-5.5 0.7344886,0 1.0504408,-18.3283 1.0299994,-59.75 -0.016218,-32.8625 0.00928,-62 0.056651,-64.75 0.047376,-2.75 0.081605,-27.05 0.076064,-54 C 2.2166602,180.55 2.4353669,143.425 2.7082153,125 3.2380839,89.218842 3.2364982,89.508806 3.0144569,69 2.890784,57.57697 3.6115256,19.784913 4.0443042,15 4.4181565,10.866591 6.3039828,7.251648 8.8803693,5.7297391 11.205481,4.356262 15.205274,3.9564844 30.122425,3.6066044 40.230091,3.3695303 49.5125,3.1360594 50.75,3.0877803 52.04432,3.0372844 53,2.3628799 53,1.5 c 0,-2.00711365 3.765524,-1.93053459 4.176676,0.084941 0.291585,1.4293553 6.458623,1.5611766 62.823324,1.3428571 104.22048,-0.403681 120.51261,-0.416186 174,-0.133554 28.325,0.1496717 57.8,0.2120448 65.5,0.1386067 37.25049,-0.3552731 66.68287,0.094651 68.46151,1.0465497 1.27707,0.6834704 2.12401,0.6912506 2.53682,0.023304 0.80802,-1.3074128 15.19532,-1.3074128 16.00334,0 0.41035,0.663958 1.29425,0.6416986 2.61639,-0.065889 1.68353,-0.9009954 26.55832,-1.1501686 59.38194,-0.5948348 2.2,0.037221 6.925,-0.040219 10.5,-0.1720883 3.575,-0.1318698 7.85,-0.069478 9.5,0.1386484 1.65,0.2081264 5.17963,0.4488473 7.84362,0.5349354 3.8709,0.1250899 4.94514,0.5447398 5.34914,2.089626 0.27803,1.0632063 1.95505,2.6209529 3.72671,3.4616593 1.77166,0.8407065 6.08963,4.8083105 9.5955,8.8168975 3.50587,4.008588 9.54923,10.48115 13.42967,14.383472 C 572.32509,36.497453 580.225,44.783659 586,51.00892 602.81312,69.13291 605.92589,72.403227 626.74613,93.817217 637.61076,104.99169 649.425,117.72124 653,122.10512 c 3.575,4.38387 9.82243,11.44112 13.88317,15.68278 4.06074,4.24165 8.43577,9.0621 9.72229,10.7121 1.28652,1.65 9.13999,9.96702 17.45217,18.48227 16.90719,17.32026 21.65313,23.23711 22.58333,28.15507 0.34982,1.84946 1.19365,4.48766 1.87519,5.86266 3.26325,6.5836 5.44294,14.17448 6.03004,21 0.35482,4.125 1.18331,9.75 1.84109,12.5 1.46527,6.12588 1.43102,22.78981 -0.0507,24.64627 -0.59424,0.74455 -1.38874,4.60019 -1.76557,8.56808 -1.23135,12.96584 -7.55146,31.3014 -11.66582,33.84421 -0.49788,0.30771 -0.90524,1.37012 -0.90524,2.36091 0,0.99079 -1.125,3.45922 -2.5,5.48539 -1.375,2.02618 -2.5,4.49151 -2.5,5.47852 0,1.89892 -3.17802,6.61883 -9.0681,13.4677 -1.96246,2.28191 -4.5451,5.56156 -5.7392,7.28811 -1.19409,1.72656 -3.63845,4.68068 -5.43189,6.56472 -1.79345,1.88403 -5.22994,5.5339 -7.63664,8.1108 -2.40671,2.57691 -4.76921,4.68529 -5.25,4.68529 -0.4808,0 -0.87417,0.48002 -0.87417,1.06672 0,1.8965 -5.11904,7.84373 -8.60685,9.99932 -1.86623,1.15339 -3.39315,2.73156 -3.39315,3.50705 0,0.77548 -0.92576,1.97628 -2.05724,2.66844 -1.13148,0.69216 -2.74914,2.70281 -3.59479,4.46811 -0.84565,1.7653 -4.98239,6.81281 -9.19276,11.21669 C 628.54293,406.34809 625,410.27919 625,411.39929 c 0,0.6486 -2.925,4.03471 -6.5,7.5247 -3.575,3.48999 -6.5,6.90511 -6.5,7.58916 0,0.68404 -3.7125,5.12713 -8.25,9.87352 -4.5375,4.7464 -10.05,10.73162 -12.25,13.3005 -2.2,2.56888 -5.9364,6.72767 -8.30311,9.24176 -2.36671,2.51409 -5.94667,6.70857 -7.95548,9.32107 -2.00881,2.6125 -4.00427,4.75 -4.43435,4.75 -0.43008,0 -1.88067,1.6875 -3.22353,3.75 -1.34285,2.0625 -8.09423,9.76237 -15.00306,17.11083 -6.90883,7.34845 -12.31422,13.76095 -12.01198,14.25 0.91388,1.47868 -1.97356,0.92073 -3.35792,-0.64887 z m -162.76544,-7.37317 c 0.31822,-0.51489 10.13002,-0.81294 22.55901,-0.68525 C 410.08183,499.53788 419,499.25189 419,498.69817 c 0,-0.51223 1.2375,-0.65384 2.75,-0.31469 3.34544,0.75014 25.23661,0.75798 63.25,0.0226 54.78025,-1.05968 55.77725,-1.12791 57.30213,-3.92165 2.08715,-3.82389 17.81616,-20.91735 25.38236,-27.5842 2.16578,-1.90834 3.84214,-4.0132 7.70151,-9.6701 1.5873,-2.3266 3.2381,-4.23018 3.66844,-4.23018 0.43034,0 1.76029,-1.58218 2.95543,-3.51597 1.19514,-1.93378 3.32722,-4.12073 4.73795,-4.85988 1.41073,-0.73916 3.73209,-2.95185 5.15857,-4.91708 1.42649,-1.96524 4.96768,-6.41579 7.86931,-9.89011 2.90164,-3.47433 5.60164,-6.77647 6,-7.3381 0.39837,-0.56162 6.0221,-6.86162 12.49719,-14 6.47509,-7.13837 12.77509,-14.14613 14,-15.57279 1.22491,-1.42667 4.057,-4.57667 6.29353,-7 2.23654,-2.42334 4.82215,-5.53107 5.74582,-6.90607 0.92367,-1.375 6.18035,-7.20514 11.68153,-12.95587 5.50118,-5.75073 10.23552,-11.19118 10.52075,-12.08989 0.28524,-0.89871 1.52366,-2.1786 2.75205,-2.84419 1.22839,-0.6656 3.55358,-3.10015 5.16711,-5.41012 3.06316,-4.38531 9.32198,-11.16762 18.45071,-19.99392 3.49773,-3.38185 6.42376,-7.48358 8.35065,-11.70601 1.63145,-3.575 5.41123,-11.58078 8.39952,-17.79063 2.98829,-6.20985 5.19598,-11.67454 4.90599,-12.14377 -0.29,-0.46922 0.0948,-2.36344 0.85514,-4.20937 0.76033,-1.84592 1.70773,-5.83123 2.10533,-8.85623 0.39761,-3.025 1.06925,-5.95 1.49254,-6.5 0.6312,-0.82014 1.2312,-5.11996 2.09311,-15 0.25246,-2.89391 -1.46517,-20.14372 -2.09105,-21 -0.40201,-0.55 -1.04176,-4.57033 -1.42166,-8.93406 -0.49149,-5.64563 -1.56599,-9.82786 -3.72534,-14.5 -1.66904,-3.61127 -4.15874,-8.9838 -5.53268,-11.93897 C 706.02218,188.19338 693.04232,174 690.82431,174 690.37094,174 690,173.51986 690,172.93302 c 0,-1.27529 -7.83697,-10.39089 -17.5,-20.35519 -3.85,-3.97004 -9.925,-10.49793 -13.5,-14.50642 -3.575,-4.0085 -16.13697,-17.02691 -27.91548,-28.92979 C 619.30601,97.238727 608.1281,85.7 606.24472,83.5 600.80642,77.147429 564.03163,40.159818 559.29465,36.278221 556.93259,34.342691 555,32.385523 555,31.928959 555,30.048494 541.13378,17 539.13547,17 c -1.4032,0 -2.30504,-0.827427 -2.72483,-2.5 -0.53376,-2.126672 -1.24592,-2.523329 -4.76905,-2.656225 C 529.36372,11.757852 526.375,11.576633 525,11.441067 523.625,11.305502 517.1,11.097787 510.5,10.97948 503.9,10.861173 497.77167,10.383224 496.88148,9.9173716 495.9913,9.4515193 495.02026,9.3130719 494.72362,9.6097106 494.23784,10.09549 444.14057,11.292237 436.25,11.006556 c -1.7875,-0.06472 -4.7125,-0.112128 -6.5,-0.105359 -19.54278,0.07401 -47.37252,0.06755 -51.75,-0.01203 -3.025,-0.05499 -38.8,0.02564 -79.5,0.179165 -40.7,0.153528 -80.075,0.247938 -87.5,0.209801 -63.07313,-0.323961 -88.52055,-0.09101 -89.61873,0.820399 -0.82681,0.686191 -2.47997,0.693671 -5.05494,0.02287 C 114.22185,11.573173 110.475,11.316583 108,11.551206 c -6.7587,0.640704 -17.070418,0.71171 -17.66052,0.121608 -0.286164,-0.286165 -2.354645,0.126895 -4.596624,0.917912 -2.241978,0.791016 -5.013794,1.136881 -6.15959,0.76859 -3.614227,-1.161716 -58.4087,-0.572032 -62.169211,0.669048 -1.886175,0.622494 -3.94294,2.09135 -4.57059,3.264125 -0.781289,1.459852 -1.055042,9.082285 -0.868039,24.169915 C 12.125655,53.583082 12.199449,65.075 12.139413,67 c -0.06003,1.925 -0.313338,17.9 -0.562895,35.5 -0.249557,17.6 -0.7265,39.65 -1.059872,49 -0.6223463,17.45476 -2.0373243,255.64648 -1.6306675,274.5 0.1245625,5.775 0.2000743,11.85 0.1678039,13.5 -0.570539,29.17192 0.067532,56.45148 1.3397756,57.27971 1.312411,0.85438 6.997575,1.3566 14.606442,1.29032 92.86346,-0.80893 180.68404,-0.46832 195,0.75631 13.48659,1.15367 19.42209,1.1935 32.5,0.21805 8.8,-0.65637 22.525,-0.93698 30.5,-0.62358 7.975,0.3134 29.8,0.57801 48.5,0.58801 18.7,0.01 35.35,0.42343 37,0.91873 4.02896,1.20942 5.27641,1.24325 5.94513,0.16124 z M 312.79582,372.25 c -1.98294,-2.2918 -9.36851,-17.923 -10.24148,-21.67559 -1.02195,-4.393 -9.33285,-21.02069 -12.4962,-25.00125 -3.23157,-4.0664 -9.07266,-22.88439 -9.06388,-29.20072 0.003,-2.27015 -0.55676,-4.57167 -1.24426,-5.11449 -0.6875,-0.54282 -3.8244,-1.23905 -6.97088,-1.54719 -3.14648,-0.30813 -7.19648,-1.00203 -9,-1.54199 C 261.9756,287.62881 257.125,286.43379 253,285.51318 242.36924,283.14063 239.73761,281.84486 223.67737,271.07514 210.20457,262.04051 204.7549,259 202.03445,259 198.35054,259 194,255.47124 194,252.48318 c 0,-1.30441 1.0125,-3.45859 2.25,-4.78708 2.37846,-2.55332 9.58763,-5.07937 11.93044,-4.18035 0.76438,0.29332 2.36767,-0.37773 3.56286,-1.49122 1.19519,-1.11349 3.00894,-2.02453 4.03055,-2.02453 2.13787,0 14.91685,-6.38503 20.52534,-10.25551 2.08955,-1.44202 5.46455,-3.15634 7.5,-3.8096 2.03545,-0.65326 4.37581,-1.71974 5.20081,-2.36995 2.86862,-2.26087 20.99684,-8.73702 26.57638,-9.49418 6.24849,-0.84794 7.38597,-1.94127 7.40831,-7.12076 0.008,-1.9525 0.41951,-3.9775 0.91354,-4.5 1.90378,-2.01351 9.06501,-21.80862 9.08722,-25.11896 0.008,-1.19293 0.76569,-3.66793 1.68375,-5.5 3.08481,-6.15602 3.3308,-6.79727 3.3308,-8.68261 0,-1.03329 0.90313,-3.02686 2.00696,-4.43015 1.60852,-2.0449 1.81094,-3.06703 1.01959,-5.14844 -0.75935,-1.99725 -0.54296,-3.57533 0.937,-6.83341 1.0584,-2.33004 2.16525,-5.36143 2.45967,-6.73643 1.00251,-4.68189 4.37233,-9 7.02354,-9 2.68209,0 2.83028,0.34989 6.04324,14.26899 0.85937,3.72294 2.449,8.22294 3.53251,10 1.08351,1.77705 1.9717,4.22371 1.97375,5.437 0.002,1.2133 1.35374,4.4956 3.00374,7.29401 1.65,2.79841 3,5.63215 3,6.2972 0,0.66506 1.53594,3.36953 3.4132,6.00993 1.87726,2.6404 3.96119,7.13897 4.63096,9.9968 0.66976,2.85784 1.65248,5.74478 2.18381,6.41542 0.53133,0.67065 1.09319,4.38422 1.24858,8.25239 0.15539,3.86817 0.84183,7.70696 1.52543,8.53065 0.77325,0.93171 2.99152,1.5017 5.87046,1.50843 4.96266,0.0116 11.77342,1.80745 16.62756,4.38429 1.65,0.87591 3.9225,1.59534 5.05,1.59873 1.1275,0.003 2.4775,0.42026 3,0.92638 1.50423,1.45707 12.75987,7.07978 14.17243,7.07978 0.70266,0 1.27757,0.4753 1.27757,1.05623 0,0.58093 1.9125,1.96884 4.25,3.08426 7.8288,3.73577 10.23686,5.1064 12.3693,7.04045 1.16562,1.05716 3.38514,2.26066 4.93227,2.67442 1.54714,0.41377 3.70911,1.95258 4.80438,3.41958 1.66716,2.23297 1.80379,3.07904 0.83917,5.19617 C 414.56139,252.862 413.43923,254 412.70144,254 c -0.73779,0 -3.10994,1.48356 -5.27144,3.2968 C 403.33121,260.73519 386.61066,271 385.10858,271 c -0.47503,0 -1.44149,0.69621 -2.1477,1.54714 -0.70621,0.85092 -3.57381,2.62152 -6.37245,3.93465 -11.095,5.20582 -15.6102,6.51821 -22.42545,6.51821 -7.59928,0 -9.30835,1.02316 -8.49576,5.08611 1.07369,5.36845 -2.02075,18.8821 -6.79013,29.65299 C 337.84469,320.07061 337,322.23694 337,322.55318 337,324.13285 331.9008,334 331.08445,334 c -0.51846,0 -1.47509,2.56473 -2.12585,5.69941 -1.42838,6.88047 -2.51225,9.51415 -6.16525,14.98077 -2.06132,3.08471 -2.79335,5.4028 -2.79335,8.84562 0,3.11375 -0.68784,5.63144 -2.06809,7.56983 -2.40552,3.37823 -3.08065,3.52997 -5.13609,1.15437 z M 316,352.85499 c -0.275,-0.35476 0.2305,-1.47976 1.12334,-2.5 0.89283,-1.02025 1.92259,-3.52576 2.28834,-5.56782 0.36575,-2.04206 3.07196,-8.38612 6.0138,-14.09792 2.94184,-5.7118 5.67655,-11.91602 6.07713,-13.78717 0.40059,-1.87114 1.09984,-3.86622 1.5539,-4.4335 1.59531,-1.99309 5.94332,-18.73805 5.92818,-22.83045 -0.0199,-5.3712 -0.67461,-6.21095 -5.48469,-7.03451 -6.01987,-1.0307 -9.3697,-2.53835 -16.33717,-7.35285 -5.51962,-3.81403 -6.56687,-4.20943 -8.1177,-3.06486 -0.9793,0.72275 -5.27616,4.12659 -9.54859,7.56409 -4.27242,3.4375 -8.55881,6.25 -9.5253,6.25 -3.4942,0 -3.4848,6.26569 0.0255,17 0.98923,3.025 2.05813,6.96117 2.37533,8.74704 0.31721,1.78588 2.38825,5.53878 4.60233,8.3398 2.21407,2.80102 4.02559,5.63648 4.02559,6.30102 0,0.66455 1.8,4.88057 4,9.36893 2.81345,5.7399 4,9.45833 4,12.53526 0,2.40604 0.32133,4.69594 0.71406,5.08868 0.88062,0.88061 6.98063,0.37043 6.28594,-0.52574 z m -36.25138,-79.74663 c 1.55404,-8.51126 5.89331,-14.86471 12.42976,-18.19936 4.41789,-2.25384 4.8033,-3.58527 1.41117,-4.87495 -5.13126,-1.9509 -9.27214,-9.57079 -11.43054,-21.03405 -0.36246,-1.925 -1.16801,-4.36096 -1.79012,-5.41325 -1.01444,-1.7159 -1.58176,-1.79824 -5.5,-0.79834 -2.40289,0.6132 -6.46959,1.38372 -9.03712,1.71226 -2.56753,0.32854 -5.21013,1.2503 -5.87245,2.04834 -0.66231,0.79804 -1.95163,1.45099 -2.86515,1.45099 -0.91351,0 -4.57091,1.56462 -8.12755,3.47692 -3.55664,1.91231 -9.39162,4.97021 -12.96662,6.79533 -3.575,1.82511 -8.3,4.51802 -10.5,5.98424 -2.2,1.46621 -6.475,3.29715 -9.5,4.06874 -7.4912,1.91081 -7.32064,3.90046 0.70021,8.16846 3.41012,1.81457 7.67578,4.35831 9.47925,5.65276 1.80348,1.29445 4.04286,2.80355 4.9764,3.35355 0.93354,0.55 3.86787,2.28808 6.52074,3.8624 2.65287,1.57432 7.4945,3.5011 10.75917,4.28173 3.26467,0.78063 6.41467,1.81482 7,2.2982 0.58533,0.48337 4.65119,1.61856 9.03526,2.52263 4.38407,0.90407 8.19223,1.86496 8.46258,2.13531 0.27035,0.27035 1.61066,0.35839 2.97847,0.19564 2.25345,-0.26813 2.61364,-0.98987 3.83654,-7.68755 z m 16.34441,2.03098 c 2.09488,-1.45164 4.3067,-3.76434 4.91516,-5.13934 0.60846,-1.375 1.96061,-4.0377 3.00479,-5.91711 2.21183,-3.98107 1.96716,-4.7087 -1.86637,-5.55069 -3.57669,-0.78557 -10.30882,3.38267 -13.09775,8.10956 -2.30605,3.90846 -4.19602,10.31111 -3.41617,11.57294 0.87349,1.41333 6.27396,-0.17442 10.46034,-3.07536 z M 363,273.62616 c 9.1076,-1.62591 16.67285,-4.60732 18.23723,-7.18716 0.40547,-0.66868 1.8654,-1.49893 3.24427,-1.845 1.37888,-0.34608 5.32213,-2.49977 8.76277,-4.78598 3.44065,-2.28621 7.91352,-5.2439 9.93971,-6.57263 3.72732,-2.44431 4.23468,-5.23539 0.95167,-5.23539 -2.14443,0 -17.86219,-7.83979 -21.55235,-10.75 -1.56916,-1.2375 -3.43086,-2.25 -4.13712,-2.25 -1.14108,0 -5.1161,-1.75675 -9.44618,-4.17471 -3.36878,-1.88117 -7.81349,-3.67952 -13.3292,-5.39305 -4.63117,-1.43874 -6.4286,-1.58468 -8.74568,-0.71008 -1.75454,0.66227 -3.14493,0.7312 -3.48989,0.17303 C 342.5054,223.3907 341,224.93295 341,227.39004 c 0,1.40001 -0.95949,2.78551 -2.5,3.60996 -1.40292,0.75082 -2.51839,2.25118 -2.54192,3.41898 -0.0593,2.94671 -2.84002,7.75173 -7.20808,12.4556 -2.0625,2.22106 -3.75,4.45614 -3.75,4.96685 0,1.13817 4.44762,4.14333 6.21482,4.19921 3.74265,0.11835 10.79913,10.05584 12.28663,17.303 0.55847,2.72094 0.78679,2.82498 5.29111,2.41106 2.58909,-0.23792 8.98244,-1.19576 14.20744,-2.12854 z M 336,271.5 c 0,-1.375 -0.41344,-2.5 -0.91876,-2.5 -0.50531,0 -2.40433,-1.575 -4.22004,-3.5 -1.81571,-1.925 -3.73577,-3.5 -4.26679,-3.5 -0.53103,0 -1.89451,-0.86395 -3.02996,-1.91989 -2.48043,-2.30674 -7.56489,-1.77806 -7.56368,0.78647 8e-4,1.68892 16.2795,13.13342 18.68103,13.13342 0.73941,0 1.3182,-1.09768 1.3182,-2.5 z m -27,-27.87756 c 0,-2.6712 -0.58469,-4.8628 -1.5,-5.62244 -0.825,-0.68469 -1.5,-1.81303 -1.5,-2.50743 0,-0.6944 -1.2375,-2.07938 -2.75,-3.07773 -3.80024,-2.50841 -11.45509,-6.55605 -11.73354,-6.20433 -0.12605,0.15922 -0.50781,1.75321 -0.84836,3.54221 -0.56633,2.97507 -0.13047,3.71883 5.10636,8.71346 3.14905,3.00341 6.62554,6.37253 7.72554,7.48694 1.1,1.11441 2.7875,2.03086 3.75,2.03654 1.40173,0.008 1.75,-0.86084 1.75,-4.36722 z m 13.04049,0.1895 C 323.66822,242.60851 325,241.01116 325,240.26228 c 0,-2.1477 3.114,-7.63251 5.14891,-9.06898 1.0181,-0.71869 1.85109,-2.15463 1.85109,-3.19099 0,-2.13736 -1.57175,-3.50424 -2.43093,-2.11406 -0.31302,0.50648 -2.98137,2.28225 -5.92966,3.94616 -4.46596,2.52044 -5.52256,3.66368 -6.33153,6.85076 -0.86983,3.42685 -0.038,9.31483 1.31595,9.31483 0.25143,0 1.78893,-0.98463 3.41666,-2.18806 z M 321,222.22617 c 3.025,-2.04939 6.85,-4.21378 8.5,-4.80975 2.61809,-0.94564 3.0401,-1.63348 3.31499,-5.40323 0.17324,-2.37581 -0.38926,-6.47275 -1.25,-9.10432 C 330.70424,200.27731 330,197.4835 330,196.70042 330,195.43937 325.42113,184.99753 323.11517,181 c -0.47589,-0.825 -1.88835,-3.525 -3.13878,-6 -1.25044,-2.475 -2.88167,-5.21043 -3.62496,-6.07874 -0.74329,-0.86831 -1.35832,-2.21831 -1.36674,-3 -0.0228,-2.11461 -1.23268,-3.57316 -3.56763,-4.30084 -1.60424,-0.49996 -2.35407,-0.0541 -3.2627,1.94015 -0.64887,1.42412 -0.94206,2.97392 -0.65153,3.44401 0.29053,0.47009 -0.82875,3.15617 -2.48729,5.96907 -1.65855,2.8129 -3.01554,5.62748 -3.01554,6.25463 0,0.62715 -0.87402,2.96985 -1.94227,5.206 -2.00817,4.20366 -3.80581,8.87543 -7.26873,18.89028 -1.1077,3.2035 -2.6172,6.05602 -3.35444,6.33892 -1.05645,0.4054 -1.09089,0.91397 -0.16254,2.40049 0.90978,1.45679 0.89907,2.16494 -0.0471,3.11107 C 287.74263,216.65737 287.63571,218 289,218 c 0.55,0 1,-0.675 1,-1.5 0,-1.69716 1.56573,-2.01168 2.4988,-0.50194 0.33926,0.54893 2.95331,2.11954 5.80902,3.49024 2.8557,1.3707 6.99218,4.03991 9.19218,5.93157 3.65552,3.14318 4.17224,3.31421 6,1.98593 1.1,-0.7994 4.475,-3.13023 7.5,-5.17963 z"
       id="path1" />
  </g>
</svg>
