<?xml version="1.0" encoding="UTF-8" standalone="no"?>
<!-- Created with Inkscape (http://www.inkscape.org/) -->

<svg
   version="1.1"
   id="svg1"
   width="731"
   height="507"
   viewBox="0 0 731 507"
   sodipodi:docname="5.svg"
   inkscape:version="1.4 (86a8ad7, 2024-10-11)"
   xmlns:inkscape="http://www.inkscape.org/namespaces/inkscape"
   xmlns:sodipodi="http://sodipodi.sourceforge.net/DTD/sodipodi-0.dtd"
   xmlns="http://www.w3.org/2000/svg"
   xmlns:svg="http://www.w3.org/2000/svg">
  <defs
     id="defs1" />
  <sodipodi:namedview
     id="namedview1"
     pagecolor="#ffffff"
     bordercolor="#000000"
     borderopacity="0.25"
     inkscape:showpageshadow="2"
     inkscape:pageopacity="0.0"
     inkscape:pagecheckerboard="0"
     inkscape:deskcolor="#d1d1d1"
     inkscape:zoom="1.5680473"
     inkscape:cx="365.42264"
     inkscape:cy="253.5"
     inkscape:window-width="1920"
     inkscape:window-height="1013"
     inkscape:window-x="2391"
     inkscape:window-y="605"
     inkscape:window-maximized="1"
     inkscape:current-layer="g1" />
  <g
     inkscape:groupmode="layer"
     inkscape:label="Image"
     id="g1">
    <path
       style="fill:#000000"
       d="m 241.66638,505.33649 c -0.0915,-0.0899 -29.64138,-0.28132 -65.66638,-0.4253 -51.5556,-0.20606 -65.9631,-0.5383 -67.6753,-1.5606 -1.19641,-0.71434 -2.32141,-0.88133 -2.5,-0.3711 -0.17858,0.51024 -5.2747,0.90868 -11.3247,0.88542 -6.05,-0.0233 -28.649523,0.0123 -50.221161,0.079 -38.4144879,0.1188 -39.2472696,0.0795 -40.4905472,-1.91131 C 3.0901299,500.91467 1.9521525,500 1.2594532,500 0.56675395,500 0,498.875 0,497.5 0,495.94444 0.56666667,495 1.5,495 c 2.1822824,0 2.1822824,-13.80095 0,-14.63837 -2.04674332,-0.78541 -2.04674332,-7.93785 0,-8.72326 2.0637654,-0.79194 2.0637654,-8.4848 0,-9.27674 C 0.38311178,461.93304 0,460.1532 0,455.39301 0,451.79767 0.43761387,449 1,449 c 0.55,0 1,-1.125 1,-2.5 0,-1.375 -0.45,-2.5 -1,-2.5 -1.27940993,0 -1.31325352,-2.72464 -0.0393341,-3.16667 C 1.5583893,440.62593 2.03658,414.43159 2.2263803,371.5 c 0.2251471,-50.92682 0.6160857,-69.54922 1.49253,-71.0968 0.8864746,-1.5653 0.8995058,-2.38478 0.051408,-3.23288 C 2.9634959,296.3635 2.6989214,287.55221 2.8574091,266.76712 2.9801492,250.67021 3.0057216,236.825 2.9142367,236 2.6936639,234.0109 1.927358,101.21794 2.1178826,98 2.1992921,96.625 2.18922,75.925 2.0955001,52 1.9490553,14.615277 2.13899,8.1485473 3.4465687,6 4.2833763,4.625 5.2527128,2.7125 5.6006499,1.75 c 0.9052207,-2.50411641 7.6136451,-2.50411641 7.1931871,0 -0.244473,1.4560063 0.714141,1.844837 5.706163,2.3145179 4.800785,0.4516881 152.90643,1.4951524 173.25,1.2206164 7.44965,-0.1005328 15.99028,-0.252049 17.75,-0.3148962 3.13546,-0.1119806 8.12234,-0.118446 48,-0.062231 22.55,0.031789 54.725,-3.522e-4 71.5,-0.071424 16.775,-0.071071 31.3162,0.2207793 32.31377,0.6485574 0.99757,0.427778 2.79757,0.3373224 4,-0.2010124 2.7487,-1.2306111 86.32502,-0.54781 88.70269,0.7246824 1.00153,0.5360006 2.0496,0.525127 2.60172,-0.026992 0.52593,-0.5259326 13.85021,-0.9155706 30.9032,-0.9036935 38.20479,0.026609 38.4082,0.021664 41.97862,-1.0203991 1.65,-0.4815694 5.07015,-1.1237232 7.60033,-1.4270085 l 4.60033,-0.5514277 16.89967,16.8230382 C 567.89515,28.155 576.175,36.430658 577,37.292679 c 0.825,0.862022 6.45,6.455403 12.5,12.429736 6.05,5.974332 16.175,16.597578 22.5,23.607211 6.325,7.009634 13.13949,14.49653 15.14332,16.637546 2.00383,2.141016 3.80383,4.261773 4,4.712792 0.19617,0.45102 2.04418,2.080437 4.10668,3.620927 2.0625,1.54049 3.75,3.388159 3.75,4.105919 0,0.71777 5.2875,6.73499 11.75,13.3716 6.4625,6.63662 14.45,15.28072 17.75,19.20912 3.3,3.9284 7.88444,8.69541 10.18764,10.59336 2.30321,1.89795 4.47103,4.34368 4.81739,5.43496 0.34636,1.09128 1.23772,1.98415 1.9808,1.98415 0.74308,0 2.36182,1.6875 3.59719,3.75 1.23538,2.0625 3.40959,4.89594 4.83156,6.29653 8.202,8.07863 14.59624,15.97933 18.57682,22.95347 1.41264,2.475 4.11245,6.975 5.99959,10 1.88713,3.025 3.44867,6.00651 3.47008,6.62557 0.0214,0.61906 1.14422,3.62483 2.49513,6.67948 1.35091,3.05465 2.75214,7.94814 3.11384,10.87443 0.3617,2.92629 1.32918,7.44568 2.14994,10.0431 1.12942,3.57423 1.35865,7.58642 0.94269,16.5 -0.30228,6.47758 -0.79318,13.12742 -1.09089,14.77742 -0.29771,1.65 -0.90442,5.25 -1.34825,8 -0.44383,2.75 -1.50642,6.35 -2.36131,8 -0.85489,1.65 -2.786,6.825 -4.29136,11.5 -1.50536,4.675 -3.42051,10.075 -4.2559,12 -1.38915,3.20105 -1.98711,4.64182 -3.7353,9 -0.33092,0.825 -1.49177,2.85 -2.57966,4.5 -1.08789,1.65 -2.27959,3.675 -2.64823,4.5 -1.79144,4.00918 -12.35062,16.8495 -21.57322,26.23377 -5.6532,5.75231 -13.65355,14.2283 -17.77855,18.83553 -4.125,4.60724 -9.075,9.83081 -11,11.60794 -1.925,1.77713 -3.95,3.74187 -4.5,4.3661 -0.55,0.62423 -2.575,2.82754 -4.5,4.89625 -3.56617,3.83241 -11.92169,13.29886 -14.22653,16.11807 -0.70041,0.85672 -2.93982,2.65092 -4.97647,3.98713 -2.03664,1.33621 -4.06164,3.18534 -4.5,4.10919 -0.43835,0.92385 -3.88544,4.97965 -7.6602,9.01288 -3.77475,4.03323 -8.38725,8.9606 -10.25,10.94973 -1.86274,1.98912 -3.3868,4.12662 -3.3868,4.75 0,0.62337 -0.40718,1.13341 -0.90485,1.13341 -1.12029,0 -27.90863,26.63095 -38.09515,37.87131 -4.125,4.55176 -10.75961,11.73029 -14.74358,15.95231 -3.98397,4.22201 -7.24647,7.97607 -7.25,8.34235 -0.004,0.36628 -1.86675,2.13938 -4.14049,3.94021 l -4.13406,3.27424 -56.11594,0.30624 c -78.69769,0.42946 -89.1537,0.43106 -151.37301,0.0231 -30.39139,-0.19926 -55.46683,-0.15253 -55.72321,0.10384 -0.41593,0.41593 -29.44479,0.92436 -29.85333,0.52287 z m -121.74512,-5.76363 c 1.31392,-1.18775 10.56528,-1.49513 55.1532,-1.83249 29.46595,-0.22295 53.99095,-0.65993 54.5,-0.97107 1.48659,-0.90865 67.81885,-1.16669 123.42554,-0.48015 8.525,0.10525 16.85,0.0962 18.5,-0.0201 1.65,-0.11629 4.125,-0.17433 5.5,-0.12897 1.375,0.0454 8.125,0.0485 15,0.007 6.875,-0.0415 34.55,-0.0514 61.5,-0.022 59.86815,0.0654 78.16399,-0.6344 82.2969,-3.14777 1.61619,-0.98286 3.20553,-2.84234 3.53187,-4.13217 0.32634,-1.28983 8.82337,-10.68409 18.88229,-20.87612 20.55848,-20.83054 33.37396,-34.35948 39.28894,-41.47622 2.2,-2.64698 11.425,-12.29953 20.5,-21.45011 9.075,-9.15058 18.3,-18.80229 20.5,-21.44824 2.2,-2.64596 5.07989,-5.77464 6.39975,-6.95264 4.29362,-3.83214 17.37476,-17.58615 18.92026,-19.89349 0.82828,-1.23658 4.47013,-5.40687 8.09298,-9.26731 7.81125,-8.32351 22.3979,-24.30378 27.47705,-30.10222 1.98548,-2.26666 3.60996,-4.61163 3.60996,-5.21105 0,-0.59941 0.83658,-1.89487 1.85906,-2.87879 1.02248,-0.98393 2.17785,-3.13896 2.56749,-4.78896 0.38964,-1.65 1.87448,-5.475 3.29964,-8.5 1.42516,-3.025 3.14494,-6.85 3.82174,-8.5 0.67679,-1.65 2.01094,-4.8 2.96478,-7 0.95384,-2.2 2.1716,-5.35 2.70615,-7 1.1785,-3.63773 2.98995,-18.47619 2.92988,-24 -0.10734,-9.87032 -1.28417,-25.1792 -2.07555,-27 -0.4781,-1.1 -1.59015,-3.64301 -2.47123,-5.65113 C 717.72088,214.84075 717,212.01702 717,210.57391 717,204.88486 705.69065,186.12535 698.25,179.47214 695.9125,177.38201 694,175.07073 694,174.33596 694,173.60118 693.325,173 692.5,173 c -0.825,0 -1.50129,-0.5625 -1.50287,-1.25 -0.002,-0.6875 -2.92658,-4.31851 -6.5,-8.06891 C 680.92371,159.93068 678,156.64649 678,156.38287 c 0,-0.26361 -3.15,-3.52486 -7,-7.24723 -3.85,-3.72236 -7,-7.04338 -7,-7.38006 0,-0.33667 -2.8125,-3.48924 -6.25,-7.00571 C 645.47098,122.18876 632.45335,108.39066 629.6582,104.97385 628.09521,103.06323 621.79521,96.325 615.6582,90 609.52119,83.675 600.9,74.55278 596.5,69.728401 587.99636,60.404581 559.99091,32.033324 548.10103,20.697237 l -7.13509,-6.802763 -33.73297,0.08395 c -40.3975,0.10054 -53.89465,0.07334 -57.23297,-0.115318 -1.375,-0.07771 -16.45,-0.05639 -33.5,0.04738 -17.05,0.103765 -49.7824,-0.117979 -72.73866,-0.492765 -30.05761,-0.490723 -42.11345,-0.370384 -43.07785,0.429992 -0.9342,0.77532 -2.37406,0.813173 -4.76133,0.125171 -2.13841,-0.616278 -14.52835,-0.74476 -33.02843,-0.342501 -17.6427,0.383616 -29.83538,0.27304 -30.17325,-0.273643 -0.31184,-0.504564 -3.18902,-0.797715 -6.39373,-0.651444 -3.20471,0.14627 -28.55175,0.332556 -56.32675,0.413968 -27.775,0.08141 -51.56724,0.547556 -52.87164,1.035874 -1.50484,0.563355 -2.83755,0.501176 -3.64642,-0.170126 -1.25549,-1.041965 -12.05526,-0.926616 -13.989594,0.149419 C 98.946556,14.438046 92.65,14.377731 85.5,14.0004 78.35,13.623069 62.825,13.581116 51,13.907172 c -11.825,0.326055 -25.325,0.28951 -30,-0.08121 -5.981565,-0.47433 -8.846316,-0.326187 -9.668856,0.5 -1.3929833,1.399162 -1.9774933,12.987047 -0.858243,17.014633 0.470364,1.692588 0.3072,4.449998 -0.403728,6.822865 C 9.2485244,40.902539 9.196432,42.53176 9.9023071,43.382287 10.567863,44.184233 10.76643,52.506013 10.46727,67.059422 10.044241,87.638737 9.6127255,221.53481 9.9582644,225 c 0.082267,0.825 0.080348,9.825 -0.00427,20 -0.084613,10.175 -0.1206743,27.5 -0.080137,38.5 0.082783,22.46351 0.05733,35.83917 -0.1370073,72 -0.073896,13.75 -0.00978,31.975 0.1424713,40.5 0.3169179,17.7447 0.3177059,17.81884 0.2179849,20.5 -0.5177309,13.91995 0.6275,78.62477 1.405373,79.40266 1.674561,1.6746 38.095354,3.09679 72.369412,2.82594 25.350134,-0.20033 32.477274,0.0183 32.856984,1.00779 0.62329,1.62425 1.25,1.59215 3.19218,-0.16353 z M 299.54919,416.40633 C 298.69713,415.55428 298,413.74636 298,412.38873 c 0,-1.35762 -0.838,-4.13798 -1.86222,-6.17857 -1.02421,-2.04059 -2.8528,-6.72332 -4.06352,-10.40607 -1.21073,-3.68274 -2.97815,-7.73274 -3.92761,-9 -0.94946,-1.26725 -2.2676,-3.42909 -2.92921,-4.80409 -1.14839,-2.38666 -1.94559,-3.84095 -4.24833,-7.75 -0.56699,-0.9625 -2.81322,-5.4625 -4.99162,-10 -2.1784,-4.5375 -4.34669,-8.25 -4.81841,-8.25 -0.47173,0 -1.713,-2.13162 -2.75838,-4.73693 -1.04539,-2.60531 -2.9132,-6.67912 -4.1507,-9.05291 -1.2375,-2.3738 -2.25,-6.10801 -2.25,-8.29826 0,-2.19025 -0.7108,-5.06709 -1.57957,-6.39299 -1.0988,-1.67699 -1.75139,-5.89958 -2.1441,-13.87352 l -0.56455,-11.4628 -4.10589,-0.56442 C 251.34765,301.30774 246.8,300.81459 243.5,300.52228 c -3.3,-0.29231 -8.025,-0.94989 -10.5,-1.46128 -2.475,-0.51139 -6.50267,-1.20405 -8.95039,-1.53926 -2.44771,-0.3352 -4.92271,-0.99573 -5.5,-1.46783 -0.57728,-0.4721 -3.07461,-1.39697 -5.54961,-2.05526 -2.475,-0.65829 -7.23303,-2.72157 -10.57339,-4.58507 -6.61543,-3.69057 -24.67106,-17.88986 -27.02873,-21.25592 -0.80645,-1.15137 -4.11671,-4.13285 -7.35612,-6.62553 C 162.59169,257.3384 161.71317,257 156.27596,257 150.20922,257 148,255.88823 148,252.83518 148,250.21902 151.13886,249 157.87524,249 c 3.3037,0 6.26064,-0.41084 6.57098,-0.91299 0.31034,-0.50214 2.31283,-1.2084 4.44997,-1.56947 2.16312,-0.36546 4.89796,-1.73398 6.16908,-3.08701 1.25585,-1.33679 3.00046,-2.43053 3.87691,-2.43053 0.87645,0 3.16051,-1.06059 5.07569,-2.35688 1.91517,-1.29628 6.49283,-3.80538 10.17258,-5.57578 3.67975,-1.7704 7.22235,-3.8598 7.87244,-4.64312 0.6501,-0.78332 1.63979,-1.42422 2.19931,-1.42422 0.55952,0 1.51692,-0.58188 2.12756,-1.29306 0.92205,-1.07389 8.41094,-4.73456 14.61024,-7.1417 0.825,-0.32034 3.07277,-1.53103 4.99504,-2.69042 1.92227,-1.15939 4.62227,-2.24324 6,-2.40857 1.37773,-0.16533 4.44454,-0.79622 6.81514,-1.40198 2.3706,-0.60576 7.25561,-1.32763 10.85559,-1.60416 3.59998,-0.27652 7.33845,-0.92718 8.30772,-1.44592 1.80047,-0.96358 3.02651,-5.04706 3.02651,-10.08017 0,-1.54879 0.45,-3.0941 1,-3.43402 0.55,-0.33992 1,-1.52106 1,-2.62476 0,-1.1037 0.54912,-2.98964 1.22028,-4.19098 1.71093,-3.06253 3.74674,-8.88377 3.76466,-10.76478 0.008,-0.86929 1.13818,-3.79429 2.51087,-6.5 1.3727,-2.70571 2.50312,-5.59448 2.51205,-6.41948 0.009,-0.825 1.08149,-3.36279 2.38346,-5.63954 1.30198,-2.27674 2.9562,-6.55174 3.67605,-9.5 0.71985,-2.94825 1.63017,-5.81046 2.02295,-6.36046 0.39277,-0.55 1.22502,-3.025 1.84944,-5.5 0.62441,-2.475 1.74127,-6.075 2.48191,-8 0.74064,-1.925 1.90673,-5.975 2.59132,-9 0.68458,-3.025 1.70248,-6.07535 2.26199,-6.77855 0.55951,-0.7032 1.28903,-6.6824 1.62116,-13.28712 0.45703,-9.088678 0.96859,-12.242395 2.10386,-12.970199 3.74544,-2.40114 4.92481,-0.25069 7.97188,14.535869 1.28232,6.22277 2.6589,10.07351 5.96942,16.69844 1.68228,3.36655 3.0587,6.91266 3.0587,7.88024 0,0.96758 0.63808,3.03321 1.41796,4.59028 0.77988,1.55707 2.99158,6.20604 4.91491,10.33104 5.25084,11.26161 8.62206,18.21552 10.18071,21 2.32779,4.15851 6.48642,13.79915 6.48642,15.03695 0,0.63843 0.64689,2.5788 1.43752,4.31192 C 339.55187,191.36774 340,193.4458 340,203.50582 v 10.26157 l 9.93101,0.39888 c 7.23554,0.29062 10.42471,0.83292 11.75,1.99802 1.00044,0.87953 2.94399,1.94321 4.31899,2.36374 1.375,0.42052 5.65,2.22469 9.5,4.00925 3.85,1.78457 8.8,4.0246 11,4.97785 2.2,0.95325 4.9,2.51129 6,3.46231 3.11508,2.6932 14.82172,10.62045 18.46955,12.50681 1.80775,0.93483 5.47884,2.35064 8.15797,3.14626 4.08049,1.21177 5.20593,2.10278 6.93359,5.48928 1.8281,3.58337 1.9009,4.28913 0.64072,6.21146 -0.78195,1.19281 -3.17225,2.77192 -5.31178,3.50913 -2.13953,0.73721 -6.14005,2.80123 -8.89005,4.58671 -2.75,1.78548 -7.81233,5.00731 -11.24961,7.15962 -3.43729,2.15231 -6.50631,4.70456 -6.82005,5.67167 -0.52049,1.60444 -14.13152,12.66866 -18.92002,15.37983 -13.56381,7.67961 -24.15461,11.14167 -35.9868,11.76385 l -2.97649,0.15651 0.20332,11.98842 c 0.14572,8.59192 -0.18838,12.74343 -1.17926,14.65335 -0.76043,1.46572 -1.67412,4.15775 -2.03043,5.9823 -0.35631,1.82455 -1.26012,4.89236 -2.00847,6.81736 -1.8769,4.82802 -4.35139,12.45292 -6.16601,19 -0.83842,3.025 -2.83881,7.5644 -4.44529,10.08755 C 319.3144,377.6107 318,380.45106 318,381.39947 c 0,0.94841 -1.06781,4.05901 -2.37292,6.91246 -1.3051,2.85344 -3.05333,7.21307 -3.88495,9.68807 -4.63334,13.78934 -6.21686,17.19087 -8.73502,18.76349 -1.53437,0.95822 -2.21259,0.88817 -3.45792,-0.35716 z m 6.06299,-19.96883 c 6.88695,-21.91869 8.6896,-27.11582 9.85819,-28.42157 0.74617,-0.83376 2.57813,-5.34093 4.07102,-10.01593 1.49289,-4.675 3.21928,-9.13163 3.83642,-9.90362 0.61714,-0.772 0.96983,-2.30227 0.78376,-3.40062 -0.18608,-1.09834 0.12468,-2.94171 0.69056,-4.09637 C 326.8026,336.61953 328,327.87313 328,317.60577 c 0,-11.68274 -0.61082,-12.8334 -7.46624,-14.06499 -2.18143,-0.39189 -5.17589,-1.57389 -6.65437,-2.62666 C 312.40092,299.86135 310.77667,299 310.26994,299 c -0.50672,0 -1.94243,-1.08693 -3.19046,-2.41539 -1.24802,-1.32847 -3.35147,-2.68704 -4.67431,-3.01905 C 301.08233,293.23354 300,292.36521 300,291.63594 c 0,-0.72928 -0.9,-2.14045 -2,-3.13594 -1.1,-0.99549 -2,-2.25312 -2,-2.79474 0,-0.54163 -0.7875,-1.5608 -1.75,-2.26484 -1.52696,-1.11691 -2.32353,-0.67883 -6.25,3.43725 -6.05071,6.3429 -13.25112,11.13361 -17.77821,11.82854 -5.49595,0.84365 -6.24041,1.79305 -5.59837,7.13947 0.71775,5.97692 2.93109,16.79765 4.22475,20.65432 0.55347,1.65 1.98378,6.24452 3.17846,10.21004 1.19469,3.96553 2.81839,7.74638 3.60824,8.40189 1.57232,1.30492 8.36513,14.90087 8.36513,16.743 0,0.62979 0.42894,1.14507 0.95321,1.14507 0.52426,0 1.82327,1.96693 2.88668,4.37095 1.06341,2.40402 2.43447,4.68058 3.04679,5.05902 0.61233,0.37843 1.11332,1.50641 1.11332,2.5066 0,1.0002 0.67177,2.37606 1.49282,3.05747 0.82106,0.68142 1.95905,3.09902 2.52889,5.37245 0.56983,2.27343 1.69806,5.32794 2.50718,6.7878 0.80911,1.45986 1.47111,3.34307 1.47111,4.1849 0,2.80777 1.99711,6.82844 3.19365,6.42959 0.64974,-0.21658 1.73808,-2.16566 2.41853,-4.33128 z M 352.5,294.51543 c 15.41416,-3.5215 24.21301,-8.44989 36.62699,-20.51543 5.91913,-5.75298 14.77039,-11.81758 21.09152,-14.45124 4.31175,-1.79645 4.19821,-3.85924 -0.29868,-5.42686 C 408.31392,253.56207 407,252.67941 407,252.16043 c 0,-0.51899 -1.14685,-1.23146 -2.54856,-1.58326 -6.34903,-1.59351 -27.31962,-13.30356 -30.33856,-16.94116 C 373.3661,232.7362 371.99781,232 371.07222,232 c -0.92559,0 -6.08872,-2.25 -11.47362,-5 -7.68307,-3.92365 -10.81302,-5 -14.53967,-5 -5.77403,0 -7.48425,1.59681 -9.11749,8.51291 -0.64773,2.7429 -1.65435,5.88709 -2.23693,6.98709 -0.58257,1.1 -1.54191,2.90427 -2.13187,4.00948 -1.69657,3.17835 -6.90683,9.86731 -8.77296,11.2628 -0.93576,0.69975 -2.36635,1.93725 -3.1791,2.75 -0.81275,0.81274 -2.10642,1.47772 -2.87484,1.47772 -0.76841,0 -2.48805,1.17769 -3.82143,2.61708 -2.38706,2.57687 -2.39358,2.63449 -0.42431,3.75 1.1,0.62311 5.22641,4.3258 9.1698,8.22821 7.04624,6.97301 9.48982,11.47974 9.81407,18.10022 0.16318,3.33176 3.31032,6.14993 7.37221,6.6016 3.84089,0.4271 4.15564,0.386 13.64392,-1.78168 z m -30.03158,-3.41593 c 1.17905,-3.71485 -6.59785,-14.81086 -14.4127,-20.56392 -4.15992,-3.06241 -6.62013,-3.21801 -8.06922,-0.51036 -0.87174,1.62887 -0.55769,2.99198 1.60467,6.96496 1.4787,2.71685 3.80668,5.743 5.1733,6.72477 1.36662,0.98178 4.77907,3.47255 7.58323,5.53505 5.75627,4.23382 7.25559,4.57529 8.12072,1.8495 z M 259.58122,287.5 c 0.76377,-2.2 1.39544,-4.78361 1.40372,-5.74135 C 261.01039,278.81524 272.67047,265 275.12926,265 c 0.45795,0 1.1095,-1.10313 1.4479,-2.45141 0.50407,-2.00836 -0.29467,-3.36134 -4.41954,-7.48621 -8.64518,-8.64518 -10.60154,-12.13376 -12.6527,-22.56238 -0.32453,-1.65 -1.00714,-4.91157 -1.5169,-7.24793 -0.50976,-2.33636 -0.68492,-4.87836 -0.38924,-5.64889 1.22755,-3.19895 -15.56217,-2.15425 -26.59878,1.65506 -6.44936,2.226 -22.3189,9.89547 -23.5,11.35713 -1.21483,1.5034 -8.78871,5.4572 -11.105,5.79716 -0.91942,0.13494 -2.22219,0.99823 -2.89505,1.91843 -1.56515,2.14046 -13.27908,8.26321 -18.49729,9.66832 -2.20146,0.5928 -3.99942,1.62296 -3.99546,2.28926 0.004,0.6663 1.76176,2.33646 3.90623,3.71146 3.6116,2.3157 15.30369,11.59584 27.40292,21.75 2.78526,2.3375 5.99101,4.25487 7.12388,4.26082 3.70668,0.0195 11.94879,2.97941 16.0455,5.76229 3.71793,2.52559 4.97396,2.76772 17.01427,3.27997 7.15,0.3042 13.60582,0.5292 14.34628,0.5 0.74045,-0.0292 1.97117,-1.85308 2.73494,-4.05308 z m 15.59901,-0.44919 c 6.46379,-3.01639 9.25929,-5.82206 14.02946,-14.0805 1.90666,-3.30094 2.36002,-4.98781 1.67128,-6.21853 -1.02072,-1.82392 -0.28765,-2.00251 -11.13097,2.71171 -2.0625,0.89669 -3.75,2.26923 -3.75,3.05009 0,0.78087 -1.58377,3.00352 -3.51949,4.93924 C 268.85958,281.07376 267,284.67458 267,288.0651 c 0,2.55356 0.72823,2.46327 8.18023,-1.01429 z M 192,274 c 0,-0.55 -0.70156,-1 -1.55902,-1 -0.85746,0 -1.2809,0.45 -0.94098,1 0.33992,0.55 1.04148,1 1.55902,1 0.51754,0 0.94098,-0.45 0.94098,-1 z m 113.47028,-20.61621 c 7.86089,-1.88215 17.35126,-10.9447 19.91268,-19.01503 0.36745,-1.15775 1.55661,-2.90908 2.64257,-3.89186 1.7272,-1.5631 2.95025,-8.4769 1.49955,-8.4769 -1.5911,0 -14.58334,7.74951 -17.3744,10.36335 -4.28685,4.01466 -10.06379,12.95219 -10.82186,16.74257 -0.32293,1.61463 -0.97902,3.17789 -1.45798,3.47391 -1.58638,0.98043 -0.90215,2.56425 0.87916,2.03505 0.9625,-0.28595 3.08663,-0.83994 4.72028,-1.23109 z m -16.40638,-4.11358 c -0.71262,-1.52362 -1.6581,-3.44521 -2.10105,-4.27021 -0.44295,-0.825 -2.21402,-4.2256 -3.9357,-7.55689 C 279.82713,231.2514 273.06279,223 271.18695,223 c -0.57425,0 -1.71586,0.67176 -2.5369,1.49281 -4.21557,4.21557 6.71361,22.91721 16.0756,27.50803 4.56231,2.2372 6.1843,1.21627 4.33825,-2.73063 z M 301.88182,232.75 c 2.85813,-3.4375 6.09744,-7.23263 7.19847,-8.43363 C 311.3252,221.86763 324.63541,215 327.13641,215 c 2.56392,0 3.93776,-2.4498 4.00993,-7.1504 0.0696,-4.53245 -2.1379,-15.17449 -3.41194,-16.44853 C 327.33048,190.99715 327,189.3497 327,187.74006 c 0,-1.60963 -1.8,-6.49635 -4,-10.85939 -2.2,-4.36303 -4,-8.71282 -4,-9.66618 0,-0.95337 -0.84328,-2.26004 -1.87396,-2.90371 -1.03068,-0.64367 -2.19074,-2.43941 -2.57791,-3.99054 -0.38718,-1.55113 -1.31134,-3.49524 -2.05369,-4.32024 -0.74236,-0.825 -2.11073,-3.75 -3.04083,-6.5 -0.9301,-2.75 -2.51492,-6.8 -3.52184,-9 -3.36825,-7.35923 -5.93076,-14.97494 -5.93127,-17.62756 -5.3e-4,-2.76731 -2.27838,-5.43677 -3.82405,-4.48149 -0.50115,0.30972 -1.20046,2.48596 -1.55404,4.83609 -1.63102,10.84096 -1.98143,12.39127 -3.23232,14.30036 -1.50528,2.29735 -4.96498,12.68963 -5.92096,17.78545 -0.34761,1.85291 -1.72036,4.63552 -3.05057,6.18358 -1.33021,1.54805 -2.41856,3.8431 -2.41856,5.10009 0,1.257 -0.43831,2.55633 -0.97402,2.88742 -0.53571,0.33109 -1.62305,2.72015 -2.41632,5.30902 -0.79327,2.58887 -2.64322,7.85704 -4.111,11.70704 -3.12643,8.20069 -4.05803,11.94985 -4.88807,19.67174 l -0.60967,5.67175 6.92267,3.19086 c 4.52334,2.08494 7.98908,4.51787 9.99954,7.01962 1.69228,2.10581 3.07687,4.08979 3.07687,4.40883 0,1.66546 7.80235,12.5372 8.9976,12.5372 0.3782,0 3.0261,-2.8125 5.88422,-6.25 z M 636,12 c 0,-0.55 0.45,-1 1,-1 0.55,0 1,0.45 1,1 0,0.55 -0.45,1 -1,1 -0.55,0 -1,-0.45 -1,-1 z"
       id="path1" />
  </g>
</svg>
