<?xml version="1.0" encoding="UTF-8" standalone="no"?>
<!-- Created with Inkscape (http://www.inkscape.org/) -->

<svg
   version="1.1"
   id="svg1"
   width="727"
   height="506"
   viewBox="0 0 727 506"
   sodipodi:docname="1.svg"
   inkscape:version="1.4 (86a8ad7, 2024-10-11)"
   xmlns:inkscape="http://www.inkscape.org/namespaces/inkscape"
   xmlns:sodipodi="http://sodipodi.sourceforge.net/DTD/sodipodi-0.dtd"
   xmlns="http://www.w3.org/2000/svg"
   xmlns:svg="http://www.w3.org/2000/svg">
  <defs
     id="defs1" />
  <sodipodi:namedview
     id="namedview1"
     pagecolor="#ffffff"
     bordercolor="#000000"
     borderopacity="0.25"
     inkscape:showpageshadow="2"
     inkscape:pageopacity="0.0"
     inkscape:pagecheckerboard="0"
     inkscape:deskcolor="#d1d1d1"
     inkscape:zoom="1.1109682"
     inkscape:cx="366.34713"
     inkscape:cy="256.08295"
     inkscape:window-width="1920"
     inkscape:window-height="1013"
     inkscape:window-x="2391"
     inkscape:window-y="605"
     inkscape:window-maximized="1"
     inkscape:current-layer="g1" />
  <g
     inkscape:groupmode="layer"
     inkscape:label="Image"
     id="g1">
    <path
       style="fill:#000000"
       d="m 512.5,504.87895 c -7.89835,-1.97223 -192.80956,-2.69686 -195.13766,-0.7647 -0.7011,0.58186 -1.85694,0.69483 -2.56854,0.25105 -0.71159,-0.44379 -18.79105,-0.70201 -40.17657,-0.57384 -26.73357,0.16023 -39.29,-0.10492 -40.18608,-0.8486 C 233.49401,502.1651 232.53003,502.18115 231,503 c -1.23155,0.65911 -2.62744,0.77743 -3.31392,0.28091 -1.32499,-0.95835 -52.94937,-0.85426 -54.50942,0.10991 -0.54557,0.33718 -2.00049,0.23998 -3.23314,-0.21601 -1.23265,-0.45599 -4.53671,-0.45075 -7.34235,0.0116 -5.0963,0.8399 -43.05754,0.93533 -100.60117,0.25288 C 21.675729,502.9611 21.619706,502.96188 17.810279,504.05441 15.996888,504.57449 12.608107,505 10.279655,505 6.7924047,505 5.7368115,504.52796 4.291563,502.32223 2.6757422,499.85617 2.5188711,494.97394 2.3074742,440.57223 2.181224,408.0825 2.1454487,380.6 2.2279736,379.5 c 0.082525,-1.1 0.095486,-16.4 0.028803,-34 C 2.0988552,303.81908 2.1019643,293.26152 2.3175889,139 L 2.5,8.5 4.75,5.3456295 C 5.9875,3.6107257 7,1.6982257 7,1.0956295 7,0.49303328 8.125,0 9.5,0 11.066769,0 12,0.56564715 12,1.5152928 c 0,1.305966 3.004607,1.5212062 21.75,1.5580991 11.9625,0.023544 31.65,0.2384604 43.75,0.4775932 12.1,0.2391327 22.45,0.4120172 23,0.3841877 14.82942,-0.7503554 89.1675,-1.5459431 95.25,-1.0193931 6.00544,0.5198788 60.8113,-1.2960288 61.08333,-2.02390225 C 257.26715,-0.26884535 266,-0.27496351 266,0.88545537 266,1.9361048 280.88172,2.0004024 281.52933,0.95255094 282.24349,-0.20299513 306,-0.16496717 306,0.99172209 306,1.5472105 308.4699,2 311.5,2 c 3.025,0 5.5,-0.45 5.5,-1 0,-1.30413211 7.694,-1.30413211 8.5,0 0.85072,1.3764998 14.96461,1.2569244 23.45316,-0.19869941 5.98517,-1.02634345 7.46164,-0.9739223 10.26856,0.36457801 2.40583,1.1472434 3.9436,1.3052697 5.77828,0.5937949 1.375,-0.5332155 8.8,-0.90281319 16.5,-0.8213283 7.7,0.0814849 14.9,0.1446363 16,0.1403366 54.44027,-0.21280129 140.05652,0.096886 143.0441,0.5174124 3.53009,0.4968883 5.30954,1.87945 14,10.8773988 5.47575,5.669486 13.07105,13.844786 16.87845,18.167332 6.62452,7.520821 29.12612,31.573121 42.32745,45.244447 3.4375,3.559883 6.25,6.803279 6.25,7.207548 0,0.404268 5.2034,6.026032 11.56311,12.492808 6.35971,6.466772 12.2097,13.008142 12.99998,14.536372 0.79028,1.52823 2.05979,3.13846 2.82113,3.5783 1.22961,0.71035 7.99674,8.06639 16.83467,18.2997 13.44972,15.57323 13.40889,15.52948 24.90554,26.68812 C 697.0467,166.37747 711,188.15508 711,192.83041 c 0,0.94852 0.61173,2.61221 1.35939,3.69708 0.74767,1.08488 1.92047,4.44751 2.60624,7.47251 0.68577,3.025 2.3683,9.1 3.73897,13.5 2.47354,7.94035 4.41485,16.47578 6.36837,28 1.11801,6.59534 0.52369,26.77514 -0.90094,30.59091 -0.49469,1.325 -1.22527,4.65909 -1.62352,7.40909 -0.39824,2.75 -1.52982,6.35 -2.51461,8 -0.98479,1.65 -2.10836,4.8 -2.49683,7 -0.38846,2.2 -1.28278,4.675 -1.98737,5.5 -0.7046,0.825 -1.59988,2.85 -1.98952,4.5 -0.38964,1.65 -1.51017,3.9 -2.49007,5 -1.57883,1.77235 -2.60626,3.54589 -6.30694,10.88701 -4.37304,8.6749 -11.70112,18.50588 -18.0072,24.15755 -2.4274,2.17549 -5.12676,4.63044 -5.99859,5.45544 -6.07678,5.75037 -7.75738,7.54915 -7.75738,8.30289 0,1.15146 -6.06048,8.31945 -14,16.55842 -3.575,3.70983 -8.75,9.37757 -11.5,12.59498 -2.75,3.21741 -5.97971,6.73359 -7.17713,7.81375 -1.19743,1.08016 -2.72141,3.14878 -3.38663,4.59694 -0.66522,1.44816 -4.87013,6.00802 -9.34425,10.13302 -4.47412,4.125 -9.25014,8.9824 -10.61338,10.79421 -1.36324,1.81182 -4.7009,5.61319 -7.41704,8.44749 -2.71614,2.8343 -7.18512,7.6519 -9.93106,10.70579 -2.74594,3.05388 -11.84123,12.75251 -20.21174,21.55251 -8.37052,8.8 -16.99801,18.25 -19.17221,21 -3.4045,4.30613 -6.23634,7.0488 -16.49656,15.97716 C 542.7875,503.31472 541.55,504 541,504 c -0.55,0 -1,0.45 -1,1 0,1.40059 -13.60214,1.26542 -15.8811,-0.15782 -1.0869,-0.67878 -2.63283,-0.82821 -3.73643,-0.36116 -2.72503,1.15324 -4.49897,1.2428 -7.88247,0.39793 z M 240,499 c 0,-0.55 -0.45,-1 -1,-1 -0.55,0 -1,0.45 -1,1 0,0.55 0.45,1 1,1 0.55,0 1,-0.45 1,-1 z M 51.834726,497.00455 C 63.750627,497.01587 74.625,496.965 76,496.8915 c 1.375,-0.0735 10.825,-0.12401 21,-0.11223 10.175,0.0118 19.4,-0.011 20.5,-0.0506 1.1,-0.0396 8.75,-0.14797 17,-0.24083 8.25,-0.0928 20.49444,-0.2406 27.20986,-0.32833 L 173.91972,496 l 1.17891,-4.25 c 1.07683,-3.88204 3.89286,-11.01972 5.81931,-14.75 0.42606,-0.825 1.3566,-4.65 2.06786,-8.5 1.23011,-6.65846 4.30925,-17.27141 5.94768,-20.5 0.41867,-0.825 1.28683,-3.75 1.92925,-6.5 4.77081,-20.42242 6.0925,-25.54783 7.04882,-27.33473 0.59865,-1.11858 1.08845,-3.41158 1.08845,-5.09555 0,-1.68396 0.86809,-5.65105 1.92909,-8.81574 1.83442,-5.47162 2.27508,-8.48907 3.61495,-24.75398 0.31715,-3.85 1.21673,-9.25 1.99906,-12 1.63686,-5.75379 3.38303,-17.23351 3.9785,-26.15559 0.48897,-7.32619 -0.82979,-9.21817 -5.2707,-7.56171 -5.51499,2.0571 -19.9849,4.97949 -33.2509,6.71544 -10.13295,1.32598 -22.35643,3.88557 -26.5,5.5491 -1.1,0.44162 -4.41527,1.08415 -7.36727,1.42785 -2.95199,0.3437 -7.22699,1.44927 -9.5,2.45683 -2.273,1.00756 -8.63273,2.8353 -14.13273,4.06164 -21.771982,4.85453 -54.434586,13.67415 -55.95,15.10774 -0.5225,0.49428 -2.5475,0.91397 -4.5,0.93263 -1.9525,0.0187 -5.35,0.90339 -7.55,1.96607 -2.2,1.06268 -5.1824,1.94741 -6.627555,1.96607 -1.445156,0.0187 -3.177873,0.69702 -3.850483,1.50747 -0.67261,0.81044 -2.865211,1.76604 -4.872445,2.12355 -2.007234,0.3575 -4.549517,1.43488 -5.649517,2.39416 -1.1,0.95929 -3.752028,2.01087 -5.893396,2.33685 -2.141368,0.32599 -4.841368,1.44346 -6,2.48329 -1.158632,1.03982 -2.858502,2.15486 -3.7774881,2.47785 -1.540565,0.54147 -1.6402653,4.93415 -1.278305,56.32071 0.2159185,30.65339 0.7428164,56.08242 1.1708841,56.50894 0.892174,0.88896 12.148088,1.67091 17.113031,1.18885 1.8341,-0.17808 13.0841,-0.31452 25,-0.30319 z m 198.029524,-2.21582 c 4.15513,-0.5418 7.74197,-0.58251 8.23105,-0.0934 0.47675,0.47675 5.71284,0.70968 11.63576,0.51763 5.92292,-0.19205 25.36604,-0.45984 43.20695,-0.59508 26.19307,-0.19856 32.52472,-0.50603 32.88841,-1.59712 0.41196,-1.23587 -0.37863,-3.26943 -4.41321,-11.35177 C 340.63595,480.11189 340,478.03508 340,477.05382 c 0,-0.98126 -0.9,-2.92827 -2,-4.32669 -1.1,-1.39842 -2,-3.60206 -2,-4.89698 0,-2.58558 -3.13703,-12.6685 -8.03636,-25.83015 -1.74024,-4.675 -3.55087,-10.69457 -4.02364,-13.37682 -0.47276,-2.68226 -1.49442,-5.60726 -2.27034,-6.5 -0.77593,-0.89275 -1.71886,-4.05605 -2.0954,-7.02956 -0.37655,-2.97351 -1.3348,-6.66366 -2.12945,-8.20034 C 316.65017,405.3566 316,403.04652 316,401.75976 c 0,-1.28676 -0.71845,-5.02161 -1.59656,-8.29966 -1.55848,-5.81793 -2.89522,-13.38275 -3.96881,-22.4601 -0.29272,-2.475 -0.93773,-5.85 -1.43336,-7.5 -0.49562,-1.65 -0.99786,-5.25 -1.11607,-8 -0.11822,-2.75 -0.58034,-5.73846 -1.02693,-6.64102 -0.44659,-0.90256 -1.25772,-5.56376 -1.8025,-10.35822 -0.54479,-4.79447 -1.52475,-9.36092 -2.1777,-10.14767 -0.98648,-1.18864 -4.33076,-1.32625 -19.78262,-0.81403 -22.35052,0.7409 -30.3099,1.5641 -32.4719,3.3584 -1.06897,0.88717 -1.62464,2.92814 -1.62674,5.97498 -0.002,2.54516 -0.70226,8.62408 -1.55667,13.50871 -0.85441,4.88463 -1.2952,9.55416 -0.97955,10.37674 0.31565,0.82259 0.12225,2.03982 -0.42978,2.70498 -0.55203,0.66516 -1.47122,5.89562 -2.04265,11.62325 -1.10443,11.07002 -1.28227,11.89505 -5.9092,27.41388 -5.40165,18.11729 -10.08705,37.60452 -10.08223,41.93342 0.002,1.61338 -0.85452,5.43838 -1.90292,8.5 -1.0484,3.06162 -2.43794,7.90679 -3.08786,10.76705 -0.64992,2.86026 -1.81713,5.72786 -2.59381,6.37245 -0.77668,0.64458 -1.41877,2.57937 -1.42688,4.29952 -0.008,1.72016 -0.64924,4.25256 -1.42474,5.62756 -0.7755,1.375 -2.34386,4.4697 -3.48526,6.87712 -4.12957,8.71005 -3.1492,9.32673 14.42474,9.07354 7.7,-0.11093 17.31391,-0.6338 21.36425,-1.16193 z M 495.5,494.10189 c 3.3,-0.0207 14.22729,-0.0481 24.28288,-0.061 19.74679,-0.0254 22.59467,-0.63505 25.79716,-5.52267 0.87938,-1.3421 2.45862,-2.71306 3.50942,-3.04657 1.0508,-0.33351 1.91054,-1.16496 1.91054,-1.84766 0,-0.6827 2.9801,-4.36487 6.62245,-8.18261 14.83924,-15.55379 23.2421,-24.50034 30.07432,-32.02022 3.95822,-4.35662 9.13322,-10.04244 11.5,-12.63517 2.36678,-2.59273 6.10323,-6.80249 8.30323,-9.35502 4.9548,-5.74876 4.8738,-5.66557 17.84719,-18.33029 C 631.38738,397.20416 636,391.89068 636,390.8292 c 0,-2.0872 -1.93583,-3.02519 -10,-4.84543 -3.025,-0.6828 -5.97578,-1.61661 -6.5573,-2.07513 -0.58151,-0.45852 -3.50651,-1.49788 -6.5,-2.30968 -7.9162,-2.14681 -19.60627,-6.98091 -28.17913,-11.65269 C 583.80853,369.42582 582.33993,369 581.5,369 c -0.83993,0 -2.30853,-0.39476 -3.26357,-0.87724 C 575.18941,366.5834 569.43838,365 566.89434,365 564.81795,365 556.50972,362.54478 551,360.30295 c -0.825,-0.33568 -2.21861,-0.52455 -3.09691,-0.41971 -0.8783,0.10483 -2.1709,-0.50101 -2.87245,-1.34632 C 544.3291,357.69162 542.88786,357 541.8279,357 c -1.05997,0 -3.14237,-0.61152 -4.62756,-1.35893 -1.48519,-0.74741 -4.44365,-1.62818 -6.57437,-1.95726 -2.13071,-0.32908 -4.67413,-1.32241 -5.65204,-2.2074 -0.9779,-0.88499 -2.38459,-1.49194 -3.12597,-1.34878 -2.44612,0.47237 -13.32263,-1.29958 -14.64559,-2.38598 -0.71369,-0.58608 -3.63869,-1.1607 -6.5,-1.27695 -6.08233,-0.2471 -14.84926,-2.10799 -15.64718,-3.32131 -0.30535,-0.46433 -2.13019,-0.8434 -4.05519,-0.84238 -5.75013,0.003 -36.2632,-3.30956 -39.5,-4.28826 -1.65,-0.49891 -6.375,-1.0099 -10.5,-1.13553 -4.125,-0.12564 -7.95,-0.54003 -8.5,-0.92087 -1.15179,-0.79755 -29.01632,-2.17368 -41.27835,-2.03859 -5.84801,0.0644 -8.95901,-0.35479 -10.59683,-1.42793 -1.52633,-1.00009 -6.10158,-1.73558 -13.39093,-2.15265 l -11.07245,-0.63352 -0.3418,2.89817 c -0.18799,1.59399 -0.0433,4.69817 0.32158,6.89817 0.36486,2.2 1.21276,7.825 1.88424,12.5 2.12472,14.79298 10.66384,49.39194 15.85706,64.25 1.10537,3.1625 1.75389,5.75 1.44117,5.75 -0.31272,0 -0.10375,0.5625 0.46438,1.25 0.56813,0.6875 1.3453,2.92147 1.72705,4.96437 0.38175,2.04291 1.29358,4.2119 2.02627,4.81998 0.7327,0.60809 1.65047,3.66162 2.03949,6.78563 0.38901,3.12401 1.30735,6.59811 2.04076,7.72023 0.7334,1.12211 2.44767,5.55083 3.80948,9.84159 1.36181,4.29076 2.88487,8.32267 3.38456,8.95979 0.4997,0.63713 1.23063,2.50134 1.62429,4.14269 0.39365,1.64135 1.8057,5.36719 3.13788,8.27964 1.33218,2.91244 2.42215,5.96666 2.42215,6.78716 0,0.82049 1.14739,3.22563 2.54976,5.34476 l 2.54977,3.85295 48.20023,-0.30468 C 467.80989,494.27654 492.2,494.12254 495.5,494.10189 Z M 652.01144,374.63342 c 0.006,-0.62338 2.9313,-4.28197 6.5,-8.1302 C 662.08015,362.65498 665,359.16748 665,358.75322 665,358.33895 663.86088,358 662.46862,358 c -1.39227,0 -2.79041,-0.675 -3.10699,-1.5 -0.31659,-0.825 -1.76496,-1.50297 -3.21862,-1.50659 C 654.68936,354.98979 652.15,354.09275 650.5,353 c -1.65,-1.09275 -3.62571,-1.98979 -4.39047,-1.99341 -0.76476,-0.004 -3.23976,-0.87442 -5.5,-1.93511 -2.26024,-1.06068 -7.93453,-3.11067 -12.60953,-4.55552 -4.675,-1.44485 -9.4,-3.21218 -10.5,-3.9274 -1.1,-0.71521 -4.55601,-1.61867 -7.68002,-2.00768 -3.12401,-0.38902 -6.17754,-1.30679 -6.78563,-2.03949 -0.60808,-0.73269 -2.77707,-1.63096 -4.81998,-1.99615 -2.0429,-0.36519 -6.18937,-1.50082 -9.21437,-2.52362 -3.025,-1.02281 -7.075,-2.17118 -9,-2.55193 -1.925,-0.38075 -4.24342,-1.34705 -5.15204,-2.14732 -0.90862,-0.80027 -2.25862,-1.33678 -3,-1.19225 C 569.68406,326.55197 561,324.94935 561,324.12815 c 0,-0.67564 -11.88915,-3.62492 -30.26093,-7.50668 -3.71852,-0.78568 -7.5455,-1.22334 -8.50441,-0.97258 -0.95891,0.25076 -3.94789,-0.51919 -6.64217,-1.711 -2.69428,-1.19181 -6.80951,-2.2872 -9.14495,-2.4342 -2.33544,-0.147 -6.42905,-0.76701 -9.0969,-1.3778 -2.66785,-0.61078 -8.00064,-1.83418 -11.85064,-2.71867 -6.99313,-1.60657 -13.69178,-2.75193 -25,-4.27456 -3.3,-0.44434 -6.675,-1.09305 -7.5,-1.44158 -1.26217,-0.53322 -26.32244,-2.84077 -31,-2.85448 -0.825,-0.002 -2.175,-0.25961 -3,-0.57154 -3.10531,-1.1741 -4.69604,-1.40187 -12,-1.71822 -19.17651,-0.83058 -30.98835,-1.80555 -36.5,-3.01278 -8.61559,-1.88709 -26.92212,-1.93529 -28.46607,-0.075 -1.29773,1.56367 -0.48617,18.19112 1.0057,20.60501 0.57061,0.92327 4.47437,1.37731 13.63,1.58527 13.41634,0.30475 18.99741,0.77929 26.0699,2.21663 2.33175,0.47388 8.1526,0.94785 12.93524,1.05326 4.78264,0.10541 9.13385,0.46244 9.66935,0.7934 0.53549,0.33095 5.96463,0.7618 12.06475,0.95743 6.10012,0.19564 12.44113,0.78475 14.09113,1.30913 1.65,0.52439 8.75793,1.43754 15.7954,2.02922 7.03748,0.59169 13.78748,1.49728 15,2.01244 1.21253,0.51516 6.9296,1.3961 12.7046,1.95766 5.775,0.56155 13.875,1.72882 18,2.59392 4.125,0.86511 10.2,1.88991 13.5,2.27734 3.3,0.38743 7.125,1.43286 8.5,2.32318 1.375,0.89032 5.65,1.93694 9.5,2.32583 7.57855,0.76552 9.90063,1.65461 12.7923,4.89799 1.51181,1.6957 1.7681,1.76412 1.32279,0.35318 -0.65688,-2.0813 1.46474,-2.32868 4.70065,-0.54809 1.20134,0.66105 2.63426,1.31616 3.18426,1.4558 0.55,0.13965 4.056,1.36178 7.79112,2.71586 3.73511,1.35407 10.48511,3.18443 15,4.06746 7.5912,1.4847 14.29446,3.43596 19.20888,5.59155 1.1,0.48249 4.30009,1.52975 7.11131,2.32725 4.8609,1.37896 8.0515,2.83694 11.38869,5.20421 0.825,0.58522 4.36383,1.62596 7.86407,2.31276 3.50024,0.6868 7.10024,1.61386 8,2.06013 4.55997,2.2617 13.1192,5.3671 16.9382,6.1454 2.36625,0.48224 4.99665,1.26539 5.84533,1.74034 1.97925,1.10764 6.3489,0.29106 6.36384,-1.18925 z M 14.44113,367.4682 C 15.508751,366.66069 17.048318,366 17.862389,366 c 0.814071,0 2.329535,-0.7687 3.367697,-1.70823 1.076697,-0.97439 3.179505,-1.60978 4.894975,-1.47906 1.737343,0.13238 4.210831,-0.62776 5.857015,-1.79995 1.567284,-1.116 4.349979,-2.31219 6.183766,-2.65819 1.833787,-0.346 4.009158,-1.16108 4.834158,-1.81129 2.299456,-1.81227 9.840642,-4.59064 16.5,-6.07904 3.3,-0.73757 10.5,-2.52568 16,-3.97359 5.5,-1.4479 11.816455,-2.96471 14.036566,-3.37068 2.220111,-0.40596 4.695111,-1.16153 5.5,-1.67904 0.804889,-0.51751 3.938434,-1.47419 6.963434,-2.12594 8.32751,-1.79422 17.307,-4.26932 19.11255,-5.26818 0.88691,-0.49064 4.48691,-1.44142 8,-2.11284 3.5131,-0.67142 6.83745,-1.5448 7.38745,-1.94085 0.55,-0.39604 2.99651,-1.02527 5.43668,-1.39827 2.44018,-0.373 5.81518,-1.29488 7.5,-2.04862 1.68483,-0.75374 5.53832,-1.91892 8.56332,-2.58929 3.025,-0.67037 6.04737,-1.65247 6.71638,-2.18244 0.66901,-0.52997 1.79401,-0.76341 2.5,-0.51876 0.70599,0.24465 3.01904,-0.15975 5.1401,-0.89867 2.12106,-0.73892 4.23352,-1.11046 4.69434,-0.82566 0.46083,0.28481 3.90042,-0.16878 7.64353,-1.00796 7.01699,-1.57318 17.76837,-3.44989 22.49392,-3.92644 4.66744,-0.47068 7.11785,-2.83147 7.43634,-7.16438 0.15899,-2.16295 0.51846,-5.28263 0.79881,-6.93263 0.69308,-4.07903 -1.74865,-7.4025 -4.27802,-5.82288 -0.99274,0.61998 -4.91908,1.45091 -8.72519,1.84652 -3.80612,0.3956 -7.37021,1.07095 -7.92021,1.50078 -0.55,0.42983 -5.25327,1.29541 -10.45172,1.92351 -5.19845,0.62811 -9.92345,1.52117 -10.5,1.98459 -0.57655,0.46342 -4.64828,1.37178 -9.04828,2.01857 -4.4,0.64679 -8.68291,1.2812 -9.51758,1.40979 -0.83467,0.12859 -1.98552,0.523 -2.55745,0.87647 -0.57193,0.35348 -3.48902,0.95587 -6.48242,1.33865 -2.9934,0.38279 -6.6577,1.30978 -8.14289,2.05999 -1.48519,0.75021 -4.64962,1.36401 -7.03207,1.36401 -2.38245,0 -6.7923,0.67594 -9.79966,1.50209 -3.00736,0.82615 -7.94293,1.9716 -10.96793,2.54544 -11.667748,2.21338 -16.61585,3.3782 -19.717881,4.64174 C 88.512284,320.41017 85.880292,321 84.433248,321 c -1.447044,0 -4.048998,0.60582 -5.782119,1.34627 -4.959024,2.11866 -9.603672,3.48929 -17.154237,5.06221 -9.018741,1.87877 -15.241314,3.56789 -18.996892,5.1567 -1.65,0.69804 -4.8,1.59012 -7,1.98238 -2.2,0.39227 -4.45,1.06225 -5,1.48883 -0.55,0.42659 -3.823459,1.32862 -7.274354,2.00451 -3.450894,0.67589 -6.514952,1.61819 -6.809017,2.094 C 16.122565,340.6107 14.585081,341 13,341 c -1.585081,0 -3.2324397,0.5625 -3.6607964,1.25 -0.8907177,1.42958 -1.4899883,22.35266 -0.71604,25 0.6190078,2.11735 3.1800654,2.2134 5.8179664,0.2182 z M 680,341.37756 C 680,340.6199 680.34536,340 680.76747,340 c 0.42211,0 2.95201,-2.09328 5.62199,-4.65174 4.83809,-4.636 6.49418,-7.23176 14.89617,-23.34826 2.43721,-4.675 5.61998,-10.70452 7.07283,-13.39894 1.45285,-2.69442 2.64154,-5.85679 2.64154,-7.02749 0,-1.17071 0.61631,-3.01619 1.36958,-4.10106 0.75327,-1.08488 1.61167,-3.54751 1.90757,-5.47251 0.29589,-1.925 1.07386,-5.525 1.72881,-8 1.56368,-5.90902 -0.41799,-36.45683 -2.78946,-43 -0.29901,-0.825 -0.73466,-3.05809 -0.96812,-4.96242 -0.23345,-1.90432 -1.22068,-5.05432 -2.19382,-7 -0.97315,-1.94567 -2.04244,-5.30025 -2.3762,-7.45463 -0.50125,-3.2355 -4.81777,-18.44507 -6.2672,-22.08295 -0.68361,-1.71575 -2.85889,-4.9079 -4.07299,-5.97696 -0.63901,-0.56267 -2.07284,-2.76288 -3.18629,-4.88935 -1.11345,-2.12647 -2.84062,-4.65441 -3.83816,-5.61763 -0.99755,-0.96323 -2.93872,-3.20345 -4.31372,-4.97827 -6.2139,-8.02078 -6.24561,-8.03811 -14.70455,-8.03405 -6.13989,0.003 -8.52275,0.44712 -11.22004,2.09147 -3.09013,1.88384 -6.50907,3.21148 -21.07541,8.184 -2.475,0.84489 -6.82378,2.01465 -9.66396,2.59947 -2.84018,0.58482 -8.46518,2.67875 -12.5,4.65318 -7.63645,3.73688 -13.83438,5.72607 -24.83604,7.97098 -3.575,0.72949 -7.83804,2.02728 -9.47342,2.88398 -1.63538,0.8567 -5.01038,1.8519 -7.5,2.21156 -2.48962,0.35965 -4.97658,1.00088 -5.52658,1.42495 C 567.41895,193.6279 553.21203,198 550.07911,198 c -1.79879,0 -4.46496,0.61261 -5.92482,1.36135 -3.5877,1.84009 -9.21303,3.83472 -11.65429,4.13238 -2.01819,0.24607 -6.3167,1.74898 -10,3.49634 -1.1,0.52185 -5.375,1.63148 -9.5,2.46585 -15.85366,3.20675 -23.51972,5.03387 -24.02903,5.72703 -0.29096,0.396 -2.99096,1.16548 -6,1.70994 -11.4022,2.06317 -18.54767,3.77237 -20.72906,4.9584 -1.24195,0.67526 -4.16695,1.16446 -6.5,1.08711 -7.48724,-0.24821 -36.04264,1.09355 -42.24191,1.98486 -3.3,0.47446 -9.825,0.92486 -14.5,1.00089 -4.675,0.076 -9.85,0.54259 -11.5,1.03679 -2.96963,0.88946 -24.67901,2.33933 -29.5,1.97018 -5.95017,-0.45562 -16.7143,1.0197 -17.90465,2.45399 -0.55392,0.66744 -1.20614,10.56445 -1.4725,22.34412 -0.41416,18.31697 -0.26967,21.31899 1.07999,22.43911 1.11307,0.92377 4.65529,1.21419 12.40136,1.01677 5.96378,-0.15199 12.54257,0.17539 14.61952,0.72751 2.07695,0.55212 9.81023,1.27005 17.18505,1.59541 7.37482,0.32535 14.12482,0.92889 15,1.3412 0.87518,0.41232 3.39123,0.65974 5.59123,0.54984 2.2,-0.1099 8.5,0.46812 14,1.28449 5.5,0.81636 14.5,1.86437 20,2.3289 18.65319,1.57547 41.30047,4.6917 43,5.91674 0.55,0.39644 3.1499,0.79036 5.77756,0.87537 2.62765,0.085 5.74698,0.67338 6.93184,1.3075 1.18486,0.63411 3.98495,1.26945 6.22244,1.41186 4.84269,0.30821 12.1616,1.70733 23.06816,4.4098 4.4,1.09025 11.375,2.64438 15.5,3.45362 4.125,0.80924 10.875,2.3838 15,3.49903 4.125,1.11522 10.425,2.76409 14,3.66415 3.575,0.90006 7.4,2.02562 8.5,2.50124 1.1,0.47562 4.025,1.37754 6.5,2.00427 2.475,0.62673 5.01017,1.55718 5.63371,2.06767 0.62354,0.51048 4.67354,1.59214 9,2.40369 4.32646,0.81154 8.76629,1.87533 9.86629,2.36396 1.1,0.48863 3.99224,1.42993 6.4272,2.09176 2.43497,0.66184 7.70166,2.73639 11.70377,4.61011 4.0021,1.87372 8.54723,3.40677 10.10029,3.40677 1.55305,0 3.72444,0.63089 4.82532,1.40197 1.10088,0.77108 4.0135,1.91486 6.47251,2.54173 2.459,0.62687 5.37091,1.52557 6.47091,1.99711 1.1,0.47154 3.575,1.42688 5.5,2.12296 1.925,0.69609 4.21884,1.87411 5.09742,2.61783 2.06984,1.75211 12.99714,3.25149 14.65258,2.01054 0.6875,-0.51537 1.25,-1.55693 1.25,-2.31458 z M 23.5,324.2932 c 7.744477,-2.50502 13.858357,-4.66078 18,-6.34681 4.963155,-2.02047 13.977662,-4.02035 26.5,-5.87906 3.025,-0.44901 7.975,-1.84004 11,-3.09118 3.025,-1.25114 7.75,-2.64703 10.5,-3.10199 8.425331,-1.39386 22.65018,-4.71481 31.5,-7.35403 2.475,-0.7381 7.2,-1.85832 10.5,-2.48938 3.3,-0.63106 7.35,-1.54232 9,-2.02501 1.65,-0.4827 5.25,-1.19279 8,-1.57798 2.75,-0.3852 6.11574,-1.11713 7.47942,-1.62653 1.36368,-0.5094 6.53868,-1.54598 11.5,-2.30352 10.39985,-1.58795 19.0975,-3.54021 25.52058,-5.72832 2.475,-0.84314 8.53461,-1.82924 13.4658,-2.19133 9.43274,-0.69264 10.49321,-1.27196 10.51889,-5.74627 0.0229,-3.9874 1.01036,-5.83179 3.1223,-5.83179 1.05218,0 1.89301,-0.6962 1.89301,-1.56739 0,-1.09388 -0.58361,-1.38216 -1.93186,-0.95424 -1.65541,0.52541 -2.01245,-0.002 -2.49495,-3.68261 -0.30969,-2.36267 -0.52677,-6.09576 -0.4824,-8.29576 0.0444,-2.2 -0.16488,-9.625 -0.465,-16.5 -0.30012,-6.875 -0.5637,-14.60718 -0.58573,-17.18261 -0.0489,-5.71147 -0.47174,-5.90289 -13.87982,-6.283 -10.62922,-0.30134 -19.80433,-2.00781 -22.22389,-4.1334 -1.11655,-0.9809 -1.87148,-1.06586 -2.64019,-0.29715 -2.08006,2.08006 -15.49624,0.23288 -27.29616,-3.75821 -2.475,-0.83712 -7.18793,-1.97868 -10.47318,-2.53681 -3.28525,-0.55812 -7.05844,-1.86843 -8.38486,-2.9118 -1.4086,-1.108 -3.99474,-1.89702 -6.2178,-1.89702 -2.09337,0 -4.08878,-0.45734 -4.43424,-1.01631 -0.34546,-0.55897 -1.08611,-0.73326 -1.64588,-0.3873 -0.55978,0.34596 -2.66618,-0.0681 -4.68091,-0.92001 -2.01472,-0.85197 -5.76383,-1.82474 -8.33136,-2.16172 -2.56753,-0.33697 -5.21013,-1.26563 -5.872445,-2.06367 C 99.297007,191.65295 97.437864,191 95.827895,191 c -1.609968,0 -4.367368,-0.75363 -6.127555,-1.67474 -1.760187,-0.9211 -4.502559,-1.8244 -6.094161,-2.00732 -1.591601,-0.18293 -4.344717,-1.2293 -6.118034,-2.32527 C 75.535077,183.78561 72.513133,183 69.823096,183 c -2.44246,0 -5.314345,-0.66069 -6.381966,-1.4682 -1.067622,-0.8075 -3.32863,-1.4825 -5.024463,-1.5 -1.695834,-0.0175 -3.360162,-0.30863 -3.698508,-0.64697 -1.127108,-1.12711 -19.548323,-7.22133 -20.115062,-6.65459 -0.306786,0.30678 -2.930487,-0.15156 -5.830445,-1.01854 C 21.477087,169.53059 10.39916,168.54513 9.5016067,169.9974 8.9811742,170.83948 8.5815761,284.10292 8.9588808,323.82946 L 9,328.15891 l 3.25,-0.63902 c 1.7875,-0.35146 6.85,-1.80347 11.25,-3.22669 z m 189.04271,-56.2241 c -0.73955,-1.1966 1.14162,-2.38223 2.4736,-1.55902 C 216.13467,267.20126 215.40048,269 214,269 c -0.48508,0 -1.14086,-0.41891 -1.45729,-0.9309 z M 275.5,312.91389 c 10.04929,-1.04859 17.24149,-1.19169 18.5718,-0.36951 0.39365,0.24329 2.39936,-0.26112 4.45712,-1.12091 l 3.74138,-1.56325 -0.63515,-6.0768 C 301.28582,300.44118 301,296.01665 301,293.95113 c 0,-3.2208 -0.39153,-3.87847 -2.75,-4.61934 -1.5125,-0.47513 -6.575,-0.75319 -11.25,-0.61792 -4.675,0.13528 -13.5305,0.28284 -19.6789,0.32791 -7.34419,0.0538 -11.50392,0.48951 -12.1264,1.27008 -0.52113,0.65348 -1.26569,5.82177 -1.65458,11.4851 -0.87416,12.73032 -0.37455,13.65413 6.90746,12.77224 2.77883,-0.33653 9.55242,-1.08142 15.05242,-1.65531 z m 4.69005,-39.59695 c 9.17953,-0.34364 17.24033,-0.9649 17.9129,-1.38056 1.92466,-1.18951 1.28505,-43.85016 -0.69017,-46.03276 C 295.67777,223.98646 285.80796,222.8541 269,222.64385 L 257.5,222.5 256.68344,230 c -0.4491,4.125 -0.72816,11.55 -0.62013,16.5 0.20629,9.45222 0.1978,14.87791 -0.0356,22.75391 -0.18339,6.18824 0.28336,6.81009 4.23579,5.64329 1.78009,-0.5255 10.74704,-1.23662 19.92657,-1.58026 z m 72.17073,-60.92711 c 2.27657,0.31832 4.58922,0.64377 5.13922,0.72322 3.07557,0.44428 31.77459,-1.44629 36,-2.37152 2.75,-0.60217 8.375,-1.18125 12.5,-1.28685 4.125,-0.1056 8.17903,-0.48262 9.00896,-0.83783 0.82993,-0.35521 9.66547,-0.76609 19.63453,-0.91307 11.51131,-0.16971 18.62385,-0.67589 19.49104,-1.38713 0.75101,-0.61594 4.51547,-1.41829 8.36547,-1.78299 3.85,-0.36471 7.9,-1.02628 9,-1.47016 2.42644,-0.97914 15.10372,-3.70951 26,-5.59975 4.4,-0.76329 10.475,-2.13162 13.5,-3.04072 3.025,-0.90909 6.61868,-1.64218 7.98596,-1.62906 1.36727,0.0131 3.27819,-0.40016 4.24648,-0.91837 0.96829,-0.51821 4.15801,-1.3854 7.08828,-1.92709 2.93026,-0.54169 7.077,-1.8767 9.21496,-2.9667 2.13796,-1.09 4.86195,-1.98181 6.05332,-1.98181 1.19136,0 2.71643,-0.66309 3.38904,-1.47354 0.67261,-0.81044 2.86521,-1.74283 4.87244,-2.07196 2.00724,-0.32914 4.54952,-0.99528 5.64952,-1.48032 1.1,-0.48504 4.025,-1.4022 6.5,-2.03814 2.475,-0.63594 5.4,-1.5167 6.5,-1.95725 1.1,-0.44055 4.925,-1.36314 8.5,-2.05021 3.575,-0.68706 7.38763,-1.85207 8.47251,-2.58889 1.08487,-0.73683 2.88487,-1.354 4,-1.37149 1.11512,-0.0175 2.901,-0.6925 3.96862,-1.5 1.06762,-0.80751 2.64262,-1.47097 3.5,-1.47436 0.85738,-0.003 2.8435,-0.67615 4.41359,-1.49503 1.5701,-0.81888 5.48309,-1.91215 8.69553,-2.4295 3.21244,-0.51735 6.76531,-1.43542 7.89527,-2.04015 1.12997,-0.60474 2.05448,-0.78895 2.05448,-0.40936 0,0.3796 0.82498,-0.0564 1.83328,-0.96892 1.00831,-0.91251 5.08679,-2.51328 9.06329,-3.55728 3.9765,-1.04399 8.02446,-2.61714 8.99546,-3.49589 0.971,-0.87874 2.94096,-1.59771 4.37769,-1.59771 1.43674,0 2.85221,-0.38827 3.1455,-0.86283 0.29329,-0.47455 2.68235,-1.44438 5.30902,-2.15517 5.13689,-1.39007 7.27576,-2.63458 7.27576,-4.23345 0,-0.55361 -2.3625,-3.33662 -5.25,-6.18446 -2.8875,-2.84785 -6.97545,-7.0648 -9.08433,-9.371 -4.06587,-4.44629 -9.12398,-5.76829 -10.30404,-2.69309 -0.31659,0.825 -1.27138,1.5 -2.12178,1.5 -0.85039,0 -4.51474,1.40656 -8.14301,3.12568 -6.15678,2.91718 -14.97323,6.2962 -19.59684,7.51075 -1.1,0.28895 -3.575,1.34004 -5.5,2.33575 -1.925,0.99571 -5.075,2.12694 -7,2.51384 -1.925,0.38691 -6.65,1.81734 -10.5,3.17873 -3.85,1.3614 -9.25,3.09863 -12,3.86051 -11.57237,3.20612 -19.21438,5.3782 -22.4934,6.39329 -1.92137,0.5948 -5.00039,1.08145 -6.84227,1.08145 -1.84188,0 -4.44279,0.86047 -5.77979,1.91216 -1.73937,1.36819 -4.8966,2.11756 -11.09813,2.63414 -4.78544,0.39862 -10.48538,1.5478 -12.72681,2.56588 -2.23278,1.01414 -5.98793,1.85378 -8.34478,1.86586 -2.35685,0.0121 -5.28185,0.66069 -6.5,1.44136 -1.21815,0.78068 -4.91482,1.73153 -8.21482,2.11301 -7.14966,0.82649 -16.29035,3.05198 -17.86892,4.35054 -0.62209,0.51175 -8.00495,1.88789 -16.40634,3.0581 -8.40139,1.17021 -16.40174,2.55594 -17.77855,3.07941 -1.37681,0.52346 -5.32873,1.10285 -8.78203,1.28753 -3.45331,0.18467 -6.92796,0.74033 -7.72145,1.23479 -0.79349,0.49447 -13.81771,0.99779 -28.94271,1.11849 -35.189,0.28084 -39.95425,0.45568 -40.59314,1.48944 -0.28869,0.46711 -3.1825,0.84929 -6.43069,0.84929 -4.60922,0 -6.10675,0.3842 -6.82111,1.75 -0.50341,0.9625 -1.22216,6.475 -1.59721,12.25 l -0.68192,10.5 2.81204,1.59549 c 1.96946,1.11743 3.36958,1.31385 4.67281,0.65553 1.02343,-0.51698 3.72343,-0.67952 6,-0.36119 z m -53.8982,-4.70955 c 1.81113,-1.81113 3.81389,-21.73714 2.33358,-23.21745 -0.24084,-0.24084 -5.80601,-0.65046 -12.36703,-0.91026 -6.56102,-0.2598 -16.34891,-0.96872 -21.75086,-1.57538 -13.19455,-1.4818 -13.0444,-1.62836 -12.47559,12.17736 0.43317,10.51325 1.66638,14.47867 4.20753,13.52934 0.59939,-0.22391 1.86148,-0.13189 2.80466,0.2045 0.94317,0.33638 9.43059,0.70634 18.86092,0.82211 12.5548,0.15413 17.4783,-0.12173 18.38679,-1.03022 z m -83.85215,-14.68649 c 0.13307,-7.82504 -1.19035,-17.97371 -2.5168,-19.30016 -0.52913,-0.52913 -8.50667,-1.14626 -17.72786,-1.3714 -9.2212,-0.22514 -17.26676,-0.82509 -17.87902,-1.33323 -0.61226,-0.50813 -2.76845,-0.65527 -4.79151,-0.32697 -2.09024,0.3392 -4.2424,0.12876 -4.98486,-0.48743 -0.71861,-0.59639 -6.45992,-1.63211 -12.75847,-2.3016 -6.29855,-0.66949 -12.12691,-1.75419 -12.95191,-2.41045 -0.825,-0.65626 -3.72077,-1.48161 -6.43504,-1.83411 -2.71427,-0.3525 -5.94509,-1.30272 -7.1796,-2.1116 -1.23451,-0.80888 -4.16213,-1.77732 -6.50583,-2.1521 -2.34371,-0.37477 -5.41289,-1.28238 -6.82041,-2.01691 -1.40751,-0.73453 -4.93518,-1.33828 -7.83925,-1.34167 -5.57239,-0.006 -16.760157,-3.93211 -18.85248,-6.61503 -0.812493,-1.04183 -2.225674,-1.27791 -5,-0.83526 -3.067389,0.48941 -4.364472,0.18545 -6.2704,-1.46941 C 74.530648,145.72645 72.314241,145 69.731204,145 65.765197,145 57.700377,142.81057 53,140.45782 c -1.375,-0.68825 -4.920375,-1.96574 -7.878612,-2.83888 -2.958236,-0.87314 -5.883236,-1.98127 -6.5,-2.46252 -0.616763,-0.48125 -2.664704,-1.16823 -4.55098,-1.52663 -1.886276,-0.35839 -7.883934,-2.30388 -13.328129,-4.32331 C 12.469362,126.23779 10.697099,125.87007 9.9508174,127.0674 9.4597085,127.85533 9.121105,133.675 9.1983653,140 9.3510615,152.50065 10.269878,155 14.71269,155 18.460661,155 37.214083,159.06067 40,160.47545 43.194807,162.09788 49.203499,164 51.133845,164 c 0.820516,0 3.938567,1.22549 6.929002,2.72332 2.990434,1.49782 5.887153,2.75063 6.437153,2.78402 1.028139,0.0624 5.166103,1.06641 16.5,4.00337 3.575,0.92639 8.975,1.91193 12,2.19008 3.025,0.27815 6.474134,1.11949 7.66474,1.86966 1.19061,0.75016 5.07784,1.8293 8.63828,2.39808 3.56045,0.56879 7.76132,1.70578 9.33526,2.52665 1.57395,0.82088 3.86511,1.49527 5.09148,1.49866 1.22637,0.003 3.92637,0.61668 6,1.36287 7.53277,2.71065 10.96078,3.64329 13.39124,3.64329 1.36345,0 2.9065,0.37755 3.429,0.839 1.26158,1.11418 9.58918,2.8452 22.45,4.66658 5.775,0.81787 13.2,1.95144 16.5,2.51904 3.3,0.56761 9.6,1.29984 14,1.62719 4.4,0.32735 8.075,0.65211 8.16667,0.72168 0.0917,0.0696 1.66666,0.12372 3.5,0.1203 l 3.33333,-0.006 z M 555,188.55902 c 0,-0.24254 -0.45,-0.7191 -1,-1.05902 -0.55,-0.33992 -1,-0.14148 -1,0.44098 0,0.58246 0.45,1.05902 1,1.05902 0.55,0 1,-0.19844 1,-0.44098 z M 87.413797,179.13948 c 0.292506,-0.47329 0.275069,-1.11728 -0.03875,-1.4311 C 86.594671,176.928 84,178.00323 84,179.10699 c 0,1.14261 2.711753,1.16842 3.413797,0.0325 z m 215.915723,-8.86363 c 0.30373,-0.49145 0.64172,-3.56707 0.75108,-6.8347 0.10937,-3.26763 0.7824,-7.39023 1.49563,-9.16132 0.71323,-1.77109 1.5923,-6.49609 1.95347,-10.5 0.36118,-4.00391 1.12502,-9.07983 1.69742,-11.27983 0.5724,-2.2 1.20764,-5.72114 1.41163,-7.82475 0.20399,-2.10362 0.81872,-4.66153 1.36607,-5.68426 0.54735,-1.02273 1.00173,-3.35159 1.00973,-5.17525 0.008,-1.82366 0.72235,-5.34074 1.58742,-7.81574 0.86508,-2.475 1.96455,-6.75 2.44326,-9.5 0.96752,-5.557884 1.00811,-5.732164 3.95969,-17 1.15257,-4.4 2.51527,-9.944067 3.02823,-12.32015 0.51296,-2.376082 2.48474,-9.126082 4.38174,-15 1.89699,-5.873917 3.76064,-12.25485 4.14143,-14.17985 0.3808,-1.925 1.47313,-4.625 2.42741,-6 3.5431,-5.105157 8.52311,-18.236945 7.71479,-20.3431 -0.32952,-0.858588 -14.46543,-1.121457 -54.82127,-1.019447 -29.90749,0.0756 -56.40225,0.320216 -58.87725,0.543593 -2.475,0.223377 -6.1875,0.499023 -8.25,0.612547 -4.60785,0.253625 -4.87165,2.10224 -1.37085,9.606494 5.07963,10.8886 6.62085,14.720208 6.62085,16.459998 0,0.99362 0.3372,2.143778 0.74933,2.555907 0.41212,0.412129 1.28112,2.849629 1.9311,5.416667 0.64998,2.567037 2.13147,7.817341 3.29219,11.667341 1.16073,3.85 3.0149,11.05 4.12037,16 1.10547,4.95 2.38966,10.575 2.85376,12.5 2.83092,11.742135 5.05325,23.78669 5.05325,27.38757 0,2.29208 0.65188,5.09811 1.44863,6.23563 0.79675,1.13751 1.73604,5.40014 2.08731,9.4725 0.89216,10.34308 1.13092,11.93338 2.38778,15.9043 0.6093,1.925 1.39244,7.42814 1.74031,12.22919 0.69669,9.615 1.80088,11.50885 7.36892,12.63873 5.06551,1.02791 43.69355,1.38364 44.29657,0.40793 z m 51.81786,-1.3001 c 2.00605,-0.5572 17.30605,-1.18645 34,-1.39833 28.71987,-0.36453 38.40485,-0.86545 41.85262,-2.16469 0.825,-0.31088 5.325,-0.98482 10,-1.49764 8.90461,-0.97678 10.53984,-1.25084 13,-2.1788 0.825,-0.31118 3.075,-0.82174 5,-1.13457 1.925,-0.31283 7.1,-1.29014 11.5,-2.1718 4.4,-0.88166 10.025,-1.98202 12.5,-2.44526 12.07001,-2.2591 20.03138,-3.94593 25.4601,-5.3944 3.27805,-0.87464 6.84262,-1.59026 7.92126,-1.59026 1.07864,0 2.67159,-0.62132 3.5399,-1.38071 1.44212,-1.26123 11.19576,-3.37815 18.57874,-4.0323 1.65,-0.14619 5.10881,-1.20978 7.68625,-2.36353 2.57743,-1.15375 7.52743,-2.61358 11,-3.24407 3.47256,-0.63049 7.21375,-1.50366 8.31375,-1.94037 1.1,-0.43671 4.475,-1.36242 7.5,-2.05713 3.025,-0.69471 6.38763,-1.87483 7.47251,-2.6225 1.08487,-0.74766 2.77401,-1.35939 3.75362,-1.35939 0.97962,0 3.46032,-0.9 5.51269,-2 2.05236,-1.1 4.77307,-2 6.04603,-2 1.27296,0 3.54517,-0.63642 5.04936,-1.41427 1.5042,-0.77785 4.51935,-1.73652 6.70035,-2.13039 2.18099,-0.39387 4.41544,-1.05313 4.96544,-1.46503 0.55,-0.4119 4.375,-2.17967 8.5,-3.92839 10.87057,-4.60836 12,-5.24823 12,-6.79853 0,-0.76926 -2.79906,-4.17175 -6.22012,-7.5611 -3.42107,-3.389347 -8.91879,-9.321413 -12.21715,-13.182369 -3.29836,-3.860957 -7.13681,-8.212828 -8.52988,-9.670826 C 604.63978,78.391098 603.05,76.721712 602.5,76.13935 c -0.55,-0.582362 -3.1375,-3.024817 -5.75,-5.427678 -2.6125,-2.402861 -4.75999,-4.783476 -4.7722,-5.290255 -0.0122,-0.506779 -3.16222,-4.069196 -7,-7.916481 C 581.14001,53.657651 578,50.179367 578,49.775416 c 0,-0.40395 -3.34149,-4.108638 -7.42554,-8.232639 -4.08404,-4.124001 -7.71071,-8.295717 -8.05925,-9.270481 C 562.16666,31.297533 558.94757,28.025 555.36166,25 c -3.5859,-3.025 -7.60267,-7.168152 -8.92614,-9.207004 -1.32348,-2.038852 -3.23403,-4.149978 -4.24567,-4.691391 -1.81468,-0.971188 -68.26846,-0.74193 -76.66284,0.264478 -2.18514,0.261979 -4.40383,0.210044 -4.93043,-0.115409 -0.99042,-0.612115 -15.01177,-0.48961 -22.16534,0.193659 -2.23782,0.213744 -7.78146,0.06957 -12.3192,-0.320396 -4.53774,-0.389961 -8.42289,-0.42999 -8.63366,-0.08895 -0.21077,0.341036 -7.26713,0.453375 -15.6808,0.249642 -18.74629,-0.453932 -20.04785,-0.0018 -20.84532,7.240796 -0.30126,2.736019 -1.53876,6.869152 -2.75,9.184741 C 376.99102,30.025751 376,32.619357 376,33.473731 c 0,0.854374 -0.42128,2.334801 -0.93619,3.289838 -0.5149,0.955037 -2.36714,6.461431 -4.11608,12.236431 -1.74894,5.775 -3.77517,11.920131 -4.50273,13.655847 -0.72757,1.735716 -1.83448,6.010716 -2.4598,9.5 C 363.35987,75.645131 362.25776,80.525 361.53607,83 c -0.7217,2.475 -1.76528,6.75 -2.31907,9.5 -0.5538,2.75 -1.98494,8.6 -3.18032,13 -1.19539,4.4 -2.58528,10.89587 -3.08865,14.43527 -0.50337,3.53939 -1.31872,7.81439 -1.8119,9.5 -0.49318,1.6856 -1.6474,6.66473 -2.56495,11.06473 -0.91755,4.4 -2.37808,10.925 -3.24563,14.5 -3.3637,13.86119 -3.18153,15.00264 2.39307,14.99442 2.07976,-0.003 5.4227,-0.46147 7.42876,-1.01867 z M 487,160.44098 c 0,-1.83298 -1.41441,-1.8515 -2.91929,-0.0382 -0.89421,1.07746 -0.86463,1.50997 0.12755,1.86506 1.73138,0.61964 2.79174,-0.0742 2.79174,-1.82683 z M 210.98201,157.75 c -0.01,-1.7875 -1.12117,-9.55 -2.4695,-17.25 -1.34834,-7.7 -3.15906,-18.05 -4.02383,-23 -0.86477,-4.95 -2.2285,-11.18918 -3.0305,-13.86483 C 200.65618,100.95951 200,97.682553 200,96.353047 c 0,-1.329506 -0.675,-4.032787 -1.5,-6.00729 -0.825,-1.974503 -1.5,-4.593026 -1.5,-5.818942 0,-1.225915 -1.125,-4.344771 -2.5,-6.93079 -1.375,-2.58602 -2.5,-5.741151 -2.5,-7.011402 0,-1.270251 -1.35,-5.583332 -3,-9.584623 -1.65,-4.001291 -3,-8.046161 -3,-8.988598 0,-0.942438 -1.09679,-3.776294 -2.4373,-6.297458 -1.34052,-2.521164 -2.91112,-7.147039 -3.49023,-10.279722 -0.89548,-4.844124 -2.85528,-9.920108 -7.20861,-18.670653 C 172.38874,15.808532 172,14.346032 172,13.513569 172,12.681106 171.19,12 170.2,12 c -0.99,0 -2.28372,-0.483718 -2.87493,-1.074929 -0.76657,-0.766572 -2.86026,-0.723686 -7.29859,0.149501 -3.77476,0.74264 -6.47997,0.859012 -6.87507,0.295749 C 152.79314,10.859547 151.375,10.543116 150,10.667141 148.625,10.791166 116.78413,10.997585 79.242516,11.12585 14.551073,11.346874 10.898565,11.454603 9.3299725,13.187878 7.8200702,14.856302 7.7309658,19.098372 8.3140186,61.555259 8.6655267,87.151468 9.3464119,108.79659 9.8270967,109.65552 10.980662,111.71683 24.29845,117.54388 30,118.48195 c 2.475,0.40721 6.387811,1.59036 8.695136,2.62922 2.307325,1.03885 4.557325,1.8916 5,1.89499 0.442675,0.003 2.140284,0.7025 3.772464,1.55359 1.63218,0.85109 7.03218,2.88974 12,4.53034 4.96782,1.6406 10.66867,3.86649 12.668555,4.94641 1.999884,1.07993 5.010827,1.9635 6.690983,1.9635 1.680155,0 3.301415,0.39899 3.6028,0.88664 0.301384,0.48765 2.240442,1.1891 4.309017,1.55878 4.499989,0.80421 23.038315,6.36511 25.497475,7.64842 0.95504,0.49839 3.07039,0.90616 4.70078,0.90616 3.67776,0 13.21319,1.96521 14.56279,3.00133 0.55,0.42225 2.575,1.09215 4.5,1.48868 1.925,0.39652 4.85,1.30854 6.5,2.02672 3.06276,1.33309 8.33135,2.19469 19,3.10717 3.3,0.28224 6.675,0.76873 7.5,1.08107 0.825,0.31235 3.525,0.75769 6,0.98965 9.31651,0.87317 24.7056,1.95532 30.25,2.12717 L 211,161 Z m 386.74716,-27.35417 c -0.33229,-0.33229 -1.1948,-0.36781 -1.91667,-0.0789 -0.79773,0.31922 -0.56078,0.55618 0.60417,0.60416 1.05416,0.0434 1.64479,-0.19293 1.3125,-0.52522 z"
       id="path1" />
  </g>
</svg>
