<?xml version="1.0" encoding="UTF-8" standalone="no"?>
<!-- Created with Inkscape (http://www.inkscape.org/) -->

<svg
   version="1.1"
   id="svg1"
   width="724"
   height="505"
   viewBox="0 0 724 505"
   sodipodi:docname="4.svg"
   inkscape:version="1.4 (86a8ad7, 2024-10-11)"
   xmlns:inkscape="http://www.inkscape.org/namespaces/inkscape"
   xmlns:sodipodi="http://sodipodi.sourceforge.net/DTD/sodipodi-0.dtd"
   xmlns="http://www.w3.org/2000/svg"
   xmlns:svg="http://www.w3.org/2000/svg">
  <defs
     id="defs1" />
  <sodipodi:namedview
     id="namedview1"
     pagecolor="#ffffff"
     bordercolor="#000000"
     borderopacity="0.25"
     inkscape:showpageshadow="2"
     inkscape:pageopacity="0.0"
     inkscape:pagecheckerboard="0"
     inkscape:deskcolor="#d1d1d1"
     inkscape:zoom="1.1131681"
     inkscape:cx="374.60649"
     inkscape:cy="238.95762"
     inkscape:window-width="1920"
     inkscape:window-height="1013"
     inkscape:window-x="2391"
     inkscape:window-y="605"
     inkscape:window-maximized="1"
     inkscape:current-layer="g1" />
  <g
     inkscape:groupmode="layer"
     inkscape:label="Image"
     id="g1">
    <path
       id="path1"
       style="fill:#000000"
       d="m 194.97266,4.2558594 c -3.65954,0.017624 -8.82885,0.2407475 -15.99219,0.671875 C 168.08015,5.5837731 154.06208,5.997003 147.83008,5.8457031 136.36371,5.5673233 109.91929,5.7593093 80.275391,6.3359375 71.284002,6.5108364 63.64152,6.2411295 63.132812,5.7324219 62.575549,5.1751583 61.361101,5.2711197 60.042969,5.9765625 58.5375,6.7822653 57.490844,6.8224346 56.626953,6.1054688 55.799083,5.4183971 47.46935,5.2792131 31.802734,5.6914062 L 8.2226562,6.3105469 7.1328125,9.953125 C 6.5326949,11.956139 6.0424102,20.548023 6.0429688,29.046875 6.0439423,43.857416 5.7621476,59.540312 4.3515625,123.5 c -0.3517658,15.95 -0.6033961,29.9 -0.5585937,31 0.193909,4.76092 -0.1173597,27.39295 -0.4335938,31.5 -0.5613967,7.29107 -1.5212716,59.04186 -1.7148438,92.5 -0.098643,17.05 -0.5765413,72.41192 -1.06249995,123.02734 -0.81531045,84.91933 -0.75545947,92.15665 0.76757815,93.67969 0.011324,0.0113 0.016107,0.0411 0.027344,0.0527 0.6378205,0.0708 1.2748923,0.14906 1.9101563,0.24414 1.5346173,0.2129 3.0846352,0.27848 4.6132812,0.52148 0.4142979,-0.10899 0.8365365,-0.20727 1.4609375,-0.30859 C 12.01381,495.28636 32.825496,495.40993 35,495.86914 c 0.991694,0.20948 69.33359,0.32946 98,0.17188 25.39435,-0.13961 32.52212,-0.14609 33,-0.0293 0.275,0.0673 7.7,0.0232 16.5,-0.0977 29.27977,-0.40214 87.55362,-1.2e-4 88.54297,0.61133 0.53644,0.33156 1.96331,0.28983 3.17187,-0.0937 1.20855,-0.38358 21.98224,-0.64503 46.16211,-0.58203 28.86442,0.0752 44.38817,-0.23966 45.20313,-0.91602 0.85332,-0.70819 1.44511,-0.70326 1.89062,0.0176 0.35642,0.57671 3.45613,1.04883 6.88868,1.04883 3.5914,0 6.75993,0.51967 7.46484,1.22461 0.96661,0.96658 1.65078,0.95943 3.24023,-0.0332 1.45186,-0.9067 4.47688,-1.0717 10.83399,-0.5918 6.20938,0.46874 9.02928,0.32661 9.52929,-0.48242 0.39061,-0.63207 1.15294,-0.87697 1.69336,-0.54297 1.43801,0.88874 116.98588,1.06155 117.53321,0.17578 0.69039,-1.11732 8.13061,-0.90705 8.8457,0.25 1.0501,1.6991 10.74427,1.16006 13.58789,-0.75586 1.42318,-0.95888 4.74952,-4.21914 7.39258,-7.24414 2.64307,-3.025 12.50335,-13.54442 21.91211,-23.37695 9.40876,-9.83252 19.35742,-20.3598 22.10742,-23.39258 2.75,-3.03277 9.73421,-10.2864 15.51953,-16.12109 5.78532,-5.8347 15.32328,-16.00938 21.19727,-22.60938 5.87398,-6.6 12.84172,-14.42887 15.48242,-17.39844 2.64069,-2.96956 6.93575,-6.94771 9.54492,-8.83984 2.65801,-1.92756 6.30559,-5.97307 8.29688,-9.19922 1.9547,-3.16686 4.88418,-6.73904 6.50781,-7.93945 1.62364,-1.2004 2.95303,-2.73131 2.95703,-3.40235 0.004,-0.67103 2.59119,-3.75643 5.75,-6.85547 4.04721,-3.97063 7.04296,-8.25267 10.14258,-14.5 2.41922,-4.87596 5.68172,-10.50562 7.25,-12.50976 C 702.71672,319.85132 704,317.94768 704,317.625 c 0,-0.32267 1.50681,-2.95729 3.34961,-5.85547 1.8428,-2.89818 3.60971,-6.39453 3.92578,-7.76953 0.31608,-1.375 2.18426,-6.96355 4.15039,-12.41797 C 717.39191,286.12762 719,280.41821 719,278.89258 c 0,-1.52563 0.41503,-3.03051 0.92188,-3.34375 0.50685,-0.31325 1.19808,-3.60189 1.5371,-7.3086 0.33902,-3.70671 1.11428,-8.40553 1.72266,-10.4414 1.82574,-6.1096 -0.66084,-32.83693 -3.70312,-39.79883 -1.3219,-3.025 -3.33986,-8.47801 -4.48438,-12.11719 -1.14452,-3.63919 -3.18612,-7.65464 -4.53711,-8.92383 C 709.10604,195.68979 708,194.03095 708,193.27148 708,191.42811 701.82935,180 700.83398,180 c -0.43062,0 -1.42248,-1.2375 -2.20507,-2.75 -0.78259,-1.5125 -4.05635,-5.49226 -7.27539,-8.84375 -3.21903,-3.35149 -7.65352,-8.28471 -9.85352,-10.96289 -2.2,-2.67819 -5.9125,-7.03827 -8.25,-9.68945 -2.3375,-2.65119 -4.25,-5.18824 -4.25,-5.63672 0,-1.14424 -8.84069,-9.74334 -12.75195,-12.4043 -1.78832,-1.21665 -3.51919,-3.0457 -3.84766,-4.0625 -0.32846,-1.0168 -1.3418,-2.61438 -2.25,-3.55078 -2.39314,-2.46743 -9.8775,-11.17753 -15.65039,-18.21289 -2.75,-3.35139 -8.43376,-9.759598 -12.63086,-14.240236 C 614.82876,82.130481 603.78157,69.594706 593.63867,57.609375 591.36205,54.919213 586.35,49.43284 582.5,45.417969 570.97252,33.396838 565.0214,26.671211 563.10547,23.5 562.1086,21.85 559.04694,18.196754 556.30273,15.380859 553.55852,12.564963 551.02545,9.507376 550.67188,8.5859375 550.31829,7.6644989 548.44864,6.2502103 546.51758,5.4433594 543.15746,4.0394153 509.68837,4.0248147 394.16016,5.3789062 388.47312,5.4455634 383.67876,5.275 383.50586,5 383.09072,4.3397148 336.52766,4.5645979 335.38477,5.2324219 334.89854,5.5165398 332.25,5.4685904 329.5,5.125 323.71038,4.4016338 256.20181,4.5487343 225.75391,5.3515625 212.05684,5.7127167 203.95434,5.5310571 201.9043,4.8164062 200.78203,4.4251817 198.63219,4.2382353 194.97266,4.2558594 Z M 58.207031,11.445312 c 0.282869,-0.09438 0.581606,-0.07618 0.828125,0.07617 2.097796,1.296509 20.428979,1.962686 48.117184,1.75 23.97006,-0.184124 29.74981,0.02982 30.16407,1.109375 0.28185,0.73449 -0.33508,3.085782 -1.36914,5.226563 C 129.60753,32.732354 126,41.221548 126,43.011719 c 0,1.128689 -1.575,5.297519 -3.5,9.265625 -1.925,3.968105 -3.5,8.216339 -3.5,9.439453 0,1.223114 -1.125,4.683395 -2.5,7.689453 -1.375,3.006057 -2.5,6.588028 -2.5,7.958984 C 114,80.655839 111.52461,83 108.05078,83 c -1.54355,0 -4.42197,0.675 -6.39648,1.5 -1.974503,0.825 -4.848412,1.5 -6.386722,1.5 -1.538311,0 -4.416736,0.868606 -6.396484,1.929688 -1.979748,1.061081 -5.349221,2.235677 -7.486328,2.611328 -2.137107,0.375651 -4.881461,1.307045 -6.09961,2.070312 C 74.067007,93.374595 72.431583,94 71.650391,94 68.404595,94 49.751575,100.46172 47,102.53906 c -0.825,0.62285 -3.075,1.73754 -5,2.47852 -1.925,0.74099 -4.573093,2.16446 -5.884766,3.16406 C 34.803562,109.18124 33.190897,110 32.53125,110 c -0.659647,0 -3.637888,1.6875 -6.617188,3.75 -2.979299,2.0625 -7.118677,4.5375 -9.199218,5.5 -4.345652,2.01039 -4.425808,2.02457 -5.097656,0.9375 -0.98267,-1.59 -0.469216,-48.25547 0.957031,-86.871094 0.53898,-14.592901 0.883978,-17.292838 2.28125,-17.912109 3.144727,-1.393744 14.723845,-2.340953 28.298828,-2.314453 8.685591,0.01695 13.897814,-0.363259 14.320312,-1.046875 0.182661,-0.295554 0.449553,-0.503279 0.732422,-0.597657 z M 376.5,12.957031 l 2.2168,2.53711 c 1.21887,1.395725 2.88683,4.798631 3.70703,7.560547 0.8202,2.761916 2.36993,6.690847 3.44531,8.732421 C 389.13017,37.978045 392,44.561298 392,45.851562 c 0,0.670702 0.69615,2.2817 1.54688,3.580079 0.8641,1.318786 1.63648,4.944465 1.75,8.214843 L 395.5,63.5 385,63.197266 c -5.775,-0.166321 -13.03712,-0.739109 -16.13867,-1.273438 -9.88687,-1.70329 -96.1241,-3.81043 -99.67383,-2.435547 -0.92817,0.359502 -5.9625,0.832428 -11.1875,1.052735 -5.225,0.220307 -12.875,0.622827 -17,0.894531 -4.125,0.271704 -12.225,0.768918 -18,1.103515 -5.775,0.334598 -10.8898,0.988671 -11.36719,1.453126 -0.47739,0.464453 -2.33285,0.606913 -4.12304,0.316406 -1.87139,-0.303685 -3.54691,-0.05628 -3.94141,0.582031 C 203.19098,65.501242 201.12324,66 198.97461,66 c -5.78181,0 -25.73637,2.893706 -31.40625,4.554688 -5.62675,1.648344 -6.52586,1.742629 -6.67383,0.695312 -0.4345,-3.075343 0.74818,-7.238691 3.68359,-12.970703 C 166.46058,54.603407 168,51.022655 168,50.322266 c 0,-0.700389 0.89815,-2.748036 1.99609,-4.548828 1.09795,-1.800795 1.998,-3.913621 2,-4.695313 0.002,-0.781693 0.59622,-2.131693 1.32032,-3 0.7241,-0.868308 2.53307,-4.503125 4.01953,-8.078125 1.48646,-3.575 4.43348,-8.75 6.54883,-11.5 l 3.8457,-5 44.38476,-0.255859 C 256.52682,13.103505 299,12.981256 326.5,12.972656 Z m 103.32617,0.623047 C 503.42881,13.442606 527.69477,13.451599 533,13.722656 l 10.5,0.53711 6,6.361328 c 3.3,3.49875 7.8,8.379578 10,10.845703 2.2,2.466124 4.675,4.719778 5.5,5.007812 0.825,0.288033 2.58456,2.435346 3.91016,4.773438 1.3256,2.338092 4.64143,6.276953 7.36914,8.751953 2.7277,2.475 5.952,5.950417 7.16406,7.722656 1.21206,1.772239 5.77123,7.11627 10.13086,11.876953 4.35962,4.760684 10.72511,11.86222 14.14648,15.779297 3.42137,3.917078 7.74739,8.696094 9.61328,10.621094 1.86588,1.925 6.92697,7.55 11.24805,12.5 4.32109,4.95 9.14864,10.23065 10.72656,11.73438 1.57793,1.50371 2.68743,3.27558 2.4668,3.9375 -0.52375,1.57123 -1.91047,1.89942 -3.77539,0.89453 -0.825,-0.44454 -3.525,-1.74778 -6,-2.89649 -2.475,-1.14871 -5.625,-2.76631 -7,-3.59375 -3.63503,-2.18746 -10.63383,-5.00725 -17.5,-7.05273 -5.24945,-1.56385 -8.99245,-2.99743 -17,-6.50977 -1.1,-0.48249 -3.35,-1.08244 -5,-1.33203 -1.65,-0.24959 -4.35,-0.93597 -6,-1.52734 -7.62921,-2.734375 -20.2597,-6.162206 -22.69141,-6.158206 -1.48004,0.0024 -2.9293,-0.382028 -3.2207,-0.853516 -0.29139,-0.471487 -2.75835,-1.120733 -5.48242,-1.443359 -2.72407,-0.322626 -5.7748,-1.03085 -6.7793,-1.574219 C 539.47067,91.121287 534.12969,89.636403 526,87.865234 523.525,87.326021 520.15,86.434916 518.5,85.884766 512.61186,83.92152 500.64212,81 498.48633,81 497.28005,81 493.18972,79.834042 489.39648,78.410156 482.68292,75.890055 475.22509,73.967121 464,71.861328 441.67877,67.673933 442.17769,67.962951 440.05273,58 c -0.64519,-3.025 -2.00489,-7.525 -3.01953,-10 -1.01463,-2.475 -2.8214,-8.1 -4.01562,-12.5 -1.19421,-4.4 -2.81089,-8.996695 -3.59375,-10.214844 C 428.64096,24.067007 428,22.180642 428,21.09375 c 0,-1.086891 -0.45491,-2.257435 -1.01172,-2.601562 -1.76303,-1.089611 0.61385,-3.808674 3.64649,-4.171876 2.65015,-0.317391 25.58876,-0.602762 49.1914,-0.740234 z M 283.63281,72.828125 c 5.86324,0.01503 12.60444,0.246783 16.81055,0.685547 5.85682,0.610961 40.43734,2.485575 47.55664,2.578125 1.925,0.02502 9.8,0.751104 17.5,1.613281 13.3964,1.50001 15.90601,1.762295 25.02734,2.611328 7.37262,0.68626 12.47266,4.437031 12.47266,9.173828 0,3.595414 -6.53123,12.918436 -8.28906,11.832036 -1.4519,-0.89732 -12.50888,-2.09241 -30.21094,-3.263676 -8.25,-0.545866 -16.125,-1.261915 -17.5,-1.591797 -1.375,-0.329883 -7.45,-0.81312 -13.5,-1.074219 -6.05,-0.261099 -14.62858,-0.911345 -19.0625,-1.445312 -4.43393,-0.533968 -11.18393,-0.759288 -15,-0.5 -3.81608,0.259288 -12.1125,0.759804 -18.4375,1.111328 -6.325,0.351525 -11.81061,0.827999 -12.18945,1.060547 -0.37885,0.232549 -4.81873,0.602163 -9.86719,0.820312 -5.04846,0.218148 -9.62961,0.846403 -10.17969,1.396485 -0.55008,0.550086 -2.5176,0.754223 -4.37305,0.453124 -1.85545,-0.301097 -3.94065,-0.08564 -4.63281,0.480469 -0.69215,0.566106 -4.85781,1.327149 -9.25781,1.691409 -9.97567,0.82584 -23.99013,3.19559 -26.33984,4.45312 -0.97408,0.52131 -3.65324,0.69546 -5.95508,0.38672 -2.37242,-0.31821 -4.74522,-0.0972 -5.47656,0.50977 -0.70958,0.58891 -3.07659,1.05661 -5.25977,1.04101 -2.18317,-0.0156 -7.56875,0.74446 -11.96875,1.6875 -4.4,0.94304 -9.3027,1.88016 -10.89453,2.08399 -1.59183,0.20382 -3.39183,0.7718 -4,1.26172 -0.60817,0.48992 -3.46797,1.20945 -6.35547,1.59765 -6.48051,0.87124 -6.54311,0.70906 -3.7832,-9.77344 0.69376,-2.635 2.15851,-5.785002 3.2539,-6.999996 1.0954,-1.214995 2.80493,-3.630755 3.79883,-5.36914 1.58399,-2.770459 2.20665,-3.096939 5.05469,-2.634766 2.31244,0.375257 4.86882,-0.263492 8.86523,-2.21875 3.08844,-1.511035 7.74047,-2.891524 10.33789,-3.066406 7.97887,-0.537211 17.24152,-2.020907 25.1836,-4.035156 C 209.96399,78.623138 215.15122,78 218.48828,78 c 4.02569,0 6.86105,-0.556946 8.42774,-1.654297 1.85329,-1.298099 2.75394,-1.408941 4.1875,-0.513672 1.35332,0.845167 5.26009,0.865565 15.08007,0.07813 7.28926,-0.584508 13.6942,-1.333374 14.23243,-1.666015 0.53822,-0.332644 3.12856,-0.491113 5.75781,-0.351563 2.62924,0.139549 5.29491,-0.06369 5.92187,-0.451172 0.68963,-0.426212 5.67387,-0.628313 11.53711,-0.613281 z M 459.9375,87.167969 c 0.90095,-0.204459 2.35523,-0.16086 4.82617,0.02539 3.15461,0.237783 7.50853,1.283064 9.67383,2.322266 2.16531,1.039203 4.95428,1.80616 6.19922,1.703125 1.24494,-0.103034 2.53061,0.24194 2.85547,0.767578 0.32486,0.525639 2.83252,1.253749 5.57226,1.617188 2.73974,0.36344 5.20328,1.019971 5.47461,1.458984 0.27132,0.439013 3.05582,1.118242 6.18946,1.509766 3.13365,0.391523 6.30967,1.323342 7.05664,2.070312 0.74697,0.746969 3.05009,1.357422 5.11914,1.357422 2.06905,0 4.09959,0.33787 4.51172,0.75 0.76961,0.7696 5.47022,2.06491 18.58398,5.12109 4.125,0.96133 8.48225,2.28254 9.68359,2.9375 1.20134,0.65495 4.15256,1.19141 6.5586,1.19141 2.40604,0 5.24878,0.66124 6.3164,1.46875 1.06762,0.8075 3.37778,1.4825 5.13282,1.5 1.75504,0.0175 3.44012,0.43388 3.74414,0.92578 0.30401,0.4919 2.24264,1.12027 4.30859,1.39649 3.85636,0.51561 7.49899,1.63277 22.25586,6.83007 7.93588,2.79497 13.5171,5.36337 26.31641,12.11133 2.85139,1.50328 5.7619,2.741 6.46875,2.75 0.70685,0.009 2.28185,0.64034 3.5,1.40039 1.21815,0.76006 4.17365,1.67176 6.56836,2.02735 2.39472,0.35559 5.79549,1.74654 7.55664,3.08984 1.76115,1.34329 6.10234,3.42433 9.64648,4.625 9.2683,3.13991 14.94336,5.74096 14.94336,6.84766 0,0.52883 2.04991,3.33828 4.55469,6.24414 5.27183,6.11597 12.75451,14.71198 13.36133,15.34765 1.14198,1.19628 -6.68366,0.17027 -8.35743,-1.0957 C 677.49097,174.66124 675.57847,174 674.30859,174 673.03871,174 672,173.56775 672,173.03906 c 0,-0.52869 -2.1375,-1.60101 -4.75,-2.38281 -2.6125,-0.7818 -8.8,-3.43901 -13.75,-5.9043 -4.95,-2.46529 -10.35,-4.7943 -12,-5.17578 -2.78383,-0.64362 -9.67887,-3.47919 -13.73633,-5.64844 C 626.80863,153.41713 625.22141,153 624.23633,153 c -0.98509,0 -2.6788,-0.58983 -3.76367,-1.31055 -1.08488,-0.72072 -3.99766,-1.94284 -6.47266,-2.71679 -2.475,-0.77396 -5.625,-1.98166 -7,-2.6836 -1.375,-0.70194 -3.47435,-1.2802 -4.66602,-1.2832 -1.19166,-0.003 -2.32046,-0.46529 -2.50781,-1.02734 -0.18734,-0.56204 -2.58799,-1.43978 -5.33398,-1.94922 -7.09229,-1.31577 -16.45411,-3.91677 -20.14258,-5.59571 C 572.61649,135.6447 570.50512,135 569.6582,135 c -0.84692,0 -1.81828,-0.45 -2.1582,-1 -0.33992,-0.55 -1.36673,-1 -2.28125,-1 -2.04179,0 -14.56351,-3.72774 -18.86914,-5.61719 -1.73312,-0.76055 -4.20812,-1.40173 -5.5,-1.42383 -1.29188,-0.0221 -4.82102,-1.10519 -7.8418,-2.4082 -3.02077,-1.303 -5.85216,-2.14549 -6.29297,-1.87305 -0.44082,0.27244 -1.39321,0.004 -2.11523,-0.5957 -0.72202,-0.59922 -3.29064,-1.52472 -5.70703,-2.05664 -9.67139,-2.12896 -16.63442,-3.84972 -21.39258,-5.28711 -9.11617,-2.7539 -27.90671,-6.02908 -34.18945,-5.95898 -6.45173,0.0719 -8.43012,-0.97293 -8.41602,-4.44922 0.0136,-3.358001 0.82748,-7.803551 1.89063,-10.33008 0.5786,-1.375 1.3208,-3.341106 1.64843,-4.369141 0.25663,-0.805238 0.60296,-1.258432 1.50391,-1.46289 z M 104.88281,100.875 c 1.88087,0.54694 2.10354,2.27604 1.58008,5.45117 -0.37852,2.29602 -1.13873,4.73191 -1.68945,5.41406 -0.55072,0.68215 -1.24003,4.20797 -1.53125,7.83594 -0.38594,4.80794 -0.96604,6.75712 -2.13672,7.1875 -0.88338,0.32476 -1.83047,0.90736 -2.10547,1.29492 -0.275,0.38756 -3.913372,1.40829 -8.085938,2.26758 -4.172566,0.85929 -10.022565,2.88717 -13,4.50781 -2.977435,1.62064 -8.114062,3.7574 -11.414062,4.74805 -3.3,0.99066 -6.511488,2.17854 -7.136719,2.63867 -2.118076,1.55878 -10.856271,5.77139 -11.980469,5.77539 -0.893299,0.003 -10.866221,4.68673 -25.382812,11.91993 -0.825,0.41107 -3.564184,1.9473 -6.085938,3.41406 -2.521753,1.46676 -4.884252,2.3677 -5.25,2.00195 C 10.298315,164.96628 10,158.9667 10,152 v -12.66602 l 3.25,-3.64257 c 1.897895,-2.12635 5.437282,-4.4782 8.507812,-5.6543 2.891926,-1.10769 9.391417,-4.50519 14.44336,-7.55078 5.051943,-3.04558 11.011056,-6.15935 13.242187,-6.91797 2.23113,-0.75861 5.181641,-1.83525 6.556641,-2.39258 3.058204,-1.2396 6.327054,-2.4623 7,-2.61914 6.500627,-1.51505 15,-4.08625 15,-4.53711 0,-0.32699 1.244905,-0.68881 2.765625,-0.80469 1.52072,-0.11587 7.184449,-1.33097 12.585937,-2.70117 6.111286,-1.55025 9.650378,-2.18561 11.531248,-1.63867 z m 174.43555,6.91992 c 19.35933,-0.13962 46.66791,0.34935 48.62695,1.08985 1.40464,0.53094 8.62969,1.2636 16.05469,1.62695 15.79328,0.77284 17.22462,0.77675 22.43164,0.0742 2.16216,-0.29172 4.41216,-0.16131 5,0.28906 1.5879,1.21655 14.33571,4.03153 20.06836,4.43164 5.0823,0.35472 16.33693,3.30102 17.80859,4.66211 0.84721,0.78356 2.92871,10.0492 4.15625,18.49609 0.39679,2.73038 1.35529,5.86816 2.12891,6.97266 0.77363,1.1045 1.40625,3.64539 1.40625,5.64648 0,4.44955 3.40653,26.99606 4.9375,32.68164 0.61203,2.27292 1.2888,7.86798 1.50586,12.4336 0.21707,4.56562 0.83305,13.47578 1.36719,19.80078 0.5341,6.325 0.76819,14.875 0.52148,19 -0.24671,4.125 -0.46211,13.35 -0.47851,20.5 -0.0164,7.15 -0.64838,17.5 -1.4043,23 -0.75592,5.5 -1.84891,17.00592 -2.42969,25.56836 -0.58079,8.56243 -1.47445,16.88743 -1.98633,18.5 -0.51188,1.61256 -1.81578,7.20664 -2.89648,12.43164 -1.08071,5.225 -2.52601,12.2 -3.21289,15.5 -0.68688,3.3 -1.58404,9.375 -1.99414,13.5 -0.41011,4.125 -1.14215,9.075 -1.625,11 -0.83917,3.34554 -1.09596,3.51435 -5.81641,3.81445 -2.71611,0.17268 -5.54696,0.82032 -6.29297,1.43946 -0.74602,0.61913 -3.45745,1.45174 -6.02539,1.85156 -2.56795,0.39983 -6.46992,1.22525 -8.66992,1.83398 -2.2,0.60873 -5.575,1.27892 -7.5,1.48828 -8.02558,0.87286 -13.70604,1.72098 -17,2.53711 -1.925,0.47695 -8.225,1.14148 -14,1.47657 -18.7993,1.09079 -48.18981,1.26421 -62.5,0.36914 -7.7,-0.48162 -16.475,-0.97486 -19.5,-1.09571 -3.025,-0.12085 -5.99183,-0.5383 -6.5918,-0.92773 -0.59997,-0.38943 -5.45559,-0.79897 -10.79101,-0.91016 -5.33543,-0.1112 -9.89166,-0.51112 -10.125,-0.88867 -0.23334,-0.37755 -3.25273,-0.76857 -6.70899,-0.86914 -3.45627,-0.10056 -7.6332,-0.61623 -9.2832,-1.14453 -1.65,-0.5283 -7.05,-1.40299 -12,-1.94531 -4.95,-0.54232 -12.825,-1.60964 -17.5,-2.3711 -4.675,-0.76145 -8.79122,-1.22417 -9.14648,-1.02734 -0.35526,0.19683 -1.93026,-0.31216 -3.5,-1.13086 -1.56974,-0.81869 -3.79622,-1.49114 -4.94922,-1.49414 -1.153,-0.003 -3.59371,-0.75303 -5.42383,-1.66602 -1.83013,-0.91298 -6.37866,-2.46049 -10.10742,-3.43945 -8.47282,-2.22447 -10.7427,-3.42882 -11.82422,-6.27344 -0.47088,-1.23851 -1.58959,-8.2989 -2.48438,-15.68945 -0.89479,-7.39055 -2.09845,-15.55349 -2.67578,-18.14062 -0.57733,-2.58714 -0.93427,-6.18714 -0.79297,-8 0.1413,-1.81287 -0.0602,-4.25182 -0.44726,-5.41993 -0.38701,-1.16811 -0.93266,-9.04311 -1.21289,-17.5 -0.28023,-8.45689 -0.75844,-18.07695 -1.0625,-21.37695 -0.73367,-7.96261 -0.53984,-59.42084 0.22851,-60.66406 0.51807,-0.83825 1.34992,-9.74715 2.83399,-30.33594 0.19822,-2.75 0.62225,-10.175 0.9414,-16.5 0.31914,-6.325 0.90829,-13.75 1.3086,-16.5 0.81955,-5.63008 0.90243,-6.70868 1.14257,-14.67383 0.14724,-4.88355 0.5997,-6.0997 3.24805,-8.74805 2.66893,-2.66893 3.57014,-2.9987 6.79883,-2.48242 2.73199,0.43687 4.07289,0.17122 5.04492,-1 0.72831,-0.87755 2.53418,-1.5957 4.01172,-1.5957 1.47753,0 3.54136,-0.62485 4.58594,-1.38867 1.04458,-0.76381 2.39666,-1.19666 3.00586,-0.96289 0.6092,0.23377 2.42914,-0.2639 4.04297,-1.10547 1.74602,-0.9105 5.56577,-1.53597 9.43359,-1.54297 3.575,-0.006 8.12819,-0.46455 10.11914,-1.01758 4.65689,-1.29355 16.70471,-3.04336 24.38086,-3.54297 7.57119,-0.49277 23.08778,-3.06368 24.74609,-4.09961 1.84998,-1.15567 3.80451,-1.48387 8.09571,-1.35937 2.1132,0.0613 4.5169,-0.44822 5.34179,-1.13281 0.82489,-0.6846 4.94629,-1.44516 9.15821,-1.68946 3.45287,-0.20027 9.02345,-0.31674 15.47656,-0.36328 z m 184.38281,12.76758 c 1.13223,-0.0697 2.11115,0.18604 3.02735,0.75977 0.67549,0.423 3.80992,1.00724 6.96679,1.29882 3.15687,0.29158 6.19434,0.81089 6.75,1.1543 0.55566,0.34342 3.04623,0.68868 5.53321,0.76758 4.85024,0.15399 16.49598,2.65412 22.91796,4.91992 2.16508,0.76389 6.11119,1.70488 8.76954,2.08984 2.65836,0.38495 5.28398,1.03993 5.83398,1.45704 0.55,0.41711 2.575,1.06304 4.5,1.43359 1.925,0.37054 4.4,1.03368 5.5,1.47461 5.50845,2.20801 13.39609,4.26414 14.27539,3.7207 0.54562,-0.33721 3.63313,0.72524 6.85938,2.36133 3.22625,1.63609 6.65894,2.98128 7.6289,2.98828 0.96996,0.007 2.54496,0.41179 3.5,0.90039 0.95504,0.48861 4.38946,1.37921 7.63281,1.97852 3.24334,0.59932 6.65511,1.77425 7.58008,2.61133 0.99399,0.89955 3.56694,1.52148 6.29297,1.52148 2.53674,0 4.82349,0.34144 5.08203,0.75977 0.25854,0.41832 4.44718,2.10582 9.3086,3.75 4.86142,1.64417 9.43532,3.55273 10.16211,4.24023 0.72678,0.6875 2.52678,1.26375 4,1.28125 1.47321,0.0175 3.55152,0.6925 4.61914,1.5 1.06762,0.80751 2.56114,1.46875 3.32031,1.46875 0.75916,0 2.05586,0.675 2.88086,1.5 0.825,0.825 2.98827,1.5 4.80664,1.5 1.81837,0 3.86609,0.675 4.55078,1.5 0.68469,0.825 2.02979,1.5 2.98828,1.5 0.95848,0 2.88674,0.9 4.28516,2 1.39842,1.1 3.42832,2 4.51172,2 1.08341,0 2.51658,0.65724 3.18359,1.46094 0.66701,0.8037 2.18325,1.76454 3.37109,2.13476 1.18783,0.37021 4.03571,2.0115 6.32813,3.64844 2.29242,1.63694 4.76742,2.75334 5.5,2.48047 0.73258,-0.27287 3.13203,0.51395 5.33203,1.74805 2.2,1.2341 5.16275,2.5228 6.58398,2.86328 1.42124,0.34048 4.29482,1.9782 6.38672,3.64062 2.09189,1.66243 4.57259,3.02344 5.51172,3.02344 0.93913,0 2.52209,0.9 3.51758,2 0.99549,1.1 2.3767,2 3.07031,2 1.95389,0 11.94977,11.5598 13.16602,15.22656 0.59705,1.79997 1.9813,5.62126 3.07617,8.49024 2.51531,6.59105 3.68875,23.28875 2.30078,32.74609 -0.56199,3.82913 -0.83224,7.15214 -0.59961,7.38477 0.23263,0.23263 1.41175,0.47391 2.6211,0.53711 3.26409,0.17069 3.45111,2.41611 0.23242,2.79296 -2.22129,0.26006 -2.90852,0.99672 -3.56836,3.82227 -1.53085,6.55536 -3.0379,11.49138 -5.41992,17.75977 -1.30847,3.44329 -2.37891,7.10203 -2.37891,8.1289 0,1.02687 -0.675,2.42664 -1.5,3.11133 -0.825,0.68469 -1.5,2.43494 -1.5,3.88867 0,2.15679 -1.24207,3.461 -6.75,7.09375 -3.7125,2.44858 -9,5.40777 -11.75,6.57617 -2.75,1.16841 -7.475,3.26696 -10.5,4.66211 -11.48802,5.29837 -15.66694,6.94725 -21,8.28321 -3.025,0.75777 -7.525,2.0736 -10,2.92578 -11.82176,4.0704 -29.11156,8.60746 -46.10547,12.09765 -6.38256,1.31085 -12.68256,2.83812 -14,3.39454 -1.31743,0.55639 -7.71004,1.67009 -14.20703,2.4746 -6.49699,0.8045 -12.39153,1.94131 -13.09766,2.52735 -0.70614,0.58604 -5.88836,1.53953 -11.51757,2.11719 -5.6292,0.57767 -12.33663,1.50058 -14.9043,2.05078 -2.56767,0.5502 -6.91797,1.26069 -9.66797,1.58008 -2.75,0.31937 -5.49392,0.97291 -6.09766,1.45117 -0.60373,0.47826 -6.45373,1.78043 -13,2.89453 -6.54626,1.11411 -14.82734,2.75269 -18.40234,3.64062 -3.575,0.88793 -8.3,1.78119 -10.5,1.98633 -2.2,0.20513 -6.18416,0.64275 -8.85352,0.97266 l -4.85351,0.60156 0.75391,-3.35937 c 0.41484,-1.84742 0.73297,-4.03438 0.70507,-4.85938 -0.0279,-0.825 0.336,-3.075 0.81055,-5 1.75305,-7.11118 6.12876,-38.76982 6.49609,-47 0.20866,-4.675 0.59873,-15.925 0.86524,-25 0.26651,-9.075 0.73842,-17.73376 1.04883,-19.24219 0.8911,-4.33013 1.10451,-44.36055 0.28711,-53.75781 -0.40664,-4.675 -1.20705,-15.025 -1.7793,-23 -0.57225,-7.975 -1.49979,-16.975 -2.0625,-20 -0.56271,-3.025 -1.69715,-10.225 -2.51953,-16 -2.85153,-20.02441 -3.14531,-21.65718 -4.26953,-23.75781 -2.01796,-3.77058 -1.38764,-7.06826 1.62109,-8.49024 1.53306,-0.72455 2.81895,-1.11973 3.95117,-1.18945 z M 95.125,145 c 2.718666,0 2.872729,0.23009 2.849609,4.25 -0.01345,2.3375 -0.49351,6.275 -1.068359,8.75 -1.919035,8.26236 -2.659177,17.09736 -4.058594,48.5 -1.687164,37.85965 -1.338109,64.09041 1.189453,89.5 0.519745,5.225 1.169193,15.125 1.44336,22 0.46621,11.69067 2.78701,35.05035 4.097656,41.25 0.527235,2.49395 0.315551,2.75 -2.275391,2.75 -1.571322,0 -3.745199,-0.60612 -4.830078,-1.34766 C 91.387778,359.9108 88.925,359.00814 87,358.64648 81.013097,357.52168 72.571783,354.74 70.933594,353.35156 c -0.86109,-0.72981 -3.11109,-1.62234 -5,-1.98242 -1.888911,-0.36008 -4.649579,-1.26527 -6.134766,-2.01172 C 58.313641,348.61097 55.984122,348 54.621094,348 c -1.363027,0 -3.163722,-0.68521 -4.001953,-1.52344 -1.677797,-1.67779 -11.455033,-6.45129 -13.246094,-6.46679 -0.620156,-0.005 -1.664965,-0.65567 -2.320313,-1.44532 -0.655349,-0.78965 -2.610783,-1.74785 -4.345703,-2.1289 -1.734921,-0.38106 -4.883896,-1.78454 -6.998047,-3.11914 -2.114152,-1.33461 -6.081049,-2.69167 -8.816406,-3.01563 -3.664471,-0.434 -5.4863773,-1.24004 -6.9199218,-3.0625 C 6.9025821,325.8779 6.3100578,324.30624 6.65625,323.74609 7.0024423,323.18594 7.4405807,311.87598 7.6289062,298.61328 7.8172318,285.35057 8.2423168,263.025 8.5742188,249 8.9061207,234.975 9.1290098,214.12775 9.0683594,202.67188 L 8.9570312,181.8418 12.046875,178.95703 c 4.047406,-3.78085 26.617862,-14.91079 31.294922,-15.43164 1.013035,-0.11282 2.138035,-0.61454 2.5,-1.11523 1.344703,-1.86007 7.878344,-4.18563 10.402344,-3.70313 1.915394,0.36615 2.960424,-0.0609 3.923828,-1.60351 C 60.890204,155.94703 62.131731,155 62.925781,155 c 1.394494,0 7.553467,-2.54994 13.404297,-5.54883 1.557071,-0.79809 3.863721,-1.45117 5.125,-1.45117 1.261279,0 4.206623,-0.675 6.544922,-1.5 2.338299,-0.825 5.544149,-1.5 7.125,-1.5 z M 710.05859,265 C 708.92613,265 708,265.45 708,266 c 0,0.55 0.64887,1 1.44141,1 0.79254,0 1.71867,-0.45 2.05859,-1 0.33992,-0.55 -0.30895,-1 -1.44141,-1 z m -24.51367,65 c 0.25079,0 0.45508,0.92875 0.45508,2.06445 0,1.15402 -2.14467,4.15467 -4.86133,6.80078 -2.67355,2.60412 -6.00793,6.55217 -7.41015,8.77344 -1.81671,2.87785 -3.996,4.66045 -7.58204,6.20313 -2.76788,1.19071 -5.27893,2.56352 -5.58007,3.05078 -0.30115,0.48727 -1.78894,1.19544 -3.30664,1.57422 -1.5177,0.37878 -3.43477,1.26047 -4.25977,1.95898 -0.825,0.69852 -3.75,1.85915 -6.5,2.57813 -2.75,0.71897 -5.63053,1.79824 -6.40234,2.40039 -0.77181,0.60216 -4.55168,1.62668 -8.39844,2.27539 -3.84676,0.64872 -7.33166,1.72517 -7.74414,2.39258 -0.41249,0.66742 -2.70762,1.54675 -5.10156,1.95312 -6.51432,1.10578 -23.93168,5.76673 -27.35352,7.32031 -1.65,0.74914 -6.375,2.15809 -10.5,3.13086 -4.125,0.97277 -7.95,2.10915 -8.5,2.52539 -0.88178,0.66732 -6.50424,1.94474 -16,3.63477 -1.65,0.29367 -4.81955,1.3531 -7.04297,2.35547 -2.22341,1.00237 -6.27341,2.14708 -9,2.54297 -2.72658,0.39588 -5.40703,0.9875 -5.95703,1.31445 -0.55,0.32696 -1.53476,0.67589 -2.18945,0.77539 -0.65469,0.0995 -2.67969,0.66296 -4.5,1.25195 -3.81027,1.23288 -19.34136,4.24447 -22.31055,4.32617 -1.1,0.0303 -4.475,0.62837 -7.5,1.33008 -3.025,0.70172 -7.75,1.61246 -10.5,2.02344 -2.75,0.41098 -5.9,0.9045 -7,1.09766 -1.1,0.19317 -3.70761,0.35251 -5.79492,0.35351 -2.08732,0.001 -5.24035,0.60607 -7.00586,1.34375 -1.76551,0.73768 -6.41567,1.65687 -10.33399,2.04297 l -7.12304,0.70313 -0.46289,-3.14844 c -0.28027,-1.90958 0.26198,-4.569 1.3789,-6.75977 1.01278,-1.98651 1.8418,-4.6775 1.8418,-5.97851 0,-3.33886 5.16352,-8.21094 8.70117,-8.21094 1.56993,0 3.7413,-0.61778 4.82617,-1.37305 1.08488,-0.75528 4.89766,-1.64034 8.47266,-1.96679 12.41251,-1.13346 25.76942,-3.22259 27.13086,-4.24414 0.75297,-0.56498 4.96914,-1.82967 9.36914,-2.8086 4.4,-0.97894 9.8,-2.23604 12,-2.79492 2.2,-0.55888 6.70972,-1.12558 10.02148,-1.25781 3.31176,-0.13224 6.99402,-0.75985 8.1836,-1.39649 1.18958,-0.63665 3.42985,-1.16106 4.97851,-1.16406 1.54866,-0.003 4.02942,-0.63878 5.51172,-1.41211 1.65821,-0.86507 4.21541,-1.20303 6.64649,-0.87695 2.5652,0.34406 4.95205,-0.0119 6.80468,-1.01563 C 569.4089,363.65094 576.82743,362 582.22656,362 c 2.38801,0 6.90351,-0.9 10.03321,-2 3.12969,-1.1 7.08135,-2 8.78125,-2 1.6999,0 3.92852,-0.44775 4.95312,-0.99609 1.02459,-0.54834 3.52991,-1.21192 5.56641,-1.47266 2.03649,-0.26073 4.75174,-1.16103 6.03515,-2.00195 1.2834,-0.84091 4.27452,-1.5293 6.64649,-1.5293 2.37197,0 5.32757,-0.71099 6.56836,-1.58008 1.2408,-0.86909 5.26159,-2.0051 8.93554,-2.52539 4.06645,-0.57588 7.47698,-1.68097 8.7168,-2.82422 1.12013,-1.0329 3.61211,-2.33813 5.53711,-2.90039 1.925,-0.56225 5.975,-1.91193 9,-2.99804 3.025,-1.08611 6.90356,-2.22027 8.61914,-2.52149 1.71558,-0.30121 5.44879,-1.92147 8.29492,-3.59961 C 682.76018,331.37265 685.29412,330 685.54492,330 Z M 7.5,343.5 l 4.859375,0.25391 c 3.454174,0.18018 6.145288,1.12039 9.300781,3.25 2.441966,1.64807 5.29011,2.99609 6.330078,2.99609 1.039968,0 2.148963,0.41588 2.462891,0.92383 0.485608,0.78573 7.893707,3.64758 11.046875,4.26758 0.55,0.10814 1.9,1.04386 3,2.08007 2.424316,2.28375 7.604248,4.62649 13,5.87891 3.451414,0.80111 13.100729,5.00257 21.5,9.36133 1.375,0.71355 4.75,1.61482 7.5,2.00195 2.75,0.38713 5.996695,1.33033 7.214844,2.09571 1.218149,0.76538 3.074947,1.39062 4.126953,1.39062 1.052006,0 2.388933,0.5744 2.970703,1.27539 2.55852,3.08283 5.69228,17.24572 4.50195,20.34766 -0.72856,1.89862 -7.536736,1.39589 -9.763669,-0.72071 C 95.028281,398.40572 92.867313,398 90.75,398 c -2.117313,0 -5.13036,-0.66143 -6.695312,-1.4707 -1.564952,-0.80926 -4.803984,-1.77341 -7.199219,-2.14063 -2.395235,-0.36723 -5.571454,-1.27883 -7.056641,-2.02734 C 68.313641,391.61283 66.380834,391 65.501953,391 c -0.878882,0 -3.461543,-0.9 -5.738281,-2 -2.276737,-1.1 -4.864624,-2 -5.75,-2 -0.885376,0 -4.684391,-1.575 -8.44336,-3.5 -3.758968,-1.925 -7.475034,-3.5 -8.257812,-3.5 -0.782778,0 -4.39012,-1.575 -8.017578,-3.5 -3.627458,-1.925 -7.149338,-3.5 -7.826172,-3.5 -0.676835,0 -2.445576,-1.59133 -3.929688,-3.53711 -1.484111,-1.94577 -4.478965,-4.66265 -6.65625,-6.03711 l -3.9589839,-2.5 0.2871094,-8.71289 z m 4.611328,38.10156 c 1.873498,0.4422 4.573495,2.30069 8.052734,5.55078 1.676183,1.56579 3.643545,2.84766 4.371094,2.84766 0.727549,0 1.915793,0.5625 2.642578,1.25 1.403171,1.32732 7.195279,3.58373 17.822266,6.94531 3.575,1.13086 7.7375,2.70155 9.25,3.48828 1.5125,0.78673 2.75,1.08992 2.75,0.67383 0,-0.4161 0.539219,-0.21664 1.199219,0.44336 0.66,0.66 2.433865,1.19922 3.941406,1.19922 1.507541,0 3.019456,0.45 3.359375,1 0.339919,0.55 1.288313,1 2.107422,1 0.819109,0 3.307208,0.87758 5.529297,1.95117 2.222089,1.0736 6.031738,2.25037 8.464843,2.61524 2.433107,0.36487 4.644897,1.02421 4.916016,1.46289 0.271119,0.43868 2.288186,1.09999 4.482422,1.4707 2.194236,0.37071 4.244346,1.08575 4.554688,1.58789 C 95.865028,415.59004 97.59821,416 99.40625,416 106.50188,416 112,421.39027 112,428.3457 c 0,1.32549 0.667,4.0074 1.48242,5.95899 0.81543,1.95159 1.77851,6.06934 2.14063,9.15039 0.36212,3.08104 1.04512,5.84082 1.51757,6.13281 0.47245,0.292 0.87504,1.74066 0.89454,3.2207 0.0195,1.48004 0.67882,3.81641 1.46484,5.19141 0.78602,1.375 1.44536,3.46179 1.46484,4.63672 0.0195,1.17493 1.11663,5.44993 2.43946,9.5 3.66611,11.22442 4.07948,14.77965 1.9082,16.42578 -1.95154,1.47954 -5.31274,1.91433 -5.3125,0.6875 1.8e-4,-0.9191 -29.968809,-0.79331 -43.748047,0.18359 -5.891146,0.41766 -10.279157,0.33164 -10.613281,-0.20898 -0.329244,-0.53273 -8.706792,-0.75765 -19.853516,-0.5332 -10.606411,0.21356 -21.781656,0.48865 -24.832031,0.61328 -7.972154,0.32573 -14.0845255,-2.01618 -15.1679688,-5.8125 C 5.2990804,481.78901 5.3951329,470.80709 6.0078125,458 c 1.5720699,-32.86161 2.0275473,-66.25173 0.921875,-67.58398 -1.2233765,-1.47408 1.4219108,-7.95279 3.5859375,-8.78321 0.43919,-0.16853 0.971204,-0.17865 1.595703,-0.0312 z m 625.248052,1.42383 c 1.98566,-0.0713 3.64062,0.0964 3.64062,0.55273 0,0.31843 -2.025,2.60508 -4.5,5.08008 -2.475,2.475 -4.5,4.90889 -4.5,5.40821 0,0.72765 -6.69226,8.21331 -10.96289,12.26367 -0.48177,0.45692 -2.15011,2.03371 -3.70703,3.5039 -1.55692,1.47018 -8.68008,9.1582 -15.83008,17.08399 -7.15,7.92578 -15.02761,16.47398 -17.50586,18.99609 -2.47826,2.52211 -6.30326,6.71722 -8.5,9.32227 -2.19675,2.60506 -4.48834,4.743 -5.0918,4.75 -0.60345,0.007 -1.50345,0.88563 -2,1.95117 -1.0674,2.29055 -6.18698,7.72299 -17.16601,18.21289 l -8.00781,7.65039 -8.86524,0.6836 c -4.8752,0.37534 -9.90436,0.84397 -11.17578,1.04296 -1.27142,0.19899 -3.27574,0.007 -4.45508,-0.42968 -1.17934,-0.4363 -3.60447,-0.4649 -5.38867,-0.0625 -1.78421,0.40242 -3.43501,0.5396 -3.66992,0.30468 -0.23492,-0.23491 -18.51972,-0.60644 -40.63086,-0.82617 -30.21163,-0.30022 -40.57644,-0.71045 -41.70899,-1.65039 -1.90888,-1.58423 -1.33666,-4.53656 2.49414,-12.89453 4.4158,-9.63427 8.97359,-23.80472 9.47852,-29.46875 0.24515,-2.75 1.26327,-7.42251 2.26367,-10.38281 1.53451,-4.54078 2.37557,-5.60331 5.375,-6.79492 1.95544,-0.77686 4.48147,-1.87278 5.61524,-2.43555 1.13377,-0.56277 3.60877,-1.17838 5.5,-1.36914 1.89123,-0.19075 6.36445,-0.62828 9.93945,-0.9707 8.41971,-0.80645 17.14844,-2.6119 18.82031,-3.89454 0.72594,-0.55694 5.22594,-1.3542 10,-1.77148 4.77405,-0.41729 11.60469,-1.03249 15.17969,-1.36719 6.61638,-0.61942 13.67973,-2.26984 15.51953,-3.625 0.56026,-0.41267 4.16026,-1.28748 8,-1.94531 3.83974,-0.65782 9.68047,-2.26139 12.98047,-3.5625 3.3,-1.30111 8.7,-2.77775 12,-3.2832 3.3,-0.50545 8.025,-1.62285 10.5,-2.48243 7.59606,-2.63818 14.24711,-4.71598 20,-6.24804 3.025,-0.80559 6.4,-1.83899 7.5,-2.29688 1.1,-0.45789 3.27886,-0.88406 4.8418,-0.94726 3.33144,-0.1347 14.35897,-2.89122 16.80664,-4.20117 0.93189,-0.49873 3.37918,-1.17648 5.43945,-1.50391 2.06027,-0.32743 4.82553,-1.00437 6.14453,-1.50586 1.32535,-0.5039 3.64129,-0.81541 5.62696,-0.88672 z M 149.86914,385 c 1.18724,0 2.93949,0.41006 3.89453,0.91016 2.18456,1.14393 15.29176,4.08984 18.19531,4.08984 1.19497,0 2.99009,0.43648 3.98829,0.9707 0.9982,0.53423 5.69884,1.03824 10.44726,1.11914 4.74842,0.0809 8.85785,0.50748 9.13086,0.94922 0.54171,0.87651 12.86432,2.49747 15.78516,2.07617 0.99529,-0.14356 2.34529,0.17194 3,0.70118 0.6547,0.52924 6.13945,1.29863 12.18945,1.71093 31.60083,2.15357 37.53291,2.71726 38.08789,3.61524 0.29139,0.47147 6.03895,0.85742 12.77149,0.85742 7.74554,0 12.65421,0.41398 13.36718,1.12695 0.61974,0.61974 2.22474,0.85042 3.56641,0.51367 1.34168,-0.33674 11.16117,-0.82192 21.82226,-1.08007 26.19078,-0.63418 33.42,-1.29858 38.29102,-3.51758 2.9681,-1.35213 5.11782,-1.68154 7.61523,-1.16797 1.91357,0.39351 5.95352,0.3409 8.97852,-0.11523 3.025,-0.45614 8.04923,-1.04239 11.16602,-1.30274 3.1168,-0.26036 9.38482,-1.12097 13.92773,-1.91406 4.5429,-0.79306 8.68297,-1.18234 9.19922,-0.86328 1.16128,0.71771 0.36318,6.75846 -2.02344,15.32031 -1.58746,5.69487 -2.24325,6.70439 -5.29101,8.15625 -4.60693,2.19459 -10.98151,3.80649 -19.22461,4.85937 -3.71046,0.47395 -7.1026,1.08107 -7.53711,1.34961 -0.43451,0.26855 -5.27388,0.76691 -10.75391,1.10743 -11.40193,0.7085 -15.45848,1.35229 -17.16406,2.72461 -0.66111,0.53193 -2.08591,0.68656 -3.16602,0.34375 -1.0801,-0.34281 -2.25186,-0.15688 -2.60351,0.4121 -0.3863,0.62508 -3.83165,0.89209 -8.70508,0.67383 -4.4362,-0.19867 -9.69937,0.0866 -11.69531,0.63477 -1.99594,0.54814 -9.0988,1.1094 -15.78321,1.24805 -6.68442,0.13866 -12.58525,0.51936 -13.11328,0.8457 -1.27061,0.78528 -7.82608,0.51337 -9.2793,-0.38477 -0.63018,-0.38948 -7.28907,-0.82021 -14.79882,-0.95898 -18.03767,-0.3333 -18.86361,-0.38664 -19.73828,-1.26172 -0.4123,-0.4125 -6.04757,-0.75 -12.52344,-0.75 -6.77085,0 -12.03718,-0.42495 -12.39258,-1 -0.33992,-0.55 -2.50355,-0.99333 -4.80859,-0.98633 -2.30504,0.007 -7.34141,-0.63987 -11.19141,-1.4375 -3.85,-0.79762 -11.5,-2.19867 -17,-3.11133 -5.5,-0.91265 -10.97572,-2.03759 -12.16797,-2.50195 -1.19226,-0.46437 -4.89179,-1.33971 -8.2207,-1.94336 -11.31508,-2.05181 -12.60906,-3.0051 -15.07422,-11.12109 -1.19695,-3.94071 -2.43534,-10.25478 -2.75195,-14.03125 C 147.7364,385.32159 147.81136,385 149.86914,385 Z m 13.74414,46.46094 c 0.59549,-0.0759 1.0757,0.025 1.29688,0.37695 0.77671,1.23592 7.89686,3.17366 9.45898,2.57422 0.67095,-0.25747 3.16047,0.21627 5.53125,1.05273 2.37077,0.83645 5.39669,1.24736 6.72461,0.91407 1.32792,-0.33328 3.64271,-0.13747 5.14453,0.43554 2.42243,0.92427 7.79869,1.55937 23.23047,2.73828 12.73271,0.97271 17.53311,1.64554 18.71094,2.62305 0.80909,0.67148 9.1079,1.18244 22.04297,1.35742 12.15589,0.16443 21.93373,0.74168 23.61523,1.39453 2.86474,1.11223 15.99032,0.88959 35.13086,-0.59375 4.95,-0.38362 11.7,-0.74604 15,-0.80664 6.09073,-0.11188 18.31991,-1.76258 26.5,-3.57617 2.475,-0.54872 6.3,-1.19167 8.5,-1.42969 2.2,-0.23802 7.30737,-1.11305 11.34961,-1.94531 4.04224,-0.83225 10.11724,-1.64033 13.5,-1.79492 L 395.5,434.5 l -0.12109,3 c -0.13873,3.45842 -3.26129,15.5166 -4.40235,17 -0.42307,0.55 -1.22939,2.575 -1.79297,4.5 -0.56358,1.925 -1.98818,5.975 -3.16601,9 -1.17783,3.025 -2.83433,7.75 -3.67969,10.5 -2.87695,9.35882 -2.97037,9.48764 -7.06641,9.64844 -6.42363,0.25218 -7.0722,0.33334 -7.71289,0.96679 -0.3421,0.33824 -2.71915,0.22316 -5.2832,-0.25585 -2.56405,-0.47902 -5.58825,-0.57757 -6.71875,-0.21876 -2.056,0.65251 -50.8223,0.63649 -87.55664,-0.0293 -10.725,-0.19437 -19.75529,-0.21045 -20.06836,-0.0352 -0.58493,0.32749 -61.84055,0.73524 -65.43164,0.43555 -1.1,-0.0918 -3.25268,0.0333 -4.7832,0.27734 -3.29311,0.52513 -6.7168,-3.05825 -6.7168,-7.02929 0,-2.73954 -2.10959,-11.57801 -4.95508,-20.75977 -3.13338,-10.11072 -7.05778,-24.91187 -7.05078,-26.58984 0.006,-1.40355 2.83269,-3.22152 4.61914,-3.44922 z M 5.984375,490.50977 C 6.5433465,490.16431 7,490.58395 7,491.44141 c 0,1.75653 -0.5997914,2.01399 -1.4570312,0.62695 -0.316431,-0.512 -0.1175653,-1.21313 0.4414062,-1.55859 z M 249,492 c 0.55,0 1,0.45 1,1 0,0.55 -0.45,1 -1,1 -0.55,0 -1,-0.45 -1,-1 0,-0.55 0.45,-1 1,-1 z" />
  </g>
</svg>
