<?xml version="1.0" encoding="UTF-8" standalone="no"?>
<!-- Created with Inkscape (http://www.inkscape.org/) -->

<svg
   version="1.1"
   id="svg1"
   width="732"
   height="497"
   viewBox="0 0 732 497"
   sodipodi:docname="5.svg"
   inkscape:version="1.4 (86a8ad7, 2024-10-11)"
   xmlns:inkscape="http://www.inkscape.org/namespaces/inkscape"
   xmlns:sodipodi="http://sodipodi.sourceforge.net/DTD/sodipodi-0.dtd"
   xmlns="http://www.w3.org/2000/svg"
   xmlns:svg="http://www.w3.org/2000/svg">
  <defs
     id="defs1" />
  <sodipodi:namedview
     id="namedview1"
     pagecolor="#ffffff"
     bordercolor="#000000"
     borderopacity="0.25"
     inkscape:showpageshadow="2"
     inkscape:pageopacity="0.0"
     inkscape:pagecheckerboard="0"
     inkscape:deskcolor="#d1d1d1"
     inkscape:zoom="1.1310863"
     inkscape:cx="393.4271"
     inkscape:cy="208.20692"
     inkscape:window-width="1920"
     inkscape:window-height="1013"
     inkscape:window-x="2391"
     inkscape:window-y="605"
     inkscape:window-maximized="1"
     inkscape:current-layer="g1" />
  <g
     inkscape:groupmode="layer"
     inkscape:label="Image"
     id="g1">
    <path
       style="fill:#000000"
       d="m 238.83333,496.12042 c -0.29668,-0.78286 -80.19065,-2.50557 -95.33333,-2.05562 -10.92419,0.3246 -42.94418,-0.2681 -92,-1.70297 -33.410146,-0.97723 -41.8958692,-1.02404 -43.5497844,-0.24023 -0.935471,0.44333 -2.869788,-0.1013 -4.8798777,-1.374 l -3.33009333,-2.10847 0.68818795,-62.56956 C 1.6200762,317.72616 1.7923789,303.63947 1.9949278,298 2.1035746,294.975 2.0960344,287.55 1.9781719,281.5 1.6211373,263.17307 3.0419598,169.67774 3.7181966,167 4.6595803,163.27234 4.786625,159.30636 5.4640289,112.5 5.8063029,88.85 6.3593667,65.675 6.6930594,61 7.3225955,52.180266 7.4759406,46.67431 7.3057761,39 7.2508973,36.525 7.4088258,28.326142 7.6567282,20.780316 8.2832429,1.7100312 5.1722468,3.2634654 43.25093,3.0068279 59.887919,2.8947002 74.4,2.8040473 75.5,2.8053771 c 12.465226,0.015069 40.37328,1.1195203 41.64974,1.6482738 0.90735,0.3758584 4.02653,-0.022453 6.9315,-0.885136 5.87806,-1.7455975 14.48027,-2.0870163 15.39255,-0.6109251 0.36285,0.5871093 8.80051,0.764758 21.80902,0.4591729 C 172.95226,3.1426335 183.4,2.9890464 184.5,3.0754582 c 3.24658,0.2550391 113.73093,-0.082131 142,-0.433348 15.69592,-0.1950072 26.87996,0.068323 28.22039,0.6644541 1.43977,0.6403152 2.67025,0.645748 3.5,0.015453 1.73283,-1.3163072 10.53433,-1.5236567 12.8171,-0.3019512 1.03905,0.5560781 2.07835,0.6015164 2.38565,0.1043 0.8308,-1.3442597 30.26891,-1.4316542 31.09667,-0.092318 0.37537,0.6073646 1.39884,0.829412 2.27437,0.4934387 2.94354,-1.1295416 22.07301,-1.5493947 22.72237,-0.49871 0.34191,0.5532159 1.15305,0.6610067 1.80255,0.2395352 C 431.96859,2.8448404 457.475,2.4825814 488,2.461292 c 30.525,-0.021289 56.62526,-0.3897932 58.00058,-0.8188972 1.9397,-0.6051935 3.37652,-0.1479132 6.40584,2.038708 5.08317,3.6691445 16.53597,15.4620522 16.5684,17.0604232 0.0138,0.682839 0.92518,1.803586 2.02518,2.490547 1.1,0.686961 2,1.727499 2,2.312307 0,0.584808 1.63153,2.614061 3.62562,4.509453 C 578.6197,31.949225 584.3189,38.225 589.29049,44 c 4.9716,5.775 9.32875,10.725 9.68255,11 0.35381,0.275 3.28072,3.65 6.50424,7.5 3.22352,3.85 7.69735,8.808247 9.94184,11.018326 2.24448,2.21008 6.32725,6.71008 9.0728,10 2.74556,3.289921 7.02518,8.006674 9.51028,10.481674 2.48509,2.475 6.03612,6.3 7.89117,8.5 8.71391,10.33425 19.88342,22.70685 33.85357,37.5 1.8179,1.925 5.55583,6.40157 8.3065,9.94794 2.75067,3.54637 6.14001,7.19498 7.53187,8.10802 2.70707,1.77582 12.41469,14.66186 12.41469,16.47946 0,0.59972 1.40652,2.41209 3.1256,4.02749 3.13101,2.94218 8.87213,13.59456 8.87361,16.46458 4.3e-4,0.84013 0.61176,2.41513 1.3585,3.5 0.74674,1.08488 1.93039,3.77251 2.63032,5.97251 0.69994,2.2 1.63067,4.45598 2.06829,5.0133 0.43762,0.55731 1.34393,3.25731 2.01401,6 0.67008,2.74268 1.6304,5.51537 2.13405,6.16152 0.50365,0.64615 1.10304,2.89615 1.332,5 1.18127,10.85475 2.50423,20.35004 3.45883,24.82518 0.58661,2.75 0.78076,6.125 0.43145,7.5 -0.34931,1.375 -0.7913,4.99958 -0.9822,8.05461 -0.91666,14.6696 -4.84482,27.9409 -13.30901,44.96458 -7.10961,14.29924 -11.10984,20.60287 -16.14771,25.44577 -1.69638,1.63073 -3.9381,4.89505 -4.98159,7.25405 -1.26615,2.86234 -2.83016,4.63668 -4.70171,5.334 -3.256,1.21314 -9.30444,7.39043 -9.30444,9.50264 0,0.79439 -0.39691,1.44435 -0.88202,1.44435 -0.48511,0 -3.71542,2.79844 -7.17846,6.21875 -3.46305,3.42031 -9.31239,8.70781 -12.99854,11.75 -3.68616,3.04219 -9.49582,8.79375 -12.91038,12.78125 -3.41455,3.9875 -6.6328,7.25 -7.15166,7.25 -0.51886,0 -1.26639,0.84981 -1.66116,1.88846 -0.39478,1.03866 -7.01778,8.77346 -14.71778,17.18846 -14.21958,15.53997 -22.04921,23.78548 -49.16125,51.77252 -8.33869,8.60781 -17.15298,17.85502 -19.58732,20.54935 l -4.42607,4.89879 -37.41268,-0.19268 C 493.33571,494.99893 475.15,494.98228 473.5,495.0679 c -1.65,0.0856 -51.99212,0.0956 -111.87139,0.0222 -68.64473,-0.0842 -109.30079,0.22289 -110.03354,0.83102 -0.72088,0.59827 -1.71897,0.61233 -2.62861,0.037 -1.95567,-1.23689 -6.69255,-1.21032 -7.46646,0.0419 -0.76351,1.23538 -2.21922,1.30111 -2.66667,0.12042 z M 252.5,493 c 0.33992,-0.55 0.14148,-1 -0.44098,-1 -0.58246,0 -1.05902,0.45 -1.05902,1 0,0.55 0.19844,1 0.44098,1 0.24254,0 0.7191,-0.45 1.05902,-1 z M 551,490.55902 c 0,-1.05548 -1.91911,-1.49891 -2.48992,-0.57533 -0.34546,0.55897 0.0734,1.01631 0.9309,1.01631 C 550.29844,491 551,490.80156 551,490.55902 Z M 364.67385,487.5919 c 9.95138,0.59778 26.51646,0.64281 26.95265,0.0733 0.0696,-0.0908 0.43163,-21.28537 0.80457,-47.09895 0.37294,-25.81359 0.89932,-47.29179 1.16974,-47.72934 0.27042,-0.43755 -0.0159,-1.74393 -0.63624,-2.90308 -0.99167,-1.85296 -1.87298,-2.07006 -7.29624,-1.79739 -3.39258,0.17058 -6.61833,0.0673 -7.16833,-0.22946 -1.27477,-0.68787 -13.26355,-0.47673 -13.98661,0.24632 -0.29882,0.29882 -2.86428,0.17641 -5.70104,-0.27202 -2.83675,-0.44843 -24.54252,-0.82948 -48.23504,-0.84678 -23.69252,-0.0173 -43.97731,-0.0854 -45.07731,-0.15132 -1.1,-0.0659 -9.29825,0.0376 -18.21832,0.23016 -11.10888,0.23977 -16.57253,-0.004 -17.34264,-0.77427 -0.83242,-0.83242 -1.8041,-0.77164 -3.74269,0.23412 -2.02457,1.05036 -6.48248,1.24723 -19.65736,0.8681 -9.37144,-0.26968 -17.93899,-0.67783 -19.03899,-0.90699 -1.1,-0.22917 -2.75743,0.14699 -3.68318,0.83592 -1.51185,1.12508 -1.70616,4.70721 -1.9089,35.19119 -0.12414,18.66624 -0.45011,34.34787 -0.72437,34.84806 -0.27427,0.5002 -0.65689,6.86486 -0.85026,14.1437 l -0.3516,13.23426 8.25916,0.69111 c 10.12988,0.84765 45.7085,1.3414 110.32439,1.53107 26.98589,0.0792 49.6958,0.53372 50.46647,1.01002 0.82166,0.50781 1.9006,0.45154 2.6086,-0.13605 0.76584,-0.63559 5.53231,-0.74225 13.03354,-0.29165 z M 517.5,488.00625 c 12.65,-0.017 24.41988,-0.29239 26.15529,-0.61206 2.35896,-0.43455 6.27085,-3.76921 15.5,-13.21289 6.78959,-6.9474 17.29471,-17.59751 23.34471,-23.6669 6.05,-6.06939 13.25,-13.71128 16,-16.98197 2.75,-3.27069 6.6875,-7.70776 8.75,-9.86015 2.0625,-2.1524 3.75,-4.21723 3.75,-4.58853 0,-1.04724 21.40966,-22.65084 24.36937,-24.59012 4.9113,-3.218 3.36285,-4.21496 -7.61937,-4.90569 -5.6375,-0.35458 -12.725,-0.85925 -15.75,-1.12151 -3.025,-0.26226 -28,-0.63572 -55.5,-0.82993 -27.5,-0.1942 -64.91783,-0.47103 -83.15074,-0.61516 -18.23291,-0.14414 -33.62798,0.0329 -34.21127,0.39338 -1.70105,1.05131 -2.02202,5.45077 -2.59615,35.58528 -0.29865,15.675 -0.7339,31.425 -0.96722,35 -1.10261,16.89416 -0.78641,26.10849 0.96224,28.04073 2.02838,2.24133 7.75527,2.57741 37.96314,2.22781 11,-0.12731 30.35,-0.24534 43,-0.26229 z m -380.00369,-4.00028 c 0.78943,-1.27732 0.80155,-96.715 0.0125,-97.99179 -0.37532,-0.60728 -4.67161,-0.99075 -10.4409,-0.93191 -6.52839,0.0666 -10.50715,-0.33966 -11.91055,-1.2161 -1.66294,-1.03852 -2.36574,-1.05774 -3.33235,-0.0911 -1.38228,1.38228 -6.43745,1.66098 -7.21804,0.39795 -0.28112,-0.45485 -3.56674,-0.45914 -7.301383,-0.01 -3.734644,0.44961 -7.468699,0.61016 -8.297899,0.35678 -2.847279,-0.87003 -18.266668,-1.47818 -19.386994,-0.76462 -1.48624,0.94661 -6.98042,1.00587 -7.645902,0.0825 -0.288892,-0.40086 -2.313892,-0.31415 -4.5,0.19269 C 52.116133,385.27313 35.272896,385.25057 34.5,384 c -0.760708,-1.23085 -14.172063,-1.33963 -14.925183,-0.12106 -0.298769,0.48342 -2.480525,0.66058 -4.848346,0.3937 -6.5299076,-0.73602 -6.8496437,0.0954 -6.8860872,17.9071 -0.041463,20.26498 -0.013843,16.5439 -0.3629513,48.89803 -0.1695983,15.71777 0.019905,29.10891 0.4211185,29.75808 0.5093742,0.82419 7.951653,1.37028 24.665464,1.80988 13.164792,0.34625 24.835985,0.97493 25.935985,1.39706 2.903224,1.11411 78.30672,1.07897 78.99631,-0.0368 z M 435,388.38197 c 0,-0.825 -0.45,-1.22189 -1,-0.88197 -0.55,0.33992 -1,1.29303 -1,2.11803 0,0.825 0.45,1.22189 1,0.88197 0.55,-0.33992 1,-1.29303 1,-2.11803 z M 653.35773,372.62389 C 656.93327,371.12993 674,354.47486 674,352.47952 c 0,-1.26722 -2.54644,-1.57304 -14,-1.68134 -15.73283,-0.14877 -23.23392,0.25747 -25.29118,1.36971 -2.20419,1.19169 -24.57501,1.34453 -40.20882,0.27473 -3.85,-0.26345 -7.675,-0.52345 -8.5,-0.57778 -0.825,-0.0543 -3.075,0.0146 -5,0.15321 -1.925,0.1386 -28.25,-0.0926 -58.5,-0.51381 -81.53658,-1.13531 -80.85675,-1.14749 -83.5,1.49576 -1.5463,1.5463 -2,3.33333 -2,7.87756 0,3.50793 0.50395,6.27626 1.25,6.8665 0.6875,0.54392 5.525,1.30287 10.75,1.68654 5.225,0.38368 11.75,0.86447 14.5,1.06843 4.06183,0.30125 35.95267,0.41402 93.5,0.33062 3.575,-0.005 16.175,0.29442 28,0.66577 11.825,0.37135 22.85,0.57254 24.5,0.4471 1.65,-0.12544 3.9,-0.16475 5,-0.0873 1.1,0.0774 9.17932,0.38347 17.95405,0.68016 8.77473,0.29669 16.16223,0.74761 16.41667,1.00205 0.65354,0.65353 0.81548,0.62056 4.48701,-0.9135 z M 337.5,371.39904 c 21.68729,-0.21123 50.61417,-0.9108 54.75,-1.32409 1.26749,-0.12666 0.85816,-14.56679 -0.45,-15.87495 -0.66,-0.66 -2.35987,-1.2 -3.77749,-1.2 -1.41763,0 -3.46513,-0.59593 -4.55,-1.32428 -1.59556,-1.07121 -16.1025,-1.30856 -75.91204,-1.24201 -51.52742,0.0573 -74.57587,-0.24787 -76.03887,-1.00688 -1.31112,-0.68022 -7.52894,-0.98414 -16.56047,-0.80946 -7.95362,0.15383 -17.34511,-0.1672 -20.86998,-0.7134 -3.52487,-0.54621 -7.64112,-0.72245 -9.14723,-0.39165 -3.19044,0.70074 -3.63807,2.74876 -3.11186,14.23768 l 0.33206,7.25 h 6.17454 c 3.396,0 7.52157,0.385 9.16794,0.85555 1.64637,0.47056 5.4684,0.52015 8.4934,0.11021 3.025,-0.40994 9.325,-0.31089 14,0.22011 4.675,0.531 25.69277,1.06169 46.70616,1.17929 21.01339,0.11761 38.55195,0.55962 38.97457,0.98224 0.42263,0.42263 1.67986,0.4413 2.79384,0.0415 1.11399,-0.3998 14.17543,-0.84524 29.02543,-0.98987 z m -289.75,-2.9879 c 3.875001,-0.82975 19.328491,-0.86243 21.858817,-0.0462 1.302434,0.42012 2.544683,0.15505 3.248674,-0.69321 0.899988,-1.08442 2.24493,-1.16823 6.391183,-0.39828 6.792182,1.26129 53.496856,1.26118 56.699676,-1.3e-4 2.32578,-0.91592 2.46205,-1.43505 2.72172,-10.36875 0.15035,-5.1725 0.0665,-10.07955 -0.18631,-10.90455 -0.39862,-1.30078 -5.14298,-1.47611 -35.72171,-1.32009 -22.689719,0.11576 -36.242857,-0.19503 -38.012954,-0.8717 -2.032727,-0.77706 -3.138947,-0.72955 -4.237265,0.18197 -0.838832,0.69617 -2.254291,0.91668 -3.249096,0.50618 -3.505953,-1.44674 -9.571136,-1.48226 -14.28082,-0.0836 -2.644412,0.78531 -5.006078,1.22977 -5.248147,0.9877 C 37.116222,344.78289 29.007062,343.76396 26,343.92607 c -1.375,0.0741 -5.274478,0.14167 -8.665506,0.15008 -3.936909,0.01 -6.570125,0.50284 -7.284901,1.36409 -0.7154037,0.86201 -1.0165747,5.23282 -0.8344947,12.11077 0.3211495,12.13121 0.5842162,12.46217 8.1239157,10.22048 2.940944,-0.87439 4.294078,-0.85721 5.784297,0.0735 1.207716,0.75423 3.733276,0.99895 6.660987,0.64544 2.593636,-0.31317 6.065702,-0.15139 7.715702,0.3595 2.891743,0.89539 4.301299,0.83506 10.25,-0.43874 z M 636,335.78062 c 5.35615,-1.24363 12.74391,-1.67662 35.5,-2.08062 13.09773,-0.23252 17.86079,-0.68011 20.75,-1.94987 2.0625,-0.90644 3.75,-2.08429 3.75,-2.61745 0,-0.53315 2.06658,-3.36862 4.5924,-6.30103 2.52582,-2.93241 5.0075,-6.23165 5.51485,-7.33165 0.50734,-1.1 1.80908,-3.35 2.89275,-5 1.08367,-1.65 2.43598,-4.06546 3.00515,-5.36769 0.56916,-1.30223 1.92584,-3.50042 3.01484,-4.88486 C 716.109,298.86301 717,296.86628 717,295.81028 c 0,-1.05601 0.87425,-3.83911 1.94278,-6.18467 2.641,-5.79736 3.79494,-18.18968 2.8609,-30.72357 -1.56241,-20.96591 -2.8917,-33.30471 -3.69962,-34.34065 -0.45527,-0.58376 -1.0995,-3.08639 -1.43163,-5.56139 -0.60125,-4.4804 -5.25311,-16.57102 -7.36688,-19.14718 -0.6105,-0.74405 -1.60729,-3.15282 -2.21509,-5.35282 -0.6078,-2.2 -2.64933,-6.4697 -4.53675,-9.48822 l -3.43165,-5.48823 -8.31103,-0.10308 c -10.41567,-0.12919 -32.7468,-1.17246 -52.31103,-2.44388 -8.25,-0.53615 -47.175,-1.26762 -86.5,-1.6255 -39.325,-0.35788 -73.975,-0.72638 -77,-0.81888 -3.025,-0.0925 -6.02592,0.22465 -6.6687,0.70478 -0.64279,0.48013 -6.84696,0.96072 -13.78705,1.06798 -9.97491,0.15417 -12.81687,0.50927 -13.56598,1.69503 -0.52121,0.825 -1.00274,10.725 -1.07009,22 -0.0673,11.275 -0.24056,22.975 -0.38493,26 -0.14438,3.025 -0.43367,28.55631 -0.64288,56.73625 L 438.5,333.97249 470,334.48115 c 17.325,0.27976 40.725,0.69022 52,0.91214 11.275,0.22191 28.15,0.0809 37.5,-0.31335 11.96098,-0.50434 19.66772,-0.3391 26,0.55748 9.14122,1.2943 11.88945,1.30647 13.13772,0.0582 0.95719,-0.95719 7.13068,-0.87936 7.73442,0.0975 0.26959,0.43622 4.23056,0.92062 8.80214,1.07647 4.57159,0.15584 8.54007,0.5135 8.81885,0.7948 0.51738,0.52207 3.99563,-0.0236 12.00687,-1.88376 z m -332.91844,-0.66095 c 6.61914,0.11828 14.04965,0.52084 16.51224,0.89457 2.52895,0.38379 4.73107,0.26913 5.06024,-0.26349 0.32054,-0.51864 1.99201,-0.66722 3.71438,-0.33017 3.66503,0.71721 2.54561,0.70871 14.92617,0.11334 5.38703,-0.25905 10.21605,-0.73148 10.73117,-1.04984 0.51512,-0.31836 9.29292,-0.50539 19.50623,-0.41561 10.21331,0.0898 18.83714,-0.10426 19.16407,-0.43119 0.32693,-0.32694 0.61887,-3.86657 0.64875,-7.86585 0.0299,-3.99929 0.40223,-16.72143 0.82743,-28.27143 0.42521,-11.55 1.07438,-43.5043 1.4426,-71.00956 0.57965,-43.29804 0.47261,-50.17297 -0.79756,-51.22712 -1.05358,-0.8744 -8.35116,-1.25736 -25.89217,-1.35877 -13.43381,-0.0777 -24.92099,-0.53778 -25.52707,-1.02247 -0.64614,-0.51672 -2.42049,-0.42161 -4.28953,0.22994 -2.04177,0.71176 -4.52133,0.80073 -6.89804,0.24751 C 330.16971,172.8845 320.175,172.61271 310,172.75554 c -22.85086,0.32076 -22.15788,0.28853 -29.76244,1.38437 -7.43966,1.07209 -86.36827,1.48165 -90.82822,0.47132 -2.06128,-0.46696 -3.43922,-0.26901 -4.13721,0.59431 -0.68702,0.84975 -1.2565,21.90729 -1.65767,61.29446 -0.33612,33 -0.90273,67.07453 -1.25915,75.72118 -0.67064,16.26955 -0.0491,19.64277 3.37694,18.32807 0.7765,-0.29797 3.29191,-0.099 5.58979,0.44222 2.29788,0.5412 13.7511,1.13516 25.45161,1.31992 14.56694,0.23002 21.64451,0.70677 22.45,1.51226 0.81052,0.81052 6.94523,1.20359 19.72635,1.26396 10.2025,0.0482 20.8,0.41093 23.55,0.8061 2.75,0.39518 5.79802,0.33429 6.77338,-0.1353 0.97535,-0.46959 7.18903,-0.75702 13.80818,-0.63874 z m -165.49238,-8.28212 c 1.51587,-1.5142 1.70062,-8.44173 2.0717,-77.68361 l 0.40741,-76.02115 -4.28414,-0.52721 C 133.42787,172.31562 121.6,171.82861 109.5,171.52333 58.279185,170.23104 47.990305,169.85793 38.5,168.94859 26.780364,167.82564 17.17648,167.90543 16.418386,169.13205 16.123355,169.60942 15.056669,170 14.047972,170 c -1.008697,0 -2.1034,0.70206 -2.432674,1.56013 -0.329274,0.85808 -0.559992,13.8824 -0.512706,28.94294 0.04729,15.06055 -0.131364,27.74598 -0.396998,28.18987 C 10.439959,229.13682 9.9336367,249.525 9.5804334,274 9.2272301,298.475 8.6930336,320.15526 8.39333,322.17835 7.4303038,328.67908 5.560184,328.5 74.409988,328.5 c 56.017422,0 61.663642,-0.14857 63.179192,-1.66245 z M 716.5,308 c 0.33992,-0.55 0.16803,-1 -0.38197,-1 -0.55,0 -1.27811,0.45 -1.61803,1 -0.33992,0.55 -0.16803,1 0.38197,1 0.55,0 1.27811,-0.45 1.61803,-1 z M 679.3458,159.15169 c -0.11046,-2.34653 -1.24522,-4.36433 -4,-7.11264 -2.11519,-2.11023 -5.82554,-6.35729 -8.24523,-9.43791 -2.41969,-3.08063 -5.14219,-5.60114 -6.05,-5.60114 -0.90781,0 -2.16553,-0.51496 -2.79494,-1.14437 -0.85915,-0.85915 -1.90143,-0.83077 -4.18199,0.11387 -2.00979,0.83248 -5.49692,1.06241 -10.30564,0.67951 -15.62466,-1.24412 -32.34637,-1.65714 -86.268,-2.13075 -30.8,-0.27053 -66.35,-0.74387 -79,-1.05185 -12.65,-0.30799 -25.925,-0.20143 -29.5,0.2368 l -6.5,0.79679 -0.282,11.78041 -0.282,11.78041 18.00307,-0.10731 c 9.90168,-0.059 18.46194,0.1763 19.0228,0.52292 0.99511,0.61501 106.10928,1.84178 115.03813,1.3426 6.2533,-0.34961 14.33173,-0.23166 29.5,0.43072 7.15,0.31223 21.775,0.88041 32.5,1.26262 10.725,0.38222 19.70306,0.88885 19.95124,1.12585 0.24818,0.23701 1.14818,0.28656 2,0.11013 1.05907,-0.21937 1.5,-1.35657 1.39456,-3.59666 z M 283.5,158.41663 c 7.7,-0.3994 16.025,-0.87302 18.5,-1.05248 8.39824,-0.60896 78.45601,-0.44572 86.25,0.20097 7.08661,0.588 7.75984,0.48434 7.86491,-1.21104 0.76574,-12.35477 0.70039,-20.8717 -0.16817,-21.91825 -0.80988,-0.97585 -8.16946,-1.14157 -33.28396,-0.74945 -23.62447,0.36885 -33.43624,0.17773 -36.70347,-0.71494 -2.87362,-0.78513 -14.10487,-1.30392 -31.58481,-1.45895 -14.91903,-0.13231 -27.60043,-0.53409 -28.1809,-0.89284 -0.58047,-0.35875 -1.37441,-0.13612 -1.7643,0.49474 -0.64968,1.0512 -28.79864,0.80548 -70.08728,-0.61181 -10.8981,-0.37409 -10.30802,-1.20964 -10.32837,14.62498 -0.009,7.30021 0.37771,10.95026 1.23635,11.65829 0.69412,0.57236 9.44036,1.2942 19.66741,1.62318 10.12958,0.32585 18.53931,0.71436 18.68831,0.86336 0.5163,0.51629 45.96017,-0.133 59.89428,-0.85576 z m -143.40825,-6.66729 c 1.00484,-3.75723 1.02499,-20.1214 0.0267,-21.64332 -0.91607,-1.39653 -7.68785,-1.3111 -32.1184,0.40515 -4.125,0.28978 -8.85,0.51658 -10.5,0.504 -1.65,-0.0126 -3.99716,0.49668 -5.215911,1.13171 -1.688555,0.87981 -2.559294,0.86961 -3.658781,-0.0429 -1.4441,-1.1985 -29.596249,-1.64332 -43.125308,-0.68141 -10.223275,0.72687 -25.847253,0.75252 -29.12872,0.0478 -1.888058,-0.40546 -3.394909,-0.24119 -3.8,0.41426 -0.812627,1.31486 -0.905143,18.1148 -0.104167,18.91578 0.600225,0.60022 18.762699,1.79376 42.032887,2.76217 7.7,0.32044 14.45,0.73615 15,0.92379 0.55,0.18764 16.517781,0.17339 35.48396,-0.0317 l 34.48396,-0.37282 z M 356,132.12244 c 0,-1.30341 -2.58284,-3.20627 -3.33333,-2.45577 C 351.91617,130.41716 353.81903,133 355.12244,133 355.6051,133 356,132.6051 356,132.12244 Z m 153.6809,-14.40415 c 0.6495,-0.413 1.48453,-0.25963 1.85563,0.34082 0.44806,0.72497 3.07482,0.87532 7.8191,0.44752 9.92441,-0.89488 29.68655,-1.24739 30.12537,-0.53736 0.19948,0.32275 21.32285,0.70523 46.94084,0.84995 44.83849,0.2533 46.57816,0.19366 46.57816,-1.59702 0,-1.75693 -2.88786,-5.36548 -12.75,-15.93187 -2.3375,-2.504417 -4.26335,-4.831777 -4.27966,-5.171909 C 625.95403,95.778289 619.16739,88.525 610.88891,80 602.61044,71.475 595.02105,62.92306 594.02359,60.995688 593.02613,59.068317 590.02528,55.365729 587.35502,52.767716 584.68476,50.169703 581.6,47.111193 580.5,45.971027 c -1.1,-1.140167 -3.23699,-3.287579 -4.74888,-4.772028 -1.51188,-1.48445 -2.74938,-3.036499 -2.75,-3.448999 -6.1e-4,-0.4125 -0.78862,-1.563852 -1.75112,-2.55856 -0.9625,-0.994708 -4.31739,-4.707208 -7.45531,-8.25 -12.49514,-14.107321 -13.5873,-15.078394 -17.03196,-15.143699 -1.7945,-0.03402 -25.14027,-0.0083 -51.87949,0.05719 -37.84946,0.09268 -48.83877,0.398768 -49.61924,1.382058 -0.59817,0.753635 -1.26474,15.580279 -1.65276,36.763012 -0.35766,19.525 -0.92322,41.685548 -1.25681,49.245661 -0.41045,9.302189 -0.25412,14.170279 0.4836,15.059179 0.71463,0.86107 3.94424,1.3749 9.37605,1.49171 16.39909,0.35268 36.30929,1.45404 37.46595,2.0725 1.65908,0.8871 18.56918,0.75964 20.00087,-0.15076 z M 389.5,115.69854 l 8,-0.19854 0.10457,-3.5 c 0.0575,-1.925 0.24236,-20.15 0.41079,-40.5 0.16842,-20.35 0.68393,-37.758036 1.14557,-38.684525 0.4783,-0.959918 0.39989,-2.840401 -0.18228,-4.371637 -0.59856,-1.574322 -0.65583,-3.15439 -0.13829,-3.815475 0.48584,-0.620599 1.15946,-3.248083 1.49694,-5.838852 0.78917,-6.058216 -0.84402,-7.359308 -8.95902,-7.137258 -18.13266,0.496162 -82.41033,1.610804 -85.37828,1.480548 -1.925,-0.08448 -29.30161,-0.199812 -60.83692,-0.256287 -41.26927,-0.07391 -57.65224,0.212645 -58.46214,1.02255 -0.79401,0.794008 -1.22512,15.728173 -1.46455,50.734345 l -0.33932,49.609111 4.80146,-0.72503 c 6.93542,-1.04728 34.675,-0.70617 37.75341,0.46424 1.56025,0.5932 20.42521,1.06388 46.83041,1.16842 59.81621,0.2368 61.45196,0.26211 62.15762,0.96175 0.5254,0.52092 22.2258,0.35187 53.06003,-0.41336 z m -281,-2.83968 c 4.95,-0.6041 13.725,-1.15698 19.5,-1.22861 5.775,-0.0716 11.0625,-0.49431 11.75,-0.93927 0.9504,-0.61511 1.27648,-8.04525 1.36048,-30.999997 0.11086,-30.29454 1.07918,-63.089222 1.93278,-65.458937 C 143.406,13.225054 134.23837,12.8555 98.5,12.436471 19.039333,11.504803 19.066875,11.504554 17.401278,13.17015 c -1.091044,1.091044 -1.74618,5.469265 -2.427888,16.225381 -0.513501,8.102123 -1.141082,15.066783 -1.394623,15.477022 -0.713257,1.154073 -1.082415,66.503507 -0.382079,67.636677 0.34057,0.55106 4.360706,1.13698 8.933635,1.30205 4.572929,0.16507 8.49511,0.48082 8.715957,0.70167 0.844315,0.84431 69.094054,-0.60946 77.65372,-1.65409 z M 413.30282,55.513695 C 413.41127,54.971227 412.7125,54.375731 411.75,54.190371 410.6554,53.97957 410,54.470042 410,55.5 c 0,1.739789 2.9553,1.752043 3.30282,0.01369 z M 404,16 c 0,-0.55 -0.45,-1 -1,-1 -0.55,0 -1,0.45 -1,1 0,0.55 0.45,1 1,1 0.55,0 1,-0.45 1,-1 z"
       id="path1" />
    <rect
       style="fill:#000000"
       id="rect1"
       width="30.059599"
       height="92.831116"
       x="402.26816"
       y="30.059599" />
    <rect
       style="fill:#000000"
       id="rect2"
       width="69.84436"
       height="11.493376"
       x="320.93042"
       y="120.2384" />
  </g>
</svg>
