<?xml version="1.0" encoding="UTF-8" standalone="no"?>
<!-- Created with Inkscape (http://www.inkscape.org/) -->

<svg
   version="1.1"
   id="svg1"
   width="734"
   height="517"
   viewBox="0 0 734 517"
   sodipodi:docname="1.svg"
   inkscape:version="1.4 (86a8ad7, 2024-10-11)"
   xmlns:inkscape="http://www.inkscape.org/namespaces/inkscape"
   xmlns:sodipodi="http://sodipodi.sourceforge.net/DTD/sodipodi-0.dtd"
   xmlns="http://www.w3.org/2000/svg"
   xmlns:svg="http://www.w3.org/2000/svg">
  <defs
     id="defs1" />
  <sodipodi:namedview
     id="namedview1"
     pagecolor="#ffffff"
     bordercolor="#000000"
     borderopacity="0.25"
     inkscape:showpageshadow="2"
     inkscape:pageopacity="0.0"
     inkscape:pagecheckerboard="0"
     inkscape:deskcolor="#d1d1d1"
     inkscape:zoom="1.5377176"
     inkscape:cx="366.77736"
     inkscape:cy="260.12579"
     inkscape:window-width="1920"
     inkscape:window-height="1013"
     inkscape:window-x="2391"
     inkscape:window-y="605"
     inkscape:window-maximized="1"
     inkscape:current-layer="g1" />
  <g
     inkscape:groupmode="layer"
     inkscape:label="Image"
     id="g1">
    <path
       style="fill:#000000"
       d="m 23.313868,515.62446 c 0.66603,-1.73565 -3.856122,-3.90452 -6.434649,-3.08613 -1.04003,0.3301 -4.357371,-0.11683 -7.371869,-0.99317 -9.6294305,-2.79935 -8.85870326,7.52932 -8.65930973,-116.04516 0.0958448,-59.4 0.12532182,-110.25 0.0655044,-113 -0.0598174,-2.75 -0.13429161,-6.35 -0.16549821,-8 C 0.71683987,272.85 0.97272731,249.581 1.3166852,222.79111 1.6606431,196.00123 1.604571,173.87365 1.1920804,173.61871 0.04660782,172.91077 -0.11916639,159.19168 1.0093243,158.49424 2.3240107,157.68172 2.3150961,140 1,140 c -1.45463403,0 -1.22816186,-5.74127 0.25,-6.33772 1,-0.40351 1,-0.52017 0,-0.58333 -1.43109372,-0.0904 -1.73139682,-5.73746 -0.33213273,-6.24562 C 1.4400754,126.64369 2.115829,108.82639 2.4855098,85.5 3.7025702,8.7050234 3.4292578,15.00618 5.7711634,9.75 6.93517,7.1375 8.2503428,4.9966006 8.6937696,4.9924458 9.1371963,4.9882911 12.2,4.5529392 15.5,4.0249973 23.153542,2.8005654 54.328288,2.0785628 97,2.1374694 c 18.425,0.025435 38.60571,-0.00431 44.84602,-0.066105 6.2403,-0.061793 12.87427,0.3096219 14.74214,0.8253655 2.2024,0.6081128 3.6127,0.5872938 4.01227,-0.05923 0.37526,-0.6071822 3.59118,-0.7672992 8.22576,-0.4095509 4.18529,0.323067 22.01299,0.613024 39.61712,0.6443488 23.12613,0.041151 32.4063,0.3858692 33.44472,1.242328 1.11371,0.9185589 1.53191,0.9040122 1.85792,-0.064626 0.29618,-0.8799799 3.1678,-1.25 9.70089,-1.25 5.1041,0 11.65707,-0.4507674 14.56215,-1.0017054 3.11027,-0.5898502 5.7361,-0.635007 6.38649,-0.1098295 1.24102,1.0020968 4.22765,0.8640076 6.85676,-0.3170275 0.96373,-0.4329222 2.98873,-0.4233426 4.5,0.021288 1.51127,0.4446306 48.19776,0.917206 103.74776,1.0501674 55.55,0.1329614 101.675,0.3054007 102.5,0.3831984 0.825,0.077798 12.77791,-0.1002883 26.56202,-0.3957467 23.56695,-0.5051508 25.25219,-0.421543 28.25,1.4015306 C 548.56541,5.0981757 550,6.7944179 550,7.8013026 c 0,1.0068847 1.4625,3.1670004 3.25,4.8002574 1.7875,1.633256 4.90639,4.925 6.93086,7.314985 2.02448,2.389985 7.42448,8.286321 12,13.102969 4.57553,4.816648 11.69414,12.454182 15.81914,16.972297 4.125,4.518114 11.55,12.393429 16.5,17.500699 4.95,5.10727 13.5,14.39463 19,20.638578 5.5,6.243948 14.45683,15.631292 19.90407,20.860772 5.44723,5.22948 10.62223,10.3541 11.5,11.38806 9.71126,11.4393 15.40246,18.0826 16.39517,19.13796 0.66042,0.7021 2.77576,3.29997 4.70076,5.77306 1.925,2.47308 4.73621,5.33184 6.24712,6.35279 1.51092,1.02095 2.74842,2.32781 2.75,2.90414 0.002,0.57633 5.64488,6.87633 12.54066,14 6.89578,7.12367 12.81507,14.07713 13.15397,15.45213 0.33891,1.375 0.88441,2.725 1.21222,3 0.87287,0.73224 2.94214,4.13337 4.25886,7 0.63157,1.375 3.12312,6.64491 5.53679,11.71091 2.41366,5.06599 4.98515,12.06271 5.71443,15.54826 0.72927,3.48554 2.07159,7.77926 2.98293,9.5416 3.41881,6.61126 3.9781,29.92418 1.01238,42.19923 -2.49791,10.33879 -4.53179,16.95763 -5.37004,17.4757 -0.42664,0.26368 -1.06774,2.68085 -1.42466,5.3715 -0.82727,6.23624 -9.29086,23.01131 -17.14816,33.98813 -3.28157,4.58444 -7.0915,10.06132 -8.4665,12.17086 -1.375,2.10953 -4.92405,6.23363 -7.88678,9.16466 -2.96273,2.93103 -7.01273,7.32438 -9,9.763 -4.03898,4.9563 -3.29374,4.13746 -19.25325,21.15468 -6.40202,6.82631 -13.73649,15.20245 -16.29882,18.61366 -2.56234,3.4112 -5.87433,7.23667 -7.35997,8.50103 -1.48565,1.26436 -4.26323,4.32338 -6.1724,6.79781 -1.90917,2.47443 -5.91589,7.07774 -8.90382,10.22957 -2.98793,3.15184 -6.37588,7.08492 -7.52878,8.74019 -1.1529,1.65526 -2.86392,3.26304 -3.80226,3.57284 -0.93834,0.3098 -2.89878,2.00171 -4.35653,3.75982 -1.45775,1.7581 -6.61791,7.48912 -11.46703,12.7356 -4.84911,5.24648 -11.88867,13.20542 -15.64347,17.68653 -11.20946,13.37782 -30.19157,34.06942 -33.73198,36.76982 -2.99721,2.28609 -4.41325,2.56469 -15.20001,2.99053 -31.93662,1.26081 -56.37879,1.89356 -60.8949,1.57643 -6.61165,-0.46428 -70.3827,-0.55388 -82.5,-0.11591 -5.225,0.18885 -41.675,0.32334 -81,0.29886 -39.325,-0.0245 -72.4,-0.0261 -73.5,-0.004 -6.42471,0.13105 -23.00979,0.0534 -36.25,-0.1698 -13.39066,-0.2257 -15.25,-0.0629 -15.25,1.33558 0,0.94117 -0.84223,1.59262 -2.05902,1.59262 -1.13246,0 -1.7809,-0.45 -1.44098,-1 0.74746,-1.20942 2.54927,-1.08468 -23,-1.59233 -11.55,-0.22949 -27.975,-0.57886 -36.5,-0.77637 -21.821574,-0.50556 -36,0.28698 -36,2.01231 C 84,516.38963 83.55,517 83,517 c -0.55,0 -1,-0.6366 -1,-1.41467 0,-1.04673 -1.755637,-1.50189 -6.75,-1.75 -10.294627,-0.51142 -15.218514,0.0832 -14.57506,1.75996 C 61.048906,516.56983 60.451346,517 58.72362,517 c -1.59145,0 -2.666831,-0.67484 -2.979266,-1.86959 -0.330897,-1.26535 -1.257373,-1.79139 -2.866632,-1.62762 C 49.07171,513.8901 49,513.92704 49,515.5 c 0,1.08333 -1.111111,1.5 -4,1.5 -2.888889,0 -4,-0.41667 -4,-1.5 0,-0.825 -0.45,-1.5 -1,-1.5 -0.55,0 -1,0.675 -1,1.5 0,0.825 -0.694727,1.5 -1.543837,1.5 -0.885583,0 -1.418552,-0.70192 -1.25,-1.64626 0.441467,-2.47337 -2.250254,-2.90114 -2.888863,-0.4591 C 32.850338,516.68031 32.008976,517 27.77638,517 c -3.824359,0 -4.867026,-0.3214 -4.462512,-1.37554 z M 216,504.91791 c 0.59329,-0.0747 64.14884,0.11973 68.5,0.20959 1.65,0.0341 11.55,-0.28587 22,-0.71099 20.65201,-0.84014 21.69397,-0.84726 28.79633,-0.19674 2.63799,0.24162 5.03158,0.0587 5.3191,-0.40654 0.28752,-0.46522 0.94349,-0.58583 1.45771,-0.26803 0.51422,0.31781 12.97062,0.50751 27.6809,0.42157 14.71028,-0.0859 59.44545,-0.28894 99.41149,-0.45111 81.80594,-0.33195 74.04218,0.46907 80.86629,-8.34332 4.33144,-5.59346 13.38866,-15.82152 24.84915,-28.06143 1.85953,-1.986 5.0673,-5.86091 7.12839,-8.61091 2.06108,-2.75 7.73965,-9.30794 12.61903,-14.5732 4.87939,-5.26526 10.89661,-11.9108 13.37161,-14.76787 2.475,-2.85707 7.875,-8.71103 12,-13.0088 4.125,-4.29778 9.3,-9.95352 11.5,-12.56832 2.2,-2.6148 5.6875,-6.36268 7.75,-8.32863 2.0625,-1.96594 3.75,-3.91755 3.75,-4.33689 0,-0.41934 1.2375,-2.08422 2.75,-3.69971 1.5125,-1.6155 4.1,-4.61163 5.75,-6.65806 3.00456,-3.72644 6.73066,-7.7876 18.06518,-19.68965 6.00148,-6.30197 17.4965,-19.71063 24.61588,-28.7138 2.02459,-2.56029 4.83709,-5.95853 6.25,-7.55165 1.41292,-1.59312 2.56894,-3.46304 2.56894,-4.15538 0,-0.69235 1.5461,-3.10937 3.43577,-5.37116 5.37521,-6.43371 10.47513,-18.08049 13.17012,-30.07688 0.80313,-3.575 1.9849,-8.525 2.62615,-11 1.57153,-6.06546 1.53369,-36.77383 -0.0489,-39.68916 -0.65361,-1.20404 -1.81956,-5.02904 -2.591,-8.5 -1.82765,-8.22331 -3.49448,-12.5842 -6.30442,-16.49412 C 712.02947,207.56592 711,205.17954 711,204.01367 c 0,-1.16588 -1.125,-3.77536 -2.5,-5.79886 -1.375,-2.02349 -2.5,-4.04036 -2.5,-4.48193 0,-1.47877 -11.62268,-16.65782 -18.59896,-24.28997 C 670.81087,151.29304 666.9188,147.14493 657,137.04196 644.35488,124.16204 623.3492,101.8241 616.61997,94.100874 c -2.68401,-3.08048 -7.18401,-8.237506 -10,-11.460055 -2.81598,-3.22255 -9.0684,-9.934329 -13.89425,-14.915064 C 584.03171,58.752724 580.75457,55.12765 572.67616,45.547507 570.37927,42.823636 563.775,35.803096 558,29.946308 552.225,24.089519 546.38644,17.503266 545.02542,15.310189 l -2.47458,-3.987412 -48.52542,-0.290567 c -90.84931,-0.543998 -108.29963,-0.293614 -109.34193,1.568883 -0.61686,1.102257 -1.14254,1.27418 -1.60551,0.525075 -1.33923,-2.166912 -10.19985,-2.857669 -26.31912,-2.051787 -8.94237,0.447073 -22.55886,0.482894 -30.25886,0.0796 -7.7,-0.403293 -19.175,-0.462878 -25.5,-0.132411 -6.325,0.330466 -21.4,0.477782 -33.5,0.327368 -45.45117,-0.564999 -93.16832,-0.47029 -95.79969,0.190143 -1.51519,0.380287 -3.29072,0.215809 -3.99688,-0.370254 -0.85276,-0.707726 -11.78292,-0.93687 -33.23702,-0.696791 C 116.88489,10.66878 102.275,10.903508 102,10.993656 100.61479,11.44774 88.921881,10.771759 85.737127,10.053481 c -2.492714,-0.5621984 -3.76714,-0.4634422 -4.025603,0.311947 -0.35126,1.05378 -6.619918,1.172489 -24.461524,0.463226 -5.638233,-0.224138 -31.994627,0.978637 -37.864104,1.72793 -2.441564,0.311689 -4.945752,1.42329 -6.159786,2.73431 C 11.234221,17.441909 11.161294,18.985735 10.452793,74 c -0.400199,31.075 -0.6072435,69.55 -0.4600981,85.5 0.1471451,15.95 0.2538001,30.35 0.2370101,32 -2.2845146,224.51092 -2.0445926,309.2603 0.880622,311.06819 1.965721,1.21488 19.468411,1.71806 60.389673,1.73613 24.2,0.0107 45.575,-0.0563 47.5,-0.14883 1.925,-0.0925 12.95,0.18591 24.5,0.61878 15.67529,0.58748 68.15073,0.69145 72.5,0.14364 z M 175.52699,382.04367 c -0.32507,-0.52598 -1.20611,-0.7203 -1.95786,-0.43182 -0.75176,0.28847 -1.6639,0.0438 -2.027,-0.54368 -0.36309,-0.58749 -1.42111,-1.08314 -2.35115,-1.10144 -2.91864,-0.0574 -6.05346,-3.5319 -9.5818,-10.61998 -3.91714,-7.86918 -4.90111,-12.30642 -4.68956,-21.14782 0.16992,-7.10136 3.08179,-14.64553 7.7202,-20.00171 2.4364,-2.81343 3.82325,-3.44015 9.36018,-4.2299 15.59682,-2.22461 23.02099,0.4169 28.81812,10.25344 3.24223,5.5014 3.38308,6.17219 3.67311,17.4929 0.33833,13.20665 -0.50658,15.97693 -7.09812,23.27297 -3.77989,4.18389 -11.05879,7.59557 -14.36223,6.7317 -1.11589,-0.29182 -2.28089,-0.12282 -2.5889,0.37555 -0.74041,1.198 -4.16518,1.16302 -4.91499,-0.0502 z m 202.26663,-7.86875 c -5.91995,-5.61487 -12.79539,-17.82061 -12.7943,-22.71331 0.002,-10.79164 13.18145,-28.5724 23.27173,-31.39751 2.58955,-0.72503 6.09054,-1.04178 7.77997,-0.7039 5.26689,1.05338 13.38952,7.22634 16.9565,12.88643 l 3.31066,5.25337 -0.21288,12.72029 c -0.19103,11.41448 -0.46431,13.17015 -2.66208,17.10239 -1.56057,2.79215 -4.35295,5.59897 -7.69621,7.73601 -4.71535,3.01408 -6.1292,3.39359 -13.95339,3.74548 l -8.70638,0.39157 z M 175.32673,181.62147 c -1.5547,-1.30819 -3.68301,-2.54569 -4.72958,-2.75 -2.61402,-0.5103 -9.16707,-10.24083 -11.20362,-16.6361 -1.57773,-4.95443 -1.57258,-5.74987 0.0874,-13.5 0.97012,-4.52945 2.35452,-9.36037 3.07644,-10.73537 0.72192,-1.375 4.97366,-5.82141 9.4483,-9.88092 l 8.13573,-7.38092 5.17932,0.6122 c 4.63511,0.54787 5.78524,1.21835 10.94578,6.38092 10.58134,10.5855 14.17642,21.47134 11.3779,34.45205 -1.52851,7.08988 -4.88669,12.53804 -9.12712,14.80745 C 197.13275,177.73173 196,178.70277 196,179.14866 196,180.95076 187.90232,184 183.11656,184 c -3.76744,0 -5.6441,-0.57302 -7.78983,-2.37853 z M 192,178 c 0,-0.55 -0.19844,-1 -0.44098,-1 -0.24254,0 -0.7191,0.45 -1.05902,1 -0.33992,0.55 -0.14148,1 0.44098,1 0.58246,0 1.05902,-0.45 1.05902,-1 z m 194.5,4 c -0.33992,-0.55 -1.35479,-1 -2.25527,-1 -2.49753,0 -9.10201,-4.95618 -9.81372,-7.36448 -0.3471,-1.17454 -1.80458,-3.86964 -3.23885,-5.98912 -2.4592,-3.63408 -2.60663,-4.5455 -2.58813,-16 0.018,-11.16778 0.23898,-12.59563 2.74233,-17.72209 1.49749,-3.06663 4.62868,-7.44624 6.95818,-9.73248 3.7241,-3.65493 5.01493,-4.2634 10.69142,-5.03971 17.91526,-2.45006 26.60781,9.49537 26.08606,35.84788 -0.13484,6.81097 -1.02891,12.95639 -2.21314,15.21228 -1.00449,1.91348 -8.17392,7.09394 -14.57307,10.53015 C 393.95073,183.07565 387.58427,183.75439 386.5,182 Z m 20,-13 c -0.33992,-0.55 -1.04148,-1 -1.55902,-1 -0.51754,0 -0.94098,0.45 -0.94098,1 0,0.55 0.70156,1 1.55902,1 0.85746,0 1.2809,-0.45 0.94098,-1 z M 95,6.5 C 95,5.675 94.55,5 94,5 93.45,5 93,5.675 93,6.5 93,7.325 93.45,8 94,8 94.55,8 95,7.325 95,6.5 Z"
       id="path1" />
    <ellipse
       style="fill:#000000"
       id="path2"
       cx="395.71634"
       cy="152.17358"
       rx="11.380503"
       ry="19.509434" />
    <ellipse
       style="fill:#000000"
       id="path3"
       cx="405.1459"
       cy="166.80566"
       rx="2.6012578"
       ry="4.2270441" />
  </g>
</svg>
