<?xml version="1.0" encoding="UTF-8" standalone="no"?>
<!-- Created with Inkscape (http://www.inkscape.org/) -->

<svg
   version="1.1"
   id="svg1"
   width="744"
   height="518"
   viewBox="0 0 744 518"
   sodipodi:docname="2.svg"
   inkscape:version="1.4 (86a8ad7, 2024-10-11)"
   xmlns:inkscape="http://www.inkscape.org/namespaces/inkscape"
   xmlns:sodipodi="http://sodipodi.sourceforge.net/DTD/sodipodi-0.dtd"
   xmlns="http://www.w3.org/2000/svg"
   xmlns:svg="http://www.w3.org/2000/svg">
  <defs
     id="defs1" />
  <sodipodi:namedview
     id="namedview1"
     pagecolor="#ffffff"
     bordercolor="#000000"
     borderopacity="0.25"
     inkscape:showpageshadow="2"
     inkscape:pageopacity="0.0"
     inkscape:pagecheckerboard="0"
     inkscape:deskcolor="#d1d1d1"
     inkscape:zoom="1.534749"
     inkscape:cx="372.0478"
     inkscape:cy="260.30314"
     inkscape:window-width="1920"
     inkscape:window-height="1013"
     inkscape:window-x="2391"
     inkscape:window-y="605"
     inkscape:window-maximized="1"
     inkscape:current-layer="g1" />
  <g
     inkscape:groupmode="layer"
     inkscape:label="Image"
     id="g1">
    <path
       style="fill:#000000"
       d="m 138.96378,517.63088 c -0.29493,-0.29516 -18.96993,-0.77563 -41.500003,-1.0677 C 36.414158,515.77175 11.872488,515.00213 9.6433745,513.80914 7.3780718,512.59679 3.0929299,507.73301 1.378244,504.42795 0.52937779,502.79176 0.33984348,489.54996 0.66858626,454.84777 1.2227335,396.3518 1.6812553,364.73235 2.0512487,359.5 2.2068166,357.3 2.2825007,342.675 2.2194358,327 2.1563708,311.325 2.3042412,294.675 2.5480366,290 2.9525492,282.2431 3.0345527,241.99172 2.7089822,211 2.6003265,200.65684 2.6228492,187.26295 2.7922195,161.5 2.9464151,138.04526 4.0370286,78.446425 4.5580963,65 4.9310784,55.375 5.3500452,40.525 5.4891336,32 5.628222,23.475 5.9125667,14.680001 6.1210108,12.455559 6.5605071,7.7654064 9.3700029,2.9775087 12.101846,2.2631158 13.145831,1.9901076 14,1.3692214 14,0.88336864 14,-0.47603994 16.778476,-0.16299074 17.254045,1.25 c 0.335631,0.99721 0.730116,0.9947162 1.950655,-0.012331 1.231925,-1.01644156 1.734712,-1.01644156 2.581176,0 1.10814,1.3306659 0.633866,1.3237214 70.214124,1.0280956 18.425,-0.078282 40.25,-0.057604 48.5,0.045952 18.85205,0.2366353 60.98954,0.07265 109.5,-0.4261385 38.92909,-0.4002721 165.2562,-0.062863 246,0.6570458 50.17495,0.4473579 48.33609,0.4361988 58.20947,0.3532432 8.53813,-0.071737 10.11464,0.4652154 11.86457,4.0410305 C 567.94389,10.757759 597.36511,42.730218 627,73.146 c 20.69117,21.236389 33.28159,34.66653 34.5,36.80096 0.55,0.9635 3.73719,4.63209 7.08264,8.15243 20.24943,21.30798 28.37831,30.60733 28.44828,32.54451 0.017,0.47086 2.04201,2.37116 4.5,4.22289 2.45799,1.85174 4.46925,3.65174 4.46946,4 2.1e-4,0.34827 2.51134,3.33321 5.5803,6.63321 3.06895,3.3 6.43734,7.65697 7.48532,9.68215 1.04798,2.02518 2.36185,3.96424 2.91971,4.30902 0.55786,0.34477 1.01429,1.22079 1.01429,1.94669 0,0.72591 1.55357,3.89978 3.45237,7.05306 1.8988,3.15327 3.97516,8.27029 4.61413,11.37115 0.63897,3.10086 1.78542,6.85312 2.54767,8.33835 0.76225,1.48523 1.99946,5.33047 2.74935,8.54497 0.7499,3.2145 1.87157,6.72431 2.49261,7.79958 2.13392,3.69465 4.32215,10.95793 4.05364,13.45503 -0.14785,1.375 -0.19667,6.775 -0.10849,12 0.0882,5.225 -0.30396,11.75 -0.87142,14.5 -1.88388,9.12951 -3.06822,13.93582 -5.05149,20.5 -1.08014,3.575 -2.08342,7.625 -2.22952,9 -0.29734,2.79832 -4.50013,11.91859 -7.60351,16.5 -1.11769,1.65 -2.03513,3.84109 -2.03875,4.86909 C 724.9995,317.3808 714.22593,335 713.00292,335 c -0.40543,0 -1.908,1.76927 -3.33903,3.93172 -4.88199,7.37718 -27.19155,31.78359 -29.81366,32.61582 -1.01763,0.32298 -1.85023,1.19377 -1.85023,1.93508 0,0.74132 -1.35,2.62203 -3,4.17937 -1.65,1.55733 -3,3.24397 -3,3.74808 0,0.50411 -3.6,4.47809 -8,8.83106 -4.4,4.35297 -8,8.29176 -8,8.75286 0,0.4611 -5.61716,6.61358 -12.48257,13.67219 -6.86541,7.0586 -12.49041,13.21624 -12.5,13.68364 -0.0266,1.29538 -16.9113,19.02409 -19.09838,20.05299 -1.05548,0.49655 -1.91905,1.35021 -1.91905,1.89701 0,2.38527 -15.41561,18.83811 -29,30.95124 -5.225,4.65911 -13.55,13.25485 -18.5,19.10165 -4.95,5.84681 -11.17197,12.03882 -13.82659,13.76003 l -4.8266,3.12947 -49.47578,0.29992 c -36.66329,0.22225 -49.85066,0.61104 -50.9234,1.50134 -1.071,0.88884 -1.79764,0.91093 -2.79296,0.0849 -0.92221,-0.76537 -7.76274,-1.01735 -21.75,-0.80119 -11.22257,0.17344 -21.16486,-0.0554 -22.09398,-0.50862 -0.92912,-0.45318 -1.91584,-0.45745 -2.1927,-0.009 -0.43535,0.70442 -107.053,1.34103 -174.61799,1.04264 -30.10624,-0.13296 -31.11773,-0.12926 -34,0.12417 -1.375,0.1209 -9.925,0.12866 -19,0.0172 -9.075,-0.11141 -18.975,0.10725 -22,0.48592 -3.025,0.37867 -5.7413,0.44699 -6.03622,0.15183 z M 171,505.77693 c 0.825,-0.0291 3.975,-0.003 7,0.0583 3.025,0.0611 6.4,0.0706 7.5,0.021 1.1,-0.0496 3.575,-0.0177 5.5,0.0709 1.925,0.0886 4.4,0.13849 5.5,0.11091 1.1,-0.0276 12.37699,-0.0755 25.05998,-0.10655 12.68298,-0.031 24.60798,-0.39073 26.5,-0.79937 1.89201,-0.40865 11.31502,-0.37506 20.94002,0.0746 9.625,0.4497 18.625,0.84675 20,0.88235 2.63544,0.0682 29.43134,0.18871 32,0.14388 12.50974,-0.21833 27.85197,-0.31143 28.57347,-0.17339 0.50959,0.0975 1.37653,0.046 1.92653,-0.11448 1.66446,-0.4856 9.80634,-0.57586 56,-0.62081 9.35,-0.009 25.325,-0.0631 35.5,-0.11997 10.175,-0.0569 20.75,-0.0639 23.5,-0.0155 6.79418,0.11944 24.57061,-1.07749 32.42697,-2.18338 3.53483,-0.49758 6.81476,-0.66502 7.28873,-0.37209 0.47398,0.29293 4.10684,0.51971 8.07303,0.50396 3.9662,-0.0158 13.11383,-0.0263 20.32806,-0.0234 l 13.11679,0.005 5.94287,-5.80953 c 3.26857,-3.19523 8.16602,-8.50127 10.88321,-11.79119 2.71719,-3.28992 6.78564,-7.78992 9.041,-10 2.25536,-2.21008 6.35695,-6.71833 9.11464,-10.01833 2.7577,-3.3 9.02012,-10.05 13.91649,-15 4.89638,-4.95 10.68601,-11.25 12.86585,-14 2.17984,-2.75 6.75234,-7.7 10.16111,-11 3.40877,-3.3 8.95787,-9.375 12.33134,-13.5 3.37347,-4.125 7.56825,-9.25254 9.32175,-11.39454 1.75349,-2.142 5.66316,-6.50206 8.68816,-9.68902 5.45907,-5.75135 17.36464,-18.72942 26,-28.34218 2.475,-2.75513 5.22929,-5.69894 6.12065,-6.5418 C 686.5446,351.84924 697,338.82488 697,337.49715 c 0,-1.32569 -3.45704,-1.454 -27.94727,-1.03727 -15.37099,0.26155 -29.07042,0.75744 -30.44316,1.10198 -1.37274,0.34453 -3.01779,0.30388 -3.65565,-0.0903 -0.63787,-0.39422 -6.25246,-0.88405 -12.47688,-1.0885 -12.99797,-0.42693 -16.11921,-1.31167 -17.50727,-4.96254 -1.30671,-3.4369 0.28935,-9.37799 3.26899,-12.16829 2.14107,-2.00501 3.61169,-2.14985 27.67199,-2.7252 13.97591,-0.33421 25.68746,-0.77867 26.02566,-0.98769 0.3382,-0.20902 9.28452,-0.62584 19.88072,-0.92628 10.59619,-0.30043 19.64984,-0.78359 20.11922,-1.07368 0.46938,-0.29009 3.22507,-0.0777 6.12377,0.47206 7.42054,1.40728 7.76129,1.03629 15.84496,-17.2505 1.15221,-2.60651 2.09492,-5.55401 2.09492,-6.55 0,-0.996 0.5293,-2.3402 1.17623,-2.98713 1.08297,-1.08297 1.9794,-5.39431 3.26934,-15.72377 0.27474,-2.2 0.74225,-5.575 1.03893,-7.5 0.29667,-1.925 0.7378,-7.37384 0.9803,-12.10854 0.24249,-4.7347 0.54603,-9.0097 0.67452,-9.5 0.61244,-2.33689 -1.5876,-12.47553 -3.78796,-17.4564 l -2.45839,-5.56494 -58.69648,0.17935 C 610.40316,219.72605 609.46538,219.69744 607.25,217.69009 605.53136,216.13283 605,214.55291 605,211 c 0,-4.8394 1.23424,-6.63109 7,-10.16155 2.03533,-1.24627 20.6204,-3.26862 26.5,-2.88362 0.55,0.036 8.2,0.55673 17,1.15716 16.73429,1.14178 61.09126,1.94006 63.25,1.13829 4.83278,-1.79493 -5.73289,-19.41854 -21.75,-36.27914 -1.925,-2.02637 -5.75,-6.3317 -8.5,-9.5674 -2.75,-3.23569 -7.025,-7.92011 -9.5,-10.40982 -9.02552,-9.07916 -36.96654,-39.66522 -41.98839,-45.963225 -2.83715,-3.558118 -7.72298,-8.958118 -10.85741,-12 C 623.01977,82.988813 616.41531,76.008913 611.47762,70.519806 601.72811,59.68152 594.17475,51.652721 581,38.123789 c -4.675,-4.800679 -9.22561,-9.604946 -10.11247,-10.676148 -0.88685,-1.071203 -3.28491,-3.480236 -5.32901,-5.353409 -2.0441,-1.873172 -4.38024,-4.418701 -5.19143,-5.656731 -2.0828,-3.178759 -10.23427,-4.216044 -30.36709,-3.864255 -9.075,0.158572 -17.4,0.38249 -18.5,0.497597 -1.1,0.115106 -24.275,-0.189344 -51.5,-0.676556 -27.225,-0.487211 -62.325,-0.771714 -78,-0.632227 -15.675,0.139486 -32.775,0.152091 -38,0.02801 -11.34668,-0.269456 -39.7841,-0.123897 -100.33785,0.513587 -30.38678,0.319899 -45.18862,0.822808 -45.9262,1.560395 -0.72663,0.726629 -1.48617,0.758214 -2.28525,0.09503 C 194.38479,13.074461 91.687448,11.437572 62.5,11.839987 57,11.915817 43.793473,11.93205 33.152162,11.87606 l -19.347838,-0.1018 0.214243,10.86287 C 14.1364,28.611708 13.898308,49.025 13.489473,68 c -0.660097,30.63667 -0.875107,50.49021 -0.595639,55 0.304148,4.90806 -0.927108,156.35437 -1.341449,165 -0.683863,14.26952 -1.913024,119.95707 -1.9898749,171.09647 -0.048355,32.17702 0.2243604,41.94209 1.2043159,43.12273 1.933218,2.32914 10.361746,2.89432 49.59356,3.32551 19.751796,0.21708 36.118081,0.60042 36.369523,0.85187 0.335131,0.33513 61.700101,-0.17685 74.270091,-0.61965 z m 231.49484,-62.61542 c -0.22961,-0.22961 -14.89203,-0.34557 -32.58316,-0.2577 C 333.11916,443.08657 333,443.06411 333,435.94483 c 0,-5.06883 2.21873,-10.45634 4.89639,-11.88938 3.13339,-1.67694 16.32712,-3.11484 17.74947,-1.9344 0.78067,0.6479 24.31321,0.7469 68.02386,0.28618 78.68194,-0.82933 75.08015,-0.85971 76.89763,0.64867 1.94695,1.61582 1.80804,8.12794 -0.24986,11.71363 -0.93935,1.63671 -3.69999,3.88571 -6.25,5.09165 -4.32619,2.04593 -6.41653,2.18995 -39.56749,2.72624 -19.25,0.3114 -38.73223,0.6619 -43.29385,0.77887 -4.56161,0.11698 -8.4817,0.0248 -8.71131,-0.20478 z M 90.619898,442.194 c -0.34204,-0.55343 -1.42049,-0.7974 -2.396557,-0.54215 -3.010418,0.78724 -14.385672,-1.48878 -16.356983,-3.27279 -2.622341,-2.37319 -2.422046,-8.25916 0.424725,-12.48118 l 2.291082,-3.39788 43.415225,0.31849 c 23.87837,0.17517 43.70466,0.49737 44.05842,0.716 0.71709,0.44319 16.15812,0.50717 43.89219,0.18188 l 18.44799,-0.21637 3.02067,4.29156 c 3.2769,4.65559 2.99325,6.63932 -1.25793,8.79722 -1.17973,0.59883 -2.93556,1.78344 -3.90184,2.63246 -2.39856,2.10749 -11.21938,2.8182 -34.25689,2.76014 -51.5583,-0.12992 -86.97538,0.11813 -91.629106,0.64175 -3.010486,0.33873 -5.385983,0.16147 -5.750996,-0.42913 z M 215.73061,335.39728 c -0.27274,-0.27275 -28.33621,-0.69089 -62.36325,-0.92921 -60.868293,-0.42632 -74.751656,-0.85148 -77.199166,-2.36412 -1.762129,-1.08906 -3.166269,-11.01407 -1.939218,-13.70715 0.981457,-2.15407 1.360265,-2.18936 25.633601,-2.38857 C 113.41316,315.89702 138.9,315.63596 156.5,315.42809 c 17.6,-0.20787 40.55,-0.35856 51,-0.33487 17.90875,0.0406 19.12923,0.16405 21.25,2.14925 3.49742,3.27383 3.06856,8.59742 -1,12.41356 -3.17272,2.97589 -11.03108,6.72955 -12.01939,5.74125 z m 141.70612,-1.2938 c -0.21804,-0.21809 -3.72192,-0.3085 -7.7864,-0.20092 -7.15141,0.18928 -7.47485,0.0947 -10.02014,-2.93021 -2.69552,-3.20343 -3.00996,-4.07559 -2.65738,-7.37057 0.2843,-2.65678 4.22393,-8.46697 6.02719,-8.88893 0.825,-0.19305 2.45359,-0.016 3.61908,0.39354 1.16549,0.40951 13.35579,0.72485 27.08955,0.70077 13.73375,-0.0241 25.9048,0.25276 27.04676,0.6152 1.14196,0.36245 2.36572,0.19069 2.71947,-0.38168 0.84086,-1.36055 8.09548,-1.341 10.6548,0.0287 1.42849,0.76451 2.37621,0.75566 3.32412,-0.031 0.90164,-0.74829 13.28121,-1.1705 38.68608,-1.3194 37.28189,-0.2185 37.36673,-0.21426 40.50634,2.02523 2.71473,1.93641 3.1183,2.79087 2.94268,6.23045 -0.23988,4.69826 -3.28968,8.44148 -8.19738,10.06117 -3.12558,1.03153 -132.95631,2.06634 -133.95477,1.06767 z M 83.781261,219.04789 c -14.035879,-0.65622 -14.953253,-1.23208 -15.560467,-9.7676 -0.367257,-5.16248 -0.142609,-6.03116 2.101844,-8.12742 2.439679,-2.27861 2.814712,-2.3224 12.845206,-1.5 5.682686,0.46592 16.182156,0.60053 23.332156,0.29914 7.15,-0.3014 14.2375,-0.22031 15.75,0.18019 1.5125,0.40051 4.2125,0.28974 6,-0.24615 1.98231,-0.59429 7.54063,-0.66457 14.25,-0.18019 11.35711,0.81992 29.38447,0.77831 64.00848,-0.14774 l 20.00848,-0.53514 4.24152,4.9241 c 2.33284,2.70826 4.24151,5.51559 4.24149,6.23851 -4e-5,1.9853 -6.73765,6.95148 -10.85948,8.00434 -2.00227,0.51146 -16.46549,0.85051 -32.14049,0.75346 -15.675,-0.0971 -30.75,-0.15164 -33.5,-0.1213 -2.75,0.0303 -11.525,0.0141 -19.5,-0.0362 -16.41349,-0.1034 -39.74659,0.2143 -42,0.57185 -0.825,0.13091 -6.773432,-0.009 -13.218739,-0.30988 z m 259.135999,-1.24438 c -5.53613,-3.36676 -6.36289,-8.55323 -2.37137,-14.8762 1.89808,-3.00676 3.01276,-3.88478 4.3807,-3.45061 1.7223,0.54664 38.53598,1.05913 55.07341,0.76669 4.125,-0.0729 8.625,-0.10626 10,-0.074 1.375,0.0322 5.40065,-0.17305 8.94589,-0.45615 3.54524,-0.28311 7.37024,-0.18406 8.5,0.22009 3.4265,1.22577 57.41388,-0.57201 59.09582,-1.96789 1.02608,-0.85158 1.45829,-0.87761 1.45829,-0.0878 0,0.6832 1.99577,1.12244 5.1,1.12244 4.46667,0 5.52222,0.42222 8.5,3.4 1.87,1.87 3.4,4.36735 3.4,5.54966 0,3.42958 -2.61329,7.55265 -5.675,8.95364 -4.34008,1.98594 -12.68504,2.22111 -85.72156,2.41576 -62.27954,0.16597 -68.12734,0.0406 -70.68618,-1.51555 z M 166.02309,102.03543 c -0.86563,-0.54739 -20.69556,-0.89687 -47.91082,-0.84438 C 65.487016,101.29256 69,101.87846 69,93 c 0,-9.057657 -3.180082,-8.471128 47.24089,-8.713017 24.42153,-0.11716 45.11339,-0.485704 45.98192,-0.818988 0.86852,-0.333284 4.06963,-0.145577 7.11358,0.417127 3.71856,0.687413 12.19976,0.70711 25.84903,0.06003 37.44539,-1.775199 37.27584,-1.779326 40.22377,0.979162 C 236.83414,86.257687 238,88.188408 238,89.214807 238,91.293917 234.12983,97 232.71967,97 c -0.49732,0 -2.04838,0.9 -3.4468,2 -2.10539,1.6561 -4.05678,2 -11.34871,2 -5.50377,0 -9.06987,0.42674 -9.50942,1.13795 -0.50507,0.81722 -3.69261,0.91404 -11.30902,0.34354 -14.14156,-1.05927 -27.17958,-1.171 -27.7563,-0.23784 -0.6126,0.9912 -1.51937,0.93443 -3.32633,-0.20822 z m 174.41135,-1.33816 c -1.95054,-1.677789 -2.73492,-3.373988 -2.8902,-6.250001 -0.24425,-4.523902 1.86565,-10.456517 3.70863,-10.427913 0.68592,0.01065 26.44713,-0.278506 57.24713,-0.64256 30.8,-0.364055 61.57286,-0.582649 68.38414,-0.485764 10.28285,0.146265 12.69404,-0.104301 14.21055,-1.476728 1.3042,-1.180279 2.76696,-1.470682 5.11586,-1.015654 1.8092,0.350475 6.85148,1.018968 11.20507,1.485541 C 505.319,82.731193 508,84.205514 508,87.704698 c 0,0.727342 0.51583,2.148415 1.14629,3.15794 1.34649,2.156075 0.50658,6.341637 -1.71922,8.567435 -0.86346,0.863457 -3.22528,1.579607 -5.2485,1.591427 -14.02084,0.082 -124.668,1.18212 -128.67857,1.27945 -2.75,0.0667 -10.04793,-0.17928 -16.21763,-0.54669 -6.82738,-0.40658 -11.44908,-0.29353 -11.80902,0.28886 -0.91501,1.48052 -2.13047,1.15588 -5.03891,-1.34585 z"
       id="path1" />
  </g>
</svg>
