<?xml version="1.0" encoding="UTF-8" standalone="no"?>
<!-- Created with Inkscape (http://www.inkscape.org/) -->

<svg
   version="1.1"
   id="svg1"
   width="741"
   height="513"
   viewBox="0 0 741 513"
   sodipodi:docname="5.svg"
   inkscape:version="1.4 (86a8ad7, 2024-10-11)"
   xmlns:inkscape="http://www.inkscape.org/namespaces/inkscape"
   xmlns:sodipodi="http://sodipodi.sourceforge.net/DTD/sodipodi-0.dtd"
   xmlns="http://www.w3.org/2000/svg"
   xmlns:svg="http://www.w3.org/2000/svg">
  <defs
     id="defs1" />
  <sodipodi:namedview
     id="namedview1"
     pagecolor="#ffffff"
     bordercolor="#000000"
     borderopacity="0.25"
     inkscape:showpageshadow="2"
     inkscape:pageopacity="0.0"
     inkscape:pagecheckerboard="0"
     inkscape:deskcolor="#d1d1d1"
     inkscape:zoom="1.5497076"
     inkscape:cx="370.39245"
     inkscape:cy="256.5"
     inkscape:window-width="1920"
     inkscape:window-height="1013"
     inkscape:window-x="2391"
     inkscape:window-y="605"
     inkscape:window-maximized="1"
     inkscape:current-layer="g1" />
  <g
     inkscape:groupmode="layer"
     inkscape:label="Image"
     id="g1">
    <path
       style="fill:#000000"
       d="m 260.70488,511.88428 c -0.66268,-0.35461 -12.8355,-0.58613 -27.05071,-0.51451 -14.21521,0.0716 -26.34096,-0.17587 -26.94612,-0.54999 -0.60516,-0.37413 -1.79953,-0.33551 -2.65417,0.0858 C 203.19925,511.32693 197.1,511.36941 190.5,511 c -6.63071,-0.37113 -12.80493,-0.2702 -13.79897,0.22556 -1.12088,0.55903 -3.11435,0.46311 -5.2887,-0.25449 -1.95832,-0.64631 -4.02129,-0.78296 -4.70103,-0.31139 C 166.04508,511.12185 152.9,511.275 137.5,511 c -15.4,-0.275 -28.45186,-0.19923 -29.00412,0.16839 -0.55227,0.36761 -23.487512,0.4614 -50.967207,0.20842 C 15.954582,510.99407 7.2988986,510.67549 5.9772184,509.47938 2.4676335,506.30325 1.919041,499.45976 1.7397474,456.61845 1.6436034,433.64534 1.1945238,414.62022 0.74179275,414.34042 0.28906172,414.06062 0.19008555,412.97645 0.52184572,411.93117 0.85360589,410.88589 1.2800225,401.13626 1.4694382,390.26533 1.6588539,379.3944 1.9069096,370.5 2.0206731,370.5 2.1344366,370.5 2.3864753,345.075 2.5807591,314 2.7750429,282.925 3.1380372,244 3.387413,227.5 3.6367889,211 4.1030673,174.775 4.4235873,147 4.7441073,119.225 5.2414587,88.175 5.5288127,78 5.8161666,67.825 6.0520013,48.844471 6.0528897,35.821047 6.0550346,4.3792248 6.9032768,2 18.110784,2 21.370261,2 24,1.5534654 24,1 24,0.45 24.675,0 25.5,0 26.325,0 27,0.3511671 27,0.78037134 27,1.7418558 46.862017,4.2033123 48.157885,3.4024219 49.099914,2.8202158 174.45227,1.8869268 211.5,2.1862868 c 11,0.088884 21.8,0.091317 24,0.00541 6.32415,-0.2469618 78.82443,-0.140912 91,0.1331104 6.05,0.1361607 11.47442,-0.088217 12.05426,-0.4986162 0.57985,-0.4103996 4.40485,-0.3595187 8.5,0.1130685 C 351.14942,2.4118421 367.775,2.582356 384,2.3181745 400.225,2.053993 415.3,1.9618719 417.5,2.113461 c 2.2,0.151589 5.9125,0.225574 8.25,0.164411 2.3375,-0.061163 5.0375,-0.096921 6,-0.079463 0.9625,0.017458 11.875,0.1737212 24.25,0.3472513 12.375,0.1735301 23.175,0.328433 24,0.3442286 0.825,0.015796 5.7993,-0.3015886 11.05399,-0.7052983 5.2547,-0.4037098 14.4797,-0.4748766 20.5,-0.1581486 6.13657,0.3228446 11.49484,0.1703886 12.19511,-0.3469811 0.77648,-0.5736764 2.28994,-0.5064405 4,0.1777014 1.5482,0.6193866 7.84145,1.0289823 14.39432,0.9368538 13.97771,-0.1965157 13.58765,-0.3894577 26.53481,13.1253521 5.04802,5.269348 9.72403,10.030632 10.39112,10.580632 2.40436,1.982323 9.63688,9.468749 14.48408,14.992559 2.72061,3.100375 8.55891,9.320384 12.97398,13.822243 4.41508,4.501859 12.51508,13.126302 18,19.165428 5.48493,6.039127 11.99759,12.982745 14.47259,15.430262 2.475,2.447518 5.23774,5.541543 6.13942,6.875612 2.12472,3.143595 14.97716,17.103706 21.23747,23.067776 2.68229,2.55537 7.57983,8.02112 10.88343,12.14612 6.13063,7.65495 9.49138,11.3168 21.37678,23.29203 3.7076,3.73561 7.44349,7.87626 8.30199,9.20144 0.8585,1.32518 4.28309,5.91877 7.61021,10.20798 5.47262,7.05512 11.82291,17.73613 14.44646,24.29855 0.54971,1.375 1.39901,3.175 1.88735,4 1.5925,2.69041 5.33906,15.30274 7.24868,24.40179 3.12465,14.88857 1.90108,37.60165 -2.69883,50.09821 -1.41716,3.85 -3.04111,8.575 -3.60878,10.5 -0.56766,1.925 -1.37665,3.95 -1.79776,4.5 -0.4211,0.55 -1.06034,2.63757 -1.42053,4.63904 -0.36018,2.00147 -1.76304,5.60147 -3.11745,8 -1.35442,2.39853 -2.76999,5.03596 -3.14572,5.86096 -0.37574,0.825 -1.50656,2.57319 -2.51294,3.88486 -1.00638,1.31167 -1.82978,3.15443 -1.82978,4.09501 0,0.94059 -0.86612,2.49399 -1.92472,3.452 -1.0586,0.95802 -3.17352,4.21006 -4.69983,7.22675 -1.52631,3.0167 -3.5417,5.89517 -4.47865,6.39661 -0.93695,0.50144 -5.08107,5.08165 -9.20916,10.17824 -4.12808,5.09659 -10.69657,12.37312 -14.59662,16.17007 -3.90006,3.79694 -7.09175,7.17194 -7.09263,7.5 C 675.9975,370.23159 672.39822,374.325 668,379 c -4.39822,4.675 -7.9975,8.8375 -7.99839,9.25 -8.8e-4,0.4125 -0.60082,0.75 -1.3332,0.75 -0.73237,0 -2.81188,2.28448 -4.62112,5.07663 -1.80925,2.79214 -4.36004,5.56438 -5.66842,6.16051 -1.30838,0.59614 -2.37887,1.40738 -2.37887,1.80276 0,0.91429 -14.1531,17.86897 -20.41833,24.4601 -2.61402,2.75 -10.94879,11.975 -18.5217,20.5 -7.57292,8.525 -15.97192,17.80259 -18.66445,20.61687 -6.51939,6.81416 -29.7012,31.38463 -36.59619,38.78842 -5.21054,5.59504 -5.78879,5.92929 -11.00599,6.36194 -3.11757,0.25853 -6.42642,-0.0357 -7.62689,-0.67815 -1.60443,-0.85866 -2.59764,-0.83675 -4.08171,0.0901 -1.57119,0.98123 -2.48314,0.94559 -4.58474,-0.17915 -2.15606,-1.15389 -2.98973,-1.17525 -4.67961,-0.1199 -1.35704,0.84748 -2.39283,0.94746 -3.04625,0.29404 -0.95255,-0.95255 -68.51957,-0.57622 -71.13043,0.39617 -0.62904,0.23428 -8.11871,0.2512 -16.64371,0.0376 -21.5568,-0.54011 -78.90075,-0.70522 -126.79512,-0.36508 -22.16231,0.15739 -40.83731,-0.004 -41.5,-0.35856 z M 117.5,501.90864 c 2.2,-0.0234 4.675,-0.0392 5.5,-0.0351 0.825,0.004 5.775,-0.11474 11,-0.26403 5.225,-0.14929 10.73143,0.0693 12.23652,0.48586 1.50508,0.41652 2.95754,0.39967 3.22769,-0.0374 0.57979,-0.93813 1.60391,-40.315 1.588,-61.05792 -0.006,-7.975 -0.0431,-33.30727 -0.0821,-56.29392 l -0.071,-41.79393 -2.19958,-0.82541 C 147.48981,341.63276 120.175,341.43123 88,341.63889 c -32.175,0.20767 -59.85,0.37836 -61.5,0.37932 -1.65,9.7e-4 -5.559352,-0.23031 -8.687448,-0.51395 -3.952536,-0.35839 -5.93531,-0.13265 -6.5,0.74002 -0.446904,0.69065 -0.850523,7.10572 -0.896932,14.25572 -0.04641,7.15 -0.385443,42.33499 -0.7534103,78.18888 -0.5004652,48.76419 -0.3786212,65.36835 0.4835943,65.90123 0.633944,0.3918 22.955947,0.83978 49.604451,0.9955 26.648505,0.15573 48.698165,0.52948 48.999245,0.83056 0.30108,0.30108 1.49311,0.31962 2.64896,0.0412 1.15585,-0.27841 3.90154,-0.52534 6.10154,-0.54873 z m 91.18575,0.006 c 0.7786,-0.7786 3.16913,-0.78292 8.45,-0.0153 4.05034,0.58877 8.71425,0.87124 10.36425,0.62772 2.89456,-0.4272 66.71491,-0.59565 81,-0.2138 l 7,0.18712 0.27536,-31.5 c 0.28272,-32.34103 0.39417,-70.55943 0.21871,-75 -0.0543,-1.375 -0.0331,-14.14868 0.0471,-28.38596 l 0.14587,-25.88596 -74.09186,-0.2255 c -56.47496,-0.17188 -74.48325,0.0607 -75.73796,0.97817 -1.50174,1.09809 -1.65496,7.90524 -1.74699,77.61146 -0.0555,42.02428 0.24076,77.63599 0.65832,79.13713 l 0.75918,2.72934 20.23614,0.29256 c 11.12987,0.1609 20.48363,0.3952 20.78613,0.52066 0.3025,0.12545 1.03859,-0.26049 1.63575,-0.85765 z m 279.22518,-1.39661 c 1.83358,-1.83358 2.11468,-14.07105 2.41234,-105.01764 l 0.17673,-54 -54.5,-0.0731 c -29.975,-0.0402 -57.65,0.2495 -61.5,0.64373 -3.85,0.39422 -14.56868,0.24934 -23.81928,-0.32196 -14.93851,-0.92257 -16.99709,-0.86092 -18.40936,0.55135 -1.41238,1.41238 -1.63737,8.94404 -2.01326,67.395 -0.23275,36.19271 -0.38045,66.47993 -0.32822,67.30493 0.0522,0.825 0.10304,6.62759 0.11292,12.89465 0.01,6.26705 0.18624,11.66705 0.39192,12 0.20568,0.33294 35.36446,0.51683 78.13063,0.40863 69.54894,-0.17595 77.92437,-0.36443 79.34558,-1.78564 z m 58.18786,-1.6234 c 1.59567,-1.70816 2.90121,-3.50816 2.90121,-4 0,-0.49183 0.635,-0.89424 1.41111,-0.89424 0.7761,0 2.59049,-1.4625 4.03197,-3.25 1.44148,-1.7875 5.30648,-6.00858 8.58889,-9.38017 3.28242,-3.37159 5.96803,-6.32925 5.96803,-6.57258 0,-0.24333 3.2625,-3.80773 7.25,-7.9209 3.9875,-4.11317 11.3,-12.12139 16.25,-17.79605 4.95,-5.67466 11.15265,-12.62668 13.78366,-15.44893 2.63101,-2.82225 5.80627,-6.25637 7.05613,-7.63137 1.24987,-1.375 3.82222,-3.86582 5.71635,-5.53516 1.89412,-1.66934 7.48752,-7.74434 12.42978,-13.5 13.83899,-16.11663 22.20551,-25.15757 51.26408,-55.39641 9.01057,-9.37656 10.10428,-10.92242 8.45071,-11.94438 -1.02477,-0.63335 -23.04559,-0.69253 -39.20071,-0.10535 -6.875,0.24988 -15.2,0.40979 -18.5,0.35536 -3.3,-0.0544 -6.9,-0.0234 -8,0.0689 -1.1,0.0923 -28.43657,0.277 -60.74793,0.41038 -43.55825,0.17981 -59.05332,0.54791 -59.92908,1.42367 -0.88881,0.88881 -1.17114,20.58362 -1.14071,79.57324 0.0222,43.11565 0.35439,78.90006 0.7381,79.52092 0.47866,0.77449 6.67428,1.12883 19.73743,1.12883 h 19.03977 z M 611,438.94098 C 611,438.42344 610.55,438 610,438 c -0.55,0 -1,0.70156 -1,1.55902 0,0.85746 0.45,1.2809 1,0.94098 0.55,-0.33992 1,-1.04148 1,-1.55902 z M 111.28611,324.44001 c 20.78236,-0.20163 38.26437,-0.66219 38.84892,-1.02347 0.68623,-0.42411 0.99717,-5.84073 0.87754,-15.2867 -0.20254,-15.99275 0.83191,-119.03053 1.34356,-133.82601 0.31414,-9.08433 0.28655,-9.20875 -2.26906,-10.23104 -1.65466,-0.66189 -6.91199,-0.77139 -14.58707,-0.30383 -23.21814,1.41445 -106.33295,0.47861 -118.111511,-1.32988 -1.840959,-0.28266 -3.542126,0.0411 -4.166062,0.79291 -0.870661,1.04908 -2.572419,96.95036 -2.659843,149.89344 -0.02003,12.13235 0.150483,12.27775 13.404933,11.43013 12.19566,-0.77992 38.42428,-0.85506 41.91779,-0.1201 1.311918,0.276 2.650476,0.76699 2.974571,1.09108 0.324096,0.3241 1.500708,0.2947 2.614693,-0.0653 1.113986,-0.36003 19.029178,-0.81957 39.811539,-1.02121 z m 204.52374,-0.82014 c 1.05053,-0.65115 1.2008,-6.28689 0.75902,-28.46588 C 316.26592,279.9443 315.96344,266.825 315.89671,266 c -0.0667,-0.825 0.1783,-9.825 0.54452,-20 1.25742,-34.93591 1.04572,-80.58101 -0.37781,-81.46081 -0.32475,-0.2007 -12.95937,-0.40884 -28.07694,-0.46252 -15.11756,-0.0537 -29.06148,-0.16813 -30.98648,-0.25434 -4.3149,-0.19324 -3.68261,-0.19437 -47,0.084 -19.525,0.12549 -36.89774,-0.0704 -38.60609,-0.43532 -3.51175,-0.75012 -4.18985,0.18106 -5.11863,7.02897 -0.81548,6.01249 -0.88407,150.73549 -0.0724,152.70905 0.65534,1.59341 5.6965,1.6926 74.5,1.46588 40.58841,-0.13375 74.38653,-0.60853 75.10695,-1.05506 z m 142.08793,-0.0567 c 0.6589,-0.40722 1.84772,-0.49108 2.64182,-0.18636 0.7941,0.30473 7.37232,0.62946 14.61827,0.72162 10.92787,0.13899 13.36942,-0.0991 14.31779,-1.39604 0.83237,-1.13833 1.10618,-18.51372 1.00672,-63.88301 -0.0751,-34.27566 0.2368,-63.07958 0.69321,-64.0087 0.48691,-0.99123 0.41102,-1.94814 -0.18364,-2.31566 -0.94281,-0.58269 -0.79137,-7.07554 0.51834,-22.22361 0.38517,-4.45489 0.12191,-5.53932 -1.77911,-7.32856 -1.74943,-1.64655 -2.9869,-1.96489 -5.73118,-1.47434 -1.925,0.34411 -4.625,0.82515 -6,1.069 -1.375,0.24384 -9.25,0.40801 -17.5,0.36481 -8.25,-0.0432 -21.075,-0.0135 -28.5,0.0661 -7.425,0.0795 -32.27129,0.2317 -55.21399,0.33811 -35.60895,0.16515 -41.92138,0.413 -43.13108,1.69347 -1.15833,1.2261 -1.55872,10.17365 -2.19269,49 -0.42658,26.125 -0.77345,48.85 -0.77083,50.5 0.008,5.2462 1.11684,60 1.21471,60 75.93,0 125.06702,-0.36536 125.99166,-0.93682 z M 639.5,323.39563 c 24.2,-0.16817 44.45,-0.36439 45,-0.43606 0.55,-0.0717 3.64962,0.10792 6.88803,0.39907 7.26001,0.65273 14.31863,-0.57522 15.92359,-2.77012 0.6636,-0.90754 2.36341,-3.99872 3.77734,-6.86929 11.30477,-22.95103 16.4435,-35.73873 17.32708,-43.11834 0.32262,-2.69451 1.06792,-5.4791 1.65624,-6.18798 2.83643,-3.41769 0.58003,-33.41868 -3.52836,-46.91291 -0.83725,-2.75 -1.52714,-6.2645 -1.5331,-7.80999 -0.006,-1.65905 -1.44438,-4.68747 -3.51082,-7.3938 -1.925,-2.5211 -3.5,-5.44913 -3.5,-6.50673 0,-1.84958 -3.24783,-6.84879 -7.48099,-11.51508 C 705.88511,179.16636 705,177.929 705,176.55902 c 0,-0.79254 -0.45,-1.7191 -1,-2.05902 -0.55,-0.33992 -1,-1.21889 -1,-1.95326 0,-0.73438 -1.39929,-2.83318 -3.10954,-4.66401 -1.71025,-1.83082 -3.52257,-4.4151 -4.02737,-5.74283 -0.88031,-2.31538 -1.15174,-2.37898 -6.64046,-1.55601 -6.98455,1.04726 -27.48727,1.32233 -112.3172,1.50686 -36.07702,0.0785 -66.45202,-0.11655 -67.5,-0.4334 -1.04799,-0.31685 -2.80543,0.1 -3.90543,0.92626 -1.96332,1.4748 -2.00059,2.68898 -2.03211,66.20937 -0.0177,35.58886 0.20734,71.45702 0.5,79.70702 l 0.53211,15 38.82935,0.16269 c 21.35615,0.0895 39.12544,0.45877 39.48732,0.82064 0.36187,0.36188 3.36366,0.33398 6.67064,-0.062 3.30698,-0.39597 25.81269,-0.85754 50.01269,-1.0257 z M 273,146.51366 c 9.97412,-0.43167 16.46866,-0.29959 18.21707,0.37048 2.04921,0.78536 3.58795,0.67745 6.25999,-0.439 2.81374,-1.17566 4.82719,-1.27837 9.78293,-0.49903 6.46399,1.01651 9.17869,0.94855 10.3873,-0.26007 0.38785,-0.38784 0.80086,-14.76337 0.91781,-31.94561 0.11694,-17.182235 0.32558,-46.679985 0.46364,-65.550553 0.15351,-20.982585 -0.12253,-34.683662 -0.71062,-35.271753 -1.55837,-1.558371 -146.75553,-1.541623 -149.23688,0.01722 -1.39844,0.878526 -2.34702,9.011754 -2.01941,17.314661 0.39383,9.981346 0.32859,14.993124 -0.49136,37.75 -0.48552,13.475 -0.77223,25.625 -0.63714,27 0.13509,1.375 0.2049,12.76623 0.15514,25.31385 -0.0498,12.54762 0.32227,23.58511 0.82676,24.52775 0.81279,1.51872 2.77737,1.70081 17.25101,1.59899 8.98357,-0.0632 17.40649,0.1677 18.7176,0.51313 2.91606,0.76826 48.85969,0.47991 70.11616,-0.44006 z m -147.7468,-0.89324 c 3.16425,-0.2305 6.01023,-0.003 6.32439,0.50512 0.6099,0.98684 18.54763,0.53314 20.23854,-0.5119 0.5957,-0.36816 1.04038,-6.64271 1.08915,-15.36792 0.0453,-8.11015 0.30334,-37.47072 0.57335,-65.24572 0.28007,-28.809225 0.108,-51.104818 -0.40059,-51.908124 -0.72665,-1.147712 -2.9893,-1.274245 -12.23478,-0.684201 C 130.8835,13.043304 103.1579,13.4838 85.5,13.286953 c -3.3,-0.03679 -11.85,-0.05387 -19,-0.03796 -7.15,0.01591 -21.479764,-0.06634 -31.843921,-0.182778 -10.364157,-0.116438 -19.070724,0.0151 -19.347928,0.292302 -1.15056,1.15056 -2.107154,29.32137 -2.862478,84.297366 -0.63766,46.411848 -0.594332,48.169868 1.196353,48.541988 2.403881,0.49956 104.045384,-0.0263 111.611174,-0.57745 z m 276.00979,-0.10192 c 1.74839,-0.46943 3.30903,-0.28866 4.25,0.49228 0.99659,0.8271 1.89926,0.90996 2.73701,0.25124 0.78283,-0.61553 3.86613,-0.67178 8.25,-0.15049 3.85,0.4578 10.375,0.61386 14.5,0.3468 4.125,-0.26707 18.87653,-0.68655 32.78118,-0.9322 13.90464,-0.24565 25.73955,-0.72992 26.29979,-1.07617 0.63596,-0.39305 0.98811,-7.45163 0.93742,-18.78975 -0.0447,-9.98812 -0.0651,-35.26021 -0.0454,-56.16021 0.0306,-32.458765 -0.27962,-53.627982 -0.83239,-56.809017 -0.0773,-0.444959 -0.57951,-0.537741 -1.11599,-0.206182 -0.53647,0.33156 -12.12397,0.511416 -25.75,0.39968 C 449.64857,12.772746 420.275,12.762036 398,12.860682 375.725,12.959328 353.95776,12.667 349.62836,12.211065 c -10.60691,-1.117031 -13.51123,-0.596356 -14.8541,2.662989 -0.67789,1.645328 -1.15843,14.01569 -1.28682,33.125946 -0.1127,16.775 -0.34569,34.775 -0.51775,40 -0.44067,13.38147 0.0542,55.89876 0.66932,57.50165 0.41456,1.08034 6.60327,1.27833 32.68619,1.04568 17.69614,-0.15785 33.41814,-0.62082 34.93779,-1.02883 z M 572.5,144.8405 c 6.6,-0.10084 17.625,-0.19276 24.5,-0.20428 6.875,-0.0115 16.1,-0.0303 20.5,-0.0417 4.4,-0.0114 10.475,0.0415 13.5,0.1175 3.025,0.076 14.6125,0.10229 25.75,0.0584 15.9018,-0.0627 20.25,-0.35885 20.25,-1.37913 0,-0.71459 -6.00792,-7.50746 -13.35093,-15.09526 C 656.30606,120.7082 647.93455,111.8 645.0457,108.5 642.15686,105.2 634.32728,97.014459 627.64663,90.309909 620.96598,83.605358 613.25318,75.392858 610.50706,72.059909 607.76094,68.726959 605.16352,66 604.73502,66 603.88955,66 575,37.251078 575,36.409727 575,36.128105 570.13042,31.053773 564.1787,25.133433 L 553.3574,14.369178 542.9287,14.181575 c -5.73578,-0.103183 -16.32914,-0.468684 -23.5408,-0.812226 -9.01649,-0.429519 -13.32254,-0.284124 -13.78582,0.465482 -1.61015,2.605276 -2.53704,115.488649 -1.04188,126.886539 l 0.55376,4.22137 13.19302,0.27863 c 7.25616,0.15325 19.71802,0.17149 27.69302,0.0405 7.975,-0.13095 19.9,-0.32058 26.5,-0.42142 z"
       id="path1" />
  </g>
</svg>
