<?xml version="1.0" encoding="UTF-8" standalone="no"?>
<!-- Created with Inkscape (http://www.inkscape.org/) -->

<svg
   version="1.1"
   id="svg1"
   width="739"
   height="516"
   viewBox="0 0 739 516"
   sodipodi:docname="6.svg"
   inkscape:version="1.4 (86a8ad7, 2024-10-11)"
   xmlns:inkscape="http://www.inkscape.org/namespaces/inkscape"
   xmlns:sodipodi="http://sodipodi.sourceforge.net/DTD/sodipodi-0.dtd"
   xmlns="http://www.w3.org/2000/svg"
   xmlns:svg="http://www.w3.org/2000/svg">
  <defs
     id="defs1" />
  <sodipodi:namedview
     id="namedview1"
     pagecolor="#ffffff"
     bordercolor="#000000"
     borderopacity="0.25"
     inkscape:showpageshadow="2"
     inkscape:pageopacity="0.0"
     inkscape:pagecheckerboard="0"
     inkscape:deskcolor="#d1d1d1"
     inkscape:zoom="1.5406977"
     inkscape:cx="369.31321"
     inkscape:cy="260.59623"
     inkscape:window-width="1920"
     inkscape:window-height="1013"
     inkscape:window-x="2391"
     inkscape:window-y="605"
     inkscape:window-maximized="1"
     inkscape:current-layer="g1" />
  <g
     inkscape:groupmode="layer"
     inkscape:label="Image"
     id="g1">
    <path
       style="fill:#000000"
       d="M 7.1013584,512.92627 C 4.6092936,508.8284 4.1210614,501.40627 4.3270112,470.75051 4.5061181,444.09033 4.5329351,444.28427 0.75,444.88158 -0.93372826,445.14743 0.14715095,443.08807 2,442.5 3.9136244,441.89264 4.0055474,440.9288 4.1284489,420.18261 4.1990959,408.25718 4.4229975,368.575 4.6260082,332 4.8290189,295.425 5.0353207,263.475 5.0844566,261 5.1335925,258.525 5.1119551,244.74087 5.0363734,230.3686 4.7876089,183.06468 6.163796,97.58742 7.2057047,95.627832 c 0.5474854,-1.029693 0.7071707,-3.279693 0.3548563,-5 C 6.4479386,85.195034 6.908135,12.561971 8.0764128,9.2106466 8.9155169,6.8035912 10.197032,5.7704142 14.071818,4.3770608 16.782318,3.4023785 19,2.0188062 19,1.3024556 19,0.58610501 19.948145,0 21.106989,0 c 1.438499,0 1.928843,0.46424024 1.545498,1.4632224 -0.406108,1.0582996 0.445578,1.6521498 3.07764,2.1459275 2.68801,0.5042738 39.538225,0.021259 58.769873,-0.7703276 0.55,-0.022638 3.7,0.2419796 7,0.5880398 8.97354,0.9410259 15.77024,0.9618992 17.89746,0.054965 1.04361,-0.4449384 3.06861,-0.3734601 4.5,0.1588407 1.47732,0.5493772 4.11578,0.6231739 6.10254,0.170685 1.925,-0.4384239 5.55457,-0.5445121 8.06571,-0.2357515 2.51114,0.3087606 13.08614,0.5516191 23.5,0.5396856 C 161.97957,4.103353 175.225,4.1147888 181,4.1406995 c 5.775,0.025911 12.75,-0.073721 15.5,-0.2214039 2.75,-0.1476829 14.225,-0.2105671 25.5,-0.1397428 44.63244,0.2803601 147.09401,-0.023692 157,-0.465893 5.775,-0.2577948 11.175,-0.4076331 12,-0.3329741 0.825,0.074659 13.425,0.2814596 28,0.459557 14.575,0.1780974 28.77384,0.4582533 31.55298,0.6225686 2.77914,0.1643153 5.61721,-0.049962 6.30683,-0.4761713 0.68963,-0.4262096 2.24078,-0.5292091 3.44703,-0.2288879 1.20624,0.3003213 4.76773,0.1947598 7.91444,-0.2345811 3.1467,-0.4293408 6.0717,-0.437473 6.5,-0.018072 0.95976,0.939823 3.92955,0.9964886 48.77872,0.9307305 32.72072,-0.047975 36.09109,0.1006232 37,1.6313142 1.64229,2.7657697 23.47034,26.6469669 40.97843,44.8328559 9.00153,9.35 17.63882,18.560614 19.19399,20.468032 1.55517,1.907417 6.47751,7.307417 10.93854,12 4.46103,4.692582 8.51103,9.28434 9,10.203906 1.62202,3.050397 10.71052,13.020012 25.76639,28.264412 8.18255,8.28501 18.09109,18.88865 22.01898,23.56365 3.92789,4.675 10.39558,11.68548 14.37264,15.57885 3.97707,3.89337 7.23103,7.52746 7.23103,8.07575 0,0.54828 2.01301,3.6628 4.47335,6.92114 2.46035,3.25834 4.48535,6.76374 4.5,7.78978 0.0147,1.02603 1.95513,4.85103 4.31216,8.5 4.91452,7.60827 6.17825,10.62452 10.73025,25.61076 6.0808,20.01936 4.53177,59.42639 -3.18492,81.02372 -5.22412,14.62121 -7.3108,19.2428 -10.2259,22.64843 -1.85497,2.16712 -3.61871,5.15777 -3.91942,6.64589 -0.30072,1.48812 -1.8542,4.05568 -3.45218,5.70568 -1.59799,1.65 -3.31671,3.74562 -3.81938,4.65694 -1.15869,2.10062 -15.23559,17.72943 -30.28212,33.62057 -6.39373,6.75263 -11.85151,12.8837 -12.1284,13.62461 -0.64541,1.72699 -11.36406,13.8847 -16.25344,18.43558 -2.0625,1.91972 -3.75,3.9792 -3.75,4.57664 0,0.59744 -6.31821,7.61112 -14.04046,15.58595 -7.72225,7.97484 -16.40704,16.97471 -19.29953,19.99971 -6.33978,6.63021 -16.79224,18.68309 -18.76275,21.6356 -1.59619,2.39164 -14.56747,16.82025 -22.75334,25.30969 C 565.69955,497.62864 557,508.41766 557,509.72649 557,510.9278 551.34742,516 550.00866,516 549.4539,516 549,515.55 549,515 c 0,-1.43935 -2.73883,-1.23421 -3.33772,0.25 -0.40351,1 -0.52017,1 -0.58333,0 -0.0434,-0.6875 -0.55551,-1.25 -1.13797,-1.25 -0.58246,0 -0.7809,0.45 -0.44098,1 0.39556,0.64003 -2.82295,1 -8.94098,1 -6.97238,0 -9.56316,-0.33825 -9.57433,-1.25 -0.0119,-0.97239 -0.18716,-0.97956 -0.78908,-0.0323 -0.90441,1.42335 -10.39438,1.50731 -11.29072,0.0999 -0.94434,-1.4828 -51.63693,-1.28492 -53.4365,0.20859 -1.13433,0.94141 -1.7935,0.94884 -2.89742,0.0327 -1.00425,-0.83345 -6.72644,-1.12985 -19.25,-0.9971 -9.80153,0.10389 -18.6142,-0.14286 -19.5837,-0.54833 -0.97033,-0.40581 -2.37437,-0.22961 -3.12332,0.39196 -0.95804,0.7951 -11.3833,1.09502 -35.23727,1.01371 -33.22841,-0.11326 -97.41999,-0.0745 -100.37668,0.0606 -0.825,0.0377 -61.92228,0.27747 -135.77173,0.53283 L 8.9565482,515.97689 Z M 572,415.66667 c 0,-0.73334 -0.2961,-1.62943 -0.65799,-1.99133 -0.90433,-0.90433 -3.45253,1.33682 -2.77198,2.43797 0.85211,1.37874 3.42997,1.04306 3.42997,-0.44664 z m -145,-33.25 c 0,-1.76593 -2.15276,-1.45839 -2.77083,0.39583 -0.21771,0.65312 0.31666,1.1875 1.1875,1.1875 C 426.2875,384 427,383.2875 427,382.41667 Z M 157.5,334 c 0.33992,-0.55 0.14148,-1 -0.44098,-1 -0.58246,0 -1.05902,0.45 -1.05902,1 0,0.55 0.19844,1 0.44098,1 0.24254,0 0.7191,-0.45 1.05902,-1 z M 10,325 c 0,-0.55 -0.45,-1 -1,-1 -0.55,0 -1,0.45 -1,1 0,0.55 0.45,1 1,1 0.55,0 1,-0.45 1,-1 z M 600.45729,220.0691 c 0.31644,-0.512 0.11799,-1.21356 -0.44098,-1.55902 -0.55897,-0.34546 -1.01631,0.0734 -1.01631,0.9309 0,1.75653 0.60006,2.01516 1.45729,0.62812 z M 47,181 c 0,-0.55 -0.476558,-1 -1.059017,-1 -0.582459,0 -0.780902,0.45 -0.440983,1 0.339919,0.55 0.816476,1 1.059017,1 C 46.801558,182 47,181.55 47,181 Z M 595,161.94098 C 595,161.42344 594.55,161 594,161 c -0.55,0 -1,0.70156 -1,1.55902 0,0.85746 0.45,1.2809 1,0.94098 0.55,-0.33992 1,-1.04148 1,-1.55902 z m -520,-8.5 c 0,-2.54497 -0.631156,-2.574 -3.73899,-0.17197 C 69.637193,154.52404 70.608918,156 73.059017,156 74.474669,156 75,155.3074 75,153.44098 Z m 506.68311,-3.62848 c -0.31922,-0.79773 -0.55618,-0.56078 -0.60416,0.60417 -0.0434,1.05416 0.19293,1.64479 0.52522,1.3125 0.33229,-0.3323 0.36781,-1.1948 0.0789,-1.91667 z M 561,87.972368 c 0,-0.500279 -0.67242,-0.651568 -1.49426,-0.336198 -0.82184,0.31537 -1.24074,0.983587 -0.9309,1.484927 C 559.2229,90.169682 561,89.327922 561,87.972368 Z M 445.21667,52.816667 c -1.52437,-1.524366 -2.4529,-0.595839 -1.60743,1.607422 0.46511,1.212047 0.96725,1.399418 1.72354,0.643128 0.75629,-0.756289 0.72246,-1.411974 -0.11611,-2.25055 z M 200,54 c 0,-0.55 -0.42344,-1 -0.94098,-1 -0.51754,0 -1.2191,0.45 -1.55902,1 -0.33992,0.55 0.0835,1 0.94098,1 C 199.29844,55 200,54.55 200,54 Z M 424,38.559017 c 0,-0.792541 -0.45,-1.719098 -1,-2.059017 -0.55,-0.339919 -1,0.308524 -1,1.440983 C 422,39.073442 422.45,40 423,40 c 0.55,0 1,-0.648442 1,-1.440983 z M 329.6,32.4 c -0.48405,-1.261407 -0.96557,-1.434435 -1.76557,-0.634435 -0.605,0.605 -0.80049,1.880496 -0.43443,2.834435 0.48405,1.261407 0.96557,1.434435 1.76557,0.634435 0.605,-0.605 0.80049,-1.880496 0.43443,-2.834435 z M 93,33 c 0,-0.55 -0.45,-1 -1,-1 -0.55,0 -1,0.45 -1,1 0,0.55 0.45,1 1,1 0.55,0 1,-0.45 1,-1 z M 221.54112,14.933469 c 0.92034,-1.48915 -0.14673,-2.29879 -2.06137,-1.56407 -0.88358,0.339061 -1.32643,1.069654 -0.98412,1.623538 0.81058,1.311538 2.21511,1.284113 3.04549,-0.05947 z"
       id="path1" />
    <rect
       style="fill:#000000"
       id="rect1"
       width="503.66794"
       height="463.42642"
       x="24.66415"
       y="12.981133" />
    <rect
       style="fill:#000000"
       id="rect2"
       width="72.694336"
       height="355.03397"
       x="530.27924"
       y="70.098114" />
    <rect
       style="fill:#000000"
       id="rect3"
       width="8.4377356"
       height="11.683019"
       x="11.683019"
       y="327.12454" />
    <rect
       style="fill:#000000"
       id="rect4"
       width="5.1924529"
       height="23.366037"
       x="7.1396227"
       y="314.79245" />
  </g>
</svg>
