<?xml version="1.0" encoding="UTF-8" standalone="no"?>
<!-- Created with Inkscape (http://www.inkscape.org/) -->

<svg
   version="1.1"
   id="svg1"
   width="733"
   height="506"
   viewBox="0 0 733 506"
   sodipodi:docname="2.svg"
   inkscape:version="1.4 (86a8ad7, 2024-10-11)"
   xmlns:inkscape="http://www.inkscape.org/namespaces/inkscape"
   xmlns:sodipodi="http://sodipodi.sourceforge.net/DTD/sodipodi-0.dtd"
   xmlns="http://www.w3.org/2000/svg"
   xmlns:svg="http://www.w3.org/2000/svg">
  <defs
     id="defs1" />
  <sodipodi:namedview
     id="namedview1"
     pagecolor="#ffffff"
     bordercolor="#000000"
     borderopacity="0.25"
     inkscape:showpageshadow="2"
     inkscape:pageopacity="0.0"
     inkscape:pagecheckerboard="0"
     inkscape:deskcolor="#d1d1d1"
     inkscape:zoom="1.5711462"
     inkscape:cx="366.61132"
     inkscape:cy="253"
     inkscape:window-width="1920"
     inkscape:window-height="1013"
     inkscape:window-x="2391"
     inkscape:window-y="605"
     inkscape:window-maximized="1"
     inkscape:current-layer="g1" />
  <g
     inkscape:groupmode="layer"
     inkscape:label="Image"
     id="g1">
    <path
       style="fill:#000000"
       d="m 470.44971,505.08137 c 0.96003,-1.55336 -4.39944,-2.05294 -17.44971,-1.62657 -6.875,0.22462 -19.025,0.38831 -27,0.36377 -7.975,-0.0245 -29.8,0.0157 -48.5,0.0893 -40.66541,0.16022 -77.80832,0.1503 -78.5,-0.0209 -0.275,-0.0681 -0.84229,-0.0689 -1.26066,-0.002 -3.41821,0.54812 -20.89756,0.66788 -21.22047,0.14539 -0.47815,-0.77366 -7.31244,-0.51369 -9.51887,0.36209 -1.24484,0.49411 -22.5,0.15675 -22.5,-0.35712 0,-0.58113 -65.51495,-1.12925 -134,-1.12107 -64.931755,0.008 -70.273773,0.0615 -72.002733,0.725 -0.770821,0.29579 -1.90415,0.22715 -2.518508,-0.15255 -0.614358,-0.37969 -6.528855,-0.75707 -13.143325,-0.83861 C 10.86609,502.5007 10.798285,502.4864 8.5210515,499.62967 7.2626119,498.05099 5.8912062,494.67599 5.4734832,492.12967 4.7763448,487.88012 3.590107,363.27418 4.0823412,346 4.2927299,338.61674 4.0810517,197.76932 3.8463874,189 3.7801571,186.525 4.0647955,153.45 4.4789171,115.5 4.8930388,77.55 5.225596,45.825 5.2179333,45 4.8808567,8.7088805 4.7699112,10.873821 7.0935299,8.400442 8.869718,6.5097764 10.237192,6.0968721 14.389701,6.1973864 c 2.810664,0.068034 7.623983,-0.2288836 10.696264,-0.659817 3.805216,-0.5337386 6.296214,-0.4034009 7.813922,0.4088516 1.621286,0.8676859 2.587152,0.8942617 3.547074,0.097598 0.847837,-0.703642 3.593834,-0.8592195 7.686078,-0.4354632 C 50.338835,6.2511727 91.005456,6.596479 104,6.1168947 c 14.66249,-0.5411426 72.82275,0.1369729 76.99741,0.897746 2.47357,0.4507744 4.94857,0.4526865 5.5,0.00425 C 187.04883,6.5704523 200.325,6.0837808 216,5.9373976 c 15.675,-0.1463833 31.425,-0.3683324 35,-0.4932201 13.61916,-0.4757671 52.86601,-0.1845711 68.14332,0.5055964 3.65383,0.1650652 7.07217,0.035078 7.59632,-0.2888606 0.52414,-0.3239386 3.38464,-0.2003726 6.35667,0.2745912 3.56082,0.5690583 5.84274,0.5044521 6.69108,-0.1894387 0.90476,-0.7400503 3.28712,-0.6956352 8.01589,0.1494429 4.26021,0.7613413 10.39111,0.9611457 16.71262,0.5446597 8.41419,-0.5543604 20.79508,-0.8199914 28.9841,-0.6218515 1.58728,0.038405 34.19557,0.057819 43,0.0256 6.93487,-0.025377 12.15024,-0.4518972 13.11052,-1.0721945 0.61079,-0.3945421 1.39323,-0.4346351 1.73877,-0.089095 1.13467,1.1346621 12.12024,1.1670692 13.48191,0.039771 0.95152,-0.7877379 1.8205,-0.7964981 3.04672,-0.030714 1.83544,1.1462531 8.87022,1.0639881 13.35443,-0.1561672 1.52806,-0.4157848 4.14475,-0.251106 5.93687,0.3736303 1.93611,0.6749315 3.56643,0.7552042 4.11883,0.2028009 0.50287,-0.5028663 2.10627,-0.5947552 3.56313,-0.2041975 2.05351,0.5505127 36.59018,0.6106454 47.64882,0.082963 1.1,-0.052488 2.675,0.8510009 3.5,2.0077541 0.825,1.1567533 6.33259,6.9178156 12.23909,12.8023606 5.9065,5.884544 10.744,11.231348 10.75,11.881784 0.006,0.650437 0.88789,1.460956 1.95976,1.801153 1.07186,0.340197 2.23115,1.508007 2.57619,2.595134 0.34504,1.087127 3.63056,5.073975 7.30115,8.859662 6.28602,6.483116 14.22079,15.031419 27.90385,30.061439 3.25462,3.575 8.75212,9.875 12.21668,14 3.46455,4.125 9.73135,10.952084 13.92623,15.1713 C 646.11892,115.48251 654,123.91448 654,124.63533 c 0,0.34943 1.0125,1.61688 2.25,2.81656 1.2375,1.19968 4.725,5.03976 7.75,8.53352 3.025,3.49376 9.55,10.46642 14.5,15.49481 10.81842,10.98974 24.5,26.00285 24.5,26.88441 0,0.34945 -0.70156,0.63537 -1.55902,0.63537 -0.85746,0 -1.3182,0.38965 -1.02386,0.86589 0.29433,0.47624 1.63105,0.6564 2.97049,0.40034 1.70886,-0.32666 2.74725,0.11724 3.48088,1.48804 0.57504,1.07448 2.63987,3.8619 4.58852,6.19427 1.94864,2.33238 3.54299,5.06358 3.54299,6.06935 0,1.00576 1.125,3.16565 2.5,4.79974 1.375,1.6341 2.5,3.46862 2.5,4.07673 0,0.6081 0.45,1.10564 1,1.10564 0.55,0 1.00411,0.5625 1.00914,1.25 0.005,0.6875 1.11596,3.5 2.46873,6.25 1.35277,2.75 2.47366,5.68737 2.49086,6.52749 0.0172,0.84013 0.63413,2.41513 1.37096,3.5 2.53387,3.73078 3.90131,13.7246 3.22555,23.57365 -0.35468,5.16938 -0.61425,11.8265 -0.57682,14.79363 0.0949,7.52272 -2.64617,22.55932 -5.10939,28.0284 -1.13375,2.51726 -3.26994,8.17683 -4.7471,12.57683 -1.47715,4.4 -3.91113,9.79196 -5.40883,11.98213 -1.49771,2.19018 -2.7231,4.71699 -2.7231,5.61515 0,0.89815 -0.9,2.77717 -2,4.17559 -1.1,1.39842 -2.02769,3.14661 -2.06154,3.88486 -0.0338,0.73825 -2.47553,4.71727 -5.42596,8.84227 -2.95044,4.125 -8.88525,12.66256 -13.18847,18.97235 -7.32689,10.74339 -10.82804,14.85267 -19.36009,22.72289 -1.90517,1.75738 -4.70068,4.68238 -6.21226,6.5 -8.13995,9.78803 -12.07565,14.14136 -19.30542,21.35401 -4.38329,4.37291 -10.52811,10.76325 -13.65517,14.20075 -3.12705,3.4375 -6.08118,6.25 -6.56472,6.25 -0.48355,0 -3.3198,2.80073 -6.30277,6.22385 -2.98298,3.42312 -8.9111,9.80493 -13.1736,14.18182 -4.2625,4.37688 -7.75,8.15957 -7.75,8.40597 0,0.49302 -4.0019,4.78968 -20.5,22.00989 -6.05,6.31481 -12.08963,12.42579 -13.4214,13.57997 -4.0709,3.52803 -5.47043,4.97974 -8.2991,8.6085 l -2.7205,3.49 -18.2795,0.15192 c -10.05373,0.0836 -23.9045,0.45236 -30.7795,0.81959 -6.875,0.36722 -16.46664,0.67549 -21.31475,0.68504 -6.65972,0.0131 -8.94732,0.36282 -9.35699,1.43041 -0.29823,0.77717 -1.19565,1.41304 -1.99427,1.41304 -0.79861,0 -1.19654,-0.41338 -0.88428,-0.91863 z m -192.23059,-9.91681 c 1.7999,-1.75904 1.89505,-4.79534 1.8655,-59.52539 -0.0171,-31.61762 -0.34551,-44.24859 -1.1766,-45.25 C 278.27392,389.62513 276.03677,389 273.93657,389 c -2.10019,0 -4.04001,-0.35835 -4.3107,-0.79634 -0.55411,-0.89656 -14.43073,-0.73213 -15.34469,0.18182 -0.32388,0.32388 -0.55188,5.20715 -0.50666,10.8517 0.12089,15.09135 -0.0392,64.62586 -0.24809,76.76282 -0.25006,14.52952 0.31903,19.00576 2.52095,19.82859 2.2686,0.84774 21.20516,0.28061 22.17174,-0.66403 z m -144.99344,-0.34161 c 0.23717,-0.7115 0.9229,-0.84916 1.73372,-0.34804 1.53442,0.94832 17.47499,0.99269 18.99565,0.0529 0.55297,-0.34175 5.94935,-0.49537 11.99196,-0.34136 7.87368,0.20067 11.34678,-0.0802 12.25789,-0.99132 1.72526,-1.72526 2.12392,-112.6913 0.40982,-114.07389 -0.6131,-0.49452 -4.40092,-1.22214 -8.41739,-1.61695 -4.01648,-0.3948 -8.96648,-0.88613 -11,-1.09185 C 157.1638,376.2067 149.425,375.578 142,375.0153 c -7.425,-0.56269 -14.175,-1.30004 -15,-1.63854 -1.60637,-0.65909 -2.14201,-0.72627 -14.75,-1.84976 -4.5375,-0.40434 -8.25,-1.08305 -8.25,-1.50824 0,-0.4252 -1.99356,-0.54838 -4.430141,-0.27374 -2.436577,0.27463 -5.924077,-0.0271 -7.75,-0.67053 C 89.993937,368.43107 83.55,367.68369 77.5,367.41366 71.45,367.14362 65.825,366.6472 65,366.31049 c -1.704133,-0.6955 -4.025502,-0.94374 -16,-1.71098 -4.675,-0.29954 -12.325,-1.02308 -17,-1.60787 -4.675,-0.58478 -10.975,-1.15963 -14,-1.27744 l -5.5,-0.2142 -0.127316,33 c -0.07002,18.15 -0.204538,44.71995 -0.298921,59.04433 -0.171358,26.00667 0.487708,39.06661 2.01925,40.01316 0.446085,0.27569 26.473542,0.62894 57.838795,0.78499 31.365252,0.15605 57.336832,0.59283 57.714632,0.97062 1.08419,1.0842 3.1487,0.80147 3.57924,-0.49015 z M 183,495 c 0,-0.55 -0.19844,-1 -0.44098,-1 -0.24254,0 -0.7191,0.45 -1.05902,1 -0.33992,0.55 -0.14148,1 0.44098,1 0.58246,0 1.05902,-0.45 1.05902,-1 z m 25.18181,-0.37577 c 1.42621,-1.05578 1.76035,-3.89551 2.19859,-18.68461 0.65129,-21.97916 0.62986,-17.24053 0.24162,-53.43962 -0.46066,-42.95216 -0.13585,-39.06683 -3.37202,-40.33509 -1.5125,-0.59275 -5,-1.28812 -7.75,-1.54527 -2.75,-0.25714 -6.39394,-0.74298 -8.09765,-1.07962 -2.11678,-0.41827 -3.4852,-0.14512 -4.32154,0.86261 -1.7276,2.08163 -2.12746,111.63164 -0.41498,113.69361 1.56721,1.88706 19.0989,2.31727 21.51598,0.52799 z m 17.0069,-0.035 c 1.4788,-0.32813 2.89988,-0.25495 3.15796,0.16263 0.87132,1.40984 16.24591,1.44527 17.39836,0.0401 1.41487,-1.72515 2.30804,-30.27803 2.27703,-72.792 -0.0289,-39.62044 0.65902,-37 -9.71319,-37 C 234.5931,385 232,384.57097 232,383.95619 c 0,-0.65611 -2.69282,-0.93468 -7.25,-0.75 L 217.5,383.5 217.3668,438 c -0.0795,32.52667 0.24745,55.22494 0.8109,56.29806 0.53693,1.02257 1.67259,1.60177 2.6332,1.34294 0.92901,-0.25031 2.89902,-0.72359 4.37781,-1.05173 z m 87.10606,-0.5091 C 313.6476,492.77 313.29161,395.05629 311.92802,393.41327 311.11294,392.43116 308.52239,392 303.43657,392 c -4.02519,0 -7.59665,-0.45 -7.93657,-1 -0.80315,-1.29952 -7.80227,-1.29773 -9.10232,0.002 -1.57286,1.57286 -0.79199,101.81764 0.80814,103.74568 1.03564,1.24787 3.15552,1.38055 12.768,0.79909 6.3394,-0.38346 11.88383,-1.04358 12.32095,-1.46692 z m 33.33579,0.62261 c 1.1303,-1.13031 0.67657,-96.79565 -0.46451,-97.93673 -0.95943,-0.95943 -7.24276,-1.98767 -20.7863,-3.40157 -6.25761,-0.65327 -6.31405,-0.50932 -5.73825,14.63552 0.21956,5.775 0.42302,14.325 0.45214,19 0.0291,4.675 0.0805,10.975 0.11423,14 0.0337,3.025 0.0142,7.525 -0.0433,10 -0.37272,16.03204 0.002,42.55906 0.60955,43.12702 0.39925,0.37337 1.62591,0.88235 2.72591,1.13106 2.88572,0.65248 22.39105,0.18421 23.13056,-0.5553 z m 32.46498,0.0472 c 0.35567,-0.93064 0.96993,-40.58372 0.78617,-50.75 -0.12427,-6.875 -0.28871,-18.8 -0.36544,-26.5 -0.0767,-7.7 -0.22427,-14.95 -0.32788,-16.11111 -0.1995,-2.23566 -1.22229,-2.45126 -19.19033,-4.04531 l -6.50194,-0.57682 0.19217,47.14063 c 0.1057,25.92735 0.4744,48.02983 0.81933,49.11662 0.57846,1.82255 1.55375,1.97599 12.55977,1.97599 6.56293,0 11.9756,-0.1125 12.02815,-0.25 z M 509,493.97939 c 18.425,-0.008 35.0148,-0.29181 36.86623,-0.63025 3.60585,-0.65913 14.24262,-10.80739 40.63377,-38.76758 7.15,-7.5751 15.5875,-16.46585 18.75,-19.75723 3.1625,-3.29138 5.75,-6.36619 5.75,-6.8329 C 611,425.79437 607.56667,424 603.36283,424 c -2.47187,0 -5.3579,-0.46218 -6.4134,-1.02707 -1.0555,-0.56488 -5.63842,-1.23013 -10.18426,-1.47833 -4.54584,-0.2482 -11.86517,-0.94175 -16.26517,-1.54123 -4.4,-0.59947 -10.475,-1.25604 -13.5,-1.45903 -19.73625,-1.32438 -23.57053,-1.72931 -25.33951,-2.67604 -1.08781,-0.58218 -6.06894,-1.24036 -11.06916,-1.46263 C 515.5911,414.13341 506.775,413.30553 501,412.51594 c -5.775,-0.78958 -16.95166,-1.67633 -24.83702,-1.97054 -7.88536,-0.29421 -14.71305,-0.76733 -15.17266,-1.05138 -1.71596,-1.06053 -10.83404,-2.34066 -21.49032,-3.01713 -6.05,-0.38406 -11.75792,-1.09848 -12.68426,-1.58759 -0.92634,-0.48912 -4.52634,-0.91612 -8,-0.94891 -3.47366,-0.0328 -8.56574,-0.49437 -11.31574,-1.02575 -11.00291,-2.12606 -18.95835,-2.6787 -20.3295,-1.41222 -1.06332,0.98215 -1.36364,10.28265 -1.5,46.45303 -0.14808,39.27884 0.0267,45.3359 1.3295,46.06839 0.825,0.46387 21.075,0.64698 45,0.40693 23.925,-0.24006 58.575,-0.44318 77,-0.45138 z m 87.45673,-42.04941 C 595.84841,450.94571 593,451.83844 593,453.01337 c 0,0.43966 0.89494,0.56536 1.98875,0.27932 1.09382,-0.28604 1.75441,-0.89926 1.46798,-1.36271 z m 28.18902,-37.83776 c 0.6578,-1.32428 7.30661,-8.5301 14.77513,-16.01294 C 646.88939,390.59644 653,383.99348 653,383.40604 c 0,-0.58745 1.125,-1.67016 2.5,-2.40604 2.50611,-1.34123 3.23147,-4.29918 1.66106,-6.77363 -0.62571,-0.98593 -1.15752,-0.87298 -2.3542,0.5 -0.85023,0.97549 -1.79408,2.44863 -2.09742,3.27363 -0.43205,1.17501 -0.56865,1.11548 -0.63049,-0.27475 -0.0434,-0.97611 -1.09145,-2.15613 -2.32895,-2.62226 -1.944,-0.73225 -16.39538,-1.83827 -33.25,-2.54475 -6.04328,-0.25331 -21.84523,-1.47992 -26,-2.01823 -5.1401,-0.66597 -31.6506,-2.70402 -39,-2.99821 -3.85,-0.15412 -8.8,-0.75212 -11,-1.3289 -2.2,-0.57679 -6.25,-1.11388 -9,-1.19355 -2.75,-0.0797 -7.475,-0.30397 -10.5,-0.49845 -3.025,-0.19447 -14.275,-0.83167 -25,-1.41598 -10.725,-0.58432 -21.525,-1.32687 -24,-1.6501 -2.475,-0.32324 -11.2822,-0.93162 -19.57155,-1.35196 -8.28935,-0.42033 -15.53673,-1.05175 -16.1053,-1.40314 -0.56856,-0.35139 -6.06159,-0.71614 -12.20673,-0.81056 -6.14514,-0.0944 -11.43143,-0.58985 -11.74732,-1.10097 -0.31589,-0.51112 -2.21567,-0.66702 -4.22173,-0.34644 -2.00605,0.32058 -7.23604,0.16564 -11.62219,-0.34431 -11.94409,-1.38865 -11.46647,-2.12674 -11.21026,17.32342 0.25905,19.66661 0.74561,20.75907 9.12165,20.4806 5.35961,-0.17818 17.04193,0.86435 19.56343,1.74585 0.825,0.28842 4.2,0.67371 7.5,0.85622 10.38327,0.57425 26.83862,2.38089 31,3.4035 2.2,0.54062 9.85,1.47169 17,2.06905 7.15,0.59735 15.025,1.35091 17.5,1.67458 6.99056,0.9142 9.47376,1.12769 25.10245,2.1582 8.03134,0.52956 15.64926,1.52308 16.9287,2.20781 1.5596,0.83467 4.73554,1.06276 9.6367,0.69209 4.0491,-0.30623 7.56468,-0.14154 7.88032,0.36918 0.31342,0.50713 2.99175,0.92206 5.95183,0.92206 2.96008,0 5.62952,0.40056 5.93209,0.89012 0.30257,0.48957 5.61663,1.2154 11.80902,1.61295 6.19239,0.39755 11.64323,0.9525 12.11298,1.23322 0.46975,0.28072 2.94475,0.63743 5.5,0.79269 14.14449,0.8594 22.62385,1.61563 23.06529,2.05707 0.2742,0.2742 3.2057,0.367 6.51446,0.20624 5.20891,-0.25308 6.17635,-0.61528 7.21191,-2.70007 z M 462,403.94098 C 462,403.42344 461.55,403 461,403 c -0.55,0 -1,0.70156 -1,1.55902 0,0.85746 0.45,1.2809 1,0.94098 0.55,-0.33992 1,-1.04148 1,-1.55902 z M 378.1472,391.25 c 0.18532,-0.94423 1.00676,-26.60294 0.9946,-31.06755 -0.0103,-3.79147 -1.71253,-6.34408 -4.04489,-6.06569 -0.8783,0.10484 -2.27191,-0.0726 -3.09691,-0.39431 -0.825,-0.32171 -5.47849,-0.76235 -10.34109,-0.9792 -8.70026,-0.388 -8.85645,-0.35388 -9.80546,2.1422 -0.5304,1.39507 -0.67569,3.67905 -0.32287,5.07552 0.35283,1.39647 0.62393,8.23897 0.60244,15.20557 -0.0322,10.43281 0.24364,12.9017 1.56403,14 2.24688,1.86895 24.12633,3.73336 24.45015,2.08346 z m -33.39694,-3.07449 c 0.89477,-0.56814 1.2252,-4.1891 1.16212,-12.73469 -0.0485,-6.56745 -0.0443,-13.53886 0.009,-15.49203 0.181,-6.59854 -4.54795,-9.02833 -15.6928,-8.06315 -1.24913,0.10818 -3.91924,-0.25837 -5.93358,-0.81456 -5.66167,-1.56326 -6.63669,-0.16512 -5.84764,8.38534 0.94138,10.20127 0.95153,12.36891 0.0892,19.07212 -0.99757,7.75485 -0.23195,8.40044 11.16135,9.4115 12.47058,1.10667 13.65089,1.12514 15.05203,0.23547 z m -32.3446,-20.04997 c -0.32957,-8.59405 -0.98384,-16.03121 -1.45393,-16.52704 -0.97449,-1.02781 -22.4711,-2.99691 -24.44559,-2.23923 -1.96277,0.75319 -1.00927,30.4273 1.05085,32.70371 1.08458,1.19844 3.42532,1.67845 8.71299,1.78676 3.97651,0.0815 8.80502,0.52582 10.73002,0.98747 5.87284,1.40844 6.07639,0.77915 5.40566,-16.71167 z m -33.88076,13.49241 c 1.08666,-1.08665 1.30493,-4.55989 1.02123,-16.25 -0.19845,-8.17737 -0.40252,-15.17055 -0.45348,-15.5404 -0.20459,-1.48488 -7.09958,-2.79291 -16.09265,-3.0529 l -9.5,-0.27465 -0.10391,14 c -0.14661,19.75287 0.1787,20.33052 11.60391,20.60466 4.41729,0.10599 9.25895,0.8338 11.82143,1.77703 0.17678,0.0651 0.94335,-0.50361 1.70347,-1.26374 z m -32.79086,-3.22128 c 2.20087,-0.42043 2.23322,-0.6576 2.1782,-15.97066 -0.049,-13.64948 -0.26038,-15.60654 -1.73405,-16.05795 -0.923,-0.28273 -2.38451,-0.88432 -3.24779,-1.33687 -0.86328,-0.45255 -2.76828,-0.59368 -4.23332,-0.31361 -1.46505,0.28006 -3.45873,0.17634 -4.4304,-0.23048 -3.22913,-1.35197 -15.14096,-1.34352 -16.26556,0.0115 -0.57552,0.69346 -1.07246,5.92745 -1.10432,11.63109 -0.1042,18.65809 -0.36388,17.36535 3.8532,19.18154 2.22368,0.95768 6.33456,1.58932 10.1,1.55187 3.4925,-0.0347 6.74857,0.33542 7.23571,0.82256 1.01715,1.01715 4.39958,1.33157 7.64833,0.71096 z M 210.49176,370.75 c 0.32031,-1.7875 0.4532,-8.2973 0.29531,-14.46623 -0.21409,-8.36486 -0.6684,-11.58638 -1.78707,-12.67228 -1.78523,-1.73293 -20.65883,-3.05893 -22.99387,-1.61548 -1.2295,0.76004 -1.44096,3.27543 -1.19489,14.21373 0.16445,7.30964 0.52575,14.0659 0.8029,15.0139 0.42464,1.45252 1.76675,1.71538 8.53272,1.67117 4.41585,-0.0289 8.28929,0.20801 8.60764,0.52636 0.31836,0.31836 2.05844,0.57883 3.86685,0.57883 2.92343,0 3.3526,-0.36037 3.87041,-3.25 z m -31.12934,-2.25207 c 0.31702,-0.82614 0.1997,-3.51845 -0.26071,-5.98291 -0.46041,-2.46447 -0.63231,-7.52604 -0.38199,-11.24793 0.72641,-10.80084 -0.13943,-11.29061 -20.85646,-11.79767 -4.7502,-0.11626 -9.04799,-0.46556 -9.55064,-0.77621 -0.50265,-0.31066 -7.41612,-0.85288 -15.36327,-1.20495 -7.94714,-0.35206 -15.79935,-0.97329 -17.44935,-1.3805 -1.65,-0.40722 -8.62177,-0.86079 -15.49282,-1.00795 C 93.13613,334.95265 87.28613,334.5325 87.007181,334.16613 86.728231,333.79976 82.9,333.40308 78.5,333.28463 c -4.4,-0.11845 -8,-0.28998 -8,-0.38116 0,-0.0912 -2.841944,-0.30111 -6.315432,-0.4665 -3.473487,-0.16538 -6.889891,-0.77745 -7.592009,-1.36015 -0.702118,-0.58271 -1.548357,-0.78769 -1.880532,-0.45551 -0.817204,0.8172 -13.385218,0.6987 -14.740625,-0.13898 -0.594121,-0.36719 -4.768236,-0.87873 -9.275811,-1.13675 -4.507575,-0.25803 -9.861106,-0.83856 -11.896735,-1.29008 -5.618233,-1.24618 -6.545211,0.44183 -6.949793,12.65541 -0.399767,12.06821 0.350464,13.2049 8.750003,13.25729 2.804486,0.0175 13.547252,1.1492 23.872812,2.51491 10.325561,1.36572 19.145439,2.2534 19.599729,1.97263 0.45429,-0.28076 3.661524,-0.0668 7.127187,0.47556 3.465663,0.54232 9.971039,1.20677 14.456391,1.47656 8.897637,0.53517 24.953075,2.47122 27.344815,3.29737 1.51889,0.52466 2.56887,0.63838 16,1.73288 4.125,0.33614 11.325,1.07458 16,1.64098 4.675,0.5664 11.41051,1.25332 14.9678,1.5265 3.55729,0.27317 6.66979,0.69867 6.91667,0.94555 0.24687,0.24687 3.02572,0.44886 6.17521,0.44886 4.1711,0 5.88289,-0.40795 6.30274,-1.50207 z m 497.69131,-11.176 c 4.50615,-5.40206 9.65858,-12.07193 11.44984,-14.82193 1.79126,-2.75 4.19355,-5.84169 5.33843,-6.87041 1.14487,-1.02873 3.03689,-3.72873 4.20448,-6 1.16759,-2.27128 3.70916,-6.45517 5.64792,-9.29755 1.93877,-2.84239 3.2241,-5.65489 2.8563,-6.25 -0.42891,-0.69399 -6.11664,-1.10725 -15.85972,-1.15233 -8.35504,-0.0387 -16.09098,-0.43304 -17.19098,-0.87641 -1.10642,-0.44596 -2.52712,-0.38588 -3.1798,0.13447 -0.73761,0.58806 -10.08918,0.55467 -24.95114,-0.0891 -13.07424,-0.56634 -23.965,-0.83605 -24.20169,-0.59937 -0.23668,0.23669 -1.24386,-0.005 -2.23816,-0.53718 -1.18116,-0.63213 -2.02323,-0.619 -2.42921,0.0379 -0.41183,0.66636 -1.30512,0.63948 -2.64891,-0.0797 -1.13366,-0.60671 -6.06671,-0.98926 -11.18932,-0.8677 -14.54089,0.34504 -68.00761,-1.24597 -69.66177,-2.07292 -0.825,-0.41244 -11.85,-0.8607 -24.5,-0.99615 -12.65,-0.13544 -26.6,-0.4173 -31,-0.62634 -20.7591,-0.98627 -26.25382,-1.30667 -29.5,-1.72015 -1.925,-0.2452 -16.36466,-0.75789 -32.08814,-1.13931 l -28.58813,-0.69349 -1.16928,2.84788 c -1.73443,4.22436 -1.94143,40.24347 -0.23733,41.29666 0.70692,0.4369 3.98809,0.85546 7.29147,0.93014 3.30339,0.0747 6.40264,0.3808 6.88722,0.6803 0.48459,0.29949 6.17377,0.76163 12.64263,1.02697 11.08929,0.45488 32.53496,1.90774 40.26156,2.72757 1.925,0.20425 10.025,0.72745 18,1.16266 7.975,0.43522 15.31627,1.21229 16.31392,1.72683 1.05684,0.54507 2.30896,0.56707 3,0.0527 0.68514,-0.50996 4.77608,-0.51117 9.68608,-0.003 4.675,0.48396 12.55,1.03017 17.5,1.21381 4.95,0.18363 17.1,1.08852 27,2.01086 9.9,0.92234 21.825,1.84745 26.5,2.0558 11.22703,0.50036 20.366,1.34989 26.5,2.46337 2.75,0.49919 14.21267,1.16427 25.47259,1.47794 11.25993,0.31368 20.80076,0.89765 21.20185,1.29772 0.40108,0.40008 6.11958,0.87228 12.70776,1.04934 l 11.97852,0.32192 z M 379,325.61501 c 0,-26.08248 0.97732,-24.56094 -15.60317,-24.29185 L 352.5,301.5 l -0.13102,12 c -0.0721,6.6 -0.41733,15.82628 -0.76727,20.50283 C 350.64508,346.7871 350.89006,347 366.5567,347 H 379 Z m -34.40262,13.76409 c 0.0536,-3.2335 0.44191,-12.6443 0.863,-20.91288 0.6207,-12.18834 0.50764,-15.23818 -0.59738,-16.11374 -1.8778,-1.48787 -24.54954,-2.66868 -25.38186,-1.32196 -1.0929,1.76835 -1.07524,41.0626 0.0189,41.96475 0.55,0.45351 4.30321,1.05581 8.34046,1.33844 4.03726,0.28264 7.48659,0.66068 7.66519,0.84009 0.1786,0.17941 2.27539,0.2718 4.65954,0.2053 L 344.5,345.2582 Z m -33.6026,2.12412 C 311.6127,341.12133 312,333.38206 312,321.41623 V 301.9505 l -2.75,-1.13086 c -1.5125,-0.62198 -5.45,-1.02731 -8.75,-0.90074 -3.3,0.12657 -7.34445,-0.28293 -8.98766,-0.90999 -2.59533,-0.99041 -3.20213,-0.87528 -4.62083,0.87674 -1.37726,1.70085 -1.64887,5.06494 -1.73343,21.46971 -0.11175,21.68019 -0.28536,21.16835 6.79579,20.03603 2.11529,-0.33825 4.06448,-0.17071 4.40394,0.37853 0.63793,1.0322 12.89673,0.80883 14.63697,-0.2667 z m -32.50755,-1.48256 c 0.3329,-0.53864 0.77151,-9.51504 0.97469,-19.94755 0.31065,-15.95078 0.13095,-19.16611 -1.12967,-20.21233 -0.97511,-0.80927 -5.46137,-1.29471 -12.83507,-1.38884 l -11.33599,-0.14471 -0.51491,3.08638 c -0.28321,1.69752 -0.566,10.55092 -0.62844,19.67424 -0.0874,12.76951 0.19551,16.84432 1.229,17.70205 0.73839,0.6128 4.69742,1.27136 8.79784,1.46345 4.10043,0.19209 9.11626,0.43867 11.1463,0.54795 2.03004,0.10929 3.96336,-0.242 4.29625,-0.78064 z m -32.99893,-3.38845 c 1.67933,-1.22795 1.91305,-3.22038 2.28615,-19.48862 l 0.41558,-18.12084 -2.66011,-1.01138 C 244.06685,297.45512 237.11664,297 230.08499,297 h -12.7848 l -0.56911,18.25 c -0.46992,15.06954 -0.31788,18.52947 0.87243,19.85363 1.14274,1.27123 3.74986,1.63234 12.57779,1.74211 6.12493,0.0762 11.36479,0.36702 11.64414,0.64636 0.80593,0.80593 1.65841,0.60581 3.66286,-0.85989 z M 209.60795,334.25 c 0.98478,-1.29728 1.33667,-6.29821 1.36025,-19.33102 0.0312,-17.24361 -0.0114,-17.60285 -2.2182,-18.71834 -3.27439,-1.65512 -20.39126,-0.99528 -22.20949,0.85616 -2.16545,2.205 -2.6408,33.2833 -0.54051,35.33864 0.93236,0.91241 5.09505,1.81997 11,2.39827 5.225,0.5117 9.90039,0.99245 10.38976,1.06833 0.48936,0.0759 1.48755,-0.64954 2.21819,-1.61204 z m -31.777,-1.54631 c 1.36533,-1.64512 1.86633,-35.40641 0.54503,-36.72771 -0.51823,-0.51823 -12.62732,-1.20362 -26.9091,-1.5231 -14.28179,-0.31947 -28.97808,-1.00207 -32.65843,-1.51687 C 115.12809,292.4212 102.71559,292 91.225114,292 c -11.490479,0 -21.145062,-0.25328 -21.454629,-0.56285 -0.309566,-0.30956 -6.122066,-0.71731 -12.916667,-0.9061 -6.7946,-0.18878 -19.354016,-0.64358 -27.909813,-1.01065 l -15.555996,-0.6674 -1.000208,2.3235 c -1.123047,2.60885 -0.8111,26.83412 0.359389,27.90955 0.414045,0.38041 9.75281,1.44048 20.75281,2.35569 11,0.91521 24.725,2.11039 30.5,2.65595 8.996737,0.84992 23.823197,1.7655 53,3.27293 3.575,0.1847 10.1,0.86567 14.5,1.51327 4.4,0.6476 12.95,1.58797 19,2.08971 15.66162,1.29887 22.91021,2.10328 23.40422,2.59728 0.84992,0.84992 2.87233,0.40329 3.92673,-0.86719 z M 695.71894,304.6737 c 0.64222,-0.39691 4.07181,-0.51169 7.62131,-0.25506 5.22407,0.37769 6.72554,0.14411 7.88078,-1.22602 1.6835,-1.99667 7.77897,-16.52393 7.77897,-18.53953 0,-0.7659 0.9,-4.20979 2,-7.65309 1.1,-3.4433 2,-8.23806 2,-10.65502 0,-3.72857 -0.36671,-4.5339 -2.41999,-5.31456 -1.35235,-0.51416 -21.43223,-0.87724 -45.51438,-0.82297 -23.70192,0.0534 -43.37209,-0.18057 -43.71149,-0.51998 -0.33941,-0.33941 -1.36969,-0.21433 -2.2895,0.27794 -0.91982,0.49227 -2.28289,0.51774 -3.02904,0.0566 -0.77,-0.47589 -2.07547,-0.38954 -3.01897,0.19969 -1.146,0.71569 -3.50331,0.71817 -7.58948,0.008 -4.06828,-0.70708 -6.32217,-0.70693 -7.18672,4.7e-4 -0.73946,0.60505 -3.01055,0.74986 -5.5,0.3507 C 598.5682,259.91186 466.68178,259.22802 454,259.80962 c -3.575,0.16395 -20,0.11556 -36.5,-0.10754 -18.59774,-0.25147 -30.47509,-0.0354 -31.25,0.56858 -1.38578,1.08005 -1.82804,31.40087 -0.48469,33.22934 1.33201,1.81302 7.48405,3.53793 8.78059,2.46191 0.72589,-0.60244 5.49237,-0.78163 12.07664,-0.45402 5.9826,0.29766 15.46002,0.71011 21.06094,0.91653 5.60091,0.20643 10.60076,0.63322 11.11079,0.94843 0.51002,0.31521 18.20246,0.81213 39.31652,1.10426 21.11407,0.29213 44.23921,0.78574 51.38921,1.09691 7.15,0.31118 17.5,0.75914 23,0.99549 5.5,0.23634 18.55,0.65064 29,0.92067 10.45,0.27002 22.15,0.69669 26,0.94815 10.58948,0.69164 35.16445,1.5099 52.25108,1.73978 8.38809,0.11285 15.66209,0.45645 16.16444,0.76354 1.33106,0.8137 18.42757,0.58237 19.80342,-0.26795 z M 378.23469,293.59353 c 0.40408,-0.60144 0.74158,-7.4671 0.75,-15.25702 L 379,264.17302 l -3.93171,-2.89141 c -3.8963,-2.86537 -4.01108,-2.8838 -12.74065,-2.04587 -4.84492,0.46506 -9.12139,1.16476 -9.50327,1.55491 -0.38188,0.39014 -0.75745,6.78435 -0.83459,14.20935 -0.19806,19.0633 -0.22224,18.79862 1.76022,19.2654 3.93308,0.92608 23.77695,0.38155 24.48469,-0.67187 z m -36.57898,-0.17467 c 4.014,-0.8028 4.91022,-4.33843 4.75306,-18.7512 -0.1731,-15.87536 0.0394,-15.67263 -15.65877,-14.93832 -11.10307,0.51936 -11.75155,0.66583 -11.77816,2.66014 -0.0155,1.16079 -0.23702,6.83552 -0.4923,12.61052 -0.25527,5.775 -0.20591,12.17052 0.10969,14.21226 l 0.57381,3.71225 8.66848,0.33211 c 4.76766,0.18266 9.17473,0.42465 9.79348,0.53774 0.61875,0.1131 2.43257,-0.0559 4.03071,-0.3755 z m -29.5204,-1.72818 c 0.51028,-4.4902 -0.49544,-30.37062 -1.20934,-31.12032 -0.48689,-0.5113 -5.35695,-0.9613 -10.82236,-1 -5.46541,-0.0387 -10.25931,-0.3926 -10.65311,-0.78645 -0.39381,-0.39385 -1.51836,0.30394 -2.49902,1.55064 -1.51535,1.92646 -1.78887,4.3946 -1.8221,16.44166 -0.0306,11.10725 0.26229,14.34254 1.35349,14.94936 2.42737,1.34988 25.49864,1.31849 25.65244,-0.0349 z m -33.32318,-0.96431 c 1.50869,-1.81786 0.93694,-28.11887 -0.65291,-30.03452 -0.93153,-1.12243 -2.0939,-1.26617 -4.93874,-0.61075 -2.04626,0.47144 -4.62048,0.57361 -5.72048,0.22705 -3.28397,-1.03462 -10.91911,-0.90711 -12.09279,0.20195 -0.61931,0.58521 -1.3672,6.9603 -1.72612,14.71372 C 252.87647,292.60534 252.39772,292 266.94898,292 c 7.5319,0 11.12641,-0.38591 11.86315,-1.27363 z m -31.03607,-14.85905 0.27606,-14.63267 -3.27606,-0.66929 c -1.80183,-0.36811 -8.43041,-0.75841 -14.73016,-0.86733 -13.72272,-0.23725 -12.7978,-1.50139 -12.94622,17.69443 L 217,290.28491 l 5.75,-0.52231 c 3.1625,-0.28727 8.225,-0.23887 11.25,0.10755 3.025,0.34642 7.3,0.62985 9.5,0.62985 h 4 z m -67.99215,-0.86066 c 0.42044,-16.66624 1.29965,-15.96656 -19.51607,-15.53094 -9.22231,0.193 -17.66784,0.55663 -18.76784,0.80808 -1.1,0.25144 -2.42385,0.21052 -2.94188,-0.0909 -0.51804,-0.30145 -28.55836,-0.50018 -62.311824,-0.44162 -45.944414,0.0797 -61.73143,0.40648 -62.808118,1.30005 -1.901782,1.57834 -2.063209,18.42613 -0.188178,19.63967 0.6875,0.44496 3.05,0.85509 5.25,0.91139 2.2,0.0563 12.325,0.41486 22.5,0.79679 10.175,0.38194 24.575,0.88856 32,1.12582 20.056894,0.64091 38.84122,1.50081 54,2.47196 7.425,0.47569 18.45,0.91522 24.5,0.97674 6.05,0.0615 13.925,0.4617 17.5,0.8893 10.06608,1.20398 10.44047,0.75764 10.78391,-12.85632 z m 30.6091,12.41155 C 210.72686,286.54823 211,280.54297 211,274.0732 c 0,-15.0104 0.10381,-14.89666 -13.30979,-14.58301 -5.39538,0.12616 -10.28107,0.70067 -10.85708,1.27668 -0.57602,0.57602 -1.20433,6.36304 -1.39624,12.86006 C 184.97664,289.20787 184.79259,289 199.048,289 c 8.86918,0 10.84366,-0.27529 11.34501,-1.58179 z m 67.71902,-35.01959 c 1.58255,-1.4322 1.71634,-3.0962 1.26628,-15.75 -0.70369,-19.78529 -0.45263,-19.04483 -6.17858,-18.22217 -2.58485,0.37137 -7.39973,0.76753 -10.69973,0.88036 -3.3,0.11283 -6.5625,0.56651 -7.25,1.00818 -0.91396,0.58716 -1.25,5.07943 -1.25,16.7102 v 15.90715 l 10.75,0.32145 c 5.9125,0.17679 10.93957,0.41702 11.17126,0.53383 0.23169,0.11681 1.21754,-0.50824 2.19077,-1.389 z m -175.38898,-0.58293 c 20.77732,-0.0548 46.17992,0.22422 56.45021,0.62 17.63449,0.67957 18.72903,0.61539 19.67579,-1.15364 1.31716,-2.46114 1.21292,-26.05194 -0.12813,-28.99521 -1.06517,-2.3378 -4.10886,-3.08619 -5.22259,-1.28414 -0.40112,0.64904 -1.2497,0.66554 -2.40582,0.0468 -1.02838,-0.55037 -2.16929,-0.58285 -2.68931,-0.0766 -1.03769,1.01029 -21.36585,1.98063 -52.4032,2.50142 -41.426987,0.69512 -75.511377,1.78283 -76.765775,2.44979 -0.696176,0.37015 -4.931125,0.31867 -9.410999,-0.11441 -4.700421,-0.45439 -8.607485,-0.40376 -9.23824,0.11972 -0.601159,0.49892 -2.666209,1.05639 -4.589001,1.23883 L 12.5,227.5 12.245612,237 c -0.394228,14.72222 -1.544238,13.5785 13.976374,13.89995 7.302908,0.15125 18.678014,0.58607 25.278014,0.96626 6.6,0.3802 12.325371,0.54677 12.723047,0.37017 0.397676,-0.17661 17.722676,-0.36592 38.500003,-0.42069 z m 107.25487,-0.39341 c 0.69903,-0.69916 0.97997,-6.25692 0.7998,-15.82254 L 210.5,220.85493 l -11.92659,0.001 c -11.42863,0.001 -11.97809,0.0973 -13.16018,2.3061 -0.7235,1.35186 -0.89298,2.94143 -0.40988,3.84413 0.45305,0.84653 0.83225,6.3962 0.84266,12.3326 0.0106,6.02414 0.48191,11.35133 1.06671,12.05597 1.32691,1.59882 21.47014,1.62279 23.0652,0.0274 z m 36.77208,0.2687 c 1.87384,-1.21277 1.74506,-27.63168 -0.1473,-30.21964 -1.23272,-1.68584 -2.79342,-1.92096 -13.25,-1.99609 -7.74279,-0.0556 -12.77176,0.35839 -14.5032,1.19402 -2.39461,1.15569 -2.57415,1.61773 -1.85964,4.78579 0.43498,1.92863 0.58011,8.19013 0.32251,13.91444 -0.60167,13.37037 -0.89039,13.1305 15.80404,13.1305 6.81097,0 12.94609,-0.36406 13.63359,-0.80902 z m 64.63706,-0.68327 c 0.73556,-0.73902 0.976,-4.91411 0.70908,-12.31294 -0.22213,-6.15712 -0.44713,-13.44477 -0.5,-16.19477 l -0.0961,-5 -12.47108,0.29869 c -8.32125,0.1993 -12.72672,0.69844 -13.23934,1.5 -1.0024,1.56742 -0.53469,30.82261 0.51879,32.45026 1.03239,1.59507 23.41167,0.93361 25.07869,-0.74124 z m 34.50456,0.43401 c 0.26299,-0.26299 0.50746,-7.93934 0.54327,-17.05856 0.055,-13.9933 -0.1766,-16.70975 -1.48399,-17.40944 -2.55132,-1.36542 -24.76361,0.0957 -26.10957,1.71746 -0.63625,0.76663 -1.04282,3.51224 -0.90349,6.10135 0.13933,2.58911 0.26397,9.65747 0.277,15.70747 0.013,6.05 0.45243,11.2716 0.97647,11.60355 1.08457,0.68702 25.96826,0.0702 26.70031,-0.66183 z m 30.85838,-0.002 c 2.22545,-0.47282 2.25,-0.66195 2.25,-17.33654 0,-14.01892 -0.2615,-17.07553 -1.55253,-18.14699 -1.6663,-1.3829 -9.97049,-1.46589 -19.44747,-0.19435 l -5.5,0.73795 -0.28587,16 c -0.15723,8.8 -0.0614,16.91198 0.21299,18.02663 0.46888,1.90484 1.14712,2.00754 11.28587,1.70898 5.93286,-0.1747 11.79951,-0.53276 13.03701,-0.79568 z m 41.51999,0.25883 c 8.6735,-0.179 15.92478,-0.17066 16.11397,0.0185 0.4397,0.4397 47.4915,0.57582 80.61604,0.23321 14.025,-0.14506 27.3,-0.17811 29.5,-0.0735 2.2,0.10467 5.22999,-0.10087 6.73332,-0.45676 1.50333,-0.35589 3.52833,-0.32808 4.5,0.0618 3.20245,1.28493 164.23515,0.27347 166.36845,-1.04498 1.51991,-0.93936 0.68685,-21.04848 -0.93934,-22.67467 C 720.52309,227.12309 720,225.48793 720,224.12874 c 0,-1.35919 -0.58959,-3.18169 -1.31021,-4.05 -0.72062,-0.86831 -2.09227,-4.162 -3.04813,-7.31931 -0.95585,-3.15732 -2.511,-6.15432 -3.45589,-6.66001 -1.6054,-0.85918 -23.16391,-0.63132 -40.18577,0.42474 -4.125,0.25592 -16.05,0.74698 -26.5,1.09123 -10.45,0.34425 -21.25,0.73428 -24,0.86673 -6.20269,0.29874 -26.64191,0.67665 -28,0.51771 -1.91566,-0.2242 -14.10077,-0.0476 -29,0.42029 -8.25,0.25909 -27.6,0.73348 -43,1.05421 -15.4,0.32073 -35.65,1.22185 -45,2.00251 -9.35,0.78065 -19.3625,1.27613 -22.25,1.10106 -2.99691,-0.1817 -5.25,0.1046 -5.25,0.66712 0,0.61947 -2.13538,0.70841 -5.75,0.23949 -3.1625,-0.41027 -9.35,-0.6756 -13.75,-0.58962 -10.31019,0.20146 -11.23598,0.18579 -15.93146,-0.26977 -2.1623,-0.20978 -5.18176,-0.0228 -6.70992,0.41543 -1.62212,0.46521 -4.28429,0.3347 -6.39666,-0.31361 -2.72094,-0.83508 -4.09144,-0.81492 -5.52651,0.0813 -1.04957,0.65547 -3.51238,1.19176 -5.47291,1.19176 -3.1192,0 -3.74482,0.43135 -5.007,3.45217 -1.06195,2.54159 -1.17675,4.15091 -0.43523,6.10124 0.56343,1.48193 0.82066,7.67704 0.58384,14.06104 -0.49176,13.25632 -0.027,13.9689 8.57159,13.14269 2.68626,-0.25812 5.0961,-0.12631 5.35518,0.2929 0.25909,0.41921 1.25812,0.58489 2.22008,0.36818 0.96195,-0.21671 8.8455,-0.54047 17.51899,-0.71946 z M 62.111325,216.4312 c 0.536957,-0.33186 1.581207,-0.10134 2.320557,0.51227 0.993299,0.82436 2.044616,0.79655 4.026683,-0.10654 2.04081,-0.92986 3.402724,-0.9503 5.693904,-0.0855 1.811049,0.68359 3.888561,0.80325 5.211751,0.30017 1.210143,-0.46009 23.89361,-1.17073 50.40771,-1.57919 33.47422,-0.51569 48.46575,-1.08339 49.05261,-1.85754 0.46484,-0.61319 0.80698,-7.63989 0.76031,-15.61489 l -0.0848,-14.5 -9,0.21374 c -4.95,0.11756 -11.7,0.45495 -15,0.74975 -3.3,0.29481 -10.16087,0.73356 -15.24638,0.97501 -5.08551,0.24145 -9.62918,0.67558 -10.09705,0.96473 -0.46786,0.28916 -9.95528,0.78048 -21.08315,1.09183 -11.127873,0.31135 -23.234204,0.83466 -26.902958,1.16291 -3.668754,0.32825 -8.020462,0.6626 -9.670462,0.743 -1.65,0.0804 -3.57684,0.5085 -4.281866,0.95132 -0.705027,0.44282 -5.676836,0.68711 -11.048465,0.54285 -5.371629,-0.14426 -10.299254,0.0669 -10.950278,0.46927 -0.651024,0.40235 -3.554215,0.66089 -6.451535,0.57452 -7.855447,-0.23417 -24.838593,1.73181 -26.131811,3.02502 -1.667106,1.66711 -1.522284,20.8625 0.165303,21.90988 1.466115,0.90994 46.793458,0.49463 48.309977,-0.44263 z m 148.219795,-3.4403 c 0.94461,-0.85598 0.95303,-29.08685 0.009,-31.54588 -0.42978,-1.11999 -1.25565,-1.39683 -2.72844,-0.91461 -1.16165,0.38035 -5.93709,0.87911 -10.61209,1.10836 -4.675,0.22924 -9.0625,0.61518 -9.75,0.85764 -0.92199,0.32514 -1.25,4.23251 -1.25,14.89042 0,7.94728 0.26815,15.14839 0.5959,16.00248 0.50905,1.32656 2.22158,1.46557 11.75,0.95381 6.13475,-0.32949 11.52811,-0.93799 11.98522,-1.35222 z m 36.55845,-0.55433 c 1.09015,-0.37729 1.28364,-2.25386 0.89794,-8.70874 -0.2704,-4.52531 -0.17755,-10.92783 0.20634,-14.22783 1.08649,-9.33971 0.36454,-10.15541 -8.8187,-9.96388 -9.79668,0.20432 -19.3259,1.43171 -20.90446,2.69255 -0.86704,0.69252 -1.1121,3.67683 -0.83157,10.12661 0.21876,5.02959 0.0781,10.94472 -0.31259,13.14472 -0.89526,5.04134 -0.43481,7.29184 1.57308,7.68852 2.31676,0.4577 26.56355,-0.18907 28.18996,-0.75195 z m 31.45541,-1.38222 c 1.29556,-1.29633 1.04147,-31.95904 -0.27633,-33.34614 -0.92451,-0.97313 -21.39616,0.25807 -23.23968,1.39767 -1.03916,0.64238 -1.25307,4.26402 -0.9809,16.60782 0.19143,8.68247 0.5485,16.11249 0.79347,16.51116 0.72825,1.18513 22.4197,0.11398 23.70344,-1.17051 z m 26.36958,-0.11457 c 2.86801,-0.009 5.5364,-0.53683 5.92976,-1.1733 0.93645,-1.5152 1.58128,-24.07638 0.84057,-29.40972 -0.55245,-3.9779 -0.74335,-4.16843 -4.78335,-4.77427 -4.89184,-0.73357 -19.90524,1.12907 -20.8025,2.58087 -0.91143,1.47472 -0.80449,30.09609 0.11899,31.84778 0.60924,1.15561 2.28892,1.44451 7.13932,1.22793 3.48846,-0.15576 8.6892,-0.29044 11.55721,-0.29929 z M 340.25,209.38313 c 3.1625,-0.31873 5.76206,-0.87282 5.77681,-1.23132 0.0147,-0.35849 0.0922,-8.07681 0.17223,-17.15181 l 0.14543,-16.5 -2.71303,-1.32412 c -2.10698,-1.02833 -3.83181,-1.08418 -7.72145,-0.25 -2.75464,0.59077 -7.15027,1.07412 -9.76808,1.07412 -8.31636,0 -8.45706,0.32151 -7.97601,18.22588 0.30689,11.42222 0.79356,16.02034 1.82744,17.26609 1.46556,1.76589 1.66563,1.76482 20.25666,-0.10884 z m 29.04191,-1.27772 c 4.83555,0.0793 8.97502,-0.039 9.19883,-0.26281 0.73309,-0.7331 0.77045,-34.61098 0.0395,-35.79373 -1.0424,-1.68664 -24.17253,-1.18477 -25.61709,0.55583 -1.40293,1.69043 -1.24773,34.28718 0.17139,35.99711 0.7314,0.88129 1.92388,0.96444 4.21761,0.29409 1.75884,-0.51403 7.15425,-0.86975 11.9898,-0.79049 z m 61.77874,-1.67788 c 12.41386,-0.23449 27.48886,-0.73236 33.5,-1.10636 11.78694,-0.73336 23.45275,-1.09956 58.25483,-1.8287 12.27901,-0.25725 22.62901,-0.65012 23,-0.87304 0.37099,-0.22291 10.12452,-0.45742 21.67452,-0.52112 11.55,-0.0637 30.675,-0.51676 42.5,-1.00679 11.825,-0.49003 23.6213,-0.55989 26.214,-0.15524 2.5927,0.40465 5.0677,0.39747 5.5,-0.0159 0.87528,-0.83705 14.26907,-1.65718 36.55419,-2.23829 8.12251,-0.21181 15.0434,-0.6603 15.37975,-0.99666 0.33636,-0.33636 2.49611,-0.35325 4.79945,-0.0376 3.15181,0.43201 4.60411,0.1578 5.87025,-1.10834 3.21042,-3.21042 2.7668,-3.86515 -15.31764,-22.6066 -3.575,-3.70489 -9.55031,-9.96975 -13.27846,-13.92192 l -6.77847,-7.18578 -8.72153,0.6406 c -4.79685,0.35233 -13.89654,1.08097 -20.22154,1.61919 -6.325,0.53823 -13.975,1.18715 -17,1.44205 -7.44737,0.62754 -26.19446,1.46287 -45.2121,2.01456 -8.64165,0.25069 -18.7458,0.88543 -22.45366,1.41052 -4.66991,0.66134 -7.13992,0.62412 -8.0379,-0.12114 -0.9316,-0.77317 -1.69901,-0.74169 -2.72749,0.11188 -0.78916,0.65494 -4.04142,1.13223 -7.25,1.06397 -3.20037,-0.0681 -8.06885,0.27491 -10.81885,0.7622 -5.77773,1.0238 -22.16602,0.8635 -24.76273,-0.2422 -0.96951,-0.41282 -2.31951,-0.30715 -3,0.23481 -1.22982,0.97946 -6.30337,1.71435 -18.73727,2.71406 -14.73869,1.18501 -32.77849,2.40765 -44.76058,3.03363 -7.00668,0.36605 -16.33942,0.88664 -20.73942,1.15688 -4.4,0.27024 -11.69517,0.58856 -16.21148,0.70738 -4.51632,0.11882 -8.52882,0.53337 -8.91667,0.92123 -0.38785,0.38785 -1.4814,0.70518 -2.43011,0.70518 -2.42749,0 -3.09616,3.71963 -2.10192,11.69231 0.92256,7.39784 0.76747,15.13041 -0.3954,19.71401 -1.2607,4.96923 1.21463,5.9036 13.55558,5.11691 5.775,-0.36814 20.65679,-0.86121 33.07065,-1.0957 z M 44.5,183.56272 c 7.15,-0.25758 19.075,-0.9768 26.5,-1.59828 7.425,-0.62147 17.339722,-1.23073 22.032715,-1.35389 4.692994,-0.12317 8.967995,-0.4675 9.500005,-0.76518 0.532,-0.29768 5.01819,-0.60923 9.96931,-0.69234 4.95111,-0.0831 16.65111,-0.59518 26,-1.13795 9.34888,-0.54276 21.84208,-0.99319 27.76267,-1.00096 L 177.0294,177 l 1.85958,-3.05783 c 1.62447,-2.67123 1.81535,-4.77224 1.50981,-16.61801 -0.346,-13.41407 -1.32993,-17.43199 -3.78147,-15.44174 -0.61453,0.4989 -4.94232,1.1871 -9.61732,1.52935 -9.87202,0.7227 -13.8953,1.15734 -23.5,2.53872 -5.69946,0.81972 -23.90573,2.06221 -50.50548,3.44677 -1.928014,0.10035 -3.953014,0.43589 -4.5,0.74564 -0.546986,0.30975 -4.348107,0.6365 -8.446935,0.7261 -4.098828,0.0896 -9.100226,0.60663 -11.114218,1.14894 -2.013991,0.54231 -10.135405,1.22468 -18.047585,1.51636 -15.627339,0.57611 -17.916974,0.7684 -19.403363,1.62956 -0.540331,0.31305 -4.582419,0.65638 -8.982419,0.76295 -10.282721,0.24907 -10.946532,0.88451 -11.17913,10.70127 -0.09852,4.15809 -0.416369,8.1784 -0.706326,8.93402 -0.289958,0.75562 -0.09685,1.63982 0.42913,1.96489 C 11.569653,177.85207 12,179.5881 12,181.38485 v 3.26681 l 9.75,-0.31031 c 5.3625,-0.17067 15.6,-0.52105 22.75,-0.77863 z m 153.2867,-8.91828 c 0.70768,-0.44431 2.95768,-0.54154 5,-0.21607 2.19911,0.35045 4.7137,0.0754 6.16661,-0.67456 2.39027,-1.23378 2.45876,-1.59239 2.6651,-13.95489 0.11649,-6.97871 0.46123,-13.50089 0.76611,-14.49374 0.79704,-2.5956 -2.88476,-7.19566 -4.48372,-5.60198 -0.83334,0.83058 -1.77319,0.90028 -3.03483,0.22507 -1.19412,-0.63907 -3.9804,-0.63143 -8.03821,0.0221 -3.41581,0.5501 -6.40861,0.80215 -6.65065,0.5601 -0.24204,-0.24204 -1.26807,0.003 -2.28006,0.54465 -1.63902,0.87718 -1.82639,2.27655 -1.71559,12.81288 0.0684,6.50548 -0.16742,12.3003 -0.52408,12.87738 -1.18674,1.92019 0.48213,6.83898 2.6775,7.89162 2.48473,1.19137 7.55976,1.19538 9.45182,0.007 z M 235.30914,173 C 249.77443,173 249,174.05023 249,154.43343 c 0,-18.35082 0.1151,-18.06077 -7,-17.63973 -1.925,0.11391 -7.775,0.46265 -13,0.77497 -5.225,0.31232 -9.8774,0.93704 -10.33868,1.38827 -0.86015,0.84142 -0.96128,33.7487 -0.10795,35.12941 0.26048,0.42147 1.92706,0.34946 3.70351,-0.16002 C 224.03334,173.41685 229.90685,173 235.30914,173 Z m 36.11864,-2.41757 c 3.73483,-0.21938 6.32444,-0.8934 7,-1.82194 0.65942,-0.90637 1.07222,-7.78503 1.07222,-17.86712 V 134.5 l -8.98655,-0.29238 c -4.9426,-0.16081 -9.8926,0.13588 -11,0.65932 -1.1074,0.52344 -2.80095,1.20339 -3.76345,1.511 -1.57538,0.50348 -1.75,2.2421 -1.75,17.42401 0,9.27559 0.25494,17.11965 0.56653,17.43124 0.31159,0.31159 2.89909,0.37098 5.75,0.13198 2.85091,-0.239 7.85097,-0.59124 11.11125,-0.78274 z m 28.86575,-2.13819 10.51767,-0.70453 0.65075,-3.11986 c 0.35791,-1.71592 0.58303,-4.24485 0.50027,-5.61985 -0.37014,-6.14903 -0.33777,-7.90968 0.26654,-14.5 0.35303,-3.85 0.31729,-8.56396 -0.0794,-10.47546 l -0.72129,-3.47546 -7.96403,0.13339 c -19.12101,0.32025 -17.58203,-1.33975 -17.96353,19.37604 -0.30046,16.3152 0.34738,20.59758 2.96413,19.59344 0.72118,-0.27674 6.04419,-0.82021 11.82891,-1.20771 z M 343.75,165.75699 c 2.20814,-1.07458 2.25,-1.42634 2.25,-18.90692 V 129.0381 l -2.60801,-0.65456 c -3.45721,-0.86771 -22.51892,0.47691 -23.98271,1.69175 -0.77253,0.64115 -1.18359,6.41569 -1.25544,17.63623 -0.13514,21.1069 -0.70046,20.26438 13.16243,19.61641 5.60105,-0.2618 11.19623,-0.96872 12.43373,-1.57094 z M 370.14098,164 c 4.25754,0 8.02302,-0.45634 8.36773,-1.01409 0.3447,-0.55774 0.6591,-9.15485 0.69866,-19.10467 0.0572,-14.3904 -0.21231,-18.28046 -1.31772,-19.01888 -0.78879,-0.5269 -3.76777,-0.60287 -6.88965,-0.1757 -3.025,0.41392 -7.80377,0.64938 -10.61949,0.52325 -7.50849,-0.33636 -7.69883,0.11605 -7.96402,18.9294 -0.12407,8.80171 -0.4777,16.25523 -0.78585,16.56338 -0.30815,0.30815 -0.12477,1.37402 0.40752,2.3686 1.01658,1.8995 7.65653,3.09018 9.41184,1.68773 C 361.9725,164.34156 365.88344,164 370.14098,164 Z M 406,161.81163 c 0.825,-0.0287 5.1,-0.42732 9.5,-0.88577 4.4,-0.45845 14.075,-1.10495 21.5,-1.43667 7.425,-0.33172 15.75,-0.80215 18.5,-1.0454 2.75,-0.24325 8.6,-0.4771 13,-0.51967 4.4,-0.0426 11.375,-0.50534 15.5,-1.02838 9.93913,-1.26025 15.69308,-1.66953 33,-2.34731 29.76058,-1.1655 43.62645,-1.81076 48,-2.23372 2.475,-0.23936 8.1,-0.57183 12.5,-0.73883 4.4,-0.167 9.8,-0.56382 12,-0.88181 4.4491,-0.64308 17.18888,-1.40964 37.44132,-2.25288 7.39273,-0.30781 13.89771,-0.8417 14.4555,-1.18644 0.55779,-0.34473 5.02408,-0.74546 9.92508,-0.89051 4.901,-0.14505 9.11671,-0.46952 9.36824,-0.72105 0.70334,-0.70333 -2.50919,-6.44196 -4.11093,-7.34349 -0.78146,-0.43983 -3.76379,-3.4997 -6.62739,-6.7997 -12.21782,-14.07974 -24.87422,-26.56963 -28.42887,-28.05486 -3.09981,-1.29518 -4.93139,-1.37806 -10.87528,-0.49213 -19.4004,2.89163 -29.04413,3.92663 -38.64767,4.14782 -17.67502,0.40708 -18.44354,0.45687 -20.29369,1.31487 -0.98652,0.45749 -3.34078,0.58075 -5.23167,0.2739 -1.8909,-0.30685 -3.68154,-0.16384 -3.97922,0.3178 -0.29767,0.48165 -4.79223,0.867 -9.9879,0.85635 -5.19568,-0.0107 -9.84287,0.22547 -10.32709,0.52474 -0.48422,0.29926 -6.4604,0.81076 -13.28041,1.13665 -6.82001,0.3259 -14.20002,0.86238 -16.40002,1.19218 -2.2,0.32979 -7.2625,0.57889 -11.25,0.55355 -3.9875,-0.0253 -7.25,0.30803 -7.25,0.74083 0,0.74329 -2.42712,1.20255 -13,2.45985 -2.475,0.29432 -8.27671,1.03979 -12.89269,1.65659 -4.61597,0.61681 -11.36597,1.26524 -15,1.44097 -20.41747,0.98731 -28.53814,1.64419 -30.75747,2.48798 -1.36402,0.5186 -5.34919,0.94291 -8.85592,0.94291 -4.00932,0 -6.67147,0.46397 -7.17224,1.25 -0.84432,1.3253 -1.49598,36.65897 -0.69985,37.94712 0.25728,0.41629 4.61011,0.51159 9.67297,0.2118 5.06286,-0.29979 9.8802,-0.56857 10.7052,-0.59729 z M 34.729167,151.39583 c -0.332292,-0.33229 -1.194792,-0.36781 -1.916667,-0.0789 -0.797733,0.31922 -0.560776,0.55618 0.604167,0.60416 1.054166,0.0434 1.644791,-0.19293 1.3125,-0.52522 z M 32.5,146.43202 c 10.701916,-0.51927 14.122695,-0.87779 16.5,-1.7293 0.825,-0.2955 7.68191,-0.81064 15.237579,-1.14475 7.555668,-0.33412 19.017545,-1.26247 25.470838,-2.06301 6.453292,-0.80054 19.621383,-1.74403 29.262423,-2.09665 9.64104,-0.35261 19.55416,-1.09043 22.02916,-1.63958 2.475,-0.54916 9,-1.17521 14.5,-1.39123 24.26308,-0.95297 23.77735,-0.88496 24.73091,-3.46267 0.4809,-1.3 0.78872,-5.07291 0.68403,-8.38424 -0.15469,-4.89332 1.01115,-99.335087 1.25194,-101.415956 0.36351,-3.141441 -0.46866,-6.017126 -1.91688,-6.624049 -1.42802,-0.598458 -56.05404,-1.330945 -99.25,-1.330856 -5.225,1.1e-5 -19.12104,-0.0091 -30.88009,-0.02035 -11.759049,-0.0112 -23.459049,0.372996 -26,0.853773 -2.776973,0.525436 -4.998876,0.503693 -5.56991,-0.05451 -1.254862,-1.226658 -4.272345,-1.18692 -5.046979,0.06646 C 12.830397,17.08344 11.45521,69.644356 11.972317,74.5 c 0.325846,3.059696 0.426703,41.77306 0.115933,44.5 -0.09402,0.825 -0.03984,7.25402 0.120403,14.2867 0.324557,14.24424 0.700589,15.02717 6.791347,14.14022 1.925,-0.28033 8,-0.72803 13.5,-0.9949 z m 179.17337,-15.00001 c 1.32067,-1.80612 1.43762,-26.65435 0.1316,-27.96038 -0.37251,-0.3725 -0.24841,-1.80529 0.27576,-3.18397 0.53591,-1.409552 1.02075,-19.904112 1.10775,-42.255689 0.12552,-32.250515 -0.10126,-40.023012 -1.20213,-41.2015 -1.03853,-1.111752 -3.36605,-1.368012 -9.92159,-1.092367 C 188.44381,16.310833 189,15.983134 189,23.435719 c 0,4.227045 -0.4241,6.540353 -1.25,6.818326 -0.93751,0.315539 -0.96891,0.773852 -0.1256,1.833334 1.13387,1.424521 1.0278,32.844895 -0.17018,50.412621 -0.85747,12.574372 -1.42901,45.71236 -0.84031,48.72138 l 0.53243,2.72139 11.6432,-0.40705 c 9.48075,-0.33144 11.87362,-0.72216 12.88383,-2.10371 z m 23.42642,0.68965 c 1.19232,-1.11082 4.05961,-2.07469 7.01705,-2.35886 2.75049,-0.26429 5.37549,-0.88154 5.83333,-1.37166 1.31012,-1.40249 3.03565,-109.987038 1.7801,-112.018554 -1.06297,-1.719926 -26.05964,-0.174051 -28.38447,1.755387 -1.16127,0.963767 -1.42697,5.883828 -1.44601,26.776374 C 219.88696,58.981956 219.74771,72.75 219.59035,75.5 c -0.15736,2.75 -0.63283,16.078025 -1.05659,29.61783 -0.63729,20.3624 -0.53395,24.76852 0.59788,25.48957 1.82955,1.16554 9.76569,1.36774 10.44651,0.26615 C 230.55611,129.29118 232,129.96276 232,132 c 0,2.48243 0.54292,2.50374 3.09979,0.12166 z m 36.50736,-5.29503 C 271.88814,126.37198 273.65064,126 275.52383,126 c 4.32126,0 5.81466,-2.44716 4.70529,-7.71033 -0.43933,-2.08432 -0.4765,-10.53967 -0.0826,-18.78967 0.3939,-8.25 0.8037,-30.047498 0.91068,-48.438884 0.23338,-40.123039 1.27699,-37.258537 -13.31112,-36.536163 -5.01753,0.248458 -9.59548,0.924449 -10.17324,1.502203 -0.64398,0.643983 -1.10287,7.903839 -1.1859,18.761653 -0.21319,27.877852 -1.30437,72.867741 -1.99757,82.360701 -0.34739,4.75723 -0.3192,9.15501 0.0626,9.77285 0.80342,1.29996 16.34615,1.21323 17.15513,-0.0957 z m 40.0028,-3.91788 c 0.93638,-0.77713 1.18209,-13.27955 1.05531,-53.697262 -0.16264,-51.848385 -0.19699,-52.689282 -2.16526,-52.999433 -1.1,-0.173333 -2.9,-0.746855 -4,-1.274492 -1.64409,-0.788624 -14.39554,-0.723434 -15.25,0.07796 -0.1375,0.12896 -0.6625,0.290723 -1.16667,0.359473 -0.50416,0.06875 -1.19722,0.405561 -1.54013,0.748468 -0.34291,0.342908 -0.78237,14.517908 -0.97658,31.5 -0.19421,16.982093 -0.67213,31.658401 -1.06205,32.614019 -0.38992,0.955618 -0.25358,3.04374 0.30297,4.640271 0.55656,1.596532 0.64393,3.289662 0.19417,3.762513 -0.99734,1.048551 -2.09626,34.917669 -1.16475,35.898369 0.9795,1.03123 24.34715,-0.44655 25.77299,-1.62989 z m 23.33646,-1.98011 c 5.19552,-0.5068 9.92,-1.39505 10.49884,-1.97389 0.57884,-0.57884 1.11277,-4.29296 1.1865,-8.25359 1.05476,-56.656751 1.29626,-92.43162 0.63054,-93.405053 -0.45283,-0.662142 -2.6096,-1.282794 -4.79281,-1.379228 -2.18321,-0.09643 -5.40235,-0.64687 -7.15365,-1.22319 -2.3105,-0.760348 -3.56622,-0.73077 -4.57664,0.1078 -1.05379,0.874565 -2.14483,0.871672 -4.48567,-0.0119 -6.02058,-2.272515 -6.2232,-1.4531 -6.08477,24.606949 0.0803,15.113955 -0.25797,23.901652 -0.97132,25.234555 -0.74568,1.393309 -0.82396,4.725992 -0.24565,10.456994 0.48684,4.824443 0.47056,9.119617 -0.0382,10.071345 -0.51731,0.967776 -0.51137,3.670226 0.0143,6.483735 0.4957,2.653364 0.74231,5.081499 0.54803,5.395855 -0.19428,0.314356 -0.62546,5.651924 -0.95817,11.861254 -0.67765,12.64676 0.001,14.73636 4.42147,13.60518 1.40845,-0.36046 6.8117,-1.07002 12.00723,-1.57682 z m 36.80359,-3.53543 7.25,-0.65163 0.1472,-3.12079 c 0.081,-1.71643 0.29672,-5.37079 0.47948,-8.12079 0.18275,-2.75 0.45401,-24.125 0.6028,-47.5 L 380.5,15.5 l -3.22614,-0.05948 c -1.77438,-0.03271 -3.53688,-0.370212 -3.91667,-0.75 C 372.30419,13.637523 367.19968,13.867897 366.5,15 c -0.86241,1.395412 -5.84856,1.251435 -7.31111,-0.211111 -0.94815,-0.948148 -1.63825,-0.783974 -3.17835,0.756124 -1.88415,1.884151 -1.99032,3.951981 -2.51383,48.961111 -0.30062,25.846632 -0.7853,47.764376 -1.07705,48.706106 -0.29175,0.94172 -0.0147,2.67597 0.61572,3.85388 1.01523,1.89698 1.7356,2.07522 6.3054,1.56019 2.83757,-0.31981 8.42172,-0.8747 12.40922,-1.23309 z M 406,114.29358 c 0.825,-0.34485 5.55,-0.75677 10.5,-0.91537 8.64676,-0.27704 19.50693,-1.31527 35.5,-3.39379 8.83366,-1.14806 16.57795,-1.96519 23.5,-2.47956 2.75,-0.20435 6.8,-0.63373 9,-0.95416 3.82797,-0.55756 16.29697,-1.36154 30.77945,-1.9846 3.7287,-0.16042 7.0662,-0.57841 7.41667,-0.92888 0.35047,-0.35047 2.52579,-0.63722 4.83406,-0.63722 2.30826,0 6.51846,-0.44029 9.356,-0.97841 2.83753,-0.53813 11.7364,-1.0247 19.77526,-1.08127 8.41575,-0.0592 17.42068,-0.70356 21.22733,-1.518917 3.63618,-0.778838 12.80893,-1.847014 20.38389,-2.373723 7.57496,-0.52671 14.21246,-1.229468 14.75,-1.561684 C 615.36605,94.037703 613.81193,91.74234 601.86052,79 600.57086,77.625 595.72604,72.225 591.09425,67 586.46246,61.775 581.39643,56.668309 579.8364,55.651799 578.27638,54.635288 577,53.320198 577,52.729377 577,51.272098 569.61294,42.991022 554.83824,27.885498 L 542.5,15.270996 534,14.62783 c -11.38467,-0.861439 -91.58827,-1.000326 -92.9464,-0.160954 -0.58933,0.364221 -2.01157,0.363853 -3.16054,-8.17e-4 -3.04672,-0.966992 -37.22709,-0.630692 -49.89306,0.490896 -0.94241,0.08345 -1.53339,28.730879 -1.12518,54.543045 0.0609,3.85 -0.29949,15.1 -0.80082,25 -0.74127,14.63786 -0.66061,18.28018 0.43184,19.5 1.03454,1.15517 3.25723,1.4334 9.66876,1.21029 4.57897,-0.15934 9.0004,-0.57186 9.8254,-0.91671 z M 439,10 c 0,-0.55 -0.42344,-1 -0.94098,-1 -0.51754,0 -1.2191,0.45 -1.55902,1 -0.33992,0.55 0.0835,1 0.94098,1 C 438.29844,11 439,10.55 439,10 Z"
       id="path1" />
  </g>
</svg>
