<?xml version="1.0" encoding="UTF-8" standalone="no"?>
<!-- Created with Inkscape (http://www.inkscape.org/) -->

<svg
   version="1.1"
   id="svg1"
   width="730"
   height="506"
   viewBox="0 0 730 506"
   sodipodi:docname="3.svg"
   inkscape:version="1.4 (86a8ad7, 2024-10-11)"
   xmlns:inkscape="http://www.inkscape.org/namespaces/inkscape"
   xmlns:sodipodi="http://sodipodi.sourceforge.net/DTD/sodipodi-0.dtd"
   xmlns="http://www.w3.org/2000/svg"
   xmlns:svg="http://www.w3.org/2000/svg">
  <defs
     id="defs1" />
  <sodipodi:namedview
     id="namedview1"
     pagecolor="#ffffff"
     bordercolor="#000000"
     borderopacity="0.25"
     inkscape:showpageshadow="2"
     inkscape:pageopacity="0.0"
     inkscape:pagecheckerboard="0"
     inkscape:deskcolor="#d1d1d1"
     inkscape:zoom="0.78557312"
     inkscape:cx="239.31572"
     inkscape:cy="252.04528"
     inkscape:window-width="1920"
     inkscape:window-height="1013"
     inkscape:window-x="2391"
     inkscape:window-y="605"
     inkscape:window-maximized="1"
     inkscape:current-layer="g1" />
  <g
     inkscape:groupmode="layer"
     inkscape:label="Image"
     id="g1">
    <rect
       style="fill:#000000"
       id="rect1"
       width="109.81413"
       height="48.606255"
       x="150.31934"
       y="147.61899" />
    <path
       id="path1"
       style="fill:#000000"
       d="m 346.83594,4.9414062 c -13.56536,-0.079873 -22.35668,0.266447 -23.59961,0.9316407 -1.15043,0.6156935 -3.18804,0.7391167 -4.85938,0.2949219 C 316.7942,5.7473177 314.15,5.5162158 312.5,5.6542969 309.729,5.8861896 290.64057,6.0460293 289.1543,5.8496094 288.79457,5.8020695 288.05,5.8868322 287.5,6.0390625 286.95,6.1912927 274.125,6.4436731 259,6.5976562 198.0063,7.2186153 168.93933,7.7266838 168.48242,8.1835938 168.21786,8.4481461 165.41284,8.3029622 162.25,7.859375 154.70182,6.8007475 109.64226,6.4840595 108.0332,7.4785156 106.03285,8.7148013 96.148155,8.366559 94.503906,7.0019531 94.372498,6.8928942 94.28775,6.615518 94.166016,6.453125 c -0.251866,0.00808 -0.50372,0.016504 -0.75586,0.023437 -0.802254,0.015018 -1.604496,0.00488 -2.40625,-0.027344 -0.390418,-0.014572 -0.780954,-0.038476 -1.171875,-0.044922 -0.976996,1.0035713 -2.560892,1.3517902 -5.017578,0.953125 C 82.676056,7.0104078 80.980551,7.223683 80.568359,7.890625 79.777083,9.1709352 76,9.4083221 76,8.1777344 76,7.2287042 58.004208,7.1836103 56.5,8.1289062 55.95,8.4745455 45.898401,8.7877824 34.164062,8.8261719 19.62641,8.8737326 12.387438,9.2636929 11.441406,10.048828 10.6778,10.682566 9.7870826,12.617375 9.4628906,14.349609 8.832966,17.715445 7.9181066,44.49612 8.2617188,49.5 c 0.3721122,5.418924 0.0097,46.500838 -0.6386719,72.5 -0.3497557,14.025 -0.5832663,25.95 -0.5195313,26.5 0.2362023,2.0383 0.3883225,69.37218 0.1796875,79.5 -0.1189665,5.775 -0.1656696,12.525 -0.1035156,15 0.1040539,4.14346 -0.8842154,71.94648 -1.1152344,76.5 -0.055807,1.1 -0.1186728,30.8 -0.1386719,66 -0.019999,35.2 -0.123382,69.175 -0.2304687,75.5 L 5.5,472.5 l -0.5292969,0.0605 c 0.807584,1.13522 1.3199654,2.81458 1.2578125,5.0332 -0.025136,0.89725 -0.047747,1.79604 -0.1152344,2.69141 -0.057804,0.65543 -0.1204881,1.70017 -0.3320312,2.66992 l 0.3125,4.96289 c 0.5455709,8.64257 0.8185893,9.60987 3.3066406,11.75 C 11.98628,501.89251 12.822246,502 27.496094,502 c 10.074939,0 15.619006,0.378 16.0625,1.0957 0.428333,0.69306 2.272305,0.85671 5.015625,0.44532 2.385649,-0.35775 41.311893,-0.8298 86.501951,-1.04883 45.19007,-0.21903 82.29476,-0.5319 82.45703,-0.69531 0.16226,-0.16342 5.84638,-0.0268 12.63086,0.30273 11.39946,0.55375 21.33265,0.40991 34.60156,-0.5 2.89561,-0.19857 5.50053,0.0241 5.79102,0.49414 0.29049,0.47002 2.19742,0.7927 4.23633,0.7168 2.03892,-0.076 23.95703,-0.0781 48.70703,-0.006 24.75,0.0727 74.025,0.034 109.5,-0.0859 46.07545,-0.15575 59.308,-0.14468 62.91797,0.58398 0.24509,0.002 0.48929,0.004 0.73437,0.008 0.61508,0.0105 1.22894,0.0257 1.84375,0.0469 0.60224,0.0179 1.20424,0.0188 1.80664,0.0176 1.95738,-1.02967 8.38661,-1.3537 22.85352,-1.36328 11.36817,-0.007 14.75152,0.10717 15.68359,0.8164 0.041,10e-6 0.0819,3e-5 0.12305,0 0.37515,-1.5e-4 0.74986,-9e-4 1.125,-0.002 0.50469,-10e-4 1.00899,-0.003 1.51367,-0.006 0.615,-0.005 1.23082,-0.0107 1.84571,-0.0234 0.44766,-0.01 0.89404,-0.024 1.34179,-0.0274 0.14925,-10e-4 0.29994,1e-4 0.44922,0.002 h 0.92578 C 546.33783,501.6697 546.78132,501 547.75977,501 c 0.96837,0 3.723,-2.45954 6.12109,-5.46484 2.39809,-3.00529 5.43169,-6.1641 6.74023,-7.02149 1.30854,-0.85739 2.37891,-2.06302 2.37891,-2.67773 0,-1.4279 5.80668,-8.35655 13.57617,-16.20117 3.3416,-3.37391 8.47101,-8.83477 11.39844,-12.13477 2.92743,-3.3 8.34841,-9.375 12.04687,-13.5 3.69846,-4.125 9.29727,-10.425 12.44336,-14 3.14609,-3.575 8.79838,-9.875 12.56055,-14 3.76217,-4.125 11.03394,-12.225 16.1582,-18 5.12426,-5.775 11.40007,-12.6063 13.94727,-15.17969 2.5472,-2.57339 5.58006,-6.00819 6.73828,-7.63476 1.15821,-1.62656 6.54348,-7.62222 11.96875,-13.32227 12.80438,-13.45288 18.79734,-20.29221 20.23828,-23.09766 0.64004,-1.24612 3.21457,-5.41562 5.72071,-9.26562 2.50607,-3.85 5.28571,-8.125 6.17578,-9.5 4.5423,-7.01711 13.16144,-28.0663 15.04296,-36.73633 0.50568,-2.32997 1.55127,-5.47997 2.32422,-7 1.20812,-2.37579 2.95419,-11.5014 3.11133,-16.26367 0.0272,-0.825 0.3237,-1.95 0.66016,-2.5 2.47383,-4.0439 2.71729,-21.19679 0.43945,-31 -0.76677,-3.3 -1.64986,-7.49867 -1.96289,-9.33008 -0.31304,-1.8314 -1.22497,-4.7564 -2.02539,-6.5 -0.80042,-1.74359 -2.11316,-5.64492 -2.91797,-8.66992 -2.5446,-9.56429 -8.7462,-23.37222 -11.76367,-26.19336 C 707.29589,174.32528 706,172.40072 706,171.53125 c 0,-0.86946 -5.4,-7.01367 -12,-13.6543 -6.6,-6.64062 -12,-12.41521 -12,-12.83203 0,-0.93807 -6.84267,-9.99927 -9.0957,-12.04492 -0.90863,-0.825 -3.8464,-4.2 -6.5293,-7.5 C 660.82772,118.67676 655.35989,112.61937 646,102.92383 642.425,99.220612 637.42851,93.78542 634.89648,90.845703 630.72034,85.997142 623.70956,78.153416 618.5,72.501953 c -1.1,-1.193309 -4.25,-4.781158 -7,-7.972656 -2.75,-3.191498 -6.8,-7.681439 -9,-9.978516 C 600.3,52.253704 593.775,45.441065 588,39.412109 582.225,33.383154 576.15,26.710964 574.5,24.583984 568.43784,16.769377 557.66595,7.0263541 554.53711,6.5273438 552.86635,6.2608784 542.5,6.145541 531.5,6.2714844 520.5,6.3974277 507.9,6.1529794 503.5,5.7285156 499.1,5.3040518 482.225,5.0328361 466,5.1269531 449.775,5.22107 422.95715,5.3430906 406.4043,5.3984375 c -23.30353,0.077919 -30.45479,0.3982851 -31.6836,1.4179687 -1.32109,1.096258 -1.97827,1.0612149 -3.92578,-0.2148437 -1.90269,-1.2466878 -6.37654,-1.5566311 -23.95898,-1.6601563 z m 208.68945,9.9589848 9.06445,9.800781 C 578.98814,40.26514 582,43.677766 582,44.431641 c 0,0.643627 4.60915,5.699163 17,18.646484 2.475,2.586152 6.41895,6.887352 8.76367,9.560547 2.34471,2.673195 6.51692,7.336328 9.27149,10.361328 2.75458,3.025 6.41662,7.075 8.13867,9 1.72205,1.925 7.33735,7.814441 12.47851,13.08789 5.14116,5.27345 9.34766,9.88648 9.34766,10.25195 0,0.36548 1.6875,2.19792 3.75,4.07032 2.0625,1.8724 7.8,8.23398 12.75,14.13672 4.95,5.90267 11.08006,13.0308 13.62305,15.84179 2.54298,2.81098 4.93678,6.12383 5.31836,7.36133 0.58622,1.90118 0.32151,2.25 -1.70703,2.25 -1.32039,0 -2.5892,-0.17928 -2.81836,-0.39844 -0.22917,-0.21915 -3.34102,-0.67307 -6.91602,-1.00976 -3.575,-0.33669 -13.05548,-1.31146 -21.06836,-2.16407 -8.01288,-0.85261 -17.31498,-1.63504 -20.66992,-1.74023 -3.35494,-0.10519 -6.43631,-0.52809 -6.84766,-0.93945 -0.41135,-0.41135 -4.60924,-0.75086 -9.33008,-0.75586 -4.72083,-0.005 -12.40898,-0.43603 -17.08398,-0.95899 -9.75126,-1.09079 -20.69512,-2.12711 -26.5,-2.50976 -2.2,-0.14501 -4.675,-0.50142 -5.5,-0.79102 -0.825,-0.2896 -9.92473,-1.04515 -20.2207,-1.67969 -10.29597,-0.63455 -21.34695,-1.57653 -24.5586,-2.09375 -3.21165,-0.51723 -10.07804,-1.17813 -15.25781,-1.46679 -5.17977,-0.28866 -16.17684,-1.39261 -24.43945,-2.45508 C 471.26083,138.97464 457.075,137.59807 448,136.97852 421.1429,135.14499 421.89532,135.46053 423.0293,126.5 c 0.41762,-3.3 1.46665,-8.7 2.33008,-12 0.86338,-3.3 1.58586,-9.23386 1.60546,-13.18555 0.0196,-3.951678 0.55462,-8.451693 1.18946,-9.999997 C 428.78914,89.766148 429.86266,83.325 430.54102,77 c 0.67836,-6.325 1.72359,-13.3 2.32226,-15.5 0.59868,-2.2 1.10018,-6.405146 1.11328,-9.34375 0.0131,-2.938604 0.88771,-9.688604 1.94336,-15 1.05564,-5.311396 2.22256,-12.020973 2.59375,-14.910156 0.73715,-5.737511 2.51502,-7.566209 6.04883,-6.222656 1.1923,0.453316 3.91608,0.439828 6.05273,-0.0293 3.37175,-0.740282 14.33917,-0.784945 42.88477,-0.179688 3.85,0.08163 19.37992,-0.09087 34.51172,-0.382812 z M 424.0293,15.482422 c 0.50137,-0.309861 2.30748,0.158705 4.01367,1.041016 l 3.10351,1.603515 -0.67773,6.685547 c -0.37249,3.677667 -1.30481,10.0625 -2.07227,14.1875 -2.05933,11.068668 -1.85562,18.274236 0.58008,20.478516 2.16624,1.960424 1.78529,3.73471 -0.70898,3.298828 -2.12526,-0.371396 -3.14533,3.223493 -4.88477,17.222656 -0.78591,6.325 -1.85343,13.975 -2.37109,17 -2.04173,11.93095 -3.01774,18.77638 -3.56641,25 -0.31518,3.575 -0.77703,7.5125 -1.02734,8.75 h -0.002 c -0.4142,2.04773 -1.02095,2.25 -6.76758,2.25 -3.47285,0 -6.50855,-0.19214 -6.74414,-0.42773 -0.40924,-0.40924 -16.73414,-1.61428 -25.625,-1.89063 -3.6027,-0.11199 -4.38911,-0.53257 -5.35938,-2.875 -0.81983,-1.97931 -0.83954,-3.59723 -0.0723,-5.79883 0.58537,-1.6792 1.32319,-7.65405 1.64062,-13.27929 0.58789,-10.417898 2.55724,-32.517477 5.04688,-56.638676 0.76129,-7.375858 1.17309,-13.752001 0.91601,-14.167969 -0.42329,-0.684889 0.45211,-7.685931 2.11524,-16.921875 0.34664,-1.925 1.14097,-3.815273 1.76367,-4.201172 0.62271,-0.385899 9.82842,-0.714295 20.45898,-0.728516 10.63056,-0.01422 19.73888,-0.278029 20.24024,-0.58789 z M 340.99023,15.5 l 16.125,0.136719 c 12.39735,0.105377 16.3322,0.452223 17.01172,1.5 1.20357,1.855843 0.93216,9.562995 -0.71484,20.363281 -0.75485,4.95 -2.09999,19.80017 -2.99023,33 -0.89027,13.19983 -1.95462,24.67483 -2.36524,25.5 -0.41061,0.82517 -0.85867,5.55 -0.99609,10.5 -0.13743,4.95 -0.54594,11.925 -0.90625,15.5 l -0.6543,6.5 -7.5,0.13867 c -9.6081,0.17822 -21.84915,-1.26861 -23.69531,-2.80078 -0.80468,-0.66783 -1.20415,-2.10602 -0.91016,-3.27734 0.28807,-1.1478 0.80097,-8.8312 1.13867,-17.07422 0.3377,-8.243025 0.80669,-17.23633 1.04297,-19.98633 0.64073,-7.457268 1.24104,-17.597185 2.48242,-42 0.61554,-12.1 1.5268,-23.35 2.02539,-25 z M 74.75,15.677734 c 4.216153,0.09367 15.256795,0.147669 21.5,0.105469 12.89605,-0.08718 31.91501,1.108294 33.08594,2.080078 0.75901,0.629924 1.67292,3.730664 2.03125,6.890625 0.35834,3.159961 0.90292,7.096094 1.20898,8.746094 0.30606,1.65 0.96975,7.725 1.47461,13.5 0.50487,5.775 1.35837,11.85 1.89649,13.5 0.93276,2.860045 1.55538,10.227893 2.52539,29.849609 0.24059,4.866748 0.94932,10.397601 1.57422,12.291011 0.62486,1.89344 0.88405,4.09808 0.57617,4.9004 -0.60963,1.58866 -3.18648,1.97549 -4.03321,0.60546 -0.51985,-0.84113 -11.76472,-2.38855 -18.58984,-2.55859 -1.925,-0.048 -3.95,-0.38256 -4.5,-0.74219 -0.55,-0.35963 -5.95,-0.92995 -12,-1.26758 -6.05,-0.33763 -13.7,-0.8376 -17,-1.11132 -3.3,-0.27371 -9.3282,-0.71101 -13.396484,-0.97266 -4.068284,-0.26165 -9.918284,-0.92294 -13,-1.46875 C 53.377304,99.188333 42.24942,98.057648 22.595703,96.417969 20.448654,96.238845 18.225523,95.625912 17.654297,95.054688 16.036364,93.436751 17.318562,19.54004 18.982422,18.511719 19.370252,18.272026 27.295317,17.992113 36.59375,17.890625 45.892182,17.789136 53.881784,17.493981 54.347656,17.234375 55.458781,16.615202 69.324788,15.55721 74.75,15.677734 Z m 205.0918,0.173828 0.14453,13.324219 c 0.0803,7.328563 0.0537,17.599219 -0.0606,22.824219 -0.11413,5.225 -0.10843,15.575 0.0117,23 0.12021,7.425 0.20571,13.95 0.19141,14.5 -0.29421,11.34467 -1.35428,30.05447 -1.73829,30.67578 -0.59829,0.96807 -5.82408,0.87297 -16.89062,-0.31055 -4.4,-0.47056 -10.41233,-1.03321 -13.36133,-1.25 -3.61192,-0.26551 -6.0061,-1.0393 -7.33594,-2.36914 -1.89035,-1.89035 -1.90587,-2.17537 -0.35937,-6.73047 0.88826,-2.61632 1.38197,-5.49056 1.09766,-6.38671 -0.2843,-0.89614 -0.96152,-9.019209 -1.50586,-18.052738 -0.70922,-11.769682 -0.67935,-16.798491 0.10546,-17.744141 0.62132,-0.748636 0.80182,-2.512846 0.41797,-4.076172 -0.76368,-3.110348 -1.01054,-5.784566 -2.10156,-22.755859 -0.42429,-6.6 -0.67692,-13.98424 -0.5625,-16.410156 0.37738,-8.000887 -0.47295,-7.6936 21.96289,-7.982422 z m 27.87695,0.16211 c 10.87976,0.0075 20.80361,0.288371 22.05273,0.623047 l 2.27149,0.607422 -0.57813,19.628906 C 331.14715,47.668361 330.66676,58.525 330.39648,61 c -0.27027,2.475 -0.75106,17.1 -1.0664,32.5 -0.31535,15.4 -0.95512,28.73573 -1.42383,29.63477 -0.70781,1.35768 -2.59338,1.62437 -11.12891,1.57617 -5.65211,-0.0319 -12.07734,-0.43065 -14.27734,-0.88672 -2.2,-0.45607 -6.7,-0.94013 -10,-1.07617 l -6,-0.24805 0.0801,-51.583984 c 0.0436,-28.371076 0.36512,-52.333576 0.7168,-53.25 0.56713,-1.477922 2.87602,-1.664454 20.42187,-1.652344 z m -164.41602,0.396484 c 1.87951,-0.05077 4.46852,0.08098 7.99805,0.185547 18.81496,0.557373 21.95037,0.556831 24.16211,0.002 3.587,-0.900279 4.59183,0.714589 4.96875,7.984375 0.19728,3.805162 0.62318,7.592969 0.94727,8.417969 1.00522,2.558825 2.53007,18.628528 1.9707,20.767578 -0.29162,1.115169 -0.0796,2.868268 0.4707,3.896484 0.86715,1.620276 2.43808,30.908535 2.61914,48.835938 l 0.0606,6 -3.5,0.14062 c -1.925,0.0777 -7.325,-0.45004 -12,-1.17382 -4.675,-0.72378 -11.24345,-1.34913 -14.5957,-1.39063 -4.48412,-0.0555 -6.49975,-0.53869 -7.63086,-1.82617 -1.45544,-1.65665 -2.70107,-9.507807 -3.28906,-20.75 -0.14385,-2.75 -1.01124,-9.16628 -1.92774,-14.257812 -0.91651,-5.091533 -1.43279,-9.633666 -1.14844,-10.09375 0.28435,-0.460085 0.11945,-2.368804 -0.36523,-4.242188 C 141.55803,57.03263 140.8926,51 140.5625,45.5 140.2324,40 139.63162,31.871395 139.22852,27.4375 c -0.82574,-9.082586 -1.56429,-10.875022 4.07421,-11.027344 z m 82.53711,0.0078 c 3.17761,0.122892 4.49131,0.401513 4.64063,0.863281 1.12653,3.483803 2.10658,30.549068 2.70312,74.71875 l 0.31641,23.5 -7.5,0.11719 c -11.79562,0.18523 -29.01284,-1.22964 -30.27148,-2.48828 -0.70553,-0.70553 -1.25915,-6.03468 -1.44141,-13.886722 C 194.12444,92.234216 193.5488,83.575 193.00586,80 c -1.1626,-7.65518 -2.9594,-27.368029 -3.46289,-38 -0.19535,-4.125 -0.67506,-11.154087 -1.06641,-15.619141 -0.48216,-5.50104 -0.36116,-8.33483 0.37696,-8.791015 0.59912,-0.370274 10.12263,-0.864726 21.1621,-1.09961 7.60609,-0.161832 12.64662,-0.195132 15.82422,-0.07227 z M 18.587891,103 c 1.261536,0 2.567626,0.44274 2.902343,0.98438 0.334717,0.54156 1.598352,0.91297 2.808594,0.82617 1.210243,-0.0868 3.175974,0.16401 4.367188,0.55664 1.191214,0.39264 2.413149,0.31432 2.714843,-0.17383 0.306998,-0.49677 2.655616,-0.53948 5.333985,-0.0977 2.632092,0.43438 10.185156,1.07678 16.785156,1.42774 6.6,0.35096 13.709287,1.07545 15.798828,1.60937 2.089541,0.53391 4.699475,0.68487 5.798828,0.33594 1.099352,-0.34892 2.540065,-0.2084 3.201172,0.3125 0.661106,0.5209 6.345068,1.24594 12.632813,1.61133 6.287745,0.36539 11.912749,1.04679 12.499999,1.51367 0.58726,0.46688 3.31836,0.74693 6.06836,0.62109 2.75,-0.12583 5.49889,0.15542 6.10938,0.62696 0.61047,0.47153 6.46048,1.19249 13,1.60156 L 140.5,115.5 l 1.21289,7 C 144.10137,136.28658 146,150.85207 146,155.38672 V 160 h -5.83398 c -3.20834,0 -6.03387,-0.19988 -6.2793,-0.44531 -0.54755,-0.54754 -42.554987,-2.75798 -49.111329,-2.58399 -2.599005,0.069 -5.601931,-0.34339 -6.671875,-0.91601 -1.101432,-0.58947 -14.616381,-1.41512 -31.154297,-1.9043 C 19.830964,153.34825 17.662925,153.15026 16.675781,151.39258 15.509226,149.31546 15.059159,129.36036 15.814453,113.25 16.277706,103.36885 16.376729,103 18.587891,103 Z m 365.470699,30 c 0.58246,0 0.78133,0.45 0.44141,1 -0.33992,0.55 -0.81605,1 -1.05859,1 C 383.19887,135 383,134.55 383,134 c 0,-0.55 0.47613,-1 1.05859,-1 z m 43.4043,9.03125 c 2.31453,-0.0717 4.5825,0.23318 5.03711,0.96875 0.82941,1.34202 4.82658,1.27303 6.20703,-0.10742 0.81058,-0.81055 2.06903,-0.79146 4.68555,0.0723 1.967,0.64917 4.51683,0.88231 5.66601,0.51758 1.14918,-0.36474 3.40568,-0.11803 5.01563,0.54883 2.3391,0.96889 3.24313,0.94903 4.50195,-0.0957 1.0944,-0.90828 1.7819,-0.97768 2.25,-0.22657 0.74724,1.19903 6.83966,1.8722 24.49024,2.70118 6.49916,0.30523 12.34661,0.88106 12.99414,1.28125 0.64753,0.4002 7.03028,1.32194 14.18359,2.04687 7.15332,0.72493 15.25586,1.5432 18.00586,1.82031 7.20885,0.7264 11.0153,1.16159 19.79492,2.25782 4.28712,0.53532 8.63102,0.75392 9.6543,0.48632 1.02329,-0.26759 3.48861,0.2862 5.47851,1.23047 2.52303,1.19728 5.13359,1.57181 8.625,1.23633 2.75365,-0.26459 5.26924,-0.0578 5.58985,0.46094 0.32061,0.51872 1.45138,0.71725 2.51367,0.43945 1.06229,-0.27779 6.07553,-0.0399 11.13867,0.5293 10.24393,1.1516 16.71036,1.78988 21.20508,2.0957 1.65,0.11227 3.50483,0.53267 4.12109,0.9336 0.61627,0.40094 4.89127,0.66714 9.5,0.58984 4.60874,-0.0773 10.22464,0.18366 12.48047,0.58203 2.25582,0.39837 8.33082,0.86498 13.5,1.03516 9.39038,0.30915 23.66081,1.81943 33.74024,3.57031 3.91882,0.68073 6.38252,1.86858 9.25195,4.46094 2.15119,1.94347 4.35979,3.5332 4.9082,3.5332 0.54842,0 0.99805,0.59207 0.99805,1.31641 0,0.72434 1.35,3.95727 3,7.18359 3.50874,6.86079 3.80951,9.5 1.08203,9.5 -1.05502,0 -2.51752,0.15467 -3.25,0.34375 -0.73249,0.18908 -6.28203,-0.0207 -12.33203,-0.4668 -6.05,-0.44608 -15.95,-1.01489 -22,-1.26367 -10.6403,-0.43755 -28.24474,-1.41481 -37.5,-2.08203 -2.475,-0.17843 -13.275,-0.81204 -24,-1.40625 -10.725,-0.59421 -22.875,-1.29587 -27,-1.56055 -7.71829,-0.49525 -24.78204,-1.43162 -38,-2.08398 -4.125,-0.20359 -11.55,-0.60744 -16.5,-0.89844 -14.72314,-0.86555 -29.24743,-1.59721 -42,-2.11523 -6.6,-0.2681 -13.24058,-0.98729 -14.75586,-1.59961 -1.51528,-0.61228 -5.34028,-0.89884 -8.5,-0.63477 -3.15972,0.26406 -6.86914,0.1214 -8.24414,-0.31836 -1.375,-0.43975 -6.775,-1.05706 -12,-1.37109 -12.46849,-0.74938 -22.71471,-1.9257 -23.48438,-2.69531 -0.91599,-0.91598 3.35615,-29.98905 4.63282,-31.52735 0.63859,-0.76945 2.99992,-1.21732 5.31445,-1.28906 z m -409.839843,17.2832 c 0.615724,-0.17023 1.454825,-0.0851 2.716797,0.20117 1.738582,0.39439 5.297656,0.77441 7.910156,0.84376 2.6125,0.0693 4.75,0.39649 4.75,0.72851 0,0.33203 8.815796,0.91743 19.589844,1.30078 10.774048,0.38335 22.811548,0.98546 26.75,1.33789 3.938452,0.35242 9.185156,0.563 11.660156,0.4668 2.475,-0.0962 6.846527,0.33861 9.71484,0.9668 4.1837,0.91627 5.53376,0.87729 6.82618,-0.19532 1.06615,-0.88483 1.83925,-0.98564 2.28515,-0.30078 0.79975,1.22837 15.31013,2.59326 26.95313,2.53516 7.67856,-0.0383 8.39298,0.13393 9.86523,2.38086 0.8834,1.34823 1.93472,6.08094 2.37109,10.67187 0.43128,4.53689 1.33253,11.49945 2.00196,15.47266 0.66947,3.97322 0.95292,7.91072 0.63086,8.75 -0.56218,1.46501 -3.73248,2.10735 -4.85547,0.98437 -0.29728,-0.29729 -12.85913,-0.72967 -27.91602,-0.96093 C 103.82007,204.26679 89.025,203.84776 86,203.56641 c -9.119516,-0.84818 -28.35442,-1.64452 -49.34375,-2.04297 -10.913809,-0.20718 -20.138809,-0.67331 -20.5,-1.03516 -1.037634,-1.03951 -0.960058,-37.77923 0.08398,-39.83789 0.374659,-0.73874 0.767089,-1.1657 1.382813,-1.33594 z M 185,164 c 0.55,0 1,0.45 1,1 0,0.55 -0.45,1 -1,1 -0.55,0 -1,-0.45 -1,-1 0,-0.55 0.45,-1 1,-1 z m 33.91602,10.12305 c 0.34739,0.0143 0.64635,0.10729 0.8125,0.27343 0.33229,0.33229 -0.25834,0.56879 -1.3125,0.5254 -1.16495,-0.048 -1.40125,-0.28625 -0.60352,-0.60547 0.36094,-0.14446 0.75612,-0.20767 1.10352,-0.19336 z m -56.13282,0.13867 c 2.90594,-0.20238 7.40594,-0.2018 10,0.004 2.59406,0.20528 0.2168,0.37215 -5.2832,0.36915 -5.5,-0.003 -7.62274,-0.17041 -4.7168,-0.37305 z m 17.48633,0.0449 c 0.97297,-0.25349 2.32297,-0.23676 3,0.0371 0.67703,0.27393 -0.11953,0.48134 -1.76953,0.46094 -1.65,-0.0204 -2.20344,-0.24451 -1.23047,-0.49805 z m 20,0 c 0.97297,-0.25349 2.32297,-0.23676 3,0.0371 0.67703,0.27393 -0.11953,0.48134 -1.76953,0.46094 -1.65,-0.0204 -2.20344,-0.24451 -1.23047,-0.49805 z m -46.51953,0.0312 c 0.6875,-0.27741 1.8125,-0.27741 2.5,0 0.6875,0.27741 0.125,0.50391 -1.25,0.50391 -1.375,0 -1.9375,-0.2265 -1.25,-0.50391 z m 280.15234,10.68945 c 9.12863,0.0551 20.42266,0.51723 25.09766,1.02539 4.675,0.50816 13.45,1.13101 19.5,1.38477 6.05,0.25376 13.1315,0.76991 15.73633,1.14648 3.11774,0.45071 5.22214,0.28044 6.16015,-0.49804 1.04019,-0.86329 1.61293,-0.88237 2.11719,-0.0664 0.37992,0.61473 2.33134,1.00596 4.33789,0.86719 2.00654,-0.13878 4.72574,0.33019 6.04297,1.04297 1.6252,0.87942 4.21534,1.09084 8.05664,0.65625 3.11338,-0.35221 5.96725,-0.3357 6.3418,0.0391 0.37455,0.37455 5.97353,0.80003 12.44336,0.94531 6.46983,0.14528 14.23867,0.56398 17.26367,0.92969 13.02209,1.57431 43.7081,3.48539 59,3.67383 6.325,0.0779 11.95,0.47036 12.5,0.87305 0.55,0.40268 8.83228,1.02336 18.4043,1.3789 9.57202,0.35553 17.7744,0.87559 18.22851,1.15625 0.45412,0.28066 1.70718,0.0379 2.78516,-0.53906 1.37644,-0.73662 2.15838,-0.73048 2.62305,0.0215 0.36393,0.58884 2.07859,0.97087 3.81054,0.84766 4.20924,-0.29944 18.76385,1.14728 20.64844,2.05273 0.825,0.3964 2.625,0.41226 4,0.0352 1.375,-0.3773 3.3168,-0.27522 4.31445,0.22656 1.10082,0.55374 2.2802,0.54699 3,-0.0176 0.75023,-0.58833 2.34124,-0.44459 4.33008,0.39063 2.555,1.07299 3.44302,2.31054 4.73828,6.60937 0.87669,2.90965 1.7115,6.64102 1.85547,8.29102 0.25942,2.97322 0.2129,3.00196 -5.27734,3.29297 -3.04684,0.1615 -5.7963,0.0377 -6.10938,-0.27539 -0.31308,-0.31308 -15.82085,-0.78239 -34.46094,-1.04297 -31.86874,-0.44551 -41.77611,-0.65936 -96.89062,-2.0957 -12.1,-0.31534 -29.65,-0.67193 -39,-0.79297 -9.35,-0.12103 -17.79417,-0.57863 -18.76367,-1.01563 -0.96951,-0.437 -2.31951,-0.3695 -3,0.15039 -0.6805,0.51989 -4.16133,0.8097 -7.73633,0.64258 -3.575,-0.16712 -13.025,-0.51485 -21,-0.77148 -7.975,-0.25662 -16.975,-0.6822 -20,-0.94532 -3.025,-0.26313 -15.51016,-0.80279 -27.74414,-1.20117 -16.2313,-0.52855 -22.53348,-1.07422 -23.31641,-2.01758 -1.45781,-1.75656 0.27547,-22.77609 2.05469,-24.91992 1.10571,-1.33229 3.91642,-1.56497 17.9082,-1.48047 z M 28.058594,208.79297 c 2.084375,0.0321 4.066406,0.15123 5.441406,0.34765 2.75,0.39296 20.525,0.94147 39.5,1.21876 18.975,0.27726 35.175,0.75673 36,1.0664 0.825,0.30967 10.05,0.74613 20.5,0.9707 10.45,0.22457 19.97155,0.71826 21.1582,1.09766 2.53814,0.81151 3.30953,3.15278 3.32813,10.08984 0.008,2.79584 0.35117,5.41712 0.76367,5.82618 0.99451,0.98623 3.03785,16.60524 2.46484,18.83984 -0.40198,1.56763 -1.99088,1.75 -15.25,1.75 -8.14087,0 -15.42432,0.23914 -16.18554,0.53125 -0.76121,0.2921 -1.63451,0.27936 -1.94141,-0.0273 -0.3069,-0.3069 -22.33289,-0.82626 -48.947265,-1.1543 C 15.732484,248.62024 17.832654,248.68712 16,247.48438 14.725312,246.64783 14.575104,243.72115 15,228 l 0.5,-18.5 6.5,-0.53711 c 1.7875,-0.14776 3.974219,-0.20203 6.058594,-0.16992 z m 414.472656,10.9082 c 1.67591,0.0228 2.7895,0.18372 3.1543,0.47852 0.65177,0.5267 5.60177,0.91924 11,0.87304 5.39823,-0.0462 12.28945,0.13987 15.31445,0.41211 6.91235,0.62208 25.94618,1.37553 50.5,2 34.04443,0.86583 50.9649,1.54748 52.79688,2.12891 0.98896,0.31389 2.43252,0.0451 3.20703,-0.59766 0.77452,-0.64282 1.76998,-0.94439 2.21093,-0.67187 1.17332,0.72516 22.06723,1.80947 43.28516,2.24805 10.175,0.21033 28.625,0.63041 41,0.93359 12.375,0.30317 29.08957,0.65185 37.14453,0.77344 C 720.36664,228.55435 721,228.91365 721,239 c 0,8.90546 -1.31428,10.14283 -10.64062,10.02344 -3.77265,-0.0483 -21.16768,0.18915 -38.65626,0.52734 -23.33303,0.45121 -32.16849,0.30859 -33.1875,-0.53711 -0.90179,-0.74844 -2.02319,-0.83228 -3.20117,-0.24023 -0.99765,0.50142 -21.38945,0.98803 -45.31445,1.08203 -23.925,0.094 -48.95677,0.36986 -55.62695,0.61328 -6.67019,0.24342 -12.29519,0.28931 -12.5,0.10156 -0.20482,-0.18774 -25.44307,-0.58094 -56.08399,-0.87304 -30.64091,-0.2921 -56.23246,-0.85336 -56.87109,-1.24805 -1.07771,-0.66606 -0.8674,-5.34291 0.65234,-14.44922 0.22947,-1.375 0.70925,-4.8625 1.06446,-7.75 l 0.64453,-5.25 8.11132,-0.0625 c 4.46056,-0.0346 11.93438,-0.43427 16.60938,-0.88867 2.6166,-0.25433 4.85534,-0.3704 6.53125,-0.34766 z m -333.51953,36.56445 c 0.41866,0.009 0.84018,0.19678 1.2832,0.56446 0.82612,0.68561 8.88484,1.10279 22.25,1.15039 11.52512,0.041 21.80517,0.20897 22.84375,0.375 3.01689,0.48228 4.34504,3.26266 4.39844,9.20703 0.0274,3.04712 0.51721,8.55417 1.08789,12.23828 1.60152,10.3388 2.08294,16.14671 1.4707,17.74219 -0.46459,1.21069 -4.05843,1.45703 -21.28515,1.45703 -11.39949,0 -21.01676,0.29018 -21.3711,0.64453 -1.07155,1.07154 -13.77254,1.38063 -15.64062,0.38086 -0.98167,-0.52534 -2.13765,-0.55373 -2.64649,-0.0664 -0.49676,0.47569 -18.22734,1.13886 -39.40234,1.47461 -21.175,0.33576 -39.879181,0.85932 -41.564453,1.16407 -5.243718,0.94851 -5.522534,-0.23208 -5.361328,-22.74219 0.08279,-11.55988 0.568649,-20.87882 1.125,-21.56641 0.725516,-0.89666 5.214638,-1.08009 17.304687,-0.70703 10.937352,0.3375 16.541825,0.15505 16.980469,-0.55469 0.360084,-0.58263 1.088563,-0.79081 1.619141,-0.46289 0.530578,0.32794 8.710769,0.51472 18.179687,0.41602 C 79.75212,256.88208 87.95,256.83455 88.5,256.87695 c 9.942384,0.76668 18.24243,0.7243 19.25,-0.0996 0.42755,-0.34961 0.84305,-0.5204 1.26172,-0.51172 z m 434.60742,0.19532 c 0.33622,-0.028 0.61313,0.10502 0.79688,0.40234 0.46728,0.75607 42.46734,1.70519 53.08398,1.19922 12.89223,-0.61442 110.794,0.13483 113.30664,0.86719 1.81901,0.5302 3.89254,0.73917 4.60742,0.46484 0.77262,-0.29648 1.82743,0.77251 2.59961,2.63672 1.10387,2.66499 1.04505,3.93872 -0.38476,8.47461 -2.9046,9.21446 -3.41847,9.52284 -16.62891,9.99219 -6.325,0.22471 -16.96016,0.70736 -23.63477,1.07031 -7.61004,0.4138 -12.81311,0.28032 -13.94921,-0.35547 -1.17492,-0.65753 -2.68985,-0.67943 -4.3125,-0.0625 -1.37617,0.52322 -11.74996,1.17078 -23.05274,1.43945 -36.96193,0.87861 -39.4676,1.02733 -41.74219,2.44922 -1.80781,1.1301 -3.04669,1.14943 -7.07421,0.11719 -3.68265,-0.94384 -6.51345,-0.99114 -11.51954,-0.19141 -3.65039,0.58315 -6.99188,0.97418 -7.42578,0.86719 -0.43391,-0.107 -11.81406,0.1461 -25.28906,0.5625 -24.16826,0.74685 -30.95812,1.00292 -60.5,2.28516 -8.25,0.35808 -16.8,0.63187 -19,0.60937 -2.2,-0.0225 -15.6539,-0.0967 -29.89648,-0.16601 -16.22159,-0.079 -26.35186,0.25351 -27.11719,0.88867 -0.84169,0.69854 -1.54274,0.61966 -2.25586,-0.25 -1.61823,-1.97347 -1.76539,-4.87879 -0.49219,-9.76172 0.64535,-2.475 1.45168,-7.92805 1.79102,-12.11914 0.52437,-6.47641 0.94287,-7.78821 2.79297,-8.73633 3.47634,-1.78148 47.85232,-2.68786 86.17773,-1.75976 6.05,0.14651 12.5635,-0.0799 14.47461,-0.50391 1.91111,-0.42406 3.71111,-0.4364 4,-0.0273 0.89801,1.27091 27.97988,1.4286 29.49414,0.17187 0.41864,-0.34744 0.81417,-0.53648 1.15039,-0.56445 z m 152.30859,31.80468 c 7.73448,-0.12015 15.06504,-0.0112 15.05665,0.43555 -0.0279,1.48136 -2.54339,7.77342 -4.51758,11.29883 -1.07798,1.925 -2.19821,4.36656 -2.49024,5.42578 -0.29204,1.05922 -1.64407,2.24535 -3.0039,2.63672 -5.97505,1.71967 -14.12555,2.95531 -22.47266,3.40625 -20.2314,1.09297 -29.46188,1.70482 -38.31836,2.53906 -5.12458,0.48271 -9.98187,0.62255 -10.79492,0.31055 -0.81306,-0.312 -6.51927,0.011 -12.68164,0.71875 -6.16237,0.70774 -13.00508,1.38536 -15.20508,1.50391 -2.2,0.11855 -7.825,0.47912 -12.5,0.80273 -4.675,0.32362 -13.42799,0.84988 -19.45117,1.16797 -6.02318,0.31809 -11.42318,0.92238 -12,1.34375 -0.57682,0.42136 -6.89883,0.88403 -14.04883,1.0293 -7.15,0.14527 -15.18515,0.67801 -17.85547,1.18359 -2.67031,0.50559 -5.20437,0.70499 -5.63086,0.44141 -0.42649,-0.26359 -6.79134,-0.004 -14.14453,0.57617 -20.08733,1.58598 -23.18441,1.69157 -25.4043,0.875 -1.25407,-0.4613 -2.76706,-0.21417 -3.9414,0.64453 -1.3496,0.98686 -5.04397,1.39453 -12.65625,1.39453 -5.91242,0 -10.9985,0.40227 -11.30274,0.89453 -0.32296,0.52258 -2.32375,0.4903 -4.80859,-0.0781 -2.34072,-0.53555 -6.50586,-0.66508 -9.25586,-0.28711 -2.75,0.37797 -9.05,0.834 -14,1.01172 -4.95,0.17772 -12.69388,0.61646 -17.20898,0.97656 -8.18832,0.65307 -8.21043,0.64832 -8.84766,-1.89063 -0.35138,-1.39999 -0.15347,-5.60091 0.44141,-9.33593 0.59488,-3.73502 1.34537,-9.37153 1.66796,-12.5254 0.32259,-3.15383 0.90094,-5.92854 1.28516,-6.16601 0.38423,-0.23746 6.7194,-0.73066 14.07617,-1.0957 7.35677,-0.36504 14.48915,-1.08749 15.85156,-1.60547 1.60164,-0.60896 2.90821,-0.5828 3.69727,0.0723 0.6712,0.55703 1.45787,0.77455 1.74805,0.48438 0.29017,-0.29017 15.77398,-0.73707 34.4082,-0.99414 35.48442,-0.48951 70.97385,-1.34986 85.38086,-2.06836 17.8954,-0.89248 50.23411,-1.91938 92.44922,-2.93555 14.82179,-0.35678 27.87179,-0.91887 29,-1.25 1.60671,-0.47156 9.74404,-0.82122 17.47851,-0.94141 z m -536.39062,18.44141 c 0.7476,0.009 1.50361,0.12351 2.08789,0.3418 2.08148,0.77763 2.8132,3.30621 3.89062,13.44531 0.17573,1.65327 1.05548,7.46673 1.95508,12.91797 1.34313,8.13886 1.40196,10.1363 0.33203,11.16992 -0.89386,0.86353 -8.36677,1.59603 -23.80273,2.33399 -12.375,0.59161 -24.75,1.25145 -27.5,1.46679 -2.75,0.21535 -10.85,0.68214 -18,1.03711 -7.15,0.35497 -17.05,1.10329 -22,1.66211 -4.95,0.55883 -11.071778,0.73489 -13.603516,0.39258 -2.531737,-0.34231 -7.931737,-0.16854 -12,0.38672 v 0.002 c -4.068262,0.55527 -13.739982,1.32187 -21.49414,1.70508 l -14.09961,0.69726 -0.570312,-2.88281 C 14.418618,349.7971 14.549746,342.425 15.023438,335 c 0.473686,-7.425 0.611769,-15.14428 0.30664,-17.1543 -0.689071,-4.53922 0.690387,-5.43911 9.714844,-6.33984 3.550423,-0.35436 7.805078,-0.80044 9.455078,-0.99024 1.65,-0.18975 14.925,-0.66948 29.5,-1.0664 14.575,-0.39692 26.95,-1.05394 27.5,-1.46094 0.55,-0.40704 15.175,-0.62761 32.5,-0.49023 17.325,0.13738 32.4,-0.0859 33.5,-0.4961 0.55,-0.20512 1.28951,-0.3036 2.03711,-0.29492 z m 518.93359,13.06641 c 12.51333,-0.24576 14.00815,-0.0944 14.31641,1.4375 0.55676,2.76677 -2.40572,7.88011 -8.19141,14.14258 -5.27538,5.71011 -5.50508,5.83818 -9.42578,5.17578 -2.21066,-0.37349 -4.84202,-0.24515 -5.8457,0.28711 -1.00367,0.53226 -7.89693,1.25826 -15.32031,1.61328 -7.42338,0.35501 -19.57338,1.35654 -27,2.22461 -7.42662,0.86807 -15.07891,1.69786 -17.00391,1.84375 -1.925,0.14588 -5.975,0.55477 -9,0.9082 -3.025,0.35343 -7.975,0.88191 -11,1.17578 -3.025,0.29386 -10.9,1.14986 -17.5,1.90039 -28.98319,3.29587 -33.38303,3.75349 -40,4.16406 -3.85,0.23889 -11.4664,1.09162 -16.92578,1.89454 -5.45937,0.80291 -12.43437,1.46279 -15.5,1.46679 -3.06562,0.004 -10.74922,0.65182 -17.07422,1.43946 -6.325,0.78765 -18.23169,1.73244 -26.45898,2.09765 -8.22728,0.36522 -16.10228,1.11198 -17.5,1.66016 -1.39771,0.54817 -10.64102,1.56712 -20.54102,2.26367 -9.9,0.69655 -18.675,1.52231 -19.5,1.83594 -0.825,0.31363 -2.55346,0.14755 -3.8418,-0.36914 -2.1451,-0.8603 -2.29877,-1.38158 -1.82031,-6.1875 0.94812,-9.52349 3.14163,-20.44583 4.41016,-21.95899 1.16921,-1.39468 3.71628,-1.73835 23.75195,-3.19336 10.01111,-0.72702 19.06706,-1.89282 19.78516,-2.54882 0.4323,-0.39493 2.83489,-0.40696 5.33789,-0.0274 2.50301,0.37987 6.65015,0.28808 9.21484,-0.20312 2.56469,-0.4912 8.03711,-0.87512 12.16211,-0.85352 7.14278,0.0374 19.1905,-0.44884 34.5,-1.39062 3.85,-0.23684 14.19859,-0.73157 22.99805,-1.09961 8.79945,-0.36805 16.67445,-1.01867 17.5,-1.44532 0.82554,-0.42665 10.27695,-1.29049 21.00195,-1.91992 10.725,-0.62944 23.1,-1.36698 27.5,-1.63867 13.01885,-0.80388 23.86994,-1.30539 44,-2.0332 23.3338,-0.84364 25.61418,-0.98929 27.5,-1.76758 0.825,-0.34048 7.78637,-0.74361 15.4707,-0.89453 z m -10.40429,29.33789 c 0.91527,0.21544 0.93359,0.81241 0.93359,2 0,2.58847 -10.20566,15.00857 -22.5,27.38086 -3.85,3.87441 -8.8,9.28532 -11,12.02539 -2.2,2.74007 -6.25,7.30473 -9,10.14258 -7.32345,7.5574 -9.5,10.0361 -9.5,10.82422 0,0.387 -1.72308,2.57388 -3.83008,4.85937 -10.03798,10.88825 -19.53558,21.23121 -28.66992,31.2207 -5.5,6.0149 -11.4625,12.36857 -13.25,14.11914 -1.7875,1.75056 -3.25,3.59337 -3.25,4.09571 0,0.50235 -1.9125,2.72487 -4.25,4.93945 -4.96413,4.7031 -6.7473,6.7529 -12.63867,14.53125 -3.79771,5.01409 -4.8184,5.77296 -7.98242,5.92578 -10.61987,0.51293 -15.9294,0.69895 -18.62891,0.65625 -1.65,-0.0259 -4.575,-0.0248 -6.5,0.004 -1.925,0.0282 -34.23424,0.33975 -71.79883,0.6914 l -68.29883,0.63868 0.66407,-7.83204 c 0.36525,-4.30834 1.08613,-10.75898 1.60351,-14.33398 0.51738,-3.575 1.34199,-10.55 1.83203,-15.5 0.49005,-4.95 1.38861,-13.275 1.9961,-18.5 0.6075,-5.225 1.25903,-11.075 1.44922,-13 0.88477,-8.95517 2.64234,-20.82831 3.55078,-23.99414 C 389.54938,398.08404 390,393.52787 390,389.87891 390,382.00946 392.14586,376 394.95508,376 c 1.06016,0 2.17207,-0.39553 2.4707,-0.87891 0.29863,-0.48319 6.51226,-1.21472 13.8086,-1.62695 14.6956,-0.83027 14.06453,-0.77295 25.26562,-2.36133 4.4,-0.62395 10.475,-1.32381 13.5,-1.55664 3.025,-0.23282 12.01166,-0.90848 19.9707,-1.50195 7.95904,-0.59347 15.18828,-1.30785 16.06446,-1.58594 3.08974,-0.98064 48.65412,-4.72219 55.13281,-4.52734 2.0179,0.0607 3.92346,-0.30162 4.23437,-0.80469 0.31092,-0.50306 2.53917,-0.69179 4.95118,-0.41992 2.66454,0.30033 4.65539,0.0566 5.07421,-0.6211 0.39507,-0.63923 3.54613,-1.11804 7.38086,-1.12304 3.68004,-0.004 11.69964,-0.66982 17.82032,-1.47852 9.40873,-1.24313 21.3684,-2.36924 42.87109,-4.03711 2.2,-0.17064 6.475,-0.76549 9.5,-1.32226 3.025,-0.55677 9.1,-1.2482 13.5,-1.53516 4.4,-0.28697 11.2625,-0.83396 15.25,-1.21484 3.5889,-0.34281 5.40113,-0.50842 6.31641,-0.29297 z m -500.41993,3.09375 c 2.12136,0.78542 3.5325,6.65488 4.25977,17.67578 0.38766,5.87454 1.06323,11.2601 1.5,11.9668 1.14429,1.8515 0.9775,8.16898 -0.24805,9.39453 -0.57323,0.57323 -5.68034,1.1805 -11.34961,1.34961 -13.94098,0.41582 -36.8464,2.43625 -39.30859,3.46679 -1.1,0.4604 -8.9764,1.27795 -17.50195,1.81836 -8.525566,0.54041 -16.68466,1.43379 -18.132816,1.98438 -1.448155,0.55059 -7.073705,1.29287 -12.5,1.64844 C 68.938939,401.86533 63.825,402.38837 63,402.67383 c -0.825,0.28545 -3.525,0.66371 -6,0.83984 -2.475,0.17613 -7.65,0.78409 -11.5,1.35156 -3.85,0.56747 -9.3625,1.05579 -12.25,1.08399 -2.8875,0.0282 -5.25,0.50983 -5.25,1.07031 0,0.56178 -1.024825,0.76114 -2.283203,0.44531 -1.255477,-0.31511 -4.182365,-0.14509 -6.505859,0.37696 -3.879899,0.87175 -4.268309,0.77304 -4.761719,-1.19727 -0.692631,-2.76585 -0.693308,-2.9492 0.144531,-23.92969 0.399026,-9.99208 1.149879,-18.05633 1.712891,-18.40429 0.551168,-0.34064 3.74517,-0.70443 7.097656,-0.8086 11.754928,-0.36525 36.842038,-2.64469 39.271484,-3.56836 C 64.025324,359.4205 69.529508,359 74.90625,359 c 5.376743,0 13.335595,-0.44966 17.685547,-1 4.349952,-0.55035 14.208203,-1.19347 21.908203,-1.42773 27.51614,-0.83714 49.67342,-2.34725 50.78711,-3.46094 0.86582,-0.86583 1.65225,-1.16806 2.35937,-0.90625 z m 210.3418,26.05273 c 1.2375,0.0865 2.24097,0.33065 2.98438,0.72852 2.43369,1.30247 2.44927,3.33919 0.10351,14.01367 -0.54389,2.475 -1.0237,8.1 -1.0664,12.5 -0.0427,4.4 -0.73922,13.175 -1.54688,19.5 -0.80766,6.325 -2.10155,16.9 -2.87695,23.5 -0.7754,6.6 -1.863,13.35 -2.41602,15 -0.55302,1.65 -1.24549,8.52068 -1.53906,15.26758 -0.29357,6.74691 -0.80652,12.70941 -1.14063,13.25 -0.33952,0.54937 -5.55595,0.98242 -11.82617,0.98242 -14.04164,0 -16.24176,-1.06854 -15.1914,-7.38086 0.37692,-2.26517 0.86751,-7.44985 1.09179,-11.52148 0.22427,-4.07164 0.61001,-7.60611 0.85743,-7.85352 0.24741,-0.24742 0.0733,-1.4405 -0.38672,-2.65039 -0.46,-1.20989 -0.47385,-2.85042 -0.0312,-3.64648 0.44235,-0.79605 1.08038,-6.39727 1.41797,-12.44727 0.97766,-17.52207 1.52436,-23.60449 2.22265,-24.73438 0.35876,-0.58048 0.78238,-4.02708 0.94141,-7.66015 0.15902,-3.63306 0.50929,-8.63047 0.77929,-11.10547 0.27001,-2.475 0.79481,-8.4206 1.16602,-13.21289 0.4478,-5.78113 1.17132,-9.12494 2.15039,-9.9375 0.81161,-0.67358 4.4774,-1.32769 8.14648,-1.45313 3.66913,-0.12545 8.9681,-0.54232 11.7754,-0.92578 1.67549,-0.22887 3.14726,-0.29935 4.38476,-0.21289 z m -36.46484,3.16407 c 1.83751,0.68954 2.15039,3.66953 1.35937,10.07226 -0.47529,3.8472 -1.08334,14.1972 -1.35156,23 -0.55868,18.3354 -3.98806,67.28316 -5.08008,72.50586 -0.40251,1.925 -1.17489,4.0625 -1.71484,4.75 -0.59554,0.75828 -3.40294,1.25 -7.13672,1.25 -7.22075,0 -10.71238,-1.82863 -10.04688,-5.26367 0.23821,-1.22951 0.65568,-12.58633 0.92579,-25.23633 0.76975,-36.0497 1.57009,-50.53523 3.14062,-56.78516 0.79968,-3.18234 1.22392,-6.16007 0.94141,-6.61718 -1.13843,-1.84202 -0.77536,-10.87779 0.54883,-13.64063 1.31189,-2.73718 1.84222,-2.96258 7.40234,-3.14844 3.29366,-0.11009 7.18658,-0.49404 8.65039,-0.85351 0.96667,-0.23738 1.74882,-0.26309 2.36133,-0.0332 z m -34.87305,3.37109 c 2.36017,-0.096 4.13079,-0.0694 4.69336,0.13867 2.08323,0.77049 2.16474,1.39703 2.41602,18.68359 0.14299,9.83708 -0.18059,22.15977 -0.71875,27.38477 -0.53815,5.225 -1.2037,20.74566 -1.47852,34.49023 -0.40293,20.15168 -0.77642,25.19344 -1.93555,26.04102 -1.79894,1.31541 -19.63444,1.79133 -21.51953,0.57422 -0.91389,-0.59006 -1.52293,-3.42228 -1.77734,-8.25195 -0.68786,-13.06101 -0.68948,-95.82597 -0.002,-96.51368 0.87039,-0.87038 13.24178,-2.25879 20.32227,-2.54687 z m -30.99805,3.33008 c 1.16144,0.19775 1.47098,0.69245 1.76758,1.62695 0.35267,1.11117 0.23095,3.84979 -0.27148,6.08594 -0.50243,2.23616 -0.78376,4.20061 -0.625,4.36523 1.62233,1.6822 3.22939,74.15522 1.91601,86.40625 l -0.54687,5.10547 -8.58985,0.66016 c -4.72389,0.3631 -9.53642,0.89463 -10.69531,1.18164 -3.22767,0.79935 -4.44205,-2.29088 -4.50195,-11.45703 -0.0294,-4.50077 -0.47122,-8.92791 -0.98047,-9.83789 -0.50925,-0.90997 -0.59546,-2.5781 -0.19141,-3.70704 0.40385,-1.12895 0.58934,-3.62773 0.41016,-5.55273 -0.17918,-1.925 -0.52711,-5.75 -0.77344,-8.5 -0.24634,-2.75 -0.69071,-16.38928 -0.98633,-30.30859 -0.29563,-13.91931 -0.76761,-25.67976 -1.04882,-26.13477 -0.28122,-0.45501 -0.023,-2.22823 0.57422,-3.94141 0.9105,-2.61194 1.60391,-3.11523 4.28906,-3.11523 1.76119,0 3.69132,-0.4882 4.28906,-1.08594 0.59774,-0.59774 4.68827,-1.33503 9.08984,-1.63672 3.70175,-0.25372 5.71357,-0.35204 6.875,-0.15429 z m -35.75976,4.45898 c 0.8338,0.0543 1.41893,0.31275 1.89258,0.7832 1.21655,1.20835 2.21726,13.5792 2.35742,29.13477 0.0297,3.3 0.26486,6.34495 0.52344,6.76562 1.08795,1.77016 1.46332,25.62281 0.43359,27.54688 -0.80086,1.49643 -0.70319,2.89183 0.38086,5.48633 1.08201,2.58954 1.37789,6.83205 1.1582,16.58594 -0.16236,7.20821 -0.54595,13.35453 -0.85156,13.66015 -2.08489,2.08488 -19.42203,0.66336 -20.89063,-1.71289 -0.41176,-0.66625 -0.76602,-4.51884 -0.7871,-8.56055 -0.0211,-4.0417 -0.26094,-7.70789 -0.53321,-8.14843 -0.60274,-0.97524 -1.64797,-14.53859 -2.01562,-26.16602 -0.14858,-4.69913 -0.786,-9.50834 -1.41602,-10.68555 -0.69507,-1.29875 -1.19187,-7.96515 -1.26367,-16.95507 -0.0651,-8.14866 -0.42722,-16.16641 -0.80664,-17.81641 -0.37943,-1.65 -0.28346,-4.2375 0.21484,-5.75 0.86646,-2.62999 1.19673,-2.75064 7.5586,-2.77344 3.65869,-0.0131 8.45234,-0.44261 10.65234,-0.95508 1.47532,-0.34366 2.55877,-0.49369 3.39258,-0.43945 z m -38.86914,3.17188 c 2.85184,-0.13664 5.73004,0.0776 6.63086,0.73632 1.87452,1.37069 2.85494,7.3641 3.88672,23.78711 0.38776,6.17222 1.04328,11.67266 1.45898,12.22266 0.41569,0.55 1.30654,9.1 1.97852,19 1.62131,23.88596 1.86015,27.00838 2.58203,33.66797 0.56445,5.20733 0.42869,5.76784 -1.6875,6.90039 -1.32894,0.71122 -6.43933,1.27463 -12.07813,1.33203 -7.79039,0.0793 -9.90826,-0.20472 -10.44336,-1.40039 -0.36922,-0.825 -1.45645,-9.6 -2.41601,-19.5 -0.95957,-9.9 -2.46676,-23.85 -3.34961,-31 -0.88285,-7.15 -1.79992,-15.7 -2.03711,-19 -0.23719,-3.3 -0.96028,-9.49031 -1.60742,-13.75586 C 182.52231,399.3903 183.23074,398 189.42188,398 c 2.29766,0 4.6064,-0.39732 5.1289,-0.88281 0.79643,-0.74002 3.62081,-1.22664 6.47266,-1.36328 z m -31.86133,4.45117 c 6.34653,-0.24695 6.83789,1.2975 6.83789,6.7168 0,2.57265 0.39938,5.1064 0.88672,5.6289 0.73345,0.78637 2.43681,13.23425 3.68945,26.94922 0.1507,1.65 0.78291,6.825 1.4043,11.5 0.62138,4.675 1.38357,12.325 1.69336,17 0.30979,4.675 0.91147,8.95 1.33789,9.5 0.42641,0.55 0.93695,3.90851 1.13281,7.46289 0.46778,8.48915 -0.39704,8.95882 -15.48437,8.39844 -15.496,-0.57556 -30.23576,-0.74301 -36.16016,-0.41016 -2.75,0.15453 -16.96621,0.21457 -31.5918,0.13477 -14.625574,-0.0798 -27.225587,0.0389 -27.999997,0.26367 -0.77441,0.22478 -3.658203,0.0243 -6.408203,-0.44727 -2.75,-0.47161 -10.024538,-0.78295 -16.166016,-0.68945 -7.892038,0.1201 -11.62447,-0.20873 -12.728515,-1.125 -1.016774,-0.84385 -3.926334,-1.21004 -8.333985,-1.04883 -3.72437,0.13623 -9.187138,0.18222 -12.138672,0.10352 L 13.767578,490 l 0.47461,-35.75 c 0.261053,-19.6625 0.816264,-36.55041 1.234374,-37.5293 0.480167,-1.12418 1.407078,-1.57511 2.517579,-1.22265 1.680495,0.53336 14.867377,-1.03286 18.005859,-2.13867 0.825,-0.29071 3.975,-0.7076 7,-0.92579 17.436299,-1.25762 47.217989,-4.19992 50.273438,-4.96679 1.367879,-0.34331 6.254008,-0.82926 10.857422,-1.08008 10.32576,-0.56261 16.17432,-1.0725 21.36914,-1.86328 2.2,-0.33489 8.275,-0.96454 13.5,-1.40039 5.225,-0.43585 14.97346,-1.40336 21.66406,-2.15039 3.61508,-0.40364 6.38254,-0.68527 8.49805,-0.76758 z m 371.04297,105.47851 c -0.12662,-10e-4 -0.25243,0.002 -0.37891,0.006 0.0745,0.0323 0.30832,0.0217 0.39453,0.0488 -0.003,-0.0181 -0.005,-0.0365 -0.008,-0.0547 -0.003,-2e-5 -0.005,3e-5 -0.008,0 z m 2.2793,0.29297 c -0.0718,0.002 -0.14311,0.006 -0.21485,0.01 0.0586,4e-4 0.052,0.0137 0.11328,0.0137 0.0881,0 0.10646,-0.0162 0.16602,-0.0234 -0.0214,2.6e-4 -0.0432,-5.3e-4 -0.0644,0 z m -43.9375,0.0176 c 0.007,6e-5 0.009,0.006 0.0156,0.006 0.005,0 0.006,-0.004 0.0117,-0.004 -0.009,-5.8e-4 -0.0182,-9.5e-4 -0.0273,-0.002 z" />
    <rect
       style="fill:#000000"
       id="rect2"
       width="67.508682"
       height="57.60741"
       x="216.9279"
       y="298.83844" />
    <rect
       style="fill:#000000"
       id="rect3"
       width="3.6597483"
       height="2.864151"
       x="381.88678"
       y="133.0239" />
  </g>
</svg>
