<?xml version="1.0" encoding="UTF-8" standalone="no"?>
<!-- Created with Inkscape (http://www.inkscape.org/) -->

<svg
   version="1.1"
   id="svg1"
   width="735"
   height="515"
   viewBox="0 0 735 515"
   sodipodi:docname="4.svg"
   inkscape:version="1.4 (86a8ad7, 2024-10-11)"
   xmlns:inkscape="http://www.inkscape.org/namespaces/inkscape"
   xmlns:sodipodi="http://sodipodi.sourceforge.net/DTD/sodipodi-0.dtd"
   xmlns="http://www.w3.org/2000/svg"
   xmlns:svg="http://www.w3.org/2000/svg">
  <defs
     id="defs1" />
  <sodipodi:namedview
     id="namedview1"
     pagecolor="#ffffff"
     bordercolor="#000000"
     borderopacity="0.25"
     inkscape:showpageshadow="2"
     inkscape:pageopacity="0.0"
     inkscape:pagecheckerboard="0"
     inkscape:deskcolor="#d1d1d1"
     inkscape:zoom="0.77184466"
     inkscape:cx="150.28931"
     inkscape:cy="149.64151"
     inkscape:window-width="1920"
     inkscape:window-height="1013"
     inkscape:window-x="2391"
     inkscape:window-y="605"
     inkscape:window-maximized="1"
     inkscape:current-layer="g1" />
  <g
     inkscape:groupmode="layer"
     inkscape:label="Image"
     id="g1">
    <path
       style="fill:#000000"
       d="m 21.022411,511.03501 c -0.812675,-0.5139 -3.287675,-0.68747 -5.5,-0.38572 -3.620295,0.49378 -4.397162,0.18416 -7.7710834,-3.09718 L 4.0026552,503.9063 3.903433,461.20315 C 3.8488608,437.71642 3.8111686,417.15 3.8196727,415.5 c 0.0085,-1.65 -2.992e-4,-18.975 -0.019563,-38.5 -0.019264,-19.525 -0.010485,-36.175 0.019508,-37 0.029993,-0.825 0.2730708,-6.45 0.5401735,-12.5 0.2671026,-6.05 0.4254677,-40.7 0.3519224,-77 -0.073545,-36.3 -0.034046,-73.2 0.087776,-82 0.5853107,-42.28076 0.9885136,-65.27863 1.5954292,-91 C 6.7582937,62.1 7.0474233,41.483176 7.037429,31.684835 L 7.0192577,13.869669 10.088974,11.065916 c 2.664366,-2.4335225 4.174203,-2.8933707 11.433971,-3.4824247 4.60034,-0.3732692 14.65871,-0.6115854 22.351932,-0.5295914 7.693223,0.081994 14.356103,-0.062099 14.8064,-0.3202054 0.450298,-0.2581069 7.0713,-0.5424393 14.713338,-0.6318498 7.642038,-0.08941 14.241776,-0.3771219 14.666084,-0.6393586 0.424308,-0.2622368 2.009395,-0.00614 3.522416,0.5691143 1.734953,0.6596279 2.969649,0.6920431 3.343111,0.087769 0.354367,-0.5733773 3.071572,-0.665794 6.766414,-0.230137 6.52524,0.7693877 6.85184,0.5848934 8.65529,-4.889232 0.32613,-0.98990756 0.52102,-0.78944634 0.57312,0.589485 0.10397,2.7517546 4.10203,4.551081 7.77303,3.4982523 1.5534,-0.4455105 3.77671,-0.4577254 4.94068,-0.027144 2.62717,0.9718541 12.66112,1.4891869 13.92972,0.7181917 C 138.07901,5.4660718 154.25,5.1001627 173.5,4.9656533 192.75,4.8311438 210.075,4.7055077 212,4.6864618 c 3.94369,-0.039019 110.56976,0.166542 116,0.2236324 1.925,0.020238 8,0.2578805 13.5,0.5280935 13.25348,0.6511388 11.33675,0.638278 33.5,0.2247767 10.725,-0.200097 20.29323,-0.706466 21.26273,-1.1252643 0.96951,-0.4187983 2.31951,-0.3167038 3,0.2268765 0.70737,0.5650432 8.94638,1.0057266 19.23727,1.0289522 9.9,0.022343 28.35,0.076819 41,0.1210563 12.65,0.044238 35.6,0.1238694 51,0.1769595 15.4,0.05309 30.32553,0.035499 33.16784,-0.03909 4.33601,-0.1137877 5.70421,0.320804 8.5,2.6999066 1.83269,1.5595381 4.53691,3.5921651 6.00938,4.5169481 1.47247,0.924783 2.82247,2.693744 3,3.931025 0.17753,1.237282 1.36264,2.766001 2.63357,3.397155 3.85993,1.916866 5.59566,3.688353 25.72106,26.250931 2.13329,2.391631 5.36133,5.967069 7.17343,7.945417 C 598.51738,56.772186 600,58.752897 600,59.195417 600,59.637938 600.58468,60 601.29929,60 c 0.7146,0 3.97298,3.209763 7.24084,7.132806 3.26785,3.923043 7.39869,8.24422 9.17964,9.602616 1.78095,1.358396 6.48734,6.361133 10.45866,11.117194 3.97132,4.756061 7.97728,9.322384 8.90214,10.147384 0.92486,0.825 3.80528,3.975 6.40094,7 2.59566,3.025 10.41392,11.35 17.37391,18.5 14.08971,14.47436 16.36113,17.0843 18.54671,21.31075 0.83021,1.60543 6.03439,7.36728 11.56485,12.80411 5.53046,5.43683 10.33707,10.78514 10.68135,11.88514 0.34427,1.1 2.87491,4.69946 5.62363,7.9988 2.74873,3.29933 5.70215,7.57433 6.56317,9.5 0.86102,1.92566 3.94828,7.1012 6.86058,11.5012 3.93113,5.93928 5.45977,9.28795 5.93437,13 0.3516,2.75 1.2729,5.73169 2.04734,6.62597 0.77444,0.89429 1.6852,3.36929 2.02392,5.5 0.33872,2.13072 1.218,4.80528 1.95396,5.94347 0.93613,1.44776 1.37675,6.25428 1.46677,16 0.11407,12.35081 -0.22075,15.40478 -2.95249,26.93056 -1.69463,7.15 -3.5304,14.575 -4.07949,16.5 -0.54909,1.925 -1.54958,5.525 -2.22329,8 -1.88969,6.94204 -8.28681,20.1334 -13.35031,27.5294 -2.51557,3.67437 -5.22447,7.939 -6.01978,9.47697 -0.79532,1.53796 -3.66146,5.2032 -6.36921,8.14497 -7.2738,7.90242 -13.1258,14.87652 -13.13997,15.65948 -0.007,0.37905 -1.80685,2.62123 -4,4.98264 C 679.79439,365.15486 678,367.4969 678,367.998 c 0,0.95059 -4.05797,5.30342 -6.24329,6.69693 -0.69438,0.44279 -2.55991,2.71757 -4.14561,5.05507 -1.58571,2.3375 -3.26676,4.25 -3.73567,4.25 -1.5079,0 -4.90042,3.34003 -10.15713,10 -6.58044,8.33706 -27.97317,31.70745 -43.3206,47.32539 -2.25627,2.29604 -4.80485,5.52461 -5.66351,7.17461 -0.85867,1.65 -4.04536,5.34238 -7.08154,8.20528 -3.03619,2.86291 -7.37505,7.66183 -9.64192,10.66428 -2.26687,3.00245 -4.77164,5.70845 -5.56616,6.01334 -0.79451,0.30488 -1.44457,1.14733 -1.44457,1.87211 0,0.72477 -5.42396,6.87879 -12.05324,13.67558 -6.62928,6.7968 -12.919,14.05483 -13.97714,16.12897 -1.80145,3.53112 -6.53529,6.94044 -9.63683,6.94044 -0.74796,0 -2.22048,-0.53742 -3.27227,-1.19427 -1.32804,-0.82938 -2.62244,-0.8954 -4.23643,-0.2161 C 534.15105,512.13558 480,510.56287 480,508.91025 c 0,-1.16637 -3.30409,-1.18555 -4.55,-0.0264 -1.12564,1.04724 -20.45,2.1447 -20.45,1.16138 0,-0.74412 -6.61698,-0.54967 -9,0.26448 -3.86694,1.32114 -6.5011,1.51931 -7.63925,0.57473 -1.72749,-1.43368 -65.13775,-1.3144 -66.87308,0.1258 -0.91373,0.75833 -2.46686,0.58178 -5.47678,-0.62255 -3.44393,-1.37799 -5.03993,-1.48916 -8.8528,-0.61665 -2.5583,0.58542 -5.10295,0.70295 -5.65477,0.26117 -0.55183,-0.44178 -3.92832,-0.55172 -7.50332,-0.24431 -3.575,0.30741 -8.525,0.56732 -11,0.57759 -5.68961,0.0236 -19.41159,-0.24611 -26.25,-0.51595 -1.7875,-0.0705 -7.02211,0.1651 -11.63248,0.52361 -5.2029,0.4046 -8.84766,0.26579 -9.60887,-0.36596 -0.79007,-0.6557 -7.76956,-0.81602 -19.61752,-0.4506 -10.11512,0.31197 -19.51613,0.59935 -20.89113,0.63862 -6.55681,0.18726 -37.26988,-1.13174 -37.75977,-1.62164 -0.30592,-0.30591 -1.04762,-0.15356 -1.64822,0.33857 -0.89015,0.72937 -13.59452,1.27558 -26.59201,1.14329 -1.375,-0.014 -4.525,-0.0396 -7,-0.0569 -2.475,-0.0173 -5.52159,-0.55497 -6.77021,-1.19479 -1.73179,-0.8874 -2.55001,-0.88349 -3.45,0.0165 -1.44623,1.44623 -14.16273,1.5804 -16.78484,0.17709 -1.27786,-0.68389 -2.08285,-0.66409 -2.53176,0.0623 -0.42004,0.67964 -4.8859,0.97227 -12.34235,0.80875 -6.42629,-0.14093 -12.23241,0.0826 -12.9025,0.49675 -0.67009,0.41413 -1.21813,0.38892 -1.21788,-0.056 6.5e-4,-1.13465 -12.35151,-1.01587 -13.17424,0.12668 -0.40056,0.55626 -1.28704,0.42674 -2.18608,-0.3194 -1.090029,-0.90464 -2.051877,-0.96631 -3.444735,-0.22088 -1.062841,0.56882 -2.178093,0.78856 -2.478337,0.48832 -0.735182,-0.73519 -32.732591,-0.70155 -33.46932,0.0352 -1.057319,1.05732 -22.100627,0.62814 -22.775925,-0.46451 C 37.96533,509.13489 31.5,509.1922 31.5,510.01622 c 0,0.10969 -1.437745,0.27616 -3.194989,0.36993 -1.757244,0.0938 -3.519744,0.49525 -3.916667,0.89217 -0.9383,0.9383 -1.569503,0.89268 -3.365933,-0.24331 z M 60.5,508 c 0.339919,-0.55 -0.308524,-1 -1.440983,-1 C 57.926558,507 57,507.45 57,508 c 0,0.55 0.648442,1 1.440983,1 0.792541,0 1.719098,-0.45 2.059017,-1 z m 68.5,-0.94098 c 0,-0.51754 -0.45,-1.2191 -1,-1.55902 -0.55,-0.33992 -1,0.0835 -1,0.94098 0,0.85746 0.45,1.55902 1,1.55902 0.55,0 1,-0.42344 1,-0.94098 z M 425.5,507 c 0.33992,-0.55 0.16803,-1 -0.38197,-1 -0.55,0 -1.27811,0.45 -1.61803,1 -0.33992,0.55 -0.16803,1 0.38197,1 0.55,0 1.27811,-0.45 1.61803,-1 z M 81,505.5 C 82.076033,504.20346 81.617902,504 77.622445,504 74.885607,504 73,504.4555 73,505.11663 c 0,0.62412 0.881705,0.88606 1.999004,0.59388 1.099452,-0.28751 2.25101,-0.115 2.559017,0.38337 C 78.37438,507.41478 79.584104,507.20605 81,505.5 Z M 22,504.39301 C 22,504.17686 21.325,504 20.5,504 c -0.825,0 -1.5,0.43588 -1.5,0.96862 0,0.53273 0.675,0.70959 1.5,0.39301 0.825,-0.31659 1.5,-0.75246 1.5,-0.96862 z m 14,1.16601 c 0,-0.24254 -0.45,-0.7191 -1,-1.05902 -0.55,-0.33992 -1,-0.14148 -1,0.44098 0,0.58246 0.45,1.05902 1,1.05902 0.55,0 1,-0.19844 1,-0.44098 z M 122,505 c 0,-0.55 -0.19844,-1 -0.44098,-1 -0.24254,0 -0.7191,0.45 -1.05902,1 -0.33992,0.55 -0.14148,1 0.44098,1 0.58246,0 1.05902,-0.45 1.05902,-1 z m -29.270833,-0.60417 c -0.332292,-0.33229 -1.194792,-0.36781 -1.916667,-0.0789 -0.797733,0.31922 -0.560776,0.55618 0.604167,0.60416 1.054166,0.0434 1.644791,-0.19293 1.3125,-0.52522 z M 98.25,504.33772 c -0.6875,-0.27741 -1.8125,-0.27741 -2.5,0 -0.6875,0.27741 -0.125,0.50439 1.25,0.50439 1.375,0 1.9375,-0.22698 1.25,-0.50439 z m 259.30988,-7.64096 C 357.2592,494.38854 356.51219,485.525 355.89986,477 c -1.57143,-21.87794 -1.66612,-22.81279 -2.43712,-24.06029 -0.38001,-0.61487 -1.0726,-5.46534 -1.53909,-10.77883 C 351.45716,436.8474 350.62511,429.8 350.07464,426.5 c -0.55047,-3.3 -1.49369,-9.6 -2.09605,-14 -1.08884,-7.95358 -1.80883,-9.67764 -4.21847,-10.10132 -9.2593,-1.62805 -9.53938,-1.61942 -11.51357,0.35477 -1.43931,1.43931 -1.88812,3.02625 -1.65734,5.86019 0.17406,2.1375 0.80976,10.18636 1.41265,17.88636 0.60289,7.7 1.31586,16.74051 1.58438,20.09001 0.26851,3.34951 0.67943,9.42451 0.91314,13.5 1.34196,23.40161 2.76013,37.61302 3.93274,39.40999 1.87008,2.86581 12.94938,4.68079 16.87117,2.76379 2.56931,-1.2559 2.75766,-1.72055 2.25659,-5.56703 z m -328.326815,4.86517 c 1.77921,-0.92816 2.952866,-1.0701 3.362858,-0.40672 0.346387,0.56046 1.47856,0.79707 2.51594,0.52579 1.03738,-0.27128 2.068264,-0.19799 2.290853,0.16288 0.222589,0.36087 19.235538,0.43112 42.250996,0.15612 23.015458,-0.275 42.690708,-0.1162 43.722778,0.35288 1.12953,0.51338 2.85113,0.40881 4.32494,-0.2627 1.34664,-0.61358 2.94751,-0.80715 3.55748,-0.43016 1.52291,0.9412 11.74151,1.01952 11.74128,0.09 -2.8e-4,-1.12574 5.78713,-0.90314 6.49981,0.25 0.76745,1.24176 5.5,1.33104 5.5,0.10376 0,-0.50555 9.56829,-0.83249 21.94915,-0.75 15.51294,0.10336 22.2901,-0.19445 23.11185,-1.01561 0.63948,-0.63901 1.75732,-5.58901 2.48407,-11 0.72676,-5.41098 1.82607,-13.3306 2.4429,-17.59915 0.61684,-4.26855 1.29629,-9.66855 1.5099,-12 0.65265,-7.12349 2.47315,-20.7836 3.96337,-29.739 0.77794,-4.675 1.72092,-12.55 2.09551,-17.5 0.37458,-4.95 1.04881,-9.46148 1.49829,-10.02551 1.35936,-1.70582 0.44035,-11.7862 -1.14304,-12.53766 -3.71163,-1.76151 -7.94869,-2.68648 -8.46669,-1.84833 -0.77375,1.25195 -4.80815,1.14866 -6.11333,-0.15652 -0.5874,-0.5874 -4.8399,-1.27392 -9.45,-1.52559 -4.61009,-0.25167 -10.63198,-0.7078 -13.38198,-1.01361 -2.75,-0.30581 -7.76911,-0.49206 -11.15359,-0.41389 -3.41547,0.0789 -6.44523,-0.32976 -6.80902,-0.91838 C 157.15927,383.44869 153.31068,383 148.44098,383 143.79844,383 140,382.6252 140,382.16712 c 0,-0.99897 -3.04027,-0.8783 -4.76758,0.18924 -0.67783,0.41892 -1.64214,0.50846 -2.1429,0.19897 -0.50076,-0.30949 -2.86326,-0.63431 -5.25,-0.72183 -2.38674,-0.0875 -5.11586,-0.63713 -6.06471,-1.22136 -1.34986,-0.83115 -2.0414,-0.63255 -3.17858,0.91281 -1.37699,1.87122 -1.49021,1.88003 -2.15385,0.16758 -0.4117,-1.06233 -1.30658,-1.57488 -2.17071,-1.24329 -0.80863,0.31031 -6.03806,-0.11983 -11.62096,-0.95586 C 97.067821,378.65735 88.675,377.72337 84,377.41787 69.928713,376.49835 60.814271,376.01686 54.75,375.87265 51.5875,375.79745 49,375.37363 49,374.93083 c 0,-0.4428 -1.571191,-0.55012 -3.491536,-0.23849 -1.920345,0.31163 -4.057845,0.12297 -4.75,-0.41925 C 40.066309,373.73088 35.675,373.22091 31,373.13982 c -4.675,-0.0811 -10.416588,-0.42243 -12.759084,-0.75853 -7.469032,-1.07167 -7.334212,-1.59287 -7.38048,28.53212 -0.02246,14.62263 -0.05655,31.31159 -0.07577,37.08659 -0.01922,5.775 0.312338,16.125 0.736785,23 0.918337,14.87477 0.91864,14.66514 -0.04054,28.01362 -0.892557,12.4213 -0.722632,12.70067 8.05368,13.24096 3.280977,0.20199 6.190412,0.44957 6.465412,0.55017 0.275,0.10061 1.729879,-0.45866 3.233065,-1.24282 z m 242.096685,0.30447 c 9.48545,-0.29318 9.06402,1.86041 8.94838,-45.72847 -0.082,-33.75178 -0.35876,-47.31823 -1.19799,-58.72741 -0.21849,-2.97033 -12.736,-4.74498 -15.46797,-2.19295 -0.92892,0.86775 -1.06545,2.23248 -0.47518,4.75 0.53974,2.30203 0.29839,6.41771 -0.69291,11.81598 -0.83663,4.55596 -1.45157,9.95596 -1.36653,12 0.37621,9.04345 -1.26371,44.02601 -2.20217,46.97621 -0.72074,2.26578 -0.71215,4.77411 0.0282,8.22613 0.71099,3.3152 0.73784,5.82712 0.0808,7.55534 -0.54137,1.42393 -0.98432,5.00916 -0.98432,7.96717 0,4.42174 0.39468,5.65464 2.21933,6.93267 1.22063,0.85496 2.90813,1.34096 3.75,1.08 0.84187,-0.26096 4.15406,-0.55556 7.36042,-0.65467 z M 441,502 c 0,-1.20719 10.20421,-1.34951 11.55,-0.16108 0.5225,0.4614 5.6633,0.49714 11.424,0.0794 5.7607,-0.41772 10.76107,-0.58208 11.11193,-0.36523 0.35086,0.21684 16.22264,0.48928 35.27063,0.60541 l 34.63272,0.21116 4.25536,-3.95366 c 8.53029,-7.92549 31.30028,-32.32951 32.94687,-35.31122 0.93033,-1.68468 3.06429,-3.8979 4.74213,-4.91825 3.33041,-2.02534 20.27688,-22.17366 22.65596,-26.93655 1.32631,-2.65526 -0.35816,-4.16182 -3.99366,-3.57186 -1.92971,0.31315 -4.31573,0.22392 -5.30225,-0.19828 -1.81287,-0.77586 -2.81897,-0.87385 -18.50871,-1.80266 -4.79326,-0.28376 -9.25627,-0.85044 -9.91779,-1.25928 -0.66153,-0.40885 -3.48977,-0.84819 -6.28498,-0.97631 -9.7167,-0.44539 -20.96722,-1.56152 -21.96674,-2.17927 -0.55308,-0.34182 -5.30532,-0.74358 -10.56053,-0.89281 -7.67262,-0.21788 -25.76493,-2.38256 -28.05494,-3.35668 -0.88188,-0.37512 -8.99791,-0.90216 -30.5,-1.98058 -11.55,-0.57929 -21.92495,-1.52771 -23.05544,-2.10761 -1.13049,-0.5799 -2.48049,-0.97189 -3,-0.87109 -0.51951,0.1008 -1.16956,0.0925 -1.44456,-0.0185 -0.275,-0.11096 -2.75,-0.3992 -5.5,-0.64053 -2.75,-0.24133 -6.08858,-0.6815 -7.41907,-0.97815 -1.33049,-0.29666 -5.38049,-0.70963 -9,-0.91771 -11.70125,-0.67269 -20.34705,-1.54514 -21.32959,-2.15238 -0.52774,-0.32616 -3.05018,-0.70828 -5.60543,-0.84917 -2.55525,-0.14088 -8.47091,-0.53888 -13.14591,-0.88443 -4.675,-0.34556 -13.54253,-0.89519 -19.70563,-1.2214 l -11.20562,-0.5931 -0.62941,2.50775 c -0.34617,1.37926 -0.15697,3.39049 0.42045,4.46941 0.57741,1.07891 0.78297,2.22852 0.4568,2.5547 -0.32618,0.32617 -0.0719,4.09784 0.565,8.38148 0.63692,4.28364 1.57855,12.51344 2.0925,18.28844 0.51396,5.775 1.44293,13.425 2.06439,17 0.62145,3.575 1.25882,8.3 1.41638,10.5 0.15755,2.2 0.6055,8.725 0.99544,14.5 0.74151,10.98176 1.96741,16.58057 4.09665,18.70981 0.96313,0.96312 9.93708,1.3308 37.59906,1.5405 19.98369,0.15148 36.67149,0.38214 37.08399,0.51256 C 440.6625,502.89329 441,502.55 441,502 Z m -214.32564,-2.36017 c 0.6459,-0.62691 1.39091,-4.96483 1.65557,-9.63983 0.50904,-8.99178 2.77176,-32.19337 5.16879,-53 0.79204,-6.875 1.61297,-19.12737 1.82429,-27.22749 0.351,-13.45424 0.22079,-14.87539 -1.50614,-16.43824 -1.0397,-0.94092 -2.66133,-1.79299 -3.60362,-1.89349 -0.94229,-0.1005 -2.44469,-0.49242 -3.33868,-0.87094 -1.02621,-0.4345 -2.57059,0.16308 -4.18925,1.62097 -2.19362,1.97576 -2.70859,3.60872 -3.56648,11.30919 -0.55147,4.95 -1.72244,13.5 -2.60215,19 -1.69999,10.62831 -1.91274,12.50613 -3.45564,30.5 -0.54235,6.325 -1.7052,15.26477 -2.58413,19.86616 -1.72382,9.0246 -2.46544,23.93258 -1.34168,26.97038 0.61831,1.67148 1.54042,1.82377 8.52901,1.40861 4.30966,-0.25602 8.36421,-0.97841 9.01011,-1.60532 z m 24.74066,0.11017 c 1.03943,-1.60062 1.61619,-6.52309 1.99838,-17.05557 0.29549,-8.14307 0.74406,-15.14019 0.99682,-15.54916 0.76084,-1.23107 2.09223,-36.48127 2.05448,-54.39486 -0.0282,-13.381 -0.32987,-17.0269 -1.5,-18.12847 -1.61102,-1.51663 -9.18187,-2.77256 -10.60765,-1.7597 -1.95638,1.38979 -3.35857,6.53628 -3.38793,12.43481 -0.017,3.41162 -0.46936,9.57795 -1.0053,13.70295 -1.04544,8.04652 -2.94252,30.37064 -3.48415,41 -0.37806,7.41934 -2.33991,31.08773 -2.92842,35.32935 -0.65189,4.69845 2.28268,6.67065 9.9257,6.67065 5.61724,0 6.67088,-0.29865 7.93807,-2.25 z m 49.1315,0.19859 c 1.43721,-1.58809 2.00382,-4.35478 2.50879,-12.25 0.35912,-5.61489 0.24423,-11.00102 -0.25563,-11.98398 -0.49936,-0.98196 -0.80592,-5.93196 -0.68125,-11 0.12466,-5.06803 -0.32484,-17.53961 -0.99889,-27.71461 -0.67406,-10.175 -1.36762,-22.65769 -1.54124,-27.73931 -0.18747,-5.48716 -0.82483,-9.85282 -1.56943,-10.75 C 297.20845,397.54624 295.01582,397 291.94494,397 c -4.09483,0 -4.92401,0.3346 -5.57568,2.25 -0.42103,1.2375 -0.62769,2.7 -0.45925,3.25 0.16845,0.55 0.20547,5.95 0.0823,12 -0.1232,6.05 -0.28436,27.46833 -0.35814,47.5963 -0.10886,29.69792 0.12455,36.90801 1.23829,38.25 2.10806,2.54006 11.25623,2.27399 13.67408,-0.39771 z m 29.45709,0.0456 c 0.95046,-1.53787 0.74435,-28.97493 -0.22951,-30.55065 -0.33605,-0.54375 -0.86834,-5.47848 -1.18286,-10.96607 -1.33236,-23.24626 -4.29556,-51.69171 -5.80519,-55.72744 -0.78801,-2.10659 -1.6884,-2.75 -3.84835,-2.75 -1.55082,0 -3.0438,-0.36265 -3.31773,-0.80589 -0.27394,-0.44324 -2.438,-0.75725 -4.80902,-0.6978 l -4.31095,0.10809 0.0962,24.4478 c 0.0529,13.44629 0.3863,29.1728 0.74082,34.9478 0.35453,5.775 0.85097,16.575 1.10321,24 0.25225,7.425 0.95311,14.89857 1.55748,16.60793 l 1.09885,3.10794 9.02342,-0.16497 c 6.48861,-0.11863 9.26506,-0.55594 9.88359,-1.55674 z M 7.6622807,480.75 c -0.2774123,-0.6875 -0.504386,-0.125 -0.504386,1.25 0,1.375 0.2269737,1.9375 0.504386,1.25 0.2774123,-0.6875 0.2774123,-1.8125 0,-2.5 z M 619.08777,421.7182 c 0.87327,-0.67001 1.77327,-1.74767 2,-2.39481 0.38735,-1.10558 15.20085,-17.44409 22.91223,-25.27097 6.11862,-6.21026 7.20594,-7.82819 6.58203,-9.79398 -0.52045,-1.63979 -1.381,-1.82827 -6.61787,-1.44947 -3.31079,0.23948 -7.91964,-0.0629 -10.24189,-0.67201 -3.70705,-0.97229 -23.84071,-2.41245 -32.22227,-2.30484 -1.65,0.0212 -3.675,-0.21525 -4.5,-0.5254 -2.40447,-0.90394 -5.31789,-1.14893 -53.27408,-4.47996 -8.67574,-0.60261 -16.0091,-1.47594 -16.29636,-1.94073 -0.28725,-0.46479 -1.46021,-0.29179 -2.60657,0.38445 -1.31017,0.77286 -2.22119,0.85811 -2.45286,0.22952 -0.20423,-0.55411 -3.0835,-0.89386 -6.45742,-0.76195 -3.34887,0.13093 -6.89563,-0.19372 -7.88168,-0.72145 -0.98606,-0.52772 -6.23393,-1.23464 -11.66193,-1.57093 -5.42801,-0.33629 -10.5441,-0.869 -11.3691,-1.1838 -0.825,-0.31479 -5.325,-0.65495 -10,-0.7559 -8.04042,-0.17362 -11.19344,-0.40138 -30.5,-2.20314 -4.4,-0.41063 -8.675,-0.65709 -9.5,-0.54769 -0.825,0.1094 -2.4,-0.2172 -3.5,-0.72577 -2.29118,-1.05931 -34.70573,-3.0382 -60.5,-3.69349 -9.625,-0.24452 -18.625,-0.53263 -20,-0.64023 -2.30023,-0.18002 -2.49039,0.12398 -2.37968,3.80435 0.11403,3.79101 1.63991,18.08309 2.90255,27.18668 l 0.58069,4.18669 10.19822,0.44147 c 12.40896,0.53717 23.33618,1.49095 26.69822,2.33035 4.9131,1.22665 12.52315,2.11205 23.84136,2.77384 4.58775,0.26825 8.97525,1.01381 9.75,1.6568 1.03018,0.85497 1.76539,0.87298 2.73648,0.067 0.91795,-0.76183 2.37717,-0.80107 4.72708,-0.12713 1.86957,0.53619 4.20411,0.71943 5.18785,0.4072 0.98375,-0.31223 3.24406,-0.11527 5.02293,0.43769 1.77886,0.55295 8.03995,1.21428 13.91351,1.4696 5.87357,0.25533 11.26184,0.82431 11.97394,1.26441 0.71209,0.4401 5.13145,0.95492 9.82078,1.14405 4.68934,0.18912 15.01684,0.97847 22.94999,1.75411 7.93316,0.77563 14.78636,1.18625 15.22934,0.91247 0.44297,-0.27377 1.82721,0.0641 3.07607,0.75093 1.35568,0.74552 8.71805,1.54122 18.27067,1.97462 8.8,0.39927 20.5,1.37746 26,2.17377 5.5,0.79631 14.5,1.96063 20,2.58738 20.93486,2.38562 26.13495,3.05809 30.5,3.94419 2.475,0.50242 4.725,0.95551 5,1.00686 0.275,0.0514 1.2145,-0.45483 2.08777,-1.12483 z M 473.84508,409.90425 c -1.70555,-1.05409 -2.88192,-0.16383 -2.18462,1.6533 0.45084,1.17488 0.87829,1.24021 2.00366,0.30624 1.11872,-0.92845 1.15817,-1.35559 0.18096,-1.95954 z m 14.88409,2.49158 c -0.33229,-0.33229 -1.1948,-0.36781 -1.91667,-0.0789 -0.79773,0.31922 -0.56078,0.55618 0.60417,0.60416 1.05416,0.0434 1.64479,-0.19293 1.3125,-0.52522 z M 382.5,401 c 0.33992,-0.55 0.14148,-1 -0.44098,-1 -0.58246,0 -1.05902,0.45 -1.05902,1 0,0.55 0.19844,1 0.44098,1 0.24254,0 0.7191,-0.45 1.05902,-1 z M 214.63543,381.8876 C 215.38594,381.26473 216,379.31021 216,377.54422 c 0,-1.76599 0.29746,-3.50835 0.66102,-3.87191 0.36356,-0.36356 0.76513,-1.90106 0.89238,-3.41666 0.12725,-1.51561 0.75976,-6.06553 1.40557,-10.11093 0.64582,-4.0454 0.93337,-7.9829 0.639,-8.75 C 219.20754,350.37725 217.07972,350 211.73138,350 c -4.03226,0 -7.75927,-0.42789 -8.28226,-0.95088 -0.55959,-0.55959 -2.4344,-0.61628 -4.55605,-0.13777 -2.48095,0.55954 -4.35169,0.39936 -5.99912,-0.51369 -3.04725,-1.68886 -12.58255,-1.83185 -13.12755,-0.19685 -0.29221,0.87663 -1.40103,0.72592 -4.10716,-0.55822 -2.23388,-1.06005 -6.97574,-1.92919 -11.93307,-2.18724 -4.52439,-0.23551 -8.45117,-0.50512 -8.72617,-0.59913 -0.68776,-0.23512 -17.37543,-0.86383 -23.5,-0.88536 -2.75,-0.01 -10.175,-0.69831 -16.5,-1.53031 -12.17477,-1.60149 -51.051662,-4.49152 -67,-4.98065 -11.931538,-0.36594 -30.961334,-2.05403 -33.173308,-2.94274 -2.872493,-1.15407 -3.88169,2.71605 -3.753385,14.3937 0.142175,12.93997 0.534692,13.54087 9.426693,14.43117 3.3,0.33041 7.125,0.79865 8.5,1.04053 9.972466,1.75428 27.399339,3.68651 50,5.54382 7.975,0.65538 16.66054,1.66547 19.301201,2.24464 2.640659,0.57916 7.799709,1.03573 11.464549,1.01459 3.66484,-0.0211 7.1293,0.26594 7.6988,0.63797 0.5695,0.37203 4.41045,0.75634 8.53545,0.85403 10.57413,0.25041 17.2858,0.83172 26.5,2.29522 7.21453,1.14588 17.70827,2.01204 23,1.89842 3.95365,-0.0849 5.07928,-0.0302 10.5,0.50984 3.025,0.30139 8.53928,0.83479 12.25395,1.18533 3.71468,0.35055 6.93581,0.92901 7.15808,1.28547 0.72803,1.16757 7.82648,1.19505 9.2234,0.0357 z M 604,377 c 0,-0.55 -0.47656,-1 -1.05902,-1 -0.58246,0 -0.7809,0.45 -0.44098,1 0.33992,0.55 0.81648,1 1.05902,1 0.24254,0 0.44098,-0.45 0.44098,-1 z m 52.5,0 c 0.33992,-0.55 1.45725,-1 2.48296,-1 1.02571,0 2.91165,-1.34852 4.19098,-2.99671 8.55151,-11.01708 18.41665,-22.34497 19.76716,-22.69814 0.87855,-0.22974 2.71371,-2.07989 4.07813,-4.11143 1.36442,-2.03155 2.82493,-4.14372 3.24558,-4.69372 C 695.27476,334.94941 698,330.94424 698,330.13195 c 0,-1.07621 -10.17838,-2.64959 -12.23381,-1.89111 -0.69641,0.25698 -11.61619,-0.12149 -24.26619,-0.84104 -37.0177,-2.10563 -41.9517,-2.49674 -42.87697,-3.39879 -0.48603,-0.47382 -2.01173,-0.42353 -3.42245,0.11283 -1.40001,0.53228 -3.25538,0.67627 -4.12303,0.31998 -0.86765,-0.3563 -9.67755,-0.77867 -19.57755,-0.9386 -19.4961,-0.31495 -29.33559,-1.14939 -31.16097,-2.64262 -0.68193,-0.55784 -1.39122,-0.57718 -1.71897,-0.0469 -0.866,1.40122 -35.54885,1.49825 -37.22864,0.10415 -1.05498,-0.87556 -1.74352,-0.86256 -2.84762,0.0538 -0.8009,0.66469 -1.94504,0.90641 -2.54251,0.53714 -1.71745,-1.06143 -12.2316,-1.78035 -45.25129,-3.0941 -9.2125,-0.36654 -16.75,-1.05799 -16.75,-1.53656 0,-1.34982 -2.78116,-1.02515 -3.25405,0.37987 -0.3327,0.98851 -0.73148,0.99363 -1.90631,0.0245 -1.05179,-0.86766 -9.49459,-1.39524 -28.91262,-1.80671 -16.92465,-0.35863 -28.28859,-1.00709 -29.67702,-1.69345 -1.7183,-0.84943 -2.85536,-0.78829 -4.81171,0.25872 -1.85998,0.99543 -3.02419,1.08233 -4.25,0.31724 -1.82948,-1.14187 -5.05206,-1.17053 -6.84748,-0.0609 -0.61822,0.38208 -7.35258,0.28013 -14.96526,-0.22655 -16.78874,-1.11742 -16.88336,-1.07347 -15.95275,7.40864 0.36378,3.3157 1.06886,10.86875 1.56683,16.78457 0.81854,9.72405 2.64581,15.7752 4.27246,14.14855 0.32048,-0.32049 3.84374,-0.0767 7.82946,0.54167 5.62775,0.87318 7.41536,0.85159 8.00139,-0.0966 0.56564,-0.91523 1.09644,-0.93734 2.11947,-0.0883 0.75066,0.62299 3.37246,1.22945 5.82621,1.34768 2.45376,0.11823 4.87208,0.43887 5.37404,0.71253 0.50197,0.27366 4.10197,0.56191 8,0.64056 13.19305,0.2662 49.03677,2.72842 51.58734,3.5437 0.275,0.0879 3.425,0.30752 7,0.48803 15.89297,0.80247 51.04133,3.50849 56.5,4.34985 6.62797,1.02158 7.76449,1.08799 18.25,1.06629 3.9875,-0.008 7.25,0.38187 7.25,0.86694 0,0.48507 2.14166,0.93073 4.75924,0.99035 2.61758,0.0596 11.28008,0.6 19.25,1.20084 7.96992,0.60084 18.76576,1.25698 23.99076,1.45808 13.32015,0.51267 26.40778,1.69716 27,2.44362 0.275,0.34661 2.525,0.68891 5,0.76065 15.55033,0.45076 43.64794,3.06803 45.69021,4.256 2.297,1.33615 3.04049,1.35831 3.80979,0.11356 z M 89.457295,375.0691 c 0.739541,-1.1966 -1.141625,-2.38223 -2.473607,-1.55902 C 85.86533,374.20126 86.599521,376 88,376 c 0.485081,0 1.140864,-0.41891 1.457295,-0.9309 z M 9,373.44098 C 9,372.58352 8.55,372.16008 8,372.5 7.45,372.83992 7,373.54148 7,374.05902 7,374.57656 7.45,375 8,375 c 0.55,0 1,-0.70156 1,-1.55902 z m 39.729167,-3.04515 c -0.332292,-0.33229 -1.194792,-0.36781 -1.916667,-0.0789 -0.797733,0.31922 -0.560776,0.55618 0.604167,0.60416 1.054166,0.0434 1.644791,-0.19293 1.3125,-0.52522 z M 476,365 c 0,-0.55 -0.19844,-1 -0.44098,-1 -0.24254,0 -0.7191,0.45 -1.05902,1 -0.33992,0.55 -0.14148,1 0.44098,1 0.58246,0 1.05902,-0.45 1.05902,-1 z m -51.27083,-3.60417 c -0.33229,-0.33229 -1.1948,-0.36781 -1.91667,-0.0789 -0.79773,0.31922 -0.56078,0.55618 0.60417,0.60416 1.05416,0.0434 1.64479,-0.19293 1.3125,-0.52522 z m -203.29405,-19.6881 c 0.73915,-0.73914 1.58232,-5.12639 1.96991,-10.25 0.3727,-4.92675 0.90631,-11.7729 1.18581,-15.21366 0.69753,-8.5869 1.94257,-8.19214 -30.59084,-9.69927 -6.325,-0.293 -18.925,-0.58656 -28,-0.65235 -9.075,-0.0658 -16.98503,-0.5093 -17.57784,-0.9856 -0.61234,-0.49198 -2.55297,-0.44293 -4.4934,0.11358 -4.33277,1.24262 -11.27966,1.21698 -16.42876,-0.0606 -2.2,-0.54588 -14.35,-1.25558 -27,-1.57711 -13.629236,-0.34643 -23.253755,-0.99296 -23.622826,-1.58689 -0.406661,-0.65441 -1.388226,-0.59264 -2.828141,0.17798 -1.212923,0.64913 -2.957009,0.89179 -3.875746,0.53924 -0.918737,-0.35255 -13.116292,-0.85075 -27.105678,-1.10711 -13.989386,-0.25636 -25.945696,-0.88975 -26.569578,-1.40752 -0.733168,-0.60848 -1.905957,-0.40095 -3.316181,0.58681 C 11.131353,302.0214 11,302.88907 11,314.99769 c 0,11.70298 0.780598,15.78436 2.489919,13.01862 C 14.285415,326.72917 24,326.67055 24,327.95289 c 0,0.55126 2.035531,0.7118 4.829543,0.38089 2.656248,-0.31459 7.943748,-0.0883 11.75,0.5028 3.806251,0.59113 13.442456,1.36249 21.413789,1.71414 7.971332,0.35165 15.171332,0.99539 16,1.43054 0.828667,0.43515 6.681668,1.10454 13.006668,1.48754 6.325,0.383 18.25,1.3289 26.5,2.10201 8.25,0.77311 18.6,1.43405 23,1.46877 4.4,0.0347 11.15,0.49317 15,1.01878 8.02609,1.09575 14.68604,1.49307 40.5,2.41619 10.175,0.36386 18.9275,1.08093 19.45,1.5935 1.36204,1.33616 4.47613,1.14868 5.98512,-0.36032 z M 80,336 c 0,-0.55 -0.476558,-1 -1.059017,-1 -0.582459,0 -0.780902,0.45 -0.440983,1 0.339919,0.55 0.816476,1 1.059017,1 C 79.801558,337 80,336.55 80,336 Z m -33.25,-1.68933 c -0.9625,-0.25152 -2.5375,-0.25152 -3.5,0 -0.9625,0.25153 -0.175,0.45733 1.75,0.45733 1.925,0 2.7125,-0.2058 1.75,-0.45733 z M 31.5,332 c 0.339919,-0.55 -0.110081,-1 -1,-1 -0.889919,0 -1.339919,0.45 -1,1 0.339919,0.55 0.789919,1 1,1 0.210081,0 0.660081,-0.45 1,-1 z m 677.14134,-15 c 3.59366,-7.22973 6.35833,-13.55856 6.36285,-14.56572 0.002,-0.51386 1.1273,-3.14805 2.5,-5.85376 1.37269,-2.70571 2.49581,-5.76556 2.49581,-6.79966 0,-1.0341 0.62862,-3.0958 1.39694,-4.58156 1.67794,-3.24478 3.05493,-13.26579 2.25781,-16.43117 L 723.08358,266.5 685.79179,266.15709 c -61.3737,-0.56435 -73.24335,-0.73225 -74.29179,-1.05089 -2.58263,-0.78491 -11.28814,-0.18402 -13.75,0.9491 -2.07088,0.95315 -3.35176,0.99155 -5.18674,0.15548 -1.58997,-0.72444 -4.23532,-0.82594 -7.61247,-0.29208 -2.93691,0.46426 -6.96545,0.41535 -9.31325,-0.11308 -2.27565,-0.51218 -5.67584,-0.64337 -7.55599,-0.29152 -5.67028,1.06114 -43.26487,0.57865 -44.6526,-0.57307 -0.86547,-0.71827 -1.45057,-0.71507 -1.89894,0.0104 -0.73767,1.19358 -7.53001,1.45151 -7.53001,0.28594 0,-0.81399 -15.25144,-0.73891 -31.21133,0.15366 -6.08878,0.34051 -9.94548,0.16425 -10.33903,-0.47253 -0.41413,-0.67007 -1.10342,-0.62081 -2.02593,0.14481 -0.78056,0.6478 -2.17694,0.83349 -3.16098,0.42035 -3.14234,-1.31932 -58.21828,-1.63657 -64.49911,-0.37154 -4.41588,0.88941 -6.06893,0.87938 -7.18105,-0.0436 -1.03477,-0.85879 -9.39428,-1.2514 -29.46269,-1.38375 -31.97322,-0.21086 -29.70742,-0.93899 -28.08567,9.02544 0.49377,3.03382 1.18988,10.75263 1.5469,17.15291 0.84225,15.09856 1.45234,16.11802 9.69194,16.19518 3.42482,0.0321 11.40195,0.64107 17.72695,1.35334 6.325,0.71226 22.4001,1.36504 35.72245,1.45061 24.17886,0.1553 40.10534,0.63315 54.27755,1.62852 4.125,0.28971 14.475,0.74128 23,1.00348 32.10463,0.98745 49.46624,1.67556 49.97466,1.98069 0.28894,0.17341 7.72534,0.63823 16.52534,1.03295 8.8,0.39471 16.37543,0.94191 16.83429,1.21599 0.94891,0.5668 13.58752,0.68949 14.13441,0.13722 0.83817,-0.84642 41.79853,1.27393 58.5313,3.02992 6.325,0.66377 17.08312,1.40545 23.90694,1.64819 6.82382,0.24273 12.61834,0.65272 12.8767,0.91109 0.25837,0.25836 7.92876,0.37524 17.04532,0.25972 L 706.40453,321.5 Z m 7.46246,-7.2962 c -1.28349,-1.28349 -2.58505,-0.2915 -1.63484,1.24598 0.36808,0.59556 1.12735,0.79971 1.68727,0.45366 0.683,-0.42212 0.66575,-0.98146 -0.0524,-1.69964 z m -498.64863,-9.49381 8.95517,0.29001 0.85844,-3.5 c 0.47215,-1.925 1.48699,-8.17418 2.2552,-13.88707 0.76821,-5.71289 1.50082,-11.11289 1.62803,-12 0.58876,-4.106 -1.76222,-6.81208 -5.41104,-6.22834 -0.41746,0.0668 -2.52053,-0.27436 -4.67349,-0.75809 -2.15295,-0.48374 -4.28639,-0.55891 -4.74097,-0.16705 -0.45458,0.39186 -4.20151,0.41984 -8.32651,0.0622 -4.125,-0.35765 -13.8,-0.48542 -21.5,-0.28392 -7.7,0.2015 -17.6,0.45544 -22,0.56433 -4.4,0.10888 -8.28719,0.59311 -8.6382,1.07608 -0.351,0.48296 -1.20474,0.52797 -1.89718,0.10001 -0.69244,-0.42795 -7.38025,-0.92331 -14.8618,-1.10079 C 131.62127,264.19985 119.875,263.77949 113,263.4432 c -6.875,-0.33629 -12.95,-0.54962 -13.5,-0.47407 -6.689826,0.91896 -14.308229,1.02046 -17.970284,0.23942 C 79.038372,262.6772 77,262.53699 77,262.89697 c 0,0.35998 -13.826276,0.7567 -30.725057,0.88161 -27.867036,0.20597 -30.889539,0.39157 -32.493315,1.99535 -1.472874,1.47287 -1.783371,3.68126 -1.858737,13.2201 -0.08336,10.55077 0.07778,11.58809 2.047903,13.1834 1.624141,1.31515 2.731013,1.50624 4.602738,0.79461 1.52796,-0.58093 7.301858,-0.5849 15.195413,-0.0104 7.00208,0.50957 22.181055,1.21107 33.731055,1.55887 11.55,0.3478 21.4275,1.04798 21.95,1.55595 0.5225,0.50797 6.233442,0.92358 12.69098,0.92358 6.76975,0 12.00337,0.42455 12.36069,1.0027 0.40553,0.65616 1.24683,0.66708 2.43423,0.0316 1.94006,-1.03828 13.40631,-0.7075 16.3141,0.47064 0.9625,0.38997 1.74965,0.32339 1.74923,-0.14795 -8.1e-4,-0.89578 18.39097,-0.6508 21.00077,0.27973 0.825,0.29416 10.275,0.76131 21,1.03813 10.725,0.27681 19.85718,0.8429 20.29374,1.25797 0.43656,0.41506 3.13656,0.35697 6,-0.12909 2.86344,-0.48606 9.23609,-0.75324 14.16143,-0.59374 z M 44,298.55902 c 0,-1.05548 -1.919113,-1.49891 -2.489919,-0.57533 C 41.164618,298.54266 41.583524,299 42.440983,299 43.298442,299 44,298.80156 44,298.55902 Z M 10,292.16667 C 10,290.86459 8.8112274,289.99863 7.8442079,290.59628 6.8099892,291.23547 7.7017632,293 9.059017,293 9.5765576,293 10,292.625 10,292.16667 Z M 622.5,262 c 0.33992,-0.55 -0.33508,-1 -1.5,-1 -1.16492,0 -1.83992,0.45 -1.5,1 0.33992,0.55 1.01492,1 1.5,1 0.48508,0 1.16008,-0.45 1.5,-1 z m 19.22917,0.39583 c -0.33229,-0.33229 -1.1948,-0.36781 -1.91667,-0.0789 -0.79773,0.31922 -0.56078,0.55618 0.60417,0.60416 1.05416,0.0434 1.64479,-0.19293 1.3125,-0.52522 z M 15.5,261 c 0.339919,-0.55 0.141476,-1 -0.440983,-1 C 14.476558,260 14,260.45 14,261 c 0,0.55 0.198442,1 0.440983,1 0.242541,0 0.719098,-0.45 1.059017,-1 z m 7.5,-0.5 c 0,-0.825 -0.176855,-1.5 -0.393011,-1.5 -0.216156,0 -0.652033,0.675 -0.968615,1.5 -0.316583,0.825 -0.139728,1.5 0.393011,1.5 C 22.564123,262 23,261.325 23,260.5 Z m 7.36383,0.006 C 30.04846,259.6839 29.380243,259.265 28.878903,259.57484 27.830318,260.2229 28.672078,262 30.027632,262 c 0.500279,0 0.651568,-0.67242 0.336198,-1.49426 z M 73,261 c 0,-0.55 -0.701558,-1 -1.559017,-1 -0.857459,0 -1.280902,0.45 -0.940983,1 0.339919,0.55 1.041476,1 1.559017,1 C 72.576558,262 73,261.55 73,261 Z m 652.60872,-11.75 c -0.37721,-5.9125 -1.07898,-12.325 -1.55948,-14.25 -0.48051,-1.925 -1.12997,-6.0805 -1.44326,-9.23445 -0.31328,-3.15394 -1.0276,-6.52894 -1.58736,-7.5 -0.55977,-0.97105 -1.45049,-2.98643 -1.97939,-4.47861 l -0.96164,-2.71305 -20.89373,0.11172 c -11.49156,0.0615 -21.29651,-0.10836 -21.7888,-0.37737 -1.1187,-0.61129 -5.39781,-0.27734 -7.40461,0.57788 -0.83025,0.35383 -3.59383,0.25393 -6.14129,-0.22199 -2.54746,-0.47592 -5.26785,-0.50933 -6.0453,-0.0742 -0.77745,0.43508 -11.28887,1.03594 -23.3587,1.33523 -12.06984,0.2993 -28.02016,0.7885 -35.44516,1.08713 -7.425,0.29862 -20.57007,0.74742 -29.21126,0.99733 -8.6412,0.24992 -17.52626,0.74463 -19.74458,1.09935 -2.45645,0.3928 -4.56163,0.2065 -5.38462,-0.47653 -0.94656,-0.78557 -2.96997,-0.84283 -6.75542,-0.19119 -2.97227,0.51166 -6.75412,0.89399 -8.40412,0.84962 -1.65,-0.0444 -7.14886,0.27596 -12.2197,0.71184 -6.33716,0.54474 -9.63447,0.44828 -10.54634,-0.3085 -0.91973,-0.76331 -3.30612,-0.8232 -7.7803,-0.19527 -3.54951,0.49816 -11.62866,0.83093 -17.95366,0.73948 -6.325,-0.0914 -11.95,0.11095 -12.5,0.44976 -0.55,0.33881 -12.22493,0.89751 -25.94429,1.24156 -13.71936,0.34405 -25.15686,0.83811 -25.41667,1.09792 C 414.31597,220.3507 410,220.03697 410,219.15406 c 0,-0.98739 -5.64359,-0.72188 -8.38247,0.39437 -1.03535,0.42197 -2.63973,0.29429 -3.56529,-0.28373 -0.92555,-0.57802 -2.32844,-0.69315 -3.11753,-0.25584 -1.27436,0.70623 -42.48043,2.43418 -50.62878,2.12308 -1.75674,-0.0671 -3.4708,0.32581 -3.80902,0.87306 -0.33822,0.54725 -2.21581,0.995 -4.17242,0.995 h -3.55748 l 0.72375,6.75 c 0.39806,3.7125 1.05285,10.35637 1.45509,14.76415 0.40223,4.40778 1.24459,8.97317 1.8719,10.14531 1.2311,2.30034 -1.10535,2.12442 35.83742,2.69832 5.03534,0.0782 8.94947,0.47457 8.69806,0.88077 -0.25141,0.4062 0.12877,0.55095 0.84483,0.32168 1.11258,-0.35624 50.58786,-1.87352 59.30194,-1.81864 34.68649,0.21843 42.0347,0.45728 43.17462,1.40333 0.72089,0.59829 2.08508,0.73925 3.06265,0.31645 2.18957,-0.94698 17.263,-1.46856 17.262,-0.59731 -4e-4,0.34977 7.0871,0.45227 15.75,0.22778 8.6629,-0.22449 17.77573,-0.38692 20.25073,-0.36097 2.475,0.026 44.55,0.3617 93.5,0.7461 48.95,0.3844 89.1875,0.88434 89.41667,1.11097 1.89167,1.87076 2.30849,-0.67584 1.69205,-10.33794 z m -647.810833,6.39279 c 0.713838,-0.45101 2.063838,-0.50965 3,-0.1303 0.936162,0.37934 6.176199,0.83681 11.644525,1.0166 8.384548,0.27567 10.142318,0.064 11.218198,-1.3511 1.06021,-1.39445 1.28116,-1.42423 1.30759,-0.17621 0.0254,1.2007 1.82184,1.55543 8.96078,1.76941 5.29974,0.15886 9.18574,-0.1478 9.56069,-0.75448 0.40151,-0.64965 1.26028,-0.68572 2.35665,-0.099 2.68219,1.43547 105.03038,1.42947 106.76033,-0.006 0.76634,-0.63601 1.40038,-2.78878 1.40897,-4.78393 0.009,-1.99516 0.66756,-6.32756 1.46438,-9.62756 0.79682,-3.3 1.46479,-7.67893 1.48438,-9.73095 0.0292,-3.05483 -0.37212,-3.83043 -2.21438,-4.27991 -2.21717,-0.54095 -53.51097,0.13353 -71.46831,0.93977 -5.07007,0.22764 -9.72177,0.72504 -10.33713,1.10535 -0.61535,0.38031 -1.54254,0.26776 -2.06042,-0.25012 -0.57284,-0.57284 -3.1822,-0.60368 -6.66286,-0.0788 -9.70197,1.46316 -34.36386,1.92117 -35.87592,0.66628 -0.88949,-0.73821 -1.76892,-0.78515 -2.59536,-0.13854 -2.11349,1.65362 -6.077014,2.24037 -7.447964,1.10258 -0.943408,-0.78295 -1.726864,-0.72801 -2.844418,0.19947 -1.149618,0.9541 -1.831106,0.99134 -2.676206,0.14624 -0.683055,-0.68305 -1.562182,-0.77832 -2.211273,-0.23962 -0.592596,0.49181 -6.250803,1.16302 -12.573793,1.49158 C 46.464619,234.07185 35.588801,234.5 25.5,234.5 c -13.169588,0 -13.685267,0.38273 -13.972433,10.37021 -0.284929,9.90971 0.335502,10.96209 6.677217,11.32596 11.42791,0.65571 58.369319,0.21981 59.593103,-0.55338 z M 40,230.55902 c 0,-0.24254 -0.45,-0.7191 -1,-1.05902 -0.55,-0.33992 -1,-0.14148 -1,0.44098 0,0.58246 0.45,1.05902 1,1.05902 0.55,0 1,-0.19844 1,-0.44098 z m 24.80106,-4.93607 c 0.537478,-0.33218 3.025237,-0.22135 5.528352,0.24628 2.503115,0.46763 4.915499,0.50635 5.360853,0.0861 0.736845,-0.6954 12.613618,-1.46261 41.309735,-2.66849 5.775,-0.24268 24.9,-0.62442 42.5,-0.84833 17.6,-0.2239 32,-0.47218 32,-0.55172 0,-0.41626 6.91948,-0.82851 24.75365,-1.47479 12.3054,-0.44592 20.08429,-1.12986 20.63054,-1.81389 1.06736,-1.33659 4.15591,-19.10405 4.57587,-26.32354 0.19698,-3.38622 -0.15177,-5.6037 -0.99082,-6.30005 -0.81099,-0.67306 -4.78369,-0.90671 -10.63201,-0.62531 -5.13548,0.2471 -10.12473,0.0288 -11.08723,-0.48513 -1.10217,-0.58849 -2.43741,-0.5665 -3.60694,0.0594 -1.02132,0.54659 -6.98382,0.99841 -13.25,1.00404 -14.23004,0.0128 -11.80649,-0.0882 -28.89306,1.20371 -7.975,0.60297 -16.1875,1.09008 -18.25,1.08247 -2.0625,-0.008 -3.75,0.41775 -3.75,0.94526 0,0.52751 -0.43756,0.68869 -0.97235,0.35817 -1.68009,-1.03836 -18.42137,-1.43522 -19.59111,-0.46442 -0.61328,0.50897 -2.87488,0.89138 -5.02579,0.84978 -6.63445,-0.12829 -30.610878,1.1032 -31.438607,1.61477 -1.4721,0.9098 -13.730422,1.25021 -15.075923,0.41864 -0.793208,-0.49023 -1.631539,-0.36412 -2.046873,0.3079 -0.414326,0.6704 -4.124161,1.23305 -9.026393,1.36901 -4.577625,0.12695 -8.547954,0.3498 -8.822954,0.49522 -0.275,0.14542 -7.25,0.38835 -15.5,0.53984 -23.046744,0.42319 -29.332103,1.16993 -30.655127,3.64203 -1.185906,2.21588 -1.42386,23.31055 -0.302794,26.84272 0.657257,2.07083 0.949042,2.08874 25.973236,1.59435 13.919681,-0.27501 25.748266,-0.7718 26.285745,-1.10398 z M 168.25,225.33772 c -0.6875,-0.27741 -1.8125,-0.27741 -2.5,0 -0.6875,0.27741 -0.125,0.50439 1.25,0.50439 1.375,0 1.9375,-0.22698 1.25,-0.50439 z M 372.64098,214 c 1.23254,0 2.53261,0.47185 2.88903,1.04856 0.45171,0.73088 1.03229,0.72966 1.91632,-0.004 1.52374,-1.2646 21.36221,-2.12484 46.20459,-2.00354 12.17426,0.0594 18.37401,-0.27233 18.82843,-1.0076 0.41828,-0.67679 3.99537,-1.04381 9.34908,-0.95925 4.76936,0.0753 12.04657,-0.14228 16.17157,-0.48358 15.26797,-1.26329 20.59945,-1.49009 47.74967,-2.03124 15.26268,-0.30422 35.62533,-0.84967 45.25033,-1.21212 9.625,-0.36245 23.35,-0.82076 30.5,-1.01847 7.15,-0.19771 18.85,-0.54221 26,-0.76555 7.15,-0.22335 23.8,-0.74249 37,-1.15367 13.2,-0.41117 31.65,-0.78402 41,-0.82856 l 17,-0.081 0.30976,-2.68097 c 0.22206,-1.9219 -0.6658,-3.76227 -3.13581,-6.5 -1.89506,-2.10047 -4.73445,-5.89537 -6.30976,-8.43311 -4.95594,-7.9838 -8.61177,-13.3 -10.9244,-15.88592 -1.22968,-1.375 -3.53274,-4.00557 -5.1179,-5.84571 l -2.88212,-3.34572 -9.46989,0.1713 c -5.20843,0.0942 -12.84488,0.39542 -16.96988,0.66935 -4.125,0.27393 -10.65,0.59985 -14.5,0.72428 -3.85,0.12442 -7.76017,0.57894 -8.68926,1.01004 -0.9291,0.4311 -2.49247,0.33432 -3.47418,-0.21507 -0.98966,-0.55384 -2.46706,-0.63381 -3.31596,-0.17949 -0.84207,0.45066 -8.62995,1.06945 -17.3064,1.37508 -8.67644,0.30564 -16.25955,0.85495 -16.85135,1.22071 -0.5918,0.36575 -2.81345,0.0916 -4.937,-0.60924 -2.97704,-0.98251 -4.18692,-1.00375 -5.28458,-0.0928 -1.22886,1.01986 -25.10635,2.56199 -33.64127,2.17273 -7.31789,-0.33375 -18.72877,0.23918 -28.49426,1.43068 -8.32672,1.01595 -11.17391,1.05904 -11.73469,0.17762 -0.5532,-0.86951 -0.7443,-0.85674 -0.75574,0.0505 -0.0112,0.88825 -3.43864,1.21344 -12.76531,1.21115 -7.0125,-0.002 -16.8,0.25575 -21.75,0.57216 -16.65556,1.06462 -58.79056,2.70447 -73.75,2.87026 -6.4625,0.0716 -11.75,0.50957 -11.75,0.9732 0,0.46363 -2.5875,0.69877 -5.75,0.52255 -3.1625,-0.17623 -6.3205,0.0389 -7.01779,0.47799 -0.69728,0.43913 -3.95655,0.68868 -7.24282,0.55456 -3.28627,-0.13412 -6.27826,0.0594 -6.64888,0.42999 C 361.9699,176.69677 357.04322,177 351.39235,177 c -5.65087,0 -10.50822,0.37846 -10.7941,0.84102 -0.28588,0.46256 -2.52824,0.87139 -4.98303,0.9085 -7.41287,0.11206 -8.61522,0.84515 -8.61522,5.25277 0,2.12713 0.48358,5.13431 1.07462,6.68261 0.59104,1.54831 1.52668,6.84879 2.07921,11.77885 1.28266,11.44484 2.04017,12.92923 6.18511,12.12 1.73858,-0.33943 3.61106,-0.56825 4.16106,-0.50849 6.85367,0.74469 28.23031,1.24291 28.95,0.67474 0.5225,-0.4125 1.95844,-0.75 3.19098,-0.75 z M 38,187.57227 c 1.925,-0.2809 10.475,-0.76327 19,-1.07195 8.525,-0.30867 18.2,-0.76049 21.5,-1.00405 14.557622,-1.07443 34.12665,-2.40303 35.5,-2.41021 0.825,-0.004 5.325,-0.2349 10,-0.51241 22.55793,-1.33905 31.6405,-1.6683 58.87476,-2.13425 17.71147,-0.30303 30.15843,-0.92198 31.34848,-1.55887 1.08554,-0.58097 8.04175,-1.31072 15.45825,-1.62168 13.37184,-0.56065 13.49298,-0.58708 14.49271,-3.16211 0.55449,-1.42821 0.7644,-4.7252 0.46647,-7.32666 -0.29792,-2.60145 0.0574,-7.10145 0.78973,-10 2.10962,-8.35042 2.51626,-14.68056 1.03802,-16.1588 -1.39935,-1.39935 -14.11075,-1.5684 -16.29777,-0.21675 -0.66864,0.41325 -3.36692,0.63718 -5.99616,0.49763 -2.62925,-0.13955 -5.33882,0.0914 -6.02127,0.51315 -0.68246,0.42178 -1.78362,0.33874 -2.44702,-0.18453 -0.75746,-0.59745 -3.99645,-0.60689 -8.7062,-0.0254 -4.125,0.50932 -9.525,0.92026 -12,0.91318 -2.475,-0.007 -5.85,0.40661 -7.5,0.91929 -2.90262,0.90188 -16.22749,1.92082 -33.2408,2.54189 -4.53244,0.16545 -8.58244,0.51067 -9,0.76714 -0.97509,0.59892 -23.13076,2.21001 -25.7177,1.87011 -1.07718,-0.14153 -3.73539,0.45364 -5.90713,1.3226 -3.08609,1.23481 -4.11605,1.30905 -4.71504,0.33986 -0.60693,-0.98204 -1.605,-0.96331 -4.79656,0.09 -2.44005,0.80529 -5.967238,1.10065 -8.939764,0.7486 -2.700288,-0.31981 -5.308628,-0.19589 -5.79631,0.27538 -0.804856,0.77777 -18.583779,2.27798 -25.886696,2.18437 -1.65,-0.0212 -3.675,0.23465 -4.5,0.56845 -1.974026,0.79872 -4.439105,1.19365 -10.5,1.68222 -2.75,0.22168 -5.675,0.65765 -6.5,0.96883 -0.825,0.31117 -3.075,0.52157 -5,0.46755 -8.905314,-0.24992 -20.101336,0.9815 -22.356126,2.45889 -2.32045,1.52042 -2.408175,2.01591 -2.46455,13.92015 -0.03215,6.78899 0.260549,12.85978 0.650442,13.49064 1.082436,1.75141 15.621385,2.24107 25.170234,0.84771 z m 328.5,-17.11206 c 11,-0.63462 20,-1.26762 20,-1.40667 0,-0.13905 4.275,-0.40272 9.5,-0.58592 13.30562,-0.46654 36.5,-1.4495 36.5,-1.54685 0,-0.0446 3.15,-0.2725 7,-0.50641 3.85,-0.23391 12.175,-0.94351 18.5,-1.57688 6.325,-0.63337 13.76725,-1.22049 16.53834,-1.3047 2.77109,-0.0842 5.47109,-0.41156 6,-0.72743 0.52891,-0.31588 10.63666,-0.66981 22.46166,-0.78652 21.79529,-0.21512 32.45543,-0.60742 41.5,-1.52723 2.75,-0.27967 16.51234,-0.70904 30.58297,-0.95417 14.07063,-0.24513 28.69563,-0.94334 32.5,-1.55159 3.80437,-0.60825 9.16703,-1.04053 11.91703,-0.96062 2.75,0.0799 5.225,0.0622 5.5,-0.0394 2.38536,-0.88131 44.25563,-2.85072 47.48453,-2.23348 2.18624,0.41793 2.51547,0.12655 2.51547,-2.22625 0,-2.05419 -1.98979,-4.70645 -8.25,-10.99671 -6.30729,-6.33757 -29.24569,-31.54169 -30.33113,-33.32707 -0.0996,-0.16375 -3.21865,-0.77065 -6.93133,-1.34866 -4.84237,-0.75389 -7.34913,-0.74002 -8.86893,0.0491 -1.21216,0.62937 -5.11357,0.92144 -9.11861,0.68265 -5.0635,-0.3019 -7.64096,-0.007 -9.31692,1.06556 -1.77165,1.13393 -2.64389,1.21157 -3.7062,0.32993 -0.7641,-0.63414 -1.96395,-0.79782 -2.66635,-0.36371 -1.58671,0.98064 -19.6364,2.49105 -44.81053,3.74978 -5.225,0.26126 -10.175,0.71008 -11,0.99739 -0.825,0.28731 -8.39751,0.74684 -16.8278,1.02118 -9.02356,0.29364 -15.87843,0.95578 -16.66659,1.60989 -0.79329,0.65838 -4.78722,1.0351 -9.802,0.92458 -4.65476,-0.1026 -8.85479,0.055 -9.3334,0.35019 -0.47862,0.29519 -4.92021,0.83228 -9.87021,1.19352 -4.95,0.36125 -11.0222,1.1062 -13.49378,1.65546 -2.47158,0.54925 -6.08412,0.88382 -8.02787,0.74348 -1.94375,-0.14035 -3.97155,-0.0178 -4.50622,0.27244 -0.53467,0.29019 -7.49713,0.64921 -15.47213,0.79784 -18.98598,0.35383 -27.16096,0.74103 -29,1.37355 -4.09156,1.40726 -14.0957,2.55365 -18.92284,2.16839 -3.15159,-0.25153 -5.98224,0.0315 -6.75846,0.67568 -0.73528,0.61023 -2.86488,0.8603 -4.73786,0.55636 -1.87123,-0.30366 -3.65541,-0.29893 -3.96485,0.0105 -0.30944,0.30944 -3.8312,0.76582 -7.82612,1.01419 -3.99493,0.24836 -8.16943,0.9494 -9.27669,1.55786 -1.10725,0.60845 -5.16318,1.21596 -9.01318,1.35002 -27.18991,0.94678 -26.84815,0.83239 -24.3085,8.1362 0.9127,2.62485 1.95873,10.05722 2.35379,16.72438 0.9951,16.79355 0.9115,16.6433 8.85063,15.90778 3.87966,-0.35942 7.17188,-0.17212 8.27385,0.47073 1.00663,0.58723 2.50523,0.76796 3.33023,0.40162 0.825,-0.36634 10.5,-1.18531 21.5,-1.81992 z M 301.75632,157.75 C 301.11576,155.7987 295,155.51505 295,157.43664 295,158.5636 296.00027,159 298.58333,159 c 2.41885,0 3.44999,-0.40621 3.17299,-1.25 z M 15,154.55902 c 0,-0.24254 -0.45,-0.7191 -1,-1.05902 -0.55,-0.33992 -1,-0.14148 -1,0.44098 0,0.58246 0.45,1.05902 1,1.05902 0.55,0 1,-0.19844 1,-0.44098 z m 18,-4.74237 c 6.325,-0.69549 13.4125,-1.26434 15.75,-1.26411 2.3375,2.3e-4 4.25,-0.3904 4.25,-0.86807 0,-0.47767 2.5875,-0.7243 5.75,-0.54808 3.1625,0.17623 6.200594,0.0352 6.751319,-0.31331 0.550725,-0.34855 6.827973,-0.92072 13.949438,-1.27148 7.121466,-0.35076 13.420872,-1.02153 13.998681,-1.49059 0.577809,-0.46906 6.900562,-1.14103 14.050562,-1.49327 7.15,-0.35224 14.8,-0.85704 17,-1.12178 2.2,-0.26473 6.475,-0.67362 9.5,-0.90862 3.025,-0.23501 8.875,-0.69021 13,-1.01157 4.125,-0.32136 12.45,-1.04628 18.5,-1.61095 6.05,-0.56467 13.925,-0.95148 17.5,-0.85959 3.575,0.0919 7.175,-0.077 8,-0.37531 1.85194,-0.66966 17.07079,-1.86691 26.5,-2.08473 3.85,-0.0889 7.45,-0.43178 8,-0.76187 0.55,-0.33009 3.11664,-0.63578 5.70364,-0.67931 2.587,-0.0435 5.63483,-0.6585 6.77297,-1.36658 1.74268,-1.08421 2.56541,-1.00352 5.21206,0.51116 2.56835,1.46987 3.36788,1.56125 4.37464,0.5 1.34733,-1.42025 3.01243,-12.90265 4.46621,-30.79859 0.51381,-6.325 1.35715,-12.85 1.87409,-14.5 0.51695,-1.65 1.44849,-7.95 2.0701,-14 0.62161,-6.05 1.78182,-15.075891 2.57824,-20.057535 0.79643,-4.981644 1.44805,-10.854144 1.44805,-13.05 0,-2.195856 0.40097,-4.419965 0.89104,-4.942465 0.49007,-0.5225 1.08672,-4.931689 1.32589,-9.798198 0.33319,-6.779689 0.12191,-8.968284 -0.90378,-9.361875 -0.73624,-0.282523 -1.93055,-0.02242 -2.65403,0.578015 -0.97293,0.80746 -2.29279,0.593395 -5.06937,-0.822187 -3.30663,-1.685816 -6.27641,-1.93612 -24.92186,-2.100508 C 217.02555,13.842603 206.6,13.868357 205.5,14.002479 201.24523,14.521258 181,13.679807 181,12.984186 c 0,-1.049213 -4.92728,-0.910872 -5.58718,0.15687 -0.30552,0.49435 -13.89659,0.830052 -30.52746,0.754033 -16.48722,-0.07536 -30.25619,0.142413 -30.59773,0.483944 -0.82496,0.824966 -8.77549,0.799774 -9.6057,-0.03044 -1.00929,-1.009287 -24.024479,-1.026156 -25.419195,-0.01863 -0.680496,0.491582 -2.030496,0.544806 -3,0.118276 -2.586936,-1.138113 -3.622988,-1.174889 -4.965609,-0.176261 -0.66158,0.492077 -3.13658,0.847816 -5.5,0.790531 -22.156658,-0.537036 -40.555901,0.05233 -42.683484,1.367253 -0.73333,0.453223 -2.369975,0.235826 -3.738507,-0.496591 C 14.638491,13.3982 14.10398,15.389376 13.447544,38.014771 12.257373,79.036464 12.221255,150.45808 13.390263,151.28488 14.000619,151.71656 16.075,151.84733 18,151.57547 c 1.925,-0.27185 8.675,-1.06332 15,-1.75882 z m 632.72917,-17.42082 c -0.33229,-0.33229 -1.1948,-0.36781 -1.91667,-0.0789 -0.79773,0.31922 -0.56078,0.55618 0.60417,0.60416 1.05416,0.0434 1.64479,-0.19293 1.3125,-0.52522 z M 258.8781,130.64688 c 0.61948,-0.74642 1.37446,-6.91146 1.68385,-13.75 0.30848,-6.81828 1.16726,-16.44688 1.90842,-21.39688 0.74115,-4.95 1.38234,-10.125 1.42487,-11.5 0.0425,-1.375 0.35604,-5.2 0.69668,-8.5 0.34064,-3.3 0.76255,-8.475 0.93757,-11.5 0.17503,-3.025 0.75846,-8.425 1.29653,-12 1.36425,-9.064411 1.48078,-19.992275 0.19044,-17.86029 -0.88477,1.461886 -2.78939,11.73797 -3.53633,19.079818 -1.20974,11.890672 -1.70752,15.920453 -2.50516,20.280472 -0.5031,2.75 -1.159,9.275 -1.45756,14.5 -0.29856,5.225 -1.01466,11.75 -1.59134,14.5 -0.57668,2.75 -1.4584,8.15 -1.95938,12 -0.50098,3.85 -1.19741,8.68533 -1.54762,10.74517 -0.35022,2.05984 -0.3769,4.42234 -0.0593,5.25 0.71801,1.87109 3.02703,1.94862 4.51833,0.15171 z m 32.4303,-1.74809 C 291.20303,127.57946 290.82404,120.875 290.4662,114 c -0.35783,-6.875 -0.83583,-14.3 -1.06223,-16.5 -0.2264,-2.2 -0.59092,-16.743517 -0.81006,-32.318926 -0.21914,-15.575409 -0.66741,-28.587909 -0.99617,-28.916667 -1.42415,-1.424155 -1.71791,1.387438 -1.60713,15.382406 0.0647,8.169253 0.10179,15.978187 0.0825,17.353187 -0.0193,1.375 -0.0368,15.297121 -0.0389,30.938046 -0.003,25.109094 0.19069,28.653004 1.65798,30.274334 2.14221,2.36711 3.86034,1.743 3.6162,-1.31359 z M 269.78642,129.75 c 0.60134,-0.72885 1.27608,-10.83918 1.61839,-24.25 0.6101,-23.902174 1.25533,-36.230187 2.1197,-40.5 0.27835,-1.375 0.53832,-5.310117 0.57771,-8.744705 0.0394,-3.434587 0.42804,-6.464977 0.86365,-6.7342 1.22362,-0.756241 -0.0282,-9.839223 -1.58292,-11.485381 -1.1902,-1.260196 -1.40204,-0.84206 -1.51994,3 -0.71811,23.401367 -1.51682,36.658353 -2.73915,45.464286 -1.56114,11.246727 -3.43731,36.51989 -2.76127,37.19593 0.34103,0.34103 0.13678,1.20236 -0.45388,1.91407 -1.32726,1.59924 -0.24683,5.39 1.53623,5.39 0.7206,0 1.77426,-0.5625 2.34148,-1.25 z m 10.11096,-0.12635 c 1.63575,-1.97095 1.39536,-91.623817 -0.24566,-91.623257 -0.78833,2.7e-4 -1.19837,3.392061 -1.29958,10.75 -0.0813,5.912284 -0.6472,21.999607 -1.25753,35.749607 -0.61032,13.75 -1.14045,28.35593 -1.17807,32.45761 -0.0376,4.10169 -0.51546,8.29296 -1.06186,9.31393 -1.83785,3.43405 2.55255,6.35255 5.0427,3.35211 z M 302.45791,122.5 c -0.0232,-2.75 -0.59443,-9.5 -1.26952,-15 -0.6751,-5.5 -1.66841,-19.675 -2.20736,-31.5 -0.53895,-11.825 -1.42492,-25.55 -1.96882,-30.5 -0.5439,-4.95 -1.1959,-12.375 -1.4489,-16.5 -0.253,-4.125 -0.49692,-7.95 -0.54206,-8.5 -0.0451,-0.55 -0.55419,-0.188467 -1.13124,0.803406 -1.01728,1.748606 -1.38271,51.090377 -0.39026,52.696188 0.24571,0.397575 0.68983,8.713061 0.98693,18.478857 0.2971,9.765799 0.71553,18.040749 0.92985,18.388769 0.21431,0.34803 0.40787,3.04242 0.43012,5.98753 0.0222,2.94511 0.3323,6.6835 0.68899,8.30753 0.54497,2.48122 1.07302,2.90368 3.30645,2.64526 2.48846,-0.28793 2.65523,-0.62631 2.61582,-5.30754 z m 11.33542,2.45932 c 0.70093,-1.12237 1.0054,-2.47597 0.67659,-3.00799 -0.32881,-0.53203 -0.97352,-4.90123 -1.4327,-9.70933 C 312.57805,107.4339 311.50899,99 310.66153,93.5 308.9515,82.401944 308.22081,75.097081 307.41467,61.040692 c -0.29837,-5.202619 -0.98594,-12.402619 -1.52794,-16 C 305.34473,41.443312 304.42223,34 303.83673,28.5 303.25124,23 302.57398,18.288032 302.33172,18.02896 c -1.34366,-1.436916 -1.78745,2.942584 -1.13092,11.160368 0.40912,5.12087 1.01997,14.935672 1.35745,21.810672 1.55037,31.583135 2.31247,41.701934 3.33765,44.315475 0.74789,1.90665 0.7827,3.416548 0.10783,4.677558 -0.54811,1.024147 -0.77313,2.457177 -0.50004,3.184527 0.60835,1.62032 1.33054,6.26414 2.30514,14.82244 0.40711,3.575 1.09323,7.0625 1.5247,7.75 1.16062,1.84929 3.01661,1.52024 4.4598,-0.79068 z m 29.22566,-0.69276 c 5.78544,-0.47464 10.96433,-1.13822 11.50865,-1.47463 0.54432,-0.3364 2.90797,-0.26086 5.25255,0.16788 2.34459,0.42873 4.50475,0.38817 4.80036,-0.0902 C 364.87617,122.39135 367.31492,122 370,122 c 2.68508,0 5.19525,-0.5069 5.57815,-1.12645 0.45217,-0.73162 2.75102,-0.94013 6.55863,-0.59486 3.3974,0.30806 6.11983,0.11512 6.47458,-0.45887 0.33667,-0.54475 3.37435,-0.8832 6.75039,-0.75211 3.37604,0.13109 6.81325,-0.0179 7.63825,-0.33118 2.08026,-0.78984 12.39476,-1.93949 19,-2.11774 3.025,-0.0816 6.0845,-0.51941 6.79888,-0.97284 0.71438,-0.45342 3.63938,-0.71102 6.5,-0.57244 2.86062,0.13858 5.87612,-0.0205 6.70112,-0.35341 0.825,-0.33296 7.35,-0.81471 14.5,-1.07056 7.15,-0.25585 14.125,-0.76716 15.5,-1.13625 1.375,-0.3691 4.525,-0.78869 7,-0.93243 2.475,-0.14374 5.175,-0.52083 6,-0.83797 1.5814,-0.60793 13.57468,-1.34247 39.09068,-2.39417 8.47513,-0.34932 15.63432,-0.955 15.90932,-1.34596 0.275,-0.39096 7.25,-1.01932 15.5,-1.39637 8.25,-0.37704 17.925,-1.16265 21.5,-1.74579 3.575,-0.58314 8.59837,-0.99499 11.16305,-0.91524 2.56468,0.0798 4.90928,-0.25337 5.21021,-0.74029 0.30093,-0.48692 6.23336,-0.96809 13.18318,-1.06927 12.46525,-0.18148 19.08548,-1.710033 18.25084,-4.213958 C 624.47864,95.935934 612.55565,82.986331 601,71.064688 597.425,67.376458 592.05056,61.465582 589.0568,57.929408 586.06304,54.393233 582.39462,50.15 580.90476,48.5 c -1.48986,-1.65 -4.88755,-5.475 -7.55043,-8.5 -2.66287,-3.025 -6.41946,-7.008674 -8.34796,-8.85261 -1.9285,-1.843935 -5.09524,-4.881435 -7.03718,-6.75 C 556.02724,22.528826 554.11903,21 553.72873,21 552.42455,21 543,16.633623 543,16.0294 c 0,-0.327703 -4.6125,-0.712444 -10.25,-0.854979 -5.6375,-0.142535 -13.175,-0.458627 -16.75,-0.702425 -6.99102,-0.476756 -68.35176,-0.396814 -137,0.178486 -23.375,0.195892 -48.125,-0.04393 -55,-0.532937 -11.3221,-0.805321 -12.67478,-0.722471 -14.35476,0.879215 -2.01115,1.917413 -2.1216,-0.916277 1.36434,35.00324 1.77981,18.339363 3.07624,29.329842 3.55019,30.096708 0.27282,0.441431 0.72726,5.212757 1.00987,10.602947 0.28261,5.39019 0.92639,11.375345 1.43061,13.300345 0.50423,1.925 1.19474,6.65 1.53447,10.5 0.33973,3.85 1.07753,7.95286 1.63954,9.11747 1.13337,2.34858 1.87308,2.3696 22.84473,0.64909 z M 45,10 c 0,-0.55 -0.9,-1 -2,-1 -1.1,0 -2,0.45 -2,1 0,0.55 0.9,1 2,1 1.1,0 2,-0.45 2,-1 z m 34,0.15218 C 79,9.6858789 77.65,9.2659763 76,9.2190631 74.35,9.1721498 73,9.5536688 73,10.066883 73,10.580097 74.35,11 76,11 c 1.65,0 3,-0.381519 3,-0.84782 z m 13,-0.09316 C 92,9.5414763 91.55,8.8399187 91,8.5 90.45,8.1600813 90,8.5835237 90,9.440983 90,10.298442 90.45,11 91,11 c 0.55,0 1,-0.423442 1,-0.940983 z m 8.72917,0.336816 c -0.3323,-0.332291 -1.194795,-0.367818 -1.91667,-0.07895 -0.797733,0.319226 -0.560776,0.556183 0.604167,0.604167 1.054163,0.04342 1.644793,-0.192928 1.312503,-0.52522 z"
       id="path1" />
    <rect
       style="fill:#000000"
       id="rect1"
       width="42.106918"
       height="20.729559"
       x="267.54089"
       y="147.69812" />
    <rect
       style="fill:#000000"
       id="rect2"
       width="62.296551"
       height="4.5806289"
       x="13.741886"
       y="258.11844" />
    <rect
       style="fill:#000000"
       id="rect3"
       width="3.6645031"
       height="8.2451315"
       x="7.0999746"
       y="287.20541" />
    <rect
       style="fill:#000000"
       id="rect4"
       width="7.7870688"
       height="2.9774086"
       x="34.812778"
       y="228.80241" />
    <rect
       style="fill:#000000"
       id="rect5"
       width="5.9548173"
       height="2.2903144"
       x="164.90263"
       y="223.99275" />
    <rect
       style="fill:#000000"
       id="rect6"
       width="4.8096604"
       height="2.0612829"
       x="40.767597"
       y="297.05377" />
    <rect
       style="fill:#000000"
       id="rect7"
       width="21.299925"
       height="3.6645031"
       x="28.857962"
       y="331.17947" />
    <rect
       style="fill:#000000"
       id="rect8"
       width="9.1612577"
       height="2.5193458"
       x="73.290062"
       y="334.84396" />
    <rect
       style="fill:#000000"
       id="rect9"
       width="4.3515973"
       height="2.7483773"
       x="45.119194"
       y="369.4277" />
    <rect
       style="fill:#000000"
       id="rect10"
       width="9.6193209"
       height="3.2064402"
       x="83.596474"
       y="373.32126" />
    <rect
       style="fill:#000000"
       id="rect11"
       width="3.8935344"
       height="5.4967546"
       x="5.4967546"
       y="371.48901" />
    <rect
       style="fill:#000000"
       id="rect12"
       width="115.88991"
       height="5.2677231"
       x="16.719296"
       y="504.09821" />
    <rect
       style="fill:#000000"
       id="rect13"
       width="4.1225657"
       height="7.7870688"
       x="5.4967546"
       y="477.30151" />
    <rect
       style="fill:#000000"
       id="rect14"
       width="10.535446"
       height="4.5806289"
       x="418.66946"
       y="504.09821" />
    <rect
       style="fill:#000000"
       id="rect15"
       width="7.3290062"
       height="4.3515973"
       x="376.75671"
       y="398.28568" />
    <rect
       style="fill:#000000"
       id="rect16"
       width="21.528955"
       height="4.5806289"
       x="468.82736"
       y="408.82114" />
    <rect
       style="fill:#000000"
       id="rect17"
       width="7.0999746"
       height="2.5193458"
       x="470.88864"
       y="363.24387" />
    <rect
       style="fill:#000000"
       id="rect18"
       width="8.4741631"
       height="2.0612829"
       x="419.81464"
       y="360.26645" />
    <rect
       style="fill:#000000"
       id="rect19"
       width="6.8709431"
       height="2.7483773"
       x="471.34671"
       y="363.70193" />
    <rect
       style="fill:#000000"
       id="rect20"
       width="3.6072452"
       height="3.6072452"
       x="601.15027"
       y="374.69543" />
    <rect
       style="fill:#000000"
       id="rect21"
       width="27.855347"
       height="4.8584905"
       x="617.51416"
       y="258.95755" />
    <rect
       style="fill:#000000"
       id="rect22"
       width="2.8056352"
       height="3.3782139"
       x="714.23456"
       y="308.44809" />
    <rect
       style="fill:#000000"
       id="rect23"
       width="1.3169308"
       height="1.7749937"
       x="713.89099"
       y="309.36423" />
    <rect
       style="fill:#000000"
       id="rect24"
       width="4.6951447"
       height="3.8935344"
       x="661.09924"
       y="129.97534" />
    <rect
       style="fill:#000000"
       id="rect25"
       width="65.913521"
       height="3.8867924"
       x="39.029873"
       y="8.4213839" />
  </g>
</svg>
