<?xml version="1.0" encoding="UTF-8" standalone="no"?>
<!-- Created with Inkscape (http://www.inkscape.org/) -->

<svg
   version="1.1"
   id="svg1"
   width="726"
   height="527"
   viewBox="0 0 726 527"
   sodipodi:docname="1.svg"
   inkscape:version="1.4 (86a8ad7, 2024-10-11)"
   xmlns:inkscape="http://www.inkscape.org/namespaces/inkscape"
   xmlns:sodipodi="http://sodipodi.sourceforge.net/DTD/sodipodi-0.dtd"
   xmlns="http://www.w3.org/2000/svg"
   xmlns:svg="http://www.w3.org/2000/svg">
  <defs
     id="defs1" />
  <sodipodi:namedview
     id="namedview1"
     pagecolor="#ffffff"
     bordercolor="#000000"
     borderopacity="0.25"
     inkscape:showpageshadow="2"
     inkscape:pageopacity="0.0"
     inkscape:pagecheckerboard="0"
     inkscape:deskcolor="#d1d1d1"
     inkscape:zoom="1.5085389"
     inkscape:cx="363.26541"
     inkscape:cy="263.16855"
     inkscape:window-width="1920"
     inkscape:window-height="1013"
     inkscape:window-x="2391"
     inkscape:window-y="605"
     inkscape:window-maximized="1"
     inkscape:current-layer="g1" />
  <g
     inkscape:groupmode="layer"
     inkscape:label="Image"
     id="g1">
    <rect
       style="fill:#000000"
       id="rect1"
       width="418.28552"
       height="41.762264"
       x="25.189938"
       y="80.21006" />
    <path
       id="path1"
       style="fill:#000000"
       d="m 545.5,0 c -2.05689,0 -2.50304,0.48741674 -2.51562,2.75 -0.008,1.5125 -0.36436,3.2991854 -0.79102,3.9707031 -0.83148,1.3086606 -34.46608,1.940385 -69.69336,1.3085938 -25.27089,-0.4532257 -38.37729,-0.4306478 -42.83203,0.076172 -2.10781,0.2398068 -4.04647,0.090181 -4.30859,-0.3339844 -0.70396,-1.1390314 -10.13858,-0.9389743 -10.86133,0.2304687 -0.4045,0.6544973 -1.24771,0.6666887 -2.42774,0.035156 -0.9943,-0.532136 -2.0193,-0.7541337 -2.27929,-0.4941406 -0.25999,0.2599929 -24.958,0.4828647 -54.88282,0.4960937 -29.92482,0.013229 -66.5582,0.068581 -81.4082,0.1230469 -14.85,0.054466 -48.15,0.153289 -74,0.21875 -25.85,0.065461 -47.53215,0.4632941 -48.18164,0.8847656 -0.6495,0.4214715 -1.44539,0.3369829 -1.76953,-0.1875 -0.65126,-1.0537532 -26.25086,-1.3797428 -27.90821,-0.3554688 -1.40254,0.8668254 -5.90285,1.0980006 -7.14062,0.3671876 -0.84862,-0.5010473 -31.699259,-0.8293145 -88,-0.9375 -7.15,-0.013739 -13.426719,0.3971259 -13.949219,0.9121093 -0.196164,0.1933427 -1.003072,0.3466272 -1.783203,0.4960938 0.05457,0.1309086 0.111659,0.2591664 0.179688,0.375 C 11.205459,11.279267 11.281092,12.641488 11.220703,14 h 0.820313 L 11.492188,28.25 C 11.190303,36.0875 10.704379,47 10.410156,52.5 10.115934,58 9.9061762,76 9.9453125,92.5 c 0.039136,16.5 -0.3376651,31.41659 -0.8378906,33.14844 -0.5813965,2.01288 -0.5475949,3.51295 0.095703,4.15625 1.108763,1.10876 1.116139,7.08848 0.076172,74.69531 C 8.898578,229.25 8.470288,266.375 8.328125,287 c -0.142163,20.625 -0.5241441,52.8 -0.8476562,71.5 -0.3235125,18.7 -0.4818047,37.15 -0.3535157,41 0.2952769,8.86137 0.3390008,22.88643 0.1152344,37 -0.095921,6.05 -0.1653248,12.125 -0.1523437,13.5 0.1167553,12.36743 0.087372,41.75432 -0.046875,46.69922 -0.092566,3.40959 0.3073952,7.0877 0.8886718,8.17383 1.0249221,1.91508 4.4156954,3.91438 8.2871094,5.09375 1.93773,0.16435 3.871297,0.38082 5.808594,0.55468 1.399504,0.12401 2.792739,0.29121 4.183594,0.47852 H 31 32.169922 c 0.455589,-0.89135 1.420999,-1.53383 2.765625,-1.58594 0.852267,-0.033 1.853194,0.17005 2.966797,0.69336 1.052857,0.49476 2.214412,0.70311 3.308594,1.08594 l 0.05273,-0.26563 9.908203,0.19532 c 5.448988,0.10719 10.135224,0.56445 10.414063,1.01562 0.278835,0.45117 1.445435,0.26609 2.591796,-0.41015 1.655176,-0.97636 2.177628,-0.97123 2.53711,0.0215 0.479316,1.32355 5.28532,1.77823 5.285156,0.5 -5.3e-5,-0.41247 4.778137,-0.62667 10.619141,-0.47656 6.701063,0.17221 11.113856,-0.13617 11.957031,-0.83594 0.734956,-0.60996 1.913116,-0.7535 2.617187,-0.31836 1.212121,0.74914 9.981781,1.7023 14.306641,1.55469 4.80763,-0.16409 25.27882,0.0404 40,0.40039 10.69235,0.26143 16.73597,0.0153 18.2168,-0.74219 1.55062,-0.79323 2.60144,-0.82014 3.5,-0.0879 1.13361,0.92383 7.15134,1.15545 43.7832,1.67774 3.025,0.0431 6.11234,0.47406 6.86133,0.95703 0.85371,0.55048 1.64099,0.42583 2.10937,-0.33203 0.75265,-1.21781 9.19522,-1.34969 45.0293,-0.70313 7.975,0.1439 15.69159,-0.0542 17.14844,-0.44141 1.45686,-0.38726 3.03186,-0.33324 3.5,0.1211 0.46815,0.45435 5.35156,0.85417 10.85156,0.88867 5.5,0.0345 11.35,0.0722 13,0.084 8.15016,0.058 11.74358,-0.0112 20.5,-0.39648 5.225,-0.2299 9.95,-0.0605 10.5,0.375 1.41007,1.1165 9.62873,0.97944 11.875,-0.19727 1.29352,-0.67762 2.60186,-0.5928 4.2168,0.27149 1.82365,0.97596 2.6594,0.98711 3.78515,0.0527 0.9838,-0.81648 1.65256,-0.86424 2.09375,-0.15039 0.7143,1.15577 5.80609,1.44001 6.86328,0.38281 0.90083,-0.9008 7.02476,-0.84923 8.51563,0.0723 1.51734,0.93777 18.5696,-0.23529 22.94141,-1.57813 1.81018,-0.556 4.06018,-0.68736 5,-0.29296 3.09424,1.29852 13.65373,1.51061 16.51367,0.33203 2.10639,-0.868 3.09202,-0.87093 3.95117,-0.0117 1.22088,1.22088 5.98897,1.56571 7.04492,0.50976 0.56723,-0.56725 20.65284,-0.54274 63.69922,0.0742 7.975,0.11431 14.98157,-0.15167 15.57031,-0.58984 1.16208,-0.86488 12.06949,-0.54184 12.9961,0.38477 0.3122,0.31218 2.11404,0.14041 4.00195,-0.38086 2.23056,-0.61592 4.73467,-0.58811 7.1543,0.0801 3.3222,0.91731 4.14338,0.73907 7.60546,-1.66015 2.13419,-1.47898 4.25471,-3.67573 4.7129,-4.88086 0.45819,-1.20513 1.64927,-2.79801 2.64648,-3.54102 0.99722,-0.743 6.57849,-6.52656 12.4043,-12.85156 5.82581,-6.325 11.8435,-12.85 13.37109,-14.5 1.52759,-1.65 3.95965,-4.575 5.40625,-6.5 1.44659,-1.925 5.78086,-6.67834 9.63086,-10.5625 3.85,-3.88417 9.69853,-10.18417 12.99609,-14 3.29756,-3.81584 6.4891,-7.3875 7.09375,-7.9375 0.60466,-0.55 2.15057,-2.575 3.4336,-4.5 1.28303,-1.925 4.64837,-6.2 7.48047,-9.5 2.8321,-3.3 6.23961,-7.33309 7.57226,-8.96289 1.33265,-1.6298 7.14883,-7.7621 12.92383,-13.62695 11.83013,-12.01419 18,-18.86817 18,-19.99414 0,-0.41931 3.19682,-4.02859 7.10352,-8.02149 13.02122,-13.30851 23.07409,-27.04627 28.0957,-38.39453 3.69991,-8.36138 11.99568,-23.97961 12.92578,-24.33398 0.48118,-0.18334 0.875,-1.32056 0.875,-2.52735 0,-1.20679 0.66369,-3.14109 1.47461,-4.29883 0.81091,-1.15774 2.14716,-5.87051 2.9707,-10.47265 0.82353,-4.60213 1.91946,-9.94219 2.4336,-11.86719 2.17259,-8.13438 2.23236,-23.43121 0.15429,-39.24805 -1.12172,-8.53771 -2.71386,-17.13515 -3.53711,-19.10547 C 719.67285,219.67598 719,217.30581 719,216.37891 c 0,-1.5196 -4.57077,-11.62389 -6.95703,-15.37891 -0.52428,-0.825 -1.88962,-3.525 -3.0332,-6 -4.68547,-10.14061 -11.88031,-20.14207 -22.50977,-31.29102 -2.75,-2.8844 -8.15,-8.83349 -12,-13.21875 -3.85,-4.38525 -9.36587,-10.22561 -12.25781,-12.98046 -2.89194,-2.75486 -5.254,-5.35679 -5.25,-5.78125 0.004,-0.42446 -2.48344,-3.26274 -5.52735,-6.30664 -3.04391,-3.04391 -6.89437,-7.42189 -8.55859,-9.72852 C 641.24204,113.38673 637.24007,108.575 634.01367,105 626.03197,96.155889 609.17642,76.91783 605.5,72.455078 603.85,70.452165 598.56781,64.69218 593.76172,59.65625 588.95563,54.620319 584.1754,49.6 583.13867,48.5 582.10193,47.4 576.87224,41.361417 571.51758,35.082031 566.16291,28.802645 559.58066,21.430037 556.89062,18.697266 554.20061,15.964495 552,13.223511 552,12.605469 552,11.987426 551.1,10.919383 550,10.232422 548.48224,9.2845675 548,7.9007067 548,4.4921875 548,0.36789299 547.7956,0 545.5,0 Z M 251.55859,10 C 251.80113,10 252,10.45 252,11 c 0,0.55 -0.47613,1 -1.05859,1 -0.58246,0 -0.78133,-0.45 -0.44141,-1 0.33992,-0.55 0.81605,-1 1.05859,-1 z m 53.5,1 c 0.58246,0 0.78133,0.45 0.44141,1 -0.33992,0.55 -0.81605,1 -1.05859,1 C 304.19887,13 304,12.55 304,12 c 0,-0.55 0.47613,-1 1.05859,-1 z M 34.916016,11.123047 c 0.347396,0.01431 0.646354,0.107292 0.8125,0.273437 0.332291,0.332292 -0.258334,0.568811 -1.3125,0.525391 -1.164943,-0.04798 -1.401249,-0.286243 -0.603516,-0.605469 0.360937,-0.144434 0.75612,-0.207669 1.103516,-0.193359 z m 224.000004,0 c 0.34739,0.01431 0.64635,0.107292 0.8125,0.273437 0.33229,0.332292 -0.25834,0.568811 -1.3125,0.525391 -1.16495,-0.04798 -1.40125,-0.286243 -0.60352,-0.605469 0.36093,-0.144434 0.75612,-0.207669 1.10352,-0.193359 z M 9.9472656,12.212891 c 0.054511,-0.06495 -0.1154867,0.128769 -0.15625,0.203125 C 9.7307017,12.526034 9.6759682,12.636993 9.6230469,12.75 9.7378291,12.583084 9.8214287,12.362836 9.9472656,12.212891 Z M 520.40234,14.533203 c 0.80323,0.05885 1.76813,0.229061 2.69922,0.496094 4.16481,1.194458 10.9297,1.237955 12.75391,0.08203 2.69858,-1.709971 15.87287,4.198728 17.25391,7.738281 0.50413,1.29213 3.27395,4.674321 6.15429,7.515625 2.88035,2.841305 7.79226,8.320341 10.91602,12.175782 3.12376,3.855442 7.17376,8.422566 9,10.15039 5.11631,4.840601 8.07951,8.255525 9.4375,10.873047 1.04478,2.013821 0.96327,2.733855 -0.52539,4.572266 -1.73193,2.138845 -2.3449,2.187495 -31.17969,2.498047 -61.92438,0.666924 -80.63878,0.652488 -81.79883,-0.06445 -0.66002,-0.407914 -1.87071,-0.187308 -2.68945,0.492188 -1.18273,0.981584 -2.282,0.975296 -5.34961,-0.03711 -2.12355,-0.700834 -4.38638,-0.950082 -5.0293,-0.552735 -0.64293,0.397348 -13.30017,0.87666 -28.12695,1.064453 -14.82677,0.187793 -27.76857,0.597515 -28.75977,0.91211 -0.9912,0.314596 -2.14591,0.231049 -2.56445,-0.1875 -0.41855,-0.41855 -70.58605,-0.8296 -155.92773,-0.91211 C 103.40043,71.211084 20.391582,70.528815 17.207031,69.462891 16.182063,69.119817 15.996143,63.803778 16.308594,43.765625 c 0.216676,-13.895827 0.736875,-26.273634 1.15625,-27.505859 0.631759,-1.856256 1.214523,-2.113086 3.398437,-1.5 1.449732,0.406986 75.086719,0.62349 163.636719,0.482422 166.64345,-0.265481 265.34516,-0.119191 274,0.40625 14.91981,0.905788 58.27724,0.226383 60.16992,-0.94336 0.28761,-0.177749 0.92919,-0.230721 1.73242,-0.171875 z M 196.22656,86.955078 c 0.41208,-0.06957 0.78581,0.17168 0.84766,0.769531 0.0412,0.39875 -0.465,0.905 -1.125,1.125 -0.66,0.22 -1.01883,-0.138828 -0.79883,-0.798828 0.21486,-0.644567 0.6641,-1.026132 1.07617,-1.095703 z m 15.67188,5.988281 c 0.20854,-0.02161 0.45095,0.074 0.70508,0.328125 0.33229,0.332292 0.41519,1.172403 0.18359,1.867188 -0.33872,1.016206 -0.57505,1.015493 -1.20508,-0.0039 -0.62552,-1.012118 -0.30923,-2.126565 0.31641,-2.191407 z M 63,115 c 0.55,0 1,0.45 1,1 0,0.55 -0.45,1 -1,1 -0.55,0 -1,-0.45 -1,-1 0,-0.55 0.45,-1 1,-1 z m 341.55859,0 c 0.85748,0 1.28133,0.45 0.94141,1 -0.33992,0.55 -1.04105,1 -1.55859,1 C 403.42387,117 403,116.55 403,116 c 0,-0.55 0.70113,-1 1.55859,-1 z M 99.673828,130.29492 c 0.713452,0.088 1.339892,0.30214 1.726562,0.62305 0.99735,0.82773 15.9662,1.09527 54.51953,0.97656 29.22951,-0.09 53.4011,0.0944 53.71485,0.4082 0.31376,0.31375 1.60333,0.17704 2.86523,-0.30273 1.2619,-0.47977 2.55,-0.61797 2.86133,-0.30664 0.31133,0.31133 41.41884,0.73302 91.35156,0.93555 49.93272,0.20253 91.46211,0.46528 92.28711,0.58398 0.825,0.11869 5.47218,-0.16187 10.32617,-0.62305 6.22559,-0.5915 9.15594,-0.50812 9.94922,0.28516 1.14854,1.14854 4.97541,1.54217 5.91016,0.60742 0.28497,-0.28497 31.29681,-0.72233 68.91601,-0.9707 37.61919,-0.24837 68.62344,-0.49906 68.89844,-0.5586 2.09881,-0.45399 23.11571,10e-6 23.95312,0.51758 0.58552,0.36187 1.84907,0.41085 2.80665,0.10938 0.95758,-0.30146 14.44113,-0.62973 29.96484,-0.73047 l 28.22461,-0.18359 2.02539,2.57421 c 1.11379,1.41596 2.02539,2.88174 2.02539,3.25586 0,0.37412 3.82457,4.80267 8.49805,9.8418 4.67348,5.03913 8.498,9.63712 8.5,10.21875 0.002,0.58162 1.92336,2.41325 4.27148,4.06836 2.34812,1.6551 7.69109,7.25314 11.87305,12.44141 4.18197,5.18826 8.56055,10.29014 9.73047,11.33789 1.16991,1.04774 2.12695,2.31279 2.12695,2.81054 0,0.49775 1.58643,2.98208 3.52539,5.52149 1.93896,2.53938 3.8142,5.77627 4.16602,7.1914 0.67067,2.69767 3.85345,8.89696 5.40234,10.52149 0.49817,0.5225 0.90625,1.76193 0.90625,2.7539 0,0.992 0.9,3.48279 2,5.53516 1.1,2.05236 2,5.16464 2,6.91602 v 3.18554 l -57.25,-0.37304 c -31.4875,-0.20477 -59.95,0.004 -63.25,0.46484 -3.3,0.46066 -6.45,0.51327 -7,0.11719 -0.55,-0.3961 -25.975,-0.56513 -56.5,-0.37695 -30.525,0.18816 -56.175,0.33607 -57,0.33007 -20.62112,-0.15488 -230.3494,-0.18684 -279.5,-0.043 -23.65,0.0693 -53.35,0.25443 -66,0.41211 -12.65,0.15768 -32,-0.0416 -43,-0.44336 -11,-0.40168 -30.294146,-0.61923 -42.875,-0.48242 -14.637141,0.15917 -23.687217,-0.13419 -25.132812,-0.8164 l -2.259766,-1.06641 0.134766,-48.29297 C 15.48311,137.3002 15.696394,130.91546 17,130.50195 c 0.825,-0.26172 6.45,-0.2841 12.5,-0.0508 18.024811,0.69536 65.132154,0.67858 67.929688,-0.0234 0.730035,-0.18323 1.530692,-0.22077 2.24414,-0.13281 z M 688.05859,169 c 0.58246,0 0.78133,0.45 0.44141,1 -0.33992,0.55 -0.81605,1 -1.05859,1 C 687.19887,171 687,170.55 687,170 c 0,-0.55 0.47613,-1 1.05859,-1 z M 90.898438,231.94336 c 0.208545,-0.0216 0.450949,0.074 0.705078,0.32812 0.332291,0.33229 0.415188,1.1724 0.183593,1.86719 -0.338725,1.01621 -0.575043,1.01582 -1.205078,-0.004 -0.625522,-1.01212 -0.309237,-2.12657 0.316407,-2.19141 z M 520,232 c 0.55,0 1,0.45 1,1 0,0.55 -0.45,1 -1,1 -0.55,0 -1,-0.45 -1,-1 0,-0.55 0.45,-1 1,-1 z m 6,0 c 0.55,0 1,0.45 1,1 0,0.55 -0.45,1 -1,1 -0.55,0 -1,-0.45 -1,-1 0,-0.55 0.45,-1 1,-1 z m -283.5,16 c 0.825,0 1.5,0.45 1.5,1 0,0.55 -0.675,1 -1.5,1 -0.825,0 -1.5,-0.45 -1.5,-1 0,-0.55 0.675,-1 1.5,-1 z m 359.44141,17 c 0.58246,0 1.05859,0.45 1.05859,1 0,0.55 -0.19887,1 -0.44141,1 -0.24254,0 -0.71867,-0.45 -1.05859,-1 -0.33992,-0.55 -0.14105,-1 0.44141,-1 z m -111,3 c 0.58246,0 1.05859,0.45 1.05859,1 0,0.55 -0.19887,1 -0.44141,1 -0.24254,0 -0.71867,-0.45 -1.05859,-1 -0.33992,-0.55 -0.14105,-1 0.44141,-1 z M 526,272 c 0.55,0 1,0.45 1,1 0,0.55 -0.45,1 -1,1 -0.55,0 -1,-0.45 -1,-1 0,-0.55 0.45,-1 1,-1 z M 81.292969,290.375 C 81.474219,290.2951 81.725,290.33 82,290.5 c 0.55,0.33992 1,0.81605 1,1.05859 C 83,291.80113 82.55,292 82,292 c -0.55,0 -1,-0.47613 -1,-1.05859 0,-0.29123 0.111719,-0.48648 0.292969,-0.56641 z M 514,292 c 0.55,0 1,0.45 1,1 0,0.55 -0.45,1 -1,1 -0.55,0 -1,-0.45 -1,-1 0,-0.55 0.45,-1 1,-1 z m -17.25,0.33789 c 0.6875,-0.27741 1.8125,-0.27741 2.5,0 0.6875,0.27741 0.125,0.50391 -1.25,0.50391 -1.375,0 -1.9375,-0.2265 -1.25,-0.50391 z M 23,294.42969 c 1.925,0.20319 23.568901,0.70741 48.097656,1.12109 32.407504,0.54604 44.785224,0.44756 45.285154,-0.36133 0.50407,-0.81601 1.33808,-0.81695 3.11914,-0.006 1.70015,0.77464 4.55267,0.82046 9.48828,0.15235 3.88125,-0.52536 7.274,-0.73773 7.54102,-0.47071 0.70849,0.7085 38.66907,0.92461 283.96875,1.61133 264.62586,0.74082 290.47717,0.87588 290.58203,1.52344 0.24575,1.51775 -1.70454,7.18496 -4.13086,12 -1.52431,3.025 -4.49955,9.1 -6.61133,13.5 -3.71652,7.74353 -6.58279,12.58165 -9.00976,15.21289 -0.64312,0.69725 -2.44312,3.82544 -4,6.95117 -1.55687,3.12573 -4.63008,7.61818 -6.83008,9.98242 -2.2,2.36424 -5.15718,5.54856 -6.57227,7.07618 -1.4151,1.52761 -5.194,5.92734 -8.39648,9.77734 -3.20249,3.85 -6.77031,7.96595 -7.92773,9.14648 -1.15743,1.18052 -3.37837,3.54302 -4.9375,5.25 -3.11211,3.40724 -3.47117,3.53755 -5.66602,2.06836 -0.825,-0.55223 -4.31253,-0.92072 -7.75,-0.81836 -3.43747,0.10236 -6.43828,-10e-4 -6.66797,-0.23046 -0.40127,-0.40036 -35.74789,-0.39707 -152.08203,0.0117 -29.7,0.10437 -129.825,-0.11393 -222.5,-0.48437 -199.387791,-0.79696 -189.616355,-0.79869 -190.994141,0.0527 -0.601928,0.37202 -1.635421,0.25881 -2.298828,-0.25 -0.979383,-0.75115 -5.417662,-0.90591 -7.707031,-0.26953 -1.373203,0.38172 -42.378202,-0.0208 -42.777344,-0.41992 -0.481362,-0.48137 -0.537204,-12.76518 -0.283203,-62.23633 l 0.150391,-29.18164 2.705078,-0.53906 C 18.282907,294.30334 21.075,294.22651 23,294.42969 Z M 15.029297,449.05078 C 15.558845,448.9491 16,449.39073 16,450.44141 c 0,0.79254 0.494961,1.74545 1.099609,2.11914 0.604649,0.37369 49.542147,0.86101 108.750001,1.08203 59.20785,0.22101 110.69886,0.55801 114.42383,0.74804 3.72497,0.19007 7.02639,-0.0683 7.33789,-0.57226 0.31149,-0.50401 1.08997,-0.55196 1.72851,-0.10742 0.63853,0.44453 3.86016,0.7406 7.16016,0.6582 3.3,-0.0825 24.225,-0.12744 46.5,-0.0996 185.4584,0.23132 287.61493,0.43441 288.23047,0.57031 1.25431,0.27692 -7.0439,13.16016 -8.47656,13.16016 -1.57366,0 -25.2693,24.16132 -27.02539,27.55664 -1.9207,3.7136 -8.30102,8.87366 -12.22852,9.89063 -2.68464,0.69515 -59.83033,1.13014 -246.5,1.87109 -32.175,0.12771 -59.00054,0.54585 -59.61133,0.92969 -0.61079,0.38384 -1.40824,0.3984 -1.77344,0.0332 -0.3652,-0.3652 -8.64161,-0.77668 -18.39062,-0.91406 -9.74901,-0.13738 -26.03602,-0.47236 -36.19531,-0.7461 -11.69207,-0.31504 -18.91865,-0.12832 -19.6875,0.50977 -0.82093,0.68132 -1.88243,0.65084 -3.27735,-0.0957 -1.40622,-0.75259 -2.6605,-0.7868 -3.93359,-0.10547 -1.02768,0.55 -2.15105,0.71807 -2.49609,0.37304 -0.66628,-0.66628 -31.54606,-1.25281 -92.224614,-1.75195 -27.433696,-0.22566 -38.034119,-0.64712 -40.716797,-1.61719 -5.947729,-2.15073 -6.519336,-4.92616 -6.11914,-29.76757 0.189032,-11.73376 0.618679,-22.19626 0.953125,-23.25 0.355115,-1.11887 0.972405,-1.76356 1.501953,-1.86524 z m 24.728515,75.91992 c -0.345182,0.0476 -0.689987,0.0972 -1.035156,0.14453 0.340198,0.0106 0.68115,0.0135 1.021485,0.0195 0.0078,-0.046 0.0062,-0.11674 0.01367,-0.16407 z" />
    <rect
       style="fill:#000000"
       id="rect2"
       width="593.95221"
       height="45.076729"
       x="34.47044"
       y="237.31572" />
    <rect
       style="fill:#000000"
       id="rect3"
       width="92.142136"
       height="28.504402"
       x="497.8327"
       y="232.67548" />
    <rect
       style="fill:#000000"
       id="rect4"
       width="86.838997"
       height="5.9660378"
       x="454.74466"
       y="287.69559" />
    <rect
       style="fill:#000000"
       id="rect5"
       width="591.9635"
       height="60.986164"
       x="18.561007"
       y="232.01257" />
  </g>
</svg>
