<?xml version="1.0" encoding="UTF-8" standalone="no"?>
<!-- Created with Inkscape (http://www.inkscape.org/) -->

<svg
   version="1.1"
   id="svg1"
   width="732"
   height="526"
   viewBox="0 0 732 526"
   sodipodi:docname="4.svg"
   inkscape:version="1.4 (86a8ad7, 2024-10-11)"
   xmlns:inkscape="http://www.inkscape.org/namespaces/inkscape"
   xmlns:sodipodi="http://sodipodi.sourceforge.net/DTD/sodipodi-0.dtd"
   xmlns="http://www.w3.org/2000/svg"
   xmlns:svg="http://www.w3.org/2000/svg">
  <defs
     id="defs1" />
  <sodipodi:namedview
     id="namedview1"
     pagecolor="#ffffff"
     bordercolor="#000000"
     borderopacity="0.25"
     inkscape:showpageshadow="2"
     inkscape:pageopacity="0.0"
     inkscape:pagecheckerboard="0"
     inkscape:deskcolor="#d1d1d1"
     inkscape:zoom="1.5114068"
     inkscape:cx="365.88428"
     inkscape:cy="262.66918"
     inkscape:window-width="1920"
     inkscape:window-height="1013"
     inkscape:window-x="2391"
     inkscape:window-y="605"
     inkscape:window-maximized="1"
     inkscape:current-layer="g1" />
  <g
     inkscape:groupmode="layer"
     inkscape:label="Image"
     id="g1">
    <path
       id="path1"
       style="fill:#000000"
       d="M 548.49805,9.2070312 C 544.86301,10.34054 493.05873,11.167578 481.5,10.257812 475.45,9.7816271 463.075,9.7394251 454,10.164062 c -9.075,0.424641 -48.27809,0.947943 -87.11914,1.164063 -38.84105,0.21612 -71.07917,0.675694 -71.63867,1.021484 -1.38631,0.856791 -58.7393,0.759651 -185.08789,-0.314453 -8.60063,-0.07312 -14.844332,0.291766 -15.5918,0.91211 -0.685701,0.569081 -1.533361,0.749842 -1.882812,0.40039 C 92.330236,12.998203 79.32338,12.612986 63.773438,12.492188 48.223495,12.371384 30.930305,11.924955 25.345703,11.5 l -10.154297,-0.773438 -1.65039,3.19336 c -1.454385,2.81247 -1.64693,7.915585 -1.625,42.886719 0.01371,21.831718 0.009,40.818359 -0.0098,42.193359 -0.01876,1.375 -0.04345,9.475 -0.05469,18 -0.01124,8.525 -0.160045,25.625 -0.330078,38 -0.289622,21.07885 -0.342973,57.23963 -0.138672,93 0.0487,8.525 -0.212863,18.75354 -0.582031,22.73047 -0.369168,3.97693 -0.290937,7.46741 0.175781,7.75586 1.818161,1.12368 2.193384,8.28348 0.595704,11.37305 -1.7208284,3.32771 -2.0777078,7.71129 -0.697266,8.56445 0.481468,0.29756 0.704199,3.13619 0.494141,6.30859 -0.210059,3.17239 -0.386575,7.48869 -0.392579,9.5918 -0.006,2.1031 -0.653456,5.35789 -1.4374995,7.23437 -1.277263,3.05692 -1.2492972,3.58979 0.2675781,5.10938 2.3083194,2.31245 2.0039704,20.03694 -0.4394531,25.55859 -1.0610233,2.39771 -1.3213594,4.18106 -0.7285156,5 0.8763988,1.21064 1.0636824,21.20061 0.4257812,45.4336 -0.1615732,6.13794 -0.023403,11.59684 0.3066407,12.13086 1.1358132,1.83778 0.5981448,20.8299 -0.6464844,22.84375 -0.3049143,0.49336 -0.170771,2.94602 0.296875,5.44921 0.4676459,2.50319 1.0484396,17.6826 1.2910156,33.73243 0.317624,21.01543 0.784474,29.59561 1.667969,30.66015 0.26168,0.31531 0.375595,1.26443 0.529297,2.04297 0.169419,-0.0236 0.340268,-0.0458 0.519531,-0.0605 2.331439,-0.19163 4.669826,-0.28722 7.007812,-0.36718 0.03961,-0.014 0.06962,-0.0918 0.111329,-0.0918 0.03659,0 0.05393,0.0743 0.08789,0.084 0.571785,-0.0193 1.143164,-0.0427 1.714844,-0.0605 2.118979,-0.0666 4.236834,-0.11188 6.355469,-0.12305 2.118634,-0.0112 4.238537,0.0125 6.357421,0.082 2.613865,0.077 5.195115,0.43201 7.769532,0.8418 0.714203,0.0787 0.709027,0.014 1.566406,0.11328 0.0047,5.5e-4 -6.91e-4,0.13601 0.0039,0.13867 0.537122,0.0887 1.074143,0.1776 1.611328,0.26563 2.242186,0.37388 4.502227,0.61404 6.767578,0.78711 0.316486,-0.83359 0.872506,-1.22687 1.914063,-1.48829 1.263037,-0.317 3.568676,-0.23653 5.125,0.17969 1.556323,0.41623 5.314481,0.48468 8.351563,0.15039 3.03708,-0.33431 7.368938,-0.34047 9.625,-0.0117 5.436346,0.79204 69.086012,0.47795 70.421872,-0.34765 0.57242,-0.35378 1.27039,-0.27205 1.55078,0.18164 0.61022,0.98736 26.20931,1.58419 27.72657,0.64648 0.58167,-0.35951 16.21082,-0.55427 34.73046,-0.43359 18.51966,0.12073 34.57188,0.21208 35.67188,0.20508 1.1,-0.007 43.77321,-0.16951 94.83008,-0.36133 87.24639,-0.32777 92.90893,-0.45618 94.11914,-2.11133 1.18659,-1.62286 1.39464,-1.63258 2.64258,-0.1289 1.14682,1.38182 2.73617,1.53434 10.38086,0.99609 8.17944,-0.5759 40.21429,-1.4367 64.52734,-1.73438 5.9949,-0.0734 12.22771,0.56709 17.32812,1.36329 0.72017,-0.41472 1.66735,-0.70904 2.85547,-0.80079 3.18222,-0.24573 6.35988,-0.53322 9.54493,-0.74414 3.20751,-0.16748 6.41859,-0.35724 9.63086,-0.37304 0.45888,-0.002 0.91797,-0.002 1.37695,0.004 0.16966,0.002 0.33143,0.0109 0.49219,0.0215 3.43018,-3.40458 7.77148,-8.34714 7.77148,-9.32227 0,-0.44906 4.8375,-5.73846 10.75,-11.75391 5.9125,-6.01544 13,-13.52276 15.75,-16.68359 2.75,-3.16083 7.025,-7.86387 9.5,-10.45117 4.65536,-4.86659 6.06508,-6.47207 19.5,-22.22266 4.4,-5.15839 11.375,-12.84512 15.5,-17.08008 4.125,-4.23496 9.3,-9.78135 11.5,-12.32617 2.2,-2.54482 5.125,-5.93265 6.5,-7.52929 1.375,-1.59663 5.19995,-5.73105 8.5,-9.1875 5.3548,-5.60857 23.14672,-25.56913 29.56445,-33.16797 1.33944,-1.58594 5.71286,-6.29242 9.71875,-10.45899 4.00589,-4.16657 7.55689,-8.71969 7.89063,-10.11718 0.33373,-1.39749 1.79375,-4.34102 3.24414,-6.54102 C 714.41345,324.19796 719,313.44909 719,310.56055 c 0,-1.26883 0.8649,-4.27619 1.92188,-6.6836 1.05696,-2.40742 2.45997,-7.30195 3.11718,-10.87695 0.65721,-3.575 1.78365,-8.075 2.50391,-10 0.72026,-1.925 1.56531,-6.2 1.87695,-9.5 0.31163,-3.3 1.20401,-7.80336 1.98438,-10.00781 1.01603,-2.86997 1.30063,-7.12926 1,-15 -0.23091,-6.04555 -0.43415,-12.34219 -0.45118,-13.99219 -0.0321,-3.12374 -1.57583,-10.54497 -2.9121,-14 -0.42543,-1.1 -1.79183,-4.7 -3.03711,-8 -1.24528,-3.3 -3.33149,-7.87979 -4.63477,-10.17773 C 719.06586,200.02433 718,197.5684 718,196.86523 c 0,-0.70316 -1.8,-3.84415 -4,-6.98046 -2.2,-3.13632 -4,-6.17164 -4,-6.74415 0,-0.57248 -1.4625,-3.12706 -3.25,-5.67773 -1.7875,-2.55066 -4.6,-6.80634 -6.25,-9.45703 -1.65,-2.6507 -6.69263,-8.7984 -11.20703,-13.66211 -8.5892,-9.2538 -28.57767,-31.42791 -33.88477,-37.58984 -1.70064,-1.97457 -6.87564,-7.57351 -11.5,-12.44336 C 639.28384,99.440689 632.35,91.932315 628.5,87.626953 624.65,83.321592 619.475,77.684442 617,75.099609 614.525,72.514777 610.925,68.424045 609,66.009766 605.7923,61.98676 599.38355,54.443921 594.97266,49.5 593.99125,48.4 589.88287,44.094735 585.84375,39.931641 581.80464,35.768548 574.225,27.772206 569,22.164062 563.31794,16.065343 558.19386,11.491967 556.25,10.783203 554.88653,10.28606 554.14859,9.8991238 553.6875,9.2636719 h -4.18555 c -0.35422,0 -0.688,-0.02003 -1.0039,-0.056641 z M 373.95312,17.412109 c 0.57156,-0.03914 1.05897,0.18257 1.625,0.652344 1.44924,1.202759 16.983,2.38968 29.56446,2.259766 l 6.64258,-0.06836 0.55273,3.623047 c 0.30346,1.991975 0.37833,18.471094 0.16797,36.621094 -0.21034,18.15 -0.3361,44.25 -0.2793,58 0.12417,30.06798 0.21141,18.64643 -0.70508,92.5 -0.41975,33.825 -0.88573,80.85 -1.03515,104.5 -0.49272,77.99236 -1.64758,183.99429 -2.00977,184.35742 -0.19574,0.19625 -5.44559,0.54744 -11.66601,0.78125 -6.22042,0.23381 -14.68555,0.65366 -18.81055,0.9336 -10.05627,0.68246 -28.70175,1.23744 -63,1.87304 -69.51059,1.28816 -73.50717,1.2568 -78.25,-0.60742 -1.99136,-0.78269 -3.1215,-0.77389 -4.0918,0.0312 -0.8448,0.70112 -3.71086,0.90732 -7.75,0.55664 -3.52478,-0.30602 -13.96655,-0.55192 -23.20508,-0.54492 l -16.79687,0.0117 -1.94922,-3.19531 c -1.6731,-2.74396 -1.95012,-5.07752 -1.95312,-16.48243 -0.003,-10.75978 0.31572,-13.77193 1.67578,-15.84765 1.2258,-1.8708 1.40412,-3.00904 0.66015,-4.21485 -0.67679,-1.09694 -0.9161,-28.5287 -0.71289,-81.65234 0.16832,-44 0.37564,-122.17801 0.46094,-173.72852 0.13211,-79.79967 0.36594,-93.90449 1.58008,-94.9121 1.01324,-0.84091 1.09918,-1.38501 0.29687,-1.88086 -1.30582,-0.80705 -1.30204,-0.67145 -1.03711,-49.523442 0.11049,-20.374641 0.53777,-37.590121 0.94922,-38.255859 0.5576,-0.902219 11.26134,-1.33623 42.03907,-1.708985 22.71052,-0.275051 41.70852,-0.758137 42.21679,-1.072265 0.50826,-0.314127 23.29755,-0.586359 50.64453,-0.605469 41.75348,-0.02918 50.09345,-0.26783 52.03907,-1.490234 0.9084,-0.570737 1.56516,-0.87102 2.13671,-0.910157 z m 166.29102,1.154297 c 8.93446,0.06229 10.70552,0.458578 12.25586,1.236328 1.65,0.82775 3.49615,2.181467 4.10156,3.007813 0.60541,0.826347 2.18041,1.578778 3.5,1.673828 1.39917,0.10078 2.8882,1.149141 3.57422,2.513672 1.14435,2.276183 3.84736,5.225909 17.32422,18.908203 7.88359,8.003767 24.95433,26.286037 30.65234,32.828125 5.61236,6.443751 13.44234,15.009887 19.41407,21.238281 2.71314,2.829754 4.93359,5.612454 4.93359,6.183594 0,0.57113 2.26816,3.07727 5.04102,5.57031 2.77286,2.49304 5.6744,5.71332 6.44726,7.1543 1.80927,3.37335 11.93397,14.11914 13.30274,14.11914 0.57536,0 2.01926,1.575 3.20898,3.5 1.18972,1.925 2.56562,3.5 3.05664,3.5 0.49102,0 1.60022,1.3711 2.4668,3.04688 1.73355,3.3523 4.09743,6.46694 6.61328,8.71679 13.17745,11.7842 31.62471,35.92405 33.89453,44.35352 0.5404,2.00688 1.6555,4.20725 2.47656,4.88867 0.82105,0.68141 1.50142,1.74704 1.51172,2.36719 0.0103,0.62016 1.52049,4.09262 3.35742,7.71679 3.7411,7.38102 4.5894,10.85962 5.45899,22.41016 1.15025,15.27834 0.59403,32.60712 -1.26758,39.5 -0.96552,3.575 -2.36446,9.875 -3.10938,14 -0.74491,4.125 -2.32432,10.875 -3.50976,15 -1.18544,4.125 -2.40135,8.625 -2.70117,10 -0.29982,1.375 -1.37824,3.5731 -2.39649,4.88477 -1.01825,1.31167 -1.85156,3.01409 -1.85156,3.7832 0,3.87646 -8.95649,18.20699 -12.57031,20.11328 -1.33662,0.70506 -2.42969,1.68713 -2.42969,2.18164 0,0.49451 -2.47133,3.51832 -5.49219,6.71875 -3.02086,3.20043 -5.71961,6.50807 -5.99804,7.35156 -0.27844,0.8435 -1.83666,2.31981 -3.46094,3.2793 -1.62428,0.95948 -3.95445,3.19283 -5.17969,4.96484 -2.46216,3.56092 -9.10024,11.28582 -14.42187,16.78321 -1.89586,1.95847 -3.44727,3.92642 -3.44727,4.37304 0,0.44663 -4.17256,5.36956 -9.27344,10.93946 -12.52402,13.67559 -13.1704,14.39218 -18.10937,20.12695 -4.96023,5.75946 -16.22047,18.25457 -18.54102,20.57422 -0.86669,0.86636 -2.47617,2.8562 -3.57617,4.42187 -2.30892,3.28638 -7.78698,9.47994 -14.68164,16.59571 -2.64986,2.73484 -4.81836,5.32237 -4.81836,5.75195 0,0.42957 -2.8125,3.73939 -6.25,7.35352 -7.04671,7.40879 -14.85592,16.37017 -16.03516,18.40039 -0.43211,0.74394 -3.79222,3.49703 -7.46679,6.11914 l -6.68164,4.76758 -33.53321,0.008 c -43.69098,0.01 -50.48624,-0.37744 -52.47265,-2.99219 -1.89605,-2.49581 -3.68103,-8.49591 -2.90235,-9.75586 0.32051,-0.51858 0.72821,-27.33572 0.90625,-59.59375 0.17804,-32.25804 0.58174,-83.40039 0.89649,-113.65039 0.31475,-30.25 0.78279,-96.625 1.04101,-147.5 0.25823,-50.875 0.72165,-99.025 1.0293,-107 0.30765,-7.975 0.65618,-20.531783 0.77539,-27.904297 l 0.2168,-13.404297 19.48828,-0.359375 c 30.20002,-0.556385 46.29796,-0.827916 55.23242,-0.765625 z m -413.41211,0.59961 c 1.38002,0.05287 2.07325,1.538561 2.65235,5.078125 1.20291,7.352447 1.67897,28.644049 0.67968,30.429687 -0.61184,1.093321 -0.58252,2.50794 0.084,3.970703 0.79235,1.739014 0.65188,2.857644 -0.59571,4.761719 -1.07514,1.64087 -1.27146,2.710165 -0.57812,3.138672 0.63281,0.391102 1.0191,4.693701 0.9707,10.802734 -0.0442,5.583711 -0.0385,11.052344 0.0117,12.152344 0.31114,6.815323 -1.24873,114.51547 -1.69141,116.79102 -0.29863,1.53503 -0.0981,3.33503 0.44532,4 0.63138,0.77261 0.66243,3.19434 0.0859,6.70898 -0.4961,3.025 -0.64304,16.21818 -0.32812,29.31836 0.5133,21.3524 0.39526,24.08685 -1.13086,26.41602 -1.45243,2.21667 -1.49412,2.7574 -0.28906,3.68164 1.18693,0.91034 1.35045,7.55074 1.02734,41.58398 -0.22111,23.28952 -0.79465,41.27136 -1.34961,42.31445 -0.61256,1.15135 -0.61692,2.24717 -0.0117,3 1.06462,1.32447 0.7825,52.23217 -0.30859,55.66993 -0.36869,1.16163 -0.17475,2.70878 0.43164,3.43945 0.689,0.83012 0.93396,4.2832 0.6543,9.20312 -0.24616,4.33044 -0.77648,21.3323 -1.17969,37.78321 -0.82319,33.58541 -0.79,33.44721 -8.16211,33.73828 -6.1605,0.24323 -6.70036,0.31822 -7.93164,1.11718 -0.6495,0.42147 -1.43037,0.36225 -1.73633,-0.13281 -0.31318,-0.50674 -8.09965,-0.69748 -17.818358,-0.43554 -14.943275,0.40275 -45.227708,0.54832 -51.263672,0.24609 -1.1,-0.0551 -5.375,0.1732 -9.5,0.50781 -8.536487,0.69244 -12.887041,-0.87272 -13.150391,-4.73242 C 15.937648,486.35232 15.514901,331.59227 16.386719,330.18164 16.914457,329.32781 17.202825,279.96142 16.917969,239 16.764289,216.9012 17.684502,112.80938 18.517578,58.058594 19.065209,22.067655 19.523843,17.534023 22.382812,19.898438 22.997339,20.406661 24.625,20.815347 26,20.804688 c 35.289443,-0.273542 58.390947,-0.182281 66,0.261718 7.750163,0.452234 31.15914,-0.603939 33.20117,-1.498047 0.63361,-0.277423 1.17085,-0.419968 1.63086,-0.402343 z M 12.722656,520.6543 l -0.0039,0.0527 h 0.273438 c -0.09023,-0.0161 -0.179409,-0.0362 -0.269532,-0.0527 z" />
  </g>
</svg>
