<?xml version="1.0" encoding="UTF-8" standalone="no"?>
<!-- Created with Inkscape (http://www.inkscape.org/) -->

<svg
   version="1.1"
   id="svg1"
   width="736"
   height="523"
   viewBox="0 0 736 523"
   sodipodi:docname="6.svg"
   inkscape:version="1.4 (86a8ad7, 2024-10-11)"
   xmlns:inkscape="http://www.inkscape.org/namespaces/inkscape"
   xmlns:sodipodi="http://sodipodi.sourceforge.net/DTD/sodipodi-0.dtd"
   xmlns="http://www.w3.org/2000/svg"
   xmlns:svg="http://www.w3.org/2000/svg">
  <defs
     id="defs1" />
  <sodipodi:namedview
     id="namedview1"
     pagecolor="#ffffff"
     bordercolor="#000000"
     borderopacity="0.25"
     inkscape:showpageshadow="2"
     inkscape:pageopacity="0.0"
     inkscape:pagecheckerboard="0"
     inkscape:deskcolor="#d1d1d1"
     inkscape:zoom="1.5200765"
     inkscape:cx="367.74465"
     inkscape:cy="261.17107"
     inkscape:window-width="1920"
     inkscape:window-height="1013"
     inkscape:window-x="2391"
     inkscape:window-y="605"
     inkscape:window-maximized="1"
     inkscape:current-layer="g1" />
  <g
     inkscape:groupmode="layer"
     inkscape:label="Image"
     id="g1">
    <path
       id="path1"
       style="fill:#000000"
       d="M 536,7.4023438 V 7.5839844 L 420.75,7.7753906 C 268.43225,8.0283156 218.63504,8.5929451 218.14062,10.076172 217.86933,10.89003 217.52333,10.847942 216.95703,9.9316406 216.34773,8.9457781 210.00252,8.5336732 190.32812,8.1992188 176.12215,7.9577244 162.925,7.7681699 161,7.7792969 c -1.925,0.011132 -8.45,0.00953 -14.5,-0.00391 -6.05,-0.013434 -12.8,0.011116 -15,0.054687 -2.2,0.04357 -29.35512,0.2990817 -60.345703,0.5664063 -48.23454,0.416071 -56.512587,0.6982866 -57.5,1.9687496 -0.301034,0.387327 -0.842534,0.654155 -1.525391,0.867188 0.0882,1.529357 0.143956,3.061055 0.195313,4.591797 0.06479,2.733634 0.171382,5.467434 0.08203,8.201172 -0.268904,2.879341 -0.81783,5.730573 -1.308594,8.580078 -0.497792,2.401142 -0.868463,4.822474 -1.1503904,7.255859 C 9.9499489,39.924172 10,39.933225 10,40 c 0,0.438472 -0.045803,0.780591 -0.1796875,1.050781 -0.029532,0.28465 -0.06458,0.568569 -0.091797,0.853516 -0.083867,1.197799 -0.1768438,2.395008 -0.2773437,3.591797 L 9.5,45.5 9.2050781,86 c -0.2768328,38.13116 -0.3810154,330.7928 -0.1347656,378.5 0.062456,12.1 -0.078171,25.15 -0.3144531,29 -0.4640407,7.5611 0.8997702,11.97343 3.9824216,12.87305 0.968532,0.28265 3.960159,0.82327 6.646485,1.20312 l 3.78125,0.53516 c 0.351126,-0.0518 0.727922,-0.0787 1.132812,-0.0762 0.191193,10e-4 0.388802,0.009 0.591797,0.0234 0.969114,0.0694 1.937316,0.14974 2.902344,0.26172 C 27.896304,508.2337 27.972067,508 28.085938,508 c 0.169381,0 0.295298,0.15952 0.40039,0.40625 0.03642,0.005 0.07296,0.009 0.109375,0.0137 2.130579,0.29822 4.241171,0.70157 6.365235,1.03711 1.546807,0.22905 3.111664,0.40715 4.673828,0.46875 1.50014,0.0608 3.008341,0.13029 4.484375,0.41992 -0.0046,-0.0732 0.0055,-0.5606 0,-0.5957 -0.119422,-0.75634 4.909233,-0.8346 88.380859,-1.36328 25.3,-0.16024 47.125,-0.34116 48.5,-0.40234 1.375,-0.0613 9.475,-0.1024 18,-0.0918 8.525,0.0106 23.375,-0.15323 33,-0.36328 21.63808,-0.47221 30.03374,-0.56622 51,-0.57422 9.075,-0.004 41.7,-0.24273 72.5,-0.53125 30.8,-0.28851 79.175,-0.71762 107.5,-0.95313 28.325,-0.23552 53.55982,-0.51277 56.07812,-0.61523 2.51833,-0.10245 5.10582,0.14094 5.75,0.53906 0.6442,0.3983 1.69605,0.3992 2.33594,0.004 0.63989,-0.39546 6.6037,-0.61692 13.25391,-0.49219 10.58382,0.19851 12.29947,4.1e-4 13.76172,-1.58984 5.37803,-5.84883 11.65075,-13.27798 13.77539,-16.31641 1.34607,-1.925 3.46534,-4.625 4.71094,-6 1.2456,-1.375 7.22612,-8.18405 13.28906,-15.13086 6.06295,-6.94681 11.92926,-12.86705 13.03515,-13.15625 1.36015,-0.35569 2.00977,-1.3626 2.00977,-3.11133 0,-1.51422 0.83786,-3.10661 2.02344,-3.84375 1.11324,-0.69216 4.35985,-4.18281 7.21484,-7.75781 2.855,-3.575 6.39149,-7.625 7.85742,-9 1.46593,-1.375 6.1603,-6.55 10.4336,-11.5 4.27331,-4.95 11.93687,-13.5 17.02929,-19 5.09242,-5.5 11.212,-12.19826 13.59961,-14.88477 2.38762,-2.68652 5.8043,-6.43773 7.5918,-8.33593 1.7875,-1.89821 3.25,-3.84626 3.25,-4.33008 0,-0.48382 1.2375,-2.16482 2.75,-3.73438 2.20604,-2.28928 10.20388,-11.12766 16.7832,-18.54882 0.5681,-0.6408 1.99302,-2.51602 3.16602,-4.16602 1.173,-1.65 4.1954,-5.19981 6.7168,-7.88867 2.5214,-2.68886 4.58398,-5.38581 4.58398,-5.99219 0,-1.29877 6.99777,-11.81216 8.51758,-12.79687 0.575,-0.37255 2.32959,-3.52255 3.90039,-7 1.57079,-3.47745 4.59433,-9.82509 6.71875,-14.10743 2.12443,-4.28235 3.86328,-8.88417 3.86328,-10.22461 0,-2.10965 2.08483,-7.67551 5.1582,-13.77148 2.85581,-5.66451 5.1434,-38.79671 2.7793,-40.25781 -0.5151,-0.31835 -0.95637,-2.23949 -0.98047,-4.26953 -0.0241,-2.03004 -0.74431,-5.49141 -1.59961,-7.69141 -0.85529,-2.2 -2.12702,-6.5091 -2.82617,-9.57617 -1.41422,-6.20398 -11.57735,-26.81966 -15.20313,-30.83985 -1.2817,-1.42116 -4.35361,-4.82449 -6.82812,-7.5625 -2.47451,-2.73802 -4.5,-5.5327 -4.5,-6.21093 0,-0.67824 -1.6875,-2.97179 -3.75,-5.09571 C 691.06475,152.78562 674.00155,134.34428 671.98828,131.75 670.81452,130.2375 669.21281,129 668.42773,129 667.64265,129 667,128.35591 667,127.56836 c 0,-0.78754 -1.2375,-2.31937 -2.75,-3.4043 -1.5125,-1.08493 -5.9,-5.69235 -9.75,-10.23828 -7.21079,-8.51421 -14.26924,-16.176354 -27.78906,-30.167968 -4.28352,-4.432995 -8.94522,-9.453784 -10.36133,-11.158203 C 614.93351,70.89519 608.76209,64.25837 602.63672,57.851562 588.54226,43.109544 581.50025,35.202024 578.38477,30.617188 577.03318,28.628146 575.27001,27 574.46484,27 573.65967,27 573,26.652465 573,26.228516 573,24.312538 560.25594,12.181964 555.81055,9.6464844 c -0.0214,0.00152 -0.041,0.00447 -0.0625,0.00586 -2.13712,0.1376273 -4.2678,0.026468 -6.39844,-0.1816407 -2.30677,-0.237831 -4.60103,-0.5672374 -6.87305,-1.0371093 C 540.31721,8.0984622 538.14859,7.8020372 536,7.4023438 Z M 0.0546875,18.138672 c -0.0076415,5.16e-4 -0.01382412,0.0014 -0.02148438,0.002 -0.02243396,0.0015 0.0052427,0.04407 0.0078125,0.06641 0.0016963,-0.0083 0.01141495,-0.05713 0.01367188,-0.06836 z M 582.89258,122 c 1.12404,0 2.17221,2.60123 1.37109,3.40234 C 583.05991,126.60611 582,125.94919 582,124 c 0,-1.1 0.40143,-2 0.89258,-2 z m -29.46875,198.53906 c 0.97647,-0.21429 1.57617,0.71715 1.57617,2.62696 0,2.16873 -1.30319,2.37954 -2.89062,0.46679 -0.85726,-1.03293 -0.80242,-1.64306 0.2207,-2.49219 0.40079,-0.33262 0.76826,-0.53013 1.09375,-0.60156 z" />
    <rect
       style="fill:#000000"
       id="rect1"
       width="525.63147"
       height="361.82391"
       x="29.603773"
       y="25.656603" />
    <rect
       style="fill:#000000"
       id="rect2"
       width="163.80754"
       height="311.82642"
       x="426.29434"
       y="84.864151" />
  </g>
</svg>
