<?xml version="1.0" encoding="UTF-8" standalone="no"?>
<!-- Created with Inkscape (http://www.inkscape.org/) -->

<svg
   version="1.1"
   id="svg1"
   width="723"
   height="510"
   viewBox="0 0 723 510"
   sodipodi:docname="2.svg"
   inkscape:version="1.4 (86a8ad7, 2024-10-11)"
   xmlns:inkscape="http://www.inkscape.org/namespaces/inkscape"
   xmlns:sodipodi="http://sodipodi.sourceforge.net/DTD/sodipodi-0.dtd"
   xmlns="http://www.w3.org/2000/svg"
   xmlns:svg="http://www.w3.org/2000/svg">
  <defs
     id="defs1" />
  <sodipodi:namedview
     id="namedview1"
     pagecolor="#ffffff"
     bordercolor="#000000"
     borderopacity="0.25"
     inkscape:showpageshadow="2"
     inkscape:pageopacity="0.0"
     inkscape:pagecheckerboard="0"
     inkscape:deskcolor="#d1d1d1"
     showgrid="false"
     inkscape:zoom="1.538036"
     inkscape:cx="361.5"
     inkscape:cy="255.19559"
     inkscape:window-width="1920"
     inkscape:window-height="1013"
     inkscape:window-x="2391"
     inkscape:window-y="605"
     inkscape:window-maximized="1"
     inkscape:current-layer="g1" />
  <g
     inkscape:groupmode="layer"
     inkscape:label="Image"
     id="g1">
    <path
       style="fill:#000000"
       d="m 197.36581,507.26997 c -2.69009,-0.93133 -4.01699,-0.97443 -4.99561,-0.16224 -0.79993,0.66388 -3.03886,0.86009 -5.60139,0.49089 -4.87,-0.70167 -4.74933,-0.70191 -14.6323,0.0295 -4.68103,0.34641 -7.7593,0.14912 -8.45,-0.54158 C 162.35993,505.75993 157,505.63623 157,506.93218 c 0,0.57015 -28.47062,0.8305 -73.307316,0.67036 C 13.67852,507.35248 10.24061,507.2552 7.1629693,505.4372 4.874605,504.08543 3.6321914,502.36937 2.8766719,499.51684 2.2915281,497.30758 1.4048999,494.71861 0.90638703,493.76357 -0.29481357,491.46234 -0.24642398,489 1,489 c 1.3129631,0 1.3129631,-13.68854 0,-14.5 -1.25577706,-0.77611 -1.31427949,-5.18773 -0.0789192,-5.95123 C 1.6458043,468.10087 1.7893951,451.10949 1.0862836,449 0.99462367,448.725 0.97264326,443.775 1.0374383,438 1.1022333,432.225 1.3682574,352.35 1.6286029,260.5 1.8889485,168.65 2.1989786,90.575 2.3175587,87 2.4361389,83.425 2.1518473,79.960091 1.6857997,79.300203 1.2124671,78.63 1.3578689,74.878077 2.015208,70.800203 2.788517,66.002899 3.0277861,55.614374 2.7130843,40.5 2.3339416,22.290689 2.5321143,16.553726 3.6645076,12.95696 5.930846,5.7584985 9.0460481,2.5742467 14.309017,2.0765113 14.753976,2.0344301 14.839919,1.55 14.5,1 14.122279,0.3888349 15.557462,0.02732936 18.190983,0.07028526 21.515903,0.12451872 22.043238,0.33684776 20.5,1 c -1.261235,0.5419715 3.540734,0.9497306 13,1.1038949 8.25,0.1344559 19.95,0.3375145 26,0.4512412 16.149902,0.3035828 151.38904,0.5498691 162.5,0.2959316 24.33856,-0.55625 47.20813,0.023208 48.45,1.2276024 1.26047,1.222427 4.89613,1.1752024 6.15123,-0.0799 C 277.5467,3.0533011 294.01826,2.810978 350,2.9189562 c 11.275,0.021747 28.375,-0.054534 38,-0.1695131 9.625,-0.1149796 29.65,0.1703732 44.5,0.6341173 23.04016,0.7195108 32.29561,0.7777538 48.5,0.3052022 1.375,-0.040098 15.27388,0.013527 30.88641,0.1191662 L 540.27282,4 l 4.04361,4.5 c 2.22399,2.475 4.6376,4.5 5.36359,4.5 0.72599,0 1.31998,0.419251 1.31998,0.93167 0,0.512418 2.31515,3.099918 5.14479,5.75 2.82963,2.650081 5.64213,5.43886 6.25,6.197286 0.60786,0.758425 4.59271,4.980386 8.85521,9.382135 4.2625,4.401749 7.75,8.386923 7.75,8.855942 0,0.46902 2.4352,3.447059 5.41156,6.617865 2.97636,3.170806 6.68886,7.37112 8.25,9.334031 1.56114,1.962911 4.18844,4.763188 5.83844,6.222838 4.97644,4.40234 7.5,7.116706 7.5,8.067078 C 606,75.540274 619.84808,89 621.0636,89 621.57862,89 622,89.593849 622,90.319665 c 0,0.725815 1.0125,2.243194 2.25,3.371953 3.30913,3.018352 9.02649,9.236132 21.89224,23.808382 6.31268,7.15 14.71579,16.15 18.67356,20 3.95778,3.85 8.40924,8.7304 9.89214,10.84533 1.48291,2.11493 5.04869,6.38993 7.92397,9.5 8.16973,8.83686 11.36809,12.81586 11.36809,14.14278 0,0.67325 1.35,2.9286 3,5.01189 1.65,2.08329 3,4.21581 3,4.73892 0,0.52311 0.9,1.76559 2,2.76108 1.1,0.99549 2,2.32688 2,2.95864 0,0.63177 1.07824,3.37453 2.39609,6.09502 7.10391,14.6649 9.46701,20.76795 10.46478,27.02688 0.60669,3.8057 1.36215,8.49446 1.6788,10.41946 0.31665,1.925 1.11226,7.40311 1.76803,12.17358 0.65576,4.77046 1.5298,9.00796 1.9423,9.41666 1.05036,1.04069 0.93399,6.28141 -0.22957,10.33852 -0.65611,2.28773 -0.64008,3.82461 0.0486,4.65437 0.60827,0.73292 0.6529,1.47072 0.10928,1.80669 -0.50537,0.31234 -1.12419,4.0649 -1.37515,8.33903 -0.25097,4.27413 -1.14835,9.34615 -1.99418,11.27115 -0.84583,1.925 -2.81786,6.875 -4.38229,11 -1.56442,4.125 -3.81894,8.85 -5.01005,10.5 -1.1911,1.65 -4.29917,7.5 -6.90683,13 -2.60766,5.5 -5.12217,10.675 -5.58781,11.5 -0.46565,0.825 -1.87565,3.525 -3.13335,6 -1.25771,2.475 -2.84966,4.85986 -3.53767,5.29969 -0.68802,0.43983 -1.25094,1.24365 -1.25094,1.78626 0,1.04452 -8.35041,12.25165 -12.01287,16.12254 -1.19247,1.26033 -4.43928,5.32901 -7.21512,9.04151 -2.77585,3.7125 -5.44174,6.75 -5.9242,6.75 -0.48247,0 -1.65809,1.27265 -2.61251,2.8281 -2.56146,4.17453 -10.18438,13.14882 -14.57768,17.16199 -2.11331,1.93045 -8.17222,8.68491 -13.46424,15.00991 -12.37909,14.79543 -14.45759,17.14376 -21.69338,24.50956 -3.3,3.35929 -7.64299,7.8814 -9.65108,10.04912 -2.0081,2.16773 -6.18697,6.35782 -9.28638,9.31133 -3.09942,2.9535 -6.30548,6.666 -7.1246,8.25 C 584.61883,468.704 583.57871,470 583.12658,470 c -0.45213,0 -3.09985,2.3625 -5.88382,5.25 -9.43734,9.78831 -15.88991,16.22774 -24.29947,24.25 l -8.38623,8 -23.52853,0.29196 c -40.39242,0.50123 -92.39461,0.65387 -150.02853,0.44036 -30.525,-0.11308 -72.10481,0.0126 -92.39958,0.27935 -25.95187,0.34107 -37.29146,0.15971 -38.22043,-0.61127 -0.8399,-0.69706 -3.17595,-0.84107 -6.41559,-0.3955 -9.24922,1.27209 -32.6801,1.12168 -36.59859,-0.23493 z M 170,498.19757 c 0.825,0.008 32.325,-0.0688 70,-0.17133 142.43252,-0.38777 233.61222,-0.89526 265.96709,-1.48033 30.35749,-0.54894 33.65598,-0.77322 35.5,-2.41378 1.1181,-0.99473 3.66584,-2.78437 5.66165,-3.97698 1.9958,-1.19261 5.5162,-4.3029 7.82311,-6.91177 8.38745,-9.48531 26.66962,-28.70718 31.54815,-33.16973 2.75,-2.51551 7.37431,-7.04865 10.27625,-10.07365 2.90194,-3.025 6.45319,-6.67375 7.89167,-8.10833 3.03145,-3.02325 2.43694,-2.36925 10.3554,-11.39167 3.37892,-3.85 8.49784,-9.475 11.37537,-12.5 2.87753,-3.025 6.76991,-7.525 8.64974,-10 1.87983,-2.475 4.66296,-5.77212 6.18472,-7.32692 1.52177,-1.55481 2.76685,-3.16627 2.76685,-3.58102 0,-0.41476 1.10454,-1.34523 2.45453,-2.06773 1.34999,-0.72249 2.58749,-1.90802 2.75,-2.63452 0.36584,-1.63548 9.01827,-12.27454 10.03677,-12.34126 0.88485,-0.058 6.75493,-6.08374 6.76737,-6.94686 0.005,-0.33093 1.49972,-2.17669 3.32212,-4.10169 1.82239,-1.925 5.33574,-6.24961 7.80746,-9.61025 2.47171,-3.36063 6.12515,-7.78976 8.11875,-9.84251 1.9936,-2.05274 3.93238,-5.13301 4.30841,-6.84504 0.37602,-1.71203 1.97442,-5.3829 3.552,-8.15749 1.57757,-2.77459 3.32126,-6.16971 3.87486,-7.54471 0.55359,-1.375 1.45788,-3.175 2.00952,-4 0.55164,-0.825 1.4807,-2.625 2.06457,-4 0.58388,-1.375 2.34806,-4.525 3.92042,-7 2.50213,-3.93854 8.48139,-19 7.54283,-19 -0.19172,0 0.28034,-2.3625 1.04903,-5.25 1.61003,-6.04789 1.8026,-17.56643 0.43885,-26.25 -0.51826,-3.3 -1.62614,-10.275 -2.46195,-15.5 -0.83582,-5.225 -1.52774,-11.33234 -1.5376,-13.57186 -0.013,-2.9496 -0.83711,-5.15451 -2.99012,-8 -1.6347,-2.16048 -2.9847,-4.91947 -3,-6.13109 -0.0345,-2.72967 -1.4556,-5.96546 -6.27215,-14.28118 C 695.69005,190.4496 694,186.80684 694,185.92086 c 0,-0.88599 -0.9,-2.42537 -2,-3.42086 -1.1,-0.99549 -2,-2.23175 -2,-2.74726 0,-1.31606 -8.46568,-12.06925 -13.53663,-17.19436 -1.12015,-1.13211 -4.43944,-4.85858 -7.37619,-8.28104 -2.93676,-3.42247 -6.18278,-6.49029 -7.21337,-6.81739 -1.0306,-0.3271 -1.87381,-1.24578 -1.87381,-2.04152 0,-0.79573 -2.61851,-3.90523 -5.81891,-6.90998 -3.2004,-3.00476 -6.42645,-6.59838 -7.16898,-7.98583 C 646.26957,129.13518 645.26659,128 644.78327,128 c -0.48332,0 -1.99522,-1.2375 -3.35978,-2.75 C 638.43495,121.93743 621.20442,103.65398 611.5,93.497931 590.46816,71.487306 584.95489,65.638732 579.5,59.551746 557.67696,35.199928 540.319,17.78899 536.13763,16.057006 c -2.49592,-1.03384 -8.6021,-1.17411 -28.40845,-0.652591 -25.09072,0.660662 -30.30252,0.648738 -53.22918,-0.121772 -6.6,-0.221811 -24.6,-0.543937 -40,-0.715837 -15.4,-0.171899 -29.45698,-0.645018 -31.23773,-1.051374 -1.78075,-0.406355 -4.03075,-0.409355 -5,-0.0067 -2.43926,1.01343 -16.342,1.1723 -16.94648,0.193652 C 361.04484,13.263747 343.65044,13.20748 322.66158,13.57738 301.67271,13.947279 283.825,14.236345 283,14.219748 c -1.61044,-0.0324 -159.82467,-0.0239 -164,0.0088 -3.66906,0.02874 -84.975323,0.02115 -88.5,-0.0083 -1.65,-0.01377 -6.272659,-0.234561 -10.272575,-0.490647 -4.745115,-0.303797 -7.523606,-0.07708 -7.994899,0.652369 C 11.516011,15.491009 11.071901,39.504745 11.07447,77 c 0.0015,22.136919 -0.08684,36.88477 -0.290573,48.5 -0.07718,4.4 0.01114,10.025 0.196248,12.5 0.185112,2.475 0.0044,18.9 -0.401662,36.5 -0.8806561,38.17372 -1.1483236,77.69812 -0.7347849,108.5 0.1661439,12.375 0.3180599,59.4 0.3375919,104.5 0.01953,45.1 0.213019,86.275 0.429972,91.5 0.216952,5.225 0.432898,10.4 0.479879,11.5 0.275604,6.4529 -0.036,6.2826 11.651479,6.36768 43.986177,0.32022 111.84385,1.40176 112.23834,1.7889 0.26452,0.2596 7.91452,0.25911 17,-0.001 9.08547,-0.2602 17.19404,-0.46626 18.01904,-0.45793 z M 493.09394,186.61319 c -0.71013,-0.85565 -0.80998,-1.67065 -0.24728,-2.01842 0.51907,-0.32081 1.22652,0.15354 1.57209,1.0541 0.84811,2.21014 0.13807,2.72698 -1.32481,0.96432 z"
       id="path1" />
  </g>
</svg>
