<?xml version="1.0" encoding="UTF-8" standalone="no"?>
<!-- Created with Inkscape (http://www.inkscape.org/) -->

<svg
   version="1.1"
   id="svg1"
   width="724"
   height="512"
   viewBox="0 0 724 512"
   sodipodi:docname="4.svg"
   inkscape:version="1.4 (86a8ad7, 2024-10-11)"
   xmlns:inkscape="http://www.inkscape.org/namespaces/inkscape"
   xmlns:sodipodi="http://sodipodi.sourceforge.net/DTD/sodipodi-0.dtd"
   xmlns="http://www.w3.org/2000/svg"
   xmlns:svg="http://www.w3.org/2000/svg">
  <defs
     id="defs1" />
  <sodipodi:namedview
     id="namedview1"
     pagecolor="#ffffff"
     bordercolor="#000000"
     borderopacity="0.25"
     inkscape:showpageshadow="2"
     inkscape:pageopacity="0.0"
     inkscape:pagecheckerboard="0"
     inkscape:deskcolor="#d1d1d1"
     inkscape:zoom="1.5527344"
     inkscape:cx="361.94214"
     inkscape:cy="256"
     inkscape:window-width="1920"
     inkscape:window-height="1013"
     inkscape:window-x="2391"
     inkscape:window-y="605"
     inkscape:window-maximized="1"
     inkscape:current-layer="g1" />
  <g
     inkscape:groupmode="layer"
     inkscape:label="Image"
     id="g1">
    <path
       style="fill:#000000"
       d="m 336.5,509.81128 c -9.9,-0.3788 -18.675,-0.79309 -19.5,-0.92066 -0.825,-0.12757 -4.71092,0.11035 -8.63537,0.5287 -3.96992,0.4232 -7.37659,0.37034 -7.67912,-0.11915 -0.63151,-1.02181 -21.96655,-0.86255 -23.64781,0.17653 -0.62143,0.38406 -3.47163,0.34635 -6.33379,-0.0838 -2.86215,-0.43016 -15.24395,-0.685 -27.51512,-0.56631 -12.27116,0.11868 -22.82712,-0.10307 -23.45769,-0.49278 -1.81662,-1.12273 -5.64403,-1.28372 -6.2743,-0.2639 -0.7252,1.17338 -9.15414,1.22882 -9.87346,0.0649 -0.29408,-0.47583 -1.78314,-0.66367 -3.30902,-0.41742 -2.64432,0.42675 -10.4562,0.47842 -57.27432,0.37879 -11.275,-0.024 -28.97762,-0.0336 -39.33916,-0.0215 -12.60961,0.0148 -19.291191,-0.35301 -20.206191,-1.11239 -0.751872,-0.624 -1.903421,-0.80304 -2.558998,-0.39787 -0.655577,0.40517 -14.93238,0.68194 -31.72623,0.61505 -16.793849,-0.0669 -31.01468,0.25994 -31.601846,0.72631 -0.950019,0.75458 -2.645012,0.80276 -8.817575,0.25067 C 7.7875,508.07044 7,507.42513 7,506.72251 7,506.01988 6.2125,504.33238 5.25,502.97251 3.6300916,500.6838 3.4869306,495.55652 3.3241902,434 3.1425861,365.30827 3.0818725,346.29118 3.0304732,342 3.0140036,340.625 2.7085953,334.1 2.3517881,327.5 1.9949809,320.9 1.709274,313.925 1.7168838,312 1.957789,251.05966 1.8228862,207.48732 1.2927227,175 0.92921493,152.725 0.71296572,132.475 0.81216885,130 0.91137198,127.525 1.0372947,109.075 1.0919971,89 1.1466996,68.925 1.2226581,45.3 1.260794,36.5 1.2989298,27.7 1.2594984,18.358854 1.1731687,15.741897 1.0579382,12.24886 1.5458031,10.387728 3.0081027,8.7418973 4.1036462,7.5088538 5.675,5.7125 6.5,4.75 7.325,3.7875 9.0928571,3 10.428571,3 c 1.335715,0 3.103572,-0.675 3.928572,-1.5 2.059977,-2.05997702 10.299446,-1.98626864 12.396611,0.1108972 1.481197,1.4811963 1.705737,1.4811963 2.788814,0 1.779366,-2.43342813 17.184829,-2.32121566 19.097189,0.1391028 1.29547,1.6666667 1.425016,1.6666667 2.720486,0 1.997949,-2.57043235 18.281565,-2.57043235 20.279514,0 1.29547,1.6666667 1.425016,1.6666667 2.720486,0 C 75.802276,-0.10522637 81,-0.69234018 81,1 c 0,0.55 1.575,1 3.5,1 1.925,0 3.5,-0.45 3.5,-1 0,-1.45731667 5.757453,-1.22705807 6.251072,0.25 0.635159,1.9005858 40.066258,1.8271415 44.505448,-0.082896 2.49763,-1.07464758 3.58381,-1.12954672 4.66097,-0.23558063 0.93936,0.77960143 1.61487,0.82513963 2.03984,0.13751343 0.42835,-0.69308315 1.22881,-0.65748037 2.45656,0.1092623 1.05587,0.659398 2.61225,0.8047219 3.70364,0.3458209 3.26899,-1.37451155 8.68102,-1.6590905 9.40089,-0.4943233 0.48203,0.7799549 7.17881,1.0572505 22.08668,0.9145504 24.08119,-0.2305085 27.89747,-0.1824956 36.3949,0.4578872 3.3,0.2486944 19.05,0.4105873 35,0.359762 15.95,-0.050825 31.7,-0.057619 35,-0.015097 3.3,0.042522 7.575,0.030953 9.5,-0.025709 1.925,-0.056662 19.7,-0.046369 39.5,0.022874 19.8,0.069242 57.375,0.087471 83.5,0.040508 26.125,-0.046963 50.425,-0.017016 54,0.066547 3.575,0.083564 19.17096,0.3715926 34.6577,0.6400645 15.48673,0.268472 29.24877,0.9029596 30.58232,1.4099726 4.39889,1.6724539 18.07372,16.4308763 23.29361,25.1393993 0.5685,0.948444 2.5935,3.014819 4.5,4.591945 1.90651,1.577125 3.61583,3.203369 3.7985,3.613875 0.87745,1.971889 6.6822,7.753625 7.78448,7.753625 0.68674,0 1.52699,0.877098 1.86724,1.949107 0.34024,1.072008 2.46615,3.434508 4.72425,5.25 2.2581,1.815491 4.72836,3.975893 5.48948,4.800893 6.33503,6.866792 9.65629,10.873781 10.78052,13.006356 0.7267,1.378495 5.97891,7.062406 11.67159,12.630913 11.02393,10.783488 32.23568,33.535561 37.57795,40.306731 0.6752,0.8558 4.7252,5.35426 9,9.99659 23.43986,25.45509 27.35947,30.01085 28.40796,33.01856 0.55773,1.59988 2.10538,3.62395 3.43922,4.49792 1.33385,0.87397 2.4379,2.14116 2.45345,2.81598 0.0155,0.67482 1.81555,3.91729 4,7.20548 2.18445,3.2882 3.97173,6.53049 3.97173,7.2051 0,0.67462 1.30125,4.05927 2.89167,7.52147 2.96567,6.456 5.97618,14.22338 8.25356,21.2949 0.70851,2.2 1.86567,4.88763 2.57148,5.97251 0.70581,1.08487 1.28329,3.68683 1.28329,5.78211 0,2.09529 0.675,5.42512 1.5,7.39962 0.825,1.97451 1.51976,6.57255 1.54391,10.21788 0.0241,3.64534 0.43777,10.00288 0.91916,14.12788 1.02666,8.7975 -0.34105,23.40173 -2.50022,26.69703 -0.80457,1.22793 -1.46285,2.79587 -1.46285,3.4843 0,2.19999 -10.13893,22.10241 -14.42642,28.31867 -2.27609,3.3 -5.79195,8.96357 -7.81303,12.58571 -5.15603,9.24056 -10.03456,16.31296 -15.26746,22.1332 -2.4712,2.74857 -4.49309,5.51694 -4.49309,6.15193 0,0.635 -5.625,6.96621 -12.5,14.06936 -6.875,7.10315 -12.5,13.4586 -12.5,14.12323 0,0.66463 -6.47487,7.89725 -14.3886,16.07249 -7.91373,8.17524 -15.90123,16.68353 -17.75,18.90729 -1.84877,2.22377 -5.94081,6.64251 -9.09342,9.81941 -3.15261,3.17691 -6.67473,6.98246 -7.82694,8.45679 -2.45986,3.14754 -27.03038,28.9588 -38.19104,40.11957 -4.2625,4.26254 -7.76206,8.15754 -7.7768,8.65555 -0.0147,0.49801 -2.31612,3.38047 -5.11417,6.40547 -2.79806,3.025 -6.18675,6.80263 -7.53043,8.39474 -3.27437,3.87975 -8.07342,4.8329 -23.8286,4.73266 -7.15,-0.0455 -28.975,-0.20527 -48.5,-0.35506 -19.525,-0.14979 -53.95,-0.0473 -76.5,0.22766 -22.55,0.275 -49.1,0.19008 -59,-0.18872 z M 87.25,503.33772 c -0.6875,-0.27741 -1.8125,-0.27741 -2.5,0 -0.6875,0.27741 -0.125,0.50439 1.25,0.50439 1.375,0 1.9375,-0.22698 1.25,-0.50439 z M 245.5,502 c 0.8234,-1.3323 10.10588,-1.28129 12.62966,0.0694 1.34463,0.71962 2.39444,0.74054 3.20968,0.0639 1.21678,-1.00984 93.54123,-0.9017 95.31021,0.11163 0.46775,0.26795 7.7522,-0.0211 16.18768,-0.64227 8.43547,-0.6212 15.54953,-0.78593 15.80901,-0.36607 0.73429,1.1881 4.81927,0.89786 6.15441,-0.43728 0.93421,-0.93421 1.97594,-0.92031 4.69417,0.0626 1.92144,0.6948 4.05864,0.89856 4.74935,0.45279 0.69071,-0.44576 5.98083,-0.89555 11.75583,-0.99953 22.67021,-0.40819 58.83415,-0.31276 65.06068,0.17168 4.46927,0.34772 7.11801,0.10291 8.30899,-0.76795 1.60101,-1.17069 1.38528,-1.62274 -2.56068,-5.36568 -7.14815,-6.78036 -19.23686,-17.49191 -26.92007,-23.85328 -3.98572,-3.3 -11.04197,-9.6 -15.68057,-14 -4.6386,-4.4 -9.39649,-8.675 -10.57308,-9.5 -1.1766,-0.825 -5.24676,-4.425 -9.04479,-8 -14.62735,-13.76838 -17.10583,-16 -17.76993,-16 -0.37718,0 -0.97142,-0.9 -1.32055,-2 -0.34913,-1.1 -1.17656,-2 -1.83874,-2 -1.13278,0 -7.48526,-5.59407 -31.06694,-27.35792 -5.44812,-5.02814 -11.41062,-10.1708 -13.25,-11.42813 C 357.50494,378.95662 356,377.57269 356,377.13856 c 0,-0.43414 -2.8125,-3.09043 -6.25,-5.90286 -3.4375,-2.81243 -10.0137,-8.741 -14.61377,-13.1746 -4.60008,-4.43361 -8.76006,-8.0611 -9.24441,-8.0611 -0.48434,0 -3.394,-2.3625 -6.4659,-5.25 -3.0719,-2.8875 -6.29004,-5.64659 -7.15143,-6.13131 -0.8614,-0.48471 -2.89716,-2.39721 -4.52392,-4.25 C 306.1238,332.51591 304.40262,331 303.92572,331 c -0.4769,0 -3.01779,-2.04393 -5.64641,-4.54207 -2.62862,-2.49814 -6.01681,-5.2097 -7.52931,-6.02568 C 289.2375,319.61626 288,318.49092 288,317.93148 288,316.63652 279.02867,307 277.8231,307 c -0.49676,0 -2.57269,1.6875 -4.61316,3.75 -6.54986,6.62059 -25.68576,24.26305 -28.23876,26.03492 -1.35915,0.94329 -6.81092,5.99008 -12.11504,11.21508 -9.01602,8.88152 -14.10488,13.76453 -32.89687,31.56615 -4.1026,3.88638 -12.18427,11.32292 -17.95927,16.52564 -5.775,5.20271 -14.775,13.68707 -20,18.85412 -5.225,5.16705 -11.09771,10.15581 -13.05047,11.08614 -4.00984,1.91035 -18.66656,14.553 -29.67461,25.59683 -4.04098,4.05411 -7.73967,7.37112 -8.2193,7.37112 -0.47964,0 -2.8528,1.9125 -5.27371,4.25 -2.4209,2.3375 -7.277063,6.725 -10.791477,9.75 -10.48726,9.02681 -17.465307,15.44045 -17.887258,16.44047 -0.218254,0.51727 -1.723815,2.1525 -3.345693,3.63385 -1.786777,1.63197 -2.798398,3.42879 -2.567044,4.55953 0.328186,1.604 1.201812,1.82822 6.219105,1.59613 3.210506,-0.14851 6.433186,0.22453 7.161512,0.82899 0.831591,0.69016 1.922632,0.76413 2.93276,0.19883 1.832215,-1.02536 24.298535,-0.44694 26.331045,0.67792 0.73417,0.40632 3.43417,0.41436 6,0.0179 2.56583,-0.39649 13.29968,-0.43575 23.85301,-0.0872 15.03956,0.49667 19.61547,0.34914 21.16576,-0.68238 1.64722,-1.09602 2.70253,-1.07004 6.31214,0.15539 2.92067,0.99154 4.72854,1.1473 5.54327,0.47759 0.66497,-0.54661 2.46497,-0.73776 4,-0.42477 3.11543,0.63523 11.46983,0.78316 40.7772,0.72202 11.55008,-0.0241 20.39305,0.3651 20.95,0.92205 1.23631,1.23631 2.28495,1.2239 3.06376,-0.0362 z m 320.3,-31.2 c 0.66,-0.66 1.2,-1.89959 1.2,-2.75464 0,-0.85506 2.01865,-3.12756 4.48589,-5.05 2.63942,-2.05661 4.82627,-4.73021 5.31281,-6.49536 0.4548,-1.65 1.70799,-3.45 2.78485,-4 3.97601,-2.03071 8.41645,-5.67337 8.41645,-6.90432 0,-0.69747 2.22436,-3.02933 4.94303,-5.1819 2.71866,-2.15258 5.47325,-5.15128 6.12132,-6.66378 0.64806,-1.5125 1.58003,-2.75 2.07105,-2.75 1.28425,0 10.82175,-10.27346 10.84505,-11.68191 0.0108,-0.65004 1.48205,-2.20113 3.26955,-3.44686 1.7875,-1.24572 4.6,-3.81469 6.25,-5.70883 1.65,-1.89413 4.35,-4.74532 6,-6.33597 1.65,-1.59066 4.26221,-4.11483 5.80491,-5.60927 1.5427,-1.49444 3.391,-4.08097 4.10734,-5.74784 0.71633,-1.66688 4.22838,-5.71688 7.80455,-9 3.57617,-3.28313 6.79792,-6.86932 7.15945,-7.96932 0.36152,-1.1 2.49063,-3.35 4.73133,-5 2.24071,-1.65 5.37448,-4.92221 6.96394,-7.27157 4.06919,-6.01462 4.65079,-6.70176 11.94297,-14.11014 3.58297,-3.64006 7.85797,-9.20472 9.5,-12.36591 1.64203,-3.1612 3.31697,-5.7487 3.72209,-5.75 0.40512,-0.001 1.41353,-1.62254 2.24091,-3.60274 0.82737,-1.98019 3.24566,-5.69269 5.37397,-8.25 C 700.7939,314.41254 711,295.97483 711,293.58976 c 0,-0.72222 1.39499,-4.38971 3.09997,-8.14997 2.78996,-6.15313 3.11417,-7.89203 3.24195,-17.38832 0.0781,-5.80331 -0.43964,-13.70147 -1.1505,-17.55147 -0.71087,-3.85 -1.6684,-9.7 -2.12785,-13 -1.05332,-7.5654 -1.77054,-10.12999 -4.0551,-14.5 -1.00635,-1.925 -2.3752,-6.29572 -3.04187,-9.71272 -1.17572,-6.02603 -5.98436,-16.06613 -13.78749,-28.78728 -5.97863,-9.74673 -12.18949,-18.5 -13.12664,-18.5 -0.48015,0 -3.77728,-3.4875 -7.32696,-7.75 -5.89056,-7.07345 -13.50018,-15.30027 -26.59312,-28.75 C 639.28112,122.46202 631,112.53055 631,111.35186 c 0,-0.54613 -2.8915,-3.31007 -6.42555,-6.14208 -3.53405,-2.83201 -7.21024,-6.4775 -8.16931,-8.101083 -0.95908,-1.623583 -2.78137,-3.507271 -4.04953,-4.185974 -1.26817,-0.678703 -5.21544,-4.651467 -8.7717,-8.828364 C 600.02764,79.917461 590.56642,69.801301 582.55898,61.614003 574.55154,53.426704 568,46.44745 568,46.104549 c 0,-0.3429 -0.88512,-1.176221 -1.96693,-1.851824 -2.9211,-1.824255 -5.70377,-0.315054 -12.70889,6.89276 C 546.50572,58.16123 532.05352,71.657168 522,80.397038 c -3.575,3.10787 -7.86233,6.877438 -9.5274,8.376817 -1.66508,1.49938 -7.06508,6.297819 -12,10.663197 -4.93493,4.365378 -12.5786,11.677878 -16.98594,16.249998 -4.40734,4.57212 -8.54506,8.31295 -9.19494,8.31295 -0.64989,0 -3.11888,2.09625 -5.48666,4.65834 -2.36778,2.56209 -7.66651,7.84959 -11.77494,11.75 -4.10843,3.90041 -9.73343,9.30111 -12.5,12.00155 -2.76657,2.70044 -9.08012,8.40073 -14.03012,12.66731 -4.95,4.26658 -11.32559,10.2918 -14.16798,13.38938 -2.84239,3.09758 -7.11739,7.03682 -9.5,8.75388 -2.38261,1.71706 -10.02231,8.78238 -16.97711,15.70073 -6.9548,6.91835 -13.2548,13.07616 -14,13.68402 -0.7452,0.60787 -3.46721,3.30787 -6.0489,6 -7.8341,8.16922 -17.39801,17.21276 -22.48663,21.26314 -7.77869,6.19158 -18.32201,16.69751 -18.28758,18.22272 0.0445,1.9707 1.64091,3.74742 7.9682,8.86809 5.00558,4.05101 7.59175,6.36768 19.24714,17.24147 2.06093,1.92272 5.18816,4.57664 6.94941,5.89761 1.76125,1.32097 3.90004,3.22209 4.75286,4.22472 0.85282,1.00263 3.09068,3.25263 4.97301,5 1.88233,1.74737 6.66582,6.26011 10.62997,10.02831 3.96415,3.7682 8.38406,7.62306 9.82202,8.56635 1.43796,0.94328 6.1912,5.17271 10.56276,9.39872 4.37156,4.22601 8.36675,7.68366 8.8782,7.68366 0.51145,0 2.79649,2.025 5.07787,4.5 2.28137,2.475 4.4024,4.5 4.71339,4.5 0.31099,0 1.98922,1.37528 3.7294,3.05617 1.74018,1.68089 7.52884,7.02387 12.86368,11.87329 5.33484,4.84941 11.40984,10.84467 13.5,13.3228 2.09016,2.47813 5.15029,5.31249 6.80029,6.29859 1.65,0.98609 5.7,4.3875 9,7.55869 3.3,3.17118 7.8,7.08589 10,8.69935 2.2,1.61346 5.35,4.39252 7,6.17569 1.65,1.78317 4.6875,4.32176 6.75,5.64132 2.0625,1.31955 3.75,3.04564 3.75,3.83575 0,0.79011 1.6875,2.69676 3.75,4.23699 2.0625,1.54023 5.20455,4.26313 6.98233,6.05089 3.10351,3.12092 4.28373,3.68013 7.01767,3.32512 0.6875,-0.0893 1.25224,0.6449 1.25497,1.63151 0.006,2.33195 3.17445,5.92577 9.99503,11.33852 3.025,2.40061 7.53833,6.18513 10.02963,8.41003 8.829,7.88494 17.05246,14.89252 20.21193,17.2235 1.76077,1.29906 3.57409,3.02789 4.02961,3.84186 0.99704,1.78162 4.86145,1.94731 6.52883,0.27993 z M 23.025028,451.40394 C 27.136262,447.22611 32.075,442.78821 34,441.54194 c 1.925,-1.24626 7.975718,-6.60304 13.44604,-11.90394 5.470321,-5.3009 10.307821,-9.638 10.75,-9.638 0.442178,0 1.816133,-1.01217 3.053233,-2.24927 1.237101,-1.2371 7.199601,-6.42951 13.25,-11.53869 6.0504,-5.10917 12.824739,-10.9595 15.054087,-13.00073 2.229348,-2.04122 7.358742,-6.63631 11.39865,-10.21131 4.03992,-3.575 8.0659,-7.22136 8.94664,-8.10303 0.88074,-0.88166 4.75135,-4.23431 8.60135,-7.45032 3.85,-3.21602 7.65553,-6.76965 8.45673,-7.89697 2.01695,-2.83793 7.63287,-7.94927 17.12141,-15.58308 7.38013,-5.93753 10.85574,-9.14614 25.13678,-23.20579 6.55822,-6.45656 12.5241,-12.08156 13.25751,-12.5 0.73342,-0.41845 3.82619,-3.08642 6.87283,-5.92883 3.04664,-2.84241 6.23762,-5.5588 7.09107,-6.03641 C 199.12088,294.79322 230,265.81835 230,264.80171 c 0,-1.11618 -19.10256,-19.74178 -20.28426,-19.7778 -0.43135,-0.0131 -3.79684,-2.94891 -7.47888,-6.52391 -3.68204,-3.575 -7.08998,-6.5 -7.57321,-6.5 -0.48323,0 -3.19797,-2.3625 -6.03276,-5.25 -2.8348,-2.8875 -10.96466,-10.65 -18.06637,-17.25 -7.1017,-6.6 -13.83725,-12.9 -14.96788,-14 -1.13063,-1.1 -3.8649,-3.49126 -6.07616,-5.3139 -2.21127,-1.82265 -7.40149,-6.54765 -11.53383,-10.5 C 133.8543,175.73374 125.32629,168 119.0355,162.5 103.15596,148.61659 102.72184,148.22221 91.5,137.48517 86,132.22278 80.040575,126.92332 78.256833,125.70859 c -1.783742,-1.21472 -3.246242,-2.7165 -3.25,-3.33727 -0.0038,-0.62077 -1.358586,-1.68859 -3.010729,-2.37293 -1.652143,-0.68434 -4.239643,-2.91185 -5.75,-4.95001 C 63.574442,111.44309 56.798717,105 55.678955,105 55.372597,105 52.057004,101.95255 48.31097,98.227886 40.715205,90.675454 21.208187,72.581871 16.355644,68.587971 13.252599,66.034001 11.055099,65.287939 10.941965,66.75 c -0.03192,0.4125 -0.248294,8.4 -0.480834,17.75 -0.232539,9.35 -0.4938002,19.025 -0.5805801,21.5 -0.6015119,17.15539 -0.3597947,228.15523 0.2846771,248.5 1.656154,52.28171 1.942634,65.21903 1.843851,83.26752 -0.058,10.59714 0.167787,19.70964 0.50175,20.25 1.25317,2.02767 3.241353,0.77708 10.514199,-6.61358 z M 462,449 c 0,-1.1 -0.45,-2 -1,-2 -0.55,0 -1,0.9 -1,2 0,1.1 0.45,2 1,2 0.55,0 1,-0.9 1,-2 z m 4.5,-23 c -0.33992,-0.55 -1.04148,-1 -1.55902,-1 -0.51754,0 -0.94098,0.45 -0.94098,1 0,0.55 0.70156,1 1.55902,1 0.85746,0 1.2809,-0.45 0.94098,-1 z M 632,407 c 0,-0.55 -0.45,-1 -1,-1 -0.55,0 -1,0.45 -1,1 0,0.55 0.45,1 1,1 0.55,0 1,-0.45 1,-1 z M 285.54537,215.75 c 4.05751,-2.47809 6.7729,-5.03063 10.24778,-9.6332 1.26124,-1.67054 4.07374,-4.03808 6.25,-5.26121 C 304.21942,199.63246 306,198.31355 306,197.92469 306,197.16244 335.50455,170 336.33252,170 337.26915,170 355,151.95493 355,151.0017 c 0,-0.52269 1.43877,-1.69435 3.19726,-2.60371 1.75849,-0.90935 4.79599,-3.34723 6.75,-5.41753 1.95401,-2.07029 4.92528,-4.60033 6.60282,-5.62231 1.67755,-1.02198 6.62755,-5.63089 11,-10.24203 4.37246,-4.61113 10.19992,-10.16902 12.94992,-12.35086 5.75072,-4.5626 15.1328,-12.6779 20.53839,-17.76526 2.04542,-1.925 7.86651,-7.325 12.93576,-12 5.06925,-4.675 14.7794,-13.848074 21.57811,-20.384609 6.79872,-6.536535 13.66682,-12.678546 15.26247,-13.648913 1.59564,-0.970368 6.68526,-5.522294 11.31026,-10.115391 C 488.29071,29.762385 497.89687,21 498.88763,21 c 0.44132,0 1.65573,-0.942925 2.69869,-2.095388 1.86606,-2.061965 1.862,-2.123163 -0.25413,-3.836704 -1.89898,-1.537701 -5.79475,-1.817416 -33.31659,-2.392118 -17.14138,-0.357941 -31.57861,-0.905715 -32.08272,-1.217275 -0.50412,-0.311561 -18.44404,-0.724428 -39.86649,-0.917483 C 374.64394,10.347977 356.75277,10.009967 356.30824,9.789898 355.86371,9.5698291 346.725,9.7255697 336,10.135988 c -10.725,0.410419 -42.675,0.585462 -71,0.388985 -28.325,-0.196478 -55.43125,-0.364554 -60.23611,-0.373503 -4.80487,-0.009 -9.22578,-0.3188983 -9.82425,-0.6887746 -1.55016,-0.9580486 -11.01077,-1.1566141 -11.57545,-0.242953 -0.73597,1.1908226 -27.32625,0.056635 -28.87872,-1.2317982 -1.00843,-0.8369278 -1.91525,-0.8283005 -3.52562,0.033542 -2.69828,1.4440757 -14.82541,3.0987955 -25.66708,3.5022165 -4.51397,0.167966 -8.56397,0.503425 -9,0.745463 C 115.85675,12.511204 107.175,12.567491 97,12.394246 86.825,12.221002 74.3375,12.339938 69.25,12.658548 60.543451,13.203804 60,13.367897 60,15.451555 c 0,1.405878 1.550926,3.450952 4.25,5.604112 4.306921,3.435804 21.200756,19.460233 25.115557,23.823037 1.173944,1.308287 4.358597,4.458287 7.077006,7 2.71841,2.541713 7.893407,7.438104 11.499997,10.880869 3.60659,3.442766 7.27019,6.930266 8.14133,7.75 C 116.95503,71.329308 118.08733,72 118.60011,72 c 0.51279,0 4.07504,2.950862 7.91612,6.557471 3.84107,3.606609 10.78882,10.019109 15.43944,14.25 4.65061,4.230891 10.29383,9.605029 12.54048,11.942529 2.24665,2.3375 4.6291,4.25 5.29434,4.25 0.66523,0 1.20951,0.41447 1.20951,0.92105 0,1.6371 9.12558,10.10237 13.04697,12.10291 2.09418,1.06838 4.1037,2.73755 4.4656,3.70927 0.36189,0.97172 4.05607,4.69177 8.20928,8.26677 4.15321,3.575 10.58628,9.425 14.29571,13 3.70943,3.575 8.26047,7.90837 10.11343,9.6297 1.85295,1.72134 3.81901,3.60568 4.36901,4.18743 2.63209,2.78402 23.41478,22.58363 26.5,25.24648 1.925,1.66146 7.325,6.14668 12,9.96717 10.4053,8.50338 10.50887,8.59683 15.69632,14.16396 3.61854,3.8834 9.26262,7.70817 11.48434,7.78249 0.37436,0.0125 2.33848,-0.98973 4.36471,-2.22723 z M 671,150 c 0,-0.55 -0.45,-1 -1,-1 -0.55,0 -1,0.45 -1,1 0,0.55 0.45,1 1,1 0.55,0 1,-0.45 1,-1 z M 428.39301,111.41821 C 429.27345,109.12382 429.20213,109 427,109 c -1.92719,0 -2.7099,1.95677 -1.33333,3.33333 1.09507,1.09508 2.08209,0.76378 2.72634,-0.91512 z M 638,110.5 c 0,-0.825 -0.45,-1.5 -1,-1.5 -0.55,0 -1,0.675 -1,1.5 0,0.825 0.45,1.5 1,1.5 0.55,0 1,-0.675 1,-1.5 z"
       id="path1" />
    <rect
       style="fill:#000000"
       id="rect1"
       width="14.168553"
       height="12.236478"
       x="421.83649"
       y="106.26415" />
    <rect
       style="fill:#000000"
       id="rect2"
       width="24.472956"
       height="40.573586"
       x="450.17358"
       y="416.68427" />
    <rect
       style="fill:#000000"
       id="rect3"
       width="5.7962265"
       height="9.0163527"
       x="211.24025"
       y="302.69183" />
    <rect
       style="fill:#000000"
       id="rect4"
       width="10.948427"
       height="9.0163527"
       x="191.27547"
       y="347.77359" />
    <rect
       style="fill:#000000"
       id="rect5"
       width="2.5761006"
       height="3.2201257"
       x="635.65283"
       y="108.84025" />
    <rect
       style="fill:#000000"
       id="rect6"
       width="3.2201257"
       height="3.864151"
       x="668.49811"
       y="148.12579" />
    <rect
       style="fill:#000000"
       id="rect7"
       width="0.64402515"
       height="7.0842767"
       x="213.81635"
       y="306.55597" />
  </g>
</svg>
