<?xml version="1.0" encoding="UTF-8" standalone="no"?>
<!-- Created with Inkscape (http://www.inkscape.org/) -->

<svg
   version="1.1"
   id="svg1"
   width="738"
   height="510"
   viewBox="0 0 738 510"
   sodipodi:docname="5.svg"
   inkscape:version="1.4 (86a8ad7, 2024-10-11)"
   xmlns:inkscape="http://www.inkscape.org/namespaces/inkscape"
   xmlns:sodipodi="http://sodipodi.sourceforge.net/DTD/sodipodi-0.dtd"
   xmlns="http://www.w3.org/2000/svg"
   xmlns:svg="http://www.w3.org/2000/svg">
  <defs
     id="defs1" />
  <sodipodi:namedview
     id="namedview1"
     pagecolor="#ffffff"
     bordercolor="#000000"
     borderopacity="0.25"
     inkscape:showpageshadow="2"
     inkscape:pageopacity="0.0"
     inkscape:pagecheckerboard="0"
     inkscape:deskcolor="#d1d1d1"
     inkscape:zoom="1.5588235"
     inkscape:cx="368.86792"
     inkscape:cy="255"
     inkscape:window-width="1920"
     inkscape:window-height="1013"
     inkscape:window-x="2391"
     inkscape:window-y="605"
     inkscape:window-maximized="1"
     inkscape:current-layer="g1" />
  <g
     inkscape:groupmode="layer"
     inkscape:label="Image"
     id="g1">
    <path
       style="fill:#000000"
       d="m 500.10781,508.7006 -1.89219,1.18169 -0.49211,-0.49212 -0.49212,-0.49212 -14.8657,-0.49591 -14.86569,-0.49592 -7,0.14983 -7,0.14982 -36.5,-0.0857 -36.5,-0.0857 -31.5,-0.48355 -31.5,-0.48355 -24.24731,-0.0438 -24.24732,-0.0438 -1.92148,1.19998 -1.92149,1.19999 -1.47409,-1.22338 -1.47408,-1.22339 -48.85712,0.13787 L 164.5,507.20864 128,506.9679 91.5,506.72717 48.899799,506.51518 6.2995978,506.3032 5.1769738,505.60938 4.0543497,504.91556 2.9637754,500.86547 1.873201,496.81539 2.1049026,378.65769 2.3366042,260.5 2.3513816,255 2.3661589,249.5 2.1570742,180 1.9479894,110.5 2.4545774,62.257901 2.9611653,14.015803 5.6134689,10.007901 8.2657725,6 10.432886,6 12.6,6 13.55,5.0867733 14.5,4.1735465 27,3.9773574 39.5,3.7811682 41,3.9181635 42.5,4.0551588 105,3.4893482 l 62.5,-0.5658107 9.5,-0.042222 9.5,-0.042222 7.5,-0.044626 7.5,-0.044626 32,0.2828415 32,0.2828414 4.5,0.017458 4.5,0.017459 29.5,-0.6648794 29.5,-0.6648793 1.5,-0.039336 1.5,-0.039336 25.5,-0.1585268 25.5,-0.1585269 4,0.1502625 4,0.1502625 13,0.232648 13,0.232648 18,-0.319704 18,-0.319704 1,-0.78846288 1,-0.78846286 L 464,1 l 4.5,0.8255569 1.09201,-0.90410249 1.09201,-0.90410253 0.61205,0.61204881 0.61205,0.61204881 9.59825,0.1559634 9.59825,0.1559635 1.14381,-0.7069128 1.14381,-0.70691277 1.57256,0.84161088 1.57256,0.84161089 25.71564,0.5458467 25.71563,0.5458468 4.05534,1.0919877 4.05533,1.0919878 1.57506,3.3029318 1.57506,3.3029316 2.88529,1.704384 2.88529,1.704383 0.0201,1.693464 0.0201,1.693464 8.72987,9.17964 8.72987,9.179641 5.61944,6.320359 5.61944,6.32036 4.88056,5.835255 4.88056,5.835255 7.26171,7.664745 7.26171,7.664745 0.55568,1.75 0.55568,1.75 1.03618,0 1.03618,0 4.14643,4.722007 4.14643,4.722007 13.12638,13.527996 13.12639,13.52799 3.37361,3.92489 3.37362,3.92489 4.24441,4.57511 4.24441,4.57511 0.006,1.09253 0.006,1.09253 3.53445,1.90342 3.53444,1.90343 2.60156,3.75404 2.60155,3.75405 0.864,0 0.864,0 v 1.63533 1.63533 l 2.55152,2.36467 2.55152,2.36467 0.71339,0 0.71338,0 2.77249,2.75 2.77249,2.75 8.25848,8.55896 8.25848,8.55896 2.13495,2.99827 2.13496,2.99826 2.06866,5.44278 2.06867,5.44277 0.0227,2 0.0227,2 1.95553,2.5 1.95553,2.5 0.0222,1.01481 0.0222,1.01481 2.04533,3.81613 2.04532,3.81614 0.89967,4.16905 0.89967,4.16906 2.08941,10 2.0894,10 0.0131,4.5 0.0131,4.5 0.5304,14.99908 0.5304,14.99907 -0.96609,3.50093 -0.9661,3.50092 -2.27375,9.5 -2.27374,9.5 -3.79551,7 -3.79551,7 -3.13181,6.44168 -3.13181,6.44168 -4.66069,4.96624 -4.6607,4.96625 -5.30092,5.50169 -5.30093,5.5017 -7.29527,8.09038 -7.29528,8.09038 -1.04427,1.92997 -1.04427,1.92997 -10.35953,11.03324 L 659.5,396.42643 645.85858,410.46321 632.21716,424.5 l -3.18935,3.16923 -3.18935,3.16923 -0.91162,0.83077 -0.91163,0.83077 -4.07784,4.5 -4.07784,4.5 -1.64537,2.75 -1.64538,2.75 h -0.74392 -0.74392 l -2.54047,2.73978 L 606,452.47956 v 1.10051 1.10051 l -3.53619,2.51603 -3.53619,2.51604 -2.71381,4.06901 -2.71381,4.06902 -7.27079,8.32466 -7.27079,8.32466 -4.22921,4.94829 -4.22921,4.94829 -2.75,2.70292 -2.75,2.70292 -0.057,0.84879 -0.0569,0.84879 -4.88001,3.71569 -4.88002,3.71569 -6.31303,0.60086 -6.31304,0.60086 -6,-0.85866 -6,-0.85867 -8.5,0.66042 -8.5,0.66043 -1.28409,-1.01904 -1.28409,-1.01905 -2.32751,1.24564 -2.3275,1.24565 -2.13841,-1.33546 L 502,507.51891 Z M 185.5,504 h 0.5 v -0.5 -0.5 h -0.5 -0.5 v 0.5 0.5 z m 169,-3.95005 3,-0.54995 h 10.2488 10.24881 l 4.7e-4,-0.5 4.7e-4,-0.5 15.75072,0.25804 15.75073,0.25804 29,-0.1661 29,-0.1661 4,0.0477 4,0.0477 27.3999,0.0767 27.3999,0.0767 0.69395,-0.42889 0.69394,-0.42888 3.84675,1.06214 3.84674,1.06214 7.35355,-0.68909 7.35355,-0.68908 1.20586,-1.49163 1.20586,-1.49163 5.5,-5.72665 5.5,-5.72665 5.25,-5.81438 5.25,-5.81437 v -0.25959 -0.2596 l 7.51676,-7.99645 7.51677,-7.99644 3.52904,-4.62185 L 600.09161,447 h 0.9542 H 602 v -1.38321 -1.3832 l 4.4337,-3.3668 4.43369,-3.36679 2.62056,-4.10642 2.62055,-4.10641 3.5571,-3.39359 3.55711,-3.39358 3.8152,-5 3.8152,-5 10.07345,-10.32854 L 651,391.84293 l 0.004,-0.67147 0.004,-0.67146 11.14668,-11.5 11.14668,-11.5 5.0995,-5.58446 5.0995,-5.58445 3.5,-4.09551 3.5,-4.09552 8.84976,-9.32003 8.84976,-9.32003 2.90024,-4.18018 L 714,321.13965 v -1.06694 -1.06695 l 3.46062,-3.83049 3.46061,-3.83048 0.6976,-4.4224 0.69761,-4.42239 1.90842,-3.68415 1.90843,-3.68415 0.84043,-5.9458 0.84044,-5.9458 0.10645,-12.87005 0.10645,-12.87005 0.62076,-4.79111 0.62075,-4.7911 -1.73982,-11.7089 -1.73981,-11.70889 -2.05546,-6.5 -2.05545,-6.5 -4.33902,-9.17027 L 713,193.15946 v -1.42713 -1.42713 l -6.42494,-7.52999 -6.42494,-7.53 -6.82506,-7.03519 -6.82506,-7.0352 -6,-6.73951 -6,-6.73951 -12,-12.60709 -12,-12.60709 -5.17635,-5.74081 L 640.1473,111 l -1.00626,0 -1.00626,0 -0.57921,-1.82492 -0.57921,-1.82493 -9.23818,-9.739446 L 618.5,87.871253 600.76367,69.685627 583.02734,51.5 581.7277,50 580.42806,48.5 576.96403,43.780921 573.5,39.061842 571.32673,39.030921 569.15345,39 l -3.21711,2.707023 -3.21712,2.707023 -3.98103,5.042977 -3.98104,5.042977 -6.37897,7 -6.37897,7 -12.24961,14.299905 -12.2496,14.299904 -2.5,3.295041 -2.5,3.29504 -4.39672,5.81097 -4.39672,5.81096 -7.08462,7.09409 -7.08462,7.09409 -0.39069,14.5 -0.39069,14.5 1.13712,17 1.13711,17 0.46487,9 0.46486,9 0.88606,10 0.88606,10 0.19876,13.43503 0.19876,13.43503 0.95949,4.56497 0.95949,4.56497 0.91029,18 0.9103,18 1.18869,9.19088 1.18869,9.19088 -0.61052,2.43253 -0.61053,2.43253 -3.13099,1.2969 -3.13099,1.2969 -1.70353,2.80124 -1.70354,2.80123 -9.63327,11.27846 -9.63326,11.27845 -3.79493,4.38343 -3.79493,4.38343 -2.28732,1.04409 -2.28732,1.04409 -1.57247,3.31373 -1.57246,3.31372 -6.29457,6.41971 -6.29456,6.41972 -0.66304,2.08904 L 440.86522,391 h -0.91141 -0.91141 l -4.7712,4.89602 -4.7712,4.89602 -2.5,3.29176 -2.5,3.29176 -5.5,5.97091 -5.5,5.9709 -1.81277,2.09131 -1.81276,2.09132 -8.68724,9.15113 -8.68723,9.15113 -4.84616,6.09887 L 382.80769,454 H 381.90384 381 v 1.67126 1.67126 l -1.65499,1.82874 L 377.69002,461 H 376.34501 375 v 0.80543 0.80543 l -5.61462,6.80686 -5.61461,6.80686 -2.87906,1.63771 -2.87906,1.63771 -0.006,1.08785 -0.006,1.08784 -4.49248,4.41216 -4.49248,4.41215 -0.008,1.21482 -0.008,1.21481 -2,1.07037 -2,1.07037 v 2.40146 2.40145 l 3.25,0.36331 3.25,0.3633 z M 133.5,499.5 h 4 l 1.06509,-0.69474 1.06509,-0.69474 26.93491,-0.1239 26.93491,-0.12391 30.5,0.29279 30.5,0.29278 9.98646,-0.29393 9.98646,-0.29394 0.39746,-0.39746 0.39746,-0.39745 0.496,-2.78275 0.496,-2.78275 -0.0803,-3.5 -0.0803,-3.5 -0.46586,-37.4723 -0.46587,-37.47229 1.0091,-1.88553 1.0091,-1.88552 -1.20782,-6.40122 -1.20783,-6.40123 1.03782,-1.25049 1.03782,-1.2505 -0.71622,-3.49046 -0.71622,-3.49046 0.8463,-6.33372 0.84631,-6.33372 -0.88737,-1.16628 -0.88738,-1.16628 -0.1482,-12.73834 -0.14819,-12.73835 2.49703,-1.63612 2.49704,-1.63612 4.46781,-0.50358 4.46782,-0.50359 0.66682,1.7377 0.66682,1.73771 -0.0104,2.64034 -0.0104,2.64035 -0.46422,44 -0.46421,44 0.5755,31 0.57551,31 20,0.67772 20,0.67771 1.75,-0.4951 1.75,-0.49511 v -1.02488 -1.02488 l 2.08181,-2.65773 2.0818,-2.65773 3.79315,-4.05784 3.79314,-4.05784 1.61081,-2.94216 1.61082,-2.94216 3.96793,-3 3.96793,-3 0.0463,-1.25 L 357,468 h 0.85842 0.85842 l 3.48666,-5.25 3.48665,-5.25 4.65493,-4.78838 L 375,447.92323 v -1.493 l 0,-1.493 -1.48749,-0.5708 -1.48748,-0.5708 -2.99041,1.04246 -2.99041,1.04246 -0.58339,-0.94395 -0.58339,-0.94394 -2.26292,0.56796 -2.26292,0.56795 -1.33611,-1.60991 -1.33611,-1.60992 0.13526,-3.59795 0.13526,-3.59794 1.68004,-1.85643 1.68005,-1.85642 8.09501,-0.009 8.09501,-0.009 2.64367,3.21661 2.64367,3.21661 4.62184,-3.78726 4.62185,-3.78726 1.63462,-3.17033 1.63461,-3.17034 5.62726,-5.5 5.62726,-5.5 5.97261,-6.91357 5.97261,-6.91357 4.8242,-5.08643 4.8242,-5.08643 1.32833,-2.5 1.32833,-2.5 3.09615,-2.27896 3.09615,-2.27896 1.41406,-3.22104 1.41406,-3.22104 5.83726,-5.71959 5.83726,-5.71959 3.50049,-3.28041 3.50049,-3.28041 1.99951,-3.13558 1.99951,-3.13559 9.5,-10.31853 9.5,-10.31853 2.74748,-2.94156 2.74748,-2.94156 -0.56758,-17.60433 -0.56759,-17.60432 -1.40086,-4 -1.40085,-4 0.095,-2 0.095,-2 -1.12072,-20.33291 -1.12071,-20.33291 -0.89712,-1.60306 -0.89712,-1.60306 1.02742,-2.25494 1.02742,-2.25495 -1.1336,-4.5019 -1.13359,-4.50191 -0.061,-9.80718 -0.061,-9.80718 -1.49359,-25 -1.49359,-25 0.0276,-3 0.0276,-3 0.77702,-8.1497 0.77703,-8.1497 5.5,-6.03187 5.5,-6.03186 6.21393,-6.81843 6.21392,-6.81844 1.92879,-2.093029 1.92879,-2.093029 2.44847,-1.92597 2.44848,-1.925969 1.23983,-2.316648 1.23983,-2.316648 -0.48364,-0.483641 -0.48364,-0.483642 -1.84738,0.99629 -1.84738,0.99629 -2,0.779633 -2,0.779632 -14.5,0.175647 -14.5,0.175646 -25,0.313197 -25,0.313197 -5.79841,-1.276426 -5.79842,-1.276427 -3.06379,1.068043 -3.06379,1.068043 -22.32398,-0.0158 -22.32397,-0.0158 -2.06382,-3.339327 L 358,83.263932 l 0,-3.90946 v -3.90946 l 1.65309,-2.36011 1.65308,-2.36011 11.59692,0.860208 11.59691,0.860207 7,-0.04322 7,-0.04322 22,-0.204141 22,-0.204142 2.5,0.35116 2.5,0.351161 11.5,-0.716605 11.5,-0.716605 0.82726,0.767464 0.82727,0.767464 3.17273,-0.694639 3.17274,-0.694639 17.99313,0.227311 17.99312,0.227312 2.81717,3.340064 2.81717,3.340064 1.9897,-2.5 1.98971,-2.5 3.7,-4.11589 3.7,-4.115889 5,-6.235902 5,-6.235903 5.62933,-6.648208 5.62933,-6.648208 4.62067,-4.767559 4.62067,-4.76756 -0.0157,-1.23244 -0.0157,-1.232441 -4.54752,-5 -4.54751,-5 -1.41601,-2.660131 -1.416,-2.660131 -6.2708,-0.339869 L 537.5,11.5 l -111,0.169718 -111,0.169719 -9.5537,0.03463 -9.55369,0.03463 -1.57472,1.795655 -1.57471,1.795655 -0.70662,10 -0.70661,10 -0.52682,32 -0.52682,32 0.009,7 0.009,7 0.0757,24.5 0.0757,24.5 -0.75904,4 -0.75903,4 -3.80828,-0.12246 -3.80827,-0.12246 -1.85682,-1.87754 -1.85682,-1.87754 -0.99431,-6.5 -0.99431,-6.5 -0.17063,-13 -0.17064,-13 -0.0718,-19 -0.0718,-19 0.0143,-7.5 0.0142,-7.5 0.10782,-6.75 0.10781,-6.75 0.0256,-3.75 0.0256,-3.75 -0.24764,-15.5 -0.24764,-15.5 0.66892,-2.001467 0.66892,-2.001466 -1.13075,-3.438022 -1.13076,-3.438022 -11.10599,0.262319 -11.10598,0.26232 -3.8287,0.863511 -3.8287,0.863512 -1.56532,-0.835387 -1.56531,-0.835387 -14.5,-0.04465 -14.5,-0.04464 -45.78791,-0.147291 -45.78791,-0.147291 -1.27717,1.059951 -1.27716,1.059952 -4.93493,-0.739113 -4.93492,-0.739113 -5,0.287449 -5,0.28745 -37.5,0.461429 -37.5,0.46143 -5.137885,0.647275 -5.137886,0.647276 -0.797906,5.123988 -0.797907,5.123987 -0.261792,3 -0.261793,3 -0.492789,55.5 -0.492789,55.5 -0.5276328,33 -0.5276332,33 -0.5821505,20.08593 -0.5821506,20.08593 1.7016922,1.41407 L 11.30307,251.5 18.901535,251.32485 26.5,251.14969 34.642178,250.82485 42.784356,250.5 44.892178,252.40499 47,254.30998 l -0.01238,4.09501 -0.01238,4.09501 -3.648362,2.36456 -3.648361,2.36456 -14.08926,-0.269 L 11.5,266.69112 9.9649588,266.84556 8.4299177,267 8.4173628,338.25 8.404808,409.5 7.9098238,442 7.4148397,474.5 8.4574198,485.20495 9.5,495.9099 l 1.147432,1.14248 1.147431,1.14248 53.852569,0.0555 53.852568,0.0555 5,0.59707 5,0.59706 z m -8,-56.24026 L 65.5,443.5 55.347854,443.2161 45.195707,442.93219 43.597854,439.56497 42,436.19774 v -2.92456 -2.92455 l 2.473643,-2.32387 2.473644,-2.32387 8.776356,0.78741 8.776357,0.78741 2.5,-0.13627 2.5,-0.13627 27.57764,-0.0424 27.57764,-0.0424 2.42236,0.82238 2.42236,0.82237 8.0032,-0.0701 8.0032,-0.07 1.0733,-0.66334 1.0733,-0.66333 6.31695,1.47364 6.31695,1.47365 2.10655,-0.72271 2.10655,-0.7227 0.5,-0.12199 0.5,-0.12199 5.62875,-0.77724 5.62875,-0.77724 2.18517,1.16947 2.18517,1.16947 1.35526,-1.12477 1.35526,-1.12476 5.86266,-0.0831 5.86265,-0.0831 3.21816,1.66418 3.21817,1.66418 v 3.42727 3.42726 l -1.12707,2.47364 -1.12706,2.47364 -7.12294,0.58315 -7.12293,0.58315 z m 310.42431,-89.26096 -1.57568,0.001 -2.0862,-2.25 -2.0862,-2.25 -0.53428,-33.26759 -0.53428,-33.2676 -1.55384,-1.55383 -1.55383,-1.55384 1.5,-1.5 1.5,-1.5 0.0562,-6.17857 0.0562,-6.17857 0.26785,-50.68557 0.26785,-50.68557 1.29836,-1.56443 L 432.24489,160 h 4.1895 l 4.18949,0 2.39782,3.24322 2.39781,3.24322 0.28576,58.50678 0.28576,58.50678 0.11904,2 0.11905,2 -0.85876,11 -0.85877,11 0.0931,5.5 0.0931,5.5 0.26517,10.6137 0.26517,10.61369 -1.35473,3.88631 -1.35472,3.8863 -2.50929,2.24878 -2.50929,2.24878 z M 117.83651,353 h -1.71848 l -0.6552,-1.06014 -0.6552,-1.06013 -0.58904,-8.18987 -0.58905,-8.18986 -0.18927,-74 -0.18927,-74 0.69624,-10.77174 0.69624,-10.77174 1.05718,-1.05718 1.05717,-1.05717 3.87109,-0.5163 3.87108,-0.5163 2.77762,2.18952 2.77762,2.18952 -0.64923,3.46069 -0.64923,3.46069 -0.29186,13.695 -0.29186,13.69501 0.0784,32 0.0784,32 -0.15192,8.5 -0.15191,8.5 -0.16013,12 -0.16013,12 0.71091,10 0.71091,10 0.28141,7.81232 0.2814,7.81232 -2.95089,4.45503 -2.95089,4.45503 -2.11678,1.48265 L 119.55499,353 Z m 147.2303,-82.76743 -62.4332,0.26743 -2.3168,-1.82258 L 198,266.85484 v -5.8684 -5.86841 l 1.20106,-0.74229 1.20105,-0.74229 11.04895,-0.43247 11.04894,-0.43246 2.5,0.18892 2.5,0.18892 8,0.17682 8,0.17682 1,-0.47474 1,-0.47474 3.84474,-0.2656 3.84474,-0.26561 2.02658,1.41947 2.02657,1.41947 2.2418,-0.85233 2.24179,-0.85233 4.00725,0.53749 4.00724,0.53748 0.68866,-1.11428 L 271.11803,252 h 3.38197 3.38197 l 0.61946,1.00231 0.61945,1.0023 7.68956,-0.60509 7.68956,-0.6051 1.75,0.17422 1.75,0.17422 5.5,-0.0929 5.5,-0.0929 8.25,-0.0134 8.25,-0.0134 18.35686,0.4765 18.35685,0.4765 1.89315,1.71327 L 366,257.30998 V 260 v 2.69002 l -1.75,1.52739 -1.75,1.52739 -3.5,1.60169 -3.5,1.6017 -2,0.0867 -2,0.0867 -12,0.42178 -12,0.42177 z M 261.5,268 h 0.5 v -0.5 -0.5 h -0.5 -0.5 v 0.5 0.5 z M 101.94777,89.281099 100.39553,90.062198 99.824324,89.490991 99.253117,88.919784 91.876559,88.485949 84.5,88.052115 69.779817,87.948613 55.059634,87.84511 l -1.049367,0.648545 -1.049368,0.648545 -3.542467,-1.16912 -3.542468,-1.16912 -0.917362,-2.412846 -0.917363,-2.412846 0.625245,-4.561655 0.625244,-4.561655 2.252507,-1.475899 2.252507,-1.475899 19.851629,0.59309 19.851629,0.59309 22,0.122109 22,0.122109 1.18608,0.902615 1.18608,0.902615 1.84633,-0.988129 1.84634,-0.988128 6.96758,-0.139524 6.96759,-0.139524 11.5,-0.176961 11.5,-0.17696 11.5,-0.0079 11.5,-0.0079 3.25,2.431148 3.25,2.431149 0,2.195579 v 2.195579 l -4.05228,3.660989 -4.05227,3.660989 -2.69773,1.07782 -2.69772,1.077821 -11.5,-0.155327 -11.5,-0.155326 -15,0.07492 -15,0.07492 -9,-0.15464 -9,-0.154641 -9,-0.137404 L 103.5,88.5 Z M 636.5,415 h 0.5 v -0.5 -0.5 h -0.5 -0.5 v 0.5 0.5 z m 14.7,-14.8 1.2,-1.2 -1.2,-1.2 -1.2,-1.2 v 2.4 2.4 z m 7.35902,-7.2 H 659 v -1 -1 h -1.05902 -1.05901 l 0.61803,1 0.61803,1 z M 416.55968,78 h 1.22634 l 0.57561,-1.5 0.5756,-1.5 h -1.9096 -1.9096 l -0.53183,0.86052 -0.53183,0.86052 0.63948,0.63948 L 415.33333,78 Z"
       id="path1" />
    <rect
       style="fill:#000000"
       id="rect1"
       width="1.2830188"
       height="3.2075472"
       x="658.18866"
       y="390.03775" />
    <rect
       style="fill:#000000"
       id="rect2"
       width="3.2075472"
       height="4.4905663"
       x="647.9245"
       y="397.73584" />
    <rect
       style="fill:#000000"
       id="rect3"
       width="20.528301"
       height="5.7735848"
       x="404.15094"
       y="75.698112" />
    <rect
       style="fill:#000000"
       id="rect4"
       width="7.6981134"
       height="1.2830188"
       x="408.64151"
       y="76.339622" />
    <rect
       style="fill:#000000"
       id="rect5"
       width="19.245283"
       height="3.8490567"
       x="409.92453"
       y="75.698112" />
    <rect
       style="fill:#000000"
       id="rect6"
       width="7.6981134"
       height="4.4905663"
       x="257.88678"
       y="262.37735" />
  </g>
</svg>
