<?xml version="1.0" encoding="UTF-8" standalone="no"?>
<!-- Created with Inkscape (http://www.inkscape.org/) -->

<svg
   version="1.1"
   id="svg1"
   width="713"
   height="508"
   viewBox="0 0 713 508"
   sodipodi:docname="6.svg"
   inkscape:version="1.4 (86a8ad7, 2024-10-11)"
   xmlns:inkscape="http://www.inkscape.org/namespaces/inkscape"
   xmlns:sodipodi="http://sodipodi.sourceforge.net/DTD/sodipodi-0.dtd"
   xmlns="http://www.w3.org/2000/svg"
   xmlns:svg="http://www.w3.org/2000/svg">
  <defs
     id="defs1" />
  <sodipodi:namedview
     id="namedview1"
     pagecolor="#ffffff"
     bordercolor="#000000"
     borderopacity="0.25"
     inkscape:showpageshadow="2"
     inkscape:pageopacity="0.0"
     inkscape:pagecheckerboard="0"
     inkscape:deskcolor="#d1d1d1"
     inkscape:zoom="1.5649606"
     inkscape:cx="356.55849"
     inkscape:cy="254"
     inkscape:window-width="1920"
     inkscape:window-height="1013"
     inkscape:window-x="2391"
     inkscape:window-y="605"
     inkscape:window-maximized="1"
     inkscape:current-layer="g1" />
  <g
     inkscape:groupmode="layer"
     inkscape:label="Image"
     id="g1">
    <path
       style="fill:#000000"
       d="m 191.80574,506.91722 c -0.74589,-2.23768 -14.63438,-3.05571 -59.80574,-3.52256 -28.2534,-0.292 -46.6308,-0.85612 -46.833333,-1.43762 -0.452797,-1.30003 -4.888,-1.21695 -5.706181,0.10689 -0.39474,0.63871 -4.71487,1.06449 -10.809017,1.06533 -5.583308,7.6e-4 -15.326469,0.0357 -21.651469,0.0775 -6.325,0.0419 -15.679818,-0.21908 -20.788485,-0.57991 -5.84212,-0.41263 -10.014751,-0.26737 -11.245884,0.39151 -2.452593,1.31259 -7.2644765,-1.94183 -9.5819441,-6.48055 C 3.3487611,492.55247 2.3458605,468.46184 2.9051074,437 3.0468662,429.025 2.8778891,396.625 2.5296027,365 1.6181464,282.23821 1.5852217,228.37447 2.4116298,172 3.1427908,122.12293 3.7618862,91.612242 4.1363731,87 4.2480151,85.625 4.2496525,81.8 4.1400118,78.5 4.0303712,75.2 3.9492855,57.915732 3.9598214,40.090515 3.9812586,3.8218044 3.9774633,3.8430094 10.679864,2.5441336 17.028313,1.3138513 89.972426,0.91487533 92.183748,2.098339 c 1.365665,0.7308818 2.338638,0.7130085 3.270143,-0.060072 0.921301,-0.7646118 3.114687,-0.8169053 7.186079,-0.1713265 3.22302,0.5110567 6.31003,0.5763805 6.86003,0.1451641 0.55,-0.4312165 22.15,-0.5267661 48,-0.2123324 25.85,0.3144336 48.8,0.5299745 51,0.4789797 2.2,-0.050995 16.15,-0.3720506 31,-0.7134574 14.85,-0.3414068 27.48335,-0.78876675 28.0741,-0.99413328 0.59076,-0.20536653 19.26576,0.0712193 41.5,0.61463518 22.23425,0.5434158 47.1759,1.1532696 55.4259,1.3552307 26.89085,0.6582914 120.97364,0.9189102 122,0.3379523 0.55,-0.3113206 5.42034,-0.2989495 10.82297,0.027491 5.40264,0.326441 10.52639,0.1993938 11.38611,-0.282327 0.85971,-0.4817208 4.08938,-0.5473777 7.17702,-0.1459042 3.08765,0.4014735 8.18808,0.8847861 11.33429,1.0740281 7.12454,0.4285341 8.31921,1.1997345 22.0702,14.2470761 3.65149,3.464639 8.70789,8.720923 11.23645,11.680631 2.52856,2.959708 6.48189,7.377753 8.78517,9.817878 2.30328,2.440124 5.53779,6.139647 7.18779,8.221162 1.65,2.081515 5.27909,6.078765 8.06464,8.882778 8.66788,8.725336 12.41818,13.947895 11.7769,16.400154 C 596.00291,74.096883 596.22553,75 596.88337,75 597.49752,75 598,74.325 598,73.5 c 0,-2.697837 1.63191,-1.591989 6.27175,4.25 4.20747,5.29759 6.94048,8.521936 12.96453,15.295283 1.24505,1.399906 4.51372,5.389718 7.26372,8.866247 2.75,3.47653 7.12453,8.63116 9.72117,11.45472 2.59664,2.82356 4.73414,6.10945 4.75,7.30196 0.0496,3.73175 1.15943,5.35952 4.64788,6.81709 1.93982,0.81051 3.89562,2.60298 4.59658,4.21274 0.67105,1.54108 3.48456,5.50196 6.25223,8.80196 2.76768,3.3 5.48214,6.72018 6.03214,7.60041 3.93728,6.30125 6.66797,9.89959 7.51254,9.89959 0.54311,0 0.98746,0.47657 0.98746,1.05904 0,1.22421 10.93958,15.816 13.36892,17.83217 0.89709,0.74452 1.63108,1.83208 1.63108,2.41678 0,0.58471 0.86829,1.99211 1.92954,3.12756 2.13782,2.2873 10.07046,17.35926 10.07046,19.1338 0,0.61855 0.9,2.16234 2,3.43065 1.1,1.26831 2,2.7641 2,3.32398 0,0.99853 4.57238,11.25827 7.6547,17.17602 0.85942,1.65 1.79853,5.7 2.0869,9 0.28837,3.3 0.9555,6.54554 1.48252,7.21231 0.52701,0.66677 0.98335,8.76677 1.01407,18 0.0569,17.09915 -1.37603,28.17443 -4.72989,36.55793 -0.82956,2.07363 -1.5083,5.09564 -1.5083,6.71557 0,2.90714 -5.71404,14.62921 -9.02492,18.51419 -0.93745,1.1 -2.97525,4.25 -4.52844,7 -4.65356,8.23936 -14.30158,19.76964 -15.99773,19.11877 -1.07596,-0.41289 -4.44891,5.76594 -4.44891,8.14986 0,0.60313 -0.80264,1.35134 -1.78363,1.6627 -0.981,0.31135 -2.54118,1.84852 -3.46706,3.41591 -0.92589,1.5674 -3.16075,3.86769 -4.96637,5.11176 -1.80562,1.24407 -4.54588,3.89973 -6.08947,5.90147 -3.9107,5.07142 -10.45601,12.64145 -15.19347,17.57214 -2.2,2.28972 -7.15,7.68005 -11,11.97851 -3.85,4.29845 -9.025,9.99926 -11.5,12.66846 -2.475,2.6692 -7.875,8.5564 -12,13.08267 -4.125,4.52627 -13.35,14.16046 -20.5,21.40931 -7.15,7.24885 -15.025,15.71926 -17.5,18.82314 -2.475,3.10387 -5.09354,6.19733 -5.81897,6.87435 -0.72544,0.67702 -7.44396,7.41845 -14.93006,14.98095 -7.48609,7.5625 -14.10505,13.75 -14.70878,13.75 -0.60374,0 -1.86831,0.9 -2.81016,2 -1.38395,1.61633 -2.94994,2 -8.16323,2 -3.54792,0 -6.6793,-0.36977 -6.95861,-0.82171 -0.27931,-0.45194 -19.09337,-0.66564 -41.80902,-0.4749 -77.01942,0.64674 -92.81145,0.53297 -94.27197,-0.67915 -1.03284,-0.85718 -1.87668,-0.82418 -3.40995,0.13336 -1.62425,1.01436 -3.20138,1.02829 -7.77631,0.0687 -3.15637,-0.66206 -5.98727,-0.82648 -6.29089,-0.36539 C 360.29553,506.00977 349,507.06857 349,505.99062 c 0,-0.47568 -1.4625,-0.63401 -3.25,-0.35184 -1.7875,0.28217 -5.2601,0.0548 -7.7169,-0.50531 -2.52261,-0.57509 -4.91925,-0.64292 -5.50616,-0.15583 -1.46178,1.21317 -12.62978,0.97508 -14.69269,-0.31322 -1.22863,-0.7673 -2.36238,-0.73972 -4.02254,0.0978 -1.27144,0.64146 -4.11171,1.034 -6.31171,0.87232 -2.2,-0.16169 -4.53238,0.10949 -5.18308,0.60262 -0.74372,0.56363 -2.13363,0.27377 -3.74271,-0.78054 -1.72504,-1.13029 -3.45364,-1.45276 -5.30145,-0.98899 -2.20035,0.55225 -27.47366,1.53476 -46.27276,1.79886 -1.925,0.027 -3.78403,0.48068 -4.13118,1.00808 -0.39151,0.59479 -2.10028,0.45993 -4.5,-0.35513 -3.90773,-1.32726 -5.88704,-1.46075 -28.24332,-1.90492 -10.19565,-0.20257 -12.70673,0.0386 -14.26143,1.36979 -2.19529,1.87966 -3.5501,2.05755 -4.05833,0.53286 z M 370,501.09362 c 0,-0.49851 -0.9,-0.67103 -2,-0.38337 -1.1,0.28766 -2,0.69553 -2,0.90638 0,0.21085 0.9,0.38337 2,0.38337 1.1,0 2,-0.40787 2,-0.90638 z m 47.4032,-3.05505 c 0.5107,0.4907 1.62914,0.4793 2.57374,-0.0262 2.16686,-1.15966 10.66659,-1.34169 49.40602,-1.05802 25.77528,0.18873 32.05715,-0.024 32.79229,-1.11043 0.50013,-0.73914 0.90362,-7.86889 0.89664,-15.84389 -0.007,-7.975 0.15484,-39.1491 0.35959,-69.27578 0.32906,-48.41662 0.56049,-55.06302 1.99345,-57.25 1.98921,-3.03591 5.80468,-3.24138 10.21803,-0.55028 2.67593,1.63169 3.19821,2.61111 3.51475,6.59115 0.20449,2.57107 0.0255,7.66948 -0.39768,11.32979 -0.42322,3.66032 -0.76119,7.55512 -0.75106,8.65512 0.076,8.25491 0.13454,66.76692 0.078,78 -0.0388,7.7 0.18925,17.375 0.50673,21.5 0.31747,4.125 0.67397,9.1877 0.79221,11.25045 0.24948,4.35197 1.13115,5.45564 4.71303,5.89978 2.4243,0.30061 4.08978,-0.73664 11.97747,-7.45943 0.86702,-0.73897 2.32952,-1.63258 3.25,-1.98581 0.92049,-0.35322 1.67361,-1.03024 1.67361,-1.5045 0,-0.47425 4.1146,-4.87587 9.14355,-9.78138 5.02895,-4.90551 10.09145,-9.98971 11.25,-11.29821 1.15855,-1.30851 3.22771,-3.55851 4.59815,-5 1.37043,-1.4415 4.88274,-5.52089 7.80514,-9.06533 2.92239,-3.54443 6.52613,-7.18221 8.0083,-8.08395 1.48217,-0.90174 3.99356,-3.51425 5.58086,-5.80557 1.5873,-2.29133 3.1623,-4.1664 3.5,-4.16683 0.55016,-7e-4 2.41792,-1.56285 10.27414,-8.59307 1.28692,-1.15162 3.98174,-4.07662 5.98849,-6.5 2.00675,-2.42338 5.32659,-6.43115 7.37743,-8.90615 2.05084,-2.475 8.73396,-9.4933 14.85137,-15.59623 14.89277,-14.8575 25.41378,-27.03343 27.56751,-31.90377 1.44106,-3.25877 1.63452,-5.37388 1.044,-11.41402 -0.39867,-4.07771 -0.38148,-12.16011 0.0382,-17.96087 0.41967,-5.80077 0.39487,-11.51519 -0.0551,-12.6987 -0.44997,-1.18351 -0.45278,-8.79021 -0.006,-16.90376 0.44654,-8.11356 0.48875,-17.51284 0.0938,-20.88729 -0.76538,-6.53918 -0.63002,-39.02941 0.3685,-88.45313 0.65904,-32.62012 0.25393,-36.73297 -3.98072,-40.41496 C 653.10131,150.5969 652,149.13531 652,148.51928 c 0,-0.61602 -2.16312,-3.57237 -4.80693,-6.56966 -2.64382,-2.99729 -7.86018,-9.43127 -11.59192,-14.29772 C 627.91184,117.62447 625.74998,114.99423 621.5,110.49559 611.12763,99.516349 589.38492,75.222913 583.55478,68.098864 576.27854,59.207765 561.48704,43.121475 543.49071,24.527739 L 532.48142,13.152982 525.2911,12.859429 c -3.95467,-0.161453 -7.55049,0.06654 -7.99071,0.506664 -0.67023,0.670085 -1.64751,23.3155 -1.36517,31.633907 0.11974,3.528002 0.0185,41.112332 -0.22658,84.09621 C 515.48569,168.203 515.3823,169 510.53254,169 c -2.69804,0 -5.9854,-3.37749 -5.22247,-5.36566 0.30395,-0.79208 -0.0498,-3.44191 -0.78613,-5.88853 -1.043,-3.46563 -1.43734,-19.85752 -1.78498,-74.197614 -0.35334,-55.231345 -0.71279,-69.913987 -1.72693,-70.540762 -0.7044,-0.435341 -3.08933,-0.617323 -5.29985,-0.404405 -2.21051,0.212918 -4.60535,-0.0994 -5.32184,-0.694043 -0.7165,-0.594641 -1.68869,-0.842631 -2.16041,-0.551088 -0.47173,0.291543 -14.10394,0.552648 -30.29381,0.580232 -16.18987,0.02759 -31.01112,0.146289 -32.93612,0.263787 -1.925,0.117498 -6.2,0.142028 -9.5,0.05451 -3.3,-0.08752 -15.9,-0.127861 -28,-0.08965 -12.1,0.03821 -24.025,0.01995 -26.5,-0.04057 -4.93828,-0.120759 -51.98619,-0.969563 -56,-1.010311 -5.0119,-0.05088 -13.15797,0.70875 -13.72952,1.280294 -0.32255,0.322555 -1.07787,0.204178 -1.67847,-0.26306 -0.60061,-0.467238 -4.88934,-0.467164 -9.53053,1.64e-4 -6.50448,0.654946 -8.91099,0.543653 -10.5,-0.485593 -1.99554,-1.292571 -4.0988,-1.329199 -21.06148,-0.366776 -3.3,0.187234 -6.72658,-0.09458 -7.61462,-0.626248 -1.04964,-0.628422 -3.05951,-0.599922 -5.7439,0.08145 -2.2711,0.576467 -9.19452,0.912782 -15.38538,0.747365 -6.19085,-0.165417 -12.64293,0.118055 -14.33795,0.629936 l -3.08185,0.930693 -0.25346,25.227943 C 201.94344,52.147426 201.88805,72.95 201.95976,84.5 c 0.25396,40.90591 0.001,49.34893 -1.59076,53.15929 -1.52169,3.64192 -1.16785,9.87684 0.76999,13.56768 0.59086,1.12537 0.46662,2.43169 -0.35668,3.75 C 198.3607,158.85459 190,156.54518 190,151.99865 c 0,-0.93026 -0.66119,-3.01676 -1.46931,-4.63668 -1.18275,-2.37088 -1.57153,-10.25092 -1.9934,-40.40364 -0.82119,-58.695073 -0.70981,-80.374372 0.42834,-83.367919 0.5707,-1.501064 0.8119,-3.822978 0.536,-5.159809 -0.27589,-1.336831 -0.7223,-3.504205 -0.99202,-4.816387 l -0.49038,-2.385785 -41.75962,-0.09961 c -22.96778,-0.05478 -44.12425,-0.284747 -47.014365,-0.511029 -2.890115,-0.226282 -5.499666,-0.01515 -5.799001,0.469187 -0.299336,0.484334 -13.372421,0.838126 -29.051301,0.786204 -15.678881,-0.05192 -28.78183,0.18037 -29.117666,0.516205 C 32.941441,12.725225 28.241667,13 22.833333,13 L 13,13 12.888889,31.5 c -0.06111,10.175 -0.111111,19.4 -0.111111,20.5 0,6.185406 -1.149656,5.764387 14.972222,5.483026 8.1125,-0.14158 15.044911,-0.08294 15.405357,0.130302 1.181142,0.698784 33.741564,0.823084 34.433199,0.13145 C 78.761756,56.571577 82,58.986917 82,61.035184 82,63.602869 84.036499,63.576432 84.710251,61 c 0.488474,-1.867927 1.364016,-2 13.258497,-2 11.601382,0 13.038072,0.203241 16.133372,2.282301 C 119.31333,64.782583 119.13483,72 113.83706,72 c -1.05492,0 -3.28755,1.0125 -4.9614,2.25 -2.87943,2.128806 -4.07572,2.261418 -22.209507,2.461974 C 76.124769,76.828559 66.825,76.656556 66,76.329745 c -2.549023,-1.009757 -5.944465,-1.22862 -6.446965,-0.415558 -0.453581,0.733911 -23.244304,0.578734 -37.79245,-0.25732 -5.085033,-0.292227 -7.040341,-0.02471 -7.965291,1.089788 -1.440156,1.735282 -1.36665,-0.560414 -2.233423,69.753345 -0.510927,41.44712 -0.384928,55.82449 0.511326,58.34591 0.931259,2.6199 0.903176,5.3322 -0.129423,12.5 -1.078291,7.48497 -1.486409,27.83296 -0.905652,45.15409 0.05532,1.65 -0.04021,9.3 -0.212295,17 -0.172085,7.7 -0.169518,28.4 0.0057,46 0.175222,17.6 0.172309,48.17771 -0.0065,67.95047 L 10.5,429.40094 13,430.04167 c 1.375,0.3524 3.0625,0.20709 3.75,-0.32292 0.812588,-0.62643 1.703539,-0.58724 2.546086,0.11202 1.421994,1.18015 5.624251,1.23427 7.203914,0.0928 0.55,-0.39744 3.475,-0.29867 6.5,0.21948 3.025,0.51816 14.05,0.8858 24.5,0.817 10.45,-0.0688 25.525,0.053 33.5,0.27075 13.22572,0.36106 14.89547,0.61682 19,2.91028 2.475,1.38293 5.14823,3.66509 5.94051,5.07146 1.27206,2.25801 1.25011,2.84762 -0.1877,5.042 -1.4313,2.18444 -2.4521,2.51993 -8.44051,2.77399 -9.476832,0.40207 -8.148419,0.41121 -54.48647,-0.3748 l -41.67417,-0.7069 -0.781262,2.2766 C 9.9407042,449.47553 9.6982447,459.5 9.8315993,470.5 10.096667,492.36462 10.273903,493 16.107796,493 c 1.499046,0 2.914858,0.5625 3.146249,1.25 0.329549,0.97914 0.774722,0.9578 2.054437,-0.0985 1.178422,-0.97266 3.104896,-1.15603 6.912621,-0.65795 2.903393,0.37978 13.777292,0.66667 24.164219,0.63753 10.386927,-0.0291 20.736927,-0.0394 23,-0.0227 16.245225,0.11936 40.578388,-0.11065 60.114678,-0.56823 12.65,-0.29628 25.925,-0.44173 29.5,-0.32321 14.32892,0.47504 16.13328,0.32127 17.45596,-1.4876 1.00599,-1.37577 1.28129,-14.23976 1.28384,-59.99033 0.002,-40.46759 0.35893,-59.94395 1.16885,-63.82629 0.76737,-3.67841 0.84204,-6.43826 0.21857,-8.07811 -0.76803,-2.02006 -0.47783,-3.09034 1.53536,-5.66272 2.46401,-3.14843 6.53641,-4.27696 7.83742,-2.17189 0.33992,0.55 1.72612,1 3.08046,1 3.48669,0 5.12578,3.90205 3.77107,8.97749 -0.62471,2.34047 -0.67349,4.48272 -0.12441,5.46387 0.5461,0.97583 0.50098,3.67868 -0.11412,6.83628 -0.88269,4.53127 -1.77921,49.90949 -1.17991,59.72236 0.11756,1.925 0.29321,15.425 0.39033,30 0.0971,14.575 0.54506,27.06965 0.99542,27.76589 0.60083,0.92886 4.39794,1.2317 14.26195,1.13748 7.65105,-0.0731 13.97655,0.30127 14.68117,0.86887 0.77663,0.6256 3.44849,0.69053 7.16905,0.17421 3.51973,-0.48844 6.64684,-0.43997 7.69171,0.11923 0.96838,0.51826 3.24942,0.87923 5.06898,0.80215 1.81957,-0.0771 9.1583,0.16066 16.3083,0.5283 15.50818,0.79739 63.36472,1.55336 105.23336,1.66232 16.62834,0.0433 30.43902,0.41146 30.6904,0.81818 0.25137,0.40673 3.52136,0.4143 7.26664,0.0168 3.74528,-0.39749 7.21604,-0.33218 7.7128,0.14512 z M 82.5,460 c -0.339919,-0.55 -0.141476,-1 0.440983,-1 C 83.523442,459 84,459.45 84,460 c 0,0.55 -0.198442,1 -0.440983,1 -0.242541,0 -0.719098,-0.45 -1.059017,-1 z m 195.56076,-9.67 c -1.71983,-1.20461 -1.87597,-2.18738 -1.36556,-8.59507 0.65425,-8.2134 1.62776,-10.09663 4.69598,-9.0843 1.15985,0.38268 3.12132,0.62288 4.35882,0.53378 1.2375,-0.0891 2.25,0.17265 2.25,0.58167 0,1.63106 59.33138,1.51874 119.26581,-0.22577 15.99223,-0.46548 20.2878,-0.30375 22.5,0.84717 5.32763,2.77176 9.37594,8.87723 8.49091,12.80558 -0.56726,2.51784 -9.14488,4.75423 -14.4659,3.7716 -4.01231,-0.74096 -106.10252,-0.46761 -132.03951,0.35353 -8.78132,0.27801 -12.23914,0.0284 -13.69055,-0.98819 z M 39.598987,351.81387 c -0.212994,-0.72263 -1.39539,-4.44967 -2.627546,-8.28232 -1.967241,-6.11914 -2.303597,-9.7755 -2.759758,-30 C 33.742386,292.72462 33.427321,209.04859 33.757847,193 c 0.07363,-3.575 0.100048,-7.85 0.05871,-9.5 -0.04134,-1.65 0.09553,-8.46566 0.304142,-15.1459 0.464625,-14.87822 1.314,-16.3541 9.411842,-16.3541 3.229062,0 5.661229,0.52855 6.371769,1.3847 0.833509,1.00432 1.001513,8.90209 0.611579,28.75 -0.295692,15.05092 -0.498609,34.5653 -0.450927,43.3653 0.04768,8.8 0.07468,16.9 0.06001,18 -0.113095,8.47571 -0.168236,45.38252 -0.106273,71.12985 0.06897,28.65722 -0.07404,31.39754 -1.800372,34.5 -1.421284,2.55424 -2.644772,3.44614 -5.053683,3.68402 -1.986739,0.19619 -3.323588,-0.17873 -3.565657,-1 z M 354.54286,348.75 c -0.21691,-0.6875 -0.61836,-2.6 -0.89212,-4.25 -0.27375,-1.65 -1.31966,-5.25 -2.32424,-8 -1.70371,-4.66387 -1.80922,-8.99996 -1.56947,-64.5 0.14136,-32.725 0.45871,-71.19131 0.70522,-85.48068 0.50506,-29.2762 0.28761,-28.51932 8.1937,-28.51932 7.38723,0 6.88358,-8.12099 5.70568,92 -0.20382,17.325 -0.4296,33.3 -0.50173,35.5 -0.0721,2.2 0.20309,8.5 0.6116,14 1.20864,16.27271 0.98889,45.77124 -0.35976,48.29121 -0.91661,1.7127 -2.07965,2.20879 -5.17831,2.20879 -2.31996,0 -4.16162,-0.52432 -4.39057,-1.25 z M 433.75,267.33402 c -1.46024,-0.40108 -1.75,-1.6735 -1.75,-7.68484 0,-9.93771 1.54657,-12.11561 7.87328,-11.08727 2.5447,0.41361 12.50172,0.82427 22.12672,0.91257 11.52205,0.10571 18.26511,0.57465 19.73981,1.37277 1.81281,0.98111 2.6742,0.92759 4.51839,-0.28077 1.88904,-1.23775 3.8469,-1.33073 11.45234,-0.54388 5.04556,0.52201 14.93728,0.90217 21.98161,0.84481 27.46383,-0.22364 53.85774,0.35223 54.88091,1.1974 0.64041,0.529 3.42089,0.2185 6.89604,-0.7701 l 5.82296,-1.65649 2.35397,2.73666 c 1.29468,1.50515 2.35397,3.74828 2.35397,4.98472 0,2.87251 -6.31074,9.11887 -8.40206,8.31636 -0.84364,-0.32374 -1.79957,-0.15873 -2.12429,0.36667 -0.75335,1.21895 -16.58136,1.00795 -18.15973,-0.24207 -0.72558,-0.57464 -1.89034,-0.58318 -3,-0.022 -1.88297,0.9523 -30.23609,0.89362 -38.56392,-0.0798 -2.6125,-0.30537 -4.75,-0.16295 -4.75,0.31648 0,1.19817 -12.20356,0.97615 -13.73727,-0.24992 -0.68049,-0.544 -1.96206,-0.71096 -2.84793,-0.37102 -0.88587,0.33994 -12.4791,0.83652 -25.76273,1.1035 -13.28364,0.26699 -27.52707,0.67251 -31.65207,0.90115 -4.125,0.22865 -8.2875,0.19942 -9.25,-0.065 z m -320.78333,-3.3963 c -1.31722,-2.46125 0.21751,-14.24979 2.15985,-16.59017 0.95725,-1.15341 2.36726,-1.32107 6.30328,-0.74952 2.78861,0.40493 11.89871,0.649 20.24466,0.54238 8.62047,-0.11014 15.42537,0.2121 15.75539,0.74608 0.33771,0.54643 5.91653,0.74947 13.32553,0.48499 7.00954,-0.25022 19.71962,-0.4235 28.24462,-0.38505 49.67337,0.224 61.0005,0.0897 62.65904,-0.74274 1.80319,-0.90508 10.64815,-0.74446 15.07831,0.27381 3.09406,0.71117 5.5032,4.67589 4.7251,7.77609 -0.34584,1.37795 -2.49963,4.0088 -4.78619,5.84633 -3.97692,3.19594 -4.54845,3.34747 -13.16682,3.49089 -13.19784,0.21963 -51.92663,0.524 -52.50944,0.41267 -2.15655,-0.41195 -30.01795,-0.35886 -30.4348,0.058 -0.29426,0.29426 -3.34455,0.20375 -6.77842,-0.20114 -3.43387,-0.40488 -6.67618,-0.46868 -7.20514,-0.14177 -1.2063,0.74553 -11.87269,0.78522 -13.1416,0.0489 -1.4183,-0.82302 -27.16706,-0.41376 -28.02628,0.44545 -0.4109,0.41091 -3.13126,0.7471 -6.04524,0.7471 -4.32803,0 -5.50025,-0.37762 -6.40185,-2.06228 z M 423.63583,82.302498 C 423.25221,81.918872 411.58971,81.679271 397.71917,81.770052 383.84862,81.860832 369.125,81.556404 365,81.093546 c -4.125,-0.462859 -7.90595,-0.469808 -8.40211,-0.01544 -1.18428,1.08452 -78.59178,-0.07474 -80.78701,-1.209876 -1.89781,-0.981345 -3.38337,-8.451093 -2.43344,-12.235927 0.33037,-1.316325 1.61811,-2.686613 2.86162,-3.045086 1.24352,-0.358472 35.44616,-0.88444 76.00586,-1.168818 68.52091,-0.480422 74.00359,-0.394305 77.39637,1.215674 2.00829,0.952998 4.63161,2.662694 5.82959,3.799326 C 437.77715,70.621561 439.43622,74 438.20452,74 c -0.403,0 -1.48573,1.738121 -2.40607,3.862491 -1.3025,3.006451 -2.37981,4.003781 -4.8609,4.5 -4.13104,0.826207 -6.43444,0.807281 -7.30172,-0.05999 z M 679.33667,337.0072 c 0.97234,-1.64603 2.60833,-3.44258 3.63552,-3.99232 1.0272,-0.54974 2.4074,-2.63503 3.06711,-4.63397 0.65972,-1.99895 2.43421,-5.4899 3.94333,-7.75768 5.34036,-8.02506 10.86857,-20.95449 11.59702,-27.12323 0.38969,-3.3 1.42539,-7.09637 2.30156,-8.43637 1.3287,-2.03209 1.59517,-5.93152 1.60591,-23.5 0.0122,-19.92202 -0.10907,-21.29564 -2.23712,-25.34442 -1.2375,-2.35444 -2.25,-4.92196 -2.25,-5.70559 0,-0.78364 -1.125,-3.08258 -2.5,-5.10876 -1.375,-2.02617 -2.5,-4.4946 -2.5,-5.48539 0,-0.99079 -0.41717,-2.05926 -0.92704,-2.37438 -0.50988,-0.31512 -1.47914,-2.25418 -2.15392,-4.30902 -1.87246,-5.70197 -8.83506,-19.92149 -10.38407,-21.20705 -0.7558,-0.62726 -2.17996,-3.38126 -3.1648,-6.12001 -0.98484,-2.73874 -2.57477,-5.68918 -3.53317,-6.55652 -1.60584,-1.45326 -1.78731,-1.39165 -2.31307,0.78526 -0.31378,1.29924 -0.50199,5.28725 -0.41825,8.86225 0.15006,6.40608 -0.791,58.24503 -1.58843,87.5 -0.51476,18.88468 1.2243,58.26453 2.70488,61.25 1.51053,3.04589 3.00469,2.82889 5.11454,-0.7428 z"
       id="path1" />
  </g>
</svg>
