<?xml version="1.0" encoding="UTF-8" standalone="no"?>
<!-- Created with Inkscape (http://www.inkscape.org/) -->

<svg
   version="1.1"
   id="svg1"
   width="1900"
   height="1448"
   viewBox="0 0 1900 1448"
   sodipodi:docname="matrix.svg"
   inkscape:version="1.4 (86a8ad7, 2024-10-11)"
   xmlns:inkscape="http://www.inkscape.org/namespaces/inkscape"
   xmlns:sodipodi="http://sodipodi.sourceforge.net/DTD/sodipodi-0.dtd"
   xmlns="http://www.w3.org/2000/svg"
   xmlns:svg="http://www.w3.org/2000/svg">
  <defs
     id="defs1" />
  <sodipodi:namedview
     id="namedview1"
     pagecolor="#ffffff"
     bordercolor="#000000"
     borderopacity="0.25"
     inkscape:showpageshadow="2"
     inkscape:pageopacity="0.0"
     inkscape:pagecheckerboard="0"
     inkscape:deskcolor="#d1d1d1"
     inkscape:zoom="0.54903315"
     inkscape:cx="950.76226"
     inkscape:cy="724"
     inkscape:window-width="1920"
     inkscape:window-height="1013"
     inkscape:window-x="2391"
     inkscape:window-y="605"
     inkscape:window-maximized="1"
     inkscape:current-layer="g1" />
  <g
     inkscape:groupmode="layer"
     inkscape:label="Image"
     id="g1">
    <path
       style="fill:#000000"
       d="m 147.81955,1445.75 c -0.31445,-2.2141 -0.57512,-2.254 -16.31955,-2.501 -8.8,-0.138 -38.993413,-0.363 -67.096472,-0.5 -38.911564,-0.1896 -51.453111,-0.545 -52.59201,-1.4903 -0.822545,-0.6828 -1.761481,-0.9754 -2.0865253,-0.6504 -0.7180162,0.7181 -7.7226522,-1.489 -7.7307292,-2.4359 C 0.65134743,1280.7535 0.31621391,888.31263 1.421528,767.5 c 0.3019168,-33 0.5750852,-87.87739 0.6070409,-121.94975 0.031956,-34.07237 0.4493507,-62.42237 0.9275446,-63 0.4781939,-0.57764 0.5291522,-2.90787 0.1132407,-5.17829 -0.4159115,-2.27043 -0.6089936,-13.7231 -0.4290714,-25.4504 0.2716702,-17.70739 0.071678,-21.71222 -1.1796286,-23.62195 -1.34740756,-2.05641 -1.34006728,-2.55402 0.069406,-4.70514 1.3469389,-2.05569 1.5632421,-6.52777 1.4873001,-30.75 C 2.968484,477.25501 2.9105024,432.325 2.8885124,393 c -0.02199,-39.325 -0.2675186,-72.74143 -0.545619,-74.25873 -0.2781005,-1.5173 -0.9190198,-2.50324 -1.4242653,-2.19098 -1.53661713,0.94968 -1.02392678,-2.74998 0.5460018,-3.94005 2.455259,-1.86117 1.8719198,-23.55431 -0.59243156,-22.03125 C 0.39248925,290.87546 0,288.20398 0,284.64235 c 0,-4.24487 0.43061269,-6.64944 1.25,-6.98007 1,-0.40351 1,-0.52017 0,-0.58333 C -0.22289336,276.98592 -0.46719184,273 1,273 1.55,273 2,272.52344 2,271.94098 2,271.35852 1.55,271.16008 1,271.5 0.35283281,271.89997 0,267.51038 0,259.05902 0,248.11767 0.24324211,246 1.5,246 2.4333333,246 3,245.05556 3,243.5 3,241.94444 2.4333333,241 1.5,241 0.33333333,241 0,239.66667 0,235 c 0,-4.46186 0.35710862,-6 1.3930112,-6 0.7661562,0 1.652033,-0.675 1.9686152,-1.5 C 4.1508498,225.44332 3.0819719,223 1.3930112,223 0.62685504,223 0,222.27686 0,221.39301 c 0,-1.01759 0.55015658,-1.39587 1.5,-1.03138 1.255664,0.48184 1.5094351,-0.76314 1.5579228,-7.64301 C 3.0897803,208.19838 3.3102849,189.65 3.5479331,171.5 4.2343555,119.07558 4.2053077,80.611306 3.4763607,76.725684 3.0055323,74.215953 2.3822674,73.299816 1.4016753,73.676104 0.63075386,73.971935 0,73.715833 0,73.106989 0,72.498145 0.61383421,72 1.364076,72 c 0.8647185,0 1.5968735,-1.698443 2,-4.639571 C 4.438842,59.519156 4.2174585,58 2,58 -0.66966646,58 -0.66966646,54.408384 2,53.710251 3.3186444,53.365418 4,52.346235 4,50.71862 4,46.12739 2.7573262,42 1.375,42 0.61875,42 0,41.276855 0,40.393011 0,39.375419 0.55015658,38.997137 1.5,39.361626 2.325,39.678209 3.0375,39.613854 3.0833333,39.218615 3.1291667,38.823377 3.3485849,37.375 3.5709295,36 3.793274,34.625 4.2407913,30.35 4.5654123,26.5 5.2942914,17.855506 5.6530244,13.873087 5.8490406,12.25 6.0167178,10.86157 10.585147,10.519737 11.397904,11.834806 12.01609,12.83505 39.623413,12.70992 40.631027,11.702306 41.844157,10.489176 57,10.878178 57,12.122445 c 0,0.77158 0.390737,0.805777 1.25,0.109398 0.77453,-0.627708 6.765451,-0.844291 15.75,-0.569394 22.622378,0.692171 47.35887,0.284604 48.66799,-0.801869 0.78447,-0.651054 2.52238,-0.58422 5.13092,0.197318 2.89944,0.868695 4.83975,0.894612 7.32286,0.09781 1.85803,-0.596216 6.41363,-0.922074 10.12356,-0.724129 3.70994,0.197946 8.29991,0.0093 10.19994,-0.419238 1.90003,-0.4285268 3.70393,-0.5298133 4.00866,-0.2250815 0.93132,0.9313195 11.92784,0.8871925 13.87421,-0.055675 1.00548,-0.4870768 2.58048,-0.5359559 3.5,-0.1086203 2.145,0.9968619 117.77604,1.4938079 178.67186,0.7678759 21.84566,-0.26042 93.91019,-0.389435 105,-0.187979 1.1,0.01998 7.625,-0.01431 14.5,-0.0762 6.875,-0.06189 16.55,-0.12544 21.5,-0.1412223 9.94103,-0.031695 94.74176,-0.7093522 109,-0.8710382 4.95,-0.056132 11.475,-0.1068243 14.5,-0.1126492 3.025,-0.00582 11.35,-0.1949602 18.5,-0.4203008 13.42126,-0.4229868 24.08393,-0.5463231 40.5,-0.468468 5.225,0.02478 15.26053,-0.00283 22.30118,-0.061352 7.04065,-0.058524 13.18459,0.1305498 13.65319,0.4201633 1.01622,0.6280576 26.7502,0.6264039 74.54563,-0.00479 C 808.75,8.2127907 841.7125,7.9650706 862.75,7.9165202 899.73056,7.8311765 901,7.7647212 901,5.9141234 901,4.8551911 901.68975,4 902.54384,4 c 0.91559,0 1.42426,0.7121404 1.25,1.75 -0.27028,1.6096732 1.10943,1.753914 17.20616,1.7988111 9.625,0.026846 18.29323,0.4146902 19.26273,0.8618757 0.98681,0.4551654 2.30737,0.3836344 3,-0.162502 0.78325,-0.6175742 7.27849,-0.6875401 17.70023,-0.1906642 9.73544,0.4641552 17.16358,0.4099418 18.17745,-0.132666 0.94297,-0.5046626 3.88464,-0.8382261 6.53704,-0.7412522 2.6524,0.096974 19.13635,0.046646 36.63105,-0.1118391 17.4946,-0.1584853 32.0663,-0.0303 32.3815,0.284857 0.3151,0.3151567 1.4484,0.1045025 2.5183,-0.4681204 1.1884,-0.6360119 4.9312,-0.7904422 9.6186,-0.3968753 7.1428,0.5997346 19.6463,0.8379994 40.1731,0.7655362 4.675,-0.016504 45.625,0.00375 91,0.044999 45.375,0.041253 107.925,-0.2238041 139,-0.5890155 109.3171,-1.2847574 136.0644,-1.4179642 136.5205,-0.6798989 0.5758,0.9315774 7.3585,0.5922222 9.7933,-0.4899767 1.0167,-0.4519104 2.8274,-0.3443497 4.1203,0.2447635 2.4671,1.1240765 244.5437,0.8180813 256.2144,-0.323866 3.9671,-0.3881677 6.3864,-0.2166539 6.8191,0.4834208 0.3688,0.5967704 1.1425,0.7933942 1.7192,0.4369417 0.5768,-0.3564524 6.7332,-0.5404724 13.6809,-0.4089333 34.9532,0.6617561 46.2394,0.6601408 46.6515,-0.00668 0.2484,-0.4019527 4.6207,-0.7964364 9.7162,-0.8766304 C 1845.2993,4.7293048 1845.4704,4.7086912 1845.8196,2.25 1846.2594,-0.84717752 1852,-1.0793847 1852,2 c 0,1.5555556 0.6667,2 3,2 2.3333,0 3,-0.4444444 3,-2 0,-1.7037037 0.6667,-2 4.5,-2 3.8065,0 4.5,0.30281181 4.5,1.9648162 0,2.6460641 2.6682,3.7424892 7.5,3.08198 2.2,-0.3007379 7.3213,-0.2779379 11.3806,0.050667 7.9699,0.6451596 9.2309,1.501395 12.7511,8.6578511 1.4611,2.970461 1.5338,23.533977 0.8303,234.999996 -0.424,127.45958 -0.9022,278.99469 -1.0625,336.74469 -0.4118,148.25904 -1.3957,371.41148 -1.7672,400.80492 -0.2887,22.84038 -0.1728,24.90348 1.4631,26.04938 1.6681,1.1684 1.6723,1.3097 0.068,2.3114 -1.5709,0.981 -1.7289,5.3168 -1.9628,53.8372 -0.14,29.0237 -0.5852,53.3613 -0.9894,54.0836 -0.4042,0.7223 -0.4331,5.7234 -0.064,11.1134 0.3689,5.3901 0.4692,18.1251 0.2228,28.3001 -0.2464,10.175 -0.6591,45.9003 -0.9171,79.3897 -0.2581,33.4893 -0.8319,63.2026 -1.2752,66.0295 -0.4433,2.827 -0.4249,6.4766 0.041,8.1104 0.8212,2.8809 0.519,25.4509 -0.6692,49.9704 -0.3198,6.6 -0.5916,25.725 -0.604,42.5 l -0.023,30.5 -2.396,2.7296 c -2.3646,2.6938 -2.5017,2.7194 -10.4614,1.9499 -4.436,-0.4288 -8.4557,-0.3894 -8.9328,0.088 -1.1675,1.1675 -88.0797,1.6277 -88.7951,0.4702 -0.3057,-0.4947 -1.7325,-0.6041 -3.1706,-0.2432 -1.4381,0.3609 -8.9265,0.547 -16.6409,0.4134 -7.7144,-0.1335 -15.6012,-0.1999 -17.5262,-0.1475 -13.07,0.3559 -25.9949,0.5049 -29,0.3343 -9.2342,-0.5243 -57.2241,-0.9243 -118,-0.9835 -40.975,-0.04 -75.4,-0.1647 -76.5,-0.2772 -1.1,-0.1126 -47.468,-0.2736 -103.0401,-0.3578 -55.572,-0.084 -102.9074,-0.4517 -105.1896,-0.8167 -2.2823,-0.3649 -4.3895,-0.2754 -4.6827,0.1991 -0.8149,1.3184 -14.0212,1.1101 -19.389,-0.3059 -2.6202,-0.6912 -6.3243,-1.1109 -8.2313,-0.9327 -9.2729,0.8664 -181.9811,1.1671 -182.506,0.3176 -0.3611,-0.5842 -1.2954,-0.5613 -2.4565,0.06 -1.1711,0.6268 -2.7708,0.6619 -4.2655,0.094 -1.4371,-0.5464 -5.5539,-0.5438 -10.3154,0.01 -4.3582,0.5037 -12.0798,0.6944 -17.1593,0.4239 -5.8506,-0.3115 -10.1569,-0.072 -11.7495,0.6537 -1.8946,0.8632 -3.4379,0.858 -6.2645,-0.021 -4.9852,-1.5504 -17.0701,-2.2551 -17.8215,-1.0392 -0.3624,0.5863 -10.2432,0.8643 -25.2626,0.7108 -13.56704,-0.1387 -25.26163,0.1152 -25.98794,0.564 -0.72631,0.4489 -3.42611,0.4375 -5.99956,-0.025 -2.57345,-0.4629 -52.154,-0.8861 -110.179,-0.9405 -58.025,-0.054 -106.4,-0.1802 -107.5,-0.2797 -1.1,-0.1 -3.8,-0.1202 -6,-0.046 -2.2,0.074 -4.9,0.1187 -6,0.099 -1.1,-0.02 -5.6,0.016 -10,0.079 -4.4,0.063 -12.05,0.025 -17,-0.085 -4.95,-0.1104 -10.575,-0.01 -12.5,0.2265 -6.2065,0.7574 -19.49236,0.846 -72.5,0.4831 -28.6,-0.1958 -105.325,0.037 -170.5,0.5172 -124.44329,0.9171 -203.10126,1.1754 -211.5,0.6945 -2.75,-0.1575 -7.7,-0.065 -11,0.2046 -3.49027,0.2856 -6.53742,0.049 -7.28481,-0.5643 -0.9037,-0.7422 -2.83181,-0.7161 -6.5,0.088 -2.86836,0.6286 -10.84019,1.1182 -17.71519,1.088 -27.24959,-0.1198 -27,-0.1389 -27,2.0717 0,1.1111 -0.66667,2 -1.5,2 -0.825,0 -1.5,-0.8334 -1.5,-1.852 0,-1.6209 -1.11195,-1.924 -8.91209,-2.4293 C 154.65328,1443.0426 152,1443.5288 152,1446.1166 c 0,2.8026 -3.7774,2.4713 -4.18045,-0.3666 z M 1613,1438 c 0,-0.55 -0.45,-1 -1,-1 -0.55,0 -1,0.45 -1,1 0,0.55 0.45,1 1,1 0.55,0 1,-0.45 1,-1 z m -546,-0.441 c 0,-0.2425 -0.45,-0.7191 -1,-1.059 -0.55,-0.3399 -1,-0.1415 -1,0.441 0,0.5824 0.45,1.059 1,1.059 0.55,0 1,-0.1984 1,-0.441 z m -818.15489,-3.33 c 12.43972,-0.2143 18.77677,0.042 19.68608,0.7969 0.90284,0.7493 1.9359,0.7945 3.16189,0.1384 1.12923,-0.6044 12.07451,-0.7623 28.81392,-0.4159 14.84615,0.3073 29.243,0.5662 31.993,0.5754 13.57906,0.045 78.99262,-1.4831 79.36368,-1.8541 0.5139,-0.5139 0.43199,-12.1882 -0.33658,-47.9697 -1.1331,-52.7525 -1.14512,-79.6333 -0.0366,-81.8541 0.83333,-1.6696 2.06314,-2.1814 5.5403,-2.3056 2.45807,-0.088 5.55098,-0.3129 6.87315,-0.5 2.18647,-0.3095 2.52734,0.1962 3.76788,5.5905 0.98109,4.2661 1.08126,6.7923 0.35687,9 -0.94867,2.8912 -1.06538,6.1332 -1.06454,29.5692 0.002,70.0336 0.22996,84.6324 1.35515,86.9762 l 1.21158,2.5238 54.98456,-0.276 c 30.24151,-0.1518 62.85956,-0.545 72.48456,-0.8738 9.625,-0.3288 18.4,-0.5627 19.5,-0.5199 1.1,0.043 22.7,0.2539 48,0.469 25.3,0.215 46.79558,0.7369 47.76796,1.1597 0.98855,0.4299 3.10714,0.2141 4.80564,-0.4895 1.87233,-0.7755 3.39439,-0.9015 3.96752,-0.3284 1.32896,1.329 35.57963,0.6353 40.62197,-0.8227 3.72296,-1.0764 4.21197,-1.5798 4.62553,-4.7611 0.25435,-1.9565 0.22292,-24.2573 -0.0698,-49.5573 -0.54329,-46.9513 -0.44717,-66.8298 0.33607,-69.5 0.52473,-1.7889 5.88849,-5 8.35187,-5 3.16896,0 6.03421,4.2069 6.15564,9.038 0.11476,4.5661 -1.10667,107.0497 -1.36689,114.6878 -0.0792,2.3241 0.30957,4.6792 0.86389,5.2336 1.31664,1.3166 50.32592,1.6739 91.44063,0.6667 47.04957,-1.1527 102.54114,-0.942 105.04646,0.3988 1.39452,0.7463 2.47824,0.7845 3.28396,0.1158 1.46241,-1.2137 3.93147,-1.2799 48.66958,-1.3058 30.3296,-0.018 42.4016,-0.2074 46.2984,-0.7282 0.4392,-0.059 0.5613,-27.2192 0.2716,-60.3567 -0.4948,-56.5812 -0.4194,-60.3778 1.2395,-62.3489 1.8626,-2.2133 7.9834,-3.9918 12.1905,-3.5422 4.921,0.5259 5.0649,1.268 3.9084,20.1657 -1.2999,21.2436 -1.3158,22.336 -0.9913,68.2307 0.2987,42.2546 -0.2894,39.8313 9.4078,38.764 2.9849,-0.3286 20.2205,-0.4504 38.3011,-0.2708 47.8115,0.4751 47.5765,0.4805 50.2065,-1.145 0.7135,-0.4409 2.9556,-0.4863 4.9824,-0.1007 4.1835,0.7959 115.7689,1.8834 129.1851,1.2591 1.375,-0.064 18.025,0.076 37,0.3109 l 34.5,0.4272 -0.3568,-59.5 c -0.1963,-32.725 -0.034,-61.1875 0.3612,-63.25 0.395,-2.0625 1.2756,-3.75 1.9569,-3.75 0.6812,0 3.1238,-1.3656 5.428,-3.0347 2.3041,-1.6691 4.628,-2.7636 5.1643,-2.4322 0.5362,0.3314 1.9284,2.4715 3.0937,4.7556 1.9588,3.8397 2.0523,4.9475 1.2385,14.6822 -0.4842,5.791 -0.8672,32.8647 -0.8512,60.1637 0.031,52.987 0.02,52.8654 4.8878,52.8654 1.1977,0 2.6051,-0.4249 3.1276,-0.9442 0.5959,-0.5923 4.8635,-0.5826 11.45,0.026 6.4692,0.5977 12.9952,0.6209 17,0.06 3.575,-0.5003 8.75,-0.7933 11.5,-0.651 6.3029,0.3262 35.1061,0.7247 47,0.6503 8.3363,-0.052 130.3141,-0.1145 174.2384,-0.089 25.2065,0.014 24.8203,0.1931 25.4213,-11.7549 0.2435,-4.8385 0.1946,-12.7653 -0.1085,-17.615 -0.3032,-4.8496 -0.1967,-9.7722 0.2366,-10.9391 0.4332,-1.167 0.5011,-6.6491 0.1508,-12.1825 -0.3504,-5.5334 -0.5605,-11.1858 -0.467,-12.5608 0.094,-1.375 0.081,-7.675 -0.027,-14 -0.1085,-6.325 -0.1783,-13.75 -0.155,-16.5 0.023,-2.75 0.084,-11.525 0.1346,-19.5 0.051,-7.975 0.4261,-14.9951 0.8342,-15.6003 1.4436,-2.141 5.1712,-3.3997 10.0678,-3.3997 4.4107,0 5.0243,0.2669 5.5649,2.4211 0.3342,1.3316 0.8456,13.0847 1.1365,26.1181 0.2912,13.0487 0.9863,24.552 1.547,25.5996 0.56,1.0464 0.7102,2.4009 0.3338,3.01 -0.3765,0.6091 -0.7102,17.4833 -0.7417,37.4982 -0.052,33.2086 0.094,36.5421 1.6726,38.1219 1.4394,1.4404 3.949,1.7694 14.9454,1.9592 12.3305,0.2129 108.1939,0.1448 160.2156,-0.1138 l 23,-0.1143 v -15.6677 c 0,-8.6172 -0.3754,-16.0422 -0.8342,-16.5 -0.4589,-0.4578 -29.186,-0.8323 -63.8381,-0.8323 h -63.0038 l -1.912,-2.3608 c -2.7369,-3.3794 -2.6293,-11.18 0.1894,-13.7309 1.9971,-1.8073 4.2893,-1.9031 46.25,-1.932 24.2818,-0.017 45.3951,0.2068 46.9185,0.4967 1.5234,0.2898 8.9484,0.2514 16.5,-0.085 10.886,-0.4855 14.3191,-0.3149 16.5731,0.8237 1.5636,0.7898 2.9769,1.2904 3.1405,1.1123 0.5685,-0.6185 1.8889,-166.2204 1.6172,-202.8237 -0.088,-11.825 0.059,-32.075 0.3255,-45 0.2669,-12.925 0.4537,-24.175 0.4153,-25 -0.078,-1.6766 -0.078,-16.5515 -10e-5,-25 0.028,-3.025 0.052,-6.85 0.053,-8.5 0,-1.65 0.1795,-9.075 0.3958,-16.5 0.2163,-7.425 0.027,-14.2351 -0.4215,-15.1336 -0.4481,-0.8985 -2.2895,-1.9004 -4.0919,-2.2265 -4.8492,-0.8773 -50.9725,-0.9566 -53.128,-0.091 -1.0767,0.4322 -2.1413,0.2731 -2.5451,-0.3802 -0.5032,-0.8142 -2.4292,-0.8437 -7.0006,-0.1075 -4.1001,0.6602 -6.7173,0.6746 -7.4809,0.041 -0.646,-0.5361 -2.5128,-0.7354 -4.1485,-0.4428 -7.3377,1.3124 -14.8701,1.4671 -16.9605,0.3483 -1.6222,-0.8682 -3.2287,-0.9037 -6.0193,-0.1332 -2.0936,0.5781 -4.1124,0.862 -4.4863,0.6309 -1.1075,-0.6845 -6.9417,-0.7258 -16.1002,-0.1141 -8,0.5343 -8.7318,0.42 -10.6157,-1.6585 -1.1129,-1.2278 -2.3098,-3.7557 -2.6598,-5.6177 -0.8051,-4.2831 0.9074,-10.7997 3.1518,-11.993 0.9438,-0.5019 19.491,-1.183 41.216,-1.5137 21.725,-0.3307 51.0875,-0.8884 65.25,-1.2395 l 25.75,-0.6383 0.1454,-25.11504 c 0.1829,-31.58916 0.4596,-51.24625 1.4027,-99.61506 0.4128,-21.175 0.714,-39.4 0.6692,-40.5 -0.045,-1.1 -0.1043,-36.55267 -0.1322,-78.78371 -0.032,-48.21731 -0.416,-77.46609 -1.0324,-78.61789 -0.5399,-1.00881 -2.4602,-2.15474 -4.2672,-2.54653 -3.9227,-0.85048 -12.6336,-1.03712 -13.3839,-0.28677 -0.2925,0.29247 -4.44,0.27728 -9.2167,-0.0338 -4.7767,-0.31103 -9.5849,-0.52511 -10.6849,-0.47572 -1.1,0.0494 -9.65,0.53327 -19,1.07529 -11.0747,0.642 -17.4134,0.64476 -18.1861,0.008 -0.7495,-0.61778 -1.8537,-0.63179 -3,-0.0381 -0.9976,0.51674 -2.7139,0.74651 -3.8139,0.51058 -1.1,-0.23592 -4.25,-0.30837 -7,-0.16099 -5.4469,0.29191 -9.9084,0.22158 -24.7227,-0.38972 -10.8122,-0.44616 -13.7773,-1.89617 -13.7773,-6.73747 0,-2.71606 2.7237,-11.91332 3.9298,-13.27006 1.542,-1.73453 112.7649,-2.52206 115.9434,-0.82095 5.9568,3.18799 7.1781,0.9325 7.8146,-14.43214 0.6789,-16.38851 1.8686,-276.93455 1.2922,-283 -0.1046,-1.1 0.1235,-9.11962 0.5067,-17.82139 0.5076,-11.52462 0.3674,-16.61674 -0.5163,-18.75 -1.2132,-2.92888 -3.3001,-3.82223 -4.4777,-1.91678 -0.4001,0.64735 -6.0949,0.82899 -15.809,0.50425 -18.6481,-0.62341 -16.4502,-0.61575 -43.6837,-0.15239 -12.375,0.21055 -23.175,0.54645 -24,0.74645 -0.825,0.2 -6.9784,0.007 -13.6742,-0.42906 -9.199,-0.59897 -12.6664,-0.4853 -14.1883,0.46512 -1.57,0.98048 -2.5238,0.9965 -4.3258,0.0727 -1.2714,-0.65182 -4.965,-1.30523 -8.2079,-1.452 -5.4076,-0.24475 -6.1251,-0.55695 -8.6571,-3.76687 -1.5185,-1.925 -3.0632,-4.96157 -3.4328,-6.74792 -0.5657,-2.73456 -0.214,-3.70579 2.2249,-6.1447 l 2.8968,-2.89678 18.9322,0.34731 c 47.8084,0.87705 114.2378,0.0365 115.7387,-1.46444 0.7114,-0.71135 1.1711,-19.20253 1.4003,-56.32624 0.3148,-50.98534 0.9023,-96.86063 1.2712,-99.26723 0.084,-0.55 -0.1563,-5.275 -0.5347,-10.5 -0.3785,-5.225 -0.5841,-10.625 -0.4571,-12 0.1271,-1.375 0.3204,-14.875 0.4297,-30 0.1093,-15.125 0.5033,-41.45 0.8755,-58.5 0.3723,-17.05 0.3121,-32.35 -0.1338,-34 -0.876,-3.242151 -0.3771,-3.16984 -17.1576,-2.486914 -1.375,0.05596 -8.125,0.08606 -15,0.0669 -17.7339,-0.04943 -172.4701,0.67605 -172.6447,0.80945 -0.08,0.06081 -0.3051,5.545662 -0.5012,12.188557 l -0.3566,12.077991 -3.8027,3.484937 c -2.0915,1.916716 -4.5173,3.34412 -5.3907,3.172009 -2.2488,-0.443163 -7.4288,-7.134087 -7.2846,-9.40936 1.4882,-23.46999 1.8426,-22.605593 -9.2187,-22.483715 -17.756,0.195643 -26.9357,0.236749 -35.8008,0.160317 -5.225,-0.04505 -11.4166,0.195192 -13.7591,0.533868 -2.6821,0.387778 -4.788,0.176817 -5.6876,-0.569767 -0.9177,-0.761629 -2.9847,-0.952163 -5.7808,-0.532861 -3.8836,0.582385 -22.3824,1.044117 -30.2725,0.755607 -15.1826,-0.555168 -18.3594,-0.591464 -32,-0.365615 -15.35,0.254151 -40.404,0.399976 -43,0.250278 -1.1,-0.06343 -15.9907,-0.277591 -33.0905,-0.475908 -17.0998,-0.198318 -31.5037,-0.615933 -32.0087,-0.928033 -0.5049,-0.312101 -2.9392,-0.177618 -5.4095,0.298851 -2.4702,0.476469 -13.8022,0.885906 -25.1823,0.909859 -14.582,0.03069 -20.9027,0.386211 -21.4083,1.204145 -0.3945,0.638326 -0.8208,3.000826 -0.9473,5.25 -0.4644,8.252451 -2.0831,13.365266 -5.0603,15.98264 -3.7887,3.330919 -4.8132,3.245596 -7.7237,-0.643234 -2.1082,-2.816948 -2.3942,-4.150272 -2.1462,-10.006425 0.3549,-8.377538 -0.07,-10.069451 -2.8348,-11.282949 -1.3121,-0.575985 -10.1965,-0.725266 -22.1884,-0.372824 -11,0.323291 -20.4275,0.210791 -20.95,-0.25 -1.3538,-1.193946 -4.9519,-1.03592 -6.2629,0.275066 -0.6457,0.645706 -1.6741,0.762886 -2.45,0.279146 -1.6946,-1.056653 -8.0158,-1.359339 -9.3371,-0.447108 -0.55,0.37971 -12.025,0.781986 -25.5,0.893946 -13.475,0.11196 -25.3091,0.456198 -26.298,0.764974 -0.9889,0.308776 -2.4514,0.01913 -3.25,-0.643652 -1.1367,-0.943406 -1.7869,-0.927121 -2.9944,0.075 -0.9923,0.823541 -1.887,0.93547 -2.5086,0.313842 -0.5966,-0.596648 -3.8561,-0.656588 -8.5216,-0.156709 -4.3816,0.469454 -8.273,0.425495 -9.2636,-0.104645 -0.9395,-0.502787 -5.0731,-0.679177 -9.186,-0.391979 -4.1128,0.287198 -9.5028,0.403423 -11.9778,0.258277 -4.5544,-0.26709 -39.1351,-0.120698 -57.5,0.243417 -5.5,0.109047 -25.3,0.04119 -44,-0.150792 -18.7,-0.191983 -34.9523,-0.0448 -36.1161,0.327074 -1.9295,0.616497 -2.0916,1.301199 -1.8382,7.763022 0.1528,3.89779 0.7676,7.576587 1.3661,8.175104 0.5985,0.598518 1.0882,1.812788 1.0882,2.698377 0,1.665866 -5.5972,7.989838 -7.0716,7.989838 -2.3709,0 -6.2147,-2.727216 -8.0662,-5.722953 -1.7111,-2.768596 -2.0043,-4.500141 -1.6221,-9.578295 0.2566,-3.409314 0.7528,-6.873752 1.1027,-7.698752 1.8005,-4.245257 1.7112,-4.251791 -56.59853,-4.141514 -30.51695,0.05772 -56.25888,0.401759 -57.20428,0.764543 -0.9454,0.362785 -5.39116,0.336101 -9.87945,-0.0593 -4.4883,-0.395398 -8.83554,-0.620077 -9.66054,-0.499286 -1.36325,0.199597 -85.12735,0.927777 -91,0.791082 -16.30748,-0.37958 -43.71557,-0.358075 -44.47413,0.0349 -0.53576,0.277554 -7.48995,0.528254 -15.45375,0.55711 L 746.59249,18.5 745.89593,21 c -0.38312,1.375 -0.74143,4.387406 -0.79625,6.694236 -0.18167,7.64421 -6.75314,12.263365 -11.51221,8.09206 C 731.45635,33.918379 730.86431,32.310538 730.35221,27 730.00746,23.425 729.2554,19.905351 728.68096,19.178558 727.82062,18.090038 705.23907,17.963176 600.56826,18.458826 530.68072,18.789766 471.925,19.254621 470,19.491836 468.075,19.729052 459.15071,19.602932 450.16825,19.211569 430.2267,18.342722 430,18.448305 430,28.604697 c 0,3.589732 -0.45765,7.381918 -1.01701,8.42708 -1.38284,2.583876 -8.56671,4.478925 -11.65125,3.073513 C 415.29441,39.177021 415,38.337424 415,33.455697 c 0,-3.072949 0.43363,-6.397418 0.96361,-7.387708 0.64368,-1.202715 0.56412,-2.858913 -0.23961,-4.988231 -0.96586,-2.558859 -1.59981,-3.056629 -3.21361,-2.523272 -2.60121,0.859695 -94.98146,1.805708 -131.01039,1.341602 -5.18785,-0.06683 -110.60846,-0.276847 -115,-0.229104 -13.19538,0.143455 -49.27138,1.50643 -51.37439,1.940958 -2.18804,0.452097 -2.33308,0.857049 -1.84809,5.159884 0.70772,6.278858 -1.6105,11.541669 -6.00764,13.638519 C 100.78747,43.499593 100.12232,42.70555 98.551127,30 L 97.5,21.5 54.687723,21.348701 11.875446,21.197403 l -0.97634,2.567969 c -0.9913717,2.607504 -0.388581,180.068638 0.649912,191.333808 0.643361,6.97892 -0.69007,10.86535 -3.7742672,11.0005 C 5.5866457,226.19556 5.5952254,226.22587 8,226.89543 l 2.5,0.69608 -0.0054,21.45424 c -0.003,11.79984 -0.07417,24.60425 -0.158248,28.45425 -0.08407,3.85 -0.129272,9.925 -0.100442,13.5 0.02883,3.575 -0.2779929,12.19997 -0.6818311,19.16661 -0.7196842,12.4153 -0.6902754,12.69014 1.4823211,13.85288 1.643257,0.87944 2.842649,0.90101 4.637132,0.0834 6.144129,-2.79945 13.65083,-0.19826 14.728501,5.10367 C 31.390011,334.06713 27.717904,337 20.644236,337 c -2.88433,0 -5.816178,-0.5625 -6.515219,-1.25 -1.019737,-1.0029 -1.656024,-0.77873 -3.218806,1.13401 -1.7251753,2.1115 -1.8807922,3.42603 -1.3614004,11.5 C 9.8713438,353.3978 10.07273,364.7 9.996336,373.5 9.7848782,397.85826 9.7734489,405.1422 9.8982671,436 c 0.063405,15.675 -0.1207232,33.225 -0.4091729,39 -0.2884497,5.775 -0.5304617,47.49457 -0.5378044,92.71016 -0.00734,45.21559 -0.4025375,82.45069 -0.8782105,82.74467 -0.475673,0.29399 -0.556856,1.99941 -0.1804066,3.78984 0.3764494,1.79043 0.5944728,6.0592 0.4844964,9.48616 -0.1099764,3.42695 0.024248,7.08819 0.298277,8.13608 0.6541865,2.50161 7.3273859,3.61729 12.1386359,2.02943 3.207226,-1.05848 3.715729,-0.96027 5.326223,1.0286 1.329545,1.64192 1.705451,3.58879 1.484236,7.68707 -0.420053,7.782 -1.538205,8.59222 -9.937041,7.20049 -7.8202467,-1.29586 -9.7703584,-0.34065 -9.6946759,4.74865 0.9557741,64.27146 1.4888364,157.41695 0.9553742,166.93885 -0.4358868,7.78025 -0.3863932,7.99782 1.8018017,7.9206 2.72137,-0.096 2.96935,2.12405 0.391363,3.50374 -1.7232749,0.92227 -1.875042,2.76376 -2.0838948,25.28519 C 8.9335762,911.56929 8.8207224,923.175 8.8066817,924 c -0.1120166,6.58189 0.00994,94.48 0.1358729,97.9298 0.088941,2.4365 0.3522993,4.7383 0.5852414,5.1152 0.2329421,0.3769 4.992333,0.9053 10.576425,1.1742 8.606318,0.4144 10.319744,0.7777 11.248224,2.3848 0.602432,1.0428 1.139192,2.121 1.192801,2.396 0.05361,0.275 0.723695,1.7893 1.489079,3.3651 1.327534,2.7332 1.238981,3.0015 -1.923288,5.827 -2.890412,2.5826 -3.974125,2.928 -8.462967,2.6971 -2.831438,-0.1456 -7.342848,-0.1802 -10.025354,-0.077 L 8.7454327,1045 l 0.1488441,28.75 c 0.1332221,25.7325 0.098281,50.3227 -0.081348,57.25 -0.035655,1.375 -0.2125035,47.725 -0.3929976,103 -0.1804941,55.275 -0.4050319,102.525 -0.498973,105 -0.368386,9.7056 1.1391804,40.4601 2.0268416,41.3478 0.5170458,0.517 4.7170208,0.8492 9.3332778,0.7382 l 8.393194,-0.2018 2.662864,3.4912 c 2.965962,3.8885 3.204669,5.3277 1.299566,7.8353 -2.040174,2.6853 -6.160571,3.7893 -14.142785,3.7893 -4.795215,0 -7.6443504,0.4344 -8.1431976,1.2415 -0.422023,0.6829 -0.8369679,8.9381 -0.9220997,18.345 -0.1731588,19.1337 0.047366,19.752 6.6655763,18.6886 5.009665,-0.8048 33.11968,-0.7643 59.564154,0.086 18.566629,0.597 23.325229,0.4863 24,-0.5582 0.667834,-1.0337 1.329099,-66.5884 1.178217,-116.8028 -0.01405,-4.675 -0.02516,-9.6002 -0.0247,-10.9449 0.0013,-3.6772 2.890507,-5.3168 8.147737,-4.6238 5.77003,0.7606 6.5642,1.6811 6.35199,7.3624 -0.16725,4.4779 -0.46409,102.036 -0.36069,118.5445 l 0.0491,7.8382 54.82058,-0.4142 c 30.15132,-0.2278 55.68882,-0.074 56.75,0.3418 1.06118,0.4159 2.60442,0.4602 3.42942,0.099 0.825,-0.3616 9.7553,-0.7998 19.84511,-0.9736 z m 617.99249,-31.7247 c -0.27265,-0.2727 -11.48515,-0.6205 -24.91666,-0.773 -22.24025,-0.2525 -24.71954,-0.4538 -27.76483,-2.2543 -3.20327,-1.8939 -3.32442,-2.1838 -2.88067,-6.8949 0.27775,-2.9487 1.11445,-5.394 2.08959,-6.1071 1.62006,-1.1846 12.78135,-2.8908 15.63497,-2.3901 3.36317,0.5901 77.87252,0.3655 96,-0.2894 10.725,-0.3875 20.85,-0.7149 22.5,-0.7275 1.65,-0.013 7.55788,-0.061 13.12863,-0.1076 9.87503,-0.082 10.18219,-0.016 12.26752,2.6347 1.40442,1.7854 1.91497,3.4246 1.48681,4.7737 -0.78206,2.464 -7.14671,8.9428 -9.77673,9.9521 -1.03079,0.3955 -21.81275,0.7108 -46.18214,0.7007 -28.43378,-0.012 -44.52907,0.3392 -44.92506,0.98 -0.62858,1.017 -5.75984,1.4043 -6.66143,0.5027 z M 1228,1401.9728 c -4.125,-0.29 -29.4578,-0.47 -56.2951,-0.3999 -56.504,0.1474 -54.5682,0.4301 -56.0403,-8.1843 -0.5378,-3.1466 -0.4457,-5.8997 0.2585,-7.7261 l 1.0939,-2.8375 21.2415,0.5909 c 11.6828,0.3249 48.3351,0.6025 81.4495,0.6168 52.891,0.023 60.3953,0.2135 61.75,1.5681 0.8481,0.8481 1.542,2.1152 1.542,2.8156 0,0.7005 0.9,2.0881 2,3.0836 4.5868,4.151 1.2897,8.9375 -6.8618,9.9617 -2.3874,0.3 -4.6326,0.716 -4.9894,0.9245 -0.3568,0.2085 -3.3336,0.01 -6.6149,-0.4466 -3.953,-0.5471 -6.4017,-0.4643 -7.2568,0.2454 -0.9224,0.7655 -2.5611,0.7154 -5.7439,-0.1757 -2.7922,-0.7818 -5.8671,-0.9544 -8.2433,-0.4629 -4.8333,0.9999 -8.0153,1.0783 -17.2899,0.4264 z m 311.8565,0.5504 c -0.2623,-0.2623 -22.0404,-0.7132 -48.3959,-1.002 l -47.9191,-0.5251 -2.498,-2.4981 c -3.0615,-3.0614 -3.3597,-8.8404 -0.6681,-12.9482 l 1.83,-2.7929 46.6473,0.6546 c 25.656,0.36 61.2723,0.6798 79.1473,0.7105 l 32.5,0.056 3.35,2.8174 c 4.3905,3.6923 4.7281,9.2506 0.7687,12.6562 -3.0115,2.5905 -11.1413,4.1277 -13.6253,2.5764 -1.1466,-0.716 -7.8306,-0.7734 -21.0861,-0.181 -22.8443,1.0209 -29.4022,1.1249 -30.0508,0.4763 z m -1346.22164,-4.5958 c -3.35405,-2.6383 -3.50132,-7.3905 -0.38486,-12.4195 l 2.25,-3.6309 22,0.6577 c 21.53138,0.6437 31.49801,0.7776 32.5,0.4365 2.15975,-0.7351 9.01851,-0.7503 9.46926,-0.021 0.32198,0.5209 5.59406,0.657 12.29718,0.3173 6.45346,-0.327 12.85856,-0.5685 14.23356,-0.5366 1.375,0.032 10.6,0.03 20.5,-0 39.81833,-0.1376 40.88833,-0.012 42.13185,4.9425 0.94098,3.7492 -0.68196,7.4586 -4.13735,9.4563 -2.68495,1.5523 -6.87103,1.7419 -40.4945,1.8336 -20.625,0.056 -39.525,0.1389 -42,0.1836 -5.80422,0.1048 -12.48483,0.01 -34.26073,-0.502 -9.76844,-0.2283 -18.00746,-0.016 -18.30902,0.4721 -0.30156,0.4879 -3.38604,0.8871 -6.85441,0.8871 -4.86554,0 -6.90804,-0.4735 -8.94098,-2.0726 z m 357.00461,1.2983 c -0.38055,-0.6158 -8.1445,-0.9243 -20.37713,-0.8097 -19.87747,0.1863 -24.26704,-0.2917 -24.25676,-2.6412 0.0131,-2.9953 2.13459,-8.5481 4.05221,-10.6065 2.06939,-2.2212 2.11795,-2.224 36.25719,-2.0716 18.80176,0.084 34.97963,-0.1794 35.95081,-0.5851 0.97119,-0.4057 8.17119,-0.4443 16,-0.086 17.03256,0.7803 16.45289,0.7739 34.9008,0.384 l 14.6666,-0.31 3.05562,3 c 1.6806,1.65 3.06813,3.7091 3.08341,4.5757 0.034,1.9287 -4.05594,5.9243 -6.06416,5.9243 -0.80468,0 -2.50645,0.7308 -3.78172,1.6241 -2.04738,1.434 -6.78284,1.6131 -40.47251,1.5308 -20.98461,-0.051 -39.72883,-0.1455 -41.65383,-0.2092 -1.925,-0.064 -5.13029,0.197 -7.12287,0.5794 -2.11223,0.4054 -3.87922,0.2805 -4.23766,-0.2994 z m 649.20933,-92.896 c -2.7511,-0.7303 -3.7324,-5.2226 -4.0478,-18.5303 -0.1919,-8.0962 -0.7317,-13.131 -1.4891,-13.888 -0.8447,-0.8444 -9.2257,-1.2758 -29,-1.4927 -15.2965,-0.1678 -27.8119,-0.3806 -27.8119,-0.4729 0,-0.5975 -11.5293,-0.7074 -11.8964,-0.1134 -0.4288,0.6938 -9.0689,0.6735 -67.4103,-0.1588 -30.5167,-0.4354 -28.1335,1.5643 -28.4566,-23.8776 -0.1302,-10.2476 -0.5401,-18.9348 -0.911,-19.3049 -0.3709,-0.3702 -10.9459,-0.8114 -23.5,-0.9805 -12.87141,-0.1733 -24.00217,-0.7683 -25.5234,-1.3644 -3.58592,-1.4049 -6.0023,-5.2899 -6.0023,-9.6503 0,-5.5971 1.26162,-6.3614 10.5171,-6.3713 4.50059,-0 10.2079,-0.2372 12.6829,-0.5164 2.475,-0.2792 10.125,-0.5372 17,-0.5732 6.875,-0.036 13.0724,-0.4289 13.772,-0.873 1.8049,-1.1454 2.0323,-9.7791 0.6101,-23.162 -1.0983,-10.3346 -2.9293,-58.2859 -2.3675,-62 0.1248,-0.825 0.124,-35.475 -0,-77 -0.1258,-41.525 -0.2927,-99.575 -0.3707,-129 l -0.142,-53.5 -6.5,0.25214 c -3.575,0.13868 -7.625,0.20945 -9,0.15727 -1.375,-0.0522 -10.66394,-0.16564 -20.64209,-0.25214 -16.30547,-0.14135 -18.35549,-0.35012 -20.25,-2.06226 -3.30462,-2.98649 -2.82696,-8.12089 1.09644,-11.7859 3.11609,-2.91087 3.43969,-2.98427 11.75,-2.66539 4.70011,0.18035 9.10062,-0.0251 9.77892,-0.45658 0.67829,-0.43147 6.30329,-0.69743 12.50003,-0.59102 6.1967,0.1064 13.8542,-0.14855 17.0167,-0.56655 4.9105,-0.64905 5.7671,-1.0717 5.867,-2.89479 0.064,-1.17413 0.1769,-6.20435 0.25,-11.17827 0.2425,-16.49123 2.9574,-17.91337 31.133,-16.3082 2.2,0.12533 10.525,-0.0961 18.5,-0.4921 7.975,-0.39599 15.175,-0.70796 16,-0.69327 0.825,0.0147 8.475,0.31384 17,0.66478 8.525,0.35093 17.3,0.62761 19.5,0.61483 2.2,-0.0128 17.681,-0.0743 34.4022,-0.1368 20.7896,-0.0777 30.8284,-0.46723 31.75,-1.2321 1.0163,-0.84342 1.3478,-4.66351 1.3478,-15.53128 0,-16.16275 0.7197,-18.43471 6.4379,-20.32186 3.7032,-1.22217 7.1115,-0.30595 9.7454,2.61973 1.3905,1.5446 1.7468,4.61956 2.0489,17.68148 0.2447,10.57962 0.7505,16.04955 1.5286,16.53045 0.6396,0.39531 5.3426,0.36531 10.4511,-0.0667 5.1084,-0.43196 10.4081,-0.52487 11.7769,-0.20646 6.1426,1.42884 49.1346,1.94998 51.6778,0.62642 1.0084,-0.52481 2.6035,-0.67324 3.5448,-0.32984 0.9413,0.3434 10.1663,0.43816 20.5,0.21057 19.7353,-0.43466 22.9965,-0.43382 78.2886,0.02 27.5168,0.22587 72.8953,-0.18821 111.5983,-1.01833 3.7861,-0.0812 4.207,-0.37356 5.5255,-3.8379 1.0051,-2.64119 1.5188,-9.36798 1.7372,-22.75 0.1706,-10.45 0.648,-19.35384 1.0609,-19.78631 1.1556,-1.21035 7.6721,-2.0324 10.4949,-1.32392 3.8914,0.97668 4.9566,3.88507 3.5581,9.71474 -0.9194,3.83263 -0.9148,5.26292 0.02,6.38982 0.8532,1.02803 1.1027,5.55715 0.8548,15.51417 -0.3687,14.80815 -0.061,15.93654 4.3555,15.97619 3.7878,0.034 9.2125,4.94146 33.2944,30.11968 4.95,5.17536 11.3213,12.10657 14.1585,15.40269 2.8371,3.29612 7.3184,8.46794 9.9583,11.49294 2.64,3.025 5.4937,6.36158 6.3416,7.41462 0.8479,1.05304 3.6791,4.03448 6.2916,6.62543 2.6125,2.59096 4.75,5.13062 4.75,5.6437 0,0.51307 4.05,5.1803 9,10.37162 4.95,5.19132 9,9.77758 9,10.19169 0,0.41412 0.5119,0.75294 1.1376,0.75294 0.6257,0 2.5382,1.67482 4.25,3.72182 1.7118,2.047 4.7356,5.5345 6.7196,7.75 1.984,2.2155 3.784,4.54074 4,5.1672 0.216,0.62646 2.3023,2.72592 4.6362,4.66546 2.3339,1.93954 5.4114,4.91448 6.8389,6.61098 1.4275,1.6965 3.2305,3.08454 4.0066,3.08454 0.7761,0 1.4111,0.41796 1.4111,0.9288 0,1.6846 6.8815,8.26247 7.9518,7.60098 0.6071,-0.37521 1.0509,-4.51549 1.0545,-9.8388 l 0.01,-9.19098 3.0748,-1.75 c 1.6911,-0.9625 3.9125,-1.75 4.9365,-1.75 2.5354,0 8.6533,3.71634 9.4239,5.72461 1.0605,2.76348 0.6894,30.53814 -0.4228,31.65036 -0.5637,0.56377 -1.025,1.77904 -1.025,2.7006 0,2.22 4.1333,10.87035 9.0403,18.91997 2.1779,3.57255 3.9597,7.51616 3.9597,8.76357 0,2.45742 1.4946,5.49559 4.2386,8.61629 0.9562,1.0874 2.0219,2.9103 2.3682,4.0509 0.3464,1.1405 1.1832,2.7487 1.8597,3.5737 2.9407,3.5864 4.907,11.6144 4.8987,20 -0.012,12.4564 -1.1453,22.9543 -2.9675,27.5 -2.8215,7.0381 -8.7018,18.5075 -10.0716,19.6444 -0.7294,0.6052 -1.3261,1.6506 -1.3261,2.3231 0,0.6724 -0.9,2.037 -2,3.0325 -1.1,0.9955 -2,2.4368 -2,3.203 0,0.7661 -1.1274,2.3838 -2.5053,3.595 -2.3407,2.0574 -2.57,3.1216 -3.4912,16.202 -0.5423,7.7 -0.992,14.675 -0.9993,15.5 -0.01,0.825 -1.3842,2.9625 -3.0595,4.75 -2.4006,2.5614 -3.8507,3.25 -6.8435,3.25 -3.4631,0 -3.9563,-0.3522 -5.6012,-4 -1.0414,-2.3094 -2.4975,-4 -3.4451,-4 -2.1544,0 -36.7988,35.8662 -40.5432,41.9731 -4.2006,6.8507 -6.0339,9.0456 -10.087,12.0764 -2.5379,1.8978 -5.1455,4.4606 -5.7947,5.6952 -1.2206,2.3213 -10.8698,13.0328 -25.63,28.4517 -4.675,4.8837 -10.975,11.6267 -14,14.9846 -3.025,3.3579 -7.1904,7.8611 -9.2565,10.0072 -2.066,2.146 -4.4803,5.0066 -5.365,6.3568 -0.8847,1.3503 -2.2202,2.455 -2.9678,2.455 -0.7477,0 -2.0125,1.2375 -2.8109,2.75 -2.2544,4.2711 -17.4271,19.25 -19.499,19.25 -2.4049,0 -3.2591,4.1924 -2.4437,11.9937 0.5476,5.2385 0.2856,6.5909 -2.2458,11.594 -1.5761,3.1152 -3.861,6.316 -5.0775,7.1131 -1.9967,1.3083 -2.505,1.2325 -5.2272,-0.7801 -3.6993,-2.735 -4.5033,-6.0647 -3.6923,-15.2921 0.3445,-3.9207 0.2215,-7.7425 -0.2736,-8.4929 -0.73,-1.1066 -4.8943,-1.2743 -22.0467,-0.8881 -11.6307,0.2619 -21.3349,0.1717 -21.5649,-0.2005 -0.23,-0.3722 -3.7057,-0.3007 -7.7237,0.1588 -4.0179,0.4595 -14.5054,0.7384 -23.3054,0.6197 -8.8,-0.1187 -28.6441,-0.1131 -44.098,0.012 -17.4851,0.1419 -29.1242,-0.1621 -30.8151,-0.8049 -3.193,-1.214 -13.2497,-1.3877 -13.9584,-0.241 -0.2692,0.4356 -13.4583,0.6712 -29.309,0.5235 -70.2277,-0.6544 -102.5456,-0.4895 -103.5635,0.5284 -0.5849,0.5849 -0.9548,4.5915 -0.8449,9.1513 0.2926,12.1393 -0.5971,16.271 -4.3967,20.4193 -3.099,3.3833 -4.7762,3.9475 -8.6656,2.9151 z M 1249,1262.5429 c 8.525,0.2705 17.3,0.5093 19.5,0.5307 10.0213,0.098 52.4153,0.2982 56,0.2651 32.3683,-0.2992 55.0289,-0.4036 108.5,-0.5003 98.6497,-0.1784 89.8348,0.093 92.1331,-2.8384 2.3503,-2.9978 17.7295,-19.54 30.8669,-33.2009 5.225,-5.4332 9.6849,-10.4153 9.9109,-11.0714 0.226,-0.6561 1.576,-2.0958 3,-3.1993 1.424,-1.1034 4.1641,-3.7921 6.0891,-5.9747 1.925,-2.1827 6.3125,-6.7564 9.75,-10.1638 3.4375,-3.4074 6.25,-6.6218 6.25,-7.1432 0,-0.5213 2.475,-3.2148 5.5,-5.9854 3.025,-2.7707 5.5,-5.5379 5.5,-6.1495 0,-0.6115 0.675,-1.1118 1.5,-1.1118 0.825,0 1.5,-0.435 1.5,-0.9666 0,-0.5317 1.9125,-3.1809 4.25,-5.8872 2.3375,-2.7063 7.4,-8.6478 11.25,-13.2034 3.85,-4.5556 9.4072,-10.7939 12.3493,-13.8629 2.9421,-3.0689 6.4894,-7.2674 7.8829,-9.3299 1.3935,-2.0625 3.0518,-3.75 3.6851,-3.75 0.6333,0 1.8855,-1.2375 2.7827,-2.75 0.8971,-1.5125 4.3568,-5.675 7.688,-9.25 3.3313,-3.575 6.0693,-6.8449 6.0844,-7.2665 0.015,-0.4216 2.8401,-3.6976 6.2776,-7.2799 3.4375,-3.5824 7.2739,-8.4124 8.5253,-10.7335 1.2514,-2.3211 3.4093,-5.7951 4.7953,-7.7201 1.386,-1.925 4.4554,-6.2102 6.8208,-9.5227 2.3654,-3.3125 4.6353,-7.8125 5.0442,-10 0.4088,-2.1875 1.072,-4.4273 1.4738,-4.9773 0.4017,-0.55 1.3136,-3.025 2.0264,-5.5 0.7129,-2.475 1.6973,-5.625 2.1875,-7 1.0919,-3.0623 0.2369,-23.9223 -1.1275,-27.5111 -1.0691,-2.8119 -5.1004,-11.6024 -10.76,-23.46286 -3.8453,-8.05831 -12.0223,-18.67894 -16.5227,-21.46033 -1.5328,-0.94731 -3.9106,-3.50244 -5.284,-5.67807 -1.3734,-2.17563 -5.1541,-6.75287 -8.4015,-10.17166 -3.2474,-3.41879 -7.4937,-8.01598 -9.4363,-10.21598 -1.9425,-2.2 -5.4577,-6.10646 -7.8116,-8.68101 -2.3538,-2.57456 -7.2047,-7.90589 -10.7797,-11.8474 -3.575,-3.94151 -8.9211,-9.71005 -11.8802,-12.81898 -5.6595,-5.94609 -14.2346,-15.82104 -20.1198,-23.16963 -1.925,-2.40368 -5.3,-6.20961 -7.5,-8.45763 -6.6326,-6.77735 -23.1661,-24.78762 -26.1864,-28.52535 -1.5555,-1.925 -8.6991,-9.36151 -15.8746,-16.52557 l -13.0464,-13.02558 -33.7942,0.34502 c -18.5867,0.18976 -34.5375,0.0373 -35.4462,-0.33885 -2.1434,-0.88717 -14.5098,-0.97009 -15.9069,-0.10665 -0.591,0.36529 -8.8755,0.61661 -18.4099,0.55848 -9.5345,-0.0581 -21.3854,0.0906 -26.3354,0.33056 -4.95,0.23992 -13.5,0.15634 -19,-0.18574 -5.5,-0.34208 -11.6752,-0.33133 -13.7226,0.0239 -2.0475,0.35523 -3.9554,0.41314 -4.2398,0.12869 -0.8337,-0.83368 -15.8108,-1.11065 -51.0376,-0.94384 -46.2589,0.21905 -145.8085,-0.23557 -146.2408,-0.66785 -0.1976,-0.19765 -1.8483,-0.0235 -3.6682,0.38691 -1.8199,0.41044 -5.5098,0.4062 -8.1999,-0.009 -2.6901,-0.41563 -5.3411,-0.41603 -5.8911,-9e-4 -0.55,0.41514 -3.7,0.42921 -7,0.0313 -3.3,-0.39794 -6.6926,-0.37077 -7.5391,0.0604 -0.8466,0.43114 -6.4716,0.57571 -12.5,0.32127 -6.0285,-0.25444 -14.3359,-0.40269 -18.4609,-0.32946 -34.0583,0.60467 -49.8372,0.52284 -57.8605,-0.30006 -7.5222,-0.77151 -9.6212,-0.69419 -10.688,0.3937 -1.0395,1.0602 -1.4585,10.35292 -1.9323,42.85376 -0.3328,22.825 -0.7546,43.75 -0.9375,46.5 -0.1829,2.75 0.09,7.39432 0.6066,10.32072 0.6693,3.79162 0.6081,5.7197 -0.213,6.70904 -0.6724,0.81018 -0.8815,2.6208 -0.5022,4.34792 0.3576,1.62779 0.7983,55.08372 0.9794,118.79092 0.1811,63.7073 0.597,118.0814 0.9243,120.8314 1.3014,10.9359 1.7248,22.3162 1.9432,52.2383 0.2052,28.102 0.4019,31.4122 1.9593,32.9696 1.6078,1.6077 5.7805,1.7114 58.476,1.4524 31.2096,-0.1533 58.7697,-0.3178 61.2447,-0.3655 12.6752,-0.2441 31.9644,0.3388 32.3584,0.9778 0.2467,0.4001 9.6045,0.4014 20.7951,0 11.1906,-0.3985 27.3215,-0.5032 35.8465,-0.2327 z m -362.46584,40.5124 c -3.39927,-5.5002 -3.71648,-9.5732 -4.09305,-52.5553 -0.20721,-23.65 -0.32266,-55.825 -0.25656,-71.5 0.0661,-15.675 0.0647,-32.9351 -0.003,-38.3558 -0.15476,-12.3685 0.934,-14.876 7.06869,-16.2798 5.15628,-1.1799 8.5474,-0.068 9.29277,3.0481 0.27467,1.1481 0.26254,7.0375 -0.027,13.0875 -0.28949,6.05 -0.5971,12.575 -0.68359,14.5 -0.0865,1.925 -0.098,8.675 -0.0256,15 0.39925,34.8696 -0.43043,127.7518 -1.15431,129.2254 -0.88435,1.8004 -6.02173,4.7746 -8.24706,4.7746 -0.70804,0 -1.55009,-0.4251 -1.87122,-0.9447 z M 254.98904,1296.75 c -1.57806,-2.5882 -2.00581,-5.1845 -2.10064,-12.75 -0.0655,-5.225 -0.28189,-17.15 -0.48087,-26.5 -0.36186,-17.0032 -0.42793,-107.0614 -0.0878,-119.7 0.23583,-8.7636 0.87613,-9.346 9.84874,-8.9584 3.03922,0.1312 4.04204,0.7629 5.84657,3.6827 2.07774,3.3618 2.1503,4.272 1.57454,19.75 -0.33197,8.9241 -0.53965,41.6507 -0.46151,72.7257 0.0781,31.075 0.11704,57.9087 0.0864,59.6305 -0.12143,6.8313 -6.0623,15.3695 -10.69399,15.3695 -0.85243,0 -2.44158,-1.4625 -3.53144,-3.25 z m 318.24596,0.8456 c -1.86753,-0.6382 -4.11239,-2.5092 -5.24482,-4.3714 -1.90991,-3.1405 -1.98043,-5.2238 -1.99692,-58.9899 -0.0247,-80.6911 0.39227,-107.0198 1.71597,-108.3435 0.61426,-0.6143 3.11536,-1.3421 5.55798,-1.6175 3.91929,-0.4417 4.76025,-0.164 7.15675,2.3631 l 2.7156,2.8636 -0.31308,14.5 c -0.1722,7.975 -0.0133,14.9634 0.35315,15.5298 0.36642,0.5664 0.64907,13.8414 0.6281,29.5 -0.11778,87.9356 -0.12392,84.7894 0.18267,93.5616 0.21884,6.2616 -0.0684,7.5694 -2.45449,11.175 -3.23913,4.8946 -4.06649,5.2763 -8.30091,3.8292 z m 1255.0733,-4.6052 c -4.204,-1.6934 -5.7481,-5.7005 -6.5262,-16.9365 -0.6637,-9.5832 -0.8581,-17.3726 -0.6753,-27.0539 0.036,-1.925 -0.2554,-11.15 -0.6484,-20.5 -0.3929,-9.35 -0.6423,-19.7 -0.5542,-23 0.088,-3.3 0.3747,-21.6188 0.6369,-40.7084 0.2622,-19.0896 0.9116,-35.8521 1.4431,-37.25 0.5826,-1.5324 1.7468,-2.5416 2.932,-2.5416 1.0812,0 2.2439,-0.45 2.5838,-1 1.1035,-1.7855 7.0178,-1.0979 9.3649,1.0888 l 2.242,2.0887 -0.6849,29.1613 c -0.3766,16.0386 -0.8192,32.5362 -0.9833,36.6612 -0.7342,18.4445 -0.2907,76.9191 0.6337,83.5656 0.8708,6.2607 0.7751,7.8385 -0.6456,10.6424 -3.2978,6.5087 -4.8584,7.4984 -9.1185,5.7824 z m -205.5105,-62.526 c -0.3378,-0.3378 -5.2324,-0.8246 -10.8768,-1.0817 -11.2322,-0.5117 -11.2708,-0.5319 -14.9391,-7.8205 -2.738,-5.4401 -2.4979,-7.2657 1.2681,-9.6439 3.045,-1.9228 4.2165,-2.0108 18.575,-1.3953 8.4288,0.3614 30.2538,0.5662 48.5,0.4552 18.2463,-0.1109 40.9778,-0.1181 50.5145,-0.016 14.7437,0.1579 17.6069,-0.056 19.1264,-1.4314 1.596,-1.4444 1.8503,-1.4523 2.3792,-0.074 0.4308,1.1228 2.0385,1.5432 5.901,1.5432 6.6422,0 9.7539,1.9638 9.7539,6.1556 0,4.4642 -2.7547,9.5145 -5.8202,10.6703 -5.3645,2.0225 -48.4276,3.1206 -97.1798,2.4778 -7.425,-0.098 -16.4448,0.037 -20.044,0.2985 -3.5992,0.262 -6.8204,0.2 -7.1582,-0.1378 z m -954.224,-3.2382 c -11.15322,-0.1703 -18.42637,-0.6889 -19.25,-1.3724 -2.12474,-1.7634 -1.72492,-12.1369 0.57737,-14.9801 1.88287,-2.3252 2.06811,-2.3447 19.25,-2.0224 14.30421,0.2684 77.90454,0.2563 98.84883,-0.019 3.025,-0.04 8.425,-0.022 12,0.04 3.575,0.062 10.4021,0 15.17133,-0.1301 8.00431,-0.224 8.87231,-0.054 11.28412,2.2137 2.1222,1.9951 2.48864,3.0217 1.95152,5.4672 -0.91627,4.1717 -2.24199,6.0403 -5.82477,8.2099 -2.88847,1.7492 -6.2563,1.8791 -53.5822,2.0666 -27.775,0.1101 -53.2,0.3351 -56.5,0.5 -3.3,0.165 -14.06679,0.1767 -23.9262,0.026 z m -320.36476,-1.3026 c -4.18001,-0.8736 -6.92441,-3.3512 -7.71893,-6.9686 -0.83395,-3.797 0.69448,-6.3402 5.05353,-8.4087 3.24568,-1.5402 7.94902,-1.7062 46.28458,-1.6339 52.22617,0.099 44.9597,0.1348 74.02922,-0.3705 13.3966,-0.2329 24.6009,-0.6669 24.89846,-0.9645 1.94762,-1.9476 9.13833,3.0672 9.20928,6.4226 0.0766,3.6251 -3.51645,8.2782 -7.46518,9.6675 -3.39128,1.1932 -40.32189,2.9354 -56,2.6418 -1.65,-0.031 -6.15,-0.1199 -10,-0.1978 -3.85,-0.078 -22.3,0 -41,0.1792 -18.7,0.1764 -35.48093,0.011 -37.29096,-0.3671 z M 50.550077,1225.081 c -0.398188,-0.6443 -4.280354,-1.081 -9.609094,-1.081 -10.395843,0 -12.218363,-1.0795 -13.30604,-7.8815 -1.287888,-8.054 -1.782799,-7.8921 25.099479,-8.2084 13.071068,-0.1537 48.355878,-0.3089 78.410688,-0.3448 52.38321,-0.063 54.73225,0.014 56.75,1.8397 4.09648,3.7074 2.18768,9.5266 -4.47577,13.6449 -3.37401,2.0852 -4.31827,2.1765 -16.25075,1.5704 -6.96772,-0.3538 -13.34359,-0.591 -14.16859,-0.5271 -0.825,0.064 -22.875,0.1875 -49,0.2745 -26.125,0.087 -48.688407,0.5264 -50.140906,0.9763 -1.672321,0.518 -2.885943,0.4216 -3.309017,-0.263 z m 50.021353,-106.6524 c -0.864287,-0.8643 -1.626802,-1.6518 -1.694479,-1.75 -0.291593,-0.4232 -1.016807,-73.203 -1.183109,-118.73238 -0.164161,-44.9434 -0.02445,-49.7927 1.501611,-52.12177 2.042387,-3.11708 6.032347,-4.02929 10.772097,-2.4628 3.29778,1.08992 3.52294,1.43224 3.38933,5.15291 -0.40037,11.14917 -0.48336,31.01932 -0.34448,82.48544 0.0838,31.075 0.1234,57.5125 0.0879,58.75 -0.0355,1.2375 -0.0325,3.2625 0.007,4.5 0.0393,1.2375 -0.11172,7.1227 -0.33548,13.0783 -0.29931,7.9661 -0.78545,11.0678 -1.83922,11.7347 -2.30854,1.4608 -8.65423,1.0723 -10.36094,-0.6344 z m 314.22903,-2.7146 c -3.36066,-2.7562 -3.63464,-4.6725 -4.22343,-29.5396 -0.30237,-12.7702 -0.85859,-19.8087 -1.63975,-20.75 -0.91345,-1.1006 -0.89366,-1.772 0.0871,-2.9537 0.98887,-1.1915 1.29431,-13.7762 1.38283,-56.9747 0.12683,-61.89313 -0.32259,-58.20537 7.20526,-59.12361 2.72055,-0.33186 4.78816,0.0897 6.88758,1.40435 l 3,1.87856 0.14195,37.42235 c 0.0781,20.58225 0.16009,38.54735 0.18226,39.92235 0.0222,1.375 0.0485,21.2578 0.0584,44.1841 l 0.0181,41.684 -4.37843,2.566 c -5.25027,3.0768 -5.30933,3.0787 -8.72184,0.2799 z m 312.9419,0.8855 c -1.18895,-1.1889 -1.61656,-5.2781 -2.01864,-19.304 -0.55,-19.1861 -0.62231,-24.3207 -0.44073,-31.2955 0.12953,-4.9755 -0.012,-15.0584 -0.30891,-22 -0.10584,-2.475 0.13337,-5.9666 0.53158,-7.7592 0.44908,-2.0215 0.28925,-3.783 -0.42087,-4.6386 -0.80786,-0.9735 -0.86405,-2.6295 -0.19085,-5.6257 0.56284,-2.505 0.5928,-5.1963 0.0731,-6.5633 -0.48455,-1.2745 -0.58649,-9.4263 -0.22653,-18.1152 0.35996,-8.6889 0.55684,-22.998 0.43752,-31.798 -0.23993,-17.69483 0.16678,-21.70192 2.43272,-23.96785 2.24386,-2.24386 9.28135,-1.98219 11.86072,0.44101 2.17328,2.04169 2.23826,3.48307 1.44388,32.02684 -0.0536,1.925 0.11178,31.7184 0.36746,66.2076 0.41953,56.5921 0.30734,62.9312 -1.15038,65 -0.88839,1.2608 -2.29411,3.6424 -3.12382,5.2924 -1.75511,3.4903 -6.74487,4.6208 -9.26621,2.0995 z m -545.00148,-69.4168 c -4.00997,-0.4612 -6.09503,-4.9723 -5.22433,-11.303 0.91661,-6.6646 2.15203,-7.1712 15.82311,-6.4895 14.19127,0.7076 38.24536,0.7513 97.16034,0.1764 39.83379,-0.3887 47.48611,-0.2355 50.18819,1.005 5.59901,2.5703 5.28231,6.5378 -1.05624,13.2319 l -3.12806,3.3036 -13.00946,-0.2624 c -7.1552,-0.1444 -13.56857,0.083 -14.25194,0.5054 -0.68337,0.4224 -1.75669,0.4501 -2.38516,0.062 -0.62847,-0.3884 -6.14097,-0.5849 -12.25,-0.4366 -10.15831,0.2465 -51.38714,0.4038 -56.10733,0.2141 -1.1,-0.044 -13.475,0.01 -27.5,0.1152 -14.025,0.1075 -26.74161,0.053 -28.25912,-0.1218 z M 836,1046.404 c -2.70837,-1.3609 -14.56061,-2.1767 -15.65949,-1.0778 -1.141,1.141 -6.03681,0.7451 -7.12619,-0.5762 -0.56681,-0.6875 -1.9352,-3.9357 -3.04088,-7.2181 -2.26515,-6.7247 -1.71823,-8.9941 2.55959,-10.6205 4.41579,-1.6789 142.51129,-2.7092 152.25418,-1.136 3.56093,0.575 4.76237,1.299 5.82022,3.5073 1.14505,2.3903 1.08944,3.4479 -0.39439,7.5 -3.35837,9.1712 2.99152,8.3807 -66.98784,8.3386 -49.04691,-0.029 -62.17809,0.2297 -63.39295,1.2509 -1.23611,1.0391 -2.01542,1.0453 -4.03225,0.032 z m -336.77731,-0.7598 c -2.74397,-1.4411 -5.17632,-4.9443 -5.20045,-7.4899 -0.0267,-2.8157 2.76473,-7.8101 4.92484,-8.8115 0.85411,-0.3959 8.52792,-0.7944 17.05292,-0.8854 8.525,-0.091 16.29213,-0.5061 17.26029,-0.9224 0.96816,-0.4163 8.39316,-0.434 16.5,-0.039 27.71838,1.3494 68.79911,1.0262 69.7726,-0.5489 0.33292,-0.5387 1.11536,-0.6642 1.73875,-0.2789 0.6234,0.3853 7.85215,0.7754 16.0639,0.8669 14.47042,0.1613 14.98898,0.2403 16.82945,2.5658 3.68808,4.66 0.36596,12.7776 -6.16499,15.0641 -2.26569,0.7933 -8.96623,1.1732 -19,1.0774 -26.07993,-0.249 -78.17598,-0.225 -103.77731,0.048 -13.35253,0.1424 -25.05253,-0.1483 -26,-0.6459 z M 570.75,945.28549 c -0.9625,-0.23768 -1.75,-1.1099 -1.75,-1.93827 0,-1.15324 -0.70292,-1.35174 -3,-0.84722 -2.29708,0.50452 -3,0.30602 -3,-0.84722 0,-0.82837 0.74064,-1.65163 1.64588,-1.82946 1.12007,-0.22003 1.76171,-1.60119 2.00846,-4.32332 0.19942,-2.2 0.54018,-39.17068 0.75724,-82.15707 0.21706,-42.98639 0.68627,-79.07588 1.04269,-80.19885 0.35642,-1.12298 1.54399,-2.32614 2.63906,-2.6737 3.1194,-0.99006 9.91685,0.5398 12.10041,2.72336 1.71005,1.71005 1.88901,2.78526 1.30339,7.83102 -0.52121,4.49073 -0.6832,73.80587 -0.29324,125.47524 0.17181,22.76424 -1.46926,34.0901 -5.38795,37.18495 -1.69112,1.33558 -5.82058,2.155 -8.06594,1.60054 z m 1257.6702,-3.43004 c -1.1439,-0.55505 -2.8616,-2.33271 -3.8172,-3.95035 -1.5956,-2.70114 -1.7344,-7.53022 -1.7011,-59.17314 0.044,-68.98863 0.01,-78.70784 -0.33,-90.73196 -0.1473,-5.225 0.098,-10.22805 0.5446,-11.1179 1.7127,-3.41048 10.9907,-3.2942 14.7247,0.18455 1.9222,1.79079 1.9609,2.81116 1.3348,35.13885 -0.3547,18.31198 -0.5832,37.3445 -0.5078,42.2945 0.075,4.95 0.1315,13.275 0.1245,18.5 -0.015,11.51419 -0.027,9.26816 0.2057,38 0.2396,29.51271 0.3645,27.63709 -1.9984,30 -2.1556,2.15564 -5.262,2.46536 -8.5798,0.85545 z m -942.69561,-4.60728 c -3.12925,-3.45779 -3.45738,-6.767 -2.90012,-29.24817 0.30676,-12.375 0.47951,-27.675 0.38389,-34 -0.0956,-6.325 -0.0979,-13.975 -0.005,-17 0.0928,-3.025 0.0805,-12.475 -0.0273,-21 -0.48197,-38.12 0.19545,-60.76475 1.91795,-64.11297 1.683,-3.27142 13.13758,-3.29113 14.42257,-0.0248 0.35438,0.90079 0.52521,11.98779 0.37964,24.63779 -0.14557,12.65 -0.19539,25.7 -0.11071,29 0.29761,11.59796 0.11537,53.2285 -0.32613,74.5 -0.68964,33.22706 -0.93269,34.6421 -6.43924,37.48965 -3.78408,1.95682 -5.35299,1.90489 -7.29543,-0.24148 z m -628.19022,-2.28802 c -1.6311,-1.04151 -3.36396,-2.92112 -3.8508,-4.17691 -1.26736,-3.26905 -1.84747,-155.60847 -0.60143,-157.93671 0.58077,-1.08519 2.08541,-1.84653 3.64929,-1.84653 3.24887,0 10.22174,4.65876 11.16247,7.45794 0.37746,1.12313 0.60136,12.39206 0.49756,25.04206 -0.45147,55.01925 -0.4404,65.71813 0.0996,96.26471 l 0.5704,32.26472 -2.48529,2.48528 c -2.9249,2.92491 -4.99875,3.02707 -9.04182,0.44544 z m 81.78091,-69.23352 c -2.95134,-1.54633 -4.09732,-4.4655 -3.54466,-9.02929 0.61752,-5.09942 3.42954,-6.84155 10.89894,-6.75224 3.20674,0.0383 16.63044,-0.35993 29.83044,-0.88505 30.59811,-1.21726 48.02375,-1.27508 52.67274,-0.17477 2.29351,0.54282 4.04481,0.49717 4.66355,-0.12157 0.85033,-0.85033 31.05824,-1.8961 49.14389,-1.70133 5.75794,0.062 10.01478,1.95318 15.26982,6.78387 3.43979,3.16202 3.49416,6.10575 0.17045,9.22944 -3.04452,2.8613 2.34055,2.67002 -94.42045,3.35388 -45.75779,0.3234 -63.08523,0.1351 -64.68472,-0.70294 z M 499,858 c 0,-0.55 -0.45,-1 -1,-1 -0.55,0 -1,0.45 -1,1 0,0.55 0.45,1 1,1 0.55,0 1,-0.45 1,-1 z m 156.11085,6.63592 c -3.14721,-1.40377 -4.30881,-9.61535 -1.83815,-12.99418 1.43494,-1.96239 15.9231,-2.40693 82.7273,-2.53833 18.975,-0.0373 35.175,-0.12818 36,-0.2019 4.39389,-0.39266 25.40794,-1.27021 31.20169,-1.30299 5.72296,-0.0324 7.07384,0.3117 9.25,2.35609 4.27463,4.01581 3.30356,7.10464 -3.45169,10.97935 -8.43184,4.83639 -3.68177,4.56604 -80.22595,4.56604 -39.44927,0 -72.59771,-0.38884 -73.6632,-0.86408 z m 1057.83505,0.33061 c -0.5467,-0.33784 -24.4361,-0.54474 -53.0876,-0.45978 l -52.0937,0.15447 -1.9348,-3.08061 c -2.3842,-3.79604 -1.9068,-9.80491 1.027,-12.9289 1.8969,-2.01986 2.8788,-2.1422 16.024,-1.99652 7.7019,0.0854 14.3669,0.37053 14.8113,0.63373 0.4443,0.2632 4.5867,-0.12969 9.2053,-0.87309 4.6186,-0.74341 8.7524,-1.13227 9.1862,-0.86414 1.8171,1.12302 32.0061,1.61874 33.2978,0.54677 0.9082,-0.75375 5.9609,-0.88478 16.2189,-0.4206 18.7994,0.8507 29.76,0.85135 35.0311,0.002 3.8092,-0.61372 4.4585,-0.36674 8.3236,3.16636 3.2262,2.94905 4.3176,4.76756 4.7368,7.89236 0.4711,3.51276 0.2169,4.27507 -1.8852,5.65239 -4.0382,2.64594 -35.3853,4.72346 -38.8607,2.57549 z M 31.592812,863.79316 c -0.693547,-0.38877 -2.496255,-2.48933 -4.006018,-4.66792 -3.007892,-4.34039 -2.74148,-5.8888 1.868623,-10.86059 2.17321,-2.3437 2.242866,-2.34979 28.611548,-2.50062 29.646709,-0.16957 44.818735,-0.0868 52.933035,0.28862 3.025,0.13997 7.1875,0.18947 9.25,0.11001 4.6472,-0.17904 9.74381,-0.21313 14,-0.0936 1.7875,0.0502 14.91445,0.0639 29.17101,0.0306 27.66377,-0.0647 27.49676,-0.0931 30.19606,5.12677 1.36894,2.64724 1.31529,3.14698 -0.68531,6.38402 -1.28548,2.07995 -2.7204,3.30094 -3.51911,2.99445 -0.74173,-0.28463 -1.58248,-0.13909 -1.86833,0.32343 -1.12826,1.82556 -12.02537,2.25654 -66.95048,2.64789 -31.401612,0.22374 -63.989234,0.52313 -72.416937,0.66531 -8.427704,0.14218 -15.890545,-0.0596 -16.584091,-0.44833 z M 606.09394,785.61319 c -0.81795,-0.98557 -0.86038,-1.6395 -0.13544,-2.08754 0.5806,-0.35883 1.33304,0.0705 1.6721,0.9541 0.84418,2.19989 -0.0836,2.88424 -1.53666,1.13344 z m 757.51736,-5.10662 c -1.9319,-1.46257 -3.6637,-4.07436 -5.6404,-8.50657 -1.3654,-3.06149 -2.098,-80.3102 -0.7953,-83.87164 0.4783,-1.30783 0.4855,-2.87776 0.016,-3.5 -0.4682,-0.6206 -0.6748,-6.30336 -0.4589,-12.62836 0.2158,-6.325 0.5324,-26.02673 0.7035,-43.78162 0.2823,-29.29476 0.4759,-32.46375 2.0924,-34.25 2.2677,-2.50577 8.4539,-2.62456 11.3725,-0.21838 2.0949,1.72712 2.1302,2.38142 2.6985,50.04182 0.3604,30.22122 0.2171,48.74391 -0.383,49.5 -1.6475,2.07576 -2.2298,47.28485 -0.6778,52.62374 0.8692,2.99035 1.2513,8.99976 1.0989,17.28249 -0.2012,10.93109 -0.5053,13.01836 -2.1857,15 -3.6091,4.25613 -4.8035,4.6078 -7.8407,2.30852 z M 101.23449,776.7496 c -1.16278,-1.23772 -2.478724,-4.27522 -2.924318,-6.75 C 97.864577,767.52482 97.5,728.7497 97.5,683.83266 v -81.66734 l 2.5,-2.67512 c 2.11153,-2.25944 3.10151,-2.59532 6.37108,-2.16158 2.1291,0.28245 4.34469,0.98715 4.92353,1.56599 0.90056,0.90056 1.17301,31.28681 0.79448,88.60539 -0.0182,2.75 0.19577,14.225 0.47541,25.5 0.62363,25.14448 0.60033,29.89231 -0.18363,37.41916 -0.33908,3.25554 -0.67599,10.0711 -0.74869,15.14569 -0.10814,7.54856 -0.47863,9.60922 -2.03717,11.33084 -2.4723,2.73098 -5.71082,2.67439 -8.36052,-0.14609 z m 942.50581,-3.24156 C 1040.6059,770.7495 1039,767.18753 1039,762.99392 c 0,-1.58174 -0.4892,-3.17823 -1.0871,-3.54776 -0.5979,-0.36953 -0.8418,-1.61018 -0.5419,-2.75698 0.2999,-1.14681 0.064,-2.66529 -0.5247,-3.37441 -0.6043,-0.72812 -0.7291,-2.05654 -0.2868,-3.05204 1.0728,-2.41435 1.4451,-19.83655 1.9053,-89.1639 0.2168,-32.67065 0.6461,-60.40456 0.9539,-61.63092 0.627,-2.49821 6.0275,-5.46791 9.9435,-5.46791 2.9793,0 6.5986,3.46452 6.7262,6.43856 0.049,1.13379 -0.01,6.78644 -0.1229,12.56144 -0.1831,9.10023 -0.3151,31.56603 -0.2113,36 0.019,0.825 0.018,8.925 -0,18 -0.062,27.14276 -0.057,31.03528 0.094,67.95038 l 0.1446,35.45038 -2.6822,2.79962 c -3.2735,3.41679 -5.9376,3.50246 -9.5677,0.30766 z M 417.76505,770.25 c -0.84971,-0.9625 -2.58604,-4.19658 -3.85851,-7.18685 l -2.31359,-5.43684 0.13233,-47.56316 C 411.84059,668.6157 412.48194,609.46189 412.89691,602 c 0.10131,-1.82183 1.48735,-3.38163 5.10944,-5.75 2.73373,-1.7875 5.44713,-3.25 6.02978,-3.25 0.58265,0 2.16731,1.19548 3.52145,2.65663 2.43265,2.62487 2.45653,2.83102 1.99722,17.2435 -0.38146,11.96964 -0.63374,51.92791 -0.37629,59.59987 0.0608,1.8109 -0.0416,36.91777 -0.11807,40.5 -0.0176,0.825 -0.15092,12.525 -0.29624,26 -0.25338,23.49677 -0.35716,24.64949 -2.53444,28.15078 -3.15769,5.07789 -5.84824,6.063 -8.46471,3.09922 z m 1260.28945,-0.5 c -3.9969,-4.87738 -5.8584,-7.67233 -6.993,-10.5 -0.7173,-1.7875 -1.587,-3.24969 -1.9328,-3.2493 -0.6477,7.2e-4 -0.6382,-2.05179 0.2974,-64.5007 0.3049,-20.35 0.5587,-49.01241 0.5641,-63.69424 0.01,-26.48211 0.028,-26.71569 2.3325,-29.39455 1.9744,-2.29537 2.8383,-2.60359 5.7607,-2.05535 1.8908,0.35473 4.6692,1.78666 6.1741,3.18206 l 2.7361,2.53709 -0.049,44.21249 c -0.027,24.31688 -0,61.0405 0.051,81.60805 l 0.1,37.39555 -2.7347,2.85445 c -2.973,3.1031 -4.7148,3.54627 -6.3061,1.60445 z m -948.50433,-2.93913 c -2.97898,-2.83881 -3.35928,-13.73629 -3.33558,-95.58103 l 0.0212,-73.27016 2.38186,-1.87357 c 2.0219,-1.59043 2.99162,-1.7188 6.41672,-0.84942 2.28995,0.58126 4.56046,1.94079 5.25024,3.14374 0.89481,1.5605 1.27856,14.12086 1.4549,47.61957 0.13173,25.025 0.27609,47.075 0.3208,49 0.0447,1.925 -0.006,18.21823 -0.11345,36.20717 -0.21657,36.37552 0.0287,35.11121 -7.12376,36.71613 -2.57644,0.57812 -3.76122,0.32817 -5.27294,-1.11243 z M 1058,699.05902 c 0,-0.51754 0.45,-1.2191 1,-1.55902 0.55,-0.33992 1,0.0835 1,0.94098 0,0.85746 -0.45,1.55902 -1,1.55902 -0.55,0 -1,-0.42344 -1,-0.94098 z m -878.75,-6.95504 c -2.43294,-2.59084 -3.06696,-8.70896 -1.25363,-12.09719 1.77714,-3.32062 10.50271,-4.52098 22.79338,-3.13563 6.0414,0.68096 14.4156,0.92732 19.21025,0.56514 4.675,-0.35314 18.85,-0.69229 31.5,-0.75366 16.47629,-0.0799 23.35251,-0.45391 24.24281,-1.31849 0.90251,-0.87644 2.21806,-0.93763 4.80456,-0.22346 1.95897,0.5409 6.3497,0.97412 9.75719,0.96271 3.40749,-0.0114 15.77585,-0.0794 27.48525,-0.151 18.04785,-0.11042 21.66444,0.11522 23.75,1.48173 4.87112,3.19168 2.53513,11.06608 -4.02244,13.55927 -1.32153,0.50244 -9.74106,0.96516 -18.71007,1.02827 -8.96902,0.0631 -17.8823,0.28309 -19.8073,0.48887 -6.08963,0.65095 -60.39519,1.80245 -89.5,1.89776 l -28,0.0917 z m 1271.3543,1.59746 C 1449.1719,693.22398 1448,692.19583 1448,691.41667 1448,690.6375 1447.6025,690 1447.1166,690 c -2.9436,0 -1.8347,-10.48339 1.3281,-12.55573 2.4012,-1.5733 15.6735,-1.95244 104.5049,-2.98528 47.373,-0.5508 50.678,-0.47596 54.1953,1.22722 2.0602,0.99758 4.0065,2.48879 4.3253,3.31379 0.3188,0.825 1.2248,2.64748 2.0134,4.04996 1.7854,3.17532 1.0153,6.39312 -2.0034,8.37109 -1.9109,1.25202 -8.6884,1.62177 -39.1456,2.13558 -59.7354,1.00774 -118.9302,1.07816 -121.7303,0.14481 z M 497.92308,691.07692 C 495.47896,688.6328 495,687.34204 495,683.19937 c 0,-3.34922 0.52542,-5.39054 1.62165,-6.30033 1.31047,-1.0876 12.83242,-1.39274 60.04325,-1.59016 32.13187,-0.13436 58.78762,-0.47052 59.235,-0.74702 0.44738,-0.27649 6.84294,-0.59846 14.21234,-0.71549 11.44801,-0.18179 13.79852,0.049 16.14334,1.58544 3.61853,2.37095 3.87874,8.24284 0.49442,11.15696 -6.06783,5.22481 -6.65257,5.31546 -35.33165,5.47753 -14.80509,0.0837 -30.51835,0.24635 -34.91835,0.36152 -11.20109,0.29319 -51.89421,0.6753 -52.5,0.49298 -2.20678,-0.66416 -18.14391,-0.49697 -18.57146,0.19482 -1.0987,1.77774 -4.65503,0.81174 -7.50546,-2.0387 z m 399.98267,2.4955 c -0.9809,-0.9809 -9.89156,-1.52909 -23.90575,-1.47069 -7.425,0.0309 -15.075,0.017 -17,-0.031 -1.925,-0.048 -12.58937,-0.19602 -23.69859,-0.329 -14.96821,-0.17916 -20.5356,-0.5783 -21.5,-1.54136 -0.80976,-0.80861 -1.30141,-3.83091 -1.30141,-8 V 675.5 l 12,-0.12651 c 57.82137,-0.60957 119.73055,-1.534 123,-1.83664 4.98583,-0.46152 22.37455,1.39954 24.79787,2.65404 5.13414,2.65783 3.33653,10.42449 -3.18252,13.75026 -3.33258,1.70016 -6.80098,1.94336 -33.66535,2.36056 -16.4725,0.25582 -31.0805,0.77459 -32.46221,1.15283 -1.38172,0.37824 -2.76863,0.43128 -3.08204,0.11788 z m 258.89545,-1.08519 c -0.3843,-0.39499 -4.92,-0.67559 -10.0793,-0.62354 -17.1142,0.17266 -21.5115,-3.19122 -16.9719,-12.98329 l 1.75,-3.77483 32.2075,-0.026 c 20.8786,-0.0169 32.4297,0.3334 32.8391,0.99577 0.4202,0.67996 1.0956,0.63655 2.019,-0.12976 1.4621,-1.21342 72.4348,-2.04129 72.4345,-0.84492 0,0.33036 2.3624,0.21227 5.2499,-0.26241 9.1524,-1.50458 18.75,1.19971 18.75,5.28314 0,3.76789 -3.2518,7.74063 -8.0121,9.78845 -4.3001,1.84987 -6.9328,1.99359 -37.0584,2.02307 -17.8362,0.0175 -33.1045,-0.009 -33.9295,-0.0594 -0.825,-0.0501 -14.325,0.22905 -30,0.62038 -15.675,0.39134 -28.8145,0.38834 -29.1988,-0.007 z m 42.981,-93.23723 c -2.2032,-2.52358 -4.1195,-11.73888 -3.39,-16.30131 0.344,-2.151 0.5918,-18.43191 0.5507,-36.1798 -0.041,-17.74789 -0.1004,-53.84456 -0.1317,-80.21483 l -0.057,-47.94594 2.806,-2.41369 c 2.3813,-2.04822 3.5608,-2.34116 7.7908,-1.93472 7.2593,0.69753 7.9719,2.08339 7.0647,13.74029 -0.4067,5.225 -0.6827,16.925 -0.6134,26 0.1751,22.95413 0.152,27.46675 -0.2724,53 -0.2056,12.375 -0.465,28.575 -0.5764,36 -0.1114,7.425 0.1194,20.25 0.5129,28.5 0.7863,16.48513 0.5241,17.87903 -4.6988,24.97958 -3.5368,4.80828 -6.4281,5.69974 -8.9855,2.77042 z m -307.49807,-4.95126 c -1.21872,-0.23589 -3.35622,-1.78414 -4.75,-3.44054 -2.5141,-2.98785 -2.53414,-3.15921 -2.53497,-21.68493 -4.6e-4,-10.2703 -0.14221,-49.46902 -0.315,-87.10827 -0.29845,-65.01233 -0.22338,-68.52578 1.50084,-70.25 1.15339,-1.15339 3.28538,-1.815 5.8487,-1.815 3.19855,0 4.66556,0.64638 7.08548,3.12192 2.87118,2.93718 3.01656,3.45499 2.45655,8.75 -0.32738,3.09545 -0.58492,6.75308 -0.57233,8.12808 0.10551,11.51887 0.14992,48.91877 0.06,50.5 -0.0626,1.1 -0.0879,25.73993 -0.0563,54.7554 0.0373,34.2516 -0.30228,53.42765 -0.96825,54.67202 -1.2826,2.39657 -3.96096,5.11688 -4.86027,4.9364 -0.37321,-0.0749 -1.67571,-0.32919 -2.89444,-0.56508 z m -319.95647,-3.16845 c -2.95415,-3.75204 -4.26159,-12.22911 -4.18437,-27.13029 0.0356,-6.875 0.0816,-38.375 0.10214,-70 0.0563,-86.63445 -0.16047,-79.83188 2.61535,-82.08433 4.15541,-3.37192 10.88298,-2.31233 13.50541,2.12709 1.55147,2.62643 1.60386,4.13702 0.55498,15.99983 -0.80625,9.11864 -0.9369,25.61379 -0.42992,54.2785 0.40058,22.6484 0.75712,43.42891 0.79232,46.17891 0.0352,2.75 -0.0908,15.46092 -0.27996,28.24649 -0.18918,12.78557 -0.087,23.50342 0.22698,23.81744 0.87489,0.87489 -1.23313,7.71531 -2.98497,9.68607 -2.40692,2.70772 -7.34322,2.15042 -9.91796,-1.11971 z M 709.5,592 c -0.70153,-1.1351 0.19874,-3 1.44823,-3 0.45661,0 1.89255,0.88503 3.19099,1.96673 l 2.36078,1.96673 -3.19098,0.0333 C 711.55398,592.98503 709.83992,592.55 709.5,592 Z m -452.20969,-5.88203 c -3.57872,-3.26865 -4.34742,-6.3518 -4.14325,-16.61797 0.0766,-3.85 -0.0584,-37.35406 -0.29986,-74.45347 -0.50118,-76.99601 -0.7121,-74.55332 6.67385,-77.29075 3.83782,-1.4224 4.77642,-1.45409 7.20362,-0.24325 l 2.79083,1.39225 -0.32187,35.29761 c -0.17703,19.41369 -0.4036,41.59761 -0.50348,49.29761 -0.0999,7.7 0.066,29.57892 0.36855,48.61983 l 0.55018,34.61983 -3.12544,1.13017 c -4.57197,1.65325 -5.70047,1.4382 -9.19313,-1.75186 z M 567,588 c 0,-0.55 0.47656,-1 1.05902,-1 0.58246,0 0.7809,0.45 0.44098,1 -0.33992,0.55 -0.81648,1 -1.05902,1 C 567.19844,589 567,588.55 567,588 Z m 948.1886,-1.03896 c -2.1174,-1.97263 -2.1938,-2.7777 -2.3485,-24.75 -0.088,-12.49107 -0.093,-49.21129 -0.012,-81.60049 l 0.1476,-58.88945 2.6245,-3.44082 c 2.1945,-2.87718 3.0549,-3.33278 5.2523,-2.78126 1.4453,0.36275 2.9196,1.13152 3.2761,1.70838 0.3565,0.57686 1.0975,0.77113 1.6467,0.43173 2.7213,-1.68188 2.9838,3.13335 2.5542,46.86087 -0.2431,24.75 -0.3233,48.6 -0.1783,53 0.1451,4.4 0.1943,10.025 0.1094,12.5 -0.4632,13.50513 -0.4627,47.13082 7e-4,47.59421 0.8508,0.85081 -1.2942,7.71959 -3.0153,9.65579 -2.1119,2.37581 -7.3586,2.22507 -10.057,-0.28896 z m 315.8125,-1.71259 c -6.5368,-3.26661 -6.3857,-1.7167 -6.2646,-64.24845 0.1987,-102.65617 0.1636,-100.75722 1.8971,-102.49073 3.0711,-3.07112 7.313,-4.60991 10.8689,-3.94282 2.9861,0.5602 3.5444,1.13364 4.1765,4.29009 0.7341,3.66544 0.8833,9.23856 0.4455,16.64346 -0.13,2.2 -0.2373,11.425 -0.2383,20.5 -10e-4,9.075 -0.1911,20.55 -0.4225,25.5 -0.5029,10.76156 -0.4906,59.16829 0.021,83.0909 0.3639,17.01323 0.3544,17.10299 -2.1001,19.75 -2.9049,3.13287 -3.7478,3.22412 -8.3836,0.90755 z M 124.65318,516.31985 c -0.15009,-0.15009 -15.77096,-0.47385 -34.713038,-0.71946 -58.426596,-0.75758 -57.811189,-0.72209 -60.028804,-3.46117 -1.908811,-2.35767 -2.535025,-7.67185 -1.146025,-9.72542 0.404078,-0.59741 2.084687,-1.49741 3.734687,-2 1.690846,-0.51503 34.022996,-0.9138 74.09095,-0.9138 57.84318,0 71.39196,0.24898 72.7062,1.33609 0.88838,0.73485 2.02834,1.08078 2.53324,0.76874 1.52702,-0.94375 6.16961,4.12553 6.16961,6.73664 0,1.34033 -0.82411,3.4547 -1.83137,4.6986 -1.79254,2.2137 -2.3384,2.26976 -25.75,2.64471 -13.15524,0.21069 -26.52276,0.50117 -29.70559,0.64552 -3.18282,0.14435 -5.90976,0.13965 -6.05986,-0.0104 z m 212.12226,-1.54441 c -1.53294,-1.53294 -2.10177,-3.10782 -3.19529,-8.84662 -0.16466,-0.86415 0.43847,-3.11415 1.34029,-5 1.31482,-2.74948 2.12905,-3.36123 4.10962,-3.08768 3.2643,0.45084 36.53603,0.29868 60.96994,-0.27884 10.725,-0.25349 36.66621,-0.77546 57.64713,-1.15992 l 38.14714,-0.69902 2.72179,2.72179 c 2.24254,2.24254 2.62331,3.32859 2.16252,6.16812 -0.72022,4.43817 -4.43189,9.02872 -7.89595,9.76562 -1.49456,0.31793 -11.61956,0.59773 -22.5,0.62177 -10.88045,0.024 -28.65115,0.28922 -39.49045,0.58929 -11.97477,0.33149 -20.42118,0.16379 -21.52582,-0.4274 -0.9999,-0.53513 -2.48139,-0.60317 -3.29218,-0.1512 -0.8108,0.45196 -16.32418,0.97631 -34.47418,1.1652 -30.18635,0.31417 -33.14704,0.19641 -34.72456,-1.38111 z M 1371.3298,516 c -0.2734,-0.275 -14.7469,-0.60815 -32.1634,-0.74032 -17.4165,-0.13218 -36.1664,-0.49599 -41.6664,-0.80847 -14.5551,-0.82695 -17.5261,-3.57915 -13.9558,-12.9279 2.2418,-5.8699 4.6122,-7.9431 8.1708,-7.14609 5.1313,1.14928 43.2732,1.34808 47.3982,0.24705 2.7951,-0.74605 4.4675,-0.74391 5.6749,0.007 0.9415,0.58579 2.6119,0.89712 3.7119,0.69185 1.1,-0.20527 3.575,-0.311 5.5,-0.23495 1.925,0.076 14.075,0.0944 27,0.0407 51.1495,-0.21226 57.4911,-0.0964 60.5,1.10533 7.5088,2.99895 8.6018,9.47178 2.6551,15.72308 l -3.8448,4.0418 -21.9052,-0.33694 c -12.0478,-0.18531 -27.4566,-0.0727 -34.2417,0.25031 -6.7852,0.32298 -12.5603,0.36224 -12.8336,0.0872 z M 707,514.69874 c -0.275,-0.28146 -10.84432,-0.74521 -23.48737,-1.03055 l -22.98738,-0.5188 -2.26262,-2.63046 C 656.58794,508.57199 656,506.63361 656,503.05925 c 0,-4.12716 0.38735,-5.08303 2.6644,-6.57501 2.32187,-1.52135 3.51104,-1.60891 9.25,-0.68107 4.20644,0.68008 26.4553,0.9895 61.5856,0.8565 30.25,-0.11453 56.69719,0.0815 58.77154,0.43571 2.07434,0.35417 4.0134,0.2526 4.30901,-0.22572 0.29562,-0.47831 3.80749,-0.86966 7.80415,-0.86966 6.3028,0 7.55508,0.307 9.44099,2.31445 1.19587,1.27295 2.17431,2.81665 2.17431,3.43045 0,0.6138 0.96654,1.2598 2.14787,1.43555 2.63824,0.3925 4.38984,2.97592 3.53252,5.21006 -0.35085,0.91429 -2.73954,2.56322 -5.30821,3.66428 -3.87218,1.65981 -5.2376,1.8147 -7.98992,0.90635 -2.0788,-0.68606 -3.93264,-0.75251 -4.95965,-0.17777 -0.98413,0.55075 -3.4962,0.55924 -6.28131,0.0212 -3.10087,-0.59899 -5.81317,-0.52029 -8.17213,0.23714 -2.46773,0.79236 -6.38189,0.86316 -13,0.23515 -5.20804,-0.4942 -14.64417,-0.53862 -20.96917,-0.0987 -11.89824,0.82754 -20.59253,1.06123 -27.5,0.73913 -2.2,-0.10258 -6.7,0.14641 -10,0.55333 -3.3,0.40691 -6.225,0.50955 -6.5,0.22808 z m 374.6954,-0.33671 c -0.3509,-0.35088 -14.9351,-0.78449 -32.4093,-0.96358 -49.52117,-0.50751 -75.22193,-1.29374 -77.21843,-2.36224 -1.16177,-0.62175 -2.08215,-2.64711 -2.51519,-5.53481 -0.56051,-3.73773 -0.28257,-5.20205 1.55024,-8.16761 l 2.23319,-3.61337 9.58204,0.76342 c 10.54657,0.84026 11.47622,0.85626 28.08205,0.48328 19.4834,-0.43762 65.6057,-0.24055 96.2634,0.4113 12.8826,0.27392 19.2294,0.78564 20.25,1.63271 0.8333,0.69156 1.4866,2.88671 1.4866,4.99495 0,3.10492 -0.6825,4.3778 -3.9115,7.29502 -2.1514,1.94361 -4.7389,3.96545 -5.75,4.49299 -1.8495,0.96489 -21.0567,0.85787 -27.061,-0.15077 -1.7724,-0.29774 -3.4864,-0.11429 -3.809,0.40767 -0.6573,1.06352 -5.7852,1.29901 -6.7731,0.31104 z m 559.0983,0.0983 c -0.3089,-0.30888 -9.511,-0.53692 -20.4491,-0.50675 -24.779,0.0684 -24.906,0.0162 -23.9999,-9.85192 0.4379,-4.76898 1.1364,-7.03692 2.5163,-8.16938 1.6548,-1.35801 7.1492,-1.58904 41.0836,-1.72746 21.5454,-0.0879 39.5663,-0.40257 40.0464,-0.69931 0.4801,-0.29674 4.6161,0.0716 9.191,0.81841 4.5749,0.74686 10.343,1.21318 12.818,1.03627 3.8008,-0.27167 16.9368,-0.34812 28.5,-0.16587 1.65,0.026 6.15,-0.25633 10,-0.62742 8.3105,-0.80103 11.5017,0.45653 12.8196,5.05183 0.732,2.55232 0.4308,3.8163 -1.7217,7.22621 -4.2288,6.69872 -7.4672,7.44382 -31.3479,7.21252 -1.2375,-0.012 -3.2625,0.0169 -4.5,0.0641 -1.2375,0.0472 -3.15,0.0339 -4.25,-0.0298 -1.1,-0.0636 -3.7286,0.16873 -5.8414,0.51632 -2.3504,0.38667 -4.7482,0.14662 -6.1778,-0.61847 -1.4333,-0.76706 -3.4275,-0.96534 -5.1587,-0.51294 -1.5521,0.40563 -9.7971,0.68148 -18.3221,0.613 -25.8219,-0.20741 -31.2658,-0.14018 -32.9912,0.40742 -0.9094,0.28865 -1.9062,0.27208 -2.2151,-0.0368 z M 1702,508 c 0,-0.55 -0.4234,-1 -0.941,-1 -0.5175,0 -1.2191,0.45 -1.559,1 -0.3399,0.55 0.083,1 0.941,1 0.8574,0 1.559,-0.45 1.559,-1 z M 929.25,462.29167 C 927.51996,461.65732 927.67414,459 929.44098,459 c 1.81892,0 3.06412,1.91918 1.92189,2.96213 -0.47458,0.43333 -1.42537,0.58162 -2.11287,0.32954 z M 101.70174,415.12549 c -1.41022,-2.13099 -2.801429,-5.39349 -3.091582,-7.25 C 97.713756,402.13993 96.683924,316.71962 96.896686,265.75 96.994122,242.40809 97.113785,240.88622 99,239 c 2.26031,-2.26031 10.62798,-2.80465 14.14871,-0.92042 1.9153,1.02504 1.9303,1.17564 0.29682,2.98061 -1.51689,1.67615 -1.72793,4.59432 -1.78409,24.67041 -0.0583,20.82825 0.0614,55.46824 0.21687,62.7694 0.0351,1.65 0.26463,16.725 0.51,33.5 0.24537,16.775 0.54369,33.875 0.66294,38 0.35348,12.22777 0.13834,13.53768 -2.68761,16.36364 -3.60621,3.6062 -5.64932,3.31415 -8.6619,-1.23815 z M 418.13869,414.25 c -4.85424,-4.69528 -5.24543,-6.17251 -5.09755,-19.25 0.1635,-14.45808 -0.86683,-51.90894 -1.45423,-52.85938 -0.4175,-0.67553 -0.23416,-1.86073 0.40742,-2.63379 0.81146,-0.97774 0.97997,-4.38857 0.55364,-11.20619 C 412.21089,322.91029 412.00256,316.475 412.085,314 c 0.0824,-2.475 0.27477,-18.9 0.42738,-36.5 0.15261,-17.6 0.32476,-33.48295 0.38255,-35.29545 0.0672,-2.10638 1.03324,-4.22363 2.67744,-5.86783 2.2855,-2.2855 3.1816,-2.52185 8.03519,-2.11936 7.20812,0.59776 7.91694,1.41199 6.48699,7.45178 -0.75146,3.17402 -0.96878,11.17578 -0.63364,23.33086 0.28054,10.175 0.4041,22.55 0.27458,27.5 -0.2533,9.68068 -0.11343,23.1488 0.72512,69.82067 0.60651,33.75717 -0.4315,51.45201 -3.13426,53.42933 -2.74423,2.00765 -6.13329,1.45434 -9.18766,-1.5 z m 629.34351,-1.19527 c -1.1098,-0.45017 -2.563,-1.88415 -3.2294,-3.18661 -4.4853,-8.7671 -4.7087,-12.70226 -4.3914,-77.36812 0.1079,-22 0.1678,-41.8 0.1331,-44 -0.035,-2.2 0.17,-8.20571 0.455,-13.34602 0.295,-5.32268 0.093,-10.13954 -0.4684,-11.18932 -0.6392,-1.19436 -0.6434,-2.05531 -0.012,-2.44557 0.587,-0.36279 0.8353,-6.38016 0.6244,-15.13301 l -0.3502,-14.53074 2.6283,-2.4387 c 3.8953,-3.61424 5.5301,-3.76185 9.7805,-0.88319 4.6929,3.17833 5.3584,4.67527 4.6754,10.51637 -0.2926,2.5024 -0.1086,6.1024 0.4089,8 0.5531,2.02767 0.5996,6.33628 0.1129,10.45018 -0.4555,3.85 -0.7814,21.4 -0.7242,39 0.057,17.6 0.039,33.35 -0.041,35 -0.4145,8.60597 -0.2495,31.58346 0.3736,52.02722 0.7765,25.47215 0.4303,27.61881 -4.7453,29.423 -1.6562,0.57738 -3.0567,1.02126 -3.1121,0.98639 -0.055,-0.0349 -1.0088,-0.43171 -2.1186,-0.88188 z m 316.0584,-5.58015 -3.2292,-3.52542 -0.5857,-40.22458 c -0.3221,-22.12352 -0.3662,-49.89958 -0.098,-61.72458 0.2682,-11.825 0.6825,-31.85 0.9206,-44.5 0.2382,-12.65 0.6437,-23.90453 0.9012,-25.01008 0.5901,-2.53337 6.0072,-5.8096 8.3124,-5.02729 3.4878,1.18361 7.5329,5.66271 7.5555,8.36629 0.012,1.46909 -0.325,19.54608 -0.7497,40.17108 -0.4247,20.625 -0.7681,38.175 -0.7631,39 0.01,0.825 0.066,18.6888 0.1359,39.69733 0.08,24.20491 0.5186,39.32109 1.1962,41.26503 0.888,2.54717 0.6943,3.86581 -1.1415,7.77133 -3.8553,8.20167 -7.3949,9.26484 -12.4546,3.74089 z M 730.73616,407.75 c -0.90536,-0.6875 -2.16756,-2.6 -2.8049,-4.25 -1.48782,-3.85181 -2.38974,-166.09861 -0.92835,-167.0018 0.52677,-0.32556 3.63828,-0.66623 6.91447,-0.75703 4.67031,-0.12945 6.42553,0.25859 8.12765,1.79686 2.03276,1.83708 2.13556,2.59851 1.61506,11.96197 -0.30573,5.5 -0.9856,11.70372 -1.5108,13.78604 -0.52521,2.08233 -0.78887,12.65733 -0.58591,23.5 0.20295,10.84268 0.49672,41.08896 0.65281,67.21396 0.26686,44.66228 0.17246,47.72403 -1.58013,51.25 -1.57163,3.16191 -2.36499,3.75 -5.05887,3.75 -1.75721,0 -3.93568,-0.5625 -4.84103,-1.25 z m 945.48894,-1.7542 c -1.8012,-1.09819 -3.7292,-3.19151 -4.2844,-4.65182 -1.0566,-2.77897 -2.0205,-20.8254 -1.8878,-35.34398 0.043,-4.675 0,-23.35 -0.091,-41.5 -0.092,-18.15 -0.084,-34.125 0.019,-35.5 0.1032,-1.375 0.3242,-13.3 0.4912,-26.5 0.167,-13.2 0.3539,-25.62179 0.4154,-27.60398 0.073,-2.37073 0.9883,-4.54978 2.6734,-6.36796 2.2749,-2.45465 3.0274,-2.68949 6.7238,-2.09841 8.2065,1.31228 8.0207,0.53663 7.3262,30.57035 -0.337,14.575 -0.5812,40.9 -0.5427,58.5 0.039,17.6 0.02,44.6 -0.04,60 l -0.1102,28 -2.6148,2.25 c -3.1968,2.75077 -3.9334,2.77318 -8.0787,0.2458 z m 175.3277,0.0896 c -0.322,-0.52097 -0.1592,-1.21065 0.3618,-1.53262 0.521,-0.32198 1.2106,-0.15917 1.5326,0.3618 0.322,0.52097 0.1592,1.21065 -0.3618,1.53262 -0.521,0.32198 -1.2106,0.15917 -1.5326,-0.3618 z m -302.828,-58.79332 c -1.672,-4.16374 -1.4973,-5.1781 0.593,-3.44327 0.7514,0.62361 1.6324,0.86767 1.9577,0.54237 0.3253,-0.3253 1.0932,-0.28134 1.7065,0.0977 0.803,0.49625 0.8118,1.05467 0.032,1.99488 -0.596,0.71814 -0.9554,1.85933 -0.7986,2.53597 0.1568,0.67664 -0.2217,1.41795 -0.8412,1.64735 -0.6194,0.22939 -1.8114,-1.28936 -2.6489,-3.375 z m -1317.18982,-3.2355 c -0.24991,-0.40435 -10.37858,-0.56811 -22.50816,-0.36391 l -22.05378,0.37127 -2.48652,-2.48652 C 182.51127,339.60218 182,338.07866 182,334.1679 c 0,-2.85032 0.5541,-5.38288 1.31609,-6.01527 1.49031,-1.23685 62.13873,-1.46675 76.95564,-0.29172 5.01889,0.39802 9.16395,0.30341 9.6885,-0.22114 0.51571,-0.51571 15.96895,-0.96554 35.32431,-1.02826 37.13322,-0.12034 36.79375,-0.16599 38.8426,5.22289 0.72998,1.91999 0.41892,3.07196 -1.51365,5.60569 -3.20149,4.19737 -8.52277,5.70247 -19.94748,5.64203 -9.00018,-0.0476 -64.20546,0.74728 -66.16601,0.95271 -0.55,0.0576 -4.68163,-0.1112 -9.18139,-0.37519 -4.49977,-0.26398 -9.78966,-0.11724 -11.75533,0.32609 -1.96566,0.44333 -3.7784,0.47522 -4.0283,0.0709 z m 279.7319,-1.98676 c -4.87965,-0.65686 -7.93954,-2.91743 -8.84789,-6.53659 -0.92595,-3.68926 0.20794,-6.76191 3.32642,-9.01404 2.63796,-1.90511 4.48184,-1.98091 48.24868,-1.98349 25.02825,-0.001 48.43091,0.13241 52.00591,0.2975 3.575,0.1651 8.525,0.30891 11,0.31958 33.02911,0.14237 33,0.13587 33,7.37463 0,3.99904 -0.28914,4.45199 -4.36782,6.84225 l -4.36781,2.55971 -30.88219,-0.004 c -16.9852,-0.002 -45.28218,0.15761 -62.88218,0.35514 -17.6,0.19753 -33.9049,0.10272 -36.23312,-0.21068 z m 318.56073,0.15388 -14.67238,-0.27629 -3.17763,-2.96835 c -2.88548,-2.69544 -3.13478,-3.39779 -2.7115,-7.63923 0.6951,-6.96519 1.69425,-7.35642 17.64108,-6.90771 7.47605,0.21036 15.00034,0.69444 16.72065,1.07574 1.81986,0.40336 4.02616,0.21249 5.27604,-0.45642 1.8023,-0.96456 7.04566,-1.23634 20.59613,-1.06757 1.1,0.0137 4.25,-0.0415 7,-0.12262 2.75,-0.0811 16.025,-0.0433 29.5,0.0841 13.475,0.12741 31.475,-0.0892 40,-0.48146 14.84111,-0.68282 15.65752,-0.61973 19.20566,1.48408 4.94582,2.93254 5.74439,5.74431 3.03082,10.67163 -2.65861,4.82754 -5.27838,5.16283 -43.23648,5.5336 -19.525,0.19071 -35.99223,0.0261 -36.59385,-0.36576 -0.60161,-0.39188 -2.62661,-0.2981 -4.5,0.20839 -3.78539,1.02343 -31.50766,1.65285 -54.07854,1.22783 z m 306.43869,-1.38709 c -9.172,-1.04738 -11.5351,-2.48093 -12.5493,-7.61313 -0.6981,-3.53241 -0.5068,-4.74101 1.0994,-6.94603 l 1.9446,-2.66951 40.8695,-0.37749 c 37.9598,-0.35061 74.8119,-0.86447 81.8695,-1.14159 14.077,-0.55273 32.7861,-0.006 34.6914,1.01355 5.209,2.78777 7.4407,9.18899 4.5268,12.98424 -1.7886,2.32962 -5.6511,4.15305 -7.3866,3.4871 -0.8316,-0.31914 -2.034,-0.24129 -2.6718,0.173 -0.6379,0.41428 -28.1598,0.82605 -61.1598,0.91504 -33,0.089 -63.375,0.32489 -67.5,0.52423 -4.125,0.19934 -10.3052,0.0421 -13.7337,-0.34941 z m 372.2602,0.20619 c -0.3254,-0.52645 -1.8145,-0.96635 -3.3091,-0.97755 -1.4946,-0.0112 -14.6424,-0.27444 -29.2174,-0.58499 l -26.5,-0.56464 -2.2713,-2.70781 c -2.9998,-3.57623 -3.7075,-6.63775 -2.3127,-10.00495 1.7166,-4.14421 4.2349,-5.3011 9.4276,-4.33099 2.5557,0.47745 5.1333,0.44075 6.0754,-0.0865 2.1713,-1.21512 20.9732,-1.17926 23.2749,0.0444 0.9933,0.5281 3.1561,0.77513 4.8061,0.54894 10.5135,-1.44121 15.3003,-1.73573 26,-1.5997 19.9345,0.25344 34.2747,0.29086 35.1615,0.0917 0.4612,-0.10355 1.6924,0.18178 2.736,0.63407 1.0853,0.47037 3.1097,0.36474 4.7299,-0.24679 1.871,-0.70625 5.1302,-0.77288 9.6025,-0.1963 3.7236,0.48006 12.4387,0.88756 19.3671,0.90555 11.0688,0.0288 12.8725,0.27166 14.8681,2.00243 1.9767,1.71439 2.1826,2.55939 1.5889,6.51896 -1.1441,7.62897 0.3689,7.36836 -47.0848,8.11006 -34.0018,0.53144 -42.121,0.91655 -42.7689,2.02862 -0.9216,1.582 -3.3062,1.81936 -4.1738,0.41546 z M 1255.7054,270.5625 c -2.1166,-2.11653 -2.1872,-3.5625 -0.174,-3.5625 1.6606,0 2.8927,2.22764 2.2683,4.10094 -0.2613,0.78398 -0.9486,0.60728 -2.0943,-0.53844 z M 577.82794,232.76348 c -0.87515,-0.69491 -3.23984,-3.70611 -5.25486,-6.69155 l -3.66368,-5.42807 0.21703,-22.57193 c 0.11937,-12.41456 -0.12985,-24.23023 -0.55381,-26.25704 -0.42397,-2.02682 -0.39276,-4.27682 0.0694,-5 0.80641,-1.26197 1.42538,-10.03357 1.15127,-16.31489 -0.21585,-4.94644 -0.21896,-12.74363 -0.007,-17 0.10967,-2.2 0.2343,-20.65 0.27694,-41 0.0922,-43.989801 0.41506,-48.031005 4.05398,-50.742313 l 2.6174,-1.950189 4.03563,2.547579 4.03562,2.547579 0.67822,9.298672 c 0.37303,5.11427 0.37755,12.673672 0.01,16.798672 -0.73591,8.260434 -0.73955,8.930731 -0.076,14 0.25196,1.925 0.51838,26.45 0.59204,54.5 0.15204,57.89717 0.10668,51.71841 0.51255,69.8108 0.1704,7.59594 0.55561,14.45133 0.85603,15.23421 0.67344,1.75497 -2.3046,7.14447 -4.36579,7.90095 -0.83221,0.30543 -1.98131,0.7861 -2.55355,1.06816 -0.57224,0.28206 -1.75647,-0.0557 -2.63162,-0.75064 z M 258.60537,230.46252 C 257.72242,229.57956 257,227.96694 257,226.87891 c 0,-1.08803 -0.61619,-3.19338 -1.3693,-4.67857 -0.80975,-1.59686 -1.48869,-6.78677 -1.66146,-12.70034 -0.30579,-10.46637 -0.29664,-11.46079 0.21471,-23.346 0.17383,-4.04031 0.0272,-7.81307 -0.32574,-8.38393 -0.35298,-0.57085 -0.24967,-2.40512 0.22957,-4.07615 0.5691,-1.98433 0.48909,-3.49883 -0.23066,-4.36608 -0.80542,-0.97047 -0.79035,-1.70336 0.056,-2.72315 0.79637,-0.95956 0.95366,-4.00445 0.50366,-9.75 -0.7174,-9.15986 -0.71752,-9.21188 -0.16248,-68.576886 0.36171,-38.687028 0.50142,-41.35039 2.27181,-43.306643 2.05877,-2.274917 5.63521,-2.021193 8.55264,0.60675 C 265.94705,46.36006 267.16872,47 267.79356,47 c 2.85789,0 3.89929,8.451901 1.51644,12.307421 -0.27963,0.452459 -0.64009,8.555886 -0.80102,18.007616 -0.16093,9.45173 -0.78495,24.106873 -1.38671,32.566993 -0.60175,8.46012 -0.89726,16.33512 -0.65669,17.5 0.24058,1.16488 0.73183,12.46797 1.09167,25.11797 0.8966,31.51933 1.20116,38.73035 2.02731,48 0.39215,4.4 0.71909,9.575 0.72654,11.5 0.0165,4.27392 -3.10835,16.07065 -4.67346,17.64268 -2.11091,2.12025 -5.35379,2.49831 -7.03227,0.81984 z m 945.53813,-0.99525 c -5.541,-4.66239 -5.7788,-6.63887 -4.7214,-39.24385 0.1655,-5.10212 -0.092,-9.5192 -0.5715,-9.81572 -0.9137,-0.56471 -1.1867,-61.40864 -0.3989,-88.9077 0.1575,-5.5 0.3454,-17.676492 0.4174,-27.05887 0.1527,-19.894598 0.3646,-20.468908 7.8175,-21.185042 4.5277,-0.435052 5.2791,-0.205843 7.6275,2.326875 1.4959,1.613276 2.2662,3.258137 1.8091,3.863251 -0.8691,1.15055 -0.7759,38.383286 0.3062,122.250936 l 0.6992,54.19714 -4.2143,3.05286 c -2.3179,1.67907 -4.5623,3.05285 -4.9876,3.05285 -0.4253,0 -2.1277,-1.13973 -3.7832,-2.53273 z M 1202.693,60.269032 c -0.2536,-0.972968 -0.4777,-0.419032 -0.4981,1.230968 -0.02,1.65 0.1871,2.446064 0.461,1.769032 0.274,-0.677033 0.2906,-2.027033 0.037,-3 z M 889.30426,228.04396 c -4.28753,-2.61428 -4.74591,-5.67577 -3.88683,-25.96012 0.38629,-9.12111 0.72389,-17.25884 0.75021,-18.08384 0.0263,-0.825 -0.0515,-9.89814 -0.17297,-20.16253 -0.12145,-10.26439 0.0519,-19.10381 0.38523,-19.64315 0.33334,-0.53934 0.11357,-4.6401 -0.48836,-9.11278 -0.80207,-5.95989 -0.79636,-8.4913 0.0214,-9.47663 0.7771,-0.93635 0.84481,-3.28122 0.22307,-7.72469 -0.50424,-3.60373 -0.52831,-10.51435 -0.0553,-15.88022 0.78377,-8.891424 1.25374,-35.232296 0.92444,-51.813128 C 886.83015,41.376158 887.72409,40 893.62244,40 c 5.2826,0 8.82768,2.865036 8.12077,6.562982 -0.24889,1.301985 -0.10404,2.495444 0.3219,2.652132 0.42593,0.156687 0.43816,3.434886 0.0272,7.284886 -0.41099,3.85 -0.61393,10.825 -0.45098,15.5 0.80867,23.200229 0.66021,43.63882 -0.32983,45.40792 -0.7029,1.256 -0.74877,3.04614 -0.13502,5.26896 0.51127,1.85166 0.853,10.89435 0.75941,20.09488 -0.15863,15.59368 0.10978,27.09235 1.50605,64.51824 0.47517,12.73638 0.31895,15.16628 -1.12509,17.5 -3.52925,5.70361 -7.40536,6.67289 -13.01256,3.25396 z M 890.68311,59.8125 c -0.31922,-0.797733 -0.55618,-0.560776 -0.60416,0.604167 -0.0434,1.054166 0.19293,1.644791 0.52522,1.3125 0.33229,-0.332292 0.36781,-1.194792 0.0789,-1.916667 z M 1518.655,223.17126 c -0.9103,-1.00581 -1.655,-2.30071 -1.655,-2.87756 0,-0.57684 -0.6755,-1.60946 -1.5012,-2.29471 -1.3206,-1.09601 -1.4374,-11.12592 -0.9704,-83.37244 l 0.5309,-82.12655 2.7203,-2.245033 c 3.3539,-2.767837 4.2056,-2.786258 8.6123,-0.186264 2.8893,1.704765 3.62,2.828159 4.1535,6.385629 0.3884,2.589733 0.1902,5.171152 -0.4953,6.451964 -0.6284,1.174271 -0.9059,2.517979 -0.6167,2.986019 0.4409,0.713323 1.0971,69.555435 0.7064,74.107685 -0.071,0.825 0.1291,10.5 0.4443,21.5 1.3335,46.54727 1.2264,54.79636 -0.7449,57.36964 -1.4744,1.9247 -7.7727,6.13036 -9.1806,6.13036 -0.1917,0 -1.0934,-0.82293 -2.0036,-1.82874 z m 311.6533,-1.15876 c -1.2054,-0.49771 -2.8973,-1.98172 -3.7596,-3.29781 -1.6981,-2.59159 -1.826,-8.49629 -1.5536,-71.71469 0.1338,-31.06481 0.1517,-72.251264 0.034,-77.281567 -0.036,-1.529861 0.3942,-3.640052 0.9557,-4.689311 0.7121,-1.330494 0.6871,-2.114097 -0.082,-2.589714 -0.6803,-0.420443 -0.8375,-1.881788 -0.41,-3.810688 0.3814,-1.720796 0.9014,-7.62592 1.1555,-13.122499 C 1827.1671,34.264185 1828.8578,31 1834.1609,31 c 2.2927,0 3.1141,0.692868 4.4458,3.75 1.4649,3.362902 1.6576,12.91542 1.8664,92.5397 0.2156,82.20622 0.1058,89.02773 -1.4812,92 -1.8267,3.42117 -4.7626,4.34173 -8.6836,2.7228 z M 243,179 c 0,-0.55 0.45,-1 1,-1 0.55,0 1,0.45 1,1 0,0.55 -0.45,1 -1,1 -0.55,0 -1,-0.45 -1,-1 z M 33.25,151.73378 C 31.296347,150.83127 31,149.93365 31,144.91861 c 0,-3.7049 0.51847,-6.29422 1.446053,-7.22181 1.594736,-1.59473 2.209589,-1.60678 98.794787,-1.93557 38.20939,-0.13007 53.05342,0.13303 53.87531,0.95492 1.79222,1.79222 0.0733,8.24823 -3.01955,11.3411 -2.07981,2.07981 -4.08665,2.9037 -8.17646,3.35676 -10.23966,1.13434 -138.276814,1.4254 -140.67014,0.31977 z m 314.31187,-0.63368 c -0.37395,-0.60505 -1.66585,-1.11424 -2.87089,-1.13152 -2.83163,-0.0406 -5.46798,-3.72179 -6.27361,-8.75997 -0.50969,-3.18741 -0.24347,-4.38251 1.32584,-5.95182 1.84565,-1.84565 3.45886,-1.96424 26.86019,-1.97455 13.69313,-0.006 47.69505,-0.36232 75.55982,-0.79176 l 50.66322,-0.7808 2.58678,2.79118 c 3.59412,3.87812 3.32143,7.30109 -0.93036,11.67853 -3.18285,3.2769 -4.15707,3.6734 -10.25,4.17164 -10.53294,0.86131 -15.42221,0.73671 -16.82656,-0.42879 -1.15576,-0.9592 -6.62884,-0.91412 -30.9063,0.25454 -1.1,0.0529 -11.69394,-0.0311 -23.54209,-0.18671 -14.01568,-0.18411 -22.24538,0.0934 -23.55505,0.79432 -1.39099,0.74444 -4.3133,0.78217 -9.45791,0.12212 -4.09472,-0.52536 -8.34495,-0.74352 -9.44495,-0.4848 -5.17522,1.21722 -22.29225,1.72345 -22.93813,0.67839 z m 42.43614,-4.74311 c 0.003,-1.54256 -2.34027,-2.34175 -4.90156,-1.67196 -2.10856,0.5514 -2.62296,1.45513 -1.47924,2.59885 1.05369,1.05368 6.3787,0.28016 6.3808,-0.92689 z m 263.20812,2.65627 c -2.01817,-1.91175 -2.25855,-2.9746 -2,-8.84309 L 651.5,133.5 l 21.28092,-0.23136 c 12.67559,-0.13781 22.0855,-0.66197 23.27066,-1.29625 1.09437,-0.58568 2.50551,-0.74613 3.13587,-0.35654 1.78775,1.10489 79.464,0.6264 87.31255,-0.53785 13.96516,-2.07159 16.76961,-1.47701 21.89609,4.64225 1.72934,2.06424 1.75018,2.45174 0.29657,5.515 -3.36797,7.09747 -5.07113,7.83342 -18.95152,8.18908 -6.88586,0.17645 -12.98847,0.61049 -13.56134,0.96455 -0.57288,0.35406 -1.29453,0.23451 -1.60365,-0.26567 -0.32632,-0.528 -8.00957,-0.65415 -18.3191,-0.30079 -9.76638,0.33475 -20.23205,0.56214 -23.25705,0.50533 -20.90755,-0.39269 -66.54821,-0.22287 -71.5,0.26603 -5.25642,0.51898 -6.28428,0.32311 -8.29387,-1.58052 z M 970.39255,147.5 c -3.1657,-2.43049 -3.59226,-12.70029 -0.64974,-15.64281 0.59554,-0.59554 17.85856,-1.18391 43.86959,-1.49519 23.5882,-0.28229 52.7725,-0.67851 64.854,-0.88048 12.0815,-0.20197 22.4464,0.0312 23.0331,0.51807 0.6227,0.51679 2.926,0.4635 5.5336,-0.12803 3.4939,-0.79258 5.8046,-0.65336 10.6079,0.63912 10.4746,2.81848 15.0338,10.29265 9.0497,14.8356 -2.7709,2.10359 -3.5085,2.13657 -54,2.41386 -28.1549,0.15462 -62.3968,0.38435 -76.09318,0.5105 -15.43275,0.14214 -25.39778,-0.15091 -26.20497,-0.77064 z m 345.24245,0.80165 c -0.1185,-0.11851 -6.0474,-0.31172 -13.1752,-0.42937 -15.7623,-0.26016 -18.4598,-1.2936 -18.4598,-7.07211 0,-2.75098 0.7879,-4.65047 2.9179,-7.03439 l 2.9179,-3.26578 21.8321,-0.15995 c 12.0077,-0.088 47.0321,-0.31297 77.8321,-0.5 l 56,-0.34005 3.2651,2.32884 c 6.5806,4.69363 7.7763,11.45989 2.6219,14.83715 -2.3555,1.54342 -8.3929,1.69827 -69.0589,1.7712 -36.5627,0.044 -66.5746,-0.017 -66.6931,-0.13554 z m 292.0868,-1.5415 c -3.7705,-3.06745 -5.0006,-11.68958 -2.1216,-14.8709 1.7459,-1.92912 2.8991,-2.07231 15.8911,-1.97303 7.7048,0.0589 40.7837,-0.15412 73.5087,-0.47331 32.725,-0.31918 60.9465,-0.58252 62.7144,-0.5852 3.7758,-0.006 7.9215,2.74931 8.7133,5.7905 0.7708,2.96051 -1.5881,7.09972 -5.5822,9.79532 -3.092,2.0868 -4.8609,2.31018 -23.3455,2.94819 -16.2428,0.56064 -34.2895,0.65924 -63,0.34421 -1.1,-0.0121 -15.95,0.27198 -33,0.63122 l -31,0.65316 z M 279.38404,55.558413 c -0.76962,-2.005608 -0.10595,-4.818802 1.24275,-5.267811 1.47804,-0.492065 2.37922,1.970415 1.68818,4.612946 -0.63262,2.419134 -2.12588,2.752779 -2.93093,0.654865 z M 0,194 c 0,-1.1 0.45,-2 1,-2 0.55,0 1,0.9 1,2 0,1.1 -0.45,2 -1,2 -0.55,0 -1,-0.9 -1,-2 z"
       id="path1" />
  </g>
</svg>
