<?xml version="1.0" encoding="UTF-8" standalone="no"?>
<!-- Created with Inkscape (http://www.inkscape.org/) -->

<svg
   version="1.1"
   id="svg1"
   width="728"
   height="504"
   viewBox="0 0 728 504"
   sodipodi:docname="4.svg"
   inkscape:version="1.4 (86a8ad7, 2024-10-11)"
   xmlns:inkscape="http://www.inkscape.org/namespaces/inkscape"
   xmlns:sodipodi="http://sodipodi.sourceforge.net/DTD/sodipodi-0.dtd"
   xmlns="http://www.w3.org/2000/svg"
   xmlns:svg="http://www.w3.org/2000/svg">
  <defs
     id="defs1" />
  <sodipodi:namedview
     id="namedview1"
     pagecolor="#ffffff"
     bordercolor="#000000"
     borderopacity="0.25"
     inkscape:showpageshadow="2"
     inkscape:pageopacity="0.0"
     inkscape:pagecheckerboard="0"
     inkscape:deskcolor="#d1d1d1"
     inkscape:zoom="1.577381"
     inkscape:cx="361.99245"
     inkscape:cy="210.79245"
     inkscape:window-width="1920"
     inkscape:window-height="1013"
     inkscape:window-x="2391"
     inkscape:window-y="605"
     inkscape:window-maximized="1"
     inkscape:current-layer="g1" />
  <g
     inkscape:groupmode="layer"
     inkscape:label="Image"
     id="g1">
    <path
       id="path1"
       style="fill:#000000"
       d="M 12,0 C 9.5511333,0 8,0.46700007 8,1.203125 8,1.864441 6.6363553,3.8126711 4.96875,5.5332031 L 1.9355469,8.6621094 1.7382812,31.080078 C 1.6299915,43.41073 1.6512482,58.675 1.7851562,65 1.9190644,71.325 1.7865041,126 1.4902344,186.5 1.1939647,247 0.99313779,299.425 1.0429688,303 c 0.049831,3.575 0.1334693,9.425 0.1855468,13 0.052078,3.575 -0.026683,8.075 -0.1738281,10 -0.14714505,1.925 0.063554,4.77009 0.46875,6.32227 0.4583417,1.75576 0.2488892,3.73704 -0.55664062,5.24218 -1.00700798,1.88161 -1.03647358,2.987 -0.13085938,4.97461 1.4497021,3.18175 1.5257758,11.11848 0.11523438,11.99024 -0.63245677,0.39088 -0.69398076,1.11028 -0.15625,1.81054 C 2.0903617,358.02683 2.3024886,367 1.046875,367 c -1.48452644,0 -1.31414248,10.33235 0.1953125,11.8418 0.9888544,0.98886 0.9379567,1.43597 -0.25,2.19922 -1.21478608,0.78048 -1.24649496,1.11818 -0.16796875,1.81445 1.04201135,0.6727 1.43013125,8.37968 1.82031245,36.15234 0.4887975,34.79206 0.2401126,40.65749 -1.67382808,39.47461 C 0.43682738,458.15247 0,458.58395 0,459.44141 0,460.29887 0.45,461 1,461 c 0.55,0 1,0.675 1,1.5 0,0.825 -0.45,1.5 -1,1.5 -0.62745098,0 -1,6.33333 -1,17 0,14.44444 0.2254902,17 1.5,17 0.825,0 1.5,0.36426 1.5,0.81055 0,0.44629 0.9572949,1.84022 2.1269531,3.0957 L 7.2539062,504.1875 183.87695,503.5 c 97.14284,-0.37887 177.86055,-0.81655 179.37305,-0.9707 1.5125,-0.15415 4.1,-0.3355 5.75,-0.4043 1.94444,-0.081 3,-0.65278 3,-1.625 0,-2.157 1.67512,-1.84958 2.26758,0.41602 0.44711,1.70972 1.18584,1.8568 6.86719,1.375 3.50112,-0.2969 6.78159,-0.922 7.29101,-1.39063 0.51518,-0.47392 1.48185,-0.39199 2.17774,0.18555 1.30747,1.0851 45.85349,1.36666 47.57812,0.30078 0.52142,-0.32225 0.40311,-1.18246 -0.27539,-2 -0.65512,-0.78933 -0.96246,-1.66254 -0.68359,-1.94141 0.27887,-0.27888 1.25188,0.63128 2.16406,2.02344 1.61225,2.46061 1.97322,2.53125 12.93555,2.53125 6.94711,0 11.70504,-0.4277 12.39062,-1.11328 0.64774,-0.64774 1.67094,-0.76237 2.44922,-0.27539 0.73542,0.46021 10.78789,0.67919 22.33789,0.48633 11.55,-0.19287 27.92548,-0.40691 36.39062,-0.47461 14.00514,-0.11205 15.49104,-0.29451 16.5,-2.02735 0.60986,-1.04738 2.34688,-3.35758 3.85938,-5.13281 1.5125,-1.77522 2.75,-3.7308 2.75,-4.3457 0,-0.61489 0.64344,-1.11719 1.42969,-1.11719 0.78625,0 4.49875,-3.45869 8.25,-7.68555 3.75125,-4.22687 8.73281,-9.69158 11.07031,-12.14453 2.3375,-2.45295 4.25,-4.74667 4.25,-5.09765 0,-0.35097 2.96236,-3.77376 6.58203,-7.60547 3.61967,-3.83171 7.29451,-8.16927 8.16797,-9.63868 0.87345,-1.4694 2.6038,-3.21531 3.84375,-3.8789 1.23994,-0.6636 2.50789,-2.21807 2.81836,-3.45508 0.31047,-1.23702 1.787,-3.05023 3.28125,-4.0293 C 602.50445,431.96772 615,419.27937 615,417.90625 c 0,-0.62467 1.51779,-2.5473 3.37305,-4.27148 1.85527,-1.72418 5.60785,-5.84046 8.33984,-9.14844 2.732,-3.30797 6.8392,-7.78917 9.12695,-9.95703 2.28774,-2.16786 4.16016,-4.5139 4.16016,-5.21289 0,-0.69899 1.125,-2.00727 2.5,-2.90821 1.375,-0.90093 2.5,-2.26169 2.5,-3.02343 0,-0.76174 0.675,-1.38477 1.5,-1.38477 0.825,0 1.5,-0.4583 1.5,-1.01953 0,-0.56123 3.825,-4.70635 8.5,-9.21094 4.675,-4.50459 8.5,-8.72475 8.5,-9.37695 0,-0.65221 1.6875,-2.59501 3.75,-4.31836 4.89512,-4.09018 4.68245,-3.87297 8.81055,-8.99219 1.95929,-2.4297 4.21982,-5.6922 5.02539,-7.25 0.80557,-1.55781 2.03308,-2.83203 2.72656,-2.83203 1.22684,0 8.67123,-9.17365 8.70312,-10.72461 0.009,-0.42678 1.4183,-2.35039 3.13282,-4.27539 1.71452,-1.925 3.74923,-4.85 4.52148,-6.5 0.77225,-1.65 2.73022,-5.025 4.34961,-7.5 4.62502,-7.06863 9.85861,-18.37198 12.03906,-26 0.70747,-2.475 1.90453,-5.23436 2.66016,-6.13086 0.75562,-0.89651 1.85546,-6.07151 2.44336,-11.5 0.74271,-6.85799 1.66496,-10.70883 3.02148,-12.61914 1.07376,-1.51213 1.72949,-3.53713 1.45703,-4.5 -0.27244,-0.96288 -0.78225,-6.025 -1.13085,-11.25 -0.70809,-10.61338 -1.29295,-13.87797 -2.84375,-15.83984 -0.58234,-0.73671 -1.17431,-3.3125 -1.31446,-5.72461 -0.14014,-2.4121 -0.72606,-5.26817 -1.30273,-6.34571 C 720.47215,209.01231 720,207.20336 720,206.06836 c 0,-1.13499 -3.15,-7.21079 -7,-13.5 -3.85,-6.2892 -7,-11.89734 -7,-12.46289 0,-0.56556 -2.025,-3.51411 -4.5,-6.55274 -2.475,-3.03863 -4.5,-5.89669 -4.5,-6.35156 0,-0.45487 -1.40274,-2.14827 -3.11719,-3.76367 C 692.16836,161.8221 687.59203,156.675 683.71289,152 679.83375,147.325 671.60994,138.325 665.4375,132 653.07643,119.33341 650.466,116.48254 647.5,112.4043 c -1.1,-1.5125 -3.67683,-4.31048 -5.72656,-6.2168 -2.04972,-1.90631 -3.97253,-4.24136 -4.27344,-5.18945 -0.30092,-0.94809 -3.12408,-3.827412 -6.27344,-6.398441 -3.14936,-2.57103 -7.07656,-6.491906 -8.72656,-8.71289 -1.65,-2.220984 -4.42298,-5.502425 -6.16211,-7.292969 -1.73914,-1.790545 -4.00358,-4.570459 -5.0332,-6.175781 -1.02962,-1.605323 -6.58165,-7.806489 -12.33789,-13.78125 -5.75625,-5.974762 -10.84838,-11.526304 -11.31446,-12.335938 -0.46607,-0.809634 -4.33967,-4.921113 -8.60937,-9.136719 -4.2697,-4.215604 -9.34875,-9.766875 -11.28516,-12.335937 -1.93642,-2.569062 -7.38697,-8.644062 -12.11328,-13.5 L 547.05078,2.5 532.27539,2.3261719 c -8.12651,-0.095181 -17.57879,0.1622059 -21.00586,0.5703125 -3.42708,0.4081069 -6.57708,0.4152531 -7,0.017578 C 503.8466,2.5163876 495.52023,2.0281825 485.76758,1.828125 471.77261,1.5410445 467.9297,1.7409727 467.53125,2.7792969 467.19042,3.6675064 465.96669,3.9120703 463.76367,3.53125 456.05996,2.1995662 434.90636,1.2673152 428,1.9550781 c -4.15006,0.4132796 -8.29169,0.3461277 -9.27148,-0.1503906 -0.97386,-0.4935203 -2.32386,-0.5394968 -3,-0.1015625 C 415.05239,2.1410594 367.20721,2.5 309.4043,2.5 c -84.41807,0 -105.40206,0.2534326 -106.65235,1.2910156 -1.18354,0.9821948 -1.653,1.0058338 -1.95703,0.09375 C 200.575,3.2250239 198.84334,2.7382535 196.94727,2.8046875 192.6067,2.9567708 189.7995,2.1338442 190.54492,0.92773438 190.86036,0.4173324 190.41605,0 189.55859,0 188.70113,0 188.1125,0.5625 188.25,1.25 c 0.1375,0.6875 -0.5375,1.2118489 -1.5,1.1660156 -0.9625,-0.045833 -4.02613,-0.158333 -6.80859,-0.25 C 176.85989,2.0644965 175.12355,1.6091147 175.5,1 c 0.37794,-0.61152545 -1.17595,-1 -4,-1 -2.82405,0 -4.37794,0.38847455 -4,1 0.33992,0.55 0.0285,1.0310159 -0.69141,1.0683594 C 166.08863,2.1057028 163.475,2.2620172 161,2.4160156 155.12288,2.7816996 149.87398,2.0141501 150.56836,0.890625 150.87662,0.39184922 146.52126,0 140.66602,0 c -7.74394,0 -10.58304,0.34256852 -10.95899,1.3222656 -0.3488,0.9089595 -2.86552,1.3837606 -8.04883,1.5175782 -6.2842,0.1622393 -7.71097,-0.09966 -8.56836,-1.5722657 -0.90465,-1.55376679 -1.03189,-1.56937886 -1.05859,-0.1269531 C 112.0056,2.5243999 110.67046,2.7920575 103.5,2.8515625 96.680054,2.9081586 95,2.6330788 95,1.4609375 95,0.65744717 94.325,0 93.5,0 92.675,0 92,0.675 92,1.5 92,2.3333333 91.111111,3 90,3 88.888889,3 88,2.3333333 88,1.5 88,0.27777778 86.333333,0 79,0 71.868219,0 70,0.2961238 70,1.4277344 70,3.650685 60.65137,4.380135 48.28125,3.1230469 47.611009,3.0549353 47.322089,2.325 47.638672,1.5 48.108143,0.27657664 47.180569,0 42.607422,0 36.057381,0 35.034918,1.7077958 41.25,2.2675781 44.958427,2.6015902 44.771148,2.6737274 39.78125,2.8261719 35.065333,2.970246 34.163994,2.7369908 34.638672,1.5 35.123181,0.23738799 33.834915,0 26.5,0 19.165085,0 17.876819,0.23738799 18.361328,1.5 18.78964,2.6161609 18.241692,2.9806203 16.21875,2.921875 14.723515,2.878454 14.0625,2.6153029 14.75,2.3378906 17.356397,1.2861866 15.843579,0 12,0 Z m 16.269531,2.3066406 c 0.972967,-0.2535434 2.322967,-0.2368137 3,0.037109 C 31.946563,2.6176731 31.15,2.8250675 29.5,2.8046875 27.85,2.7843078 27.296563,2.560184 28.269531,2.3066406 Z M 500.06641,8.1679688 c 0.44648,0.00463 0.98488,0.4732127 2.02148,1.4121093 1.83188,1.6592249 3.88412,1.9471399 15.14063,2.1269529 7.16181,0.114403 13.2644,0.451903 13.5625,0.75 0.91748,0.917475 7.05563,0.600615 7.67187,-0.396484 0.8972,-1.45171 6.4366,0.855942 8.08203,3.367187 0.79083,1.206958 3.21528,3.192545 5.38867,4.414063 2.1734,1.221518 4.22274,3.071589 4.55274,4.111328 0.33,1.039738 2.49262,3.522753 4.80664,5.515625 2.31401,1.992872 4.54222,3.938761 4.95117,4.326172 1.38435,1.311424 8.66254,9.676395 12.9707,14.90625 2.35661,2.860795 4.79569,5.2233 5.41993,5.25 0.62424,0.0267 1.927,1.286328 2.89453,2.798828 0.96752,1.5125 2.482,3.476516 3.36523,4.365234 0.88323,0.888718 4.30547,4.67416 7.60547,8.410157 3.3,3.735996 8.85685,9.757526 12.34961,13.382812 3.49277,3.625285 7.12291,7.813132 8.06641,9.304688 0.94351,1.491557 3.82416,4.566298 6.40039,6.833984 2.57623,2.267685 4.68359,4.593595 4.68359,5.167965 0,0.57436 1.9125,2.94053 4.25,5.25782 2.3375,2.31729 5.75162,5.86108 7.58789,7.875 1.83627,2.01392 3.74877,3.40743 4.25,3.09765 0.50123,-0.30977 0.91211,0.30059 0.91211,1.35742 0,2.6312 5.4482,9.27454 9.50977,11.59571 1.83572,1.04911 3.60371,2.6254 3.92968,3.5039 1.0316,2.78018 2.99047,5.49185 6.57813,9.09961 3.97443,3.99669 12.821,13.86741 17.98242,20.06641 1.925,2.31198 6.9875,7.76603 11.25,12.11914 4.2625,4.35312 7.75,8.59267 7.75,9.42188 0,0.82921 1.98355,5.41889 4.4082,10.19921 2.42466,4.78032 4.72645,10.71641 5.11524,13.19141 0.38879,2.475 0.99274,4.95 1.34179,5.5 0.34906,0.55 1.49786,4.6 2.55274,9 2.54621,10.62044 2.74905,27.5594 0.38867,32.51172 -0.92065,1.93161 -1.98856,5.98161 -2.37305,9 -0.38448,3.01839 -1.04782,5.93828 -1.47265,6.48828 -0.42483,0.55 -1.54321,3.7 -2.48633,7 -0.94312,3.3 -2.26801,7.125 -2.94336,8.5 -0.67534,1.375 -2.05528,4.3 -3.06641,6.5 -1.01113,2.2 -3.44245,6.41385 -5.40234,9.36523 -5.04418,7.59598 -4.85756,7.28299 -6.56445,11.13477 -2.69959,6.09192 -4.21156,8.19549 -9.41993,13.11133 -2.79325,2.63636 -5.07812,5.02798 -5.07812,5.3164 0,0.28841 -4.27862,4.86057 -9.50781,10.15821 -5.22919,5.29763 -10.21557,10.82067 -11.08008,12.27344 -0.86452,1.45275 -3.10095,3.76562 -4.9707,5.14062 -1.86976,1.375 -3.6496,3.24108 -3.95508,4.14648 -0.30548,0.9054 -5.91371,7.12912 -12.46289,13.83008 -6.54918,6.70096 -12.04811,12.93488 -12.22071,13.85352 -0.17259,0.91864 -1.3243,2.11333 -2.55859,2.65625 C 621.00985,397.02925 620,397.93599 620,398.5 c 0,0.564 -5.03697,6.19364 -11.19336,12.51172 C 597.98936,422.1131 593,428.10584 593,429.99414 c 0,0.49758 -1.4625,2.03163 -3.25,3.41016 -1.7875,1.37853 -7.975,7.95243 -13.75,14.60742 -5.775,6.65499 -13.0875,14.76844 -16.25,18.03125 -3.1625,3.26281 -5.75,6.35955 -5.75,6.88086 0,0.86177 -2.66012,3.62813 -14.97461,15.57617 l -4.12305,4 -21.20117,0.21094 c -11.66088,0.11554 -27.50117,0.51458 -35.20117,0.88867 -19.18236,0.93195 -48.56682,1.11211 -51,0.3125 -1.1,-0.36149 -3.09302,-0.24876 -4.42969,0.25 -3.01618,1.12543 -89.47945,1.44335 -93.4707,0.34375 -1.69969,-0.46827 -3.57029,-0.38139 -4.51563,0.20898 -0.88739,0.55419 -5.20555,0.85238 -9.59765,0.66211 -12.54807,-0.54361 -17.48582,-0.59212 -41.48633,-0.40234 -12.375,0.0978 -38.925,-0.0629 -59,-0.35742 -20.075,-0.29452 -38.19043,-0.14987 -40.25586,0.32031 -2.06543,0.47019 -3.94146,0.55129 -4.16992,0.18164 -0.22846,-0.36962 -7.08803,-0.56159 -15.24414,-0.42773 -26.01489,0.42697 -134.667032,0.82074 -139.029299,0.5039 -3.300194,-0.2397 -4.349219,-0.77572 -4.896484,-2.5 -0.38307,-1.20695 -0.562449,-9.84505 -0.396485,-19.19531 0.386931,-21.79939 0.383102,-20.88062 0.152344,-28.5 -0.108272,-3.575 -0.209849,-17.525 -0.224609,-31 -0.01476,-13.475 -0.163122,-36.425 -0.330078,-51 -0.166955,-14.575 -0.333694,-41.35 -0.371094,-59.5 -0.0374,-18.15 -0.125723,-51.225 -0.195313,-73.5 -0.069591,-22.275 -0.058655,-41.175 0.02344,-42 0.158264,-1.59049 0.06809,-59.89375 -0.203125,-132 L 9.6972656,12.5 20.097656,11.853516 C 25.81861,11.498086 51.425,11.176782 77,11.138672 c 25.575,-0.03811 46.725,-0.103771 47,-0.144531 2.80896,-0.416344 19.82984,-0.217405 20.57031,0.240234 0.53544,0.330915 3.80502,0.267414 7.26563,-0.140625 3.46061,-0.408042 8.71483,-0.413528 11.67578,-0.01172 4.8707,0.660968 11.83452,-0.09625 13.16992,-1.4316404 0.28798,-0.2879795 1.67109,-0.087413 3.07227,0.4453124 1.40117,0.532726 10.01671,0.928706 19.14648,0.878906 14.19966,-0.07745 25.93014,-0.05055 64.59961,0.148438 16.25818,0.08366 26.10107,-0.378265 27.17969,-1.2734376 0.79225,-0.6575112 1.89196,-0.6144804 3.27734,0.1269531 1.14653,0.6136005 2.6361,0.7742555 3.31055,0.3574215 0.67445,-0.4168339 8.87683,-0.6401855 18.22851,-0.4980465 9.35168,0.142139 26.90391,0.1830515 39.00391,0.091797 12.1,-0.091255 22.675,-0.1564513 23.5,-0.1445313 48.76128,0.7045209 97.39699,1.3863109 106.85742,1.4980469 11.0459,0.130461 12.50351,-0.05302 13.73438,-1.7363281 0.67357,-0.9211634 1.02813,-1.3815828 1.47461,-1.3769531 z M 463.3457,144 c -1.74803,0 -5.33747,4.91927 -5.38867,7.38477 -0.0241,1.16333 -0.73367,3.91523 -1.57617,6.11523 -0.8425,2.2 -2.14821,6.475 -2.90039,9.5 -1.56352,6.28793 -4.85815,15.91789 -7.14649,20.88867 -0.94977,2.0631 -1.36378,4.85159 -1.05859,7.12695 0.44012,3.28133 0.27323,3.67856 -1.37305,3.24805 -1.47314,-0.38524 -2.32322,0.55288 -3.96289,4.37305 -1.14806,2.67478 -2.3029,7.11328 -2.5664,9.86328 -1.10913,11.57539 -0.90062,11.17972 -6.28907,11.89453 -2.68007,0.35552 -5.42621,1.31125 -6.10156,2.125 C 424.30706,227.33328 422.9096,228 421.87695,228 420.84429,228 420,228.47613 420,229.05859 c 0,0.58246 -0.43136,0.79289 -0.95898,0.4668 -0.52763,-0.32609 -1.76513,-0.18387 -2.75,0.31641 C 404.78256,235.68773 391.2091,242 390.14648,242 c -0.73538,0 -2.53228,0.83156 -3.99218,1.84766 -2.67328,1.86061 -10.87577,4.03424 -16.91211,4.48242 -1.79223,0.13306 -4.23942,1.22379 -5.4375,2.42187 -2.12208,2.12209 -2.1303,2.23014 -0.33594,4.21289 1.12387,1.24186 3.09206,2.03516 5.05078,2.03516 1.76558,0 4.35549,0.9 5.75391,2 1.39842,1.1 2.83796,2 3.19922,2 0.36126,0 1.71228,1.25601 3.0039,2.79102 1.29163,1.53501 6.10019,5.28668 10.68555,8.33789 8.28622,5.51383 13.16362,8.00499 26.83789,13.70312 1.375,0.57297 5.93541,1.32874 10.13477,1.67969 l 7.63476,0.63672 0.54102,5.67578 c 0.91788,9.63446 1.70771,14.55303 2.83789,17.67578 3.18865,8.81045 11.73629,26.5 12.80468,26.5 1.20376,0 2.26446,5.75656 2.13868,11.60352 -0.08,3.71813 0.43715,5.79798 1.90039,7.6582 1.10477,1.40449 2.00781,3.74065 2.00781,5.1914 0,1.46722 1.08975,3.72648 2.45508,5.0918 1.35,1.35 2.8125,2.44745 3.25,2.43946 2.7061,-0.0521 5.27998,-4.47947 5.33008,-9.16797 0.0195,-1.82366 0.67882,-4.44141 1.46484,-5.81641 0.78602,-1.375 1.44534,-3.44939 1.46484,-4.60938 0.0195,-1.15999 1.38041,-4.75999 3.02344,-8 1.64304,-3.24 2.993,-6.46893 3,-7.17578 0.007,-0.70685 0.65728,-2.28185 1.44531,-3.5 0.78803,-1.21815 3.75676,-9.16738 6.59766,-17.66601 3.90461,-11.68073 5.02375,-16.31798 4.58789,-19 -0.31712,-1.95137 -0.30075,-5.90474 0.0371,-8.78321 l 0.61523,-5.23242 4.92969,-0.65429 c 2.71174,-0.35972 5.54366,-1.26632 6.29297,-2.01563 0.74932,-0.74931 2.15055,-1.36328 3.11328,-1.36328 0.96274,0 3.13322,-0.42779 4.82227,-0.95117 1.68905,-0.52337 5.22401,-1.48667 7.85742,-2.14063 2.96803,-0.73706 5.55343,-2.16229 6.80078,-3.74804 1.10672,-1.40698 2.66285,-2.65296 3.45703,-2.76954 1.9709,-0.28926 10.94309,-5.87863 13.43164,-8.36718 C 543.34968,257.65032 545.3172,257 548.0957,257 c 4.77065,0 9.9043,-3.15118 9.9043,-6.08008 0,-1.40371 -1.5855,-2.64555 -5.69922,-4.46484 -3.13425,-1.38611 -7.07175,-3.51925 -8.75,-4.74024 -1.67825,-1.22099 -6.20078,-3.72299 -10.05078,-5.56054 -3.85,-1.83755 -7.675,-3.75346 -8.5,-4.25586 -0.825,-0.50241 -2.625,-1.40848 -4,-2.01367 -2.90488,-1.27854 -4.98911,-2.3515 -9.62109,-4.95313 -1.84133,-1.03421 -4.02996,-1.61861 -4.86329,-1.29883 -0.83331,0.31977 -1.51562,0.15414 -1.51562,-0.36719 0,-0.52132 -2.41398,-1.48797 -5.36523,-2.14843 -7.75922,-1.73644 -8.51964,-2.58519 -9.08594,-10.15625 -0.46708,-6.24472 -2.58682,-14.05602 -4.44531,-16.375 -0.47884,-0.59748 -2.029,-4.31896 -3.44336,-8.27149 -2.43534,-6.80572 -6.95748,-15.79654 -10.72071,-21.31445 -0.93775,-1.375 -2.23253,-5.2 -2.8789,-8.5 -1.33326,-6.80687 -3.93619,-12.5 -5.71485,-12.5 z m -284.0664,0.18945 c -3.04218,-0.43974 -5.28403,3.46514 -6.00586,10.45899 -0.33587,3.25419 -1.81622,8.25679 -3.36914,11.38672 -1.52333,3.07028 -3.08405,6.90577 -3.4668,8.52343 -0.38276,1.61767 -1.47883,4.51641 -2.43555,6.44141 -6.42163,12.92095 -11.59036,29.35065 -11.88672,37.78125 -0.0765,2.17676 -0.70434,3.46883 -1.86523,3.83984 -5.86427,1.8742 -18.96143,8.10354 -19.76172,9.39844 -0.33344,0.53951 -1.85139,0.98047 -3.37305,0.98047 -1.70891,0 -3.69395,1.00716 -5.1914,2.63477 -1.33337,1.44928 -4.69088,3.65182 -7.46289,4.89453 -2.77201,1.24271 -5.64021,2.98222 -6.37305,3.86523 C 107.35506,245.27754 106.19031,246 105.5,246 c -0.69031,0 -1.81531,0.675 -2.5,1.5 -0.7149,0.86141 -2.89628,1.5 -5.123047,1.5 -2.544222,0 -4.564672,0.68772 -5.876953,2 -2.671265,2.67127 -2.595531,6.03142 0.152344,6.75 3.378672,0.88355 13.160006,6.29147 15.136716,8.36914 0.98392,1.03417 2.44642,1.88086 3.25,1.88086 0.80357,0 1.46094,0.43873 1.46094,0.97461 0,0.53588 1.4625,1.72113 3.25,2.63477 1.7875,0.91364 3.609,2.2749 4.04883,3.02539 0.43983,0.75049 1.27043,1.36523 1.8457,1.36523 0.57527,0 2.26827,0.87016 3.76172,1.93359 1.49346,1.06343 4.03785,2.25127 5.6543,2.63868 1.61646,0.38741 3.38945,1.02709 3.93945,1.42187 1.51261,1.08572 10.00105,3.00586 13.28711,3.00586 3.65069,0 5.55905,2.15823 7.51562,8.5 2.33118,7.55599 4.03149,11.82962 5.78321,14.54492 0.87117,1.35036 2.11381,4.00134 2.76172,5.89063 0.64792,1.88928 1.88692,4.21778 2.7539,5.17578 1.54378,1.70586 3.08039,6.40856 4.04883,12.38867 0.26721,1.65 0.88134,3.9 1.36523,5 0.48389,1.1 1.38728,4.7 2.00782,8 0.62053,3.3 1.63532,7.4625 2.2539,9.25 0.70791,2.04561 1.79143,3.25 2.92383,3.25 0.98951,0 1.79883,-0.43008 1.79883,-0.95508 0,-0.525 1.05269,-2.00777 2.33984,-3.29492 1.31105,-1.31105 3.30008,-5.61844 4.52149,-9.79492 1.19914,-4.10035 2.6238,-8.13008 3.16601,-8.95508 0.5422,-0.825 1.27346,-2.175 1.625,-3 0.35154,-0.825 1.69919,-3.8755 2.99414,-6.7793 1.29496,-2.90379 2.35352,-5.84102 2.35352,-6.52734 0,-0.68632 0.72021,-2.27881 1.60156,-3.53711 1.70136,-2.42903 6.37046,-19.94162 6.43946,-24.1543 0.0327,-1.9972 0.99157,-2.93298 4.75,-4.63867 2.58996,-1.17541 7.33373,-2.42237 10.54101,-2.76953 4.41017,-0.47736 6.75483,-1.37201 9.61914,-3.67383 4.53547,-3.6448 8.17467,-5.72261 19.04883,-10.87304 0.825,-0.39075 1.94309,-1.6824 2.48438,-2.8711 0.6771,-1.48697 1.558,-1.97938 2.82226,-1.57812 1.01063,0.32076 2.59255,-0.0958 3.51563,-0.92383 0.92309,-0.82804 3.37717,-1.81981 5.45312,-2.20508 2.07596,-0.38527 4.32596,-1.46541 5,-2.40039 0.67405,-0.93499 2.01211,-1.9945 2.97461,-2.35352 2.25001,-0.83927 2.25001,-3.98827 0,-5.86132 C 269.38281,247.46669 259.30399,243 256.78516,243 c -1.28725,0 -3.22763,-0.60612 -4.3125,-1.34766 -1.08488,-0.74154 -3.37622,-1.61888 -5.0918,-1.94922 -1.71558,-0.33032 -5.31558,-1.88354 -8,-3.45117 -2.68442,-1.56764 -6.45586,-3.47003 -8.38086,-4.22656 -1.925,-0.75653 -4.625,-2.13455 -6,-3.06445 -1.375,-0.9299 -4.89565,-1.91522 -7.82422,-2.1875 -7.87451,-0.73212 -8.66319,-1.95156 -8.74609,-13.5586 -0.0656,-9.18073 -0.30297,-10.24727 -4.33594,-19.41406 -2.34705,-5.33476 -4.90241,-10.22796 -5.67969,-10.87305 -0.77729,-0.64509 -1.41375,-1.90563 -1.41406,-2.80078 -3.1e-4,-0.89516 -1.80012,-4.55195 -4,-8.12695 -2.19987,-3.575 -4.27144,-8.075 -4.60156,-10 -0.55315,-3.22553 -2.68742,-8.80996 -5.73438,-15 -0.67683,-1.375 -2.2004,-2.63935 -3.38476,-2.81055 z m 283.43164,12.35547 c 0.36034,-0.0455 0.70719,0.25391 1.22265,0.875 0.95981,1.1565 0.80107,1.65144 -0.80273,2.50977 -3.45186,1.84738 -4.13716,0.97974 -1.73047,-2.19141 0.57593,-0.75886 0.9502,-1.14787 1.31055,-1.19336 z m -0.16992,8.87696 c 0.93429,0.3658 2.19573,2.26138 3.50586,5.57812 0.76038,1.925 2.58253,5.3 4.04882,7.5 1.4663,2.2 2.9716,5.42447 3.34571,7.16602 0.37411,1.74155 1.32775,3.41506 2.11914,3.71875 0.79139,0.30368 1.43945,1.51527 1.43945,2.6914 0,1.17613 1.35291,4.9721 3.00586,8.43555 1.65295,3.46345 2.74547,6.97469 2.42773,7.80273 -0.31775,0.82804 0.1783,2.96863 1.10352,4.75782 1.62742,3.14708 1.61176,3.30563 -0.47656,4.88085 -1.41389,1.06651 -1.93148,2.21859 -1.50196,3.3379 C 481.93374,222.26865 481.74071,223 481.10742,223 480.49857,223 480,222.55 480,222 c 0,-0.55 -0.9,-1 -2,-1 -1.51144,0 -2.00403,0.67177 -2.01562,2.75 -0.0109,1.95557 -0.26796,2.35109 -0.88868,1.37109 -1.16578,-1.84054 -3.17867,-0.50019 -2.3789,1.58399 0.46251,1.20529 0.21211,1.48126 -0.94532,1.03711 -2.12799,-0.81658 -5.24221,1.58975 -4.51367,3.48828 0.37816,0.98546 -0.28489,1.91559 -1.88476,2.64453 -3.03357,1.38218 -3.37305,1.39215 -3.37305,0.0996 0,-0.56361 -1.0125,-1.48581 -2.25,-2.05078 -4.33964,-1.98123 -8.28222,-4.17125 -11.91602,-6.61524 -3.43812,-2.31236 -3.65644,-2.76782 -3.49218,-7.3125 0.0963,-2.66578 0.50817,-5.18005 0.91601,-5.58789 0.40783,-0.40784 0.74219,-2.4465 0.74219,-4.53125 0,-2.56173 1.45875,-6.55794 4.5,-12.32422 2.475,-4.69265 4.5,-9.34587 4.5,-10.34179 0,-0.99592 0.42759,-2.24009 0.95117,-2.76367 0.52358,-0.52358 1.06926,-2.67164 1.21094,-4.77539 0.16576,-2.46128 0.89478,-4.16663 2.04687,-4.78321 1.08996,-0.58333 1.79102,-2.09626 1.79102,-3.86523 0,-2.80379 0.60672,-3.96737 1.54102,-3.60156 z m -284.43555,0.68164 c 1.14342,-0.27433 2.48897,1.31256 3.11133,4.40234 0.44255,2.19709 1.68255,4.72624 2.7539,5.62109 1.07135,0.89484 2.68757,3.59484 3.59375,6 1.99601,5.29776 5.54186,12.82239 7.00782,14.87305 1.64984,2.30786 3.33433,8.78214 4.29296,16.5 1.00091,8.0583 0.75183,9.19447 -2.20703,10.04297 -4.14413,1.18841 -10.28013,4.2977 -11.58593,5.87109 -1.87851,2.26346 -8.53524,2.0714 -10.78321,-0.31054 -1.96597,-2.08313 -8.76108,-5.18991 -10.5625,-4.83008 -1.65953,0.33151 -2.6491,-7.96829 -1.62304,-13.61524 1.09977,-6.05268 3.02396,-11.64218 6.35546,-18.45508 1.42453,-2.91313 3.2065,-7.63812 3.95899,-10.5 0.75249,-2.86186 1.83546,-6.32812 2.40625,-7.70312 0.57078,-1.375 1.30987,-3.76737 1.64258,-5.31641 0.33947,-1.5805 0.95262,-2.41548 1.63867,-2.58007 z M 489.05859,223 c 0.58246,0 0.78133,0.45 0.44141,1 -0.33992,0.55 -0.81605,1 -1.05859,1 C 488.19887,225 488,224.55 488,224 c 0,-0.55 0.47613,-1 1.05859,-1 z m 4.16993,2.5625 c 2.01168,-0.19661 4.51915,0.42735 5.85351,2.03516 0.6399,0.77104 1.89587,1.40992 2.79102,1.41992 0.89516,0.01 2.63393,1.07983 3.86523,2.3789 2.13865,2.25638 13.44954,8.60352 15.33203,8.60352 0.49431,0 3.16561,1.39525 5.93555,3.09961 2.76994,1.70436 5.66578,2.85714 6.43359,2.5625 0.7678,-0.29463 1.61671,0.0405 1.88672,0.74414 0.27001,0.70364 2.10652,2.04498 4.08203,2.98242 4.37788,2.07744 4.78748,4.61133 0.7461,4.61133 -1.57502,0 -3.65228,0.89278 -4.6543,2 -0.99549,1.1 -2.58579,2 -3.5332,2 -0.94742,0 -2.28211,0.675 -2.9668,1.5 -0.68469,0.825 -2.44031,1.5 -3.90039,1.5 -1.53793,0 -4.00031,1.23136 -5.85547,2.92578 -2.17734,1.98869 -5.04904,3.28384 -8.97266,4.04688 -3.17382,0.61722 -7.88063,1.77509 -10.45898,2.57422 -2.57834,0.79912 -5.50334,1.42929 -6.5,1.40039 -2.5413,-0.0736 -6.3125,-2.89209 -6.3125,-4.71875 0,-0.84056 -2.025,-3.44144 -4.5,-5.7793 -4.86801,-4.59827 -5.57803,-7.34404 -2.625,-10.16016 1.03176,-0.98393 2.18805,-2.80156 2.56836,-4.03906 0.38031,-1.2375 1.07812,-2.25 1.55078,-2.25 1.327,0 4.00586,-5.99391 4.00586,-8.96289 0,-1.46038 0.62485,-3.51011 1.38867,-4.55469 0.76381,-1.04458 1.19392,-2.40883 0.95508,-3.03125 -0.64291,-1.67538 0.87308,-2.69206 2.88477,-2.88867 z m -57.33399,1.00195 c 0.49236,-0.3043 1.15338,0.11957 1.46875,0.94141 0.3483,0.90766 -0.002,1.49414 -0.89453,1.49414 -1.61739,0 -1.98615,-1.56293 -0.57422,-2.43555 z m 43.72656,0.16993 c 0.41545,-0.14682 1.0407,-0.13876 1.87891,0.0215 2.04304,0.39055 2.5,1.05861 2.5,3.66016 0,1.75088 0.5625,3.81496 1.25,4.58593 1.04637,1.17342 0.99199,1.20737 -0.33789,0.21094 -1.33791,-1.00244 -2.11485,-0.44174 -4.91992,3.54883 -3.599,5.12004 -7.80933,9.14552 -9.62696,9.20312 -0.62463,0.0198 -2.42463,0.70769 -4,1.5293 -4.52561,2.36026 -8.35018,1.51532 -11.78125,-2.60352 -1.8516,-2.22275 -1.94058,-2.23517 -2.67968,-0.3457 -0.64099,1.63865 -0.80186,1.47042 -1.00196,-1.04492 -0.82133,-10.32486 -0.14486,-11.08912 5.34766,-6.04492 2.4533,2.25304 3.75,4.32525 3.75,5.99414 0,1.60087 0.55867,2.55078 1.5,2.55078 0.825,0 1.5,-0.65919 1.5,-1.46484 0,-0.80565 0.7875,-1.89197 1.75,-2.41407 0.9625,-0.52211 2.65,-2.65452 3.75,-4.73828 C 470.64648,235.31666 476.44634,229 478.0332,229 c 0.53167,0 0.9668,-0.6126 0.9668,-1.36133 0,-0.45641 0.20565,-0.75748 0.62109,-0.90429 z m -37.54297,0.33593 c 0.27939,-0.0115 0.68242,0.0392 1.2168,0.11524 1.56364,0.22242 2.29712,1.11444 2.52149,3.06445 0.42151,3.66325 -1.29942,3.49378 -3.19922,-0.31445 -1.11113,-2.22732 -1.37722,-2.83059 -0.53907,-2.86524 z m -283.30078,2.26953 c 0.13901,0.15378 0.20154,0.63669 0.20704,1.46875 0.008,1.26996 0.41859,2.05891 0.9121,1.75391 0.49352,-0.30499 2.29352,-0.27489 4,0.0664 2.14646,0.42929 3.10352,1.19896 3.10352,2.49609 0,2.00581 -1.4808,2.5241 -2.5,0.875 -0.33992,-0.55 -1.94105,-1 -3.55859,-1 C 159.32387,235 158,234.55 158,234 c 0,-0.55 -0.675,-1 -1.5,-1 -3.87931,0 -0.22692,7.87103 6.18164,13.32227 4.04529,3.441 4.1344,4.69748 0.52344,7.36718 -3.35168,2.478 -7.97884,11.03751 -8.82422,16.32422 -0.44103,2.75802 -1.19894,3.97208 -2.74414,4.38672 -1.17484,0.31523 -2.58672,0.50071 -3.13672,0.41211 -0.55,-0.0886 -3.02405,-0.33944 -5.49805,-0.55664 -2.47401,-0.21721 -5.26229,-1.08531 -6.19531,-1.92969 -0.93303,-0.84437 -4.55535,-2.97571 -8.05078,-4.73437 -3.49544,-1.75865 -7.45911,-3.97779 -8.80664,-4.93164 -7.87708,-5.57575 -9.71156,-6.73934 -12.19922,-7.74414 -3.43551,-1.38766 -3.6564,-3.36078 -0.28125,-2.51368 1.92189,0.48237 2.83311,0.065 4.10937,-1.88281 0.90194,-1.37654 2.07492,-2.23415 2.60547,-1.90625 0.53056,0.32791 1.94384,-0.29245 3.14063,-1.3789 2.13203,-1.93548 5.0926,-3.68219 11.25586,-6.64063 1.69378,-0.81304 3.66003,-2.17839 4.37109,-3.03516 0.71106,-0.85678 2.25173,-1.56145 3.42188,-1.56445 1.17016,-0.003 3.2817,-0.60902 4.69336,-1.3457 3.4499,-1.80033 7.62822,-2.88417 12.31445,-3.19532 2.13442,-0.14172 4.26472,-0.86438 4.73437,-1.60546 0.30771,-0.48555 0.52311,-0.66159 0.66211,-0.50782 z M 195.17969,231 c 1.84014,0 0.71377,5.02131 -1.42969,6.37305 -3.27328,2.06425 -6.49466,2.85088 -7.17383,1.75195 -0.58433,-0.94545 7.01809,-8.125 8.60352,-8.125 z m 238.13086,0.73047 c 1.92266,0.0854 2.58094,0.74313 3.82226,2.76953 2.12987,3.47691 3.86719,7.27338 3.86719,8.44922 0,0.45005 0.9,1.05218 2,1.33984 1.39165,0.36392 2,1.36519 2,3.28906 0,1.52068 0.72895,3.5691 1.61914,4.55274 2.15096,2.37679 1.24528,5.48506 -2.90039,9.96094 -1.82941,1.97512 -4.11473,5.80012 -5.08008,8.5 -0.96535,2.69989 -2.11242,5.5832 -2.54883,6.4082 -0.96284,1.82014 -4.64952,2.5212 -5.55468,1.05664 -0.35935,-0.58146 -2.08871,-1.0723 -3.84375,-1.0918 C 424.93637,276.94536 422.375,276.28602 421,275.5 c -1.375,-0.78602 -3.41785,-1.44534 -4.53906,-1.46484 -1.12121,-0.0195 -3.82121,-0.94979 -6,-2.06836 -2.17879,-1.11857 -4.92991,-1.79681 -6.11524,-1.50586 -1.70979,0.4197 -2.05861,0.15441 -1.68164,-1.28711 0.36047,-1.37844 -0.76914,-2.4642 -4.68554,-4.4961 C 395.13926,263.20467 392.18245,262 391.4082,262 390.63396,262 390,261.58298 390,261.07227 c 0,-2.05524 -3.19373,-4.06129 -5.53125,-3.47461 l -2.38477,0.59765 1.56641,-3.98633 c 1.36417,-3.47284 2.0672,-4.06724 5.44531,-4.60742 3.94185,-0.63033 9.46501,-3.32442 13.78516,-6.72265 1.31348,-1.03318 3.17238,-1.87891 4.13086,-1.87891 0.95849,0 2.30359,-0.675 2.98828,-1.5 0.68469,-0.825 1.94113,-1.5 2.79297,-1.5 0.85185,0 2.26059,-0.59829 3.12891,-1.33008 2.41414,-2.03459 10.06916,-4.52118 14.9746,-4.86328 0.99011,-0.069 1.77318,-0.10464 2.41407,-0.0762 z m -224.88086,1.89844 c 0.61185,0.0576 1.34083,0.20603 2.27539,0.41601 2.20272,0.49492 6.65833,2.39278 9.90039,4.2168 10.7425,6.04385 23.53499,11.80621 28.75,12.95117 C 257.05653,252.90366 260.69798,257 254.5,257 c -1.31008,0 -2.67818,0.47858 -3.03906,1.0625 -0.36089,0.58393 -1.62453,1.48132 -2.8086,1.99609 -1.18407,0.51476 -2.82734,1.31621 -3.65234,1.7793 -0.825,0.4631 -3.975,2.09801 -7,3.63281 -3.025,1.53479 -5.95,3.32636 -6.5,3.98242 -0.55,0.65609 -4.825,1.94832 -9.5,2.8711 -12.64123,2.49519 -14.64374,2.30956 -17.01172,-1.57422 -1.08986,-1.7875 -1.98237,-4.03713 -1.98437,-4.99805 -0.006,-2.68546 -6.71892,-9.5032 -10.62696,-10.79297 -2.73593,-0.90294 -3.42413,-1.61682 -3.18359,-3.30468 0.19146,-1.34342 1.14637,-2.27305 2.53711,-2.47071 1.22624,-0.17427 3.21922,-1.74927 4.42969,-3.5 2.64783,-3.82959 3.77041,-5.21359 7.60351,-9.36132 2.05556,-2.22429 2.83046,-2.86603 4.66602,-2.69336 z M 446,234.5 c 0.55,-0.33992 1,0.0839 1,0.94141 0,0.85746 -0.45,1.55859 -1,1.55859 -0.55,0 -1,-0.42387 -1,-0.94141 0,-0.51754 0.45,-1.21867 1,-1.55859 z M 167,242 c 0.55,0 1,0.42387 1,0.94141 0,0.51754 -0.45,1.21867 -1,1.55859 -0.55,0.33992 -1,-0.0839 -1,-0.94141 C 166,242.70113 166.45,242 167,242 Z m 13.75,2.34375 c 0.17607,0.172 0.25,0.64932 0.25,1.45703 0,2.41451 -0.5203,2.78501 -1.55469,1.11133 -0.36954,-0.59793 -0.17066,-1.58715 0.44141,-2.19922 0.40858,-0.40858 0.68721,-0.54114 0.86328,-0.36914 z m 542.23438,1.16602 c 0.55896,-0.34546 1.01562,0.0742 1.01562,0.93164 0,1.75653 -0.5998,2.01399 -1.45703,0.62695 -0.31644,-0.512 -0.11757,-1.21313 0.44141,-1.55859 z M 466,246 c -0.55,0 -1,0.45 -1,1 0,0.55 0.45,1 1,1 0.55,0 1,-0.45 1,-1 0,-0.55 -0.45,-1 -1,-1 z m -291,0.5 c 0.55,0.33992 1,1.04105 1,1.55859 0,0.51754 -0.45,0.94141 -1,0.94141 -0.55,0 -1,-0.70113 -1,-1.55859 0,-0.85748 0.45,-1.28133 1,-0.94141 z m 277.30664,3.10156 c 0.0914,-0.22656 0.21676,-0.19531 0.35547,0.14844 0.27741,0.6875 0.27741,1.8125 0,2.5 -0.27741,0.6875 -0.50391,0.125 -0.50391,-1.25 0,-0.6875 0.057,-1.17188 0.14844,-1.39844 z M 456.60742,254 c 0.21615,0 0.39258,0.675 0.39258,1.5 0,0.825 -0.43601,1.5 -0.96875,1.5 -0.53273,0 -0.70916,-0.675 -0.39258,-1.5 0.31659,-0.825 0.75259,-1.5 0.96875,-1.5 z m -77.04883,1 c 0.24254,0 0.44141,0.45 0.44141,1 0,0.55 -0.47613,1 -1.05859,1 -0.58246,0 -0.78133,-0.45 -0.44141,-1 0.33992,-0.55 0.81605,-1 1.05859,-1 z M 463,256 c 0.55,0 1,0.42387 1,0.94141 0,0.51754 -0.45,1.21867 -1,1.55859 -0.55,0.33992 -1,-0.084 -1,-0.94141 C 462,256.70113 462.45,256 463,256 Z m -291.75195,2 c 1.7649,0 1.94971,0.4834 1.49218,3.89453 -0.38666,2.88281 -1.62143,4.96194 -4.75195,8 C 165.66189,272.15222 163.36259,274 162.87891,274 162.39523,274 162,272.20037 162,270.00195 c 0,-3.18805 0.73283,-4.80736 3.61719,-8 1.989,-2.20158 4.52244,-4.00195 5.63086,-4.00195 z M 109,261 c 0.55,0 1,0.45 1,1 0,0.55 -0.45,1 -1,1 -0.55,0 -1,-0.45 -1,-1 0,-0.55 0.45,-1 1,-1 z m 74.5,0.25 c 0.43123,-0.25952 1.22559,-0.15566 2.67773,0.13477 4.08981,0.81796 9.3613,6.19926 10.1543,10.36523 0.89623,4.70832 -1.68279,4.28515 -8.09961,-1.32812 -3.74306,-3.27434 -5.23242,-5.3028 -5.23242,-7.125 0,-1.16437 0.0688,-1.78736 0.5,-2.04688 z m 270.39844,0.49414 c 0.57846,-0.0314 1.25134,0.003 2.07617,0.082 2.74862,0.26213 3.98368,0.90759 4.33984,2.26953 0.8383,3.20568 -0.29122,5.2711 -4.64257,8.48828 -5.10147,3.77176 -9.01889,4.90717 -10.55469,3.05664 -1.27216,-1.53286 0.61116,-6.07568 4.6289,-11.16015 1.53705,-1.94512 2.41697,-2.64207 4.15235,-2.73633 z M 464,264 c 0.55,0 1,0.9 1,2 0,1.1 -0.45,2 -1,2 -0.55,0 -1,-0.9 -1,-2 0,-1.1 0.45,-2 1,-2 z m 7.18164,0.0156 c 2.855,-0.0119 3.83181,0.44982 4.3418,2.05665 0.56995,1.79575 1.17909,1.98438 4.5664,1.41211 C 482.6449,267.05271 484,267.20113 484,267.91211 484,268.51046 483.1,269 482,269 c -1.1,0 -2,0.45 -2,1 0,0.55 -0.7875,0.93818 -1.75,0.86328 -4.43099,-0.34481 -6.34027,-1.16576 -7.40234,-3.18359 -0.63113,-1.19909 -1.64289,-2.50998 -2.24805,-2.91407 -0.60517,-0.40408 0.5566,-0.742 2.58203,-0.75 z m -349.19726,4.49415 c 0.55897,-0.34546 1.01562,0.0742 1.01562,0.93164 0,1.75653 -0.5998,2.01399 -1.45703,0.62695 -0.31644,-0.512 -0.11757,-1.21313 0.44141,-1.55859 z m 344.94921,3.78515 c 0.93225,-0.406 1.11085,0.25906 0.87891,1.8457 -0.24826,1.69826 0.51348,2.44516 3.6875,3.61915 2.2,0.81372 5.575,1.77008 7.5,2.125 l 3.5,0.64453 0.28711,10.36718 c 0.21743,7.86901 -0.0568,10.75537 -1.13867,11.98438 -0.78382,0.89044 -1.7568,3.17695 -2.16211,5.08008 -0.4053,1.90313 -1.54323,5.05313 -2.52735,7 -0.98411,1.94687 -2.08639,5.42658 -2.45117,7.73242 -0.36478,2.30584 -1.30394,4.72208 -2.08593,5.37109 -0.78202,0.649 -1.42188,1.58953 -1.42188,2.08985 0,0.50032 -0.7527,2.58211 -1.67383,4.62695 -0.92114,2.04483 -2.15864,5.51387 -2.75,7.70898 -0.66042,2.45145 -1.75127,4.12017 -2.82617,4.32422 -1.97397,0.37474 -1.92369,0.42925 -2.23242,-2.38281 -0.67237,-6.12447 -1.9043,-9.90445 -4.4668,-13.70508 C 451.13601,321.95391 443,298.93532 443,290.97461 c 0,-3.69166 -0.33067,-4.27369 -3,-5.28125 C 437.19898,284.63609 435.77142,282 438,282 c 0.55,0 1,0.45 1,1 0,0.55 0.675,1 1.5,1 0.825,0 1.5,-0.46399 1.5,-1.03125 0,-0.56727 -0.675,-1.29084 -1.5,-1.60742 -1.90834,-0.7323 -1.95579,-2.36133 -0.0684,-2.36133 0.78794,0 1.71905,0.90137 2.06836,2.00195 1.86699,5.88238 10.67422,3.97161 19.03125,-4.12695 2.78438,-2.69827 4.4701,-4.17408 5.40234,-4.58008 z m -290.36523,0.0508 c 0.2779,0.0273 0.43164,0.25883 0.43164,0.71875 0,3.45462 13.72802,12.93555 18.73047,12.93555 3.68202,0 4.6804,1.96876 2.54492,5.01758 -1.38504,1.97742 -3.62144,9.0431 -6.29297,19.8789 -0.46054,1.86796 -1.20788,3.66796 -1.66015,4 -1.23201,0.90449 -3.55579,7.25549 -3.69727,10.10352 -0.0683,1.375 -0.8,3.04874 -1.625,3.71875 -3.06143,2.48628 -6.50727,1.18974 -6.74023,-2.53516 -0.0797,-1.27391 -1.02294,-4.19891 -2.09571,-6.5 -1.07276,-2.3011 -2.21325,-5.34176 -2.5332,-6.75781 -0.57107,-2.52752 -3.52477,-9.01222 -8.16797,-17.92578 -2.86325,-5.49659 -3.10144,-10.11339 -0.63477,-12.3457 1.00582,-0.91025 2.26992,-1.6543 2.8086,-1.6543 0.53869,0 2.30387,-1.78545 3.92187,-3.9668 2.22983,-3.00621 4.17608,-4.76931 5.00977,-4.6875 z m 239.50586,3.84571 c 0.59125,0.19708 1.07617,0.78609 1.07617,1.30859 0,0.5225 -0.48492,1.11151 -1.07617,1.30859 C 415.48297,279.00568 415,278.41667 415,277.5 c 0,-0.91667 0.48297,-1.50568 1.07422,-1.30859 z M 460.5,353 c 0.88992,0 1.33992,0.45 1,1 -0.33992,0.55 -0.78992,1 -1,1 -0.21008,0 -0.66008,-0.45 -1,-1 -0.33992,-0.55 0.11008,-1 1,-1 z m 160.05859,52 c 0.24254,0 0.44141,0.45 0.44141,1 0,0.55 -0.47613,1 -1.05859,1 -0.58246,0 -0.78133,-0.45 -0.44141,-1 0.33992,-0.55 0.81605,-1 1.05859,-1 z m -195.00195,92.48633 c 0.24447,-0.0366 0.56229,0.006 0.94336,0.15234 0.825,0.31659 1.5,0.97759 1.5,1.46875 0,1.0484 -1.37829,1.18226 -2.33398,0.22656 -0.911,-0.91099 -0.84279,-1.73788 -0.10938,-1.84765 z m -25.6582,0.45703 c 0.20854,-0.0216 0.45095,0.074 0.70508,0.32812 0.33229,0.33229 0.41519,1.1724 0.18359,1.86719 -0.33872,1.01621 -0.57505,1.01552 -1.20508,-0.004 -0.62552,-1.01212 -0.30923,-2.12657 0.31641,-2.19141 z M 224.05859,499 c 0.58246,0 0.78133,0.45 0.44141,1 -0.33992,0.55 -0.81605,1 -1.05859,1 C 223.19887,501 223,500.55 223,500 c 0,-0.55 0.47613,-1 1.05859,-1 z" />
    <path
       style="fill:#000000;stroke-width:0.633962"
       d="m 177.28246,354.86038 c -0.49142,-0.95887 -1.38088,-3.88302 -1.97657,-6.49812 -0.59569,-2.61509 -1.75627,-7.32226 -2.57907,-10.46037 -0.82279,-3.13812 -2.0815,-8.11837 -2.79713,-11.06724 -0.71562,-2.94886 -1.96573,-6.37226 -2.77802,-7.60755 -2.25751,-3.43312 -8.99776,-18.17883 -10.58947,-23.16672 -1.71773,-5.3828 -3.25057,-8.53299 -4.81927,-9.90422 -0.64993,-0.56812 -3.41275,-1.35236 -6.17035,-1.75148 -2.7464,-0.3975 -7.59621,-1.61593 -10.77736,-2.70762 -5.57447,-1.91301 -14.58528,-6.36273 -15.33227,-7.57138 -0.19909,-0.32213 -1.91215,-1.57733 -3.8068,-2.78932 -1.89466,-1.21199 -3.44483,-2.46153 -3.44483,-2.77674 0,-0.31521 -0.64189,-0.73692 -1.42641,-0.93714 -0.78453,-0.20021 -2.98556,-1.53953 -4.89118,-2.97626 -1.90563,-1.43673 -6.11355,-3.88352 -9.350948,-5.43733 -5.007512,-2.40337 -5.886178,-3.05237 -5.886178,-4.34767 0,-2.86881 2.434884,-4.76335 6.933945,-5.39519 2.345033,-0.32933 4.828691,-1.12584 5.838481,-1.87242 0.96655,-0.7146 2.03231,-1.29927 2.36836,-1.29927 0.33604,0 1.41741,-0.66803 2.40303,-1.48452 0.98562,-0.81648 3.79626,-2.52986 6.24588,-3.80748 2.44961,-1.27763 5.81379,-3.44676 7.47596,-4.82029 2.09388,-1.73028 3.89248,-2.62785 5.85583,-2.92228 1.55855,-0.23372 2.99494,-0.68578 3.19197,-1.00459 0.48721,-0.78832 11.69672,-6.33845 16.57497,-8.20671 2.17391,-0.83256 4.0834,-1.85466 4.24329,-2.27134 0.15989,-0.41667 0.61285,-3.1103 1.00656,-5.98584 0.952,-6.95302 4.40015,-18.22433 8.31727,-27.18752 1.75238,-4.00981 4.13872,-9.85811 5.30298,-12.99622 1.16426,-3.13812 2.83923,-7.32303 3.72214,-9.29982 1.67575,-3.75189 3.15583,-9.05274 3.8363,-13.73949 0.48373,-3.33169 2.46953,-7.40629 3.87177,-7.94438 2.75623,-1.05767 5.82968,3.88468 9.54613,15.3509 1.19699,3.69304 3.55914,9.14913 5.2492,12.12464 1.69007,2.97552 3.29434,6.12324 3.56505,6.99494 0.27072,0.8717 1.58104,3.39779 2.91182,5.61354 1.33079,2.21574 3.76608,7.2082 5.41177,11.09434 2.9921,7.06559 2.99216,7.06586 3.47018,16.7716 0.63454,12.88358 0.89572,13.28028 9.67513,14.69548 3.36028,0.54166 6.88403,1.96912 15.53208,6.29196 6.15216,3.07525 12.81161,6.06087 14.79877,6.6347 1.98716,0.57384 3.77515,1.30568 3.97332,1.62632 0.19816,0.32064 1.9957,0.91357 3.99453,1.31762 7.8525,1.58733 18.47904,7.8772 17.52196,10.37129 -0.70382,1.83413 -6.27126,5.6719 -9.76106,6.72853 -2.034,0.61585 -4.35732,1.5814 -5.16293,2.14566 -0.8056,0.56427 -2.38361,1.02594 -3.5067,1.02594 -1.59133,0 -2.28708,0.41495 -3.15266,1.88026 -0.77911,1.31893 -2.89881,2.76184 -7.10035,4.83331 -3.29432,1.62418 -8.2321,4.47998 -10.97286,6.34622 -6.78834,4.62234 -7.80034,5.08257 -12.91103,5.87154 -4.99219,0.77068 -10.78248,2.61374 -13.21133,4.20519 -1.20945,0.79246 -1.71771,1.80463 -2.01761,4.018 -0.69057,5.09657 -4.6843,19.70339 -6.23672,22.81041 -0.81643,1.63401 -1.6893,3.81919 -1.93973,4.85597 -0.25041,1.03678 -2.25404,5.88659 -4.4525,10.77736 -2.19846,4.89077 -4.74937,11.17457 -5.66869,13.964 -0.91932,2.78944 -2.30859,6.09364 -3.08724,7.34267 -0.77867,1.24903 -1.98632,3.17289 -2.68368,4.27523 -1.56206,2.46923 -3.16912,2.56862 -4.34773,0.2689 z m 8.0315,-26.01835 c 0.5651,-0.62442 1.34967,-2.69273 1.74348,-4.59622 0.39383,-1.9035 1.69092,-5.45789 2.88243,-7.89864 1.19152,-2.44075 3.16829,-8.14642 4.39283,-12.67925 1.22454,-4.53283 2.9327,-9.69635 3.79593,-11.4745 0.86321,-1.77815 1.56948,-3.69378 1.56948,-4.25695 0,-1.23479 -1.88318,-2.33647 -3.9939,-2.33647 -3.90486,0 -15.58581,-7.60961 -17.56081,-11.44008 -0.52302,-1.01438 -1.37448,-1.85081 -1.89215,-1.85873 -0.51765,-0.008 -2.85172,1.91126 -5.18682,4.26485 -2.33509,2.35358 -5.15879,5.08392 -6.27487,6.06743 -1.93769,1.70751 -2.0144,1.95175 -1.70049,5.41373 0.248,2.73487 1.22625,5.41045 3.98205,10.89106 3.38815,6.73818 6.80434,15.13975 9.91427,24.38249 2.31293,6.87403 2.15451,6.65661 4.84993,6.65661 1.55063,0 2.82867,-0.41712 3.47864,-1.13533 z m 11.09301,-55.77124 c 0.4902,-4.93889 -6.41296,-12.19532 -11.60161,-12.19532 -1.88946,0 -2.53722,1.20251 -1.93666,3.5953 0.78992,3.1473 10.5533,11.41612 12.70866,10.76324 0.34868,-0.10561 0.722,-1.07906 0.82961,-2.16322 z m -43.64679,1.13113 c 0.69648,-0.37275 1.46729,-1.95566 1.92946,-3.96227 1.27687,-5.54388 4.79571,-12.19492 8.25184,-15.59697 1.73615,-1.70897 3.15663,-3.65531 3.15663,-4.3252 0,-0.66989 -1.45149,-2.63367 -3.22553,-4.36395 -4.03373,-3.93426 -6.82179,-7.89581 -7.32395,-10.40662 -0.3297,-1.64847 -0.19653,-1.93182 0.90798,-1.93182 0.71188,0 1.39167,0.29201 1.51064,0.64892 0.11896,0.35689 1.35519,0.82341 2.74717,1.0367 1.39198,0.21329 3.01948,0.81173 3.61668,1.32987 1.46051,1.26714 3.03494,0.55474 3.03494,-1.37327 0,-1.98921 -0.82438,-2.49181 -4.75472,-2.89885 -2.6846,-0.27802 -3.20082,-0.54661 -3.37239,-1.75469 -0.22008,-1.54956 -0.76565,-1.7895 -1.77466,-0.78049 -0.35525,0.35525 -3.05118,1.03616 -5.99094,1.51314 -2.93977,0.47697 -7.17723,1.61272 -9.41659,2.52389 -2.23936,0.91117 -4.68016,1.65667 -5.42401,1.65667 -0.74384,0 -2.33503,0.72546 -3.53598,1.61212 -1.20095,0.88666 -4.60845,2.92034 -7.57222,4.5193 -2.96378,1.59895 -6.42823,3.72632 -7.69878,4.7275 -1.27055,1.00118 -2.90239,1.82033 -3.6263,1.82033 -0.72734,0 -1.94531,0.8509 -2.72233,1.90188 -1.18423,1.60176 -1.83751,1.90189 -4.13974,1.90189 -1.50348,0 -2.73361,0.26458 -2.73361,0.58795 0,0.72422 3.09604,3.21582 3.99595,3.21582 0.36034,0 3.5313,1.94418 7.04658,4.3204 3.51529,2.37622 8.95898,5.7004 12.0971,7.38707 3.13811,1.68667 6.54404,3.65159 7.56874,4.36649 1.02469,0.7149 3.16432,1.6507 4.75472,2.07957 3.52169,0.94967 11.10293,1.09577 12.69332,0.24462 z m 14.88442,-3.59871 c 4.08598,-3.9893 5.4271,-6.54479 5.4271,-10.34134 0,-2.31547 -0.15182,-2.55621 -1.61207,-2.55621 -1.99929,0 -7.71229,5.15283 -8.93914,8.06266 -1.42234,3.37349 -1.0144,8.42036 0.68062,8.42036 0.42412,0 2.42369,-1.61346 4.44349,-3.58547 z m 51.04758,2.63978 c 7.6654,-1.34899 11.93835,-2.70702 14.88565,-4.73099 1.41521,-0.97184 5.85387,-3.40987 9.86368,-5.41783 4.00981,-2.00796 7.97093,-4.18446 8.80248,-4.83666 0.83155,-0.65219 2.33823,-1.18581 3.34819,-1.18581 2.5018,0 3.08634,-1.71325 1.103,-3.23282 -0.83895,-0.64278 -4.66348,-2.17605 -8.49895,-3.40726 -4.18925,-1.34478 -12.64908,-5.06835 -21.18827,-9.32594 -11.48051,-5.72413 -14.86856,-7.1416 -17.61421,-7.36928 -3.27538,-0.27162 -3.48558,-0.19145 -5.75514,2.19513 -1.29557,1.36238 -4.08079,4.60795 -6.18936,7.21238 -2.26302,2.79521 -4.7955,5.19193 -6.18113,5.84976 -1.92824,0.91544 -2.34737,1.44979 -2.34737,2.99274 0,1.64831 0.41626,2.07525 3.39918,3.4864 3.91165,1.8505 9.64428,7.55822 10.29156,10.24682 0.69981,2.90677 2.66056,6.403 4.19278,7.47621 1.77328,1.24206 5.02477,1.25495 11.88791,0.0472 z m -95.7035,-3.80903 c 0,-1.6186 -0.86528,-2.11531 -1.60367,-0.92058 -0.52737,0.8533 0.099,2.50549 0.94981,2.50549 0.35962,0 0.65386,-0.71321 0.65386,-1.58491 z m -12.79125,-7.50159 c 0.1382,-0.71263 -0.22318,-1.0569 -1.10944,-1.0569 -0.72292,0 -1.31441,0.38038 -1.31441,0.84528 0,1.94167 2.05355,2.12096 2.42385,0.21162 z m 65.7271,-14.09727 c 0,-0.66353 -0.49925,-1.30256 -1.10944,-1.42007 -1.11572,-0.21487 -1.60616,1.70711 -0.67358,2.63969 0.74898,0.74897 1.78302,0.0417 1.78302,-1.21962 z m 5.38868,-1.85774 c 0,-2.36145 -0.63166,-2.79846 -1.87664,-1.29835 -0.93576,1.12752 -0.27779,3.51722 0.96842,3.51722 0.61532,0 0.90822,-0.71558 0.90822,-2.21887 z m -13.42761,-2.744 c 0.13167,-0.89482 -0.13264,-1.37676 -0.75503,-1.37676 -1.23281,0 -1.88111,1.06197 -1.40528,2.30195 0.51625,1.34533 1.91432,0.74658 2.16031,-0.92519 z m 24.00443,-4.51067 c 3.57485,-1.62303 6.08499,-6.67449 3.96708,-7.98343 -1.4394,-0.8896 -9.4722,6.13775 -9.4722,8.28658 0,1.27958 2.29773,1.15305 5.50512,-0.30315 z m -6.24943,-9.23278 c 1.03884,-0.87413 3.84224,-2.4587 6.22977,-3.52126 7.80168,-3.47211 7.4915,-3.22384 7.70597,-6.16792 0.10737,-1.4738 -0.39458,-6.17189 -1.11544,-10.44019 -1.16053,-6.87168 -1.74262,-8.63187 -5.0822,-15.36809 -2.07435,-4.18415 -4.37512,-9.1766 -5.11282,-11.09434 -0.73771,-1.91773 -2.32756,-4.75761 -3.53301,-6.31084 -1.20545,-1.55322 -2.62395,-4.31083 -3.15223,-6.12802 -1.09669,-3.7725 -2.41122,-5.23592 -3.87425,-4.31306 -0.53059,0.33468 -2.45354,5.31059 -4.27324,11.05757 -1.8197,5.74699 -4.50361,13.09682 -5.96425,16.33295 -4.05283,8.97933 -5.80852,15.73699 -5.80852,22.35709 0,6.66983 0.65771,8.84334 2.67865,8.85202 1.79489,0.008 7.06341,2.48176 9.96527,4.67962 3.08623,2.3375 8.5977,2.36884 11.3363,0.0645 z"
       id="path7" />
    <path
       style="fill:#000000"
       d="m 119.81887,266.26415 c 0.19732,0.0562 4.87506,7.17022 6.33962,5.70566 0.42264,-0.42264 -0.80119,-0.89454 -1.26792,-1.26792 -1.75412,-1.4033 -5.51225,-6.64049 -5.0717,-4.43774 1.51201,7.56006 4.80256,5.58245 7.60755,9.50943 0.5493,0.76903 0.7437,1.74952 1.26792,2.53585 0.11722,0.17583 0.0668,-0.43348 0,-0.63396 -0.5481,-1.64431 -1.5469,-2.48517 -2.53585,-3.80377 -2.35557,-3.14076 -3.16012,-3.36821 -6.33962,-7.60755 z"
       id="path9" />
    <path
       style="fill:#000000"
       d="m 107.13962,261.19245 c 5.96691,3.31495 4.16722,1.63138 6.33963,3.80378"
       id="path10" />
    <path
       style="fill:#000000"
       d="m 462.15849,155.32075 c -0.99447,0.26618 -4.96158,7.78217 -0.63396,6.33963 1.20113,-0.40038 0.99719,-0.63396 2.53585,-0.63396"
       id="path11" />
    <path
       style="fill:#000000"
       d="m 412.07547,276.40755 c 2.32453,0 4.64906,0 6.97359,0"
       id="path12" />
    <path
       style="fill:#000000"
       d="m 442.50566,225.69057 c 0,9.9836 -0.46778,0.83092 0.63396,6.33962 0.0668,0.33376 -0.30356,2.86625 0,3.16981 0.29886,0.29885 0.84529,0 1.26793,0"
       id="path13" />
    <path
       style="fill:#000000"
       d="m 436.8,227.59245 -1.26792,-1.26792"
       id="path14" />
    <path
       style="fill:#000000"
       id="path15"
       d="m 439.04284,226.16338 c 0.0526,1.15093 0.29567,2.27911 0.44814,3.41705 0.021,0.15645 -0.10972,0.40338 0.0322,0.47247 13.6993,6.66786 14.42608,10.83033 13.26015,5.44212 -0.87239,-5.78259 0.88702,-1.30355 -13.56725,-7.43069 -0.19878,-0.0843 0.0182,0.81315 -0.19926,1.52542 0.13162,-0.33287 0.0711,-1.15125 0.39486,-0.99861 4.3449,2.04832 8.31477,4.81532 12.54164,7.09728 0.17754,0.0958 -0.23202,-0.33084 -0.33237,-0.50587 -0.081,-0.14129 -0.0644,-0.36898 -0.21048,-0.44094 -13.7163,-6.75515 -12.89717,-11.25748 -13.63502,-5.62113 0.0347,0.61133 0.0418,0.32399 -0.006,0.86225 0,0 13.75513,6.11117 13.75513,6.11117 v 0 c -0.33896,0.0539 -0.1999,0.10839 -0.36859,-0.2548 -3.61913,-3.74268 -0.26964,-0.31086 -13.49995,-6.99632 -0.1306,-0.066 0.25641,0.15539 0.34421,0.27245 0.12542,0.16723 0.1046,0.44819 0.28073,0.56078 13.25271,8.47162 9.82851,11.89885 13.90387,7.08934 0.0426,-0.15428 0.35613,-1.46277 0.20556,-1.55045 -19.62072,-11.4242 -14.09177,-11.75717 -12.99724,-6.27145 0.62088,5.64453 -0.0714,0.92978 13.62052,7.55373 0.16005,0.0774 -0.16363,-0.31743 -0.21884,-0.48645 -0.3248,-0.99427 -0.50297,-2.04217 -0.48706,-3.08836 z" />
  </g>
</svg>
