<?xml version="1.0" encoding="UTF-8" standalone="no"?>
<!-- Created with Inkscape (http://www.inkscape.org/) -->

<svg
   version="1.1"
   id="svg1"
   width="735"
   height="504"
   viewBox="0 0 735 504"
   sodipodi:docname="6.svg"
   inkscape:version="1.4 (86a8ad7, 2024-10-11)"
   xmlns:inkscape="http://www.inkscape.org/namespaces/inkscape"
   xmlns:sodipodi="http://sodipodi.sourceforge.net/DTD/sodipodi-0.dtd"
   xmlns="http://www.w3.org/2000/svg"
   xmlns:svg="http://www.w3.org/2000/svg">
  <defs
     id="defs1" />
  <sodipodi:namedview
     id="namedview1"
     pagecolor="#ffffff"
     bordercolor="#000000"
     borderopacity="0.25"
     inkscape:showpageshadow="2"
     inkscape:pageopacity="0.0"
     inkscape:pagecheckerboard="0"
     inkscape:deskcolor="#d1d1d1"
     inkscape:zoom="1.577381"
     inkscape:cx="367.69811"
     inkscape:cy="251.68302"
     inkscape:window-width="1920"
     inkscape:window-height="1013"
     inkscape:window-x="2391"
     inkscape:window-y="605"
     inkscape:window-maximized="1"
     inkscape:current-layer="g1" />
  <g
     inkscape:groupmode="layer"
     inkscape:label="Image"
     id="g1">
    <path
       id="path1"
       style="fill:#000000"
       d="M 541.28516,1.0683594 C 539.62666,0.9255472 538.19678,1.135578 537.58203,1.75 537.16931,2.1625 525.28246,2.5741707 511.16602,2.6640625 497.04957,2.7539535 484.825,2.8388306 484,2.8535156 483.175,2.8682006 477.55,2.856342 471.5,2.828125 465.45,2.799907 455.775,2.8128927 450,2.8554688 420.7833,3.0708692 341.04741,2.149749 339.24023,1.5761719 338.10051,1.2144392 336.93675,1.2929997 336.6543,1.75 336.37186,2.2070002 326.99665,2.4601812 315.82031,2.3125 253.23318,1.4854907 231.35553,1.3941191 221.1543,1.9179688 c -6.23997,0.320433 -11.53281,0.2785878 -11.76172,-0.091797 -0.64105,-1.03724056 -73.46598,-0.85612899 -75.41602,0.1875 -0.94222,0.5042602 -2.03459,0.5943208 -2.42773,0.2011719 C 131.1557,1.821695 103.80785,1.4694116 70.777344,1.4316406 L 10.722656,1.3632812 7.9355469,3.7089844 C 6.402304,4.9991233 4.9049656,7.2797114 4.609375,8.7773438 4.0571534,11.575216 2.5264291,150.43804 2.921875,161.86914 c 0.1211873,3.50314 -0.3330004,10.42073 -1.0097656,15.37305 -0.96933772,7.09324 -0.97114613,10.30595 -0.011719,15.13281 0.9506508,4.78271 0.9555743,7.66167 0.021484,13.125 -0.6581769,3.84957 -1.1758156,7.9 -1.1484375,9 0.0754073,3.02972 0.040478,177.38292 -0.046875,232 -0.0712819,44.56868 0.0541384,48.27461 1.7558594,51.8418 1.8857872,3.95304 4.2256152,5.6873 5.3691406,3.98047 0.4023849,-0.60059 6.7294655,-0.73828 16.6484375,-0.36133 13.331918,0.50664 82.68634,0.49897 156.70312,-0.0195 9.18651,-0.0644 17.06151,0.0956 17.5,0.35742 0.43852,0.26178 21.01299,0.53231 45.72266,0.59961 24.70968,0.0673 45.18468,0.3956 45.5,0.73047 0.31533,0.33482 7.13723,0.31094 15.1582,-0.0527 8.02098,-0.36371 28.67548,-0.64259 45.9004,-0.62109 21.68342,0.027 31.73439,-0.30529 32.66796,-1.08008 0.99933,-0.82933 1.72248,-0.80771 2.79688,0.084 1.11053,0.92166 15.08819,1.07001 59.75,0.63477 32.06518,-0.31249 58.52578,-0.59114 58.80078,-0.61914 0.275,-0.028 9.275,-0.0219 20,0.0137 22.26662,0.0739 19.13706,1.22297 30,-11.00976 3.025,-3.40644 8.65,-9.53821 12.5,-13.625 3.85,-4.08679 7.18401,-7.97621 7.4082,-8.64258 0.22418,-0.66637 2.87728,-3.68594 5.89649,-6.71094 3.01922,-3.025 6.59951,-7.1738 7.95508,-9.21875 1.35557,-2.04494 3.29039,-3.98009 4.30078,-4.30078 1.0104,-0.32068 2.11233,-1.45027 2.44922,-2.51172 0.33689,-1.06144 6.692,-8.1263 14.12109,-15.69922 7.42909,-7.57292 14.84481,-15.79453 16.48047,-18.26953 1.63565,-2.475 5.60283,-6.525 8.8164,-9 3.21358,-2.475 6.56814,-5.97344 7.45313,-7.77344 0.88499,-1.79999 2.73534,-3.70072 4.11328,-4.22461 1.37793,-0.52389 2.50586,-1.42602 2.50586,-2.0039 0,-0.57788 6.75,-7.88007 15,-16.22852 8.25,-8.34844 15,-15.98733 15,-16.97461 0,-0.98729 0.38449,-1.79492 0.85352,-1.79492 0.84035,0 13.63581,-11.41174 17.60742,-15.70312 1.12148,-1.21178 3.73675,-4.36179 5.8125,-7 2.07574,-2.63824 5.04724,-6.37188 6.60351,-8.29688 6.62108,-8.18983 12.67699,-20.83006 13.88086,-28.97461 0.28242,-1.9106 1.40456,-4.6786 2.49414,-6.15234 1.08959,-1.47374 2.3534,-4.41169 2.8086,-6.52735 2.22391,-10.33632 3.90858,-17.13388 4.875,-19.67578 1.25955,-3.31286 1.43695,-19.32178 0.22265,-20.07226 -0.46262,-0.28591 -0.93684,-3.49853 -1.05468,-7.13868 -0.11785,-3.64016 -1.31368,-10.41303 -2.65821,-15.05273 C 729.10078,214.76643 728,210.0887 728,209.01172 c 0,-1.87382 -2.47298,-8.11855 -5.74805,-14.51172 -7.99024,-15.59748 -10.74847,-19.6482 -20.07812,-29.5 -5.46892,-5.775 -13.83707,-14.775 -18.59766,-20 -4.76059,-5.225 -9.29452,-10.175 -10.07422,-11 -0.7797,-0.825 -6.90487,-7.575 -13.61133,-15 -15.80699,-17.50059 -30.79248,-33.711647 -38.66992,-41.833984 -3.45311,-3.56046 -8.40311,-9.167287 -11,-12.458985 C 607.62381,61.415334 600.6625,53.736048 594.75,47.642578 588.8375,41.549107 584,35.982444 584,35.271484 584,33.864975 558.66479,8 557.28711,8 c -0.46347,0 -1.61284,-0.9 -2.55469,-2 -0.94185,-1.1 -2.5649,-2 -3.60742,-2 -1.04251,0 -3.1844,-0.672529 -4.75977,-1.4941406 -1.53265,-0.7993341 -3.42158,-1.2946879 -5.08007,-1.4375 z M 47,5 c 0.55,0 1,0.675 1,1.5 C 48,7.325 47.55,8 47,8 46.45,8 46,7.325 46,6.5 46,5.675 46.45,5 47,5 Z m 87.27539,4.1894531 c 2.154,-0.054346 4.35295,0.1670939 5.22461,0.6992188 1.03834,0.6338841 34.80382,0.9024141 127.16602,1.0097661 l 54.16601,0.0625 0.57813,2.769531 c 0.31782,1.523036 0.58003,4.119531 0.58203,5.769531 0.006,5.574183 -2.60456,22.985513 -3.74805,25 -0.62439,1.1 -1.38926,3.600796 -1.69922,5.556641 -0.30996,1.955844 -1.45961,5.312988 -2.55469,7.460937 -1.09509,2.147948 -1.99309,4.372151 -1.99609,4.94336 -0.003,0.571207 -0.63648,2.247204 -1.40625,3.722656 -0.76977,1.475452 -1.71097,4.175452 -2.0918,6 -0.38083,1.824548 -1.29347,4.269158 -2.02929,5.433594 -0.73582,1.164435 -1.47966,4.085678 -1.65235,6.492187 l -0.31445,4.375 -4.8125,0.683594 c -2.64698,0.375893 -5.89368,1.392151 -7.21484,2.257812 C 291.15149,92.291443 289.11744,93 287.95312,93 c -1.16431,0 -4.80338,1.575 -8.08789,3.5 -3.28451,1.925 -6.50992,3.50928 -7.16796,3.52148 -0.65803,0.0122 -2.32227,0.90298 -3.69727,1.97852 -1.375,1.07554 -3.146,1.96629 -3.93555,1.97852 -0.78955,0.0122 -2.36455,0.85491 -3.5,1.87304 -2.99544,2.68595 -11.15768,5.34045 -18.06445,5.875 -6.98016,0.54024 -8.5,1.48691 -8.5,5.29688 0,2.1222 0.8369,3.27253 3.54297,4.86914 1.9488,1.14983 4.715,2.38487 6.14648,2.74414 1.43148,0.35928 4.97465,3.00554 7.87305,5.88086 3.57918,3.55069 6.4018,5.44057 8.80078,5.89062 1.94268,0.36445 5.35175,2.10901 7.57617,3.87696 2.22442,1.76796 5.36361,4.23302 6.97461,5.47656 4.61113,3.55936 17.76983,5.68536 25.58594,4.13476 1.85429,-0.36786 2.05098,0.31328 2.69531,9.34961 0.69475,9.74331 2.86091,17.79785 7.86719,29.25391 0.72105,1.65 1.45594,4.35 1.63281,6 0.17688,1.65 1.27437,5.475 2.43946,8.5 3.17375,8.24027 4.45776,11.89165 6.50585,18.5 2.62379,8.46585 7.32526,12.77299 10.09766,9.25 0.54103,-0.6875 1.25837,-3.05 1.59375,-5.25 1.14327,-7.49949 6.33845,-22.54891 11.21875,-32.5 0.67434,-1.375 1.77159,-5.2 2.43945,-8.5 0.66785,-3.3 1.57296,-6.9 2.00977,-8 0.4368,-1.1 1.80013,-4.4752 3.03125,-7.5 1.23111,-3.02481 2.46704,-8.34392 2.74609,-11.82031 0.41628,-5.186 0.92217,-6.59223 2.82032,-7.83594 1.27241,-0.83371 2.71482,-1.26858 3.20312,-0.9668 2.15438,1.33148 14.99437,-3.72813 20.4375,-8.05273 1.50611,-1.19662 5.19739,-2.88988 8.20313,-3.76367 3.00574,-0.8738 6.04858,-2.41979 6.76171,-3.43555 1.56278,-2.22592 12.48445,-7.88066 16.17579,-8.375 2.51116,-0.33629 12.63777,-7.25116 12.60547,-8.60742 -0.0563,-2.36078 -7.19309,-6.65939 -9.55274,-5.75391 C 413.21702,111.62224 384.86856,99.960891 378,94.580078 375.51618,92.634259 364.77242,88.619716 360.5,88.041016 L 356.5,87.5 355.86328,80 c -0.79176,-9.323765 -1.45832,-11.372582 -7.22851,-22.207031 -2.55052,-4.78901 -5.27009,-11.08901 -6.04297,-14 -1.46402,-5.514157 -2.22759,-7.927965 -3.57227,-11.292969 -2.9309,-7.334465 -4.72361,-19.447455 -3.0332,-20.492188 0.68533,-0.423557 25.60517,-0.622105 55.3789,-0.443359 29.77373,0.178746 73.93477,0.397278 98.13477,0.486328 28.07014,0.103288 44.45255,0.52943 45.25,1.177735 1.44695,1.176339 1.72727,12.852828 0.37305,15.535156 -0.48217,0.955037 -2.0644,5.786328 -3.51758,10.736328 -4.78009,16.282585 -11.63051,35.621166 -13.35352,37.697266 -0.64168,0.773173 -1.70513,4.667108 -2.36328,8.652343 -1.3645,8.262369 -1.76274,8.63099 -10.38867,9.669922 -6.41558,0.77271 -12.49025,3.007842 -27.32031,10.052739 C 473.05398,108.0072 468.30765,110 467.63086,110 c -0.67679,0 -1.65914,0.39956 -2.18164,0.88867 C 464.04428,112.20382 453.6546,115 450.17188,115 c -5.40779,0 -11.68158,7.33157 -8.14454,9.51758 0.56545,0.34946 2.26255,0.79145 3.77149,0.98242 2.97373,0.37635 15.20117,8.08364 15.20117,9.58203 0,0.50449 0.5625,0.92725 1.25,0.93945 0.6875,0.0122 2.375,0.90298 3.75,1.97852 1.375,1.07554 3.20681,1.96632 4.07031,1.97852 0.8635,0.0122 3.3385,1.51149 5.5,3.33203 5.9651,5.02415 14.08421,7.4703 27.42969,8.26562 6.325,0.37694 12.0625,1.13239 12.75,1.67774 0.6875,0.54536 1.25,2.4342 1.25,4.19921 0,3.56962 3.17571,14.88774 5.90625,21.04688 1.53716,3.46727 6.51172,18.8087 9.07813,28 0.46069,1.65 1.14414,5.66384 1.51953,8.91992 0.53358,4.62826 1.29938,6.53765 3.51171,8.75 1.55643,1.55642 3.6534,2.80579 4.65821,2.77539 2.51387,-0.0761 5.89753,-4.71221 6.57617,-9.00781 0.30954,-1.95931 1.44813,-5.55931 2.5293,-8 6.17489,-13.93961 8.02212,-18.94269 8.65429,-23.4375 0.38677,-2.75 1.55866,-6.8 2.60352,-9 1.04485,-2.2 2.37752,-7.375 2.96094,-11.5 0.58341,-4.125 1.57641,-8.93518 2.20898,-10.68945 1.09336,-3.03216 1.47601,-3.22376 7.72266,-3.86524 4.15736,-0.42692 7.30493,-1.33804 8.57031,-2.48047 1.1,-0.99312 4.025,-2.6025 6.5,-3.57617 2.475,-0.97367 7.98374,-4.15781 12.24219,-7.07812 4.25845,-2.92031 8.16372,-5.31055 8.67773,-5.31055 0.51401,0 2.21739,-1.557 3.78516,-3.45898 1.56777,-1.90197 4.41248,-4.08475 6.32226,-4.85157 1.90977,-0.76682 4.37266,-1.76033 5.47266,-2.20898 1.1,-0.44866 3.8605,-0.90657 6.13477,-1.01758 4.93578,-0.24091 6.36523,-0.98882 6.36523,-3.33008 0,-3.48178 -2.60576,-5.48029 -8.12109,-6.22851 -6.28373,-0.85246 -6.84818,-0.99919 -14.87891,-3.83985 -1.925,-0.68092 -5.92129,-1.90336 -8.88086,-2.71679 -2.95956,-0.81344 -7.68456,-2.75854 -10.5,-4.32227 -6.91871,-3.842724 -17.21897,-7.82396 -23.06445,-8.916015 -5.15065,-0.962246 -6.85176,-2.487064 -6.12696,-5.492187 0.24975,-1.035476 0.0482,-5.436784 -0.44726,-9.78125 C 566.08418,68.977362 565.8052,68.253252 554.08789,43.5 c -1.0414,-2.2 -2.66614,-5.575 -3.60937,-7.5 -2.19305,-4.475722 -4.39816,-14.278747 -4.44336,-19.75 -0.031,-3.754181 0.22733,-4.249534 2.21484,-4.240234 1.45058,0.0068 3.84884,1.838979 6.75,5.154296 6.70148,7.658156 9.84241,10.834197 10.7168,10.841797 0.43103,0.0038 1.85372,1.578758 3.16211,3.5 1.3084,1.921242 2.9896,3.494141 3.73632,3.494141 0.74672,0 1.98875,1.510167 2.75977,3.355469 0.77101,1.845302 3.0273,4.980433 5.01367,6.966797 1.98636,1.986365 3.61133,3.862916 3.61133,4.171875 0,0.575638 3.25031,4.244725 10.75,12.130859 2.3375,2.457947 4.25,4.866187 4.25,5.353516 0,0.48733 0.81308,1.145592 1.80664,1.460937 0.99357,0.315346 5.11575,4.282188 9.16016,8.816406 13.20032,14.798948 25.44881,27.982531 29.7832,32.056641 2.3375,2.19714 4.25,4.44241 4.25,4.98828 0,0.54588 1.9125,3.08402 4.25,5.64063 7.60605,8.31902 11.75,13.20857 11.75,13.86523 0,0.35409 2.83939,3.35438 6.30859,6.66797 5.78509,5.5256 8.73788,8.72737 22.49024,24.37305 2.58538,2.94132 7.15909,7.89132 10.16406,11 6.22401,6.43881 10.63181,12.53123 14.03711,19.40234 1.29474,2.6125 2.68702,4.75 3.09375,4.75 0.69854,0 2.40753,5.19734 6.82227,20.75 1.05382,3.7125 2.1887,9.38513 2.52148,12.60547 0.33278,3.22033 1.04559,6.67758 1.58398,7.68359 1.15365,2.1556 1.30484,8.30259 0.23047,9.37696 -0.41183,0.41182 -0.80675,2.17367 -0.87695,3.91601 -0.33579,8.3294 -2.2974,19.71938 -3.75391,21.79883 -0.89172,1.27312 -1.63559,3.22667 -1.65429,4.3418 -0.0187,1.11512 -0.90412,3.82734 -1.9668,6.02734 -1.06268,2.2 -1.94814,4.56628 -1.9668,5.25781 -0.0187,0.69153 -1.21133,3.61653 -2.65234,6.5 -1.44101,2.88347 -3.57851,7.26719 -4.75,9.74219 -1.17149,2.475 -3.81836,6.58734 -5.88086,9.13867 -2.0625,2.55133 -3.75928,5.25133 -3.77148,6 -0.0313,1.91886 -2.87913,5.13666 -6.97852,7.88672 -3.90586,2.62024 -12.27131,10.93187 -14.63867,14.54492 -0.84731,1.29316 -2.28787,2.61031 -3.20117,2.92578 -0.9133,0.31546 -3.46016,2.86488 -5.66016,5.66602 -2.2,2.80115 -6.31224,7.45104 -9.13867,10.33203 -2.82643,2.88099 -5.97439,6.53474 -6.9961,8.12109 -1.85413,2.87878 -2.98413,3.98613 -9.11523,8.9375 -1.7875,1.44356 -3.25,3.05911 -3.25,3.58985 0,0.53073 -3.12613,4.20424 -6.94727,8.16211 -18.24807,18.90106 -23.76698,24.68008 -29.30859,30.69531 -3.29351,3.575 -9.30731,9.95141 -13.36523,14.16992 -4.05792,4.2185 -7.37891,8.04319 -7.37891,8.5 0,0.4568 -3.375,4.38574 -7.5,8.73047 -4.125,4.34473 -7.5,8.25794 -7.5,8.69531 0,1.89143 -27.20653,27.96531 -30.72656,29.44727 -3.10852,1.30872 -8.00009,1.5779 -27.77344,1.5293 -13.2,-0.0324 -35.25,0.0775 -49,0.24609 -13.75,0.16854 -28.15,-0.0583 -32,-0.50586 -3.85,-0.44753 -8.125,-0.81636 -9.5,-0.81836 -32.85425,-0.058 -93.74168,0.0367 -107,0.16602 -9.625,0.0938 -22,0.1378 -27.5,0.0976 -17.9272,-0.13074 -25.93869,-0.16751 -29.5,-0.13281 -1.925,0.0187 -23.075,-0.33783 -47,-0.79297 -39.90044,-0.75906 -59.25786,-0.8165 -139,-0.41406 -15.125,0.0763 -35.15,0.004 -44.5,-0.16016 l -17,-0.29883 0.2617188,-94.97851 C 9.0757362,283.6418 9.0617294,290.73794 9.0683594,248.5 9.071295,229.8 9.1620562,201 9.2695312,184.5 9.3770065,168 9.342986,152.025 9.1953125,149 9.0476391,145.975 9.2197831,132.925 9.5761719,120 10.37713,90.952001 10.351976,92.852942 10.097656,79 c -0.2594219,-14.130794 0.803491,-62.689822 1.4375,-65.667969 0.413498,-1.94233 1.215796,-2.202434 7.712891,-2.5 C 23.236405,10.649365 31.225,10.776756 37,11.115234 c 7.870309,0.461286 11.039362,0.282233 12.65625,-0.71289 1.6903,-1.0403047 8.767863,-1.2815161 32.701172,-1.1152346 18.762178,0.130354 30.915988,0.59861 31.509768,1.2128906 2.20363,2.279723 -3.38099,26.017008 -8.23438,35 -0.89147,1.65 -1.62395,3.506798 -1.62695,4.126953 C 104.00247,50.247109 103.325,51.315311 102.5,52 c -0.825,0.684689 -1.5,2.512304 -1.5,4.0625 0,1.550196 -0.45,3.097581 -1,3.4375 -0.55,0.339919 -1,1.506859 -1,2.59375 0,1.086892 -0.747012,3.116132 -1.660156,4.509766 -0.913144,1.393634 -2.019246,4.810028 -2.458985,7.591796 -0.439738,2.781769 -1.488337,5.81814 -2.328125,6.746094 -0.839787,0.927955 -4.948046,2.494369 -9.130859,3.480469 -4.182814,0.9861 -8.801656,2.416883 -10.263672,3.179687 -1.462017,0.762805 -3.013722,1.389179 -3.449219,1.392579 -0.435498,0.0034 -1.740008,0.889509 -2.898437,1.96875 C 64.414149,93.195476 41.1365,105 39.130859,105 c -0.723875,0 -2.458998,0.9 -3.857421,2 -1.398426,1.1 -3.366441,2 -4.373047,2 -2.828145,0 -11.197766,3.02952 -13.150391,4.75977 -2.180842,1.93248 -2.279265,5.82263 -0.167969,6.63281 0.869984,0.33385 3.105462,0.60742 4.96875,0.60742 1.863288,0 4.990761,0.9 6.949219,2 1.958458,1.1 4.184828,2 4.947266,2 0.762438,0 1.535416,0.35574 1.71875,0.79102 0.587706,1.39536 7.472126,6.20733 8.927734,6.24023 0.773085,0.0175 2.98125,1.63218 4.90625,3.58789 4.938342,5.01712 18.972737,11.09618 22.496094,9.74414 0.715962,-0.27474 1.597845,-0.0191 1.960937,0.56836 0.363093,0.58749 1.658744,1.06836 2.878907,1.06836 1.220161,0 3.255603,0.72721 4.523437,1.61523 1.635056,1.14524 3.426325,1.43552 6.162109,0.99805 4.32163,-0.69106 4.939185,-0.14878 5.566407,4.9082 0.495158,3.99221 3.21483,12.46599 4.519531,14.08008 0.489427,0.60549 1.173759,3.17596 1.521484,5.71289 0.351526,2.56466 1.462724,5.3642 2.501954,6.30469 1.02799,0.93032 1.86914,2.2954 1.86914,3.03516 0,0.73975 0.8386,2.1843 1.86328,3.20898 1.67699,1.67699 4.86184,7.30029 8.00586,14.13672 0.63235,1.375 1.34437,5.425 1.58203,9 0.74536,11.21175 1.42049,14.23607 3.73633,16.70117 1.60266,1.70595 3.12066,2.30743 5.28125,2.09571 2.86181,-0.28044 3.06806,-0.59416 3.67969,-5.60547 0.35634,-2.91963 1.30979,-6.06963 2.11914,-7 0.80935,-0.93036 1.71141,-2.81641 2.00586,-4.19141 0.29445,-1.375 1.91609,-5.77435 3.60156,-9.77734 1.68547,-4.00298 3.37056,-9.59491 3.74609,-12.42578 0.39266,-2.96002 1.82666,-6.8793 3.375,-9.22266 3.02136,-4.57272 9.21072,-23.18705 8.89649,-26.75586 -0.53382,-6.06294 0.14932,-9.89324 1.85742,-10.42188 0.9625,-0.29789 2.47185,-0.92269 3.35352,-1.38671 0.88166,-0.46403 3.80666,-1.15472 6.5,-1.53516 2.69333,-0.38044 5.89317,-1.3186 7.11132,-2.08399 1.21815,-0.76537 3.19657,-1.39062 4.39649,-1.39062 2.27311,0 10.44232,-4.95221 17.48633,-10.59961 6.67278,-5.34977 15.58682,-10.07638 20.39062,-10.8125 4.51059,-0.69118 9.01172,-3.80838 9.01172,-6.24219 0,-1.61326 -2.36492,-2.12841 -12.12695,-2.63476 -5.6564,-0.29339 -8.56209,-0.97355 -11.25,-2.63477 C 196.6299,102.84434 195,102.15197 195,102.53711 c 0,0.38514 -1.46677,-0.41953 -3.25977,-1.78711 -1.79299,-1.367588 -4.62924,-2.786738 -6.30273,-3.154297 -1.67348,-0.367558 -5.23343,-1.775724 -7.91016,-3.130859 C 174.85061,93.109709 172.10037,92 171.41602,92 170.73166,92 167.54587,90.668092 164.33594,89.041016 161.12602,87.41394 156.25,85.718302 153.5,85.271484 l -5,-0.8125 -0.66406,-10.689453 C 147.3631,66.153283 146.61196,61.989306 145.2207,59.289062 140.82781,50.763075 139,46.137092 139,43.541016 c 0,-1.506637 -0.72048,-4.382504 -1.60156,-6.390625 -3.0316,-6.909505 -3.30233,-7.67013 -5.04102,-14.150391 -0.9592,-3.575 -2.33234,-7.09548 -3.05078,-7.822266 -1.67127,-1.690684 -1.66444,-3.635307 0.0176,-5.03125 0.6886,-0.5714895 2.79717,-0.9026853 4.95117,-0.9570309 z m -12.8125,4.8124999 c 0.96534,-0.04294 2.26107,3.381249 4.45508,10.248047 1.80124,5.6375 3.72451,11.6 4.27344,13.25 0.54892,1.65 1.42818,5.025 1.95507,7.5 0.52688,2.475 2.23051,7.2 3.78516,10.5 4.42873,9.400708 6.30405,15.502883 6.78125,22.064453 0.48432,6.659486 0.14617,7.216234 -5.71289,9.412109 -1.925,0.721458 -6.08871,3.272248 -9.25195,5.667969 C 124.58481,95.040252 121.58826,97 121.08789,97 120.04592,97 115,91.246601 115,90.058594 115,88.192256 107.22462,84 103.76367,84 c -2.68053,0 -3.7853,-0.494182 -4.228514,-1.890625 -0.569847,-1.795431 2.854774,-12.342801 5.617184,-17.298828 1.99979,-3.587798 8.51255,-21.190866 9.54883,-25.810547 0.30843,-1.375 1.15136,-3.182123 1.87305,-4.015625 0.72169,-0.833502 1.80894,-5.524717 2.41797,-10.425781 0.87023,-7.003099 1.50536,-10.513702 2.4707,-10.556641 z m 207.99219,15.701172 c 0.47718,0.111711 2.40122,5.511711 4.27539,12 1.87417,6.488288 4.00498,12.721269 4.73437,13.851563 2.99167,4.636015 9.46123,21.406695 10.0918,26.160156 0.54713,4.124433 0.32034,5.588494 -1.18945,7.660156 -1.02659,1.408655 -2.85105,2.57647 -4.05274,2.59375 -3.17097,0.04561 -6.4118,1.533121 -9.7207,4.460938 -3.63483,3.216205 -5.31301,3.090999 -9.09375,-0.675782 -2.73039,-2.720311 -6.13711,-4.636693 -9.14844,-5.146484 -3.34962,-0.567059 -4.06437,-2.511061 -3.06836,-8.353516 0.53943,-3.164208 1.29018,-5.978906 1.66797,-6.253906 1.20622,-0.878014 5.01642,-9.950009 8.82031,-21 0.852,-2.475 1.92791,-5.4 2.39063,-6.5 0.46272,-1.1 1.42203,-5.825 2.13281,-10.5 0.71078,-4.675 1.68297,-8.408587 2.16016,-8.296875 z m 212.17969,2.798828 c 0.24298,0.06796 0.5263,0.610149 1.01367,1.671875 0.58741,1.279674 2.03088,4.280446 3.20898,6.669922 1.17809,2.389475 2.14258,4.780417 2.14258,5.3125 0,0.879917 1.33319,4.021801 7.05664,16.621094 1.06853,2.352214 1.94336,4.790442 1.94336,5.419922 0,0.629479 0.77828,2.004694 1.72852,3.054687 1.3517,1.493611 1.7325,3.787358 1.75,10.542969 l 0.0215,8.634766 -3,0.884765 c -1.65,0.485904 -4.125,1.500044 -5.5,2.253906 -1.375,0.753862 -3.625,1.936067 -5,2.628907 -1.375,0.69284 -2.859,1.832169 -3.29883,2.53125 -1.00747,1.601314 -3.92973,1.644494 -5.49414,0.08008 C 536.58404,97.185627 528.01775,94.001 525.26953,94 c -3.20332,-0.0012 -3.87642,-3.943621 -1.79883,-10.548828 0.94245,-2.996279 2.12197,-5.699333 2.6211,-6.007813 0.49913,-0.30848 0.9082,-1.68288 0.9082,-3.052734 0,-1.369854 0.65787,-3.761497 1.46094,-5.314453 0.80306,-1.552956 1.23603,-3.045214 0.96289,-3.31836 -0.27314,-0.273144 0.86898,-3.130687 2.53906,-6.349609 C 533.63297,56.189282 535,52.102453 535,50.328125 c 0,-2.05511 0.90741,-4.203443 2.5,-5.921875 1.49022,-1.607973 2.52841,-3.952491 2.57031,-5.802734 0.0387,-1.707187 0.39322,-3.925014 0.78907,-4.929688 0.3284,-0.833562 0.5324,-1.239834 0.77539,-1.171875 z M 90.376953,90.677734 c 1.634171,-0.116922 1.933824,0.66583 2.990235,3.710938 0.78428,2.260695 2.022273,6.136328 2.751953,8.611328 1.497719,5.08011 7.085569,11.76309 10.566409,12.63672 2.22644,0.55881 3.28837,2.36328 1.39062,2.36328 -0.50781,0 -2.32666,1.18082 -4.04297,2.625 -3.41259,2.8715 -6.62058,8.50462 -8.441403,14.82031 -1.126336,3.90679 -1.332252,4.06302 -5.630859,4.26563 -2.453547,0.11564 -5.514441,-0.22275 -6.802735,-0.75196 -1.288295,-0.52925 -2.720437,-0.73035 -3.181641,-0.44531 -0.461201,0.28504 -1.08395,0.1215 -1.384765,-0.36523 -0.300814,-0.48672 -2.251775,-1.15728 -4.333985,-1.49024 C 68.996665,135.81691 58.42773,131.38921 53.371094,127.91016 51.044065,126.30912 48.744156,125 48.261719,125 c -0.83629,0 -12.311241,-5.60291 -15.076172,-7.36133 -1.052095,-0.6691 -0.966066,-1.22468 0.435547,-2.77344 0.963626,-1.0648 2.351323,-1.70618 3.082031,-1.42578 0.730707,0.2804 4.622394,-1.05384 8.648437,-2.96484 4.026044,-1.911 7.740366,-3.47461 8.25586,-3.47461 0.515495,0 3.398083,-1.61979 6.404297,-3.59961 6.072133,-3.998976 22.44735,-11.171024 28.208984,-12.355468 0.918794,-0.18888 1.611526,-0.328214 2.15625,-0.367188 z M 102.72461,92 c 4.80904,0 13.13133,11.45495 11.89648,16.375 -1.30994,5.21922 -6.18348,1.89378 -12.4414,-8.492188 C 99.083967,94.745007 99.273896,92 102.72461,92 Z m 49.54297,1.189453 c 2.47736,-0.20534 4.68288,0.337171 6.49219,1.597656 1.50699,1.049872 3.64023,2.171633 4.74023,2.494141 4.76151,1.396021 9.65151,3.46987 10.73242,4.55078 0.64234,0.64234 1.8643,1.20004 2.7168,1.24024 0.8525,0.0402 2.90078,0.93648 4.55078,1.99023 1.65,1.05374 3.675,2.18256 4.5,2.50977 9.27609,3.67911 11.61556,8.09927 5.91992,11.18554 -1.76821,0.95813 -4.61211,2.9072 -6.31836,4.33008 -4.4482,3.70946 -13.23463,7.72122 -19.48828,8.89844 -12.0178,2.26231 -16.37719,0.75437 -18.19531,-6.29297 -0.98513,-3.81858 -1.6107,-4.43501 -7,-6.88867 C 137.6629,117.3227 135,115.46225 135,114.66992 c 0,-0.79234 1.98548,-3.854 4.41211,-6.80469 2.42663,-2.95068 5.46735,-7.39023 6.75781,-9.86523 2.07201,-3.973937 2.78458,-4.535937 6.09766,-4.810547 z M 138.04883,95.09375 C 139.19925,94.937388 140,95.279877 140,96.183594 c 0,2.201695 -7.48158,12.639796 -10,13.951176 -1.375,0.71599 -2.725,1.41229 -3,1.54882 -0.98697,0.49 -4,-2.43466 -4,-3.88281 0,-1.81882 5.83058,-8.791638 7.37695,-8.822264 C 130.99446,98.966286 132.625,98.075541 134,97 c 1.3983,-1.09377 2.8984,-1.749888 4.04883,-1.90625 z m 162.30078,2.388672 c 2.33566,-0.262473 3.5625,1.468042 4.71875,5.884768 0.59516,2.27343 2.90015,6.81079 5.12305,10.08398 l 4.04101,5.95117 -3.36523,2.99805 c -3.34489,2.97796 -5.82246,8.75737 -5.85157,13.65039 C 304.99622,139.31241 303.28516,141 300,141 c -1.43,0 -3.02828,0.38214 -3.55078,0.84961 -1.28369,1.14847 -11.06495,-1.93227 -12.66992,-3.99023 -0.7033,-0.90182 -2.97038,-2.17535 -5.03711,-2.83008 -2.06672,-0.65474 -4.19048,-1.99731 -4.71875,-2.98438 -0.52826,-0.98707 -4.55386,-3.24268 -8.94727,-5.01367 -4.39341,-1.77099 -8.49305,-3.82769 -9.10937,-4.57031 -1.8878,-2.27466 -0.74862,-5.89156 2.0332,-6.45508 2.32323,-0.47062 11.01903,-4.52322 27.14648,-12.6543 3.65543,-1.84298 7.18621,-3.35156 7.84766,-3.35156 0.66145,0 2.73712,-0.727818 4.61133,-1.617188 1.06346,-0.504647 1.96559,-0.812899 2.74414,-0.90039 z m 57.29492,0.09961 c 0.95867,-0.367877 3.90482,0.403527 6.77539,1.773438 C 377.94604,105.81048 382.87707,108 383.89258,108 c 0.60887,0 2.00742,0.9 3.10742,2 1.1,1.1 3.14215,2 4.53906,2 1.39691,0 4.30476,0.9 6.46094,2 2.15618,1.1 4.83903,2 5.96094,2 1.39453,0 2.03906,0.6528 2.03906,2.06445 0,1.61556 -1.79517,2.88404 -8.25,5.82813 -12.1789,5.55489 -12.93499,5.92915 -16.75,8.28711 -1.925,1.1898 -5.94543,3.43646 -8.93359,4.99219 -7.30155,3.80142 -12.51066,3.82939 -14.40039,0.0781 -0.76194,-1.5125 -1.70096,-4.1 -2.0879,-5.75 -0.98029,-4.18034 -5.53863,-10.53327 -8.3125,-11.58789 -3.64492,-1.3858 -3.61276,-3.26372 0.11915,-7.2207 1.90287,-2.01763 4.60806,-6.09544 6.01171,-9.0625 1.40364,-2.96706 3.31502,-5.688841 4.24805,-6.046879 z M 344.41406,99 c 2.56768,0 2.94368,2.04265 0.77539,4.21094 -0.65444,0.65444 -1.18945,1.67978 -1.18945,2.27929 0,0.59952 -1.71506,2.98335 -3.81055,5.29883 -5.39039,5.95633 -7.89467,5.48281 -6.63086,-1.2539 C 334.35182,105.30688 340.85094,99 344.41406,99 Z m 225.07422,0 c 1.78309,0 4.31528,0.823359 5.62695,1.83008 1.31167,1.00671 4.564,2.42747 7.22657,3.15625 2.66257,0.72879 5.07169,1.93042 5.35547,2.66992 0.28377,0.7395 1.19466,1.34375 2.02343,1.34375 0.82878,0 3.14269,0.82656 5.14258,1.83789 9.10591,4.60482 11.64099,5.47861 19.88672,6.84375 5.36222,0.88775 3.47709,4.65484 -3.86523,7.72266 -1.94866,0.8142 -4.12488,2.18034 -4.83594,3.03711 -0.71106,0.85678 -1.66602,1.55859 -2.1211,1.55859 -0.45509,0 -2.92166,1.4625 -5.48046,3.25 -5.18877,3.62472 -5.0116,3.52238 -11.92969,6.85156 -2.74023,1.31868 -5.58376,2.96094 -6.32031,3.64844 -1.39115,1.29851 -10.36227,1.75297 -11.53125,0.58398 C 568.29935,142.96732 568,139.97473 568,136.68555 c 0,-5.42565 -0.34783,-6.40598 -3.75,-10.58203 -2.0625,-2.53164 -4.9875,-5.65697 -6.5,-6.94336 -1.5125,-1.2864 -2.75,-2.73684 -2.75,-3.22461 0,-0.48777 1.60601,-2.34712 3.56836,-4.13282 1.96235,-1.7857 4.49267,-5.39775 5.62305,-8.02539 C 566.0405,99.479028 566.57147,99 569.48828,99 Z m -253.25195,0.08203 c 1.62139,-0.189463 3.64207,1.344559 5.96289,4.552739 4.48036,6.19338 3.31512,8.17842 -2.99414,5.09961 -2.90478,-1.41748 -5.91495,-7.4249 -4.45313,-8.886724 0.44812,-0.448112 0.94391,-0.70247 1.48438,-0.765625 z m 241.38672,0.447266 c 0.4846,0.05698 0.77161,0.335876 0.96875,0.849613 0.6241,1.62637 -4.92822,10.15269 -7.17188,11.01367 C 547.4039,112.93367 546,111.90403 546,107.41602 546,102.44203 546.90712,101 550.04102,101 c 1.55535,0 3.99925,-0.44444 5.42968,-0.98828 0.98548,-0.374681 1.66774,-0.539402 2.15235,-0.482423 z m -43.94922,1.669923 c 1.18677,-0.0406 1.67927,0.59373 2.42773,2.43945 0.6381,1.57356 2.22637,4.94667 3.5293,7.4961 3.01486,5.89916 2.98623,8.97439 -0.125,13.67578 -1.69192,2.55665 -2.70492,5.84417 -3.15234,10.22851 -0.36263,3.55352 -1.15231,6.79123 -1.75586,7.19532 -1.1943,0.79956 -8.98094,1.04835 -9.71875,0.31054 -0.25005,-0.25004 -3.03234,-0.69297 -6.18164,-0.98437 -3.14929,-0.2914 -6.95612,-0.81963 -8.46094,-1.17383 -3.00415,-0.70711 -9.15989,-4.04402 -10.73633,-5.82031 -0.55,-0.61973 -3.925,-2.42452 -7.5,-4.00977 -14.56756,-6.45963 -15.51143,-9.621 -4,-13.40234 4.125,-1.35501 10.425,-3.93311 14,-5.72852 9.43815,-4.73997 16.81091,-7.51654 22.5,-8.47266 2.75,-0.46214 6.22423,-1.14068 7.7207,-1.50781 0.58511,-0.14354 1.05754,-0.23256 1.45313,-0.24609 z m 12.69922,0.40625 c 0.41521,0.0239 0.80359,0.17078 1.06836,0.43555 0.5271,0.5271 1.68516,0.95898 2.57226,0.95898 2.23054,0 6.98633,5.17776 6.98633,7.60547 0,1.0974 -0.53922,2.53531 -1.19922,3.19531 -2.5953,2.5953 -5.89607,0.38124 -9.48437,-6.35937 -2.0018,-3.76037 -2.23765,-4.87136 -1.16993,-5.53125 0.36924,-0.2282 0.81135,-0.32864 1.22657,-0.30469 z m -327.6543,8.44336 c 0.65466,-0.28004 1.03453,0.45617 1.72461,2.70117 0.49856,1.62194 0.28321,2.25 -0.76953,2.25 -1.86368,0 -3.05745,-3.01482 -1.72266,-4.34961 0.30091,-0.30091 0.54936,-0.50821 0.76758,-0.60156 z m 125.70117,10.64062 c 0.34217,-0.0865 0.59801,-0.0719 0.73828,0.0684 0.43426,0.43426 0.50197,2.56196 0.15039,4.72852 -0.47053,2.89951 -1.90226,5.20304 -5.42578,8.72656 -2.63284,2.63283 -5.6622,4.78711 -6.73047,4.78711 -1.68162,0 -1.83829,-0.4362 -1.17578,-3.25 0.42086,-1.7875 1.34272,-4.48127 2.04883,-5.98633 1.34296,-2.86249 7.99935,-8.46896 10.39453,-9.07422 z m -207.34765,0.8125 c 1.2193,-0.22365 1.92773,0.48013 1.92773,2.15039 0,3.16311 -4.1732,10.37774 -7.44727,12.875 -3.44833,2.63017 -7.56815,3.29892 -7.53125,1.22266 0.0122,-0.6875 0.90298,-2.375 1.97852,-3.75 1.07554,-1.375 1.96632,-3.0625 1.97852,-3.75 0.0122,-0.6875 1.85708,-3.0856 4.0996,-5.32812 2.04546,-2.04546 3.77484,-3.19628 4.99415,-3.41993 z M 130.86133,123 C 134.49226,123 141,129.74027 141,133.50195 c 0,1.94376 -0.49859,2.48244 -2.25,2.42774 -3.23506,-0.10105 -4.98728,-1.00303 -9.23438,-4.75781 -3.36924,-2.9787 -3.64921,-3.58353 -2.6621,-5.75 C 127.65214,123.6691 128.75823,123 130.86133,123 Z m 400.7832,0 c 3.05822,0 3.09346,2.61402 0.0957,7.11133 -1.24264,1.86425 -2.80794,4.62617 -3.47851,6.13867 -1.36506,3.07899 -2.45786,3.42438 -4.19922,1.32617 C 521.109,134.01742 526.83982,123 531.64453,123 Z m 15.03711,1.47461 c 4.18669,-0.54029 10.85591,3.03038 12.91016,7.35937 1.64295,3.46227 2.1324,9.18519 0.94922,11.09961 -0.95697,1.54842 -3.79956,1.15841 -5.59766,-0.76757 -0.8558,-0.91667 -3.73444,-3.64953 -6.39844,-6.07422 -5.52778,-5.03121 -6.8688,-9.31175 -3.48437,-11.12305 0.47607,-0.25478 1.02299,-0.41696 1.62109,-0.49414 z m -208.75195,0.49805 c 3.6892,-0.2648 10.07031,2.22036 10.07031,4.86132 0,0.98076 0.66124,2.65699 1.46875,3.72461 0.8075,1.06762 1.4825,2.95391 1.5,4.19141 0.0414,2.9313 -1.24312,2.75461 -8.41797,-1.1582 -4.47308,-2.4394 -6.14495,-3.96918 -6.74414,-6.16797 -0.43825,-1.60819 -0.58907,-3.48633 -0.33398,-4.17383 0.29528,-0.79582 1.22729,-1.18908 2.45703,-1.27734 z m -8.39063,11.03515 c 0.57103,-0.004 2.73196,2.01878 4.80274,4.4961 2.20687,2.64013 6.12183,5.67682 9.46093,7.33789 l 5.69727,2.83398 -0.32227,4.86524 c -0.17678,2.67573 -0.98796,6.4613 -1.80468,8.4121 C 344.73603,170.25184 341,181.988 341,183.97461 c 0,1.8496 -0.63284,3.70398 -3.64062,10.67578 -0.74771,1.73312 -1.35938,3.63496 -1.35938,4.22656 0,0.59159 -1.0125,3.56065 -2.25,6.59766 -1.2375,3.03702 -2.77533,5.52267 -3.41797,5.52344 -2.48334,0.003 -9.75354,-15.38244 -10.94141,-23.1543 -0.36516,-2.38913 -1.15426,-5.24375 -1.75195,-6.34375 -0.59769,-1.1 -1.90261,-5.15 -2.90039,-9 -0.99778,-3.85 -2.23595,-8.575 -2.75195,-10.5 -0.516,-1.925 -0.94979,-5.87414 -0.96289,-8.77539 -0.0227,-5.01996 0.11587,-5.30325 2.85742,-5.85156 1.58446,-0.31689 5.52196,-3.0019 8.75,-5.9668 3.22805,-2.96491 6.33717,-5.39444 6.9082,-5.39844 z M 537.10547,137 c 0.48872,0 4.20476,3.15 8.25781,7 6.3723,6.05306 7.86576,7 11.03516,7 4.5164,0 5.12945,1.35122 3.21875,7.08594 -0.80892,2.42788 -1.77636,6.66406 -2.15039,9.41406 -0.37404,2.75 -1.50157,6.43443 -2.50391,8.1875 -1.00233,1.75307 -2.12364,5.35307 -2.49219,8 -0.36856,2.64693 -2.425,8.44545 -4.57031,12.88672 C 545.75508,201.0155 544,205.178 544,205.82422 544,206.47045 543.56581,207 543.03516,207 541.8479,207 540,203.69089 540,201.56445 540,199.16041 534.16088,182.8489 532.66406,181.07227 530.3377,178.31103 524,157.2156 524,152.23242 c 0,-1.00144 2.46663,-3.8267 5.48047,-6.27734 3.01385,-2.45063 5.76165,-5.46758 6.10742,-6.70508 0.34578,-1.2375 1.02887,-2.25 1.51758,-2.25 z m -413.50195,0.58789 c 1.14216,0.23791 3.70215,1.7482 5.90039,3.60547 1.27052,1.07345 4.19733,1.80515 8,2 L 143.5,143.5 l -0.24023,7.7793 c -0.13166,4.27851 -0.85317,9.00351 -1.60547,10.5 -0.75229,1.49649 -1.65162,4.21058 -1.99805,6.03125 -0.34643,1.82066 -2.0161,6.30508 -3.71094,9.96679 -1.69485,3.66172 -3.34695,8.02379 -3.66992,9.69141 -0.32297,1.66761 -1.41733,4.59877 -2.43164,6.51563 -1.0143,1.91685 -1.84375,4.62908 -1.84375,6.02734 0,1.39827 -0.70046,3.54325 -1.55664,4.76562 -2.444,3.48929 -4.4425,2.72801 -4.44336,-1.69336 -9.5e-4,-4.82163 -10.07241,-26.93051 -13.49805,-29.63086 -0.73022,-0.57561 -2.09586,-3.72561 -3.03515,-7 -0.93928,-3.27438 -2.04106,-6.40312 -2.44727,-6.95312 -1.40983,-1.90888 -1.99756,-7.67427 -0.97656,-9.58203 0.56461,-1.05498 2.08083,-1.91797 3.36914,-1.91797 1.2883,0 2.82375,-0.58013 3.41211,-1.28906 0.58836,-0.70893 4.01907,-2.81647 7.62305,-4.6836 3.60399,-1.86712 6.55273,-3.76514 6.55273,-4.21875 0,-0.23771 0.2228,-0.3 0.60352,-0.2207 z m 207.53515,116.6543 c -0.76236,0.12458 -1.61743,0.49666 -2.56445,1.11719 -2.06785,1.35489 -2.40737,2.59402 -3.04492,11.09765 -0.85161,11.35895 -2.08474,16.24111 -6.91407,27.38086 C 316.627,298.42413 315,303.39741 315,304.88867 c 0,1.49127 -0.55221,3.26315 -1.22656,3.9375 -1.26015,1.26015 -3.20937,9.00891 -4.39063,17.45313 -0.36772,2.62856 -0.99266,4.97986 -1.38867,5.22461 -0.39601,0.24475 -3.53014,-0.0512 -6.96484,-0.65625 -8.29141,-1.4605 -13.09928,-0.0718 -29.14649,8.41211 -2.53919,1.34243 -5.67697,3.18231 -6.97265,4.08984 -1.29569,0.90753 -3.09949,1.65039 -4.00977,1.65039 -0.91028,0 -2.16877,0.61662 -2.79492,1.37109 -1.11813,1.34726 -3.63657,2.02366 -13.60547,3.64844 -2.75,0.44821 -6.6875,1.41238 -8.75,2.14258 -3.10476,1.0992 -3.75,1.80081 -3.75,4.08203 0,1.51542 0.5625,2.81261 1.25,2.88281 0.6875,0.0702 2.16854,0.22932 3.29102,0.35352 5.54272,0.61326 9.55777,3.07638 17.15234,10.51953 4.48936,4.39984 8.58321,8 9.0957,8 0.51249,0 2.57464,1.4625 4.58399,3.25 9.96244,8.86253 9.90281,8.83364 19.46484,9.45312 5.44713,0.35292 10.14503,0.149 12.06836,-0.52148 5.00989,-1.74646 6.09222,-0.7403 6.10742,5.67578 0.0153,6.43416 4.43654,20.35752 7.83789,24.68164 1.18153,1.50206 2.14844,3.19055 2.14844,3.75196 0,0.56141 1.125,2.4961 2.5,4.29882 1.375,1.80272 2.5,3.73656 2.5,4.29883 0,0.56227 1.125,2.68085 2.5,4.70703 1.375,2.02617 2.5,4.45188 2.5,5.39063 0,0.93875 0.72776,3.16434 1.61719,4.94726 1.16597,2.33724 1.43924,4.58075 0.98047,8.03907 -0.34995,2.63811 -0.17665,6.00385 0.38476,7.48046 2.50111,6.57842 8.99999,-0.56954 9.53516,-10.48828 0.15682,-2.9063 1.07055,-5.9837 2.28515,-7.68945 1.11361,-1.56392 2.34027,-4.51965 2.72461,-6.56836 0.38434,-2.04872 1.54805,-4.80358 2.58594,-6.12305 1.0379,-1.31947 1.88672,-3.15537 1.88672,-4.07812 0,-0.92275 1.575,-4.87377 3.5,-8.78125 1.925,-3.90749 3.5,-7.60839 3.5,-8.22461 0,-0.61622 1.14636,-4.01876 2.54688,-7.56055 1.40053,-3.54178 2.68918,-8.81495 2.86328,-11.71875 0.17411,-2.90379 0.55483,-5.51968 0.84765,-5.8125 0.29282,-0.29282 2.71667,-0.68181 5.38672,-0.86523 9.02956,-0.62031 14.65173,-2.5258 23.27735,-7.88672 4.72793,-2.93847 10.39077,-5.90677 12.58593,-6.59766 5.04775,-1.5887 16.43852,-7.00862 18.74219,-8.91797 2.09336,-1.73502 2.21335,-4.94367 0.28125,-7.49414 -1.04346,-1.37742 -3.53963,-2.09184 -9.7168,-2.77929 -10.52146,-1.17092 -26.31375,-6.62956 -28.25195,-9.76563 -0.3152,-0.51 -2.40335,-1.23725 -4.64062,-1.61523 -4.48195,-0.75722 -12.1618,-3.35893 -15.68946,-5.31641 -2.09654,-1.16336 -2.22797,-1.76331 -1.75,-7.96484 0.59875,-7.76854 -1.84572,-17.22847 -6.29883,-24.36914 -1.48721,-2.38477 -3.26431,-5.23594 -3.94726,-6.33594 -0.68296,-1.1 -1.72163,-3.12406 -2.3086,-4.49805 -0.58697,-1.37399 -1.6539,-3.17399 -2.37109,-4 C 344.83946,287.17594 343.68907,284.7 343,282.5 c -0.68907,-2.2 -1.78642,-4.675 -2.4375,-5.5 -1.50877,-1.9118 -4.23459,-11.1003 -5.10742,-17.2168 -0.57939,-4.06023 -2.02931,-5.91475 -4.31641,-5.54101 z m -209.76562,1.72656 c -2.92905,-0.48486 -5.37272,3.26269 -6.03907,10.08008 -0.52708,5.39264 -1.34459,7.41762 -5.47656,13.56836 -2.67136,3.97653 -4.85742,7.49337 -4.85742,7.8164 0,0.32302 -0.98136,2.67699 -2.18164,5.23047 -3.574813,7.60508 -9.971983,26.51803 -10.515626,31.0918 -0.535559,4.50574 -1.253347,4.97649 -7.671875,5.02539 -2.746691,0.021 -4.524631,0.66059 -16.410156,5.89453 -2.9038,1.27873 -5.724901,2.32422 -6.269531,2.32422 -0.54463,0 -2.849748,1.2375 -5.121094,2.75 -13.857248,9.22761 -18.214825,11.15147 -26.890625,11.875 -6.235914,0.52006 -8.239588,1.06903 -8.982422,2.45703 C 18.70571,358.28866 21.182448,362 26.242188,362 c 1.704906,0 3.81138,0.64017 4.679687,1.42188 0.868308,0.78167 2.214974,1.56918 2.994141,1.75 1.446383,0.33564 1.892367,0.65173 8.216796,5.8457 1.997609,1.64055 4.022608,2.9917 4.5,3.0039 C 47.110205,374.03371 48.625,374.92446 50,376 c 1.375,1.07554 3.179567,1.96629 4.009766,1.97852 0.830199,0.0122 2.042783,0.87701 2.695312,1.92187 1.171766,1.8763 1.972677,2.37362 11.794922,7.3457 8.091283,4.09586 11.53148,5.13534 16.746094,5.05664 4.477937,-0.0675 5.094402,0.20965 6.833984,3.0625 1.051636,1.72465 1.928006,3.80977 1.947266,4.63477 0.01926,0.825 1.141369,3.75 2.49414,6.5 1.352772,2.75 2.497739,5.9 2.542969,7 0.04523,1.1 0.953847,3.35 2.019527,5 2.65366,4.10868 7.90827,15.17008 7.94727,16.72852 0.0175,0.69958 0.6925,2.14527 1.5,3.21289 0.80751,1.06762 1.48782,3.76762 1.51172,6 0.0239,2.23238 0.47395,5.97109 1,8.30859 0.52605,2.3375 1.346,6.04247 1.82031,8.23242 0.47431,2.18994 1.42805,4.66494 2.1211,5.5 1.78701,2.15324 6.3765,1.87963 8.5371,-0.50781 1.40498,-1.55248 1.87171,-3.82674 1.99805,-9.75 0.14955,-7.01144 3.04915,-18.33824 5.56055,-21.72461 0.4079,-0.55 1.05379,-2.67194 1.43554,-4.71484 0.38177,-2.04291 1.32238,-4.23416 2.08985,-4.8711 0.76746,-0.63694 1.39453,-1.79304 1.39453,-2.56836 0,-0.77532 0.75017,-3.08211 1.66797,-5.12695 2.07154,-4.61535 4.17764,-13.57238 4.2832,-18.21875 0.0437,-1.925 0.49094,-4.14994 0.99414,-4.94531 0.56506,-0.89314 0.52432,-2.17701 -0.10742,-3.35742 -1.63887,-3.06225 0.40264,-4.04542 9.91602,-4.77344 8.18852,-0.62664 13.32243,-1.97076 20.89648,-5.46875 1.73312,-0.80042 3.59188,-1.45508 4.12891,-1.45508 0.53704,0 1.53601,-0.675 2.2207,-1.5 0.68469,-0.825 2.03469,-1.5 3,-1.5 0.96531,0 2.29302,-0.64838 2.95117,-1.44141 0.65816,-0.79302 4.65136,-3.06999 8.87305,-5.05859 4.22169,-1.98859 8.45707,-4.03826 9.41211,-4.55664 0.95504,-0.51838 3.08559,-0.94336 4.73437,-0.94336 1.91271,0 4.17998,-1.066 6.26368,-2.94531 3.16363,-2.85333 3.21699,-3.03318 1.73046,-5.75 -1.39183,-2.54375 -2.27526,-2.89768 -9.5,-3.80469 -4.38101,-0.55 -9.08984,-1.75185 -10.46484,-2.66992 -1.375,-0.91806 -4.525,-2.57038 -7,-3.67188 -10.20776,-4.54296 -11.73508,-5.31936 -17,-8.63867 -10.90691,-6.87634 -18.00435,-9.50347 -25.69336,-9.51367 -4.85537,-0.006 -7.30255,-2.5111 -7.31055,-7.47852 -0.004,-2.78123 -3.84938,-13.71462 -5.35156,-15.21679 -0.354,-0.354 -0.64453,-1.5389 -0.64453,-2.63282 0,-1.09391 -1.06488,-3.38634 -2.36719,-5.09375 -1.30231,-1.70742 -2.69793,-4.67424 -3.09961,-6.59375 -0.40168,-1.9195 -1.2938,-4.39023 -1.98437,-5.49023 -1.86392,-2.96902 -2.62475,-8.06678 -2.50977,-16.8418 0.0803,-6.12705 -0.27433,-8.25969 -1.62304,-9.75 -1.03605,-1.14481 -2.06662,-1.77783 -3.04297,-1.93945 z M 537.36523,256 c -3.11902,0 -4.03105,2.18831 -4.58593,11 -0.29486,4.68246 -1.28031,9.264 -2.625,12.19531 -1.18459,2.58232 -2.1543,5.11413 -2.1543,5.62696 0,0.51283 -0.62707,1.45485 -1.39453,2.09179 -0.76747,0.63694 -1.67624,2.65448 -2.01953,4.48438 -0.34329,1.8299 -1.51622,4.13339 -2.60547,5.11914 -1.08924,0.98575 -1.98047,2.51658 -1.98047,3.40234 0,0.88577 -1.14177,3.62921 -2.53711,6.0957 -4.7544,8.40418 -7.28976,14.64549 -7.94922,19.56836 -0.7014,5.23596 -2.3475,10.35005 -3.38476,10.51563 -0.34577,0.0552 -3.41726,0.2756 -6.82618,0.48828 -5.52522,0.34472 -19.38642,4.16377 -21.01171,5.78906 -0.34308,0.34309 -1.22942,0.62305 -1.96875,0.62305 -0.73932,0 -3.25248,0.86017 -5.58399,1.91211 -2.3315,1.05193 -6.03828,2.46111 -8.23828,3.13086 -2.2,0.66974 -4.45,1.55786 -5,1.97265 -1.51843,1.14522 -6.25632,1.95709 -13.96289,2.39454 -5.68974,0.32297 -7.28874,0.79893 -8.75,2.60351 -3.55055,4.38474 -1.42498,8.98633 4.15039,8.98633 1.13815,0 3.74841,0.9 5.80078,2 2.05236,1.1 4.2191,2 4.81445,2 0.59536,0 3.75284,2.50622 7.01563,5.57031 3.26279,3.06408 8.63164,6.89985 11.93164,8.52344 3.3,1.62358 8.6189,4.2988 11.82031,5.94531 7.10002,3.6516 10.53016,4.29932 22.42969,4.23242 7.91432,-0.0445 9.25466,0.18445 9.28516,1.5879 0.17148,7.88436 2.10862,21.97153 3.55468,25.85546 2.11783,5.68827 10.35353,20.28516 11.44532,20.28516 0.42091,0 1.3297,2.3625 2.01953,5.25 0.68984,2.8875 1.63108,5.925 2.09179,6.75 0.8116,1.45334 2.82669,9.21951 5.0586,19.5 0.59703,2.75 1.52493,5.5625 2.0625,6.25 2.9257,3.74163 4.75587,-0.73528 5.11523,-12.51367 0.18377,-6.02353 0.86213,-10.88021 1.7793,-12.73633 0.81532,-1.65 2.06797,-5.025 2.7832,-7.5 3.06213,-10.59634 4.37274,-14.67665 5.6211,-17.5 0.72956,-1.65 1.9987,-5.475 2.82031,-8.5 0.82161,-3.025 2.4027,-8.65 3.51367,-12.5 1.11098,-3.85 2.28358,-8.6875 2.60547,-10.75 0.53423,-3.42316 0.86112,-3.75 3.75976,-3.75 C 570.44971,392 580,389.75667 580,388.77344 580,388.34851 580.47241,388 581.04883,388 c 0.57642,0 3.61392,-1.65269 6.75,-3.67188 3.13608,-2.01916 8.85117,-5.19742 12.70117,-7.0625 3.85,-1.86507 7.77648,-3.80888 8.72461,-4.32031 0.94813,-0.51143 5.58935,-1.22664 10.31445,-1.58984 10.65717,-0.81917 18.77515,-4.43928 19.26953,-8.59375 0.33789,-2.83946 -0.26766,-3.17134 -7.80859,-4.27344 -6.49959,-0.94992 -16.02485,-3.37423 -19.5,-4.96289 -1.65,-0.75429 -4.35,-1.67874 -6,-2.05469 -6.31701,-1.43931 -15.1656,-4.91936 -19.11719,-7.51758 -4.19506,-2.75828 -13.66792,-5.78617 -21.48437,-6.86914 -0.33081,-0.0458 -0.87262,-3.91629 -1.20313,-8.5996 -0.3305,-4.68332 -1.24595,-9.74582 -2.03515,-11.25 -0.78919,-1.50419 -1.93302,-3.85938 -2.54102,-5.23438 -0.608,-1.375 -1.55896,-3.175 -2.11328,-4 -0.55432,-0.825 -1.45555,-2.625 -2.00391,-4 -0.54836,-1.375 -1.42735,-3.175 -1.95312,-4 C 550.74232,296.38073 545,283.46205 545,281.89258 c 0,-0.94968 -0.52169,-1.89916 -1.1582,-2.11133 -0.7294,-0.24314 -1.29729,-3.8794 -1.53907,-9.83398 C 541.86764,259.23185 540.72201,256 537.36523,256 Z m -206.03906,23.05469 c 0.62166,-0.49381 2.01296,1.0441 3.29297,3.94531 0.97064,2.2 2.11613,4 2.54492,4 0.42879,0 1.49661,2.46758 2.37305,5.48242 0.87644,3.01483 1.99747,5.73061 2.49023,6.03516 1.67431,1.03478 10.68441,20.96213 11.30469,25.00195 0.33948,2.21099 0.26036,5.36099 -0.17773,7 -0.72097,2.69736 -1.42705,3.12511 -7.4375,4.49805 -4.88105,1.11494 -7.52455,2.3734 -9.97657,4.75 -1.8347,1.77825 -3.53828,3.18666 -3.78711,3.13086 -0.57314,-0.12849 -11.94952,-5.64468 -13.95312,-6.76563 -2.37127,-1.32666 -2.48635,-10.24522 -0.19141,-14.82422 1.04985,-2.09473 2.17898,-6.19838 2.50977,-9.11914 0.33079,-2.92076 1.48901,-7.19576 2.57422,-9.5 1.08522,-2.30424 2.77061,-6.88945 3.74414,-10.18945 0.97353,-3.3 2.35071,-7.125 3.06055,-8.5 0.70984,-1.375 1.29387,-3.0625 1.29687,-3.75 0.003,-0.6411 0.12481,-1.03071 0.33203,-1.19531 z m -212.19336,2.25586 c 1.15655,-0.0261 1.96568,2.11038 2.79102,6.40234 1.23322,6.4131 2.95104,10.88875 6.82617,17.78711 2.06596,3.67775 5.40849,14.95233 5.60547,18.90625 0.12278,2.46426 -0.51231,3.25426 -4.17578,5.20313 -2.37587,1.26389 -5.96262,3.8933 -7.97071,5.84374 -2.00809,1.95045 -4.11365,3.54121 -4.67968,3.53321 -0.56604,-0.008 -4.32006,-1.80773 -8.3418,-4 -4.02175,-2.19226 -7.95925,-3.98633 -8.75,-3.98633 -2.118217,0 -1.781049,-5.6493 0.65625,-11 1.12739,-2.475 2.23914,-5.625 2.4707,-7 0.68297,-4.05555 4.83092,-15.58369 6.19532,-17.21875 0.69265,-0.83005 2.71765,-4.38209 4.5,-7.89453 2.21267,-4.36048 3.71649,-6.55009 4.87304,-6.57617 z m 417.19336,2.96484 c 0.49663,0.16554 1.74691,2.53472 2.77735,5.26367 1.03044,2.72895 2.50898,6.31094 3.2871,7.96094 0.77814,1.65 1.90597,4.125 2.50586,5.5 0.5999,1.375 2.42814,4.75 4.0625,7.5 5.53162,9.30756 7.26462,13.91881 7.78907,20.73047 0.40054,5.20222 0.20372,6.82138 -0.86524,7.13476 -0.76063,0.22298 -3.30182,0.92879 -5.64843,1.56641 -2.34664,0.63763 -5.78183,2.48809 -7.63282,4.11328 -1.85098,1.62519 -4.20697,2.94744 -5.23437,2.93946 -1.02739,-0.008 -4.29991,-2.24219 -7.27344,-4.9629 -4.12932,-3.77824 -6.43247,-5.10015 -9.75,-5.59765 C 517.4488,335.98971 516,335.27462 516,334.2793 c 0,-4.44448 3.56713,-16.62739 6.56445,-22.42188 1.88988,-3.65355 3.43555,-7.60504 3.43555,-8.78125 0,-1.17621 0.675,-2.39826 1.5,-2.71484 0.825,-0.31659 1.5,-0.97438 1.5,-1.46289 0,-1.96022 6.48455,-14.90359 7.32617,-14.62305 z m -389.12305,50.18945 c 0.713,0.0491 1.55572,0.28352 2.5586,0.68555 1.50598,0.60372 3.86328,1.54416 5.23828,2.08984 1.375,0.54569 3.28129,1.39113 4.23633,1.87696 0.95504,0.48583 2.21705,0.88281 2.80469,0.88281 0.58764,0 3.76438,1.82936 7.05859,4.06641 3.29421,2.23706 9.9072,5.90104 14.69531,8.14062 10.29904,4.81727 12.63862,6.56662 11.16211,8.3457 -0.91777,1.10586 -13.11721,7.32266 -18.45703,9.40625 -1.1,0.42922 -5.15,2.01681 -9,3.52735 -6.66798,2.61617 -16.85321,4.03603 -20.71875,2.88867 -0.94565,-0.28069 -3.137,-3.08753 -4.86914,-6.23828 -2.16273,-3.93401 -4.40167,-6.44875 -7.14453,-8.02734 l -3.99414,-2.29883 3.58594,-2.95508 c 4.2548,-3.50718 8.23766,-10.98767 9.17382,-17.23047 0.56581,-3.77305 1.53095,-5.30743 3.66992,-5.16016 z m -12.61328,1.5625 c 0.82249,0.16991 1.41016,1.14444 1.41016,2.84766 0,1.8061 -1.54894,4.96495 -4.16797,8.5 -3.27813,4.42469 -4.74584,5.625 -6.87695,5.625 -3.23142,0 -5.7822,-2.57267 -4.39649,-4.43359 0.5181,-0.69578 2.06641,-2.90104 3.44141,-4.90235 1.46531,-2.13274 3.33199,-3.64534 4.50977,-3.65234 1.1052,-0.007 2.57085,-0.91172 3.25781,-2.01172 0.94213,-1.5086 1.99978,-2.14256 2.82226,-1.97266 z m -45.953121,0.17383 C 90.738069,336.59862 92,337.96677 92,340.22461 c 0,3.84077 4.085866,13.33319 6.503906,15.10937 3.129704,2.29892 3.148014,3.96582 0.07813,6.875 -3.610927,3.42189 -6.837416,10.38501 -7.367187,15.89844 L 90.746094,383 h -4.814453 c -2.647565,0 -5.070999,-0.41615 -5.384766,-0.92383 -0.313766,-0.50769 -1.890686,-1.21165 -3.505859,-1.5664 C 74.387886,379.92705 71.511818,378.0631 64,372.0625 c -3.029275,-2.41984 -9.362491,-5.99903 -17.75,-10.0332 -8.144915,-3.9175 -8.106348,-5.12575 0.25,-7.97461 2.199565,-0.74988 6.186677,-2.86916 8.861328,-4.70899 2.674651,-1.83984 5.388348,-3.3457 6.029297,-3.3457 0.640949,0 3.767046,-1.35 6.947266,-3 3.180221,-1.65 6.225848,-3 6.769531,-3 0.543682,0 2.852168,-0.9 5.128906,-2 3.358465,-1.62264 6.299041,-2.19627 8.400391,-1.79883 z M 296,338.67383 c 9.09697,-0.21 13,0.72823 13,3.1289 0,2.24053 3.85058,13.29273 5.20312,14.9336 1.58565,1.92365 0.15426,4.2152 -3.61718,5.79101 -3.67024,1.53353 -3.78565,1.75767 -5.67383,10.97266 -1.4121,6.89154 -1.79837,7.50733 -5.03711,8.03516 -1.30666,0.21294 -3.5,0.59328 -4.875,0.8457 -3.45339,0.63396 -11.64408,-1.10914 -14.8457,-3.16016 -1.46035,-0.93553 -5.5793,-4.52358 -9.1543,-7.97461 -3.59576,-3.47106 -9.0591,-7.49657 -12.22656,-9.00976 -4.43705,-2.11971 -5.7312,-3.24274 -5.75,-4.98633 -0.0165,-1.53241 0.56829,-2.25 1.83008,-2.25 1.01896,0 9.00646,-3.63389 17.75,-8.07617 15.39601,-7.82216 16.133,-8.08232 23.39648,-8.25 z m 54.04297,2.52539 c 0.39255,0.0127 0.77086,0.21422 1.16211,0.60547 0.82719,0.82719 0.22159,2.27557 -2.31641,5.5332 -5.38946,6.91761 -8.97568,9.55617 -11.63867,8.56445 -5.53089,-2.05974 -0.51206,-10.83443 7.13086,-12.46679 1.715,-0.36629 3.7013,-1.13581 4.41211,-1.70899 0.45131,-0.3639 0.85744,-0.54008 1.25,-0.52734 z m -246.30274,0.32031 c 3.45164,-0.402 9.25977,4.89596 9.25977,9.20313 0,3.62791 -3.35879,2.79061 -7.91406,-1.97266 -4.55431,-4.76226 -4.66052,-5.02768 -2.65821,-6.68945 0.37306,-0.30962 0.81941,-0.48359 1.3125,-0.54102 z M 362.15625,344 c 2.04896,0 4.00769,0.45533 4.35156,1.01172 0.82752,1.33895 11.25342,7.98828 12.52539,7.98828 0.54678,0 1.77543,0.40043 2.73047,0.88867 7.42238,3.79458 13.10972,6.11133 15,6.11133 3.23166,0 2.77918,2.66792 -0.76367,4.5 -1.65,0.85325 -3,1.98951 -3,2.52539 0,0.53588 -0.7875,0.97747 -1.75,0.98047 -0.9625,0.003 -2.875,0.59821 -4.25,1.32226 -4.55267,2.39741 -7.47945,4.15572 -9.17773,5.51172 -0.92276,0.73678 -5.29683,1.58741 -9.72071,1.89063 -8.02888,0.55031 -8.0453,0.54682 -9.07226,-2.1543 C 358.46344,373.08786 358,371.51758 358,371.08789 358,369.10852 354.70474,364 353.42773,364 352.64301,364 352,363.62187 352,363.16016 c 0,-0.46172 -1.125,-1.35202 -2.5,-1.97852 -1.375,-0.62649 -2.5,-1.50306 -2.5,-1.94726 0,-0.44422 1.80782,-2.81641 4.01758,-5.27149 2.20976,-2.45507 4.78101,-5.70039 5.71484,-7.21289 1.36079,-2.20404 2.43806,-2.75 5.42383,-2.75 z M 504,344.17383 c 2.71159,0.2644 3.52682,0.89512 4.30273,3.32617 0.52662,1.65 1.53962,3.675 2.25,4.5 0.71038,0.825 1.60104,2.7375 1.97852,4.25 0.37747,1.5125 1.01393,2.75 1.41602,2.75 0.4021,0 1.24459,1.125 1.87109,2.5 0.62649,1.375 1.71543,2.5 2.41992,2.5 0.7045,0 1.84229,0.89992 2.5293,2 1.08289,1.734 0.87515,2.39071 -1.56055,4.93945 -1.54526,1.61696 -3.87622,5.21705 -5.17969,8 L 511.6582,384 l -8.58008,-0.0781 c -4.71847,-0.0434 -9.25312,-0.30242 -10.07812,-0.57422 -4.38972,-1.44619 -17.08779,-7.37554 -19.97266,-9.32618 -1.39014,-0.93996 -4.32734,-2.89488 -6.52734,-4.3457 -2.2,-1.45082 -5.3082,-3.77103 -6.90625,-5.15625 C 457.9957,363.13429 456.3082,362 455.84375,362 455.3793,362 455,361.37357 455,360.60742 455,359.15916 457.07511,358 459.66797,358 c 0.82707,0 4.27753,-1.31277 7.66797,-2.91797 11.75266,-5.56429 15.19845,-6.81199 22.16406,-8.01758 3.85,-0.66635 7.93394,-1.66313 9.07617,-2.21484 1.14224,-0.55171 3.58342,-0.85523 5.42383,-0.67578 z m 60.33398,0.3125 c 0.8794,0.0403 2.23554,0.54269 4.79883,1.54101 6.05113,2.35671 11.81546,4.91304 19.86719,8.81055 3.025,1.46428 5.95,2.70416 6.5,2.75586 0.55,0.0517 2.26614,0.61423 3.81445,1.25 1.5483,0.63576 3.1854,1.15625 3.63672,1.15625 0.45133,0 2.10823,0.67253 3.6836,1.49414 1.57537,0.82161 3.65273,1.497 4.61523,1.5 2.7772,0.01 2.03032,1.72688 -1,2.29883 -3.89554,0.73526 -9.38505,2.90964 -12.50977,4.95703 -1.46851,0.96221 -3.33459,1.75 -4.14648,1.75 -0.81189,0 -1.75909,0.45907 -2.10547,1.01953 -0.75743,1.22555 -8.9128,5.5178 -16.48828,8.67774 -6.07199,2.53279 -11.44871,2.97863 -12.68359,1.05273 -0.44082,-0.6875 -1.34103,-3.84585 -2,-7.01758 -0.65898,-3.17173 -2.12516,-6.94481 -3.25782,-8.38476 -2.55037,-3.24227 -2.57625,-4.76724 -0.15039,-8.73047 1.04969,-1.71491 2.4064,-4.91719 3.01563,-7.11719 0.60924,-2.2 1.72471,-4.80146 2.47656,-5.78125 0.65292,-0.85085 1.0542,-1.27274 1.93359,-1.23242 z M 319.83789,345 c 1.44245,0 8.16211,7.82247 8.16211,9.50195 0,2.1835 -5.68464,1.97408 -6.83398,-0.25195 -1.43042,-2.77043 -2.36066,-9.25 -1.32813,-9.25 z m 200.21094,1 C 525.37217,346 533,353.55276 533,358.82422 c 0,1.61204 -0.6633,3.48097 -1.47461,4.1543 -1.20845,1.00292 -1.97678,0.69072 -4.25,-1.72657 C 518.40772,351.82227 515.64796,346 520.04883,346 Z m 32.6582,2.07031 c 0.79804,0.15472 1.29297,0.63318 1.29297,1.5 0,2.11683 -5.52814,10.03394 -7.54688,10.8086 -3.6653,1.40651 -5.45467,0.70463 -5.42187,-2.12891 0.0175,-1.5125 0.68546,-3.61405 1.48437,-4.66992 2.67427,-3.53438 7.79729,-5.97391 10.19141,-5.50977 z M 447,359 c 0.55,0 1,0.45 1,1 0,0.55 -0.45,1 -1,1 -0.55,0 -1,-0.45 -1,-1 0,-0.55 0.45,-1 1,-1 z m -125.03516,5.58594 c 0.83832,0.0839 1.43208,0.39441 1.9961,0.95508 1.28033,1.27274 0.90895,2.03858 -3,6.17968 -2.45367,2.59939 -4.91094,5.06746 -5.46094,5.48633 -1.57126,1.19666 -2.35069,0.94118 -3.46484,-1.14062 -2.60124,-4.86047 0.19587,-9.65192 6.46484,-11.07227 1.54395,-0.34981 2.62653,-0.49206 3.46484,-0.4082 z m 15.97461,0.61133 c 0.35869,-0.0607 0.75414,0.10418 1.23438,0.48632 0.72942,0.58042 2.98065,1.35447 5.0039,1.71875 5.15249,0.92767 8.26541,3.62935 7.38282,6.41016 -0.88695,2.79451 -4.42065,2.8756 -7.65235,0.17578 -1.32463,-1.10661 -3.64612,-3.01911 -5.1582,-4.25 -1.98917,-1.61925 -2.49401,-2.63505 -1.82617,-3.67383 0.33424,-0.51988 0.65693,-0.80652 1.01562,-0.86718 z m -228.42773,0.1875 c 0.55244,-0.0801 1.06335,-0.0683 1.51367,0.0449 1.20084,0.30197 1.97461,1.32821 1.97461,3.26953 0,2.63826 -2.59948,6.59838 -7.47266,11.38281 -5.14782,5.05407 -9.375245,3.3605 -7.544918,-3.02148 1.739264,-6.06446 7.662208,-11.11491 11.529298,-11.67578 z m 433.44531,5.33593 c 2.29683,-0.60064 10.03674,2.9667 10.05664,4.63477 0.008,0.63003 0.28555,2.15703 0.61719,3.39453 0.50667,1.89063 0.22496,2.22771 -1.76367,2.11328 -5.03344,-0.28964 -6.89832,-1.09638 -8.84766,-3.83398 -2.54753,-3.57764 -2.56801,-5.65339 -0.0625,-6.3086 z M 133.44141,371 c 0.85746,0 1.55859,0.45 1.55859,1 0,0.55 -0.42387,1 -0.94141,1 -0.51754,0 -1.21867,-0.45 -1.55859,-1 -0.33992,-0.55 0.0839,-1 0.94141,-1 z m 394.78711,1 c 1.66698,0 0.61632,2.2576 -2.58008,5.54883 C 522.11242,381.18975 520,381.94674 520,379.57227 520,378.17334 526.70859,372 528.22852,372 Z m -406.47657,3 c 0.60094,0 2.61315,1.7768 4.47266,3.94922 3.03623,3.54715 6.73018,5.84698 10.65625,6.63476 2.7421,0.55021 3.11676,2.0645 1.72461,6.97071 -0.77185,2.72017 -1.68388,7.27073 -2.02735,10.11328 -0.34345,2.84254 -1.79022,8.24254 -3.21289,12 C 128.95953,426.30396 127,432.24344 127,433.95508 c 0,0.90462 -0.37475,2.0732 -0.83203,2.5957 -0.45728,0.5225 -1.35866,2.80783 -2.00391,5.08008 -1.31517,4.63138 -3.84575,7.53054 -4.56836,5.23242 -0.23566,-0.74944 -0.71166,-3.36673 -1.05664,-5.81445 -0.34498,-2.44771 -0.99291,-4.92271 -1.4414,-5.5 -0.44848,-0.57728 -1.11113,-2.62383 -1.47071,-4.54883 -0.35959,-1.925 -2.49706,-7.325 -4.75195,-12 -2.25489,-4.675 -5.17536,-10.72678 -6.48828,-13.44727 -1.31292,-2.72049 -2.40047,-5.64549 -2.41797,-6.5 -0.0175,-0.85451 -0.6925,-2.42652 -1.5,-3.49414 -1.669077,-2.20671 -2.023993,-7.01865 -0.44531,-6.04297 2.65783,1.64264 7.54346,-1.02978 13.94726,-7.62695 C 117.64878,378.09953 121.15101,375 121.75195,375 Z m 207.66797,0.11719 c 1.51278,-0.17381 2.8075,0.43846 3.57422,1.87109 0.58523,1.09351 2.28854,2.2897 3.78516,2.6582 1.49663,0.3685 3.6207,1.23037 4.7207,1.91602 1.1,0.68566 4.3625,1.5566 7.25,1.93555 4.09601,0.53756 5.25,1.07829 5.25,2.45898 0,3.77684 -2.03927,12.24032 -3.97266,16.48438 -1.11459,2.44667 -2.02734,5.33626 -2.02734,6.42187 0,1.0856 -0.65761,3.24957 -1.46094,4.80664 C 343.44719,419.6628 339,430.06412 339,431.30273 c 0,0.71353 -0.51641,1.81524 -1.14844,2.44727 -0.63204,0.63204 -1.42678,2.85295 -1.76562,4.9375 -0.38774,2.38544 -1.22462,3.90845 -2.25782,4.10742 -1.64364,0.31654 -3.4826,-1.47247 -2.51171,-2.44336 0.28376,-0.28376 -0.56732,-2.84144 -1.89063,-5.68359 -1.32331,-2.84215 -2.41101,-5.81265 -2.41601,-6.59961 -0.005,-0.78696 -2.45613,-5.06728 -5.44532,-9.51367 -6.78046,-10.08589 -9.06477,-15.3666 -10.44726,-24.14844 -1.22579,-7.78654 -1.17888,-7.86778 6.48437,-11.52734 2.25586,-1.07728 5.37796,-3.29213 6.9375,-4.91993 1.63717,-1.70883 3.36808,-2.66798 4.88086,-2.84179 z M 533.6543,379 c 0.71153,0 3.31797,2.025 5.79297,4.5 2.475,2.475 5.19213,4.5 6.03906,4.5 0.84694,0 2.3223,0.42267 3.27734,0.93945 0.95504,0.51678 2.97383,1.20083 4.48633,1.51953 2.52797,0.53267 2.75,0.9586 2.75,5.28125 0,4.25805 -4.79822,22.22906 -7.07422,26.4961 -0.5094,0.95504 -0.92578,2.62801 -0.92578,3.71679 0,1.08882 -0.65967,3.45752 -1.46484,5.26368 -0.80516,1.80616 -1.95958,5.86271 -2.56641,9.01562 -0.60684,3.15291 -1.52216,5.99155 -2.03516,6.3086 -0.513,0.31705 -0.93359,2.12503 -0.93359,4.01757 0,2.77431 -0.38749,3.44141 -2,3.44141 -1.43842,0 -2,-0.6674 -2,-2.375 0,-3.4431 -2.35371,-9.71282 -8.11523,-21.625 -2.79317,-5.775 -6.14257,-12.75 -7.44336,-15.5 -2.82656,-5.97566 -4.94548,-20.68966 -3.39649,-23.58398 0.56384,-1.05354 2.2471,-2.688 3.74024,-3.63086 1.49315,-0.94286 4.48303,-3.19286 6.64453,-5 C 530.59119,380.47802 532.94278,379 533.6543,379 Z" />
  </g>
</svg>
