<?xml version="1.0" encoding="UTF-8" standalone="no"?>
<!-- Created with Inkscape (http://www.inkscape.org/) -->

<svg
   version="1.1"
   id="svg1"
   width="733"
   height="511"
   viewBox="0 0 733 511"
   sodipodi:docname="1.svg"
   inkscape:version="1.4 (86a8ad7, 2024-10-11)"
   xmlns:inkscape="http://www.inkscape.org/namespaces/inkscape"
   xmlns:sodipodi="http://sodipodi.sourceforge.net/DTD/sodipodi-0.dtd"
   xmlns="http://www.w3.org/2000/svg"
   xmlns:svg="http://www.w3.org/2000/svg">
  <defs
     id="defs1" />
  <sodipodi:namedview
     id="namedview1"
     pagecolor="#ffffff"
     bordercolor="#000000"
     borderopacity="0.25"
     inkscape:showpageshadow="2"
     inkscape:pageopacity="0.0"
     inkscape:pagecheckerboard="0"
     inkscape:deskcolor="#d1d1d1"
     inkscape:zoom="1.1000976"
     inkscape:cx="300.88239"
     inkscape:cy="281.33867"
     inkscape:window-width="1920"
     inkscape:window-height="1013"
     inkscape:window-x="2391"
     inkscape:window-y="605"
     inkscape:window-maximized="1"
     inkscape:current-layer="g1" />
  <g
     inkscape:groupmode="layer"
     inkscape:label="Image"
     id="g1">
    <path
       style="fill:#000000"
       d="m 212.58287,510.25 c -0.67222,-0.67181 -18.07236,-0.91042 -75.08287,-1.0296 -9.9,-0.0207 -18.9,-0.006 -20,0.0327 -1.1,0.0387 -13.925,-0.27907 -28.5,-0.7061 -14.575,-0.42703 -30.1,-0.87695 -34.5,-0.99983 -4.4,-0.12288 -8.45,-0.31866 -9,-0.43506 -0.55,-0.11641 -7.148133,-0.16853 -14.662519,-0.11582 -8.533736,0.0599 -13.905208,-0.29685 -14.309017,-0.95022 C 16.17289,505.47073 15.061934,505 14.059672,505 12.266822,505 8.1860174,500.42063 6.4850833,496.5 6.007857,495.4 5.3659844,486.625 5.0586996,477 4.5097878,459.80658 4.4605825,459.4944 2.25,459.18045 -0.46987578,458.79417 -0.78350623,456 1.8930112,456 c 1.0411562,0 2.1796823,-0.74705 2.5300582,-1.66012 0.3503758,-0.91306 0.6258934,-57.72556 0.6122613,-126.25 C 5.0216986,259.56545 5.2139955,190.9 5.4626572,175.5 5.8236095,153.14567 5.9348128,113.76929 5.6942344,93.5 5.6746504,91.85 6.012489,84.2 6.444987,76.5 6.8774849,68.8 7.1913205,59.35 7.1423995,55.5 7.0934784,51.65 7.0064459,44.45 6.9489939,39.5 6.891542,34.55 6.4572658,27.643805 5.9839357,24.152901 5.0211487,17.052152 5.834378,13.78026 9.2635174,10.958051 12.604152,8.2086832 20.460564,6.6592052 29.473174,6.972209 33.887928,7.1255313 39.075,7.1819439 41,7.0975703 c 5.824153,-0.2552752 89.24007,-0.4018308 93,-0.1633941 1.925,0.1220744 8,0.1842103 13.5,0.1380798 5.5,-0.046131 32.95,0.1281593 61,0.3873107 53.54221,0.4946716 79.67061,0.523993 93,0.1043651 7.13995,-0.2247756 70.41985,-0.4405916 91,-0.3103552 4.4,0.027844 9.125,-0.010412 10.5,-0.085013 1.375,-0.074602 3.85,-0.096802 5.5,-0.049335 1.65,0.047467 6.15,0.052699 10,0.011625 3.85,-0.041074 9.025,-0.035231 11.5,0.012984 2.475,0.048215 24.975,0.033698 50,-0.032262 60.9456,-0.160636 73.03016,0.2762672 75.0347,2.7127921 0.84409,1.0259875 1.96909,2.0477265 2.5,2.2705315 C 558.81869,12.633743 573,27.475326 573,28.280256 c 0,0.345859 1.0125,1.69461 2.25,2.997224 15.20605,16.006152 21.80018,23.057291 24.61499,26.320949 10.02234,11.620512 15.95464,18.233074 18.87231,21.036441 1.79449,1.724179 3.2627,3.456101 3.2627,3.848716 0,0.392615 5.9625,7.118216 13.25,14.945781 7.2875,7.827563 16.4,17.747333 20.25,22.043933 8.79582,9.81613 10.61485,11.76319 23.5,25.154 23.72066,24.65155 31.86337,34.90459 37.62221,47.3727 1.3972,3.025 3.8216,8.06341 5.38755,11.19647 2.55556,5.11303 4.39634,10.82571 7.08105,21.97536 1.60221,6.65399 2.80448,28.1553 1.69071,30.23641 -0.56609,1.05774 -0.79104,4.55014 -0.4999,7.76089 0.6176,6.81102 0.0345,9.83087 -1.89825,9.83087 -0.76085,0 -1.38337,0.19244 -1.38337,0.42764 0,0.2352 -0.48958,3.9477 -1.08795,8.25 -1.38362,9.94831 -7.06893,27.2817 -10.92965,33.32236 -0.87879,1.375 -3.37184,6.72249 -5.5401,11.88332 -2.16827,5.16083 -5.55886,11.23583 -7.53466,13.5 -1.9758,2.26417 -3.88531,5.30811 -4.24336,6.76431 -0.35805,1.45619 -4.85028,7.08119 -9.98274,12.5 -5.13247,5.4188 -10.87295,11.59644 -12.75665,13.72809 -1.88369,2.13164 -5.06731,5.73164 -7.07471,8 -2.00741,2.26835 -6.01845,6.82428 -8.91344,10.12428 -2.89498,3.3 -8.04144,8.925 -11.43656,12.5 -10.87459,11.45073 -13.57389,14.3604 -19.84929,21.39622 -8.59749,9.63928 -10.13794,11.30488 -18.90213,20.43779 -4.26318,4.44253 -8.22656,9.10978 -8.80751,10.37166 -0.58096,1.26188 -2.8304,3.56101 -4.99876,5.10918 -2.16837,1.54817 -3.94249,3.22016 -3.94249,3.71552 0,0.49537 -3.0375,3.95368 -6.75,7.68515 -3.7125,3.73146 -8.325,8.79151 -10.25,11.24454 -6.76001,8.61431 -16.68688,19.14645 -20.13987,21.36785 -2.5926,1.6679 -38.70957,2.57038 -119.86013,2.99504 -22.275,0.11656 -41.03124,0.54882 -41.68054,0.96058 -0.64929,0.41175 -12.34929,0.4335 -26,0.0483 -30.0802,-0.84875 -50.38373,-0.52342 -52.01873,0.83351 -0.66722,0.55374 -1.67164,0.72342 -2.23206,0.37706 -1.31963,-0.81558 -19.03918,-1.67072 -35.56867,-1.71655 -41.44945,-0.1149 -58.40879,0.21752 -58.98896,1.15624 -0.73377,1.18727 -3.8393,1.35607 -4.92817,0.26787 z m -55.27566,-10.35157 c 13.82545,-0.16404 16.89946,-0.46937 18.10162,-1.79801 1.02129,-1.12874 1.79606,-6.46336 2.62878,-18.10042 0.6494,-9.075 1.35161,-18.075 1.56048,-20 0.20888,-1.925 0.82028,-10.025 1.35867,-18 0.5384,-7.975 1.46932,-19.675 2.06873,-26 0.5994,-6.325 1.29001,-16.26085 1.53469,-22.07967 0.51859,-12.33279 0.5209,-12.32978 -10.31197,-13.46308 -3.43849,-0.35972 -6.49344,-1.04502 -6.78878,-1.52289 -0.29534,-0.47787 -1.81495,-0.61326 -3.37692,-0.30086 -1.60194,0.32039 -3.13651,0.0881 -3.52025,-0.53276 C 160.1881,377.49533 157.87239,377 155.41623,377 c -3.87354,0 -4.59506,0.34015 -5.44098,2.5651 -0.53639,1.4108 -0.97525,5.80128 -0.97525,9.7566 0,3.95533 -0.485,8.76353 -1.07779,10.6849 -1.01115,3.27744 -2.36889,15.183 -4.96008,43.4934 -1.12979,12.34363 -3.17197,30.40162 -5.16742,45.69289 -0.90392,6.92682 -0.8737,9.00701 0.14876,10.23899 0.70573,0.85036 1.60423,1.34766 1.99667,1.10512 0.39244,-0.24254 8.20762,-0.5299 17.36707,-0.63857 z m 52.09844,-0.62008 c 7.0981,-0.1605 13.44479,-0.73926 14.10375,-1.28615 1.2573,-1.04346 2.14315,-17.55225 3.15303,-58.75963 0.29293,-11.95291 0.70371,-23.98257 0.91283,-26.73257 0.20913,-2.75 0.56172,-9.40889 0.78353,-14.79753 0.50651,-12.30489 0.22744,-12.65664 -10.18022,-12.83142 -4.22321,-0.0709 -8.80357,-0.28695 -10.17857,-0.48006 -9.53923,-1.33975 -15.13691,-1.52226 -16.32959,-0.53242 -0.96215,0.79852 -1.37504,4.80964 -1.50897,14.65911 -0.10141,7.45789 -0.6899,17.92986 -1.30776,23.27106 -0.61787,5.34119 -1.10693,10.83626 -1.08681,12.21126 0.0201,1.375 -0.61212,11.05 -1.40497,21.5 -0.79286,10.45 -1.57601,22.6 -1.74035,27 -0.16434,4.4 -0.62997,8.74949 -1.03474,9.66553 -0.40478,0.91604 -0.5899,2.94104 -0.41138,4.5 0.30357,2.6511 0.63571,2.84371 5.13407,2.97731 2.64523,0.0786 5.0705,0.40383 5.38949,0.72281 0.31898,0.31899 1.0797,0.2705 1.69049,-0.10776 0.61079,-0.37825 6.91806,-0.81904 14.01617,-0.97954 z M 128.63,497.65193 c 0.62151,-0.63356 1.66612,-5.42693 2.32138,-10.65193 2.08982,-16.66434 2.8628,-23.32762 3.53815,-30.5 0.36252,-3.85 1.31278,-10.06706 2.1117,-13.81568 0.79891,-3.74863 1.4334,-8.24863 1.40996,-10 -0.0737,-5.50646 1.8926,-25.96722 3.42927,-35.68432 0.30442,-1.925 0.84091,-7.4136 1.19219,-12.1969 l 0.63871,-8.69689 -2.58648,-0.64916 C 139.26231,375.1 133.91376,374.65677 128.7992,374.47209 116.52862,374.029 78.554667,370.46084 77.200082,369.62366 76.615628,369.26244 70.369014,368.51514 63.318719,367.96299 56.268423,367.41084 47.575,366.48698 44,365.90997 c -3.575,-0.57701 -12.196087,-1.27774 -19.15797,-1.55718 -11.983175,-0.48099 -12.691576,-0.40219 -13.288349,1.47808 -1.077653,3.39538 -0.825406,18.45304 0.384329,22.9422 0.633327,2.35019 0.868349,4.73123 0.522271,5.2912 -0.865077,1.39972 -1.197699,24.34338 -0.385727,26.60673 0.360881,1.00595 0.281677,2.83151 -0.176009,4.05679 -0.468287,1.25367 -0.355314,5.92174 0.258364,10.67573 0.784432,6.07677 0.786055,9.32134 0.0058,11.55963 -0.747931,2.14552 -0.769266,3.94144 -0.06871,5.78403 0.558813,1.46979 1.070153,11.80295 1.13631,22.96258 L 13.350572,496 l 13.074714,0.061 c 12.089674,0.0564 21.309548,0.28786 59.074714,1.48327 17.9285,0.5675 32.86971,1.50272 33.46777,2.09485 0.80664,0.79863 8.47694,-0.77885 9.66223,-1.98715 z m 129.62,1.26459 16.75,0.16879 0.17755,-9.29266 c 0.0976,-5.11096 0.33422,-13.56765 0.52571,-18.79265 0.5909,-16.12355 0.16717,-75.87241 -0.56123,-79.13646 -0.1708,-0.76538 -8.08324,-2.15841 -13.64203,-2.40177 -2.2,-0.0963 -8.70439,-0.69414 -14.4542,-1.32852 -8.30899,-0.91673 -10.69595,-0.89484 -11.6323,0.10667 -0.81631,0.87312 -1.37917,10.31926 -1.83289,30.76008 -0.36014,16.225 -0.95912,34 -1.33106,39.5 -0.37194,5.5 -0.69275,16.51101 -0.7129,24.46891 -0.0366,14.43882 -0.0315,14.4716 2.46335,15.75942 1.37599,0.71029 3.62401,1.00476 5,0.65495 1.375,-0.34955 10.0375,-0.5596 19.25,-0.46676 z m 157.02475,0.24914 c 11.26687,-0.15851 11.81217,-0.26407 12.6422,-2.44722 0.83539,-2.19725 -0.5882,-17.93795 -2.95906,-32.71844 -0.57345,-3.575 -1.65373,-12.575 -2.40063,-20 -0.7469,-7.425 -1.81531,-15.075 -2.37424,-17 -0.55893,-1.925 -1.31795,-6.99593 -1.6867,-11.26873 l -0.67047,-7.76873 -4.10075,-1.98127 C 410.90011,404.61638 407.55689,404 402.97884,404 c -3.65503,0 -6.95601,-0.3105 -7.33551,-0.69 -0.3795,-0.3795 -2.9295,-0.57114 -5.66667,-0.42586 C 387.2395,403.02941 385,402.7315 385,402.2221 c 0,-0.5094 -2.3625,-0.88027 -5.25,-0.82414 l -5.25,0.10204 0.0941,4 c 0.26816,11.40185 1.61419,28.9176 2.37625,30.92197 0.47715,1.255 1.15119,8.67746 1.49785,16.49434 0.34667,7.81688 1.00288,15.19603 1.45825,16.3981 0.45538,1.20208 1.15874,8.154 1.56303,15.44873 0.52397,9.45406 1.12085,13.47476 2.07831,14 1.29032,0.70783 5.87217,0.766 31.70698,0.40252 z m -87.14774,-1.85457 c 1.62022,-1.3464 1.61316,-8.55101 -0.0262,-26.81109 -0.54317,-6.05 -1.28544,-23.15 -1.64949,-38 -0.36404,-14.85 -0.95796,-28.78968 -1.31982,-30.97707 -0.7879,-4.7627 -3.48461,-6.48649 -10.18146,-6.50819 -2.5025,-0.008 -4.9775,-0.42349 -5.5,-0.92308 -0.5225,-0.49958 -6.8,-1.06208 -13.95,-1.25 l -13,-0.34166 -0.12203,16.78869 c -0.0671,9.23379 -0.38878,17.05545 -0.71481,17.38149 -0.32604,0.32603 -0.21471,1.32112 0.24738,2.2113 0.4621,0.89019 0.90005,16.42697 0.97322,34.52618 0.0959,23.7111 0.46405,33.3065 1.31746,34.33479 0.97309,1.1725 4.8696,1.36739 21.83976,1.09234 14.03821,-0.22754 21.11368,-0.71567 22.08603,-1.5237 z m 46.72159,-0.43084 c 0.43128,-1.16587 0.43821,-4.65337 0.0154,-7.75 -0.42281,-3.09664 -0.84032,-10.65018 -0.9278,-16.78564 -0.0875,-6.13547 -0.57135,-13.33547 -1.07525,-16 -0.50391,-2.66454 -1.34284,-11.59461 -1.8643,-19.84461 -1.82948,-28.94401 -2.27999,-33.50523 -3.47003,-35.1327 -0.84424,-1.15457 -3.1012,-1.73666 -7.61329,-1.96354 -3.52733,-0.17736 -10.84164,-0.84639 -16.25401,-1.48672 -13.70503,-1.62144 -13.50462,-1.88082 -11.43505,14.79957 0.87233,7.03086 1.65714,18.18339 1.74403,24.78339 0.0869,6.6 0.60643,16.275 1.15454,21.5 0.54812,5.225 1.25495,16.3625 1.57073,24.75 l 0.57416,15.25 h 18.39836 c 17.83154,0 18.42252,-0.0653 19.18251,-2.11975 z M 522,497.52779 c 10.175,-0.2991 21.49701,-0.81506 25.16003,-1.14657 6.53679,-0.5916 6.72156,-0.68844 9.98582,-5.23384 1.82918,-2.5471 4.90717,-6.28252 6.83997,-8.30094 1.9328,-2.01842 4.38128,-4.72208 5.44107,-6.00815 6.28717,-7.62955 15.88903,-18.55957 23.57703,-26.83829 4.85218,-5.225 10.1813,-11.21166 11.8425,-13.30368 1.66119,-2.09202 4.17533,-4.71219 5.58696,-5.82258 5.49762,-4.32443 2.07872,-6.54016 -11.06479,-7.17091 -5.02227,-0.24101 -9.74727,-0.82467 -10.5,-1.29701 -0.75272,-0.47234 -4.29359,-0.99689 -7.86859,-1.16566 -3.575,-0.16878 -8.975,-0.709 -12,-1.20051 -3.025,-0.4915 -8.5375,-0.9265 -12.25,-0.96665 -3.7125,-0.0401 -6.75,-0.43243 -6.75,-0.87172 0,-0.4393 -1.6875,-0.80204 -3.75,-0.8061 -2.0625,-0.004 -7.125,-0.29928 -11.25,-0.65607 -4.125,-0.35679 -11.88687,-0.93599 -17.2486,-1.28713 -5.36172,-0.35113 -9.97158,-0.99922 -10.24412,-1.4402 -0.27254,-0.44098 -3.31067,-0.663 -6.7514,-0.49339 -3.44074,0.16962 -6.72662,-0.0816 -7.30197,-0.55821 -0.57534,-0.47663 -1.92534,-0.82214 -3,-0.7678 -4.51561,0.22833 -20.02389,-1.42706 -21.68186,-2.31438 -1.11257,-0.59543 -2.42889,-0.60979 -3.45122,-0.0377 -0.92207,0.51602 -2.8996,0.56727 -4.47327,0.11595 -1.69903,-0.48727 -3.06499,-0.41349 -3.43523,0.18557 -0.33805,0.54697 -1.35661,0.69143 -2.26348,0.32102 -0.90687,-0.37041 -6.82385,-1.28619 -13.14885,-2.03507 -6.325,-0.74887 -12.52238,-1.61254 -13.77196,-1.91926 -3.22674,-0.79202 -3.57993,0.9974 -2.20676,11.18018 0.65352,4.8462 1.32613,11.28628 1.49467,14.31128 0.16855,3.025 0.99688,9.325 1.84074,14 0.84386,4.675 1.55882,10.21708 1.5888,12.31574 0.03,2.09866 0.47422,4.59997 0.98719,5.55847 0.51298,0.95851 1.47472,8.46642 2.13721,16.68426 0.73656,9.13667 1.70628,15.52429 2.49602,16.44153 1.10638,1.285 5.99586,1.4693 34.11279,1.28581 C 488.73042,498.168 511.825,497.8269 522,497.52779 Z M 578,475 c 0,-0.55 -0.45,-1 -1,-1 -0.55,0 -1,0.45 -1,1 0,0.55 0.45,1 1,1 0.55,0 1,-0.45 1,-1 z m 49.07445,-62.18007 c 2.17645,-1.74904 4.73756,-4.40328 5.69136,-5.8983 1.81759,-2.84895 14.36971,-16.78073 22.48419,-24.95551 6.6035,-6.65258 6.22033,-8.14206 -2.2015,-8.55771 -13.19843,-0.6514 -55.96856,-3.36895 -61.0485,-3.87893 -1.925,-0.19325 -7.3326,-0.62698 -12.01689,-0.96383 -4.68428,-0.33686 -10.88543,-0.98689 -13.78032,-1.44451 -2.89489,-0.45762 -5.46768,-0.50156 -5.71731,-0.0976 -0.47637,0.77078 -8.90773,0.22387 -11.48548,-0.74503 -1.51969,-0.5712 -2.9014,-0.65507 -27,-1.6389 -22.41305,-0.91501 -46.03269,-2.25455 -47,-2.66551 -0.275,-0.11684 -2.75,-0.30658 -5.5,-0.42166 -11.82941,-0.49501 -31.66933,-1.78304 -39.91594,-2.59137 -4.90377,-0.48067 -9.29127,-0.64199 -9.75,-0.35847 -1.25809,0.77754 -1.03508,6.83137 0.6409,17.39744 0.82878,5.225 1.76519,12.06225 2.0809,15.19388 0.53746,5.33114 0.77694,5.75787 3.75908,6.69826 3.42665,1.08056 23.51566,2.97893 38.25675,3.6152 4.98943,0.21535 11.96443,0.8609 15.5,1.43455 3.53557,0.57365 9.61581,1.0464 13.51164,1.05056 3.89584,0.004 7.42084,0.34505 7.83334,0.75755 0.93069,0.93069 1.92332,1.02252 24.08333,2.22805 9.9,0.53856 21.825,1.65605 26.5,2.4833 4.675,0.82725 15.40639,1.96243 23.84754,2.52263 8.44114,0.5602 15.86614,1.35548 16.5,1.76728 1.11455,0.72411 13.01273,1.71238 24.9611,2.07329 5.16465,0.156 6.24736,-0.17711 9.76581,-3.00462 z M 537,413 c 0,-0.55 -0.45,-1 -1,-1 -0.55,0 -1,0.45 -1,1 0,0.55 0.45,1 1,1 0.55,0 1,-0.45 1,-1 z M 415.43845,390.25 c 0.34915,-3.1625 0.18868,-7.2511 -0.35661,-9.08577 -0.54528,-1.83468 -1.30105,-7.1517 -1.67948,-11.81562 -0.97085,-11.96527 -1.26399,-12.21225 -15.18917,-12.79751 -6.20774,-0.2609 -14.59846,-0.77446 -18.64603,-1.14125 -9.62476,-0.87217 -9.59884,-0.92812 -7.91523,17.09015 1.68026,17.9824 2.36951,20.96355 4.88521,21.12941 1.07958,0.0712 6.9083,0.44162 12.95273,0.82321 6.04443,0.38158 11.18193,0.88585 11.41667,1.12058 0.23474,0.23474 3.45761,0.4268 7.16194,0.4268 h 6.73515 z m -49.69538,0.92996 c 1.71752,-1.09073 -0.3022,-32.71245 -2.26872,-35.52004 -1.50916,-2.15463 -8.66067,-3.0481 -24.97435,-3.12016 l -9,-0.0398 0.42019,13 c 0.2311,7.15 0.4561,14.79212 0.5,16.98249 0.0678,3.38359 0.52214,4.1951 3.02115,5.39627 1.61774,0.77758 6.11774,1.50664 10,1.62012 3.88226,0.11349 7.73366,0.47132 8.55866,0.79518 4.19213,1.64567 11.77681,2.13458 13.74307,0.8859 z M 324.30756,383.5 c -0.10584,-1.65 -0.51248,-9.42128 -0.90363,-17.26951 -0.82773,-16.60792 0.7504,-15.01437 -15.40393,-15.55439 -5.775,-0.19305 -13.72554,-0.66598 -17.66786,-1.05096 -5.22673,-0.5104 -7.3733,-0.36756 -7.92644,0.52744 -0.62354,1.00891 -0.67067,32.91579 -0.0495,33.53692 0.10503,0.10503 2.65536,0.28552 5.6674,0.40108 3.01203,0.11556 5.91389,0.45579 6.44856,0.75607 0.53467,0.30027 2.55967,0.46085 4.5,0.35683 1.94033,-0.10401 5.10287,0.16577 7.02787,0.59951 1.925,0.43375 6.875,0.76802 11,0.74282 l 7.5,-0.0458 z m -49.12645,-5.0351 c 1.04644,-5.89661 0.95981,-24.96406 -0.1264,-27.82101 -1.13659,-2.98945 -4.52824,-3.53267 -25.18202,-4.03325 l -13.62731,-0.33028 -0.614,5.10982 c -0.85118,7.08369 -0.75873,25.87133 0.13393,27.21893 0.42735,0.64514 5.38327,1.32419 11.84697,1.62324 6.11175,0.28277 11.9327,0.97326 12.93544,1.53442 1.00274,0.56116 4.54714,0.93991 7.87646,0.84166 l 6.0533,-0.17863 z m -45.83046,-7.75537 c 0.78467,-7.1591 0.12633,-23.63255 -0.98902,-24.7479 -1.1179,-1.1179 -33.31814,-3.84102 -33.91919,-2.86849 -0.37192,0.60177 -0.69024,5.09939 -1.78846,25.26912 -0.11566,2.12424 0.25237,4.44838 0.81786,5.16476 0.6713,0.85041 6.06097,1.71665 15.52816,2.49571 7.975,0.65627 15.175,1.5755 16,2.04274 2.19278,1.24188 3.68479,-1.28076 4.35065,-7.35594 z M 184.76651,371.75 c 0.55627,-0.6875 1.30677,-4.625 1.66777,-8.75 0.361,-4.125 1.1327,-9.64518 1.71488,-12.26706 1.25869,-5.66858 -0.52227,-9.55046 -4.35471,-9.49176 -8.44864,0.12939 -19.87957,-0.62416 -23.08754,-1.52199 -6.34824,-1.77671 -7.67058,1.07662 -9.19903,19.84964 -0.41838,5.13868 -0.18266,6.40313 1.53796,8.25 1.11764,1.19964 2.57704,2.21217 3.24312,2.25007 0.66607,0.0379 2.56104,0.28272 4.21104,0.54406 1.65,0.26134 7.275,0.83988 12.5,1.28565 5.225,0.44576 9.7824,0.87593 10.12756,0.95593 0.34515,0.08 1.08268,-0.41704 1.63895,-1.10454 z m -41.22464,-8.25 c 0.6777,-1.65 1.49377,-5.925 1.8135,-9.5 0.31973,-3.575 0.87016,-8.13029 1.22319,-10.12287 0.41221,-2.32662 0.22343,-3.88147 -0.5276,-4.34564 -0.64321,-0.39752 -4.6303,-0.85073 -8.86021,-1.00713 C 132.96084,338.36795 128.825,337.97899 128,337.66 c -0.825,-0.31899 -3.3,-0.56155 -5.5,-0.53902 -5.7326,0.0587 -21.72769,-1.16151 -23.5,-1.79277 -0.825,-0.29384 -5.169386,-0.46111 -9.654192,-0.37171 -4.484805,0.0894 -8.394053,-0.22555 -8.687218,-0.6999 -0.293165,-0.47435 -4.048778,-0.94842 -8.345808,-1.0535 -10.352126,-0.25315 -48.798324,-2.143 -53.598903,-2.63469 -5.975535,-0.61203 -7.045059,2.01555 -6.734092,16.54415 0.0543,2.5369 0.643561,5.3076 1.30947,6.1571 1.211853,1.54597 16.780697,3.59547 44.210743,5.81996 14.443385,1.17131 27.074847,2.44976 43,4.35208 7.15,0.85409 16.33791,1.77953 20.41759,2.05652 4.07967,0.27699 7.64867,0.73471 7.93111,1.01715 0.28244,0.28244 3.4267,0.39452 6.98725,0.24908 6.15219,-0.25132 6.53494,-0.41346 7.70592,-3.26445 z m 527.85663,0.42739 c 1.93205,-1.13994 3.8039,-2.98975 4.15967,-4.11068 0.35577,-1.12093 3.37116,-4.80076 6.70086,-8.17739 5.79059,-5.8722 10.80242,-13.10105 14.30943,-20.63932 0.89556,-1.925 2.25903,-4.77397 3.02992,-6.33104 3.28621,-6.63759 1.49766,-7.50536 -15.64716,-7.59167 -7.39817,-0.0372 -16.37622,-0.27113 -19.95122,-0.51975 -6.5445,-0.45514 -21.97285,-1.08516 -51.5,-2.10302 -8.8,-0.30336 -19.825,-0.72331 -24.5,-0.93322 -8.29236,-0.37234 -21.40817,-0.76229 -86,-2.55684 -17.325,-0.48133 -39.825,-1.19983 -50,-1.59664 -10.175,-0.39682 -22.76624,-0.75441 -27.98053,-0.79465 l -9.48052,-0.0732 -0.63421,3.88627 c -0.34881,2.13745 -0.0127,8.66245 0.74696,14.5 0.75964,5.83755 1.66368,12.99513 2.00897,15.90574 0.4532,3.82021 1.17472,5.58471 2.59429,6.34444 1.74871,0.93588 18.27326,2.06715 46.74504,3.20016 15.49748,0.61671 37.04046,1.92102 70,4.23811 18.94204,1.33165 34.0734,2.31917 44.5,2.90421 6.05,0.33947 15.5,1.05889 21,1.59872 5.5,0.53983 14.05,1.18368 19,1.43078 4.95,0.24711 13.725,0.7412 19.5,1.09799 5.775,0.35678 12.65493,0.75873 15.28873,0.89321 2.63381,0.13447 5.07131,0.52707 5.41667,0.87244 1.34095,1.34095 7.34713,0.52949 10.6931,-1.44468 z M 409.30185,338.26311 c -0.21971,-4.26971 -0.8275,-9.64988 -1.35066,-11.95593 C 407.42804,324.00113 407,319.92464 407,317.24831 c 0,-2.67633 -0.5625,-5.57676 -1.25,-6.44541 -1.68953,-2.1347 -11.01043,-4.17678 -15.66633,-3.43227 -2.07675,0.33209 -4.01003,0.36968 -4.29617,0.0835 -0.91252,-0.91251 -16.33351,-1.35277 -17.70451,-0.50545 -1.07197,0.66251 -1.11204,3.02863 -0.21479,12.68287 0.60667,6.52763 1.30584,14.96725 1.5537,18.75471 0.24787,3.78746 0.87162,7.30723 1.38611,7.82172 0.51449,0.51449 8.74406,1.15406 18.28794,1.42127 9.54388,0.26722 17.57675,0.71009 17.85083,0.98417 0.27408,0.27407 1.00597,-0.19593 1.62643,-1.04445 0.69906,-0.95603 0.97618,-4.49523 0.72864,-9.30589 z m -46.47547,7.21411 c 0.48317,-0.43915 -1.73383,-36.51845 -2.3003,-37.43502 -0.90955,-1.47169 -7.01875,-2.24625 -19.79093,-2.50922 -12.71109,-0.2617 -12.76737,-0.25277 -13.36305,2.12058 -0.329,1.31087 -0.24172,3.61258 0.19397,5.11492 0.43569,1.50233 0.89115,8.7386 1.01212,16.0806 0.12098,7.34199 0.64212,13.77123 1.15809,14.2872 0.51596,0.51596 5.17388,1.19723 10.35092,1.51393 5.17704,0.3167 10.0878,0.9762 10.9128,1.46555 1.27775,0.7579 10.85913,0.24057 11.82638,-0.63854 z M 321.77217,325.8894 c 0.20567,-13.18323 -0.0489,-17.88552 -1.04154,-19.24311 -1.1237,-1.53675 -3.2603,-1.85373 -14.77217,-2.19154 -7.40215,-0.21721 -15.30161,-0.65056 -17.55434,-0.963 -2.77898,-0.38543 -4.45025,-0.14109 -5.19803,0.75993 -1.16988,1.40962 -1.24924,35.04166 -0.0854,36.20341 0.58887,0.58783 2.99067,0.80088 24.37934,2.16262 4.95,0.31515 9.11231,0.6799 9.24958,0.81055 0.13727,0.13066 1.26227,0.16333 2.5,0.0726 2.23032,-0.16349 2.25285,-0.32083 2.52259,-17.61145 z m -46.88399,14.20087 c 0.76349,-0.4835 1.31783,-2.16411 1.23185,-3.73469 -0.34839,-6.36405 -0.28995,-11.29903 0.23859,-20.14875 0.49298,-8.25416 0.34426,-9.48401 -1.33012,-11 -4.60872,-4.17276 -5.16802,-4.46731 -6.31152,-3.32381 -1.47649,1.47649 -20.41136,1.46808 -24.65411,-0.0109 -5.80593,-2.02395 -6.43173,-0.33439 -6.7672,18.27027 -0.1959,10.86405 0.0757,16.60019 0.82893,17.50779 0.7535,0.90792 3.78128,1.39266 9.24784,1.48057 6.82249,0.10972 12.18985,0.47854 24.62756,1.69229 0.825,0.0805 2.12468,-0.24921 2.88818,-0.73272 z M 184,338.55902 c 0,-0.24254 -0.45,-0.7191 -1,-1.05902 -0.55,-0.33992 -1,-0.14148 -1,0.44098 0,0.58246 0.45,1.05902 1,1.05902 0.55,0 1,-0.19844 1,-0.44098 z m 44.53225,-1.94841 c 1.44948,-1.44948 2.17327,-7.43468 2.8863,-23.86773 0.53409,-12.30881 0.93941,-12.02711 -18.07514,-12.56213 -16.43203,-0.46235 -16.15722,-0.62084 -16.21299,9.35047 -0.0184,3.28283 -0.76148,8.80174 -1.65137,12.26425 -1.64394,6.39643 -1.30669,11.54447 0.84789,12.94306 0.64518,0.41881 7.69806,1.25795 15.67306,1.86477 7.975,0.60681 14.64464,1.16931 14.82143,1.25 0.17678,0.0807 0.94665,-0.47853 1.71082,-1.24269 z M 188.38807,332.75 c 1.03569,-1.62485 1.52832,-6.41769 1.77305,-17.25 l 0.33888,-15 -5.5,-0.27738 c -3.025,-0.15257 -6.175,-0.53643 -7,-0.85303 -2.07046,-0.79456 -18.33446,-0.40858 -19.21367,0.45598 -0.39252,0.38598 -1.19472,5.42062 -1.78267,11.1881 -0.58794,5.76748 -1.29342,12.28633 -1.56772,14.48633 -0.7904,6.33942 -0.0809,6.73808 13.63848,7.66316 6.73636,0.45422 12.4754,1.05333 12.75342,1.33135 1.32845,1.32845 5.2695,0.28044 6.56023,-1.74451 z m -40.22872,-3.50935 c 0.62901,-0.62901 1.54254,-6.22797 2.03007,-12.44215 0.48754,-6.21417 1.32737,-12.62613 1.8663,-14.24879 1.43509,-4.32086 -0.28999,-4.83843 -17.00539,-5.10205 -26.77421,-0.42225 -66.434815,-1.42157 -77.788956,-1.96003 -37.720577,-1.78886 -35.113685,-1.70545 -39.461714,-1.26264 -4.354383,0.44346 -4.928401,1.85157 -5.177757,12.70144 -0.305222,13.28062 0.207778,14.06765 9.184801,14.09093 3.681313,0.01 9.843296,0.70695 13.693296,1.54977 3.85,0.84283 14.425,1.92367 23.5,2.40186 9.075,0.4782 19.2,1.11835 22.5,1.42255 9.240991,0.85186 43.13257,2.65478 51.24706,2.72617 3.98589,0.0351 7.47229,0.42818 7.74756,0.87358 0.71465,1.15633 6.30528,0.60881 7.66473,-0.75064 z m 561.57712,-24.56101 c 3.31979,-4.84491 7.0393,-15.95583 9.26609,-27.67964 2.50827,-13.20579 2.56635,-17.63046 0.24744,-18.84992 -0.9625,-0.50615 -6.475,-1.03135 -12.25,-1.16709 -10.52157,-0.24732 -73.59493,-0.19281 -90.5,0.0782 -4.95,0.0794 -15.525,0.12303 -23.5,0.097 -7.975,-0.026 -41.5,0.11624 -74.5,0.31607 -33,0.19983 -71.25,0.41279 -85,0.47324 -13.75,0.0605 -25.60629,0.48811 -26.34732,0.95034 -1.35994,0.8483 -1.10728,3.50758 1.90991,20.1021 0.45,2.475 0.84501,7.73594 0.8778,11.69098 0.0381,4.6013 0.50977,7.47903 1.30961,7.99082 0.6875,0.43991 3.95,0.85921 7.25,0.93179 21.45671,0.47187 27.12719,0.78609 28.12836,1.55867 0.63447,0.4896 2.16646,0.49429 3.5,0.0107 2.24248,-0.81317 10.32223,-0.7783 29.98243,0.12937 4.73594,0.21865 9.01094,0.63614 9.5,0.92776 0.48907,0.29161 13.93921,0.82587 29.88921,1.18724 15.95,0.36138 35.75,0.85298 44,1.09247 38.213,1.10925 55.50582,1.56596 74.5,1.96753 42.79349,0.90475 63.52952,1.71771 64.37267,2.52374 1.3637,1.30366 4.94666,-0.80386 7.3638,-4.33145 z M 402.9742,293.75 c -0.039,-7.94391 -1.79218,-24.64902 -3.1484,-30 l -1.2039,-4.75 -7.06095,-0.0336 c -3.88352,-0.0185 -11.68723,-0.16048 -17.34157,-0.31557 -11.92322,-0.32703 -12.86852,0.17537 -11.33242,6.02284 1.05892,4.03102 2.97196,21.47859 2.98034,27.18179 0.01,6.48162 1.55347,7.0183 20.3827,7.08511 L 403,299 Z m -44.9833,2.76096 c 0.80581,-0.97094 0.99412,-2.7773 0.54119,-5.19158 -0.38203,-2.0364 -0.89297,-9.35127 -1.13542,-16.25526 -0.59465,-16.93303 -0.16444,-16.53037 -17.45495,-16.33741 -13.4953,0.15061 -16.66874,1.01308 -15.39305,4.1835 0.35183,0.87439 0.85225,8.33979 1.11204,16.58979 0.2598,8.25 0.64588,15.54318 0.85797,16.20707 0.37274,1.16679 4.91596,1.57801 23.10888,2.09169 5.28136,0.14911 7.44765,-0.18445 8.36334,-1.2878 z m -37.94105,-1.6041 c 0.64375,-1.20286 0.80791,-3.22319 0.38596,-4.75 -1.02956,-3.7254 -1.07152,-4.28778 -1.28007,-17.15686 -0.1025,-6.325 -0.53818,-12.05384 -0.96817,-12.73075 -0.5244,-0.82552 -5.21111,-1.41419 -14.23469,-1.78793 -7.39908,-0.30645 -14.41924,-0.76211 -15.60035,-1.01257 -1.18111,-0.25046 -3.13713,0.34599 -4.34671,1.32546 -2.3242,1.88202 -2.4937,4.73113 -1.73754,29.20579 l 0.23172,7.5 6,0.58189 c 3.3,0.32004 11.49667,0.65754 18.21482,0.75 11.46161,0.15774 12.28389,0.039 13.33503,-1.92503 z m -45.54162,-0.0818 c 0.87061,-0.87061 1.57669,-24.95231 0.89645,-30.5751 -0.62347,-5.15363 -0.69618,-5.25 -3.96089,-5.25 -1.82916,0 -3.55638,-0.37316 -3.83825,-0.82924 -0.28187,-0.45607 -6.45215,-0.74921 -13.71172,-0.65141 -10.73542,0.14463 -13.41497,0.47288 -14.35506,1.75853 -1.00443,1.37364 -1.28386,14.22685 -0.65984,30.3508 0.15764,4.07325 2.79398,5.03311 14.62108,5.32336 4.95,0.12147 9.10107,0.32053 9.2246,0.44235 0.46195,0.45553 11.28152,-0.0672 11.78363,-0.56929 z m -42.79099,-4.10384 c 0.57104,-1.25331 1.09179,-8.83178 1.15721,-16.84104 l 0.11894,-14.56228 -3.84281,-1.26824 c -4.28898,-1.41549 -23.64026,-1.02344 -26.29403,0.53271 -2.18461,1.28103 -2.88762,5.0861 -3.50461,18.96894 -0.42497,9.56221 -0.24866,12.28948 0.85362,13.20428 1.28114,1.06326 6.5458,1.51362 23.88392,2.04313 5.9856,0.1828 6.68464,-0.008 7.62776,-2.0775 z m -39.39349,-0.12256 c 0.27133,-0.70706 0.81956,-7.87209 1.2183,-15.92228 0.64692,-13.06091 0.54911,-14.69269 -0.90854,-15.15657 -0.89843,-0.28592 -2.42101,-0.80288 -3.38351,-1.1488 -3.42035,-1.22926 -24.16659,-1.17648 -25.19618,0.0641 -0.53873,0.64913 -1.40203,6.32927 -1.91843,12.62254 -0.51641,6.29326 -1.4205,12.67589 -2.0091,14.18362 -1.26069,3.2293 -0.61183,5.50625 1.70885,5.99661 0.91567,0.19349 8.03921,0.41806 15.83008,0.49906 10.72759,0.11153 14.28493,-0.16471 14.65853,-1.13829 z m -41.75999,-1.71719 c 2.6319,-1.26041 3.07544,-2.18224 4.27928,-8.89383 0.73868,-4.11822 1.56305,-10.26565 1.83193,-13.66094 0.71771,-9.06259 -0.23227,-9.50495 -18.21079,-8.47993 -7.6803,0.43788 -14.4609,0.42597 -15.068,-0.0265 -0.6071,-0.45243 -18.1571,-0.55622 -39.000001,-0.23064 -20.842899,0.32558 -44.53984,0.53855 -52.65987,0.47327 -8.752456,-0.0704 -15.572443,0.31414 -16.75,0.94435 C 13.167655,259.98064 13,261.12246 13,272.53518 c 0,11.17814 0.180644,12.47199 1.75,12.53426 0.9625,0.0382 7.375,0.1962 14.25,0.35112 6.875,0.15492 13.175,0.54432 14,0.86533 0.825,0.32101 14.059949,0.85622 29.410998,1.18937 15.351049,0.33314 28.211942,0.7917 28.579752,1.01902 0.36781,0.22733 7.40634,0.49047 15.64117,0.58478 8.23483,0.0943 16.74894,0.53609 18.92025,0.98175 5.16596,1.0603 11.34932,0.57454 15.01159,-1.1793 z m 166.6457,-39.28218 c 1.20767,-1.84892 -0.18482,-25.95687 -1.58136,-27.37783 -0.87142,-0.88665 -4.91464,-1.30273 -13.19231,-1.35757 -21.6335,-0.14334 -19.99742,-0.47561 -21.59736,4.38607 -1.14174,3.46935 -1.16618,4.70921 -0.13306,6.75 0.79155,1.56361 1.13153,5.17711 0.90768,9.6474 -0.19685,3.93107 -0.0595,7.63025 0.30526,8.22042 0.40678,0.65819 6.05974,1.1811 14.62242,1.3526 15.48869,0.31021 19.61884,-0.0137 20.66873,-1.62109 z M 194.44437,248.75 c 0.26536,-1.2375 0.94893,-5.4862 1.51905,-9.44155 2.35854,-16.36299 1.94519,-16.8203 -14.42704,-15.96138 -10.38602,0.54487 -12.26403,0.90715 -13.69667,2.64219 -0.91316,1.10591 -2.71316,2.07202 -4,2.14692 l -2.33971,0.13618 2.38065,0.45049 c 2.3672,0.44795 2.37674,0.50365 1.68953,9.86558 l -0.69111,9.41509 2.58053,0.98112 c 1.4193,0.53962 4.70901,0.82365 7.31047,0.63119 2.60146,-0.19246 6.97993,-0.0199 9.72993,0.38351 8.7076,1.27729 9.42182,1.18756 9.94437,-1.24934 z m 38.37238,-0.69187 c 1.48305,-4.21332 1.46884,-21.29905 -0.0194,-23.3189 -1.07616,-1.46056 -3.42855,-1.85336 -13.79735,-2.30382 -9.55714,-0.41521 -12.88425,-0.23045 -14.13211,0.7848 -1.30995,1.06576 -1.70473,3.77908 -2,13.7458 l -0.36789,12.41793 2.5,0.67832 c 1.375,0.37308 7.99367,0.65036 14.70815,0.61617 12.17113,-0.062 12.21089,-0.0699 13.1086,-2.6203 z M 250,249.85891 c 8.65349,0.85386 24.10929,0.77327 24.66669,-0.12862 1.05,-1.69894 0.37062,-26.093 -0.75813,-27.22158 C 273.3167,221.91694 266.473,221.5 257.35129,221.5 c -12.81444,0 -15.68282,0.26375 -16.31277,1.5 -0.90141,1.76898 -2.0611,22.93133 -1.35628,24.75 0.26643,0.6875 1.32037,1.25 2.34208,1.25 1.0217,0 2.15472,0.48068 2.51781,1.06817 0.3631,0.5875 1.40215,0.74745 2.30902,0.35545 0.90687,-0.392 2.32385,-0.64612 3.14885,-0.56471 z m 102.54366,-0.0608 c 2.83099,-1.28988 2.90424,-2.16154 1.44382,-17.17968 -0.5285,-5.43484 -1.46825,-10.49283 -2.08832,-11.23998 -1.65074,-1.98902 -27.64622,-1.37456 -28.98294,0.68508 -0.51274,0.79003 -0.70591,3.68643 -0.42927,6.43643 0.27665,2.75 0.71327,8.03534 0.97027,11.7452 0.75065,10.8358 0.55228,10.69072 14.60409,10.68071 6.7216,-0.005 13.10945,-0.50222 14.48235,-1.12776 z M 373,249.72069 c 5.98827,0.33912 7.95341,0.28718 11.36338,-0.30034 2.31513,-0.39888 5.45157,-0.14148 7.82646,0.6423 4.71849,1.55725 6.18063,0.31422 5.36694,-4.56265 -0.2753,-1.65 -1.24181,-7.95 -2.1478,-14 -1.84356,-12.31089 -2.79098,-13.83077 -7.72769,-12.39709 -1.74971,0.50814 -4.47907,0.64387 -6.06524,0.30161 -1.58618,-0.34225 -7.15312,-0.3022 -12.37098,0.089 l -9.48702,0.71127 0.79838,9.1476 c 1.11738,12.80266 1.27914,14.85201 1.3666,17.31428 0.0882,2.4835 4.392,4.50688 7.57697,3.56225 1.1,-0.32625 2.675,-0.55495 3.5,-0.50823 z m 84.16306,-0.21701 c 19.06468,-0.153 35.03968,-0.4837 35.5,-0.73488 0.46032,-0.25118 4.88694,0.0709 9.83694,0.71583 4.95,0.64489 9.45,0.91603 10,0.60254 1.04079,-0.59324 14.18691,-0.88794 70.5,-1.58041 18.425,-0.22657 41.00551,-0.66707 50.17891,-0.97889 11.33249,-0.38522 16.8905,-0.22457 17.33902,0.50115 0.4618,0.7472 1.07744,0.72176 2.04915,-0.0847 1.00636,-0.8352 10.46338,-1.0552 34.32755,-0.79856 18.11619,0.19483 33.1347,0.12923 33.37447,-0.14577 1.86342,-2.13724 2.23475,-4.72242 1.47472,-10.26678 -1.02343,-7.46573 -3.69965,-19.39654 -5.01977,-22.37859 -1.56645,-3.53848 -6.451,-6.57125 -9.52569,-5.91441 -1.4841,0.31704 -14.17336,0.75969 -28.19836,0.98366 -14.025,0.22396 -26.21535,0.69067 -27.08966,1.03712 -0.87431,0.34646 -3.79931,0.49696 -6.5,0.33446 -2.70069,-0.1625 -16.83534,0.0413 -31.41034,0.45297 -14.575,0.41164 -38.425,1.0234 -53,1.35947 -14.575,0.33607 -26.95602,0.9785 -27.51337,1.42763 -0.55735,0.44912 -18.10735,1.09825 -39,1.4425 -20.89265,0.34425 -48.33663,1.01727 -60.98663,1.4956 -12.65,0.47833 -25.07577,0.62838 -27.61283,0.33344 -4.38306,-0.50954 -4.64733,-0.39881 -5.30535,2.22295 -0.38088,1.51757 -0.2431,4.83163 0.30619,7.3646 0.54929,2.53296 1.48639,7.53038 2.08244,11.10538 2.11012,12.65599 1.62964,11.85616 7.38592,12.2949 2.829,0.21563 6.71863,0.18841 8.64363,-0.0605 1.925,-0.2489 19.09838,-0.57773 38.16306,-0.73073 z m -303.48045,-0.3901 c 3.71984,-0.13275 4.10141,-0.95202 5.19044,-11.14415 0.5363,-5.01917 0.40582,-7.57337 -0.44639,-8.73884 -0.6623,-0.90574 -0.99669,-2.1875 -0.7431,-2.84836 0.2536,-0.66085 -0.52638,-1.51495 -1.73327,-1.89801 -2.94054,-0.93329 -29.96974,0.48989 -32.26421,1.69883 -1.22768,0.64685 -2.28102,0.56808 -3.25919,-0.24372 -1.0107,-0.83881 -5.87752,-1.12722 -16.18607,-0.95918 -13.422909,0.2188 -31.725472,0.80254 -36.74082,1.17181 -1.1,0.081 -4.25,0.0394 -7,-0.0925 -7.531335,-0.3611 -41.321891,0.74248 -44.568617,1.45558 -3.305848,0.72609 -3.959923,2.30388 -4.425264,10.67485 -0.482937,8.68752 0.983867,10.62721 8.327834,11.01268 5.091875,0.26726 126.121177,0.18677 133.848657,-0.089 z M 49.645626,218.52346 c 7.230094,-0.27837 13.873325,-0.78537 14.762735,-1.12667 0.88941,-0.3413 2.283792,-0.0672 3.098628,0.60901 0.858763,0.71271 2.639895,0.97242 4.237265,0.61785 1.51566,-0.33643 21.843674,-1.04981 45.173366,-1.58529 27.62356,-0.63403 42.79218,-1.34816 43.49156,-2.04754 1.22828,-1.22828 3.48527,-15.253 3.54845,-22.04969 0.0632,-6.79532 -1.20668,-7.8794 -9.45763,-8.07408 -3.85,-0.0908 -10.825,0.0927 -15.5,0.4079 -4.675,0.31518 -16.375,0.85426 -26,1.19795 -9.625,0.34369 -21.325,1.04919 -26,1.56779 -4.675,0.51859 -12.55,0.95629 -17.5,0.97264 -4.95,0.0164 -16.2,0.68188 -25,1.47893 -8.8,0.79705 -19.501623,1.46236 -23.781385,1.47846 -6.409837,0.0241 -7.897348,0.33148 -8.439294,1.74376 -1.265471,3.29777 -0.856776,22.88277 0.511949,24.53303 1.360577,1.64043 1.405961,1.64077 36.854356,0.27595 z m 144.259734,-3.39588 c 1.32295,-0.37019 2.74318,-1.33783 3.15608,-2.15032 0.4129,-0.81249 1.23962,-7.52055 1.83715,-14.9068 0.98796,-12.21241 0.93103,-13.60124 -0.62815,-15.32412 -1.19854,-1.32437 -2.47542,-1.71385 -4.24251,-1.29407 -1.39036,0.33029 -6.4091,0.75228 -11.15276,0.93775 -4.74366,0.18548 -9.10089,0.63145 -9.68273,0.99104 -1.55554,0.96138 -2.97281,9.6635 -3.56167,21.86894 l -0.51865,10.75 11.19394,-0.0997 c 6.15667,-0.0548 12.27635,-0.40256 13.5993,-0.77274 z m 39.79366,-1.4967 c 1.29915,-1.22531 2.23943,-31.30342 1.03929,-33.24528 -0.62577,-1.01252 -26.58199,-0.74278 -27.70623,0.28792 -0.85136,0.78052 -2.80409,25.76286 -2.27584,29.1159 0.85374,5.41894 2.86877,6.1082 16.09196,5.5044 6.54444,-0.29884 12.17737,-1.02775 12.85082,-1.66294 z m 18.02776,0.24234 c 0.70973,-0.70973 2.17175,-0.83595 3.95,-0.34102 4.62714,1.28784 17.29195,1.2104 18.38982,-0.11245 0.58343,-0.70299 0.87044,-8.22848 0.70752,-18.55128 L 274.5,177.5 l -12,0.1933 c -15.42319,0.24843 -19.50019,0.49786 -19.94626,1.22031 -0.19913,0.32252 -0.65149,7.72742 -1.00524,16.45533 -0.57183,14.10832 -0.45432,16.07765 1.05914,17.75 1.88971,2.08811 7.33492,2.5385 9.11914,0.75428 z M 381,214.55902 c 0,-0.24254 -0.45,-0.7191 -1,-1.05902 -0.55,-0.33992 -1,-0.14148 -1,0.44098 0,0.58246 0.45,1.05902 1,1.05902 0.55,0 1,-0.19844 1,-0.44098 z m -68.3603,-2.10722 c 2.63248,-0.53461 3.686,-2.97471 2.35671,-5.4585 C 314.44839,205.9693 314,198.82846 314,191.12476 c 0,-9.93261 -0.35438,-14.22574 -1.21835,-14.75971 -1.78573,-1.10364 -29.10596,-0.44075 -30.28142,0.73475 -0.55766,0.55767 -1.00023,6.39839 -1.00023,13.20023 0,6.70998 -0.37624,12.78218 -0.83609,13.49377 -0.46342,0.71713 -0.41345,1.83144 0.11211,2.5 0.52151,0.66341 1.23635,2.41392 1.58853,3.89001 0.47037,1.97146 1.36961,2.77669 3.38789,3.03373 3.3405,0.42542 23.90589,-0.16027 26.88726,-0.76574 z m 39.02481,-1.58833 c 0.81229,-0.67414 0.88686,-1.93775 0.2458,-4.16558 -0.85231,-2.96202 -1.8483,-14.21701 -2.32088,-26.2266 -0.24001,-6.09967 -0.82047,-7.15213 -4.3509,-7.889 -2.66512,-0.55626 -12.65608,0.47363 -20.73853,2.13776 l -4,0.82358 0.16432,6.47818 c 0.34297,13.52114 1.42087,27.26897 2.26141,28.84271 0.75608,1.41561 2.66818,1.59052 14.22315,1.30106 7.3423,-0.18393 13.87433,-0.76988 14.51563,-1.30211 z m 26.39441,-0.90547 c 1.50408,-0.79486 2.66418,-0.71818 9.69108,0.64057 4.02708,0.77869 4.14328,0.19749 2.81871,-14.09857 -1.83324,-19.78602 -2.54919,-24.01261 -4.28252,-25.28154 -0.9824,-0.71921 -2.68619,-1.08448 -3.78619,-0.81172 -1.1,0.27276 -6.725,0.56064 -12.5,0.63973 -12.74161,0.1745 -15.56631,1.39738 -14.53474,6.2924 0.3664,1.73862 1.06419,9.33633 1.55065,16.88379 0.48645,7.54747 1.3153,14.52769 1.84188,15.51161 0.82881,1.54865 2.07802,1.73916 9.29981,1.41826 4.58832,-0.20388 9.04391,-0.74142 9.90132,-1.19453 z M 444,208.57836 c 24.30891,-0.61958 29.56849,-1.09791 31.82622,-2.89445 0.96087,-0.76459 1.57079,-0.6598 2.21406,0.38039 0.7394,1.19565 4.86481,1.38853 24.67378,1.15358 13.55981,-0.16083 24.92922,-0.73424 26.44521,-1.33374 1.90052,-0.75157 3.26171,-0.72921 4.77067,0.0784 1.16127,0.6215 2.64921,0.7976 3.30653,0.39135 0.65733,-0.40625 6.33243,-0.86146 12.61133,-1.01157 6.2789,-0.15011 11.65679,-0.51353 11.95086,-0.8076 0.90476,-0.90477 11.04872,-0.59064 11.63646,0.36034 0.32351,0.52345 2.31999,0.4978 4.80902,-0.0618 2.34072,-0.52624 12.22583,-1.11661 21.96692,-1.31194 9.74108,-0.19532 18.29108,-0.71544 19,-1.15582 0.70891,-0.44037 11.18894,-0.98686 23.28894,-1.2144 54.72018,-1.02905 64.71531,-1.53751 65.85616,-3.35016 0.82466,-1.31027 0.51292,-2.68329 -1.36227,-6 -1.3374,-2.36551 -3.53353,-6.42734 -4.88029,-9.02628 -1.48317,-2.86221 -7.47688,-9.64724 -15.20139,-17.20837 l -12.75275,-12.48301 -17.82973,0.35378 c -9.80635,0.19458 -24.80473,0.83779 -33.32973,1.42937 -8.525,0.59158 -20.24112,1.29615 -26.03582,1.56572 -5.7947,0.26957 -15.69146,0.97632 -21.9928,1.57056 -6.30135,0.59424 -13.71646,0.98902 -16.47803,0.87729 -2.76157,-0.11172 -5.9148,0.2431 -7.00719,0.78851 -1.09239,0.5454 -5.58616,1.06763 -9.98616,1.16051 -4.4,0.0929 -10.025,0.39058 -12.5,0.66155 -9.20138,1.0074 -19.86231,1.68338 -32.5,2.06074 -11.4353,0.34145 -23.10898,0.97202 -34.5,1.86355 -1.925,0.15066 -4.175,0.53373 -5,0.85127 -0.825,0.31754 -9.15,0.8568 -18.5,1.19835 -9.35,0.34155 -22.57945,0.82724 -29.39878,1.0793 -6.81932,0.25206 -12.98162,0.94201 -13.69398,1.53322 -1.28323,1.06498 -1.58184,8.92301 -0.33909,8.92301 0.35375,0 0.92351,3.2625 1.26614,7.25 1.71381,19.94519 2.348,22.42525 5.86183,22.92339 2.52106,0.3574 6.85647,0.29569 41.80388,-0.59503 z M 44,182.6667 c 2.475,-0.11314 4.95,-0.48104 5.5,-0.81756 0.55,-0.33652 11.575,-0.91176 24.5,-1.27832 21.476065,-0.60907 43.93853,-1.8216 58,-3.13084 5.78058,-0.53822 17.9049,-1.14099 26.72695,-1.32874 6.42382,-0.13671 7.90232,-1.93018 8.7477,-10.61124 0.32136,-3.3 1.04853,-9.24071 1.61592,-13.20158 1.61226,-11.25488 1.23275,-11.59841 -11.91513,-10.78565 -18.16191,1.12271 -19.59202,1.27571 -22.52209,2.40961 -1.56565,0.60588 -5.16565,1.04047 -8,0.96575 -2.83434,-0.0747 -9.42835,0.18625 -14.65335,0.57993 -5.225,0.39368 -12.2,0.78692 -15.5,0.87387 -3.3,0.0869 -6.5532,0.51638 -7.229333,0.95431 -0.676134,0.43794 -2.111324,0.32422 -3.189312,-0.2527 -1.077988,-0.57692 -2.201858,-0.65758 -2.497488,-0.17924 -0.295631,0.47834 -3.810441,1.12038 -7.810689,1.42675 C 71.77293,148.59742 64,149.51527 58.5,150.33073 c -9.232516,1.36886 -29.631891,3.47642 -35.5,3.66768 -6.604437,0.21526 -9.594821,0.56325 -10.631123,1.23714 -1.06654,0.69355 -1.020816,24.47507 0.05264,27.37945 0.37466,1.01369 10.182809,1.02975 31.578482,0.0517 z m 151,-8.99957 c 4.06067,-0.73567 6.17302,-3.12137 5.90321,-6.66713 -0.10462,-1.375 0.1327,-3.24895 0.5274,-4.16433 0.39469,-0.91539 0.79677,-6.99039 0.89351,-13.5 L 202.5,137.5 197,137.5492 c -8.24061,0.0737 -15.23849,0.97205 -17.65659,2.26662 -1.6591,0.88822 -2.27678,2.36909 -2.67759,6.41937 -0.28654,2.89565 -1.19366,9.74714 -2.0158,15.22555 -2.02957,13.52405 -1.84734,13.80267 8.67337,13.26127 4.49714,-0.23143 9.75161,-0.70612 11.67661,-1.05488 z m 41.13088,-2.78989 c 0.4984,-0.75748 0.86612,-4.52724 0.81716,-8.37724 -0.049,-3.85 0.15147,-11.55856 0.44542,-17.13013 l 0.53446,-10.13013 -4.41215,-1.23532 c -2.54006,-0.71118 -6.02527,-0.94523 -8.21396,-0.55162 -2.09099,0.37604 -5.47715,0.81503 -7.52479,0.97554 -7.24073,0.56758 -7.73559,1.4868 -8.92127,16.57166 -1.70509,21.69315 -1.80397,20.38218 1.58257,20.9807 1.61608,0.28561 7.85414,0.46406 13.86235,0.39654 8.06466,-0.0906 11.16122,-0.48326 11.83021,-1.5 z m 37.2378,-1.73213 c 1.46319,-1.61681 1.64352,-4.15182 1.40499,-19.75 L 274.5,131.5 262.92114,131.21975 c -7.44474,-0.1802 -12.97335,0.17684 -15.48455,1 l -3.90568,1.28025 -0.082,9 c -0.0451,4.95 -0.44579,12.69135 -0.89048,17.203 -0.44469,4.51165 -0.54139,8.89915 -0.21489,9.75 0.4976,1.29673 2.91938,1.547 14.97004,1.547 12.73151,0 14.56846,-0.21223 16.05505,-1.85489 z m 38.90531,-2.45025 c 0.8313,-1.20565 -0.0199,-38.47464 -0.91164,-39.91758 -0.67389,-1.09038 -4.13796,-0.96774 -6.3674,0.22542 -1.26938,0.67935 -2.08152,0.66624 -2.51842,-0.0407 -0.35701,-0.57767 -1.61158,-0.7352 -2.81069,-0.35294 -2.25106,0.71762 -4.41329,0.95962 -11.16584,1.2497 -6.74516,0.28977 -6.60188,-0.15572 -6.59527,20.50477 0.003,10.27562 0.31704,19.18625 0.69722,19.80139 0.96229,1.55703 28.52645,0.19136 29.67204,-1.47009 z m 16.38849,-0.1983 c 2.80809,-1.1733 4.44707,-1.27488 7.4637,-0.46258 2.67121,0.71928 4.46436,0.72034 5.8039,0.003 C 342.99622,165.46684 344.8136,165 345.9687,165 c 1.91078,0 2.05394,-0.42837 1.58743,-4.75 -1.10184,-10.20709 -1.98579,-24.96544 -1.75193,-29.25 0.39397,-7.21802 0.27034,-7.27231 -14.41182,-6.32864 L 318.5,125.5 l 0.33454,19 c 0.42144,23.93568 1.17113,25.6136 9.82794,21.99656 z m 50.0078,-3.09851 c 3.57708,-0.31315 6.3723,-1.06663 6.65097,-1.79284 0.70539,-1.83821 -1.09798,-23.5212 -2.29537,-27.59861 -0.56423,-1.92137 -1.03277,-5.07137 -1.04119,-7 -0.0222,-5.08962 -1.23896,-6.43015 -5.66663,-6.24314 -2.09993,0.0887 -7.19306,0.18182 -11.31806,0.20695 -4.125,0.0251 -8.78898,0.56799 -10.36441,1.20635 l -2.86441,1.16066 0.58884,7.58129 c 0.32386,4.16971 0.84926,12.30629 1.16755,18.08129 0.8206,14.88892 0.798,14.82325 5.22639,15.18987 3.95841,0.32771 9.76478,0.0969 19.91632,-0.79182 z m 26.99729,-1.97212 c 0.73284,0.28121 1.33243,0.1774 1.33243,-0.2307 0,-0.40809 3.2625,-0.69155 7.25,-0.62991 6.68971,0.10343 32.91215,-1.14275 42.25,-2.00786 5.90296,-0.54688 33.63391,-2.45905 44,-3.034 4.95,-0.27454 16.2,-1.16051 25,-1.96882 8.8,-0.80831 26.125,-1.95785 38.5,-2.55454 30.53672,-1.47239 35.25613,-1.77325 37,-2.35873 1.44798,-0.48614 23.57135,-2.35084 39,-3.28718 4.125,-0.25034 11.18777,-0.4354 15.69504,-0.41124 4.89232,0.0262 8.46706,-0.39622 8.87001,-1.0482 0.37679,-0.60966 -1.5869,-3.07076 -4.44504,-5.57099 C 657.304,135.86039 655,133.41605 655,132.8919 c 0,-0.52415 -1.575,-2.33587 -3.5,-4.02604 -1.925,-1.69018 -3.5,-3.55698 -3.5,-4.14845 0,-0.59147 -1.4729,-2.45735 -3.27312,-4.14641 -1.80021,-1.68905 -4.11188,-4.421 -5.13703,-6.071 -1.02516,-1.65 -3.77811,-5.025 -6.11767,-7.5 -2.33956,-2.475 -5.8187,-6.17331 -7.73142,-8.218464 -3.36588,-3.598915 -3.6507,-3.700686 -8.85922,-3.165531 -2.95985,0.304113 -6.05654,0.800892 -6.88154,1.103952 -0.825,0.303061 -3.975,0.683978 -7,0.846483 -11.00946,0.591435 -16.8971,1.251932 -18.16951,2.038322 -0.71499,0.441888 -6.70685,0.951648 -13.31524,1.132788 -6.60839,0.18114 -13.36525,0.8002 -15.01525,1.37568 -1.65,0.57547 -7.95,1.24841 -14,1.49541 -6.05,0.24701 -13.4189,1.14008 -16.37534,1.9846 -2.95644,0.84453 -8.16986,1.4342 -11.58538,1.31037 -3.41552,-0.12382 -6.77747,0.12556 -7.471,0.55419 -0.69353,0.42862 -5.8308,0.9339 -11.41617,1.12285 -5.58537,0.18894 -14.30717,0.81387 -19.38179,1.38873 -5.07462,0.57486 -9.57392,0.97048 -9.99845,0.87915 -0.42453,-0.0913 -1.44687,0.0959 -2.27187,0.41596 -0.825,0.3201 -6.56377,0.7875 -12.75282,1.03865 -6.6244,0.26883 -11.84806,0.95066 -12.69998,1.65769 -0.79593,0.66056 -2.93216,1.1023 -4.74717,0.98163 -1.81502,-0.12068 -4.14714,0.13893 -5.1825,0.57689 -1.12082,0.47411 -2.66976,0.30461 -3.82836,-0.41894 -1.26246,-0.78842 -2.35739,-0.87893 -3.11753,-0.2577 -0.6444,0.52664 -4.54664,1.25065 -8.67164,1.6089 -15.76723,1.36938 -17.59324,1.55964 -20.82941,2.17037 -1.83118,0.34558 -3.5353,1.16487 -3.78695,1.82065 -0.25164,0.65578 0.23409,5.1584 1.07941,10.00584 0.84532,4.84743 1.53946,11.79206 1.54253,15.43252 0.006,7.59693 1.49772,14.10754 3.60881,15.75485 1.01054,0.78854 2.71921,0.85193 5.58818,0.20731 2.27291,-0.51069 4.73216,-0.69844 5.465,-0.41722 z M 32.5,143.97622 c 8.25,-0.55608 18.825,-1.44507 23.5,-1.97555 4.675,-0.53047 13.675,-1.41944 20,-1.97548 6.325,-0.55605 14.875,-1.4505 19,-1.98768 21.18011,-2.7582 25.19619,-3.17755 33.5,-3.49802 22.10124,-0.85296 41.01236,-2.71312 42.66235,-4.19641 1.23088,-1.10653 1.82631,-4.00542 2.29405,-11.16874 0.34743,-5.32089 1.33158,-12.04581 2.18699,-14.94427 0.85541,-2.89846 1.31208,-5.903727 1.01482,-6.678368 -0.52332,-1.363748 -0.0219,-5.814854 2.42784,-21.551702 0.64213,-4.125 1.28884,-9.975 1.43713,-13 0.9274,-18.918314 2.73484,-39.6136 3.60104,-41.232113 2.35567,-4.401602 1.07646,-4.56956 -38.92732,-5.111066 C 124.4636,16.376167 103.45,16.082842 98.5,16.004986 78.6591,15.692922 22.343099,17.070642 20,17.925418 c -1.375,0.501608 -3.657139,1.161997 -5.071421,1.46753 l -2.571421,0.555515 0.235486,12.275768 C 13.008701,53.913148 12.971579,77.938338 12.48715,100.5 c -0.259803,12.1 -0.387649,24.7 -0.284102,28 0.103548,3.3 0.244406,8.25 0.313019,11 0.169474,6.79257 0.180527,6.81727 2.733933,6.11027 1.2375,-0.34265 9,-1.07797 17.25,-1.63405 z M 192.61589,129.71744 C 193.01048,129.32285 195.2675,129 197.63148,129 c 5.04944,0 6.29928,-1.59208 6.93083,-8.82874 0.22422,-2.56919 0.9195,-7.50561 1.54507,-10.96981 0.62557,-3.4642 0.84725,-8.48584 0.49261,-11.159196 -0.4657,-3.51062 -0.29199,-4.978254 0.62541,-5.284055 0.87504,-0.291678 1.31972,-3.042105 1.42937,-8.8408 0.39755,-21.024336 2.49679,-58.332073 3.37452,-59.972126 1.55934,-2.91366 1.17615,-3.753949 -2.50941,-5.502865 -2.97917,-1.413709 -4.20439,-1.477677 -8.51163,-0.444388 -2.76732,0.663871 -5.66836,0.962648 -6.44676,0.66395 -3.09273,-1.186793 -3.83028,1.944023 -5.49792,23.33803 -0.49303,6.325 -1.34374,13.525 -1.89046,16 -0.54672,2.475 -1.32712,9.675 -1.73422,16 -0.40709,6.325 -0.89456,12.625 -1.08326,14 -0.1887,1.375 -0.77326,5.807079 -1.29903,9.849065 -0.52576,4.041985 -1.45915,9.773015 -2.07418,12.735605 -0.61503,2.9626 -0.91214,5.73053 -0.66025,6.15094 0.2519,0.42041 0.10735,3.01439 -0.32123,5.76439 -1.09413,7.02062 -0.30837,8.00652 6.35003,7.96744 3.05111,-0.0179 5.87033,-0.35541 6.26492,-0.75 z m 34.29437,-3.28855 c 2.52436,-0.22028 5.9999,-0.64246 7.72342,-0.93819 l 3.13368,-0.53768 0.75603,-8.72651 C 239.30637,107.18897 239.40842,104.45578 240.92164,52 241.60497,28.312589 241.54136,20.201985 240.66517,19.298416 240.02433,18.637545 235.45,17.804813 230.5,17.447901 218.0954,16.553487 218.80791,15.006933 217.1155,46.5 c -0.53202,9.9 -0.99864,19.8 -1.03692,22 -0.1204,6.917836 -0.30486,8.902316 -1.16189,12.5 -0.45856,1.925 -1.1175,8.670324 -1.46429,14.989608 -0.3468,6.319282 -0.82544,11.804972 -1.06367,12.190422 -0.23822,0.38545 -0.65216,4.38917 -0.91987,8.89715 -0.60391,10.16908 0.12597,11.36063 6.38409,10.42216 2.45716,-0.36847 6.53295,-0.85018 9.05731,-1.07045 z m 35.35543,-3.00341 c 6.55692,-0.37184 12.059,-1.14182 12.42822,-1.73923 0.78557,-1.27107 0.43726,-101.180863 -0.35998,-103.258435 C 273.90022,17.297591 271.21707,17 261.4604,17 c -14.33851,0 -13.79804,-0.443523 -14.01364,11.5 -0.70569,39.094406 -1.68596,72.20681 -2.43994,82.41823 -0.5043,6.83003 -0.6693,12.81887 -0.36666,13.30855 0.30263,0.48967 1.7449,0.65983 3.20504,0.37813 1.46014,-0.2817 7.94936,-0.81245 14.42049,-1.17943 z m 35.61112,-3.07937 c 5.84275,-0.34063 11.22274,-1.0937 11.95552,-1.67349 0.97993,-0.77534 1.18156,-2.78912 0.76231,-7.61339 C 310.28113,107.45165 309.74982,99.325 309.41395,93 c -0.33587,-6.325 -0.90254,-11.95 -1.25927,-12.5 -0.35673,-0.55 -0.69488,-4.825 -0.75145,-9.5 -0.23428,-19.362598 -1.75604,-50.952963 -2.51361,-52.180701 -1.0085,-1.634383 -20.57445,-2.534473 -22.0926,-1.016323 -1.52806,1.528062 -0.95181,100.519524 0.59977,103.030024 0.44303,0.71684 1.49206,1.03989 2.33117,0.7179 0.83912,-0.322 6.3061,-0.86415 12.14885,-1.20479 z m 38.76007,-3.92727 c 7.79643,-0.79732 8.92556,-2.40716 7.30771,-10.41884 -0.61086,-3.025 -1.3057,-9.325 -1.5441,-14 -0.2384,-4.675 -1.06699,-11.65 -1.84131,-15.5 -0.77432,-3.85 -1.69205,-12.798232 -2.0394,-19.884961 -0.56967,-11.622397 -0.84655,-13.06445 -2.82567,-14.71673 -1.89525,-1.582268 -1.95575,-1.836302 -0.44411,-1.86504 1.54152,-0.02931 1.75,-1.164991 1.75,-9.533269 0,-12.482992 -0.41973,-12.926554 -12.598,-13.313393 -7.02161,-0.223039 -9.34825,0.0437 -10.29115,1.17983 -1.21031,1.458336 -1.18284,4.368608 0.5583,59.133563 0.2448,7.7 0.89696,15.440302 1.44925,17.200672 0.55228,1.76037 0.9136,7.319898 0.80294,12.354498 -0.15156,6.89556 0.1417,9.37133 1.18873,10.03545 1.33042,0.84388 5.01144,0.71041 18.52681,-0.67178 z M 365.5,113.57516 c 2.2,-0.29244 6.3625,-0.79886 9.25,-1.12539 4.00977,-0.45344 5.25076,-0.99009 5.25323,-2.27173 0.004,-2.21249 -2.83927,-21.321382 -4.11867,-27.67804 -0.55349,-2.75 -1.41649,-8.825 -1.91779,-13.5 -0.50129,-4.675 -1.61159,-13 -2.46733,-18.5 -0.85574,-5.5 -1.75934,-13.18978 -2.00799,-17.0884 -0.62808,-9.847575 -2.2845,-13.350442 -7.10691,-15.029211 -4.64256,-1.616157 -9.56696,-1.737202 -14.53505,-0.35728 -4.42197,1.228236 -5.12784,2.770652 -3.859,8.432434 0.53498,2.387187 1.24729,12.598316 1.58293,22.691399 0.33563,10.093082 1.03855,21.951058 1.56203,26.351058 2.01126,16.904922 2.99162,27.16828 3.00889,31.5 0.0247,6.19964 2.11313,8.37397 7.3531,7.6556 2.20141,-0.3018 5.80256,-0.78799 8.00256,-1.08044 z m 38.5,-4.13869 c 21.78037,-2.65533 29.3106,-3.36254 30.16713,-2.83318 0.45808,0.28311 1.39537,0.1656 2.08287,-0.26113 0.6875,-0.42673 4.175,-0.8057 7.75,-0.84216 3.575,-0.0365 6.95,-0.33767 7.5,-0.66936 0.96735,-0.58338 10.86732,-1.98049 17,-2.39909 1.65,-0.11262 11.1,-0.97757 21,-1.92209 9.9,-0.944533 19.125,-1.821924 20.5,-1.949761 1.375,-0.127838 3.31645,-0.59032 4.31432,-1.027738 0.99788,-0.437418 3.97387,-0.539541 6.61331,-0.226938 2.63944,0.312602 5.2205,0.146851 5.73568,-0.368337 0.81027,-0.810264 19.43628,-2.665727 33.35847,-3.323063 2.48698,-0.117423 4.96198,-0.4777 5.5,-0.800615 0.53802,-0.322916 6.15322,-0.914147 12.47822,-1.313847 6.325,-0.3997 12.24898,-1.120742 13.1644,-1.602315 0.91542,-0.481573 6.24403,-1.175709 11.84136,-1.542524 6.34566,-0.415855 10.34763,-1.111678 10.6303,-1.848289 0.24933,-0.649744 -1.25429,-2.947629 -3.34137,-5.106411 -2.08708,-2.158781 -10.52564,-10.869791 -18.75235,-19.357799 -8.22672,-8.488008 -16.4644,-17.406664 -18.30596,-19.819236 -1.84155,-2.412573 -6.40573,-7.612116 -10.14262,-11.554541 -3.73688,-3.942425 -8.1296,-8.692469 -9.76159,-10.555652 l -2.96726,-3.387606 -77.75116,0.07218 c -59.41955,0.05516 -78.09609,0.358455 -79.21418,1.286387 -1.12522,0.933849 -2.34837,0.948957 -5.29732,0.06543 -5.65519,-1.694335 -11.76011,-1.482777 -12.49526,0.433007 -0.89073,2.321205 -0.73979,5.878455 0.29568,6.968213 0.49647,0.5225 1.17999,4.325 1.51892,8.45 0.33894,4.125 1.07396,11.775 1.63339,17 0.55943,5.225 1.2479,12.2 1.52993,15.5 0.28203,3.3 1.20181,10.275 2.04395,15.5 0.84214,5.225 1.91734,12.85261 2.38934,16.950244 0.94937,8.241966 2.50475,12.059966 4.90078,12.029956 0.86956,-0.0109 7.20602,-0.70557 14.08102,-1.54373 z"
       id="path1" />
  </g>
</svg>
