<?xml version="1.0" encoding="UTF-8" standalone="no"?>
<!-- Created with Inkscape (http://www.inkscape.org/) -->

<svg
   version="1.1"
   id="svg1"
   width="738"
   height="513"
   viewBox="0 0 738 513"
   sodipodi:docname="5.svg"
   inkscape:version="1.4 (86a8ad7, 2024-10-11)"
   xmlns:inkscape="http://www.inkscape.org/namespaces/inkscape"
   xmlns:sodipodi="http://sodipodi.sourceforge.net/DTD/sodipodi-0.dtd"
   xmlns="http://www.w3.org/2000/svg"
   xmlns:svg="http://www.w3.org/2000/svg">
  <defs
     id="defs1" />
  <sodipodi:namedview
     id="namedview1"
     pagecolor="#ffffff"
     bordercolor="#000000"
     borderopacity="0.25"
     inkscape:showpageshadow="2"
     inkscape:pageopacity="0.0"
     inkscape:pagecheckerboard="0"
     inkscape:deskcolor="#d1d1d1"
     inkscape:zoom="1.0958088"
     inkscape:cx="180.68846"
     inkscape:cy="238.18025"
     inkscape:window-width="1920"
     inkscape:window-height="1013"
     inkscape:window-x="2391"
     inkscape:window-y="605"
     inkscape:window-maximized="1"
     inkscape:current-layer="g1" />
  <g
     inkscape:groupmode="layer"
     inkscape:label="Image"
     id="g1">
    <path
       id="path1"
       style="fill:#000000"
       d="m 463.96484,6.0371094 c -0.58403,0.019503 -1.18125,0.2408126 -1.86523,0.6679687 -1.14022,0.7120754 -5.63924,1.1567302 -11.25,1.1113281 C 437.63791,7.7094978 323.85337,7.7238243 310,7.8339844 303.675,7.8842795 288.15,7.93068 275.5,7.9375 262.85,7.944318 248.225,7.9625046 243,7.9785156 237.775,7.9945264 228.1,7.9238227 221.5,7.8222656 199.03183,7.4765379 183.5283,7.5178763 160,7.984375 147.075,8.2406407 135.90807,8.0792406 135.18359,7.625 134.11313,6.9538382 87.097792,6.4340435 81.591797,6.9960938 c -0.0059,0.036817 -0.01141,0.074796 -0.02148,0.1074218 0.04127,0.323655 -0.0826,0.3081045 -0.716796,0.3125 -1.144188,0.00372 -2.287447,0.00348 -3.431641,0.00391 -1.660584,4.743e-4 -3.321838,-8.55e-5 -4.982422,0 -1.589285,7.45e-5 -3.178293,-1.02e-5 -4.767578,0 -1.88962,9.4e-6 -3.780302,-1.7e-6 -5.669922,0 -0.62465,0.011592 -1.247668,0.011354 -1.871094,0 h -3.123047 c -0.615022,0 -1.110279,-0.1213928 -1.488281,-0.3144531 -1.122849,0.081419 -2.603245,0.4029671 -3.52539,0.8964843 -1.252416,0.6702725 -2.077936,0.6702725 -2.492188,0 C 48.743006,6.7739504 34.331329,6.6555453 33.580078,7.8710938 33.283874,8.3503618 29.543287,8.5918691 25.269531,8.40625 16.435722,8.022577 11.091163,9.1363566 8.6074219,11.880859 6.7992637,13.878852 5.9611152,26.228589 6.2226562,47 c 0.06579,5.225 0.032982,38.975 -0.072266,75 -0.8913246,305.08988 -0.8249359,375.60501 0.3554688,378.54688 0.6723502,1.67567 2.6672657,4.26177 4.4335936,5.74804 3.016986,2.53862 3.798233,2.7001 12.886719,2.6543 5.320957,-0.0268 13.87163,-0.55835 19.001953,-1.18164 7.721224,-0.93806 9.473606,-0.89861 10.173828,0.23437 0.622274,1.00686 1.196292,1.08168 2.171875,0.28125 0.804528,-0.66005 4.079729,-0.90856 8.326172,-0.63281 3.85,0.25001 7.9,0.43275 9,0.40625 3.042292,-0.0733 16.609173,-0.16361 20,-0.13281 1.65,0.0146 8.66898,0.0264 15.59766,0.0254 6.92869,-0.001 13.22869,0.21855 14,0.49023 0.77132,0.27168 23.82592,0.69586 51.23242,0.94141 27.4065,0.24556 50.08095,0.69814 50.38867,1.00586 0.30771,0.30771 0.84959,0.3806 1.20313,0.16211 0.96399,-0.59579 10.67813,-0.72964 54.07812,-0.74024 39.5783,-0.01 45.91489,-0.16016 51.5,-1.2207 8.32021,-1.57991 14.43124,-1.76599 18.10156,-0.55273 2.14465,0.70893 5.69844,1.20336 7.89844,1.09961 2.2,-0.10375 8.275,-0.39336 13.5,-0.64454 5.71563,-0.27476 10.59494,-0.0163 12.25,0.64844 2.05957,0.82726 3.1135,0.80441 4.19336,-0.0918 1.39942,-1.16141 15.31101,-0.93523 17.2793,0.28124 1.18494,0.73233 11.6601,0.79869 34.27734,0.21485 10.725,-0.27686 26.7,-0.48464 35.5,-0.46094 8.8,0.0237 17.575,-0.0298 19.5,-0.11914 1.925,-0.0893 16.775,-0.26621 33,-0.39258 28.69427,-0.2235 29.60242,-0.29069 33.25,-2.49804 2.0625,-1.24813 3.75,-2.60553 3.75,-3.01563 0,-0.4101 2.25706,-3.40232 5.01562,-6.65039 2.75857,-3.24807 7.59608,-8.96598 10.75,-12.70508 3.15394,-3.7391 7.64516,-8.6891 9.98047,-11 2.3353,-2.3109 4.248,-4.71335 4.25,-5.33984 0.002,-0.6265 9.79141,-10.9943 21.75391,-23.03906 11.9625,-12.04476 23.775,-24.4815 26.25,-27.63672 2.475,-3.15522 9.39056,-10.62189 15.36719,-16.59375 5.97666,-5.97185 11.25494,-11.24795 11.73047,-11.72461 0.47553,-0.47667 3.40992,-3.94523 6.52148,-7.70703 3.11157,-3.76179 7.84123,-8.88085 10.50977,-11.37696 2.66854,-2.4961 6.15748,-6.51172 7.7539,-8.92187 1.59641,-2.41014 4.33159,-6.06414 6.07813,-8.1211 5.05898,-5.95812 11.73952,-15.71453 12.55273,-18.33398 0.41081,-1.32329 2.66689,-5.58402 5.01367,-9.46875 2.34678,-3.88474 5.01711,-9.28474 5.9336,-12 0.91649,-2.71527 2.71896,-6.74224 4.00586,-8.94922 2.23032,-3.82488 5.40208,-13.22524 6.01758,-17.83203 0.1584,-1.18552 0.74679,-4.18125 1.30664,-6.65625 0.55986,-2.475 1.31259,-9 1.67382,-14.5 0.36123,-5.5 1.12144,-11.48028 1.6875,-13.28906 0.68499,-2.18868 0.6946,-3.69387 0.0312,-4.5 -0.5482,-0.66622 -1.29402,-3.46094 -1.6582,-6.21094 -0.36419,-2.75 -1.03282,-5.9 -1.48437,-7 -0.45154,-1.1 -1.62274,-4.8331 -2.60352,-8.29688 -0.98078,-3.46378 -2.15441,-6.52936 -2.60938,-6.81054 C 728.37316,218.1114 728,216.77229 728,215.41602 728,211.12001 718.7874,195.00897 711.17969,186 c -1.62559,-1.925 -4.43647,-5.975 -6.24805,-9 -6.45619,-10.78059 -10.00191,-15.57437 -15.5293,-21 -10.62828,-10.43261 -12.5643,-12.51211 -14.89257,-16 -1.28499,-1.925 -3.6009,-4.82639 -5.14649,-6.44727 -1.5456,-1.62088 -4.54324,-4.99588 -6.66211,-7.5 -8.16314,-9.64731 -33.85094,-37.217678 -41.4707,-44.509761 -2.89841,-2.773761 -6.06133,-6.250743 -7.02735,-7.726563 C 612.31661,70.93435 599.78728,57.297038 580.5,37.134766 573.9,30.235349 565.575,21.50567 562,17.734375 558.425,13.963081 554.24943,10.212153 552.7207,9.3984375 550.49297,8.2126561 545.08149,7.9093897 525.46484,7.8710938 510.26348,7.8414175 499.89024,7.4076072 498.08594,6.7265625 496.01273,5.9440118 491.21688,5.9182771 481.33984,6.6386719 471.63395,7.3465853 466.97726,7.3306714 465.75,6.5839844 465.12004,6.200706 464.54888,6.0176062 463.96484,6.0371094 Z M 109.5,15.849609 c 9.35,0.03057 17.675,0.04796 18.5,0.03906 0.825,-0.0089 16.53682,0.126467 34.91602,0.298828 26.03419,0.244149 33.51151,0.594972 33.84375,1.591797 0.51064,1.532122 -2.56142,32.61712 -3.92579,39.720703 -1.06077,5.522932 -1.85146,11.414887 -4.22265,31.5 -2.17011,18.38186 -3.41711,27.57409 -4.54297,33.5 -0.52247,2.75 -0.97501,7.3121 -1.00781,10.13867 -0.0924,7.9676 -1.88451,9.502 -11.60938,9.94336 -4.37309,0.19847 -11.55117,0.8165 -15.95117,1.37305 -4.4,0.5566 -8.7594,0.77259 -9.6875,0.48047 -0.9281,-0.29211 -2.5031,-0.0911 -3.5,0.44531 -0.9969,0.53639 -8.5625,1.48102 -16.8125,2.09961 -8.25,0.61859 -16.8,1.33047 -19,1.58203 -2.2,0.25156 -11.2,0.87532 -20,1.38672 -8.8,0.5114 -19.375,1.39447 -23.5,1.96094 -9.692292,1.33101 -26.302215,2.50924 -31.822266,2.25781 -2.376967,-0.10826 -4.835427,0.12002 -5.46289,0.50781 -1.425013,0.88071 -11.764165,1.04827 -12.291016,0.19922 -0.213262,-0.34368 -0.414939,-5.51868 -0.449219,-11.5 -0.03428,-5.98131 -0.07546,-12.225 -0.0918,-13.875 -0.01634,-1.65 0.06328,-4.35 0.177735,-6 0.114457,-1.65 -0.06122,-4.575 -0.390625,-6.5 -0.329404,-1.925 -0.140904,-10.7 0.419922,-19.5 0.560826,-8.8 1.15681,-29.92827 1.324218,-46.951172 0.289088,-29.395883 0.403725,-31.016322 2.25586,-32.246094 2.32852,-1.54608 25.173647,-2.980394 36.830078,-2.3125 7.528469,0.431352 26.115725,0.430252 35,-0.002 2.2,-0.10703 11.65,-0.169252 21,-0.138672 z m 133.65625,0.101563 c 4.56749,0.08303 9.24956,0.644605 10.64648,1.623047 2.22829,1.560755 2.2436,1.728983 1.63477,19.25 C 255.09969,46.545735 254.42728,55.85 253.94531,57.5 c -0.48197,1.65 -1.15903,15.375 -1.50586,30.5 -0.34683,15.125 -0.73324,28.7375 -0.85937,30.25 -0.12612,1.5125 -0.31525,5.5625 -0.41992,9 -0.10467,3.4375 -0.55485,6.82396 -1,7.52539 -0.94387,1.48729 -5.26106,2.32206 -13.66016,2.64258 -3.3,0.12594 -6.98841,0.55577 -8.19531,0.95508 -1.69806,0.5618 -2.5647,0.1589 -3.83594,-1.78125 -1.36897,-2.08932 -1.52774,-4.05519 -0.95117,-11.79883 0.38054,-5.11088 1.03744,-9.96797 1.45898,-10.79297 0.42154,-0.825 0.83994,-6.9 0.93164,-13.5 0.0917,-6.6 0.56049,-13.575 1.04102,-15.5 0.48054,-1.925 0.89567,-8 0.92187,-13.5 0.0262,-5.5 0.3199,-11.623661 0.65235,-13.607422 0.33244,-1.983761 0.76077,-5.808761 0.95312,-8.5 C 229.66891,46.701339 230.30604,41.575 230.89258,38 c 0.58655,-3.575 1.07679,-9.448281 1.08789,-13.050781 0.0115,-3.734596 0.53455,-7.065799 1.21875,-7.75 0.93603,-0.936034 5.38954,-1.331074 9.95703,-1.248047 z M 274.46094,16 c 7.34762,0 11.66827,0.399096 12.11328,1.119141 0.38048,0.615623 0.84334,23.418521 1.0293,50.671875 0.18596,27.253354 0.71379,49.924734 1.17187,50.382814 0.45809,0.45809 1.67522,0.21789 2.70508,-0.53516 1.78247,-1.30338 1.87942,-3.721 2.00976,-50.296873 0.0753,-26.910239 0.47259,-49.470997 0.88282,-50.134766 C 294.89319,16.36543 299.02357,16 308.02344,16 c 14.81454,0 15.208,0.232503 14.82617,8.744141 -0.30839,6.874644 1.10283,46.240303 1.77734,49.591797 0.31397,1.560039 0.69294,5.835038 0.84375,9.5 1.04369,25.364852 1.89864,37.900512 2.6875,39.414062 1.11496,2.13922 -0.37757,5.26154 -3.25,6.79883 -1.12536,0.60227 -6.91873,1.2332 -12.87304,1.40039 -5.9543,0.1672 -11.33393,0.61805 -11.95508,1.00195 -0.62115,0.38385 -2.44638,0.40836 -4.05664,0.0547 -2.76997,-0.60839 -2.94477,-0.94933 -3.22656,-6.32422 C 292.57401,121.93086 292.12236,120.5 291,120.5 c -1.17996,0 -1.43289,1.1008 -1.1875,5.15234 0.30583,5.04952 0.24617,5.17314 -3,6.2168 -1.82162,0.58566 -6.9125,1.57447 -11.3125,2.19727 -19.46054,2.75451 -19.08158,2.92832 -18.10547,-8.31055 0.34657,-3.99045 0.84029,-14.90586 1.09766,-24.25586 0.85961,-31.229155 3.19519,-78.541524 4.10937,-83.25 0.42259,-2.17651 0.81051,-2.25 11.85938,-2.25 z m 60.53711,0 c 6.7574,0 10.93718,1.010547 11.93164,2.882812 0.47264,0.889843 1.13348,7.174117 1.46679,13.964844 0.33326,6.790728 0.88928,12.805637 1.23633,13.367188 0.34706,0.561551 1.25655,10.304622 2.02149,21.652344 0.76494,11.347721 1.61297,23.557812 1.88476,27.132812 2.28306,30.03062 2.28329,29.31583 0.0469,31.23438 -1.34275,1.1519 -3.06469,1.6164 -4.83594,1.30273 -1.51274,-0.26788 -3.98774,0.0148 -5.5,0.62891 -3.82204,1.55204 -5.77324,1.65925 -7.45312,0.4082 -2.6832,-1.99825 -3.66034,-4.77813 -2.54297,-7.23047 0.74591,-1.63709 0.71108,-2.68243 -0.12305,-3.6875 -0.71797,-0.8651 -1.34513,-7.11827 -1.63477,-16.32031 C 331.23784,93.130986 330.816,81.936454 330.55859,76.458984 330.30118,70.981514 329.84036,58.85 329.5332,49.5 329.22605,40.15 328.70775,29.451449 328.38281,25.726562 327.648,17.30297 328.53565,16 334.99805,16 Z M 458.5,16.105469 c 38.24593,-0.164165 82.48248,0.613787 87.4043,1.537109 5.01029,0.939918 4.02556,0.01784 40.0957,37.5625 5.225,5.438594 9.66825,10.429831 9.875,11.091797 0.20676,0.661965 2.90676,3.741878 6,6.84375 3.09325,3.101871 7.97738,8.164371 10.85352,11.25 C 615.60467,87.476253 618.23267,90 618.56836,90 c 0.72242,0 4.04397,3.776991 5.46484,6.214844 1.57813,2.707699 -3.21702,4.498216 -12.5332,4.677736 -4.4,0.0848 -11.6,0.64763 -16,1.25195 -4.4,0.60433 -9.8,1.23746 -12,1.40625 -2.2,0.16879 -10.525,0.80998 -18.5,1.42578 -7.975,0.61579 -16.75,1.76738 -19.5,2.5586 -2.75,0.79123 -11.3,1.70475 -19,2.02929 -7.7,0.32455 -14.9,0.99018 -16,1.47852 -1.1,0.48834 -7.175,1.32935 -13.5,1.86914 -17.12585,1.46158 -42.28991,4.26378 -44,4.90039 -1.74298,0.64886 -3.94891,0.81725 -21.5,1.64453 -7.15,0.33702 -15.475,0.88035 -18.5,1.20703 -16.49458,1.78127 -16.23597,1.93857 -17.76562,-10.70703 C 394.5387,104.20599 393.36066,95.225 392.61523,90 c -0.74543,-5.225 -1.43685,-12.65 -1.53515,-16.5 -0.0983,-3.85 -0.62373,-9.7 -1.16797,-13 -0.54425,-3.3 -1.61214,-12.525 -2.37305,-20.5 -0.7609,-7.975 -1.69173,-16.13047 -2.07031,-18.123047 -0.48778,-2.567337 -0.29582,-3.866203 0.66016,-4.457031 1.36937,-0.846316 13.23665,-1.060627 72.37109,-1.314453 z m -100.18555,0.04297 c 6.08556,-0.205825 17.75116,0.516785 18.7168,1.482421 0.52583,0.525828 1.40942,4.761104 1.96289,9.41211 0.55347,4.651006 1.65992,13.407031 2.45898,19.457031 0.79908,6.05 2.16922,16.85 3.04493,24 0.87571,7.15 1.78311,14.35 2.01757,16 0.23447,1.65 0.72443,7.725 1.0879,13.5 0.36347,5.775 1.27697,12.01839 2.02929,13.87305 3.10532,7.65541 0.67917,10.29877 -9.27343,10.10742 -3.77266,-0.0725 -8.20938,0.30539 -9.85938,0.83984 -1.65,0.53444 -3.73654,1.27146 -4.63672,1.63867 -1.1218,0.45762 -2.25695,-0.21612 -3.60937,-2.14453 -1.63023,-2.32453 -2.08351,-5.16073 -2.60352,-16.31445 -0.34617,-7.425 -1.13905,-20.925 -1.76172,-30 -0.62267,-9.075 -1.26781,-19.2 -1.43555,-22.5 -0.16771,-3.3 -0.7644,-13.170836 -1.32421,-21.935547 -0.55982,-8.76471 -0.75675,-16.358449 -0.4375,-16.875 0.1857,-0.300473 1.59452,-0.472407 3.62304,-0.541015 z m -136.75976,0.662109 c 3.62566,0.223386 4.58104,1.185335 3.91211,3.292969 -0.33784,1.064428 -0.6171,6.314229 -0.6211,11.666015 -0.004,5.351787 -0.41942,11.980469 -0.92187,14.730469 -0.50245,2.75 -1.18603,9.05 -1.51953,14 -2.61817,38.860499 -3.96055,54.0161 -5.47266,61.79883 C 216.4188,124.9384 216,129.29488 216,131.97852 c 0,6.56504 -1.35859,7.66933 -10.19922,8.29101 -12.05918,0.84806 -16.79625,0.85428 -16.87695,0.0215 -0.0421,-0.43453 -0.22761,-1.58073 -0.41211,-2.54493 -0.1845,-0.9642 0.054,-2.9892 0.53125,-4.5 0.47725,-1.5108 1.3709,-7.47109 1.98437,-13.24609 0.61346,-5.775 1.54782,-12.3 2.07618,-14.5 0.52836,-2.2 1.59715,-9.175 2.37695,-15.5 2.07208,-16.806801 3.35084,-26.603569 4.5,-34.5 1.83282,-12.594246 1.9976,-13.891307 3.05273,-24 0.57408,-5.5 1.27199,-10.755411 1.55078,-11.679688 0.58922,-1.953364 3.40991,-2.635625 12.41602,-3.001953 1.84044,-0.07486 3.34613,-0.08227 4.55469,-0.0078 z m 401.42578,90.941403 c 1.53306,-0.026 3.41192,0.0568 5.26758,0.25782 6.11242,0.662 7.19533,1.13983 11.5,5.07617 2.61369,2.39004 5.05451,5.03726 5.42383,5.88086 0.3693,0.84359 4.98043,6.0332 10.24804,11.5332 5.26761,5.5 9.83384,10.7875 10.14649,11.75 0.31265,0.9625 1.18103,1.75 1.92968,1.75 1.97788,0 4.50391,2.83723 4.50391,5.05859 0,1.69055 -0.73437,1.90671 -6.25,1.84571 -3.4375,-0.038 -8.5,0.12031 -11.25,0.35156 -2.75,0.23124 -18.95,0.98775 -36,1.68164 -17.05,0.69388 -31.45,1.62391 -32,2.06641 -0.55,0.44251 -8.65,1.1032 -18,1.46679 -9.35,0.3636 -17.76531,0.87899 -18.70117,1.14649 -0.93586,0.2675 -4.76086,0.66171 -8.5,0.875 -3.73914,0.21329 -9.72383,0.60955 -13.29883,0.88086 -3.575,0.27131 -11.9,0.76919 -18.5,1.10742 -6.6,0.33822 -21.675,1.47085 -33.5,2.51562 -11.825,1.04477 -28.925,2.1568 -38,2.47266 -31.18174,1.08531 -35.13914,1.11395 -35.67188,0.25195 -0.29372,-0.47526 -0.70259,-3.86053 -0.9082,-7.52343 -0.20561,-3.66291 -0.87195,-9.05901 -1.48047,-11.99024 -0.60849,-2.93124 -0.87453,-5.93584 -0.58984,-6.67773 0.28469,-0.74189 0.0184,-2.97478 -0.5918,-4.96289 -0.75953,-2.4749 -0.78375,-3.93891 -0.0801,-4.64258 0.56527,-0.56527 7.05515,-1.47635 14.42383,-2.02344 7.36867,-0.54709 14.17973,-1.42317 15.13477,-1.94727 0.95504,-0.52408 5.45504,-0.9907 10,-1.0371 4.54496,-0.0464 10.96367,-0.48918 14.26367,-0.98243 3.3,-0.49325 9.6,-0.89934 14,-0.90234 4.4,-0.003 10.20829,-0.68538 12.9082,-1.51758 2.69991,-0.83221 6.99503,-1.51367 9.54297,-1.51367 2.54793,0 9.90045,-0.69067 16.33985,-1.53516 8.72719,-1.14452 12.23267,-1.25518 13.77148,-0.43164 1.55465,0.83203 2.44545,0.79086 3.60547,-0.17187 1.46278,-1.214 7.56992,-1.87598 47.83203,-5.17774 8.25,-0.67655 15.51015,-1.55197 16.13477,-1.94531 0.62463,-0.39335 7.95636,-0.93919 16.29101,-1.21289 8.33464,-0.27369 15.92255,-0.89029 16.86328,-1.37109 0.47037,-0.2404 1.65835,-0.37636 3.19141,-0.40235 z m -442.72461,42.14063 -0.65625,5.80469 c -0.36143,3.19182 -0.92419,9.73073 -1.25,14.53125 -0.40798,6.01116 -1.06491,9.11982 -2.11133,9.98828 -0.92452,0.76728 -5.08616,1.35065 -10.6289,1.48828 -5.01012,0.1244 -14.50938,0.64484 -21.10938,1.1582 -21.73734,1.69074 -28.796,2.08129 -47.5,2.6211 -19.610936,0.56598 -29.174551,0.99382 -56.5,2.52539 -22.36129,1.25334 -25.234718,1.22409 -26.164062,-0.25977 -0.430586,-0.6875 -0.662381,-5.94076 -0.513672,-11.67383 0.209481,-8.07602 0.624015,-10.68022 1.835937,-11.5664 0.86033,-0.62909 9.068638,-1.65147 18.242188,-2.27149 9.17355,-0.62002 17.849066,-1.57342 19.279297,-2.11719 1.43023,-0.54377 11.088135,-1.47892 21.460937,-2.07812 C 85.013427,157.44376 97.1,156.74524 101.5,156.49023 c 12.15653,-0.70456 28.65109,-2.55347 31.89844,-3.57617 1.94333,-0.61202 3.34341,-0.54341 4.25,0.20899 0.99942,0.829 1.70427,0.82864 2.70508,-0.002 0.74626,-0.61934 6.6926,-1.35047 13.25,-1.6289 6.5429,-0.27781 15.21735,-0.75185 19.27539,-1.05274 z m 500.52148,7.8125 2.59766,3.89844 c 1.42866,2.14335 4.40368,5.42205 6.61133,7.2871 2.20764,1.86507 4.01367,3.94687 4.01367,4.62696 0,0.68009 0.72075,1.8354 1.60156,2.5664 0.8808,0.731 3.2433,3.79208 5.25,6.80274 2.00669,3.01066 4.32344,6.43391 5.14844,7.60547 8.19579,11.63866 9.08182,14.42383 4.64258,14.58789 -1.17865,0.0436 -10.21666,0.26695 -20.08399,0.49804 -9.86733,0.2311 -18.19233,0.75904 -18.5,1.17188 -0.30767,0.41283 -12.48359,0.84736 -27.05859,0.9668 -14.575,0.11945 -33.7,0.43045 -42.5,0.6914 -8.8,0.26096 -26.8,0.78233 -40,1.15821 -13.2,0.37588 -24.72651,1.05948 -25.61328,1.51953 -0.88678,0.46004 -3.88501,0.47837 -6.66406,0.0391 -2.77905,-0.43928 -5.73755,-0.41549 -6.57422,0.0527 -0.83667,0.46823 -3.46149,0.77841 -5.83399,0.69141 -8.15698,-0.29914 -42.31537,1.39518 -43.31445,2.14844 -0.55,0.41468 -3.75224,0.37016 -7.11719,-0.0996 -3.36496,-0.46976 -7.41496,-0.48823 -9,-0.041 -1.58505,0.44721 -7.15781,0.58849 -12.38281,0.31446 -5.225,-0.27406 -10.625,-0.4272 -12,-0.3418 -1.375,0.0854 -7.78347,0.35639 -14.24219,0.60351 -13.53206,0.51778 -12.04491,1.80683 -13.80273,-11.95312 -3.72837,-29.18516 -4.01651,-27.45827 4.5957,-27.48438 2.7775,-0.008 5.4775,-0.44004 6,-0.95898 0.93044,-0.9241 23.52086,-2.54763 46.54102,-3.34375 6.37588,-0.2205 12.16335,-0.75222 12.86132,-1.18359 0.69799,-0.43138 9.20707,-1.16311 18.90821,-1.625 9.70114,-0.46189 24.61367,-1.27036 33.13867,-1.79688 8.525,-0.52652 24.21757,-1.22502 34.87305,-1.55078 10.65547,-0.32575 19.79466,-0.85034 20.30859,-1.16797 0.51393,-0.31763 3.94636,-0.73108 7.62695,-0.91797 3.68059,-0.18689 10.29141,-0.62661 14.69141,-0.97656 4.4,-0.34995 12.725,-0.80263 18.5,-1.00586 5.775,-0.20324 11.95028,-0.59724 13.72266,-0.87695 1.77237,-0.2797 3.50798,-0.0459 3.85742,0.51953 0.38051,0.61569 2.49713,0.77947 5.27734,0.41016 2.55318,-0.33914 6.21758,-0.82708 8.14258,-1.08399 1.925,-0.25691 8.51248,-0.75613 14.63867,-1.10937 z m -510.99023,29.86328 c 1.00006,-0.3174 2.67305,0.0479 3.71875,0.8125 1.80146,1.31727 1.83541,1.90732 0.62695,11.25391 -0.70148,5.42545 -1.51184,11.98248 -1.79883,14.57031 -0.28699,2.58783 -1.07443,5.16622 -1.75195,5.72851 -2.19942,1.82536 -23.62769,2.91984 -68.58203,3.50586 -16.225,0.21151 -42.101413,0.66926 -57.503906,1.01758 -21.708416,0.49092 -28.284544,0.35412 -29.25,-0.61133 C 14.38789,222.98749 14,218.79621 14,210.36719 c 0,-14.35126 -1.048516,-13.28726 13.775391,-13.95508 13.021223,-0.58662 37.424857,-2.41603 38.935547,-2.91797 0.666358,-0.22141 9.216357,-0.70934 19,-1.08594 9.783642,-0.3766 20.039062,-0.77263 22.789062,-0.8789 2.75,-0.10628 14.9,-0.5458 27,-0.97657 12.1,-0.43077 22.39385,-1.01806 22.875,-1.30468 0.48114,-0.28662 2.83673,-0.65221 5.23438,-0.8125 2.39764,-0.16028 5.17767,-0.54978 6.17773,-0.86719 z M 653.88281,210 c 0.55,0 1.27727,0.45 1.61719,1 0.33992,0.55 0.16719,1 -0.38281,1 -0.55,0 -1.27727,-0.45 -1.61719,-1 -0.33992,-0.55 -0.16719,-1 0.38281,-1 z m 6.74024,0 c 1.3288,0 1.39652,0.27149 0.37695,1.5 -0.68469,0.825 -1.4154,1.5 -1.62305,1.5 C 659.16929,213 659,212.325 659,211.5 c 0,-0.825 0.73071,-1.5 1.62305,-1.5 z m 36.95898,4.53516 c 12.99893,-0.0686 19.6644,0.0442 20.07422,0.33593 0.48662,0.34643 1.64497,2.87891 2.57422,5.62891 0.92926,2.75 2.81377,8.17848 4.18945,12.0625 1.37568,3.88402 2.80199,10.67022 3.16992,15.08203 0.61505,7.37505 0.51745,8.03947 -1.21093,8.24414 -2.27677,0.26961 -17.91357,0.33737 -36.87891,0.15821 -7.7,-0.0727 -73.02418,0.15445 -145.16406,0.50585 -129.15684,0.62921 -131.1781,0.60888 -132.20117,-1.30273 -0.57142,-1.06772 -1.31111,-6.17312 -1.64258,-11.3457 -0.33148,-5.17259 -1.08916,-11.32666 -1.6836,-13.67578 -0.91508,-3.61621 -0.81985,-4.55703 0.61329,-6.14063 1.00451,-1.10997 2.4843,-1.66371 3.64062,-1.36133 1.07168,0.28025 2.54809,0.0108 3.28125,-0.59765 0.87634,-0.7273 11.06572,-1.25289 29.74414,-1.53711 15.62642,-0.23779 32.23711,-0.69719 36.91211,-1.01953 20.27925,-1.39828 36.06189,-1.9836 59,-2.18946 35.61308,-0.31962 67.2329,-1.43806 69.11133,-2.44336 0.89825,-0.48069 2.92897,-0.52077 4.51172,-0.0898 1.58275,0.43093 12.32695,0.62641 23.87695,0.43359 25.74993,-0.42988 45.0831,-0.67941 58.08203,-0.74804 z M 262.05859,226 c 0.58246,0 0.78133,0.45 0.44141,1 -0.33992,0.55 -0.81605,1 -1.05859,1 C 261.19887,228 261,227.55 261,227 c 0,-0.55 0.47613,-1 1.05859,-1 z m -122.64062,3.88281 c 14.42878,0.01 28.91398,0.20509 29.51758,0.57813 1.5456,0.95523 1.30299,11.27324 -0.46289,19.66797 -0.83984,3.99247 -1.74709,7.47951 -2.01758,7.75 -0.53555,0.5355 -70.210328,1.03381 -70.738283,0.50586 -0.177555,-0.17756 -17.52981,-0.36673 -38.560547,-0.41993 -22.800887,-0.0577 -39.401921,-0.50353 -41.123047,-1.10351 l -2.886719,-1.00586 0.5625,-11.17774 c 0.309689,-6.14776 0.676307,-11.31509 0.814454,-11.48242 0.138146,-0.16733 5.138945,-0.49548 11.113281,-0.73047 5.974336,-0.23499 14.460693,-0.65324 18.857422,-0.92968 4.396729,-0.27643 20.880646,-0.53151 36.630859,-0.56641 15.750213,-0.0349 28.85506,-0.28086 29.12109,-0.54687 0.37239,-0.3724 14.7431,-0.54873 29.17188,-0.53907 z M 447.43359,262.5 c 0.35013,-0.0229 0.56641,0.0871 0.56641,0.33789 0,0.53926 55.0002,1.02452 135.25,1.19141 161.50479,0.33587 143.64106,0.0558 144.3418,2.26367 1.0916,3.43933 -3.52031,23.26016 -7.49414,32.20703 -0.97715,2.2 -2.83578,6.475 -4.13086,9.5 -1.29508,3.025 -3.37677,6.91359 -4.62696,8.64062 l -2.27343,3.13868 -22.12696,-0.13868 c -12.17007,-0.077 -22.60047,-0.43264 -23.17773,-0.78906 -0.57727,-0.35642 -5.59797,-0.67207 -11.15625,-0.70117 -5.55828,-0.0291 -10.10547,-0.11225 -10.10547,-0.18555 0,-0.0733 -7.875,-0.29496 -17.5,-0.49218 -9.625,-0.19721 -29.2,-0.59823 -43.5,-0.89258 -14.3,-0.29435 -28.925,-0.75993 -32.5,-1.0332 -3.575,-0.27329 -14.26515,-0.70843 -23.75586,-0.9668 -9.4907,-0.25836 -17.5927,-0.67749 -18.00391,-0.93164 -0.41121,-0.25414 -13.57106,-0.78183 -29.24414,-1.17188 C 462.323,312.0865 446.575,311.53964 443,311.25977 c -3.575,-0.27988 -10.39191,-0.46506 -15.14844,-0.41016 -5.75028,0.0664 -8.9906,-0.31389 -9.67187,-1.13477 -0.56354,-0.67902 -1.22954,-5.27983 -1.47852,-10.22461 C 416.45219,294.54545 415.71893,286.45 415.07031,281.5 413.03202,265.945 413.0307,266.05308 415.03125,264.98242 416.04123,264.44189 423.00268,264 430.5,264 c 7.49732,0 14.50257,-0.46581 15.56641,-1.03516 0.53374,-0.28565 1.01706,-0.44197 1.36718,-0.46484 z M 61.396484,264.34766 C 61.782571,264.41109 62,264.60815 62,264.93164 c 0,1.25498 8.636289,1.46681 9.400391,0.23047 0.284914,-0.46101 2.898548,-0.51518 5.808593,-0.12109 2.910044,0.39406 8.666016,0.5385 12.791016,0.32226 10.30577,-0.54027 29.03901,-0.38274 31.64062,0.26563 1.17749,0.29345 2.40217,0.11111 2.72071,-0.4043 0.31854,-0.51546 2.73041,-0.78317 5.35937,-0.5957 2.62896,0.18746 11.90811,0.62118 20.6211,0.96484 l 15.84179,0.625 -0.66211,11.64063 c -0.36465,6.40221 -1.32403,14.01891 -2.13086,16.92578 l -1.46679,5.28515 -6.71289,-0.26367 c -50.90874,-1.9967 -67.3256,-2.90773 -69.890628,-3.87891 -1.199056,-0.45399 -7.274056,-0.81001 -13.5,-0.79101 -6.225943,0.019 -12.445312,-0.201 -13.820312,-0.49024 -1.375,-0.28924 -11.463704,-0.78704 -22.419922,-1.10546 -12.203029,-0.35467 -20.435499,-1.00567 -21.25,-1.68164 C 13.361763,291.05575 13,287.5575 13,278.98633 V 267.2168 l 2.75,-0.74805 c 1.5125,-0.41135 11.53946,-0.84915 22.283203,-0.97266 10.743744,-0.12352 20.531244,-0.54091 21.75,-0.92773 0.671575,-0.21315 1.227195,-0.28414 1.613281,-0.2207 z m -43.15625,37.03711 c 7.184371,-0.1986 24.301033,0.19744 54.259766,1.23046 22.657401,0.78125 29,1.08441 29,1.38477 0,0.1311 7.78572,0.35643 17.30078,0.50195 9.51506,0.14552 17.57691,0.54176 17.91602,0.88086 0.3391,0.33911 4.25338,0.62291 8.69922,0.62891 10.3122,0.014 15.3176,0.85049 16.01953,2.67969 0.52337,1.36388 -1.71517,18.27749 -3.2793,24.77929 -0.58129,2.41632 -1.26931,2.9979 -3.68555,3.11719 -1.63399,0.0807 -4.06462,-0.2593 -5.40234,-0.75586 -1.33771,-0.49657 -4.71271,-0.83922 -7.5,-0.76172 -8.18625,0.22773 -42.88765,-2.11388 -45.06836,-3.04101 -1.839565,-0.78209 -18.786356,-2.4907 -34.5,-3.47852 -3.575,-0.22473 -12.35,-0.9062 -19.5,-1.51562 -7.15,-0.60942 -16.278123,-1.24379 -20.285156,-1.40821 -4.007033,-0.16441 -7.779557,-0.79127 -8.382813,-1.39453 -1.573555,-1.57355 -1.198214,-21.37002 0.425781,-22.45312 0.295177,-0.19687 1.587632,-0.32834 3.982422,-0.39453 z M 431.25,317.75586 c 1.53889,-0.0166 3.57303,0.10303 5.91797,0.36328 4.21713,0.46806 9.68003,0.47532 12.14062,0.0156 2.54663,-0.47579 5.16501,-0.44852 6.07813,0.0625 0.88228,0.49374 3.96935,0.80022 6.85937,0.68164 2.89001,-0.11857 13.12891,0.0864 22.75391,0.45703 9.625,0.37059 23.8,0.90757 31.5,1.1914 7.7,0.28384 18.95,0.79479 25,1.13672 6.05,0.34193 12.57785,0.68883 14.50586,0.76953 1.92801,0.0807 4.08439,0.50349 4.79297,0.94141 0.71902,0.44439 1.92877,0.26559 2.73828,-0.40625 0.88108,-0.73123 2.53303,-0.93128 4.20703,-0.50781 1.51566,0.38342 7.1311,0.83167 12.47852,0.99609 5.34741,0.16441 14.79741,0.60536 21,0.97852 6.20258,0.37315 18.92734,0.82327 28.27734,1 17.66115,0.33382 28.72566,0.95794 41.5,2.34375 4.125,0.4475 12.45,0.5649 18.5,0.25976 9.98786,-0.50377 15.46869,0.23029 15.49219,2.07422 0.004,0.33687 -1.34219,2.31046 -2.99219,4.38672 -1.65,2.07626 -3,4.06226 -3,4.41406 0,0.3518 -1.2375,2.00321 -2.75,3.66992 -1.5125,1.66671 -5.41603,6.37929 -8.67383,10.47266 -3.25781,4.09336 -6.63281,8.14358 -7.5,9 -0.8672,0.85642 -2.72308,2.88142 -4.125,4.5 -1.40193,1.61858 -3.42693,3.69341 -4.5,4.60938 -2.0686,1.76572 -7.61896,2.8886 -10.95117,2.21679 -1.92078,-0.38724 -18.05833,-1.35867 -55.5,-3.34179 -9.625,-0.50979 -18.85,-1.17162 -20.5,-1.47071 -1.65,-0.29908 -7.95,-0.57914 -14,-0.62304 -6.05,-0.0439 -12.40484,-0.57102 -14.12305,-1.16993 -1.76987,-0.61692 -3.93718,-0.73465 -5,-0.27343 -1.03179,0.44775 -2.3222,0.7057 -2.86718,0.57421 -0.54499,-0.13146 -1.89499,-0.26352 -3,-0.29492 -1.10502,-0.0314 -4.48477,-0.6282 -7.50977,-1.32617 -3.025,-0.69797 -11.76265,-1.33617 -19.41797,-1.41797 -7.65533,-0.0818 -14.7949,-0.61857 -15.86523,-1.1914 -1.07034,-0.57284 -3.35769,-0.82265 -5.08203,-0.55664 -1.72434,0.26601 -7.18477,0.0965 -12.13477,-0.37696 -4.95,-0.4734 -15.3,-1.32509 -23,-1.89258 -7.7,-0.56749 -15.32287,-1.27848 -16.93945,-1.58007 -1.61658,-0.30159 -6.72889,-0.65574 -11.36133,-0.78711 -9.28789,-0.26339 -10.76047,-1.16041 -11.62305,-7.07813 C 422.32955,348.88422 421.63808,343.9 421.03906,339.5 420.44004,335.1 419.52275,329.0365 419,326.02539 c -1.12349,-6.47139 -0.40656,-7.59692 4.57227,-7.16797 1.9399,0.16713 4.06852,-0.1219 4.72851,-0.64258 0.36699,-0.28952 1.41033,-0.44237 2.94922,-0.45898 z M 19.089844,333.57812 c 2.667293,-0.0101 6.386692,0.12527 10.958984,0.41016 7.948057,0.49524 17.721099,0.9042 21.71875,0.9082 3.997651,0.004 7.786482,0.32847 8.417969,0.71875 0.631486,0.39028 6.134606,0.86949 12.230469,1.06641 6.095862,0.19692 15.2291,0.79891 20.294922,1.33789 C 97.776761,338.55851 105.91296,339 110.79297,339 c 4.88001,0 9.20454,0.3315 9.60937,0.73633 0.40484,0.40484 3.51864,0.81646 6.91797,0.91406 3.39933,0.0976 6.85469,0.40728 7.67969,0.68945 0.825,0.28216 4.96165,0.70286 9.19141,0.9336 10.31784,0.56284 12.9558,2.25611 12.47265,8.00586 -0.19506,2.32128 -0.61619,4.8957 -0.9375,5.7207 -0.32132,0.825 -0.87806,4.54099 -1.23633,8.25781 -0.48392,5.02048 -1.11023,7.00348 -2.43945,7.71485 -2.13109,1.14051 -18.62026,1.05747 -19.77734,-0.0996 -0.44345,-0.44345 -5.07302,-1.05271 -10.28906,-1.35547 -5.21605,-0.30276 -11.50938,-0.82762 -13.98438,-1.16602 -4.33393,-0.59256 -5.53482,-0.78661 -11,-1.77734 -1.375,-0.24926 -9.25,-0.99739 -17.5,-1.66211 -8.25,-0.66471 -15.482143,-1.57982 -16.070312,-2.0332 -0.588169,-0.45338 -7.563168,-1.31305 -15.5,-1.91016 C 39.992857,361.37165 32.15,360.47324 30.5,359.9707 c -1.65,-0.50255 -6.237403,-1.21536 -10.195312,-1.58203 -5.090462,-0.4716 -7.369326,-1.11362 -7.785157,-2.19726 -0.953763,-2.48546 0.661595,-21.09664 1.921875,-22.14258 0.365856,-0.30362 1.981144,-0.46059 4.648438,-0.47071 z M 444.875,365.07422 c 7.1087,-0.0114 13.92584,0.34617 14.8125,1.08203 0.71533,0.59362 2.54098,0.83632 4.05664,0.53906 1.51566,-0.29726 7.03086,0.0546 12.25586,0.78321 5.225,0.72867 13.2088,1.37996 17.74219,1.44726 4.5334,0.0673 10.6084,0.59977 13.5,1.18164 2.89161,0.58187 9.75781,1.23954 15.25781,1.46289 5.5,0.22335 14.05,0.91933 19,1.54688 4.95,0.62756 9.9,1.19963 11,1.26953 1.1,0.0699 2.46267,0.42638 3.0293,0.79297 1.59931,1.03473 13.69498,0.017 16.31445,-1.37305 2.00254,-1.06268 2.90228,-0.92175 6.19727,0.97461 3.15007,1.81295 5.46417,2.23075 12.65625,2.28125 4.84103,0.034 12.17773,0.48222 16.30273,0.99805 4.125,0.51583 11.1,1.12884 15.5,1.36133 21.87105,1.15558 37.58123,2.91173 37.29297,4.16796 -0.32642,1.42253 -4.44967,6.11155 -22.78711,25.91602 C 625.7378,421.67538 622,424.80765 622,422.08008 c 0,-0.50574 -3.89346,-0.94752 -8.65234,-0.98242 -4.75887,-0.0349 -12.29637,-0.49774 -16.75,-1.02735 -4.45362,-0.52962 -8.77266,-0.99535 -9.59766,-1.03515 -5.18352,-0.24998 -24.62824,-2.11533 -30.5,-2.92578 -3.85,-0.53141 -8.93811,-0.99641 -11.30664,-1.03321 -2.36854,-0.0368 -5.20307,-0.54638 -6.29883,-1.13281 -1.09576,-0.58643 -5.68265,-1.05311 -10.19336,-1.03711 -4.5107,0.016 -11.12617,-0.45533 -14.70117,-1.04883 -3.575,-0.5935 -8.75,-1.14747 -11.5,-1.23047 -2.75,-0.083 -5.45,-0.4324 -6,-0.77734 -0.55,-0.34494 -6.4,-0.9483 -13,-1.33984 -18.03362,-1.06983 -29.49012,-2.2222 -34.5,-3.47071 -2.475,-0.6168 -7.8549,-1.21534 -11.95508,-1.33008 L 429.58984,403.5 428.75781,400 c -0.4575,-1.925 -1.00787,-5.525 -1.22461,-8 -0.7848,-8.96158 -1.74252,-15.41741 -2.63086,-17.75391 -1.42236,-3.74111 -0.14109,-6.75714 3.41211,-8.03906 2.05269,-0.74058 9.45185,-1.12144 16.56055,-1.13281 z m -430.517578,1.12695 c 0.883932,-0.0344 2.086328,0.0387 3.392578,0.22852 2.6125,0.3796 7,0.895 9.75,1.14453 2.75,0.24953 7.475,0.67735 10.5,0.95117 3.025,0.27381 9.1,0.6582 13.5,0.85352 12.465769,0.55336 24.5,1.83587 24.5,2.61132 0,0.69758 16.905482,2.19857 28.5332,2.53321 3.31774,0.0955 7.06505,0.72635 8.32813,1.40234 1.26309,0.67598 7.16462,1.58894 13.11523,2.0293 5.95061,0.44035 11.42832,1.18829 12.17188,1.66211 0.74357,0.47383 3.82656,1.09225 6.85156,1.37304 l 5.5,0.50977 0.31641,3.85742 c 0.17422,2.12158 -0.43132,9.77158 -1.34571,17 -0.91439,7.22841 -1.84927,15.16758 -2.07812,17.64258 -0.22886,2.475 -1.49811,12.6 -2.82031,22.5 -1.3222,9.9 -2.92368,22.5 -3.5586,28 -1.68433,14.59052 -1.93235,16.38884 -3.17383,23 -0.61968,3.3 -1.56699,6.5625 -2.10546,7.25 -0.70023,0.894 -4.57619,1.21777 -13.60743,1.13477 C 115.18179,501.82097 108.825,501.61467 108,501.42773 107.175,501.24079 87.6,500.84069 64.5,500.53711 41.4,500.23353 20.925,499.83635 19,499.65625 13.338031,499.12653 12.93765,497.28116 12.388672,469.23047 12.122477,455.6289 11.926535,440 11.953125,434.5 c 0.07276,-15.05182 0.774807,-66.87424 0.919922,-67.88086 0.03489,-0.24201 0.600442,-0.38355 1.484375,-0.41797 z m 153.990238,16.2168 c 1.77845,0.10228 3.6867,0.3348 5.29687,0.67383 3.22036,0.67804 7.51608,1.2835 9.54688,1.3457 2.0308,0.0622 4.0196,0.43953 4.41797,0.83789 0.39836,0.39837 1.51896,0.72461 2.49023,0.72461 2.15837,0 3.31235,3.20335 2.25195,6.25 -0.43072,1.2375 -0.8259,4.05 -0.8789,6.25 -0.12583,5.22751 -2.39161,38.70287 -3.01172,44.5 -0.26475,2.475 -0.93481,8.325 -1.49024,13 -0.55543,4.675 -1.40696,13.225 -1.89062,19 -0.48366,5.775 -1.08314,12.75647 -1.33203,15.51367 -0.2489,2.7572 -1.18396,6.43115 -2.08008,8.16406 -1.54926,2.99595 -1.96158,3.16668 -8.35547,3.48633 -3.69835,0.18488 -11.53764,0.20971 -17.42188,0.0547 -13.32191,-0.35097 -13.61639,-0.59958 -12.04492,-10.11523 0.62194,-3.766 1.38402,-12.19143 1.69336,-18.72461 C 145.84839,466.84573 146.50599,459.925 147,458 c 0.49402,-1.925 2.28282,-12.5 3.97461,-23.5 1.69179,-11 3.72722,-24.05 4.52539,-29 0.79817,-4.95 1.68903,-10.8862 1.97852,-13.19141 0.93099,-7.41341 1.98911,-9.04389 6.35351,-9.78125 1.08817,-0.18384 2.73717,-0.21165 4.51563,-0.10937 z m 37.20312,4.64062 c 2.65538,0.14472 6.05473,0.64526 9.11133,1.44141 3.16739,0.825 8.98368,1.5 12.92578,1.5 4.63429,0 7.54573,0.45654 8.23828,1.29102 1.28881,1.55292 0.81136,35.05301 -0.80859,56.70898 -0.59655,7.975 -1.29547,21.7 -1.55274,30.5 -0.52258,17.87493 -0.92591,20.80637 -3.10546,22.61523 -1.70426,1.4144 -3.54601,1.49516 -25.62696,1.10938 l -15.76953,-0.27539 0.62305,-9.72461 c 0.3423,-5.34848 1.26098,-15.57461 2.04297,-22.72461 0.78198,-7.15 1.88891,-18.85 2.45898,-26 0.57007,-7.15 1.68386,-16.49586 2.47461,-20.76953 0.79076,-4.27367 1.44036,-9.89867 1.44336,-12.5 0.003,-2.60133 0.44151,-6.30547 0.97461,-8.23047 0.53311,-1.925 1.1611,-5.75 1.39453,-8.5 0.23342,-2.75 0.46804,-5.3375 0.52344,-5.75 0.0839,-0.62499 1.99697,-0.83612 4.65234,-0.69141 z m 43.91992,4.70118 c 2.15428,0.0243 5.0043,0.16871 8.0293,0.42968 6.05,0.52196 13.87541,1.0635 17.39062,1.20313 9.75594,0.38752 11.06172,1.98065 11.28907,13.78125 0.0988,5.12912 0.065,15.17617 -0.0742,22.32617 -0.13923,7.15 -0.33344,25.91503 -0.43164,41.70117 -0.13676,21.97588 -0.48241,29.00624 -1.47461,30 -1.54952,1.55195 -40.37015,2.30828 -43.82031,0.85352 -2.17618,-0.91758 -3.75374,-4.85514 -2.89453,-7.22461 0.26514,-0.7312 0.72323,-6.73008 1.01953,-13.33008 0.2963,-6.6 1.16294,-18.7486 1.92382,-26.99805 0.76088,-8.24945 1.16956,-15.34665 0.90821,-15.76953 -0.26135,-0.42287 0.0589,-5.82232 0.71289,-12 1.11973,-10.57713 1.37573,-13.68247 2.30469,-28.04687 0.20682,-3.1979 0.77461,-6.18059 1.26171,-6.62891 0.24356,-0.22416 1.7012,-0.32114 3.85547,-0.29687 z m 51.83399,4.25195 c 3.24991,-0.0696 6.53136,0.22164 7.24609,0.93164 0.5225,0.51905 5.89922,1.42945 11.94922,2.02344 6.05,0.594 12.2375,1.57404 13.75,2.17773 2.54279,1.01491 2.75081,1.522 2.75781,6.72656 0.004,3.09577 0.4237,8.32891 0.9336,11.62891 0.50991,3.3 1.19966,16.575 1.53125,29.5 0.33158,12.925 0.8161,24.85 1.07617,26.5 0.26008,1.65 0.64296,7.78875 0.85156,13.64062 l 0.37891,10.63868 -2.63868,1.34375 c -2.52612,1.2854 -26.96069,1.92429 -40.63281,1.0625 -6.47426,-0.40808 -8.86356,-2.47026 -8.02734,-6.92774 0.34105,-1.81795 0.79348,-21.77407 1.00586,-44.3457 0.38776,-41.21154 0.90874,-51.34614 2.75976,-53.66211 0.58979,-0.73794 3.80869,-1.16869 7.0586,-1.23828 z m 49.88476,6.79883 c 2.98982,-0.0881 7.15475,0.0825 12.47266,0.51367 12.34239,1.00068 13.95683,2.13716 12.99609,9.14648 -0.3398,2.47909 -0.16937,5.68414 0.37696,7.1211 0.54633,1.43697 1.24256,7.38347 1.54687,13.21484 0.30431,5.83137 0.73054,10.88955 0.94727,11.24024 0.60746,0.98288 1.9707,31.11281 1.9707,43.54882 0,7.21837 -0.42295,11.60722 -1.21094,12.55664 -0.95065,1.14538 -4.35358,1.48864 -15.8125,1.5918 -19.0762,0.17173 -18.44568,0.71401 -18.55859,-15.99414 -0.0455,-6.7375 -0.30591,-21.025 -0.57813,-31.75 -0.66707,-26.28111 -0.47164,-49.27082 0.42578,-50.14844 0.61985,-0.60616 2.43401,-0.9529 5.42383,-1.04101 z m 38.41407,2.98437 c 1.96487,0.22023 4.44137,0.67562 7.51562,1.3418 2.54089,0.55061 8.28231,1.09781 12.75781,1.2168 9.39237,0.24973 11.79483,1.76322 13.15821,8.28906 0.44327,2.1217 1.51086,6.33242 2.37304,9.35742 0.86218,3.025 1.57308,8.16874 1.58008,11.42969 0.007,3.26095 0.43695,7.31095 0.95703,9 0.52008,1.68905 1.41212,8.69531 1.98242,15.57031 0.57029,6.875 1.6308,17.62437 2.35547,23.88672 1.1675,10.0892 1.14111,11.60381 -0.23242,13.29492 -1.31436,1.61827 -3.07147,1.93912 -11.55078,2.11328 C 415,501.4079 405.8702,501.275 400.21094,501 c -11.4736,-0.55754 -12.04333,-0.90223 -12.39063,-7.5 -0.11581,-2.2 -0.32371,-5.575 -0.46289,-7.5 -0.81121,-11.22012 -2.29435,-42.73537 -2.79883,-59.5 -0.21516,-7.15 -0.70334,-14.24402 -1.08593,-15.76367 -1.04632,-4.15602 0.23624,-5.60208 6.13086,-4.94141 z m 50.40429,5.99219 c 4.90699,-0.0108 11.26018,0.19547 17.49219,0.625 6.6,0.45489 13.125,0.89496 14.5,0.97656 1.375,0.0816 2.99373,0.46253 3.59766,0.84571 0.60393,0.38317 5.32893,0.96003 10.5,1.2832 5.17107,0.32318 10.07734,0.77061 10.90234,0.99414 0.825,0.22353 6.18678,0.67382 11.91406,1 5.72727,0.32618 11.12727,0.96709 12,1.42578 0.87272,0.45868 6.31094,1.16016 12.08594,1.55859 5.775,0.39844 10.95,1.07028 11.5,1.49219 1.22145,0.93698 9.27074,1.87331 24.5,2.84961 6.325,0.40547 12.4,1.22698 13.5,1.82617 1.73939,0.94747 13.89985,2.0822 28.48242,2.65821 6.93589,0.27397 6.55402,2.57126 -1.83984,11.05273 -7.94247,8.02537 -19.69902,20.80083 -28.64258,31.125 -3.3,3.80941 -9.6,10.70029 -14,15.31445 -4.4,4.61416 -8.225,8.68083 -8.5,9.03711 -0.275,0.35628 -1.87471,1.40976 -3.55469,2.33985 -2.72549,1.5089 -8.7575,1.7457 -56,2.20117 -29.12002,0.28074 -54.00073,0.1914 -55.29101,-0.19922 -3.17388,-0.96087 -5.11863,-6.89359 -5.14453,-15.69336 -0.0113,-3.85 -0.43935,-8.575 -0.95118,-10.5 -0.51183,-1.925 -1.20506,-6.875 -1.53906,-11 -1.47699,-18.24166 -2.48461,-27.9647 -3.55273,-34.24805 -1.22444,-7.20291 -1.61513,-15.43762 -0.77149,-16.28125 0.44423,-0.44422 3.90551,-0.67279 8.8125,-0.68359 z m 193.27149,88.5918 c -0.10514,0.10514 -0.17717,0.45463 -0.20118,1.03711 -0.0434,1.05416 0.19311,1.64479 0.5254,1.3125 0.33225,-0.33229 0.36894,-1.19415 0.0801,-1.91602 -0.15961,-0.39887 -0.29916,-0.53873 -0.40429,-0.43359 z" />
    <rect
       style="fill:#000000"
       id="rect1"
       width="74.852829"
       height="72.916985"
       x="223.26793"
       y="205.2" />
  </g>
</svg>
