<?xml version="1.0" encoding="UTF-8" standalone="no"?>
<!-- Created with Inkscape (http://www.inkscape.org/) -->

<svg
   version="1.1"
   id="svg1"
   width="729"
   height="511"
   viewBox="0 0 729 511"
   sodipodi:docname="6.svg"
   inkscape:version="1.4 (86a8ad7, 2024-10-11)"
   xmlns:inkscape="http://www.inkscape.org/namespaces/inkscape"
   xmlns:sodipodi="http://sodipodi.sourceforge.net/DTD/sodipodi-0.dtd"
   xmlns="http://www.w3.org/2000/svg"
   xmlns:svg="http://www.w3.org/2000/svg">
  <defs
     id="defs1" />
  <sodipodi:namedview
     id="namedview1"
     pagecolor="#ffffff"
     bordercolor="#000000"
     borderopacity="0.25"
     inkscape:showpageshadow="2"
     inkscape:pageopacity="0.0"
     inkscape:pagecheckerboard="0"
     inkscape:deskcolor="#d1d1d1"
     inkscape:zoom="0.7778865"
     inkscape:cx="356.09308"
     inkscape:cy="170.9761"
     inkscape:window-width="1920"
     inkscape:window-height="1013"
     inkscape:window-x="2391"
     inkscape:window-y="605"
     inkscape:window-maximized="1"
     inkscape:current-layer="g1" />
  <g
     inkscape:groupmode="layer"
     inkscape:label="Image"
     id="g1">
    <path
       id="path1"
       style="fill:#000000"
       d="M 11.267578,6.1074219 C 11.004283,6.6570334 10.72672,7.2105165 10.378906,7.4648438 6.6886294,10.16324 6.0685969,21.653439 6.0410156,88 c -0.00789,18.975 -0.058399,36.975 -0.1132812,40 -0.054882,3.025 0.037677,28 0.2050781,55.5 0.1674013,27.5 0.1699692,64.175 0.00586,81.5 -0.1641098,17.325 -0.4372952,63.225 -0.6074219,102 -0.1701267,38.775 -0.3942735,77.49038 -0.4980469,86.03516 -0.1037734,8.54479 0.1347145,23.05278 0.53125,32.23828 l 0.7207031,16.70117 3.4355469,4.01172 c 3.5340689,4.12876 5.9431469,5.05295 6.8710939,2.63476 0.335962,-0.8755 1.693773,-1.26452 3.71875,-1.06445 1.7542,0.17333 3.189453,0.41068 3.189453,0.52734 0,0.11665 12.6,0.34027 28,0.4961 57.60711,0.58292 89.10932,0.4335 92.67188,-0.4375 2.04137,-0.49909 4.05466,-0.51564 4.53124,-0.0391 1.46891,1.46891 42.21612,1.02047 47.03711,-0.51758 1.23258,-0.39324 2.80758,-0.35097 3.5,0.0937 0.69242,0.44472 10.93477,0.90115 22.75977,1.01562 28.28555,0.2738 135.52699,0.55406 168.47266,0.43946 15.61974,-0.0543 26.35849,0.29598 26.94336,0.88085 0.55122,0.55126 1.21439,0.58883 1.52929,0.0859 0.71198,-1.13702 5.48825,-1.41541 21.36328,-1.24218 8.25105,0.09 12.58952,0.49646 12.19141,1.14062 -0.33992,0.55 0.11008,1 1,1 0.88992,0 1.37159,-0.39925 1.07031,-0.88672 -1.0681,-1.72823 4.24213,-2.08611 31.1211,-2.09961 14.95504,-0.008 27.42313,-0.39023 27.70703,-0.84961 0.85465,-1.38283 12.60156,0.92405 12.60156,2.47461 0,2.22389 4.68856,1.65764 5.28906,-0.63867 0.78037,-2.98415 5.66455,-2.77535 5.84766,0.25 l 0.13476,2.25 0.4336,-2.25 c 0.36176,-1.87819 1.08428,-2.25 4.36523,-2.25 3.26378,0 3.92969,0.33923 3.92969,2 0,1.17524 0.66723,2 1.61719,2 1.12432,0 1.45748,-0.60908 1.09375,-2 -0.31403,-1.20087 -0.0309,-2 0.70898,-2 0.67769,0 4.57293,-3.68117 8.65625,-8.17969 4.08332,-4.49852 9.7491,-10.46102 12.5918,-13.25 2.8427,-2.78898 7.40216,-7.77031 10.13086,-11.07031 2.72869,-3.3 10.97648,-12.11898 18.33008,-19.59766 7.35361,-7.47869 15.84609,-16.41389 18.87109,-19.85546 3.025,-3.44157 8.425,-9.49387 12,-13.45118 3.575,-3.95731 8.525,-9.5745 11,-12.48047 2.475,-2.90596 6.075,-6.99376 8,-9.08398 3.35259,-3.64032 5.55779,-6.12721 17.31836,-19.53125 2.89538,-3.3 6.43165,-7.575 7.85742,-9.5 1.42576,-1.925 5.91485,-6.875 9.97656,-11 8.58665,-8.72045 13.96841,-15.35296 15.64844,-19.28711 1.25579,-2.94069 1.3787,-3.11859 6.16406,-8.8457 1.66913,-1.9976 3.03516,-4.2545 3.03516,-5.01563 0,-0.76112 1.8,-4.46375 4,-8.22851 2.2,-3.76476 4.0145,-7.13287 4.0332,-7.48438 0.0187,-0.35151 0.90412,-2.43867 1.9668,-4.63867 1.06268,-2.2 1.9481,-4.77075 1.9668,-5.71289 0.0187,-0.94214 0.91175,-3.93892 1.98437,-6.66016 1.07261,-2.72125 2.24489,-8.47549 2.60547,-12.78711 0.36058,-4.31162 1.32376,-9.86484 2.14063,-12.33984 1.78606,-5.41156 1.03707,-29.29871 -1.09766,-35 -0.72078,-1.925 -2.29672,-7.55 -3.5,-12.5 -2.33319,-9.59816 -5.12384,-16.32364 -13.00195,-31.32812 -0.77139,-1.46919 -3.65123,-5.37188 -6.39844,-8.67188 -2.7472,-3.3 -5.59651,-7.43188 -6.33203,-9.18164 -0.73551,-1.74976 -3.54941,-5.08642 -6.25391,-7.41602 -2.7045,-2.3296 -6.64923,-6.46577 -8.76562,-9.18945 -2.11639,-2.72368 -5.87779,-7.03507 -8.35938,-9.58203 -2.48159,-2.54696 -6.30659,-6.84611 -8.5,-9.55274 -2.19341,-2.70663 -6.23828,-7.25083 -8.98828,-10.0996 -2.75,-2.84877 -10.625,-11.17101 -17.5,-18.49414 -6.875,-7.32315 -14.525,-15.452597 -17,-18.064458 -2.475,-2.61186 -5.625,-6.220546 -7,-8.019531 C 612.7342,78.93592 600.75719,66.077762 590.49414,55.591797 588.29115,53.340955 582.39823,47 577.39844,41.5 572.39865,36 563.10968,26.147203 556.75586,19.605469 L 545.20312,7.7109375 541.16211,8.3574219 C 538.9394,8.7128474 536.88558,8.6240653 536.59766,8.1582031 535.82414,6.9066196 450.00395,5.7587781 450.00195,7 450.00111,7.5850617 420.51074,7.3168229 404.28516,6.5839844 398.11701,6.305395 392.867,6.405608 392.61914,6.8066406 392.37129,7.2076732 389.54298,7.4575902 386.33398,7.3632812 383.12498,7.268972 378.25,7.148513 375.5,7.09375 c -3.85353,-0.076739 -61.45863,-0.3537444 -89,-0.4277344 -2.2,-0.00591 -7.825,0.070226 -12.5,0.1699219 -4.675,0.099693 -10.3,0.1009321 -12.5,0.00195 -2.2,-0.098979 -15.7,-0.1558861 -30,-0.1269531 -14.3,0.028933 -41.67083,-0.022229 -60.82422,-0.1132813 -19.15339,-0.091052 -34.97854,0.084107 -35.16797,0.390625 -0.47893,0.7749112 -10.55314,0.4504351 -13.32617,-0.4296874 -1.26173,-0.4004582 -2.84434,-0.2549293 -3.54687,0.328125 -0.87649,0.7274165 -2.41021,0.7385733 -4.96485,0.033203 -2.03336,-0.561438 -4.20113,-0.7095945 -4.81836,-0.328125 C 107.00215,7.7347951 92.631964,7.7784601 90.8125,6.6464844 89.596578,5.8900008 88.442445,5.9611726 86.6875,6.9003906 84.729223,7.9484287 83.792143,7.959921 81.921875,6.9589844 80.641915,6.2739704 79.461231,6.1160528 79.296875,6.6074219 78.945722,7.6572556 42.23349,7.672236 36.75,6.625 35.981423,6.4782173 35.401344,6.3407411 34.912109,6.1875 c -0.420544,-0.010289 -0.841083,-0.020517 -1.261718,-0.029297 -1.99115,-0.034266 -3.981547,-8.542e-4 -5.972657,0.027344 -0.505887,0.00704 -1.011732,0.012516 -1.517578,0.019531 C 26.100898,6.2742046 26.062337,6.4614737 26,6.5 25.773368,6.6400663 25.587335,6.4919664 25.427734,6.2148438 24.487461,6.2268708 23.547724,6.2362048 22.607422,6.2382812 22.205357,6.8757073 21.387888,7 19.544922,7 17.766194,7 16.911799,6.8376362 16.367188,6.1816406 15.202352,6.1654333 14.0374,6.1467251 12.873047,6.1210938 12.337968,6.112741 11.802759,6.1094443 11.267578,6.1074219 Z M 436.25391,15.210938 c 0.61882,-0.0022 1.39393,0.20876 2.4414,0.630859 2.41971,0.975073 37.57563,1.090397 39.30469,0.128906 1.179,-0.655617 12.99943,-0.401679 13,0.279297 9e-4,1.056545 11.39698,0.939576 12.55078,-0.128906 0.5475,-0.507017 5.96715,-0.438038 12.79297,0.164062 8.8832,0.783582 13.0111,0.744839 16.51172,-0.152344 C 537.99312,14.816073 544,16.082802 544,18.482422 c 0,0.707941 1.0125,1.957458 2.25,2.777344 2.84562,1.885318 9.66169,8.683882 16.75,16.705078 8.19928,9.278385 19.23279,21.016637 30.94531,32.919922 5.74526,5.838832 13.09864,13.74153 16.33985,17.5625 3.24121,3.820971 7.87864,8.492706 10.30468,10.382812 2.42603,1.890112 4.41016,3.893172 4.41016,4.449222 0,0.55604 0.90841,1.95735 2.01953,3.11523 2.31092,2.40818 10.82523,11.62949 19.22266,20.82031 3.15814,3.45653 8.70541,9.88516 12.32812,14.28516 3.62272,4.4 7.15559,8.675 7.84961,9.5 0.69403,0.825 2.9073,2.92349 4.91992,4.66406 5.12401,4.43138 4.77918,5.98731 -1.58984,7.16016 -6.41571,1.18146 -28.51373,3.19499 -34.94141,3.18359 -2.58004,-0.005 -4.97837,0.45829 -5.33007,1.02735 -0.3517,0.56906 -2.51534,0.97865 -4.8086,0.91015 -2.29326,-0.0685 -7.31992,0.0927 -11.16992,0.35938 -3.85,0.26668 -11.5,0.78395 -17,1.14843 -5.5,0.36451 -10.675,0.92457 -11.5,1.2461 -0.825,0.32154 -3.3,0.74232 -5.5,0.93359 -2.2,0.19126 -6.025,0.53517 -8.5,0.76563 -2.475,0.23045 -9.9,0.89013 -16.5,1.46484 -6.6,0.5747 -14.7,1.51089 -18,2.08008 -3.3,0.5692 -11.85,1.45824 -19,1.97656 -29.08411,2.10835 -51.09922,4.26181 -52.76172,5.16016 -0.96915,0.52368 -2.81514,0.6881 -4.10156,0.36523 -1.28642,-0.32287 -4.99384,-0.10787 -8.23828,0.47852 -5.94762,1.07495 -11.55092,1.5898 -27.73242,2.54297 -4.85891,0.28622 -9.20636,0.74882 -9.66016,1.02929 -0.4538,0.28046 -5.72036,0.78468 -11.70313,1.1211 l -10.87695,0.61133 -1.21289,-2.66016 c -0.66703,-1.46398 -1.21575,-4.55361 -1.21875,-6.86524 -0.003,-2.31161 -0.4893,-6.90312 -1.08008,-10.20312 -0.59078,-3.3 -1.43753,-8.925 -1.88281,-12.5 -0.44529,-3.575 -1.77733,-13.25 -2.95898,-21.5 -1.18166,-8.25 -2.33101,-18.65711 -2.55469,-23.12695 -0.22368,-4.46983 -1.09183,-11.89484 -1.92969,-16.500003 C 378.26306,88.591276 377.80528,81.146432 378.12109,72 c 0.0475,-1.375 -0.38187,-4.3 -0.95507,-6.5 -0.5732,-2.2 -1.25431,-8.275 -1.51172,-13.5 -0.25742,-5.225 -0.92355,-11.525 -1.48047,-14 -0.55692,-2.475 -1.32186,-7.92838 -1.69922,-12.119141 -0.64554,-7.169023 -0.55202,-7.713844 1.57422,-9.203125 1.59735,-1.118829 2.78115,-1.304076 4.03906,-0.630859 2.53543,1.356917 37.86882,1.211751 41.83789,-0.171875 2.38758,-0.832316 3.5173,-0.832316 4.34961,0 1.46709,1.467087 8.996,1.45321 10.46875,-0.01953 0.42724,-0.427244 0.89094,-0.642373 1.50977,-0.644531 z M 168,16.105469 c 1.375,-0.05179 4.3,0.06246 6.5,0.253906 2.2,0.191442 4.99669,0.413961 6.21484,0.494141 3.42602,0.225517 4.24481,2.876297 3.14258,10.175781 -1.72518,11.424855 -1.91748,13.248183 -2.79297,26.470703 -0.47342,7.15 -1.15172,15.025 -1.50781,17.5 -1.42883,9.93128 -1.66507,11.841255 -2.51758,20.5 -0.48736,4.95 -1.3426,10.35 -1.90234,12 -0.55975,1.65 -1.30412,6.6 -1.6543,11 -1.03019,12.94404 -2.18892,23.51367 -3.41015,31.12891 -0.6287,3.92042 -1.53429,10.89542 -2.01368,15.5 -0.47939,4.60458 -1.31827,10.17109 -1.86328,12.37109 -0.93003,3.75422 -2.10807,20.36402 -2.16797,30.55859 -0.0425,7.23378 -0.97622,7.84565 -13.02734,8.53125 -5.775,0.32855 -10.88341,0.95999 -11.35156,1.4043 -0.46814,0.44431 -2.0638,0.4605 -3.54688,0.0352 -1.48307,-0.42534 -4.92465,-0.37489 -7.64844,0.11328 -2.72377,0.48817 -8.55312,1.11661 -12.95312,1.39648 -4.4,0.27987 -9.575,0.94689 -11.5,1.48047 -1.925,0.53359 -5.975,0.97352 -9,0.97852 -3.025,0.005 -9.359804,0.68277 -14.076172,1.50781 -4.716367,0.82504 -9.666367,1.45805 -11,1.40625 -4.766633,-0.18527 -26.441807,1.29763 -27.378906,1.87305 -0.525412,0.32263 -4.125412,0.6763 -8,0.78515 -3.874587,0.10885 -9.651698,0.45285 -12.837891,0.76563 -5.398446,0.52996 -5.867456,0.40582 -6.880859,-1.81836 -0.780767,-1.71359 -0.784229,-4.42993 -0.01172,-9.63477 0.591778,-3.98725 0.855278,-7.60717 0.585938,-8.04297 C 14.82348,203.90638 14.817302,144.91713 15.386719,89 c 0.469302,-46.085701 1.437948,-68.612803 3.007812,-69.904297 2.075736,-1.707664 30.062653,-3.166386 32.449219,-1.691406 0.635958,0.393044 1.547363,0.471219 2.025391,0.175781 1.054662,-0.651817 51.264799,-0.748228 63.050779,-0.121094 4.63108,0.246419 8.78368,0.224883 9.22656,-0.04883 0.44287,-0.273711 9.70208,-0.657764 20.57813,-0.853515 C 156.60065,16.36089 166.625,16.157259 168,16.105469 Z m 162.7793,0.68164 c 1.41636,-0.04786 2.31255,4.28e-4 2.34765,0.154297 0.0702,0.307738 0.23405,1.563427 0.36328,2.791016 0.12924,1.227589 0.73088,2.829149 1.33789,3.560547 0.9595,1.156128 1.83986,12.364113 3.50977,44.707031 0.21298,4.125 1.09955,14.925 1.9707,24 1.77237,18.4633 2.32919,24.88104 3.16211,36.5 0.31542,4.4 1.07498,14.975 1.68946,23.5 0.61448,8.525 1.23399,18.72701 1.37695,22.67188 0.14297,3.94485 0.56838,8.98954 0.94336,11.20898 1.17422,6.95019 0.36128,7.89242 -7.27149,8.43359 -3.68948,0.26159 -7.83398,0.72759 -9.20898,1.03516 -1.375,0.30758 -3.4,0.82594 -4.5,1.15234 -4.00211,1.18755 -5.25088,-1.32694 -5.96094,-12.00195 -0.36584,-5.5 -0.83602,-11.35 -1.04492,-13 -0.83582,-6.60194 -2.45896,-41.48159 -3.09375,-66.5 -0.92296,-36.375814 -1.25679,-47.840413 -1.95898,-67.021484 -0.72651,-19.845322 -0.90183,-19.512054 10.87109,-20.773438 2.11387,-0.226486 4.05043,-0.370107 5.4668,-0.417969 z m -67.67188,0.04102 c 5.27837,-0.250565 7.43605,0.06529 9.11328,1.333984 l 2.19727,1.66211 -0.21289,89.306641 c -0.16677,69.7305 -0.48628,89.57582 -1.45899,90.5332 -0.7109,0.6997 -5.04296,1.41734 -10.08984,1.67383 -4.86427,0.24721 -9.34294,0.94841 -9.95117,1.55664 -1.52496,1.52496 -2.1264,1.40331 -4.1582,-0.8418 -1.65798,-1.83204 -1.69168,-3.69032 -0.5625,-31.25 0.66032,-16.11616 1.32781,-33.57773 1.48242,-38.80273 0.15461,-5.225 0.48963,-11.075 0.74414,-13 0.2545,-1.925 0.77312,-9.575 1.15234,-17 0.37921,-7.425 0.95273,-18.675 1.27539,-25 0.32267,-6.325 0.72512,-13.3 0.89453,-15.5 0.16941,-2.2 0.51618,-12.1 0.76953,-22 0.25335,-9.9 0.78267,-18.977435 1.17579,-20.171875 0.6265,-1.90355 1.56713,-2.212248 7.6289,-2.5 z m 89.23242,0.199219 c 3.3596,-0.0075 6.95856,0.406747 8.6211,1.248047 1.92047,0.971822 2.73529,2.560261 3.70703,7.234375 0.6849,3.294429 1.26506,8.099086 1.28906,10.675781 0.024,2.576696 0.51143,5.91593 1.08399,7.421875 0.57256,1.505945 1.48706,8.399046 2.03125,15.316406 1.18431,15.053882 1.41334,17.252411 3.33789,32.076172 0.82116,6.325 1.51411,14.50886 1.54101,18.18555 0.0269,3.6767 0.4669,7.78518 0.97852,9.13086 0.51163,1.34569 1.21552,5.53683 1.5625,9.31445 0.34697,3.77762 0.79258,8.44414 0.99023,10.36914 0.19764,1.925 0.61979,6.2 0.93946,9.5 0.31966,3.3 1.04514,9.375 1.61132,13.5 2.19515,15.99303 2.74809,26.43986 1.47461,27.81836 -0.67035,0.72563 -3.87105,1.50351 -7.11328,1.72656 -3.24224,0.22305 -8.65025,0.69117 -12.01758,1.04102 -3.63429,0.3776 -6.36788,0.23856 -6.72656,-0.3418 -0.5832,-0.94363 -1.65002,-12.86507 -3.69141,-41.24414 -0.5341,-7.425 -1.37782,-15.52195 -1.875,-17.99219 -0.49722,-2.47024 -0.70235,-4.81595 -0.45703,-5.21289 0.24532,-0.39694 -0.0141,-6.47498 -0.57617,-13.50781 C 347.81144,97.780824 346.9696,83.099444 346.5,68.771484 c -0.19337,-5.900237 -0.60218,-11.525237 -0.91016,-12.5 -1.16399,-3.684098 -1.5386,-36.627129 -0.43164,-37.960937 0.70261,-0.846584 3.82204,-1.275697 7.18164,-1.283203 z M 205,17.246094 214.5,17.5 214.19336,28 c -0.16869,5.775 -0.46001,16.492321 -0.64844,23.816406 -0.18843,7.324084 -0.83809,16.099084 -1.4414,19.5 C 211.50021,74.717321 210.80817,80.875 210.56445,85 c -0.24372,4.125 -1.14019,14.925 -1.99218,24 -0.852,9.075 -2.00653,22.8 -2.56641,30.5 -0.55987,7.7 -1.70698,20.75 -2.54883,29 -0.84185,8.25 -1.76595,19.95 -2.05273,26 -0.30981,6.53573 -1.00493,11.46734 -1.71289,12.15234 -0.65534,0.63409 -6.39002,1.64659 -12.74414,2.25 -14.19586,1.34812 -15.66876,1.35655 -16.44922,0.0937 -0.34108,-0.55189 0.0857,-5.61439 0.94922,-11.25 1.37878,-8.99794 1.98694,-15.31848 3.00195,-31.24609 0.1402,-2.2 0.71873,-6.475 1.28516,-9.5 0.56642,-3.025 1.06126,-6.625 1.10156,-8 0.0403,-1.375 0.31459,-4.975 0.60937,-8 0.29479,-3.025 0.56852,-6.4 0.60742,-7.5 0.0389,-1.1 0.47888,-4.25 0.97852,-7 1.65876,-9.12964 4.93671,-31.911139 5.4668,-38 0.2873,-3.3 0.73604,-7.575 0.99804,-9.5 0.26199,-1.925 0.94431,-7.775 1.51563,-13 0.57132,-5.225 1.49629,-12.425 2.05664,-16 0.56035,-3.575 1.22572,-8.525 1.47852,-11 1.78754,-17.50109 2.25092,-20.261395 3.54687,-21.099609 0.773,-0.499973 5.68125,-0.793966 10.90625,-0.654297 z m 88.89258,0.0918 c 4.95493,0.08897 9.44568,0.612109 9.98047,1.162109 0.5348,0.55 1.24753,5.275 1.58203,10.5 0.66813,10.436464 2.60636,50.409987 2.98242,61.5 1.91145,56.36876 1.81745,54.17925 3.53906,82.73242 0.68759,11.4032 0.96925,21.46813 0.625,22.36524 -0.4445,1.15832 -1.41695,1.47956 -3.35351,1.10937 -1.49981,-0.28671 -3.63242,-0.0234 -4.73828,0.58594 -1.10585,0.60931 -5.4256,1.19094 -9.60157,1.29101 -4.17597,0.10006 -8.50049,0.46837 -9.60937,0.82032 -3.47492,1.10289 -3.97911,-1.17635 -3.29492,-14.9043 0.35636,-7.15 0.32391,-13.675 -0.0723,-14.5 -0.68572,-1.42796 -0.50057,-45.73591 0.48438,-115.511719 0.25206,-17.857015 0.89899,-33.184093 1.46093,-34.662109 0.99377,-2.613795 1.12849,-2.647852 10.01563,-2.488281 z m -59.46485,0.583984 c 9.62257,-0.189677 9.95465,-0.121901 10.84375,2.191406 1.24128,3.229633 1.38187,14.035799 0.44727,34.386719 -0.4294,9.35 -1.00262,23.975 -1.27344,32.5 -0.62145,19.56161 -2.09369,51.91189 -3.48242,76.5 -0.59021,10.45 -1.07036,23.00935 -1.06836,27.91016 0.002,4.90081 -0.41757,9.69987 -0.93359,10.66406 -0.7131,1.33244 -2.68042,1.88473 -8.19922,2.30273 -22.62935,1.71397 -21.79046,1.71054 -22.40039,0.1211 -0.32123,-0.83702 -0.30244,-3.42903 0.043,-5.75977 0.54927,-3.70634 0.92721,-9.50541 2.03515,-31.23828 0.14019,-2.75 0.51276,-5.675 0.82813,-6.5 0.31537,-0.825 0.85236,-7.8 1.19336,-15.5 0.341,-7.7 1.03362,-16.475 1.53906,-19.5 0.98016,-5.86614 2.70869,-24.17399 4.06055,-43 0.45418,-6.325 1.08059,-13.3 1.39062,-15.5 0.31003,-2.2 1.20719,-13.850239 1.99414,-25.888672 0.78696,-12.038432 1.79562,-22.247888 2.24219,-22.689453 0.44657,-0.441564 5.28016,-0.892373 10.74023,-1 z M 676.71289,168.82617 c 4.00436,-0.0564 9.80791,1.83574 10.95313,4.13281 0.65266,1.30912 1.85733,2.75573 2.67773,3.21485 C 693.08324,177.70693 701,189.16665 701,191.59961 701,193.98593 700.9337,194 690.19922,194 c -7.18892,0 -11.20806,0.40953 -12.02344,1.22461 -0.96464,0.96494 -1.64099,0.9668 -3.17969,0.006 -1.55968,-0.97403 -2.81534,-0.92895 -6.22461,0.22461 -4.48347,1.51704 -22.01369,2.24066 -25.02148,1.0332 -0.98736,-0.39637 -1.75,-0.25383 -1.75,0.32617 0,1.03695 -5.76732,1.58566 -27,2.56836 -6.325,0.29274 -16.675,0.99446 -23,1.56055 -21.31984,1.90813 -43.21487,3.44139 -65.5,4.58594 -2.2,0.11299 -6.25,0.50505 -9,0.87109 -2.75,0.36604 -7.925,0.69783 -11.5,0.73633 -3.575,0.0385 -11.45,0.63748 -17.5,1.33203 -6.05,0.69455 -16.16317,1.36158 -22.47461,1.48242 -6.31144,0.12083 -12.27823,0.64852 -13.25977,1.17383 -0.98154,0.5253 -11.56838,1.16602 -23.52539,1.42383 -11.95702,0.25782 -24.51989,0.69929 -27.91796,0.98047 -3.39807,0.28118 -6.41443,0.13194 -6.70118,-0.33203 -0.84466,-1.36668 -2.60037,-13.42061 -2.07812,-14.26563 0.26325,-0.42595 3.51009,-1.06665 7.2168,-1.42383 3.70671,-0.35719 7.41523,-0.91965 8.24023,-1.25 2.37899,-0.95261 4.59224,-1.19074 20.30664,-2.17773 8.59139,-0.5396 15.40829,-1.42835 16.23828,-2.11719 0.78675,-0.65295 2.15262,-0.90972 3.03711,-0.57031 0.88449,0.33941 5.72865,-0.0598 10.76367,-0.88867 5.03501,-0.82887 15.9043,-1.92779 24.1543,-2.44141 8.25,-0.51362 17.925,-1.39562 21.5,-1.95898 5.53029,-0.87148 12.95125,-1.43602 28.5,-2.16993 1.65,-0.0779 9.975,-0.76539 18.5,-1.52734 8.525,-0.76195 18.98734,-1.55975 23.25,-1.77344 4.26266,-0.21369 8.31266,-0.83739 9,-1.38672 0.68734,-0.54933 6.425,-1.28581 12.75,-1.63671 6.325,-0.35091 14.2,-0.86411 17.5,-1.14063 3.3,-0.27652 8.30854,-0.66081 11.13086,-0.85352 2.82231,-0.1927 5.52231,-0.58915 6,-0.88085 1.02637,-0.62679 18.45899,-2.03519 23.0625,-1.86329 1.75674,0.0656 3.44564,-0.28563 3.75195,-0.78125 0.30631,-0.49561 1.45817,-0.66718 2.56055,-0.3789 1.10238,0.28828 2.68108,-0.0365 3.50781,-0.72266 0.89861,-0.74576 2.87232,-1.02569 4.90821,-0.69531 2.01101,0.32634 4.1096,0.0394 5.125,-0.70313 0.69558,-0.50862 1.83123,-0.74487 3.16601,-0.76367 z M 706.5,201.5 l 3.10938,6.5 c 3.31416,6.92666 6.26645,14.88004 7.0664,19.03711 0.79633,4.13827 -2.25847,4.8979 -21.67578,5.38672 -32.00948,0.80581 -61.33441,1.62693 -76,2.1289 -42.07771,1.44023 -66.73959,1.67582 -67.37695,0.64454 -0.46261,-0.74851 -1.72229,-0.63592 -4.12305,0.36718 -2.57082,1.07415 -9.92857,1.57514 -28.72852,1.95899 -13.89975,0.2838 -31.12148,0.78471 -38.27148,1.11328 -7.15,0.32857 -28.64953,0.77476 -47.77734,0.99023 -27.35945,0.3082 -34.86129,0.12348 -35.16797,-0.86718 -1.07746,-3.48043 -1.27925,-10.26936 -0.36524,-12.27539 1.59472,-3.50004 4.20164,-4.29406 19.81055,-6.03907 23.6954,-2.64905 31.0461,-3.26572 40.00586,-3.35742 4.67863,-0.0479 10.07863,-0.54475 12,-1.10351 1.92137,-0.55876 10.6356,-1.25336 19.36328,-1.54297 8.72769,-0.28961 18.85269,-0.74169 22.5,-1.00391 12.92439,-0.92919 24.73294,-1.60854 32.63086,-1.87891 15.2135,-0.5208 42.8158,-2.67229 58.5,-4.55859 8.0553,-0.96879 25.55065,-1.84244 49.30664,-2.46289 8.14364,-0.2127 15.34364,-0.81781 16,-1.3457 1.36357,-1.09669 7.6893,-1.48412 26.19336,-1.60547 z m -546.69922,18.2793 c 0.85322,0.31052 1.19755,1.89123 1,4.58984 -0.4381,5.98438 -3.11469,7.00272 -19.30078,7.34375 -7.15,0.15064 -18.85,0.70458 -26,1.23047 -7.15,0.52589 -18.175,1.23273 -24.5,1.57031 -13.146494,0.70168 -21.744622,1.28898 -27.5,1.87891 -2.2,0.2255 -13.779291,0.73602 -25.732422,1.13476 -19.304875,0.64398 -21.801863,0.54845 -22.339844,-0.85351 C 14.488751,234.22688 15.813594,233 19.392578,233 c 1.800874,0 3.56722,-0.29378 3.925781,-0.65234 0.35856,-0.35856 3.69541,-0.80683 7.416016,-0.9961 30.34568,-1.54375 43.477333,-2.43848 47.765625,-3.25586 14.896071,-2.8393 32.99151,-4.1457 35.54688,-2.5664 0.64701,0.39988 1.55257,0.11986 2.01171,-0.62305 0.45914,-0.74291 2.54681,-1.48011 4.63868,-1.63672 9.04045,-0.67683 14.87616,-1.53388 15.85546,-2.33008 0.57862,-0.47042 1.92862,-0.63799 3,-0.37304 1.07138,0.26495 5.77227,0.0882 10.44727,-0.39063 4.675,-0.4788 9.08506,-0.65697 9.80078,-0.39648 z m -7.74609,16.53125 c 1.94844,-0.0732 3.62457,-0.0303 4.55664,0.14453 3.15222,0.59136 3.38867,0.90461 3.38867,4.46875 0,6.1784 -1.10287,6.55149 -19.9043,6.75781 -9.12762,0.10017 -31.4457,0.47125 -49.5957,0.82422 -60.506693,1.1767 -72.704904,1.12718 -73.251953,-0.29883 -0.27284,-0.71122 -0.244556,-1.5445 0.0625,-1.85156 0.307055,-0.30705 7.00161,-0.75028 14.875,-0.98438 C 40.058938,245.13699 48.075,244.65404 50,244.29688 c 1.925,-0.35717 8,-0.77437 13.5,-0.92774 5.5,-0.15337 16.907158,-0.74918 25.349609,-1.32226 8.442452,-0.57275 15.689501,-0.83206 16.103511,-0.57618 0.41402,0.25588 1.54105,-0.11287 2.50586,-0.81836 1.11343,-0.81416 3.99925,-1.16337 7.89844,-0.95703 5.77027,0.30535 13.04397,-0.36999 30.50391,-2.83593 2.02418,-0.28589 4.24492,-0.47566 6.19336,-0.54883 z m 558.37695,2.69726 c 1.48371,0.11812 2.94559,0.40055 4.30274,0.8418 3.53805,1.15033 4.39289,1.9535 5.20117,4.88086 1.11577,4.04098 0.42636,8.72556 -1.52344,10.34375 -1.29284,1.07296 -10.65937,1.44242 -50.1875,1.98633 -8.40117,0.1156 -15.51479,0.59885 -15.80859,1.07422 -0.64798,1.04845 -1.83365,1.11558 -2.79297,0.15625 -0.39021,-0.3902 -56.17303,-0.61213 -123.96289,-0.49219 -130.80965,0.23145 -125.65907,0.40958 -127.07422,-4.38086 -1.12725,-3.81585 2.38209,-5.669 10.58789,-5.5918 3.98679,0.0375 7.73724,-0.33679 8.33398,-0.83203 0.59673,-0.49525 1.96441,-0.91208 3.03907,-0.92578 32.74544,-0.41884 66.79384,-1.12994 80.45312,-1.68164 9.625,-0.38875 29.2,-0.79603 43.5,-0.9043 14.3,-0.10827 27.125,-0.46902 28.5,-0.80078 1.375,-0.33176 19.15,-0.85376 39.5,-1.16016 20.35,-0.3064 42.175,-0.74794 48.5,-0.98242 6.325,-0.23448 18.025,-0.48855 26,-0.56445 7.975,-0.0759 16.525,-0.44554 19,-0.82031 1.44231,-0.2184 2.94793,-0.2646 4.43164,-0.14649 z m -562.3125,14.02735 c 5.39262,0.085 8.19513,0.61874 8.57227,1.60156 0.34527,0.89976 0.16945,2.36226 -0.39063,3.25 -0.85352,1.35285 -3.16178,1.61328 -14.25586,1.61328 -7.27995,0 -13.39827,-0.26068 -13.5957,-0.58008 -0.19742,-0.31938 -3.86672,-0.45662 -8.1543,-0.30469 -4.28758,0.15194 -18.36992,0.29722 -31.29492,0.32422 -12.925,0.027 -24.175,0.0788 -25,0.11524 -0.825,0.0364 -11.096743,0.15772 -22.826172,0.26758 -16.562468,0.15512 -21.569198,-0.0933 -22.414062,-1.11133 -0.865832,-1.04326 -0.289057,-1.30874 2.826172,-1.30274 9.228742,0.019 29.155001,-0.72724 31.914062,-1.19531 1.65,-0.27992 5.426576,-0.11866 8.392578,0.35938 2.966003,0.47803 5.782362,0.62978 6.257813,0.33593 0.97315,-0.60144 28.445802,-1.66509 33.849609,-1.31054 4.51726,0.29638 5.88197,0.23517 22,-0.97657 10.7429,-0.80764 18.72652,-1.17089 24.11914,-1.08593 z M 574.94141,261 c 0.58246,0 1.05859,0.45 1.05859,1 0,0.55 -0.19887,1 -0.44141,1 -0.24254,0 -0.71867,-0.45 -1.05859,-1 -0.33992,-0.55 -0.14105,-1 0.44141,-1 z m 95.35937,2.48438 c 0.32722,-0.0473 0.69283,0.0263 1.01758,0.23242 1.58948,1.00884 34.81536,1.30692 36.56445,0.32812 1.76304,-0.98661 9.1917,0.63943 10.97657,2.40235 1.11367,1.09999 1.1508,2.67251 0.20703,8.69726 -1.85389,11.83461 -3.21557,17.23944 -4.80274,19.05664 -1.25633,1.43843 -3.32676,1.68396 -13.38086,1.57813 -6.54241,-0.0689 -12.11985,-0.34836 -12.39258,-0.6211 -0.43068,-0.43068 -32.61101,-1.44775 -39.49023,-1.24804 -1.375,0.0399 -9.475,-0.36469 -18,-0.89844 -8.525,-0.53375 -25.85,-1.07848 -38.5,-1.21094 -13.36123,-0.1399 -23.73338,-0.66896 -24.75,-1.26172 -1.22128,-0.71208 -2.3149,-0.66728 -3.62109,0.14844 -1.02942,0.64289 -2.26692,0.79104 -2.75,0.32812 -0.48308,-0.4629 -13.02891,-1.11357 -27.87891,-1.44531 -32.90098,-0.73498 -57.42563,-1.47174 -76,-2.28125 -7.7,-0.33558 -19.73575,-0.73555 -26.74609,-0.88867 -7.01033,-0.15312 -13.08533,-0.45305 -13.5,-0.66797 -0.41466,-0.21491 -3.44979,-0.48002 -6.74414,-0.58789 -3.57561,-0.11708 -6.55518,-0.7622 -7.39454,-1.60156 -1.97908,-1.97908 -2.83058,-15.98263 -1.03906,-17.08985 0.72692,-0.44926 30.5949,-0.98396 66.37305,-1.1875 35.77815,-0.20353 66.57737,-0.77858 68.44336,-1.27734 2.22575,-0.59492 4.0871,-0.53334 5.41211,0.17578 1.39859,0.74803 18.49988,0.97503 55.60742,0.73828 29.47315,-0.18807 57.50114,-0.2465 62.2832,-0.1289 5.01822,0.12341 8.95796,-0.21178 9.31836,-0.79492 0.17172,-0.27785 0.45989,-0.44687 0.78711,-0.49414 z M 144.5,265.43164 c 1.65,-0.20483 5.18897,-0.0955 7.86328,0.24219 l 4.86133,0.61328 -0.54492,4.07227 c -0.30033,2.23914 -1.33809,4.64867 -2.30469,5.35546 -2.00369,1.46514 -9.42339,1.56347 -13.875,0.1836 -1.65,-0.51193 -3.7861,-0.73991 -4.74805,-0.50782 -0.96196,0.23211 -1.93755,0.11697 -2.16797,-0.25585 -0.23042,-0.37283 -12.49432,-0.79276 -27.25195,-0.9336 C 91.574405,274.06033 78.825,273.74527 78,273.50195 c -0.825,-0.24333 -9.15,-0.69261 -18.5,-0.99804 -9.35,-0.30543 -18.575,-0.71178 -20.5,-0.9043 -1.925,-0.19252 -7.325,-0.6543 -12,-1.02539 -10.115165,-0.80291 -11,-1.04877 -11,-3.04688 0,-1.31491 1.324666,-1.44251 9.25,-0.89648 5.0875,0.35051 10.686619,0.57871 12.443359,0.50781 1.756739,-0.0709 3.476548,0.32659 3.820313,0.88281 0.343765,0.55622 1.122719,0.70374 1.730469,0.32813 1.042031,-0.64401 7.371925,-1.06935 24.755859,-1.66406 4.125,-0.14111 8.244605,0.0886 9.154297,0.51172 0.909692,0.42317 4.22788,0.29467 7.375,-0.28711 4.060479,-0.75062 6.034757,-0.7465 6.796875,0.0156 1.236456,1.23646 5.32604,1.44453 6.029297,0.30664 0.260908,-0.42216 10.301501,-0.916 22.310551,-1.09765 12.00905,-0.18164 23.18398,-0.49829 24.83398,-0.70313 z M 29.148438,278.16797 c 6.699741,0.16686 13.650707,0.69493 14.658203,1.43164 1.253189,0.91636 2.095641,0.85452 3.832031,-0.2832 1.57604,-1.03266 2.76027,-1.17309 4.050781,-0.48243 1.002639,0.53654 3.853162,0.81477 6.335938,0.61914 2.482776,-0.19562 5.144053,0.0331 5.912109,0.50782 0.795095,0.49136 2.453715,0.46114 3.851562,-0.0703 1.533264,-0.58294 2.88449,-0.57591 3.59961,0.0176 0.886208,0.73549 41.492118,1.81546 77.886718,2.07227 3.34863,0.0236 5.38026,3.92663 3.68945,7.08594 -1.14052,2.13107 -1.92145,2.16818 -14.46484,0.68945 -4.4,-0.51871 -14.525,-1.08872 -22.5,-1.26563 -7.975,-0.17691 -18.775,-0.83426 -24,-1.46093 -5.225,-0.62667 -15.575,-1.54572 -23,-2.04297 -17.539922,-1.17466 -20.982441,-1.50193 -24,-2.28321 -1.375,-0.35599 -8.020454,-0.86333 -14.767578,-1.12695 C 17.955539,281.09651 16,280.72977 16,278.9082 c 0,-0.7116 6.448696,-0.90709 13.148438,-0.74023 z M 15.5,287.5 l 7,0.30859 c 3.85,0.16956 9.925,0.72343 13.5,1.23047 3.575,0.50705 10.242749,0.93052 14.816406,0.94141 4.573658,0.0109 9.087918,0.43355 10.033203,0.93945 0.945285,0.5059 8.340125,1.15408 16.431641,1.43946 8.091516,0.28537 15.086179,0.74968 15.544922,1.0332 0.458743,0.28352 11.373108,0.77285 24.253908,1.08594 34.71174,0.84371 35.17611,0.96132 34.7207,8.83398 -0.29798,5.15117 -0.3253,5.1889 -3.83594,5.48438 -1.94466,0.16368 -3.78847,0.0475 -4.0957,-0.25977 -0.47979,-0.4798 -21.57091,-3.18542 -25.86914,-3.31836 -0.825,-0.0255 -6.9,-0.77605 -13.5,-1.66797 -6.6,-0.89191 -15.825,-2.04989 -20.5,-2.57422 -4.675,-0.52433 -11.2,-1.40593 -14.5,-1.95898 -3.3,-0.55304 -9.375,-1.02277 -13.5,-1.04297 -4.125,-0.0202 -10.875,-0.49819 -15,-1.0625 -4.125,-0.56431 -9.525,-1.23542 -12,-1.49219 -14.739705,-1.52917 -14.14008,-1.323 -13.804688,-4.77539 z m 416,5.4707 c 0.55,0.11383 5.725,0.39084 11.5,0.61524 5.775,0.2244 14.325,0.68888 19,1.0332 4.675,0.34434 9.85,0.51337 11.5,0.375 1.65,-0.13842 4.2375,-0.22009 5.75,-0.17969 5.42129,0.14485 6.27594,0.1582 8.20312,0.125 1.07467,-0.0185 2.49942,-0.48583 3.16602,-1.03906 0.86784,-0.72025 1.39678,-0.42292 1.86328,1.04688 0.66058,2.08131 1.6585,2.57783 2.82813,1.4082 0.75952,-0.75953 24.40668,-0.56886 26.90234,0.2168 0.94172,0.29646 2.60205,0.0624 3.68945,-0.51954 1.38627,-0.74186 2.17171,-0.74367 2.62891,-0.004 0.35863,0.58028 2.9733,0.9878 5.81055,0.90429 10.15933,-0.29913 63.20814,1.08772 65.6582,1.7168 1.375,0.35305 2.97354,0.74472 3.55273,0.86914 1.25457,0.26952 36.91797,1.3508 64.94727,1.96875 25.57717,0.56388 33.82289,1.11417 38.16406,2.54688 3.11479,1.02797 3.42989,1.44676 2.85547,3.80078 -0.35504,1.45494 -2.52939,5.95935 -4.83203,10.01172 -3.59345,6.32402 -4.75424,7.56302 -8.1875,8.73633 -4.25243,1.45326 -12.69122,1.87128 -13.875,0.6875 -0.3901,-0.39015 -2.4532,-0.58353 -4.58398,-0.42969 -4.89389,0.35335 -47.29474,-2.93468 -56.54102,-4.38477 -1.65,-0.25877 -10.875,-0.68514 -20.5,-0.94531 -9.625,-0.26016 -19.3,-0.69539 -21.5,-0.96875 -2.2,-0.27336 -8.725,-0.74807 -14.5,-1.05469 -5.775,-0.30662 -13.2,-0.95837 -16.5,-1.44726 -3.3,-0.4889 -9.15,-0.90468 -13,-0.92578 -12.20023,-0.0668 -33.5,-1.41686 -33.5,-2.12305 0,-0.37374 -6.8625,-0.76238 -15.25,-0.86328 -8.3875,-0.10089 -17.05,-0.38663 -19.25,-0.63477 -3.71524,-0.41904 -18.73852,-1.53395 -28,-2.07812 -12.22612,-0.71836 -29.36567,-2.66429 -31.76367,-3.60547 -3.15258,-1.23734 -4.00295,-3.60919 -3.55274,-9.91016 L 404.5,293.5 l 12,-0.0937 c 6.6,-0.051 12.45,-0.21556 13,-0.36719 0.55,-0.1516 1.45,-0.18218 2,-0.0684 z m -414.638672,7.8711 c 0.914312,-3.3e-4 2.176825,0.34138 3.916016,0.62109 1.25273,0.20148 6.855681,0.64979 12.451172,0.99609 5.595491,0.34631 10.655561,1.0291 11.24414,1.51758 0.588579,0.48848 7.135629,1.17492 14.548828,1.52344 7.4132,0.34852 14.722526,1.11135 16.244141,1.69531 1.521614,0.58392 4.793002,0.83361 7.267578,0.55469 2.474575,-0.27892 4.742247,-0.11233 5.041016,0.37109 0.298769,0.48342 2.734366,0.87891 5.412109,0.87891 2.677742,0 8.164102,0.45018 12.191402,1 4.0273,0.54982 8.69231,1.14134 10.36719,1.31445 1.67487,0.17311 3.55553,0.62913 4.17774,1.01367 0.62221,0.38455 4.8752,0.6935 9.45312,0.6875 4.57792,-0.006 9.67422,0.25592 11.32422,0.58204 1.65,0.32611 4.34387,0.66314 5.98633,0.74804 2.11167,0.10917 3.09728,0.73523 3.36719,2.13672 0.49631,2.57713 -1.71251,22.27617 -2.86133,25.51758 -0.48733,1.375 -1.36826,9.25 -1.95703,17.5 -0.58877,8.25 -1.95949,20.175 -3.04688,26.5 -1.08738,6.325 -1.97942,13.79613 -1.98242,16.60156 -0.003,2.80542 -0.46104,6.40547 -1.01758,8.00196 -0.55654,1.59648 -1.6663,8.9773 -2.46484,16.40039 -0.79854,7.42309 -1.9022,17.09609 -2.45313,21.49609 -0.55094,4.4 -1.23419,11.77069 -1.51953,16.37891 -0.28534,4.60822 -1.00653,8.96468 -1.60156,9.68164 -0.59503,0.71697 -1.24355,5.13366 -1.44141,9.81445 -0.22271,5.26876 -1.01001,9.8793 -2.0664,12.10547 l -1.70508,3.59765 -20.61914,-0.43164 C 93.777427,499.40948 82.25,499.20069 79.5,499.18359 c -2.75,-0.0171 -16.7,0.0472 -31,0.14258 -14.3,0.0954 -27.435392,-0.24879 -29.189453,-0.76562 -2.123469,-0.62567 -3.445163,-1.79527 -3.955078,-3.5 C 13.998465,490.52384 13.72212,450.90725 14.615234,389 c 0.218201,-15.125 0.303122,-32 0.1875,-37.5 -0.115621,-5.5 -0.232632,-19.225 -0.257812,-30.5 -0.03814,-17.07611 -0.42653,-20.15723 2.316406,-20.1582 z M 407.5,317.5 h 10 c 5.5,0 14.95,0.34719 21,0.77148 21.32931,1.49586 24.14727,1.64818 40,2.17383 8.8,0.2918 20.95,1.02327 27,1.625 6.05,0.60173 13.925,1.22374 17.5,1.38086 3.575,0.15711 6.725,0.37237 7,0.47852 0.275,0.10615 3.425,0.36295 7,0.57226 3.575,0.2093 11.675,0.89213 18,1.51563 6.325,0.62351 14.70159,1.30127 18.61523,1.50586 3.91365,0.20459 8.30768,0.66972 9.76368,1.03515 1.54169,0.38694 3.24154,0.1722 4.07031,-0.51562 0.97819,-0.81182 1.997,-0.87503 3.25976,-0.19922 1.01041,0.54075 7.2272,1.28251 13.81446,1.64648 6.58725,0.36397 12.65156,0.91808 13.47656,1.23243 0.825,0.31435 4.65,0.6236 8.5,0.6875 3.85,0.0639 19.26465,0.75485 34.25586,1.53515 23.96611,1.24744 27.49874,1.64189 29.25,3.27344 1.82483,1.70009 1.86419,2.05111 0.47461,4.17187 -0.83415,1.27308 -6.36558,7.32966 -12.29297,13.46094 C 669.1137,363.23749 666.92902,365 664.37109,365 c -1.67095,0 -3.23686,-0.19977 -3.48047,-0.44336 -0.24359,-0.2436 -4.70544,-0.70882 -9.91601,-1.03516 -11.77939,-0.73772 -24.36601,-2.32902 -28.97852,-3.66406 -1.92688,-0.55772 -5.70683,-0.75623 -8.40039,-0.43945 -2.69356,0.31679 -5.40075,0.15873 -6.01562,-0.35156 -0.61487,-0.5103 -9.40686,-1.4394 -19.53906,-2.06446 -10.13221,-0.62507 -19.20719,-1.5552 -20.16602,-2.06836 -0.95884,-0.51315 -4.35993,-0.94117 -7.55859,-0.95117 -3.19866,-0.01 -9.86641,-0.4437 -14.81641,-0.96484 -4.95,-0.52114 -11.925,-1.0395 -15.5,-1.15235 -3.575,-0.11285 -7.06701,-0.63782 -7.75977,-1.16601 -0.69276,-0.52822 -3.01431,-0.72506 -5.1582,-0.4375 -2.1439,0.28755 -4.27688,0.14752 -4.74023,-0.3125 -0.46334,-0.46002 -6.23176,-1.11784 -12.82032,-1.46094 -6.58856,-0.34309 -12.54648,-1.09383 -13.23828,-1.66797 -0.6918,-0.57414 -2.36054,-0.76616 -3.70898,-0.42773 -1.34843,0.33844 -2.73111,0.16335 -3.07227,-0.38867 -0.34117,-0.55202 -3.4055,-1.03608 -6.81054,-1.07618 -3.40504,-0.0401 -8.66641,-0.49268 -11.69141,-1.00585 -3.025,-0.51318 -12.925,-1.74724 -22,-2.74219 -9.37666,-1.02804 -18.17259,-2.53661 -20.37305,-3.49414 C 416.49728,336.75883 413.67496,336 412.35352,336 c -3.09019,0 -4.28055,-3.0564 -4.60547,-11.82227 z m -246.74023,0.26172 c 1.18936,-9e-5 2.60476,0.10093 4.24023,0.30469 3.575,0.4454 9.40485,0.91071 12.95508,1.03515 3.55024,0.12444 7.71274,0.701 9.25,1.28125 2.7828,1.05038 2.79547,1.09479 2.73437,10.08594 -0.0528,7.7739 -1.79573,31.20016 -3.27539,44.03125 -0.2537,2.2 -0.78426,8.95 -1.17968,15 -1.14012,17.44377 -1.20875,18.25715 -2.75586,33 -0.80804,7.7 -1.56045,15.8 -1.67188,18 -1.21206,23.93202 -2.23204,38.82413 -3.28906,48 l -1.26758,11 -19.10938,0.27148 c -22.29626,0.31631 -22.12536,0.38299 -20.85546,-8.02734 0.43544,-2.88386 0.90371,-6.81914 1.03906,-8.74414 0.13534,-1.925 0.95332,-6.65 1.81836,-10.5 0.86504,-3.85 1.57984,-9.48597 1.58984,-12.52539 0.01,-3.03943 0.46039,-9.11443 1.00196,-13.5 1.55139,-12.56323 2.02893,-17.40259 2.56054,-25.97461 0.27287,-4.4 0.91903,-9.81377 1.43555,-12.03125 0.82963,-3.56176 2.25044,-17.09216 3.35742,-31.96875 0.39757,-5.34291 5.01792,-40.37052 6.52539,-49.4668 0.49835,-3.00724 0.71338,-5.9727 0.47656,-6.58984 -0.67962,-1.7711 0.85184,-2.68137 4.41993,-2.68164 z m 43.6582,6.0918 c 8.52787,-0.0105 24.31437,1.9259 27.28906,3.875 2.08096,1.36349 2.1958,2.01711 1.77344,10.11523 -0.24834,4.76145 -0.67958,21.18105 -0.95899,36.49023 -0.27942,15.30918 -0.82845,28.35286 -1.21875,28.98438 -0.3903,0.63152 -0.77888,2.95476 -0.86328,5.16406 -0.0844,2.2093 -0.44565,9.41758 -0.80468,16.01758 -0.35902,6.6 -0.88762,25.05 -1.17383,41 -0.33221,18.51298 -0.94782,30.18726 -1.70313,32.2832 l -1.18359,3.28321 -19.87891,-0.28321 c -10.93381,-0.15578 -20.35967,-0.5785 -20.94531,-0.93945 -1.2052,-0.7428 -1.13406,-9.99292 0.11133,-14.41992 0.45251,-1.60853 0.90194,-7.35518 0.99805,-12.77149 0.0961,-5.4163 0.59174,-10.62746 1.10156,-11.58007 0.50981,-0.95261 1.16481,-9.44853 1.45508,-18.88086 0.29026,-9.43233 1.19707,-22.89812 2.01562,-29.92188 1.47785,-12.68101 2.60002,-26.26378 3.12109,-37.76953 0.14945,-3.3 0.82719,-9.6 1.50391,-14 0.67671,-4.4 1.15099,-9.125 1.05469,-10.5 -0.30381,-4.33681 2.0247,-24.4593 2.9414,-25.41602 0.48623,-0.50745 2.52261,-0.72696 5.36524,-0.73046 z m 37.85156,3.11328 5.11524,0.66406 c 2.81346,0.36499 5.27242,1.07001 5.46484,1.56641 0.19242,0.4964 1.44368,0.18567 2.7793,-0.68946 1.33561,-0.87513 2.84994,-1.32942 3.36718,-1.00976 0.51723,0.31967 4.16901,1.4288 8.11524,2.46484 3.94623,1.03605 7.46696,2.35481 7.82226,2.92969 0.76374,1.23576 0.46869,64.04789 -0.43359,92.42773 -0.43399,13.65068 -0.29194,20.2249 0.45508,21.125 2.19163,2.64075 0.72577,51.36514 -1.61133,53.5586 -1.38071,1.29586 -38.29184,1.76316 -39.3418,0.49804 -0.53927,-0.64977 -0.51001,-6.11354 0.0723,-13.54492 1.77535,-22.658 2.26509,-34.63446 3.51953,-85.95703 0.35625,-14.575 0.98478,-27.175 1.39648,-28 0.59921,-1.20076 1.3617,-22.79653 1.23633,-35 -0.0141,-1.375 0.44121,-4.41899 1.00977,-6.76562 z m 49.66797,4.13672 c 0.65879,-0.0101 1.34569,0.21881 2.25,0.68554 1.27144,0.65622 3.2125,1.16135 4.3125,1.12305 4.63554,-0.16126 17.16288,1.32105 19.11523,2.26172 2.50744,1.20812 3.13661,5.8589 4.04493,29.82617 0.32309,8.525 1.01339,16.3168 1.5332,17.31445 0.62967,1.20851 0.55922,2.27864 -0.21289,3.20899 -0.86961,1.04785 -0.88876,4.09108 -0.0742,12.1875 0.933,9.27401 1.72791,27.19689 3.71875,83.78906 0.49367,14.03302 -0.0412,17.33633 -2.91797,17.9707 -2.83497,0.62516 -34.34977,1.27278 -37.91015,0.7793 -1.70197,-0.2359 -2.9604,-1.18431 -3.4004,-2.5625 -1.04468,-3.27223 -0.54871,-26.40569 0.66211,-30.90234 0.6814,-2.5305 0.72359,-5.04127 0.1211,-7.09961 -1.20188,-4.10608 -1.65537,-25.26243 -1.38672,-64.68555 0.11801,-17.325 0.18579,-37.35 0.15039,-44.5 -0.0506,-10.20179 0.29259,-13.7083 1.5918,-16.29297 1.28506,-2.55651 1.95072,-3.04798 2.98046,-2.19336 0.97297,0.80747 1.86476,0.76545 3.34376,-0.1582 0.78888,-0.49268 1.41933,-0.74186 2.07812,-0.75195 z m 38.5625,5.61523 c 1.1,0.11985 7.29417,0.3636 13.76562,0.54297 15.2791,0.42351 15.38382,0.51611 16.14844,14.37109 0.30755,5.57288 0.82789,10.83646 1.15821,11.69727 0.33032,0.8608 0.74913,5.30087 0.92968,9.86719 0.53053,13.41805 3.39111,56.03888 3.98047,59.30273 0.29795,1.65 0.76025,4.575 1.02539,6.5 1.55656,11.30106 2.94943,57.94568 1.78125,59.64844 -0.5116,0.74571 -6.11507,1.30403 -15.95508,1.58789 -21.45494,0.61894 -19.77204,2.54954 -20.09179,-23.06641 C 333.10028,465.80155 332.52696,450.875 331.96875,444 c -1.72544,-21.2506 -2.87833,-44.78723 -3.01367,-61.5 -0.0713,-8.8 -0.46738,-18.025 -0.88086,-20.5 -0.41348,-2.475 -0.48815,-9.225 -0.16406,-15 0.54637,-9.73563 0.73543,-10.48331 2.58984,-10.28125 z m 40.91211,4.18359 c 5.31294,-0.31931 15.10465,0.4154 18.14453,1.68555 1.8588,0.77666 4.95868,1.41211 6.88867,1.41211 5.60612,0 7.2608,4.31997 9.57813,25 0.46224,4.125 1.29109,11.52866 1.84179,16.45312 0.55071,4.92447 0.78518,9.3038 0.52149,9.73047 -0.2637,0.42666 0.0348,1.73625 0.66406,2.91211 0.6293,1.17586 1.3229,4.97463 1.54102,8.44141 0.21812,3.46679 0.84933,7.49469 1.40234,8.94922 0.55302,1.45453 1.03803,5.42642 1.07813,8.82812 0.0401,3.40169 0.51386,8.66055 1.05078,11.68555 1.69095,9.52674 2.96086,20.24781 3.27148,27.59961 0.16496,3.9043 0.61019,7.59917 0.98828,8.21094 0.58831,0.95191 1.33693,9.8344 1.95508,23.18945 0.16053,3.46833 0.12764,3.49832 -3.74805,3.26172 -2.1511,-0.13132 -4.46288,0.21812 -5.13672,0.77734 -0.68357,0.56733 -5.14423,0.90325 -10.08984,0.75977 -4.87507,-0.14143 -9.76328,-0.0167 -10.86328,0.27734 -2.53305,0.67699 -11.78117,0.0295 -12.66797,-0.88672 -0.3673,-0.3795 -0.93726,-6.31445 -1.26758,-13.18945 -0.33031,-6.875 -1.02661,-17 -1.54687,-22.5 -0.52027,-5.5 -0.96282,-14.32585 -0.98242,-19.61328 -0.0196,-5.28743 -0.51016,-12.03743 -1.08985,-15 -0.57968,-2.96257 -1.23506,-6.96172 -1.45703,-8.88672 -0.6022,-5.22257 -2.38619,-36.8228 -2.37109,-42 0.007,-2.475 -0.46636,-11.45214 -1.05274,-19.94922 -0.71733,-10.39533 -0.73583,-15.77979 -0.0566,-16.45898 0.35993,-0.35993 1.63332,-0.58302 3.4043,-0.68946 z m 42.82617,5.34375 c 0.88609,-0.0365 2.2496,0.33337 4.79688,1.08008 2.958,0.86708 5.84797,1.23376 6.42187,0.81445 1.42776,-1.04315 10.70903,-0.82283 12.47852,0.29688 0.78902,0.49928 4.61402,1.04322 8.5,1.20703 9.84186,0.41487 12.86272,0.77645 14.36328,1.71875 0.71436,0.44861 3.86436,0.67273 7,0.49805 3.13564,-0.17468 6.15117,-0.0468 6.70117,0.28515 1.75238,1.05762 13.75092,2.4244 28.13086,3.20313 3.92215,0.2124 7.64614,0.7029 8.27539,1.0918 0.62925,0.38888 2.9135,0.57997 5.07617,0.42382 2.16266,-0.15615 4.25248,0.0357 4.64258,0.42579 0.39009,0.39009 3.46846,0.70898 6.8418,0.70898 3.37333,0 6.6034,0.47059 7.17773,1.04492 0.57434,0.57434 5.50106,1.24059 10.94922,1.48242 12.06366,0.53548 19.57169,1.43151 20.90625,2.49219 1.37875,1.09579 7.6199,1.42035 9.76367,0.50781 0.99119,-0.42192 2.36848,-0.24692 3.14844,0.40039 0.76291,0.63316 4.92069,1.27408 9.23828,1.42383 4.31759,0.14975 8.8921,0.83879 10.16602,1.53125 1.27392,0.69247 4.44751,1.1461 7.05273,1.00781 2.60522,-0.13826 5.29607,0.0938 5.97852,0.51563 0.68246,0.42178 1.89441,0.22133 2.69531,-0.44336 1.04238,-0.8651 1.82212,-0.90388 2.74414,-0.13867 0.70844,0.58794 6.67094,1.37824 13.25,1.75586 6.57907,0.37761 12.51076,1.11973 13.17969,1.64844 0.66893,0.52871 3.36893,0.84163 6,0.69726 2.63107,-0.14437 5.5707,0.0874 6.5332,0.51367 2.59692,1.15015 2.12188,4.77472 -1,7.63086 -1.5125,1.38375 -4.11806,4.07144 -5.79102,5.97266 -1.67296,1.90122 -4.14796,4.44223 -5.5,5.64648 -1.35204,1.20426 -3.80898,3.86767 -5.45898,5.91797 -4.79355,5.95649 -17.57991,20.39583 -23.5293,26.57227 -3.00917,3.12401 -7.4957,8.04317 -9.9707,10.93164 -2.475,2.88847 -5.8394,6.57145 -7.47656,8.18359 -1.63717,1.61213 -3.93961,4.23786 -5.11719,5.83399 -2.38166,3.22816 -14.83759,16.7825 -26.58984,28.93554 -4.22637,4.37051 -7.97017,8.84436 -8.31836,9.94141 -0.34818,1.09704 -1.00153,1.99414 -1.45117,1.99414 -0.44965,0 -2.62183,1.85967 -4.82813,4.13281 -3.28172,3.38111 -4.98552,4.2929 -9.36523,5.01172 -6.01733,0.98758 -23.33113,2.0339 -23.95118,1.44727 -0.22167,-0.20972 -10.14894,-0.60298 -22.0625,-0.87305 -11.91355,-0.27008 -22.1207,-0.77441 -22.68164,-1.12109 -0.56094,-0.34669 -1.2572,-0.24604 -1.54687,0.22265 -0.28967,0.4687 -9.52195,0.95038 -20.51563,1.07031 -19.17966,0.20924 -20.0741,0.13098 -22.10742,-1.90234 -1.56109,-1.56113 -1.95918,-2.84751 -1.51172,-4.88476 0.33405,-1.52094 0.10546,-4.97787 -0.50781,-7.6836 -0.61327,-2.70573 -1.74351,-11.21992 -2.51172,-18.91992 -2.18391,-21.88981 -5.18981,-46.55934 -6.27539,-51.5 -0.54381,-2.475 -1.23516,-6.975 -1.53711,-10 -0.30195,-3.025 -1.43018,-13.15 -2.50781,-22.5 -1.07762,-9.35 -1.89521,-18.575 -1.81641,-20.5 0.0788,-1.925 -0.19799,-5.53446 -0.61523,-8.02148 -0.54353,-3.23979 -0.37543,-5.0469 0.5957,-6.375 0.64199,-0.87797 1.05142,-1.32096 1.9375,-1.35743 z" />
  </g>
</svg>
