<?xml version="1.0" encoding="UTF-8" standalone="no"?>
<!-- Created with Inkscape (http://www.inkscape.org/) -->

<svg
   version="1.1"
   id="svg1"
   width="743"
   height="506"
   viewBox="0 0 743 506"
   sodipodi:docname="1.svg"
   inkscape:version="1.4 (86a8ad7, 2024-10-11)"
   xmlns:inkscape="http://www.inkscape.org/namespaces/inkscape"
   xmlns:sodipodi="http://sodipodi.sourceforge.net/DTD/sodipodi-0.dtd"
   xmlns="http://www.w3.org/2000/svg"
   xmlns:svg="http://www.w3.org/2000/svg">
  <defs
     id="defs1" />
  <sodipodi:namedview
     id="namedview1"
     pagecolor="#ffffff"
     bordercolor="#000000"
     borderopacity="0.25"
     inkscape:showpageshadow="2"
     inkscape:pageopacity="0.0"
     inkscape:pagecheckerboard="0"
     inkscape:deskcolor="#d1d1d1"
     inkscape:zoom="1.1109682"
     inkscape:cx="457.25883"
     inkscape:cy="301.98885"
     inkscape:window-width="1920"
     inkscape:window-height="1013"
     inkscape:window-x="2391"
     inkscape:window-y="605"
     inkscape:window-maximized="1"
     inkscape:current-layer="g1" />
  <g
     inkscape:groupmode="layer"
     inkscape:label="Image"
     id="g1">
    <path
       style="fill:#000000"
       d="m 321.77478,505.44145 c -1.41475,-1.41475 -38.57405,-2.57525 -39.40507,-1.23063 -0.65044,1.05242 -6.71825,1.01203 -7.91971,-0.0527 -0.5225,-0.46305 -5.9,-0.47547 -11.95,-0.0276 -6.71585,0.49716 -13.45412,0.42493 -17.30121,-0.18546 -3.46566,-0.54987 -6.63784,-0.79172 -7.04928,-0.53743 -1.08373,0.66978 -14.25435,0.73858 -172.64951,0.9019 l -52,0.0536 -3.7758384,-2.29558 C 7.6474505,500.80497 5.4015065,498.81077 4.7331748,497.63598 3.861891,496.10444 3.4201794,485.45415 3.1722548,460 2.4544663,386.30542 2.1369164,373.54564 1.0113475,373.17045 0.26229318,372.92076 0.32448311,372.31393 1.2082622,371.24899 2.2491796,369.99471 2.524446,342.19833 2.6258979,228.09624 2.7299555,111.06352 3.3250526,45.902783 4.5492217,17.5 4.6440424,15.3 4.7842578,11.642094 4.8608115,9.3713203 4.979105,5.8624383 5.4165715,5.0700911 7.7749229,4.09323 9.3011304,3.4610541 11.43863,3.0277597 12.524923,3.1303534 17.671698,3.6164352 20.871209,2.931666 21.310674,1.25 c 0.435546,-1.66666667 0.462847,-1.66666667 0.573325,0 0.134859,2.0344915 1.839636,2.0641308 112.052531,1.9481472 35.99009,-0.037875 66.15019,0.3130804 67.02245,0.7798999 0.89089,0.4767919 3.76734,0.4159845 6.56347,-0.1387502 2.86318,-0.5680358 27.61474,-1.025033 58.26892,-1.075841 29.31026,-0.04858 53.49536,-0.4183825 53.74468,-0.8217823 0.24931,-0.4033999 2.14319,-0.3504682 4.20862,0.1176259 5.01456,1.1364637 27.44267,1.4122886 89.25533,1.0976781 136.15874,-0.6930131 138.0739,-0.6710259 142.59725,1.6371052 2.25348,1.1498881 4.77776,3.1293062 5.6095,4.3987067 2.15217,3.2846255 13.19993,15.1576245 28.29325,30.4066765 7.15,7.223774 13.81247,13.981574 14.80549,15.017334 0.99301,1.03576 3.69301,3.755527 6,6.043927 2.30698,2.2884 5.09451,5.363231 6.19451,6.832957 C 619.80891,71.914766 651.72926,104 652.81872,104 c 0.55602,0 2.58974,2.1375 4.51938,4.75 1.92963,2.6125 6.06311,7.225 9.1855,10.25 3.12239,3.025 6.41943,6.33011 7.32674,7.34469 0.90731,1.01457 5.81216,6.11335 10.89966,11.33062 5.0875,5.21726 9.25,9.79756 9.25,10.17844 0,0.38088 4.3875,5.22089 9.75,10.75558 27.2823,28.15835 33.7914,37.68309 37.97238,55.56483 0.98128,4.19688 0.85457,45.29663 -0.15207,49.32584 -0.41223,1.65 -1.83419,5.3748 -3.15991,8.27734 -1.33258,2.91755 -2.41075,7.16551 -2.41119,9.5 -4.9e-4,2.61435 -1.14311,6.63733 -3,10.56245 -1.64957,3.48688 -2.99921,6.89049 -2.99921,7.56357 0,3.25126 -10.14339,20.03852 -16.75,27.72118 -2.3375,2.71822 -4.25,5.31262 -4.25,5.76533 0,1.17993 -17.00159,21.33779 -26.04038,30.87466 -1.94721,2.05451 -4.25385,4.86047 -5.12586,6.23547 -0.87202,1.375 -5.01393,6.325 -9.20424,11 -4.19032,4.675 -7.62118,8.81947 -7.62414,9.20993 -0.003,0.39046 -2.29467,2.85129 -5.0927,5.46852 -2.79803,2.61722 -5.69698,5.89776 -6.44211,7.29007 -0.74513,1.39231 -5.2412,6.35648 -9.99125,11.03148 -4.75006,4.675 -9.83861,9.84678 -11.3079,11.49285 -1.46928,1.64606 -4.58392,4.76457 -6.92142,6.93002 -2.3375,2.16544 -4.25,4.45888 -4.25,5.09652 0,0.63764 -1.6875,2.7623 -3.75,4.72147 -4.5217,4.29516 -13.25,15.29243 -13.25,16.6944 0,0.55268 -1.3348,1.99173 -2.96623,3.19789 -1.63142,1.20616 -7.36892,7.40398 -12.75,13.77293 -8.47105,10.02618 -15.0503,16.88076 -26.47,27.57771 -2.95878,2.77152 -4.43551,3.15099 -5.05302,1.29846 -0.3037,-0.91109 -5.42414,-1.17107 -20.33333,-1.0324 -21.38604,0.19891 -99.61504,1.13163 -102.92742,1.2272 -1.59713,0.0461 -49.68245,-0.44964 -91,-0.93814 -7.8147,-0.0924 -11.12732,0.25508 -12.1463,1.27405 -0.82622,0.82622 -3.7978,0.90961 -4.57892,0.12849 z m 138.25929,-9.77056 c 9.09374,-0.15728 17.06496,-0.61406 17.71381,-1.01507 0.64885,-0.40102 11.88352,-0.60682 24.96593,-0.45734 13.0824,0.14948 30.88097,0.16597 39.55237,0.0367 L 558.03236,494 l 1.73382,-3.75 c 0.9536,-2.0625 2.85882,-4.63119 4.23382,-5.70819 1.375,-1.07701 3.85,-3.52213 5.5,-5.4336 1.65,-1.91147 7.5,-8.23875 13,-14.06062 5.5,-5.82187 12.475,-13.44242 15.5,-16.93456 3.025,-3.49214 8.60891,-9.55867 12.4087,-13.48119 3.79978,-3.92251 10.65976,-11.40684 15.24438,-16.63184 4.58463,-5.225 11.96427,-13.55 16.3992,-18.5 18.06498,-20.163 32.40115,-36.43746 41.84274,-47.5 3.99,-4.675 9.51732,-10.97464 12.28295,-13.99921 2.76563,-3.02457 5.72399,-6.84957 6.57414,-8.5 0.85014,-1.65043 2.37871,-3.58881 3.3968,-4.30749 1.0181,-0.71869 1.85109,-1.87492 1.85109,-2.5694 0,-0.69448 1.6875,-3.58517 3.75,-6.42376 7.81253,-10.75226 10.99709,-16.72584 11.72042,-21.98507 L 724.18768,289 710.34384,288.8492 c -7.61411,-0.0829 -15.04038,-0.0596 -16.50282,0.0518 -1.46244,0.11142 -2.95603,-0.27806 -3.3191,-0.86551 -0.36306,-0.58745 -1.02768,-0.84093 -1.47693,-0.56328 -0.44924,0.27765 -15.83065,0.77487 -34.1809,1.10493 -18.35025,0.33006 -36.51409,0.72868 -40.36409,0.88582 -17.65349,0.72056 -83.86517,1.49066 -82.75,0.96246 2.36323,-1.11935 1.24753,-2.25177 -1.4957,-1.51812 -1.51013,0.40387 -4.44482,0.42361 -6.52153,0.0438 -2.07671,-0.37975 -4.01771,-0.29911 -4.31332,0.17921 C 519.12383,289.60865 499.10852,290 474.94098,290 436.549,290 431,290.18942 431,291.5 c 0,1.22807 -1.72222,1.5 -9.5,1.5 -5.72794,0 -9.5,-0.40094 -9.5,-1.00977 0,-1.11276 -55.63111,-0.69245 -56.75235,0.42879 -0.35134,0.35134 -0.7708,3.66329 -0.93214,7.35989 -0.26433,6.05675 -0.26175,58.99533 0.004,88.22109 0.0576,6.325 -0.27692,31.975 -0.74334,57 l -0.84803,45.5 2.24069,2 c 1.39819,1.248 3.79924,2.04833 6.38578,2.12853 2.27979,0.0707 18.77008,0.46041 36.64508,0.86605 17.875,0.40563 32.65144,0.87423 32.83654,1.04134 0.18509,0.1671 3.11009,0.10517 6.5,-0.13763 3.3899,-0.24279 13.60379,-0.57012 22.69753,-0.7274 z m -261.39012,-0.88932 c 20.8048,-0.36286 20.89254,-0.41907 19.95023,-12.78157 -0.65957,-8.65324 -0.83683,-82.44154 -0.35961,-149.70074 0.19261,-27.14684 -0.0488,-37.51348 -0.89321,-38.3579 -1.37904,-1.37904 -65.07153,-1.87753 -88.84136,-0.69533 -23.46047,1.16682 -20.79164,1.19134 -69.5,-0.6385 -3.025,-0.11364 -5.95,0.11416 -6.5,0.50622 -1.31503,0.93741 -30.244964,1.47462 -31.14131,0.57827 -0.834314,-0.83431 -5.049281,-0.88189 -7.999455,-0.0903 -1.862742,0.49981 -2.235387,1.56947 -2.869353,8.23635 C 10.089158,306.05213 9.8536494,336.95 9.9665292,370.5 c 0.1128798,33.55 0.2069898,61.675 0.2091338,62.5 0.0021,0.825 -0.07558,3.975 -0.172709,7 -0.097135,3.025 0.360203,8.54637 1.016306,12.26971 0.867597,4.92355 0.893641,7.13031 0.0955,8.09201 -0.603576,0.72726 -0.883956,1.53575 -0.623066,1.79664 0.260889,0.26089 0.507834,4.71949 0.548767,9.90799 0.11754,14.89912 0.817486,19.35091 3.301913,21.00079 1.531676,1.01717 6.509267,1.57791 17.157623,1.93286 14.739669,0.49132 135.49852,0.33351 167.14395,-0.21843 z m 103.75603,-1.78125 c 1.59966,-1.59924 1.70807,-6.40264 2.1665,-96.00032 0.22935,-44.825 0.45568,-85.85174 0.50297,-91.17053 0.10291,-11.57444 -0.84305,-14.02475 -5.08666,-13.17603 -1.77359,0.35472 -3.59382,0.0843 -4.50106,-0.6686 -1.11164,-0.92258 -3.74683,-1.0826 -9.75248,-0.59222 -4.52609,0.36957 -9.57925,0.76992 -11.22925,0.88967 -1.65,0.11974 -3.37268,0.80311 -3.82817,1.51861 -1.4699,2.30891 -1.80302,13.32565 -1.83542,60.6991 -0.008,12.1 -0.13498,27.625 -0.28157,34.5 -0.25455,11.93806 -0.62964,71.70882 -0.57892,92.25 0.0188,7.60318 0.3274,9.75 1.40164,9.75 0.75765,0 1.89707,0.62598 2.53203,1.39106 0.78395,0.9446 3.60672,1.42793 8.79502,1.50592 4.2023,0.0632 7.85401,0.32831 8.11491,0.58921 0.88705,0.88705 12.47512,-0.38083 13.58046,-1.48587 z M 572,486.55902 c 0,-1.05548 -1.91911,-1.49891 -2.48992,-0.57533 -0.34546,0.55897 0.0734,1.01631 0.9309,1.01631 C 571.29844,487 572,486.80156 572,486.55902 Z M 418.5,291 c 1.1,-0.47269 1.55,-0.8972 1,-0.94337 -0.55,-0.0462 -1.95044,-0.33905 -3.11209,-0.65085 -1.3889,-0.3728 -2.31978,-0.0257 -2.71862,1.01365 -0.67748,1.76548 1.47209,2.02382 4.83071,0.58057 z m 6.5,-0.39301 c 0,-0.21616 -0.675,-0.65203 -1.5,-0.96862 -0.825,-0.31658 -1.5,-0.13972 -1.5,0.39301 0,0.53274 0.675,0.96862 1.5,0.96862 0.825,0 1.5,-0.17686 1.5,-0.39301 z M 131.32474,226.59611 c 0.45436,-1.18403 7.11414,-1.33535 42.52713,-0.96626 32.9144,0.34304 42.15551,0.16723 42.76166,-0.81354 0.42529,-0.68813 0.87596,-7.11581 1.00149,-14.28373 0.12553,-7.16792 0.55897,-22.70758 0.96321,-34.53258 1.04325,-30.51773 1.12703,-161.200465 0.10451,-163 -0.74258,-1.306856 -6.73231,-1.456398 -46.51754,-1.161376 -25.11586,0.186243 -47.0152,0.366077 -48.6652,0.39963 -1.65,0.03355 -14.925,-0.01871 -29.5,-0.11615 -24.74167,-0.165402 -61.057455,0.465794 -72.5,1.260106 -2.75,0.190898 -5.502795,-0.04755 -6.117321,-0.529892 -3.047897,-2.39228 -4.678406,8.280178 -4.269068,27.943089 C 11.247626,47.232933 11.360325,54.975 11.364052,58 c 0.01413,11.46987 -0.226964,91.63504 -0.28421,94.5 -0.03297,1.65 -0.07434,6.825 -0.09194,11.5 -0.0176,4.675 -0.07182,11.2 -0.120494,14.5 -0.179256,12.15289 -0.07663,17.21105 0.537674,26.5 1.348984,20.3982 2.067931,21.70461 11.329953,20.5877 3.170729,-0.38236 12.261516,-0.68567 20.20175,-0.67403 8.080755,0.0119 14.961398,-0.41421 15.628363,-0.96774 0.79002,-0.65566 2.159305,-0.61663 4.063212,0.11582 1.579401,0.60761 6.246637,0.98325 10.371637,0.83476 4.125,-0.14849 18.4125,-0.18595 31.75,-0.0832 20.8059,0.16022 24.25,0.39978 24.25,1.68674 0,1.89413 1.60925,1.96066 2.32474,0.0961 z M 576,225.5766 c 37.27862,-0.70252 125.66774,-0.62677 139.86038,0.11986 10.11254,0.53198 10.41627,0.48475 12.69674,-1.97463 1.28499,-1.38581 2.92282,-2.71528 3.63961,-2.95437 1.74125,-0.58082 1.41225,-9.17922 -0.46222,-12.08015 -0.77735,-1.20302 -1.67827,-3.54431 -2.00205,-5.20287 -0.32377,-1.65856 -2.75853,-6.57853 -5.41057,-10.93328 -4.6002,-7.5537 -12.15627,-16.1825 -29.82189,-34.05573 -9.03219,-9.13833 -38.46766,-40.29158 -42.62435,-45.11179 -0.89339,-1.036 -5.39339,-5.53611 -10,-10.00025 -4.60661,-4.464137 -9.31244,-9.189137 -10.45741,-10.500001 -1.14497,-1.310864 -3.61997,-3.795459 -5.5,-5.521323 C 624.03821,85.636203 617.775,79.158619 612,72.967436 599.55859,59.629422 592.38315,52.341633 588.35471,48.951923 585.795,46.79807 581.1731,41.850152 573.38369,32.924906 c -2.1526,-2.46649 -12.53733,-12.273265 -18.06763,-17.062093 -2.12731,-1.84209 -3.8047,-2.492061 -5.56357,-2.15583 -1.38493,0.264746 -2.82236,-0.01102 -3.19429,-0.612813 -0.84751,-1.371295 -10.04673,-1.438269 -12.56325,-0.09147 -1.26795,0.678585 -2.08131,0.666587 -2.51622,-0.03712 C 530.912,12.048595 500.49677,11.51864 483.5,12.129603 c -5.97359,0.214726 -9.19001,0.2496 -16.5,0.1789 -3.025,-0.02926 -28.61949,0.0019 -56.87666,0.06915 -50.94469,0.121317 -51.38834,0.139926 -52.76634,2.213255 -1.14445,1.721934 -1.37005,11.074664 -1.27847,53 0.0612,28 0.11804,55.634091 0.12639,61.409091 0.008,5.775 -0.14685,25.575 -0.34488,44 -0.19802,18.425 -0.13504,37.55 0.13996,42.5 l 0.5,9 5,0.12654 c 2.75,0.0696 43.0694,0.45937 89.59867,0.86617 57.25953,0.50061 85.21771,0.40834 86.51422,-0.28553 1.38698,-0.7423 2.42132,-0.65534 3.74852,0.31514 1.00815,0.73717 2.35175,1.18028 2.98579,0.98468 0.63404,-0.19559 14.8778,-0.61428 31.6528,-0.9304 z m -272.1286,-2.11487 c 1.51942,-1.51991 1.80259,-207.902719 0.28849,-210.256101 -0.64346,-1.000128 -4.33665,-1.192457 -16.24633,-0.846053 L 272.5,12.807892 l -0.85087,3.846054 c -0.95087,4.298088 -2.13598,202.270144 -1.23239,205.870334 0.57371,2.28587 0.59473,2.28829 16.70025,1.9275 8.86919,-0.19869 16.40868,-0.64421 16.75441,-0.99005 z"
       id="path1" />
  </g>
</svg>
