<?xml version="1.0" encoding="UTF-8" standalone="no"?>
<!-- Created with Inkscape (http://www.inkscape.org/) -->

<svg
   version="1.1"
   id="svg1"
   width="743"
   height="508"
   viewBox="0 0 743 508"
   sodipodi:docname="2.svg"
   inkscape:version="1.4 (86a8ad7, 2024-10-11)"
   xmlns:inkscape="http://www.inkscape.org/namespaces/inkscape"
   xmlns:sodipodi="http://sodipodi.sourceforge.net/DTD/sodipodi-0.dtd"
   xmlns="http://www.w3.org/2000/svg"
   xmlns:svg="http://www.w3.org/2000/svg">
  <defs
     id="defs1" />
  <sodipodi:namedview
     id="namedview1"
     pagecolor="#ffffff"
     bordercolor="#000000"
     borderopacity="0.25"
     inkscape:showpageshadow="2"
     inkscape:pageopacity="0.0"
     inkscape:pagecheckerboard="0"
     inkscape:deskcolor="#d1d1d1"
     inkscape:zoom="1.1065943"
     inkscape:cx="342.49228"
     inkscape:cy="193.38614"
     inkscape:window-width="1920"
     inkscape:window-height="1013"
     inkscape:window-x="2391"
     inkscape:window-y="605"
     inkscape:window-maximized="1"
     inkscape:current-layer="g1" />
  <g
     inkscape:groupmode="layer"
     inkscape:label="Image"
     id="g1">
    <path
       id="path1"
       style="fill:#000000"
       d="M 18.556641,0.04882812 C 17.810323,0.12134137 17.015493,0.87570885 16.820312,2.25 16.541241,4.2149787 15.900146,4.5052584 11.759766,4.5410156 9.1522468,4.5635346 6.5308881,5.0687213 5.9355469,5.6640625 4.8294991,6.7701103 4.5268875,55.319227 5.3847656,94 c 0.2306974,10.40189 -0.04082,20.90755 -0.6191406,24 -0.5792471,3.09741 -1.1771451,26.46809 -1.3691406,53.5 -0.1875079,26.4 -0.3898958,49.35 -0.4492188,51 -0.059324,1.65 -0.093522,12.225 -0.076172,23.5 0.01735,11.275 -0.010809,26.125 -0.064453,33 -0.085475,10.95441 -0.038388,23.01323 0.1210938,31 0.027456,1.375 0.095525,29.02679 0.1523437,61.44727 0.079485,45.35374 0.025199,55.81035 -0.9160156,58.8789 0.8674741,1.11531 1.4505109,2.80275 1.4570313,5.06641 0.00351,1.22077 0.00308,0.61065 0.00781,1.83398 0.00979,1.89943 0.022386,3.79823 0.064453,5.69727 0.054269,2.20815 0.1304246,4.41553 0.2871094,6.61914 0.1730713,2.3516 0.5070858,4.70045 0.4667968,7.06055 -0.053939,2.27847 -0.1300541,4.55849 -0.3242187,6.83007 -0.2411525,2.55892 -0.6117712,5.0992 -1.03125,7.63477 -0.3186485,2.2929 -0.3511244,4.5926 -0.1933594,6.90234 0.1116336,2.29898 0.2831891,4.59402 0.5488281,6.88086 0.2612008,2.51697 0.3007245,5.03737 0.3984375,7.56446 0.1163546,2.04801 0.258315,4.09685 0.5488281,6.1289 0.1174064,0.82122 0.1454373,1.57679 0.1015626,2.26563 1.0732762,1.22688 3.3610986,2.57831 5.3066406,3.06445 2.0330096,0.508 15.5915616,0.97566 30.1289066,1.03906 14.537345,0.0634 26.649193,0.33475 26.916015,0.60156 0.862494,0.86249 9.016963,0.51363 9.587891,-0.41015 0.313609,-0.50742 2.179214,-0.54045 4.308594,-0.0762 2.065725,0.4504 11.630859,0.66744 21.255859,0.48242 50.91537,-0.97875 118.10915,-1.76318 127.5,-1.48828 1.65,0.0483 9.075,0.0867 16.5,0.0859 7.425,-7.4e-4 13.88945,0.38591 14.36523,0.85937 0.48374,0.48139 2.46729,0.3007 4.5,-0.41016 2.5363,-0.88698 5.59938,-1.03184 10.13477,-0.48047 3.71339,0.45145 8.3493,0.38229 10.81445,-0.1621 2.37328,-0.52407 4.68161,-0.72763 5.12891,-0.45118 0.44731,0.27645 8.63114,0.51349 18.18555,0.52539 38.59584,0.0482 42.20382,0.0923 95.87109,1.20118 1.375,0.0284 11.95,-0.0574 23.5,-0.19141 11.55,-0.13397 45.075,-0.1287 74.5,0.0117 47.13319,0.22492 53.95056,0.0651 57.28516,-1.3418 3.96014,-1.67087 6.71484,-3.89724 6.71484,-5.42773 0,-0.49578 2.14049,-3.11627 4.75781,-5.82227 6.63877,-6.8637 26.06458,-28.65398 30.05664,-33.7168 C 611.0965,446.93144 614.60172,443 615.81836,443 c 0.70537,0 22.97823,-24.59369 28.68164,-31.66992 1.1,-1.36477 4.42441,-5.03523 7.38672,-8.15625 2.96231,-3.12103 7.61787,-8.37383 10.3457,-11.67383 8.79102,-10.63494 14.11252,-16.60389 21.51758,-24.13086 3.9875,-4.05314 7.25,-7.80037 7.25,-8.32812 0,-0.52775 5.20653,-6.71509 11.57031,-13.75 6.36378,-7.03491 12.66865,-14.81602 14.00977,-17.29102 1.34113,-2.475 2.8198,-5.175 3.28711,-6 4.06583,-7.17791 8.94944,-19.14228 12.24414,-30 1.25171,-4.125 2.59292,-7.95 2.98047,-8.5 1.40753,-1.9975 3.9082,-11.95326 3.9082,-15.55859 0,-2.03283 0.6105,-4.20434 1.35742,-4.82422 1.85479,-1.53934 2.68232,-11.23532 1.63086,-19.11719 -1.16331,-8.72028 -3.70672,-20.52231 -4.89648,-22.71875 -0.53072,-0.97975 -1.90371,-5.44843 -3.05078,-9.93164 -1.14707,-4.48322 -3.42485,-10.66353 -5.0625,-13.73242 C 727.34087,194.5483 726,191.60045 726,191.06641 c 0,-0.53405 -2.025,-3.86769 -4.5,-7.40821 -2.475,-3.54052 -4.5,-6.99833 -4.5,-7.68359 0,-0.68526 -1.0125,-2.22889 -2.25,-3.43164 -1.2375,-1.20276 -9.225,-9.55765 -17.75,-18.56641 -8.525,-9.00875 -19.1,-20.05017 -23.5,-24.53711 -14.95853,-15.2541 -25.80534,-26.93177 -27.4043,-29.50195 -0.87713,-1.409909 -3.83612,-4.559909 -6.57422,-7 -2.73811,-2.440092 -6.33811,-5.998919 -8,-7.90625 -1.6619,-1.90733 -4.93398,-5.335081 -7.27148,-7.619141 -2.3375,-2.28406 -4.25,-4.59542 -4.25,-5.134765 0,-0.539346 -2.8125,-3.684416 -6.25,-6.990235 -3.4375,-3.305819 -8.10981,-7.984992 -10.38281,-10.398437 -2.273,-2.413445 -5.873,-5.987402 -8,-7.941406 -4.49257,-4.12718 -18.22451,-18.491137 -30.2793,-31.673828 -4.62638,-5.059242 -9.80138,-9.8156477 -11.5,-10.5683599 -2.4499,-1.0856238 -10.54346,-1.336598 -39.14648,-1.2148437 -19.83178,0.084418 -36.50853,0.4342254 -37.06055,0.7753906 -0.55202,0.3411652 -2.5502,0.3325786 -4.44141,-0.017578 C 471.04824,3.8978903 462.3,3.6550734 453.5,3.7089844 c -8.8,0.053912 -34,0.110565 -56,0.125 -22,0.014435 -45.625,0.1501613 -52.5,0.3007812 -6.875,0.150619 -16.325,0.1799131 -21,0.066406 C 306.68202,3.7806994 210.945,4.1436882 163.36133,4.8105469 136.33544,5.1893002 112.49089,5.2163914 110.37305,4.8691406 108.25521,4.5218898 104.04299,4.6678872 101.01172,5.1933594 94.188773,6.3761205 97.151577,6.3383924 56.369141,5.7539062 37.596835,5.4848652 21.734335,4.9544299 21.119141,4.5742188 20.503946,4.1940075 20,3.0089469 20,1.9414062 20,0.58607911 19.302958,-0.02368512 18.556641,0.04882812 Z M 554.01562,8.5097656 c 0.55898,0.3454634 0.75785,1.0465982 0.44141,1.5585934 C 553.5998,11.455403 553,11.197932 553,9.4414062 c 0,-0.8574592 0.45666,-1.277104 1.01562,-0.9316406 z M 70.082031,11.382812 c 0.552697,0.01672 1.183953,0.223942 1.929688,0.623047 1.251615,0.669844 3.724007,0.875974 5.960937,0.498047 2.328786,-0.393446 4.081283,-0.226436 4.484375,0.425782 0.800701,1.295561 5.204673,1.426678 5.976563,0.177734 0.303668,-0.491348 3.592303,-0.725995 7.308594,-0.519531 6.354322,0.353026 33.417102,0.322519 46.806642,-0.05274 3.32697,-0.09324 6.57872,-0.496096 7.22656,-0.896484 C 150.42323,11.238284 152.77462,11.400767 155,12 c 2.22538,0.599233 4.54622,0.781311 5.15625,0.404297 1.41024,-0.871576 12.01497,-1.264242 13.34375,-0.494141 0.55,0.318755 9.775,0.662378 20.5,0.763672 10.725,0.101294 20.4,0.464157 21.5,0.806641 1.9781,0.615882 2,1.497497 2,80.488281 0,43.92576 -0.26022,80.12536 -0.57812,80.44336 -0.31791,0.318 -26.6429,0.81005 -58.5,1.09375 -31.8571,0.28369 -76.59688,0.7004 -99.42188,0.92578 -28.309665,0.27953 -42.214507,0.0682 -43.75,-0.66406 l -2.251953,-1.07422 -0.07031,-60.0957 C 12.889257,81.544434 12.940978,52.25 13.041016,49.5 c 0.100038,-2.75 0.468863,-12.2 0.820312,-21 L 14.5,12.5 17,12.640625 c 13.173678,0.736362 38.080287,1.038462 38.433594,0.466797 0.246089,-0.398177 3.030418,-0.597749 6.1875,-0.44336 3.157081,0.15439 6.305573,-0.188638 6.996094,-0.761718 0.437753,-0.363304 0.912146,-0.536251 1.464843,-0.519532 z M 545.5,11.544922 l 3.98438,2.226562 C 551.67623,14.996661 554.05518,16 554.76953,16 556.15863,16 593,52.483739 593,53.859375 c 0,0.450298 1.125,1.332492 2.5,1.958984 1.375,0.626492 2.5,1.769157 2.5,2.539063 0,0.769906 2.475,3.308808 5.5,5.642578 3.025,2.33377 5.5,4.872133 5.5,5.640625 0,0.768493 5.7375,7.174555 12.75,14.236328 7.0125,7.061774 15.45,15.878447 18.75,19.591797 3.3,3.71335 10.88458,11.7636 16.85352,17.89063 5.96895,6.12699 11.14395,11.47206 11.5,11.87695 0.35606,0.40489 2.22148,2.24955 4.14648,4.09961 1.925,1.85007 7.18209,7.36861 11.68164,12.26367 4.49955,4.89505 11.35553,12.27539 15.23633,16.40039 3.8808,4.125 7.06136,8.0148 7.06836,8.64453 0.0227,1.99747 -7.88744,2.65128 -29.48633,2.4375 -11.55,-0.1143 -23.7,-0.13869 -27,-0.0547 -10.91471,0.27783 -256.66029,0.47777 -256.92969,0.20899 -0.14521,-0.14489 -6.97118,-0.45465 -15.16797,-0.6875 -15.99647,-0.45444 -23.10721,-1.2626 -24.01562,-2.73242 -0.51755,-0.83742 -0.39875,-62.4286 0.16992,-87.81641 0.20159,-8.997712 0.2763,-23.017331 0.2168,-41 -0.0333,-10.068618 1.41856,-31.554966 2.18554,-32.339844 0.45164,-0.462181 43.05883,-0.903015 94.68164,-0.978515 z m -273.84375,0.171875 c 1.25228,-0.02833 3.0376,0.16688 5.68359,0.578125 4.69601,0.729862 8.39369,0.745162 11.79297,0.04883 2.72351,-0.557905 5.18475,-0.639211 5.46875,-0.179688 0.284,0.459522 2.23575,0.835938 4.33594,0.835938 2.1002,0 4.3256,0.61067 4.94531,1.357422 0.81387,0.980655 0.98787,12.992251 0.63086,43.25 C 304.24183,80.64817 304.1033,110.075 304.20508,123 c 0.10179,12.925 0.21003,29.575 0.24023,37 l 0.0547,13.5 -5,0.83594 c -7.04529,1.17778 -18.37874,1.66873 -18.9043,0.81836 -0.24273,-0.39275 -2.92333,-0.61967 -5.95508,-0.50391 -3.39131,0.12949 -5.90498,-0.26414 -6.53515,-1.02344 -2.267,-2.73157 -1.23301,-158.987467 1.06641,-161.148434 0.51364,-0.482724 1.23209,-0.733389 2.48437,-0.761719 z M 18.1875,225.86523 c 1.190568,-0.20559 2.415868,-0.1202 4.087891,0.18555 2.286439,0.41811 40.172905,1.05424 84.191409,1.41406 44.0185,0.35983 86.02059,0.85149 93.33789,1.09375 7.31731,0.24226 14.06731,0.4414 15,0.44141 1.54343,3e-5 1.69531,1.99307 1.69531,22.17773 v 22.17774 l -3,0.87695 c -1.65,0.48255 -7.01448,0.60535 -11.91992,0.27344 -4.90544,-0.3319 -21.78044,-0.60209 -37.5,-0.60156 -15.71956,5.2e-4 -32.85508,-0.35396 -38.08008,-0.78711 -5.225,-0.43315 -9.92294,-0.55849 -10.43945,-0.27735 -0.51652,0.28114 -4.56652,0.62569 -9,0.76368 -4.43349,0.13798 -12.78555,0.42251 -18.56055,0.63281 -5.775,0.2103 -24,0.12979 -40.5,-0.17774 -25.857096,-0.48193 -30.521562,-0.80274 -33.771484,-2.33007 L 9.9589844,269.95508 10.228516,249.75977 10.5,229.5625 l 3.808594,-2.13672 c 1.532073,-0.85904 2.688338,-1.35495 3.878906,-1.56055 z m 273.46289,0.82422 c 7.40527,0.10222 12.97456,0.38035 13.29883,0.78516 0.45187,0.56405 0.45914,5.29048 0.0176,10.50391 -0.44157,5.21344 -0.56109,9.87155 -0.26563,10.3496 0.49916,0.80746 0.50284,9.01704 0.008,19.67188 L 304.5,272.5 286.88477,273 c -9.68848,0.27503 -18.28927,0.36613 -19.11133,0.20312 -1.27222,-0.25226 -1.50143,-3.71231 -1.54883,-23.25 -0.0408,-16.81911 0.25517,-22.96524 1.10937,-22.99804 7.6696,-0.29446 16.91114,-0.36785 24.31641,-0.26563 z m 70.79688,0.7168 c 3.69501,-0.0946 9.14725,-0.046 16.64648,0.14063 11.77351,0.29293 38.05625,0.41726 58.40625,0.27539 63.23749,-0.44089 277.61105,0.12822 285.29297,0.75781 l 7.29492,0.59961 2.88672,6.16015 2.88867,6.16016 -0.98828,12.28711 c -0.73527,9.1495 -1.49445,13.14952 -2.97461,15.6582 l -1.98828,3.36914 -10.20508,0.63086 c -10.22264,0.63228 -214.59493,1.3334 -215.18945,0.73828 -0.17367,-0.17384 -33.21789,-0.46231 -73.43164,-0.64062 -56.06165,-0.24858 -73.46319,-0.61188 -74.60156,-1.55664 -2.08365,-1.72928 -2.21319,-42.13735 -0.14063,-43.85742 0.4707,-0.39065 2.4085,-0.62805 6.10352,-0.72266 z m 364.62695,51.78516 c 0.59125,0.19708 1.07617,0.78609 1.07617,1.30859 0,0.5225 -0.48492,1.11151 -1.07617,1.30859 C 726.48297,282.00568 726,281.41667 726,280.5 c 0,-0.91667 0.48297,-1.50568 1.07422,-1.30859 z m -322.84961,49.43554 c 22.65625,-0.046 52.73789,-0.031 84.77539,0.0547 161.37712,0.4314 165.59428,0.43634 166.60352,0.24805 0.49307,-0.092 1.34648,-0.0392 1.89648,0.11523 0.55,0.15445 10.98748,0.31899 23.19531,0.36719 13.85333,0.0547 22.58742,0.47661 23.23633,1.12305 0.71855,0.71582 -0.98433,3.18685 -5.51367,8 -3.6045,3.83034 -7.76117,8.52478 -9.23633,10.43164 -1.47516,1.90685 -3.35664,4.19171 -4.18164,5.07812 -10.82899,11.63504 -14.3932,15.552 -19.5,21.42383 -3.3,3.79436 -8.475,9.41802 -11.5,12.49805 -3.025,3.08003 -6.59995,6.93485 -7.94531,8.5664 -11.95937,14.50348 -23.06091,26.60547 -27.5293,30.01368 -1.93945,1.4793 -3.52539,3.29767 -3.52539,4.03906 0,0.74138 -1.4625,2.89659 -3.25,4.79101 -1.7875,1.89442 -3.79498,4.12159 -4.46094,4.94922 -0.66595,0.82763 -2.01595,2.10764 -3,2.84375 -0.98404,0.73612 -5.59586,5.61132 -10.24804,10.83399 -4.65219,5.22266 -11.42682,12.42109 -15.05469,15.99609 -3.62786,3.575 -7.47108,7.78788 -8.54102,9.36133 -2.23639,3.28878 -3.00174,4.11493 -7.30664,7.89648 -1.72665,1.51675 -3.15262,3.31675 -3.16992,4 -0.0173,0.68326 -1.16728,2.06951 -2.55469,3.08008 -2.00485,1.46031 -3.58916,1.71269 -7.71875,1.23047 -4.76156,-0.55602 -32.10232,-0.69294 -96.69531,-0.48438 -13.475,0.0435 -25.625,0.0667 -27,0.0527 -7.0046,-0.0712 -55.56958,0.67234 -56,0.85742 -0.275,0.11824 -3.29995,0.2999 -6.72266,0.40234 -4.3019,0.12876 -6.37647,-0.21152 -6.71875,-1.10351 -0.27234,-0.70969 -0.48621,-15.35496 -0.47461,-32.54297 0.0115,-17.18801 -0.0219,-32.375 -0.0742,-33.75 -0.0523,-1.375 -0.18853,-24.325 -0.30274,-51 L 355.5,329.5 364,328.93555 c 2.3375,-0.15545 17.56836,-0.2626 40.22461,-0.3086 z m -315.695313,0.10157 c 101.987333,-0.20653 124.394583,0.19536 126.468753,2.26953 1.43057,1.43057 1.5866,9.66861 1.5332,81.16015 -0.0493,65.93415 -0.29546,79.85128 -1.43359,81.22266 -1.06881,1.28778 -2.65152,1.56828 -7.13477,1.25976 -3.16868,-0.21805 -6.21777,-0.67956 -6.77734,-1.02539 -0.55956,-0.34584 -2.11054,-0.2133 -3.44727,0.29493 -3.70746,1.40957 -29.53183,2.23309 -30.31445,0.96679 -0.4317,-0.6985 -3.38432,-0.79889 -8.78711,-0.29883 -7.82932,0.7247 -23.79865,1.0828 -32.13672,0.72071 -2.2,-0.0955 -9.52658,-0.24453 -16.28125,-0.33203 -6.75466,-0.0875 -12.829669,0.26989 -13.5,0.79492 -0.728254,0.57038 -2.426174,0.60848 -4.21875,0.0957 -3.109352,-0.8895 -28.33589,-1.18652 -69.714844,-0.82226 -10.427825,0.0918 -10.728033,0.0319 -11.201172,-2.22071 C 11.095188,490.48725 9.9272886,474.66253 9.9003906,470 c -0.00793,-1.375 0.050051,-32.95193 0.1269534,-70.17188 0.104852,-50.74739 0.438902,-68.08182 1.335937,-69.30859 1.087562,-1.48732 8.095821,-1.65114 77.166016,-1.79101 z m 206.945313,0.33398 c 2.85735,0.0439 5.43954,0.39605 6.85937,1.04297 l 2.42774,1.10742 -0.35547,26.64258 c -0.19538,14.65402 -0.31964,39.01953 -0.27734,54.14453 0.0423,15.125 0.026,37.175 -0.0352,49 -0.0612,11.825 -0.10656,23.87428 -0.10156,26.77539 0.008,4.82751 -0.2236,5.36115 -2.72071,6.31055 -3.11557,1.18454 -31.86612,1.78447 -33.61718,0.70117 -1.00481,-0.62162 -1.60556,-61.29602 -1.53516,-155.28711 0.008,-10.50799 0.48977,-10.9766 9.98047,-9.75195 4.0438,0.5218 8.91424,0.5769 10.86523,0.12304 2.52077,-0.58639 5.65242,-0.85247 8.50977,-0.80859 z m 54.21875,111.48438 c 0.20354,0.17262 0.24141,0.54298 0.12891,1.12304 -0.17746,0.915 -0.88477,1.85117 -1.57227,2.08008 -1.83866,0.6122 -1.52638,-2.42928 0.32227,-3.13867 0.54834,-0.21042 0.91755,-0.23708 1.12109,-0.0645 z" />
    <rect
       style="fill:#000000"
       id="rect1"
       width="35.243271"
       height="103.92246"
       x="315.38208"
       y="375.92819" />
  </g>
</svg>
