<?xml version="1.0" encoding="UTF-8" standalone="no"?>
<!-- Created with Inkscape (http://www.inkscape.org/) -->

<svg
   version="1.1"
   id="svg1"
   width="733"
   height="511"
   viewBox="0 0 733 511"
   sodipodi:docname="3.svg"
   inkscape:version="1.4 (86a8ad7, 2024-10-11)"
   xmlns:inkscape="http://www.inkscape.org/namespaces/inkscape"
   xmlns:sodipodi="http://sodipodi.sourceforge.net/DTD/sodipodi-0.dtd"
   xmlns="http://www.w3.org/2000/svg"
   xmlns:svg="http://www.w3.org/2000/svg">
  <defs
     id="defs1" />
  <sodipodi:namedview
     id="namedview1"
     pagecolor="#ffffff"
     bordercolor="#000000"
     borderopacity="0.25"
     inkscape:showpageshadow="2"
     inkscape:pageopacity="0.0"
     inkscape:pagecheckerboard="0"
     inkscape:deskcolor="#d1d1d1"
     inkscape:zoom="1.555773"
     inkscape:cx="366.37736"
     inkscape:cy="255.5"
     inkscape:window-width="1920"
     inkscape:window-height="1013"
     inkscape:window-x="2391"
     inkscape:window-y="605"
     inkscape:window-maximized="1"
     inkscape:current-layer="g1" />
  <g
     inkscape:groupmode="layer"
     inkscape:label="Image"
     id="g1">
    <path
       style="fill:#000000"
       d="M 63.719032,509.3857 C 63.506126,509.17279 50.994746,508.98343 35.915965,508.96488 20.837184,508.94634 8.0002896,508.60915 7.3895324,508.21558 4.351989,506.2582 3,500.96137 3,491.01828 3,482.97984 2.6960722,480.8206 1.5,480.36163 -0.42981813,479.62109 -0.41415386,478.02332 1.5369112,476.59667 3.1848499,475.39167 3.2417692,471.75389 3.314328,363 3.4440369,168.58725 4.3978208,39.760651 5.8833861,16 6.4163868,7.475 6.8856707,0.3875 6.9262391,0.25 6.9668076,0.1125 8.575,0 10.5,0 13.230621,0 14,0.40407109 14,1.838169 c 0,1.7356009 1.855321,1.8709222 33.25,2.4251512 18.2875,0.3228402 51.025,0.6962066 72.75,0.8297031 21.725,0.1334965 41.975,0.2796785 45,0.3248488 3.025,0.04517 6.71272,-0.3446753 8.19493,-0.8663236 1.90171,-0.6692853 3.41318,-0.564059 5.13513,0.3575004 1.90988,1.0221371 3.56247,1.0652654 7.60429,0.1984515 6.19083,-1.3276961 11.74612,-1.4335224 12.4851,-0.2378366 0.29561,0.4783151 2.45967,0.5122551 4.80901,0.075422 2.34935,-0.4368329 4.62872,-0.4484982 5.06528,-0.025923 0.43656,0.4225752 3.13656,0.3934751 6,-0.064667 4.60682,-0.7370773 19.75146,-1.1482523 25.20626,-0.6843467 3.06555,0.2607106 13.87123,0.2731567 25.5,0.029371 5.775,-0.1210671 11.4,-0.2177822 12.5,-0.2149225 1.1,0.00286 9.70285,-0.2652623 19.11744,-0.5958268 11.97501,-0.4204656 17.75811,-0.2581529 19.25,0.540285 1.5727,0.8416815 2.67814,0.8493275 4.2107,0.029124 1.14298,-0.611703 2.83048,-0.8072419 3.75,-0.4345309 0.91952,0.372711 5.49686,0.6431076 10.17186,0.6008814 4.675,-0.042226 11.65,0.303444 15.5,0.768156 3.92811,0.4741402 7.4169,0.4636616 7.95,-0.023878 1.32049,-1.2076338 11.83892,-1.0896581 15.15193,0.1699455 1.9409,0.7379278 2.92962,0.7192202 3.41404,-0.064597 0.48072,-0.7778217 12.15918,-1.0619831 39.58297,-0.9631365 21.39558,0.077119 43.40106,0.078109 48.90106,0.0022 8.1418,-0.112369 77.63893,-0.147664 83.68257,-0.042499 1.89615,0.032995 13.68715,9.9888213 20.69139,17.4709473 2.54432,2.717918 8.98263,9.467918 14.30736,15 C 588.50604,41.973751 594.15306,48.075 595.73026,50 c 5.0416,6.153389 9.52841,11.115919 19.83194,21.93466 5.5342,5.810937 14.1967,14.912243 19.25,20.225125 5.05329,5.312882 9.18858,10.037885 9.18953,10.500005 0.002,0.73348 7.82794,9.16467 24.91498,26.84021 2.65844,2.75 7.19241,7.925 10.07548,11.5 2.88307,3.575 10.137,11.57598 16.11984,17.77995 5.98283,6.20397 11.78928,12.95397 12.90322,15 3.34612,6.14602 10.34528,16.6346 12.55932,18.82075 2.09845,2.07202 7.79104,18.53955 8.95303,25.8993 0.34734,2.2 1.19716,5.575 1.88848,7.5 2.25841,6.28856 0.83968,43.35149 -1.98228,51.78495 -0.78859,2.35672 -1.43657,5.50672 -1.43996,7 -0.003,1.49328 -0.67839,4.00399 -1.5,5.57936 -0.82161,1.57537 -1.49384,3.58359 -1.49384,4.46272 0,3.29287 -6.52786,22.80309 -8.72017,26.06252 -1.25391,1.86425 -2.27983,4.20019 -2.27983,5.19098 0,0.99079 -0.45,2.07955 -1,2.41947 -0.55,0.33992 -1,1.28796 -1,2.10677 0,0.8188 -1.04603,2.47974 -2.32451,3.69098 -1.27848,1.21124 -2.57191,2.87725 -2.87429,3.70225 -0.88546,2.41587 -13.67843,18.09328 -18.8412,23.08933 -2.60836,2.52414 -5.46255,5.98181 -6.34264,7.68372 -0.88009,1.70191 -3.97561,5.71171 -6.87893,8.91066 -2.90332,3.19896 -6.97802,7.94245 -9.0549,10.54109 -2.07687,2.59864 -6.56779,7.56025 -9.97983,11.02579 -3.41203,3.46555 -7.88804,8.31439 -9.94667,10.7752 -8.56864,10.24262 -11.4354,13.52472 -14.76918,16.90893 -1.93169,1.9609 -5.67408,6.38245 -8.31643,9.82565 -2.64235,3.44321 -6.34937,7.49321 -8.23782,9 -1.88845,1.5068 -3.43355,3.34084 -3.43357,4.07566 -2e-5,0.73482 -1.36926,2.75982 -3.04277,4.5 -3.67928,3.82587 -14.8576,16.29635 -28.01633,31.25488 -1.4075,1.6 -3.4325,3.63153 -4.5,4.51451 -3.25559,2.69283 -9.35654,9.80064 -11.98152,13.95889 -2.4698,3.9124 -2.52437,3.93657 -9.22195,4.08409 -3.70561,0.0816 -11.01246,-0.0174 -16.23746,-0.22016 -5.225,-0.2027 -11.3,-0.3096 -13.5,-0.23755 -2.2,0.072 -37.75,0.0948 -79,0.0505 -82.58018,-0.0887 -115.11774,0.0945 -141.5,0.79658 -9.625,0.25613 -20.875,0.37401 -25,0.26196 -6.60224,-0.17935 -9.20925,-0.15263 -16.75,0.17163 -0.9625,0.0414 -10.075,-0.0123 -20.25,-0.11937 -10.175,-0.10704 -22.775,-0.1171 -28,-0.0224 -5.225,0.0948 -10.4,0.17114 -11.5,0.16975 -1.1,-0.001 -23.6,-0.0133 -50,-0.0264 -26.4,-0.0131 -53.280571,-0.28825 -59.734602,-0.61133 -6.454032,-0.32308 -12.529032,-0.25251 -13.5,0.15683 -1.880375,0.79272 -14.894882,1.51872 -15.546366,0.86724 z M 200.5,500.24404 c 2.2,-0.2232 17.12592,-0.48283 33.1687,-0.57697 16.04279,-0.0941 29.54279,-0.54519 30,-1.00235 0.81752,-0.81743 1.70713,-17.29378 1.25074,-23.16472 -0.3022,-3.88741 0.91171,-136.09211 1.31763,-143.5 0.0452,-0.825 -0.19174,-7.01104 -0.52655,-13.74676 -0.38607,-7.76705 -0.21477,-13.3769 0.4683,-15.33636 1.32664,-3.80561 -0.47277,-6.07814 -5.10102,-6.44223 -4.52334,-0.35583 -63.32366,-1.82436 -65.0778,-1.6253 -0.825,0.0936 -34.8,0.37369 -75.5,0.62239 -40.7,0.2487 -76.473943,0.65198 -79.49765,0.89618 -3.023708,0.2442 -5.948708,0.16076 -6.5,-0.18543 C 33.951057,295.83631 31.925,295.51126 30,295.46018 c -1.925,-0.0511 -4.989524,-0.44222 -6.810053,-0.86918 -3.075363,-0.72125 -12.105178,1.0318 -12.245328,2.37732 -0.242363,2.32681 -1.0715596,32.19228 -1.0698089,38.53168 0.00122,4.4 0.3102539,30.725 0.6867529,58.5 0.3765,27.775 0.775153,62.45262 0.885897,77.06137 0.110744,14.60876 0.476049,27.00585 0.811788,27.54909 0.335739,0.54323 3.002257,0.86615 5.925594,0.71759 C 21.108179,499.1795 31.15,499.12822 40.5,499.21411 c 26.327481,0.24183 59.78331,0.59485 62,0.6542 1.1,0.0294 4.25,0.021 7,-0.0187 2.75,-0.0397 10.85,-0.0188 18,0.0465 7.15,0.0653 16.15,-0.0628 20,-0.28474 3.85,-0.22192 7.80954,0.0274 8.79897,0.55396 1.16549,0.62029 2.92616,0.58806 5,-0.0915 1.87029,-0.6129 4.44615,-0.71299 6.19611,-0.24077 1.75306,0.47307 4.1317,0.37919 5.73603,-0.22638 1.91748,-0.72376 3.06353,-0.71202 3.81466,0.0391 0.71204,0.71204 2.61991,0.78484 5.6641,0.21612 2.63852,-0.49293 5.05807,-0.47904 5.69026,0.0327 1.6075,1.30111 4.8762,1.95066 6.59987,1.31151 0.825,-0.30591 3.3,-0.73882 5.5,-0.96202 z m 125.14008,-0.28412 c 0.7201,-0.7201 2.55059,-0.69238 5.95,0.0901 2.92723,0.6738 8.54423,0.89191 13.90992,0.54015 9.0604,-0.59398 44.95521,-0.84184 88.54919,-0.61144 15.2725,0.0807 24.5855,-0.26954 26.49773,-0.99657 1.68591,-0.64098 5.30472,-0.87343 8.45081,-0.54283 3.02625,0.31801 24.17727,0.68676 47.00227,0.81944 l 41.5,0.24123 2,-4.10801 c 1.62927,-3.34653 13.93249,-17.72893 26.85382,-31.39199 1.30035,-1.375 4.51642,-5.2 7.14682,-8.5 2.6304,-3.3 6.29383,-7.48416 8.14095,-9.29814 1.84713,-1.81397 3.35841,-3.63072 3.35841,-4.0372 0,-0.40649 4.82511,-5.67233 10.72246,-11.70186 5.89736,-6.02954 11.4277,-11.95448 12.28964,-13.16654 0.86195,-1.21205 5.37434,-6.30676 10.02754,-11.32158 14.76188,-15.90907 20.60323,-22.33824 24.96266,-27.47468 2.334,-2.75 8.4633,-9.35649 13.62067,-14.68109 5.15737,-5.32459 9.39747,-10.04959 9.42245,-10.5 0.025,-0.4504 2.0463,-2.84391 4.49182,-5.31891 2.44552,-2.475 4.45008,-4.9649 4.45458,-5.53311 0.005,-0.56821 2.93318,-5.00199 6.50818,-9.85285 3.575,-4.85086 6.5,-9.59502 6.5,-10.54258 0,-0.94756 1.125,-2.77971 2.5,-4.07146 1.375,-1.29175 2.5,-3.33329 2.5,-4.53678 0,-1.20348 1.33191,-5.41805 2.95979,-9.36572 l 2.9598,-7.17757 -2.7098,-1.09566 c -1.93315,-0.78164 -58.02469,-1.08221 -195.70979,-1.04875 -106.15,0.0258 -195.17918,0.26355 -197.84262,0.52832 -7.66519,0.762 -6.85803,-8.33752 -6.58145,74.19616 0.059,17.6 0.0212,53.72495 -0.0838,80.27767 -0.14563,36.79639 0.0995,48.62781 1.03086,49.75 1.40389,1.69157 7.0734,1.97597 8.61712,0.43225 z M 258.35692,237.32463 c 3.92869,-0.92146 7.30495,-1.79583 7.50279,-1.94305 0.27738,-0.20641 0.30677,-63.27427 0.0368,-78.88158 -0.0285,-1.65 0.073,-33.99026 0.22571,-71.867245 0.27123,-67.282394 0.23275,-68.900702 -1.67228,-70.321021 -1.62828,-1.213989 -5.49612,-1.350243 -23.4499,-0.826083 -28.55164,0.833565 -27.7304,0.847787 -33.81845,-0.585671 -4.23519,-0.997192 -6.01569,-1.000129 -8.74162,-0.01442 -2.5761,0.931529 -11.03439,1.097997 -34.18155,0.672728 C 147.34127,13.24748 122.025,13.038314 108,13.093475 93.975,13.148636 81.15,13.120454 79.5,13.030848 77.85,12.941242 63,12.772184 46.5,12.655164 30,12.538143 15.988488,12.122814 15.363307,11.73221 12.937196,10.216412 11.751185,14.118605 11.406736,24.750052 9.9702436,69.087566 9.7467299,77.909561 9.9815892,81 c 0.3196328,4.205945 0.3156178,73.47758 -0.00695,119.83563 -0.2085322,29.96973 -0.063724,33.50368 1.434173,35 1.50701,1.50542 5.554164,1.64335 42.378654,1.44427 118.86347,-0.6426 185.63856,-0.1872 187.10178,1.27602 1.01852,1.01851 10.82168,0.32749 17.46767,-1.23129 z M 515,236.43978 c 3.025,-0.29979 49.825,-0.67429 104,-0.83221 112.67931,-0.32847 107.72962,0.0654 105.92298,-8.42838 -1.45611,-6.84577 -3.11935,-12.66549 -4.52421,-15.83032 C 719.62945,209.61575 719,207.32975 719,206.26887 719,201.364 702.65866,174.67594 695.87378,168.5 c -5.33994,-4.86069 -11.67942,-11.39663 -13.06475,-13.46963 -1.72733,-2.58479 -7.66528,-9.16747 -22.89903,-25.38541 -4.7245,-5.02973 -10.237,-10.90149 -12.25,-13.04836 -2.013,-2.14687 -3.66251,-4.17187 -3.66559,-4.5 -0.003,-0.32813 -1.91557,-2.63982 -4.25,-5.13709 C 633.4681,100.24538 629,94.789123 629,93.838875 629,93.377494 628.59132,93 628.09182,93 626.36123,93 604.79038,70.747583 586,49.578213 580.53454,43.420784 560.84014,24.000445 560.05968,23.998871 c -0.30782,-6.21e-4 -3.2447,-2.441905 -6.5264,-5.425076 -3.2817,-2.983171 -6.42559,-5.140354 -6.98642,-4.793738 -1.14208,0.705846 -49.44816,0.398977 -50.61396,-0.32153 -0.613,-0.378852 -27.10973,-1.535882 -30.4329,-1.32891 -0.55,0.03425 -22.15,0.217958 -48,0.408229 -25.85,0.19027 -48.09166,0.586499 -49.4259,0.880508 -1.33425,0.29401 -2.91994,0.124548 -3.52377,-0.37658 -1.08264,-0.898517 -8.51431,-0.758936 -10.18907,0.19137 C 353.64617,13.638902 342.64223,13.45918 341,13.01492 c -1.77271,-0.479555 -21.62499,0.229703 -22.15957,0.79169 -0.84111,0.884241 -1.85338,51.339556 -2.4415,121.69339 -0.25287,30.25 -0.46756,55.45 -0.47709,56 -0.01,0.55 0.0565,10.43869 0.14682,21.97487 0.14182,18.12256 0.38629,21.13931 1.79774,22.1841 1.24897,0.92452 23.38572,1.2175 94.01949,1.24435 50.81223,0.0193 92.65079,0.30003 92.97457,0.6238 0.32377,0.32378 1.50013,0.33422 2.61411,0.0232 1.11399,-0.31101 4.50043,-0.81076 7.52543,-1.11055 z"
       id="path1" />
  </g>
</svg>
