<?xml version="1.0" encoding="UTF-8" standalone="no"?>
<!-- Created with Inkscape (http://www.inkscape.org/) -->

<svg
   version="1.1"
   id="svg1"
   width="735"
   height="505"
   viewBox="0 0 735 505"
   sodipodi:docname="6.svg"
   inkscape:version="1.4 (86a8ad7, 2024-10-11)"
   xmlns:inkscape="http://www.inkscape.org/namespaces/inkscape"
   xmlns:sodipodi="http://sodipodi.sourceforge.net/DTD/sodipodi-0.dtd"
   xmlns="http://www.w3.org/2000/svg"
   xmlns:svg="http://www.w3.org/2000/svg">
  <defs
     id="defs1" />
  <sodipodi:namedview
     id="namedview1"
     pagecolor="#ffffff"
     bordercolor="#000000"
     borderopacity="0.25"
     inkscape:showpageshadow="2"
     inkscape:pageopacity="0.0"
     inkscape:pagecheckerboard="0"
     inkscape:deskcolor="#d1d1d1"
     inkscape:zoom="1.1131681"
     inkscape:cx="386.28487"
     inkscape:cy="234.01677"
     inkscape:window-width="1920"
     inkscape:window-height="1013"
     inkscape:window-x="2391"
     inkscape:window-y="605"
     inkscape:window-maximized="1"
     inkscape:current-layer="g1" />
  <g
     inkscape:groupmode="layer"
     inkscape:label="Image"
     id="g1">
    <path
       style="fill:#000000"
       d="M 405.46028,504.12695 C 405.20495,503.87161 314.6113,503.74976 204.14106,503.85617 24.209657,504.02948 3.1527224,503.88895 2.005917,502.50713 0.97568486,501.26578 0.79049699,473.78177 1.0573731,361.73231 1.3660946,232.11382 1.3699888,200.04457 1.0826591,153.5 c -0.061115,-9.9 0.3709401,-21.80523 0.9601222,-26.45606 0.6385902,-5.04084 0.7502316,-11.30095 0.2764239,-15.5 C 1.8820562,107.66977 1.6857578,102.025 1.8829865,99 2.2948142,92.683581 2.3805221,78.917703 2.0355263,74.5 1.480301,67.39029 2.1331758,38.112872 2.9384672,34.008657 3.4231547,31.538418 3.5601272,29.097288 3.2428505,28.583923 2.423418,27.258054 2.9994405,15.823417 3.9733291,14.083175 4.4292001,13.268578 4.3104078,11.86865 3.7028626,10.895815 2.8448302,9.5218869 3.1549772,8.4682891 5.1939295,5.8305249 7.7188563,2.5640622 7.9292905,2.4962175 16.134188,2.3033506 27.27909,2.041375 32.247002,1.9736709 36.75,2.0223923 c 2.0625,0.022316 6,0.045663 8.75,0.051882 2.75,0.00622 6.665226,0.2101214 8.700501,0.4531157 2.035276,0.2429943 3.987839,-0.023113 4.339028,-0.5913494 0.430627,-0.6967698 1.089379,-0.6589832 2.023243,0.1160554 1.392282,1.1554915 10.611944,0.795507 15.156404,-0.5917865 1.220546,-0.3725979 3.595444,-0.197681 5.277549,0.3887042 1.713264,0.597247 4.003949,0.7163643 5.208325,0.2708366 1.182473,-0.4374251 4.116528,-0.427922 6.520122,0.021118 2.947526,0.5506574 4.985634,0.4320737 6.260788,-0.364273 1.48294,-0.92610895 2.45703,-0.87757339 4.51736,0.2250837 2.13883,1.144664 2.77591,1.1644526 3.42974,0.1065323 0.5879,-0.9512485 2.51242,-1.1428486 7.18496,-0.7153154 7.81736,0.7152812 8.32098,0.722258 18.88198,0.2615818 4.675,-0.2039259 8.94209,-0.1184332 9.48242,0.1899837 1.72034,0.9819599 4.96234,0.893395 6.68638,-0.1826587 1.1693,-0.72981336 2.06725,-0.71201071 3,0.059478 0.93496,0.7733177 2.92637,0.810439 6.6903,0.1247125 2.9475,-0.5369867 6.0975,-0.6525973 7,-0.2569124 2.70811,1.1873279 9.00313,1.4427488 9.65274,0.3916604 0.7363,-1.19135603 14.15931,-1.32195469 14.8868,-0.1448406 0.59778,0.9672268 4.23471,0.8639872 5.24766,-0.1489625 1.07568,-1.07568912 6.99967,-0.80546628 9.74288,0.4444218 1.37714,0.6274685 3.2912,0.7853271 4.29705,0.3543923 1.5112,-0.6474377 7.29229,-1.0187391 23.73838,-1.52464108 1.05853,-0.0325618 3.15468,0.45031188 4.65811,1.07305248 2.22706,0.9224806 3.21289,0.8181499 5.32098,-0.5631224 1.97717,-1.29549175 3.47302,-1.50408693 6.34189,-0.88437018 3.82026,0.82523338 8.34861,1.33704918 11.50441,1.30028368 4.57847,-0.05334 13.61137,-0.010988 90.01129,0.4220318 46.99839,0.2663775 81.99416,0.086596 82.30901,-0.4228398 0.69599,-1.12612882 5.50303,-1.12600326 7.28019,1.902e-4 0.75223,0.4766915 3.10015,0.4626888 5.30011,-0.031609 6.6269,-1.48896649 33.4018,-1.47119085 35.20264,0.023371 0.85293,0.7078712 2.35988,1.0326264 3.34877,0.7216782 3.75887,-1.1819407 29.10286,-1.72461808 29.77471,-0.6375498 0.36381,0.5886635 1.13028,0.7805598 1.70327,0.4264363 1.71761,-1.0615445 14.09859,-1.40245098 15.28144,-0.42077 1.35617,1.125519 7.41857,1.0351881 8.13325,-0.1211868 0.84472,-1.36679487 8.26317,-0.97167348 11.30675,0.60222 2.90409,1.5017667 8.52173,7.0746307 16.68393,16.5509739 2.60551,3.025 5.78969,6.491013 7.07596,7.702251 1.28627,1.211238 2.33868,2.562329 2.33868,3.002424 0,0.440095 3.37832,4.399082 7.50738,8.797749 4.12906,4.398667 9.41656,10.224915 11.75,12.947218 2.33344,2.722304 6.98518,7.672304 10.33719,11 3.35202,3.327697 7.40202,8.023375 9,10.434841 5.05272,7.624891 5.76047,8.474343 12.65543,15.189244 3.7125,3.615549 6.75,7.002841 6.75,7.527315 0,0.524474 1.2375,2.088502 2.75,3.475618 4.34674,3.9864 17.20325,18.37416 20.65201,23.11173 1.72628,2.37138 4.92953,6.16431 7.11834,8.42871 4.8072,4.97324 7.85841,8.48475 16.17494,18.61503 3.49126,4.25267 11.73806,13.21363 18.32623,19.91323 6.58816,6.69961 11.97848,12.72197 11.97848,13.38301 0,0.66105 0.9,2.34608 2,3.7445 1.1,1.39842 2,3.42901 2,4.51241 0,1.08341 0.65757,2.51557 1.46127,3.18258 0.8037,0.66701 1.76274,2.18461 2.1312,3.37245 0.36846,1.18783 1.44771,3.28469 2.39834,4.65969 1.48048,2.14137 4.6587,11.00018 8.10619,22.59476 0.5061,1.70212 1.37505,6.87712 1.93101,11.5 0.55595,4.62288 1.50853,9.38113 2.11684,10.57388 0.60832,1.19276 0.84667,3.44276 0.52968,5 -0.31699,1.55725 -1.05471,5.53136 -1.63938,8.83136 -0.58468,3.3 -1.47894,6.9 -1.98726,8 C 729.76965,271.26613 727,281.46208 727,283.40159 c 0,0.87658 -1.575,3.78607 -3.5,6.46553 -1.925,2.67945 -3.5,5.95537 -3.5,7.2798 0,1.32444 -0.61097,3.2957 -1.35771,4.38057 -0.74674,1.08488 -1.88868,3.6056 -2.53765,5.60159 -0.64896,1.996 -2.06299,4.42824 -3.14229,5.40499 -1.07929,0.97675 -1.96235,2.31038 -1.96235,2.96363 0,2.71073 -10.2,18.65148 -14.39854,22.5023 -8.76648,8.04045 -22.50715,23.08146 -24.49717,26.81543 -0.76763,1.44036 -1.89263,3.12691 -2.5,3.74788 -0.60736,0.62097 -5.60429,6.01055 -11.10429,11.97684 -5.5,5.96628 -11.21668,12.1243 -12.70374,13.68448 -1.48706,1.56018 -3.70453,4.2854 -4.92772,6.05603 -2.76256,3.99896 -11.2285,13.99769 -19.65985,23.21934 -9.92492,10.85522 -10.58875,11.5 -11.83983,11.5 -0.64527,0 -1.61412,1.2375 -2.15301,2.75 -0.90375,2.53657 -6.08016,8.44148 -17.96,20.48757 -2.5697,2.60567 -5.14169,5.61487 -5.71554,6.68711 -0.57385,1.07225 -3.1725,4.34034 -5.77479,7.26243 -5.68089,6.37904 -18.37601,21.226 -24.00044,28.06854 -2.19918,2.67547 -2.62873,2.77135 -14.76508,3.29575 -15.95236,0.68928 -132.92186,1.19341 -133.53972,0.57555 z m -40.74487,-7.72611 c 3.26133,0.50697 6.79543,0.66571 13.28459,0.59669 0.825,-0.009 8.81433,0.16727 17.75406,0.3912 8.93973,0.22393 16.49933,0.0103 16.7991,-0.47474 0.74779,-1.20996 17.64552,-0.9242 19.19684,0.32463 0.83906,0.67546 1.66094,0.67324 2.5,-0.007 1.75323,-1.42086 40.31862,-1.51402 44.60567,-0.10776 2.44397,0.80169 3.93826,0.80094 5.5,-0.003 1.3878,-0.7142 12.74191,-1.19487 32.18228,-1.36243 L 546.5759,495.5 l 3.96205,-4.1356 c 8.21784,-8.57779 17.9688,-19.34225 30.67601,-33.8644 12.97293,-14.82583 22.46015,-25.13632 30.33789,-32.97054 2.22852,-2.2162 5.13179,-5.60446 6.4517,-7.52946 2.91651,-4.25351 10.04968,-13.10017 11.68357,-14.49012 0.65291,-0.55543 4.34189,-5.00036 8.19772,-9.8776 3.85583,-4.87725 12.40409,-14.55225 18.99613,-21.5 17.57792,-18.52645 18.95804,-20.06933 19.61986,-21.93368 0.33163,-0.93423 3.27961,-3.94542 6.55107,-6.69154 5.1663,-4.33669 7.58762,-8.33584 5.1981,-8.58539 -6.94691,-0.72548 -34.05006,-0.56531 -36.07576,0.2132 -3.42613,1.31672 -77.0826,1.35677 -78.39674,0.0426 -0.53689,-0.53689 -2.44297,-0.59125 -4.49598,-0.12823 -4.19887,0.947 -84.59205,1.30687 -85.51612,0.3828 -0.66237,-0.66237 -20.30786,-0.70846 -32.2654,-0.0757 -3.85,0.20373 -7.99657,-9.1e-4 -9.2146,-0.45476 -1.30626,-0.48672 -2.46254,-0.424 -2.8191,0.15292 -0.33247,0.53796 -0.96783,0.75355 -1.41191,0.47909 -0.44408,-0.27445 -22.57549,-0.7249 -49.1809,-1.00099 -26.60542,-0.27609 -53.88599,-0.77918 -60.62349,-1.11799 l -12.25,-0.61602 -0.0722,10.8507 c -0.0397,5.96788 -0.20968,39.87569 -0.37775,75.35069 -0.16808,35.475 -0.63124,66.76952 -1.02926,69.54338 -0.57203,3.98661 -0.39642,5.31497 0.83806,6.3395 1.078,0.89466 7.80883,1.56664 21.73101,2.16954 11.09311,0.48038 20.40707,1.1112 20.69769,1.40183 0.29062,0.29062 1.11674,0.0401 1.83582,-0.55667 0.74415,-0.61758 2.93794,-0.8316 5.09201,-0.49674 z m -151.53234,-1.28161 c 36.66342,-0.19453 47.92272,-0.54177 48.72008,-1.50253 0.71096,-0.85666 0.71629,-2.4111 0.0169,-4.94395 -0.61585,-2.23043 -0.78899,-9.73324 -0.43692,-18.93358 0.80123,-20.93786 1.26749,-45.30264 1.47809,-77.23917 0.0979,-14.85 0.4842,-33.45659 0.85839,-41.34798 0.37419,-7.89139 0.45535,-14.68653 0.18035,-15.1003 -2.17903,-3.27863 -4.09905,-3.33435 -129.28139,-3.75209 C 43.574402,331.99548 10.482282,332.18478 9.4806612,333.01605 7.7483723,334.45372 7.4489321,347.99496 7.9552054,402 c 0.2088183,22.275 0.4168227,52.2 0.4622321,66.5 L 8.5,494.5 15,495 c 6.637638,0.51059 112.43021,0.57424 198.18307,0.11923 z M 127,309 c 0,-1.1 -0.6,-2 -1.33333,-2 -1.88088,0 -2.61836,0.96233 -1.99078,2.59777 C 124.49212,311.72483 127,311.27384 127,309 Z m 9,1 c 0,-0.55 -0.70156,-1 -1.55902,-1 -0.85746,0 -1.2809,0.45 -0.94098,1 0.33992,0.55 1.04148,1 1.55902,1 0.51754,0 0.94098,-0.45 0.94098,-1 z m 411,-27.81734 c 0,-2.02141 -5.1316,-1.85793 61,-1.94338 16.775,-0.0217 31.175,-0.0413 32,-0.0436 0.825,-0.002 14.325,-0.31486 30,-0.69454 15.675,-0.37969 32.62675,-0.65919 37.67056,-0.62112 11.3231,0.0855 12.29255,-0.62179 14.91333,-10.88001 2.23528,-8.74929 2.33388,-29.56664 0.14979,-31.62241 -1.62104,-1.5258 -54.30852,-3.37642 -56.55738,-1.98655 -0.52502,0.32448 -3.14081,0.18154 -5.81285,-0.31765 -3.13667,-0.58599 -5.28698,-0.55182 -6.06807,0.0964 -1.00978,0.83804 -103.97487,0.69778 -215.79538,-0.29397 -7.15,-0.0634 -16.15,-0.0271 -20,0.0807 -3.85,0.10783 -19.375,-0.1758 -34.5,-0.63027 C 368.875,232.87184 348.02589,232.5 337.66863,232.5 c -17.4871,0 -18.93263,0.13857 -20.25,1.94113 -1.10884,1.51724 -1.41863,6.15764 -1.41863,21.25 0,24.86234 -1.05551,23.46188 17.24666,22.88299 7.28934,-0.23056 14.15334,-0.46131 15.25334,-0.51279 1.1,-0.0515 6.95,0.0326 13,0.18677 6.05,0.15421 11.54279,-0.10228 12.2062,-0.56995 0.6634,-0.46768 1.75841,-0.50904 2.43334,-0.0919 0.67493,0.41713 8.00715,0.8798 16.29381,1.02815 18.44845,0.33026 140.22201,1.74932 146.81665,1.71089 4.33251,-0.0253 5.24742,0.52439 4.86842,2.92472 -0.0651,0.4125 0.55658,0.75 1.38158,0.75 0.825,0 1.5,-0.8178 1.5,-1.81734 z m -286.01815,-4.6769 c 1.05371,-0.33444 2.15391,-1.37255 2.44487,-2.30691 0.29097,-0.93437 0.73138,-9.91297 0.97869,-19.95245 0.44202,-17.94286 0.4126,-18.27382 -1.72787,-19.44184 -2.00487,-1.09403 -13.43826,-1.68129 -37.92754,-1.94811 -4.8125,-0.0524 -8.75,-0.51741 -8.75,-1.03328 0,-0.57825 -35.18596,-0.87837 -91.75,-0.7826 -50.4625,0.0855 -96.282215,-0.17253 -101.821589,-0.57327 -7.300068,-0.52813 -10.706427,-0.38888 -12.378563,0.50602 -2.1731801,1.16305 -2.267035,1.6201 -1.6183141,7.88067 0.3787631,3.6553 0.6340579,7.54601 0.5673218,8.64601 -0.4489505,7.39998 0.1892909,25.02178 0.938977,25.92509 0.6118113,0.73719 10.2816853,1.17144 29.5606663,1.3275 15.758283,0.12756 29.341608,0.61818 30.185167,1.09026 0.843559,0.47208 3.432277,0.50364 5.752706,0.0701 2.32043,-0.43351 15.884012,-0.83001 30.141298,-0.88111 44.50394,-0.15953 54.82021,0.0534 56.15261,1.15923 0.85622,0.7106 1.6768,0.72576 2.51972,0.0465 0.7545,-0.60797 6.60138,-0.86108 14.75,-0.63852 7.425,0.20279 22.24834,0.45034 32.94075,0.55011 10.69242,0.0998 20.81742,0.49048 22.5,0.86826 3.51013,0.7881 23.67038,0.39939 26.5411,-0.51174 z m 429.06176,-94.5291 C 691.11962,182.4008 692,181.4184 692,180.79356 c 0,-0.62484 0.71762,-1.92904 1.59471,-2.89822 1.48332,-1.63904 1.12141,-2.30817 -5.18084,-9.57874 -3.72656,-4.29913 -7.07691,-8.0416 -7.44523,-8.3166 -0.36831,-0.275 -1.80596,-2.3 -3.19476,-4.5 -1.38881,-2.2 -6.18108,-7.89412 -10.64949,-12.6536 C 662.65597,138.08692 659,134.0254 659,133.82081 659,133.24694 641.84546,114.18027 625.53199,96.622279 623.03939,93.939532 621,91.365504 621,90.902216 c 0,-0.463287 -1.33288,-1.82778 -2.96195,-3.032204 -1.62907,-1.204425 -3.70972,-3.765673 -4.62366,-5.691662 C 611.91703,79.022904 608.67598,75.416986 590,56.128043 582.76343,48.653959 575.21283,40.230799 571.53676,35.531137 c -1.62978,-2.083589 -5.28165,-5.538761 -8.11527,-7.678162 -2.83361,-2.1394 -7.12516,-6.389741 -9.53676,-9.445201 -5.50759,-6.978026 -8.7684,-8.8735294 -12.41038,-7.214131 -2.01139,0.916451 -3.06054,0.92137 -4.50208,0.02111 -1.1904,-0.743413 -2.10152,-0.814645 -2.48493,-0.194274 -0.67259,1.088276 -4.79757,1.335955 -5.78611,0.347418 -0.9104,-0.910402 -8.86301,-0.808519 -11.0837,0.141996 -1.12361,0.480938 -2.65169,0.325356 -3.79067,-0.38595 -1.04952,-0.655433 -2.31157,-0.942413 -2.80455,-0.637731 -0.86263,0.533135 -15.47273,0.947352 -17.52231,0.496782 -0.55,-0.12091 -1.3592,-0.159313 -1.79822,-0.08534 -0.97642,0.164521 -23.87466,0.05593 -52.70178,-0.249927 -11.825,-0.125464 -27.5061,0.01497 -34.84688,0.312079 -7.34078,0.297107 -13.50641,0.281058 -13.70139,-0.03566 -0.19498,-0.316724 -5.21389,-0.528023 -11.15312,-0.469555 -5.93924,0.05847 -11.47991,-0.203891 -12.31261,-0.5830205 -0.8327,-0.3791298 -3.5327,-0.3195801 -6,0.1323325 -2.4673,0.451913 -4.936,0.46021 -5.486,0.01844 -0.90426,-0.7263251 -6.74219,-0.6260417 -22.42914,0.385286 -2.98603,0.192508 -6.66573,-0.0046 -8.17711,-0.4380916 -4.74151,-1.3598465 -5.93876,1.1731216 -5.97294,12.6366656 -0.0162,5.441593 -0.0449,11.243806 -0.0638,12.893806 -0.0189,1.65 -0.064,17.175 -0.10019,34.5 -0.0781,37.36181 -0.10424,38.67587 -0.78178,39.35616 -0.28873,0.28991 -0.33928,4.71587 -0.11234,9.83547 0.22695,5.11961 0.35159,11.10837 0.27697,13.30837 -0.0746,2.2 -0.26693,12.93793 -0.42738,23.86208 -0.2523,17.1778 -0.0836,19.92675 1.248,20.34067 0.84685,0.26323 2.43972,0.85907 3.53972,1.32408 1.83772,0.77688 33.51177,1.57018 101.5,2.54214 14.575,0.20837 26.725,0.38626 27,0.39531 9.88584,0.32554 60.26505,0.82786 82.5,0.82259 16.5,-0.004 30.9,0.0343 32,0.0849 22.03245,1.01332 29.65432,0.88967 30.18362,-0.48965 0.49181,-1.28164 0.77734,-1.2749 2.2446,0.0529 1.36327,1.23374 5.45199,1.57276 21.62644,1.79317 57.75693,0.78704 68.62076,0.74827 70.48895,-0.25155 z m -428.23863,-4.86688 c 3.24663,-1.58136 3.30397,-1.72452 3.24827,-8.10978 -0.24637,-28.24494 0.62539,-88.753057 1.29374,-89.797887 0.45663,-0.713838 0.51213,-2.063838 0.12333,-3 -0.95102,-2.289916 -1.29092,-12.194957 -0.43659,-12.722957 0.37427,-0.231316 0.50422,-3.696255 0.28876,-7.699865 -0.49799,-9.253782 -0.51366,-7.532133 0.24163,-26.55013 0.46547,-11.7205 0.32183,-16.661659 -0.51361,-17.668306 -0.95454,-1.150143 -4.89296,-1.295592 -22.25353,-0.82184 -19.86884,0.5422 -21.17367,0.466318 -22.47017,-1.306749 -1.24371,-1.7008736 -1.59098,-1.7401482 -3.60162,-0.407321 -1.85379,1.228856 -8.15044,1.480811 -37.72519,1.509542 -19.525,0.01897 -64.37401,0.149702 -99.664466,0.29052 -35.290457,0.140818 -65.327957,-0.03599 -66.75,-0.392895 L 11,10.783184 10.81038,33.141592 C 10.706089,45.438716 10.517562,58.65 10.39143,62.5 10.265299,66.35 9.9562609,80.186858 9.7046791,93.248573 9.3791365,110.15022 8.8880037,117.43002 8.0011842,118.49857 c -0.9965851,1.20081 -0.9883087,1.81202 0.041337,3.05266 1.7454472,2.10314 2.4887412,35.06575 0.936615,41.53574 -0.906068,3.77692 -0.8306289,5.33269 0.4015812,8.28179 1.491893,3.5706 1.614104,3.63227 7.318256,3.69281 3.190565,0.0339 12.101027,0.23343 19.801027,0.44348 7.7,0.21004 42.35,0.64807 77,0.9734 80.03319,0.75144 116.70912,1.47705 125.24442,2.47786 10.71345,1.25622 19.398,0.93742 23.06056,-0.84653 z M 478,5.5 C 478,4.675 477.55,4 477,4 c -0.55,0 -1,0.675 -1,1.5 0,0.825 0.45,1.5 1,1.5 0.55,0 1,-0.675 1,-1.5 z"
       id="path1" />
    <rect
       style="fill:#000000"
       id="rect1"
       width="672.06287"
       height="38.748428"
       x="25.408806"
       y="282.03775" />
  </g>
</svg>
