<?xml version="1.0" encoding="UTF-8" standalone="no"?>
<!-- Created with Inkscape (http://www.inkscape.org/) -->

<svg
   version="1.1"
   id="svg1"
   width="727"
   height="508"
   viewBox="0 0 727 508"
   sodipodi:docname="1.svg"
   inkscape:version="1.4 (86a8ad7, 2024-10-11)"
   xmlns:inkscape="http://www.inkscape.org/namespaces/inkscape"
   xmlns:sodipodi="http://sodipodi.sourceforge.net/DTD/sodipodi-0.dtd"
   xmlns="http://www.w3.org/2000/svg"
   xmlns:svg="http://www.w3.org/2000/svg">
  <defs
     id="defs1" />
  <sodipodi:namedview
     id="namedview1"
     pagecolor="#ffffff"
     bordercolor="#000000"
     borderopacity="0.25"
     inkscape:showpageshadow="2"
     inkscape:pageopacity="0.0"
     inkscape:pagecheckerboard="0"
     inkscape:deskcolor="#d1d1d1"
     inkscape:zoom="1.5649606"
     inkscape:cx="363.58742"
     inkscape:cy="253.6805"
     inkscape:window-width="1920"
     inkscape:window-height="1013"
     inkscape:window-x="2391"
     inkscape:window-y="605"
     inkscape:window-maximized="1"
     inkscape:current-layer="g1" />
  <g
     inkscape:groupmode="layer"
     inkscape:label="Image"
     id="g1">
    <path
       id="path1"
       style="fill:#000000"
       d="M 525.56641,2.9550781 C 522.71468,3.3888136 516.28607,3.4663154 499.75,3.4179688 484.21243,3.3725408 462.275,3.6936966 451,4.1328125 c -11.275,0.4391159 -33.32102,1.0284384 -48.99219,1.3085937 -15.67116,0.2801557 -30.41343,0.7965832 -32.75976,1.1484376 -2.40586,0.3607811 -4.808,0.2007556 -5.50782,-0.3671876 -1.65982,-1.3470335 -9.84988,-1.3764555 -11.45898,-0.041016 -0.90215,0.7487167 -1.65891,0.7505692 -2.55859,0.00391 C 348.32001,5.0214507 323.13586,4.6962973 260,5.0292969 238.825,5.1409812 220.375,5.1250428 219,4.9941406 214.34673,4.5511417 203.89873,5.3561907 203.37891,6.1972656 203.09479,6.6569877 202.48931,6.801423 202.0332,6.5195312 201.15742,5.9782678 192.68934,5.8263985 166.5,5.8828125 157.7,5.9017685 146.225,5.684662 141,5.4003906 135.775,5.1161192 108.2306,4.7770338 79.789062,4.6464844 51.347532,4.515935 27.758729,4.0927138 27.371094,3.7050781 26.983458,3.3174425 22.999964,3 18.519531,3 10.845048,3 10.214194,3.167873 7.609375,5.8867188 4.8463471,8.7706984 4.8440505,8.7819404 5.0488281,22.136719 5.1615338,29.486932 4.9653819,45.175 4.6113281,57 4.2572742,68.825 3.7430016,93.35 3.4707031,111.5 c -0.2722985,18.15 -0.8189361,49.65 -1.2167969,70 -1.1922029,60.97946 -1.4819113,117.99304 -0.8886718,175 0.074406,7.15 -0.019398,14.8 -0.2089844,17 -0.1895864,2.2 -0.33693424,10.975 -0.32617188,19.5 0.0107624,8.525 -0.0581209,36.2 -0.15429687,61.5 L 0.5,500.5 l 5.5449219,0.29297 5.5429691,0.29492 -0.06641,0.56641 c 1.434148,-0.0228 2.868589,-0.0343 4.302735,-0.0391 0.725161,-0.002 1.450472,-0.002 2.175781,-0.002 v -0.53711 l 12.25,0.1211 c 6.7375,0.0666 13.15,0.0505 14.25,-0.0371 1.1,-0.0876 12.8,-0.0989 26,-0.0234 13.2,0.0755 27.27355,-0.19594 31.27344,-0.60352 4.66615,-0.47547 7.72167,-0.36787 8.52734,0.30078 0.82521,0.68487 12.15745,0.96858 33.05664,0.82813 17.49089,-0.11755 31.97474,0.0671 32.18555,0.4082 0.66812,1.08104 129.6604,0.12504 133.34961,-0.98828 1.86581,-0.56302 3.75815,-0.7977 4.20508,-0.52148 0.89659,0.55413 48.9162,0.68074 86.40234,0.22851 13.2,-0.1592 31.2,-0.16573 40,-0.0156 8.8,0.15009 25.75912,-0.0213 37.6875,-0.38086 11.92838,-0.35955 22.42711,-0.36999 23.33008,-0.0234 0.90297,0.3465 9.81885,0.80128 19.8125,1.01172 14.11047,0.29713 18.8514,0.0707 21.2207,-1.01758 C 544.76564,498.88665 557,486.8393 557,485.15039 c 0,-0.54299 1.6875,-2.74862 3.75,-4.90234 9.73551,-10.16608 17.25,-18.69592 17.25,-19.58008 0,-0.53602 2.26341,-3.49412 5.0293,-6.57227 6.50242,-7.23651 6.52135,-7.25516 15.67773,-16.25195 4.28602,-4.21132 10.94297,-11.1188 14.79297,-15.34961 3.85,-4.23081 9.25,-10.03765 12,-12.9043 7.3295,-7.6404 15.45061,-17.05319 18.18164,-21.07226 1.31488,-1.93502 2.81325,-3.51758 3.33008,-3.51758 1.20506,0 6.95656,-6.30312 8.4082,-9.21484 0.6113,-1.22615 2.90438,-3.43761 5.0957,-4.91407 4.31058,-2.90434 22.35815,-21.82679 29.2168,-30.63281 2.32799,-2.98897 5.67858,-7.96092 7.44531,-11.04883 1.76673,-3.08792 5.11719,-8.45588 7.44532,-11.92773 2.32813,-3.47185 4.99241,-8.60202 5.92187,-11.40039 0.92947,-2.79837 2.30961,-6.27418 3.06641,-7.72461 0.75679,-1.45044 1.37981,-3.65543 1.38281,-4.90039 0.003,-1.24496 0.41812,-3.04496 0.92188,-4 2.14953,-4.07509 4.14621,-9.30648 4.73437,-12.40625 0.3475,-1.83141 1.03049,-4.1109 1.51758,-5.06446 1.43533,-2.80984 4.04987,-19.5653 4.5293,-29.01953 0.32155,-6.34102 0.0505,-9.54658 -0.98633,-11.625 -0.81598,-1.63569 -1.09042,-3.47793 -0.63867,-4.28515 0.81212,-1.45118 -0.36149,-5.94355 -4.79102,-18.33594 -1.37614,-3.85 -2.74525,-8.125 -3.04102,-9.5 -0.29576,-1.375 -1.37042,-3.5731 -2.38867,-4.88477 C 713.83331,192.80356 713,191.17176 713,190.48828 c 0,-0.68349 -0.70181,-1.82605 -1.55859,-2.53711 -0.85677,-0.71106 -2.20708,-2.67731 -3.00196,-4.37109 -2.41949,-5.15563 -11.21502,-17.76987 -15.74414,-22.58008 -1.29466,-1.375 -3.58288,-4.075 -5.08593,-6 -2.73753,-3.50601 -10.70214,-11.89991 -43.17188,-45.5 -9.56695,-9.9 -17.40422,-18.060024 -17.41602,-18.132812 -0.0829,-0.511704 -13.88751,-14.770251 -20.30664,-20.97461 -1.76817,-1.709011 -4.87434,-5.084011 -6.90234,-7.5 C 597.78449,60.476589 594.73656,56.925 593.03906,55 c -1.6975,-1.925 -4.08801,-4.83288 -5.3125,-6.460938 C 586.50206,46.911007 583.8125,43.943316 581.75,41.943359 579.60231,39.860797 578,37.345 578,36.054688 578,34.753405 576.12253,31.836535 573.55664,29.150391 560.61552,15.602767 548.76764,4 547.875,4 547.55445,4 547.40893,3.6597913 547.37109,3.1953125 h -0.92578 -5.79687 -6.01367 c -0.75589,0.9077389 -1.77435,0.9075669 -2.29297,0 h -4.83985 c -0.7307,0 -1.37365,-0.08939 -1.93554,-0.2402344 z M 422.82227,13.164062 c 2.89037,0.01728 6.42568,0.129214 9.9082,0.330079 l 12.66406,0.730468 -3.94726,3.416016 C 434.53681,23.62102 407.87376,48.451193 397.03516,59 c -3.67322,3.575 -14.9875,14.6 -25.14063,24.5 -10.15314,9.9 -25.19555,24.3624 -33.42773,32.13867 C 314.37166,138.39941 292,160.66058 292,161.875 c 0,0.61881 -0.58349,1.125 -1.29688,1.125 -0.71337,0 -3.05488,1.8 -5.20312,4 -2.14824,2.2 -4.45565,4 -5.12695,4 -0.67129,0 -6.31729,-4.90207 -12.54688,-10.89258 -6.22959,-5.99052 -13.19957,-12.62802 -15.48828,-14.75 C 250.04919,143.23543 243.56736,137.225 237.93164,132 232.29592,126.775 226.51738,121.32993 225.0918,119.90039 223.66622,118.47085 218.225,113.56528 213,108.99805 207.775,104.43082 200.125,97.462289 196,93.513672 191.875,89.565055 185.125,83.251036 181,79.482422 176.875,75.713807 169.225,68.503614 164,63.458984 153.37456,53.200338 150.54073,50.530602 137.13086,38.150391 131.97751,33.392739 125.03594,26.9125 121.70508,23.75 118.37422,20.5875 115.27752,18 114.82422,18 114.37093,18 114,17.306463 114,16.458984 c 0,-1.362518 3.9644,-1.513449 34.25,-1.300781 24.81954,0.174284 206.74535,-0.943296 229.25,-1.408203 3.38341,-0.0699 29.87685,0.150243 32,0.265625 2.86726,0.155822 3.61622,0.09212 7.2832,-0.617187 0.90287,-0.174645 3.1487,-0.251657 6.03907,-0.234376 z m 152.97851,34.078126 c 0.5233,0.05704 0.98379,0.375751 1.67578,0.746093 1.38736,0.742492 2.52344,1.859929 2.52344,2.484375 0,0.624445 4.3875,5.671628 9.75,11.214844 11.54573,11.934819 23.61357,25.179736 24.08594,26.435547 C 614.48742,89.855013 621.62905,97 622.70898,97 c 0.60152,0 1.95053,1.350593 2.9961,3.00195 1.04557,1.65137 5.58095,6.93887 10.08008,11.75 4.49913,4.81114 9.00197,9.64805 10.00586,10.74805 1.00389,1.1 2.92465,2.96086 4.26757,4.13477 1.34292,1.17392 5.13162,5.11142 8.41993,8.75 3.28831,3.63859 6.43831,6.63766 7,6.66406 0.56169,0.0264 2.71921,2.38889 4.79492,5.25 2.07571,2.86111 6.12571,7.74885 9,10.86328 9.59883,10.40082 16.06724,17.87144 17.85156,20.61719 0.97222,1.49607 3.59297,5.35428 5.82227,8.57226 2.2293,3.21799 4.05273,6.64979 4.05273,7.62696 0,0.97717 0.675,2.33679 1.5,3.02148 0.825,0.68469 1.5,2.10755 1.5,3.16211 0,1.05457 0.86884,3.62183 1.93164,5.70508 2.40108,4.70652 5.96917,17.96921 6.62695,24.63281 0.27146,2.75 0.99825,6.2663 1.61524,7.81445 1.21174,3.04052 0.101,12.07412 -2.79102,22.68555 -0.82443,3.025 -1.92642,7.50663 -2.44922,9.95898 -0.5228,2.45234 -1.3982,4.90406 -1.94336,5.44922 -0.54515,0.54515 -0.99023,2.67488 -0.99023,4.73242 0,2.05755 -0.4606,4.02519 -1.02344,4.37305 -1.5619,0.96531 -6.97656,13.4532 -6.97656,16.08985 0,1.27979 -1.37925,3.89706 -3.06445,5.8164 -1.6852,1.91934 -4.41767,6.09786 -6.07227,9.28516 -4.37446,8.42663 -6.25927,11.71663 -7.64844,13.34765 -0.67776,0.79575 -3.01175,3.73898 -5.18554,6.54102 -2.17378,2.80204 -5.54188,6.17704 -7.48438,7.5 -1.9425,1.32296 -3.53506,2.64686 -3.53906,2.94141 -0.004,0.29455 -5.40586,6.03715 -12.00586,12.75976 -6.6,6.72262 -12,12.63709 -12,13.14453 0,0.50743 -2.96249,3.99178 -6.58398,7.74219 -3.62149,3.7504 -7.04035,8.05586 -7.59766,9.56836 -0.55732,1.5125 -1.64482,2.75 -2.41602,2.75 -0.77119,0 -1.40234,0.41109 -1.40234,0.91406 0,1.34073 -9.37605,12.30286 -18.06055,21.11524 -4.15845,4.21969 -9.32175,9.82043 -11.47265,12.44531 -2.15089,2.62489 -5.77444,6.19594 -8.05274,7.93555 -2.27829,1.73961 -6.48417,5.8469 -9.34765,9.12695 -2.86347,3.28004 -5.51284,6.05324 -5.88672,6.16406 C 575.28016,451.96779 565,442.58388 565,441.49609 565,440.59993 548.5816,424.27867 541,417.63867 536.34398,413.5609 501.32518,380.2409 495.05273,373.91992 493.09864,371.95071 484.075,363.42354 475,354.9707 453.27752,334.73747 426.46512,309.40351 422.03516,304.92578 420.09032,302.95996 408.6,292.21394 396.5,281.04492 367.9626,254.70322 364,250.86496 364,249.57227 c 0,-0.59062 4.3159,-5.1226 9.5918,-10.07227 5.2759,-4.94967 18.2134,-17.36663 28.75,-27.5918 10.5366,-10.22517 23.3207,-22.37221 28.4082,-26.99414 5.0875,-4.62192 9.2633,-8.85529 9.2793,-9.4082 0.016,-0.5529 3.39098,-3.6377 7.5,-6.85547 4.10902,-3.21778 7.4707,-6.23283 7.4707,-6.69922 0,-1.18754 3.63879,-4.84637 9.44141,-9.49414 2.71731,-2.1765 6.31657,-5.30703 8,-6.95703 1.68343,-1.65 6.66128,-6.31499 11.06054,-10.36719 4.39926,-4.05219 14.74805,-13.79582 22.99805,-21.65234 8.25,-7.85652 18.91518,-18.011826 23.70117,-22.566408 4.78598,-4.55458 9.39848,-8.669951 10.25,-9.146484 C 541.30268,81.291045 542,80.261186 542,79.480469 c 0,-0.780716 3.23927,-4.469765 7.19727,-8.199219 C 553.15528,67.551796 558.71173,62.25 561.54688,59.5 572.1058,49.258181 574.2309,47.071059 575.80078,47.242188 Z M 11.273438,93.746094 c 0.373397,-0.135868 5.082042,3.874228 10.464843,8.910156 5.382802,5.03592 11.785467,10.88592 14.226563,13 2.441096,2.11407 8.734452,7.94577 13.986328,12.95898 C 61.763114,139.89039 68.83027,146 70.060547,146 70.577096,146 71,146.44698 71,146.99219 c 0,1.07451 2.003393,3.06056 13.117188,13.00781 23.800782,21.30257 32.517552,29.21594 42.212892,38.32422 5.95687,5.59617 12.66457,11.75078 14.90625,13.67578 2.24167,1.925 6.62434,5.975 9.73828,9 12.80117,12.43555 19.79924,19 20.25391,19 0.2649,0 4.25128,3.66467 8.85937,8.14453 l 8.37891,8.14649 -24.98438,24.44531 c -13.74071,13.44538 -29.64044,28.79321 -35.33398,34.10547 -5.69353,5.31227 -15.14353,14.3832 -21,20.1582 -5.85646,5.775 -14.936576,14.55 -20.177737,19.5 C 64.875097,375.36814 38.781851,400.44266 25.3125,413.75 17.379579,421.5875 10.462607,428 9.9433594,428 9.4241118,428 8.936313,425.1875 8.859375,421.75 8.7824374,418.3125 8.5559894,413.7 8.3554688,411.5 7.9955492,407.55116 7.6370415,297.53119 7.8828125,266.5 7.9525096,257.7 8.0151744,244.425 8.0214844,237 8.0465852,207.47002 8.839998,151.35959 9.5136719,131.5 c 0.3917974,-11.55 0.7952151,-24.71478 0.8964841,-29.25391 0.101269,-4.539123 0.489883,-8.364129 0.863282,-8.499996 z m 263.482422,242.279296 11.59375,11.23633 c 6.37681,6.18054 14.23762,13.71328 17.46875,16.73828 20.5508,19.23977 35.64721,33.55237 42.75781,40.53906 4.49957,4.42117 9.7397,9.2268 11.64453,10.67969 1.90484,1.45289 7.10319,6.15999 11.55274,10.46094 4.44956,4.30094 10.91863,10.29531 14.375,13.32031 3.45637,3.025 10.79968,9.85158 16.31836,15.16992 5.51868,5.31833 11.1582,10.64127 12.5332,11.83008 1.375,1.1888 6.94583,6.28918 12.37891,11.33203 5.43307,5.04286 11.18853,10.01187 12.79101,11.04297 1.60248,1.03111 2.78166,1.99315 2.6211,2.13867 -0.95081,0.86176 -32.06952,1.73425 -48.79102,1.36719 -5.84889,-0.12839 -89.32937,1.17242 -98,1.52734 -5.225,0.21387 -9.95,0.0398 -10.5,-0.38672 -0.55,-0.42648 -5.5,-0.40264 -11,0.0527 -14.8421,1.22895 -23.66388,1.08978 -26.56055,-0.42188 -1.82664,-0.95325 -3.25936,-1.05691 -5,-0.35937 -1.34186,0.53773 -12.56445,1.0787 -24.93945,1.20117 -12.375,0.12246 -23.85,0.44689 -25.5,0.7207 -1.65,0.27381 -5.925,0.21499 -9.5,-0.13086 -3.575,-0.34584 -21.4625,-0.59473 -39.75,-0.55273 -34.87472,0.0801 -36.54276,-0.14419 -30.5,-4.10156 1.5125,-0.99052 4.325,-3.24807 6.25,-5.01563 1.925,-1.76757 6.65,-6.04458 10.5,-9.50586 3.85,-3.46128 15.325,-14.40633 25.5,-24.32226 10.175,-9.91593 20.00672,-19.26506 21.84766,-20.77539 4.61319,-3.7847 14.37884,-12.70675 29.09375,-26.58008 11.48102,-10.82439 17.803,-16.91822 51.55859,-49.69727 6.6,-6.40906 13.63354,-12.97006 15.62891,-14.58008 z M 96.916016,425.12305 c 0.347396,0.0143 0.646354,0.10729 0.8125,0.27343 0.332291,0.33229 -0.258334,0.56879 -1.3125,0.5254 -1.164943,-0.048 -1.401249,-0.28625 -0.603516,-0.60547 0.360937,-0.14446 0.75612,-0.20767 1.103516,-0.19336 z" />
    <rect
       style="fill:#000000"
       id="rect1"
       width="40.895599"
       height="32.58868"
       x="71.567299"
       y="408.31699" />
    <rect
       style="fill:#000000"
       id="rect2"
       width="14.696856"
       height="51.119495"
       x="190.42012"
       y="305.439" />
  </g>
</svg>
