<?xml version="1.0" encoding="UTF-8" standalone="no"?>
<!-- Created with Inkscape (http://www.inkscape.org/) -->

<svg
   version="1.1"
   id="svg1"
   width="727"
   height="508"
   viewBox="0 0 727 508"
   sodipodi:docname="4.svg"
   inkscape:version="1.4 (86a8ad7, 2024-10-11)"
   xmlns:inkscape="http://www.inkscape.org/namespaces/inkscape"
   xmlns:sodipodi="http://sodipodi.sourceforge.net/DTD/sodipodi-0.dtd"
   xmlns="http://www.w3.org/2000/svg"
   xmlns:svg="http://www.w3.org/2000/svg">
  <defs
     id="defs1" />
  <sodipodi:namedview
     id="namedview1"
     pagecolor="#ffffff"
     bordercolor="#000000"
     borderopacity="0.25"
     inkscape:showpageshadow="2"
     inkscape:pageopacity="0.0"
     inkscape:pagecheckerboard="0"
     inkscape:deskcolor="#d1d1d1"
     inkscape:zoom="1.5649606"
     inkscape:cx="363.58742"
     inkscape:cy="253.6805"
     inkscape:window-width="1920"
     inkscape:window-height="1013"
     inkscape:window-x="2391"
     inkscape:window-y="605"
     inkscape:window-maximized="1"
     inkscape:current-layer="g1" />
  <g
     inkscape:groupmode="layer"
     inkscape:label="Image"
     id="g1">
    <path
       id="path1"
       style="fill:#000000"
       d="M 547.61719,0 C 541.66723,0 541,0.20151241 541,2 c 0,1.1 -0.3375,2.0626013 -0.75,2.1386719 -0.4125,0.076071 -28.72101,0.2109508 -62.9082,0.3007812 -48.95387,0.1286313 -62.48814,0.4376299 -63.70703,1.4492188 -0.85122,0.7064484 -1.92569,1.0498105 -2.38868,0.7636719 C 410.41182,6.1367356 317.52741,4.8958675 267.5,4.7324219 233.70221,4.6220003 194.60778,5.5061028 193.13867,6.4140625 192.50266,6.8071362 191.10502,6.8499474 190.0332,6.5097656 188.96139,6.1695837 183.45373,5.8807645 177.79297,5.8671875 172.13221,5.853611 158.275,5.8021441 147,5.7519531 135.725,5.7017621 119.75,5.6957414 111.5,5.7402344 39.720736,6.1273489 22.67776,6.0948464 17.199219,5.5605469 11.184467,4.9739529 10.765072,5.0806316 7.9492188,7.8964844 6.2960548,9.5496484 5,11.918582 5,13.285156 5,15.346732 4.6137855,15.648217 2.5,15.244141 0.16080519,14.796976 0,15.031021 0,18.882812 0,22.607162 0.23820044,23 2.5,23 4.3333333,23 5,23.533333 5,25 5,26.466667 4.3333333,27 2.5,27 0.94444444,27 0,27.566667 0,28.5 0,29.425072 0.9386315,30 2.4492188,30 H 4.8984375 L 4.4121094,85.25 C 4.1442534,115.6375 3.9274781,146.8 3.9296875,154.5 3.9339613,169.39485 2.3815037,185 0.89648438,185 0.4032928,185 0,186.575 0,188.5 c 0,1.925 0.47783196,3.5 1.0625,3.5 0.724301,0 1.0688671,8.68312 1.0800781,27.25 0.00905,14.9875 0.020741,28.825 0.025391,30.75 0.00465,1.925 -0.084583,21.725 -0.1972657,44 -0.112683,22.275 -0.1382642,47.7 -0.056641,56.5 0.081624,8.8 -0.1858179,33.55 -0.5957031,55 -0.40988538,21.45 -0.76132444,49.8 -0.78125002,63 L 0.5,492.5 l 2.75,4.875 c 1.5125,2.68178 2.75,6.16928 2.75,7.75 0,4.23175 1.8272237,3.50165 2.1894531,-0.875 L 8.5,500.5 l 8,0.0176 c 4.4,0.01 19.1375,0.12249 32.75,0.25 l 21.59375,0.20312 h 0.03711 7.902344 c 2.023241,0.005 4.045208,-0.005 6.068359,-0.004 2.023153,8.6e-4 4.047531,0.0131 6.070313,0.0605 4.311953,0.20072 8.59154,0.79145 12.884765,1.21485 2.9844,0.24498 5.95815,0.60798 8.91992,1.04492 0.46753,0.0614 0.93378,0.12945 1.40039,0.19531 0.77836,-0.72644 2.05683,-1.23242 3.83594,-1.23242 h 6.06055 7.67968 6.68946 c 0.2095,-0.005 0.41784,-0.006 0.62695,-0.002 1.46381,0.0257 2.91896,0.23718 4.375,0.3789 1.25688,0.11953 2.5197,0.16928 3.78125,0.20508 0.2089,0.005 0.4161,0.009 0.625,0.0137 1.31814,0.0289 2.35038,0.33276 3.10938,0.78907 1.54668,-0.10908 2.92971,-0.21419 6.08984,-0.24805 5.775,-0.0619 16.8,-0.47185 24.5,-0.91211 11.09966,-0.63465 45.15161,-0.79243 56,-0.25977 1.66099,0.0816 44.34935,-0.81291 68.53125,-1.43554 3.59207,-0.0925 7.11759,0.1947 7.83594,0.63867 0.72869,0.45035 1.78888,0.32635 2.39648,-0.28125 0.78543,-0.7854 1.48087,-0.7648 2.49414,0.0762 1.07162,0.88934 1.86071,0.88268 3.32422,-0.0312 1.50046,-0.93702 2.35949,-0.9235 3.94141,0.0605 1.66283,1.03443 2.50845,0.98121 4.75,-0.29883 2.01545,-1.15092 5.01278,-1.49084 11.49023,-1.30078 4.82042,0.14144 9.22188,0.54101 9.78125,0.88672 2.51163,1.55227 22.00818,2.32868 52.21094,2.08203 18.01559,-0.14712 32.98805,-0.0354 33.27148,0.24805 0.28342,0.28345 7.36815,0.37898 15.74414,0.21093 31.7969,-0.63795 59.67434,-0.575 71.72852,0.16211 17.78603,1.08762 19.66296,0.70381 25.58398,-5.23437 7.04832,-7.06876 11.8389,-12.32443 12.41602,-13.6211 0.82458,-1.85267 7.06158,-9.06006 14.5,-16.75586 3.85,-3.98322 10.08917,-10.92752 13.86523,-15.43164 3.77606,-4.50412 7.2036,-8.18945 7.61524,-8.18945 0.41163,0 2.03226,-1.85269 3.60156,-4.11719 3.36721,-4.85889 3.07642,-4.54884 29.67383,-31.68554 11.41593,-11.64741 22.34278,-23.65719 24.28125,-26.6875 1.93847,-3.03031 3.92778,-5.50977 4.41992,-5.50977 1.33789,0 14.6388,-13.5461 22.04297,-22.44922 3.575,-4.29876 8.38727,-9.9188 10.69336,-12.48828 9.30377,-10.36635 19.21326,-26.99905 21.48633,-36.0625 1.05546,-4.20847 1.26171,-4.95904 3.28906,-12 0.87101,-3.025 1.8319,-7.3 2.13477,-9.5 0.30287,-2.2 1.0403,-5.01138 1.64062,-6.24805 1.31067,-2.7 0.56095,-3.64593 -2.94336,-3.70703 -1.44329,-0.0252 -2.81305,-0.60742 -3.04492,-1.29492 -0.54478,-1.6153 3.92482,-1.66894 5.52734,-0.0664 1.58548,1.58548 2.58763,0.3948 2.93164,-3.48242 0.15621,-1.76063 0.7267,-6.80117 1.26758,-11.20117 0.54078,-4.4 0.78361,-9.125 0.53906,-10.5 -0.24456,-1.375 -0.71599,-5.875 -1.04687,-10 -0.58702,-7.31817 -6.09785,-25.9483 -9.08594,-30.71484 C 715.62516,205.06701 715,203.62523 715,203.08008 c 0,-0.54515 -1.35,-3.28167 -3,-6.08008 -1.65,-2.79841 -3,-5.55747 -3,-6.13086 0,-0.57338 -1.30762,-2.91517 -2.90625,-5.20508 -2.65245,-3.79946 -7.08221,-10.52057 -9.59375,-14.55664 -3.82614,-6.14866 -7.9409,-11.28574 -10.50195,-13.10937 C 684.34933,156.82406 683,155.32614 683,154.66797 c 0,-0.65817 -2.08051,-3.2137 -4.62305,-5.67774 -2.54253,-2.46404 -4.90503,-5.22843 -5.25,-6.14257 -0.34496,-0.91415 -3.77695,-4.96522 -7.62695,-9.00391 -3.85,-4.0387 -7.74714,-8.46875 -8.66016,-9.84375 -0.91302,-1.375 -3.05052,-3.99105 -4.75,-5.8125 C 650.39036,116.36606 649,114.70046 649,114.48633 c 0,-0.21413 -3.16539,-3.59955 -7.03516,-7.52344 -3.86977,-3.9239 -11.70642,-12.833298 -17.41406,-19.798828 C 618.84314,80.198534 611.15378,71.35 607.46289,67.5 600.34117,60.071278 595.12321,53.938602 588.31641,44.996094 586.01539,41.973121 581.17789,36.428882 577.56641,32.675781 573.95492,28.922679 571,25.451665 571,24.962891 c 0,-0.488774 -2.69359,-3.615321 -5.98633,-6.949219 -3.29274,-3.333897 -6.6376,-7.322043 -7.43359,-8.8613282 C 556.78408,7.613059 555.47441,5.8082892 554.66992,5.140625 553.86544,4.4729608 553.43833,3.0426684 553.7207,1.9628906 554.19269,0.15799406 553.70019,0 547.61719,0 Z M 533.5,12.980469 c 2.20413,-0.113855 8.0851,0.587043 13.5,1.609375 3.18643,0.601597 11.96006,6.586736 12.88086,8.787109 0.20985,0.50146 3.92235,4.525656 8.25,8.941406 4.32765,4.415749 7.86914,8.407875 7.86914,8.873047 0,0.465173 3.26903,4.551092 7.26562,9.078125 3.9966,4.527033 9.69862,11.380469 12.66993,15.230469 2.97131,3.85 7.57533,9.116942 10.23242,11.703125 2.65709,2.586182 4.83484,5.061182 4.83984,5.5 0.005,0.438817 2.70474,3.471736 6,6.740234 3.29525,3.268499 5.99219,6.206461 5.99219,6.529297 0,0.322837 2.72388,3.497973 6.05273,7.056644 3.32885,3.55867 7.26635,8.0457 8.75,9.9707 1.48365,1.925 4.27227,5.11972 6.19727,7.09961 3.90934,4.02082 10,11.49375 10,12.26953 0,0.27716 4.46801,5.0297 9.92969,10.56055 5.46167,5.53086 10.19514,10.88642 10.51758,11.90234 0.32244,1.01591 1.58997,2.39721 2.81835,3.06836 1.22839,0.67114 3.10168,3.10574 4.16211,5.41016 1.06043,2.30441 4.09793,7.48579 6.75,11.51367 2.65207,4.02787 4.82227,7.63048 4.82227,8.00781 0,0.37732 0.9,1.24859 2,1.93555 1.1,0.68696 2,1.91989 2,2.74023 0,0.82034 0.45,1.49219 1,1.49219 0.55,0 1,0.96858 1,2.15234 0,2.14579 -0.0533,2.15013 -17.9668,1.54297 -11.05246,-0.37461 -18.19682,-0.24084 -18.56054,0.34766 -0.74756,1.2096 -2.1846,1.23154 -2.91797,0.0449 -0.33486,-0.54183 -59.66541,-0.91068 -146.3086,-0.91016 -80.16015,5e-4 -149.03584,-0.0387 -153.05664,-0.0879 L 352.87891,192 l 0.5625,-6.75 c 0.3091,-3.7125 0.77064,-43.10551 1.02539,-87.539062 0.25476,-44.433558 0.69719,-81.168151 0.98437,-81.632813 0.93232,-1.508523 10.64739,-2.144441 31.04883,-2.033203 11,0.05998 24.275,0.03699 29.5,-0.05078 5.225,-0.08777 33.35,-0.328455 62.5,-0.535157 29.15,-0.206702 53.9,-0.421695 55,-0.478515 z M 74.761719,14.441406 c 0.289102,0.07589 0.555783,0.263484 0.728515,0.542969 C 75.839415,15.549363 80.062341,16 85,16 c 4.937659,0 9.160585,-0.450637 9.509766,-1.015625 0.345464,-0.558971 1.060793,-0.748845 1.589843,-0.421875 1.453083,0.898055 74.521231,1.176759 106.900391,0.408203 21.59833,-0.51266 28.98113,-0.382753 30.48438,0.537109 1.85785,1.136857 1.96351,2.158442 1.68554,16.103516 C 235.00669,39.800231 234.76466,56.625 234.63086,69 c -0.71634,66.25049 -1.63752,121.34063 -2.03516,121.73828 -0.24787,0.24786 -49.36239,0.63999 -109.14258,0.8711 -59.780181,0.2311 -109.089565,0.6668 -109.57812,0.96874 C 11.717066,193.91179 10.421008,179.61338 10.652344,157 11.648022,59.671267 11.985452,37.83227 12.505859,36.990234 c 0.331182,-0.535864 0.143926,-4.269097 -0.416015,-8.294922 -0.55994,-4.025824 -0.67785,-8.592466 -0.261719,-10.148437 l 0.757813,-2.828125 30.169921,-0.279297 c 16.594138,-0.152711 30.60686,-0.546322 31.138672,-0.875 0.265906,-0.164338 0.578085,-0.198939 0.867188,-0.123047 z M 16,17 c -0.55,0 -1,0.675 -1,1.5 0,0.825 0.45,1.5 1,1.5 0.55,0 1,-0.675 1,-1.5 C 17,17.675 16.55,17 16,17 Z m 472,286 c 0.55,0 1,0.45 1,1 0,0.55 -0.45,1 -1,1 -0.55,0 -1,-0.45 -1,-1 0,-0.55 0.45,-1 1,-1 z m -369.43359,16.02539 c 1.28713,0.0585 2.58006,0.4024 2.94336,0.99023 0.34546,0.55897 1.11331,0.7173 1.70507,0.35157 0.59176,-0.3657 14.62196,-0.51618 31.17969,-0.33399 16.55773,0.1822 40.55987,0.32014 53.33789,0.30664 21.44305,-0.0227 23.27735,0.11449 23.80078,1.76368 0.31193,0.98276 0.34149,7.09897 0.0664,13.59179 -0.27507,6.49281 -0.78086,38.12969 -1.125,70.30469 -0.88756,82.9799 -0.91821,84.03812 -2.4082,84.95898 -0.70359,0.43485 -3.66475,1.07143 -6.58008,1.41407 -18.96946,2.22949 -28.22382,2.75963 -54.98633,3.15234 -16.5,0.24211 -31.59047,0.69529 -33.5332,1.00781 -1.94272,0.31257 -3.7567,0.3449 -4.03125,0.0703 -0.27456,-0.27455 -8.58408,-0.73833 -18.4668,-1.0293 C 100.58603,495.28328 90.7,494.8538 88.5,494.61914 c -2.2,-0.23466 -14.35,-0.69022 -27,-1.01172 -12.65,-0.32149 -23,-0.61665 -23,-0.65625 0,-0.0396 -6.511006,-0.27728 -14.46875,-0.52929 C 16.073506,492.16983 9.176216,491.57661 8.703125,491.10352 7.5778433,489.97824 6.0596212,471.77966 6.609375,466 c 0.2354189,-2.475 0.6265287,-24.75 0.8671875,-49.5 0.2406588,-24.75 0.5691637,-56.7 0.7304687,-71 L 8.5,319.5 l 13,-0.25 c 7.15,-0.13748 31.155066,0.0875 53.345703,0.5 22.190646,0.41248 40.556237,0.4125 40.810547,0 0.34261,-0.55573 1.62303,-0.78316 2.91016,-0.72461 z M 359.5,319.97461 c 0.55,-0.0323 31.825,0.16584 69.5,0.43945 37.675,0.27361 111.025,0.80563 163,1.1836 51.975,0.37797 96.8625,0.59823 99.75,0.48828 5.85803,-0.22307 6.38324,0.50165 2.80078,3.86718 -1.34723,1.26568 -3.40888,4.38112 -4.58203,6.92383 -1.32108,2.86333 -5.47317,7.85856 -10.9082,13.12305 -4.82644,4.675 -11.38211,11.875 -14.56641,16 -3.1843,4.125 -6.2862,7.95544 -6.89258,8.51172 -0.60637,0.55627 -2.19834,2.58127 -3.53906,4.5 -1.34071,1.91872 -3.24489,4.07041 -4.23047,4.78125 -0.98558,0.71084 -3.86623,3.86084 -6.40234,7 -5.12582,6.34469 -20.60443,23.25355 -24.32422,26.57226 -3.76717,3.36097 -23.44993,23.65692 -27.76953,28.63477 -2.14772,2.475 -7.11944,8.325 -11.04883,13 -3.92939,4.675 -9.53811,10.80498 -12.46484,13.62109 -2.92674,2.81612 -8.55704,8.44112 -12.51172,12.5 -12.52334,12.85332 -10.25228,11.86793 -28.67774,12.42383 -8.87267,0.26769 -17.48281,0.68328 -19.13281,0.92383 -2.68427,0.39135 -20.32998,0.45824 -47.5,0.17969 -5.225,-0.0536 -28.175,0.13334 -51,0.41406 -41.89842,0.51531 -56.35981,-0.11295 -58.87891,-2.55469 -1.12305,-1.08856 -1.152,-1.95265 -0.16211,-4.67187 0.90017,-2.47278 1.33742,-24.42601 1.6875,-84.8125 0.25979,-44.81159 0.70789,-81.71159 0.9961,-82 0.44826,-0.44856 2.82765,-0.81189 6.85742,-1.04883 z" />
    <rect
       style="fill:#000000"
       id="rect1"
       width="671.5824"
       height="107.35094"
       x="15.335849"
       y="200.64403" />
    <rect
       style="fill:#000000"
       id="rect2"
       width="7.0289307"
       height="3.1949685"
       x="711.83899"
       y="270.29434" />
  </g>
</svg>
