<?xml version="1.0" encoding="UTF-8" standalone="no"?>
<!-- Created with Inkscape (http://www.inkscape.org/) -->

<svg
   version="1.1"
   id="svg1"
   width="726"
   height="500"
   viewBox="0 0 726 500"
   sodipodi:docname="6.svg"
   inkscape:version="1.4 (86a8ad7, 2024-10-11)"
   xmlns:inkscape="http://www.inkscape.org/namespaces/inkscape"
   xmlns:sodipodi="http://sodipodi.sourceforge.net/DTD/sodipodi-0.dtd"
   xmlns="http://www.w3.org/2000/svg"
   xmlns:svg="http://www.w3.org/2000/svg">
  <defs
     id="defs1" />
  <sodipodi:namedview
     id="namedview1"
     pagecolor="#ffffff"
     bordercolor="#000000"
     borderopacity="0.25"
     inkscape:showpageshadow="2"
     inkscape:pageopacity="0.0"
     inkscape:pagecheckerboard="0"
     inkscape:deskcolor="#d1d1d1"
     inkscape:zoom="1.59"
     inkscape:cx="362.89308"
     inkscape:cy="252.51572"
     inkscape:window-width="1920"
     inkscape:window-height="1013"
     inkscape:window-x="2391"
     inkscape:window-y="605"
     inkscape:window-maximized="1"
     inkscape:current-layer="g1" />
  <g
     inkscape:groupmode="layer"
     inkscape:label="Image"
     id="g1">
    <path
       style="fill:#000000"
       d="M 9.3836648,498.55743 C 9.0549615,497.70084 8.2614991,497 7.6204151,497 c -0.641084,0 -2.0151699,-1.57754 -3.0535243,-3.50565 -1.4653782,-2.72104 -1.860166,-5.40623 -1.7639245,-11.9975 0.068196,-4.67052 0.5522703,-9.2921 1.075721,-10.27018 0.6320794,-1.18105 0.5603799,-2.44137 -0.2134794,-3.75249 C 2.816656,466.0365 2.446828,448.10741 2.3043417,401.5 2.1967296,366.3 2.0664731,325.8 2.0148828,311.5 1.9632925,297.2 1.537438,281.45 1.0685395,276.5 0.59964101,271.55 0.5011393,267.05 0.84964682,266.5 1.9091015,264.82801 2.5544799,36.706184 1.5045615,35.007381 0.72252236,33.742015 3.3972546,6.7842795 4.4784122,5.0349298 4.7905381,4.5298995 13.248083,4.0625488 23.272957,3.9963727 33.297831,3.9301967 57.7,3.6936431 77.5,3.470698 123.28496,2.9551662 172.28665,2.8026158 186.66515,3.1308487 c 8.07441,0.1843229 11.60387,-0.1092259 12.75,-1.0604298 1.22583,-1.0173511 1.90704,-1.0479168 3.00712,-0.1349299 1.03835,0.8617507 10.68859,1.1492334 35.75,1.0649994 29.58613,-0.099442 76.54638,-0.089772 134.81106,0.027759 8.51583,0.017178 22.01583,-0.5076269 30,-1.1662333 C 410.9675,1.2034078 422.225,0.75595876 428,0.867683 c 5.775,0.11172425 12.3,0.2294731 14.5,0.2616641 2.2,0.032191 19.24026,-0.19634007 37.86724,-0.50784673 22.9133,-0.38318846 34.50536,-0.22486538 35.84017,0.48950093 1.1202,0.5995144 7.88333,1.0395767 15.64772,1.0181636 14.02121,-0.038668 15.15551,0.1672917 16.73033,3.0378147 0.503,0.9168389 2.93954,3.8443377 5.41454,6.5055534 2.475,2.661215 6.25084,6.861074 8.39077,9.33302 10.30388,11.902608 15.52461,17.701162 20.15677,22.387675 2.77615,2.808725 6.21577,6.681772 7.64361,8.606772 1.42784,1.925 7.14394,8.12851 12.70246,13.785577 C 608.45212,71.442644 613,76.394629 613,76.789988 c 0,0.395358 3.2625,4.147697 7.25,8.338529 8.61455,9.053825 19.72575,21.437173 21.5567,24.024773 0.71869,1.01569 1.91619,1.84671 2.66111,1.84671 0.74492,0 2.53179,1.4625 3.97082,3.25 1.43903,1.7875 3.84153,4.78687 5.33889,6.66527 1.49737,1.8784 5.70922,6.6034 9.35968,10.5 3.65046,3.8966 9.03076,9.78473 11.95623,13.08473 2.92546,3.3 6.68872,7.35735 8.3628,9.01634 8.35384,8.27854 15.41263,16.72137 17.54377,20.98366 1.38195,2.7639 8.64506,13.09711 9.66893,13.75596 0.64613,0.41577 1.48241,2.21577 1.8584,4 0.37599,1.78422 1.2584,4.59404 1.9609,6.24404 2.82434,6.63364 3.75242,9.59268 3.18625,10.15885 -0.32709,0.32709 0.13244,2.00017 1.02118,3.71793 3.68833,7.12887 6.90027,22.12859 6.6645,31.12322 -0.27177,10.3683 -1.44913,21.77504 -2.43985,23.6383 -0.47911,0.90106 -1.55883,5.58193 -2.39936,10.40193 -0.84054,4.82001 -1.91456,9.25777 -2.38672,9.86171 -0.47215,0.60393 -1.16951,2.39706 -1.5497,3.98473 -0.38018,1.58767 -1.79223,4.33015 -3.13788,6.09439 -1.34566,1.76425 -2.44665,3.91122 -2.44665,4.77104 0,2.16737 -4.53404,10.69785 -7.5541,14.2125 -1.3763,1.60171 -2.79138,4.06371 -3.14462,5.47112 -0.35323,1.40742 -4.27803,6.69567 -8.72176,11.75168 -4.44374,5.05601 -10.10452,11.74442 -12.57952,14.86313 -2.475,3.1187 -5.85,7.17264 -7.5,9.00875 -1.65,1.83611 -4.8,5.44473 -7,8.01916 -2.2,2.57443 -4.58383,5.18496 -5.29741,5.80117 -0.71358,0.61622 -4.70534,5.17039 -8.87058,10.12039 -4.16525,4.95 -11.99761,13.725 -17.40526,19.5 -5.40765,5.775 -12.15727,13.425 -14.99915,17 -2.84188,3.575 -10.2923,11.95581 -16.55649,18.62403 -6.26419,6.66822 -12.62738,13.68177 -14.1404,15.58566 -4.00384,5.03818 -7.95521,9.41851 -14.73071,16.32987 -8.12237,8.28523 -18.95035,20.32687 -22.0223,24.49066 -1.38481,1.877 -3.21968,3.80551 -4.0775,4.28557 -2.40908,1.34819 -49.5561,1.95568 -174.89261,2.2535 -73.22328,0.17399 -115.41687,-0.079 -116.16097,-0.69659 -0.7056,-0.58559 -1.39458,-0.60411 -1.73906,-0.0467 -0.34256,0.55427 -49.12518,0.99615 -122.09837,1.10599 -109.202846,0.16436 -121.5884941,0.025 -122.1255252,-1.37452 z M 254,494 c 0,-0.55 -0.45,-1 -1,-1 -0.55,0 -1,0.45 -1,1 0,0.55 0.45,1 1,1 0.55,0 1,-0.45 1,-1 z M 53.215904,489.36656 c 0.423055,-0.26146 0.760464,-38.71966 0.749799,-85.46266 -0.01508,-66.07532 -0.291577,-85.08469 -1.242548,-85.42507 -0.672735,-0.24079 -10.746204,-0.55953 -22.385486,-0.70831 L 9.1753379,317.5 8.7345578,321 c -0.242429,1.925 -0.285628,9.35 -0.095998,16.5 0.1896303,7.15 0.3047765,17.95 0.2558804,24 -0.048896,6.05 -0.071421,36.57639 -0.050055,67.83642 0.035144,51.41849 0.1983969,57.07993 1.7125945,59.39089 l 1.673748,2.55446 20.107993,-0.71991 c 11.059396,-0.39595 20.454129,-0.93383 20.877183,-1.1953 z m 350.848426,0.76686 5.56432,-0.13342 -0.29997,-8.75 c -0.16499,-4.8125 -0.30643,-43.91542 -0.31433,-86.89537 L 409,316.20926 l -89.25,0.45952 c -143.20033,0.73729 -148.54804,0.79403 -149.33751,1.58447 -0.41378,0.41429 -0.61765,5.36429 -0.45303,11 0.16461,5.63571 0.22876,11.37175 0.14254,12.74675 -0.0862,1.375 -0.0723,4.075 0.0309,6 0.63808,11.90008 0.17379,135.99931 -0.5172,138.23982 -0.70383,2.28211 -0.5014,2.86681 1.21174,3.5 1.61665,0.59753 210.06175,0.94929 233.23686,0.3936 z m 135.40868,-1.08975 c 0.32507,-0.52598 1.17561,-0.732 1.89008,-0.45783 0.71447,0.27416 3.96256,-2.18268 7.21797,-5.45965 C 561.76163,469.85833 570,460.81573 570,459.61633 c 0,-1.59687 3.69282,-4.89284 7.09703,-6.33435 1.51994,-0.64362 3.45342,-2.90016 4.6619,-5.44085 1.13568,-2.38762 5.36701,-7.83321 9.40297,-12.1013 4.03595,-4.26809 10.13106,-10.79309 13.54468,-14.5 3.41362,-3.70691 7.14364,-7.75233 8.28895,-8.98983 1.14531,-1.2375 2.48453,-2.25 2.97604,-2.25 0.49151,0 1.18654,-0.92281 1.54452,-2.05069 0.35797,-1.12788 4.1008,-5.54351 8.31739,-9.81251 4.21658,-4.269 11.26652,-11.75051 15.66652,-16.62558 4.4,-4.87507 9.0125,-9.76559 10.25,-10.86782 1.2375,-1.10224 2.25,-2.39532 2.25,-2.87351 0,-0.79571 7.1057,-8.52538 19.25,-20.94039 2.6125,-2.67074 4.75,-5.46024 4.75,-6.19889 0,-0.73865 1.68473,-3.54522 3.74384,-6.23681 4.01941,-5.25401 6.45547,-9.26005 8.29675,-13.6438 0.63528,-1.5125 1.73789,-2.75 2.45025,-2.75 1.67578,0 2.73593,-2.74182 1.38336,-3.57775 -1.24235,-0.76781 -135.84018,-0.58503 -140.8742,0.19131 -1.925,0.29688 -9.73722,0.61777 -17.36049,0.7131 l -13.8605,0.17334 -0.41292,87.25 -0.41293,87.25 h 8.96441 c 4.93042,0 9.23036,-0.43035 9.55544,-0.95633 z M 54.008621,188 C 54.32748,77.036911 53.886663,15.545519 52.767241,14.834986 52.070259,14.392588 41.9375,14.023735 30.25,14.015313 L 9,14 8.7707019,26.25 C 8.644588,32.9875 8.588438,41.2 8.6459241,44.5 c 0.057486,3.3 0.1693399,14.1913 0.2485638,24.20289 0.084578,10.688137 0.5500394,18.453809 1.1274821,18.810688 0.642633,0.397169 0.644159,1.241748 0.0044,2.437139 C 9.410293,91.101878 9.227081,106.9278 9.5321741,132.64003 10.174492,186.77241 10.237411,187.96921 12.529064,189.64491 13.940606,190.67706 19.103108,191 34.19113,191 H 54 Z m 330.350949,0.56949 c 12.57276,-0.32279 23.25526,-0.83144 23.73888,-1.13034 0.49766,-0.30757 0.77563,-37.52253 0.64043,-85.7413 L 408.5,16.5 403.29378,14.772479 c -3.94693,-1.309665 -8.90421,-1.752444 -20.49461,-1.830558 -8.97346,-0.06048 -15.80692,-0.533393 -16.54377,-1.144924 -0.87201,-0.723698 -1.64697,-0.716916 -2.53756,0.02221 -1.06508,0.883938 -56.98499,1.477661 -139.71784,1.483436 -7.62309,5.32e-4 -18.15403,-0.742848 -18.50212,-1.306066 -0.22114,-0.357822 -3.46114,-0.278157 -7.19998,0.177034 -3.73885,0.455192 -7.43939,0.586158 -8.22342,0.291036 -0.78404,-0.295122 -5.91489,0.0075 -11.4019,0.672532 l -9.97637,1.209118 0.7098,84.576852 c 0.39039,46.517272 0.68505,85.634442 0.6548,86.927052 -0.0302,1.29261 0.23266,2.81563 0.58423,3.38448 0.65609,1.06158 166.571,0.54516 213.71453,-0.66519 z M 695.75,186.51138 c 1.83105,-0.65714 1.52788,-2.88496 -0.75,-5.51138 -1.1,-1.26831 -2,-2.8635 -2,-3.54487 0,-1.60606 -4.91169,-7.87394 -12.74586,-16.26516 -3.43522,-3.67948 -6.24772,-7.07435 -6.25,-7.54414 -0.002,-0.4698 -4.62378,-5.4198 -10.27001,-11 C 658.0879,137.06562 652.35385,130.925 650.99178,129 c -1.36206,-1.925 -4.83296,-5.975 -7.71311,-9 -2.88014,-3.025 -5.24608,-6.2508 -5.25765,-7.16844 -0.0116,-0.91764 -1.59678,-2.64231 -3.5227,-3.8326 -1.92592,-1.19028 -3.76727,-3.22238 -4.09189,-4.51577 -0.34933,-1.39184 -1.7469,-2.75483 -3.42427,-3.33957 -1.55873,-0.54337 -3.63858,-2.260477 -4.62188,-3.815786 -0.98331,-1.555309 -5.06663,-6.073967 -9.07406,-10.041462 C 609.2788,83.318876 606,79.789854 606,79.444101 606,78.175012 601.6233,73.213553 589.70109,60.967523 572.14708,42.936735 562.14103,32.152314 557,25.722615 c -2.475,-3.095394 -4.97787,-5.649279 -5.56194,-5.675301 -1.14514,-0.05102 -4.69703,-4.533644 -5.66977,-7.155456 -0.50974,-1.373912 -2.29616,-1.568242 -12.26493,-1.334208 -6.41755,0.150664 -11.93122,0.536879 -12.2526,0.858257 -0.59547,0.595465 -0.36752,173.585683 0.23,174.553533 0.39352,0.63742 172.47718,0.1851 174.26924,-0.45806 z"
       id="path1" />
  </g>
</svg>
