<?xml version="1.0" encoding="UTF-8" standalone="no"?>
<!-- Created with Inkscape (http://www.inkscape.org/) -->

<svg
   version="1.1"
   id="svg1"
   width="747"
   height="540"
   viewBox="0 0 747 540"
   sodipodi:docname="1.svg"
   inkscape:version="1.4 (86a8ad7, 2024-10-11)"
   xmlns:inkscape="http://www.inkscape.org/namespaces/inkscape"
   xmlns:sodipodi="http://sodipodi.sourceforge.net/DTD/sodipodi-0.dtd"
   xmlns="http://www.w3.org/2000/svg"
   xmlns:svg="http://www.w3.org/2000/svg">
  <defs
     id="defs1" />
  <sodipodi:namedview
     id="namedview1"
     pagecolor="#ffffff"
     bordercolor="#000000"
     borderopacity="0.25"
     inkscape:showpageshadow="2"
     inkscape:pageopacity="0.0"
     inkscape:pagecheckerboard="0"
     inkscape:deskcolor="#d1d1d1"
     inkscape:zoom="1.4722222"
     inkscape:cx="373.58491"
     inkscape:cy="269.66038"
     inkscape:window-width="1920"
     inkscape:window-height="1013"
     inkscape:window-x="2391"
     inkscape:window-y="605"
     inkscape:window-maximized="1"
     inkscape:current-layer="g1" />
  <g
     inkscape:groupmode="layer"
     inkscape:label="Image"
     id="g1">
    <rect
       style="fill:#000000"
       id="rect1"
       width="557.6604"
       height="102.56604"
       x="33.962265"
       y="104.60378" />
    <path
       id="path1"
       style="fill:#000000"
       d="m 404.87695,12.298828 c -7.66703,-0.140117 -22.66793,0.453381 -23.86523,1.19336 -0.4804,0.296896 -1.15324,0.08598 -1.4961,-0.46875 -0.39292,-0.635784 -4.39325,-0.78848 -10.82031,-0.414063 -17.96887,1.046803 -62.57994,1.796791 -93.69531,1.574219 -13.93014,-0.09964 -50.96653,0.389549 -61.5,0.8125 -1.1,0.04417 -15.275,0.101996 -31.5,0.128906 -16.225,0.02691 -39.85,0.248306 -52.5,0.492188 -12.65,0.243883 -25.475,0.346113 -28.5,0.226562 -6.084125,-0.240449 -10.473015,-0.249549 -26,-0.05078 -5.775,0.07393 -11.625,0.146519 -13,0.162109 -1.375,0.01559 -9.925,0.284541 -19,0.597656 -11.894994,0.410414 -17.574725,0.219217 -20.351562,-0.685546 -3.444184,-1.1222 -3.959247,-1.063103 -4.861329,0.548828 -0.40146,0.71737 -0.910768,1.100322 -1.925781,1.291015 0.100157,1.604823 0.163544,3.211354 0.21875,4.81836 0.470464,-0.179691 0.606361,5.362825 0.298828,12.685547 -1.021572,24.324764 -1.050204,35.271292 -0.0957,37.1875 0.6103,1.225217 0.557728,3.186658 -0.146484,5.537109 -0.702434,2.344515 -1.288514,24.268943 -1.648438,61.601563 C 13.800496,210.87573 13.019815,319.46787 12.882812,363 c -0.06097,19.37284 -0.50195,33.25734 -1.09375,34.375 -0.667495,1.26063 -0.644196,2.57129 0.07227,4 1.407863,2.8075 1.966518,25.51684 0.638672,25.96289 -0.604116,0.20294 -0.493912,0.95162 0.279297,1.88867 0.864741,1.04798 1.283162,5.07374 1.289062,12.41211 0.0098,12.09022 7.76e-4,14.56389 -0.06641,17.11133 -0.305679,11.59294 0.140692,52.45885 0.585938,53.61914 1.468551,3.82699 9.00252,4.2492 66.046875,3.70508 19.324259,-0.18433 35.549274,-0.078 36.054684,0.23437 0.5054,0.31236 22.84605,0.53404 49.64649,0.49414 26.80044,-0.0399 48.90122,0.10094 49.11328,0.3125 0.79709,0.79525 139.30021,0.83073 144.8418,0.0371 3.18504,-0.45613 6.00681,-0.47896 6.27148,-0.0508 0.47273,0.7649 98.11896,0.25837 132.4375,-0.6875 9.625,-0.26528 28.122,-0.58463 41.10352,-0.70898 l 23.60156,-0.22656 8.05859,-8.48829 c 4.43226,-4.66918 13.9984,-15.24023 21.25781,-23.49023 7.25941,-8.25 14.22344,-15.9 15.47461,-17 1.25117,-1.1 5.42569,-5.68255 9.27735,-10.18359 3.85165,-4.50103 8.74125,-9.91216 10.86523,-12.02344 2.12399,-2.11129 5.43633,-5.94798 7.36133,-8.52735 1.925,-2.57936 4.02035,-4.70771 4.65625,-4.72851 0.63591,-0.0208 2.84095,-2.39961 4.90039,-5.28711 3.70664,-5.19699 8.43399,-10.4572 15.69336,-17.46094 2.0625,-1.98987 3.75,-4.21835 3.75,-4.95312 0,-0.73478 0.3375,-1.34166 0.75,-1.34766 1.7612,-0.0274 25.15667,-24.42538 26.16016,-27.28125 0.41362,-1.17711 12.2188,-13.12365 19.59961,-19.83398 2.1944,-1.99506 5.55427,-6.27006 7.46484,-9.5 1.91057,-3.22994 4.07086,-6.24569 4.80078,-6.70117 0.72993,-0.4555 2.82833,-3.8305 4.66406,-7.5 1.83573,-3.66952 4.93093,-9.59688 6.87891,-13.17188 7.69937,-14.1302 11.53621,-36.23116 11.62891,-67 l 0.043,-14.5 -3.3789,-6.58398 c -1.85865,-3.62161 -3.71209,-8.12161 -4.11914,-10 -0.40704,-1.87839 -1.50643,-4.54102 -2.44141,-5.91602 -0.93498,-1.375 -2.74243,-5.425 -4.01758,-9 -1.27514,-3.575 -3.32948,-7.85 -4.56445,-9.5 -1.23496,-1.65 -3.38201,-5.25 -4.77148,-8 -1.38947,-2.75 -4.13928,-6.74337 -6.11133,-8.875 C 715.61378,176.49346 714,174.4309 714,174.04297 c 0,-0.38793 -1.09505,-1.29145 -2.43359,-2.00781 -1.33854,-0.71637 -4.69908,-4.0539 -7.46875,-7.41797 C 701.32799,161.25311 695.88504,155.125 692.00391,151 688.12277,146.875 680.91962,139.225 675.99609,134 660.05029,117.07784 649.58713,105.59601 645.5,100.53516 643.3,97.811014 638.0125,92.020568 633.75,87.666016 629.4875,83.311464 626,78.920959 626,77.910156 626,76.223091 619.69805,71 617.66211,71 617.18109,71 614.69638,68.8625 612.14258,66.25 609.58877,63.6375 603.5625,57.755113 598.75,53.177734 593.9375,48.600355 590,44.506151 590,44.080078 c 0,-0.426073 -0.82811,-1.181186 -1.83984,-1.677734 -1.81111,-0.888882 -13.4745,-13.562765 -19.99414,-21.726563 -1.8339,-2.296386 -4.23232,-5.013995 -5.33008,-6.039062 -0.6429,-0.600429 -1.02953,-1.230536 -1.30664,-2.003907 -1.40371,0.352013 -3.27909,0.698893 -4.21875,-0.314453 -0.34596,0.620938 -0.81902,1.046834 -1.625,1.414063 -1.27271,0.579888 -2.9611,0.692587 -3.75196,0.25 -0.79086,-0.442586 -6.16162,-0.785652 -11.93554,-0.763672 -5.77393,0.02198 -13.42305,0.0093 -16.99805,-0.02734 -3.575,-0.03664 -12.8,-0.128688 -20.5,-0.205078 -7.7,-0.07639 -16.925,-0.255582 -20.5,-0.398437 -3.575,-0.142856 -6.9314,-0.0248 -7.45898,0.263671 -0.52758,0.288476 -2.84452,0.409258 -5.14844,0.267579 -2.30392,-0.141679 -4.49771,0.241093 -4.875,0.851562 -0.37729,0.610474 -1.51171,0.847835 -2.52149,0.527344 -1.00978,-0.320491 -2.88458,-0.863732 -4.16601,-1.207031 -3.16573,-0.848101 -31.59469,-1.055376 -40.64258,-0.296875 -4.0219,0.337163 -7.56436,0.207241 -7.87109,-0.289063 -0.14311,-0.231553 -1.88378,-0.359544 -4.43946,-0.40625 z M 0,16.820312 v 0.34375 c 0.03749853,-0.120723 0.07690629,-0.23381 0.1171875,-0.333984 z m 417.49414,3.257813 c 27.84998,-0.160416 54.97034,0.06236 55.87891,0.816406 1.43175,1.188243 15.87328,0.902908 18.88867,-0.373047 0.96925,-0.410135 3.21925,-0.462805 5,-0.117187 3.93945,0.764589 0.87074,0.734493 27.74219,0.275391 12.37747,-0.211474 24.75247,-0.09478 27.5,0.257812 5.97306,0.766534 9.9654,3.744096 17.72851,13.226562 2.69558,3.292593 7.15857,7.957751 12.28125,12.835938 1.44391,1.375 3.25328,3.683055 4.01953,5.128906 0.76625,1.44585 2.08435,2.894362 2.92969,3.21875 2.22104,0.852291 1.8902,2.984357 -0.83008,5.34961 -2.94593,2.561448 -13.3016,4.021683 -34.13281,4.814453 -8.25,0.313969 -21.975,0.980952 -30.5,1.480469 -8.525,0.499515 -21.8,1.20172 -29.5,1.560546 -7.7,0.358825 -14.24515,0.800931 -14.54492,0.982422 -0.79094,0.478875 -17.91392,1.514444 -62.45508,3.779297 -4.95,0.251701 -16.425,0.953797 -25.5,1.560547 -9.075,0.60675 -19.875,1.302674 -24,1.544922 -4.125,0.242248 -11.1,0.669981 -15.5,0.951172 -4.4,0.28119 -20.15,1.201989 -35,2.046875 -14.85,0.844887 -33.525,1.978562 -41.5,2.519531 -7.975,0.540969 -21.7,1.25737 -30.5,1.591797 -28.36353,1.0779 -30.90498,1.203617 -37,1.820312 -3.3,0.333895 -12.975,0.901725 -21.5,1.261719 -8.525,0.359994 -18.2,0.771876 -21.5,0.916016 -3.3,0.14414 -13.2,0.762494 -22,1.375 -8.8,0.612506 -20.275,1.322132 -25.5,1.576172 C 89.441851,91.867014 83.385335,92.217972 71.5,93.171875 50.384973,94.866541 34.872452,95.533859 29,95 L 23.5,94.5 V 87 c 0,-4.125 -0.347635,-8.036866 -0.773438,-8.693359 C 21.815839,76.902483 20.595229,48.453332 20.890625,35.5 c 0.187232,-8.210218 0.425412,-9.197445 2.712891,-11.25 2.138875,-1.919212 3.640071,-2.251113 10.203125,-2.257812 4.23183,-0.0043 37.618359,0.02662 74.193359,0.06836 79.35311,0.09057 79.1088,0.09345 80.67578,-1.207031 0.68004,-0.56438 1.70093,-0.738884 2.26758,-0.388672 1.32255,0.81738 68.61411,0.926353 69.92969,0.113281 0.54412,-0.336283 1.27172,-0.152721 1.61718,0.40625 0.84446,1.366365 20.19301,1.335747 21.03907,-0.0332 0.44373,-0.717967 1.08965,-0.683099 2.04687,0.111328 0.8612,0.714734 2.45808,0.874582 4.16016,0.414062 4.33004,-1.171547 61.56315,-1.386219 63.0039,-0.236328 0.68246,0.544687 2.70746,0.690466 4.5,0.324219 3.82399,-0.781307 32.40393,-1.325912 60.25391,-1.486328 z M 8.2402344,21.146484 c 0.1238137,0.167173 0.1992527,0.276272 0.2851562,0.398438 C 8.4372734,21.380915 8.3428775,21.243143 8.2402344,21.146484 Z M 285.58984,90.40625 C 286.33215,90.458702 287,91.18946 287,92.166016 287,92.624349 286.57613,93 286.05859,93 c -1.35726,0 -2.24906,-1.765115 -1.21484,-2.404297 0.24176,-0.149413 0.49866,-0.206937 0.74609,-0.189453 z M 293,129 c 0.55,0 1,0.45 1,1 0,0.55 -0.45,1 -1,1 -0.55,0 -1,-0.45 -1,-1 0,-0.55 0.45,-1 1,-1 z m 285.02148,4.19141 c 0.4017,0.0582 0.84368,0.27336 1.26563,0.69531 0.77209,0.77208 0.79351,1.43308 0.0703,2.15625 -0.72318,0.72318 -1.41124,0.59619 -2.24804,-0.41211 -1.13653,-1.36941 -0.29299,-2.61416 0.9121,-2.43945 z m 71.1543,28.83789 c 0.52894,-0.0968 0.89568,0.25827 0.5957,1.1582 -0.2177,0.65312 -0.93048,1.36615 -1.58398,1.58398 -0.73075,0.24358 -0.95576,-0.21359 -0.58203,-1.1875 0.34876,-0.90885 1.04138,-1.4579 1.57031,-1.55468 z m -11.26367,4.0957 c 0.30202,-0.0286 0.59965,0.0528 0.83789,0.29102 0.33925,0.33924 0.13562,1.09874 -0.45312,1.6875 -0.71818,0.71815 -1.27906,0.73582 -1.70118,0.0527 -0.53264,-0.86183 0.41033,-1.94529 1.31641,-2.03125 z M 421.16602,179 c 2.02898,0 2.10053,0.14043 1.22656,2.41797 -0.74253,1.935 -1.79085,2.01252 -3.26172,0.24023 C 417.80974,180.06635 418.62583,179 421.16602,179 Z m 239.06054,1.95508 c 0.41208,-0.0696 0.78581,0.17168 0.84766,0.76953 0.0412,0.39875 -0.465,0.905 -1.125,1.125 -0.66,0.22 -1.01883,-0.13883 -0.79883,-0.79883 0.21486,-0.64457 0.6641,-1.02613 1.07617,-1.0957 z M 551.55859,197 c 0.24254,0 0.44141,0.45 0.44141,1 0,0.55 -0.47613,1 -1.05859,1 -0.58246,0 -0.78133,-0.45 -0.44141,-1 0.33992,-0.55 0.81605,-1 1.05859,-1 z M 101,205 c 0.55,0 1,0.45 1,1 0,0.55 -0.45,1 -1,1 -0.55,0 -1,-0.45 -1,-1 0,-0.55 0.45,-1 1,-1 z m 69.87109,1.07031 c 0.54008,-0.054 1.28921,0.41791 2.12891,1.42969 0.68469,0.825 1.90159,1.5 2.70508,1.5 0.80349,0 1.27719,0.5625 1.05078,1.25 C 175.6691,213.54992 170,211.49486 170,207.80078 c 0,-1.09574 0.33102,-1.67646 0.87109,-1.73047 z m -84.414059,1.31836 c 0.339677,-0.18432 0.901674,-0.11303 1.792969,0.15625 3.001953,0.90696 4.121075,2.04624 3.304688,3.36719 -0.741902,1.20042 -3.842119,1.46843 -4.888672,0.42187 C 86.299349,210.96732 86,209.81104 86,208.76562 c 0,-0.7529 0.117355,-1.19263 0.457031,-1.37695 z M 448.94141,212 c 0.58246,0 1.05859,0.45 1.05859,1 0,0.55 -0.19887,1 -0.44141,1 -0.24254,0 -0.71867,-0.45 -1.05859,-1 -0.33992,-0.55 -0.14105,-1 0.44141,-1 z m -133.02539,1.12305 c 0.34739,0.0143 0.64635,0.10729 0.8125,0.27343 0.33229,0.33229 -0.25834,0.56879 -1.3125,0.5254 -1.16495,-0.048 -1.40125,-0.28625 -0.60352,-0.60547 0.36093,-0.14446 0.75612,-0.20767 1.10352,-0.19336 z M 127,218.09961 c 0.36667,0 0.73255,0.23451 1.19922,0.70117 C 129.13255,219.73411 128.86667,220 127,220 c -1.86667,0 -2.13255,-0.26589 -1.19922,-1.19922 0.46667,-0.46666 0.83255,-0.70117 1.19922,-0.70117 z m -9.92578,0.0918 c 0.59125,0.19708 1.07617,0.78609 1.07617,1.30859 0,0.5225 -0.48492,1.11151 -1.07617,1.30859 C 116.48297,221.00568 116,220.41667 116,219.5 c 0,-0.91667 0.48297,-1.50568 1.07422,-1.30859 z m -95.908204,1.71093 4.167968,0.51758 c 4.190597,0.52105 18.196407,1.29893 37.666016,2.0918 5.775,0.23518 17.25,0.86238 25.5,1.39258 8.25,0.5302 15.9,0.92465 17,0.87695 2.26327,-0.098 23.6282,0.85876 49.29688,2.20898 9.51338,0.50043 17.90498,0.67787 18.64843,0.39258 0.74345,-0.28529 1.60785,-0.1065 1.91992,0.39844 0.31208,0.50495 6.29079,1.0114 13.28711,1.125 6.99632,0.1136 12.97541,0.35911 13.28516,0.54492 0.30974,0.18581 11.35894,0.65018 24.55469,1.03321 13.19576,0.38301 24.27009,0.86843 24.60937,1.07812 0.33928,0.20969 17.47,1.07774 38.06836,1.92969 20.59837,0.85195 38.54484,1.76029 39.88086,2.01758 1.33601,0.2573 11.43387,0.91394 22.43945,1.45898 11.00558,0.54504 29.68477,1.49655 41.50977,2.11523 11.825,0.61868 26,1.31508 31.5,1.54688 5.5,0.2318 23.5,1.11128 40,1.95508 16.5,0.8438 33.375,1.70711 37.5,1.91797 4.125,0.21086 11.1,0.63144 15.5,0.93359 4.4,0.30215 14.3,0.77821 22,1.05859 20.48691,0.746 47.07997,2.16728 55,2.93946 2.2,0.21449 10.975,0.6579 19.5,0.98633 8.525,0.32839 20.675,0.82493 27,1.10351 6.325,0.27858 16.675,0.71976 23,0.98047 6.325,0.26072 15.55,0.94787 20.5,1.52734 4.95,0.57946 18.41365,1.24001 29.91992,1.4668 23.18816,0.45702 25.06433,0.94781 22.7793,5.96289 -1.12682,2.47314 -1.41469,2.53751 -11.42774,2.56641 -5.64929,0.0163 -18.14648,0.44852 -27.77148,0.95898 -9.625,0.51047 -22.45,1.18185 -28.5,1.49219 -6.05,0.31035 -13.925,0.79308 -17.5,1.07422 -6.15781,0.48425 -35.30546,2.0422 -56,2.99219 -5.225,0.23984 -15.8,0.8782 -23.5,1.41992 -7.7,0.54171 -20.23534,1.25643 -27.85742,1.58789 -7.62208,0.33146 -17.4924,0.9683 -21.9336,1.41601 -4.4412,0.44772 -13.47012,0.88541 -20.06445,0.97071 -6.59432,0.0853 -12.25097,0.30974 -12.56836,0.5 -0.3174,0.19026 -5.75117,0.62008 -12.07617,0.95507 -37.77298,2.0006 -66.14455,3.64634 -70.5,4.08985 -2.75,0.28004 -14.45,0.97687 -26,1.54883 -27.83596,1.37845 -34.75813,1.77508 -42.5,2.43359 -13.04513,1.10959 -39.25586,2.5938 -79,4.47266 -11.275,0.53302 -23.425,1.24118 -27,1.57421 -12.97059,1.20829 -46.34071,2.93323 -78.5,4.05665 -9.9,0.34584 -18.249,0.77977 -18.55273,0.96484 -0.30373,0.18507 -7.27873,0.60009 -15.5,0.92187 -17.63073,0.69006 -37.925768,1.64244 -44.94727,2.10938 -2.75,0.18287 -7.925,0.53908 -11.5,0.79297 -3.575,0.2539 -14.687407,0.76724 -24.695312,1.14062 l -18.197266,0.67969 -0.06641,-27.83984 c -0.03641,-15.31246 -0.0977,-29.0793 -0.136719,-30.5918 -0.03901,-1.5125 0.004,-7.497 0.0957,-13.29883 z M 450.91992,356.11523 c 0.5304,-0.018 1.0794,0.054 1.58008,0.2461 0.825,0.31658 1.5,1.04015 1.5,1.60742 0,1.32872 -4.68493,1.34869 -5.50391,0.0234 -0.58668,-0.94928 0.83263,-1.82287 2.42383,-1.87696 z M 336,357 c 0.55,0 1,0.45 1,1 0,0.55 -0.45,1 -1,1 -0.55,0 -1,-0.45 -1,-1 0,-0.55 0.45,-1 1,-1 z m -152.36719,10.21875 c 0.65427,-0.061 1.51973,-0.0305 2.61719,0.0703 3.70601,0.34038 4.29025,0.72281 4.56055,2.98438 0.28703,2.40146 0.0382,2.57969 -3.34375,2.41015 -2.25489,-0.11304 -3.99815,-0.82731 -4.5586,-1.86718 -1.29755,-2.40749 -1.2382,-3.41473 0.72461,-3.59766 z M 412,403 c 0.55,0 1,0.45 1,1 0,0.55 -0.45,1 -1,1 -0.55,0 -1,-0.45 -1,-1 0,-0.55 0.45,-1 1,-1 z m 5.03711,0.4668 c 0.52704,0.0194 1.06867,0.20568 1.55273,0.60742 1.44594,1.20003 1.42832,1.43868 -0.1914,2.62305 -2.28014,1.66727 -3.05484,1.64075 -3.73242,-0.125 -0.65681,-1.71161 0.78996,-3.16372 2.37109,-3.10547 z M 19.75,430.12305 l 7.375,0.31836 c 4.056008,0.17587 7.375,0.41246 7.375,0.52539 0,0.35332 16.539392,1.22249 49,2.57226 7.15,0.29731 15.475,0.78179 18.5,1.07813 3.025,0.29634 10.56657,0.70512 16.75977,0.9082 6.1932,0.20308 11.5932,0.56519 12,0.80469 0.72081,0.42437 20.86345,1.4543 42.4707,2.17187 5.90216,0.196 11.09162,0.57986 11.53125,0.85157 0.43963,0.2717 6.86133,0.76294 14.26953,1.09179 33.21134,1.47427 62.07266,2.69951 68.96875,2.92969 4.125,0.1377 11.325,0.76606 16,1.39648 4.675,0.63043 20.2,1.40586 34.5,1.72266 14.3,0.3168 29.15,0.98557 33,1.48633 8.78524,1.14267 21.50449,1.91932 42,2.56445 8.8,0.27699 16.675,0.70137 17.5,0.94141 0.825,0.24004 6,0.68201 11.5,0.98242 5.5,0.30042 13.15,0.75943 17,1.02148 7.89248,0.53719 32.19021,1.36238 46.5,1.57813 5.225,0.0788 11.525,0.51031 14,0.96094 2.475,0.45062 18,1.30666 34.5,1.90039 53.39637,1.92143 66.5,3.01308 66.5,5.54492 0,0.6848 -1.58553,2.99531 -3.52344,5.13477 -1.9379,2.1394 -5.34067,5.91562 -7.56054,8.39062 -2.21987,2.475 -8.21896,9 -13.33204,14.5 -5.11309,5.5 -10.67343,11.575 -12.35742,13.5 -3.46322,3.95885 -3.30291,3.93263 -24.22656,3.83008 -6.875,-0.0337 -13.625,-0.0401 -15,-0.0156 -1.375,0.0245 -35.8,0.32735 -76.5,0.67383 -63.99795,0.54482 -306.36525,1.24387 -306.83398,0.88477 -0.0916,-0.0702 -26.18762,-0.39559 -57.992192,-0.72266 -54.398957,-0.55943 -57.978429,-0.70537 -60.396484,-2.4668 L 20.707031,505.31055 20.228516,467.7168 Z M 26.904297,517 c -0.46345,0 -0.855701,0.9111 -0.953125,2.03125 0.151834,0.25351 0.299711,0.49516 0.449219,0.74805 0.343158,0.0189 0.686446,0.0361 1.029297,0.0586 C 27.481504,518.26969 27.316264,517 26.904297,517 Z m -0.945313,11.11523 c -0.0094,0.008 -0.02214,0.0154 -0.03125,0.0234 0.01426,0.0192 0.01806,0.0262 0.02734,0.0391 0.07935,0.0514 0.158929,0.10293 0.238281,0.1543 -0.07653,-0.0728 -0.156346,-0.14465 -0.234375,-0.2168 z" />
    <rect
       style="fill:#000000"
       id="rect2"
       width="54.339622"
       height="63.849056"
       x="612"
       y="131.09435" />
    <rect
       style="fill:#000000"
       id="rect3"
       width="447.62265"
       height="35.320755"
       x="22.415094"
       y="184.75471" />
    <rect
       style="fill:#000000"
       id="rect4"
       width="65.886795"
       height="7.4716983"
       x="258.79245"
       y="91.698112" />
    <rect
       style="fill:#000000"
       id="rect5"
       width="173.20755"
       height="2.0377359"
       x="255.39622"
       y="91.018867" />
    <rect
       style="fill:#000000"
       id="rect6"
       width="558.3396"
       height="112.07547"
       x="26.490566"
       y="313.81131" />
  </g>
</svg>
