<?xml version="1.0" encoding="UTF-8" standalone="no"?>
<!-- Created with Inkscape (http://www.inkscape.org/) -->

<svg
   version="1.1"
   id="svg1"
   width="747"
   height="543"
   viewBox="0 0 747 543"
   sodipodi:docname="3.svg"
   inkscape:version="1.4 (86a8ad7, 2024-10-11)"
   xmlns:inkscape="http://www.inkscape.org/namespaces/inkscape"
   xmlns:sodipodi="http://sodipodi.sourceforge.net/DTD/sodipodi-0.dtd"
   xmlns="http://www.w3.org/2000/svg"
   xmlns:svg="http://www.w3.org/2000/svg">
  <defs
     id="defs1" />
  <sodipodi:namedview
     id="namedview1"
     pagecolor="#ffffff"
     bordercolor="#000000"
     borderopacity="0.25"
     inkscape:showpageshadow="2"
     inkscape:pageopacity="0.0"
     inkscape:pagecheckerboard="0"
     inkscape:deskcolor="#d1d1d1"
     inkscape:zoom="1.4640884"
     inkscape:cx="373.61132"
     inkscape:cy="271.15849"
     inkscape:window-width="1920"
     inkscape:window-height="1013"
     inkscape:window-x="2391"
     inkscape:window-y="605"
     inkscape:window-maximized="1"
     inkscape:current-layer="g1" />
  <g
     inkscape:groupmode="layer"
     inkscape:label="Image"
     id="g1">
    <rect
       style="fill:#000000"
       id="rect1"
       width="610.6189"
       height="101.76981"
       x="28.003773"
       y="105.18491" />
    <path
       id="path1"
       style="fill:#000000"
       d="m 393.5,11.037109 c -1.65,0.01833 -28.65,0.218058 -60,0.445313 -31.35,0.227256 -75.675,0.677486 -98.5,1 -22.825,0.322514 -42.175,0.51981 -43,0.4375 -4.18512,-0.417545 -53.92276,-0.094 -70.5,0.458984 -24.708586,0.824239 -74.747381,0.848073 -77.978516,0.03711 -1.384711,-0.347541 -3.305801,-0.310871 -4.269531,0.08008 -0.96373,0.390947 -5.950291,0.863041 -11.082031,1.050781 -5.267869,0.19272 -9.959117,0.863235 -10.773438,1.539063 -0.284872,0.236422 -1.123285,0.310349 -1.751953,0.445312 -0.07994,0.255904 -0.173686,0.519328 -0.287109,0.791016 -0.674494,1.615643 -1.0676,3.323588 -1.572266,4.99414 -0.116923,0.387041 -0.170271,0.805645 -0.375,1.154297 -0.04718,0.08035 -0.09733,0.15859 -0.148437,0.236328 0.621529,-0.03627 1.464733,-0.03721 1.628906,-0.138672 1.955034,-1.208277 2.344523,6.775447 1.695313,34.730469 C 14.722418,138.54199 14.362507,206.31996 15.503906,262 c 0.543613,26.51872 0.404051,33.51222 -0.757812,38 -1.072312,4.14187 -1.32677,10.31519 -1.033203,25 0.214406,10.725 0.390878,21.075 0.392578,23 0.0017,1.925 -0.06802,40.60541 -0.154297,85.95703 l -0.15625,82.45703 2.175781,1.76367 c 0.507383,0.41086 0.885487,0.75765 1.171875,1.19922 0.377204,0.0363 0.754376,0.0704 1.13086,0.11133 1.486941,0.10788 2.946605,0.36483 4.396484,0.67383 3.22085,-0.61422 11.868165,-0.71333 38.830078,-0.81055 22.55,-0.0813 42.35,-0.11676 44,-0.0801 5.22716,0.11616 12.87744,0.10917 16.5,-0.0137 1.925,-0.0652 42.875,-0.107 91,-0.0937 48.125,0.0132 95.6,-0.0496 105.5,-0.13867 9.9,-0.0891 34.88107,-0.12204 55.51367,-0.0742 20.63259,0.0477 39.75967,-0.33893 42.50391,-0.85937 2.74424,-0.52043 22.33755,-0.95791 43.54101,-0.97071 23.50475,-0.0142 39.58944,-0.4167 41.21094,-1.0332 1.69199,-0.64333 2.87574,-0.66075 3.25391,-0.0488 0.88108,1.42562 19.1187,1.20152 21.46484,-0.26367 1.54779,-0.96661 2.22089,-0.96661 3.1875,0 1.33563,1.33563 13.98414,1.72943 15.24219,0.47461 0.41356,-0.4125 4.05833,-0.75 8.09961,-0.75 h 7.34765 l 7.38672,-7.5 c 4.06251,-4.125 9.51512,-10.13011 12.11524,-13.3457 2.60011,-3.21558 10.25008,-11.31558 17,-18 6.74992,-6.68441 14.77721,-15.3043 17.83984,-19.1543 3.06264,-3.85 7.24879,-8.575 9.30274,-10.5 2.05394,-1.925 4.5148,-4.74814 5.46679,-6.27344 0.95198,-1.5253 5.28376,-6.49855 9.62696,-11.05273 9.9615,-10.44537 21.38455,-23.1498 23.37304,-25.99414 1.86359,-2.66567 6.67174,-7.91923 18.78125,-20.51953 5.09163,-5.29799 9.50116,-10.40001 9.79883,-11.33789 0.29767,-0.93788 2.74924,-3.29269 5.44922,-5.23243 2.69997,-1.93974 5.66939,-5.00349 6.59766,-6.80859 0.92828,-1.8051 3.64801,-5.46669 6.04296,-8.13867 2.39495,-2.67199 4.35352,-5.23123 4.35352,-5.6875 0,-0.45628 2.99206,-5.24383 6.64844,-10.63672 3.65638,-5.39289 7.96286,-12.9567 9.57031,-16.81055 1.60746,-3.85386 4.24039,-9.71438 5.85156,-13.02343 1.61117,-3.30906 2.92969,-6.57347 2.92969,-7.25391 0,-0.68044 0.9,-2.91638 2,-4.96875 1.1,-2.05236 2,-4.68261 2,-5.84375 0,-1.16115 0.67283,-3.46106 1.49609,-5.11133 3.41405,-6.84364 4.58997,-24.48955 2.45118,-36.80664 -0.57303,-3.3 -1.25434,-7.49769 -1.51368,-9.32812 -0.25935,-1.83044 -1.17598,-4.98045 -2.03711,-7 -0.86113,-2.01957 -2.3874,-6.74853 -3.39062,-10.50977 -1.00323,-3.76123 -2.67949,-7.81123 -3.72461,-9 -1.04512,-1.18876 -2.45584,-3.28711 -3.13477,-4.66211 -0.67894,-1.375 -2.98685,-5.425 -5.1289,-9 -2.14205,-3.575 -4.81846,-8.16493 -5.94922,-10.19922 -1.13077,-2.03428 -3.07178,-4.75909 -4.3125,-6.05664 -1.24072,-1.29755 -3.7671,-4.13456 -5.61328,-6.30273 -8.15002,-9.57141 -35.85549,-37.7192 -37.91797,-38.52344 -1.25159,-0.48805 -2.56521,-1.68158 -2.91992,-2.65235 -0.76167,-2.08451 -19.41781,-22.55892 -26.57617,-29.16601 -2.74091,-2.52982 -5.60715,-6.06211 -6.36914,-7.84961 -0.762,-1.7875 -2.02342,-3.25 -2.80274,-3.25 -0.77933,0 -5.61054,-4.596714 -10.73633,-10.214844 -10.82582,-11.865645 -31.4637,-33.885741 -39.0625,-41.679687 -2.89232,-2.966602 -6.76031,-7.241602 -8.5957,-9.5 -1.8354,-2.258398 -6.4487,-7.358196 -10.25195,-11.333985 l -6.91407,-7.228515 -47.24804,-0.140625 C 485.76169,11.825454 449.2,11.591837 430.5,11.382812 411.8,11.173789 395.15,11.018779 393.5,11.037109 Z M 7.7753906,16.722656 c 0.024304,0.286739 0.044599,0.56704 0.058594,0.808594 0.060283,0.04796 0.1183549,0.09326 0.1816406,0.142578 0.092332,-0.311712 0.1889923,-0.622386 0.2890625,-0.93164 -0.1368858,-0.0088 -0.1879764,0.0037 -0.328125,-0.0059 z M 434.69727,19.564453 c 0.82812,-0.01119 1.48316,0.08291 1.76757,0.285156 0.56881,0.404506 3.73516,0.609471 7.03516,0.457032 5.03639,-0.232652 30.83218,-0.244426 47.5,-0.02148 2.475,0.0331 9,-0.06414 14.5,-0.216797 5.5,-0.152659 19.2659,-0.217963 30.58984,-0.144531 l 20.58789,0.134766 10.10743,10.220703 c 5.55882,5.621585 11.47454,11.961539 13.14648,14.089844 1.67193,2.128305 5.29688,6.091992 8.05469,8.80664 2.7578,2.714649 5.01367,5.354541 5.01367,5.867188 0,0.512647 1.8,2.068232 4,3.457031 2.2,1.388799 4,3.166432 4,3.951172 0,0.784741 3.2625,4.773331 7.25,8.863281 10.0108,10.26801 11.75,12.508382 11.75,15.134766 0,2.216834 -0.33742,2.296504 -12.25,2.867187 -6.7375,0.322765 -28.225,0.615694 -47.75,0.652344 -19.525,0.03665 -65.875,0.296376 -103,0.576172 -37.125,0.279797 -108.43183,0.67964 -158.45898,0.888672 -50.02716,0.209031 -111.22716,0.695447 -136,1.080078 -64.015067,0.993913 -104.938248,1.15672 -107.679692,0.429687 -1.298709,-0.344418 -8.41131,-0.654873 -15.804687,-0.689453 -13.153607,-0.06153 -13.461479,-0.112858 -14.34375,-2.408203 -0.495906,-1.290167 -1.127215,-16.589412 -1.404297,-33.998047 -0.49575,-31.14731 -0.470731,-31.685519 1.59375,-33.75 2.287446,-2.287446 2.995127,-2.358045 20.990234,-2.103515 7.90623,0.111829 11.618619,-0.204383 12.13086,-1.033203 0.571717,-0.925064 1.563621,-0.923213 4.396484,0.01172 2.800712,0.924322 3.988083,0.933325 5.070312,0.03516 0.777321,-0.645122 2.222045,-0.928502 3.210938,-0.628906 2.089991,0.633186 5.889654,0.646446 32.298828,0.113282 10.725,-0.216523 33.39142,-0.646913 50.36914,-0.957032 16.97772,-0.310118 31.23291,-0.790284 31.67969,-1.066406 0.44677,-0.276122 1.09594,-0.04335 1.4414,0.515625 0.73589,1.190696 5.68204,1.362921 7.06055,0.246094 0.5225,-0.423312 8.82422,-0.50811 18.44922,-0.1875 9.625,0.320613 22.675,0.423617 29,0.228515 6.325,-0.195103 35.575,-0.575407 65,-0.845703 29.425,-0.270297 55.525,-0.561857 58,-0.648437 2.475,-0.08658 17.96957,0.08741 34.43164,0.386718 16.46207,0.299306 31.52073,0.184562 33.46484,-0.253906 0.97206,-0.219234 1.97266,-0.334509 2.80079,-0.345703 z m 55.5957,82.810547 c 0.18125,-0.0799 0.43203,-0.045 0.70703,0.125 0.55,0.33992 1,0.81605 1,1.05859 0,0.24254 -0.45,0.44141 -1,0.44141 -0.55,0 -1,-0.47613 -1,-1.05859 0,-0.29123 0.11172,-0.48648 0.29297,-0.56641 z M 356,120 c 0.55,0 1,0.45 1,1 0,0.55 -0.45,1 -1,1 -0.55,0 -1,-0.45 -1,-1 0,-0.55 0.45,-1 1,-1 z m 44,4 c 0.55,0 1,0.45 1,1 0,0.55 -0.45,1 -1,1 -0.55,0 -1,-0.45 -1,-1 0,-0.55 0.45,-1 1,-1 z m -253.44141,1 c 0.85748,0 1.28133,0.45 0.94141,1 -0.33992,0.55 -1.04105,1 -1.55859,1 C 145.42387,127 145,126.55 145,126 c 0,-0.55 0.70113,-1 1.55859,-1 z m 29.72071,9.37891 c 0.10514,-0.10514 0.24468,0.0347 0.40429,0.43359 0.28891,0.72187 0.25225,1.58372 -0.0801,1.91602 -0.3323,0.33229 -0.56879,-0.25834 -0.5254,-1.3125 0.024,-0.58248 0.096,-0.93197 0.20118,-1.03711 z m 58.01367,1.99609 c 0.18125,-0.0799 0.43203,-0.045 0.70703,0.125 0.55,0.33992 1,0.81605 1,1.05859 0,0.24254 -0.45,0.44141 -1,0.44141 -0.55,0 -1,-0.47613 -1,-1.05859 0,-0.29123 0.11172,-0.48648 0.29297,-0.56641 z m -147.380861,0.75 c 0.302026,-0.0286 0.599652,0.0528 0.837891,0.29102 0.339242,0.33924 0.135631,1.09874 -0.453125,1.6875 -0.71818,0.71815 -1.279053,0.73576 -1.701172,0.0527 -0.532638,-0.86183 0.410329,-1.94529 1.316406,-2.03125 z m -12.164062,0.38477 c 0.201221,0.12435 0.242993,0.65749 0.236328,1.66796 -0.0084,1.27679 -0.396056,2.92226 -0.861328,3.65625 -0.636637,1.00434 -0.989792,0.78637 -1.425781,-0.88086 -0.3391,-1.2967 0.0181,-2.81302 0.861328,-3.65624 0.627062,-0.62708 0.988232,-0.91147 1.189453,-0.78711 z m 535.425783,6.63085 c 0.28766,0.0635 0.60881,0.24163 0.92969,0.5625 0.71815,0.71818 0.73576,1.27906 0.0527,1.70118 -0.55992,0.34605 -1.31942,0.14048 -1.6875,-0.45508 -0.71266,-1.15311 -0.15792,-1.99899 0.70508,-1.8086 z m -518.572268,1.46094 c 0.148646,-0.14864 0.464958,-0.12915 0.949219,0.0566 C 93.34777,145.96407 94,146.61626 94,147.10742 c 0,1.43762 -1.734829,1.02509 -2.341797,-0.55664 -0.185828,-0.48425 -0.205286,-0.80057 -0.05664,-0.94922 z m 2.677735,3.77735 c 0.10514,-0.10514 0.244684,0.0347 0.404297,0.43359 0.288868,0.72187 0.252215,1.58372 -0.08008,1.91602 -0.332292,0.33229 -0.568811,-0.25834 -0.525391,-1.3125 0.02399,-0.58248 0.09603,-0.93197 0.201172,-1.03711 z M 400.5,150.84961 c 0.5225,0 1.11151,0.48492 1.30859,1.07617 C 402.00568,152.51703 401.41667,153 400.5,153 c -0.91667,0 -1.50568,-0.48297 -1.30859,-1.07422 0.19708,-0.59125 0.78609,-1.07617 1.30859,-1.07617 z m 138.79297,1.52539 c 0.18125,-0.0799 0.43203,-0.045 0.70703,0.125 0.55,0.33992 1,0.81605 1,1.05859 0,0.24254 -0.45,0.44141 -1,0.44141 -0.55,0 -1,-0.47613 -1,-1.05859 0,-0.29123 0.11172,-0.48648 0.29297,-0.56641 z M 548.5,153 c 0.83333,0 1.5,0.88889 1.5,2 0,1.11111 -0.66667,2 -1.5,2 -0.83333,0 -1.5,-0.88889 -1.5,-2 0,-1.11111 0.66667,-2 1.5,-2 z m -406.48438,0.50977 c 0.55897,0.34546 0.75785,1.04659 0.44141,1.55859 C 141.5998,156.4554 141,156.19794 141,154.44141 c 0,-0.8575 0.45666,-1.2771 1.01562,-0.93164 z M 387,156.5 c 0.55,-0.33992 1,0.0578 1,0.88281 0,0.825 -0.45,1.77727 -1,2.11719 -0.55,0.33992 -1,-0.0578 -1,-0.88281 0,-0.825 0.45,-1.77727 1,-2.11719 z M 57.5,157 c 0.855692,0 1.5,0.89942 1.5,2.09375 0,1.22761 0.799484,2.3016 1.931641,2.59766 3.536589,0.92484 3.115178,3.08213 -1.021485,5.23828 -5.230463,2.72627 -5.696877,2.64422 -6.734375,-1.17969 C 52.176815,162.0681 52.487136,161 54.558594,161 55.351135,161 56,160.1 56,159 c 0,-1.11111 0.666667,-2 1.5,-2 z m 89.625,0.26562 c 0.3954,-0.12414 0.82252,-0.11626 1.25781,0.0508 1.67007,0.64086 1.19043,3.54781 -0.81054,4.91797 -1.7466,1.19596 -2.57295,0.87776 -2.55665,-0.98438 0.0179,-2.0477 0.92319,-3.61192 2.10938,-3.98438 z M 194.49219,161 c 0.82966,0 1.50781,0.18796 1.50781,0.41797 0,0.23002 0.27357,1.13002 0.60742,2 0.86935,2.26549 -0.89278,1.95544 -2.375,-0.41797 -1.04175,-1.66811 -0.99838,-2 0.25977,-2 z m -65.73633,0.41797 c 0.27779,0.0656 0.53042,0.23561 0.69141,0.49609 0.32198,0.52097 0.15964,1.21124 -0.36133,1.53321 -0.52097,0.32198 -1.21124,0.15964 -1.53321,-0.36133 -0.32198,-0.52097 -0.15964,-1.21124 0.36133,-1.53321 0.26049,-0.16099 0.56401,-0.20034 0.8418,-0.13476 z M 186.55859,162 c 0.85748,0 1.28133,0.45 0.94141,1 -0.33992,0.55 -1.04105,1 -1.55859,1 C 185.42387,164 185,163.55 185,163 c 0,-0.55 0.70113,-1 1.55859,-1 z m -103.488278,0.20508 c 1.096864,-0.0736 2.226642,1.57923 1.59375,3.22851 C 84.333295,166.29556 83.647089,167 83.138672,167 c -1.399754,0 -2.066035,-2.49936 -1.087891,-4.08203 0.291731,-0.47203 0.65391,-0.68838 1.019531,-0.71289 z m 41.222658,2.16992 c 0.18125,-0.0799 0.43203,-0.045 0.70703,0.125 0.55,0.33992 1,0.81605 1,1.05859 0,0.24254 -0.45,0.44141 -1,0.44141 -0.55,0 -1,-0.47613 -1,-1.05859 0,-0.29123 0.11172,-0.48648 0.29297,-0.56641 z m 371.66211,0.53516 c 1.73717,-0.12836 3.12732,0.42658 2.86914,1.75781 -0.42377,2.18507 -2.82422,2.96356 -2.82422,0.91601 0,-2.42973 -1.90731,-1.88083 -3.18164,0.91602 -0.6265,1.375 -1.49066,2.5 -1.91992,2.5 -1.67602,0 -1.63198,-1.61262 0.10351,-3.75586 1.13014,-1.39565 3.21596,-2.20562 4.95313,-2.33398 z M 129.94141,165 c 0.58246,0 1.05859,0.45 1.05859,1 0,0.55 -0.19887,1 -0.44141,1 -0.24254,0 -0.71867,-0.45 -1.05859,-1 -0.33992,-0.55 -0.14105,-1 0.44141,-1 z m 55.17578,0 c 0.55,0 0.72273,0.45 0.38281,1 -0.33992,0.55 -1.06719,1 -1.61719,1 -0.55,0 -0.72273,-0.45 -0.38281,-1 0.33992,-0.55 1.06719,-1 1.61719,-1 z m 208.20703,0.3418 c 0.7456,-0.7456 4.67578,2.9366 4.67578,4.38086 0,0.70277 -0.39803,1.27734 -0.88477,1.27734 -1.1043,0 -4.45235,-4.99686 -3.79101,-5.6582 z M 404.5,166.16602 c 0.36453,0.36453 0.15883,1.60094 -0.45508,2.74804 -1.0964,2.04863 -3.04492,2.86639 -3.04492,1.27735 0,-1.45877 2.8216,-4.7038 3.5,-4.02539 z m -117.30273,0.0195 c 0.37155,0.11351 0.8052,0.61827 1.46875,1.56445 0.86785,1.2375 2.19716,2.25 2.95507,2.25 0.75792,0 1.37891,0.675 1.37891,1.5 0,1.97229 -1.89699,1.93209 -2.66016,-0.0566 -0.32871,-0.85661 -1.18266,-1.33447 -1.89648,-1.06055 -1.92065,0.73702 -3.54343,-1.6304 -2.3418,-3.41601 0.415,-0.61668 0.72415,-0.89476 1.09571,-0.78125 z m 87.35937,2.30078 c 0.24447,-0.0366 0.56229,0.006 0.94336,0.15234 0.825,0.31659 1.5,0.97759 1.5,1.46875 0,1.0484 -1.37829,1.18226 -2.33398,0.22656 -0.911,-0.91099 -0.84279,-1.73788 -0.10938,-1.84765 z M 447.55859,169 c 0.85748,0 1.28133,0.45 0.94141,1 -0.33992,0.55 -1.04105,1 -1.55859,1 C 446.42387,171 446,170.55 446,170 c 0,-0.55 0.70113,-1 1.55859,-1 z M 335,171 c 0.55,0 1,0.675 1,1.5 0,0.825 -0.45,1.5 -1,1.5 -0.55,0 -1,-0.675 -1,-1.5 0,-0.825 0.45,-1.5 1,-1.5 z m 161.55859,1 c 0.24254,0 0.44141,0.45 0.44141,1 0,0.55 -0.47613,1 -1.05859,1 -0.58246,0 -0.78133,-0.45 -0.44141,-1 0.33992,-0.55 0.81605,-1 1.05859,-1 z m -311.5,1 c 0.51754,0 0.94141,0.45 0.94141,1 0,0.55 -0.70113,1 -1.55859,1 -0.85748,0 -1.28133,-0.45 -0.94141,-1 0.33992,-0.55 1.04105,-1 1.55859,-1 z m 165.88282,0 c 0.58246,0 1.05859,0.45 1.05859,1 0,0.55 -0.19887,1 -0.44141,1 -0.24254,0 -0.71867,-0.45 -1.05859,-1 -0.33992,-0.55 -0.14105,-1 0.44141,-1 z m -51.8418,3.10742 c 0.87973,0.12297 1.90039,1.2567 1.90039,2.45117 0,0.79254 -0.46399,1.44141 -1.03125,1.44141 -1.19717,0 -2.48084,-2.81994 -1.6582,-3.64258 0.21892,-0.21893 0.49582,-0.29099 0.78906,-0.25 z m 291.26172,6.54492 c 0.61565,0.0447 1.3019,0.38996 2.3164,1.05469 1.84957,1.21188 2.12467,1.80262 1.13282,2.43164 -3.66128,2.32195 -8.72125,-0.26808 -5.34571,-2.73633 0.73534,-0.53769 1.28084,-0.79469 1.89649,-0.75 z m -141,2.36914 c 0.83253,0.20032 1.61832,1.09495 1.88281,2.47852 0.36287,1.89825 0.0567,2.5 -1.27539,2.5 -1.85451,0 -3.36101,-2.55448 -2.41211,-4.08984 0.27536,-0.44555 0.61387,-0.723 0.97461,-0.84961 0.27055,-0.095 0.55257,-0.10584 0.83008,-0.0391 z m 15.88867,0.99805 c 0.8176,-0.0207 0.81723,0.004 0.0449,2.95703 -0.29095,1.11261 -0.88593,2.02344 -1.32422,2.02344 -1.0081,0 0.26459,-4.95477 1.2793,-4.98047 z M 71.5,186.84961 c 0.5225,0 1.111511,0.48492 1.308594,1.07617 C 73.005678,188.51703 72.416667,189 71.5,189 c -0.916667,0 -1.505678,-0.48297 -1.308594,-1.07422 0.197083,-0.59125 0.786094,-1.07617 1.308594,-1.07617 z M 267,198 c 1.16492,0 1.83992,0.45 1.5,1 -0.33992,0.55 -1.01492,1 -1.5,1 -0.48508,0 -1.16008,-0.45 -1.5,-1 -0.33992,-0.55 0.33508,-1 1.5,-1 z m 56.07422,1 c 2.38738,0 2.99737,0.39059 2.73828,1.75 -0.34126,1.79048 -3.82794,2.90057 -5.10352,1.625 -1.71714,-1.71714 -0.55471,-3.375 2.36524,-3.375 z m 340.67773,12.91406 62.25391,0.16406 1.58203,2.41602 c 0.87068,1.32883 2.91086,6.37374 4.5332,11.21094 1.62234,4.83721 3.34199,9.69492 3.82227,10.79492 1.33975,3.06849 2.85464,20.94292 2.62695,31 -0.15701,6.93472 -0.70447,10.01804 -2.38672,13.4375 -1.20079,2.44081 -2.18645,4.91581 -2.18945,5.5 -0.003,0.58419 -1.28276,4.2125 -2.84375,8.0625 l -2.83789,7 -6.86523,0.30078 c -3.77554,0.16524 -7.37319,0.72327 -7.9961,1.24024 -0.68934,0.5721 -32.60202,0.88322 -81.54297,0.79492 -44.22502,-0.0798 -137.7832,0.20971 -207.9082,0.64453 -70.125,0.43482 -178.125,0.87432 -240,0.97656 -61.875,0.10225 -121.95,0.51965 -133.5,0.92774 l -21,0.74218 -2.822266,-3.26757 c -4.443902,-5.14626 -5.038528,-10.84876 -5.111328,-48.95508 -0.05565,-29.13066 0.166903,-34.87826 1.41211,-36.37891 1.362694,-1.64224 3.011823,-1.72803 21,-1.10742 23.856159,0.82306 14.632633,0.80169 67.361324,0.14648 24.66164,-0.30645 45.24914,-0.8096 45.75,-1.11914 0.50085,-0.30955 1.39893,-0.26165 1.9961,0.10742 1.01522,0.62744 48.27426,0.59069 80.91406,-0.0625 7.975,-0.15959 34.4214,-0.39064 58.76953,-0.51562 24.48944,-0.12571 44.51424,-0.6251 44.81836,-1.11719 0.30237,-0.48924 1.00864,-0.60764 1.56836,-0.26172 1.10017,0.67995 28.1778,0.62509 57.84375,-0.11718 59.76385,-1.49534 159.99904,-2.28942 160.62695,-1.27344 0.24454,0.39567 1.49283,0.31966 2.77539,-0.16797 2.96587,-1.12745 20.2581,-1.32678 97.34961,-1.12305 z M 458.55859,328.51562 c 0.27188,0.0712 0.44141,0.24926 0.44141,0.51563 0,0.53274 -0.675,0.96875 -1.5,0.96875 -0.825,0 -1.5,-0.17643 -1.5,-0.39258 0,-0.21616 0.675,-0.65216 1.5,-0.96875 0.4125,-0.15829 0.78672,-0.19428 1.05859,-0.12305 z M 586.94141,338 c 0.58246,0 1.05859,0.45 1.05859,1 0,0.55 -0.19887,1 -0.44141,1 -0.24254,0 -0.71867,-0.45 -1.05859,-1 -0.33992,-0.55 -0.14105,-1 0.44141,-1 z m -471.49024,0.0352 c 0.80102,-0.0451 1.59485,0.23078 1.97852,0.85156 0.30141,0.48768 -0.0247,1.3625 -0.72461,1.94336 -1.54339,1.2809 -4.24912,-0.14005 -3.27344,-1.71875 0.41133,-0.66553 1.21851,-1.03108 2.01953,-1.07617 z M 108.94141,344 c 0.51754,0 1.21867,0.45 1.55859,1 0.33992,0.55 -0.084,1 -0.94141,1 C 108.70113,346 108,345.55 108,345 c 0,-0.55 0.42387,-1 0.94141,-1 z m 107.81445,1.41797 c 0.27779,0.0656 0.53042,0.23561 0.69141,0.49609 0.32198,0.52097 0.15964,1.21124 -0.36133,1.53321 -0.52097,0.32198 -1.21124,0.15964 -1.53321,-0.36133 -0.32198,-0.52097 -0.15964,-1.21124 0.36133,-1.53321 0.26049,-0.16099 0.56401,-0.20034 0.8418,-0.13476 z M 95.558594,346 C 96.351135,346 97,346.45 97,347 c 0,0.55 -0.926135,1 -2.058594,1 -1.132459,0 -1.781325,-0.45 -1.441406,-1 0.339919,-0.55 1.266053,-1 2.058594,-1 z M 128,346 c 0.55,0 1,0.45 1,1 0,0.55 -0.45,1 -1,1 -0.55,0 -1,-0.45 -1,-1 0,-0.55 0.45,-1 1,-1 z m 83.55859,0 c 0.85748,0 1.28133,0.45 0.94141,1 -0.33992,0.55 -1.04105,1 -1.55859,1 C 210.42387,348 210,347.55 210,347 c 0,-0.55 0.70113,-1 1.55859,-1 z m 186.66407,11.00977 c 0.30502,0.0205 0.71471,0.13652 1.23437,0.33593 0.84872,0.32568 1.54297,1.50578 1.54297,2.62305 0,2.72408 -1.85537,2.58486 -2.91602,-0.21875 -0.75757,-2.00246 -0.7764,-2.80179 0.13868,-2.74023 z M 376.05859,361 c 0.58246,0 0.78133,0.45 0.44141,1 -0.33992,0.55 -0.81605,1 -1.05859,1 C 375.19887,363 375,362.55 375,362 c 0,-0.55 0.47613,-1 1.05859,-1 z m -98.75976,6.18164 c 2.22027,-0.42758 6.98357,2.55114 6.17383,3.86133 -0.66003,1.06793 -1.80755,1.08199 -5.47266,0.0625 -2.88749,-0.80319 -3.35399,-3.41294 -0.70117,-3.92383 z m 9.7539,1.95313 C 287.90347,369.24286 289,370.1737 289,371.05859 289,371.57613 288.57613,372 288.05859,372 c -1.17986,0 -2.44092,-1.9497 -1.72461,-2.66602 0.17908,-0.17907 0.43518,-0.23524 0.71875,-0.19921 z M 380,374 c 0.55,0 1,0.9 1,2 0,1.1 -0.45,2 -1,2 -0.55,0 -1,-0.9 -1,-2 0,-1.1 0.45,-2 1,-2 z m -52.28125,5.36719 c 0.17334,0.0848 0.28125,0.28299 0.28125,0.57422 0,0.58246 0.87387,1.05859 1.94141,1.05859 1.06754,0 2.21867,0.45 2.55859,1 0.35871,0.58041 -0.62061,1 -2.33398,1 -2.919,0 -5.00977,-2.36129 -3.12305,-3.52734 0.26299,-0.16254 0.50244,-0.19029 0.67578,-0.10547 z m -48.80859,0.75195 c 0.3046,-0.0317 0.6016,0.0586 0.84765,0.30469 0.34317,0.34317 -0.13664,1.38468 -1.0664,2.31445 -1.55895,1.55894 -1.69141,1.5616 -1.69141,0.0352 0,-1.36721 0.99635,-2.55912 1.91016,-2.6543 z M 59.058594,385 C 59.576135,385 60,385.45 60,386 c 0,0.55 -0.701135,1 -1.558594,1 -0.857463,0 -1.281325,-0.45 -0.941406,-1 0.339919,-0.55 1.041053,-1 1.558594,-1 z m 221.128906,1.22852 c 0.6535,0.21783 1.36628,0.93085 1.58398,1.58398 0.59996,1.79986 -1.46849,1.42123 -2.16601,-0.39648 -0.37373,-0.97391 -0.14872,-1.43108 0.58203,-1.1875 z M 384,387.5 c 0.55,0.33992 1,1.04105 1,1.55859 0,0.51754 -0.45,0.94141 -1,0.94141 -0.55,0 -1,-0.70113 -1,-1.55859 0,-0.85748 0.45,-1.28133 1,-0.94141 z m 164,6.5 c 0.55,0 1,0.54605 1,1.21289 0,0.66683 1.19839,2.16685 2.66211,3.33399 1.545,1.23192 2.35763,2.61047 1.93945,3.2871 -1.0288,1.66463 -1.80633,1.44295 -4.35156,-1.24218 C 546.96634,398.18261 546.17319,394 548,394 Z m -244.97266,0.0156 c 1.87791,-0.0188 5.97266,2.75149 5.97266,4.04102 0,1.68684 -4.04462,0.99402 -4.70898,-0.80664 -0.35512,-0.9625 -1.12863,-2.08029 -1.71875,-2.48438 -0.6739,-0.46145 -0.50433,-0.74 0.45507,-0.75 z m 173.53125,2.5 c 0.27188,0.0712 0.44141,0.24926 0.44141,0.51563 0,0.53274 -0.675,0.96875 -1.5,0.96875 -0.825,0 -1.5,-0.17643 -1.5,-0.39258 0,-0.21616 0.675,-0.65216 1.5,-0.96875 0.4125,-0.15829 0.78672,-0.19427 1.05859,-0.12305 z M 182.94141,409 c 0.58246,0 1.05859,0.45 1.05859,1 0,0.55 -0.19887,1 -0.44141,1 -0.24254,0 -0.71867,-0.45 -1.05859,-1 -0.33992,-0.55 -0.14105,-1 0.44141,-1 z m -148.025394,2.12305 c 0.347396,0.0143 0.646354,0.10729 0.8125,0.27343 0.332291,0.33229 -0.258334,0.56879 -1.3125,0.5254 -1.164943,-0.048 -1.401249,-0.28625 -0.603516,-0.60547 0.360937,-0.14446 0.75612,-0.20767 1.103516,-0.19336 z m 546.568364,16.26953 c 38.69848,0.0966 43.01492,0.26837 43.29687,1.7207 0.17402,0.89637 -2.17937,4.16623 -5.29687,7.35938 -3.08579,3.16064 -7.43204,8.05959 -9.65821,10.88672 -2.22616,2.82711 -4.67361,5.50157 -5.4375,5.9414 -0.7639,0.43983 -1.38867,1.40375 -1.38867,2.14258 0,0.73883 -0.60344,1.57408 -1.3418,1.85742 -0.73837,0.28334 -2.10943,2.13191 -3.04687,4.10742 -0.93744,1.97551 -2.08267,3.5918 -2.54492,3.5918 -0.46224,0 -3.46734,3.25116 -6.67774,7.22461 -3.21039,3.97344 -7.42422,8.87572 -9.36328,10.89453 -1.93905,2.01882 -4.46807,4.7321 -5.61914,6.02734 -1.15107,1.29524 -5.60355,5.70644 -9.89453,9.80274 -6.85932,6.54814 -8.4176,7.55384 -12.90625,8.32617 -7.53259,1.29607 -38.27645,1.814 -111.10547,1.875 -39.16689,0.0328 -65.70981,0.43355 -66.78711,1.00781 -1.13992,0.6076 -6.51625,0.57318 -14.83398,-0.0937 -8.23399,-0.66026 -13.69546,-0.69729 -14.8086,-0.10156 -1.09313,0.58455 -2.12007,0.58869 -2.69922,0.01 -0.5661,-0.56608 -4.07431,-0.60168 -8.90234,-0.0879 -8.50561,0.90516 -137.67834,0.72217 -139.16602,-0.19727 -0.48606,-0.3004 -9.19108,-0.0901 -19.34375,0.4668 -19.65883,1.07841 -39.89561,1.57503 -40.47656,0.99414 -0.34796,-0.34793 -17.12161,-1.39079 -20.98242,-1.30469 -1.1,0.0245 -5.04422,0.23949 -8.76562,0.47852 -3.72143,0.23903 -6.989861,0.072 -7.263677,-0.3711 -0.53374,-0.86361 -24.383665,-1.03659 -25.84375,-0.1875 -1.548927,0.90072 -13.666801,0.98055 -14.214844,0.0937 C 55.678866,508.67078 51.255375,508.77778 50.5,510 c -0.806683,1.30494 -14.195091,1.30363 -15.001953,-0.002 -0.414252,-0.67028 -1.239772,-0.67028 -2.492188,0 -1.984111,1.06186 -7.938626,1.34825 -10.173828,0.49023 -1.817733,-0.69778 -1.766129,-69.87511 0.05469,-73.27734 L 24.070312,435 83.285156,434.89844 C 115.8533,434.84208 147.45,434.64977 153.5,434.4707 c 10.47908,-0.31017 26.20546,-0.61766 102.5,-2.00195 18.425,-0.33431 51.95,-0.75989 74.5,-0.94531 22.55,-0.18543 41,-0.38165 41,-0.43555 0,-0.20149 39.27108,-1.05922 75.99805,-1.66016 20.89853,-0.34195 38.75886,-1.0293 39.68945,-1.52734 1.05247,-0.56325 1.92507,-0.5261 2.31055,0.0977 0.77945,1.26121 8.18575,1.3241 8.95703,0.0762 0.32946,-0.53308 1.77964,-0.57925 3.41797,-0.10938 3.84355,1.10238 20.97211,1.09617 21.65429,-0.008 0.30151,-0.48785 1.66259,-0.37185 3.04883,0.25977 1.80573,0.82274 3.81886,0.85252 7.21485,0.10547 2.89025,-0.6358 21.31624,-0.99559 47.69336,-0.92969 z" />
    <rect
       style="fill:#000000"
       id="rect2"
       width="601.73962"
       height="96.305664"
       x="18.441509"
       y="315.55472" />
  </g>
</svg>
