<?xml version="1.0" encoding="UTF-8" standalone="no"?>
<!-- Created with Inkscape (http://www.inkscape.org/) -->

<svg
   version="1.1"
   id="svg1"
   width="740"
   height="537"
   viewBox="0 0 740 537"
   sodipodi:docname="5.svg"
   inkscape:version="1.4 (86a8ad7, 2024-10-11)"
   xmlns:inkscape="http://www.inkscape.org/namespaces/inkscape"
   xmlns:sodipodi="http://sodipodi.sourceforge.net/DTD/sodipodi-0.dtd"
   xmlns="http://www.w3.org/2000/svg"
   xmlns:svg="http://www.w3.org/2000/svg">
  <defs
     id="defs1" />
  <sodipodi:namedview
     id="namedview1"
     pagecolor="#ffffff"
     bordercolor="#000000"
     borderopacity="0.25"
     inkscape:showpageshadow="2"
     inkscape:pageopacity="0.0"
     inkscape:pagecheckerboard="0"
     inkscape:deskcolor="#d1d1d1"
     inkscape:zoom="1.4804469"
     inkscape:cx="370.15849"
     inkscape:cy="268.16226"
     inkscape:window-width="1920"
     inkscape:window-height="1013"
     inkscape:window-x="2391"
     inkscape:window-y="605"
     inkscape:window-maximized="1"
     inkscape:current-layer="g1" />
  <g
     inkscape:groupmode="layer"
     inkscape:label="Image"
     id="g1">
    <rect
       style="fill:#000000"
       id="rect1"
       width="161.43773"
       height="59.441509"
       x="62.143394"
       y="124.28679" />
    <path
       id="path1"
       style="fill:#000000"
       d="m 516.82227,12.519531 c -0.73389,0.014 -1.64038,0.218887 -2.77735,0.615235 -2.08247,0.725953 -5.82176,0.876924 -10.39844,0.421875 C 499.716,13.16584 490.425,12.946208 483,13.068359 c -17.93813,0.295108 -81.14792,0.30598 -92.5,0.01563 -4.95,-0.12661 -15.525,0.08348 -23.5,0.466797 -7.975,0.383313 -15.0625,0.607801 -15.75,0.498047 -1.90749,-0.304515 -7.49929,-0.350885 -21.75,-0.177734 -7.15,0.08687 -14.8,0.176838 -17,0.199218 -9.11216,0.0927 -169.45284,-0.0165 -212,-0.144531 -25.3,-0.07613 -46.9,-0.129577 -48,-0.117187 -1.1,0.0124 -8.351364,-0.186601 -16.113281,-0.44336 l -14.111328,-0.466796 -3.332032,2.800781 c -0.630107,0.529814 -1.127967,0.895462 -1.632812,1.240234 C 16.93192,21.337891 16.801298,25.8551 15.214844,30 h 0.480468 l -0.33789,52.25 c -0.185704,28.7375 -0.569682,59.45 -0.853516,68.25 -0.620415,19.23531 -1.950514,106.32821 -1.871094,122.5 0.03107,6.325 0.04195,17.125 0.02539,24 -0.04254,17.66377 0.0073,21.92044 0.310547,26.75586 0.146821,2.34098 -0.322136,7.8894 -1.042969,12.32812 -1.03268,6.35902 -1.053446,8.48205 -0.0957,10.01563 0.906392,1.45136 0.933046,2.47319 0.105469,4.01953 -0.663584,1.23992 -0.875807,4.34824 -0.527344,7.72852 0.320529,3.10931 0.55954,6.77734 0.53125,8.15234 -0.02829,1.375 0.04214,4.75 0.15625,7.5 0.356225,8.58454 0.264216,14.37918 -0.5625,35 -0.441005,11 -0.73363,21.9125 -0.650391,24.25 0.36718,10.31036 0.321618,17.36011 -0.269531,42.71289 -0.611181,26.21193 -0.56797,27.10986 1.5625,32.25 1.054541,2.54427 2.159274,4.40297 2.775391,4.89844 2.65214,0.27797 5.299677,0.6444 7.875,1.34375 0.377669,0.23494 0.830166,0.4024 1.261719,0.58789 0.630931,-0.52316 1.550998,-0.79577 3.287109,-1.14649 4.67152,-0.94371 93.257,-1.1732 137.125,-0.35546 15.95,0.29729 30.92807,0.25298 33.28516,-0.0977 2.35709,-0.35061 4.49943,-0.29231 4.75976,0.12891 0.26032,0.42122 13.63227,0.56369 29.71485,0.3164 29.62391,-0.4555 38.67467,-0.46393 69.24023,-0.0586 9.35,0.12399 17.72755,-0.19427 18.61719,-0.70899 0.88965,-0.51473 2.46465,-0.58325 3.5,-0.15234 1.03536,0.43092 13.35781,0.7534 27.38281,0.7168 14.025,-0.0366 58.35,-0.0207 98.5,0.0371 40.15,0.0578 81.06077,0.11118 90.91211,0.11718 l 17.91016,0.01 2.08984,-2.72461 c 2.60574,-3.39913 12.03831,-13.70244 20.58789,-22.48828 3.575,-3.67379 9.66442,-10.27005 13.5332,-14.6582 3.86878,-4.38815 8.14378,-9.15811 9.5,-10.59961 1.35622,-1.44149 3.37254,-3.72133 4.47852,-5.06641 1.10598,-1.34507 2.68594,-2.86548 3.51172,-3.37891 0.82578,-0.51343 4.51738,-4.53359 8.20508,-8.93359 3.68771,-4.4 8.2283,-9.20291 10.08984,-10.67383 5.20268,-4.11096 43.4853,-46.35375 49.07031,-54.14648 1.64723,-2.29837 4.93343,-6.29778 7.30274,-8.88672 2.36931,-2.58894 4.30859,-5.3589 4.30859,-6.15625 0,-0.79735 2.2136,-3.30445 4.91992,-5.57031 2.70632,-2.26586 6.14052,-6.24589 7.63086,-8.84375 1.49034,-2.59785 3.57655,-5.62266 4.63477,-6.72266 C 710.76149,341.82216 717,331.85953 717,330.42383 c 0,-0.6293 1.02642,-2.67091 2.28125,-4.53516 1.25482,-1.86425 3.02636,-5.71722 3.9375,-8.5625 0.91114,-2.84528 2.97882,-6.99721 4.59375,-9.22656 2.90386,-4.00867 4.60226,-7.97659 9.24805,-21.59961 2.10143,-6.16212 2.43311,-9.2144 2.75781,-25.5 0.39532,-19.82743 -1.07242,-31.4174 -4.96484,-39.21094 C 733.83437,219.74847 733,217.43141 733,216.63867 c 0,-2.1931 -8.9039,-23.87533 -10.55273,-25.69726 C 721.6512,190.06176 721,188.66541 721,187.83789 c 0,-0.82753 -1.51577,-3.04271 -3.36719,-4.92187 -4.19571,-4.2586 -18.35718,-20.96915 -21.38867,-25.23829 -2.08665,-2.93855 -4.39201,-5.5494 -18.22852,-20.65234 C 675.25681,134.01405 673,131.21282 673,130.80078 c 0,-0.41204 -1.2375,-1.39301 -2.75,-2.17969 -1.5125,-0.78668 -4.1,-3.30288 -5.75,-5.59179 -1.65,-2.28891 -3.47942,-4.69467 -4.06445,-5.34571 -0.58502,-0.65103 -3.78345,-4.33359 -7.10938,-8.18359 -5.50743,-6.37523 -14.70877,-15.73209 -34.41797,-35 -3.93817,-3.85 -8.17909,-8.575 -9.42382,-10.5 -1.24474,-1.925 -6.86565,-8.225 -12.49024,-14 -9.1042,-9.347658 -18.53694,-19.876749 -26.74023,-29.847656 -5.33425,-6.483655 -8.90471,-7.246995 -30.95118,-6.615235 -12.91336,0.370043 -19.90759,0.205988 -20.74414,-0.488281 -0.4413,-0.366246 -1.00244,-0.543294 -1.73632,-0.529297 z M 1.2128906,18.863281 c -0.021426,-0.0066 -0.038692,0.03848 -0.050781,0.15625 0.079557,0.09279 0.1105585,0.130065 0.1777344,0.210938 -0.044166,-0.198748 -0.090789,-0.356109 -0.1269532,-0.367188 z m 533.0898394,1.69336 c 2.70875,-0.07734 5.92848,-0.06863 9.00586,0.04687 15.42848,0.579074 18.29272,2.131332 35.11719,19.027343 C 595.79913,57.078088 598,59.480887 598,61.009766 c 0,0.713741 1.82853,2.863196 4.0625,4.77539 4.52768,3.875526 13.94611,15.116652 18.24023,21.769532 1.54197,2.388985 3.58364,4.59253 4.53516,4.894531 1.53092,0.485896 5.16211,5.378315 5.16211,6.955078 0,1.305793 -15.06129,0.256083 -21.38086,-1.490235 -2.13408,-0.589721 -9.10908,-1.694609 -15.5,-2.455078 -13.06296,-1.554389 -12.95492,-1.539391 -55.61914,-7.947265 -17.05,-2.560793 -34.6,-5.084088 -39,-5.607422 -4.4,-0.523333 -8.73704,-1.17975 -9.63672,-1.458985 -1.89691,-0.588735 -4.96089,-1.014422 -21.36328,-2.964843 -6.6,-0.784812 -16.5,-2.109628 -22,-2.945313 -10.4014,-1.580418 -25.57625,-3.654837 -41,-5.605468 -4.95,-0.626025 -10.01138,-1.618241 -11.24805,-2.203126 -1.23667,-0.584883 -2.49741,-0.815082 -2.80078,-0.511718 -0.30336,0.303364 -2.21699,0.165239 -4.25195,-0.306641 C 384.16425,65.436322 377.55,64.559894 371.5,63.958984 365.45,63.358073 357.65913,62.221671 354.1875,61.433594 350.71587,60.645516 346.35451,60 344.49609,60 c -1.85841,0 -3.64338,-0.430577 -3.96875,-0.957031 -0.32537,-0.526454 -1.81595,-0.96295 -3.31054,-0.96875 -4.19765,-0.01641 -18.20333,-1.775204 -23.2168,-2.916016 -4.92391,-1.120431 -16.56333,-2.681675 -27.48633,-3.6875 -3.84199,-0.353782 -7.2468,-0.807126 -7.56836,-1.005859 -1.10981,-0.685902 -6.46548,-1.539624 -12.87695,-2.054688 -3.53768,-0.284199 -6.84278,-0.770462 -7.34375,-1.080078 -0.50097,-0.309616 -3.17208,-0.724668 -5.93555,-0.921875 -2.76346,-0.197206 -5.53336,-0.759183 -6.15625,-1.248047 -0.62288,-0.488864 -6.7028,-1.432777 -13.50976,-2.097656 -6.80696,-0.66488 -13.52834,-1.645881 -14.9375,-2.181641 -1.40916,-0.535761 -3.48916,-0.886856 -4.62305,-0.779297 -1.13388,0.10756 -2.7375,-0.09373 -3.5625,-0.447265 -0.825,-0.353537 -5.1,-1.105558 -9.5,-1.671875 -4.4,-0.566316 -9.125,-1.22654 -10.5,-1.466797 -1.375,-0.240258 -7,-0.923509 -12.5,-1.517578 -5.5,-0.594069 -12.475,-1.698125 -15.5,-2.453125 -4.4584,-1.11276 -14.07652,-2.601449 -26,-4.027344 -0.825,-0.09866 -4.65,-0.702952 -8.5,-1.341797 -3.85,-0.638845 -9.47039,-1.276561 -12.49023,-1.417969 -4.47882,-0.209725 -5.55758,-0.607398 -5.85157,-2.152343 -0.32668,-1.716656 0.0465,-1.818785 3.99024,-1.103516 4.19069,0.760068 10.26873,0.906859 32.85156,0.800781 5.775,-0.02713 19.05,-0.02053 29.5,0.01367 10.45,0.0342 33.85,-0.319335 52,-0.785156 18.15,-0.465821 33.7875,-0.748323 34.75,-0.628906 0.9625,0.119413 3.6625,0.207985 6,0.197265 129.73786,-0.595183 217.36132,-1.043804 217.75,-1.115234 1.98428,-0.364684 37.17215,0.0043 37.80664,0.396484 0.44214,0.273256 2.49372,0.116095 4.55859,-0.349609 1.03244,-0.232851 3.22876,-0.397266 5.9375,-0.474609 z M 89.941406,149 C 90.523865,149 91,149.45 91,150 c 0,0.55 -0.198865,1 -0.441406,1 -0.242541,0 -0.718675,-0.45 -1.058594,-1 -0.339919,-0.55 -0.141053,-1 0.441406,-1 z M 96,149.5 c 0.55,0.33992 1,1.04105 1,1.55859 C 97,151.57613 96.55,152 96,152 c -0.55,0 -1,-0.70113 -1,-1.55859 0,-0.85748 0.45,-1.28133 1,-0.94141 z m 431,11 c 0.55,-0.33992 1,0.0839 1,0.94141 0,0.85746 -0.45,1.55859 -1,1.55859 -0.55,0 -1,-0.42387 -1,-0.94141 0,-0.51754 0.45,-1.21867 1,-1.55859 z M 203.05859,164 c 0.58246,0 0.78133,0.45 0.44141,1 -0.33992,0.55 -0.81605,1 -1.05859,1 C 202.19887,166 202,165.55 202,165 c 0,-0.55 0.47613,-1 1.05859,-1 z M 95,171 c 0.55,0 1,0.45 1,1 0,0.55 -0.45,1 -1,1 -0.55,0 -1,-0.45 -1,-1 0,-0.55 0.45,-1 1,-1 z m 603.80859,3.3457 c 2.29971,0.27216 3.81093,1.79313 9.51563,7.66407 4.23514,4.35856 8.16661,8.95134 8.73633,10.20703 0.56972,1.2557 2.33511,4.7582 3.92383,7.7832 1.58871,3.025 2.91822,6.75902 2.95312,8.29883 0.0349,1.53981 0.70052,4.03471 1.48047,5.54297 1.41204,2.73059 4.37153,10.59266 7.21094,19.1582 2.51919,7.59954 3.07356,17.22768 2.02734,35.20703 -0.27956,4.80421 -2.37701,12.96914 -6.625,25.79297 -1.12713,3.40258 -5.09209,13.15362 -6.09961,15 -0.45018,0.825 -2.72315,5.2231 -5.05078,9.77344 -2.32762,4.55033 -4.82825,8.76853 -5.55664,9.37304 -0.72839,0.60451 -1.32422,1.69176 -1.32422,2.41797 0,1.92482 -3.63576,7.98411 -9.41406,15.68555 -4.02093,5.35918 -5.58313,6.72481 -7.57617,6.62891 -4.54073,-0.2184 -14.471,-1.9217 -16.50977,-2.83203 -1.1,-0.49118 -5.6,-1.15605 -10,-1.47657 -4.4,-0.32051 -9.125,-0.82413 -10.5,-1.11914 -1.375,-0.29501 -7.9,-1.19234 -14.5,-1.99609 -6.6,-0.80374 -16.5,-2.16628 -22,-3.02735 -5.5,-0.86106 -15.625,-2.20748 -22.5,-2.99218 -6.875,-0.78471 -14.20427,-1.90201 -16.28711,-2.48243 -2.08284,-0.58042 -9.73284,-1.69351 -17,-2.47265 -7.26716,-0.77914 -15.68789,-1.85894 -18.71289,-2.40039 -3.025,-0.54144 -10.45,-1.48412 -16.5,-2.0957 -6.05,-0.61159 -14.6,-1.7418 -19,-2.50977 -12.8201,-2.23762 -35.17542,-5.40638 -46,-6.52149 -5.5,-0.56657 -10.675,-1.30149 -11.5,-1.63281 -0.825,-0.33133 -8.25,-1.42978 -16.5,-2.4414 -8.25,-1.01161 -17.25,-2.24898 -20,-2.74805 -2.75,-0.49907 -8.68054,-1.20166 -13.17969,-1.5625 -4.49916,-0.36085 -9.22416,-0.91169 -10.5,-1.22266 -1.27585,-0.31097 -5.47031,-0.96226 -9.32031,-1.44922 -3.85,-0.48695 -12.4,-1.5709 -19,-2.4082 -6.6,-0.83729 -17.33664,-2.1855 -23.85938,-2.99609 -6.52271,-0.8106 -13.49772,-1.89686 -15.5,-2.41407 -2.00225,-0.5172 -6.79062,-1.24171 -10.64062,-1.60937 -3.85,-0.36766 -12.85,-1.57312 -20,-2.67969 -7.15,-1.10657 -15.475,-2.20619 -18.5,-2.44336 -3.025,-0.23718 -10.9,-1.29919 -17.5,-2.35937 -9.73906,-1.56441 -24.0142,-3.44961 -33.51758,-4.42578 -0.83467,-0.0857 -1.95967,-0.41102 -2.5,-0.72461 -0.54033,-0.31359 -2.33242,-0.6218 -3.98242,-0.6836 -3.85097,-0.14417 -14.33234,-1.48529 -27,-3.45507 -10.54285,-1.63939 -26.27839,-3.71349 -33,-4.34961 -2.2,-0.2082 -8.95,-1.26957 -15,-2.35938 -10.94242,-1.97111 -21.64144,-3.38251 -35,-4.61523 -3.85,-0.35528 -7.555319,-1.08374 -8.234375,-1.61914 -0.679056,-0.5354 -5.026229,-1.20895 -9.660156,-1.49805 C 75.608206,268.3826 75.22374,265.61572 88.951172,264.54492 93.102835,264.22107 97.85,263.53423 99.5,263.01953 c 1.65,-0.5147 5.25,-1.19513 8,-1.51172 2.75,-0.3166 7.7,-1.03197 11,-1.58984 3.3,-0.55786 11.175,-1.68929 17.5,-2.51367 6.325,-0.82437 12.625,-1.69532 14,-1.93555 1.375,-0.24023 7.6497,-1.11671 13.94336,-1.94727 6.29367,-0.83056 12.14367,-1.7158 13,-1.96875 0.85634,-0.25296 6.27748,-0.96645 12.04687,-1.58398 5.7694,-0.61753 10.9444,-1.48275 11.5,-1.92383 0.55561,-0.44108 4.15977,-1.10359 8.00977,-1.47265 10.18695,-0.97652 43.24572,-5.54975 48.5,-6.70899 4.73942,-1.04564 10.76345,-1.99459 28,-4.41016 5.775,-0.80931 11.625,-1.67881 13,-1.93359 4.122,-0.76379 17.2178,-2.58882 21.5,-2.99609 2.2,-0.20924 6.025,-0.81554 8.5,-1.34766 2.475,-0.53212 7.86066,-1.27701 11.96875,-1.6543 4.10809,-0.37728 8.21481,-1.08514 9.125,-1.57226 0.91019,-0.48712 6.46416,-1.34135 12.34375,-1.89844 5.87959,-0.5571 11.22481,-1.35201 11.87695,-1.76758 0.65213,-0.41558 2.08555,-0.7832 3.18555,-0.8164 3.58258,-0.1081 13.83462,-1.59353 21.5,-3.11524 4.125,-0.81889 10.65,-1.89614 14.5,-2.39453 3.85,-0.49839 12.625,-1.81397 19.5,-2.92187 6.875,-1.1079 17.225,-2.69231 23,-3.52149 5.775,-0.82918 16.35,-2.44389 23.5,-3.58984 7.15,-1.14596 14.8,-2.30071 17,-2.56445 2.2,-0.26376 10.075,-1.32659 17.5,-2.36133 7.425,-1.03474 16.425,-2.1828 20,-2.55274 3.575,-0.36994 6.95,-0.95148 7.5,-1.29297 0.55,-0.3415 2.125,-0.67077 3.5,-0.73046 5.54125,-0.24041 24.00971,-2.47216 32,-3.86719 11.54893,-2.01634 19.57358,-3.27653 32,-5.02344 5.775,-0.81184 16.575,-2.39549 24,-3.51953 7.425,-1.12405 17.1,-2.48724 21.5,-3.0293 4.4,-0.54206 10.475,-1.44235 13.5,-2 3.025,-0.55764 9.1,-1.46111 13.5,-2.00976 4.4,-0.54865 8.675,-1.29237 9.5,-1.65235 0.825,-0.35998 3.55345,-0.78562 6.0625,-0.94531 1.12656,-0.0717 1.97952,-0.12002 2.74609,-0.0293 z M 84.5,333 c 0.825,0 1.5,0.45 1.5,1 0,0.55 -0.675,1 -1.5,1 -0.825,0 -1.5,-0.45 -1.5,-1 0,-0.55 0.675,-1 1.5,-1 z m -3.666016,3.28711 c 1.551618,0.20958 2.459134,1.50719 1.830078,3.14648 C 82.333296,340.29556 80.923511,341 79.53125,341 c -3.204104,0 -3.539969,-3.54408 -0.429688,-4.53125 0.627205,-0.19907 1.215217,-0.2515 1.732422,-0.18164 z M 105.58398,337 c 0.87084,0 1.40521,0.53437 1.1875,1.1875 C 106.15341,340.04172 104,340.34991 104,338.58398 104,337.71315 104.71315,337 105.58398,337 Z m 159.50977,22.04297 c 0.49921,-0.0173 0.90625,0.43702 0.90625,1.375 0,0.78002 0.27357,2.13002 0.60742,3 0.38724,1.00914 0.0644,1.58203 -0.89258,1.58203 -1.78085,0 -2.88491,-2.39244 -2.07617,-4.5 0.36479,-0.95062 0.95587,-1.43974 1.45508,-1.45703 z m 392.12891,19.50976 c 0.76627,0.0933 1.73449,1.36394 1.76172,2.69727 0.0224,1.09614 -1.76349,0.91642 -2.48438,-0.25 -0.3399,-0.55 -0.30979,-1.4987 0.0664,-2.10742 0.16803,-0.27188 0.40082,-0.37093 0.65625,-0.33985 z M 212.29297,394.375 c 0.18125,-0.0799 0.43203,-0.045 0.70703,0.125 0.55,0.33992 1,0.81605 1,1.05859 0,0.24254 -0.45,0.44141 -1,0.44141 -0.55,0 -1,-0.47613 -1,-1.05859 0,-0.29123 0.11172,-0.48648 0.29297,-0.56641 z M 106,397 c 0.55,0 1,0.45 1,1 0,0.55 -0.45,1 -1,1 -0.55,0 -1,-0.45 -1,-1 0,-0.55 0.45,-1 1,-1 z m 480.4082,2.61719 c 0.26079,-0.15521 0.63494,-0.15385 1.0918,0.0215 0.825,0.31659 1.5,0.97759 1.5,1.46875 0,0.49115 -0.675,0.89258 -1.5,0.89258 -0.825,0 -1.5,-0.66101 -1.5,-1.46875 0,-0.44751 0.14742,-0.75886 0.4082,-0.91406 z m -165.80078,1.38672 c 0.70892,-0.073 1.27959,0.65257 1.03711,2.24609 -0.1883,1.2375 -1.02622,2.38471 -1.86328,2.54883 -1.13649,0.22283 -1.39894,-0.34702 -1.03516,-2.25 0.30587,-1.60005 1.15241,-2.47196 1.86133,-2.54492 z M 414.94141,405 c 0.58246,0 1.05859,0.45 1.05859,1 0,0.55 -0.19887,1 -0.44141,1 -0.24254,0 -0.71867,-0.45 -1.05859,-1 -0.33992,-0.55 -0.14105,-1 0.44141,-1 z m 9.76953,0.30859 c 0.22143,0.0557 0.28906,0.40396 0.28906,1.06836 0,0.89234 -0.675,1.62305 -1.5,1.62305 -0.825,0 -1.5,-0.16929 -1.5,-0.37695 0,-0.20765 0.675,-0.93836 1.5,-1.62305 0.61425,-0.50978 0.9895,-0.74714 1.21094,-0.69141 z M 648.05859,411 c 0.58246,0 0.78133,0.45 0.44141,1 -0.33992,0.55 -0.81605,1 -1.05859,1 C 647.19887,413 647,412.55 647,412 c 0,-0.55 0.47613,-1 1.05859,-1 z m -352.69726,5.43164 c 0.96805,-0.21283 0.74425,0.6073 -0.78906,2.14063 -1.6621,1.6621 -2.57227,1.82524 -2.57227,0.46289 0,-0.53065 0.9,-1.44646 2,-2.03516 0.58342,-0.31224 1.03864,-0.49742 1.36133,-0.56836 z M 374.94141,424 c 0.58246,0 1.05859,0.45 1.05859,1 0,0.55 -0.19887,1 -0.44141,1 -0.24254,0 -0.71867,-0.45 -1.05859,-1 -0.33992,-0.55 -0.14105,-1 0.44141,-1 z m 246.61718,0 c 2.64502,0 1.51479,4.72417 -2.1914,9.15625 -1.99818,2.38953 -4.13152,5.46875 -4.74024,6.84375 -1.29522,2.92572 -8.11846,11.59379 -14.16992,18 -2.33794,2.475 -5.4581,5.85 -6.93359,7.5 -4.92497,5.50746 -20.9463,22.86446 -27.37891,29.66211 -3.49564,3.69402 -8.23969,7.60288 -10.54297,8.68555 -4.66233,2.19155 -5.15948,2.20722 -78.60156,2.62109 -21.175,0.11933 -42.325,0.25975 -47,0.31055 -4.675,0.0508 -11.51778,-0.0917 -15.20703,-0.31641 -3.68925,-0.22474 -6.93619,-0.0407 -7.21485,0.41016 -0.27866,0.45088 -2.43587,0.54096 -4.79296,0.19922 -2.35709,-0.34178 -10.50112,-0.32898 -18.09766,0.0293 -7.59655,0.35826 -35.15472,0.67904 -61.24023,0.71094 -26.0855,0.0319 -47.88205,0.33835 -48.4375,0.68164 -0.55546,0.34329 -1.54862,0.2917 -2.20704,-0.11523 -1.03091,-0.63712 -60.99547,-0.6599 -72.30273,-0.0274 -2.2,0.12309 -4.7875,-0.14701 -5.75,-0.59961 -0.97461,-0.45829 -2.55008,-0.39507 -3.55469,0.14258 -1.08162,0.57889 -2.3829,0.60637 -3.25,0.0684 -0.81252,-0.50418 -12.77179,-0.67638 -27.29687,-0.39258 -18.40907,0.3597 -26.24424,0.18087 -27.21289,-0.62304 -0.93576,-0.77661 -4.57105,-0.92205 -11.64844,-0.4668 -12.82528,0.82499 -17.14231,0.84994 -32.78711,0.19141 -16.090496,-0.67733 -15.87256,-0.6557 -16.466797,-1.61719 -0.278219,-0.45017 3.761899,-1.13819 8.978516,-1.5293 5.216616,-0.3911 9.742864,-1.12706 10.05664,-1.63477 0.313776,-0.50772 0.925649,-0.70359 1.359375,-0.43554 0.433726,0.26806 6.138922,-0.45767 12.679686,-1.61328 6.54077,-1.15562 13.69258,-2.09218 15.89258,-2.08008 2.2,0.0121 4.45,-0.32133 5,-0.74024 0.55,-0.4189 3.87006,-0.83528 7.37891,-0.92578 3.50885,-0.0905 7.18366,-0.59249 8.16406,-1.11718 0.98041,-0.5247 7.04962,-1.41602 13.48828,-1.98047 6.43867,-0.56444 12.01327,-1.21721 12.38867,-1.44922 0.37541,-0.23202 4.48419,-0.91076 9.13086,-1.50977 4.64667,-0.59901 9.79922,-1.3029 11.44922,-1.5625 17.55212,-2.76148 43.58133,-6.40901 49.86523,-6.98828 3.22555,-0.29735 6.68281,-0.97807 7.6836,-1.51367 C 247.04961,479.439 250.59743,479 253.93359,479 257.26975,479 260,478.58121 260,478.07031 c 0,-0.5109 1.4625,-0.93847 3.25,-0.95117 4.49065,-0.032 25.06896,-2.59922 31.75,-3.96094 3.025,-0.61656 14.725,-2.26228 26,-3.6582 11.275,-1.39592 21.85,-2.94956 23.5,-3.45117 1.65,-0.50162 5.925,-1.20803 9.5,-1.57031 3.575,-0.36228 8.633,-1.05588 11.24023,-1.54102 2.60722,-0.48514 5.4264,-0.62012 6.26368,-0.29883 0.83728,0.32129 2.10391,0.10109 2.8164,-0.49023 0.71249,-0.59131 6.323,-1.54953 12.4668,-2.12891 6.1438,-0.57938 12.19221,-1.43621 13.44141,-1.9043 1.2492,-0.46809 5.42148,-1.16361 9.27148,-1.54492 3.85,-0.3813 10.6,-1.32913 15,-2.10742 4.4,-0.77828 11.15,-1.68449 15,-2.01367 3.85,-0.32917 9.475,-1.20201 12.5,-1.93945 3.025,-0.73745 7.525,-1.62337 10,-1.96875 2.475,-0.34538 8.325,-1.25539 13,-2.02344 10.12167,-1.66286 26.53229,-4.13907 33.5,-5.05469 2.75,-0.36138 5.40638,-0.90741 5.90234,-1.21289 0.49596,-0.30548 2.29596,-0.66609 4,-0.80078 5.15789,-0.40768 17.81495,-2.25114 22.59766,-3.29102 2.475,-0.53813 7.425,-1.27434 11,-1.63672 3.575,-0.36238 9.875,-1.26217 14,-2 4.125,-0.73783 11.55,-1.63407 16.5,-1.99218 4.95,-0.35812 11.7,-1.26256 15,-2.00977 3.3,-0.74721 9.48531,-1.65781 13.74414,-2.02344 4.25883,-0.36564 7.99746,-1.07666 8.30859,-1.58007 C 619.86386,424.4126 620.76605,424 621.55859,424 Z M 423.5,429 c 0.83333,0 1.5,0.88889 1.5,2 0,1.11111 -0.66667,2 -1.5,2 -0.83333,0 -1.5,-0.88889 -1.5,-2 0,-1.11111 0.66667,-2 1.5,-2 z m 93.05859,7 c 0.24254,0 0.44141,0.45 0.44141,1 0,0.55 -0.47613,1 -1.05859,1 -0.58246,0 -0.78133,-0.45 -0.44141,-1 0.33992,-0.55 0.81605,-1 1.05859,-1 z M 301,444 c 0.55,0 1,0.45 1,1 0,0.55 -0.45,1 -1,1 -0.55,0 -1,-0.45 -1,-1 0,-0.55 0.45,-1 1,-1 z m -173.44141,7.51562 c 0.27188,0.0712 0.44141,0.24926 0.44141,0.51563 0,0.53274 -0.675,0.96875 -1.5,0.96875 -0.825,0 -1.5,-0.17643 -1.5,-0.39258 0,-0.21616 0.675,-0.65216 1.5,-0.96875 0.4125,-0.15829 0.78672,-0.19427 1.05859,-0.12305 z m -106.556637,63.7168 c -0.07301,-0.0136 -0.361665,0.06 -0.607422,0.24414 0.0039,0.001 0.0078,0.003 0.01172,0.004 0.531272,-0.14497 0.664404,-0.23529 0.595703,-0.24805 z m -3.90625,11.26172 c -0.05766,0.0426 -0.114358,0.0862 -0.171875,0.12891 0.06385,-0.0325 0.229505,-0.17151 0.171875,-0.12891 z" />
    <rect
       style="fill:#000000"
       id="rect2"
       width="20.264151"
       height="11.483019"
       x="517.41132"
       y="158.06038" />
    <rect
       style="fill:#000000"
       id="rect3"
       width="375.56226"
       height="127.66415"
       x="54.037735"
       y="318.14716" />
    <rect
       style="fill:#000000"
       id="rect4"
       width="49.309433"
       height="15.535849"
       x="106.04906"
       y="445.81131" />
    <rect
       style="fill:#000000"
       id="rect5"
       width="118.88302"
       height="39.852829"
       x="541.72827"
       y="362.7283" />
  </g>
</svg>
