<?xml version="1.0" encoding="UTF-8" standalone="no"?>
<!-- Created with Inkscape (http://www.inkscape.org/) -->

<svg
   version="1.1"
   id="svg1"
   width="747"
   height="548"
   viewBox="0 0 747 548"
   sodipodi:docname="6.svg"
   inkscape:version="1.4 (86a8ad7, 2024-10-11)"
   xmlns:inkscape="http://www.inkscape.org/namespaces/inkscape"
   xmlns:sodipodi="http://sodipodi.sourceforge.net/DTD/sodipodi-0.dtd"
   xmlns="http://www.w3.org/2000/svg"
   xmlns:svg="http://www.w3.org/2000/svg">
  <defs
     id="defs1" />
  <sodipodi:namedview
     id="namedview1"
     pagecolor="#ffffff"
     bordercolor="#000000"
     borderopacity="0.25"
     inkscape:showpageshadow="2"
     inkscape:pageopacity="0.0"
     inkscape:pagecheckerboard="0"
     inkscape:deskcolor="#d1d1d1"
     inkscape:zoom="1.4507299"
     inkscape:cx="373.60503"
     inkscape:cy="273.65535"
     inkscape:window-width="1920"
     inkscape:window-height="1013"
     inkscape:window-x="2391"
     inkscape:window-y="605"
     inkscape:window-maximized="1"
     inkscape:current-layer="g1" />
  <g
     inkscape:groupmode="layer"
     inkscape:label="Image"
     id="g1">
    <rect
       style="fill:#000000"
       id="rect1"
       width="46.183647"
       height="472.86542"
       x="55.833961"
       y="39.979874" />
    <path
       id="path1"
       style="fill:#000000"
       d="m 557.58984,16.376953 c -9.69453,-0.11063 -16.58068,0.220216 -17.32617,0.832031 -0.68049,0.558481 -2.03049,0.676486 -3,0.263672 C 536.29417,17.059851 517.275,16.878572 495,17.068359 c -22.275,0.189787 -49.05,0.29082 -59.5,0.22461 -10.45,-0.06621 -22.6,-0.110893 -27,-0.09766 -4.4,0.01324 -13.85,-0.07033 -21,-0.185546 -15.524,-0.250147 -15.00594,-0.26229 -29.5,0.785156 -10.52194,0.760392 -15.45835,0.801839 -39.5,0.339844 -4.4,-0.08455 -13.4,-0.212567 -20,-0.285157 -20.58216,-0.226366 -32.87143,-0.576602 -36.30664,-1.033203 -1.81918,-0.241803 -3.51619,-0.103272 -3.76953,0.306641 -0.25334,0.409914 -3.26393,0.496731 -6.69141,0.193359 -8.71329,-0.771228 -30.18228,-0.333471 -33.74219,0.6875 -1.62937,0.467296 -3.15254,0.544464 -3.38281,0.171875 -0.23027,-0.372588 -10.24708,-0.471819 -22.26172,-0.220703 -19.62561,0.410192 -34.62899,0.480699 -78.3457,0.375 -7.425,-0.01795 -14.85,0.0012 -16.5,0.04102 -1.65,0.0398 -8.85,-0.366049 -16,-0.900391 -18.584502,-1.388878 -54.203605,-0.675642 -57.746094,1.15625 -1.168875,0.604449 -1.987033,1.494583 -2.384765,2.279297 v 6.554688 c 0.06882,2.667539 -0.04862,5.32515 -0.244141,7.984374 -0.306872,1.348921 -0.244383,4.06336 -0.878906,5.5625 0.0021,0.396866 0.03249,1.567155 0.02734,1.716797 -0.02317,0.673301 -0.327777,7.423301 -0.675782,15 C 18.363004,84.60522 17.287999,122.6797 16.511719,167 c -0.313085,17.875 -0.819685,40.6 -1.125,50.5 -0.305315,9.9 -0.793122,33.3 -1.083985,52 -0.669241,43.02644 -0.650358,40.47303 -0.328125,44 0.150748,1.65 -0.015,18.075 -0.36914,36.5 -0.777643,40.45919 -1.65732,104.23415 -1.916016,138.89258 L 11.5,514.2832 l 2.552734,1.90821 c 0.404267,0.30184 0.655302,0.54734 0.9375,0.80468 0.1732,-0.01 0.350178,-0.0156 0.533204,-0.0156 h 7.083984 c 0.922635,-0.0215 1.845087,-0.0306 2.765625,-0.0273 2.761615,0.01 5.514397,0.13698 8.267578,0.42383 2.815917,0.28943 5.615379,0.76636 8.332031,1.56641 0.704506,0.25465 1.410918,0.57219 2.041016,0.97852 3.616033,0.27958 9.409083,0.26211 14.064453,-0.13672 7.124946,-0.61042 45.769745,-0.3946 48.921875,0.27343 1.04355,0.22116 48.02086,1.1291 52.25,1.00977 9.29011,-0.26214 65.21592,-0.2983 69.75,-0.0449 0.825,0.0461 8.02015,-0.34693 15.99023,-0.875 8.69109,-0.57579 15.17004,-0.59816 16.18555,-0.0547 1.9442,1.0405 18.15455,1.24388 19.1582,0.24023 0.77685,-0.77684 7.42675,-0.90724 8.17383,-0.16015 0.27888,0.27888 2.64138,0.1791 5.25,-0.22266 2.60862,-0.40176 5.1108,-0.51026 5.56055,-0.24023 0.44976,0.27002 12.82476,0.39261 27.5,0.27148 14.67525,-0.12112 27.58164,-0.22547 28.68164,-0.23047 1.1,-0.005 19.51639,0.26288 40.92578,0.59571 24.22176,0.37654 39.36149,0.24319 40.07813,-0.35157 0.73267,-0.60803 2.37655,-0.60286 4.51953,0.0117 2.03621,0.58398 14.07056,0.72848 30.42383,0.36524 14.87948,-0.33051 41.8751,-0.66368 59.99023,-0.73828 l 32.93555,-0.13477 2.62304,-4.14844 c 1.4421,-2.28146 6.68031,-8.35646 11.64258,-13.5 14.03851,-14.55137 22.65909,-23.98868 25.89453,-28.35156 1.63149,-2.2 3.7551,-4.5893 4.71875,-5.30859 0.96365,-0.71929 3.20094,-2.63179 4.97266,-4.25 1.77171,-1.61821 3.56433,-2.94141 3.98437,-2.94141 0.42005,0 1.37612,-1.46743 2.125,-3.25977 0.74889,-1.79233 3.23019,-4.55229 5.51368,-6.13476 2.2835,-1.58246 4.15234,-3.30533 4.15234,-3.82813 0,-0.52281 2.7,-3.76261 6,-7.19922 3.44066,-3.58309 6,-7.1428 6,-8.3457 0,-1.30654 0.84859,-2.35431 2.25,-2.7793 2.67253,-0.81045 6.74786,-4.35584 6.75586,-5.87695 0.003,-0.59163 2.26977,-3.26339 5.03906,-5.93555 2.7693,-2.67214 8.25741,-8.52215 12.19531,-13 3.9379,-4.47784 11.0086,-11.43415 15.71094,-15.45898 4.70234,-4.02483 9.66805,-8.74983 11.03516,-10.5 1.36711,-1.75017 3.50461,-4.00149 4.75,-5.00391 1.24539,-1.00242 2.26367,-2.22961 2.26367,-2.72656 0,-0.49695 4.29273,-5.3021 9.53906,-10.67773 6.93543,-7.10636 10.38298,-11.54744 12.63086,-16.27344 1.70041,-3.575 3.66651,-7.175 4.36914,-8 3.5358,-4.1516 13.2725,-25.29402 13.85742,-30.08984 0.16168,-1.32557 0.78381,-4.21016 1.38282,-6.41016 2.71275,-9.96328 3.47919,-18.712 2.94726,-33.62891 -0.30147,-8.45413 -1.07609,-16.94609 -1.72265,-18.87109 -1.41638,-4.21695 -1.79036,-5.99208 -2.625,-12.5 -0.35268,-2.75 -0.97167,-5.45 -1.37696,-6 -0.40528,-0.55 -1.50548,-3.35725 -2.44531,-6.23828 -0.93983,-2.88103 -2.12486,-5.49467 -2.63281,-5.8086 C 735.41588,216.13914 735,215.11455 735,214.17578 c 0,-0.93877 -1.86942,-4.85014 -4.1543,-8.6914 -2.28488,-3.84128 -6.07228,-10.68195 -8.41601,-15.20118 -4.21892,-8.13502 -7.11384,-12.22231 -14.99414,-21.16797 -2.23573,-2.53799 -4.57706,-5.29023 -5.20313,-6.11523 -4.41726,-5.82087 -17.20451,-19.96337 -20.41211,-22.57617 -0.72649,-0.59177 -3.63903,-3.74177 -6.47265,-7 -8.27688,-9.51715 -11.02221,-12.64878 -15.27539,-17.42383 -2.20451,-2.475 -7.26133,-8.2125 -11.23829,-12.75 -3.97697,-4.5375 -7.55422,-8.25 -7.94726,-8.25 -0.39305,0 -2.07383,-1.848734 -3.73633,-4.109375 -1.66249,-2.260643 -5.2277,-6.423143 -7.92187,-9.25 -2.69416,-2.826858 -6.13532,-7.104527 -7.64844,-9.505859 -1.51311,-2.401333 -3.50071,-4.594058 -4.41602,-4.871094 -0.9153,-0.277036 -3.59187,-2.811182 -5.94726,-5.632813 -11.34651,-13.592555 -13.64411,-16.152822 -14.74805,-16.427734 -0.65484,-0.16307 -1.70846,-1.434196 -2.3418,-2.824219 C 592.8241,39.519456 588.308,33.519849 582.75586,27.271484 580.68974,24.946273 579,22.369532 579,21.544922 c 0,-0.824609 -1.19709,-2.283546 -2.66016,-3.242188 -2.21616,-1.452082 -5.34552,-1.772814 -18.75,-1.925781 z M 58.957031,22.451172 c 1.216943,0.317344 2.713207,2.287468 3.386719,4.796875 0.821997,3.062639 -1.11377,2.885048 -3.390625,-0.3125 -1.622457,-2.27853 -1.905689,-3.383373 -1.080078,-4.208985 0.302868,-0.302868 0.678337,-0.381172 1.083984,-0.27539 z M 8.2402344,23.253906 c -0.022095,0.0012 0.039835,0.344182 0.1386718,0.410156 0.00799,0.0053 0.015458,0.01218 0.023438,0.01758 -0.045145,-0.136742 -0.090076,-0.273894 -0.1464844,-0.40625 -0.00666,-0.01562 -0.012469,-0.02165 -0.015625,-0.02148 z M 508.28906,25.201172 c 0.57508,0.04155 1.27674,0.299187 2.17383,0.779297 1.77475,0.949818 3.14439,1.054908 4.70313,0.359375 1.64257,-0.732936 3.17882,-0.509289 6.07226,0.888672 l 3.875,1.873046 -0.60156,8.699219 c -0.86883,12.59438 -1.29281,32.369054 -2.11133,98.541019 -0.58166,47.02333 -0.99625,59.10953 -2.06445,60.17773 -1.60046,1.60045 -1.7265,3.18427 -0.29297,3.66211 0.67965,0.22655 1.01419,7.13053 0.96289,19.83203 -0.19311,47.84347 -1.00218,129.21592 -1.57617,158.48633 -0.34513,17.6 -0.83225,47.525 -1.08203,66.5 -0.24977,18.975 -0.5582,36.975 -0.68555,40 -0.12736,3.025 -0.32868,9.42623 -0.44727,14.22461 -0.21149,8.55696 -0.2711,8.75311 -3.1582,10.24609 -3.59382,1.85843 -41.15396,3.93448 -46.00586,2.54297 -1.69449,-0.4864 -4.53741,-0.70508 -6.3164,-0.48828 -10.14957,1.23689 -12.70358,1.33431 -13.2168,0.50391 -0.32647,-0.52826 -8.06563,-0.76154 -18.14844,-0.54688 -9.66886,0.20584 -18.2487,0.11652 -19.06641,-0.19726 -1.14936,-0.44105 -1.33808,-1.56091 -0.83203,-4.93555 0.9538,-6.36036 1.29016,-17.5209 2.02539,-67.25977 0.36252,-24.52469 0.87946,-46.61484 1.15039,-49.08984 0.27094,-2.475 0.49129,-5.4 0.48829,-6.5 -0.0793,-25.96853 0.11541,-63.96687 0.34375,-67 0.32384,-4.30145 1.23582,-40.05685 2.02148,-79.25 0.47541,-23.71639 0.44105,-24.25 -1.50781,-24.25 -2.40588,0 -2.52012,-1.26406 -0.40625,-4.49023 0.8724,-1.33146 1.31575,-2.8603 0.98437,-3.39649 -0.33138,-0.53618 -0.1449,-1.25805 0.41407,-1.60351 C 417.54217,202.54699 417.19048,200 415.5,200 c -1.16829,0 -1.5,-1.33946 -1.5,-6.05859 0,-3.7847 0.37536,-5.82746 1,-5.44141 0.55,0.33992 1,2.39105 1,4.55859 0,2.16754 0.3375,3.94148 0.75,3.94141 1.03202,-1.9e-4 1.03415,-29.35682 0.002,-30.08203 -0.45639,-0.32063 -0.36233,-1.81374 0.20899,-3.31641 1.32717,-3.49081 1.34365,-8.60156 0.0273,-8.60156 -0.58924,0 -0.80926,-1.56628 -0.52539,-3.75 1.34163,-10.32076 1.45259,-18.11437 0.26367,-18.5957 -0.84381,-0.3416 -0.86581,-0.52187 -0.0723,-0.57618 0.84062,-0.0575 1.19124,-8.15222 1.29492,-29.82812 0.2019,-42.209674 0.95746,-67.875623 2.08594,-70.84375 0.79902,-2.1016 1.55192,-2.518108 4.21875,-2.328125 2.96327,0.211102 12.2308,-0.528566 20.55664,-1.642578 1.82072,-0.243615 10.59572,-0.679709 19.5,-0.96875 8.90429,-0.289042 20.62315,-0.692642 26.04297,-0.896485 5.41983,-0.203838 11.11336,-0.01113 12.65039,0.429688 1.73471,0.497509 3.204,0.391703 3.875,-0.279297 0.38731,-0.387313 0.83508,-0.561079 1.41015,-0.519531 z M 34.140625,27.804688 c 1.958868,-0.0776 4.562767,0.07901 8.021484,0.296874 5.863678,0.369358 11.163602,0.98276 11.779297,1.363282 0.632074,0.390648 0.904199,2.072249 0.625,3.863281 C 54.294443,35.072735 53.826805,58.1 53.527344,84.5 c -0.299461,26.4 -0.765394,62.85 -1.035156,81 -0.269763,18.15 -0.710195,51.225 -0.980469,73.5 -0.270273,22.275 -0.752683,56.025 -1.072266,75 -0.319584,18.975 -0.758485,60.825 -0.974609,93 -0.216124,32.175 -0.441963,58.725 -0.501953,59 -0.05999,0.275 -0.05062,9.98633 0.02148,21.58008 0.115819,18.62464 -0.06404,21.24235 -1.548828,22.47461 -2.581447,2.14241 -26.390564,2.05726 -28.994141,-0.10352 -0.818769,-0.67952 -1.009648,-8.9659 -0.685547,-29.69726 0.247241,-15.81486 0.380435,-31.28188 0.296875,-34.3711 -0.08357,-3.08921 0.308323,-11.18921 0.871094,-18 0.562771,-6.81078 1.276789,-36.90781 1.585938,-66.88281 0.30915,-29.975 0.98068,-64.4 1.492187,-76.5 0.511506,-12.1 1.185869,-33.475 1.5,-47.5 0.314131,-14.025 0.809143,-34.05 1.099609,-44.5 0.290469,-10.45 0.71278,-32.05 0.939454,-48 0.712899,-50.163406 1.467961,-83.785099 2.019531,-90 0.292874,-3.3 0.552612,-10.05 0.576172,-15 0.04342,-9.122238 0.127301,-11.462505 6.003906,-11.695312 z m 292.410155,0.527343 c 7.86354,0.01285 13.81096,0.178932 15.74805,0.554688 2.86032,0.554843 9.25117,1.288336 14.20117,1.628906 10.70876,0.736788 12.47224,1.836174 10.7832,6.724609 -0.75379,2.181655 -1.32213,21.947 -1.71679,59.759766 -0.32434,31.075 -0.80498,63.025 -1.06836,71 -0.26337,7.975 -0.70955,39.475 -0.99219,70 -0.28263,30.525 -0.74941,64.95 -1.03711,76.5 -0.2877,11.55 -0.78507,45.975 -1.10547,76.5 -0.3204,30.525 -0.59367,56.175 -0.60547,57 -0.0118,0.825 0.0629,3.075 0.16407,5 0.1012,1.925 -0.0382,12.91335 -0.3086,24.41797 -0.51999,22.12251 -1.63591,28.91676 -5.11328,31.12891 -1.38016,0.87797 -9.12814,1.47907 -25,1.9414 -31.81549,0.92677 -73.59393,1.19753 -76.54688,0.4961 -2.84558,-0.67595 -2.71039,4.54995 -1.54687,-59.98438 0.37186,-20.625 0.8911,-49.65 1.1543,-64.5 0.26319,-14.85 0.67834,-35.64623 0.92383,-46.21289 0.28792,-12.39378 0.088,-19.43348 -0.56641,-19.83789 -0.66794,-0.41281 -0.61741,-1.10651 0.14844,-2.0293 0.81034,-0.9764 1.31388,-11.63849 1.66211,-35.16015 0.27488,-18.56777 0.62742,-38.10684 0.7832,-43.41993 0.25732,-8.77623 0.11061,-9.70544 -1.61328,-10.15625 -2.44286,-0.63882 -2.4513,-2.72582 -0.0137,-3.36328 2.32215,-0.60726 1.68309,-4.30416 -0.75196,-4.35156 -1.35646,-0.0264 -1.29375,-0.28872 0.36719,-1.54297 1.75789,-1.32746 2.06053,-3.01734 2.5,-13.96875 0.4571,-11.39071 0.34985,-12.46098 -1.25,-12.45898 -1.28568,0.001 -1.75,-0.80925 -1.75,-3.05664 0,-1.83738 0.41071,-2.80683 1.02734,-2.42579 0.56459,0.34894 0.90421,1.16452 0.75586,1.81055 -0.14836,0.64602 0.17834,1.17383 0.72461,1.17383 1.75223,0 1.13986,-8.83731 -0.75781,-10.93945 -2.29069,-2.53752 -2.22357,-3.91828 0.16016,-3.29493 1.8178,0.47537 1.91371,-0.25126 1.97461,-15.06054 0.0429,-10.42217 -0.31891,-16.02496 -1.09571,-16.96094 -0.88559,-1.06701 -0.8633,-1.58112 0.0957,-2.17383 0.96475,-0.59625 1.35694,-10.60831 1.69335,-43.171872 0.52202,-50.527862 1.06073,-67.959991 2.12891,-68.939454 1.42984,-1.311076 42.25314,-2.665516 65.84375,-2.626953 z m -147.28906,0.369141 c 1.41052,0.08474 2.52943,0.261419 3.01953,0.507812 0.98021,0.492785 5.81474,0.933979 10.74219,0.980469 6.20035,0.0585 9.3032,0.498325 10.07617,1.429688 0.78553,0.946512 0.90471,5.875207 0.4043,16.613281 C 203.1126,56.629447 202.63819,72.05 202.44922,82.5 c -0.18896,10.45 -0.56649,28.9 -0.83984,41 -0.27337,12.1 -0.75369,38.2 -1.06641,58 -0.31272,19.8 -0.78065,46.575 -1.04102,59.5 -0.26038,12.925 -0.70903,41.275 -0.99609,63 -0.28706,21.725 -0.76464,51.875 -1.0625,67 -0.29786,15.125 -0.72799,39.875 -0.95508,55 -0.22709,15.125 -0.6206,32.675 -0.875,39 -2.04118,50.74915 -1.83201,49.02293 -5.70312,46.95117 -0.98559,-0.52747 -6.46228,-0.57505 -13.05469,-0.11523 -11.20402,0.78148 -22.12848,0.67887 -28.74609,-0.26953 -1.86484,-0.26726 -4.11483,-0.16586 -5,0.22461 -2.40678,1.06168 -38.39866,0.32009 -39.53321,-0.81446 C 103.03905,510.43944 101.6124,510 100.40625,510 c -2.147289,0 -3.898689,-2.39242 -2.916016,-3.98242 0.709694,-1.14831 1.804194,-59.1427 3.087886,-163.51758 0.31794,-25.85 0.65551,-53.26262 0.75,-60.91602 C 101.4561,271.21599 101.18135,267.56343 100.25,267.25195 98.500786,266.66695 98.685825,265 100.5,265 c 1.07232,0 1.49145,-1.0692 1.46875,-3.75 -0.0283,-3.33232 -0.18085,-3.55508 -1.36133,-2 -1.765052,2.32518 -2.080594,2.21517 -2.253904,-0.78516 -0.118983,-2.05983 0.208355,-2.42093 1.750004,-1.93164 1.69097,0.5367 1.88577,0.0808 1.79687,-4.21484 -0.0729,-3.52146 -0.2818,-4.16586 -0.77734,-2.39258 C 100.2725,252.96943 98,253.87213 98,251.16602 98,248.16133 99.054559,246 100.52148,246 c 1.78144,0 1.94027,-33.09563 0.16407,-34.19336 -0.88317,-0.54585 -0.865636,-1.02698 0.0723,-1.96484 1.40829,-1.40829 1.70639,-7.8418 0.36328,-7.8418 -1.262275,0 -3.437444,-5.67861 -2.658199,-6.93945 1.382984,-2.23772 2.682769,-1.00024 2.037109,1.93945 -0.41456,1.88749 -0.25923,3 0.41992,3 0.59371,0 1.14586,-0.3375 1.22656,-0.75 0.0808,-0.4125 0.27714,-18.75 0.43555,-40.75 0.24565,-34.1162 0.92301,-81.112444 1.71289,-118.75 L 104.5,30 112,29.792969 c 4.125,-0.11445 11.1,-0.118753 15.5,-0.0078 4.4,0.110929 8.9,0.16796 10,0.125 1.1,-0.04296 8.525,-0.228182 16.5,-0.410156 7.975,-0.181973 17.2,-0.522156 20.5,-0.757812 1.65,-0.11783 3.3512,-0.125748 4.76172,-0.04102 z m 399.83203,9.169922 c 1.89758,0.385554 7.71812,7.311031 8.46094,10.52539 0.36811,1.5929 2.3055,4.5179 4.30664,6.5 2.00114,1.9821 4.38851,5.035752 5.30469,6.78711 0.91617,1.751358 3.50367,4.345631 5.75,5.763672 2.24632,1.418042 4.08398,3.086817 4.08398,3.708984 0,0.622166 3.0375,4.15401 6.75,7.849609 5.92862,5.90163 18.87782,19.614365 30.54883,32.349611 2.08904,2.27952 4.93779,5.7991 6.33203,7.82031 1.39423,2.02122 3.17389,3.91973 3.95312,4.21875 0.77923,0.29902 1.41602,1.2141 1.41602,2.03516 0,0.82106 4.78958,6.20245 10.64453,11.95898 l 10.64649,10.4668 -0.0586,4.82226 c -0.0322,2.65217 -0.27727,10.22227 -0.54492,16.82227 -0.46152,11.38051 -1.36274,100.65509 -1.80664,179 -0.13416,23.67846 -0.57712,36.68453 -1.29297,38 -2.14658,3.94462 -6.77797,9.49995 -7.92187,9.50195 -0.64128,10e-4 -2.74102,2.35429 -4.66602,5.23047 -1.925,2.87618 -6.68036,8.38779 -10.56641,12.24805 -3.88605,3.86026 -7.48833,7.78109 -8.00586,8.71094 -1.18235,2.12428 -11.51883,13.56226 -17.27343,19.11523 -19.02636,18.35976 -36.1371,36.05607 -47.49805,49.12305 -5.3891,6.19835 -8.19331,7.29494 -7.21289,2.82031 0.69461,-3.17014 1.30401,-27.81847 2.01953,-81.75 0.27728,-20.9 0.78126,-40.59879 1.12109,-43.77539 0.4011,-3.74949 0.21514,-6.26276 -0.53125,-7.16211 -0.7476,-0.9008 -0.8001,-1.60115 -0.14843,-2.00391 0.78458,-0.48489 1.48599,-32.04202 1.1289,-50.80859 -0.0183,-0.9625 -0.043,-2.3125 -0.0547,-3 -0.0117,-0.6875 0.17665,-8 0.41796,-16.25 0.47881,-16.36953 0.14361,-19.5 -2.08789,-19.5 -0.81121,0 -1.27945,-0.5625 -1.03906,-1.25 0.24039,-0.6875 1.17855,-1.11864 2.08399,-0.95703 1.2238,0.21843 1.64648,-0.46524 1.64648,-2.66602 0,-1.62828 -0.5625,-3.14946 -1.25,-3.38086 -0.93676,-0.31528 -0.96848,-0.77535 -0.12695,-1.83398 0.61761,-0.77694 1.14467,-5.01211 1.17187,-9.41211 0.0272,-4.4 0.35825,-11.9375 0.73438,-16.75 0.47978,-6.13867 0.35221,-8.75 -0.42383,-8.75 -0.60839,0 -1.10547,0.9 -1.10547,2 0,1.1 -0.47988,2 -1.06641,2 -0.58653,0 -0.92403,-1.2375 -0.75,-2.75 0.21246,-1.8465 0.83438,-2.66701 1.89453,-2.49609 1.31438,0.21189 1.59509,-1.00588 1.67579,-7.27539 0.0754,-5.85638 -0.20395,-7.47111 -1.26172,-7.25586 -0.74818,0.15225 -1.38968,-0.0602 -1.42578,-0.47266 -0.19391,-2.21772 0.0597,-2.75 1.31445,-2.75 1.12809,0 1.50925,-5.44936 2.08203,-29.75 0.38567,-16.3625 0.63248,-38.975 0.54688,-50.25 -0.18911,-24.89983 0.87366,-84.972744 1.53711,-86.865234 0.0847,-0.241759 0.27579,-0.318751 0.54687,-0.263672 z M 393.91406,43.273438 C 394.96621,43.256511 396,44.013467 396,45.058594 c 0,1.162753 -1.07233,1.181873 -2.85742,0.05078 -0.94581,-0.599292 -1.02153,-1.066137 -0.25,-1.542969 0.3171,-0.195982 0.67077,-0.287327 1.02148,-0.292968 z M 226,53 c 1.1,0 2,0.45 2,1 0,0.55 -0.9,1 -2,1 -1.1,0 -2,-0.45 -2,-1 0,-0.55 0.9,-1 2,-1 z m 188.94141,105 c 0.51754,0 1.21867,0.45 1.55859,1 0.33992,0.55 -0.084,1 -0.94141,1 C 414.70113,160 414,159.55 414,159 c 0,-0.55 0.42387,-1 0.94141,-1 z M 238,165 c 0.55,0 1,0.45 1,1 0,0.55 -0.45,1 -1,1 -0.55,0 -1,-0.45 -1,-1 0,-0.55 0.45,-1 1,-1 z m 336,23 c 0.55,0 1,0.675 1,1.5 0,0.825 -0.45,1.5 -1,1.5 -0.55,0 -1,-0.675 -1,-1.5 0,-0.825 0.45,-1.5 1,-1.5 z m -473.15039,1.07031 c 0.28007,-0.0613 0.54155,-0.0131 0.74023,0.18555 0.25135,0.25135 0.17297,1.19784 -0.17382,2.10156 C 100.63835,193.384 99,193.52011 99,191.55859 c 0,-1.12587 1.00939,-2.30436 1.84961,-2.48828 z M 724.97852,211 c 0.38682,0 2.07304,2.8125 3.74609,6.25 3.07419,6.31633 5.16371,13.29162 7.26562,24.25 0.63297,3.3 1.56882,7.62642 2.08008,9.61523 2.03231,7.90562 0.93781,31.24323 -2.17578,46.38477 -0.56549,2.75 -1.43989,7.45791 -1.94336,10.46289 -0.50346,3.00498 -2.80631,9.19248 -5.11719,13.75 -2.31087,4.55752 -4.58051,8.28711 -5.04296,8.28711 -2.08998,0 -2.51777,-6.3553 -2.18555,-32.5 0.88009,-69.26052 1.55293,-86.5 3.37305,-86.5 z m -470.22266,1.41797 c 0.27779,0.0656 0.53042,0.23561 0.69141,0.49609 0.32198,0.52097 0.15964,1.21124 -0.36133,1.53321 -0.52097,0.32198 -1.21124,0.15964 -1.53321,-0.36133 -0.32198,-0.52097 -0.15964,-1.21124 0.36133,-1.53321 0.26049,-0.16099 0.56401,-0.20034 0.8418,-0.13476 z M 66.058594,219 c 0.582459,0 0.781325,0.45 0.441406,1 -0.339919,0.55 -0.816053,1 -1.058594,1 C 65.198865,221 65,220.55 65,220 c 0,-0.55 0.476135,-1 1.058594,-1 z m 33.787109,10.2168 c 0.860627,-0.28658 1.220997,0.19591 0.999997,1.33593 -0.19002,0.98026 -0.951377,1.98405 -1.691403,2.23047 -0.860627,0.28658 -1.220995,-0.19591 -1,-1.33593 0.190026,-0.98026 0.95138,-1.98405 1.691406,-2.23047 z M 572.55859,253 c 0.24254,0 0.44141,0.45 0.44141,1 0,0.55 -0.47613,1 -1.05859,1 -0.58246,0 -0.78133,-0.45 -0.44141,-1 0.33992,-0.55 0.81605,-1 1.05859,-1 z M 390,291 c 0.55,0 1,0.675 1,1.5 0,0.825 -0.45,1.5 -1,1.5 -0.55,0 -1,-0.675 -1,-1.5 0,-0.825 0.45,-1.5 1,-1.5 z M 72.105469,351.65234 c 0.61666,0.33864 1.030623,1.4002 0.738281,2.90821 -0.37342,1.92625 -2.370366,3.03617 -3.134766,1.74218 -0.260825,-0.44154 -0.06274,-1.89191 0.439454,-3.22265 0.521583,-1.38213 1.34037,-1.76637 1.957031,-1.42774 z m 493.888671,47.40625 c 0.50206,-0.24428 1.01962,0.40835 1.07422,2.19141 0.0379,1.2375 0.23104,3.48057 0.42969,4.98438 0.19866,1.50378 -0.006,2.96077 -0.45508,3.23828 -1.01547,0.6276 -2.0112,-2.91779 -2.0293,-7.22266 -0.008,-1.80594 0.47841,-2.94712 0.98047,-3.19141 z M 648,420.5 c 0.55,0.33992 1,1.26605 1,2.05859 0,0.79254 -0.45,1.44141 -1,1.44141 -0.55,0 -1,-0.92613 -1,-2.05859 0,-1.13246 0.45,-1.78133 1,-1.44141 z M 69.564453,474 c 2.871633,0 3.515456,0.34697 3.248047,1.75 -0.480005,2.51847 -4.072536,2.69962 -5.570312,0.28125 C 66.066277,474.13258 66.217641,474 69.564453,474 Z m 1.351563,12.12305 c 0.347396,0.0143 0.646354,0.10729 0.8125,0.27343 0.332291,0.33229 -0.258334,0.56879 -1.3125,0.5254 -1.164943,-0.048 -1.401249,-0.28625 -0.603516,-0.60547 0.360937,-0.14446 0.75612,-0.20767 1.103516,-0.19336 z M 226.5,496 c 0.825,0 1.5,0.45 1.5,1 0,0.55 -0.675,1 -1.5,1 -0.825,0 -1.5,-0.45 -1.5,-1 0,-0.55 0.675,-1 1.5,-1 z" />
    <rect
       style="fill:#000000"
       id="rect2"
       width="48.251572"
       height="482.51572"
       x="208.86038"
       y="37.222641" />
    <rect
       style="fill:#000000"
       id="rect3"
       width="45.494339"
       height="479.75848"
       x="371.53711"
       y="31.018867" />
    <rect
       style="fill:#000000"
       id="rect4"
       width="39.290565"
       height="471.48679"
       x="530.76727"
       y="40.669182" />
    <rect
       style="fill:#000000"
       id="rect5"
       width="12.407547"
       height="15.854088"
       x="55.833961"
       y="19.989937" />
  </g>
</svg>
