<?xml version="1.0" encoding="UTF-8" standalone="no"?>
<!-- Created with Inkscape (http://www.inkscape.org/) -->

<svg
   version="1.1"
   id="svg1"
   width="1998"
   height="1587"
   viewBox="0 0 1998 1587"
   sodipodi:docname="matrix.svg"
   inkscape:version="1.4 (86a8ad7, 2024-10-11)"
   xmlns:inkscape="http://www.inkscape.org/namespaces/inkscape"
   xmlns:sodipodi="http://sodipodi.sourceforge.net/DTD/sodipodi-0.dtd"
   xmlns="http://www.w3.org/2000/svg"
   xmlns:svg="http://www.w3.org/2000/svg">
  <defs
     id="defs1" />
  <sodipodi:namedview
     id="namedview1"
     pagecolor="#ffffff"
     bordercolor="#000000"
     borderopacity="0.25"
     inkscape:showpageshadow="2"
     inkscape:pageopacity="0.0"
     inkscape:pagecheckerboard="0"
     inkscape:deskcolor="#d1d1d1"
     inkscape:zoom="0.50094518"
     inkscape:cx="998.11321"
     inkscape:cy="793.5"
     inkscape:window-width="1920"
     inkscape:window-height="1013"
     inkscape:window-x="2391"
     inkscape:window-y="605"
     inkscape:window-maximized="1"
     inkscape:current-layer="g1" />
  <g
     inkscape:groupmode="layer"
     inkscape:label="Image"
     id="g1">
    <path
       id="path1"
       style="fill:#000000"
       d="M 56.441406,65.419922 C 53.527921,66.273449 53.611384,71.64848 53.355469,95.662109 53.186443,111.52248 52.842764,134.625 52.589844,147 c -0.252919,12.375 -0.73701,42.75 -1.074219,67.5 -0.818772,60.09521 -1.287407,86.20399 -2.076172,115.5 -0.362801,13.475 -0.630553,25.625 -0.595703,27 0.316368,12.48272 0.07174,70.90438 -0.384766,92 -1.289406,59.58411 -1.834201,98.10579 -1.535156,108.5 0.542445,18.85433 0.490128,30.41913 -0.378906,84 -0.463867,28.6 -0.817356,55.825 -0.785156,60.5 0.0322,4.675 0.09255,12.775 0.134765,18 0.1183,14.63873 -0.961779,113.60795 -1.326172,121.5 -0.285972,6.19362 -0.523214,65.54504 -0.583984,146 -0.01122,14.85 -0.250861,42.075 -0.53125,60.5 -0.28039,18.425 -0.500431,34.175 -0.488281,35 0.06458,4.3868 -0.907373,132.0621 -1.046875,137.5 -0.07055,2.75 0.0036,6.8 0.166015,9 0.162373,2.2 -0.02142,7.375 -0.408203,11.5 -0.783064,8.3513 -1.786215,111.7361 -1.513672,156 0.09651,15.675 0.180647,30.3 0.185547,32.5 0.0049,2.2 -0.316989,21.0108 -0.714844,41.8027 -0.527146,27.5489 -0.412111,38.6705 0.423829,41 0.151145,0.4212 0.04594,2.3569 0.126953,3.1309 3.691065,-0.9379 7.43279,-1.6621 11.205078,-2.2539 2.258852,-0.3683 4.565689,-0.5551 6.865234,-0.5215 4.763594,0.07 9.492052,1.1006 13.712891,3.4063 L 74.5,1515.9766 c 8.25,-0.2876 18.15,-0.2267 22,0.1347 3.85,0.3617 48.625,0.486 99.5,0.2774 50.875,-0.2081 93.4,-0.3439 94.5,-0.2989 1.1,0.045 31.925,-0.054 68.5,-0.2207 59.01914,-0.2693 78.64888,-0.2766 85.5,-0.027 2.29488,0.083 6.26443,0.1851 13.75,0.3555 2.8875,0.065 10.65,0.075 17.25,0.019 6.6,-0.055 13.35,-0.046 15,0.022 1.65,0.068 29.325,-0.2055 61.5,-0.6074 46.31332,-0.5784 106.31723,-0.797 144,-0.5254 1.925,0.014 5.1875,-0.2791 7.25,-0.6504 2.59243,-0.4668 3.75,-0.3121 3.75,0.5019 0,0.8231 1.53075,1.0071 5.08398,0.6114 4.47397,-0.4981 8.39795,-0.5519 22.91602,-0.3184 1.925,0.031 23.075,-0.2535 47,-0.6309 75.8378,-1.1962 138.68291,-1.8566 200.5,-2.1093 52.7151,-0.2156 88.0311,-0.5883 158.5,-1.668 10.175,-0.1558 29.3588,-0.1226 42.6309,0.07 13.2722,0.1938 24.5967,0.065 25.164,-0.2851 0.5673,-0.3509 2.7567,-0.3338 4.8672,0.039 3.5309,0.6237 18.141,0.9325 22.8379,0.4824 1.1,-0.1054 24.725,0.069 52.5,0.3868 43.5481,0.4983 57.8568,0.5503 73.5,0.2734 1.65,-0.029 7.5,0.039 13,0.1504 5.5,0.112 10.675,0.1432 11.5,0.07 1.3982,-0.1228 18.0042,0.1182 99.5,1.4453 17.6,0.2866 50.9398,0.6752 74.0879,0.8633 23.1481,0.1881 42.6106,0.6653 43.25,1.0605 0.6394,0.3952 1.627,0.4316 2.1953,0.08 1.1894,-0.7351 31.7851,-0.587 55.9668,0.2715 9.075,0.3222 19.5375,0.5242 23.25,0.4492 3.7125,-0.075 8.6625,-0.1328 11,-0.1328 2.3375,0 8.75,-0.054 14.25,-0.123 26.7129,-0.3351 59.2116,-0.6776 61,-0.6426 23.423,0.46 60.8604,0.17 66.832,-0.5176 6.1369,-0.7071 27.0303,-1.0824 37.668,-0.6777 0.825,0.032 10.1668,-6e-4 20.7598,-0.068 10.5931,-0.069 20.0061,0.2924 20.9179,0.8027 2.8584,1.5996 22.4477,0.147 25.3379,-1.8789 1.4129,-0.9904 3.9522,-1.2073 9.0684,-1.0117 -0.5208,-2.0296 -1.0166,-4.0653 -1.4629,-6.1113 -0.061,-0.2794 -0.099,-0.5419 -0.1504,-0.8145 l -5.4023,-0.3984 0.3789,-25.0625 c 0.2081,-13.7847 0.6432,-63.7625 0.9687,-111.0625 0.3254,-47.3 0.8707,-97.925 1.211,-112.5 0.3403,-14.575 0.7476,-36.625 0.9042,-49 0.1568,-12.375 0.5996,-37.35 0.9844,-55.5 0.3849,-18.15 0.7267,-56.8322 0.7617,-85.959 l 0.064,-52.957 -14.6641,-0.041 c -9.0745,-0.026 -14.6599,-0.4241 -14.6699,-1.043 -0.01,-0.6153 5.6657,-1.0555 14.7422,-1.1445 8.1126,-0.08 14.975,-0.194 15.25,-0.252 0.275,-0.058 0.5832,-25.4164 0.6855,-56.3535 0.1024,-30.93709 0.4164,-85.275 0.6973,-120.75 1.1808,-149.16005 1.2758,-232.51168 0.2656,-233.82617 -0.7126,-0.92728 -0.6386,-1.56066 0.2461,-2.10742 0.9597,-0.59312 1.3607,-8.00171 1.666,-30.67383 0.2213,-16.44049 0.6211,-42.71758 0.8868,-58.39258 0.2658,-15.675 0.1609,-31.6475 -0.2325,-35.49414 -0.393,-3.84664 -0.4145,-15.32164 -0.049,-25.5 2.0989,-58.33434 2.3451,-75.71785 4.2754,-301.00586 0.2851,-33.275 0.9159,-62.128196 1.4024,-64.117188 0.9175,-3.752921 0.024,-6.670378 -2.5059,-8.18164 -0.7363,-0.43983 -1.3891,-1.78983 -1.4531,-3 -0.089,-1.692038 -0.2226,-1.796922 -0.5743,-0.451172 -0.4627,1.770464 -2.1298,1.924392 -23.8105,2.199219 -2.2,0.02789 -4.5524,0.409722 -5.2285,0.847656 -0.6762,0.437935 -2.1061,0.326394 -3.1758,-0.246094 -2.4069,-1.28812 1.5727,-1.252172 -60.5957,-0.53125 -40.8066,0.473205 -106.1785,1.076421 -142.5,1.314453 -1.925,0.01261 -6.7838,-0.208603 -10.7969,-0.490234 -4.8088,-0.337478 -7.776,-0.112881 -8.7051,0.658203 -0.7942,0.659147 -1.9761,0.816923 -2.705,0.361328 -0.9627,-0.601717 -96.6606,-1.735865 -105.793,-1.253906 -0.825,0.04354 -3.975,-0.02941 -7,-0.162109 -3.025,-0.132697 -22.15,-0.29001 -42.5,-0.34961 -20.35,-0.0596 -37.5524,-0.465656 -38.2285,-0.90039 -0.6762,-0.434732 -2.0262,-0.401637 -3,0.07227 -0.9739,0.473887 -4.9215,0.68065 -8.7715,0.460938 -3.85,-0.219713 -9.7,-0.291488 -13,-0.160157 -7.0907,0.28219 -20.8237,0.11906 -32,-0.380859 -4.4,-0.196813 -8.3886,-0.149321 -8.8633,0.105469 -1.2531,0.672592 -288.5428,0.381338 -298.6367,-0.302734 -7.3512,-0.498199 -163.16829,-1.644528 -176,-1.294922 -1.375,0.03746 -9.7,-0.03509 -18.5,-0.160157 -8.8,-0.12507 -70.225,0.04353 -136.5,0.375 -154.94276,0.774926 -265.2215,0.746339 -335.5,-0.08789 -30.8,-0.365605 -58.925,-0.500612 -62.5,-0.300781 -8.006,0.447502 -2.8083,0.475817 -68,-0.365235 -29.975,-0.386714 -59.675,-1.101702 -66,-1.587891 -11.39551,-0.875945 -27.42462,-0.655499 -33.81836,0.464844 -1.825,0.319785 -6.68692,0.0695 -10.80469,-0.554687 -5.4417,-0.824872 -7.84869,-0.833409 -8.81054,-0.03516 -0.95618,0.793562 -2.11673,0.796794 -4.18164,0.01172 -1.73624,-0.66012 -10.12314,-1.033662 -21.3711,-0.951172 -26.92178,0.19744 -133.810669,-0.925466 -138.535154,-1.455078 -1.761064,-0.197414 -3.065948,-0.415368 -4.03711,-0.130859 z m 1745.574194,0.08984 c -0.559,-0.345463 -1.0156,0.07418 -1.0156,0.93164 0,1.756526 0.5998,2.013997 1.457,0.626953 0.3164,-0.511996 0.1176,-1.213129 -0.4414,-1.558593 z M 134.5,74.101562 c 4.95,0.0035 15.3,0.152883 23,0.330079 7.7,0.177197 47.3,0.615845 88,0.976562 75.12355,0.665807 136.18358,1.370407 138,1.591797 0.55,0.06704 30.7,0.09412 67,0.06055 36.3,-0.03357 74.31965,0.123438 84.48828,0.347656 10.53492,0.232295 19.24623,0.002 20.25,-0.535156 1.16254,-0.62218 1.76172,-0.585942 1.76172,0.107422 0,0.727052 23.39117,0.977016 75.94531,0.8125 41.76941,-0.130759 76.18862,0.007 76.48828,0.30664 0.29965,0.299653 3.36126,0.212841 6.80469,-0.193359 3.44344,-0.4062 22.91172,-0.737283 43.26172,-0.736328 20.35,9.56e-4 60.175,-0.340559 88.5,-0.757813 28.325,-0.417254 52.625,-0.703318 54,-0.636718 1.375,0.06661 6.325,0.0924 11,0.05859 9.65155,-0.0698 8.72665,-0.08681 19.83398,0.365235 4.58334,0.18655 8.56482,-0.03724 8.84961,-0.498047 0.28479,-0.460803 1.2611,-0.521647 2.16797,-0.136719 0.90687,0.384929 27.29844,0.848053 58.64844,1.029297 31.35,0.181244 57.9857,0.572753 59.1895,0.871094 1.2038,0.298342 2.4789,0.07244 2.8339,-0.501953 0.355,-0.574387 1.395,-0.806823 2.3125,-0.515625 0.9174,0.291198 17.4174,0.743521 36.6661,1.003906 19.2487,0.260384 38.598,0.739715 42.998,1.064453 4.4,0.324738 8.5625,0.555712 9.25,0.513672 2.8855,-0.176456 7.1801,-0.194217 59.25,-0.248047 51.8566,-0.05361 62.451,-0.01509 68.75,0.257812 1.5125,0.06553 7.25,-0.158744 12.75,-0.5 18.317,-1.136503 21.8832,-1.318815 40.5176,-2.064453 16.4854,-0.659648 18.6645,-0.561363 19.8711,0.892579 0.7455,0.898217 2.4267,1.632812 3.7343,1.632812 2.4111,0 3.425,1.903176 1.127,2.115234 -2.6748,0.246833 -3.3162,0.431438 -5.25,1.50586 -1.2539,0.696664 -13.0055,1.364178 -31.5,1.791015 -55.2165,1.274347 -68.3689,1.69729 -69.2285,2.228516 -0.4723,0.291916 -1.9416,-0.176675 -3.2637,-1.042969 -1.3222,-0.866294 -2.6433,-1.18765 -2.9355,-0.714844 -0.7158,1.158271 -9.0377,2.181391 -20.5723,2.529297 -29.3504,0.885264 -50.4498,1.797476 -66,2.853516 -9.625,0.653651 -20.425,1.080177 -24,0.949219 -3.575,-0.130958 -11.8256,0.247009 -18.334,0.839844 -6.5084,0.592836 -18.2084,1.268412 -26,1.501953 -7.7916,0.233541 -17.091,0.65864 -20.666,0.943359 -3.575,0.28472 -14.825,0.74422 -25,1.021484 -10.175,0.277264 -26.375,0.950355 -36,1.496094 -24.20758,1.372575 -35.30934,1.927546 -51,2.544922 -7.425,0.29215 -17.74033,0.93867 -22.92188,1.4375 -5.18151,0.49883 -9.82296,0.65728 -10.31445,0.35352 -0.4915,-0.30376 -6.15115,-0.0749 -12.57812,0.50781 -6.42696,0.58271 -17.98555,1.30183 -25.68555,1.59765 -7.7,0.29581 -23.225,1.02244 -34.5,1.61524 -11.275,0.59279 -22.975,1.06197 -26,1.04297 -3.025,-0.019 -9.1,0.38794 -13.5,0.90234 -4.4,0.5144 -17.9,1.41437 -30,2 -31.24763,1.51235 -36.51642,1.82809 -50,3.00586 -6.6,0.5765 -12.5625,1.03202 -13.25,1.01172 -2.5722,-0.076 -6.69666,0.12243 -60.25,2.89453 -22.275,1.15303 -50.625,2.56717 -63,3.14258 -12.375,0.57541 -25.425,1.24539 -29,1.48828 -3.575,0.24289 -11.225,0.56562 -17,0.71875 -5.775,0.15314 -10.95,0.55744 -11.5,0.89844 -0.55,0.34104 -4.02999,0.305 -7.73242,-0.0801 -3.70242,-0.38502 -7.39297,-0.32924 -8.20117,0.12305 -0.8082,0.45229 -7.45321,0.99858 -14.76758,1.21484 -7.31438,0.21625 -13.97383,0.63537 -14.79883,0.93164 -0.825,0.29628 -12.075,0.79295 -25,1.10352 -12.925,0.31056 -27.06031,0.95437 -31.41211,1.42968 -4.35181,0.4753 -9.61863,0.63506 -11.70312,0.35547 -2.08448,-0.27959 -4.59918,-0.15698 -5.58789,0.27344 -0.98873,0.43042 -10.79688,0.89273 -21.79688,1.02734 -11,0.13461 -22.25,0.48438 -25,0.77539 -9.17826,0.97124 -23.79633,1.66905 -46.5,2.22071 -12.375,0.30069 -26.55,0.73864 -31.5,0.97265 -4.95,0.23401 -21.825,0.87993 -37.5,1.43555 -33.45746,1.18595 -61.9295,2.66724 -78,4.05859 -6.325,0.54761 -22.04937,1.44801 -34.94336,2.00196 -12.89398,0.55395 -29.76898,1.42958 -37.5,1.94531 -31.437661,2.09718 -47.987858,1.93206 -50.421874,-0.50195 -0.324343,-0.32435 -0.533531,-10.79848 -0.462891,-23.27735 0.107973,-19.075076 0.374061,-28.278628 1.222656,-42.460934 0.09565,-1.598502 1.199173,-1.746665 11.355469,-1.525391 6.1875,0.1348 19.35,0.175376 29.25,0.08984 23.69446,-0.204682 22.65339,-0.198804 33,-0.191407 z M 1401,94 c 0.55,0 1,0.423865 1,0.941406 0,0.517541 -0.45,1.218675 -1,1.558594 -0.55,0.339919 -1,-0.08395 -1,-0.941406 C 1400,94.701135 1400.45,94 1401,94 Z M 394.00195,95 c -1.04409,0 -2.22153,4.835144 -1.47265,6.04688 0.97813,1.58265 2.20412,1.0793 2.78515,-1.142583 C 395.91898,97.592573 395.22574,95 394.00195,95 Z m 932.96685,10.5293 c 0.5508,0.12734 1.0312,0.50155 1.0312,1.02929 0,0.24254 -0.7012,0.44141 -1.5586,0.44141 -0.8579,0 -1.2771,-0.45665 -0.9316,-1.01562 0.2854,-0.4618 0.9077,-0.58243 1.459,-0.45508 z m 372,0 c 0.5508,0.12734 1.0312,0.50155 1.0312,1.02929 0,0.24254 -0.7012,0.44141 -1.5586,0.44141 -0.8579,0 -1.2771,-0.45665 -0.9316,-1.01562 0.2854,-0.4618 0.9077,-0.58243 1.459,-0.45508 z M 1750.0586,106 c 0.5825,0 0.7813,0.45 0.4414,1 -0.3399,0.55 -0.8161,1 -1.0586,1 -0.2426,0 -0.4414,-0.45 -0.4414,-1 0,-0.55 0.4762,-1 1.0586,-1 z m -44.2461,0.31641 c 0.7219,-0.28891 1.5837,-0.25231 1.916,0.0801 0.3323,0.3323 -0.2584,0.56878 -1.3125,0.5254 -1.165,-0.048 -1.4012,-0.28625 -0.6035,-0.60547 z M 1887.9414,107 c 0.5824,0 1.0586,0.45 1.0586,1 0,0.55 -0.1988,1 -0.4414,1 -0.2425,0 -0.7187,-0.45 -1.0586,-1 -0.3399,-0.55 -0.1411,-1 0.4414,-1 z m -634,2 c 0.5824,0 1.0586,0.45 1.0586,1 0,0.55 -0.1988,1 -0.4414,1 -0.2425,0 -0.7187,-0.45 -1.0586,-1 -0.3399,-0.55 -0.1411,-1 0.4414,-1 z m 648,2 c 0.5824,0 1.0586,0.45 1.0586,1 0,0.55 -0.1988,1 -0.4414,1 -0.2425,0 -0.7187,-0.45 -1.0586,-1 -0.3399,-0.55 -0.1411,-1 0.4414,-1 z m 31.1172,0 c 0.5825,0 0.7813,0.45 0.4414,1 -0.3399,0.55 -0.8161,1 -1.0586,1 -0.2426,0 -0.4414,-0.45 -0.4414,-1 0,-0.55 0.4762,-1 1.0586,-1 z m -495.3086,0.33789 c 0.6875,-0.27741 1.8125,-0.27741 2.5,0 0.6875,0.27741 0.125,0.50391 -1.25,0.50391 -1.375,0 -1.9375,-0.2265 -1.25,-0.50391 z M 1673.0586,113 c 0.5825,0 0.7813,0.45 0.4414,1 -0.3399,0.55 -0.8161,1 -1.0586,1 -0.2426,0 -0.4414,-0.45 -0.4414,-1 0,-0.55 0.4762,-1 1.0586,-1 z m -22.25,0.0996 c 1.9724,-0.0594 3.0598,0.30432 2.6914,0.90039 -0.3399,0.55 -0.7036,0.95519 -0.8086,0.90039 -0.1051,-0.0548 -1.3164,-0.46004 -2.6914,-0.90039 -2.3505,-0.75275 -2.3025,-0.80669 0.8086,-0.90039 z M 1417.5586,114 c 0.2426,0 0.4414,0.45 0.4414,1 0,0.55 -0.4762,1 -1.0586,1 -0.5825,0 -0.7813,-0.45 -0.4414,-1 0.3399,-0.55 0.8161,-1 1.0586,-1 z m 219.5762,3.03125 c 1.1412,-0.0565 3.9638,4.99911 3.3476,5.99609 -0.7862,1.27212 -6.1876,1.25903 -6.9765,-0.0176 -0.6039,-0.97709 2.3947,-5.91742 3.6289,-5.97852 z m -970.53128,6.24023 c 0.33229,0.3323 0.41519,1.1724 0.18359,1.86719 -0.33872,1.01621 -0.57505,1.01582 -1.20508,-0.004 -0.83403,-1.34949 0.005,-2.8798 1.02149,-1.86329 z m 281.73046,2.0625 C 949.0503,124.61767 951,125.87873 951,127.05859 951,127.57613 950.57613,128 950.05859,128 c -1.17986,0 -2.44092,-1.9497 -1.72461,-2.66602 z M 1532,131 c 0.55,0 1,0.45 1,1 0,0.55 -0.45,1 -1,1 -0.55,0 -1,-0.45 -1,-1 0,-0.55 0.45,-1 1,-1 z m 359.5312,0 c 0.808,0 1.4688,0.42387 1.4688,0.94141 0,1.67643 -1.773,2.09099 -2.3633,0.55273 -0.3483,-0.90766 0,-1.49414 0.8945,-1.49414 z M 62.214844,153.24609 c 1.772279,-0.11259 4.608533,-0.0387 9.03125,0.18946 6.189469,0.31928 15.528906,0.79965 20.753906,1.0664 5.225,0.26675 16.25,0.73175 24.5,1.03321 8.25,0.30145 17.7,0.9624 21,1.4707 3.3,0.50831 13.65,1.38459 23,1.94726 9.35,0.56273 20.6,1.27264 25,1.57618 19.77619,1.36428 41.58432,2.43322 60.5,2.96679 11.275,0.31804 23.2,1.00853 26.5,1.53516 3.3,0.52662 14.56115,1.40822 25.02539,1.95898 10.46425,0.55076 22.38925,1.42679 26.5,1.94532 4.11076,0.51854 13.32461,0.96554 20.47461,0.99414 7.15,0.0286 13.675,0.0626 14.5,0.0762 2.56808,0.0424 10.42716,1.09759 11.94922,1.60352 0.79746,0.26506 5.97246,0.66942 11.5,0.90039 5.52755,0.23097 13.65078,0.66141 18.05078,0.95507 4.4,0.29366 13.36801,0.78092 19.92773,1.08399 6.55972,0.30307 12.25286,0.7531 12.65235,1 0.39949,0.24689 6.50647,0.68872 13.57226,0.98047 7.0658,0.29175 15.32266,0.95258 18.34766,1.46875 3.025,0.51616 15.85,1.25275 28.5,1.63672 36.16046,1.09757 60.20058,2.53371 78.5,4.6914 4.25542,0.50175 22.88026,1.64421 36.5,2.23828 5.5,0.23991 15.71629,0.68812 22.70312,0.9961 8.54913,0.37685 13.39414,0.18982 14.81446,-0.57032 1.59351,-0.85281 2.46945,-0.83061 3.57617,0.0879 0.80619,0.6691 4.48939,1.32263 8.18555,1.45313 3.69616,0.1305 19.3207,0.95951 34.7207,1.8418 15.4,0.88229 39.925,2.0701 54.5,2.63867 14.575,0.56858 27.1975,1.42035 28.05078,1.89453 0.85327,0.47418 7.59568,0.92154 14.98242,0.99414 7.38674,0.0726 17.26423,0.52345 21.94922,1 4.68498,0.47656 9.41758,0.87918 10.51758,0.89649 1.1,0.0173 3.86462,0.26116 6.14258,0.54101 2.27795,0.27985 13.52795,0.8036 25,1.16406 22.1439,0.69577 30.00954,1.1683 31.15234,1.86914 0.66254,0.40631 27.90543,1.72839 42.20508,2.04883 3.575,0.0801 6.9596,0.43201 7.52148,0.78125 0.56189,0.34924 4.83689,0.66904 9.5,0.71094 7.43588,0.0668 17.6457,0.65187 44.47852,2.54883 30.9846,2.19047 40.6196,2.75984 52.4551,3.09961 18.8965,0.54248 22.4143,0.45763 23.4472,-0.56836 0.5333,-0.52975 1.8553,-0.14809 3.2305,0.93359 1.9132,1.50493 4.9557,1.94665 17.0977,2.48047 33.7386,1.48332 37.8856,1.70771 40.375,2.1875 1.4334,0.27625 5.7084,0.68169 9.5,0.90039 6.7791,0.39101 22.0685,1.31969 31.8945,1.9375 2.75,0.17291 8.825,0.59476 13.5,0.9375 16.6061,1.21746 26.6476,1.77612 38,2.11524 10.343,0.30894 47.9566,2.34075 55.5,2.99804 1.65,0.14377 9.975,0.55887 18.5,0.92188 8.525,0.36301 18.875,1.11427 23,1.66992 7.4732,1.00668 36.7127,3.24995 63.7051,4.88867 7.8126,0.47431 14.6377,1.13129 15.1679,1.45899 0.5302,0.32767 11.0128,0.62731 23.295,0.66601 12.2821,0.0387 25.707,0.46632 29.832,0.95117 4.125,0.48486 14.925,1.10955 24,1.38672 9.075,0.27717 22.125,0.98224 29,1.56641 6.875,0.58417 23.525,1.47861 37,1.98828 13.475,0.50967 26.975,1.12819 30,1.375 6.1794,0.50416 34.5537,1.90282 43.0371,2.12109 3.0453,0.0784 5.9942,0.4251 6.5547,0.77149 0.5605,0.34639 5.0455,0.92354 9.9648,1.2832 4.9192,0.35966 10.9317,1.01975 13.3614,1.46484 2.7358,0.50115 5.2946,0.40955 6.7207,-0.24023 1.6124,-0.73468 2.686,-0.73301 3.582,0.01 0.7649,0.63356 10.33,1.30497 23.7793,1.66993 12.375,0.33581 27.45,1.0313 33.5,1.54492 6.05,0.51362 17.75,1.23222 26,1.59765 8.25,0.36548 16.8,0.80823 19,0.98243 2.2,0.17419 11.425,0.58304 20.5,0.91015 9.075,0.3271 20.1,1.00128 24.5,1.49805 4.4,0.49676 9.8,0.85141 12,0.78711 2.2,-0.0643 10.075,-5e-4 17.5,0.14062 8.3784,0.15924 17.644,-0.34213 24.4238,-1.32031 19.041,-2.74723 27.5762,-1.51112 27.5762,3.9961 0,1.7355 0.5533,2.42773 1.9414,2.42773 1.9039,0 3.7106,1.68205 2.793,2.59961 -0.2561,0.25611 -9.1881,0.68757 -19.8496,0.95898 -10.6615,0.27141 -22.0848,0.67476 -25.3848,0.89649 -3.3,0.22173 -14.325,0.67749 -24.5,1.01367 -10.175,0.33618 -19.625,0.85783 -21,1.16016 -1.375,0.30232 -8.9038,0.48856 -16.7305,0.41406 -7.8266,-0.0745 -15.0424,0.30072 -16.0351,0.83203 -0.9928,0.53132 -11.239,1.24181 -22.7696,1.58008 -11.5306,0.33828 -23.4398,0.79243 -26.4648,1.00781 -3.025,0.21538 -12.475,0.69089 -21,1.05664 -24.2477,1.04031 -28.5023,1.26944 -44.5,2.40625 -17.5898,1.24994 -27.0794,1.78265 -45.5,2.55274 -7.425,0.31042 -16.425,0.97761 -20,1.48242 -3.575,0.5048 -15.5,1.18695 -26.5,1.51562 -20.4368,0.61064 -26.9387,0.95092 -41,2.15235 -4.4,0.37595 -10.025,0.76327 -12.5,0.85937 -2.475,0.0962 -11.025,0.49165 -19,0.87891 -7.975,0.38726 -18.775,0.89965 -24,1.13867 -5.225,0.23902 -13.325,0.66397 -18,0.94531 -4.675,0.28134 -16.15,0.76691 -25.5,1.07813 -9.35,0.31123 -21.275,0.93628 -26.5,1.38867 -5.225,0.45239 -10.1047,0.59064 -10.8438,0.30859 -0.7388,-0.28205 -4.3387,-0.0142 -8,0.59375 -5.7363,0.95259 -30.1819,2.11288 -77.6562,3.6875 -6.6,0.21891 -16.95,0.6554 -23,0.97071 -6.05,0.31531 -18.2,0.78468 -27,1.04296 -25.435,0.74652 -41.8595,1.58345 -42.8242,2.17969 -0.4907,0.30329 -12.6553,0.92999 -27.0332,1.39453 -14.3779,0.46454 -30.1926,1.09602 -35.1426,1.40235 -4.95,0.30632 -12.15,0.75026 -16,0.98633 -3.85,0.23601 -13.525,0.67363 -21.5,0.97265 -7.975,0.29902 -17.8221,0.81204 -21.8828,1.14063 -8.8673,0.71755 -29.3844,1.46765 -41.1172,1.50195 -4.675,0.0137 -13.225,0.44602 -19,0.96094 -14.942,1.3323 -82.80978,4.91758 -93.31641,4.92968 -4.84866,0.006 -9.69432,0.48122 -10.76953,1.05665 -1.07521,0.57544 -2.45775,0.73525 -3.07226,0.35546 -1.53968,-0.95157 -27.08625,-0.0995 -34.8418,1.16211 -1.925,0.31315 -10.7,0.80011 -19.5,1.08203 -8.8,0.28192 -21.85,0.88467 -29,1.33985 -7.15,0.45518 -21.55,1.31788 -32,1.91601 -22.89674,1.31056 -30.71638,1.84787 -36,2.48047 -2.2,0.2634 -11.875,0.76903 -21.5,1.12305 -9.625,0.35401 -20.425,0.85685 -24,1.11719 -3.575,0.26034 -7.175,0.5003 -8,0.5332 -0.825,0.0329 -8.7,0.43923 -17.5,0.90234 -8.8,0.46312 -24.325,1.10962 -34.5,1.4375 -10.175,0.32788 -20.075,1.00796 -22,1.50977 -1.925,0.50182 -6.2,0.90544 -9.5,0.89844 -3.3,-0.007 -10.5,0.40392 -16,0.91406 -5.5,0.51017 -10.56978,0.7084 -11.26562,0.44141 -0.69588,-0.267 -4.79888,0.0324 -9.11915,0.66406 -4.32026,0.6317 -15.45245,1.34383 -24.73632,1.58398 -9.28388,0.24015 -22.05391,0.74716 -28.37891,1.12696 -6.325,0.3798 -13.525,0.77268 -16,0.87304 -4.0824,0.16553 -12.96191,0.796 -28,1.98828 -3.025,0.23983 -12.925,0.68417 -22,0.98633 -9.075,0.30217 -18.75,0.76418 -21.5,1.02735 -2.75,0.26317 -14,0.71555 -25,1.00585 -19.60532,0.51743 -29.21055,1.19415 -30.79297,2.16797 -0.4366,0.26868 -1.3366,0.0404 -2,-0.50781 -1.1038,-0.91211 -13.39785,-1.39333 -14.81641,-0.58008 -0.33508,0.19212 -7.77373,0.59371 -16.53124,0.89258 -8.75752,0.29887 -17.03323,0.76594 -18.39063,1.03906 -2.7078,0.54485 -19.58902,1.27925 -68.38477,2.97266 -9.30343,0.32286 -17.17843,0.73924 -17.5,0.92578 -0.32158,0.18653 -12.95898,0.62 -28.08398,0.96289 -33.32666,0.75554 -47.11148,1.54951 -48.68555,2.80469 -0.74663,0.5954 -1.85814,0.58889 -3,-0.0176 -1.02126,-0.5424 -7.71374,-0.78796 -15.31445,-0.56055 -7.425,0.22215 -16.65,0.41514 -20.5,0.42774 -3.85,0.0126 -14.33255,0.57208 -23.29492,1.24414 -9.404,0.70517 -16.668984,0.85055 -17.177736,0.3418 -0.48486,-0.48486 -2.152309,-0.55603 -3.705078,-0.15821 -1.552769,0.39781 -5.297266,0.82342 -8.322266,0.94727 -3.025,0.12385 -9.343025,0.47772 -14.039062,0.78515 -7.357403,0.48168 -8.854494,0.30053 -10.832032,-1.30078 -2.269036,-1.83736 -2.290162,-2.04773 -1.771484,-18.63086 C 55.64595,323.04591 56.13266,311.9 56.4375,307.5 c 1.156887,-16.6983 1.320174,-93.34388 0.201172,-94.46289 -0.783831,-0.78383 -0.704259,-1.70359 0.287109,-3.29102 1.045022,-1.67335 1.477878,-8.46069 1.796875,-28.22461 0.231001,-14.31202 0.609743,-26.6164 0.84375,-27.34375 0.167211,-0.51973 0.876158,-0.81905 2.648438,-0.93164 z M 614,165 c 0.55,0 1,0.675 1,1.5 0,0.825 -0.45,1.5 -1,1.5 -0.55,0 -1,-0.675 -1,-1.5 0,-0.825 0.45,-1.5 1,-1.5 z m 450,38 c 1.1,0 2,0.64887 2,1.44141 0,2.01879 -1.4613,2.69686 -2.8398,1.31836 C 1061.4353,204.03488 1061.7502,203 1064,203 Z m -708,20 c -0.55,0 -1,0.45 -1,1 0,0.55 0.45,1 1,1 0.55,0 1,-0.45 1,-1 0,-0.55 -0.45,-1 -1,-1 z m 1475.4023,10.67578 c 1.4714,-0.56462 2.5977,0.0812 2.5977,1.49024 0,0.45833 -0.9,0.83398 -2,0.83398 -2.2929,0 -2.6846,-1.52338 -0.5977,-2.32422 z m 26.0997,49.32227 c 0.7313,-1.1833 4.498,0.52251 4.498,2.03711 0,1.27315 -3.7067,1.24538 -4.498,-0.0352 -0.3416,-0.55 -0.3409,-1.45047 0,-2.00195 z M 1880,308.5 c 0.55,-0.33992 1,0.084 1,0.94141 0,0.85746 -0.45,1.55859 -1,1.55859 -0.55,0 -1,-0.42387 -1,-0.94141 0,-0.51754 0.45,-1.21867 1,-1.55859 z m -58,4.5 c 0.55,0 1,0.45 1,1 0,0.55 -0.45,1 -1,1 -0.55,0 -1,-0.45 -1,-1 0,-0.55 0.45,-1 1,-1 z m 14.5,0 c 0.8899,0 1.3399,0.45 1,1 -0.3399,0.55 -0.7899,1 -1,1 -0.2101,0 -0.6601,-0.45 -1,-1 -0.3399,-0.55 0.1101,-1 1,-1 z m -29.75,10.41602 c 0.3392,0.33924 0.1357,1.09874 -0.4531,1.6875 -0.7182,0.71815 -1.2791,0.73582 -1.7012,0.0527 -0.7102,-1.1491 1.2013,-2.69319 2.1543,-1.74023 z M 1796.5586,325 c 0.2426,0 0.4414,0.45 0.4414,1 0,0.55 -0.4762,1 -1.0586,1 -0.5825,0 -0.7813,-0.45 -0.4414,-1 0.3399,-0.55 0.8161,-1 1.0586,-1 z m -188,2 c 0.7926,0 1.4414,0.45 1.4414,1 0,0.55 -0.9262,1 -2.0586,1 -1.1325,0 -1.7813,-0.45 -1.4414,-1 0.3399,-0.55 1.2661,-1 2.0586,-1 z m 12.9414,0 c 0.825,0 1.5,0.45 1.5,1 0,0.55 -0.675,1 -1.5,1 -0.825,0 -1.5,-0.45 -1.5,-1 0,-0.55 0.675,-1 1.5,-1 z m 6.5,0 c 0.55,0 1,0.45 1,1 0,0.55 -0.45,1 -1,1 -0.55,0 -1,-0.45 -1,-1 0,-0.55 0.45,-1 1,-1 z m 16.75,3.41602 c 0.3392,0.33924 0.1357,1.09874 -0.4531,1.6875 -0.7182,0.71815 -1.2791,0.73582 -1.7012,0.0527 -0.7102,-1.1491 1.2013,-2.69319 2.1543,-1.74023 z m -44.6074,0.15429 c 1.1021,0.25462 1.8574,0.76437 1.8574,1.43164 0,0.87607 -4.1367,0.8206 -6.7441,-0.0898 -1.3176,-0.46012 -1.1101,-0.73268 0.9511,-1.25 1.3844,-0.34746 2.8334,-0.34642 3.9356,-0.0918 z m -20.459,4.24219 c 0.2888,0.72187 0.2519,1.58373 -0.08,1.91602 -0.3323,0.33229 -0.5684,-0.25834 -0.5254,-1.3125 0.048,-1.16495 0.2863,-1.40125 0.6055,-0.60352 z M 1656.3027,344 c 0.9755,0 1.2697,0.78244 0.9414,2.5 -0.2629,1.375 -0.5383,2.49235 -0.6113,2.48438 -0.073,-0.008 -0.8078,-0.49273 -1.6328,-1.07618 -1.1348,-0.80257 -1.1945,-1.18501 -0.2441,-1.57031 0.691,-0.2801 1.0023,-0.92081 0.6914,-1.42383 -0.3109,-0.50302 0.074,-0.91406 0.8554,-0.91406 z m -90.2441,2 c 0.5176,0 0.9414,0.45 0.9414,1 0,0.55 -0.7012,1 -1.5586,1 -0.858,0 -1.2813,-0.45 -0.9414,-1 0.3399,-0.55 1.0411,-1 1.5586,-1 z m -55.2461,1.22852 c 0.7307,-0.24358 0.9557,0.21359 0.582,1.1875 -0.3342,0.87096 -1.047,1.58398 -1.584,1.58398 -1.3144,0 -0.4929,-2.2732 1.002,-2.77148 z M 1472,349.5 c 0.55,0.33992 1,0.81605 1,1.05859 0,0.24254 -0.45,0.44141 -1,0.44141 -0.55,0 -1,-0.47613 -1,-1.05859 0,-0.58246 0.45,-0.78133 1,-0.44141 z m 87.7793,4.13672 c 0.5464,-0.33769 1.5509,0.0561 2.2305,0.875 1.3494,1.6259 0.2899,1.96439 -1.8672,0.59766 -0.8241,-0.52223 -0.9667,-1.0997 -0.3633,-1.47266 z m 74.623,0.0391 c 1.4714,-0.56462 2.5977,0.0812 2.5977,1.49024 0,0.45833 -0.9,0.83398 -2,0.83398 -2.2929,0 -2.6846,-1.52338 -0.5977,-2.32422 z m -11.4648,4.51172 c 0.75,-0.25 1.125,0.125 0.875,0.875 -0.2406,0.72187 -1.0281,1.50937 -1.75,1.75 -0.75,0.25 -1.125,-0.125 -0.875,-0.875 0.2406,-0.72188 1.0281,-1.50937 1.75,-1.75 z m -55.2773,0.51172 c 0.7374,0.28296 1.3398,1.14204 1.3398,1.9082 0,0.76615 0.45,1.39258 1,1.39258 0.55,0 1,0.45 1,1 0,0.55 -0.3375,0.93818 -0.75,0.86328 -4.205,-0.76353 -5.165,-1.19971 -5.6992,-2.5918 -0.7051,-1.83731 1.1107,-3.33924 3.1094,-2.57226 z m -53.6192,2.89258 c 0.5094,0.003 0.959,0.45664 0.959,1.35937 0,0.4587 -0.624,1.0745 -1.3867,1.36719 -0.9713,0.37259 -1.2371,-0.0428 -0.8867,-1.38281 0.2356,-0.90112 0.8051,-1.34725 1.3144,-1.34375 z M 60.027344,362.25781 c 0.620107,-0.1498 1.269036,0.0371 2.210937,0.49805 2.384272,1.16673 18.220107,2.41951 28.111328,2.22461 3.217378,-0.0634 8.05984,0.45257 10.759771,1.14453 3.68577,0.94464 5.19343,0.97258 6.05273,0.11328 0.67996,-0.67996 1.79154,-0.81303 2.74023,-0.32617 0.87824,0.4507 9.02266,1.15455 18.09766,1.56445 9.075,0.40989 18.525,0.98609 21,1.2793 2.475,0.29322 9.45,0.63548 15.5,0.75976 12.50434,0.25692 35.83517,1.32531 45.5,2.08399 7.20734,0.56577 20.11491,1.24362 35.89062,1.88477 5.71505,0.23225 14.71509,1.07078 20,1.86328 5.28497,0.79249 12.98438,1.49083 17.10938,1.55273 4.125,0.0618 8.4,0.29014 9.5,0.50781 5.15752,1.02059 13.52765,1.60648 31.5,2.20118 21.10623,0.69839 23.22453,0.83313 27,1.73242 1.375,0.32751 9.68462,0.83704 18.46484,1.13086 24.37778,0.81575 53.2387,2.46646 61.03516,3.49218 3.85,0.50652 13.075,1.22711 20.5,1.59961 7.425,0.3725 16.2,0.8127 19.5,0.97852 7.28726,0.36616 23.30847,1.28743 33.5,1.92773 4.125,0.25916 11.325,0.55505 16,0.65625 4.675,0.1012 8.95,0.51774 9.5,0.92578 0.55,0.40805 8.425,1.06182 17.5,1.45313 9.075,0.39132 18.75,0.81086 21.5,0.93164 2.75,0.12078 6.125,0.5068 7.5,0.85742 1.375,0.35062 14.425,0.85551 29,1.12305 14.575,0.26753 29.65,0.91779 33.5,1.44531 6.621,0.90721 28.39069,2.18458 46,2.69922 4.4,0.1286 11.375,0.51495 15.5,0.85742 4.125,0.34247 14.925,0.86058 24,1.15235 9.075,0.29176 18.075,0.71886 20,0.94921 1.925,0.23036 14.075,0.83134 27,1.33594 12.925,0.50461 24.175,1.17925 25,1.49805 1.59162,0.61505 17.72585,1.48877 40,2.16601 7.425,0.22575 16.425,0.81091 20,1.30079 3.575,0.48988 11.65015,0.98639 17.94531,1.10351 6.29515,0.11713 12.14831,0.58794 13.00586,1.04688 0.85755,0.45895 6.0574,0.8809 11.55469,0.9375 5.49729,0.0566 14.94414,0.57983 20.99414,1.16211 6.05,0.58228 15.275,0.95828 20.5,0.83593 5.225,-0.12234 10.175,0.0392 11,0.35938 1.61366,0.62625 20.37754,1.72941 39,2.29297 6.325,0.19141 17.35,0.62265 24.5,0.95703 7.15,0.33438 16.375,0.74059 20.5,0.9043 4.125,0.1637 15.15,0.83278 24.5,1.48632 9.35,0.65354 20.6,1.33772 25,1.51953 15.4315,0.63761 24.0225,1.24878 26.5,1.88477 1.375,0.35297 9.9788,0.82898 19.1191,1.05859 9.1403,0.22962 17.5024,0.89187 18.584,1.47071 1.1212,0.60004 9.8837,1.15124 20.3828,1.2832 10.1281,0.1273 23.3641,0.79488 29.4141,1.48438 6.05,0.68948 16.7725,1.50594 23.8281,1.8125 7.0556,0.30653 13.1306,0.74334 13.5,0.9707 0.7379,0.45414 46.4491,1.92613 52.3399,1.68554 2.0179,-0.0824 3.9737,0.34347 4.3457,0.94532 0.3917,0.63381 1.8682,0.8308 3.5078,0.4707 1.5569,-0.34195 7.251,-0.0675 12.6543,0.60938 5.4033,0.67684 13.6492,1.29635 18.3242,1.37695 4.675,0.0806 15.025,0.70316 23,1.38281 7.975,0.67965 18.55,1.41846 23.5,1.64063 4.95,0.22218 14.85,0.84638 22,1.38867 17.1381,1.29981 30.2944,2.0976 34,2.0625 1.65,-0.0156 7.05,0.42692 12,0.98242 4.95,0.5555 17.775,1.29552 28.5,1.64453 10.725,0.34901 21.075,0.79594 23,0.99219 3.8923,0.3968 16.3248,1.15824 31.5,1.92969 13.0728,0.66457 45.3602,2.4743 53,2.9707 3.3,0.21442 13.1627,0.66399 21.916,1 8.7534,0.33601 16.3264,0.86643 16.8301,1.17773 0.5037,0.3113 4.591,0.69456 9.084,0.85352 4.4929,0.15895 14.9199,0.58046 23.1699,0.93555 8.25,0.3551 16.29,0.61387 17.8672,0.57617 1.5772,-0.0377 3.3772,0.33851 4,0.83398 0.6228,0.49547 4.2828,0.90516 8.1328,0.91016 13.9643,0.0185 36.8701,1.2992 37.9219,2.12109 0.5925,0.46298 10.2684,0.92418 21.5,1.02539 11.2316,0.10121 20.7094,0.36382 21.0625,0.58203 0.3531,0.21821 4.4378,0.46569 9.0781,0.55079 4.6404,0.0851 12.9375,0.55063 18.4375,1.0332 5.5,0.48257 19.675,1.11765 31.5,1.41211 11.825,0.29447 30.05,1.0106 40.5,1.59179 10.45,0.58122 20.5414,1.03778 22.4258,1.01368 1.8845,-0.0241 3.9257,0.36926 4.5351,0.875 0.6606,0.54833 2.6859,0.56303 5.0176,0.0371 4.2959,-0.96888 5.5215,-0.62359 5.5215,1.55468 0,1.48552 -1.3106,1.60678 -23,2.12891 -4.675,0.11254 -11.425,0.42983 -15,0.70508 -3.575,0.27525 -11.9,0.65962 -18.5,0.85351 -6.6,0.1939 -17.4,0.87262 -24,1.50977 -12.1796,1.17579 -40.9469,2.65755 -74.5,3.83594 -10.175,0.35734 -18.8706,0.86761 -19.3223,1.13281 -0.4517,0.26523 -6.5267,0.4205 -13.5,0.3457 -6.9733,-0.0748 -16.0527,0.29843 -20.1777,0.83008 -4.125,0.53166 -12.675,1.25716 -19,1.61328 -6.325,0.35612 -13.075,0.7867 -15,0.95508 -1.925,0.16839 -13.4,0.63173 -25.5,1.0293 -12.1,0.39757 -27.85,1.0696 -35,1.49414 -7.15,0.42455 -21.1,1.03839 -31,1.36328 -9.9,0.32489 -22.05,0.85573 -27,1.17969 -4.95,0.32396 -15.75,1.01818 -24,1.54296 -8.25,0.52484 -21.3,1.39386 -29,1.93165 -15.233,1.06393 -35.3745,2.14041 -48,2.56445 -4.4,0.14778 -10.475,0.51069 -13.5,0.80859 -3.025,0.2979 -11.8,0.80235 -19.5,1.1211 -7.7,0.31875 -17.375,0.75455 -21.5,0.96679 -14.0555,0.72317 -32.4753,1.52725 -47,2.05274 -27.4029,0.99143 -37.502,1.65269 -38.5566,2.52539 -0.5811,0.48091 -5.7561,0.85688 -11.5,0.83398 -5.7438,-0.0229 -23.7184,0.65708 -39.9434,1.51172 -39.0986,2.05948 -71.7647,3.64867 -86.5,4.20899 -6.6,0.25097 -16.5,0.67817 -22,0.94921 -5.5,0.27104 -14.05,0.48396 -19,0.47266 -4.95,-0.0113 -11.25,0.42927 -14,0.97852 -2.75,0.54925 -16.025,1.50412 -29.5,2.12304 -13.475,0.61891 -26.075,1.23668 -28,1.37305 -1.925,0.13637 -13.625,0.55564 -26,0.93164 -12.375,0.37601 -22.90377,1.08389 -23.39648,1.57227 -0.49271,0.48837 -2.12663,0.64069 -3.63086,0.33984 -1.50423,-0.30084 -7.40046,-0.0501 -13.10352,0.55664 -5.70306,0.60675 -16.66914,1.34788 -24.36914,1.64649 -7.7,0.29858 -16.925,0.72827 -20.5,0.95507 -3.575,0.2268 -11.675,0.68311 -18,1.01367 -6.325,0.33061 -18.025,1.04289 -26,1.58399 -7.975,0.54109 -22.15,1.19176 -31.5,1.44531 -9.35,0.25356 -20.15,0.89338 -24,1.42188 -3.85,0.5285 -14.65,1.20662 -24,1.50781 -9.35,0.30119 -19.25,0.75004 -22,0.99609 -2.75,0.24605 -11.975,0.76067 -20.5,1.14453 -8.525,0.38385 -17.525,0.86436 -20,1.06641 -2.475,0.20206 -8.325,0.54963 -13,0.77344 -4.675,0.2238 -13.45,0.67711 -19.5,1.00781 -6.05,0.3307 -21.125,1.01493 -33.5,1.51953 -12.375,0.5046 -29.76822,1.4084 -38.65234,2.00781 -8.88412,0.59941 -20.58412,1.26725 -26,1.48438 -12.47904,0.5003 -29.39932,1.3321 -40.34766,1.98437 -4.675,0.27853 -14.125,0.75105 -21,1.05079 -6.875,0.29974 -17,0.9724 -22.5,1.49414 -5.5,0.52173 -16.75,1.18475 -25,1.47265 -8.25,0.2879 -16.54712,0.7381 -18.4375,1 -3.2873,0.45543 -15.92276,1.31516 -52.0625,3.54492 -9.075,0.55991 -18.3,0.91674 -20.5,0.79297 -2.2,-0.12377 -17.05,0.33109 -33,1.00977 -15.95,0.67867 -32.825,1.38355 -37.5,1.5664 -4.675,0.18287 -12.55,0.61939 -17.5,0.97071 -21.24695,1.50799 -46.46624,2.70461 -66.5,3.15625 -38.5721,0.86956 -56.45994,1.47461 -58.67969,1.98437 -1.19933,0.27542 -3.39297,0.0412 -4.87304,-0.52148 -1.83252,-0.69646 -3.08341,-0.69766 -3.92188,-0.002 -1.57606,1.30802 -12.16292,1.98898 -36.16406,2.32421 -12.31916,0.17206 -19.62343,0.66855 -20.5,1.39258 -1.38055,1.14031 -9.8756,1.76488 -37.86133,2.78907 -8.525,0.31195 -19.325,0.78617 -24,1.05273 -4.675,0.26655 -11.029966,0.75618 -14.121094,1.08789 -4.017392,0.43152 -5.844121,0.24157 -6.40625,-0.66797 -0.738861,-1.1955 -1.717825,-13.91112 -1.845703,-23.95703 -0.177904,-13.97591 1.567559,-68.07696 2.298828,-71.25 0.475333,-2.0625 0.486283,-5.42131 0.02539,-7.46484 -1.122845,-4.97855 -1.448456,-30.12963 -0.498047,-38.44727 0.512988,-4.48947 0.362885,-7.86518 -0.458984,-10.35547 -0.968752,-2.93534 -0.958608,-4.17957 0.04492,-6.05469 0.921032,-1.72097 0.965317,-2.71698 0.167969,-3.67773 -0.696919,-0.83974 -0.75711,-1.84861 -0.166015,-2.7832 0.510116,-0.80655 0.934959,-9.24928 0.943359,-18.75977 0.01405,-15.8623 0.180413,-17.46654 2.003906,-19.42383 0.827671,-0.8884 1.418956,-1.37559 2.039063,-1.52539 z M 1581.4648,366 c 3.8845,0 4.6152,1.35203 1.6016,2.96484 -2.6065,1.39496 -2.832,1.34158 -4.0664,-0.96484 -0.9765,-1.82469 -0.7605,-2 2.4648,-2 z m -71.7441,1 c 0.6092,0 0.8549,0.90849 0.5547,2.05664 -0.3272,1.25109 -1.0897,1.8459 -1.9453,1.51758 -0.7735,-0.29684 -1.6616,0.12763 -1.9746,0.94336 -0.602,1.56863 -2.3555,2.05685 -2.3555,0.65625 0,-1.17791 4.4184,-5.17383 5.7207,-5.17383 z M 899,383 c 0.55,0 1,0.45 1,1 0,0.55 -0.45,1 -1,1 -0.55,0 -1,-0.45 -1,-1 0,-0.55 0.45,-1 1,-1 z m 857.8301,20.49609 c 0.2995,0.29949 0.6094,1.43465 0.6894,2.52344 0.1532,2.07956 -1.9421,2.72484 -3.0468,0.9375 -0.7056,-1.14172 1.4751,-4.34325 2.3574,-3.46094 z M 1765,407 c 0.55,0 1,0.45 1,1 0,0.55 -0.45,1 -1,1 -0.55,0 -1,-0.45 -1,-1 0,-0.55 0.45,-1 1,-1 z m -960.25,8.34375 c -0.17607,-0.172 -0.4547,-0.0394 -0.86328,0.36914 -0.61207,0.61207 -0.81095,1.60129 -0.44141,2.19922 1.03439,1.67368 1.55469,1.30318 1.55469,-1.11133 0,-0.80771 -0.0739,-1.28503 -0.25,-1.45703 z m 774.9805,12.91797 c 0.1,0.0671 0.1664,0.36209 0.1914,0.88086 0.043,0.90366 -0.6339,1.91616 -1.5039,2.25 -2.0744,0.79602 -2.193,0.78044 -2.918,-0.39258 -0.3399,-0.55 0.2708,-1 1.3574,-1 1.0867,0 2.2031,-0.5625 2.4805,-1.25 0.1592,-0.39468 0.2926,-0.5554 0.3926,-0.48828 z M 1042.5,509.94727 c -0.55,-0.029 -1.1557,0.69783 -1.3457,1.61523 -0.216,1.04271 0.1589,1.49913 1,1.21875 1.5571,-0.51903 1.83,-2.75558 0.3457,-2.83398 z M 753,570.5 c 0.55,-0.33992 1,0.0839 1,0.94141 0,0.85746 -0.45,1.55859 -1,1.55859 -0.55,0 -1,-0.42387 -1,-0.94141 0,-0.51754 0.45,-1.21867 1,-1.55859 z m -695.707031,7.11523 c 0.736751,-0.0782 1.652082,0.0818 2.796875,0.41016 1.552454,0.44524 3.692091,0.58236 4.753906,0.30469 1.061815,-0.27767 2.246775,0.006 2.632812,0.63086 0.41941,0.67862 1.169549,0.78528 1.863282,0.26562 1.069038,-0.80079 8.466083,-0.54607 36.660156,1.26172 5.775,0.37029 13.425,0.83329 17,1.02734 3.575,0.19408 7.175,0.57994 8,0.85743 1.12061,0.37693 48.49882,2.3921 59,2.50976 6.97149,0.0781 24.56442,1.38019 29,2.14649 7.47151,1.29079 31.66056,3.03649 47.5,3.42773 15.4252,0.38101 32.39984,1.49004 34.5,2.25391 0.825,0.30007 4.65,0.73712 8.5,0.9707 3.85,0.23358 13.3,0.83926 21,1.3457 7.7,0.50645 15.575,0.90116 17.5,0.87696 8.97475,-0.11264 45.76103,2.34494 47.86133,3.19726 1.61655,0.65601 2.79998,0.59315 3.75,-0.19531 0.96607,-0.80177 1.7687,-0.83508 2.63867,-0.11328 0.74828,0.62084 10.71095,1.21957 24.82227,1.49219 12.96512,0.25047 24.44012,0.90536 25.5,1.45703 1.06414,0.5539 14.61829,1.28368 30.26953,1.6289 15.58848,0.34385 28.77546,0.89288 29.30273,1.21875 0.91271,0.56409 26.92857,2.15022 48.35547,2.94922 11.4986,0.42878 33.72427,1.75369 64.39453,3.83594 11.76685,0.79886 21.98552,1.2249 22.70899,0.94727 0.72348,-0.27762 3.62977,-0.009 6.45898,0.59765 2.82922,0.60676 11.96056,1.12525 20.29102,1.15235 8.33047,0.0271 20.77148,0.5417 27.64648,1.14257 6.875,0.60086 14.525,1.18104 17,1.29102 5.82921,0.25902 26.74743,1.40564 39.5,2.16406 5.5,0.32709 11.44155,0.5218 13.20312,0.4336 1.76158,-0.0882 12.78658,0.53648 24.5,1.38867 11.71344,0.85219 27.37188,1.781 34.79688,2.0625 7.425,0.28149 15.075,0.76757 17,1.08008 1.925,0.31252 6.875,0.74417 11,0.95898 4.125,0.21481 18.63738,1.07498 32.25,1.91211 30.80792,1.89458 56.29771,3.22535 96.75,5.05273 17.325,0.78264 33.975,1.59373 37,1.80274 3.025,0.20901 12.475,0.6907 21,1.07031 8.525,0.37961 19.1,1.10281 23.5,1.60742 4.4,0.50462 14.75,0.9681 23,1.0293 8.25,0.0612 16.9655,0.53514 19.3691,1.05273 2.4036,0.5176 8.9286,1.1502 14.5,1.40625 15.7244,0.72263 33.7662,1.81831 57.4551,3.48633 6.7781,0.47727 12.9198,0.63901 13.6485,0.35938 0.7288,-0.27964 1.6287,-0.0169 2,0.58398 0.4287,0.69363 4.9388,1.07422 12.3515,1.04492 6.4217,-0.0254 18.8758,0.44603 27.6758,1.04688 8.8,0.60086 17.8,1.00223 20,0.89258 4.6596,-0.23224 2.9495,-0.30973 22,1.0039 8.25,0.56888 18.6,1.46529 23,1.99219 4.4,0.5269 14.975,1.23393 23.5,1.57031 8.525,0.33639 18.2,0.8979 21.5,1.24805 3.3,0.35014 10.5,0.74477 16,0.87695 14.7066,0.35345 32.6765,1.3588 33.5117,1.875 0.4003,0.24742 9.0006,0.9338 19.1094,1.52539 10.1089,0.59159 21.5289,1.28417 25.3789,1.53907 3.85,0.25489 10.15,0.65873 14,0.89843 3.85,0.2397 13.6624,0.88365 21.8066,1.42969 8.1441,0.54605 15.4633,0.74071 16.2637,0.43359 0.8003,-0.30712 2.0681,-0.0488 2.8164,0.57227 0.7483,0.62102 2.0918,0.84717 2.9863,0.50391 0.8945,-0.34325 8.4893,-0.11767 16.877,0.50195 8.3877,0.61963 20.425,1.30554 26.75,1.52344 6.325,0.2179 16,0.69478 21.5,1.05859 5.5,0.36382 14.5,0.82268 20,1.01953 5.5,0.19684 21.475,1.05718 35.5,1.91211 14.025,0.85493 26.095,1.33574 26.8223,1.06836 0.7274,-0.26737 2.1779,-0.0298 3.2226,0.5293 1.0448,0.55913 11.0249,1.24906 22.1778,1.5332 11.1529,0.28414 21.8523,0.92892 23.7773,1.43164 1.925,0.50273 13.625,1.20358 26,1.5586 12.375,0.355 25.2,0.82403 28.5,1.04296 3.3,0.21893 12.4836,0.83249 20.4082,1.36328 21.2109,1.42071 35.0902,1.93658 69.5918,2.58204 17.05,0.31898 32.0403,0.79401 33.3125,1.05664 1.8312,0.37805 2.2478,1.03682 2,3.1582 -0.4391,3.75821 -3.3169,4.24259 -28.8125,4.84961 -11.825,0.28153 -26.675,0.94483 -33,1.47461 -6.325,0.52978 -13.3,0.95817 -15.5,0.95117 -2.2,-0.007 -7.3044,0.5057 -11.3438,1.13867 -5.9501,0.93247 -7.4987,0.90114 -8.1582,-0.16601 -0.6289,-1.01758 -1.4602,-1.07129 -3.6562,-0.23438 -1.5633,0.59576 -9.3668,1.35172 -17.3418,1.67969 -7.975,0.32796 -21.475,0.92072 -30,1.31641 -8.525,0.39568 -21.35,0.72446 -28.5,0.73046 -7.15,0.006 -13.2713,0.37963 -13.6035,0.83204 -0.3321,0.45242 -12.0321,0.99952 -26,1.21484 -13.9678,0.21532 -31.2465,0.81874 -38.3965,1.3418 -7.15,0.52306 -21.55,1.43028 -32,2.01562 -10.45,0.58534 -27.325,1.55242 -37.5,2.14844 -10.175,0.59601 -22.55,1.23535 -27.5,1.42187 -4.95,0.18651 -12.15,0.80055 -16,1.36328 -3.85,0.56274 -12.8152,1.07764 -19.9219,1.14454 -7.1067,0.0669 -13.1817,0.27003 -13.5,0.45117 -0.6083,0.34617 -8.3758,0.72155 -63.4453,3.07617 -18.6266,0.79643 -34.4031,1.89585 -35.0605,2.44141 -0.6574,0.54556 -3.1938,0.91205 -5.6348,0.81445 -6.9883,-0.27936 -40.1278,1.09995 -66.9375,2.78711 -21.7318,1.3676 -34.7835,2.13073 -67.5,3.94922 -4.95,0.27513 -15.75,0.96507 -24,1.5332 -14.1665,0.97555 -40.5439,2.19379 -75.5,3.48438 -8.525,0.31475 -17.075,0.84968 -19,1.18945 -4.4592,0.78705 -6.3527,0.92212 -30.5,2.16406 -33.7722,1.73697 -41.4585,2.18265 -57,3.30469 -8.25,0.59562 -20.85,1.23116 -28,1.41211 -7.15,0.18096 -19.3,0.75888 -27,1.28515 -7.7,0.52626 -23.225,1.44676 -34.5,2.04493 -11.275,0.59818 -24.325,1.31282 -29,1.58984 -12.1104,0.7176 -31.23198,1.66958 -33,1.64258 -0.825,-0.0126 -8.25,0.39097 -16.5,0.89648 -14.88023,0.91177 -24.03324,1.35749 -51,2.48047 -7.7,0.32065 -14.9944,0.78935 -16.20898,1.04102 -1.21457,0.25167 -7.06457,0.47439 -13,0.49609 -5.93542,0.0217 -13.71602,0.5087 -17.29102,1.08203 -3.575,0.57333 -13.025,1.25054 -21,1.50586 -7.975,0.25533 -16.525,0.62897 -19,0.83008 -7.75941,0.63052 -23.20926,1.69841 -30.5,2.10742 -3.85,0.21598 -13.3,0.87327 -21,1.46094 -14.82168,1.13121 -20.89909,1.2222 -23.74023,0.35742 -0.95758,-0.29146 -2.28518,-0.1936 -2.94922,0.2168 -0.66404,0.4104 -3.70639,0.86064 -6.75977,1 -3.05338,0.13936 -11.62578,0.68824 -19.05078,1.2207 -13.70378,0.98272 -48.23495,2.68022 -75.5,3.71094 -8.25,0.31187 -15.675,0.7488 -16.5,0.9707 -0.825,0.2219 -5.96095,0.66455 -11.41406,0.98438 -5.45311,0.31983 -10.21141,0.766 -10.57422,0.99023 -0.36281,0.22423 -7.59876,0.69504 -16.07813,1.04688 -8.47937,0.35183 -15.73212,0.83427 -16.11718,1.07226 -0.38506,0.23798 -16.81317,1.09701 -36.50782,1.91016 -19.69465,0.81316 -37.60859,1.67865 -39.80859,1.92187 -3.77078,0.41688 -11.6226,0.8233 -40,2.07422 -6.6,0.29094 -21.9,0.7414 -34,1 -35.10159,0.75021 -53.11107,1.39483 -83,2.9707 -15.4,0.81195 -32.95,1.70505 -39,1.98438 -6.05,0.27933 -14.15,0.68392 -18,0.90039 -3.85,0.21647 -13.3,0.68763 -21,1.04688 -7.7,0.35923 -20.75,1.09897 -29,1.64453 -8.25,0.54556 -17.925,1.16081 -21.5,1.36523 -3.575,0.20442 -18.65,0.70798 -33.5,1.11914 l -27,0.7461 -1.15625,-3.39844 C 51.962875,774.8407 51.700212,663.98493 53.054688,656.91602 53.520119,654.48695 53.88918,640.35 53.875,625.5 c -0.01415,-14.85 -0.02288,-27.9 -0.01758,-29 0.0053,-1.1 0.164408,-5.50999 0.351562,-9.80078 0.281947,-6.46412 0.87373,-8.84953 3.083985,-9.08399 z m 786.519531,6.70118 c 0.72187,-0.28891 1.58373,-0.25231 1.91602,0.0801 0.33229,0.33229 -0.25834,0.5688 -1.3125,0.5254 -1.16495,-0.048 -1.40125,-0.28625 -0.60352,-0.60547 z M 1528,609.63281 c 0,-0.6266 0.4661,-0.56717 1.1836,0.15039 0.6507,0.65084 0.9502,1.41506 0.666,1.69922 -0.6674,0.66739 -1.8496,-0.51483 -1.8496,-1.84961 z m 21.8125,0.6836 c 0.7219,-0.28891 1.5837,-0.25231 1.916,0.0801 0.3323,0.33229 -0.2584,0.5688 -1.3125,0.5254 -1.165,-0.048 -1.4012,-0.28625 -0.6035,-0.60547 z m 0.8711,10.49609 c 0.2888,0.72187 0.2519,1.58373 -0.08,1.91602 -0.3323,0.33229 -0.5684,-0.25834 -0.5254,-1.3125 0.048,-1.16495 0.2863,-1.40125 0.6055,-0.60352 z m -293.9453,2.36328 c 0.6542,-0.46547 1.2617,0.61957 1.2617,3.6582 0,2.20085 -0.2735,4.71401 -0.6074,5.58399 -1.2789,3.33276 -2.4846,1.36095 -2.1953,-3.58985 0.1853,-3.17047 0.8867,-5.18687 1.541,-5.65234 z M 678,635 c -0.55,0 -1,0.70113 -1,1.55859 0,0.85748 0.45,1.28133 1,0.94141 0.55,-0.33992 1,-1.04105 1,-1.55859 C 679,635.42387 678.55,635 678,635 Z m 979.5586,3 c 0.2426,0 0.4414,0.45 0.4414,1 0,0.55 -0.4762,1 -1.0586,1 -0.5825,0 -0.7813,-0.45 -0.4414,-1 0.3399,-0.55 0.8161,-1 1.0586,-1 z M 368.05859,780 c 0.58246,0 0.78133,0.45 0.44141,1 -0.33992,0.55 -0.81605,1 -1.05859,1 C 367.19887,782 367,781.55 367,781 c 0,-0.55 0.47613,-1 1.05859,-1 z m 455.5,1 c 0.24254,0 0.44141,0.45 0.44141,1 0,0.55 -0.47613,1 -1.05859,1 -0.58246,0 -0.78133,-0.45 -0.44141,-1 0.33992,-0.55 0.81605,-1 1.05859,-1 z M 1129,786.5 c 0.55,0.33992 1,1.04105 1,1.55859 0,0.51754 -0.45,0.94141 -1,0.94141 -0.55,0 -1,-0.70113 -1,-1.55859 0,-0.85748 0.45,-1.28133 1,-0.94141 z m -38.9258,0.69141 c 0.5913,0.19708 1.0762,0.78609 1.0762,1.30859 0,0.5225 -0.4849,1.11151 -1.0762,1.30859 C 1089.483,790.00568 1089,789.41667 1089,788.5 c 0,-0.91667 0.483,-1.50568 1.0742,-1.30859 z M 57.4375,794.51172 c 1.614774,-0.55727 3.283998,-0.5431 4.503906,0.21875 1.994334,1.24548 10.865912,2.06569 30.058594,2.77539 7.975,0.2949 22.825,0.97275 33,1.50781 10.175,0.53506 27.5,1.44456 38.5,2.02149 11,0.57694 26.75,1.50932 35,2.07031 8.25,0.56099 24.675,1.48133 36.5,2.04687 11.825,0.56554 23.3,1.18788 25.5,1.38282 2.2,0.19495 8.5,0.59635 14,0.89062 15.43633,0.82589 66.25836,4.25688 74,4.9961 5.81292,0.55502 22.39847,1.57564 34.5,2.12304 5.775,0.26123 18.6,0.94955 28.5,1.5293 9.9,0.57974 25.2,1.24029 34,1.4668 8.8,0.2265 16.1125,0.47854 16.25,0.56054 0.56168,0.33485 6.79771,0.74711 27.25,1.80274 11.825,0.61034 26,1.60729 31.5,2.21679 5.5,0.60949 10.675,1.06332 11.5,1.00782 0.825,-0.0555 4.5397,-0.38531 8.25586,-0.73243 4.55186,-0.42517 7.21779,-0.24756 8.16797,0.54102 0.77573,0.6438 2.91103,1.03422 4.74414,0.86914 3.50581,-0.31571 34.54109,1.10288 40.72461,1.86133 1.98441,0.24341 14.17882,0.84898 27.09961,1.3457 12.92079,0.49672 25.52079,1.34775 28,1.89063 2.47921,0.54288 13.05781,1.24556 23.50781,1.5625 10.45,0.31694 24.175,0.99517 30.5,1.50781 11.65459,0.94461 37.4784,2.20715 53,2.58984 4.675,0.11526 14.575,0.72617 22,1.35743 17.4435,1.48297 39.52342,2.82085 59,3.57421 8.525,0.32975 22.925,1.00394 32,1.5 9.075,0.49606 21.225,1.12034 27,1.38672 5.775,0.26637 16.575,0.95932 24,1.53907 7.425,0.57974 17.775,1.25614 23,1.5039 5.225,0.24776 18.5,0.90148 29.5,1.45313 11,0.55165 28.325,1.29063 38.5,1.64062 10.175,0.34999 20.75,0.78252 23.5,0.96289 13.7884,0.90434 47.8949,2.54114 54.5,2.61524 4.125,0.0463 11.1,0.47153 15.5,0.94531 8.2896,0.8926 37.8233,2.71901 57,3.52539 16.0507,0.67494 21.7384,1.03716 34,2.1582 6.05,0.55313 12.125,1.01645 13.5,1.03125 6.9187,0.0743 34.2452,1.36747 47.5,2.24805 38.7834,2.57655 44.4873,2.91606 51.5,3.05078 8.5481,0.16422 47.9661,2.68784 52.5,3.36133 2.8639,0.42542 17.4334,1.08306 48,2.16601 7.7,0.2728 16.475,0.63382 19.5,0.80274 9.2722,0.51776 36.8855,1.72507 48.5,2.12109 6.05,0.20628 14.375,0.65015 18.5,0.98633 4.125,0.33618 14.7,0.79469 23.5,1.01758 8.8,0.22289 17.8,0.5928 20,0.82226 2.2,0.22946 11.875,0.74003 21.5,1.13477 13.7015,0.56192 17.8798,1.05638 19.25,2.2793 1.5956,1.42411 1.75,1.40662 1.75,-0.20117 0,-1.44633 0.4945,-1.62283 2.75,-0.98243 1.5125,0.42944 5.675,0.86569 9.25,0.97071 26.1257,0.76741 46.4052,1.74228 51.5,2.47461 3.3,0.47434 14.55,1.16013 25,1.52343 14.1396,0.49157 19.4033,1.01809 20.5781,2.0625 2.0252,1.80027 2.9219,1.7797 2.9219,-0.0703 0,-1.17038 0.5295,-1.27371 2.5645,-0.5 1.4108,0.53639 7.4114,0.97461 13.3339,0.97461 5.9226,0 11.0667,0.29906 11.4317,0.66406 0.365,0.365 6.6268,0.82665 13.916,1.02735 18.5855,0.51174 28.0473,1.32208 29.5039,2.52343 0.8786,0.72462 1.25,0.67338 1.25,-0.17187 0,-0.90354 2.4755,-1.02846 9.957,-0.49805 5.4768,0.38828 11.9655,0.76178 14.418,0.83008 2.4525,0.0683 4.7916,0.45947 5.1992,0.86719 0.4076,0.40773 1.2334,0.35169 1.834,-0.12305 0.6006,-0.47479 3.9205,-0.5175 7.377,-0.0957 3.4566,0.4218 13.8066,1.08605 23,1.47656 11.508,0.48883 17.7286,1.18072 19.9687,2.2207 1.7895,0.83082 4.1351,1.27989 5.2129,0.99805 2.0122,-0.5262 4.5353,1.44512 3.3574,2.62305 -0.3619,0.36189 -2.3532,0.6582 -4.4258,0.6582 -2.0725,0 -4.9866,0.46355 -6.4746,1.0293 -1.488,0.56574 -7.7041,1.22467 -13.8144,1.46484 -6.1103,0.24016 -11.7844,0.50926 -12.6094,0.59766 -7.9397,0.85089 -27.0654,2.08766 -38,2.45703 -16.6986,0.56408 -47.8174,2.11322 -71,3.53515 -9.625,0.59037 -18.175,1.06273 -19,1.04883 -0.825,-0.0139 -6.225,0.43346 -12,0.9961 -15.3595,1.49643 -48.6261,1.9005 -54.5,0.66211 -5.1772,-1.0915 -6.6659,-2.34778 -19.5039,-16.46875 -7.0983,-7.80768 -8.3697,-8.35688 -20.6465,-8.92188 -5.9668,-0.27459 -17.3746,-0.46011 -25.3496,-0.41211 -7.975,0.0479 -19,0.0102 -24.5,-0.084 -5.5,-0.0943 -10.675,-0.1066 -11.5,-0.0274 -0.825,0.0794 -98.03,0.2937 -216.0117,0.47657 -218.4175,0.33854 -215.143,0.28592 -219.9883,3.4746 -0.5778,0.38027 -1.7302,17.48528 -2.3027,34.17188 -0.217,6.325 -0.4639,12.07811 -0.5469,12.78516 -0.3261,2.77309 -8.9377,5.21468 -18.4824,5.23828 -5.0419,0.0125 -14.793,0.46402 -21.668,1.0039 -15.5276,1.21935 -34.9579,2.15928 -41.2637,1.9961 -2.62036,-0.0678 -5.31523,0.21686 -5.98825,0.63281 -0.67303,0.41595 -4.37979,0.8846 -8.23633,1.04102 -3.85653,0.15641 -10.38672,0.69835 -14.51172,1.20507 -7.49586,0.92079 -11.06487,1.11209 -57,3.05274 -13.475,0.56929 -28.1,1.49615 -32.5,2.05859 -4.4,0.56244 -15.875,1.20055 -25.5,1.41992 -9.625,0.21937 -23.8,0.86998 -31.5,1.44532 -7.7,0.57533 -25.475,1.56693 -39.5,2.20312 -14.025,0.63618 -25.94766,1.42146 -26.49414,1.74609 -0.54647,0.32466 -5.04647,0.68841 -10,0.8086 -4.95352,0.12019 -13.50586,0.48839 -19.00586,0.8164 -10.33493,0.61636 -33.02292,1.604 -80.5,3.50586 -15.125,0.60588 -30.69298,1.55639 -34.5957,2.11133 -3.90271,0.55494 -11.55271,1.19575 -17,1.42578 -5.44728,0.23003 -15.7543,0.66658 -22.9043,0.96875 -7.15,0.30217 -17.05,0.76894 -22,1.03711 -4.95,0.26816 -14.85,0.73861 -22,1.04493 -7.15,0.30627 -13.675,0.73856 -14.5,0.96289 -3.01985,0.82117 -22.48933,1.80368 -59,2.97461 -39.45889,1.26548 -45.2702,1.47159 -69.5,2.46874 -13.75,0.56588 -27.25,1.25388 -30,1.5293 -2.75,0.27542 -13.94872,0.74626 -24.88672,1.04688 -10.938,0.30061 -20.63806,0.94888 -21.55469,1.43945 -0.95286,0.50997 -2.26963,0.51809 -3.07617,0.0195 -1.39379,-0.86141 -7.16851,-0.72241 -36.48242,0.87305 -8.25,0.44902 -15.45,0.56409 -16,0.25586 -1.71509,-0.9612 -3.2646,-0.9579 -7.61523,0.0195 -2.31606,0.52039 -12.57407,1.16071 -22.79688,1.42187 -18.97489,0.48474 -28.27804,0.86221 -45.08789,1.83203 -5.225,0.30147 -19.625,1.04744 -32,1.65821 -12.375,0.61076 -23.625,1.34191 -25,1.625 -1.375,0.2831 -14.875,0.52797 -30,0.54297 -15.125,0.015 -27.95,0.3381 -28.5,0.71875 -0.55,0.38065 -3.925,0.21358 -7.5,-0.37305 l -6.5,-1.06836 -0.623047,-4.49609 C 51.534333,981.5248 51.583117,978.825 51.986328,978 c 0.403211,-0.825 0.318054,-4.65 -0.189453,-8.5 -1.838446,-13.94666 -2.14995,-36.17594 -1.267578,-90.5 0.317139,-19.525 0.665316,-45.19224 0.773437,-57.03906 0.170418,-18.67268 0.430954,-21.89864 1.958985,-24.23438 0.999452,-1.52774 2.561007,-2.65757 4.175781,-3.21484 z m 1487.9766,77.89844 c 0.7743,0.0459 1.6842,0.35412 2.2246,0.89453 0.3826,0.38259 -0.2811,0.69531 -1.4727,0.69531 -1.1917,0 -2.166,-0.41077 -2.166,-0.91211 0,-0.50833 0.6397,-0.72369 1.4141,-0.67773 z m -421.2207,18.9707 c 0.4433,-0.27398 1.2981,-0.19521 1.8984,0.17578 2.0144,1.24494 85.0741,1.55039 86.5586,0.31836 0.9175,-0.76148 1.7502,-0.7956 2.5996,-0.10938 1.705,1.37748 199.7782,1.42735 201.457,0.0508 0.6634,-0.54398 1.7872,-0.62882 2.4981,-0.18946 0.7109,0.43935 34.3672,0.90162 74.7929,1.02735 91.2682,0.28386 94.7489,0.42494 102.0215,4.1582 4.324,2.21962 6.5356,4.31904 10.4805,9.94531 2.75,3.92204 5.4906,7.15485 6.0898,7.18555 1.158,0.0594 3.4537,2.43077 15.709,16.22266 4.2356,4.76661 7.7012,9.39089 7.7012,10.27539 0,0.8845 1.0125,2.01099 2.25,2.5039 1.2375,0.49292 3.3984,2.17056 4.8027,3.72657 1.4044,1.55597 6.9169,7.62536 12.25,13.48828 5.3332,5.86293 9.6973,11.01515 9.6973,11.44922 0,0.43403 2.1375,2.84518 4.75,5.35937 6.0568,5.82889 14.25,15.07467 14.25,16.08008 0,0.42496 2.1834,2.94965 4.8516,5.61133 5.3974,5.38414 21.2699,23.25244 25.1484,28.31054 1.375,1.7932 3.7375,4.4335 5.25,5.8672 1.5125,1.4338 2.75,2.987 2.75,3.4512 0,1.3355 7.2168,10.7232 15.0156,19.5312 1.1296,1.2758 3.6749,5.5508 5.6563,9.5 4.1323,8.236 4.1453,8.261 8.2207,15.8906 3.8194,7.1504 5.094,14.8674 5.084,30.7891 -0.01,11.3937 -1.1381,18.4954 -3.2911,20.6484 -0.3769,0.3769 -0.6855,1.7128 -0.6855,2.9688 0,1.256 -0.5901,2.6442 -1.3105,3.084 -0.7205,0.4398 -4.398,4.6238 -8.1719,9.2988 -3.7739,4.675 -7.4345,9.175 -8.1348,10 -0.7004,0.825 -3.0046,3.525 -5.1211,6 -6.2235,7.2776 -11.8784,14.3789 -12.8535,16.1387 -0.4992,0.9009 -4.1122,5.1759 -8.0273,9.5 -3.915,4.3241 -8.865,9.8746 -11,12.3359 -8.8253,10.1743 -9.9566,11.4598 -11.5977,13.1699 -0.9438,0.9835 -2.8107,3.4911 -4.1504,5.5723 -1.3396,2.0812 -6.4895,8.391 -11.4433,14.0234 -4.9539,5.6325 -10.4983,12.1575 -12.3204,14.5 -1.8221,2.3426 -4.0124,4.9348 -4.8671,5.7598 -0.8548,0.825 -2.2987,2.6743 -3.209,4.1094 -1.6945,2.6714 -7.6914,9.9716 -12.7149,15.4765 -1.5486,1.6969 -3.5909,4.2669 -4.5371,5.711 -0.9462,1.4441 -2.4764,2.865 -3.4004,3.1582 -0.9241,0.2933 -2.5708,2.2095 -3.6601,4.2578 -2.5878,4.8664 -9.1076,12.9698 -18.8125,23.3828 -4.3078,4.6221 -10.0816,11.6003 -12.8301,15.5059 l -4.9981,7.1015 -24.6699,0.7657 c -13.5687,0.4209 -26.4699,0.7294 -28.6699,0.6874 -2.2,-0.042 -4.675,0.1735 -5.5,0.4786 -2.5424,0.9402 -10.108,1.0011 -10.6738,0.086 -0.2979,-0.482 -10.354,-0.5386 -22.6797,-0.1269 -22.2988,0.7445 -49.0696,0.963 -84.1465,0.6874 -10.45,-0.082 -44.65,-0.066 -76,0.035 -31.35,0.1013 -64.2,-0.097 -73,-0.4394 -8.8,-0.3423 -34.45,-0.7328 -57,-0.8692 -46.6611,-0.2823 -69.339,-0.6933 -78,-1.4121 -3.3,-0.2738 -9.15,-0.4278 -13,-0.3418 -14.1258,0.3151 -25.834,-0.1895 -26.7988,-1.1543 -1.4474,-1.4474 -1.3008,-67.6879 0.4101,-185.0996 0.076,-5.225 0.053,-23.675 -0.053,-41 -0.1961,-32.2656 0.4488,-85.7502 1.4961,-124 0.6525,-23.83378 0.7661,-36.50896 0.5508,-61 -0.1711,-19.4622 0.1641,-25.68147 1.4492,-26.92188 0.5197,-0.50171 7.6695,-1.20262 15.8887,-1.55664 8.2192,-0.35403 15.3067,-0.86664 15.75,-1.14062 z M 820.00391,991.50391 c 0.78048,0.48233 0.7584,1.07786 -0.0781,2.08593 -1.34078,1.61554 -2.56298,1.80572 -3.35547,0.52344 -0.76865,-1.2437 2.10716,-3.42916 3.4336,-2.60937 z M 56.294922,1003 c 2.739111,0.6974 17.604158,2.1013 25.705078,2.4277 1.375,0.055 2.952761,0.3907 3.505859,0.7442 0.553098,0.3535 12.703098,0.9656 27.000001,1.3613 14.2969,0.3956 28.24414,0.9248 30.99414,1.1758 2.75,0.2509 9.94348,0.6219 15.98438,0.8242 6.04087,0.2024 12.56586,0.6084 14.5,0.9023 10.9687,1.6669 30.58883,2.3213 31.84765,1.0625 0.2657,-0.2658 1.0096,-0.045 1.65235,0.4883 0.64269,0.5334 9.9089,1.2149 20.59179,1.5157 10.68289,0.3008 25.94883,0.9816 33.92383,1.5136 7.975,0.532 19.45,1.1383 25.5,1.3457 6.05,0.2073 13.25,0.6681 16,1.0235 2.75,0.3555 9.725,0.8268 15.5,1.0488 5.775,0.2221 16.125,0.9008 23,1.5078 6.875,0.607 19.475,1.276 28,1.4863 8.525,0.2102 20.7959,0.9221 27.26953,1.5821 9.11015,0.9305 12.0956,0.9312 13.20703,0.01 0.81154,-0.6736 1.99927,-0.8413 2.73047,-0.3847 1.67709,1.0473 0.56986,0.9274 20.79297,2.2597 9.625,0.6341 19.76494,1.3255 22.5332,1.5352 2.76825,0.2097 6.94041,0.032 9.27149,-0.3945 2.33109,-0.4259 4.47978,-0.3835 4.77539,0.096 0.29562,0.4784 3.77347,0.8769 7.72851,0.8769 3.95504,0 9.89141,0.4333 13.19141,0.9531 3.3,0.5198 15.225,1.2099 26.5,1.5332 11.275,0.3233 23.875,1.0228 28,1.5547 11.0478,1.4243 38.23513,3.1178 56.5,3.5196 15.03703,0.3308 31.91833,1.1116 41,1.8984 3.90786,0.3385 39.52722,3.1427 42.5,3.3457 0.825,0.056 3.075,0.2951 5,0.5293 1.925,0.2342 9.125,0.5413 16,0.6836 6.875,0.1422 17.45,0.6138 23.5,1.0488 6.05,0.435 21.8,1.0867 35,1.4473 13.2,0.3606 25.575,0.8019 27.5,0.9805 7.57724,0.7031 22.44306,1.59 42.5,2.5351 11.55,0.5442 24.375,1.1766 28.5,1.4063 4.125,0.2297 14.925,0.7245 24,1.0996 9.075,0.375 16.88527,0.9121 17.35547,1.1933 0.47019,0.2811 11.72019,0.9368 25,1.4571 13.2798,0.5203 28.42694,1.1141 33.66015,1.3183 5.23326,0.2043 10.18326,0.6056 11,0.8926 0.81678,0.2871 11.83438,0.7396 24.48438,1.0059 12.65,0.2662 28.4,0.9634 35,1.5488 6.6,0.5854 18.075,1.25 25.5,1.4765 15.0333,0.4586 17,0.8944 17,3.7657 0,1.1062 0.8356,2.2055 1.8867,2.4804 1.6153,0.4224 1.9907,1.863 2.5996,9.9844 1.1769,15.6974 0.8208,58.8763 -0.5195,62.9375 -2.0128,6.0989 -2.0223,6.1003 -49.4668,8.9434 -8.7069,0.5217 -34.27296,2.4579 -59,4.4687 -6.6,0.5367 -18.075,1.2296 -25.5,1.5391 -7.425,0.3096 -16.12302,1.0126 -19.32812,1.5625 -3.20512,0.5498 -8.38013,0.925 -11.5,0.834 -3.11992,-0.091 -8.82188,0.1201 -12.67188,0.4687 -3.85,0.3485 -15.55,1.0484 -26,1.5547 -24.49055,1.1865 -70.1289,3.8619 -78.5,4.6016 -3.575,0.316 -10.325,0.7031 -15,0.8613 -4.675,0.1582 -14.8,0.815 -22.5,1.459 -16.94387,1.417 -51.99281,3.3665 -63,3.5039 -4.4,0.055 -8.47364,0.4091 -9.05273,0.7871 -0.5791,0.378 -8.0041,0.9672 -16.5,1.3086 -14.81104,0.5953 -18.83845,0.8243 -34.44727,1.9609 -3.85,0.2804 -18.25,1.0064 -32,1.6133 -13.75,0.6069 -26.35,1.2763 -28,1.4883 -1.65,0.212 -7.5,0.6139 -13,0.8926 -5.5,0.2787 -15.4,0.7793 -22,1.1133 -6.6,0.3339 -15.825,0.7802 -20.5,0.9902 -4.675,0.21 -11.00858,0.6342 -14.07422,0.9433 -3.06565,0.3092 -19.04065,1.03 -35.5,1.6036 -16.45936,0.5736 -32.62578,1.2117 -35.92578,1.416 -3.3,0.2043 -11.7022,0.5735 -18.67188,0.8203 -6.96965,0.2469 -13.04466,0.667 -13.5,0.9355 -0.45533,0.2685 -10.27812,0.8142 -21.82812,1.211 -11.55,0.3969 -22.31323,0.8686 -23.91797,1.0488 -1.60474,0.1803 -14.65474,0.6162 -29,0.9688 -14.34526,0.3526 -30.77384,1.0546 -36.50781,1.5605 -5.73398,0.5064 -10.61648,0.7273 -10.85156,0.4922 -0.23507,-0.2351 -1.56192,0 -2.94727,0.5312 -1.56573,0.5951 -2.94507,0.6063 -3.64648,0.025 -0.6206,-0.5149 -3.37857,-0.7831 -6.12891,-0.5957 -2.75033,0.1874 -9.64083,0.4628 -15.3125,0.6114 -5.67166,0.1487 -10.52519,0.6144 -10.78516,1.0351 -0.25997,0.4206 -1.535,0.3611 -2.83398,-0.1328 -1.29898,-0.494 -2.55256,-0.7072 -2.78516,-0.4746 -0.2326,0.2326 -4.66706,0.6196 -9.85351,0.8594 -5.18646,0.2399 -15.50469,0.7103 -22.92969,1.0468 -7.425,0.3365 -19.575,1.0541 -27,1.5938 -7.425,0.5397 -20.025,1.179 -28,1.4199 -21.90135,0.6616 -54.654417,2.2847 -61,3.0234 -1.925,0.2241 -7.775,0.656 -13,0.959 -5.225,0.3031 -12.942237,0.8021 -17.150391,1.1075 -6.786985,0.4953 -7.803546,0.3409 -9,-1.3672 -1.097912,-1.5675 -1.296262,-11.2982 -1.0625,-52.3106 0.15795,-27.7115 0.286557,-51.0597 0.285157,-51.8847 -0.0014,-0.825 -0.290068,-5.8816 -0.640625,-11.2364 -0.387161,-5.9138 -0.227311,-10.909 0.40625,-12.7265 0.702054,-2.0139 0.711096,-3.1978 0.0293,-3.6192 -1.635805,-1.011 0.556252,-60.8501 2.310546,-63.0742 0.607535,-0.7703 1.983541,-0.885 4.117188,-0.3418 z M 839.25,1005.3496 c 0.18333,-0.1833 0.48255,-0.015 0.94922,0.4512 0.93333,0.9333 0.93333,1.4651 0,2.3984 C 839.26589,1009.1325 839,1008.8667 839,1007 c 0,-0.9334 0.0667,-1.4671 0.25,-1.6504 z m 1115.8203,5.8496 c -0.1025,0.051 -0.6463,0.043 -0.7012,0.098 -0.034,0.034 0.6989,0.026 0.7266,0.059 -0.01,-0.051 -0.017,-0.1046 -0.025,-0.1563 z M 757.5,1014.5 c 1.08494,0 2.12519,0.7875 2.31055,1.75 0.25243,1.3107 -0.32821,1.75 -2.31055,1.75 -1.98234,0 -2.56298,-0.4393 -2.31055,-1.75 0.18536,-0.9625 1.22561,-1.75 2.31055,-1.75 z m 173.5,9 c 0.55,0.3399 1,1.0411 1,1.5586 0,0.5176 -0.45,0.9414 -1,0.9414 -0.55,0 -1,-0.7012 -1,-1.5586 0,-0.858 0.45,-1.2813 1,-0.9414 z m 880.0586,74.7305 c 21.3729,0.4144 42.6596,1.169 43.3906,1.8652 0.5225,0.4976 1.985,0.9043 3.25,0.9043 1.3778,0 2.3008,0.6014 2.3008,1.5 0,0.825 -0.7527,1.5 -1.6719,1.5 -0.9192,0 -2.4192,0.6781 -3.334,1.5059 -1.3491,1.221 -6.2488,1.5998 -25.9492,2.0136 -13.3571,0.2805 -24.5675,0.6769 -24.914,0.8809 -0.3465,0.204 -7.3809,0.694 -15.6309,1.0879 -8.25,0.3939 -15.225,0.8418 -15.5,0.9961 -1.1421,0.6405 -4.9465,-1.5133 -5.9355,-3.3614 -1.4135,-2.6414 -1.3601,-7.8239 0.092,-8.7207 1.07,-0.6612 22.5294,-0.5862 43.9024,-0.1718 z M 1084,1193 c 0.55,0 1,0.4238 1,0.9414 0,0.5175 -0.45,1.2187 -1,1.5586 -0.55,0.3399 -1,-0.084 -1,-0.9414 0,-0.8574 0.45,-1.5586 1,-1.5586 z m -422.33008,4.3379 c 1.0985,1.0985 -0.1939,2.584 -1.52734,1.7559 -1.00598,-0.6251 -1.05354,-1.0308 -0.1836,-1.5684 0.64531,-0.3989 1.41524,-0.4832 1.71094,-0.1875 z m -110.22265,0.8164 c 1.14002,-0.221 1.62251,0.1394 1.33593,1 -0.24642,0.74 -1.25021,1.5014 -2.23047,1.6914 -1.14002,0.221 -1.62251,-0.1394 -1.33593,-1 0.24642,-0.74 1.25021,-1.5014 2.23047,-1.6914 z M 740,1201 c 0.55,0 1,1.125 1,2.5 0,1.375 -0.45,2.5 -1,2.5 -0.55,0 -1,-1.125 -1,-2.5 0,-1.375 0.45,-2.5 1,-2.5 z m -690.300781,10.5 6.40039,0.3516 c 3.52014,0.1935 6.773473,0.5804 7.230469,0.8593 0.456996,0.279 6.531996,0.6271 13.5,0.7754 6.968004,0.1483 13.344922,0.5453 14.169922,0.8809 0.825,0.3357 10.5,0.8296 21.5,1.0976 11,0.2679 24.5,0.9139 30,1.4356 26.83009,2.5449 54.11902,4.1032 56.12695,3.2051 1.35671,-0.6072 2.47913,-0.6025 3.09766,0.018 0.53342,0.5334 4.3015,0.9764 8.37305,0.9864 4.07154,0.01 10.55234,0.4115 14.40234,0.8945 3.85,0.4829 14.2,1.1895 23,1.5703 8.8,0.3809 17.06768,1.0937 18.37305,1.582 1.30536,0.4886 3.89589,0.6009 5.75586,0.252 1.85997,-0.3489 6.19228,-0.143 9.62695,0.457 3.43466,0.6 14.11914,1.3299 23.74414,1.6211 28.4074,0.8596 32.46878,1.0662 55,2.8067 11.825,0.9135 32.15446,2.1217 45.17578,2.6855 13.02132,0.5638 24.27132,1.2441 25,1.5117 0.72868,0.2675 9.64922,0.7632 19.82422,1.0996 10.175,0.3363 21.2,0.7421 24.5,0.9024 3.3,0.1603 12.075,0.586 19.5,0.9453 15.0662,0.729 16.02006,0.7827 42,2.4141 21.27034,1.3357 28.48376,1.9131 32,2.5605 3.25805,0.5998 25.16206,1.4975 40.93555,1.6777 6.83919,0.078 13.58919,0.5117 15,0.9629 1.4108,0.4512 11.56445,1.0668 22.56445,1.3672 11,0.3003 20.9,0.7738 22,1.0528 2.75588,0.6991 49.27566,3.3938 70,4.0546 9.35,0.2981 21.05,0.9475 26,1.4434 4.95,0.4958 9.675,0.8767 10.5,0.8457 4.05906,-0.1518 36.82501,1.3964 46.5,2.1973 6.05,0.5008 17.75,1.1834 26,1.5175 8.25,0.3343 17.72888,0.7887 21.06445,1.0098 3.33556,0.2211 15.26056,0.8679 26.5,1.4375 11.23943,0.5696 25.83555,1.4636 32.43555,1.9863 11.98772,0.9492 42.71155,2.4847 70.9668,3.5469 8.2317,0.3094 17.6817,0.7681 21,1.0195 15.7526,1.1939 47.6453,2.8237 52.8262,2.6993 5.2375,-0.1258 5.8774,0.088 6.6933,2.2343 0.4963,1.3053 0.7949,16.4712 0.6621,33.7032 -0.1328,17.232 0.1046,32.3445 0.5293,33.582 0.4247,1.2375 1.5941,2.25 2.5977,2.25 1.0037,0 2.3867,0.5625 3.0742,1.25 0.9867,0.9867 28.3627,1.2572 129.9512,1.2852 70.785,0.019 140.6242,-0.2265 155.1992,-0.5469 22.8744,-0.5027 26.7506,-0.3741 28.332,0.9433 1.6504,1.375 1.9248,1.3595 2.7676,-0.1464 0.835,-1.4922 2.7298,-1.6144 17.6445,-1.1465 9.1905,0.2882 17.0784,0.7498 17.5274,1.0273 0.449,0.2775 1.4187,0.01 2.1543,-0.6055 2.1042,-1.7459 32.9825,-1.7962 35.0781,-0.059 1.385,1.1499 1.7834,1.1516 2.4863,0.016 0.6512,-1.0534 4.017,-1.3069 15.1739,-1.1406 7.8853,0.1175 15.1234,0.4492 16.0859,0.7363 0.9625,0.2872 1.7502,0.1547 1.75,-0.2949 -10e-5,-0.4496 5.5124,-0.844 12.25,-0.877 6.7377,-0.033 25.8959,-0.4429 42.5742,-0.9121 l 30.3242,-0.8535 2.4258,-3.5703 c 1.3342,-1.9634 2.4258,-3.8405 2.4258,-4.1719 0,-0.3314 3.375,-4.1116 7.5,-8.4004 4.125,-4.2888 7.5,-8.4031 7.5,-9.1426 0,-0.7395 1.2375,-2.1313 2.75,-3.0937 1.5125,-0.9625 2.975,-2.0418 3.25,-2.3985 0.5296,-0.6869 17.6693,0.7564 67.5,5.6875 8.25,0.8164 16.575,1.6289 18.5,1.8047 5.3339,0.487 5.7653,0.7747 2.5,1.6641 -1.8531,0.5047 1.2051,0.6727 8,0.4414 6.05,-0.206 12.35,0.021 14,0.5039 3.0134,0.8817 47.8836,4.5896 67.5,5.5781 15.933,0.8029 20.801,1.1837 21.6895,1.6973 0.4457,0.2577 6.2105,0.7816 12.8105,1.1641 6.6,0.3824 15.6,0.9032 20,1.1562 10.8631,0.6246 18.5,1.2713 28,2.3711 4.4,0.5093 11.375,0.9542 15.5,0.9902 8.2727,0.072 15,0.9483 15,1.9551 0,1.7234 -9.5315,3.156 -20.5039,3.082 -15.6072,-0.1052 -40.1763,0.7235 -58.9961,1.9883 -13.9584,0.9381 -28.5436,1.5442 -59.5,2.4727 -6.875,0.2061 -21.4264,0.8884 -32.3359,1.5156 -10.9095,0.6273 -30.0345,1.3231 -42.5,1.5469 -12.4655,0.2238 -27.1641,0.8059 -32.6641,1.2929 -7.5319,0.6668 -10.5085,0.5782 -12.0586,-0.3593 -1.1629,-0.7034 -2.6851,-0.8998 -3.5,-0.4512 -1.4032,0.7724 -9.9078,1.4221 -32.4414,2.4824 -6.05,0.2847 -15.7495,0.7757 -21.5547,1.0899 -11.0901,0.6002 -18.8295,0.8723 -53.9453,1.8965 -11.825,0.3448 -29.375,1.0696 -39,1.6113 -9.625,0.5417 -22.225,1.1919 -28,1.4453 -5.775,0.2533 -13.65,0.6759 -17.5,0.9394 -3.85,0.2635 -18.7,0.7442 -33,1.0684 -14.3,0.3242 -37.1557,1.1258 -50.791,1.7793 -13.6352,0.6535 -25.4513,0.9556 -26.2578,0.6719 -0.8065,-0.2837 -6.0757,-0.1916 -11.709,0.2051 -12.5593,0.8844 -37.5018,1.7903 -64.7422,2.3496 -40.9939,0.8417 -62.5316,1.5356 -64,2.0625 -2.3245,0.8342 -13.5204,1.4055 -24,1.2246 -13.6053,-0.2349 -33.7425,0.1272 -39,0.7011 -4.1977,0.4583 -11.8122,1.0456 -25,1.9297 -3.025,0.2028 -16.075,0.8687 -29,1.4805 -12.925,0.6117 -32.725,1.5603 -44,2.1074 -11.275,0.5472 -29.275,1.2569 -40,1.5762 -10.725,0.3194 -19.77168,0.745 -20.10352,0.9473 -0.33184,0.2023 -7.08184,0.627 -15,0.9433 -7.91816,0.3162 -17.32148,0.7841 -20.89648,1.0391 -3.575,0.2551 -17.075,0.9472 -30,1.539 -49.48275,2.2659 -59.26472,2.7629 -72,3.6504 -5.775,0.4024 -11.4,0.6369 -12.5,0.5215 -1.1,-0.1155 -7.06461,0.281 -13.25391,0.8828 -8.80794,0.8563 -11.57851,0.8257 -12.75,-0.1465 -1.01843,-0.8452 -1.89555,-0.9232 -2.74609,-0.2421 -1.54098,1.234 -9.85742,2.0274 -28.75,2.7402 -22.88688,0.8634 -59.11205,2.5586 -63.5,2.9727 -2.2,0.2074 -13.45,0.6846 -25,1.0605 -24.84134,0.8084 -29.83884,1.0752 -34.5,1.8457 -1.925,0.3182 -13.175,0.8201 -25,1.1152 -11.825,0.2952 -24.2,0.7352 -27.5,0.9766 -8.37026,0.6123 -25.38058,1.3333 -50,2.1211 -11.55,0.3695 -21.45,1.003 -22,1.4082 -0.55,0.4057 -2.8,0.6203 -5,0.4766 -2.2,-0.1437 -8.725,0.1189 -14.5,0.5839 -5.775,0.465 -18.6,1.1016 -28.5,1.4141 -9.9,0.3125 -22.95,0.7933 -29,1.0684 -35.75169,1.6258 -59.21849,2.5774 -84.5,3.4297 -27.45815,0.9256 -46.0867,1.8138 -54.5,2.5976 -2.2,0.205 -14.45404,0.6363 -27.23047,0.957 -12.77643,0.3207 -25.37643,0.7651 -28,0.9883 -4.56787,0.3886 -41.80665,1.9802 -70.26953,3.0039 -7.425,0.2671 -22.725,1.0068 -34,1.6426 -11.275,0.6358 -25.45,1.2885 -31.5,1.4512 -6.05,0.1627 -12.8,0.5074 -15,0.7656 -2.2,0.2583 -16.020293,0.7327 -30.710938,1.0547 l -26.708984,0.5859 -1.246094,-2.2578 c -0.771874,-1.3989 -1.359506,-7.3962 -1.542968,-15.7578 -0.596576,-27.1898 -0.597935,-65.7468 -0.002,-74.9082 0.387114,-5.9493 0.21926,-10.1406 -0.457031,-11.4043 -1.472192,-2.7508 -1.275011,-42.021 0.28711,-57.1875 0.679788,-6.6 1.313653,-18.75 1.408203,-27 z M 793.94141,1222 c 0.58246,0 1.05859,0.45 1.05859,1 0,0.55 -0.19887,1 -0.44141,1 -0.24254,0 -0.71867,-0.45 -1.05859,-1 -0.33992,-0.55 -0.14105,-1 0.44141,-1 z m 734.01949,168.0352 c 0.4155,-0.1286 1.0259,0.1357 1.4961,0.8964 0.3164,0.512 0.1654,1.1843 -0.3359,1.4942 -0.5013,0.3098 -1.1691,-0.1099 -1.4844,-0.9317 -0.3108,-0.8101 -0.091,-1.3304 0.3242,-1.4589 z M 1476.5,1393 c 0.825,0 1.5,0.45 1.5,1 0,0.55 -0.675,1 -1.5,1 -0.825,0 -1.5,-0.45 -1.5,-1 0,-0.55 0.675,-1 1.5,-1 z m 70.5586,4 c 1.1325,0 1.7813,0.45 1.4414,1 -0.3399,0.55 -1.2661,1 -2.0586,1 -0.7926,0 -1.4414,-0.45 -1.4414,-1 0,-0.55 0.9262,-1 2.0586,-1 z m -600.07422,3.5098 c 0.55894,-0.3455 1.01562,0.074 1.01562,0.9316 0,1.7565 -0.5998,2.014 -1.45703,0.627 -0.31644,-0.512 -0.11757,-1.2132 0.44141,-1.5586 z M 1120.5,1424 c 0.825,0 1.5,0.675 1.5,1.5 0,0.825 -0.675,1.5 -1.5,1.5 -0.825,0 -1.5,-0.675 -1.5,-1.5 0,-0.825 0.675,-1.5 1.5,-1.5 z m 550.084,1 c 0.8709,0 1.4052,0.5344 1.1875,1.1875 -0.618,1.8542 -2.7715,2.1625 -2.7715,0.3965 0,-0.8708 0.7132,-1.584 1.584,-1.584 z M 55.5,1427.1016 v 0 c 3.85,0.4945 10.375,1.3367 14.5,1.8711 4.125,0.5344 16.275,1.2587 27,1.6093 10.725,0.3505 19.91257,0.8847 20.41797,1.1875 0.50541,0.3029 4.33041,0.6794 8.5,0.8379 4.1696,0.1585 10.95703,0.5091 15.08203,0.7793 4.125,0.2701 12.79016,0.5653 19.25586,0.6543 6.46569,0.089 12.02108,0.5919 12.3457,1.1172 0.32462,0.5252 3.35945,0.8848 6.74414,0.8008 8.54145,-0.213 27.94265,1.1 29.1543,1.9726 0.55,0.396 8.2,0.8185 17,0.9395 8.8,0.1211 24.325,0.6603 34.5,1.1973 10.175,0.5371 28.175,1.4163 40,1.955 33.29956,1.5172 58.20266,2.9186 61.5,3.459 1.65,0.2704 10.65,0.9701 20,1.5567 9.35,0.5866 17.92923,1.4438 19.06445,1.9043 1.13521,0.4633 2.73107,0.4656 3.54688,0.01 1.64032,-0.918 4.44786,-0.8106 39.88867,1.5196 13.475,0.886 30.575,1.8179 38,2.0703 7.425,0.2523 22.95,0.9609 34.5,1.5761 11.55,0.6151 23.88611,1.2642 27.41406,1.4415 3.52796,0.1773 12.07796,0.7863 19,1.3535 6.92205,0.5672 19.78594,1.2766 28.58594,1.5761 18.48756,0.6292 48.45535,2.4148 50.17383,2.9903 0.64514,0.216 7.62014,0.4786 15.5,0.582 7.87987,0.1033 15.00117,0.5327 15.82617,0.9551 1.49297,0.7643 19.05188,1.7219 45.24805,2.4668 7.56122,0.2151 14.21231,0.6777 14.78125,1.0293 0.56895,0.3516 7.65712,0.8475 15.75195,1.1015 8.09484,0.2539 15.84375,0.73 17.21875,1.0567 2.76759,0.6577 4.45435,0.7705 27.5,1.8574 17.93064,0.8456 25,1.2645 25,1.4805 0,0.08 4.725,0.3251 10.5,0.5429 5.775,0.2178 15.225,0.6787 21,1.0254 5.775,0.3468 15.9,0.6974 22.5,0.7774 6.6,0.08 12.46828,0.4492 13.04102,0.8222 0.57274,0.373 9.57274,0.973 20,1.3321 35.6251,1.2267 49.5046,1.9929 64.45898,3.5625 5.225,0.5485 24.125,1.4379 42,1.9765 17.875,0.5386 40.0035,1.4014 49.1738,1.918 9.1703,0.5165 23.1203,1.17 31,1.4512 7.8797,0.2812 20.6262,0.7747 28.3262,1.0957 7.7,0.3211 17.15,0.7096 21,0.8633 18.9479,0.7567 65.8586,3.723 66.6543,4.2148 0.4976,0.3075 8.4287,0.7164 17.625,0.9082 15.2488,0.318 32.897,1.109 76.2207,3.416 8.525,0.454 15.8564,0.6193 16.293,0.3672 0.4366,-0.2521 1.3693,0.018 2.0722,0.6016 0.703,0.5834 7.0966,1.3323 14.2071,1.664 7.1105,0.3317 13.884,1.0636 15.0527,1.627 1.3969,0.6734 2.7674,0.6897 4,0.049 1.9729,-1.0263 4.2081,-0.9775 8.4199,0.1836 2.0812,0.5736 15.3305,1.3787 27.9551,1.6973 11.113,0.2804 23,1.2682 23,1.9121 0,1.0893 -5.6792,2.9653 -6.498,2.1465 -0.9099,-0.9098 -120.5251,-1.6794 -215.502,-1.3868 -15.125,0.047 -36.725,0 -48,-0.098 -21.9127,-0.1956 -85.8513,1.1075 -86.9258,1.7715 -0.3549,0.2194 -42.479,0.6689 -93.60936,1 -51.13033,0.3311 -99.14925,0.6671 -106.70898,0.7461 -7.55974,0.079 -14.01657,-0.1279 -14.34766,-0.459 -0.45161,-0.4516 -14.79125,-0.065 -18.39453,0.4961 -0.28248,0.044 -1.30784,-0.2676 -2.27734,-0.6914 -0.96951,-0.4239 -2.31951,-0.3334 -3,0.2011 -0.7837,0.6155 -33.67988,0.9062 -89.73633,0.7911 -48.675,-0.1 -88.95,0.1366 -89.5,0.5273 -0.55,0.3907 -5.275,0.3472 -10.5,-0.1 -5.225,-0.4464 -11.975,-0.6277 -15,-0.4043 -7.74847,0.5723 -24.82238,0.4426 -26.5,-0.2012 -0.77217,-0.2985 -1.79788,-0.2975 -2.2793,0 -0.8943,0.5527 -92.22826,2.2025 -106.7207,1.9278 -4.4,-0.084 -20.6,-0.1075 -36,-0.057 -15.4,0.051 -30.25,0.039 -33,-0.02 -61.53329,-1.3136 -148.03802,-1.702 -176.5,-0.793 -23.46759,0.7499 -22.33708,0.7518 -28.3418,-0.022 -3.02474,-0.3887 -5.25706,-0.2058 -5.94922,0.4864 -1.2744,1.2744 -2.09358,1.3908 -3.05273,0.4316 -0.80327,-0.8032 -29.23335,-1.489 -53.15625,-1.2812 -20.28671,0.1761 -37.59573,0.1237 -46.5,-0.1426 -3.575,-0.1069 -8.427928,0.012 -10.783203,0.2636 -2.355275,0.2519 -5.938736,-0.114 -7.964844,-0.8105 -2.448027,-0.8416 -4.936237,-0.9835 -7.417969,-0.4258 -2.054005,0.4615 -3.990067,0.5842 -4.300781,0.2735 -0.310713,-0.3107 -3.81993,-0.6367 -7.798828,-0.7246 -3.978899,-0.088 -8.220969,-0.4791 -9.425781,-0.8672 l -2.189453,-0.7051 0.49414,-38.7012 c 0.360087,-28.1524 0.821737,-39.0144 1.691407,-39.8476 0.854109,-0.8183 3.194452,-0.8885 8.195312,-0.2461 z M 991.39258,1445 c 1.50843,0 2.84424,2.4292 1.87109,3.4023 -1.35565,1.3557 -3.26367,0.1466 -3.26367,-2.0683 0,-0.7333 0.62643,-1.334 1.39258,-1.334 z m -93.42383,9.5293 c 0.55113,0.1273 1.03125,0.5015 1.03125,1.0293 0,0.2426 -0.70113,0.4414 -1.55859,0.4414 -0.8575,0 -1.2771,-0.4566 -0.93164,-1.0156 0.2854,-0.4618 0.90785,-0.5824 1.45898,-0.4551 z m 526.53125,1.2266 c 1.375,0.2629 2.5,0.6504 2.5,0.8613 0,0.2109 -1.125,0.3828 -2.5,0.3828 -1.375,0 -2.5,-0.3876 -2.5,-0.8613 0,-0.4735 1.125,-0.6456 2.5,-0.3828 z m 100.6094,4.8105 c 0.7993,0.494 -0.9865,7.2866 -2.4141,9.1836 -0.9866,1.3112 -2.6953,1.7009 -2.6953,0.6152 0,-0.3487 0.5405,-2.4862 1.2012,-4.75 1.197,-4.1012 2.571,-5.8752 3.9082,-5.0488 z m -266.9766,4.5039 c 0.5001,0.1766 0.8672,0.828 0.8672,1.8711 0,1.0675 -0.4539,2.2201 -1.0078,2.5625 -1.2211,0.7547 -2.4286,-1.9874 -1.5215,-3.4551 0.5293,-0.8563 1.162,-1.1551 1.6621,-0.9785 z m -325.63475,1.8067 c 0.45495,0.2411 1.01434,0.7748 1.65234,1.5859 1.14674,1.4578 1.80658,3.4849 1.55664,4.7832 -0.2718,1.4118 -0.48501,1.615 -0.57031,0.543 -0.0749,-0.9411 -1.0837,-2.5946 -2.24219,-3.6739 -1.1585,-1.0793 -1.79921,-2.4617 -1.42187,-3.0722 0.21993,-0.3559 0.57044,-0.4072 1.02539,-0.166 z M 1720,1493 c 0.55,0 1,0.45 1,1 0,0.55 -0.45,1 -1,1 -0.55,0 -1,-0.45 -1,-1 0,-0.55 0.45,-1 1,-1 z m -206.4414,6 c 0.858,0 1.2813,0.45 0.9414,1 -0.3399,0.55 -1.0411,1 -1.5586,1 -0.5176,0 -0.9414,-0.45 -0.9414,-1 0,-0.55 0.7012,-1 1.5586,-1 z m 483.4609,9.4648 c 0.1904,0.683 0.3744,1.3679 0.5703,2.0469 0.037,0.011 0.071,0.026 0.1075,0.037 L 1997.5,1508.5 Z M 38.457031,1550.8535 c -0.03103,0.4006 -0.02593,0.3916 -0.05664,0.7891 0.315834,-0.1896 0.626898,-0.387 0.945312,-0.5723 -0.280569,-0.066 -0.5922,-0.1454 -0.888672,-0.2168 z" />
    <rect
       style="fill:#000000"
       id="rect1"
       width="477.09811"
       height="131.75095"
       x="1437.283"
       y="301.43018" />
    <rect
       style="fill:#000000"
       id="rect2"
       width="513.03021"
       height="143.7283"
       x="1403.3472"
       y="85.837738" />
    <rect
       style="fill:#000000"
       id="rect3"
       width="495.06415"
       height="115.78114"
       x="1393.3661"
       y="1385.3811" />
    <rect
       style="fill:#000000"
       id="rect4"
       width="301.43018"
       height="61.883018"
       x="914.27173"
       y="1401.351" />
    <rect
       style="fill:#000000"
       id="rect5"
       width="159.69812"
       height="39.92453"
       x="662.74719"
       y="1187.7548" />
    <rect
       style="fill:#000000"
       id="rect6"
       width="217.58868"
       height="49.905659"
       x="766.55096"
       y="986.13586" />
    <rect
       style="fill:#000000"
       id="rect7"
       width="155.70566"
       height="71.864151"
       x="1199.7321"
       y="568.9245" />
    <rect
       style="fill:#000000"
       id="rect8"
       width="171.67548"
       height="67.871696"
       x="934.23395"
       y="125.76226" />
  </g>
</svg>
