<?xml version="1.0" encoding="UTF-8" standalone="no"?>
<!-- Created with Inkscape (http://www.inkscape.org/) -->

<svg
   version="1.1"
   id="svg1"
   width="753"
   height="509"
   viewBox="0 0 753 509"
   sodipodi:docname="4.svg"
   inkscape:version="1.4 (86a8ad7, 2024-10-11)"
   xmlns:inkscape="http://www.inkscape.org/namespaces/inkscape"
   xmlns:sodipodi="http://sodipodi.sourceforge.net/DTD/sodipodi-0.dtd"
   xmlns="http://www.w3.org/2000/svg"
   xmlns:svg="http://www.w3.org/2000/svg">
  <defs
     id="defs1" />
  <sodipodi:namedview
     id="namedview1"
     pagecolor="#ffffff"
     bordercolor="#000000"
     borderopacity="0.25"
     inkscape:showpageshadow="2"
     inkscape:pageopacity="0.0"
     inkscape:pagecheckerboard="0"
     inkscape:deskcolor="#d1d1d1"
     inkscape:zoom="1.1044202"
     inkscape:cx="295.1775"
     inkscape:cy="207.34861"
     inkscape:window-width="1920"
     inkscape:window-height="1013"
     inkscape:window-x="2391"
     inkscape:window-y="605"
     inkscape:window-maximized="1"
     inkscape:current-layer="g1" />
  <g
     inkscape:groupmode="layer"
     inkscape:label="Image"
     id="g1">
    <path
       id="path1"
       style="fill:#000000"
       d="M 24,2.875 C 22.712063,2.9074915 21.423957,2.9420654 20.136719,2.9941406 20.017161,3.9099763 19.622022,4.6016671 18.75,4.7832031 17.637759,5.0147476 17.235725,4.4491321 17.115234,3.1503906 14.651738,3.3178311 12.192807,3.5718335 9.7246094,3.6171875 9.464602,4.5938612 9.0427755,5.5490716 8.4453125,6.0449219 4.6290747,9.212118 4.6125616,9.5557912 4.3261719,94 4.1722841,139.375 4.0813139,185.275 4.1230469,196 4.3042395,242.56482 3.9812233,268.87707 3.203125,270.98047 2.7433721,272.2233 2.7264942,275.77251 3.1660156,278.86914 3.605537,281.96578 3.9731214,301.6 3.9824219,322.5 c 0.0093,20.9 0.2261418,47.45 0.4824219,59 0.6642359,29.9357 0.8254417,52.51696 0.4003906,56 -0.2118233,1.73577 -0.8353191,2.50016 -1.8300782,2.92578 -0.031157,0.48319 -0.058806,0.96586 -0.085937,1.44922 -0.037766,0.62844 -0.060474,1.25779 -0.080078,1.88672 1.709606,1.6529 3.1768715,6.27544 2.1679688,8.20508 -0.4407243,0.84293 -0.4660062,5.5832 -0.054687,10.5332 0.4113177,4.95 0.4238513,11.475 0.027344,14.5 -0.3965083,3.025 -0.3536084,6.78715 0.095703,8.35938 0.4493118,1.57229 0.7689316,5.64161 0.7109374,9.04492 -0.1151153,6.75539 1.2973093,10.55196 3.96875,10.67187 0.9431488,0.0423 3.2898438,0.23695 5.2148438,0.43164 13.917205,1.4076 74.92541,2.35903 120,1.8711 29.425,-0.31851 59.575,-0.42114 67,-0.22852 7.425,0.1926 24.075,0.23581 37,0.0977 12.925,-0.1382 46,-0.17163 73.5,-0.0762 27.5,0.0955 56.75,0.0559 65,-0.0859 23.4868,-0.40367 47.88106,-0.14747 55.74609,0.45312 0.65205,-0.22413 1.36046,-0.41352 2.18555,-0.51758 2.56366,-0.32331 5.14359,-0.48672 7.72266,-0.62695 2.53864,-0.13119 5.0816,-0.17077 7.62304,-0.20117 2.59778,-0.0274 5.19507,-0.0321 7.79297,-0.0371 2.55109,0.11571 5.08877,0.41332 7.63477,0.60352 1.49014,0.0998 2.98159,0.14995 4.47461,0.17968 1.19316,-0.0399 2.19486,-0.004 3.32031,0.0391 0.40746,0.003 0.8153,0.01 1.22266,0.0137 4.72127,-0.0135 9.43352,0.33374 14.14648,0.57226 1.11003,0.0959 2.22,0.18867 3.33008,0.28125 0.51955,-0.0107 1.03899,-0.0298 1.55859,-0.043 1.38401,-0.47063 5.23996,-0.99707 10.45117,-1.27148 3.98953,-0.21008 6.27172,-0.0889 8.81836,-0.0195 1.08872,-0.0835 2.17826,-0.15943 3.26563,-0.26563 3.18153,-0.3694 6.35638,-0.78558 9.56055,-0.91992 2.87551,-0.1409 5.7544,-0.0729 8.63281,-0.0918 2.62802,-0.005 5.25488,-0.0117 7.88281,-0.0352 2.69839,-0.0278 5.39842,-0.0621 8.0957,-0.14844 2.31072,-0.076 4.62522,-0.19456 6.9375,-0.14844 0.77077,0.0154 1.54081,0.0499 2.31055,0.10938 1.0975,0.14206 2.19192,0.31149 3.2832,0.50195 2.66224,-0.71183 6.07039,-3.45516 9.42383,-7.73242 2.27726,-2.90462 6.83101,-8.20625 10.11914,-11.78125 20.76676,-22.57853 29.55356,-32.44285 31.00586,-34.80859 0.90884,-1.48047 5.72583,-6.81119 10.70313,-11.84766 4.9773,-5.03647 9.45161,-9.87715 9.94336,-10.75586 0.49175,-0.87871 4.92493,-5.80284 9.85156,-10.94141 4.92664,-5.13858 10.53203,-11.20913 12.45703,-13.49023 1.925,-2.2811 6.45804,-7.1872 10.07422,-10.90234 3.61618,-3.71515 8.34118,-8.97388 10.5,-11.6875 2.15882,-2.71361 4.82578,-5.91822 5.92578,-7.1211 1.1,-1.20288 3.05595,-3.48289 4.3457,-5.0664 1.28974,-1.5835 4.00914,-4.67891 6.04492,-6.87891 2.03582,-2.2 6.79952,-7.6 10.58594,-12 3.78641,-4.4 7.1639,-8.225 7.50391,-8.5 1.98438,-1.605 10.3477,-15.61437 11.19922,-18.75977 0.55689,-2.0571 1.84848,-4.64862 2.87109,-5.75781 1.67885,-1.82098 3.5424,-4.97389 8.26172,-13.98242 6.55505,-12.51269 12.37747,-26.79239 13.11328,-32.16211 0.31365,-2.28895 1.47169,-6.2658 2.57422,-8.83789 1.10253,-2.57209 2.28808,-6.45105 2.63477,-8.61914 1.05016,-6.56732 -1.62963,-28.49203 -4.69141,-38.38086 -1.53262,-4.95 -3.5421,-11.7 -4.46484,-15 -0.92273,-3.3 -1.97865,-6.225 -2.34766,-6.5 -0.369,-0.275 -1.24333,-1.625 -1.94141,-3 -2.99717,-5.90349 -4.42158,-7.7675 -12.39257,-16.20117 -1.48708,-1.57337 -3.72402,-4.30945 -4.97071,-6.08008 C 716.25816,160.8106 709.09406,152.73549 688.875,131.57422 683.58102,126.03355 677.10149,119.025 674.47656,116 670.04584,110.894 663.49366,103.96465 648.5,88.529297 628.9546,68.408102 609.55241,47.746329 605.59766,42.839844 c -2.50948,-3.11341 -4.90781,-5.81341 -5.33008,-6 C 599.8453,36.653254 597.51533,34.25 595.08984,31.5 591.09353,26.969005 577.28392,11.993523 571.72656,6.1640625 L 569.5,3.828125 522,4.3125 c -73.73887,0.7515336 -233.07634,1.251427 -241,0.7558594 -0.825,-0.051598 -2.4,-0.087778 -3.5,-0.080078 -1.1,0.0077 -24.725,0.2056815 -52.5,0.4414063 C 177.86304,5.8297358 164.9627,5.8453652 106,5.5683594 93.625,5.5102219 81.925,5.7236728 80,6.0429688 78.075,6.3622647 75.484386,6.1834245 74.242188,5.6464844 72.662104,4.9634941 71.272767,5.051461 69.617188,5.9375 67.889757,6.8619924 66.712709,6.9171715 65.261719,6.140625 64.079472,5.5079058 55.316265,5.0180387 43.636719,4.9335938 L 24,4.7929688 Z m 420.78516,10.197266 c 0.81242,0.01377 1.49611,0.245487 2.22265,0.699218 1.38664,0.865974 2.68059,0.916724 4.61914,0.179688 1.61791,-0.615128 10.91602,-0.910233 23.28321,-0.738281 16.84669,0.234234 20.81184,0.559782 21.80859,1.787109 0.87962,1.083108 1.227,1.143781 1.25,0.220703 0.0251,-1.008104 5.79237,-1.258597 27.28125,-1.185547 14.9875,0.05095 29.10657,-0.208533 31.375,-0.578125 2.6315,-0.428749 4.37179,-0.271216 4.80859,0.435547 0.37654,0.609249 2.17621,1.107422 4,1.107422 2.81009,0 3.40475,0.419539 3.89649,2.75 0.39489,1.87145 3.10374,4.795486 8.48047,9.154297 4.34545,3.522778 8.71236,7.910278 9.70312,9.75 C 588.50442,38.49402 589.62638,40 590.00586,40 590.67512,40 609,57.906572 609,58.560547 c 0,0.179159 4.3875,4.822782 9.75,10.318359 20.21792,20.719653 46.4901,48.523984 55.75,59.001954 2.2,2.48939 7.31919,7.9219 11.375,12.07226 4.05581,4.15039 12.53526,13.26097 18.84375,20.24415 6.30849,6.98319 12.51366,13.37916 13.78906,14.21484 1.27541,0.83567 2.602,2.81366 2.94922,4.39453 0.34721,1.58086 2.3971,4.59825 4.55469,6.70508 4.34128,4.23914 7.81502,10.88202 10.45117,19.98828 0.95531,3.3 2.21495,6.9 2.80078,8 0.58583,1.1 1.19403,2.9 1.34961,4 0.15557,1.1 0.74096,4.6476 1.30274,7.88281 0.56178,3.23521 0.97772,10.789 0.92382,16.78711 -0.0539,5.9981 0.15117,11.15508 0.45508,11.45899 0.30391,0.30392 -0.088,2.36846 -0.87109,4.58789 -0.78306,2.21942 -1.42383,5.68813 -1.42383,7.70898 0,2.02085 -0.4152,4.1025 -0.92188,4.625 -0.50666,0.5225 -1.86339,3.7683 -3.01562,7.21484 -2.68418,8.02885 -10.64615,24.64465 -12.57812,26.24805 C 723.66805,304.69115 723,306.0623 723,307.0625 c 0,1.00019 -0.46372,2.10628 -1.03125,2.45703 -1.08947,0.67333 -3.24286,5.17995 -7.08594,14.82617 -1.74365,4.37659 -4.65943,8.33056 -11.60547,15.73828 C 698.17522,345.52523 694,350.56074 694,351.27539 c 0,0.71465 -2.28361,3.5324 -5.07422,6.26172 -2.79061,2.72933 -8.25485,8.69423 -12.14258,13.25391 -5.70708,6.6935 -15.77985,17.62656 -21.84375,23.70898 -0.54832,0.55 -2.83029,3.25 -5.07031,6 -6.88029,8.4467 -15.939,18.37583 -25.61914,28.08203 -5.0875,5.10119 -9.25,9.67655 -9.25,10.16602 0,1.25367 -14.91296,17.64153 -16.62891,18.27343 -0.77751,0.28633 -2.24271,1.86133 -3.25586,3.5 -2.3613,3.8192 -12.97479,15.44026 -24.86718,27.22852 -7.64468,7.57775 -9.91302,9.27349 -12.54102,9.38281 -1.76437,0.0734 -5.23203,0.2425 -7.70703,0.375 -25.43119,1.36144 -44.96606,1.72403 -95.5,1.76953 -32.45,0.0292 -61.025,-0.0943 -63.5,-0.27343 -2.475,-0.17918 -5.47481,-0.0109 -6.66602,0.375 -1.19122,0.3859 -2.41931,0.29326 -2.72851,-0.20703 -0.3092,-0.50032 -4.2844,-1.22505 -8.83399,-1.60938 -4.54958,-0.38433 -9.29955,-0.94577 -10.55664,-1.24805 -3.31497,-0.79714 -5.08507,-5.80315 -4.37695,-12.38281 0.32151,-2.98732 0.57736,-7.90664 0.56836,-10.93164 -0.009,-3.025 -0.11015,-21.25 -0.22461,-40.5 -0.11446,-19.25 -0.16222,-64.475 -0.10742,-100.5 0.0947,-62.22963 0.13343,-191.5456 0.0664,-221.40625 -0.0228,-10.17417 -0.3746,-14.120028 -1.30859,-14.697266 -1.00186,-0.619186 -0.95981,-0.909721 0.19531,-1.353515 1.21342,-0.466193 1.44664,-3.155224 1.32422,-15.304688 C 358.26989,71.132235 357.98977,60.675 357.72852,56 c -0.26125,-4.675 -0.092,-11.2 0.37695,-14.5 0.46892,-3.3 1.1357,-10.5 1.48047,-16 0.34477,-5.5 0.85262,-10.373744 1.1289,-10.830078 0.27629,-0.45633 14.51463,-0.774131 31.64258,-0.707031 17.12795,0.06711 32.04258,0.07426 33.14258,0.01563 1.1,-0.05866 4.475,0.102361 7.5,0.357422 3.025,0.25506 6.9814,-0.03918 8.79102,-0.652344 1.24069,-0.420393 2.18171,-0.625096 2.99414,-0.611328 z M 112.5,13.660156 c 15.95,-0.10518 35.525,0.04066 43.5,0.324219 7.975,0.283556 16.19713,0.237299 18.27148,-0.103516 2.07434,-0.340815 4.03131,-0.198617 4.34961,0.316407 0.32388,0.524047 6.41347,0.839292 13.82813,0.716796 7.28698,-0.120385 13.7321,0.08058 14.32226,0.445313 0.59015,0.364736 3.19577,0.582535 5.79102,0.484375 8.16344,-0.308779 7.75851,-3.615753 6.93945,56.65625 -0.39613,29.15 -0.66064,53.9 -0.58984,55 0.0708,1.1 0.23091,83.85508 0.35742,183.90039 0.17364,137.3071 -0.055,182.2927 -0.93555,183.5 -0.93552,1.28273 -4.20235,1.74856 -16.5,2.34961 -8.43343,0.41218 -18.93398,0.96865 -23.33398,1.23633 -4.4,0.26769 -9.39719,0.0296 -11.10547,-0.5293 -2.04345,-0.6685 -3.98524,-0.68303 -5.67383,-0.041 -1.9419,0.73832 -2.85978,0.62081 -3.77539,-0.48243 -0.97968,-1.18045 -1.49849,-1.21908 -2.72265,-0.20312 -1.1744,0.97467 -14.48947,1.25572 -59.617191,1.26172 -57.851149,0.007 -70.636387,-0.58447 -74.044922,-3.43164 -1.403429,-1.17229 -2.094648,-1.20885 -3.720703,-0.19336 -3.408117,2.1284 -4.626224,0.0267 -3.746094,-6.45899 0.419486,-3.09124 0.584443,-6.13427 0.367188,-6.76367 -0.398753,-1.15519 -1.729632,-52.36959 -1.517579,-58.39453 0.274034,-7.78596 0.233894,-16.99891 -0.310547,-73.25 -0.316736,-32.725 -0.518698,-62.65 -0.449218,-66.5 0.06948,-3.85 0.0779,-8.125 0.01953,-9.5 -0.05837,-1.375 -0.102148,-13.975 -0.09766,-28 0.0045,-14.025 -0.05615,-26.4 -0.134766,-27.5 -0.07862,-1.1 -0.128018,-2.9 -0.111328,-4 0.01668,-1.1 0.01524,-29.9 -0.002,-64 -0.03303,-65.862003 -0.0329,-64.66705 0.0098,-68.5 0.01528,-1.375 0.09327,-9.475 0.173828,-18 0.08057,-8.525 0.289628,-18.2 0.464843,-21.5 0.175215,-3.3 0.35819,-11.016882 0.40625,-17.148438 L 13,14.203125 34.75,13.972656 c 11.9625,-0.126522 23.1,-0.120205 24.75,0.01367 1.65,0.133881 3.9,0.184478 5,0.111328 2.157269,-0.143456 15.039363,-0.354809 17.5,-0.287109 0.825,0.0227 14.55,-0.04521 30.5,-0.150391 z m 176.75781,1.140625 c 8.38288,-0.165011 16.27127,0.03276 17.5293,0.439453 l 2.28711,0.738282 -0.52539,159.761714 C 308.26007,263.60854 308.10684,336.625 308.20703,338 c 0.42257,5.79901 0.0748,74.72281 -0.50976,101 -0.3487,15.675 -0.71119,34.45876 -0.80469,41.74219 -0.10652,8.2989 -0.58476,13.58275 -1.28125,14.15429 -0.86836,0.7126 -21.25468,2.0679 -21.94727,1.45899 -0.0907,-0.0797 -2.41406,-0.44192 -5.16406,-0.80469 -9.45266,-1.24698 -8.65799,3.85412 -8.50391,-54.55273 0.0747,-28.32378 0.29459,-91.77305 0.48829,-140.99805 0.19369,-49.225 0.3082,-124.375 0.2539,-167 -0.13251,-103.986517 0.0168,-111.805307 2.2168,-115.916016 0.97601,-1.823705 2.2928,-2.007427 16.30273,-2.283203 z" />
  </g>
</svg>
