<?xml version="1.0" encoding="UTF-8" standalone="no"?>
<!-- Created with Inkscape (http://www.inkscape.org/) -->

<svg
   version="1.1"
   id="svg1"
   width="734"
   height="508"
   viewBox="0 0 734 508"
   sodipodi:docname="5.svg"
   inkscape:version="1.4 (86a8ad7, 2024-10-11)"
   xmlns:inkscape="http://www.inkscape.org/namespaces/inkscape"
   xmlns:sodipodi="http://sodipodi.sourceforge.net/DTD/sodipodi-0.dtd"
   xmlns="http://www.w3.org/2000/svg"
   xmlns:svg="http://www.w3.org/2000/svg">
  <defs
     id="defs1" />
  <sodipodi:namedview
     id="namedview1"
     pagecolor="#ffffff"
     bordercolor="#000000"
     borderopacity="0.25"
     inkscape:showpageshadow="2"
     inkscape:pageopacity="0.0"
     inkscape:pagecheckerboard="0"
     inkscape:deskcolor="#d1d1d1"
     inkscape:zoom="1.1065943"
     inkscape:cx="466.29556"
     inkscape:cy="297.76044"
     inkscape:window-width="1920"
     inkscape:window-height="1013"
     inkscape:window-x="2391"
     inkscape:window-y="605"
     inkscape:window-maximized="1"
     inkscape:current-layer="g1" />
  <g
     inkscape:groupmode="layer"
     inkscape:label="Image"
     id="g1">
    <path
       style="fill:#000000"
       d="m 549.78071,506.84213 c -0.43715,-1.31145 -24.02287,-1.64156 -113.78071,-1.5925 -31.625,0.0173 -93.95,-0.13985 -138.5,-0.34919 -81.73958,-0.38411 -132.11071,-0.21575 -133.3345,0.44564 C 163.79947,505.5439 147.3,505.36245 127.5,504.94286 107.7,504.52328 72.833755,503.88348 50.019456,503.5211 27.205157,503.15872 8.0441183,502.45158 7.4393707,501.94968 6.834623,501.44779 5.4758679,499.23395 4.4199148,497.03005 3.3639616,494.82614 1.9375,493.01778 1.25,493.01147 0.5625,493.00516 0,492.325 0,491.5 0,490.675 0.675,490 1.5,490 2.8046056,490 3.0136989,485.14771 3.1051637,452.75 3.3379159,370.3069 3.3314584,352.14019 3.0665077,344 2.9143437,339.325 3.1111185,281.5 3.5037851,215.5 3.8964517,149.5 4.1553324,84.7 4.0790755,71.5 4.0028186,58.3 3.9640964,47.05 3.9930261,46.5 4.0219558,45.95 4.314311,36.58262 4.6427044,25.6836 5.1832725,7.7427314 5.4177268,5.7560731 7.1198916,4.6930535 8.1539512,4.0472726 9,2.7271525 9,1.7594532 9,0.66666667 9.7578112,0 11,0 c 1.333333,0 2,0.66666667 2,2 0,1.3333333 0.666667,2 2,2 1.333333,0 2,-0.6666667 2,-2 0,-1.61904762 0.666667,-2 3.5,-2 2.833333,0 3.5,0.38095238 3.5,2 0,1.7079396 0.693644,2.0118183 4.75,2.0809306 2.6125,0.044512 25.225,0.2651827 50.25,0.4903796 25.025,0.2251969 46.48127,0.6395135 47.6806,0.9207036 1.19933,0.2811901 3.39977,0.04773 4.88986,-0.5188011 2.16437,-0.8228936 3.09026,-0.6852445 4.60372,0.6844215 1.751,1.5846284 3.61489,1.6294589 24.61015,0.5919257 C 173.27795,5.6321566 184.4,5.0870057 185.5,5.0381136 c 1.1,-0.048892 35.075,-0.3013377 75.5,-0.5609902 40.425,-0.2596525 76.2,-0.5504902 79.5,-0.646306 3.3,-0.095816 14.55,-0.1257355 25,-0.066488 10.45,0.059247 22.6,-0.078754 27,-0.3066689 11.73867,-0.6080506 11.36225,-0.5999138 32.5,-0.7025394 20.57833,-0.09991 21.05959,-0.098927 36,0.073494 5.225,0.0603 20.8975,-0.00187 34.82778,-0.1381489 13.93028,-0.1362817 25.53243,0.083347 25.78256,0.488063 0.25013,0.4047163 1.67763,0.7350254 3.17222,0.7340201 20.44425,-0.013751 22.11177,0.1461162 24.79412,2.3770375 C 556.25235,11.841759 578,34.121564 578,35.408406 c 0,0.790761 1.26178,2.709863 2.80396,4.264671 1.54218,1.554808 4.9695,5.526923 7.61627,8.826923 2.64678,3.3 9.61918,10.725 15.49424,16.5 5.87505,5.775 12.62998,13.145781 15.01095,16.379513 2.38096,3.233732 6.40927,8.023272 8.9518,10.643421 2.54253,2.620149 5.72679,6.231037 7.07613,8.024196 1.34935,1.79316 3.93685,4.13557 5.75,5.20535 1.81316,1.06979 3.29665,2.38956 3.29665,2.93282 0,1.94917 6.53623,10.04063 9.24033,11.43898 1.51782,0.78489 2.75967,2.01058 2.75967,2.72375 0,0.71316 2.1375,3.29147 4.75,5.72957 2.6125,2.4381 6.85591,7.02051 9.4298,10.18314 2.57389,3.16264 6.07755,6.92637 7.78592,8.36387 1.70836,1.43749 3.75163,3.86192 4.5406,5.38761 0.78897,1.52569 3.71444,4.44763 6.50105,6.49319 2.78662,2.04556 5.92893,5.35617 6.98292,7.3569 1.05399,2.00073 3.10499,4.73846 4.55778,6.08384 1.45278,1.34539 4.16741,4.72039 6.0325,7.5 6.62755,9.87729 10.3798,15.08881 12.74525,17.70194 1.3184,1.45644 3.39423,4.83144 4.61296,7.5 1.21872,2.66855 2.81532,5.97736 3.54799,7.35291 5.64081,10.59032 6.68498,50.41171 1.6546,63.10097 -0.52286,1.31892 -1.53375,5.09803 -2.24642,8.39803 -0.71268,3.3 -2.38492,8.925 -3.7161,12.5 -1.33118,3.575 -3.06134,8.25297 -3.84479,10.3955 -0.78346,2.14252 -2.07913,4.83015 -2.87927,5.9725 -0.80013,1.14236 -1.45776,2.98938 -1.46138,4.10451 -0.004,1.11512 -0.90066,3.37749 -1.99341,5.02749 -1.09275,1.65 -1.98979,3.71375 -1.99341,4.58611 -0.0115,2.77965 -17.81182,24.68602 -34.00659,41.85111 -2.475,2.6233 -6.3,7.18761 -8.5,10.14293 -4.15161,5.57697 -11.61373,13.87957 -28.85476,32.10474 -5.55935,5.87669 -10.52258,11.61419 -11.02939,12.75 C 628.10904,424.0707 627.3783,425 626.99199,425 c -0.62857,0 -6.36252,5.70667 -19.99199,19.89688 -4.65929,4.85098 -17.5447,19.10386 -24.45716,27.05268 -2.17643,2.50274 -6.51982,7.25044 -9.65198,10.55044 -3.13215,3.3 -7.87642,8.50604 -10.54284,11.56898 -11.04313,12.68537 -12.20346,13.86471 -12.56731,12.77315 z m -419.96443,-9.19286 c 14.76966,0.82188 78.84492,1.04171 82.18372,0.28195 2.09813,-0.47744 2.6285,-1.36155 3.29938,-5.50005 0.78262,-4.82775 1.00253,-11.41355 0.74902,-22.43117 -0.0696,-3.025 -0.0438,-28.45 0.0572,-56.5 0.17535,-48.65819 -0.59699,-77.06761 -2.12077,-78.00936 -2.82313,-1.74479 -173.130295,-3.75486 -175.847618,-2.07546 -0.673669,0.41635 -1.768267,0.306 -2.432442,-0.24521 -1.160313,-0.96298 -12.750636,-1.52994 -19.4048,-0.94923 -5.756521,0.50237 -5.71787,0.30071 -6.144001,32.05517 -0.4927299,36.71723 -0.4892209,34.083 -0.112538,84.48168 0.275772,36.89714 0.515038,42.43074 1.886188,43.62256 1.646004,1.43072 17.375427,2.57665 42.570351,3.10135 31.500986,0.65603 56.03552,1.71881 57.40782,2.48679 0.81781,0.45767 2.55293,0.42683 3.85583,-0.0685 1.3029,-0.49536 7.62658,-0.60808 14.05263,-0.25049 z M 212.5,340 c 0.33992,-0.55 0.81648,-1 1.05902,-1 0.24254,0 0.44098,0.45 0.44098,1 0,0.55 -0.47656,1 -1.05902,1 -0.58246,0 -0.7809,-0.45 -0.44098,-1 z m 304,158.09222 c 3.3,0.0174 8.78364,0.26732 12.18586,0.55532 3.40222,0.288 6.92243,0.11143 7.82269,-0.39239 0.90026,-0.50381 3.74162,-0.59601 6.31414,-0.20489 4.16898,0.63384 5.11741,0.39528 8.72677,-2.19507 2.2272,-1.5984 4.82998,-4.22751 5.78395,-5.84246 0.95398,-1.61495 5.01333,-6.21598 9.02078,-10.2245 4.00746,-4.00853 9.27968,-9.72403 11.71605,-12.70113 9.01705,-11.01828 15.62579,-18.38604 28.08865,-31.31469 3.66239,-3.79926 9.04263,-9.6484 11.95609,-12.99807 2.91345,-3.34967 9.81695,-10.63172 15.3411,-16.18232 9.92924,-9.9768 21.70734,-22.76568 29.18829,-31.6932 2.1206,-2.53065 7.00563,-8.22098 10.85563,-12.64519 8.31772,-9.55826 12.8609,-15.16942 13.375,-16.51912 0.20625,-0.54148 1.21875,-1.82826 2.25,-2.85951 1.03125,-1.03125 1.875,-2.4949 1.875,-3.25256 0,-0.75765 0.675,-1.93775 1.5,-2.62244 3.64013,-3.02104 1.64702,-3.50347 -13.03165,-3.1543 -9.4896,0.22573 -14.98734,-0.0315 -15.84259,-0.74133 -0.72038,-0.59786 -1.62042,-0.77637 -2.0001,-0.3967 -0.37968,0.37968 -68.82111,0.72111 -152.09207,0.75874 -83.27097,0.0376 -151.76892,0.43553 -152.21767,0.88422 -0.44876,0.44869 -0.89869,18.89085 -0.99986,40.98258 -0.10116,22.09174 -0.4016,57.04179 -0.66764,77.66679 -0.26603,20.625 -0.25527,38.67489 0.0239,40.11087 0.47879,2.4626 0.94264,2.65136 8.16764,3.32389 4.21301,0.39217 30.8101,0.91736 59.10465,1.1671 28.29455,0.24974 51.65243,0.66186 51.90639,0.91583 0.25397,0.25397 8.37889,0.255 18.05537,0.002 9.67649,-0.25271 20.29361,-0.4452 23.59361,-0.42777 z M 306,187.55902 c 0,-0.24254 -0.45,-0.7191 -1,-1.05902 -0.55,-0.33992 -1,-0.14148 -1,0.44098 0,0.58246 0.45,1.05902 1,1.05902 0.55,0 1,-0.19844 1,-0.44098 z M 74.833546,174.44606 c 3.692671,-1.07349 5.75978,-1.25273 6.45296,-0.55955 0.56219,0.56219 1.736486,0.66723 2.61669,0.23407 2.412275,-1.18711 17.296644,-1.41527 18.000794,-0.27593 0.38403,0.62137 21.3916,1.25563 56.33046,1.70072 l 55.71804,0.70979 1.01786,-2.67716 c 0.65271,-1.71677 1.02035,-26.24628 1.02481,-68.37758 0.004,-36.135232 0.0946,-67.95042 0.20169,-70.70042 0.46832,-12.025465 0.22794,-17.476097 -0.81676,-18.520373 -0.80843,-0.808098 -27.09165,-1.154966 -94.5,-1.247146 C 28.256073,14.60582 15.771571,14.822337 14.020828,16.585731 13.521588,17.088579 12.863208,33.025 12.557762,52 c -1.358828,84.41359 -1.572832,108.86657 -0.998974,114.14708 0.601146,5.5316 0.698836,5.67875 4.777454,7.19588 5.463744,2.03236 6.5076,2.11225 31.613993,2.41979 17.178608,0.21042 22.532185,-0.0518 26.883311,-1.31669 z M 514.5,174.75089 c 39.6,-0.19743 93.07216,0.0319 118.82702,0.50961 42.67941,0.79165 47.04932,0.72293 49.33677,-0.77586 1.38035,-0.90445 2.75486,-1.39932 3.05446,-1.09973 0.29959,0.2996 1.43431,0.0686 2.5216,-0.51327 2.17925,-1.1663 2.77476,-0.43853 -16.61389,-20.30397 -4.33072,-4.43722 -9.05572,-9.62793 -10.5,-11.53492 -1.44428,-1.90699 -4.65096,-5.51081 -7.12596,-8.0085 -8.38852,-8.46541 -21.21364,-22.84642 -23.01223,-25.80396 -0.98441,-1.61874 -3.20219,-3.94884 -4.92839,-5.17801 -1.7262,-1.22916 -4.92187,-4.648834 -7.10149,-7.599276 C 614.49381,88.400199 601.38488,74.305487 574,46.104327 c -1.925,-1.98238 -4.31103,-4.861913 -5.3023,-6.398962 -0.99126,-1.537049 -2.82512,-3.183511 -4.07524,-3.658804 -1.25011,-0.475293 -3.06163,-2.067868 -4.02558,-3.539055 -0.96396,-1.471187 -3.04394,-3.874725 -4.62217,-5.341196 C 554.39647,25.69984 552.26047,22.925 551.22802,21 c -3.20556,-5.976831 -4.53179,-6.221435 -34.61186,-6.383722 -14.91389,-0.08046 -27.64757,-0.484382 -28.29706,-0.897598 -0.6495,-0.413217 -1.48252,-0.263285 -1.85115,0.333182 -0.36864,0.596467 -1.41223,0.79 -2.3191,0.430074 C 483.24198,14.122009 454.4893,13.66831 420.254,13.473715 l -62.24599,-0.353809 -0.51332,2.190047 c -0.78155,3.334457 -1.26337,156.446297 -0.49622,157.687577 0.42907,0.69425 7.60876,1.23309 19.95689,1.49779 10.6077,0.22738 19.41959,0.54646 19.58199,0.70905 0.1624,0.1626 10.57044,0.20785 23.12896,0.10056 12.55853,-0.10728 55.23369,-0.3566 94.83369,-0.55404 z"
       id="path1" />
    <rect
       style="fill:#000000"
       id="rect2"
       width="553.04822"
       height="88.560013"
       x="34.339596"
       y="183.44574" />
    <rect
       style="fill:#000000"
       id="rect3"
       width="74.101234"
       height="428.34128"
       x="240.37717"
       y="37.050617" />
    <rect
       style="fill:#000000"
       id="rect4"
       width="98.50042"
       height="56.02776"
       x="394.00168"
       y="207.84492" />
  </g>
</svg>
