<?xml version="1.0" encoding="UTF-8" standalone="no"?>
<!-- Created with Inkscape (http://www.inkscape.org/) -->

<svg
   version="1.1"
   id="svg1"
   width="1928"
   height="1460"
   viewBox="0 0 1928 1460"
   sodipodi:docname="matrix.svg"
   inkscape:version="1.4 (86a8ad7, 2024-10-11)"
   xmlns:inkscape="http://www.inkscape.org/namespaces/inkscape"
   xmlns:sodipodi="http://sodipodi.sourceforge.net/DTD/sodipodi-0.dtd"
   xmlns="http://www.w3.org/2000/svg"
   xmlns:svg="http://www.w3.org/2000/svg">
  <defs
     id="defs1" />
  <sodipodi:namedview
     id="namedview1"
     pagecolor="#ffffff"
     bordercolor="#000000"
     borderopacity="0.25"
     inkscape:showpageshadow="2"
     inkscape:pageopacity="0.0"
     inkscape:pagecheckerboard="0"
     inkscape:deskcolor="#d1d1d1"
     inkscape:zoom="0.54452055"
     inkscape:cx="964.15094"
     inkscape:cy="730"
     inkscape:window-width="1920"
     inkscape:window-height="1013"
     inkscape:window-x="2391"
     inkscape:window-y="605"
     inkscape:window-maximized="1"
     inkscape:current-layer="g1" />
  <g
     inkscape:groupmode="layer"
     inkscape:label="Image"
     id="g1">
    <path
       style="fill:#000000"
       d="m 1570.0789,1458.4167 c 0.048,-1.165 0.285,-1.4019 0.6042,-0.6042 0.2889,0.7219 0.2534,1.5844 -0.079,1.9167 -0.3323,0.3323 -0.5687,-0.2584 -0.5253,-1.3125 z m 71.0371,-0.1315 c -0.1518,-2.898 -3.3347,-4.5219 -7.38,-3.7654 -2.6374,0.4932 -121.372,1.6177 -144.736,1.3707 -3.575,-0.038 -8.075,-0.085 -10,-0.1052 -1.925,-0.02 -18.5895,0.017 -37.0322,0.082 -19.1207,0.067 -34.9891,-0.2996 -36.9222,-0.854 -2.1709,-0.6226 -3.8066,-0.6264 -4.5486,-0.011 -0.7212,0.5985 -31.1506,0.9466 -80.5779,0.9216 -43.6805,-0.022 -83.6653,0.2091 -88.8551,0.5136 -5.1899,0.3045 -11.01,0.119 -12.9336,-0.4121 -2.3898,-0.6599 -3.9105,-0.6231 -4.8012,0.1162 -0.7171,0.5951 -2.0485,0.7962 -2.9587,0.4469 -0.9102,-0.3493 -22.8534,-0.6632 -48.7627,-0.6977 -31.9507,-0.043 -47.5236,-0.4075 -48.4002,-1.1344 -0.9249,-0.7671 -1.6215,-0.7427 -2.45,0.086 -1.434,1.434 -16.1457,1.5554 -18.7627,0.1549 -1.2524,-0.6703 -2.079,-0.6703 -2.4932,0 -0.8078,1.3069 -5.2018,1.297 -6.0118,-0.014 -0.3454,-0.559 -1.1416,-0.699 -1.7692,-0.3111 -1.1787,0.7285 -109.9426,0.6517 -126.60559,-0.089 -5.45432,-0.2426 -10.36303,0.028 -11.72038,0.6467 -1.57535,0.7178 -2.75199,0.7361 -3.61512,0.056 -1.61523,-1.2721 -8.51715,-1.52 -9.25118,-0.3323 -0.66304,1.0728 -15.57323,0.1352 -17.11688,-1.0764 -0.59865,-0.4699 -8.92365,-0.5326 -18.5,-0.1393 -14.90677,0.6122 -65.52807,0.7157 -139.30882,0.2848 -10.48472,-0.061 -19.73126,-0.5567 -20.77067,-1.113 -1.03037,-0.5514 -2.42659,-0.6473 -3.10273,-0.213 -0.67613,0.4343 -2.35433,0.8726 -3.72933,0.974 -3.78789,0.2794 -61.96729,0.1605 -74.5,-0.1523 -29.65061,-0.74 -77.20568,-0.7742 -78.82435,-0.057 -1.06107,0.4705 -3.45322,0.2713 -5.71758,-0.476 -2.77907,-0.9172 -4.26124,-0.9795 -5.17924,-0.2176 -1.18792,0.9859 -26.10348,1.2999 -98.98491,1.2477 -11.95405,-0.01 -19.61362,0.4001 -21.22038,1.1321 -1.90878,0.8697 -2.85988,0.8588 -3.9492,-0.045 -1.06486,-0.8838 -11.06533,-1.1305 -38.77962,-0.9568 -20.53959,0.1287 -38.24472,0.1452 -39.34472,0.037 -2.98615,-0.2947 -8.79509,-0.4015 -10.5,-0.1932 -10.35593,1.2652 -67.05397,1.3561 -68.30062,0.1095 -0.6403,-0.6403 -1.64204,-0.6653 -2.75674,-0.069 -2.65514,1.421 -82.46864,2.0079 -87.7298,0.6451 -3.26079,-0.8446 -4.75382,-0.819 -6.23643,0.1069 -2.39671,1.4967 -7.97641,1.6075 -7.97641,0.1583 0,-0.5825 -0.52948,-0.7318 -1.17662,-0.3318 -2.11994,1.3102 -33.95129,1.8231 -55.82338,0.8995 -7.975,-0.3368 -14.95,-0.5907 -15.5,-0.5643 -0.55,0.026 -4.15,0.2089 -8,0.4055 -3.85,0.1966 -7.542788,-0.065 -8.206195,-0.5824 -0.663407,-0.5168 -1.736148,-0.6122 -2.383868,-0.2118 -0.647719,0.4003 -16.842094,0.6346 -35.987498,0.5207 -22.297393,-0.1326 -35.499314,0.162 -36.727992,0.8195 -2.865573,1.5336 -4.7191254,-0.4796 -6.8091807,-7.3959 -2.0059697,-6.638 -2.3456532,-23.2189 -3.2528784,-158.7822 -0.1294622,-19.3451 -0.1804819,-19.8 -2.3086486,-20.5873 l -2.17626068,-0.8051 2.22396948,-0.5815 2.2239694,-0.5816 0.028444,-38.8312 C 4.1395059,1206.974 4.2847283,1172.85 4.446578,1152.5 c 0.3116661,-39.187 0.4102492,-64.7026 0.4134092,-107 0.00107,-14.3 0.056472,-38.6 0.1231189,-54 C 5.049753,976.1 4.6314169,958.24022 4.0534701,951.8116 3.3659893,944.16462 3.3391162,939.23826 3.9757488,937.56379 4.5238117,936.12227 4.911639,923.75628 4.8636695,909.25218 4.8168258,895.08848 4.8552505,882.15 4.9490578,880.5 5.042865,878.85 5.0593897,876.375 4.9857794,875 4.7604451,870.79088 4.0069222,683.77185 4.1980857,679.5 c 0.098449,-2.2 0.1176049,-7.15 0.042569,-11 -0.075036,-3.85 -0.1002602,-8.8 -0.056053,-11 0.044207,-2.2 0.034097,-8.05 -0.022466,-13 C 3.7637959,609.64006 3.6741482,512.16037 3.9919994,459.5 4.4658301,380.99753 3.4958893,296.55531 2.0590527,291.2193 1.3731508,288.67206 1.3162709,285.55326 1.8980328,282.39039 2.392765,279.70068 2.5352904,269.625 2.2147559,260 1.4462968,236.92474 1.4499768,236.24617 2.4506621,216.5 c 0.473834,-9.35 0.864504,-19.25 0.8681554,-22 C 3.3224689,191.75 3.1628779,157.775 2.9641709,119 2.5492809,38.039829 3.1928557,9.5493658 5.4940035,7.0066261 6.3223016,6.091367 7,4.140452 7,2.6712593 7,0.66666667 7.4991404,0 9,0 c 1.546637,0 2,0.66666667 2,2.940983 0,3.485645 1.232396,4.4684894 4.556835,3.6341082 C 17.46419,6.0963758 18,5.3081442 18,2.980948 18,0.99788311 18.50213,0 19.5,0 20.483916,0 21,0.98465612 21,2.8619051 21,5.6443228 21.173589,5.7398288 27.25,6.3005521 30.6875,6.6177602 42.275,6.6805687 53,6.4401265 L 72.5,6.0029589 73.118359,2.7514794 73.736718,-0.5 73.868359,2.6790309 74,5.8580618 83.25,6.4015751 C 88.3375,6.7005074 93.625,6.9962069 95,7.0586852 99.695766,7.2720547 118.10313,6.0542988 119.05265,5.4674598 119.57369,5.1454382 120,3.7835237 120,2.440983 120,-0.90611423 121.79208,-0.65250193 122.18358,2.75 L 122.5,5.5 h 17.48927 17.48927 l 0.64241,-3 c 0.63668,-2.97321064 0.64348,-2.9759701 0.76074,-0.309017 0.0651,1.4800407 0.50933,2.9326469 0.98724,3.2280139 1.33043,0.8222453 75.85473,0.9011914 82.29827,0.087181 3.61608,-0.4568169 6.97793,-0.2833556 9.2887,0.4792684 2.81666,0.9295799 3.94423,0.9273652 5.07364,-0.00997 0.89251,-0.7407165 2.70817,-0.9525091 4.7113,-0.5495634 1.79254,0.3605828 4.15916,0.5843989 5.25916,0.4973692 8.36813,-0.6620694 89.09293,0.3239146 90.02759,1.0996094 0.63724,0.5288672 3.59173,0.7934122 6.56552,0.5878778 2.97379,-0.2055344 7.60986,0.023727 10.30237,0.5094688 3.34294,0.6030807 5.32021,0.5306793 6.23472,-0.2282956 1.43042,-1.1871432 77.71046,-1.4174786 79.615,-0.2404058 0.54434,0.3364236 9.3539,0.5737413 19.57679,0.5273728 12.1651,-0.055178 19.0449,0.2956546 19.91216,1.0154116 0.91794,0.7618245 2.0073,0.7889953 3.54546,0.088431 2.68301,-1.2219895 68.70123,-0.8552591 69.61159,0.3866915 C 572.22604,10.126252 585.55,10.5 601.5,10.5 c 15.95,0 79.625,0.379758 141.5,0.843906 61.875,0.464149 122.4,0.790573 134.5,0.725388 12.1,-0.06518 23.125,-0.08437 24.5,-0.04264 1.375,0.04173 23.09246,0.0018 48.26101,-0.08869 35.05869,-0.126081 46.10925,0.12444 47.25,1.07118 1.16548,0.967264 1.80537,0.973177 2.94519,0.02722 0.8009,-0.664694 1.933,-0.913871 2.5157,-0.553727 0.5827,0.360145 16.2399,0.69828 34.7938,0.751412 18.5539,0.05313 33.9974,0.227798 34.319,0.388149 0.3216,0.16035 29.5716,0.528456 65,0.818012 35.4284,0.289556 85.5653,0.86464 111.4153,1.277965 61.6503,0.985748 165.9231,0.976811 171,-0.01466 3.9755,-0.776365 80.9466,-1.453903 234,-2.059784 44,-0.174179 86.8107,-0.68329 95.1349,-1.131358 8.3242,-0.448067 15.8382,-0.544781 16.6979,-0.21492 0.8596,0.32986 34.9988,0.801543 75.865,1.048184 47.3567,0.285812 75.25,0.820644 76.9158,1.474799 4.9349,1.937905 4.5549,-10.5092386 4.9963,163.67957 0.131,51.7 -0.1292,105.7 -0.5783,120 -0.7187,22.88197 -1.262,153.25519 -0.7564,181.5 0.1034,5.775 0.1659,11.625 0.1391,13 -0.102,5.2148 -0.068,15.96218 0.206,65 0.3557,63.68886 0.2008,74.39296 -1.0826,74.82077 -0.5734,0.19112 -0.323,1.03676 0.5718,1.93164 1.4332,1.43318 1.5315,7.37549 0.9863,59.66964 -0.3329,31.94287 -0.5949,85.52795 -0.5821,119.07795 0.013,33.55 -0.051,62.125 -0.1406,63.5 -0.09,1.375 -0.2912,24.775 -0.4469,52 -0.1556,27.225 -0.5482,79.425 -0.8723,116 -0.3242,36.575 -0.5722,70.55 -0.5513,75.5 0.1497,35.4202 0.1141,197.5932 -0.044,200 -0.1083,1.65 -0.1127,12.225 -0.01,23.5 0.103,11.275 0.1238,38.725 0.046,61 -0.078,22.275 0.1593,41.4743 0.5263,42.6651 0.5059,1.6415 0.053,2.5674 -1.8725,3.8292 -2.2126,1.4497 -6.9584,1.7137 -36.8444,2.0496 -18.8676,0.212 -34.5297,0.4367 -34.8047,0.4994 -1.2036,0.2741 -51.1668,-0.016 -51.798,-0.3013 -0.3861,-0.1742 -11.052,-0.017 -23.702,0.3491 -12.65,0.3662 -29.075,0.3301 -36.5,-0.08 -7.425,-0.4103 -13.95,-0.5768 -14.5,-0.37 -0.55,0.2068 -3.7,0.5135 -7,0.6815 -3.3,0.1681 -6.45,0.4791 -7,0.6912 -0.55,0.2121 -4.2925,0.041 -8.3167,-0.3811 -5.3557,-0.5612 -7.7212,-0.431 -8.8262,0.4861 -0.9954,0.8261 -1.739,0.9045 -2.1833,0.2303 -0.4037,-0.6126 -4.8823,-0.9365 -11.1738,-0.808 -5.775,0.1179 -11.0078,-0.1902 -11.6284,-0.6847 -0.6777,-0.5401 -2.2751,-0.4615 -4,0.1968 -1.5794,0.6028 -5.8946,0.958 -9.5895,0.7894 -6.9166,-0.3157 -8.2419,0.2187 -9.069,3.6576 -0.4408,1.8323 -0.4908,1.8143 -0.5971,-0.2148 z M 22,1452 c 0,-0.55 -0.45,-1 -1,-1 -0.55,0 -1,0.45 -1,1 0,0.55 0.45,1 1,1 0.55,0 1,-0.45 1,-1 z m 55,0 c 0,-0.55 -0.476558,-1 -1.059017,-1 -0.582459,0 -0.780902,0.45 -0.440983,1 0.339919,0.55 0.816476,1 1.059017,1 C 76.801558,1453 77,1452.55 77,1452 Z m 5,-0.559 c 0,-0.8575 -0.45734,-1.2764 -1.016312,-0.9309 -0.558971,0.3454 -0.757414,1.047 -0.440983,1.559 C 81.399945,1453.4561 82,1453.1975 82,1451.441 Z M 1250,1452 c 0,-0.55 -0.1984,-1 -0.441,-1 -0.2425,0 -0.7191,0.45 -1.059,1 -0.3399,0.55 -0.1415,1 0.441,1 0.5824,0 1.059,-0.45 1.059,-1 z m 115.7292,-0.6042 c -0.3323,-0.3323 -1.1948,-0.3678 -1.9167,-0.079 -0.7977,0.3192 -0.5608,0.5562 0.6042,0.6042 1.0541,0.043 1.6448,-0.193 1.3125,-0.5253 z M 1673.5,1451 c -0.3399,-0.55 -1.0415,-1 -1.559,-1 -0.5176,0 -0.941,0.45 -0.941,1 0,0.55 0.7016,1 1.559,1 0.8575,0 1.2809,-0.45 0.941,-1 z m -888.77083,-0.6042 c -0.33229,-0.3323 -1.1948,-0.3678 -1.91667,-0.079 -0.79773,0.3192 -0.56078,0.5562 0.60417,0.6042 1.05416,0.043 1.64479,-0.193 1.3125,-0.5253 z M 1122,1449.6208 c 7.975,-0.2469 16.9071,-0.01 19.849,0.5341 2.942,0.5407 6.092,0.6558 7,0.2559 1.6856,-0.7424 47.1914,-1.6161 72.901,-1.3997 13.1149,0.1104 14.257,-0.025 14.3378,-1.6956 0.716,-14.7969 1.2236,-165.3375 0.5597,-166.0013 -0.2579,-0.2579 -17.3668,-0.4491 -38.0197,-0.4248 -20.653,0.024 -37.7515,-0.2806 -37.9968,-0.6774 -0.2452,-0.3968 -3.975,-0.4738 -8.2884,-0.1711 -7.7026,0.5405 -22.4118,0.5734 -73.4776,0.1644 L 1053.23,1280 l -1.865,-2.75 c -1.7431,-2.5703 -1.8465,-4.9397 -1.5812,-36.25 0.2552,-30.124 0.1576,-92.6426 -0.1596,-102.2682 l -0.1242,-3.7682 -87,-0.5478 c -47.85,-0.3013 -108.15,-0.7236 -134,-0.9385 -77.27691,-0.6424 -169.4455,-0.629 -170.50322,0.025 -0.64017,0.3956 -1.05778,38.4246 -1.18386,107.8046 -0.32268,177.5741 -0.008,201.8039 2.65519,204.5495 1.05676,1.0894 2.33206,1.138 6.48469,0.2474 2.84308,-0.6097 5.92927,-0.7438 6.85822,-0.2979 0.92894,0.4459 3.26398,0.5571 5.18898,0.2473 1.925,-0.3099 6.2,-0.3011 9.5,0.02 3.3,0.3207 8.475,0.4337 11.5,0.2512 11.54099,-0.6963 38.45597,-0.1902 39.58194,0.7443 0.76608,0.6358 2.1336,0.6104 3.93082,-0.073 2.58362,-0.9822 16.24167,-0.8421 46.48724,0.4771 13.66463,0.596 16.06112,0.5922 31.37512,-0.05 7.08131,-0.297 13.60631,-0.2205 14.5,0.17 2.43117,1.0623 4.41091,1.3492 5.34164,0.7739 0.45708,-0.2825 9.03279,-0.5118 19.05714,-0.5097 10.02436,0 26.3261,-0.024 36.2261,-0.057 9.9,-0.034 20.025,0.01 22.5,0.087 8.02137,0.2646 64.2534,1.0486 116.4521,1.6236 28.0237,0.3087 51.0484,0.6578 51.166,0.7758 0.2523,0.2531 16.0655,-0.036 36.3819,-0.6647 z m 300.335,-0.2748 c 2.5368,0.1474 4.8464,0.5021 5.1326,0.7882 0.2861,0.2862 2.6605,0.3451 5.2763,0.131 2.6159,-0.2142 30.4061,-0.604 61.7561,-0.8663 107.4522,-0.899 124.6041,-1.2404 126.1346,-2.5106 1.1138,-0.9244 1.988,-0.893 3.9195,0.1407 2.7007,1.4453 1.2287,1.4211 77.4459,1.271 25.025,-0.049 47.9761,-0.071 51.0023,-0.049 3.0263,0.022 6.6263,-0.3246 8,-0.7711 1.3738,-0.4465 32.1977,-0.9171 68.4977,-1.0457 36.3,-0.1287 66.9,-0.2392 68,-0.2457 1.1,-0.01 5.15,0.054 9,0.135 l 7,0.1469 0.6446,-7.2015 c 0.3546,-3.9608 0.44,-23.0792 0.1899,-42.4853 -0.5178,-40.1721 -0.517,-40.0628 -0.3367,-44.7838 0.2752,-7.2025 0.3448,-124.7293 0.1004,-169.5 -0.06,-11 0.01,-25.3306 0.1463,-31.8458 0.1405,-6.5151 -0.026,-12.3019 -0.3711,-12.8594 -0.4174,-0.6751 -38.8675,-1.0164 -115.1628,-1.022 -101.5977,-0.01 -114.785,0.1659 -116.7382,1.534 -1.2111,0.8483 -2.7642,1.3266 -3.4512,1.0629 -0.7519,-0.2885 -1.4757,0.6373 -1.8181,2.3255 -0.3129,1.5426 -2.3325,4.6048 -4.4881,6.8048 -3.2668,3.3341 -8.4615,9.6305 -22.1988,26.9068 -0.8339,1.0487 -2.8811,3.5237 -4.5493,5.5 -1.6682,1.9763 -5.699,6.9682 -8.9573,11.0932 -3.2583,4.125 -7.1705,8.85 -8.6937,10.5 -9.5562,10.3512 -12.8004,14.0873 -12.8077,14.75 -0,0.4125 -0.8583,1.6001 -1.8972,2.639 -1.039,1.039 -3.6976,4.177 -5.908,6.9734 -2.2104,2.7964 -7.178,8.5838 -11.039,12.8609 -3.8611,4.2772 -8.5456,10.0267 -10.4101,12.7767 -1.8644,2.75 -4.9343,6.6578 -6.8219,8.6841 -1.8876,2.0262 -5.457,6.1423 -7.932,9.1468 -7.4886,9.0907 -8.255,9.338 -27.5,8.8707 -3.3,-0.08 -13.2,0.065 -22,0.3224 -8.8,0.2574 -16.7875,0.4465 -17.75,0.4201 -0.9625,-0.026 -3.4375,-0.099 -5.5,-0.1623 -5.1117,-0.1559 -30.9218,0.092 -35.25,0.3387 -1.925,0.1097 -5.075,0.1785 -7,0.153 -12.147,-0.1611 -70.9114,-0.051 -72.8113,0.1364 l -2.3113,0.2281 0.023,81.5145 c 0.015,52.6053 0.3823,82.4603 1.0365,84.1811 0.808,2.125 1.6787,2.6742 4.2885,2.7051 1.8012,0.021 8.2459,0.051 14.3216,0.065 6.0758,0.015 11.6765,0.4159 12.4461,0.8915 0.7927,0.49 2.1212,0.4785 3.0646,-0.026 0.9159,-0.4901 3.7408,-0.7706 6.2775,-0.6232 z M 1647,1445.441 c 0,-0.8575 0.4573,-1.2764 1.0163,-0.9309 0.559,0.3454 0.7574,1.047 0.441,1.559 -0.8572,1.387 -1.4573,1.1284 -1.4573,-0.6281 z m 239,4.559 c 0,-0.55 -0.45,-1 -1,-1 -0.55,0 -1,0.45 -1,1 0,0.55 0.45,1 1,1 0.55,0 1,-0.45 1,-1 z m -1569.50946,-0.9847 c 0.33472,-0.5416 1.59878,-1.01 2.80902,-1.041 5.16165,-0.132 9.15544,-0.1467 16.45044,-0.06 4.2625,0.05 18.775,0.088 32.25,0.083 13.475,-0 26.975,0.4037 30,0.9076 3.30616,0.5507 5.87894,0.553 6.45,0.01 1.39617,-1.338 5.31679,-1.1086 5.80303,0.3396 0.3246,0.9668 1.06033,0.9101 3.24697,-0.25 1.93782,-1.0281 2.94453,-1.1511 3.2,-0.3909 0.25398,0.7557 1.71511,0.8462 4.58636,0.2841 2.3175,-0.4537 21.08864,-0.8013 41.71364,-0.7724 20.625,0.029 38.4,-0.01 39.5,-0.077 3.15553,-0.2044 28.78058,-0.4083 31,-0.2466 1.1,0.08 9.5375,-0.01 18.75,-0.1987 9.2125,-0.1894 16.74985,-0.064 16.74966,0.2786 -4e-4,0.7462 15.85611,0.499 18.00034,-0.2807 0.825,-0.3 4.2,-0.6694 7.5,-0.8209 5.71397,-0.2624 5.99164,-0.3947 5.82471,-2.7755 -0.0964,-1.375 -0.21753,-72.0711 -0.26916,-157.1023 l -0.0939,-154.6024 -11.23084,-0.5295 c -6.17696,-0.2913 -34.63084,-0.5931 -63.23084,-0.6708 -28.6,-0.078 -74.275,-0.3683 -101.5,-0.6457 -27.225,-0.2775 -92.25,-0.687 -144.5,-0.91 -119.48072,-0.5101 -222.342392,-1.3721 -247,-2.07 -11.453449,-0.3241 -19.572421,-0.1558 -20.441187,0.4237 -1.170159,0.7806 -1.365107,3.4668 -1.036629,14.2842 0.461746,15.206 0.453788,13.308 0.225644,53.8228 -0.09446,16.775 -0.07637,68.075 0.04021,114 0.116579,45.925 0.04873,88.45 -0.150776,94.5 -0.199505,6.05 -0.02429,15.95 0.389377,22 0.413662,6.05 0.801894,12.767 0.862737,14.9267 0.098,3.4786 0.453062,4.0192 3.110623,4.7364 1.65,0.4453 18.075,0.9841 36.5,1.1972 18.425,0.2132 39.008439,0.5234 45.740976,0.6894 6.732534,0.1659 12.532804,0.01 12.889484,-0.3468 0.35667,-0.3567 1.14823,-0.3326 1.75902,0.054 0.61079,0.3861 46.00483,0.7557 100.87565,0.8212 54.87082,0.066 100.05832,0.4124 100.41666,0.7708 0.93998,0.9399 2.1075,0.8014 2.80875,-0.3332 z m 1010.76766,-2.5856 c 0.2543,-1.3304 0.5122,-37.8007 0.573,-81.045 0.061,-43.2443 0.3859,-79.4933 0.7223,-80.5533 1.3214,-4.1633 -0.6574,-4.6517 -18.0449,-4.4546 -9.0226,0.1023 -16.6572,0.4385 -16.9658,0.7471 -0.3085,0.3085 -0.6694,37.4615 -0.8019,82.5621 -0.2022,68.812 -0.017,82.271 1.1498,83.6795 1.201,1.4495 3.5393,1.6651 17.1478,1.5808 l 15.7573,-0.098 z M 1091,1277 c 0,-0.55 -0.45,-1 -1,-1 -0.55,0 -1,0.45 -1,1 0,0.55 0.45,1 1,1 0.55,0 1,-0.45 1,-1 z m 36.7617,-0.6871 c -0.9561,-0.2503 -2.7561,-0.2594 -4,-0.02 -1.244,0.2392 -0.4617,0.444 1.7383,0.4551 2.2,0.011 3.2177,-0.1846 2.2617,-0.4349 z m 15.9675,0.083 c -0.3323,-0.3323 -1.1948,-0.3678 -1.9167,-0.079 -0.7977,0.3192 -0.5608,0.5562 0.6042,0.6042 1.0541,0.043 1.6448,-0.193 1.3125,-0.5253 z m 7,0 c -0.3323,-0.3323 -1.1948,-0.3678 -1.9167,-0.079 -0.7977,0.3192 -0.5608,0.5562 0.6042,0.6042 1.0541,0.043 1.6448,-0.193 1.3125,-0.5253 z m 15.5208,-0.058 c -0.6875,-0.2774 -1.8125,-0.2774 -2.5,0 -0.6875,0.2774 -0.125,0.5044 1.25,0.5044 1.375,0 1.9375,-0.227 1.25,-0.5044 z m 61.4792,0.058 c -0.3323,-0.3323 -1.1948,-0.3678 -1.9167,-0.079 -0.7977,0.3192 -0.5608,0.5562 0.6042,0.6042 1.0541,0.043 1.6448,-0.193 1.3125,-0.5253 z M 1458.5,1276 c -0.3399,-0.55 -1.0415,-1 -1.559,-1 -0.5176,0 -0.941,0.45 -0.941,1 0,0.55 0.7016,1 1.559,1 0.8575,0 1.2809,-0.45 0.941,-1 z m 8,0 c -0.3399,-0.55 -1.0415,-1 -1.559,-1 -0.5176,0 -0.941,0.45 -0.941,1 0,0.55 0.7016,1 1.559,1 0.8575,0 1.2809,-0.45 0.941,-1 z m -282.563,-3.5477 c 4.7097,0.3759 12.0041,0.6207 16.2098,0.5441 4.7105,-0.086 7.9126,0.2907 8.339,0.9806 0.4374,0.7077 1.1197,0.7782 1.8532,0.1916 2,-1.5996 18.3884,-2.9535 36.161,-2.9874 12.5124,-0.024 69.6795,0.1 96,0.2081 2.75,0.011 17.375,-0.051 32.5,-0.1378 15.125,-0.087 32.45,-0.055 38.5,0.07 6.05,0.126 11.5758,-0.1861 12.2796,-0.6935 0.807,-0.5818 2.2843,-0.4646 4,0.3175 3.1051,1.4155 39.7519,1.622 41.6174,0.2346 0.6066,-0.4512 7.178,-0.4389 14.603,0.027 7.425,0.4663 17.8541,0.5765 23.1758,0.245 6.4533,-0.402 10.3879,-0.2217 11.8139,0.5415 1.6519,0.884 2.4998,0.8442 3.7282,-0.1751 1.1899,-0.9873 6.0186,-1.3054 19.1861,-1.2639 19.6934,0.062 18.219,0.575 23.5969,-8.2072 1.1006,-1.7971 3.5756,-4.4289 5.5,-5.8484 1.9245,-1.4196 3.7241,-3.1868 3.9991,-3.9272 0.664,-1.7876 18.1132,-23.2121 24.75,-30.3884 2.8875,-3.1222 5.25,-6.1438 5.25,-6.7147 0,-0.5709 2.475,-3.4822 5.5,-6.4696 3.025,-2.9874 5.5,-5.8245 5.5,-6.3045 0,-0.4801 3.1485,-4.3205 6.9966,-8.5342 3.8481,-4.2137 6.9981,-8.0597 7,-8.5466 0,-0.487 1.0159,-1.8713 2.2534,-3.0764 6.0899,-5.9304 20.75,-25.3707 20.75,-27.5159 0,-0.4825 1.125,-1.7622 2.5,-2.8437 1.375,-1.0816 2.5005,-2.3518 2.5012,-2.8226 7e-4,-0.4709 1.0132,-2.0722 2.25,-3.5586 1.2368,-1.4864 3.0251,-3.7017 3.974,-4.9228 0.9488,-1.2212 4.7738,-5.4795 8.5,-9.463 11.6356,-12.4391 14.2774,-15.8912 17.5897,-22.9844 0.7892,-1.69 2.8412,-4.6744 4.56,-6.632 1.7188,-1.9577 3.1251,-4.209 3.1251,-5.003 0,-0.794 1.0869,-2.4648 2.4154,-3.7128 1.3285,-1.248 2.7067,-3.464 3.0629,-4.9243 0.3561,-1.4604 1.8792,-4.2302 3.3848,-6.1552 2.4465,-3.1281 5.9191,-12.5676 9.1089,-24.7606 0.6131,-2.3434 0.8075,-5.898 0.432,-7.8992 -0.3754,-2.0012 -0.7798,-6.6089 -0.8987,-10.2394 -0.1189,-3.6304 -0.5543,-8.4008 -0.9676,-10.6008 -1.1416,-6.0766 -6.4981,-19.1542 -8.6391,-21.0918 -1.0442,-0.945 -1.8986,-2.47 -1.8986,-3.3889 0,-0.9189 -1.1695,-2.7616 -2.599,-4.09499 -1.4294,-1.33337 -3.6515,-4.49183 -4.938,-7.01879 -1.2865,-2.52696 -5.0865,-7.47696 -8.4445,-11 -3.358,-3.52304 -8.8426,-10.23052 -12.1879,-14.90552 -7.3858,-10.32149 -12.0243,-15.56719 -31.0806,-35.14946 -8.1125,-8.3364 -14.75,-15.66373 -14.75,-16.28295 0,-0.94777 -3.2156,-4.42369 -14.4017,-15.56759 C 1611.7975,894.22107 1603,884.71259 1603,884.22186 1603,883.13594 1598.6684,879 1597.5312,879 c -0.6161,0 -2.8967,-2.3625 -5.0679,-5.25 -2.1712,-2.8875 -4.7412,-5.83982 -5.7112,-6.5607 -0.9699,-0.72089 -2.4228,-2.58564 -3.2286,-4.14388 -0.8058,-1.55825 -2.7864,-4.15445 -4.4013,-5.76934 -1.6149,-1.61489 -3.863,-4.66559 -4.9959,-6.77933 -1.1329,-2.11375 -3.3123,-5.05861 -4.8431,-6.54415 -1.5308,-1.48554 -4.3875,-4.44509 -6.3484,-6.57679 l -3.5652,-3.87581 -9.9348,0.16745 c -20.559,0.34653 -83.7448,0.22456 -133.9348,-0.25855 -65.9361,-0.63466 -62.3749,-0.61209 -86.1658,-0.5462 -13.0316,0.0361 -20.3969,0.42981 -20.8191,1.11289 -0.3593,0.58137 -1.1847,0.71684 -1.8342,0.30104 -1.6444,-1.05275 -42.1103,-1.41405 -155.1809,-1.38556 -35.2,0.009 -65.35,-0.0188 -67,-0.0614 -1.65,-0.0426 -6.15,-0.0494 -10,-0.0151 -3.85,0.0343 -9.1266,-0.0108 -11.7258,-0.10033 -2.5991,-0.0895 -5.1508,0.27566 -5.6704,0.8115 -1.9815,2.04334 -2.56,104.11027 -1.6806,296.47424 0.3222,70.4663 1.4395,140.1424 2.2611,141 0.4849,0.5061 9.0316,0.6196 21.8157,0.2898 3.85,-0.099 17.125,0.06 29.5,0.3537 12.375,0.2938 31.1078,0.4947 41.6284,0.4464 15.6932,-0.072 19.3477,0.1764 20.3493,1.3833 1.0708,1.2902 1.4161,1.2758 2.8086,-0.1167 1.3199,-1.3198 3.0322,-1.4724 10.1507,-0.9042 z m 461.5203,-95.3832 c 0.3164,-0.512 0.118,-1.2136 -0.441,-1.559 -0.559,-0.3455 -1.0163,0.073 -1.0163,0.9309 0,1.7565 0.6001,2.0151 1.4573,0.6281 z M 1655,1165 c 0,-0.55 -0.4766,-1 -1.059,-1 -0.5825,0 -0.7809,0.45 -0.441,1 0.3399,0.55 0.8165,1 1.059,1 0.2426,0 0.441,-0.45 0.441,-1 z m 10.4424,-12.9067 c 0.3082,-0.4987 -0.3403,-0.6713 -1.441,-0.3834 -2.335,0.6106 -2.6302,1.2901 -0.5604,1.2901 0.7925,0 1.6931,-0.408 2.0014,-0.9067 z m -839.71323,-21.6975 c -0.33229,-0.3323 -1.1948,-0.3678 -1.91667,-0.079 -0.79773,0.3192 -0.56078,0.5562 0.60417,0.6042 1.05416,0.043 1.64479,-0.193 1.3125,-0.5253 z m 77.70161,-0.2838 c 0.30185,-0.4884 -0.7246,-1.0749 -2.281,-1.3033 -3.42338,-0.5025 -5.36356,0.036 -4.59699,1.2767 0.72542,1.1738 6.15602,1.1948 6.87799,0.027 z m -362.70161,-2.7162 c -0.33229,-0.3323 -1.1948,-0.3678 -1.91667,-0.079 -0.79773,0.3192 -0.56078,0.5562 0.60417,0.6042 1.05416,0.043 1.64479,-0.193 1.3125,-0.5253 z M 59,1125 c 0,-0.55 -0.476558,-1 -1.059017,-1 -0.582459,0 -0.780902,0.45 -0.440983,1 0.339919,0.55 0.816476,1 1.059017,1 C 58.801558,1126 59,1125.55 59,1125 Z m 56,0 c 0,-0.55 -0.47656,-1 -1.05902,-1 -0.58246,0 -0.7809,0.45 -0.44098,1 0.33992,0.55 0.81648,1 1.05902,1 0.24254,0 0.44098,-0.45 0.44098,-1 z m 133.72917,0.3958 c -0.3323,-0.3323 -1.1948,-0.3678 -1.91667,-0.079 -0.79773,0.3192 -0.56078,0.5562 0.60417,0.6042 1.05416,0.043 1.64479,-0.193 1.3125,-0.5253 z m 1626.93133,-44.0913 c 17.052,-0.319 25.8143,-0.1207 27.1893,0.6151 1.3404,0.7173 2.2391,0.7455 2.6485,0.083 0.3409,-0.5515 1.686,-1.0027 2.9893,-1.0027 4.8906,0 5.5124,-1.9596 5.5124,-17.3714 0,-8.2901 -0.4235,-14.6521 -1.0147,-15.2433 -0.6292,-0.6292 -3.34,-0.7406 -7.1344,-0.2932 -7.8212,0.9222 -169.2835,0.3641 -173.5529,-0.5999 -3.5319,-0.7975 -3.7469,-0.4255 -4.6283,8.0078 -0.5367,5.1351 -3.1347,16.0422 -4.8426,20.3308 -2.532,6.3576 -4.4366,6.1718 63.0065,6.145 33.2483,-0.013 60.7013,0.2258 61.0067,0.5312 0.3054,0.3053 1.2537,0.2656 2.1075,-0.088 0.8537,-0.3539 12.8744,-0.8553 26.7127,-1.1141 z m -1155.69591,-5.4007 c 4.14448,0.086 11.28698,0.2621 15.87223,0.3906 4.58525,0.1285 8.56281,-0.132 8.83903,-0.5789 0.27621,-0.447 1.10255,-0.3144 1.83631,0.2946 0.97583,0.8099 4.0907,0.8039 11.59898,-0.022 6.96972,-0.767 22.1623,-0.916 47.32687,-0.4643 20.3841,0.3659 64.06199,0.6508 97.06199,0.6332 33,-0.018 65.85,-0 73,0.031 7.15,0.035 14.6875,0.03 16.75,-0.01 6.34704,-0.1246 14.6358,-0.1807 17,-0.115 14.245,0.3961 37.2544,-0.2362 38.2356,-1.0506 0.9013,-0.748 1.1041,-4.5366 0.7636,-14.2652 -0.255,-7.2857 -0.6434,-13.4372 -0.8631,-13.67 -0.2196,-0.2328 -45.5089,-0.6187 -100.64273,-0.8576 -78.4363,-0.3398 -158.66275,-0.9427 -175.74337,-1.3207 -0.825,-0.018 -26.5367,-0.01 -57.1371,0.019 -50.00698,0.047 -55.69913,0.2136 -56.25,1.6492 -0.89712,2.3378 -0.71955,26.7175 0.2052,28.1735 0.59258,0.9331 6.5441,1.2165 24.04642,1.1451 12.79241,-0.052 23.54696,0.1931 23.899,0.5452 0.35204,0.352 1.99584,0.3423 3.65287,-0.022 1.65704,-0.3639 6.40373,-0.591 10.5482,-0.5047 z m -119.49833,-16.7043 c -0.0186,-7.7552 -0.26546,-14.332 -0.54867,-14.6152 -0.28321,-0.2833 -24.68052,-0.5685 -54.21626,-0.634 -35.84787,-0.08 -53.70133,-0.459 -53.70133,-1.1417 0,-0.5662 -0.78096,-0.7192 -1.75,-0.3427 -2.1877,0.85 -98.26033,0.8336 -218.75,-0.037 -50.6,-0.3657 -128.30001,-0.7243 -172.666697,-0.7968 -44.366683,-0.073 -81.004183,-0.4693 -81.416666,-0.8818 -1.359795,-1.3598 -5.190805,-0.7809 -5.828463,0.8808 -0.77342,2.0155 0.472667,28.2888 1.367919,28.8421 1.783643,1.1023 143.397407,2.2643 363.138827,2.9797 159.79361,0.5203 220.76928,1.0783 221.72006,2.029 1.82247,1.8225 2.68197,-3.4559 2.65128,-16.2821 z m -127.00137,-20.7863 c 0.9322,-1.4227 1.473,-2.8086 1.20178,-3.0799 -0.83658,-0.8365 -5.66667,2.813 -5.66667,4.2817 0,2.281 2.65029,1.5677 4.46489,-1.2018 z M 74,1026.382 c 0,-0.825 -0.45,-1.2219 -1,-0.882 -0.55,0.3399 -1,1.293 -1,2.118 0,0.825 0.45,1.2219 1,0.882 0.55,-0.3399 1,-1.293 1,-2.118 z M 143,1013 c 0,-0.55 -0.19844,-1 -0.44098,-1 -0.24254,0 -0.7191,0.45 -1.05902,1 -0.33992,0.55 -0.14148,1 0.44098,1 0.58246,0 1.05902,-0.45 1.05902,-1 z m 1676.971,0.039 c 0.8091,-0.5117 1.211,-1.1904 0.8932,-1.5083 -0.7878,-0.7877 -3.8642,0.4671 -3.8642,1.5762 0,1.1398 1.1012,1.1146 2.971,-0.068 z M 44,996 c 0,-1.1 -0.45,-2 -1,-2 -0.55,0 -1,0.9 -1,2 0,1.1 0.45,2 1,2 0.55,0 1,-0.9 1,-2 z m 1871.4138,-21.36538 c 0.3016,-3.37404 0.3628,-31.10962 0.1361,-61.63462 -0.2268,-30.525 -0.4021,-56.175 -0.3896,-57 0.275,-18.19111 1.0521,-96.82245 1.0179,-103 -0.026,-4.675 -0.025,-17.5 0,-28.5 0.067,-26.7898 -0,-181.84679 -0.098,-212 -0.041,-13.2 -0.034,-24.675 0.015,-25.5 0.3797,-6.41407 -0.4472,-34.9471 -1.0405,-35.90713 -0.5687,-0.92019 -12.8386,-1.22512 -51.1528,-1.27127 -27.7225,-0.0334 -53.3296,-0.0368 -56.9046,-0.008 -3.575,0.0292 -13.4001,-0.0294 -21.8337,-0.13045 -8.4335,-0.10099 -15.4595,-0.0576 -15.6134,0.0965 -0.1539,0.15407 -27.6788,0.21273 -61.1664,0.13035 -287.3874,-0.70699 -325.3671,-0.63881 -326.3835,0.58593 -0.6991,0.84239 -0.9928,36.94968 -0.9079,111.62438 0.069,60.70857 0.1375,111.05422 0.152,111.87922 0.014,0.825 -0.037,3.525 -0.1137,6 -0.077,2.475 -0.1087,6.075 -0.07,8 0.038,1.925 0.017,33.16903 -0.049,69.43117 -0.096,53.21088 0.1327,66.06883 1.1834,66.64462 0.9082,0.49764 68.5774,2.16388 78.802,1.94036 0.275,-0.006 14,0.12526 30.5,0.29171 16.5,0.16645 38.775,0.009 49.5,-0.35085 22.0291,-0.73824 24.1023,-0.27321 27.1562,6.09134 0.9109,1.89841 4.0609,5.96652 7,9.04026 16.6526,17.41543 23.1753,24.49179 25.5876,27.75968 1.4826,2.00844 4.9592,5.94097 7.7259,8.73896 2.7667,2.79799 7.7303,8.42299 11.0303,12.5 3.3,4.07701 8.5875,9.9484 11.75,13.04753 3.1625,3.09913 5.75,6.0694 5.75,6.60058 0,0.53119 2.3625,3.18476 5.25,5.89681 2.8875,2.71206 9.075,9.38974 13.75,14.83929 4.675,5.44955 10.9649,12.41033 13.9776,15.4684 3.0127,3.05808 6.4681,6.84163 7.6788,8.4079 2.9822,3.85823 16.1072,18.31121 19.9553,21.97436 l 3.1116,2.96215 101.7327,0.28557 c 55.953,0.15706 101.9384,0.49118 102.1897,0.74248 0.2513,0.2513 2.6535,0.45691 5.3383,0.45691 h 4.8815 z M 441,979 c 0,-0.55 -0.47656,-1 -1.05902,-1 -0.58246,0 -0.7809,0.45 -0.44098,1 0.33992,0.55 0.81648,1 1.05902,1 0.24254,0 0.44098,-0.45 0.44098,-1 z m 10.5,0 c 0.33992,-0.55 0.14148,-1 -0.44098,-1 -0.58246,0 -1.05902,0.45 -1.05902,1 0,0.55 0.19844,1 0.44098,1 0.24254,0 0.7191,-0.45 1.05902,-1 z m -240.77083,-0.60417 c -0.3323,-0.33229 -1.1948,-0.36781 -1.91667,-0.0789 -0.79773,0.31922 -0.56078,0.55618 0.60417,0.60416 1.05416,0.0434 1.64479,-0.19293 1.3125,-0.52522 z M 825.5,976.95131 c 13.2,0.062 67.92512,0.33346 121.61137,0.60325 92.62743,0.46548 97.72393,0.39937 99.81633,-1.29491 2.1657,-1.7537 2.2048,-2.22473 2.2019,-26.49424 -0,-13.58984 -0.3173,-27.89977 -0.7017,-31.79986 -0.496,-5.03444 -0.3266,-7.78629 0.5842,-9.48817 1.0115,-1.88997 1.0503,-4.2568 0.1836,-11.18725 -0.6513,-5.2082 -0.9717,-20.77813 -0.7862,-38.20899 0.3961,-37.21659 -1.0746,-34.54667 18.5362,-33.64952 16.2675,0.74419 14.9555,0.74613 23.3113,-0.0344 4.0161,-0.37513 8.6201,-0.16202 11.3499,0.52535 3.3587,0.84572 4.9508,0.85945 5.9248,0.0511 0.9199,-0.76345 2.4148,-0.80638 4.8327,-0.13878 1.9254,0.53164 3.7648,0.70254 4.0875,0.37979 0.9803,-0.98024 46.9191,-1.01225 48.8188,-0.034 0.9738,0.50148 2.2799,0.59701 2.9024,0.21228 0.6225,-0.38472 11.1601,-0.77704 23.4168,-0.87183 16.2403,-0.12559 22.6968,-0.51423 23.8037,-1.43283 0.8353,-0.69328 2.011,-0.95631 2.6126,-0.58451 2.1433,1.32465 17.7414,1.5057 18.8027,0.21824 0.65,-0.78838 1.0909,-25.70873 1.2425,-70.22206 0.1292,-37.95 0.4258,-69.7875 0.6591,-70.75 0.2334,-0.9625 1.294,-1.75 2.3569,-1.75 1.0629,0 1.9326,-0.45 1.9326,-1 0,-0.55 -0.9,-1 -2,-1 -1.9729,0 -2.0015,-0.70232 -2.1069,-51.75 -0.059,-28.4625 -0.022,-78.75 0.082,-111.75 0.1039,-33 -0.1076,-61.18104 -0.47,-62.62453 -1.3443,-5.355 2.221,-5.18163 -113.505,-5.51956 -59.125,-0.17265 -108.625,-0.26839 -110,-0.21277 -14.1707,0.57331 -213.98654,-0.79635 -214.66161,-1.47141 -0.29922,-0.29923 -1.57649,-0.1515 -2.83839,0.32827 -1.2619,0.47977 -2.51266,0.65401 -2.77947,0.3872 -0.47315,-0.47316 -25.24647,-0.76647 -35.22053,-0.41701 -2.75,0.0963 -26.1865,0.005 -52.08111,-0.2038 -25.89461,-0.20844 -47.61201,-0.20202 -48.26088,0.0143 -0.8897,0.29657 -1.1945,16.66087 -1.2397,66.5563 -0.033,36.38967 -0.007,67.06304 0.0567,68.16304 0.0642,1.1 1.2e-4,33.725 -0.14232,72.5 -0.14244,38.775 -0.1874,90.075 -0.0999,114 0.0875,23.925 0.13536,45.075 0.10636,47 -0.029,1.925 -0.10134,39.275 -0.16076,83 l -0.10804,79.5 69.73472,0.10325 c 38.3541,0.0568 70.03976,0.40828 70.41258,0.78109 0.37282,0.37282 1.37636,0.40255 2.23009,0.0661 C 800.80149,977.1139 812.3,976.88932 825.5,976.95131 Z M 1028,468.55902 c 0,-0.85746 0.45,-1.55902 1,-1.55902 0.55,0 1,0.42344 1,0.94098 0,0.51754 -0.45,1.2191 -1,1.55902 -0.55,0.33992 -1,-0.0835 -1,-0.94098 z M 255.39235,975.96769 C 379.20156,976.07374 485,976.1504 490.5,976.13804 c 5.5,-0.0124 32.6157,-0.0485 60.2571,-0.0803 L 601.0142,976 l 0.01,-41.25 c 0.01,-39.88629 -0.0771,-210.24354 -0.17356,-340.75 -0.0258,-34.925 0.0547,-82.31996 0.17904,-105.32214 0.14338,-26.53377 -0.13536,-42.1835 -0.7625,-42.81064 -0.62971,-0.62971 -33.97711,-1.16145 -91.87785,-1.46503 -49.98915,-0.2621 -94.03937,-0.52578 -97.88937,-0.58595 -3.85,-0.0602 -9.9114,0.147 -13.46977,0.46037 -3.55838,0.31338 -6.89926,0.30433 -7.42418,-0.0201 -1.36784,-0.84537 -7.03409,-0.72804 -8.49675,0.17593 -0.68149,0.42118 -2.67237,0.51082 -4.42419,0.19919 C 373.03915,443.98307 165.40576,442.5 78.249798,442.5 c -32.037611,0 -58.250111,-0.3375 -58.25,-0.75 4.16e-4,-1.54632 -5.555077,-0.69176 -6.623356,1.01883 -0.747998,1.19773 -1.111541,12.61156 -1.125992,35.35169 -0.0136,21.39443 -0.400529,34.29139 -1.06612,35.53506 -0.635747,1.1879 -0.693667,2.51834 -0.147943,3.3983 0.523842,0.84468 0.630895,36.38169 0.257403,85.44612 -0.351688,46.2 -0.491526,90.075 -0.31075,97.5 0.180776,7.425 0.306785,16.65 0.280021,20.5 -0.02676,3.85 0.01407,11.5 0.09075,17 0.135955,9.75244 0.0095,29.74869 -0.210328,33.25 -0.06042,0.9625 -0.16356,29.65 -0.229199,63.75 -0.06564,34.1 -0.185703,79.775 -0.266811,101.5 L 10.5,975.5 l 8,0.55213 c 4.4,0.30366 8.851558,0.36551 9.892351,0.13743 1.040792,-0.22808 103.190789,-0.32793 226.999999,-0.22187 z M 616,899 c 0,-0.55 -0.675,-1 -1.5,-1 -0.825,0 -1.5,0.45 -1.5,1 0,0.55 0.675,1 1.5,1 0.825,0 1.5,-0.45 1.5,-1 z m 986,-23.44098 c 0,-0.24254 -0.45,-0.7191 -1,-1.05902 -0.55,-0.33992 -1,-0.14148 -1,0.44098 0,0.58246 0.45,1.05902 1,1.05902 0.55,0 1,-0.19844 1,-0.44098 z m -477,-46.11804 c 0,-0.85746 -0.45,-1.2809 -1,-0.94098 -0.55,0.33992 -1,1.04148 -1,1.55902 0,0.51754 0.45,0.94098 1,0.94098 0.55,0 1,-0.70156 1,-1.55902 z M 1066,829 c 0,-0.55 -0.7016,-1 -1.559,-1 -0.8575,0 -1.2809,0.45 -0.941,1 0.3399,0.55 1.0415,1 1.559,1 0.5176,0 0.941,-0.45 0.941,-1 z m 170,0 c 0,-0.55 -0.45,-1 -1,-1 -0.55,0 -1,0.45 -1,1 0,0.55 0.45,1 1,1 0.55,0 1,-0.45 1,-1 z m 27,0 c 0,-0.55 -0.45,-1 -1,-1 -0.55,0 -1,0.45 -1,1 0,0.55 0.45,1 1,1 0.55,0 1,-0.45 1,-1 z m 40.5,0 c 0.3684,-0.59607 -0.7186,-0.95974 -2.691,-0.90032 -3.1111,0.0937 -3.1595,0.14757 -0.809,0.90032 1.375,0.44035 2.5859,0.8455 2.691,0.90032 0.105,0.0548 0.4691,-0.35032 0.809,-0.90032 z m 8.5021,-5.59487 c 4.2543,-0.3607 9.1212,-0.18899 11.2421,0.39663 2.744,0.75764 3.9356,0.72181 4.4741,-0.13454 0.4037,-0.64197 0.6477,-83.22498 0.5422,-183.51781 -0.1817,-172.64794 -0.2868,-182.55773 -1.9762,-186.2437 -1.5698,-3.42508 -2.1079,-3.82576 -4.4756,-3.33284 -1.4803,0.30815 -3.6546,0.0448 -4.8318,-0.58524 -3.3361,-1.78539 -17.775,-1.48031 -19.8748,0.41994 -1.624,1.46976 -1.7517,11.91377 -2.088,170.82895 -0.4391,207.51921 -0.4577,201.23668 0.6015,202.95055 0.352,0.56953 2.4101,0.75546 4.7526,0.42934 2.2725,-0.31637 7.5077,-0.86145 11.6339,-1.21128 z M 638.5,822 c 0.33992,-0.55 0.16803,-1 -0.38197,-1 -0.55,0 -1.27811,0.45 -1.61803,1 -0.33992,0.55 -0.16803,1 0.38197,1 0.55,0 1.27811,-0.45 1.61803,-1 z M 638,800.94098 C 638,800.42344 637.55,800 637,800 c -0.55,0 -1,0.70156 -1,1.55902 0,0.85746 0.45,1.2809 1,0.94098 0.55,-0.33992 1,-1.04148 1,-1.55902 z m -5.10023,-0.0241 c -1.69965,-1.07614 -12.90057,-1.22108 -12.89781,-0.1669 0.001,0.4125 3.21848,0.81821 7.14978,0.90158 4.48501,0.0951 6.62635,-0.17858 5.74803,-0.73468 z m 714.02633,-4.50593 c -1.2266,-1.47795 -4.9261,-1.96467 -4.9261,-0.6481 0,0.99708 4.2661,2.97739 5.2986,2.45957 0.4392,-0.22027 0.2716,-1.03543 -0.3725,-1.81147 z M 1351.5,797 c -0.3399,-0.55 -1.068,-1 -1.618,-1 -0.55,0 -0.7219,0.45 -0.382,1 0.3399,0.55 1.068,1 1.618,1 0.55,0 0.7219,-0.45 0.382,-1 z m -86.2146,-38.01658 c -0.2897,-1.10802 -0.9225,-2.25913 -1.4061,-2.55802 -0.999,-0.61743 -1.221,3.89959 -0.2398,4.88075 1.1632,1.16317 2.1816,-0.27411 1.6459,-2.32273 z M 1347,639.55902 c 0,-0.24254 -0.45,-0.7191 -1,-1.05902 -0.55,-0.33992 -1,-0.14148 -1,0.44098 0,0.58246 0.45,1.05902 1,1.05902 0.55,0 1,-0.19844 1,-0.44098 z M 655,635 c 0,-0.55 -0.70156,-1 -1.55902,-1 -0.85746,0 -1.2809,0.45 -0.94098,1 0.33992,0.55 1.04148,1 1.55902,1 0.51754,0 0.94098,-0.45 0.94098,-1 z m 691.5539,-70.08713 c 1.0305,-1.66742 -1.2873,-3.57951 -2.6668,-2.2 -1.1539,1.15392 -0.4317,3.28713 1.1129,3.28713 0.4851,0 1.1843,-0.48921 1.5539,-1.08713 z M 1497,446.55902 c 0,-0.24254 -0.45,-0.7191 -1,-1.05902 -0.55,-0.33992 -1,-0.14148 -1,0.44098 0,0.58246 0.45,1.05902 1,1.05902 0.55,0 1,-0.19844 1,-0.44098 z M 1578.5,446 c 0.3399,-0.55 0.1415,-1 -0.441,-1 -0.5824,0 -1.059,0.45 -1.059,1 0,0.55 0.1984,1 0.441,1 0.2425,0 0.7191,-0.45 1.059,-1 z m 16,0 c 0.3591,-0.58106 -0.5588,-0.97055 -2.191,-0.92971 -2.4708,0.0618 -2.5682,0.17375 -0.809,0.92971 1.1,0.47269 2.0859,0.89106 2.191,0.92971 0.105,0.0387 0.4691,-0.37971 0.809,-0.92971 z m 149.2292,0.39583 c -0.3323,-0.33229 -1.1948,-0.36781 -1.9167,-0.0789 -0.7977,0.31922 -0.5608,0.55618 0.6042,0.60416 1.0541,0.0434 1.6448,-0.19293 1.3125,-0.52522 z M 1790,446 c 0,-0.55 -0.1984,-1 -0.441,-1 -0.2425,0 -0.7191,0.45 -1.059,1 -0.3399,0.55 -0.1415,1 0.441,1 0.5824,0 1.059,-0.45 1.059,-1 z m 10,0 c 0,-0.55 -0.45,-1 -1,-1 -0.55,0 -1,0.45 -1,1 0,0.55 0.45,1 1,1 0.55,0 1,-0.45 1,-1 z m -979,-2.44098 c 0,-0.24254 -0.45,-0.7191 -1,-1.05902 -0.55,-0.33992 -1,-0.14148 -1,0.44098 0,0.58246 0.45,1.05902 1,1.05902 0.55,0 1,-0.19844 1,-0.44098 z M 838,443 c 0,-0.55 -0.19844,-1 -0.44098,-1 -0.24254,0 -0.7191,0.45 -1.05902,1 -0.33992,0.55 -0.14148,1 0.44098,1 0.58246,0 1.05902,-0.45 1.05902,-1 z m 271.5,0 c 0.3399,-0.55 -0.083,-1 -0.941,-1 -0.8574,0 -1.559,0.45 -1.559,1 0,0.55 0.4234,1 0.941,1 0.5175,0 1.2191,-0.45 1.559,-1 z M 494,441 c 0,-0.55 -0.45,-1 -1,-1 -0.55,0 -1,0.45 -1,1 0,0.55 0.45,1 1,1 0.55,0 1,-0.45 1,-1 z m 34.5,0 c 0.33992,-0.55 -0.11008,-1 -1,-1 -0.88992,0 -1.33992,0.45 -1,1 0.33992,0.55 0.78992,1 1,1 0.21008,0 0.66008,-0.45 1,-1 z M 477,436 c 0,-0.55 -0.45,-1 -1,-1 -0.55,0 -1,0.45 -1,1 0,0.55 0.45,1 1,1 0.55,0 1,-0.45 1,-1 z m 1250.1221,-8.675 c -0.8716,-1.49877 -1.0667,-1.54197 -1.0917,-0.24167 -0.032,1.68408 1.0192,3.2004 1.7279,2.49167 0.2338,-0.23375 -0.053,-1.24625 -0.6362,-2.25 z m -94.6897,-8.43438 c -0.7128,-1.15327 -3.4324,-1.15901 -3.4324,-0.007 0,0.48585 -1.0125,1.18707 -2.25,1.55827 -2.1781,0.65336 -2.1861,0.70034 -0.25,1.47114 2.2052,0.87794 6.8731,-1.50005 5.9324,-3.02216 z M 1644,421.11129 c 0,-1.22222 -6.7459,-2.38992 -8.267,-1.431 -0.8062,0.50824 -0.1946,1.0033 1.767,1.43019 4.5267,0.98514 6.5,0.98539 6.5,8.1e-4 z m -349.3958,-3.84046 c -1.0165,-1.01651 -1.8553,0.51389 -1.0213,1.86338 0.6301,1.01942 0.8656,1.02021 1.2044,0.004 0.2315,-0.69479 0.1492,-1.53513 -0.1831,-1.86742 z M 44.8,404.8 c 1.826573,-1.82657 1.452593,-2.55 -1.318237,-2.55 -2.720461,0 -3.969442,1.1519 -2.981763,2.75 0.836599,1.35365 2.839513,1.26049 4.3,-0.2 z M 1570.5,402 c 0.3399,-0.55 0.1415,-1 -0.441,-1 -0.5824,0 -1.059,0.45 -1.059,1 0,0.55 0.1984,1 0.441,1 0.2425,0 0.7191,-0.45 1.059,-1 z m -97.5,-0.44098 c 0,-1.05548 -1.9191,-1.49891 -2.4899,-0.57533 -0.3455,0.55897 0.073,1.01631 0.9309,1.01631 0.8574,0 1.559,-0.19844 1.559,-0.44098 z m -1017,-8 c 0,-1.05548 -1.91911,-1.49891 -2.48992,-0.57533 -0.34546,0.55897 0.0734,1.01631 0.9309,1.01631 0.85746,0 1.55902,-0.19844 1.55902,-0.44098 z m 1459.4889,-4.71492 c 0.632,-0.63168 1.7996,-103.92664 1.7334,-153.3441 -0.018,-13.2 -0.026,-25.0125 -0.018,-26.25 0.056,-8.77133 0.02,-40.05212 -0.1252,-106.75 -0.1618,-74.439358 -0.2315,-77.077361 -2.0955,-79.326283 -1.0604,-1.279456 -2.384,-2.044456 -2.9414,-1.7 -0.5573,0.344456 -4.9574,0.564917 -9.7779,0.489914 -4.8205,-0.075 -11.3315,-0.07067 -14.4689,0.0096 -3.1374,0.0803 -6.5976,-0.332052 -7.6893,-0.916336 -1.3155,-0.704043 -2.194,-0.724154 -2.6047,-0.05963 -0.8199,1.326511 -20.1913,1.313966 -21.0118,-0.01361 -0.3454,-0.558971 -1.0507,-0.75513 -1.5672,-0.435909 -0.5165,0.319222 -8.2479,0.493043 -17.1809,0.386269 -8.933,-0.106775 -17.3668,-0.168125 -18.7418,-0.136335 -6.6773,0.15438 -44.8989,-0.0081 -74,-0.314623 -17.875,-0.188263 -36.55,0.02968 -41.5,0.484318 -5.6573,0.519602 -9.4456,0.463461 -10.1998,-0.151158 -0.686,-0.55912 -4.5396,-0.749097 -9,-0.443697 -4.2901,0.293741 -8.7002,0.536618 -9.8002,0.539726 -1.1,0.0031 -5.375,0.04789 -9.5,0.09952 -4.125,0.05163 -8.4,0.104891 -9.5,0.118366 -1.1,0.01347 -48.8,-0.0086 -106,-0.04907 -57.2,-0.04046 -112.325,0.15989 -122.5,0.44523 -16.8441,0.472365 -18.6486,0.695794 -20.1603,2.496239 -2.019,2.404696 -2.2544,2.419887 -4.3909,0.283391 -1.3777,-1.377701 -3.2989,-1.6438 -10.2883,-1.424973 -4.7269,0.147991 -8.8998,0.457903 -9.2732,0.688694 -0.825,0.509828 -0.8169,-0.72522 -1.1327,172.716896 -0.2117,116.23422 -0.4826,139.92747 -1.6078,140.62283 -1.0394,0.64228 -1.0974,1.3144 -0.25,2.89768 0.7059,1.31906 1.1032,9.78373 1.1032,23.50473 0,16.55835 0.3012,21.69326 1.3221,22.54054 0.9213,0.76465 17.5174,1.11329 54.75,1.15017 29.3853,0.0291 78.8529,0.33053 109.9279,0.66984 31.075,0.3393 120.3829,0.79722 198.462,1.0176 78.0791,0.22038 142.0889,0.52762 142.2441,0.68278 0.5976,0.59764 27.1616,0.0922 27.7828,-0.52864 z m -676.6208,-3.38658 c 0.2025,-0.19826 0.5133,-75.86981 0.6907,-168.159 0.1774,-92.28918 0.5951,-173.76102 0.9282,-181.04852 l 0.6058,-13.25 -2.7964,0.01005 c -23.4474,0.08425 -83.8472,-1.16087 -84.4268,-1.740424 -0.4253,-0.425274 -4.2824,-0.51371 -8.5714,-0.196526 -4.289,0.317185 -8.6145,0.174268 -9.6121,-0.317593 -1.0779,-0.531417 -2.2952,-0.521135 -3,0.02534 -0.674,0.522563 -5.2879,0.630862 -10.6861,0.250824 -5.2951,-0.372783 -10.0339,-0.268392 -10.7062,0.23585 -0.6634,0.497563 -1.7515,0.567644 -2.418,0.155737 -0.6665,-0.411908 -4.1737,-0.720477 -7.7938,-0.685709 -3.6201,0.03477 -7.0898,-0.35163 -7.7104,-0.858662 -0.6908,-0.564449 -2.1182,-0.545541 -3.6813,0.04877 -1.4042,0.533854 -5.1714,0.773435 -8.3717,0.5324 -3.2002,-0.241034 -7.1815,-0.531284 -8.8472,-0.645001 -1.6657,-0.113716 -3.5782,0.132934 -4.25,0.548112 -0.6718,0.415178 -1.5763,0.53554 -2.01,0.26747 -0.4338,-0.268069 -40.5963,-0.780214 -89.25003,-1.1381 -174.28714,-1.282017 -189.43043,-1.296712 -190.13515,-0.184507 -0.47134,0.74386 -1.07227,0.747869 -2,0.01334 -1.73699,-1.375252 -19.01976,-2.011226 -37.32622,-1.373538 -4.4,0.15327 -10.84513,0.03498 -14.32251,-0.262857 -3.47738,-0.297841 -8.65238,-0.169013 -11.5,0.286284 -3.29038,0.526089 -5.63309,0.455318 -6.42749,-0.194168 -0.86502,-0.707228 -1.71458,-0.636412 -2.75846,0.229931 -0.9705,0.805439 -2.84283,1.021585 -5.25,0.606072 -3.20965,-0.554029 -17.50581,-0.628031 -41.89933,-0.216884 -3.38678,0.05708 -6.43239,0.374399 -6.76802,0.705146 -0.33563,0.330746 -0.68174,82.154982 -0.76913,181.831642 -0.13213,150.70585 0.0672,181.37005 1.18379,182.06011 0.73848,0.4564 6.19752,0.8759 12.13122,0.9322 5.93369,0.0563 11.48982,0.3715 12.34696,0.70041 0.85714,0.32892 2.208,0.0589 3.0019,-0.59993 0.7939,-0.65889 1.80067,-0.98206 2.23727,-0.71818 1.44204,0.87161 140.95536,1.80022 336.7021,2.24111 106.0995,0.23897 193.1425,0.66871 193.4287,0.95498 0.552,0.55195 19.4046,-0.43267 20.0311,-1.04618 z m 89.1393,-73.78119 c -0.035,-41.34698 0.061,-122.71829 0.2143,-180.82514 L 1328.5,25.202386 1313.6672,24.483961 c -8.8985,-0.431 -15.2065,-0.344664 -15.767,0.215798 -0.5631,0.563135 -0.8957,28.911338 -0.8373,71.367232 0.053,38.738159 0.069,71.783009 0.034,73.433009 -0.4154,19.78527 -0.9827,215.33247 -0.6274,216.26789 0.3625,0.95447 4.3281,1.24526 16.0418,1.17634 l 15.5602,-0.0916 z M 129.5,382.89089 c 17.6,0.0748 32.675,0.16166 33.5,0.19297 0.825,0.0313 48.975,0.026 107,-0.0117 58.025,-0.0378 156.03679,-0.0188 217.80399,0.0423 61.76719,0.061 112.58183,-0.16689 112.92143,-0.50648 0.33959,-0.3396 0.53537,-60.5778 0.43506,-133.86268 -0.15942,-116.47394 -0.15067,-150.609906 0.0554,-216.032252 0.0239,-7.582857 -0.14786,-13.978301 -0.38166,-14.212099 -0.2338,-0.233797 -10.30464,-0.716397 -22.37965,-1.072442 C 566.37956,17.072401 556.05,16.421744 555.5,15.982542 c -0.78083,-0.623532 -8.79592,-0.591205 -11.5,0.04638 -1.63555,0.385642 -28.57192,-0.264358 -29.28771,-0.706741 -0.47818,-0.295528 -18.72156,-0.680478 -40.54085,-0.855443 -21.81929,-0.174965 -41.80266,-0.543745 -44.40749,-0.81951 -2.60483,-0.275766 -4.99388,-0.08421 -5.30902,0.425688 -0.82361,1.33264 -4.83988,1.142134 -6.27989,-0.297878 -0.92057,-0.920569 -1.67219,-0.945658 -3.02476,-0.100968 -1.87468,1.17076 -18.58022,0.88247 -29.15028,-0.503051 -3.025,-0.396516 -21.7,-0.650482 -41.5,-0.564369 -21.9504,0.09547 -36.47074,-0.221092 -37.2062,-0.811132 -0.6634,-0.532235 -1.70324,-0.660508 -2.31074,-0.285051 -0.6075,0.375458 -12.21472,0.585028 -25.79381,0.465712 -39.66076,-0.348489 -40.6316,-0.349673 -86.91209,-0.105972 -26.53196,0.139711 -44.45733,0.612289 -44.80901,1.181328 -0.79965,1.293857 -25.11549,1.207567 -27.55456,-0.09778 -1.07521,-0.575435 -2.50812,-0.69955 -3.18426,-0.275812 C 116.0532,13.101682 107.175,13.550332 97,13.674945 86.825,13.799558 66.35,14.18916 51.5,14.540728 36.65,14.892296 23.6,15.122873 22.5,15.053121 8.9387783,14.193199 8.793865,14.331736 10.00318,27 c 0.627109,6.569321 0.563423,10.656847 -0.2064416,13.25 -0.7942177,2.675182 -0.8111288,4.824818 -0.059002,7.5 1.0980858,3.905699 1.0308138,8.77342 -0.2555291,18.489666 -0.4729398,3.572298 -0.3121153,7.91484 0.4258985,11.5 C 10.560284,80.90785 11.141265,85.975 11.199176,89 c 0.09229,4.820829 0.07312,82.07082 -0.02134,86 -1.5686944,65.25129 -1.125487,201.46388 0.670713,206.13288 l 1.012889,2.63288 42.319279,-0.50545 C 78.456324,382.98231 111.9,382.81608 129.5,382.89089 Z M 373,64.5 c 0,-1.555556 0.56667,-2.5 1.5,-2.5 1.61396,0 1.85324,0.915891 0.89301,3.418213 C 374.45881,67.852703 373,67.292949 373,64.5 Z m 961.8287,90.16879 c 0.2704,-1.41772 -0.1766,-1.75642 -1.9795,-1.5 -1.2937,0.184 -2.484,1.14511 -2.6779,2.16242 -0.2704,1.41772 0.1766,1.75642 1.9795,1.5 1.2937,-0.184 2.484,-1.14511 2.6779,-2.16242 z M 1243.6831,84.8125 c -0.3192,-0.797733 -0.5562,-0.560776 -0.6042,0.604167 -0.043,1.054166 0.193,1.644791 0.5253,1.3125 0.3323,-0.332292 0.3678,-1.194792 0.079,-1.916667 z M 1257,84 c 0,-0.55 -0.1984,-1 -0.441,-1 -0.2425,0 -0.7191,0.45 -1.059,1 -0.3399,0.55 -0.1415,1 0.441,1 0.5824,0 1.059,-0.45 1.059,-1 z m -1.2708,-7.604167 c -0.3323,-0.332291 -1.1948,-0.367818 -1.9167,-0.07895 -0.7977,0.319226 -0.5608,0.556183 0.6042,0.604167 1.0541,0.04342 1.6448,-0.192928 1.3125,-0.52522 z M 7,75.559017 C 7,75.316476 6.55,74.839919 6,74.5 5.45,74.160081 5,74.358524 5,74.940983 5,75.523442 5.45,76 6,76 6.55,76 7,75.801558 7,75.559017 Z M 1244.9847,71.75 C 1244.9931,71.3375 1244.55,71 1244,71 c -0.55,0 -0.9931,1.0125 -0.9847,2.25 0.012,1.819438 0.2008,1.962959 0.9847,0.75 0.5332,-0.825 0.9763,-1.8375 0.9847,-2.25 z M 621,71 c 0,-0.55 -0.47656,-1 -1.05902,-1 -0.58246,0 -0.7809,0.45 -0.44098,1 0.33992,0.55 0.81648,1 1.05902,1 C 620.80156,72 621,71.55 621,71 Z m -10,-0.83797 c 0,-0.460884 -1.575,-0.897181 -3.5,-0.969549 -1.925,-0.07237 -3.5,0.304719 -3.5,0.83797 C 604,70.563703 605.575,71 607.5,71 c 1.925,0 3.5,-0.377087 3.5,-0.83797 z M 642.5,70 c 0.33992,-0.55 0.14148,-1 -0.44098,-1 C 641.47656,69 641,69.45 641,70 c 0,0.55 0.19844,1 0.44098,1 0.24254,0 0.7191,-0.45 1.05902,-1 z m 632.2292,-1.604167 c -0.3323,-0.332291 -1.1948,-0.367818 -1.9167,-0.07895 -0.7977,0.319226 -0.5608,0.556183 0.6042,0.604167 1.0541,0.04342 1.6448,-0.192928 1.3125,-0.52522 z M 7,67 c 0,-0.55 -0.45,-1 -1,-1 -0.55,0 -1,0.45 -1,1 0,0.55 0.45,1 1,1 0.55,0 1,-0.45 1,-1 z m 598.90545,-1.854167 c -1.4779,-0.507956 -2.22865,0.522198 -1.38059,1.894399 0.53766,0.86994 0.94308,0.822505 1.56809,-0.183469 0.49513,-0.796924 0.41776,-1.502902 -0.1875,-1.71093 z M 1244,64.8 c 0,-2.326103 -0.3002,-2.899779 -1.0993,-2.100663 -0.6047,0.604635 -0.7993,2.044635 -0.4326,3.2 C 1243.4229,68.907716 1244,68.493566 1244,64.8 Z m -624,1.759017 c 0,-1.055475 -1.91911,-1.498911 -2.48992,-0.575329 C 617.16462,66.54266 617.58352,67 618.44098,67 619.29844,67 620,66.801558 620,66.559017 Z M 633.5,66 c 0.33992,-0.55 -0.057,-1 -0.88197,-1 -0.825,0 -1.77811,0.45 -2.11803,1 -0.33992,0.55 0.057,1 0.88197,1 0.825,0 1.77811,-0.45 2.11803,-1 z m 9,0 c 0.33992,-0.55 -0.11008,-1 -1,-1 -0.88992,0 -1.33992,0.45 -1,1 0.33992,0.55 0.78992,1 1,1 0.21008,0 0.66008,-0.45 1,-1 z m 617.4997,-1.75 c -2e-4,-0.4125 -1.5366,-0.75 -3.4144,-0.75 -1.8778,0 -3.7526,0.3375 -4.1664,0.75 -0.4137,0.4125 1.1228,0.75 3.4144,0.75 2.2917,0 4.1666,-0.3375 4.1664,-0.75 z M 1268,64.559017 c 0,-1.055475 -1.9191,-1.498911 -2.4899,-0.575329 C 1265.1646,64.54266 1265.5835,65 1266.441,65 1267.2984,65 1268,64.801558 1268,64.559017 Z M 1280.9969,64.25 c -0,-0.4125 -2.2517,-0.753343 -5,-0.75743 -2.7483,-0.0041 -4.9969,0.333414 -4.9969,0.75 0,0.416587 2.25,0.75743 5,0.75743 2.75,0 4.9986,-0.3375 4.9969,-0.75 z m 58.6625,0.0761 C 1338.7013,63.367968 1334,63.27732 1334,64.216978 1334,64.64764 1335.425,65 1337.1667,65 c 1.7416,0 2.8634,-0.303255 2.4927,-0.673899 z M 1344.5,64 c -0.3399,-0.55 -1.2665,-1 -2.059,-1 -0.7926,0 -1.441,0.45 -1.441,1 0,0.55 0.9266,1 2.059,1 1.1325,0 1.7809,-0.45 1.441,-1 z m 20.5,0.09362 c 0,-0.49851 -0.9,-0.671025 -2,-0.383369 -1.1,0.287656 -2,0.695528 -2,0.90638 0,0.210853 0.9,0.383369 2,0.383369 1.1,0 2,-0.407871 2,-0.90638 z M 1376,64 c 0,-0.55 -0.45,-1 -1,-1 -0.55,0 -1,0.45 -1,1 0,0.55 0.45,1 1,1 0.55,0 1,-0.45 1,-1 z M 611,62 c 0,-0.55 -0.47656,-1 -1.05902,-1 -0.58246,0 -0.7809,0.45 -0.44098,1 0.33992,0.55 0.81648,1 1.05902,1 C 610.80156,63 611,62.55 611,62 Z m 9,0 c 0,-0.55 -0.45,-1 -1,-1 -0.55,0 -1,0.45 -1,1 0,0.55 0.45,1 1,1 0.55,0 1,-0.45 1,-1 z m 7.34355,0.25 c 0.25387,-0.4125 -0.86071,-0.845651 -2.47686,-0.962558 -1.67506,-0.121169 -2.68267,0.201292 -2.34355,0.75 0.70315,1.137714 4.15729,1.290026 4.82041,0.212558 z M 641,62 c 0,-0.55 -0.92656,-1 -2.05902,-1 -1.13246,0 -1.7809,0.45 -1.44098,1 0.33992,0.55 1.26648,1 2.05902,1 C 640.35156,63 641,62.55 641,62 Z m 612.5534,-2.230046 c -0.9369,-0.524305 -1.9941,-0.662565 -2.3494,-0.307245 -0.88,0.879942 1.9676,2.549253 3.1267,1.832925 0.5094,-0.314819 0.1596,-1.001376 -0.7773,-1.52568 z m 14.743,0.126421 c -0.791,-0.790945 -1.6268,-0.79956 -2.95,-0.03041 -1.6186,0.940833 -1.4825,1.076967 1.1036,1.103624 2.1513,0.02218 2.6512,-0.268383 1.8464,-1.073216 z M 1284,60.200019 c 0,-0.883461 -9.8646,-0.668781 -10.7677,0.234334 C 1272.9212,60.745459 1275.2167,61 1278.3333,61 1281.45,61 1284,60.640009 1284,60.200019 Z m 48,-0.759036 c 0,-0.857459 -0.4573,-1.276365 -1.0163,-0.930902 -0.559,0.345464 -0.7574,1.047021 -0.441,1.559017 0.8572,1.387044 1.4573,1.128411 1.4573,-0.628115 z m 28.5416,0.626394 c -0.7145,-1.15616 -6.5416,-1.080621 -6.5416,0.0848 0,0.466301 1.6016,0.84782 3.559,0.84782 1.9575,0 3.2997,-0.41968 2.9826,-0.932623 z m 4.4584,0.03961 c 0,-0.491156 -0.675,-1.152033 -1.5,-1.468615 -0.9137,-0.350624 -1.5,-0.0016 -1.5,0.893011 0,0.807738 0.675,1.468615 1.5,1.468615 0.825,0 1.5,-0.401855 1.5,-0.893011 z m 10,0.452028 c 0,-0.242541 -0.45,-0.719098 -1,-1.059017 -0.55,-0.339919 -1,-0.141476 -1,0.440983 0,0.582459 0.45,1.059017 1,1.059017 0.55,0 1,-0.198442 1,-0.440983 z m -130.7054,-5.891289 c -0.4364,-0.706191 -0.9535,-0.189898 -1.3444,1.342353 -0.8393,3.29029 0.1452,4.964446 1.2164,2.068535 0.4605,-1.244827 0.5181,-2.779727 0.128,-3.410888 z m 8.3096,0.603105 c -1.0165,-1.016515 -1.8553,0.513892 -1.0213,1.863382 0.6301,1.019417 0.8656,1.020206 1.2044,0.004 0.2315,-0.694785 0.1492,-1.535121 -0.1831,-1.867413 z m 22.9268,0.779386 c -0.368,-0.595563 -1.1361,-0.794252 -1.7069,-0.441531 -0.6718,0.415239 -0.5696,0.930597 0.2902,1.461939 1.6047,0.991797 2.3352,0.465691 1.4167,-1.020408 z M 1266.5,56 c -2.7491,-1.181322 -4.328,-1.181322 -2.5,0 0.825,0.533156 2.175,0.944637 3,0.914402 0.9891,-0.03625 0.8187,-0.34772 -0.5,-0.914402 z m 16,0 c -2.7782,-1.193844 -4.7378,-1.193844 -4,0 0.3399,0.55 1.829,0.968372 3.309,0.929715 2.4028,-0.06276 2.4768,-0.162316 0.691,-0.929715 z m 8.25,0.310674 c -0.9625,-0.251527 -2.5375,-0.251527 -3.5,0 -0.9625,0.251528 -0.175,0.457323 1.75,0.457323 1.925,0 2.7125,-0.205795 1.75,-0.457323 z M 1334.5,56 c -0.3399,-0.55 -1.2399,-1 -2,-1 -0.7601,0 -1.6601,0.45 -2,1 -0.3519,0.569401 0.5093,1 2,1 1.4907,0 2.3519,-0.430599 2,-1 z m 12.8695,-0.03048 c -0.6823,-0.682356 -1.8479,-0.70377 -3.45,-0.06339 -2.2734,0.90871 -2.2112,0.970924 1.0305,1.030484 2.368,0.04351 3.1268,-0.259786 2.4195,-0.967098 z M 1356.2,55.8 c -0.9333,-0.933333 -1.4667,-0.933333 -2.4,0 -0.9333,0.933333 -0.6667,1.2 1.2,1.2 1.8667,0 2.1333,-0.266667 1.2,-1.2 z m 6.4027,-0.29977 C 1360.6919,54.053881 1359,54.316301 1359,56.059017 c 0,0.517541 1.2375,0.926671 2.75,0.90918 2.6056,-0.03013 2.6504,-0.107197 0.8527,-1.467967 z m 521.1265,-38.104397 c -0.3323,-0.332291 -1.1948,-0.367818 -1.9167,-0.07895 -0.7977,0.319226 -0.5608,0.556183 0.6042,0.604167 1.0541,0.04342 1.6448,-0.192928 1.3125,-0.52522 z M 1687.5829,1459.1342 c -0.4307,-0.697 -0.5131,-1.5373 -0.183,-1.8674 0.8949,-0.895 1.8707,0.4213 1.3874,1.8714 -0.3388,1.0162 -0.5743,1.0154 -1.2044,-0 z M 135.15789,2 c 0,-1.375 0.22698,-1.9375 0.50439,-1.25 0.27741,0.6875 0.27741,1.8125 0,2.5 -0.27741,0.6875 -0.50439,0.125 -0.50439,-1.25 z"
       id="path1" />
    <rect
       style="fill:#000000"
       id="rect1"
       width="38.566036"
       height="345.25787"
       x="606.03772"
       y="20.201258" />
    <rect
       style="fill:#000000"
       id="rect2"
       width="31.220125"
       height="778.66669"
       x="1245.1321"
       y="27.547171" />
    <rect
       style="fill:#000000"
       id="rect3"
       width="42.238995"
       height="793.35852"
       x="1333.283"
       y="23.874214" />
    <rect
       style="fill:#000000"
       id="rect4"
       width="457.28302"
       height="45.911949"
       x="1428.7799"
       y="394.84277" />
    <rect
       style="fill:#000000"
       id="rect5"
       width="668.47797"
       height="45.911949"
       x="14.691824"
       y="391.1698" />
    <rect
       style="fill:#000000"
       id="rect6"
       width="34.893082"
       height="699.69812"
       x="609.71069"
       y="462.79245" />
    <rect
       style="fill:#000000"
       id="rect7"
       width="896.20123"
       height="53.257862"
       x="22.037735"
       y="988.02515" />
    <rect
       style="fill:#000000"
       id="rect8"
       width="980.67926"
       height="55.094341"
       x="25.710691"
       y="1076.1761" />
    <rect
       style="fill:#000000"
       id="rect9"
       width="123.04402"
       height="31.220125"
       x="1766.6918"
       y="1000.8805" />
  </g>
</svg>
